<?xml version="1.0" encoding="utf-8"?>
<!-- Generator: Adobe Illustrator 22.0.1, SVG Export Plug-In . SVG Version: 6.00 Build 0)  -->
<svg version="1.1" id="Layer_1" xmlns="http://www.w3.org/2000/svg" xmlns:xlink="http://www.w3.org/1999/xlink" x="0px" y="0px"
	 viewBox="0 0 156 156" style="enable-background:new 0 0 156 156;" xml:space="preserve">
<style type="text/css">
	.st0{fill:#FFD9B2;}
	.st1{fill:#F7AC76;}
	.st2{fill:none;stroke:#3643C3;stroke-width:0.5;stroke-linecap:round;stroke-linejoin:round;stroke-miterlimit:10;}
	.st3{fill:#233764;}
	.st4{fill:none;stroke:#F7AC76;stroke-width:0.5;stroke-linecap:round;stroke-linejoin:round;stroke-miterlimit:10;}
	.st5{fill:#161718;}
	.st6{fill:#FFFFFF;}
	.st7{fill:#F06449;}
	.st8{fill:#BE412D;}
	.st9{fill:#FE8E60;}
	.st10{fill:#7D4C47;}
	.st11{fill:#4456D6;}
	.st12{fill:#203881;}
	.st13{fill:#6582FC;}
	.st14{fill:#DDA103;}
	.st15{fill:#FBC32E;}
	.st16{fill:none;stroke:#DDA103;stroke-width:0.5;stroke-miterlimit:10;}
	.st17{fill:#FBE6BB;}
	.st18{fill:none;stroke:#BE412D;stroke-width:0.5;stroke-linecap:round;stroke-linejoin:round;stroke-miterlimit:10;}
	.st19{fill:none;stroke:#F06449;stroke-width:0.5;stroke-linecap:round;stroke-linejoin:round;stroke-miterlimit:10;}
	.st20{fill:#F34B4B;}
	.st21{fill:#FC7070;}
	.st22{fill:none;stroke:#FFFFFF;stroke-miterlimit:10;}
	.st23{fill:#FC9F9F;}
	.st24{fill:#408A6F;}
	.st25{fill:#64B48D;}
	.st26{fill:none;stroke:#FBE6BB;stroke-width:0.5;stroke-linecap:round;stroke-linejoin:round;stroke-miterlimit:10;}
	.st27{fill:none;stroke:#F7AC76;stroke-width:0.25;stroke-linecap:round;stroke-linejoin:round;stroke-miterlimit:10;}
	.st28{fill:#A0665A;}
	.st29{fill:#6C3F44;}
	.st30{fill:none;stroke:#6C3F44;stroke-width:0.5;stroke-linecap:round;stroke-linejoin:round;stroke-miterlimit:10;}
	.st31{fill:none;stroke:#7D4C47;stroke-width:0.5;stroke-linecap:round;stroke-linejoin:round;stroke-miterlimit:10;}
	.st32{fill:none;stroke:#F34B4B;stroke-width:0.5;stroke-linecap:round;stroke-linejoin:round;stroke-miterlimit:10;}
	.st33{fill:none;stroke:#FC7070;stroke-width:0.5;stroke-linecap:round;stroke-linejoin:round;stroke-miterlimit:10;}
	.st34{fill:#EAE8F3;}
	.st35{fill:#40304A;}
	.st36{fill:none;stroke:#43334E;stroke-linecap:round;stroke-linejoin:round;stroke-miterlimit:10;}
	.st37{fill:#32775B;}
	.st38{fill:none;stroke:#233764;stroke-width:0.5;stroke-linecap:round;stroke-linejoin:round;stroke-miterlimit:10;}
	.st39{fill:none;stroke:#408A6F;stroke-width:0.5;stroke-linecap:round;stroke-linejoin:round;stroke-miterlimit:10;}
	.st40{fill:#3643C3;}
	.st41{opacity:0.56;fill:url(#SVGID_1_);}
	.st42{opacity:0.52;fill:#FBC32E;}
	.st43{opacity:0.56;fill:url(#SVGID_2_);}
	.st44{fill:none;stroke:#EAE8F3;stroke-width:0.5;stroke-linecap:round;stroke-linejoin:round;stroke-miterlimit:10;}
	.st45{fill:#FEFFFD;}
	.st46{opacity:0.35;fill:#32775B;}
	.st47{fill:#43334E;}
	.st48{fill:none;stroke:#EAE8F3;stroke-width:0.25;stroke-linecap:round;stroke-linejoin:round;stroke-miterlimit:10;}
	.st49{fill:none;stroke:#FBC32E;stroke-width:0.5;stroke-linecap:round;stroke-linejoin:round;stroke-miterlimit:10;}
	.st50{fill:none;stroke:#161718;stroke-width:0.5;stroke-linecap:round;stroke-linejoin:round;stroke-miterlimit:10;}
	.st51{fill:none;stroke:#40304A;stroke-linecap:round;stroke-linejoin:round;stroke-miterlimit:10;}
	.st52{opacity:0.33;fill:#FBC32E;}
	.st53{fill:#A6A3AE;}
	.st54{fill:#5B4B68;}
	.st55{fill:#776688;}
	.st56{fill:none;stroke:#FBC32E;stroke-width:0.5;stroke-miterlimit:10;}
	.st57{fill:none;stroke:#EAE8F3;stroke-linecap:round;stroke-linejoin:round;stroke-miterlimit:10;}
	.st58{fill:none;stroke:#203881;stroke-width:2;stroke-linecap:round;stroke-linejoin:round;stroke-miterlimit:10;}
	.st59{fill:none;stroke:#40304A;stroke-width:2;stroke-linecap:round;stroke-linejoin:round;stroke-miterlimit:10;}
	.st60{fill:#FFD8B7;}
	.st61{fill:#F4E4D4;}
	.st62{fill:none;stroke:#4456D6;stroke-width:0.5;stroke-linecap:round;stroke-linejoin:round;stroke-miterlimit:10;}
	.st63{fill:none;stroke:#DDA103;stroke-width:0.25;stroke-miterlimit:10;}
	.st64{fill:none;stroke:#FFFFFF;stroke-width:0.5;stroke-linecap:round;stroke-linejoin:round;stroke-miterlimit:10;}
	.st65{fill:none;stroke:#64B48D;stroke-width:0.5;stroke-linecap:round;stroke-linejoin:round;stroke-miterlimit:10;}
	.st66{fill:none;stroke:#64B48D;stroke-linecap:round;stroke-linejoin:round;stroke-miterlimit:10;}
	.st67{opacity:0.48;fill:#64B48D;}
	.st68{fill:none;stroke:#64B48D;stroke-width:0.25;stroke-linecap:round;stroke-linejoin:round;stroke-miterlimit:10;}
	.st69{fill:none;stroke:#F06449;stroke-width:2;stroke-linecap:round;stroke-linejoin:round;stroke-miterlimit:10;}
	.st70{opacity:0.92;fill:#64B48D;}
	.st71{opacity:0.57;fill:#408A6F;}
	.st72{opacity:0.36;fill:#408A6F;}
	.st73{fill:none;stroke:#BE412D;stroke-width:2;stroke-linecap:round;stroke-linejoin:round;stroke-miterlimit:10;}
	.st74{opacity:0.65;fill:none;stroke:#408A6F;stroke-width:0.25;stroke-linecap:round;stroke-linejoin:round;stroke-miterlimit:10;}
	.st75{opacity:0.67;fill:none;stroke:#64B48D;stroke-width:0.25;stroke-linecap:round;stroke-linejoin:round;stroke-miterlimit:10;}
	.st76{opacity:0.98;fill:#64B48D;}
	.st77{fill:none;stroke:#408A6F;stroke-width:0.25;stroke-linecap:round;stroke-linejoin:round;stroke-miterlimit:10;}
	.st78{fill:none;stroke:#FFD9B2;stroke-width:0.5;stroke-linecap:round;stroke-linejoin:round;}
	
		.st79{fill:none;stroke:#FFD9B2;stroke-width:0.5;stroke-linecap:round;stroke-linejoin:round;stroke-dasharray:4.0333505,4.0333505;}
	.st80{fill:#E68B4A;}
	.st81{opacity:0.62;fill:#64B48D;}
	.st82{fill:none;stroke:#FBC32E;stroke-width:0.25;stroke-miterlimit:10;}
	.st83{fill:none;stroke:#4456D6;stroke-linecap:round;stroke-linejoin:round;stroke-miterlimit:10;}
	.st84{fill:none;stroke:#E68B4A;stroke-width:0.5;stroke-linecap:round;stroke-linejoin:round;stroke-miterlimit:10;}
	.st85{fill:none;stroke:#203881;stroke-width:0.5;stroke-linecap:round;stroke-linejoin:round;stroke-miterlimit:10;}
	.st86{opacity:0.29;fill:#EAE8F3;}
	.st87{fill:none;stroke:#A6A3AE;stroke-width:0.5;stroke-linecap:round;stroke-linejoin:round;stroke-miterlimit:10;}
	.st88{opacity:0.74;fill:#FFFFFF;}
	.st89{opacity:0.19;fill:#FFFFFF;}
	.st90{fill:none;stroke:#40304A;stroke-width:0.25;stroke-linecap:round;stroke-linejoin:round;stroke-miterlimit:10;}
	.st91{fill:none;stroke:#F34B4B;stroke-width:2;stroke-linecap:round;stroke-linejoin:round;stroke-miterlimit:10;}
	.st92{fill:none;stroke:#43334E;stroke-width:0.5;stroke-linecap:round;stroke-linejoin:round;stroke-miterlimit:10;}
	.st93{fill:none;stroke:#6582FC;stroke-miterlimit:10;}
	.st94{opacity:0.47;fill:#A6A3AE;}
	.st95{opacity:0.43;fill:#FFFFFF;}
	.st96{fill:none;stroke:#FBE6BB;stroke-linecap:round;stroke-linejoin:round;stroke-miterlimit:10;}
	.st97{fill:none;stroke:#5B4B68;stroke-width:0.5;stroke-linecap:round;stroke-linejoin:round;stroke-miterlimit:10;}
	.st98{fill:none;stroke:#40304A;stroke-width:0.5;stroke-linecap:round;stroke-linejoin:round;stroke-miterlimit:10;}
	.st99{fill:none;stroke:#DDA103;stroke-linecap:round;stroke-linejoin:round;stroke-miterlimit:10;}
	.st100{fill:none;stroke:#FBC32E;stroke-linecap:round;stroke-linejoin:round;stroke-miterlimit:10;}
	.st101{fill:none;stroke:#32775B;stroke-width:0.5;stroke-linecap:round;stroke-linejoin:round;stroke-miterlimit:10;}
	.st102{opacity:0.4;fill:#FBE6BB;}
	.st103{fill:none;stroke:#FBC32E;stroke-width:0.25;stroke-linecap:round;stroke-linejoin:round;stroke-miterlimit:10;}
	.st104{fill:none;stroke:#4456D6;stroke-miterlimit:10;}
	.st105{opacity:0.61;fill:#64B48D;}
	.st106{opacity:0.9;fill:#64B48D;}
	.st107{opacity:0.76;fill:#64B48D;}
	.st108{fill:none;stroke:#5B4B68;stroke-width:0.5;stroke-miterlimit:10;}
	.st109{opacity:0.66;fill:#A6A3AE;}
	.st110{fill:none;stroke:#43334E;stroke-miterlimit:10;}
	.st111{opacity:0.52;fill:#6582FC;}
	.st112{fill:none;stroke:#DDA103;stroke-width:0.5;stroke-linecap:round;stroke-linejoin:round;stroke-miterlimit:10;}
	.st113{fill:#46724E;}
	.st114{fill:#FE8B2E;}
	.st115{fill:none;stroke:#7D4C47;stroke-width:2;stroke-linecap:round;stroke-linejoin:round;stroke-miterlimit:10;}
	.st116{opacity:0.4;fill:#EAE8F3;}
	.st117{fill:none;stroke:#EAE8F3;stroke-width:0.5;stroke-linecap:round;stroke-miterlimit:10;}
	.st118{fill:none;stroke:#4456D6;stroke-width:0.25;stroke-linecap:round;stroke-linejoin:round;stroke-miterlimit:10;}
	.st119{opacity:0.5;fill:#EAE8F3;}
	.st120{opacity:0.46;fill:#A6A3AE;}
	.st121{fill:#E0916E;}
	.st122{fill:none;stroke:#A0665A;stroke-linecap:round;stroke-linejoin:round;stroke-miterlimit:10;}
	.st123{opacity:0.46;fill:#BE412D;}
	.st124{fill:none;stroke:#203881;stroke-linecap:round;stroke-linejoin:round;stroke-miterlimit:10;}
	.st125{fill:#DBDBE1;}
	.st126{fill:none;stroke:#6582FC;stroke-width:0.5;stroke-linecap:round;stroke-linejoin:round;stroke-miterlimit:10;}
	.st127{opacity:0.53;fill:#A6A3AE;}
	.st128{fill:none;stroke:#DDA103;stroke-miterlimit:10;}
	.st129{opacity:0.2;fill:#FFFFFF;}
	.st130{fill:#B4A1BF;}
	.st131{opacity:0.5;fill:#6582FC;}
	.st132{opacity:0.6;fill:none;stroke:#FFFFFF;stroke-linecap:round;stroke-linejoin:round;stroke-miterlimit:10;}
	.st133{opacity:0.6;fill:none;stroke:#FFFFFF;stroke-width:2;stroke-linecap:round;stroke-linejoin:round;stroke-miterlimit:10;}
	.st134{opacity:0.54;fill:#A6A3AE;}
	.st135{fill:#161718;stroke:#000000;stroke-width:0.25;stroke-miterlimit:10;}
</style>
<g id="_x31_1">
	<g>
		<polygon class="st24" points="142,54.9866257 140.3992767,58.4830475 138.3319855,63.017952 136.1693115,67.7814941 
			133.7973175,64.8947601 123.9176102,74.2027359 121.8977585,76.0986176 104.2633438,92.7138596 102.2909393,86.8928223 
			97.6325302,84.6158371 104.3107986,79.6903458 115.8005142,71.2207565 130.0432281,60.7124138 128.3094635,58.6069069 
			128.1285095,58.3878021 131.5392761,57.5494118 		"/>
		<polygon class="st37" points="97.6369019,84.6176453 97.2720108,86.5077896 101.425087,87.6449966 102.2178802,92.5502243 
			104.2638092,92.7138214 102.2888489,86.8941269 		"/>
		<polygon class="st37" points="128.1352997,58.3864746 126.7116165,60.0685425 129.0282593,61.4608574 130.0405273,60.7141266 		
			"/>
		<polygon class="st37" points="136.1657257,67.7844086 134.0115051,68.6108856 132.8231964,65.82444 133.8049011,64.9001465 		"/>
	</g>
	<g>
		<g>
			<path class="st100" d="M60.8057671,95.6128082c-2.8691254-2.4065628-4.3313446-6.382225-3.7052574-10.0743027"/>
			<path class="st34" d="M70.1060257,95.505249l-8.6697426,5.192276l-7.116703-3.0677567
				c0,0,0.3144646-0.6097488,0.9050255-1.4862213c1.4672089-2.1340561,4.6207275-5.86866,9.0793419-6.3355331
				c0,0,1.4862747,1.4576721,2.9630203,2.9058075C68.6578903,94.0857239,70.0297318,95.4290161,70.1060257,95.505249z"/>
			<path class="st127" d="M70.1060257,95.505249l-8.6697426,5.192276l-7.116703-3.0677567
				c0,0,0.3144646-0.6097488,0.9050255-1.4862213l5.5829735,2.667572c0,0,3.0104752-3.658371,6.4593887-6.0972977
				C68.6578903,94.0857239,70.0297318,95.4290161,70.1060257,95.505249z"/>
			<path class="st11" d="M116.561264,89.3692703c0,0-1.9726791,1.8278656-4.6873016,4.7325363
				c-1.8097534,1.9454498-3.9542999,4.3705063-6.0536728,7.0399017c-0.1899872,0.2352753-0.3709183,0.4705505-0.5519562,0.7148285
				c-1.2306213,1.5925903-2.4251175,3.2575836-3.5380936,4.9678116c-0.4705505,0.7238846-0.9229889,1.4568329-1.3391953,2.1897812
				c-0.5880814,0.9953384-1.1310959,1.999794-1.6016464,2.9951324c-2.0450287,4.2619781-4.2619324,7.7547836-6.4335403,10.5236969
				c-0.1901016,0.2533417-0.3800888,0.4886169-0.5701828,0.7148361c-3.239418,4.0085907-6.3069534,6.4246445-8.4243317,7.4923935
				l-0.0271759-0.0090637c-1.8368073,1.0406342-3.890892,1.7825775-6.0897903,2.1626587
				c-0.9862823,0.171936-1.9726715,0.2624054-2.9408417,0.2895813c-1.2306137,0.0180511-2.4432297-0.0814667-3.6285553-0.2895813
				c-7.6642647-1.3572998-14.0165062-7.3566284-15.428051-15.4733887
				c-0.9773369-5.5830612,0.5971375-11.0213699,3.8727798-15.1385422c1.2940178-2.0269089,4.0448761-4.8863449,8.4333839-7.7366638
				c0.2533951-0.1628723,0.5067825-0.3167419,0.7601776-0.4796143c2.9408417-1.8368683,6.569397-3.6556702,10.9309616-5.2301483
				c0.0179977-0.0090561,0.0451736-0.0181122,0.0632858-0.0271683c3.6375046-1.3120804,7.4019318-3.3389969,10.8494415-5.4925995
				c0.2623444-0.1538162,0.5157318-0.3166885,0.7691269-0.4795532c4.6238937-2.9499054,8.5963135-6.0445633,10.8132095-7.8543091
				c0.6153641-0.5067291,1.0949707-0.9048767,1.4116592-1.176384c0.2986755-0.2623901,0.4614944-0.3980942,0.4614944-0.3980942
				L116.561264,89.3692703z"/>
			<path class="st40" d="M116.5600967,89.3698044c0,0-1.972168,1.8291855-4.6873627,4.7349319
				c-1.810173,1.9435654-3.9537659,4.3634186-6.049675,7.0405273c-0.1904984,0.2286453-0.3715744,0.4668198-0.5526505,0.7145309
				c-1.2289124,1.591011-2.4293365,3.2582474-3.5440445,4.9636383c-0.4668198,0.7240677-0.914566,1.4576111-1.3337021,2.1912155
				c-0.5907898,0.990799-1.1337814,2.0006638-1.6006012,2.9915161c-2.0483475,4.2681198-4.2682343,7.7550049-6.4403152,10.52742
				c-0.1906128,0.2572479-0.3715744,0.4858932-0.5620651,0.7145309c-3.2392349,4.0109253-6.307045,6.4212418-8.4315643,7.4882736
				l-0.0286102-0.0095367c-1.8291245,1.0480194-3.8868942,1.7910919-6.0877075,2.162674
				c-0.9813156,0.1714783-1.972168,0.2667236-2.9344177,0.2953339c-1.2384491,0.0190735-2.44841-0.0857697-3.6297531-0.2953339
				c-7.6692352-1.352829-14.0239601-7.3549423-15.4339485-15.4719849c-0.276207-1.5624542-0.3428459-3.1153717-0.2381783-4.6206665
				c0.038147,0.6669083,0.1239738,1.3528824,0.2381783,2.029274c1.4099884,8.1075592,7.7647133,14.1096115,15.4339485,15.4719772
				c1.1813431,0.2096252,2.391304,0.3048706,3.6297531,0.2858582c0.9622498-0.0286102,1.9531021-0.1143188,2.9344177-0.2858582
				c2.2008133-0.3810577,4.2585831-1.1241913,6.0877075-2.1626129l0.0286102,0.0095367
				c2.1245193-1.0670319,5.1923294-3.4869461,8.4315643-7.4978104c0.1904907-0.2286987,0.3714523-0.4573364,0.5620651-0.7145309
				c2.172081-2.7628784,4.3919678-6.2593002,6.4403152-10.5179367c0.4668198-1.0003357,1.0098114-2.0006638,1.6006012-3.0009995
				c0.419136-0.7336044,0.8668823-1.4672089,1.3337021-2.1912766c1.1147079-1.7053299,2.3151321-3.3725662,3.5440445-4.9635773
				c0.181076-0.2477112,0.3621521-0.4763489,0.5526505-0.7145309c2.0959091-2.667572,4.239502-5.097023,6.049675-7.0405273
				c1.4385986-1.5433807,2.667511-2.7818909,3.506012-3.5917282L116.5600967,89.3698044z"/>
			<path class="st40" d="M116.561264,89.3692703c0,0-1.9726791,1.8278656-4.6873016,4.7325363l-8.7682953-20.1334686
				l0.0452881-0.1629257c0.2986755-0.2623901,0.4614944-0.3980942,0.4614944-0.3980942L116.561264,89.3692703z"/>
			<path class="st13" d="M106.1875153,96.6511993l-5.7964706,8.4086304c-7.0670166-5.5921249-17.32827-5.356842-17.32827-5.356842
				l-3.8185425-10.8675613c0.0179977-0.0090561,0.0451736-0.0181122,0.0632858-0.0271683
				c3.6375046-1.3120804,7.4019318-3.3389969,10.8494415-5.4925995c0.2623444-0.1538162,0.5157318-0.3166885,0.7691269-0.4795532
				c4.6238937-2.9499054,8.5963135-6.0445633,10.8132095-7.8543091l1.3663712,1.1220322L106.1875153,96.6511993z"/>
			<path class="st40" d="M100.3910446,109.0141296c-0.5880814,0.9953384-1.1310959,1.999794-1.6016464,2.9951324
				c-2.0450287,4.2619781-4.2619324,7.7547836-6.4335403,10.5236969c-0.1901016,0.2533417-0.3800888,0.4886169-0.5701828,0.7148361
				c-3.239418,4.0085907-6.3069534,6.4246445-8.4243317,7.4923935l-0.0271759-0.0090637
				c-1.8368073,1.0406342-3.890892,1.7825775-6.0897903,2.1626587c-0.9862823,0.171936-1.9726715,0.2624054-2.9408417,0.2895813
				c-1.2306137,0.0180511-2.4432297-0.0814667-3.6285553-0.2895813c-2.5879288-3.2485199-4.135231-7.3747482-4.135231-11.8538895
				c0-10.5236969,8.5329056-19.0566635,19.0566101-19.0566635C91.568512,101.9832306,96.8982391,104.725029,100.3910446,109.0141296
				z"/>
			<path class="st6" d="M105.8207932,101.1435318c-0.1886902,0.2349777-0.3684692,0.468338-0.555603,0.7122345
				c-6.0279617-5.2875748-11.1455002-11.5695572-15.1061096-18.5398712
				c0.2577591-0.1551743,0.5139847-0.3191681,0.7700882-0.4831924
				C94.8385544,89.720108,99.8765488,95.9149323,105.8207932,101.1435318z"/>
			<path class="st6" d="M92.3521347,122.5305099c-0.1855927,0.2527618-0.3742981,0.4876785-0.5645447,0.7137222
				c-10.4708328-7.2231216-18.8731155-17.1763535-24.2327805-28.6976089
				c0.2472992-0.1624374,0.5050507-0.3176117,0.7611694-0.4815826
				C73.6317749,105.4928055,81.9576187,115.3767242,92.3521347,122.5305099z"/>
			<path class="st34" d="M118.8776855,89.5411987c-0.8958206,0.7510605-2.2351227,0.6334229-2.9860229-0.2714462
				L102.752861,73.5430222c-0.7511139-0.8958206-0.6334763-2.2350159,0.2623367-2.9770203
				c0.3982086-0.3348007,0.8778152-0.497673,1.3573151-0.497673c0.606308,0,1.2125015,0.2623978,1.6288223,0.7600632
				l13.1386871,15.7267303C119.8911438,87.4599991,119.7735062,88.7901917,118.8776855,89.5411987z"/>
			<path class="st6" d="M103.1056671,121.0398941c0,6.0626755-3.0764847,11.4105148-7.7637863,14.5504074
				c-2.7869797,1.8730927-6.1440277,2.9680176-9.7455215,2.9680176c-9.6641159,0-17.5093079-7.8453064-17.5093079-17.518425
				c0-9.2659073,7.2208862-16.8668213,16.3330383-17.4640732c0.3890305-0.0361786,0.7780685-0.0452347,1.1762695-0.0452347
				C95.2695313,103.5305862,103.1056671,111.3758392,103.1056671,121.0398941z"/>
			<path class="st127" d="M103.1056671,121.0398941c0,6.0626755-3.0764847,11.4105148-7.7637863,14.5504074
				c-2.7869797,1.8730927-6.1440277,2.9680176-9.7455215,2.9680176c-9.6641159,0-17.5093079-7.8453064-17.5093079-17.518425
				c0-9.2659073,7.2208862-16.8668213,16.3330383-17.4640732c0.3890305-0.0361786,0.7780685-0.0452347,1.1762695-0.0452347
				C95.2695313,103.5305862,103.1056671,111.3758392,103.1056671,121.0398941z"/>
			<path class="st34" d="M103.1056671,121.0398941c0,6.0626755-3.0764847,11.4105148-7.7637863,14.5504074l-10.9217911-32.0144806
				c0.3890305-0.0361786,0.7780685-0.0452347,1.1762695-0.0452347
				C95.2695313,103.5305862,103.1056671,111.3758392,103.1056671,121.0398941z"/>
			<path class="st8" d="M97.4139709,121.0398941c0,3.5290375-1.5473022,6.6960983-4.0085373,8.858757
				c-2.0812531,1.845932-4.8229446,2.9589081-7.8090744,2.9589081c-6.5150528,0-11.8085556-5.2934952-11.8085556-11.8176651
				c0-6.5151062,5.2935028-11.8086014,11.8085556-11.8086014c0.2533875,0,0.5066681,0.0090561,0.7600632,0.0271683
				C92.5277328,109.6475525,97.4139709,114.7781754,97.4139709,121.0398941z"/>
			<path class="st7" d="M97.4139709,121.0398941c0,3.5290375-1.5473022,6.6960983-4.0085373,8.858757l-7.0490112-20.6401901
				C92.5277328,109.6475525,97.4139709,114.7781754,97.4139709,121.0398941z"/>
			<path class="st6" d="M95.9620743,121.0460968c0,1.6468811-0.3890305,3.2122955-1.0767441,4.5967789
				c-0.9048767,1.8278122-2.3346481,3.3479996-4.0900574,4.3705063c-1.5291824,0.8868103-3.3028107,1.3935394-5.1939697,1.3935394
				c-1.6016464,0-3.1127167-0.361969-4.4700317-1.0134583c-2.0270157-0.9682159-3.6828995-2.5789185-4.723526-4.5606003
				c-0.741951-1.4296646-1.1672134-3.0584793-1.1672134-4.7867661c0-1.6921158,0.3980865-3.2846985,1.1220322-4.6963043
				c0.9862823-1.9455032,2.5787582-3.5380936,4.5243759-4.533432c0.0090561,0,0.0090561-0.0090561,0.0181122-0.0090561
				c1.4115524-0.7148361,3.0041351-1.1220398,4.6962509-1.1220398c1.673996,0,3.2575302,0.3981476,4.6600189,1.1129837
				c0,0,0.0090561,0,0.0090561,0.0090561c2.072197,1.0406265,3.7463074,2.7598572,4.7235336,4.8682327
				C95.6182175,117.9966736,95.9620743,119.4806824,95.9620743,121.0460968z"/>
			<path class="st15" d="M90.2746048,111.8101578l-1.7644653,3.7462006L85.93116,121.030838l-0.0181198,0.0452881
				l-0.2080994-0.3890915l-4.8138885-8.8678131c0.0089493,0,0.0089493-0.0090637,0.0180054-0.0090637
				c1.4116592-0.7148285,3.0042496-1.1220322,4.6963577-1.1220322c0.4253769,0,0.8506393,0.0271683,1.2668457,0.072403
				c1.2034454,0.1538162,2.3526535,0.5067291,3.39328,1.0406265
				C90.2655411,111.8011551,90.2746048,111.8011551,90.2746048,111.8101578z"/>
			<path class="st15" d="M95.966301,121.0489502c0,1.6468811-0.3891449,3.2122955-1.0768585,4.5967865l-3.5833817-1.8821564
				l-5.2300949-2.7508011l3.6827927-1.791687l5.2392654-2.5427017
				C95.6223297,117.999527,95.966301,119.4835358,95.966301,121.0489502z"/>
			<path class="st17" d="M90.2746048,111.8101578l-1.7644653,3.7462006l-1.6378784-4.7958298
				c1.2034454,0.1538162,2.3526535,0.5067291,3.39328,1.0406265
				C90.2655411,111.8011551,90.2746048,111.8011551,90.2746048,111.8101578z"/>
			<path class="st17" d="M95.966301,121.0489502c0,1.6468811-0.3891449,3.2122955-1.0768585,4.5967865l-3.5833817-1.8821564
				l-1.5473022-4.5424881l5.2392654-2.5427017C95.6223297,117.999527,95.966301,119.4835358,95.966301,121.0489502z"/>
			<path class="st15" d="M90.7952728,130.013382c-1.5291824,0.8868103-3.3028107,1.3935394-5.1939697,1.3935394
				c-1.6016464,0-3.1127167-0.361969-4.4700317-1.0134583l4.4156876-9.3835449l0.0815201-0.1809845l0.0723495-0.1448135
				l0.0181122-0.0452271l0.208107,0.3890839L90.7952728,130.013382z"/>
			<path class="st15" d="M85.764122,120.8922806l-0.2171631,0.1176376l-9.1392136,4.8229446
				c-0.741951-1.4296646-1.1672134-3.0584793-1.1672134-4.7867661c0-1.6921158,0.3980865-3.2846985,1.1220322-4.6963043
				l9.2659149,4.4791412L85.764122,120.8922806z"/>
			<circle class="st11" cx="85.6002274" cy="121.0443344" r="4.4053416"/>
			<circle class="st13" cx="85.6002274" cy="121.0443344" r="2.867712"/>
			<path class="st0" d="M55.1104012,79.6426315c-0.0953636,0.3048706-0.1524658,0.619278-0.2286415,0.9241562
				c-0.1715393,0.7240677-0.371685,1.4480743-0.5526466,2.172142c-0.0095329,0.0190735-0.0095329,0.0476227-0.0286064,0.0666962
				s-0.0571022,0.0190735-0.0857124,0.0286102c-0.5143852,0.0571594-1.0193481,0.1047821-1.5338478,0.1619415
				c-0.2667847,0.0285568-0.5335732,0.0667038-0.8097763,0.095253c-0.3238907,0.038147-0.6669655,0.0666962-0.9908562,0.038147
				c-0.1238556-0.0095367-0.2571335-0.038147-0.3334236-0.1334c-0.0572205-0.0666962-0.0762901-0.1619415-0.0952492-0.2572479
				c-0.1143188-0.4858856-0.400177-0.8764725-0.5811386-1.3432922c-0.219101-0.5144958-0.3144684-1.0860977-0.2953949-1.6386871
				c-0.0190735-0.1428757-0.0095367-0.2953415,0.0190735-0.457283l0.0952492-0.8097763l-0.2191048-0.5430527l-0.3143539-0.7526779
				l-0.0476799-0.1238556c-0.0095367,0-0.2381783-0.5429916-0.5144997-1.1813507
				c-0.3905296-0.914566-0.8668823-2.0197372-0.8668823-2.0197372l-0.0858269-0.2000275l-0.4763527-1.133728l4.4491882-1.848259
				l0.4477463,2.1435928l0.0857086,0.4001236l0.3335419,1.6196136l0.3429604,1.629097l0.1429329,0.676445l1.552803,1.4766846
				l0.438324,0.4287338C55.1294746,79.2329712,55.1770401,79.4235229,55.1104012,79.6426315z"/>
			<path class="st1" d="M52.8238754,76.4796295l-3.35355,1.4672089l-0.3143539-0.7526779l-0.0476799-0.1238556
				c-0.0095367,0-0.2381783-0.5429916-0.5144997-1.1813507l3.8871231-1.0384216L52.8238754,76.4796295z"/>
			<path class="st11" d="M58.3404083,85.4338303c-0.1206703,0.2251663-0.4090691,0.2985611-0.6334,0.168869l-2.883564-1.6466675
				l-5.8021584-3.3056183c-0.2251625-0.1206665-0.2985573-0.4091187-0.1787148-0.6252594
				c0.1296883-0.2243347,0.4090652-0.2985611,0.6333961-0.1688766L55.3207359,83.1931l2.8409538,1.6154633
				C58.3860245,84.9382553,58.469265,85.2185211,58.3404083,85.4338303z"/>
			<path class="st8" d="M58.3404083,85.4338303c-0.1206703,0.2251663-0.4090691,0.2985611-0.6334,0.168869l-2.883564-1.6466675
				c0.0231171-0.1523361,0.0905037-0.2915039,0.1668053-0.4299011c0.0853119-0.1375198,0.2051582-0.2537155,0.3304863-0.3330307
				l2.8409538,1.6154633C58.3860245,84.9382553,58.469265,85.2185211,58.3404083,85.4338303z"/>
			<path class="st0" d="M35.1053925,22.6029205l-0.8867378,9.2494545c-0.0476608,0.4971466,0.0105286,1.0043907,0.1796494,1.4729233
				c0.125103,0.3245201,0.2935333,0.6284943,0.5056725,0.9038315c0.0359001,0.052784,0.1733551,0.16465,0.3562355,0.3137474
				l-0.9390831,9.7954941l5.5660477,0.5336113l0.7570457-7.8966904c0.0600281-0.0271759,0.1359863-0.0445404,0.2115479-0.0619926
				c0.7216797-0.2351036,1.3673401-0.7077484,1.8093719-1.3726921c0.7749863-1.1346397,1.2453232-2.4383316,1.3757935-3.7992554
				l0.4640694-4.8406963c0,0,0.3989983-2.2727509-1.8288651-3.5719357L35.1053925,22.6029205z"/>
			<path class="st1" d="M34.6711998,27.0961723l-0.4126701,4.304533c0.3213425-0.120039,0.5567055-0.4232082,0.591404-0.7851696
				l0.253479-2.6440086C35.1381149,27.6095657,34.9638824,27.2750778,34.6711998,27.0961723z"/>
			<path class="st3" d="M46.6502266,22.4420319c-0.2381744,0.638298-0.6668472,1.2004223-1.1145935,1.7148628
				c0.2000313-0.2381763,0.7717514,0.6382999,0.8097801,0.7621555c0.0857124,0.3048744,0.0857124,0.571661,0,0.8288517
				c-0.0380287,0.1333942-0.1047859,0.2667866-0.1904945,0.4001789c-0.5811386,0.886013-1.0765648,1.7910976-1.819706,2.5532532
				c0.1143188-0.1143208,0.0858269-0.9431725,0.1047821-1.1432629c0.0286102-0.5239773,0.0476837-1.0574913,0.0761757-1.5815277
				c-0.0571022,0-3.7059326-0.638298-4.0394745-0.7145309c-1.1622772-0.2476559-2.4864388-0.4763546-3.5345116-1.0574932
				c-0.5811386,1.3528881-0.924099,2.7247314-1.3241615,4.1443176c-0.1430473,0-0.7240677-0.0571613-0.8098946,0.0571594
				c-0.0190735,0.0380878-0.0286102,0.0761738-0.038147,0.1143208c-0.1046677,0.5525284-0.1904945,1.1051159-0.2667847,1.6672401
				c-0.0951347,0.6859207-0.1904984,1.3623657-0.2857437,2.0482864c-0.457283-0.6287613-1.0956383-1.0765648-1.4957008-1.7624855
				c-0.6288223-1.06703-0.6954613-2.5341797-0.7145309-3.7441387c-0.0286102-1.3433514,0.1332741-2.6866436,0.4382057-3.9823132
				c0.1333961-0.571661,0.2953987-1.1432629,0.6002121-1.6482258c0.2952805-0.495369,0.7430229-0.9336357,1.2956696-1.1146526
				c0.7049942-0.2286415,1.4862823-0.0285511,2.1531296,0.3048725c0.4000664-0.4001198,0.9431725-0.6287613,1.4767456-0.8097782
				c0.9050255-0.3144093,1.8386612-0.5240364,2.7818336-0.6097469c1.0576096-0.1143208,2.1245232-0.0953064,3.172596,0.0666962
				c1.0573769,0.1524086,2.2197685,0.5430508,2.6961212,1.49576C46.9360886,21.0510559,46.8884048,21.7941971,46.6502266,22.4420319
				z"/>
			<path class="st1" d="M40.5301781,38.1054497l0.1089211-1.1361465c-0.0466614,0.272747-2.9396248-1.0282478-3.2709274-1.3235893
				c-0.1875076-0.067894-0.315937,0.1894913-0.1489487,0.2984924
				C38.0509644,36.9454346,39.1422157,37.6786575,40.5301781,38.1054497z"/>
			<path class="st0" d="M35.1333389,27.6691818L34.879982,30.311903c-0.0498161,0.5196209-0.5109711,0.9000912-1.0305901,0.8502769
				c-0.5196114-0.0498161-0.9000816-0.510973-0.8502655-1.0305939l0.2533531-2.6427193
				c0.02491-0.2598114,0.1527481-0.4838963,0.3388824-0.6381283c0.1867981-0.1534462,0.4318237-0.2363071,0.6916313-0.2113991
				C34.8026085,26.6891537,35.1830826,27.1503124,35.1333389,27.6691818z"/>
			<path class="st4" d="M40.8223877,30.4494667l0.5231857,0.7926083c0.1367416,0.207159,0.0774345,0.4861526-0.1317444,0.6197796
				l-0.5612144,0.3585129"/>
			<path class="st5" d="M39.883728,34.9704399c-0.0579948-0.0129623-0.1159897-0.0259285-0.1804543-0.0467377
				c-0.5304642-0.1767349-0.8394203-0.6576767-1.0203209-1.1631889c-0.0711823-0.1843567-0.1194725-0.3739204-0.1546707-0.5474243
				c0.0007057-0.0073357-0.005928-0.015377-0.0052261-0.0227127c0.0007019-0.0073395-0.0059319-0.0153809-0.0052261-0.0227165
				c-0.0366058-0.1588287-0.0583611-0.3162308-0.0729561-0.4729462c-0.0031166-0.0447273-0.0069351-0.082119-0.0100708-0.126667
				c-0.0038185-0.0373878-0.0142746-0.0828171-0.0027161-0.1261368c0.0014076-0.0146751,0.0101509-0.0286484,0.025528-0.0345764
				c0.0087471-0.0139732,0.023243-0.0125847,0.0314445-0.0190201c0.0452499-0.0104713,0.0871811,0.015583,0.1304855,0.027317
				c0.0286598,0.0099716,0.063942,0.0281639,0.0924072,0.0382996c0.078598,0.029747,0.1570206,0.0594788,0.2356186,0.0892296
				c0.0925713,0.0384941,0.1849632,0.0769691,0.2780762,0.1079292c0.1072464,0.0399017,0.206974,0.0790787,0.306881,0.1182785
				c0.1063614,0.0472183,0.2062721,0.0864143,0.3133545,0.1261215c0.0999069,0.039196,0.1996384,0.0783768,0.299366,0.1175537
				c0.0925713,0.0384941,0.1856651,0.0696335,0.2782516,0.1079483c0.0784035,0.029911,0.1570206,0.0594826,0.2356224,0.0892296
				c0.0637436,0.0283241,0.1210365,0.0486259,0.1783257,0.0689278c0.0351028,0.018177,0.0637474,0.0283279,0.0997314,0.0391808
				c0,0,0,0,0.0073357,0.0007057c0.0213089,0.0094452,0.1283913,0.0491486,0.227417,0.095665
				c0.1072464,0.0399017,0.206974,0.0790825,0.206974,0.0790825C41.4907379,33.792923,41.0233498,35.1981697,39.883728,34.9704399z"
				/>
			<path class="st6" d="M41.1719322,33.4146996l-0.1558685,0.3919563c-0.0689316,0.1783257-0.2773933,0.2692337-0.4557381,0.2004814
				l-2.0320435-0.7940483c0.0007057-0.0073357-0.005928-0.015377-0.0052261-0.0227127
				c0.0007019-0.0073395-0.0059319-0.0153809-0.0052261-0.0227165c-0.0366058-0.1588287-0.0583611-0.3162308-0.0729561-0.4729462
				c-0.0031166-0.0447273-0.0069351-0.082119-0.0100708-0.126667c-0.0038185-0.0373878-0.0142746-0.0828171-0.0027161-0.1261368
				c0.0014076-0.0146751,0.0101509-0.0286484,0.025528-0.0345764c0.0087471-0.0139732,0.023243-0.0125847,0.0314445-0.0190201
				c0.0452499-0.0104713,0.0871811,0.015583,0.1304855,0.027317c0.0286598,0.0099716,0.063942,0.0281639,0.0924072,0.0382996
				c0.078598,0.029747,0.1570206,0.0594788,0.2356186,0.0892296c0.0925713,0.0384941,0.1849632,0.0769691,0.2780762,0.1079292
				c0.1072464,0.0399017,0.206974,0.0790787,0.306881,0.1182785c0.1063614,0.0472183,0.2062721,0.0864143,0.3133545,0.1261215
				c0.0999069,0.039196,0.1996384,0.0783768,0.299366,0.1175537c0.0925713,0.0384941,0.1856651,0.0696335,0.2782516,0.1079483
				c0.0784035,0.029911,0.1570206,0.0594826,0.2356224,0.0892296c0.0637436,0.0283241,0.1210365,0.0486259,0.1783257,0.0689278
				c0.0351028,0.018177,0.0637474,0.0283279,0.0997314,0.0391808c0,0,0,0,0.0073357,0.0007057
				C40.9658241,33.3284798,41.0729065,33.3681831,41.1719322,33.4146996z"/>
			<path class="st3" d="M38.6811905,33.7640305c0.1837158,0.4990807,0.4951973,0.9799118,1.0245056,1.1586113
				c0.061058,0.0200844,0.1222649,0.0381546,0.1802597,0.0477791c0.1172485-0.3544235-0.0325851-0.7832031-0.3899574-1.0388832
				C39.2411118,33.750679,38.9394722,33.6973877,38.6811905,33.7640305z"/>
			<path class="st1" d="M33.8418655,27.5962715l-0.072422,0.7554302l0.6614723,0.3891487l0.103363-1.0781975
				c0.0181084-0.188858-0.124157-0.3612919-0.313015-0.3793983C34.0324059,27.2651501,33.8599739,27.4074135,33.8418655,27.5962715z
				"/>
			<path class="st1" d="M34.3600044,29.4805279l-0.6652679-0.3495712l-0.0678902,0.708168
				c-0.0181046,0.188858,0.1241608,0.3612919,0.3130188,0.3793983c0.1888542,0.0181046,0.36129-0.1241589,0.3793945-0.3130169
				L34.3600044,29.4805279z"/>
			<path class="st12" d="M56.0298882,134.9137878l-11.7230568,0.5999146
				c-0.5793915,0.0296478-1.0731125-0.4160004-1.1027641-0.9953918l-0.0438232-0.8563995l13.7849998-1.4149323l0.0800362,1.5640564
				C57.0549316,134.3904266,56.6092758,134.88414,56.0298882,134.9137878z"/>
			<path class="st12" d="M18.3133774,129.6040497l0.1360779,2.6591492
				c-0.3951683,0.4438324-0.7732773,0.9125519-1.1883907,1.3371124c-0.4119167,0.4212952-1.1450119,0.3335266-1.5084085,0.8187408
				c-0.1432819,0.1913147-0.187007,0.4381104-0.2095718,0.6760559c-0.0639887,0.6747742-0.0652142,1.5223694,0.3507051,2.0940552
				c0.3431854,0.4717102,0.9128513,0.7442627,1.4954987,0.714447c0.0017357-0.0000916,5.3946171-0.276062,5.3946171-0.276062
				c0.5425625-0.027771,1.0201206-0.366806,1.2252636-0.8698578l0.2278461-0.5587311l0.3526897-0.0774841
				c0.3983212-0.0875092,0.7111797-0.3956757,0.8047199-0.7926178l0.1598816-0.6784821l-0.3175163-6.2046967"/>
			<path class="st21" d="M53.7791023,76.3367996c-1.5528069,0.2477112-4.0299416,0.8860092-5.7734718,1.3242798
				c-0.2191048,0.0571594-0.4284401,0.1047821-0.6191673,0.1524658c0-0.2381821-2.8962708-11.280098-4.8207588-18.187233
				c-0.5428772-1.9435043-1.0099297-3.5631218-1.3053246-4.5253677c-0.6666145-2.1055069-1.4765129-4.7063828-1.4765129-4.7063828
				l-0.1428108-1.6577034c-0.2191048-2.6008759,1.7053833-4.8873978,4.3155632-5.1065025l0.7336044-0.0666962l0.4000626-0.038147
				c0.7526779-0.0761719,1.4769783,0.0476837,2.1152191,0.3048744c0.9527092,0.3811073,1.6007156,0.9241562,2.0482292,1.5815277
				c0.3619194,0.5049057,0.5907898,1.0860443,0.761982,1.7053299c0.3335419,1.2385101,0.3907585,2.6104126,0.5717163,3.9346886
				c0.2572517,1.9435043,0.5051956,3.8679962,0.7243004,5.802021c0.419136,3.3630295,0.8191986,6.7355995,1.2383347,10.0891533
				c0.3237724,2.6866455,0.6763878,5.3828201,1.0480728,8.0694656
				C53.6553612,75.4603195,53.7125778,75.8890533,53.7791023,76.3367996z"/>
			<path class="st20" d="M48.0056305,77.6610794c-0.2191048,0.0571594-0.4284401,0.1047821-0.6191673,0.1524658
				c0-0.2381821-2.8962708-11.280098-4.8207588-18.187233l1.962635-2.1435966L48.0056305,77.6610794z"/>
			<path class="st23" d="M53.5981407,75.0125732l-5.3352585,1.1432037l-2.8865013-23.2651215
				c0,0-2.0863762,3.9156189-3.3442497,3.9918518c-0.0283775,0-0.047451,0-0.0665245-0.0095367l4.3537102-9.5270844
				c0,0,1.1908875-1.0765686,2.9344177-1.9339714c0.3619194,0.5049057,0.5907898,1.0860443,0.761982,1.7053299
				c0.3335419,1.2385101,0.3907585,2.6104126,0.5717163,3.9346886c0.2572517,1.9435043,0.5051956,3.8679962,0.7243004,5.802021
				c0.419136,3.3630295,0.8191986,6.7355995,1.2383347,10.0891533
				C52.8738403,69.6297531,53.2264557,72.3259277,53.5981407,75.0125732z"/>
			<path class="st7" d="M18.2596226,128.5535889l0.1360779,2.6591492l-2.4472208,2.7485504
				c-0.3038368,0.3412476-0.4610929,0.7884064-0.4377413,1.2447205v0.0000153
				c0.0490618,0.9587402,0.8660507,1.6961823,1.8247929,1.6471252l5.394619-0.276062
				c0.5425606-0.027771,1.0201206-0.366806,1.2252617-0.8698578l0.2278461-0.5587311l0.3526917-0.0774841
				c0.3983192-0.0875244,0.7111797-0.3956757,0.8047199-0.7926178l0.1598816-0.6784821l-0.3175163-6.2046967"/>
			<path class="st7" d="M47.8885155,127.9865189l6.2430191,2.8807144l1.4282036,0.0410004
				c0.7908287,0.0227051,1.4127426,0.6835785,1.3874207,1.4743195l0,0
				c-0.0237923,0.7429199-0.6130753,1.3435822-1.3553963,1.3815613l-11.7134361,0.599411
				c-0.3813744,0.019516-0.7063599-0.273819-0.7258759-0.6551971l-0.0210533-0.4114075l-0.6353493-0.9825439
				c-0.4254074-0.6578827-0.4633865-1.493927-0.0993805-2.1876526l0.6072502-1.1573334L47.8885155,127.9865189z"/>
			<path class="st21" d="M47.4839516,43.9604683v0.0090561c-0.0904655,0-0.5971375-0.1266975-0.6424255,0.0814095
				c-0.0634041,0-0.2533913,1.2759018-0.5247879,3.2937584c-0.1085815,0.8867569-0.2443352,1.9183273-0.3800888,3.0403633
				c-0.2715073,2.2712479-0.570076,4.9134674-0.8414726,7.5557404c-0.4343224,4.1895218-0.8144073,8.3610382-0.9411049,10.9580231
				c-0.0090561,0.1990433-0.0181122,0.3890915-0.0271721,0.570076v0.0542908
				c-0.0362282,0.9139328-0.0271721,1.5744705,0.0452881,1.8730927c-4.3253288,1.5473022-12.1795807,1.2306213-16.5501976,0.8052979
				c-0.8867607-0.0814056-1.6197624-0.1628647-2.1626644-0.244278c-0.561018-0.081459-0.8958168-0.1538696-0.9772263-0.1990967
				c-0.986393-6.2707825-1.2126102-12.9397049-0.9048748-19.925312c0-0.1719284,0.009058-0.3438568,0.018116-0.5157852
				c0.117527-2.2260132,0.2804546-4.5063133,0.4976158-6.8046761l-0.5610199-2.0088539l10.9219017-3.1580048l0.3528061-0.0995216
				c-0.2171631,3.2847023,5.0764465,3.8818932,5.5469971,0.6243668c0.0270615-0.1085815,1.3573151,0.6424789,2.8774414,1.5292397
				v0.0090599c1.9002151,1.0948601,4.0538216,2.4160004,4.2076912,2.5245781
				C47.4658356,43.9423523,47.4839516,43.9604683,47.4839516,43.9604683z"/>
			<path class="st23" d="M46.3167381,47.3446922c-0.1085815,0.8867569-0.2443352,1.9183273-0.3800888,3.0403633
				c-0.2715073,2.2712479-0.570076,4.9134674-0.8414726,7.5557404c-0.4343224,4.1895218-0.8144073,8.3610382-0.9411049,10.9580231
				c-0.0090561,0.1990433-0.0181122,0.3890915-0.0271721,0.570076l-15.1294823,0.325737l-1.4930649-6.5784531
				c0,0,1.3121338-8.0081215,1.6107025-7.8724251C29.2779827,55.4161606,38.1638069,51.2265854,46.3167381,47.3446922z"/>
			<path class="st20" d="M24.4860935,71.7590103c0.0814095,0.0452271,0.4163189,0.1176376,0.9772263,0.1990433
				c0.3021145,0.0453262,0.6630039,0.0906448,1.0764866,0.1359634c0.5109501,0.0559921,0.9157562-0.4333496,0.7614136-0.9236374
				l-2.7809429-8.8340454c-0.0456696-0.1450768-0.0437794-0.3009529,0.0053978-0.4448814l0.5207844-1.5242043
				c0.0124912-0.0365601,0.0279331-0.0720444,0.0461693-0.1061058l4.5442257-8.4864883
				c0.3106613-0.5801697-0.2630196-1.2357559-0.8792763-1.0048103l-2.7632008,1.0355225
				c-0.0818348,0.0306664-0.1686077,0.0460358-0.2559986,0.0453453l-1.4632359-0.0115776
				c-0.3863106-0.0030556-0.7077694,0.3044777-0.7228394,0.690506
				C23.2894821,59.2624969,23.5326157,65.6968002,24.4860935,71.7590103z"/>
			<path class="st54" d="M50.3524437,128.1228943l-6.7865601,0.778183h-0.0361214l-0.036232,0.0090485l-1.4388275,0.1628723
				l-7.7637901-34.7381592l-0.2081032-1.1310959l-0.3710289-2.0178528l-0.2715073,1.3753738l-0.4885559,2.3527069
				l-0.4614944,2.2712479l-0.3982048,1.963562l-2.3435936,11.4828644l-0.0814075,0.3890915l-1.0406284,5.0763321
				l-1.140152,5.6102371l-1.5291862,8.2072296l-8.4605579,0.4252625l2.1897259-29.5260773l0.3258533-4.2348099l0.7690105-10.2612534
				l0.3620834-4.9768066c0.2262173-3.103714,1.1672134-6.1169662,2.7507439-8.7863541l0.579134-0.98629l19.7353764-1.013504
				l0.117527,1.0406265l0.0634041,0.6424789l0.0181122,0.1628723l0.1628189,1.5201797l0.2896194,2.7598572l0.8686447,8.0805283
				l0.5158424,4.8048859l0.5066719,4.6782455l0.5881882,5.5015945l0.2262192,2.1717224l1.9816246,18.6675797l0.5339546,5.0039291
				L50.3524437,128.1228943z"/>
			<path class="st55" d="M46.7510605,94.2443771l-7.2390022,6.9946594l-2.0646095-17.7259598
				c-0.1113586-0.9560928-1.0144463-1.6140289-1.9586487-1.4269562l0,0
				c-0.6986046,0.1384125-1.2294426,0.7096405-1.316349,1.4165039l-1.6822281,13.6825943l-0.3982048,1.963562l-2.3435936,11.4828644
				l-9.7274055,9.0578079l5.0401039-37.371376l3.9362946-8.1528778l15.5728645-0.244339l0.2896194,2.7598572l0.8686447,8.0805283
				l0.5158424,4.8048859L46.7510605,94.2443771z"/>
			<line class="st92" x1="25.3382301" y1="75.7367096" x2="19.0414753" y2="129.072998"/>
			<path class="st47" d="M20.0193119,96.5780334c1.1817703-5.6099625,2.8569355-14.7131577,2.8569355-14.7131577
				l2.7310925-6.7980118c0.5272331-1.312355,1.7192574-2.2399521,3.1209145-2.4286118l15.4839802-2.0841293l-19.7387352,1.0128632
				l-0.5713863,0.9869537c-1.5842533,2.6751099-2.5322075,5.6878738-2.7530251,8.7915421l-0.3635674,4.9736633
				L20.0193119,96.5780334z"/>
			<path class="st47" d="M43.4935303,128.9101257l-1.4388275,0.1628723l-7.7637901-34.7381592l-0.2081032-1.1310959
				l-0.3710289-2.0178528v-0.0090561l1.8640938-4.8411102c0.1628189-0.4162064,0.7781792-0.3438034,0.8414726,0.0995789
				l3.9000664,29.5803604h0.0090561c0.0090561,0.0814056,1.8278656,7.4742203,3.1580048,12.8491745
				C43.4935303,128.8829651,43.4935303,128.9010773,43.4935303,128.9101257z"/>
			<path class="st47" d="M43.5477676,128.9191284l-0.0451775,0.0090637c0-0.0090637,0-0.0090637-0.0090599-0.0180664
				c0-0.0090485,0-0.0271606-0.0090561-0.0452881c0.0090561,0.0090637,0.0271721,0.0271759,0.0452881,0.0362396
				C43.5388184,128.9101257,43.5388184,128.9101257,43.5477676,128.9191284z"/>
			<path class="st52" d="M37.6691971,81.7480316c0.0248451,0,0.0373039,0.0124588,0.0497627,0.0373764l-0.0373001-0.0498352
				L37.6691971,81.7480316z"/>
			<path class="st0" d="M18.3775387,69.1864243l3.9464474,5.1605301l1.2406597,3.2123337l0.6206303,1.606163l0.3466644,1.2725372
				c0.0919056,0.3279114,0.37887,0.5531158,0.7168865,0.5589752l0.7836914,0.0169601l0.226059,0.4291
				c0.064003,0.1414795,0.1827106,0.2525711,0.3141174,0.3293839c0.1569061,0.0823898,0.3492661,0.1116943,0.5348301,0.0758972
				c0.3775711-0.0888062,0.6292839-0.4361115,0.5983315-0.8115311l-0.021101-0.3599701l0.2571602,0.8868027
				c0.1231594,0.3905106,0.5265789,0.6282272,0.9277496,0.5287247l0.2645149-0.0687637
				c0.3449688-0.0853958,0.5929794-0.3911667,0.5881786-0.7528381l-0.0006943-0.1645126l0.2277584,0.6840897
				c0.1221046,0.3823318,0.5319767,0.602951,0.9251957,0.5042725l0.2960663-0.0802917
				c0.4166222-0.1093521,0.6598377-0.538063,0.5514812-0.9465485l-0.8737869-3.3246918l-0.0673008-0.2481384
				c-0.1058044-0.3840332-0.2759666-0.7531586-0.4997768-1.083725c-0.098505-0.1543503-0.2116089-0.2907028-0.3326645-0.4262161
				l-2.5361805-2.6902466l-1.6370316-2.5124741l-1.1866589-1.8269043L18.3775387,69.1864243z"/>
			<polygon class="st1" points="18.3775387,69.1864243 22.3239861,74.3469543 23.5646458,77.559288 23.0687428,73.9415741 
				25.775425,70.9822464 24.5887661,69.1553421 			"/>
			<path class="st21" d="M28.7802563,48.8558159l-2.262188,5.8635712l-0.1357517,0.3348541l-0.4614964,1.1763268
				l-0.5247879,1.3391991l-1.2759037,3.2665863l-0.7872372,2.0088501l2.7417984,6.8136787l0.0632915,0.1628723l0.0452881,0.1086349
				l0.0180054,0.0632935l0.2443333,0.570076l-6.4064751,4.0176468L14.5647068,63.777195
				c-0.6695995-1.3210831-0.7420597-2.8503227-0.2262192-4.2348099c1.149209-3.0403633,3.2303543-7.926712,3.2303543-7.926712
				l2.3979416-6.1621971c0.4977245-1.2577324,1.4568348-2.1897812,2.6149921-2.6693344
				c0.0452862-0.018116,0.1177483-0.0452881,0.1629257-0.0633507c1.0406284-0.3890877,2.2260666-0.4072037,3.3481026,0.0271187
				c0.0542355,0.018116,0.0904655,0.036232,0.1175289,0.0542908c1.6469326,0.6877136,2.7055664,2.2078972,2.8866081,3.8638344
				C29.1602325,47.3899231,29.0608215,48.1409836,28.7802563,48.8558159z"/>
			<polygon class="st23" points="26.0746899,69.6588821 20.9530659,72.5544968 15.5599365,61.4064255 25.9208202,56.2305679 
				25.3960323,57.569767 24.1201286,60.8363533 23.3328915,62.8452034 			"/>
			<line class="st4" x1="29.7197437" y1="81.1095276" x2="28.9973068" y2="78.0435562"/>
			<line class="st4" x1="27.7307091" y1="80.8400574" x2="27.5041542" y2="78.6698914"/>
			<line class="st4" x1="26.0339031" y1="81.0120621" x2="25.7101116" y2="79.6833649"/>
			<path class="st7" d="M60.700592,83.8286819c-0.3965187,0.5973053-1.0211983,1.0461349-1.7222137,1.2240524
				c-0.2296295,0.0581131-0.4828682,0.1030045-0.7465744,0.1109619c-0.2962379,0.0104446-0.5949402-0.0115662-0.8415222-0.1081467
				c-0.4775772-0.1843643-0.9046555-0.4960327-1.2056694-0.9030914c-0.0226974-0.0334015-0.0454636-0.0669098-0.0681305-0.1003571
				c-0.3219452-0.4809265-0.4764519-1.0755386-0.4332886-1.6528625c0.02808-0.2539063,0.0842705-0.5024033,0.1641006-0.7377243
				c0.2032738-0.6225052,0.543251-1.137352,0.9553986-1.6325531c0.1852608-0.2384567,0.4126015-0.422287,0.6478691-0.601738
				c0.1181297-0.099762,0.244091-0.1952057,0.3780289-0.2861252c0.0880318-0.0647736,0.2904701-0.1484833,0.355835-0.2467117
				c-0.2004929,0.3025284-0.4098625,0.6209183-0.4144783,0.9812622c-0.0044136,0.5264053,0.435318,1.0006714,0.3624992,1.5199356
				c0.2424202-0.5072327,0.4892693-1.0223694,0.7316895-1.5296021c0.2071762-0.444046,0.4221344-0.8836746,0.545826-1.3640137
				c0.1271973-0.4680634,0.1552277-0.9812546,0.0108147-1.4457779c0.4207878,0.3599854,0.7603073,0.8092957,1.0004082,1.3066254
				c0.1990395,0.4225693,0.3196449,0.8737717,0.3304634,1.336113c0.0054779,0.4904251-0.1103401,0.975235-0.2454109,1.4388199
				c-0.1849098,0.6638718-0.4216614,1.3090897-0.697834,1.9322433c0.6384583-0.1403351,1.1736374-0.6703415,1.3329735-1.3070679
				C61.2577057,82.4813614,61.0892754,83.2270508,60.700592,83.8286819z"/>
			<path class="st15" d="M58.4352837,85.0598068c-0.0625572,0.0375824-0.1251144,0.0751572-0.2034798,0.1038895
				c-0.2962379,0.0104446-0.5949402-0.0115662-0.8415222-0.1081467c-0.4775772-0.1843643-0.9046555-0.4960327-1.2056694-0.9030914
				c-0.2111588-1.0307083,0.0887146-2.1591034,0.8092804-2.9275589c-0.097599,0.2668381,0.0676613,0.5459976,0.2057304,0.7995605
				c0.1573601,0.2747421,0.2856331,0.5643463,0.401516,0.8573227c0.0723763,0.1857147,0.1314125,0.3950348,0.0464859,0.5652847
				c0.6305428-0.6632767,1.1104698-1.4835205,1.3901634-2.3535767c0.2078972,0.9252701,0.1780701,2.2566681-0.6729088,2.8691406
				c0.4522552,0.1183548,0.8978386-0.1403427,1.286232-0.3895874
				C59.4242249,84.1823349,58.9899788,84.7170029,58.4352837,85.0598068z"/>
			<path class="st0" d="M51.3929329,80.6812286c-0.0014153,0.0152817-0.1453133,0.6506958-0.276516,1.0034714
				c-0.1994324,0.536232,0.0989685,1.0046921,0.6084709,0.9541702l0,0c0.4058037-0.0402451,0.794136-0.401062,0.8962021-0.8327103
				l0.408123-1.7259903"/>
		</g>
		<path class="st3" d="M36.557991,20.9418659c-0.3235664-1.2657204,0.1709175-2.701931,1.205101-3.5001831
			c-0.4817848,1.3512554-0.3942757,2.8954964,0.2370834,4.183672"/>
		<path class="st5" d="M46.6502266,22.4420319c-0.2381744,0.638298-0.6668472,1.2004223-1.1145935,1.7148628
			c0.2000313-0.2381763,0.7717514,0.6382999,0.8097801,0.7621555c0.0857124,0.3048744,0.0857124,0.571661,0,0.8288517
			c-0.8288536-0.4763546-1.5338478-1.2194366-1.819706-2.1435947c-0.2952805-0.9527073-0.0761757-2.095911,0.686039-2.7628193
			c-0.7240677,0.104784-1.4576721,0.1905537-2.1817398,0.0761757c-0.7240677-0.104784-1.4385986-0.4382095-1.8768082-1.0098686
			c-0.2286415-0.2953377-0.3715706-0.6668491-0.4001808-1.0384197c1.0576096-0.1143208,2.1245232-0.0953064,3.172596,0.0666962
			c1.0573769,0.1524086,2.2197685,0.5430508,2.6961212,1.49576C46.9360886,21.0510559,46.8884048,21.7941971,46.6502266,22.4420319z
			"/>
	</g>
	<line class="st33" x1="23.3328915" y1="62.8452034" x2="21.1700172" y2="63.0537987"/>
	<path class="st25" d="M138.3319855,63.017952l-2.162674,4.7635422l-2.371994-2.886734l-9.8797073,9.3079758
		c-2.7725296-1.0194016-5.8688354-2.1531296-8.1170959-2.9819794l14.2427139-10.5083427l-1.7337646-2.1055069l-0.180954-0.2191048
		l3.4107666-0.8383904C133.8638306,59.4166832,136.2837524,61.3602486,138.3319855,63.017952z"/>
</g>
</svg>
