<?xml version="1.0" encoding="utf-8"?>
<!-- Generator: Adobe Illustrator 22.0.1, SVG Export Plug-In . SVG Version: 6.00 Build 0)  -->
<svg version="1.1" id="Layer_1" xmlns="http://www.w3.org/2000/svg" xmlns:xlink="http://www.w3.org/1999/xlink" x="0px" y="0px"
	 viewBox="0 0 156 156" style="enable-background:new 0 0 156 156;" xml:space="preserve">
<style type="text/css">
	.st0{fill:#FFD9B2;}
	.st1{fill:#F7AC76;}
	.st2{fill:none;stroke:#3643C3;stroke-width:0.5;stroke-linecap:round;stroke-linejoin:round;stroke-miterlimit:10;}
	.st3{fill:#233764;}
	.st4{fill:none;stroke:#F7AC76;stroke-width:0.5;stroke-linecap:round;stroke-linejoin:round;stroke-miterlimit:10;}
	.st5{fill:#161718;}
	.st6{fill:#FFFFFF;}
	.st7{fill:#F06449;}
	.st8{fill:#BE412D;}
	.st9{fill:#FE8E60;}
	.st10{fill:#7D4C47;}
	.st11{fill:#4456D6;}
	.st12{fill:#203881;}
	.st13{fill:#6582FC;}
	.st14{fill:#DDA103;}
	.st15{fill:#FBC32E;}
	.st16{fill:none;stroke:#DDA103;stroke-width:0.5;stroke-miterlimit:10;}
	.st17{fill:#FBE6BB;}
	.st18{fill:none;stroke:#BE412D;stroke-width:0.5;stroke-linecap:round;stroke-linejoin:round;stroke-miterlimit:10;}
	.st19{fill:none;stroke:#F06449;stroke-width:0.5;stroke-linecap:round;stroke-linejoin:round;stroke-miterlimit:10;}
	.st20{fill:#F34B4B;}
	.st21{fill:#FC7070;}
	.st22{fill:none;stroke:#FFFFFF;stroke-miterlimit:10;}
	.st23{fill:#FC9F9F;}
	.st24{fill:#408A6F;}
	.st25{fill:#64B48D;}
	.st26{fill:none;stroke:#FBE6BB;stroke-width:0.5;stroke-linecap:round;stroke-linejoin:round;stroke-miterlimit:10;}
	.st27{fill:none;stroke:#F7AC76;stroke-width:0.25;stroke-linecap:round;stroke-linejoin:round;stroke-miterlimit:10;}
	.st28{fill:#A0665A;}
	.st29{fill:#6C3F44;}
	.st30{fill:none;stroke:#6C3F44;stroke-width:0.5;stroke-linecap:round;stroke-linejoin:round;stroke-miterlimit:10;}
	.st31{fill:none;stroke:#7D4C47;stroke-width:0.5;stroke-linecap:round;stroke-linejoin:round;stroke-miterlimit:10;}
	.st32{fill:none;stroke:#F34B4B;stroke-width:0.5;stroke-linecap:round;stroke-linejoin:round;stroke-miterlimit:10;}
	.st33{fill:none;stroke:#FC7070;stroke-width:0.5;stroke-linecap:round;stroke-linejoin:round;stroke-miterlimit:10;}
	.st34{fill:#EAE8F3;}
	.st35{fill:#40304A;}
	.st36{fill:none;stroke:#43334E;stroke-linecap:round;stroke-linejoin:round;stroke-miterlimit:10;}
	.st37{fill:#32775B;}
	.st38{fill:none;stroke:#233764;stroke-width:0.5;stroke-linecap:round;stroke-linejoin:round;stroke-miterlimit:10;}
	.st39{fill:none;stroke:#408A6F;stroke-width:0.5;stroke-linecap:round;stroke-linejoin:round;stroke-miterlimit:10;}
	.st40{fill:#3643C3;}
	.st41{opacity:0.56;fill:url(#SVGID_1_);}
	.st42{opacity:0.52;fill:#FBC32E;}
	.st43{opacity:0.56;fill:url(#SVGID_2_);}
	.st44{fill:none;stroke:#EAE8F3;stroke-width:0.5;stroke-linecap:round;stroke-linejoin:round;stroke-miterlimit:10;}
	.st45{fill:#FEFFFD;}
	.st46{opacity:0.35;fill:#32775B;}
	.st47{fill:#43334E;}
	.st48{fill:none;stroke:#EAE8F3;stroke-width:0.25;stroke-linecap:round;stroke-linejoin:round;stroke-miterlimit:10;}
	.st49{fill:none;stroke:#FBC32E;stroke-width:0.5;stroke-linecap:round;stroke-linejoin:round;stroke-miterlimit:10;}
	.st50{fill:none;stroke:#161718;stroke-width:0.5;stroke-linecap:round;stroke-linejoin:round;stroke-miterlimit:10;}
	.st51{fill:none;stroke:#40304A;stroke-linecap:round;stroke-linejoin:round;stroke-miterlimit:10;}
	.st52{opacity:0.33;fill:#FBC32E;}
	.st53{fill:#A6A3AE;}
	.st54{fill:#5B4B68;}
	.st55{fill:#776688;}
	.st56{fill:none;stroke:#FBC32E;stroke-width:0.5;stroke-miterlimit:10;}
	.st57{fill:none;stroke:#EAE8F3;stroke-linecap:round;stroke-linejoin:round;stroke-miterlimit:10;}
	.st58{fill:none;stroke:#203881;stroke-width:2;stroke-linecap:round;stroke-linejoin:round;stroke-miterlimit:10;}
	.st59{fill:none;stroke:#40304A;stroke-width:2;stroke-linecap:round;stroke-linejoin:round;stroke-miterlimit:10;}
	.st60{fill:#FFD8B7;}
	.st61{fill:#F4E4D4;}
	.st62{fill:none;stroke:#4456D6;stroke-width:0.5;stroke-linecap:round;stroke-linejoin:round;stroke-miterlimit:10;}
	.st63{fill:none;stroke:#DDA103;stroke-width:0.25;stroke-miterlimit:10;}
	.st64{fill:none;stroke:#FFFFFF;stroke-width:0.5;stroke-linecap:round;stroke-linejoin:round;stroke-miterlimit:10;}
	.st65{fill:none;stroke:#64B48D;stroke-width:0.5;stroke-linecap:round;stroke-linejoin:round;stroke-miterlimit:10;}
	.st66{fill:none;stroke:#64B48D;stroke-linecap:round;stroke-linejoin:round;stroke-miterlimit:10;}
	.st67{opacity:0.48;fill:#64B48D;}
	.st68{fill:none;stroke:#64B48D;stroke-width:0.25;stroke-linecap:round;stroke-linejoin:round;stroke-miterlimit:10;}
	.st69{fill:none;stroke:#F06449;stroke-width:2;stroke-linecap:round;stroke-linejoin:round;stroke-miterlimit:10;}
	.st70{opacity:0.92;fill:#64B48D;}
	.st71{opacity:0.57;fill:#408A6F;}
	.st72{opacity:0.36;fill:#408A6F;}
	.st73{fill:none;stroke:#BE412D;stroke-width:2;stroke-linecap:round;stroke-linejoin:round;stroke-miterlimit:10;}
	.st74{opacity:0.65;fill:none;stroke:#408A6F;stroke-width:0.25;stroke-linecap:round;stroke-linejoin:round;stroke-miterlimit:10;}
	.st75{opacity:0.67;fill:none;stroke:#64B48D;stroke-width:0.25;stroke-linecap:round;stroke-linejoin:round;stroke-miterlimit:10;}
	.st76{opacity:0.98;fill:#64B48D;}
	.st77{fill:none;stroke:#408A6F;stroke-width:0.25;stroke-linecap:round;stroke-linejoin:round;stroke-miterlimit:10;}
	.st78{fill:none;stroke:#FFD9B2;stroke-width:0.5;stroke-linecap:round;stroke-linejoin:round;}
	
		.st79{fill:none;stroke:#FFD9B2;stroke-width:0.5;stroke-linecap:round;stroke-linejoin:round;stroke-dasharray:4.0333505,4.0333505;}
	.st80{fill:#E68B4A;}
	.st81{opacity:0.62;fill:#64B48D;}
	.st82{fill:none;stroke:#FBC32E;stroke-width:0.25;stroke-miterlimit:10;}
	.st83{fill:none;stroke:#4456D6;stroke-linecap:round;stroke-linejoin:round;stroke-miterlimit:10;}
	.st84{fill:none;stroke:#E68B4A;stroke-width:0.5;stroke-linecap:round;stroke-linejoin:round;stroke-miterlimit:10;}
	.st85{fill:none;stroke:#203881;stroke-width:0.5;stroke-linecap:round;stroke-linejoin:round;stroke-miterlimit:10;}
	.st86{opacity:0.29;fill:#EAE8F3;}
	.st87{fill:none;stroke:#A6A3AE;stroke-width:0.5;stroke-linecap:round;stroke-linejoin:round;stroke-miterlimit:10;}
	.st88{opacity:0.74;fill:#FFFFFF;}
	.st89{opacity:0.19;fill:#FFFFFF;}
	.st90{fill:none;stroke:#40304A;stroke-width:0.25;stroke-linecap:round;stroke-linejoin:round;stroke-miterlimit:10;}
	.st91{fill:none;stroke:#F34B4B;stroke-width:2;stroke-linecap:round;stroke-linejoin:round;stroke-miterlimit:10;}
	.st92{fill:none;stroke:#43334E;stroke-width:0.5;stroke-linecap:round;stroke-linejoin:round;stroke-miterlimit:10;}
	.st93{fill:none;stroke:#6582FC;stroke-miterlimit:10;}
	.st94{opacity:0.47;fill:#A6A3AE;}
	.st95{opacity:0.43;fill:#FFFFFF;}
	.st96{fill:none;stroke:#FBE6BB;stroke-linecap:round;stroke-linejoin:round;stroke-miterlimit:10;}
	.st97{fill:none;stroke:#5B4B68;stroke-width:0.5;stroke-linecap:round;stroke-linejoin:round;stroke-miterlimit:10;}
	.st98{fill:none;stroke:#40304A;stroke-width:0.5;stroke-linecap:round;stroke-linejoin:round;stroke-miterlimit:10;}
	.st99{fill:none;stroke:#DDA103;stroke-linecap:round;stroke-linejoin:round;stroke-miterlimit:10;}
	.st100{fill:none;stroke:#FBC32E;stroke-linecap:round;stroke-linejoin:round;stroke-miterlimit:10;}
	.st101{fill:none;stroke:#32775B;stroke-width:0.5;stroke-linecap:round;stroke-linejoin:round;stroke-miterlimit:10;}
	.st102{opacity:0.4;fill:#FBE6BB;}
	.st103{fill:none;stroke:#FBC32E;stroke-width:0.25;stroke-linecap:round;stroke-linejoin:round;stroke-miterlimit:10;}
	.st104{fill:none;stroke:#4456D6;stroke-miterlimit:10;}
	.st105{opacity:0.61;fill:#64B48D;}
	.st106{opacity:0.9;fill:#64B48D;}
	.st107{opacity:0.76;fill:#64B48D;}
	.st108{fill:none;stroke:#5B4B68;stroke-width:0.5;stroke-miterlimit:10;}
	.st109{opacity:0.66;fill:#A6A3AE;}
	.st110{opacity:0.48;fill:#FFFFFF;}
	.st111{font-family:'MyriadPro-Regular';}
	.st112{font-size:3.16571px;}
	.st113{font-size:5.8680902px;}
	.st114{font-size:5.8680701px;}
	.st115{fill:none;stroke:#43334E;stroke-miterlimit:10;}
	.st116{opacity:0.52;fill:#6582FC;}
	.st117{fill:none;stroke:#DDA103;stroke-width:0.5;stroke-linecap:round;stroke-linejoin:round;stroke-miterlimit:10;}
	.st118{fill:#46724E;}
	.st119{fill:#FE8B2E;}
	.st120{fill:none;stroke:#7D4C47;stroke-width:2;stroke-linecap:round;stroke-linejoin:round;stroke-miterlimit:10;}
	.st121{opacity:0.4;fill:#EAE8F3;}
	.st122{fill:none;stroke:#EAE8F3;stroke-width:0.5;stroke-linecap:round;stroke-miterlimit:10;}
	.st123{fill:none;stroke:#4456D6;stroke-width:0.25;stroke-linecap:round;stroke-linejoin:round;stroke-miterlimit:10;}
	.st124{opacity:0.5;fill:#EAE8F3;}
	.st125{opacity:0.46;fill:#A6A3AE;}
	.st126{fill:#E0916E;}
	.st127{fill:none;stroke:#A0665A;stroke-linecap:round;stroke-linejoin:round;stroke-miterlimit:10;}
	.st128{opacity:0.46;fill:#BE412D;}
	.st129{fill:none;stroke:#203881;stroke-linecap:round;stroke-linejoin:round;stroke-miterlimit:10;}
	.st130{fill:#DBDBE1;}
	.st131{fill:none;stroke:#6582FC;stroke-width:0.5;stroke-linecap:round;stroke-linejoin:round;stroke-miterlimit:10;}
	.st132{opacity:0.53;fill:#A6A3AE;}
	.st133{fill:none;stroke:#DDA103;stroke-miterlimit:10;}
	.st134{opacity:0.2;fill:#FFFFFF;}
	.st135{fill:#B4A1BF;}
	.st136{opacity:0.5;fill:#6582FC;}
	.st137{opacity:0.6;fill:none;stroke:#FFFFFF;stroke-linecap:round;stroke-linejoin:round;stroke-miterlimit:10;}
	.st138{opacity:0.6;fill:none;stroke:#FFFFFF;stroke-width:2;stroke-linecap:round;stroke-linejoin:round;stroke-miterlimit:10;}
	.st139{opacity:0.54;fill:#A6A3AE;}
	.st140{fill:#161718;stroke:#000000;stroke-width:0.25;stroke-miterlimit:10;}
</style>
<g id="_x31_9">
	<path class="st34" d="M98.3308792,78.4139633c-0.8930511,0.9500504-2.2231445,1.4156189-3.5247116,1.4726257
		c1.1495819,0.1235123,1.9380875,1.5580368,1.4250793,2.5936203c-0.522522,1.0450363-2.1471329,1.2730942-2.9356308,0.427536
		c0.3704758,0.9025574-0.1140594,1.9096146-0.5985336,2.7551117c-0.0095139,0.0095139-0.0190201,0.0190201-0.0190201,0.0285339
		c-0.4180298,0.7315598-0.9405441,1.5390778-1.7670822,1.6720963c-0.4845428,0.0854721-0.9880981-0.0950394-1.4440994-0.31353
		c-0.7980728-0.3610229-1.5485916-0.855072-2.090126-1.5390778c-0.5415344-0.6840668-0.855011-1.5770645-0.7125397-2.4416428
		c-0.5130081,1.235054-2.0520859,1.9096146-3.353653,1.5390778c-1.282608-0.3705292-2.2231445-1.6530762-2.2896576-3.0021362
		c-0.0665131-1.3396072,0.5415344-2.4226227,1.6720963-3.1541824c-4.2277374-0.0095062-2.0426331-3.2872009-2.0426331-3.2872009
		l-2.5555801-7.1253891l1.0070496-1.7765884l0.969017,0.6745529l6.5933609,4.5982208
		c0.5225143-0.3515091,1.1020889-0.6744995,1.7291031-0.7695389c0.6365128-0.0854721,1.3300934,0.0760193,1.7386093,0.5605545
		c0.4180222,0.4845352,0.4464951,1.3015671-0.0285263,1.7195969c1.5390778-1.1400757,3.6101837-1.4345932,5.4532852-0.9405441
		h0.0095062c0.950058,0.2564774,1.8335953,0.7220459,2.5556488,1.3965454
		c0.3895493,0.3705368,0.741066,0.788559,0.9500504,1.2730942C99.60392,75.972374,99.2239304,77.4544525,98.3308792,78.4139633z"/>
	<path class="st109" d="M98.3308792,78.4139633c-0.8930511,0.9500504-2.2231445,1.4156189-3.5247116,1.4726257
		c1.1495819,0.1235123,1.9380875,1.5580368,1.4250793,2.5936203c-0.522522,1.0450363-2.1471329,1.2730942-2.9356308,0.427536
		c0.3704758,0.9025574-0.1140594,1.9096146-0.5985336,2.7551117c-0.0095139,0.0095139-0.0190201,0.0190201-0.0190201,0.0285339
		c-0.4180298,0.7315598-0.9405441,1.5390778-1.7670822,1.6720963c-0.4845428,0.0854721-0.9880981-0.0950394-1.4440994-0.31353
		c-0.7980728-0.3610229-1.5485916-0.855072-2.090126-1.5390778c-0.5415344-0.6840668-0.855011-1.5770645-0.7125397-2.4416428
		c-0.5130081,1.235054-2.0520859,1.9096146-3.353653,1.5390778c-1.282608-0.3705292-2.2231445-1.6530762-2.2896576-3.0021362
		c-0.0665131-1.3396072,0.5415344-2.4226227,1.6720963-3.1541824c-4.2277374-0.0095062-2.0426331-3.2872009-2.0426331-3.2872009
		l-2.5555801-7.1253891l1.0070496-1.7765884l0.969017,0.6745529l-0.9595642,1.396553l2.3846359,5.9853134
		c-0.1709976,0.4465561-0.332489,0.8835983-0.3705292,1.3680801c-0.0379791,0.4750214,0.0760193,0.9975967,0.4180222,1.3396072
		c0.2185516,0.2089767,0.4940491,0.332489,0.7790527,0.4275284c0.8265381,0.2850037,1.7386093,0.2945175,2.5841675,0.0379868
		c-0.8360443,0.7220459-1.4345856,1.7291031-1.6530762,2.8121719c-0.0950394,0.4369888-0.1235123,0.902504,0.0379791,1.3205261
		c0.3230438,0.7980728,1.3110733,1.1590958,2.1661453,1.0165634c0.8645248-0.1424713,1.6435699-0.7220459,2.0235596-1.5105515
		c0.33255-0.693573,0.3705292-1.5106049,0.7125397-2.2041245c0.2850571-0.5890274,0.7790451-1.0545425,1.3016205-1.4631195
		c0.9500504-0.7505188,2.0425797-1.3395462,3.2206345-1.6245499c0.9690704-0.2280045,2.5366821,0.1614914,3.3156738-0.5510483
		c0.8835983-0.7980118,0.3420563-2.1281052-0.2375183-2.878624c-0.0759583-0.1045532-0.1519775-0.1995316-0.2280045-0.3040237
		c0.950058,0.2564774,1.8335953,0.7220459,2.5556488,1.3965454c0.3895493,0.3705368,0.741066,0.788559,0.9500504,1.2730942
		C99.60392,75.972374,99.2239304,77.4544525,98.3308792,78.4139633z"/>
	<path class="st7" d="M98.1717453,88.1311417c-1.0635681-1.6468658-2.1701813-3.4545898-2.0099106-5.4084702
		c0.0567322-0.6916046,0.2723312-1.3585968,0.4655838-2.0250702c0.4639435-1.6000366,0.8081741-3.2544479,0.7529907-4.9194717
		s-0.5357437-3.3518677-1.5781097-4.6514206c1.1433487,0.8441315,2.2959595,1.6966476,3.2384109,2.7604065
		c0.9424438,1.0637589,1.6711502,2.3691025,1.8067245,3.7838135c-0.8432312-1.7850418-1.0734406-4.0444717,0.0902939-5.6391907
		c0.3840179-0.5262375,0.8929749-0.9452667,1.360817-1.3986053c2.8712769-2.7822266,4.1813354-7.0804977,3.3499985-10.9912338
		c1.8039856,1.3399696,3.1248093,3.2770729,3.8813705,5.3930817c0.6487808,1.8145676,1.2183762,4.3620148,0.8349304,6.2847748
		c0.4445496-0.6469727,0.6201248-1.4358444,0.7865448-2.20298c0.2274246-1.048378,0.4403458-2.2067947-0.0837784-3.1427994
		c1.0986481,1.041069,1.6158676,2.5798569,1.7149277,4.0901718c0.0841064,1.282402-0.1531448,2.5448074-0.3714294,3.8020935
		c-0.1736374,1.0001373-0.5561905,2.2534256,0.6611404,2.7658539c0.6090088,0.2563629,1.3347626,0.1187515,1.8897018-0.2399292
		c0.5549393-0.3586884,0.9581909-0.9124146,1.26371-1.4983063c0.4304428-0.8254547,0.6926575-1.760849,0.6013718-2.6873093
		s-0.5701752-1.8378067-1.364563-2.323204c1.1450653,0.3703461,2.3014603,0.8065796,3.2114182,1.5941849
		c1.4865952,1.2866974,2.10746,3.4038544,1.8350143,5.3509903c-0.2724533,1.9471283-1.3514481,3.7189026-2.7556992,5.0950012
		c-1.4042435,1.376091-3.121994,2.3902817-4.884903,3.2607422c1.9969711,0.3235703,4.1433258-0.6254196,5.2478561-2.3202896
		c0.161499,2.840683-1.795784,5.4948807-4.2988586,6.8477402c-1.6206741,0.8759384-3.443428,1.2916718-5.2677994,1.4503098
		c-0.8636475,0.0751038-1.8345184,0.1910629-2.6907196,0.0226364c-0.722229-0.1420746-1.279007-0.2770233-2.0433426-0.2406921"/>
	<path class="st17" d="M101.0244598,82.8216858c-1.0571289-1.6850433-0.7286377-3.9342804,0.2023163-5.6921844
		s2.3774643-3.1754913,3.6351395-4.7166443c1.2576752-1.5411453,2.3766403-3.3388748,2.4402542-5.3270493
		c1.3896561,2.8131409,1.5743408,6.1973495,0.499054,9.1450043c0.6057358-0.7707977,1.0333328-1.6807175,1.2401276-2.6389847
		c0.1427155,0.7655029,0.1542511,1.5552979,0.0339508,2.324646c-0.0791092,0.5059357-0.2140961,1.0278473-0.0755005,1.5208206
		c0.1990204,0.7079086,0.9080124,1.1507187,1.6086807,1.3738708c2.1612473,0.6883469,4.7290726-0.234642,5.9575348-2.1413956
		c-0.0675278,1.5323944-0.8735428,2.9727249-1.9966125,4.0174713c-1.1230698,1.0447388-2.5419006,1.725769-4.0027466,2.193428
		c0.3303833,1.0537186,0.8257904,2.0765228,1.5940857,2.8697433s1.8347549,1.3375397,2.9388657,1.3175583
		c-3.3612366,1.2938538-7.2469406,1.1570969-10.5089035-0.3698502"/>
	<g>
		<path class="st14" d="M104.85112,82.6703644c0,2.4799652-1.2522278,4.6667404-3.1580887,5.9677887
			c-0.1588211,0.1069107-0.3237534,0.2076797-0.4916763,0.3054199c-0.7544327,0.4306412-1.5943222,0.7268829-2.48909,0.8612671
			c0.0244522,0.0458221,0.0427933,0.0794144,0.0427933,0.0794144l-1.0231628-0.0030594h-0.2107162
			c-0.0305786,0.0030594-0.0641251,0-0.0947037-0.0030594c-1.215538-0.0335922-2.3578568-0.3695374-3.3534393-0.9345627
			c-0.1680679-0.0946808-0.3298721-0.1954498-0.4886932-0.3054199c-0.6932983-0.4703293-1.3011398-1.0597763-1.7928162-1.7347488
			c-0.0732269-0.100769-0.14048-0.201561-0.2077332-0.3054123c-0.3480682-0.5344772-0.6260452-1.1147537-0.8215485-1.7347488
			c-0.0335541-0.1007919-0.0641251-0.2015686-0.0885849-0.3054199c-0.1527023-0.5527954-0.2381592-1.1330948-0.2503815-1.7347488
			c-0.0029831-0.0488586-0.0029831-0.1007919-0.0029831-0.15271c0-0.0519104,0-0.1007919,0.0029831-0.1527023
			c0.0122223-0.5986176,0.094696-1.178894,0.2473984-1.7316971c0.0274429-0.1038513,0.0550308-0.2046432,0.0885849-0.3054123
			c0.1955032-0.6200027,0.4733276-1.2002792,0.8215485-1.7347488c0.0671082-0.1038513,0.1374893-0.2077026,0.2107162-0.3054199
			c0.4916763-0.6780243,1.0963898-1.2644196,1.786705-1.7347641c0.1588211-0.1099472,0.3237534-0.2107239,0.4916763-0.3054199
			c1.0506058-0.6016541,2.2692795-0.943718,3.5672913-0.943718c0.0426483,0,0.0854492,0,0.1282501,0.0030594
			c0-0.0030594,0-0.0030594,0-0.0030594h0.8154297l0.0244598,0.0671844
			c0.9345856,0.1252289,1.8111572,0.4275894,2.5960159,0.8765335c0.167923,0.094696,0.3298721,0.1954727,0.4886932,0.3054199
			C103.5988922,78.0005875,104.85112,80.1904068,104.85112,82.6703644z"/>
		<g>
			<g>
				<path class="st15" d="M101.6900482,76.7056198h-8.1118164c0.1588211-0.1099472,0.3237534-0.2107239,0.4916763-0.3054199
					h7.1314468C101.369278,76.4948959,101.5312271,76.5956726,101.6900482,76.7056198z"/>
			</g>
			<g>
				<path class="st15" d="M102.2030487,78.4403839v0.3054199H91.5808105
					c0.0671082-0.1038513,0.1374893-0.2077026,0.2107162-0.3054199H102.2030487z"/>
			</g>
			<g>
				<path class="st15" d="M102.2030487,80.4805527v0.3054123H90.6706772
					c0.0274429-0.1038513,0.0550308-0.2046432,0.0885849-0.3054123H102.2030487z"/>
			</g>
			<g>
				<path class="st15" d="M102.2030487,82.517662v0.3054123H90.4232788c-0.0029831-0.0488586-0.0029831-0.1007919-0.0029831-0.15271
					c0-0.0519104,0-0.1007919,0.0029831-0.1527023H102.2030487z"/>
			</g>
			<g>
				<path class="st15" d="M102.2030487,84.5578232v0.3054199H90.7622452
					c-0.0335541-0.1007919-0.0641251-0.2015686-0.0885849-0.3054199H102.2030487z"/>
			</g>
			<g>
				<path class="st15" d="M102.2030487,86.5979919v0.3054123H91.7915268c-0.0732269-0.100769-0.14048-0.201561-0.2077332-0.3054123
					H102.2030487z"/>
			</g>
			<g>
				<path class="st15" d="M101.6930313,88.6381531c-0.1588211,0.1069107-0.3237534,0.2076797-0.4916763,0.3054199h-7.1283188
					c-0.1680679-0.0946808-0.3298721-0.1954498-0.4886932-0.3054199H101.6930313z"/>
			</g>
		</g>
		<path class="st15" d="M97.7305679,89.8826065c-0.030571,0.0030594-0.0641251,0.0030594-0.094696,0.0030594
			c-0.0396729,0-0.076355,0-0.1160278-0.0030594H97.7305679z"/>
		<circle class="st15" cx="98.8058701" cy="82.6716995" r="7.2145114"/>
		<circle class="st16" cx="98.8058701" cy="82.6716995" r="6.18399"/>
		<path class="st15" d="M97.5198441,89.8826065h-0.094696v-0.0030594
			C97.455719,89.8826065,97.4892731,89.8856659,97.5198441,89.8826065z"/>
		<path class="st14" d="M100.9883804,84.1653137c0,0.9227371-0.641716,1.7885056-1.8454285,1.9859695v1.2151337h-0.7366486
			v-1.1809464c-0.6760254-0.0114059-1.3784637-0.220253-1.7847977-0.5126495l0.2771912-0.7822418h0.3342133
			c0,0,0.0075989,0.0949326,0.0113983,0.1974716c0.3797302,0.1784592,0.8467865,0.303772,1.3366547,0.303772
			c0.8315811,0,1.3897705-0.4784546,1.3897705-1.1429825c0-0.6417389-0.455658-1.040451-1.3176498-1.3897934
			c-1.1923981-0.4670868-1.9290466-1.0062943-1.9290466-2.0239563c0-0.9683075,0.6911316-1.7049789,1.7657013-1.8796616v-1.1771469
			h0.7215347v1.1315765c0.702446,0.022789,1.1809998,0.208847,1.5189133,0.4101181l-0.1291351,0.3341599
			c0.0570145,0.129097,0.1709518,0.436676,0.1709518,0.436676h-0.3342133
			c-0.242981-0.1404953-0.7214432-0.3987122-1.4694977-0.3987122c-0.9000015,0-1.2380142,0.5392075-1.2380142,1.0062866
			c0,0.6075592,0.4329453,0.9113388,1.4467926,1.3290558C100.380867,82.5172806,100.9883804,83.1248627,100.9883804,84.1653137z"/>
		<path class="st17" d="M98.7404175,87.3666458v-1.1797867c-0.6775055-0.0116806-1.3783722-0.2219391-1.7872086-0.5139694
			l0.2803497-0.7826309c0.420517,0.2803421,1.0279312,0.5022888,1.6820755,0.5022888
			c0.829361,0,1.3900528-0.4789276,1.3900528-1.1447525c0-0.6424561-0.4555664-1.0396118-1.3199692-1.3900452
			c-1.1914673-0.467247-1.9273758-1.0045776-1.9273758-2.0208282c0-0.9695358,0.6891861-1.7054443,1.7638397-1.880661V77.776474
			h0.7242279v1.1330643c0.7008667,0.0233612,1.1797943,0.2102585,1.5185471,0.4088364l-0.2920303,0.7709503
			c-0.2453003-0.1401672-0.7242279-0.3971558-1.471817-0.3971558c-0.8994446,0-1.2381973,0.5373306-1.2381973,1.0045776
			c0,0.6074142,0.4322052,0.9111252,1.4484558,1.3316422c1.2031555,0.4906082,1.8105698,1.0980225,1.8105698,2.1376419
			c0,0.9228058-0.6424561,1.7872086-1.8456116,1.9857864v1.2148285H98.7404175z"/>
	</g>
	<g>
		<polygon class="st25" points="117.125351,108.5658112 116.94104,109.3111191 116.7727737,109.9843292 116.2919464,111.883667 
			116.203804,112.2522812 116.1957855,112.2522812 116.1316071,112.5247879 115.8671799,113.5666122 115.4425049,115.2655945 
			102.0349197,115.506012 103.3732147,109.391243 115.9793854,108.6379166 		"/>
		<polygon class="st24" points="116.2941208,111.8825684 106.0048904,112.7462082 116.1317062,112.5285339 		"/>
	</g>
	<path class="st0" d="M23.5063877,125.9603806c0.1997471,0.1731644,4.874958,2.4375229,4.874958,2.4375229
		s1.1454697-1.7715378,2.2110252-3.4364929c0.9590569-1.465126,1.8647823-2.863678,1.8781147-2.8903427
		c0-0.0932465-4.1423893-4.2623062-4.1423893-4.2623062l-0.9190598,0.6793213l-2.1711102,1.611702l-1.85145,2.1177826
		C23.3864765,122.2175674,23.3198948,125.7738876,23.5063877,125.9603806z"/>
	<path class="st1" d="M27.4090366,118.4880829l3.1833344,6.4733276c0.9590569-1.465126,1.8647823-2.863678,1.8781147-2.8903427
		c0-0.0932465-4.1423893-4.2623062-4.1423893-4.2623062L27.4090366,118.4880829z"/>
	<path class="st21" d="M21.883976,121.8340302l-2.5353298,3.2803802c-0.1855202,1.4549026,2.4773407,4.6829224,2.4773407,4.6829224
		l0.7892036-0.6588593l1.8582287,3.3311462c0.7220707,1.2830963,1.728159,2.3902435,2.9336147,3.2394409l3.9891472,2.7700348
		c0.4903946,0.3461304,1.1519146,0.2147522,1.4799747-0.2732086l0.772831-1.1493225
		c0.351696-0.5190735,0.3976707-1.1755829,0.1136284-1.7246857l-1.1735725-2.3405762l-2.077879-4.1764526l0.0908718-3.9339218
		c-0.0051517-0.5476685-0.2720337-1.0341339-0.6845608-1.3529663c-0.1752853-0.1354675-0.3745136-0.2399673-0.597887-0.3137436
		c-0.5194187-0.1378479-1.0737476-0.0389786-1.5165863,0.2779083l-1.0256405,0.7727051l-0.0259857,0.0128021l-2.1106739-3.1965866
		l0.6431923-1.0024185l-1.4927845,0.6093826C23.035759,120.8127518,22.3543911,121.2253723,21.883976,121.8340302z"/>
	<path class="st12" d="M23.2880421,128.5808105l-0.6720638,0.5568695l1.8601875,3.3339539
		c0.7183495,1.2873535,1.7185974,2.3899078,2.9289093,3.2301483l3.9943886,2.7796631
		c0.4852467,0.3384399,1.1464157,0.2124329,1.4720802-0.2753143l0.0971184-0.1446228
		c-0.2944679,0.0872803-0.621788,0.0466156-0.8936996-0.1416016l-3.9989986-2.7831879
		c-1.2103119-0.8402405-2.2104492-1.9427032-2.9287987-3.2300568L23.2880421,128.5808105z"/>
	<path class="st12" d="M19.899004,124.4020004l-0.5490952,0.7104568c-0.1855602,1.4526825,2.4790878,4.683609,2.4790878,4.683609
		l0.7869816-0.6583862C22.6159782,129.1376801,20.7738991,126.5571594,19.899004,124.4020004z"/>
	<path class="st0" d="M47.0021896,129.583374l-0.1731606,2.823761c0,0,2.1178589,2.8503418,2.3842697,2.8769989
		c0.266407,0.0266724,5.3544426-1.0522156,5.3544426-1.0522156s-1.1054726-4.4221344-1.6649551-6.6864929
		c-0.1997452-0.7592316-0.3196602-1.278717-0.3196602-1.2919693c0-0.066658-6.2335854-2.077858-6.2335854-2.077858
		l0.5194855,4.2755585L47.0021896,129.583374z"/>
	<path class="st1" d="M46.3495407,124.1755981l0.5194855,4.2755585c2.5174332-0.3729095,6.0205078-0.892395,6.0205078-0.892395
		l0.0132523-0.0133362c-0.1997452-0.7592316-0.3196602-1.278717-0.3196602-1.2919693
		C52.5831261,126.1867981,46.3495407,124.1755981,46.3495407,124.1755981z"/>
	<path class="st21" d="M45.4092751,133.015564v4.1459351c0.7429123,1.2646027,4.8238411,2.1903076,4.8238411,2.1903076
		l0.2215385-1.0039215l3.5073509,1.4993591c1.355957,0.5736542,2.829052,0.8344269,4.3021469,0.769165l4.8502579-0.2477112
		c0.599678-0.0260162,1.0427551-0.5345154,1.0039215-1.1212158l-0.0913544-1.3819733
		c-0.0391502-0.6257782-0.4042397-1.1733398-0.9647675-1.4341125l-2.3598785-1.1342621l-4.1980629-2.0338593l-2.3337784-3.1681976
		c-0.3389893-0.430191-0.8476334-0.651886-1.3690071-0.651886c-0.2215385,0-0.4430771,0.0391541-0.6649323,0.1173706
		c-0.4952736,0.2085724-0.8734169,0.6257782-1.0300179,1.1473236l-0.3389893,1.2385864l-0.0127335,0.0260162l-3.6248055-1.2385101
		l-0.104084-1.1864624l-0.8084831,1.3950348C45.696064,131.5031586,45.4092751,132.2463074,45.4092751,133.015564z"/>
	<path class="st12" d="M50.6460075,137.4951782l-0.1912155,0.8516083l3.5106201,1.5003662
		c1.3556213,0.5793152,2.8212776,0.8399963,4.2927322,0.7646942l4.860302-0.2433014
		c0.5909004-0.0289612,1.0369797-0.5329895,0.9963837-1.1180573l-0.0115967-0.1738129
		c-0.179615,0.2491302-0.4634705,0.4171143-0.7937126,0.4344788l-4.8661003,0.2433319
		c-1.4714546,0.0753174-2.9369698-0.185379-4.2925911-0.7646942L50.6460075,137.4951782z"/>
	<path class="st12" d="M45.4090767,136.261261v0.8979187c0.7415237,1.2628784,4.8256493,2.1897888,4.8256493,2.1897888
		l0.2200661-1.002182C50.454792,138.3467865,47.4192429,137.4314728,45.4090767,136.261261z"/>
	<path class="st0" d="M46.1458359,18.0786171l-0.2175903,9.5556507c-0.011692,0.5136032,0.0859604,1.0296459,0.294529,1.4976749
		c0.1526299,0.3235703,0.348175,0.6228237,0.5864182,0.8894253c0.0407791,0.0514679,0.1901703,0.1559467,0.3889503,0.2952251
		l-0.2304344,10.1197662l5.7503052,0.1309395l0.1857643-8.1581039c0.0595551-0.0323715,0.1361809-0.0558701,0.2123985-0.0794296
		c0.7227974-0.2952042,1.3498344-0.8284206,1.7535667-1.543684c0.7101784-1.2220535,1.0951538-2.5947475,1.1271667-4.000721
		l0.1138763-5.0009441c0,0,0.2392693-2.3615417-2.1435814-3.5277023L46.1458359,18.0786171z"/>
	<path class="st1" d="M46.0366173,22.720871l-0.1012611,4.447031c0.3206902-0.1471977,0.5394707-0.4758415,0.5479851-0.8497849
		l0.0621986-2.731535C46.5540543,23.2126389,46.3502769,22.882513,46.0366173,22.720871z"/>
	<path class="st3" d="M56.4288063,19.1581993c0.2945137,0.0760212,0.4845352,0.1520405,0.7315598,0.3325539
		c0.1424713,0.1044903,0.2945137,0.2184925,0.4179649,0.3515148c0.0380402,0.0474892,0.0760193,0.1044903,0.1140594,0.1614914
		c0.2089844,0.3515148,0.2375145,0.8170319,0.1329651,1.225605c-0.047493,0.2184925-0.1329651,0.4274769-0.2375145,0.6365185
		c-0.1710014,0.370533-0.3990059,0.7315578-0.6175003,1.0545425c-0.2660408,0.4085159-0.5890274,0.7600307-0.9120674,1.1210556
		c-0.0949821-0.7600307-0.2184944-1.4915886-0.6270103-2.1471272c-0.3515129-0.5795174-0.8360519-1.0830154-1.4061165-1.4440403
		c0.3135338,0.3515148,0.3895531,0.9500523,0.0760193,1.3110771c-0.3324928,0.3704758-0.9025612,0.3704758-1.3965454,0.2945137
		c-1.7386131-0.2660427-3.4012032-1.0260715-4.7217903-2.1851654c-0.1044922,0.4940453-0.2375145,0.9405994-0.2945137,1.4440975
		c-0.0474892,0.4370441-0.0949821,0.8645802-0.1425323,1.292057c-0.009449,0.0950394-0.1710014,1.5580978-0.1139984,1.5580978
		l-1.2635307-0.0570011c-0.0760193,0.2660427-0.0190163,0.5605564-0.0285263,0.8265419l-0.00951,0.2565327
		c0,0.0760193-0.00951,0.1710014-0.00951,0.2565327c-0.057003,0.8455009-0.1044922,1.7100811-0.1805115,2.5650921
		c-0.7030296-0.82654-1.4250793-1.5960789-1.9001045-2.5746021c-0.2850037-0.5890274-0.5700073-1.1495838-0.7980118-1.7386112
		c-0.1995316-0.5130081-0.3610229-1.0355835-0.4465561-1.6151009c-0.1899643-1.292057-0.1140022-2.6031322,0.0285301-3.8951893
		c0.0665092-0.6650486,0.2280045-1.4345875,0.8265419-1.7481213c0.4085159-0.2089844,0.8930511-0.1424732,1.3395462-0.0760212
		c-0.2564735-0.1710014-0.3704758-0.5034962-0.3324928-0.7980099c0.0379791-0.3040237,0.1995316-0.5795183,0.4085121-0.8075218
		c0.3040237-0.3325529,0.7125397-0.5700655,1.1495857-0.6840668c0.8075218-0.1995325,1.65308,0.0285292,2.4226189,0.3135328
		c0.7790527,0.2850046,1.5485916,0.6365185,2.3751297,0.6840096c0.1614952,0.00951,0.3324966,0.00951,0.4940491-0.0095091
		c0.7695389-0.0474911,1.5200577-0.3324957,2.2611275-0.5320272c0.9120102-0.2375126,1.8810844-0.3799858,2.7931557-0.1140013
		c0.9025002,0.2660418,1.7100792,1.0165625,1.8050613,1.9475937c0.047493,0.5130653-0.1140022,1.0260735-0.3799858,1.4631176
		C57.6258812,18.4266987,57.0748329,18.9017258,56.4288063,19.1581993z"/>
	<path class="st1" d="M52.8713455,33.5771904l0.0267296-1.1737556c-0.027462,0.2833138-3.0927925-0.8349361-3.4547844-1.1131477
		c-0.1974525-0.0556202-0.3099518,0.2180462-0.1304779,0.3173809
		C50.2410469,32.5726204,51.4154587,33.2431946,52.8713455,33.5771904z"/>
	<path class="st0" d="M46.5536156,23.2741566l-0.0621681,2.7302055c-0.0122223,0.5368233-0.4568672,0.961668-0.9936867,0.9494438
		c-0.5368118-0.0122223-0.9616585-0.4568672-0.9494324-0.9936905l0.0621681-2.7302036
		c0.0061111-0.2684116,0.1204948-0.5078735,0.2999153-0.6800327c0.1801605-0.1714039,0.4253387-0.2747498,0.6937485-0.2686367
		C46.140976,22.2934647,46.5658226,22.7381096,46.5536156,23.2741566z"/>
	<path class="st4" d="M52.5982361,25.7008209l0.5960617,0.7740116c0.1557884,0.2022972,0.1158257,0.4929638-0.0887794,0.6457081
		l-0.5489426,0.4098034"/>
	<path class="st5" d="M52.7650986,28.4316483c-0.051403-0.033083-0.1028061-0.0661659-0.1646271-0.0983181
		c-0.5127373-0.2605801-1.0880737-0.1391621-1.5888519,0.0937443c-0.1863937,0.0811272-0.360054,0.1827793-0.5125008,0.282402
		c-0.0048599,0.0058174-0.0155411,0.006773-0.0204048,0.0125904s-0.0155411,0.0067711-0.0204048,0.0125885
		c-0.1427193,0.0879879-0.2736588,0.1858196-0.3989258,0.2883949c-0.0349922,0.0300426-0.0651245,0.0542679-0.0999985,0.0841675
		c-0.0301323,0.0242252-0.0709419,0.0494061-0.0942993,0.0891724c-0.0097275,0.0116367-0.0136337,0.0281334-0.0068626,0.0436764
		c-0.0039063,0.0164967,0.0075874,0.026104,0.0088043,0.0367603c0.0250359,0.0406933,0.0744095,0.052557,0.114296,0.0757732
		c0.0280151,0.0137749,0.0668259,0.026453,0.0948181,0.0399685c0.0785789,0.0360355,0.1570206,0.0719528,0.2355995,0.1079884
		c0.0950775,0.0399437,0.1900139,0.0797691,0.2799683,0.125555c0.1067162,0.0496693,0.2074661,0.0943565,0.3083649,0.1391621
		c0.1114311,0.0437336,0.2123299,0.0885391,0.318779,0.1382332c0.1008987,0.0448055,0.2016525,0.0894928,0.3024063,0.134182
		c0.0950775,0.0399437,0.1851501,0.0855865,0.2801094,0.1256714c0.0785561,0.0357761,0.1570206,0.0719528,0.2355995,0.1079903
		c0.066803,0.0261917,0.1230698,0.0534573,0.1793327,0.0807228c0.0386734,0.0125599,0.0668068,0.0261936,0.1007538,0.0446892
		c0,0,0,0,0.0058174,0.0048618c0.022316,0.00877,0.1287689,0.0584621,0.2343864,0.0973339
		c0.1067123,0.0496674,0.2074661,0.0943565,0.2074661,0.0943565C53.064518,30.4589863,53.7553978,29.1012859,52.7650986,28.4316483z
		"/>
	<path class="st6" d="M52.5572586,30.4989586l0.1742668-0.3973637c0.0807228-0.1793346-0.0033875-0.3976269-0.1826019-0.4784927
		l-2.0498047-0.9136257c-0.0048599,0.0058174-0.0155411,0.006773-0.0204048,0.0125904s-0.0155411,0.0067711-0.0204048,0.0125885
		c-0.1427193,0.0879879-0.2736588,0.1858196-0.3989258,0.2883949c-0.0349922,0.0300426-0.0651245,0.0542679-0.0999985,0.0841675
		c-0.0301323,0.0242252-0.0709419,0.0494061-0.0942993,0.0891724c-0.0097275,0.0116367-0.0136337,0.0281334-0.0068626,0.0436764
		c-0.0039063,0.0164967,0.0075874,0.026104,0.0088043,0.0367603c0.0250359,0.0406933,0.0744095,0.052557,0.114296,0.0757732
		c0.0280151,0.0137749,0.0668259,0.026453,0.0948181,0.0399685c0.0785789,0.0360355,0.1570206,0.0719528,0.2355995,0.1079884
		c0.0950775,0.0399437,0.1900139,0.0797691,0.2799683,0.125555c0.1067162,0.0496693,0.2074661,0.0943565,0.3083649,0.1391621
		c0.1114311,0.0437336,0.2123299,0.0885391,0.318779,0.1382332c0.1008987,0.0448055,0.2016525,0.0894928,0.3024063,0.134182
		c0.0950775,0.0399437,0.1851501,0.0855865,0.2801094,0.1256714c0.0785561,0.0357761,0.1570206,0.0719528,0.2355995,0.1079903
		c0.066803,0.0261917,0.1230698,0.0534573,0.1793327,0.0807228c0.0386734,0.0125599,0.0668068,0.0261936,0.1007538,0.0446892
		c0,0,0,0,0.0058174,0.0048618C52.3451881,30.4103947,52.4516411,30.4600868,52.5572586,30.4989586z"/>
	<path class="st1" d="M45.2232018,23.2959976l-0.0177727,0.7804375l0.7077446,0.3497429l0.0253639-1.1138916
		c0.0044441-0.1951103-0.1544151-0.3613701-0.3495255-0.3658123C45.3939056,22.94203,45.2276459,23.1008873,45.2232018,23.2959976z"
		/>
	<path class="st1" d="M45.8957748,25.19034l-0.7086754-0.3088531l-0.0166588,0.7316113
		c-0.0044441,0.1951103,0.1544113,0.3613701,0.3495216,0.3658123s0.3613701-0.1544132,0.3658142-0.3495235L45.8957748,25.19034z"/>
	<path class="st24" d="M67.321167,72.6566467c-1.9191208,0.5510483-3.8667145,0.9880905-5.8333282,1.3205872
		c-1.8145752-4.2657242-3.1161423-8.7404938-4.1897049-13.2437286c-0.1140022-0.4655151-0.2185516-0.9405403-0.3230438-1.4155655
		c-0.8835411-3.9521904-1.5295677-7.951931-2.7456627-11.8186493c-0.2280045-0.7315598-0.4655151-1.4725685-0.6935196-2.2136383
		c-0.1614914-0.5034981-0.3229866-1.0260124-0.3040237-1.5580406c0.0285301-1.0450897,0.7410698-1.8526115,1.168602-2.7551727
		c0.3704796-0.7790489,1.0925255-1.3585663,2.0141068-1.3110771l0.2945137,0.00951l0.4655151,0.0474892h0.4085159
		c0.1900215,0.00951,0.380043,0.0285301,0.5700073,0.047493c0.4465561,0.0855293,0.8740921,0.2090416,1.263588,0.3895531
		c0.1044922,0.047493,0.1995316,0.0949821,0.2945137,0.1519852c0.4465523,0.2470207,0.8455582,0.5605545,1.225544,0.9405403
		c0.1330223,0.1520424,0.2660446,0.3230438,0.3800468,0.4845352c0.6365166,0.8930511,0.8740311,2.1186562,1.1400719,3.1827087
		c0.00951,0.057003,0.0284729,0.1044922,0.0379829,0.1614914c0.3895531,1.4440994,0.6365738,2.926178,0.8835411,4.3987465
		c0.8455582,4.9782639,1.6911163,9.9660378,2.5461273,14.9538078C66.3901367,67.1748886,66.8556519,69.9110413,67.321167,72.6566467
		z"/>
	<path class="st25" d="M65.9245605,64.4292221c-3.2301369,0.9785843-5.757309,1.7291031-5.757309,1.7291031l-2.3370895-10.840126
		l-0.2755547-1.282547l0.5795784-7.9899101l1.7861023-0.4655762l2.5366211-0.6649895
		c0.00951,0.057003,0.0284729,0.1044922,0.0379829,0.1614914c0.3895531,1.4440994,0.6365738,2.926178,0.8835411,4.3987465
		C64.2239914,54.4536781,65.0695496,59.441452,65.9245605,64.4292221z"/>
	<path class="st34" d="M56.3837662,38.2448654l-0.0282974,0.2469635l-3.8382492,31.1332245
		c-0.8266563,0.1425247-1.6435699,0.2375107-2.479969,0.2945099c-0.8071709,0.0569992-1.6245499,0.0665131-2.4317245,0.0190201
		c-2.6126442-0.0950394-5.2062645-0.6555405-7.7813339-1.6721039l3.9333458-31.8837357l3.1257057-0.8265419l0.2282372-0.3990059
		c-0.0570602,0.4274788,0.1326714,1.1115456,0.2658119,1.4535484c0.8359337,2.3466606,4.9594727,2.1566391,5.443779-0.7695389
		c0.1331367,0.1330223,1.4914131,1.1020927,3.0213318,2.0521431v0.0094528
		C56.0228577,38.0168037,56.1940346,38.1308632,56.3837662,38.2448654z"/>
	<path class="st53" d="M56.3554688,38.4918289l-3.8382492,31.1332245c-0.8266563,0.1425247-1.6435699,0.2375107-2.479969,0.2945099
		c-0.8071709,0.0569992-1.6245499,0.0665131-2.4317245,0.0190201l-3.2115288-2.6886597l6.137764-1.9571075l-1.3114243-20.853653
		l3.3349228-7.4958649L56.3554688,38.4918289z"/>
	<path class="st11" d="M56.9846001,98.0705338c-0.5034981,0.9690781-1.1305618,1.8811417-1.9001045,2.6696472l-0.0190163,0.0095062
		c-0.0379829,0.047554-0.0665131,0.0855331-0.1235123,0.1330261l-3.3441429,3.3346863l-0.1330223,0.1330261l-0.0379829,0.0284729
		l-1.0355797,1.0260696l-3.8381882,3.8097153l-3.1446724,3.1351624l-2.3656197,2.3276367l-5.0923233,5.0922623l-4.0661907,4.0377274
		l-4.4842758-5.3297806l-0.7505188-0.8930511l1.7575722-2.3181305l0.0285301-0.0190201l3.2111797-4.2182312l7.7523994-10.1750183
		l1.615097-2.0996399l0.7315598-0.9405365l0.00951-0.0190201v-0.0095139l3.4011459-4.4652557l-0.2375145-2.2705765
		l-1.0165634-9.9090347l-0.7314987-7.1919022l-0.3990631-3.8857346l-0.1140022-1.0355301h13.2912178v0.0094528l0.4465523,4.8927917
		l0.0379829,0.3894958l0.0475464,0.475029l0.3134766,3.4677124l1.3015671,13.9562607
		C58.2766571,94.2513657,57.8681412,96.2749786,56.9846001,98.0705338z"/>
	<path class="st40" d="M48.2793083,105.2057114l3.3115959-0.9908676l3.35075-3.3245697
		c0.8342628-0.8344269,1.5252953-1.7991943,2.046669-2.8291321c-0.4430733-7.5748291-1.2907066-22.163887-1.2907066-22.3985596
		l-6.0362473,12.6855469L48.2793083,105.2057114z"/>
	<path class="st12" d="M39.4132195,100.8425903l1.6394768,13.8511887l9.3384514-9.2920609
		c-0.382431-2.4852066-2.9139175-12.3102188-4.6286354-13.7758408c-0.2434044-0.2085419-0.5330544-0.3997192-0.8515587-0.5677032
		l0.2316666,2.2708588L39.4132195,100.8425903z"/>
	<path class="st11" d="M55.9206848,69.0265121c-0.0097427,0.0760193-0.0380402,0.9310913-0.0951004,2.3561707
		c-0.028759,0.7884979-0.0477791,1.7860413-0.0858192,2.9356232c-0.0092773,0.1995316-0.0092773,0.3990097-0.0190201,0.5985413
		c-0.0092773,0.1330185-0.0092773,0.2660446-0.0092773,0.4085159c0,0.1139984-0.0097389,0.2280045-0.0097389,0.3420029
		c-0.0282974,0.9595642-0.0565948,2.0046539-0.0756149,3.1352158c-0.0380402,1.3015671-0.0760803,2.6886063-0.1141205,4.1611786
		c-0.0477791,1.596138-0.0858192,3.2776871-0.1331367,5.0353165c-0.0190201,0.1805191-0.0190201,0.3610306-0.0282974,0.5509949
		c0,0.2090378-0.0097389,0.4370422-0.0097389,0.64608c-0.0380402,2.0141068-0.0853577,4.1041794-0.1326752,6.2228317
		c0,0.1519852-0.0097427,0.3040237-0.0097427,0.4560089c-0.0097389,0.2280045-0.0097389,0.4560013-0.0190201,0.6840668
		c-0.0380363,1.3870392-0.0570564,2.7836456-0.0950966,4.180191v0.0379791
		c-0.0380402,1.3110809-0.0663376,2.6221542-0.1043739,3.9142685c-0.0380402,1.5770645-0.0760803,3.1351624-0.1233978,4.6457138
		c-0.0097427,0.5415344-0.028759,1.0735626-0.0380402,1.6055908c0,0.33255,0,0.6840668-0.028759,1.0070496
		c0,0.2090454-0.0092773,0.4180222-0.0092773,0.6175613c-0.1233978,4.8452377-0.284832,8.654953-0.4277115,11.2391281
		c-0.0190163,0.4085159-0.0380363,0.807518-0.0570564,1.1590347c0,0.0569992-0.0092773,0.1139984-0.0092773,0.1710052
		c-0.0951004,1.5771179-0.1804543,2.403656-0.1804543,2.403656l-8.2846565-0.3610229l-0.721817-0.0285339l-1.6913528-14.8017654
		l-1.1305084-9.8900757l-0.4462624-3.9807129l-0.0858192-0.6650543l-0.2658119-2.3370895l-0.9217567-8.1989517v-0.0190201
		l-1.7952614-2.8406448c-0.2092171-0.3610229-0.4467278-0.741066-0.6462021-1.1210556
		c-0.4843063-0.8930511-0.8837166-1.8051224-1.2348824-2.7456665c-0.380394-1.0450287-0.6842422-2.1185913-0.8837166-3.211174
		c-0.2282333-1.1780548-0.3326111-2.3846436-0.3516312-3.6006775l0.2184944-6.4888687l5.8334503,0.5225143l2.6126404,0.2280045
		l3.7904663,0.33255L55.9206848,69.0265121z"/>
	<path class="st12" d="M37.9550552,75.4583817c0,0,4.6268616,9.6240311,4.4366684,9.9755478
		c-0.1424179,0.2659836-0.6652222,6.7643661-0.912014,10.0420532l-0.9217567-8.1989517v-0.0190201l-1.7952614-2.8406448
		c-0.2092171-0.3610229-0.4467278-0.741066-0.6462021-1.1210556c-0.4843063-0.8930511-0.8837166-1.8051224-1.2348824-2.7456665
		c-0.380394-1.0450287-0.6842422-2.1185913-0.8837166-3.211174c-0.2282333-1.1780548-0.3326111-2.3846436-0.3516312-3.6006775
		l0.2184944-6.4888687l5.8334503,0.5225143l3.2110634,5.5578384L37.9550552,75.4583817z"/>
	<path class="st13" d="M55.1771812,96.5590591c-0.0380402,1.3870392-0.0570602,2.7836456-0.0951004,4.180191v0.0379791
		c-0.0375748,1.3110809-0.0663338,2.6221542-0.1043739,3.9142685c-0.0380402,1.5770645-0.0760803,3.1351624-0.123394,4.6457138
		c-0.0097427,0.5415344-0.0287628,1.0735626-0.0380402,1.6055908c0,0.33255,0,0.6840668-0.0287628,1.0070496
		c0,0.2090454-0.0092773,0.4180222-0.0092773,0.6175613l-8.4270706,8.8164444l-1.5865135-18.9250183
		c-0.2467918-2.9926224,2.0522614-5.5863037,5.0545731-5.7003098L55.1771812,96.5590591z"/>
	<path class="st2" d="M43.110321,69.4568863h-0.0000038c-2.0538559,3.277832-2.3396263,7.3634872-0.7620773,10.8953171
		l4.3110046,9.6515045c1.5713501,3.9463882,2.4064674,8.1472473,2.4639969,12.394577l0.3085556,22.7799301"/>
	<polygon class="st12" points="56.4335556,74.3192368 51.3128204,74.3192368 48.4721146,69.0274963 48.1016388,68.3339233 
		55.9205475,69.0274963 55.9490204,69.0274963 55.9490204,69.0369492 56.3955727,73.9297409 	"/>
	<path class="st15" d="M35.6399231,67.3949432c6.4262886,1.7409821,13.2067146,2.5398483,20.3156357,2.4640656l0.1258202-1.8370743
		c-7.163414-0.3068085-13.5731201-1.0405579-19.9022064-2.4540558L35.6399231,67.3949432z"/>
	<path class="st10" d="M123.6287003,128.1577301c-4.5034714-0.4464874-8.8547821,1.4441071-13.2343903,2.5366821
		c-6.3367691,1.5960846-12.9968796,1.5485992-19.4667892,0.6744995c-6.479187-0.8740234-12.8066788-2.5651398-19.1244278-4.2466965
		c4.0284424-2.0046005,7.1253891-5.7858429,8.3036728-10.1180801c0.5320816-1.9475937,0.6935196-3.9617004,1.0827255-5.9378204
		c0.7983551-4.0472336,2.603363-7.8854218,5.1589508-11.1250763c1.2826614-1.6246109,2.764801-3.192215,4.4464111-4.4082565
		c0.3892059-0.2850037,3.4012604-2.6126404,2.7740707-3.2016678c-2.1663742-2.0331268-5.120903-3.3251801-6.5079422-6.0518265
		c0.465744-0.0095062,0.7603149-0.4845352,1.0261307-0.8645782c0.4940414-0.7314987,1.1778183-1.33004,1.9664383-1.7291031
		c0.2565308-0.1424713,0.5228043-0.2564697,0.7983551-0.3420029c1.1207657-0.3515167,2.3561096-0.3229828,3.4578552,0.0855331
		c0.0287628-1.0165634,0.9597931-1.8241425,1.9669037-1.9476547c1.0071106-0.114006,2.0044861,0.2470245,2.9545364,0.5985336
		c1.7859879-1.0545425,3.800209-1.7195892,5.8617477-1.9190598c0.5891418-0.0570068,1.187561-0.0760269,1.7669601,0.0095062
		c0.1428833,0.018959,0.2945786,0.047493,0.4374542,0.0759659c0.7125397,0.1709976,1.4055939,0.5415344,1.8523254,1.121048
		c0.85495,1.0925827,0.7032623,2.6601944,0.2565308,3.9712143c1.6055298,0.1425323,3.1349869,0.9785767,4.1420975,2.2421646
		c-1.2446213,1.1020355-2.5746078,2.1090851-3.961647,3.0211563c-1.1778183,0.7790527-2.7360382,1.3205872-3.6387711,2.4321365
		c1.0168533,0.3990021,1.9952011,1.3585663,2.9072189,1.97612c0.1141129,0.0759659,0.2184906,0.1519852,0.3326111,0.2375107
		c1.035408,0.7315063,2.0425186,1.5105515,2.992569,2.3561096c2.1093216,1.8621292,3.9904022,3.9902344,5.5769119,6.3083649
		c0.0092773,0.018959,0.0190201,0.0284653,0.0282974,0.0474854c3.391983,4.9972839,3.391983,10.0990601,3.5626984,15.9228821
		C121.4340286,122.7804642,121.8900299,125.8206482,123.6287003,128.1577301z"/>
	<path class="st28" d="M117.7855072,103.959938l-10.6022644,17.9369888l-8.9494095,3.0686493l-7.8096313-16.3979034
		l1.168541-11.1726227c8.0183868,0.6935806,13.7757568-0.6079865,17.594986-2.1470718
		c1.035408,0.7315063,2.0425186,1.5105515,2.992569,2.3561096c2.1093216,1.8621292,3.9904022,3.9902344,5.5769119,6.3083649
		C117.7664871,103.9314117,117.7762299,103.940918,117.7855072,103.959938z"/>
	<g>
		<g>
			<g>
				<g>
					<g>
						<g>
							<path class="st24" d="M101.6179733,139.9819794c0,0-8.0019608-2.7410431-12.9267578-1.3691559l-0.1093903-2.2502441
								l3.6151505,0.3797607"/>
							<polygon class="st24" points="101.2595367,139.2746124 122.0708923,132.2723389 124.4016647,129.0712433 
								124.1138992,127.8184357 98.3249817,135.4161682 98.7352753,138.2645264 							"/>
							<polygon class="st6" points="125.706131,125.4546204 110.7012787,123.4171371 105.4298935,124.9074249 
								97.0010681,127.2892303 87.2227173,130.0543823 101.0831223,132.7315369 110.3648987,129.9877472 118.0851746,127.7073517 
															"/>
							<polygon class="st67" points="125.706131,125.4546204 110.7012787,123.4171371 105.4298935,124.9074249 
								97.0010681,127.2892303 87.2227173,130.0543823 101.0831223,132.7315369 110.3648987,129.9877472 118.0851746,127.7073517 
															"/>
							<polygon class="st68" points="110.7445297,124.0304642 89.8261871,129.9440002 101.0532837,132.112442 
								122.8419495,125.6732101 							"/>
							<ellipse class="st105" cx="101.4850922" cy="129.6986084" rx="2.3503284" ry="0.8891656"/>
							<ellipse class="st105" cx="113.2843323" cy="126.0985947" rx="2.3503284" ry="0.8891656"/>
							<polygon class="st6" points="126.2828827,131.5252228 125.706131,125.4546204 118.0851746,127.7073517 
								110.3648987,129.9877472 101.0831223,132.7315369 101.3018875,135.6940155 110.5785065,132.9166107 118.3497849,130.5888519 
								124.1288071,128.8586121 118.3641129,130.7646332 110.6074142,133.3312073 101.3534164,136.3930664 101.5048599,138.4475403 
								110.7546234,135.3506317 117.7651978,132.9846497 110.7661972,135.5034332 101.5347061,138.8230591 101.618103,139.9830017 
								110.861557,136.8139801 118.6738052,134.1355591 							"/>
							<polygon class="st106" points="126.2789154,131.5209503 118.6692276,134.133606 110.8600616,136.8127594 
								104.3140717,139.0548553 101.6156082,139.9859009 101.5302505,138.8268585 104.63694,137.7058105 110.7649612,135.5016785 
								117.7664871,132.9840088 110.7552185,135.3496399 104.7603378,137.3542328 101.5019531,138.4468079 101.3498001,136.3947296 
								109.52034,133.6965485 110.6030655,133.3355255 118.3653793,130.7609253 124.1320267,128.8608246 118.3463593,130.5898743 
								110.5747681,132.917511 109.5393524,133.2310333 101.3024826,135.6916351 101.1313019,133.4020386 101.0839844,132.727478 
								104.7700806,131.6444702 105.1217041,131.539917 110.3655472,129.991333 118.0898209,127.7112427 125.709259,125.4501114 
															"/>
							<polygon class="st6" points="101.0835266,132.7317657 87.2227249,130.0542755 87.5048141,136.6422882 
								101.6179733,139.9819794 							"/>
							<polygon class="st107" points="101.6156082,139.9859009 98.87957,139.339859 87.5077057,136.6416931 87.2224121,130.0578461 
								101.0839844,132.727478 101.1313019,133.4020386 101.3024826,135.6916351 101.3498001,136.3947296 101.5019531,138.4468079 
								101.5302505,138.8268585 							"/>
							<polygon class="st24" points="101.3534164,136.3930664 90.8427505,133.6365662 101.3018875,135.6940155 							"/>
						</g>
					</g>
					<line class="st68" x1="94.3804245" y1="129.9992828" x2="97.8060608" y2="129.1767731"/>
					<line class="st68" x1="93.3843231" y1="129.7053986" x2="96.8099594" y2="128.8828888"/>
				</g>
			</g>
		</g>
		<ellipse class="st105" cx="107.4432068" cy="127.7881088" rx="2.9498224" ry="1.1159635"/>
		<text transform="matrix(1.0265049 0.6953215 0.95583 -0.29393 107.4942703 126.7730942)" class="st110 st111 st112">$</text>
	</g>
	<path class="st47" d="M109.5393524,133.2310333c0.009285,0.1519928,0,0.3040314-0.0190125,0.4655151
		c-0.0570602,0.3420105-0.1902008,0.684082-0.3609085,0.9975433c-0.380394,0.7125397-0.9788132,1.377594-1.7674332,1.5771179
		c-0.7027969,0.1710052-1.510437-0.0285187-2.0995789,0.3799896c-0.246788,0.1710052-0.4179688,0.427536-0.5320816,0.7030334
		c-0.0380402,0.0950317-0.0756149,0.1900177-0.1043777,0.2850647c-0.0092773,0.0189514-0.0092773,0.0474854-0.0190201,0.0665131
		c-0.0951004,0.3609619-0.1424179,0.7219849-0.2375107,1.092514c-0.0282974,0.0855408-0.0570602,0.1710052-0.0853577,0.2565308
		l-2.6984634,0.9310455L98.87957,139.339859c-0.0190201-0.265976-0.0282974-0.5225067-0.0570602-0.7790375
		c-0.1136551-1.2350616-0.6364594-2.4226227-1.4631195-3.3347015l3.7719116-1.8240814l3.6387787-1.7575684l0.2277679-0.1139984
		c0.0477829,0,0.0858231,0.0094452,0.1238556,0.0094452c0.6267242,0.0095062,1.2348862-0.2850037,1.8620682-0.3229828
		c0.8169174-0.0570068,1.6338272,0.3515167,2.137619,0.9975433c0.1707077,0.2184906,0.3038483,0.4655151,0.3701859,0.7315521
		C109.52034,133.0410156,109.5296173,133.1360626,109.5393524,133.2310333z"/>
	<path class="st28" d="M109.8455048,88.5225296c0,0-8.5124893,3.6766891-12.05616,3.591217
		c-3.5531845-0.0855255-5.918808-2.9166641-5.918808-2.9166641l-1.8146286-5.5102921
		c0.2565308-0.1425247,0.5225143-0.2565308,0.7980652-0.3420563c1.1210556-0.3515167,2.3561096-0.3229904,3.4581451,0.0855255
		c0.0285339-1.0165634,0.9595642-1.8240814,1.9666138-1.9475937c1.0070572-0.1139984,2.0046539,0.2470245,2.9547119,0.5985413
		c1.7860413-1.0546036,3.8002014-1.7195969,5.8618011-1.9191284c0.5890274-0.0569992,1.187561-0.0760193,1.7670822,0.0095139
		L109.8455048,88.5225296z"/>
	<g>
		<path class="st25" d="M90.6476822,115.2028503l1.6618271,1.3874588c-0.6081619,0.7324219-1.6232452,0.9384613-2.4556351,0.5453873
			C90.2178497,116.402977,90.4741364,115.7423401,90.6476822,115.2028503z"/>
		<path class="st25" d="M95.8014145,119.5066071l1.7063141,1.4256287c-0.0894547,0.3640442-0.2539825,0.925354-0.5392609,1.6043015
			c-0.2360687-0.0681534-0.461441-0.1835403-0.6651001-0.3413162
			C95.4679184,121.5479736,95.266449,120.3883133,95.8014145,119.5066071z"/>
	</g>
	<g>
		<path class="st34" d="M70.6949463,131.66362c0,0,5.110817,8.803009,9.1531296,10.334198
			c0,0,12.6274414-3.874115,15.4679871-18.5599899l-11.3384171-8.8242874
			C83.9776459,114.6135406,83.8865051,126.8463287,70.6949463,131.66362z"/>
		<path class="st67" d="M95.3168716,123.4360046c-0.3326111,1.7005768-0.7886124,3.2586746-1.3582764,4.6837463
			C89.721405,138.9693298,79.850235,142,79.850235,142c-4.0474625-1.5295715-9.1586304-10.3365631-9.1586304-10.3365631
			c8.455368-3.087677,11.5240173-9.2154617,12.6355057-13.2247162c0.6369247-2.2516174,0.6462021-3.8286743,0.6462021-3.8286743
			L95.3168716,123.4360046z"/>
		<path class="st68" d="M78.1320648,139.3708496c-2.2460861-2.0361786-4.4761047-5.3234406-5.6038208-7.0990906
			c9.1249924-3.9504395,11.6912003-11.5187759,12.412323-15.3324738l9.0000153,7.0040054
			c-2.6187134,11.7471695-11.9524689,15.9206772-14.0414429,16.7172012
			c-0.5265808-0.269989-1.1189423-0.7020721-1.7668533-1.2894287
			C78.1322861,139.3710632,78.1322861,139.3710632,78.1320648,139.3708496z"/>
		
			<ellipse transform="matrix(0.6435983 -0.7653635 0.7653635 0.6435983 -69.5403214 110.9515228)" class="st25" cx="84.3626099" cy="130.1437836" rx="3.4498045" ry="3.189595"/>
		
			<ellipse transform="matrix(0.9656041 -0.2600166 0.2600166 0.9656041 -32.3358879 25.2380638)" class="st25" cx="79.2260437" cy="134.8411407" rx="1.5565802" ry="1.357698"/>
		
			<ellipse transform="matrix(0.2185404 -0.9758279 0.9758279 0.2185404 -51.9180794 183.1104584)" class="st25" cx="88.3682327" cy="123.9709244" rx="1.6503932" ry="1.3498926"/>
		<text transform="matrix(0.6539201 -0.75657 0.75657 0.6539201 84.7613449 132.5978088)" class="st110 st111 st113">$</text>
		<path class="st68" d="M79.01474,138.1390228c0,0,1.8444672-0.4158173,4.1786041-2.6504669"/>
		<path class="st68" d="M79.8857193,139.3808136c0,0,1.8444672-0.4158173,4.1786041-2.6504669"/>
	</g>
	<path class="st47" d="M95.3168716,123.4360046c-0.3326111,1.7005768-0.7886124,3.2586746-1.3582764,4.6837463
		c-1.0831909-0.266037-2.0239639-1.168541-2.0522614-2.2706375c-0.0097427-0.379982,0.0473175-0.8455582-0.2755508-1.0355225
		c-0.1233978-0.0760193-0.2662735-0.0855255-0.3989487-0.1425323c-0.5701218-0.2470169-0.4467239-1.121048-0.85495-1.596077
		c-0.0477829-0.0569992-0.1141205-0.1044922-0.1902008-0.1330185c-0.2472534-0.0760269-0.4652786,0.1709976-0.5701218,0.4085159
		c-0.0951004,0.2375107-0.1804504,0.5320206-0.408226,0.6365738c-0.380394,0.1899643-0.7886124-0.2755508-0.7886124-0.6935806
		c-0.0097427-0.4180222,0.2087479-0.807518,0.246788-1.2255402c0.0477829-0.5035553-0.2565308-1.0735703-0.7598572-1.1400757
		c-0.3228683-0.0379791-0.6652222,0.1425323-0.9597931,0.0095062c-0.1707153-0.0760193-0.2945709-0.2375107-0.475029-0.2945099
		c-0.2755508-0.0855331-0.5506363,0.1330185-0.8261871,0.2470245c-0.7603226,0.3134689-1.6533127-0.2280045-2.0142212-0.9690781
		c-0.2184982-0.4655151-0.2945709-0.9690704-0.3043137-1.4820786c0.6369247-2.2516174,0.6462021-3.8286743,0.6462021-3.8286743
		L95.3168716,123.4360046z"/>
	<path class="st7" d="M98.4226303,120.4258575c-0.3846664,0.7613525-0.8895569,1.4505539-1.2662964,2.2119064
		c-0.4326935,0.873558-0.6891022,1.82724-1.2421265,2.6286469c-0.5530243,0.7933884-1.5387421,1.4104385-2.4683075,1.1379929
		c-0.5930405-0.1763382-1.0017624-0.649147-1.2662964-1.2261887c-0.1923294-0.4007034-0.3124619-0.8414688-0.3846588-1.2661896
		c-0.1522217-0.9296646-0.2965164-2.035614-1.121994-2.4844055c-0.6731567-0.3606415-1.6107483-0.1522675-2.1637726-0.6811752
		c-0.3687134-0.3446045-0.4808273-1.0498505-0.9777908-1.2582245c-0.4087296-0.1683121-0.7452621,0.0080261-1.0737686,0.2164001
		c-0.2163925,0.1362228-0.4327927,0.2804718-0.6652298,0.352623c-0.8014145,0.2644272-1.3463211-0.2164001-1.618866-0.9296646
		c-0.5769958-1.4665985-0.4888535-3.1334991-0.0240707-4.6481705c0.4568634-1.5066605,1.2662964-2.8850632,2.1157379-4.2074127
		c0.3045425-0.472847,0.6171036-0.9456558,0.8014145-1.474617c0.384758-1.1219406,0.1603394-2.3561478-0.0721054-3.5261765
		c1.5066605,0.560997,2.3641281,2.2519608,2.428299,3.8547821c0.0480347,1.1299744-0.208374,2.2359238-0.5530243,3.3258286
		c0.2724533-0.4007034,0.6491928-0.7212372,1.0899124-0.9215927c-0.2724533,0.9056015-0.3285141,1.8752747-0.1602478,2.7969131
		c0.3846664,0.1282043,0.8254776-0.0480804,1.0899048-0.3445969c0.2724533-0.3045425,0.3926849-0.705246,0.4487457-1.1059494
		c0.0802155-0.54496,0.0561523-1.1139755-0.0800247-1.6428833c-0.1203308-0.4888535-0.3287048-0.9617081-0.280571-1.4585724
		c0.0401077-0.4888535,0.3205795-0.9296646,0.6732483-1.2742691c0.5128174-0.5048904,1.1860733-0.8414688,1.8912201-0.9616547
		c-0.4967728,0.649147-0.8734055,1.3864288-1.1058502,2.1717911c-0.1362762,0.4808807-0.2163925,1.017807,0.0160446,1.45858
		c0.1843109,0.352623,0.5368805,0.5770416,0.8174515,0.8575134c0.8253784,0.8334503,0.9776993,2.2439423,0.3605957,3.2457047
		c0.528862-0.2404175,0.8415222-0.7853699,1.0497971-1.3303223c0.2003555-0.5449524,0.3286057-1.121994,0.6411743-1.6108475
		c0.5129089-0.82547,1.5547867-1.2982788,2.5164413-1.1460114c-0.9296646,0.7693253-1.4746704,1.9233627-1.707016,3.1094818
		c-0.2404556,1.1780472-0.208374,2.3962097-0.176384,3.6063461c0.0160446,0.4007034,0.0641785,0.8654861,0.4087296,1.0738678
		c0.2484818,0.1442413,0.5769958,0.0881424,0.8495407-0.0240173c0.7132721-0.2885513,1.2502518-0.9296646,1.5227051-1.6509094
		c0.2724457-0.7212906,0.312561-1.514679,0.2243195-2.2760239
		C99.4484558,116.8114853,99.2481003,118.7749557,98.4226303,120.4258575z"/>
	<path class="st7" d="M108.335144,134.2531281c-0.5230484,0.5162659-1.3895111,0.4108887-2.076622,0.1665802
		c-0.6298447-0.2146912-1.3538208-0.4982147-1.9050217-0.1374207c-0.4475403,0.2878723-0.632103,0.9287415-1.1442108,1.0903931
		c-0.3379517,0.1062164-0.7968063-0.0626526-1.0983047,0.1764984c-0.4003067,0.3223877-0.1552124,0.8395691-0.2314606,1.2555237
		c-0.1089478,0.5747833-0.5909424,0.7475128-1.1214371,0.6804047c-0.3003311-0.0422058-0.5822296-0.1118011-0.8604126-0.2141724
		c-0.0102997,0.0047607-0.0075302-0.0027771-0.0075302-0.0027771c-0.7445679-0.2740021-1.421936-0.7538605-1.9873581-1.3291321
		c-0.7666321-0.7944794-1.3379745-1.7476807-1.8607864-2.7171936c-0.1897888-0.3431244-0.3766479-0.6936493-0.6364212-0.9857025
		c-0.5591202-0.6156311-1.389946-0.8872528-2.1858978-1.1374817c0.8518066-0.7368774,2.1765823-0.6934204,3.180397-0.1958923
		c0.7141266,0.35672,1.3112106,0.8924103,1.8588104,1.4696808c-0.1529388-0.3039093-0.2234955-0.6458435-0.2002563-0.987442
		c0.4596634,0.4680786,1.0340576,0.8331604,1.6591415,1.0375519c0.2060699-0.1888885,0.2416687-0.517334,0.1508713-0.7813263
		c-0.0982361-0.2667389-0.3021164-0.4783783-0.5302277-0.6477051c-0.3044128-0.2401428-0.6618652-0.4058228-1.0339203-0.508606
		c-0.3345108-0.0889587-0.6986008-0.1204834-0.9868469-0.3119202c-0.2806244-0.1886597-0.4608841-0.5112152-0.5520477-0.8436279
		c-0.1371078-0.4859924-0.1158905-1.0076294,0.0509491-1.4842224c0.2245941,0.5267181,0.552063,1.0058899,0.9579163,1.4114227
		c0.2434921,0.2433624,0.5506973,0.4759216,0.900589,0.4766235c0.2710876,0.0057831,0.5263062-0.1308289,0.7922745-0.2037506
		c0.793129-0.2290192,1.7118912,0.1517792,2.1083527,0.8612671c0.0274506-0.3997803-0.1915054-0.7792206-0.4559402-1.0815277
		c-0.26931-0.3125916-0.5777283-0.5883026-0.7749634-0.9341583c-0.3338852-0.6010818-0.2739334-1.3902817,0.1457138-1.9275513
		c0.157074,0.8263321,0.6877213,1.5425644,1.3326569,2.0873108c0.6374054,0.5419922,1.3986053,0.933136,2.1448364,1.3187714
		c0.2521515,0.1269226,0.5549927,0.2554779,0.795166,0.113266c0.1757202-0.1061249,0.2559814-0.3242188,0.2800064-0.5288696
		c0.0596237-0.5330963-0.1566544-1.0823975-0.5016098-1.4911194c-0.3523712-0.4114914-0.8278503-0.6974945-1.3261642-0.8979721
		c1.2634583,0.3027115,2.3957138,1.0780869,3.1310425,2.1428604c0.3397598,0.4922333,0.5917053,1.0375214,0.9266891,1.5194855
		c0.3936768,0.5547638,0.8909073,1.0366058,1.1966705,1.6444397c0.0977936,0.1982422,0.1647873,0.4107971,0.1961365,0.6272736
		C108.7429047,133.4467621,108.6595688,133.9284515,108.335144,134.2531281z"/>
	<path class="st100" d="M93.6516266,92.4490738c0.5024414,0.4036331,1.11483,0.6443939,1.7285538,0.8411331
		c3.4419708,1.1033554,7.2674789,0.96595,10.6214218-0.3815002"/>
	<path class="st100" d="M114.8263779,105.2712021c0.3264923-0.7335281,0.1501389-1.6246719-0.3103561-2.282402
		c-0.4604874-0.6577301-1.1677475-1.1071091-1.9098816-1.4135513c-0.4994049-0.2062225-1.0225906-0.3558578-1.5066376-0.595932
		c-1.5267487-0.7572403-2.499588-2.343483-2.9595795-3.9844513c-0.2155533-0.7689514-0.3381577-1.5680466-0.6497192-2.3033676
		c-0.311554-0.7353134-0.8581619-1.4244919-1.6216888-1.6585541c1.1216125,0.5003662,2.4407349,0.5295105,3.6516724,0.3245544
		c0.6922379-0.1171722,1.3963013-0.3508301,2.0806198-0.1939011c0.3194351,0.0732498,0.6141815,0.2287979,0.8906631,0.4047623
		c0.5640335,0.3589859,1.0667038,0.8074036,1.6280518,1.1705704c1.058754,0.6849747,2.3209991,1.0509872,3.5819473,1.0386581"/>
	<path class="st15" d="M97.0763092,120.7063828c-0.1683578,0.9215927-0.5130081,1.8191681-1.0739594,2.5724945
		c-0.5529251,0.7613525-1.3223495,1.3624115-2.2118988,1.6589279c-0.5129166,0.1763382-1.0658417,0.2324371-1.6108475,0.2404099
		c-0.1923294-0.4007034-0.3124619-0.8414688-0.3846588-1.2661896c-0.1522217-0.9296646-0.2965164-2.035614-1.121994-2.4844055
		c-0.6731567-0.3606415-1.6107483-0.1522675-2.1637726-0.6811752c-0.3687134-0.3446045-0.4808273-1.0498505-0.9777908-1.2582245
		c-0.4087296-0.1683121-0.7452621,0.0080261-1.0737686,0.2164001c-0.4247665-0.0240707-0.7613983-0.3686676-1.0418701-0.6892548
		c-0.1443024-0.1682587-0.2966156-0.3445969-0.3446503-0.5529709c-0.0480347-0.2163467,0.0160446-0.4327469,0.0881424-0.6330948
		c0.2163925-0.6651917,0.5209351-1.2982864,0.7132645-1.971489c0.1844101-0.6731567,0.2564087-1.4024734,0.0240707-2.0595856
		c0.9696732,0.8334503,1.5226974,2.1237106,1.4825897,3.3979721c0.0240631-0.104187,0.0641708-0.208374,0.1362762-0.2965164
		c0.2644272-0.3205872,0.7612991-0.3045425,1.1380386-0.1362762c0.3766327,0.1602936,0.6971207,0.4408188,1.0817871,0.5770416
		c0.5610428,0.1923294,1.2181549,0.0561066,1.6830368-0.3045425c0.4728088-0.36866,0.7532806-0.9456558,0.8254776-1.5307159
		c0.2244186,1.1380386-0.0240631,2.3641663-0.6893005,3.3178482c0.6171036-0.8975754,1.8352661-1.3383408,2.8931808-1.0337982
		c-0.8495407,0.4888458-1.5307236,1.2742157-1.8914185,2.1878357c-0.0560532,0.144249-0.1040878,0.2884903-0.0801163,0.4407654
		c0.0240631,0.1843567,0.1603394,0.3286057,0.2965164,0.4487839c0.5850143,0.5209351,1.3944473,0.7613525,2.1717911,0.7132721
		C95.7218781,121.5237885,96.4752502,121.2032547,97.0763092,120.7063828z"/>
	<path class="st15" d="M108.335144,134.2531281c-0.5230484,0.5162659-1.3895111,0.4108887-2.076622,0.1665802
		c-0.6298447-0.2146912-1.3538208-0.4982147-1.9050217-0.1374207c-0.4475403,0.2878723-0.632103,0.9287415-1.1442108,1.0903931
		c-0.3379517,0.1062164-0.7968063-0.0626526-1.0983047,0.1764984c-0.4003067,0.3223877-0.1552124,0.8395691-0.2314606,1.2555237
		c-0.1089478,0.5747833-0.5909424,0.7475128-1.1214371,0.6804047c-0.3003311-0.0422058-0.5822296-0.1118011-0.8604126-0.2141724
		c-0.0102997,0.0047607-0.0075302-0.0027771-0.0075302-0.0027771c-0.0423965-0.0241394-0.0820313-0.0558319-0.121582-0.0874176
		c-0.3958817-0.3164978-0.713913-0.7751312-0.7489471-1.2832794c-0.0134354-0.2184448,0.0236588-0.435379-0.0076904-0.6518555
		c-0.0714417-0.4789124-0.4479675-0.8480072-0.8055115-1.1760254c0.5376053,0.3259583,1.123497,0.5671539,1.7303009,0.7050934
		c0.2921066,0.0648041,0.5925293,0.1070404,0.8783112,0.0499573c0.29599-0.0618896,0.5678101-0.2436218,0.6702347-0.5219421
		c0.0739517-0.1777191,0.0624161-0.3783569,0.0836716-0.5754852c0.0260239-0.1868591,0.1035156-0.3974304,0.2736969-0.4885101
		c0.1674042-0.0835419,0.3684998-0.0266418,0.5560837-0.0259399c0.2355118,0.0098419,0.4891968-0.0761414,0.6418915-0.259079
		c0.2448959-0.2941132,0.1746826-0.7298889,0.0514221-1.091217c-0.1889572-0.5306549-0.4650269-1.0336304-0.819397-1.4629059
		c1.1205978,0.2501373,2.0660858,1.1616669,2.3664551,2.2713776c0.6508331-0.631546,0.9176254-1.6349487,0.6684265-2.5123291
		c0.3796234,0.430069,0.7565842,0.8676605,1.00177,1.3848572c0.1909256,0.3862305,0.3015518,0.8283234,0.6064224,1.1369171
		c0.4426193,0.4447021,1.1415634,0.4713287,1.7502213,0.302536
		C108.7429047,133.4467621,108.6595688,133.9284515,108.335144,134.2531281z"/>
	<polygon class="st24" points="48.3201332,45.5801659 47.9591064,48.534874 47.2845497,53.9691429 46.8760338,57.294323 
		45.9734726,64.6382065 44.90942,73.3312073 36.0549889,73.5022049 35.722435,73.5022049 34.9433861,73.521225 
		34.9244232,71.7065964 34.9244232,71.5166321 34.5918694,43.1290741 34.8863831,42.4830475 36.7864876,38.2742653 
		47.1040382,35.1581268 	"/>
	<path class="st37" d="M43.0028191,47.8494492l0.6157303-3.0093803c0.1143265-0.558773,0.9236794-0.5250206,0.9910812,0.0413322
		l1.3176804,11.0719566c0,0-6.7107162-1.2063217-6.7334595-1.2716751"/>
	<path class="st37" d="M46.8760338,57.294323l-0.9025612,7.3438835c-0.3039627-1.2540169-0.5795174-2.4036026-0.5795174-2.4036026
		l-4.9491043-1.369709c-0.7886734-0.2182732-1.413765-0.8200874-1.6617928-1.5999146l-0.7234764-2.2746811l3.6481667-1.4535484
		L46.8760338,57.294323z"/>
	<path class="st37" d="M39.826664,48.534874l-1.0640526,9.8709946l-1.5636826-3.1575813
		c-0.3716507-0.7504883-1.5031052-0.4742088-1.4870453,0.3631096l0.3431053,17.8908081H35.722435l-0.7790489,0.0190201
		l-0.0189629-1.8146286c0.0284729-0.066452,0.0189629-0.1329651,0-0.1899643l-0.3325539-28.387558l0.2945137-0.6460266
		c0.057003,0.0284691,0.1044922,0.066452,0.1425323,0.0949821C35.6844521,43.0815849,39.826664,48.534874,39.826664,48.534874z"/>
	<polygon class="st24" points="56.6615562,60.7905083 56.6615562,60.8000183 57.6306305,69.9110413 58.0106735,73.521225 
		57.8966713,73.5022049 52.6333466,73.093689 51.531311,58.4818878 50.5337677,45.2666931 52.8233681,35.8421364 
		60.1482887,40.6399422 60.0152702,41.3809547 60.6992798,41.9034691 59.910778,45.608696 56.6710663,60.7335052 	"/>
	<path class="st25" d="M56.6615562,60.8000183l0.9690742,9.1110229l-3.4961853,1.66259l-2.8216248-23.8938293
		c0,0,5.1777344-1.2065849,8.5979576-2.071106l-3.2397118,15.1248093l-0.00951,0.057003V60.8000183z"/>
	<g>
		<polyline class="st92" points="67.1198654,64.1819077 72.0563278,62.7658081 76.8107605,66.0089493 		"/>
		
			<rect x="66.6077347" y="63.2102509" transform="matrix(0.9370218 0.3492709 -0.3492709 0.9370218 26.5600967 -19.3724155)" class="st47" width="0.7821181" height="1.5067276"/>
		
			<rect x="64.3900604" y="63.024128" transform="matrix(0.9370218 0.3492709 -0.3492709 0.9370218 26.8993092 -18.5936832)" class="st34" width="1.2378958" height="4.5389514"/>
		
			<rect x="64.5215988" y="62.2584267" transform="matrix(0.9370218 0.3492709 -0.3492709 0.9370218 26.2860928 -18.9572639)" class="st54" width="2.377996" height="2.3059356"/>
		
			<rect x="62.8055382" y="65.4308319" transform="matrix(0.9370218 0.3492709 -0.3492709 0.9370218 27.3761368 -18.3109665)" class="st20" width="3.3158631" height="2.6526904"/>
		<path class="st21" d="M67.4764328,73.4533768l-7.657856,20.5444412c-0.5862274,1.572731-2.3359718,2.3681641-3.9037819,1.7837677
			l-3.9911499-1.4876785c-1.5678673-0.5844193-2.3651047-2.3292313-1.7788773-3.9019623l7.6578522-20.5444336
			c0.9954758-2.6706619,3.9691429-4.0294266,6.6398315-3.0339432c1.3353729,0.497757,2.3461075,1.4884644,2.8884125,2.6932678
			C67.8867569,70.7054291,67.9741745,72.1180344,67.4764328,73.4533768z"/>
		<path class="st20" d="M64.3142242,66.7748566c-2.2325974-0.1805115-4.3987427,1.1305084-5.2252846,3.3346329
			l-7.6574173,20.5401154c-0.5890274,1.5771179,0.2089844,3.3251877,1.7765923,3.9047623l3.7717361,1.4155655
			c-0.3515701,0-0.7125359-0.0569992-1.0641098-0.1900177l-3.9901733-1.4820786
			c-1.5676079-0.5890274-2.3656197-2.3371506-1.7765923-3.9047012l7.6574173-20.5496292
			C58.7754059,67.2118454,61.673111,65.8532791,64.3142242,66.7748566z"/>
		<path class="st47" d="M67.8890839,63.0325584l-9.8004761-1.55159l-0.587822,0.3919258l-1.2532654-0.2914429
			c0,0,0.4283028-1.7531548,3.8326874-1.2603035c3.4043846,0.4928551,5.1846619,0.897583,5.1846619,0.897583l-2.0592499-2.9715424
			l-4.3367348-2.7667961c-0.4611893-0.294239-0.4853172-0.9589996-0.0466652-1.2858925l0,0
			c0.2618752-0.1951599,0.6174736-0.206955,0.8917084-0.0295792l4.7104111,3.0466957l3.5439377,3.8427391
			c0.3602829,0.3906555,0.438942,0.9644432,0.1970901,1.437645L67.8890839,63.0325584z"/>
		<polygon class="st47" points="78.2473907,68.6358032 73.6396637,64.5588455 74.235199,63.6825562 79.7220459,66.4659424 		"/>
	</g>
	<path class="st0" d="M65.6058273,57.2959023c0.4112854,0.1364861,0.6443558,0.5812035,0.5031967,1.0019341l-0.0894623,0.294529
		c-0.1316986,0.4019051-0.5531235,0.6349602-0.955162,0.5265579l-0.7059937-0.1789627l0.130867,0.0890388
		c0.3223267,0.1970901,0.4432526,0.5854683,0.3255844,0.9361267l-0.0847244,0.2617683
		c-0.1409912,0.3972321-0.567131,0.6163483-0.9691658,0.507946l-0.916214-0.2730064l0.3270302,0.1877365
		c0.3364296,0.1690254,0.4993706,0.590229,0.3723602,0.9594841c-0.0705338,0.187027-0.2064362,0.3410683-0.3656693,0.4249496
		c-0.140419,0.0699005-0.3042068,0.1163445-0.4538574,0.0880241l-0.5097504-0.0337868l-0.4502869,0.6633339
		c-0.1830482,0.2943802-0.5340729,0.4106369-0.8753395,0.3210526l-1.2854538-0.4233665l-1.7346115-0.344841l-0.3179588-0.066021
		l-3.1653366-0.6423035l-1.4545135-0.0402336l-1.1739426-0.0397186l2.4133759-4.8035583l1.931118,0.3264046l0.1871948-0.0463982
		l3.9215088-0.9793777c0.1918488-0.0323486,0.355648-0.0554962,0.556694-0.0596504
		c0.4116173-0.0039444,0.8184433,0.0482864,1.2111359,0.1752815l0.261795,0.0846672L65.6058273,57.2959023z"/>
	<path class="st1" d="M56.2891121,56.9925919l1.262104,5.2458076l-3.1653366-0.6423035l-1.4545135-0.0402336
		c-0.1629257-0.3979034-0.3585434-0.8706703-0.530735-1.3199539c-0.2373466-0.6226082-0.4326668-1.1889572-0.4370079-1.3667336
		l1.4371834-0.6240044L56.2891121,56.9925919z"/>
	<line class="st4" x1="64.3513031" y1="58.9451408" x2="61.2946396" y2="57.870121"/>
	<line class="st4" x1="63.014473" y1="60.5186577" x2="61.0088882" y2="59.5110245"/>
	<line class="st4" x1="62.2221794" y1="62.0839348" x2="60.891571" y2="61.6273308"/>
	<path class="st24" d="M55.8730583,56.8192978l-0.3800468,5.6053276L39.826664,59.8974571
		c-0.6080475-0.4845352-1.0165596-1.1495247-1.1970749-1.9001045l-4.1422119-15.0203171
		c-0.1710014-1.3775902,0.2659836-2.6791534,1.0925827-3.6766968c0.0284729-0.0284729,0.066452-0.0949821,0.1044922-0.1424751
		c0.2280045-0.2565308,0.4845352-0.4940453,0.7600327-0.6935768c0.2945137-0.2089844,0.6080437-0.2754936,0.9595604-0.3610229
		c0.427536-0.0949821,0.855011-0.1899643,1.282547-0.1805115c0.8930511,0.0190163,1.710083,0.4750252,2.3941498,1.0355797
		c0.1424713,0.1140022,0.2850037,0.2375145,0.4085159,0.380043c0.1519814,0.1899643,0.2565308,0.418026,0.3515129,0.6365204
		c0.2754936,0.6270103,0.5605545,1.273037,0.7125397,1.9380836c0.1044922,0.7030296,0.4085159,1.3870964,0.4845352,2.090126
		c0.0569992,0.6270103,0.2565308,1.2445679,0.3990059,1.8526154c0.2755508,1.2065239,0.5130653,2.4131088,0.7220497,3.6292038
		c0.00951,0.0569992,0.0190201,0.1235123,0.0285263,0.1805115c0.2280045,1.33004,0.3990059,2.6696434,0.5890312,4.0091934
		l0.2089806,1.0450897l0.1900215,0.1424751l10.1180763,1.8526115L55.8730583,56.8192978z"/>
	<path class="st25" d="M55.2935371,56.7148056l-0.807579,4.5032387L40.5582237,58.58638c0,0-2.6031342-7.4199028-2.6031342-7.533905
		c0.0284729-0.00951,4.4556885-1.1210556,6.2038116-1.5675507c0.00951,0.0569992,0.0190201,0.1235123,0.0285263,0.1805115
		c0.2280045,1.33004,0.3990059,2.6696434,0.5890312,4.0091934l0.2089806,1.0450897l0.1900215,0.1424751L55.2935371,56.7148056z"/>
	<path class="st0" d="M64.0819473,77.9295959l1.3785629,0.9254074c-0.0156174,0.0294952-0.4835052,1.2219162-0.6961365,1.8584976
		c0,0,3.935936-1.5120087,4.4303818-3.159317l0.7262039-2.4831314c0.20047-0.7288513,0.1077194-1.1105652-0.146286-1.3771515
		l-2.5361786-2.6616898c-0.2082214-0.224205-0.5308838-0.2794724-0.8031769-0.1769943
		c-0.0880356,0.0400391-0.1720886,0.0888824-0.253006,0.1681671c-0.2386017,0.2465897-0.278656,0.6261673-0.0944748,0.9144135
		L67.2304153,74.0541l-0.270607,0.6438293l-1.949791-0.0809479c-0.2802277-0.0320206-0.5340805,0.1577377-0.6005325,0.4323807
		l-0.5317421,2.3141022C63.8353424,77.574028,63.9138031,77.7934265,64.0819473,77.9295959z"/>
	
		<rect x="56.2124062" y="77.6130981" transform="matrix(0.9370218 0.3492709 -0.3492709 0.9370218 31.1345558 -16.0825653)" class="st6" width="7.9020534" height="1.3603796"/>
	
		<rect x="55.2169456" y="80.0986023" transform="matrix(0.9370218 0.3492709 -0.3492709 0.9370218 31.9399776 -15.5783482)" class="st20" width="7.9020534" height="1.3603796"/>
	
		<rect x="53.7696266" y="82.1665878" transform="matrix(0.9370218 0.3492709 -0.3492709 0.9370218 33.2696495 -14.8166485)" class="st34" width="7.9020534" height="5.3603439"/>
	<path class="st25" d="M47.9591064,48.534874l-0.6745567,5.434269l-1.5010414-0.1140022
		c0,0-0.5510445-4.2657242-0.5985374-4.4177666C45.1849709,49.3044128,47.1420784,48.7628746,47.9591064,48.534874z"/>
	<path class="st31" d="M94.31707,83.2872162c1.1868286,0.8526459,2.0391159,2.158783,2.3415909,3.5884933"/>
	<path class="st31" d="M99.3610916,81.958931c0.0272369,0.9730148,0.1116714,1.9444275,0.252739,2.9075546"/>
	<path class="st31" d="M109.307991,85.4347992c-0.4857788,0.5755386-1.0502319,1.0845795-1.6727219,1.5085144"/>
	<path class="st5" d="M56.4288063,19.1581993c0.2945137,0.0760212,0.4845352,0.1520405,0.7315598,0.3325539
		c0.1424713,0.1044903,0.2945137,0.2184925,0.4179649,0.3515148c0.0380402,0.0474892,0.0760193,0.1044903,0.1140594,0.1614914
		c0.2089844,0.3515148,0.2375145,0.8170319,0.1329651,1.225605c-0.047493,0.2184925-0.1329651,0.4274769-0.2375145,0.6365185
		c-0.8360481-0.456007-1.4535484-1.3015671-1.6815529-2.2421093c-0.2755508-1.1400738,0-2.3751297,0.6175003-3.3727303
		c-1.5105515,0.798069-3.5246544,0.4560642-4.7027702-0.7695398c-0.1140022-0.1235113-0.2280006-0.2659845-0.3134727-0.418025
		c0.7695389-0.0474911,1.5200577-0.3324957,2.2611275-0.5320272c0.9120102-0.2375126,1.8810844-0.3799858,2.7931557-0.1140013
		c0.9025002,0.2660418,1.7100792,1.0165625,1.8050613,1.9475937c0.047493,0.5130653-0.1140022,1.0260735-0.3799858,1.4631176
		C57.6258812,18.4266987,57.0748329,18.9017258,56.4288063,19.1581993z"/>
	<path class="st5" d="M45.9307442,18.6642113c-0.00951,1.4155693-0.4940453,2.8121166-1.3491173,3.9332294
		c-0.3610229,0.465517-0.7980118,0.8929939-1.3395462,1.1020355c-0.1995316-0.5130081-0.3610229-1.0355835-0.4465561-1.6151009
		c-0.1899643-1.292057-0.1140022-2.6031322,0.0285301-3.8951893c0.0665092-0.6650486,0.2280045-1.4345875,0.8265419-1.7481213
		c0.4085159-0.2089844,0.8930511-0.1424732,1.3395462-0.0760212C45.7026825,16.8495808,45.9307442,17.799633,45.9307442,18.6642113z
		"/>
	<line class="st39" x1="44.9854393" y1="54.7197189" x2="43.7952194" y2="55.7443008"/>
	<g>
		<path class="st34" d="M128.5015106,132.1841736c0,0,7.519577-6.8606949,8.1591034-11.1357269
			c0,0-6.4627838-11.5192642-21.4170456-11.1822128l-6.2202835,12.9512863
			C109.0232849,122.8175201,120.9973984,120.3135376,128.5015106,132.1841736z"/>
		<path class="st67" d="M128.5015106,132.1841736c0,0,7.519577-6.8606949,8.1591034-11.1357269
			c0,0-6.4627838-11.5192642-21.4170456-11.1822128l-6.2202835,12.9512863
			C109.0232849,122.8175201,120.9973984,120.3135376,128.5015106,132.1841736z"/>
		<path class="st68" d="M134.4571075,123.2823181c-1.5138092,2.6266632-4.2536469,5.5028229-5.7498932,6.981308
			c-5.7949448-8.0802307-13.7352676-8.9838257-17.6151581-8.8801422l4.9370575-10.2801666
			c12.0353241,0.0690842,18.0924988,8.3060532,19.3137512,10.1787033c-0.1522369,0.5718536-0.4489288,1.2423401-0.8856049,2.0000305
			C134.4572601,123.2820511,134.4572601,123.2820511,134.4571075,123.2823181z"/>
		
			<ellipse transform="matrix(0.4667342 -0.8843976 0.8843976 0.4667342 -39.1869202 173.3087769)" class="st25" cx="124.1189957" cy="119.1492691" rx="3.189595" ry="3.4498045"/>
		
			<ellipse transform="matrix(0.8885436 -0.4587922 0.4587922 0.8885436 -42.0441208 73.2789688)" class="st25" cx="129.7984314" cy="123.1733856" rx="1.357698" ry="1.5565802"/>
		
			<ellipse transform="matrix(0.0067224 -0.9999774 0.9999774 0.0067224 -0.0913355 232.9944)" class="st25" cx="117.2373199" cy="116.5431747" rx="1.3498926" ry="1.6503932"/>
		<text transform="matrix(-0.87799 -0.47868 0.47868 -0.87799 126.3659744 118.2704926)" class="st110 st111 st114">$</text>
		<path class="st68" d="M133.0661621,122.6808167c0,0-0.797348-1.7144089-3.4759979-3.5218124"/>
		<path class="st68" d="M134.095108,121.5663986c0,0-0.797348-1.7144089-3.4759979-3.5218124"/>
	</g>
</g>
</svg>
