<?xml version="1.0" encoding="utf-8"?>
<!-- Generator: Adobe Illustrator 22.0.1, SVG Export Plug-In . SVG Version: 6.00 Build 0)  -->
<svg version="1.1" id="Layer_1" xmlns="http://www.w3.org/2000/svg" xmlns:xlink="http://www.w3.org/1999/xlink" x="0px" y="0px"
	 viewBox="0 0 156 156" style="enable-background:new 0 0 156 156;" xml:space="preserve">
<style type="text/css">
	.st0{fill:#FFD9B2;}
	.st1{fill:#F7AC76;}
	.st2{fill:none;stroke:#3643C3;stroke-width:0.5;stroke-linecap:round;stroke-linejoin:round;stroke-miterlimit:10;}
	.st3{fill:#233764;}
	.st4{fill:none;stroke:#F7AC76;stroke-width:0.5;stroke-linecap:round;stroke-linejoin:round;stroke-miterlimit:10;}
	.st5{fill:#161718;}
	.st6{fill:#FFFFFF;}
	.st7{fill:#F06449;}
	.st8{fill:#BE412D;}
	.st9{fill:#FE8E60;}
	.st10{fill:#7D4C47;}
	.st11{fill:#4456D6;}
	.st12{fill:#203881;}
	.st13{fill:#6582FC;}
	.st14{fill:#DDA103;}
	.st15{fill:#FBC32E;}
	.st16{fill:none;stroke:#DDA103;stroke-width:0.5;stroke-miterlimit:10;}
	.st17{fill:#FBE6BB;}
	.st18{fill:none;stroke:#BE412D;stroke-width:0.5;stroke-linecap:round;stroke-linejoin:round;stroke-miterlimit:10;}
	.st19{fill:none;stroke:#F06449;stroke-width:0.5;stroke-linecap:round;stroke-linejoin:round;stroke-miterlimit:10;}
	.st20{fill:#F34B4B;}
	.st21{fill:#FC7070;}
	.st22{fill:none;stroke:#FFFFFF;stroke-miterlimit:10;}
	.st23{fill:#FC9F9F;}
	.st24{fill:#408A6F;}
	.st25{fill:#64B48D;}
	.st26{fill:none;stroke:#FBE6BB;stroke-width:0.5;stroke-linecap:round;stroke-linejoin:round;stroke-miterlimit:10;}
	.st27{fill:none;stroke:#F7AC76;stroke-width:0.25;stroke-linecap:round;stroke-linejoin:round;stroke-miterlimit:10;}
	.st28{fill:#A0665A;}
	.st29{fill:#6C3F44;}
	.st30{fill:none;stroke:#6C3F44;stroke-width:0.5;stroke-linecap:round;stroke-linejoin:round;stroke-miterlimit:10;}
	.st31{fill:none;stroke:#7D4C47;stroke-width:0.5;stroke-linecap:round;stroke-linejoin:round;stroke-miterlimit:10;}
	.st32{fill:none;stroke:#F34B4B;stroke-width:0.5;stroke-linecap:round;stroke-linejoin:round;stroke-miterlimit:10;}
	.st33{fill:none;stroke:#FC7070;stroke-width:0.5;stroke-linecap:round;stroke-linejoin:round;stroke-miterlimit:10;}
	.st34{fill:#EAE8F3;}
	.st35{fill:#40304A;}
	.st36{fill:none;stroke:#43334E;stroke-linecap:round;stroke-linejoin:round;stroke-miterlimit:10;}
	.st37{fill:#32775B;}
	.st38{fill:none;stroke:#233764;stroke-width:0.5;stroke-linecap:round;stroke-linejoin:round;stroke-miterlimit:10;}
	.st39{fill:none;stroke:#408A6F;stroke-width:0.5;stroke-linecap:round;stroke-linejoin:round;stroke-miterlimit:10;}
	.st40{fill:#3643C3;}
	.st41{opacity:0.56;fill:url(#SVGID_1_);}
	.st42{opacity:0.52;fill:#FBC32E;}
	.st43{opacity:0.56;fill:url(#SVGID_2_);}
	.st44{fill:none;stroke:#EAE8F3;stroke-width:0.5;stroke-linecap:round;stroke-linejoin:round;stroke-miterlimit:10;}
	.st45{fill:#FEFFFD;}
	.st46{opacity:0.35;fill:#32775B;}
	.st47{fill:#43334E;}
	.st48{fill:none;stroke:#EAE8F3;stroke-width:0.25;stroke-linecap:round;stroke-linejoin:round;stroke-miterlimit:10;}
	.st49{fill:none;stroke:#FBC32E;stroke-width:0.5;stroke-linecap:round;stroke-linejoin:round;stroke-miterlimit:10;}
	.st50{fill:none;stroke:#161718;stroke-width:0.5;stroke-linecap:round;stroke-linejoin:round;stroke-miterlimit:10;}
	.st51{fill:none;stroke:#40304A;stroke-linecap:round;stroke-linejoin:round;stroke-miterlimit:10;}
	.st52{opacity:0.33;fill:#FBC32E;}
	.st53{fill:#A6A3AE;}
	.st54{fill:#5B4B68;}
	.st55{fill:#776688;}
	.st56{fill:none;stroke:#FBC32E;stroke-width:0.5;stroke-miterlimit:10;}
	.st57{fill:none;stroke:#EAE8F3;stroke-linecap:round;stroke-linejoin:round;stroke-miterlimit:10;}
	.st58{fill:none;stroke:#203881;stroke-width:2;stroke-linecap:round;stroke-linejoin:round;stroke-miterlimit:10;}
	.st59{fill:none;stroke:#40304A;stroke-width:2;stroke-linecap:round;stroke-linejoin:round;stroke-miterlimit:10;}
	.st60{fill:#FFD8B7;}
	.st61{fill:#F4E4D4;}
	.st62{fill:none;stroke:#4456D6;stroke-width:0.5;stroke-linecap:round;stroke-linejoin:round;stroke-miterlimit:10;}
	.st63{fill:none;stroke:#DDA103;stroke-width:0.25;stroke-miterlimit:10;}
	.st64{fill:none;stroke:#FFFFFF;stroke-width:0.5;stroke-linecap:round;stroke-linejoin:round;stroke-miterlimit:10;}
	.st65{fill:none;stroke:#64B48D;stroke-width:0.5;stroke-linecap:round;stroke-linejoin:round;stroke-miterlimit:10;}
	.st66{fill:none;stroke:#64B48D;stroke-linecap:round;stroke-linejoin:round;stroke-miterlimit:10;}
	.st67{opacity:0.48;fill:#64B48D;}
	.st68{fill:none;stroke:#64B48D;stroke-width:0.25;stroke-linecap:round;stroke-linejoin:round;stroke-miterlimit:10;}
	.st69{fill:none;stroke:#F06449;stroke-width:2;stroke-linecap:round;stroke-linejoin:round;stroke-miterlimit:10;}
	.st70{opacity:0.92;fill:#64B48D;}
	.st71{opacity:0.57;fill:#408A6F;}
	.st72{opacity:0.36;fill:#408A6F;}
	.st73{fill:none;stroke:#BE412D;stroke-width:2;stroke-linecap:round;stroke-linejoin:round;stroke-miterlimit:10;}
	.st74{opacity:0.65;fill:none;stroke:#408A6F;stroke-width:0.25;stroke-linecap:round;stroke-linejoin:round;stroke-miterlimit:10;}
	.st75{opacity:0.67;fill:none;stroke:#64B48D;stroke-width:0.25;stroke-linecap:round;stroke-linejoin:round;stroke-miterlimit:10;}
	.st76{opacity:0.98;fill:#64B48D;}
	.st77{fill:none;stroke:#408A6F;stroke-width:0.25;stroke-linecap:round;stroke-linejoin:round;stroke-miterlimit:10;}
	.st78{fill:none;stroke:#FFD9B2;stroke-width:0.5;stroke-linecap:round;stroke-linejoin:round;}
	
		.st79{fill:none;stroke:#FFD9B2;stroke-width:0.5;stroke-linecap:round;stroke-linejoin:round;stroke-dasharray:4.0333505,4.0333505;}
	.st80{fill:#E68B4A;}
	.st81{opacity:0.62;fill:#64B48D;}
	.st82{fill:none;stroke:#FBC32E;stroke-width:0.25;stroke-miterlimit:10;}
	.st83{fill:none;stroke:#4456D6;stroke-linecap:round;stroke-linejoin:round;stroke-miterlimit:10;}
	.st84{fill:none;stroke:#E68B4A;stroke-width:0.5;stroke-linecap:round;stroke-linejoin:round;stroke-miterlimit:10;}
	.st85{fill:none;stroke:#203881;stroke-width:0.5;stroke-linecap:round;stroke-linejoin:round;stroke-miterlimit:10;}
	.st86{opacity:0.29;fill:#EAE8F3;}
	.st87{fill:none;stroke:#A6A3AE;stroke-width:0.5;stroke-linecap:round;stroke-linejoin:round;stroke-miterlimit:10;}
	.st88{opacity:0.74;fill:#FFFFFF;}
	.st89{opacity:0.19;fill:#FFFFFF;}
	.st90{fill:none;stroke:#40304A;stroke-width:0.25;stroke-linecap:round;stroke-linejoin:round;stroke-miterlimit:10;}
	.st91{fill:none;stroke:#F34B4B;stroke-width:2;stroke-linecap:round;stroke-linejoin:round;stroke-miterlimit:10;}
	.st92{fill:none;stroke:#43334E;stroke-width:0.5;stroke-linecap:round;stroke-linejoin:round;stroke-miterlimit:10;}
	.st93{fill:none;stroke:#6582FC;stroke-miterlimit:10;}
	.st94{opacity:0.47;fill:#A6A3AE;}
	.st95{opacity:0.43;fill:#FFFFFF;}
	.st96{fill:none;stroke:#FBE6BB;stroke-linecap:round;stroke-linejoin:round;stroke-miterlimit:10;}
	.st97{fill:none;stroke:#5B4B68;stroke-width:0.5;stroke-linecap:round;stroke-linejoin:round;stroke-miterlimit:10;}
	.st98{fill:none;stroke:#40304A;stroke-width:0.5;stroke-linecap:round;stroke-linejoin:round;stroke-miterlimit:10;}
	.st99{fill:none;stroke:#DDA103;stroke-linecap:round;stroke-linejoin:round;stroke-miterlimit:10;}
	.st100{fill:none;stroke:#FBC32E;stroke-linecap:round;stroke-linejoin:round;stroke-miterlimit:10;}
	.st101{fill:none;stroke:#32775B;stroke-width:0.5;stroke-linecap:round;stroke-linejoin:round;stroke-miterlimit:10;}
	.st102{opacity:0.4;fill:#FBE6BB;}
	.st103{fill:none;stroke:#FBC32E;stroke-width:0.25;stroke-linecap:round;stroke-linejoin:round;stroke-miterlimit:10;}
	.st104{fill:none;stroke:#4456D6;stroke-miterlimit:10;}
	.st105{opacity:0.61;fill:#64B48D;}
	.st106{opacity:0.9;fill:#64B48D;}
	.st107{opacity:0.76;fill:#64B48D;}
	.st108{fill:none;stroke:#5B4B68;stroke-width:0.5;stroke-miterlimit:10;}
	.st109{opacity:0.66;fill:#A6A3AE;}
	.st110{fill:none;stroke:#43334E;stroke-miterlimit:10;}
	.st111{opacity:0.52;fill:#6582FC;}
	.st112{fill:none;stroke:#DDA103;stroke-width:0.5;stroke-linecap:round;stroke-linejoin:round;stroke-miterlimit:10;}
	.st113{fill:#46724E;}
	.st114{fill:#FE8B2E;}
	.st115{fill:none;stroke:#7D4C47;stroke-width:2;stroke-linecap:round;stroke-linejoin:round;stroke-miterlimit:10;}
	.st116{opacity:0.4;fill:#EAE8F3;}
	.st117{fill:none;stroke:#EAE8F3;stroke-width:0.5;stroke-linecap:round;stroke-miterlimit:10;}
	.st118{fill:none;stroke:#4456D6;stroke-width:0.25;stroke-linecap:round;stroke-linejoin:round;stroke-miterlimit:10;}
	.st119{opacity:0.5;fill:#EAE8F3;}
	.st120{opacity:0.46;fill:#A6A3AE;}
	.st121{fill:#E0916E;}
	.st122{fill:none;stroke:#A0665A;stroke-linecap:round;stroke-linejoin:round;stroke-miterlimit:10;}
	.st123{opacity:0.46;fill:#BE412D;}
	.st124{fill:none;stroke:#203881;stroke-linecap:round;stroke-linejoin:round;stroke-miterlimit:10;}
	.st125{fill:#DBDBE1;}
	.st126{fill:none;stroke:#6582FC;stroke-width:0.5;stroke-linecap:round;stroke-linejoin:round;stroke-miterlimit:10;}
	.st127{opacity:0.53;fill:#A6A3AE;}
	.st128{fill:none;stroke:#DDA103;stroke-miterlimit:10;}
	.st129{opacity:0.2;fill:#FFFFFF;}
	.st130{fill:#B4A1BF;}
	.st131{opacity:0.5;fill:#6582FC;}
	.st132{opacity:0.6;fill:none;stroke:#FFFFFF;stroke-linecap:round;stroke-linejoin:round;stroke-miterlimit:10;}
	.st133{opacity:0.6;fill:none;stroke:#FFFFFF;stroke-width:2;stroke-linecap:round;stroke-linejoin:round;stroke-miterlimit:10;}
	.st134{opacity:0.54;fill:#A6A3AE;}
	.st135{fill:#161718;stroke:#000000;stroke-width:0.25;stroke-miterlimit:10;}
</style>
<g id="_x32_3">
	<g>
		<rect x="76.9276199" y="111.7387238" class="st34" width="1.4011831" height="16.2948685"/>
		<rect x="65.5357513" y="111.7387238" class="st34" width="1.4011831" height="16.2948685"/>
		<path class="st14" d="M40.9096451,89.9333878c-0.2212029,0.1369705-0.3088951,0.3987503-0.2743454,0.6364441
			c0.0345497,0.2376862,0.1727104,0.4551544,0.329422,0.6525269c0.6564407,0.8267593,1.6765671,1.4012451,2.769886,1.6982346
			s2.2580452,0.3317795,3.3906326,0.2278671c1.151989-0.10569,2.2965736-0.3567123,3.3089714-0.8427734
			c1.0123978-0.4860687,1.8880768-1.2189331,2.3776627-2.1374969c0.7285347-1.3668823,0.5405846-2.9930267,0.0181274-4.4444733"/>
		<path class="st93" d="M70.5308838,84.8033524c-1.3429642-0.2859116-2.7404785-0.4287796-4.0874405-0.1623154
			s-2.6454659,0.981636-3.4002113,2.1286621c-0.7439041,1.1305542-0.8947945,2.5607071-0.7631226,3.9076385
			c0.1316719,1.3469238,0.5207901,2.6537094,0.7745514,3.9830551c0.2089272,1.0944519,0.3262024,2.206398,0.3501968,3.3203583
			c0.0477715,2.2177429-0.289093,4.4820633-1.297081,6.4580688c-0.5087776,0.9973831-1.1963539,1.9101944-2.0334702,2.655426
			c-0.8241806,0.7337265-1.951088,0.9802933-2.7514839,1.6441498c-1.5693016,1.30159-1.7785683,4.2453613-1.6309929,6.0881805
			c0.1801453,2.249527,0.8746567,4.4280777,1.1499786,6.6679535c0.2753258,2.2398834,0.0678978,4.6869812-1.3358917,6.4539642
			c-3.7119102,4.6722946-8.6407433-0.7778397-9.8076859-4.6018066c-0.4522362-1.4819412-0.6521111-3.0346222-0.6682396-4.5839462
			c-0.0224571-2.1571503,0.3069611-4.3005295,0.6231003-6.4345169c1.6714439-11.2825089,2.9948196-22.6165848,3.9676094-33.9806747"
			/>
		<path class="st40" d="M49.7399254,88.5600662l-0.3802071,4.0854645c-0.0322952,0.3721619-0.3641129,0.6471939-0.7362251,0.6148529
			L47.677021,93.171402c-0.3721085-0.0323868-0.6472435-0.3640594-0.6148491-0.7362213l0.3802071-4.0854645
			c0.0323906-0.3721542,0.3640137-0.6471939,0.7361221-0.6148529l0.95467,0.0889816
			C49.5053825,87.8562393,49.7804146,88.1879044,49.7399254,88.5600662z"/>
		<path class="st15" d="M46.1159058,84.1312408c-0.2589111,0.2765274-5.4311447,5.9955139-5.4311447,5.9955139
			s3.5045242-2.0995789,9.7546577,0.6232681c6.2501297,2.7228546,7.1400871-1.9300842,7.1400871-1.9300842l-7.8000565-8.8223724"/>
		<path class="st15" d="M75.6358261,57.0885429c-0.1615601,2.3298874-0.6067505,4.667923-1.3023834,6.9493217
			C70.7659988,75.865509,60.5965614,86.1884155,49.3917694,85.4683914c-1.981823-0.1294174-3.8830643-0.5905609-5.6792297-1.3348312
			c-8.9231453-3.6971588-15.3224983-14.3112946-16.3823414-25.0144539
			c-0.1777592-1.7150879-0.2101517-3.4382706-0.0967808-5.1290627
			c0.9788647-14.3841248,12.6122551-25.3461285,25.9770279-24.4966831c3.0578613,0.1941528,5.9462624,0.9951096,8.5672302,2.2894974
			C70.5961456,36.1191101,76.3883438,45.9970741,75.6358261,57.0885429z"/>
		<path class="st17" d="M75.6358261,57.0885429c-0.1615601,2.3298874-0.6067505,4.667923-1.3023834,6.9493217l-30.620903,20.0956955
			c-8.9231453-3.6971588-15.3224983-14.3112946-16.3823414-25.0144539l34.4474792-27.3362484
			C70.5961456,36.1191101,76.3883438,45.9970741,75.6358261,57.0885429z"/>
		<path class="st14" d="M73.4920502,66.4972229C69.3340454,77.257019,59.8120461,86.1398773,49.3917694,85.4683914
			c-1.981823-0.1294174-3.8830643-0.5905609-5.6792297-1.3348312c-0.1939545-0.080925-0.3883057-0.1618118-0.5822601-0.2507858
			c-0.178154-0.0809326-0.3559151-0.1618118-0.5257759-0.2507935c-0.3480148-0.1699066-0.7039261-0.3559647-1.0436478-0.5501633
			c-0.1536636-0.0808792-0.3077202-0.1698608-0.4530869-0.2588425c-0.2105484-0.1294632-0.4127998-0.2507858-0.6229515-0.3883514
			c-0.2184448-0.1375198-0.4368935-0.2831345-0.6474419-0.4368439c-0.0967789-0.0647354-0.1939545-0.1375198-0.2911301-0.2022552
			c-0.4447937-0.323616-0.8737869-0.6552887-1.3023872-1.0112534c-1.4402466-1.2054062-2.7750282-2.5969238-3.988533-4.1420975
			c-0.1860542-0.2507935-0.3800125-0.5015793-0.5660667-0.7604675c-0.1457634-0.1941528-0.2915268-0.3964081-0.4289932-0.5986557
			c-0.4447937-0.6391449-0.8737869-1.302536-1.2782917-1.9820709c-0.1453667-0.2507935-0.2911301-0.5015793-0.4285984-0.7523727
			c-0.1619587-0.299324-0.3235226-0.5906067-0.4771862-0.8899307c-0.1457634-0.2831345-0.2915249-0.5743637-0.4368935-0.8656387
			c-0.3156223-0.6471939-0.6067543-1.310585-0.8899841-1.9901199c-0.1050758-0.2669907-0.2101517-0.5339737-0.3156223-0.8090057
			c-0.1291714-0.3397675-0.2508392-0.6876831-0.3800106-1.035553l-0.2915268-0.8979797
			c-0.1050758-0.3236237-0.2022514-0.6471939-0.2911301-0.9708176c0-0.0080948-0.0079002-0.0161438-0.0079002-0.0242462
			c-0.0892754-0.323616-0.1781559-0.6391449-0.2591343-0.9627151c-0.0726852-0.2993279-0.1453686-0.6067543-0.2184486-0.9141808
			c-0.0726833-0.3559608-0.1536617-0.7119255-0.2184467-1.0678902c-0.0647831-0.3316689-0.1212711-0.6633911-0.1777592-0.99506
			c-0.0568829-0.3317184-0.1050758-0.6714859-0.1457634-1.0031586c-0.0402927-0.3317184-0.0809784-0.6714859-0.1133709-1.0032043
			c-0.1777592-1.7150879-0.2101517-3.4382706-0.0967808-5.1290627c0.291132-4.2958145,1.5370293-8.2841988,3.4947586-11.7467613
			c-0.8816891,2.4108162-1.4481506,4.9996414-1.6342049,7.7098351c-0.1698608,2.4512596-0.0240974,4.9672508,0.404501,7.4428024
			c1.876749,11.0024948,9.2387676,21.3900833,18.9630184,23.6229477c0.9061813,0.2103424,1.8364563,0.3478622,2.7829285,0.4044952
			C60.329525,82.0058746,68.7272949,75.3396835,73.4920502,66.4972229z"/>
		<path class="st15" d="M48.4614906,81.0188675l-4.748951,3.1146927c-0.1939545-0.080925-0.3883057-0.1618118-0.5822601-0.2507858
			c-0.178154-0.0809326-0.3559151-0.1618118-0.5257759-0.2507935c-0.3480148-0.1699066-0.7039261-0.3559647-1.0436478-0.5501633
			c-0.1536636-0.0808792-0.3077202-0.1698608-0.4530869-0.2588425c-0.2105484-0.1294632-0.4127998-0.2507858-0.6229515-0.3883514
			c-0.2184448-0.1375198-0.4368935-0.2831345-0.6474419-0.4368439c-0.0967789-0.0647354-0.1939545-0.1375198-0.2911301-0.2022552
			c-0.4447937-0.323616-0.8737869-0.6552887-1.3023872-1.0112534c-1.4402466-1.2054062-2.7750282-2.5969238-3.988533-4.1420975
			c-0.1860542-0.2507935-0.3800125-0.5015793-0.5660667-0.7604675c-0.1457634-0.1941528-0.2915268-0.3964081-0.4289932-0.5986557
			c-0.4447937-0.6391449-0.8737869-1.302536-1.2782917-1.9820709c-0.1453667-0.2507935-0.2911301-0.5015793-0.4285984-0.7523727
			c-0.1619587-0.299324-0.3235226-0.5906067-0.4771862-0.8899307c-0.1457634-0.2831345-0.2915249-0.5743637-0.4368935-0.8656387
			c-0.3156223-0.6471939-0.6067543-1.310585-0.8899841-1.9901199c-0.1050758-0.2669907-0.2101517-0.5339737-0.3156223-0.8090057
			c-0.1291714-0.3397675-0.2508392-0.6876831-0.3800106-1.035553l-0.2915268-0.8979797
			c-0.1050758-0.3236237-0.2022514-0.6471939-0.2911301-0.9708176c0-0.0080948-0.0079002-0.0161438-0.0079002-0.0242462
			c-0.0892754-0.323616-0.1781559-0.6391449-0.2591343-0.9627151c-0.0726852-0.2993279-0.1453686-0.6067543-0.2184486-0.9141808
			c-0.0726833-0.3559608-0.1536617-0.7119255-0.2184467-1.0678902c-0.0647831-0.3316689-0.1212711-0.6633911-0.1777592-0.99506
			c-0.0568829-0.3317184-0.1050758-0.6714859-0.1457634-1.0031586c-0.0402927-0.3317184-0.0809784-0.6714859-0.1133709-1.0032043
			l2.1682739-1.7231865C31.3752213,68.3984146,38.7372398,78.7860031,48.4614906,81.0188675z"/>
		<path class="st14" d="M58.9042091,60.0785751c0.3907204,2.4782104-1.2049446,5.0167618-4.7884254,5.961441l0.5144806,3.2631683
			l-2.25457,0.2498016l-0.5003319-3.173439c-2.0687866,0.1949539-4.297081-0.128624-5.6691589-0.7751999l0.5210953-2.2027092
			l1.2355042-0.1368942c0,0,0.0983543,0.3769836,0.1481552,0.6110878c1.1898651,0.3131485,2.5623436,0.4690857,3.9634438,0.3138428
			c2.5347557-0.2808456,4.0383148-1.7594757,3.7554359-3.5536804c-0.2722626-1.7268562-1.8286476-2.6383171-4.6138268-3.2880745
			c-3.8281784-0.8536911-6.3108215-2.0504723-6.7404327-4.7753487c-0.4101677-2.6015434,1.3786392-4.8191605,4.590683-5.6542969
			l-0.4985657-3.16222l2.21632-0.2455635l0.4791222,3.038887c2.1377525-0.1684074,3.6803932,0.1626854,4.7969856,0.5865974
			l-0.2962456,1.1624146l0.967186,0.8740273l-1.2355042,0.1368942c-0.7989159-0.2994308-2.3715286-0.8211441-4.6515961-0.5685158
			c-2.7512741,0.3048363-3.5567207,1.8544464-3.3586998,3.110424c0.2581139,1.6371307,1.7118607,2.3089905,4.9838676,3.0873947
			C56.3461647,55.8553467,58.4639893,57.2864227,58.9042091,60.0785751z"/>
		<path class="st6" d="M53.6123848,69.412735l-0.4998512-3.170372c-2.072998,0.1977463-4.3014412-0.1302261-5.6731262-0.7767029
			l0.5241623-2.1979332c1.4023933,0.6111336,3.3505363,1.0021095,5.347271,0.7808723
			c2.5315781-0.2804985,4.0401573-1.7571106,3.7580643-3.5463333c-0.2721977-1.7264404-1.8310471-2.6396179-4.6180611-3.2889671
			c-3.8348732-0.8526268-6.308857-2.0476685-6.739418-4.7785835c-0.4107704-2.6053543,1.3811493-4.8160019,4.587265-5.6503067
			l-0.4998474-3.170372l2.2106705-0.2449417l0.4800529,3.0448151c2.1492577-0.1742592,3.6903381,0.1660004,4.8084946,0.5850601
			l-0.5647621,2.1704941c-0.8081665-0.2937164-2.3789406-0.8223152-4.660923-0.5694733
			c-2.7455139,0.3041992-3.5518837,1.8627014-3.3539238,3.1182938c0.2573471,1.6322708,1.7052956,2.3022308,4.9855309,3.0885582
			c3.8804283,0.9114571,5.9918861,2.338295,6.4323502,5.1319885c0.3909721,2.4797974-1.2038841,5.0199318-4.7923203,5.9604759
			l0.514698,3.2645416L53.6123848,69.412735z"/>
		<g>
			<path class="st15" d="M67.5302048,43.7424507l-4.4938278,7.4611053
				C63.036377,51.2035561,66.544281,49.667469,67.5302048,43.7424507z"/>
			<path class="st34" d="M104.0322113,38.7092094c-0.1455688,0.5501175-0.5743637,0.9869614-1.0193558,1.3591232
				c-0.7604141,0.6552887-1.634201,1.2054062-2.6049728,1.4480972c-0.9788589,0.2426949-2.0629959,0.1456184-2.8961945-0.4206467
				c1.0516434,1.132576,1.0193481,3.0580101,0.0160904,4.2391739c-1.0031509,1.173069-2.7910233,1.5451775-4.2310715,0.9708176
				c-1.4319611-0.5744133-2.2813492-1.7231827-2.5077972-3.2522163c-2.0145111,4.4090881-4.4091339,0.5663147-4.4091339,0.5663147
				l-21.6166763,5.3798523l1.5129318-2.4674568l19.1814651-10.929657c-0.1213684-0.7200279-0.186058-1.4723969,0.024292-2.1762276
				c0.2022552-0.7038269,0.7119293-1.3510208,1.4157562-1.5532722c0.6957321-0.2022514,1.5694275,0.1618118,1.7797775,0.8575439
				c-0.6957321-3.268362,1.2216034-6.8927364,4.3039551-8.170929c0.5662689-0.2265453,1.164917-0.3964539,1.7797699-0.3883553
				c1.5047379,0.0161953,2.8720093,1.1164303,3.446373,2.5079441c0.5743561,1.3914642,0.4287949,3.0013752-0.1374741,4.392889
				c0.6794434-1.1407242,2.5563889-1.2863388,3.3896866-0.2507896c0.8413925,1.0354996,0.3074265,2.8476639-0.9546738,3.2683601
				c1.1245346,0.0404396,1.9416351,1.0274506,2.5969772,1.9416313c0.0080948,0.0080986,0.0161972,0.0242462,0.024292,0.032341
				C103.6924896,36.8485069,104.2830505,37.7788353,104.0322113,38.7092094z"/>
		</g>
		<g>
			<path class="st14" d="M40.5705338,63.5447922l0.0577965-5.1911736
				C40.6283302,58.3536186,39.220726,60.2501831,40.5705338,63.5447922z"/>
			<path class="st34" d="M40.4525681,61.9033585l-7.450901,12.7984543c0.3155251,0.3802109,0.6067543,0.7928085,0.7281227,1.2701492
				c0.1131744,0.4772797,0.0403938,1.0273972-0.2994232,1.3833618c-0.3397217,0.3559647-0.9626694,0.4368973-1.326683,0.0971298
				c1.5047379,1.6665421,1.6180115,4.4090347,0.2588387,6.1969528c-0.2507401,0.323616-0.5420685,0.6148453-0.8979836,0.8171005
				c-0.8737869,0.5015793-2.0387058,0.3235703-2.839613-0.2912292c-0.8009071-0.6067581-1.2701931-1.5937653-1.4076595-2.588829
				c-0.0080986,0.8898849-1.0517464,1.6018143-1.8850441,1.286293c-0.7604179-0.2912292-1.0759411-1.3348312-0.6794376-2.0225143
				c0.04039-0.0727768,0.0807819-0.1375122,0.1374664-0.1941528c-0.6715355,0.3559647-1.4966373,0.0485382-2.1923695-0.266983
				c-0.5824604-0.2588348-1.2378006-0.5986557-1.4076614-1.2215576c-0.1052723-0.3721542,0-0.7685623,0.1293697-1.1326218
				c0.2184486-0.6390991,0.5420685-1.253952,1.0274525-1.7231827c0.4773846-0.4692383,1.1407242-0.7766647,1.8121624-0.7281265
				c-0.9869614-0.307373-1.6180096-1.4319077-1.4319534-2.4512558c0.1779575-1.0193558,1.1003323-1.8364563,2.1277847-1.9901733
				c1.0192547-0.1537094,1.901041,0.2265472,2.5482845,1.035553c-0.3155231-3.2279205,2.3703289-1.8121643,2.3703289-1.8121643
				l10.7193089-10.4038353L40.4525681,61.9033585z"/>
		</g>
		<g>
			<path class="st14" d="M38.9251404,46.2149811l3.6211548-2.4934921
				C42.5462952,43.721489,40.8576622,43.8078918,38.9251404,46.2149811z"/>
			<path class="st34" d="M41.4719238,44.2913132l-1.5857162,1.1326256L25.1785583,47.15522
				c-0.1132736,0.4772835-0.2669373,0.9546204-0.5824604,1.342926c-0.3074245,0.3802567-0.7928085,0.6471939-1.2782898,0.5905571
				c-0.4852848-0.0646858-0.9302769-0.5096283-0.8736897-1.0031586c-0.4286976,2.2005196-2.5564823,3.9398499-4.7974415,3.9237022
				c-0.4125996,0-0.8250999-0.0566368-1.1973095-0.2265434c-0.9302769-0.4045029-1.4885416-1.4400024-1.480443-2.443161
				c0.0080976-1.0112572,0.5177746-1.9739723,1.2377996-2.6859016c-0.7200251,0.5339203-1.9173365,0.1294174-2.1600771-0.7281227
				c-0.2508392-0.8575439,0.5501661-1.8364563,1.440052-1.7717247c-0.2427406-0.0161934-0.7685146-0.5905571-0.9303751-0.7685623
				c-0.3074255-0.3316727-0.4934807-0.7685661-0.5339708-1.20541c-0.0646849-0.6471939,0.1456642-1.2943878,0.5178738-1.8283577
				c0.1617613-0.2264977,0.3559141-0.4287453,0.5662632-0.6067543c0.4287968-0.3559647,0.9545698-0.6067543,1.5047369-0.6795349
				c0.8332005-0.105175,1.715086,0.1860542,2.2813492,0.8009071c-0.0161953-0.7442703,0.380209-1.4885902,1.0031586-1.8930931
				c1.0193539-0.6633911,2.4189148-0.2912292,3.2360172,0.5258713c0.7362232,0.7281265,0.9627666,1.6584511,0.7039299,2.6616096
				c2.3946209-2.1923714,2.8719063,0.8009033,2.8719063,0.8009033L41.4719238,44.2913132z"/>
		</g>
		<path class="st40" d="M69.2955627,84.2999039v0.773819c0,0.1442947,0.1114349,0.2623291,0.2558441,0.2623291h0.6753159v-1.298439
			h-0.6753159C69.4069977,84.0376129,69.2955627,84.1556473,69.2955627,84.2999039z"/>
		
			<rect x="71.7650986" y="84.4488297" transform="matrix(-1 -4.575286e-11 4.575286e-11 -1 147.4661407 169.8302765)" class="st40" width="3.9359515" height="0.932615"/>
		
			<rect x="71.1730576" y="82.309433" transform="matrix(-1 -4.792268e-11 4.792268e-11 -1 143.8264313 170.6721039)" class="st34" width="1.4803126" height="6.053237"/>
		
			<rect x="69.5723572" y="87.2891388" transform="matrix(-1 -4.468127e-11 4.468127e-11 -1 143.8264313 176.1696014)" class="st11" width="4.6817117" height="1.5913208"/>
		<g>
			<path class="st0" d="M141.8557587,57.6300659l-1.2230225,1.7340965l0.0356903,3.4674911l-1.9737244,2.0371056
				l-0.2320557,0.2375717l-3.5783691,3.6740646l-2.2544861-2.7909775l-0.3930664-0.4768219l1.4978333-1.3823013l0.7797699-0.8876381
				l0.0101776-0.0174026l0.7504883-0.8534698l0.0388489-0.0425758l0.1668549-0.2056885l0.5614471-4.7370491
				c0.0367432-0.2863808,0.2766113-0.5053749,0.5479279-0.5147858c0.2533875-0.0105247,0.4698334,0.1299324,0.5635986,0.3526115
				c0.0245819,0.0376778,0.0390625,0.092762,0.0457153,0.1293259l0.2525787,1.5234528l3.2850342-2.3577156
				c0.3883057-0.2814713,0.9216309-0.1564865,1.1569977,0.2468796c0.0072479,0.0275726,0.0324097,0.0562553,0.0402374,0.0748329
				C142.0436401,57.1008987,142.0158997,57.3878632,141.8557587,57.6300659z"/>
			<path class="st1" d="M138.6947021,64.8687592l-0.2320557,0.2375717l-3.5783691,3.6740646l-2.2544861-2.7909775
				l1.8845367-2.7467613l0.0101776-0.0174026C134.5245056,63.2252541,136.7684174,64.1024704,138.6947021,64.8687592z"/>
			<path class="st0" d="M89.4868774,100.310585c0,0-0.0812759,0.139061-0.2049179,0.3746643
				c-0.1953278,0.3662567-0.5137177,0.9591217-0.8321075,1.5519867c-0.544754,1.0203323-1.1093063,2.0664139-1.1362381,2.0646591
				c-0.0089874-0.0005875-0.3797226,0.011322-0.9241714,0.0570145c-0.3174133,0.0244751-0.6983185,0.0537872-1.1062012,0.081337
				c-0.2263947,0.0122833-0.4528046,0.0246201-0.6887817,0.0453186c-1.450058,0.0949936-2.9545593,0.1954193-2.9545593,0.1954193
				s-0.1173172-3.5991669-0.0606842-3.7759628c0.0476913-0.1773834,2.2395706-1.2707748,2.2395706-1.2707748l1.9097061,0.4674072
				l0.2072372,0.0044785l0.5751038,0.0374908L89.4868774,100.310585z"/>
			<path class="st1" d="M89.2819595,100.6852493c-0.1953278,0.3662567-0.5137177,0.9591217-0.8321075,1.5519867
				c-0.544754,1.0203323-1.1093063,2.0664139-1.1362381,2.0646591c-0.0089874-0.0005875-0.3797226,0.011322-0.9241714,0.0570145
				c-0.3174133,0.0244751-0.6983185,0.0537872-1.1062012,0.081337l1.2275925-4.2966232L89.2819595,100.6852493z"/>
			<path class="st24" d="M83.581131,98.5950851l-2.8215332-0.5035934c-0.9508743,0.3519897-2.076561,3.0168381-2.076561,3.0168381
				l0.656311,0.2727051l-1.4464111,2.2048187c-0.5551071,0.8531265-0.9115067,1.823967-1.0460358,2.8344116l-0.4205551,3.3309555
				c-0.0551376,0.4112701,0.2370987,0.7745743,0.641098,0.8194122l0.9516068,0.10569
				c0.4306335,0.0493698,0.8476181-0.1325836,1.0931702-0.4823761l1.0585785-1.4682541l1.8940735-2.6099548l2.4396057-1.2034302
				c0.3339386-0.1784515,0.5466003-0.4976807,0.6099319-0.8525009c0.0269089-0.1507721,0.0271683-0.3062973,0.000885-0.4667816
				c-0.0817795-0.3623962-0.3197861-0.6704178-0.6556931-0.8403397l-0.8017502-0.3811493l-0.0161591-0.0118256l1.2831573-2.3164368
				l0.8200989,0.0732803l-0.8511887-0.7196655C84.5755692,98.9739685,84.1046448,98.68853,83.581131,98.5950851z"/>
			<path class="st12" d="M79.8964157,101.6148376l-0.5563278-0.2335739l-1.4475098,2.2069168
				c-0.5589142,0.852211-0.91436,1.8180008-1.0418396,2.8285522l-0.4247818,3.3372498
				c-0.0520706,0.4056549,0.236763,0.7704544,0.6398621,0.8139038l0.1197052,0.0132141
				c-0.147728-0.1524963-0.2275772-0.3660812-0.1992798-0.5929337l0.4254684-3.3412018
				c0.1274796-1.0105515,0.4829102-1.9762497,1.0418167-2.8284531L79.8964157,101.6148376z"/>
			<path class="st12" d="M81.3722763,98.2007065L80.7612,98.0916443c-0.9495239,0.3512497-2.0764236,3.0181198-2.0764236,3.0181198
				l0.6553116,0.2714996C79.3400879,101.3812637,80.3317261,99.4265976,81.3722763,98.2007065z"/>
			<path class="st0" d="M127.1402512,126.9676971c0,0-3.3443222,1.3252258-3.5305939,1.337677
				c-0.1780167,0.0133362-1.9512634-1.6844559-1.9512634-1.6844559l-0.2150955-1.9489517l-0.2165375-0.7557831l-0.0246658-0.0784607
				l-0.7959213-2.6789627l-0.0310822-0.0960236c0,0,0.0580826,0.0066147,0.1649933,0.0271988
				c0.8101883,0.1174698,4.3146057,0.6340866,4.3191299,0.6681976c0.0073624,0.0092468,0.1456604,0.3443451,0.3748703,0.8410492
				c0.0201416,0.0443039,0.040329,0.0886154,0.0595779,0.1412277l-0.000946,0.0083008
				C125.9525452,124.26091,127.1402512,126.9676971,127.1402512,126.9676971z"/>
			<path class="st1" d="M125.293663,122.7404099l-0.000946,0.0083008c0,0-2.4970169,0.67379-4.0906219,1.0890121
				l-0.7959213-2.6789627c0.0443039-0.020195,0.0895538-0.0486374,0.1339111-0.0688248
				c0.8101883,0.1174698,4.3146057,0.6340866,4.3191299,0.6681976c0.0073624,0.0092468,0.1456604,0.3443451,0.3748703,0.8410492
				C125.2542267,122.643486,125.2744141,122.6877975,125.293663,122.7404099z"/>
			<path class="st24" d="M120.7576447,127.1982727l0.4810562,2.82547c0.6530304,0.7756195,3.5416031,0.9329681,3.5416031,0.9329681
				l0.0344849-0.7098694l2.5642395,0.6148529c0.9906464,0.2336121,2.024826,0.2404022,3.0211639,0.0250092l3.2767181-0.7316132
				c0.4056549-0.0873108,0.6486206-0.4852448,0.5540771-0.8805847l-0.2226105-0.9312286
				c-0.0992889-0.4219208-0.4116364-0.7527161-0.8238831-0.8653946l-1.7398834-0.4991837l-3.0969696-0.8989716l-1.9580841-1.8883438
				c-0.2809372-0.2538376-0.6532974-0.3459015-1.0086212-0.285408c-0.1509781,0.0257034-0.2974091,0.0780945-0.4395294,0.1571426
				c-0.3133316,0.1996078-0.5226212,0.5278168-0.5688324,0.901413l-0.0873108,0.8834305l-0.005661,0.0192108l-2.6140137-0.4234543
				l-0.2085953-0.7965012l-0.3891144,1.0445251C120.7776031,126.1342926,120.6683884,126.6740265,120.7576447,127.1982727z"/>
			<path class="st12" d="M124.8462601,129.6435242l-0.0315018,0.6025391l2.5665817,0.6151733
				c0.9910812,0.2375031,2.0201645,0.2451019,3.0142288,0.0230408l3.2840729-0.7297516
				c0.3993378-0.0883026,0.6448517-0.483551,0.5493164-0.8775635l-0.0280762-0.1171112
				c-0.0935059,0.1906281-0.2674561,0.3380432-0.490509,0.3881836l-3.2880096,0.7304535
				c-0.9940643,0.2220612-2.0230713,0.214447-3.0141449-0.023056L124.8462601,129.6435242z"/>
			<path class="st12" d="M121.1341095,129.4102478l0.104187,0.6119232c0.651886,0.7746124,3.5427704,0.9324188,3.5427704,0.9324188
				l0.0336914-0.7085266C124.8147583,130.2460632,122.6398239,129.9745026,121.1341095,129.4102478z"/>
			<g>
				<g>
					<path class="st0" d="M120.7310562,46.9781265l-1.2273941,6.0295067
						c-0.0659714,0.3240814-0.2009354,0.634079-0.3986664,0.8981094c-0.1419983,0.1813316-0.3074646,0.3412704-0.495079,0.4746208
						c-0.0329437,0.0264854-0.1416321,0.0707474-0.286293,0.1298065l-1.2998581,6.3854599l-3.6283798-0.7386093l1.0478821-5.1476746
						c-0.0327606-0.02882-0.077507-0.0545082-0.1219864-0.0801773c-0.4115906-0.2884865-0.7290955-0.7127113-0.8804398-1.2193375
						c-0.2713623-0.8684998-0.3170929-1.7851448-0.1364975-2.6722984l0.6423569-3.1555405
						c0,0,0.1868896-1.5165863,1.8491592-1.9085007L120.7310562,46.9781265z"/>
				</g>
				<path class="st1" d="M120.1369781,49.9078369l-0.5712128,2.8060303
					c-0.1802979-0.1381798-0.2707214-0.3757095-0.2226944-0.6116638l0.3508606-1.7235718
					C119.7419662,50.1426773,119.9170074,49.9645348,120.1369781,49.9078369z"/>
				<path class="st3" d="M123.0253448,47.3237724c-0.0889816,0.3883553-0.1698608,0.7766609-0.2912292,1.1649666
					c-0.0565872,0.2184486-0.1294708,0.4368935-0.2184448,0.6552925c-0.0565872,0.1375656-0.1132736,0.2750816-0.1698608,0.4045029
					c-0.1941528,0.4368935-0.4691925,0.8332977-0.6795349,1.2539482c-0.1941528,0.39645-0.3964081,0.7604637-0.6715393,1.1002808
					c-0.4449921,0.5501175-1.0031586,0.9222298-1.5613251,1.342926c0.0889816-0.5905571,0.186058-1.1973114,0.2831345-1.8040619
					c0.0484848-0.2831841,0.1617584-0.6552925,0.1213684-0.9465218c-0.1618576-0.9384727-0.6958313-1.7879181-0.8980789-2.7263908
					c-0.04039,0.4368935-0.5419693,0.6714859-0.9788666,0.7119255c-0.2912292,0.0242958-0.6391449-0.0161438-0.8090057-0.2588387
					c-0.2022476-0.2912788-0.048584-0.6957779,0.1213684-1.0112534c-0.9384689,0.8170509-2.3056412,1.2215538-3.4625626,0.7766113
					c-0.2588348-0.0889778-0.5015793-0.2264938-0.6876297-0.4287453c-0.1536636-0.178009-0.2670364-0.3964539-0.3316193-0.6310463
					c-0.0971756-0.3316727-0.0971756-0.6876373-0.0323944-1.0274544c0.1131744-0.5743599,0.4368896-1.1163788,0.8817825-1.4885406
					c0.7200317-0.6067505,1.7069931-0.8332977,2.6373672-0.7523689c0.9384689,0.080883,1.8283539,0.4368477,2.6453629,0.8979836
					c-0.2588425-0.1699066-0.4852829-0.4125977-0.5743637-0.7038269c-0.0889816-0.2993279-0.024292-0.6552925,0.2184448-0.8575439
					c0.121376-0.105175,0.2913284-0.1618118,0.4530945-0.178009c0.5662613-0.0485382,1.0678406,0.3721619,1.4076614,0.8252029
					c0.1617584,0.21035,0.3074188,0.4368439,0.4610825,0.6471939c0.194252,0.242691,0.3884125,0.4692345,0.6472473,0.6391449
					c0.4610901,0.3074265,1.100235,0.3964043,1.4157562,0.8575439
					C123.2599869,46.2478294,123.1305161,46.8221931,123.0253448,47.3237724z"/>
				<path class="st1" d="M114.2969055,55.7471733l0.1507721-0.7406273c-0.0232086,0.1817627,2.0606384-0.082653,2.3275909-0.2056274
					c0.1318893-0.0067291,0.1634445,0.181118,0.0365982,0.2178574
					C116.0914459,55.4920158,115.2584991,55.7453232,114.2969055,55.7471733z"/>
				<path class="st0" d="M119.7334595,50.1813583l-0.3506851,1.7227287
					c-0.0689545,0.3387299,0.1495209,0.6688919,0.4882507,0.7378426c0.3387222,0.0689545,0.6688843-0.1495247,0.7378311-0.4882507
					l0.3506927-1.7227325c0.0344772-0.1693649-0.0031509-0.33601-0.0912018-0.4696922
					c-0.0886307-0.1333122-0.2277832-0.2331848-0.3971481-0.2676582
					C120.1324768,49.6246414,119.8023148,49.8431206,119.7334595,50.1813583z"/>
				<path class="st4" d="M115.5926361,50.8418541l-0.4846573,0.400795c-0.1266708,0.1047516-0.143074,0.2929192-0.036438,0.4180069
					l0.2860947,0.3356056"/>
			</g>
			<path class="st5" d="M115.1946487,52.6564331c0.0378036-0.0109253,0.0756073-0.0218506,0.1196671-0.0302811
				c0.3643036-0.0661545,0.6967697,0.1148415,0.9626846,0.350853c0.0999985,0.0844154,0.1883621,0.1791382,0.2640152,0.2686996
				c0.0019226,0.0044823,0.0083389,0.0070419,0.0102615,0.011528c0.0019302,0.0044861,0.0083389,0.0070419,0.0102692,0.011528
				c0.0717926,0.0805893,0.1345139,0.165081,0.1928558,0.2514496c0.0160446,0.0249825,0.030159,0.0454826,0.0461578,0.0703545
				c0.0141144,0.0205002,0.0346375,0.0435562,0.0417099,0.0723915c0.0038528,0.0089722,0.0032272,0.0198669-0.0038223,0.0282059
				c-0.0006332,0.0108948-0.009491,0.0147018-0.012207,0.0210495c-0.0229492,0.0204811-0.0555878,0.018692-0.0844727,0.0256538
				c-0.0198135,0.0033302-0.0460968,0.0039902-0.0658493,0.007164c-0.0551147,0.0077362-0.1101151,0.0154228-0.1652298,0.0231552
				c-0.0660095,0.0070992-0.1319122,0.0141563-0.1958389,0.0258026c-0.0749741,0.0109558-0.1453629,0.0199356-0.2158508,0.028965
				c-0.0767975,0.0064201-0.1472931,0.0154495-0.2221146,0.0264626c-0.0704956,0.0090294-0.1408768,0.0180092-0.2112656,0.026989
				c-0.0660095,0.007103-0.129982,0.0186424-0.1959457,0.0258522c-0.0550461,0.007576-0.1101151,0.015419-0.1652298,0.0231552
				c-0.0460281,0.0038338-0.085762,0.010273-0.1254959,0.0167122c-0.0261688,0.0006142-0.0460281,0.0038376-0.0703812,0.0089836
				c0,0,0,0-0.0044861,0.0019264c-0.0153809,0.0012932-0.0902023,0.01231-0.1625137,0.0168037
				c-0.0749817,0.0109558-0.1453629,0.0199356-0.1453629,0.0199356
				C114.6360703,53.8516312,114.46035,52.8868103,115.1946487,52.6564331z"/>
			<path class="st6" d="M114.9415665,53.9698372l-0.0342026-0.2772255
				c-0.0167084-0.1254959,0.0754242-0.2446213,0.2008743-0.2614479l1.4327774-0.1854591
				c0.0019226,0.0044823,0.0083389,0.0070419,0.0102615,0.011528c0.0019302,0.0044861,0.0083389,0.0070419,0.0102692,0.011528
				c0.0717926,0.0805893,0.1345139,0.165081,0.1928558,0.2514496c0.0160446,0.0249825,0.030159,0.0454826,0.0461578,0.0703545
				c0.0141144,0.0205002,0.0346375,0.0435562,0.0417099,0.0723915c0.0038528,0.0089722,0.0032272,0.0198669-0.0038223,0.0282059
				c-0.0006332,0.0108948-0.009491,0.0147018-0.012207,0.0210495c-0.0229492,0.0204811-0.0555878,0.018692-0.0844727,0.0256538
				c-0.0198135,0.0033302-0.0460968,0.0039902-0.0658493,0.007164c-0.0551147,0.0077362-0.1101151,0.0154228-0.1652298,0.0231552
				c-0.0660095,0.0070992-0.1319122,0.0141563-0.1958389,0.0258026c-0.0749741,0.0109558-0.1453629,0.0199356-0.2158508,0.028965
				c-0.0767975,0.0064201-0.1472931,0.0154495-0.2221146,0.0264626c-0.0704956,0.0090294-0.1408768,0.0180092-0.2112656,0.026989
				c-0.0660095,0.007103-0.129982,0.0186424-0.1959457,0.0258522c-0.0550461,0.007576-0.1101151,0.015419-0.1652298,0.0231552
				c-0.0460281,0.0038338-0.085762,0.010273-0.1254959,0.0167122c-0.0261688,0.0006142-0.0460281,0.0038376-0.0703812,0.0089836
				c0,0,0,0-0.0044861,0.0019264C115.0886993,53.9543266,115.0138779,53.9653435,114.9415665,53.9698372z"/>
			<path class="st1" d="M120.5654907,50.3849754l-0.1002426,0.4924469l-0.4942017,0.1185226l0.1430817-0.7028542
				c0.0250549-0.1231117,0.1485138-0.2048035,0.2716217-0.1797409
				C120.5088654,50.1384087,120.5905533,50.2618637,120.5654907,50.3849754z"/>
			<path class="st1" d="M119.8728943,51.4781227l0.488945-0.0927238l-0.0939713,0.4616394
				c-0.0250626,0.1231117-0.1485138,0.2048073-0.2716217,0.1797447c-0.1231155-0.0250626-0.2048111-0.1485138-0.1797485-0.2716255
				L119.8728943,51.4781227z"/>
			<path class="st11" d="M137.6787415,66.3678055c-0.5988617,0.7119293-1.521225,1.6988907-2.588974,2.766777
				c-1.4319611,1.4157639-3.1226501,2.9852295-4.7003632,4.2796707c-0.4368896,0.3640137-0.8575897,0.7038269-1.2621002,1.0112534
				c-1.0515442,0.8009033-2.4996948,0.833252-3.5919266,0.0808792c-1.9577332-1.342926-4.9188156-3.4301682-6.0837326-4.4818649
				c-0.186058-0.1618118-0.3318176-0.3074265-0.4124069-0.4125977c-0.3721085-0.4449463-0.7525101-0.9060822-1.1163254-1.3753204
				c-0.4210968-0.5339203-0.8255997-1.0921402-1.1408234-1.6665497c-1.0436478-1.8687973-1.4967422-4.3281517,0.7604141-5.4850731
				l0.186058-0.0808792l0.2670288-0.1375198l0.2425461-0.1213684c0.4289932-0.2264977,0.9061813-0.3316727,1.3671722-0.3316727
				c0.178154-0.0080948,0.3480148,0,0.5257721,0.0323448c0.0165939,0,0.0244904,0.0080986,0.0406876,0.0080986
				c0.1374664,0.0242424,0.2832336,0.056633,0.4124069,0.1051712c0.4451828,0.1375198,0.8496857,0.3640633,1.1973038,0.6957321
				c0.2670364,0.2345963,0.493782,0.5177765,0.6636429,0.8575439c0,0,4.2634659,5.3960457,5.3150177,6.2778816
				c2.1437759-1.7959671,4.093605-2.9204941,5.8573837-4.5466003c0.1698608-0.1537132,0.3397217-0.3155212,0.5012817-0.4853821
				l0.2508392-0.2508392C135.6562195,64.0378647,136.4328461,65.3808441,137.6787415,66.3678055z"/>
			<path class="st12" d="M130.3894043,73.4142532c-0.4414978,0.3678513-0.8664703,0.7109909-1.2748871,1.0209656
				c-1.0490875,0.7962189-2.490303,0.8180389-3.5763855,0.0730591c-1.9577026-1.3428574-4.9210205-3.431572-6.0864868-4.483757
				l0.3750305-0.2550278c0.3765106-0.2560425,0.8771973-0.2312164,1.226532,0.0608063l5.5744019,4.6598892
				C126.628006,74.9851303,128.4810486,74.7087097,130.3894043,73.4142532z"/>
			<path class="st13" d="M136.3600006,66.5955734l-6.9394531,6.1084442
				c-0.7366638,0.6484528-1.7300873,0.9231262-2.6952438,0.7452164l-0.3509674-0.0646973
				c-0.8468628-0.156105-1.595108-0.646843-2.075737-1.3613739l-1.6981125-2.5245361
				c-0.6735611-1.001358-2.0013657-1.3207779-3.0566483-0.7353134l-1.0909348,0.6052399l1.2821121-8.4764519
				c0.0727844-0.0889778,0.2265472-0.242691,0.4368973-0.4368439c0.1375656,0.0242424,0.2831268,0.0566368,0.4124985,0.105175
				c0.4449921,0.137516,0.8494949,0.3640099,1.1974106,0.6957321c0.2669373,0.2345924,0.4934845,0.5177727,0.6633377,0.8575401
				c0,0,4.2634735,5.3960457,5.3152161,6.2778816c2.1437836-1.7960129,4.0935211-2.9205399,5.857193-4.5466003
				c0.1698608-0.1537094,0.3397064-0.3155212,0.5015717-0.4854317L136.3600006,66.5955734z"/>
			<path class="st11" d="M121.9274826,61.3774834v0.0080986c-0.0566788-0.0080986-0.3884048-0.137516-0.4206924,0.0080986
				c0,0-0.1375656,0.5420189-0.3398209,1.448101c-0.1941528,0.7928581-0.4529877,1.8688431-0.7362213,3.0823517
				c-0.1617584,0.7038345-0.3235245,1.4400024-0.5176773,2.1923752c-0.2184448,0.9384689-0.4449921,1.9173355-0.6553421,2.8719559
				v0.0161972c-0.0404892,0.1537094-0.072876,0.299324-0.113266,0.4530411
				c-0.3236237,1.3753128-0.6471481,2.7182388-0.9141846,3.8751068c-0.0080948,0.0485382-0.024292,0.0971298-0.0323868,0.145668
				c-0.2022552,0.833252-0.3316269,1.399559-0.4288025,1.7959671c-0.0080948,0.0728302-0.0322876,0.1456146-0.0484848,0.2022476
				c-0.1132736,0.4934845-0.16996,0.7281265-0.2426453,1.043602c-0.072876,0.0161972-0.1456604,0.0323944-0.2184448,0.0404892
				c-2.9528885,0.6067505-5.8490906,0.6471939-8.599823-0.2588882c-1.0597458-0.3398209-2.1032944-0.8332977-3.1145477-1.4885864
				c-0.1537628-0.1132736-0.3075256-0.21035-0.4530869-0.3155289c-0.1779633-0.1213226-0.3398209-0.242691-0.5015793-0.3640137
				l0.6876297-14.4326591l0.9545746-1.2135086l1.8607483-2.3703766l5.6873245-0.8979836l0.234642-0.0323906
				c-0.0566864,0.266983-0.0404892,0.5096741,0.0081024,0.7523651c0.3802032,1.5452271,3.0660553,1.9739761,3.5838318,0.1294708
				c0.0161972-0.0485382,0.5420685,0.3316689,1.2135086,0.8494453c0.1698608,0.129467,0.3478165,0.266983,0.5339661,0.4125977
				v0.0080986c0.8574982,0.6633911,1.8040695,1.41576,2.2651596,1.7798195
				c0.1537628,0.1294212,0.258934,0.218399,0.283226,0.2345963
				C121.9193878,61.3694344,121.9274826,61.3774834,121.9274826,61.3774834z"/>
			<path class="st12" d="M112.0018158,63.8287926c0,0.0154076,0.2653275-0.6634026,0.5282593-1.3398552
				c0.1673203-0.4304695,0.7850113-0.4042168,0.915184,0.0389061l2.9694366,10.1082344c0,0-4.9075775,0.3922501-5.0034561,0.3432236
				"/>
			<path class="st12" d="M118.2302399,75.3328018c0.000618,0.0018997,0.001152,0.0035248,0.0017624,0.0054245
				c-0.2220078,0.910553-0.3603821,1.5179672-0.4629135,1.9362183c-0.0080948,0.0728302-0.0322876,0.1456146-0.0484848,0.2022476
				c-0.1132736,0.4934845-0.16996,0.7281265-0.2426453,1.043602c-0.072876,0.0161972-0.1456604,0.0323944-0.2184448,0.0404892
				l-0.7605133-0.1861038l-6.9372559-2.8946304c-0.6584167-0.2747269-1.1747742-0.8082657-1.4278183-1.4753113l-1.9820328-5.2248459
				l-0.4044952,6.2697906l3.5433426,2.677803c0,0-0.2265472,0.242691-0.6310501,0.5744095
				c-1.0597458-0.3398209-2.1032944-0.8332977-3.1145477-1.4885864c-0.1537628-0.1132736-0.3075256-0.21035-0.4530869-0.3155289
				c-0.1779633-0.1213226-0.3398209-0.242691-0.5015793-0.3640137l0.6876297-14.4326591l0.9545746-1.2135086
				c2.1600723,3.1712837,6.2616882,9.3358955,6.2616882,9.3358955l2.7992172,3.1470413
				C115.2935867,72.9705353,116.7012253,74.1112442,118.2302399,75.3328018z"/>
			<path class="st13" d="M121.9274826,61.3774834v0.0080986c-0.0566788-0.0080986-0.3884048-0.137516-0.4206924,0.0080986
				c0,0-0.1375656,0.5420189-0.3398209,1.448101c-0.1941528,0.7928581-0.4529877,1.8688431-0.7362213,3.0823517
				c-0.1617584,0.7038345-0.3235245,1.4400024-0.5176773,2.1923752c-0.2184448,0.9384689-0.4449921,1.9173355-0.6553421,2.8719559
				v0.0161972c-0.0404892,0.1537094-0.072876,0.299324-0.113266,0.4530411l-3.0984573-1.4319611l-1.8607483-6.3992004
				l4.635582-4.7084122c0.1698608,0.129467,0.3478165,0.266983,0.5339661,0.4125977v0.0080986
				c0.8574982,0.6633911,1.8040695,1.41576,2.2651596,1.7798195c0.1537628,0.1294212,0.258934,0.218399,0.283226,0.2345963
				C121.9193878,61.3694344,121.9274826,61.3774834,121.9274826,61.3774834z"/>
			<path class="st54" d="M115.5846405,88.2593613l-1.1194305,2.4988251l-4.7619476,10.617569l-0.6328506,1.4026108
				c-0.8657074,1.9287872-2.8657837,3.1249542-4.9936523,2.9591446l-14.3256531-0.897728l-3.7877121-0.1747055l0.6753311-5.9298859
				l9.2975006-0.0436096l6.1468887-0.0234528c0,0,0.3877029-1.1027145,0.9453583-2.7357712
				c0.3316498-0.9349213,0.7194061-2.0376358,1.1202011-3.2026749c0.1669693-0.4854202,0.3435745-0.979248,0.5111313-1.4736633
				c1.1446381-3.3003311,2.3118973-6.6713943,2.6392365-7.6788025c0.0471115-0.1683884,0.0810699-0.2744522,0.0822449-0.2924423
				l0.9634857,0.5862122l2.5263824,1.5273132L115.5846405,88.2593613z"/>
			<path class="st47" d="M104.6591797,91.2573776c0.8237152,1.6627884,3.3585281,6.7449493,5.0378723,10.1174545
				l4.7669449-10.6197052c-0.8895798-1.843277-2.234024-3.9792557-3.5906143-5.356781
				c-0.664566-0.6748734-1.3246994-1.1700821-1.945755-1.3581543c-0.1847687-0.0580978-0.381897-0.1175995-0.5797119-0.1709976
				c-0.3346024-0.0998459-0.6880493-0.1957016-1.0545578-0.28685
				C106.9693298,84.5832367,105.8067627,87.9596252,104.6591797,91.2573776z"/>
			<path class="st54" d="M126.0129013,122.0528259l-6.3668594,1.4400558l-1.0760422-4.627533l-4.0531235-17.2317886
				L104.469101,87.8319473c-1.3105774-2.7505875-1.5209274-5.9057236-0.5824585-8.8019791l0.2831345-0.8656387l0.275032-1.3914642
				l9.441124,1.9254379v0.0080948l3.0094681,0.9869614l-0.0727844,0.242691l-0.2103424,0.6472473l-0.6796417,2.0871964
				l0.1537628,0.3640594l5.5173721,13.575119c0.2994232,0.7119293,0.5178757,1.4642944,0.6796341,2.2085648v0.0242462
				c0.064682,0.2831802,0.1051712,0.5501709,0.1455612,0.8252029l0.2670364,1.7636185l0.4207001,2.7344437l2.176178,14.0847931
				l0.3964005,2.5887756L126.0129013,122.0528259z"/>
			<path class="st55" d="M122.6959991,101.4313049l-4.635582,9.6514206l-1.6422958-10.5008621l-9.8167267-12.3972397
				c-0.1636581-0.2066803-0.2913361-0.4394608-0.3776627-0.6885605l-1.2552032-3.6219864
				c-0.200882-0.5796738-0.1668396-1.2149582,0.0948563-1.7698441l1.137001-2.4108734c0,0,4.9025192,0.1051712,10.6222305,0.242691
				l-0.2103424,0.6472473l-0.6796417,2.0871964l0.1537628,0.3640594l5.5173721,13.575119
				c0.2994232,0.7119293,0.5178757,1.4642944,0.6796341,2.2085648v0.0242462
				c0.064682,0.2831802,0.1051712,0.5501709,0.1455612,0.8252029L122.6959991,101.4313049z"/>
			<line class="st92" x1="102.0798111" y1="98.6668091" x2="103.4490967" y2="99.9670944"/>
			<line class="st92" x1="114.6271515" y1="101.6395493" x2="115.7568283" y2="101.0198364"/>
			<path class="st21" d="M104.4427948,76.7762756c4.0046005,1.4930878,8.0204086,2.4432907,12.5644302,2.9140167
				l0.4740295-1.1708984c-4.4314575-0.61203-8.7575684-1.5955811-12.8628006-2.9891586L104.4427948,76.7762756z"/>
			<line class="st92" x1="116.044754" y1="82.6760406" x2="115.5237885" y2="81.4458771"/>
			<path class="st0" d="M115.0447998,76.4584961l4.5476151,1.1836777l2.1363983,1.2675552l1.068367,0.6336441l0.7636108,0.5653381
				c0.1982422,0.1445541,0.4622269,0.1461258,0.6578751,0.0018921l0.4550934-0.3325195l0.3198395,0.1429825
				c0.0994339,0.0517426,0.2166061,0.0624924,0.325798,0.0483932c0.1262283-0.0220871,0.2491074-0.0895462,0.3391724-0.1907043
				c0.1761551-0.2148132,0.165535-0.5202713-0.0190125-0.7181854l-0.1720581-0.193512l0.5410385,0.3871689
				c0.2439194,0.1661682,0.5799713,0.1239548,0.7648468-0.1071854l0.1205063-0.1541824
				c0.15905-0.1986618,0.164772-0.4791183,0.0012665-0.6807022l-0.0735168-0.0923462l0.4341431,0.2858429
				c0.2396774,0.1620255,0.5718155,0.1073685,0.7525177-0.1198349l0.1333923-0.1744461
				c0.1893311-0.2434387,0.1376648-0.5910339-0.1057892-0.7737808l-1.9768066-1.4909592l-0.148735-0.1103668
				c-0.2311249-0.1700974-0.4923782-0.3037033-0.767128-0.3921814c-0.1248627-0.0439301-0.250061-0.0713425-0.3794327-0.0948257
				l-2.6442032-0.4080582l-2.0516739-0.7004089l-1.4897385-0.5108948L115.0447998,76.4584961z"/>
			<polygon class="st1" points="115.0447998,76.4584961 119.5924149,77.6421738 121.7288132,78.909729 119.5075073,76.8729858 
				120.0679245,74.2407913 118.578186,73.7298965 			"/>
			<path class="st11" d="M120.2608871,73.7067566l-1.8607483,5.0562744l-7.9282837-3.6810074
				c-0.9626694-0.4610901-1.6987915-1.2943878-2.0225143-2.2975464c-0.6956329-2.2166672-1.6664963-5.8733826-1.6664963-5.8733826
				l-1.375267-4.5223541c-0.275032-0.9222298-0.1375656-1.8607025,0.299324-2.6292648
				c0.0161972-0.0404396,0.0565872-0.0727844,0.0808868-0.1213226c0.4206924-0.6633873,1.0759354-1.1973114,1.9173355-1.4481506
				c0.024292-0.0080452,0.0566864,0,0.088974-0.0161438c0.0646896-0.0161972,0.1375732-0.0323944,0.21035-0.0404396
				c1.1812134-0.2427444,2.3542328,0.1537094,3.1551437,0.9627151c0.364006,0.3802071,0.6391449,0.8494453,0.7928085,1.3672218
				l1.0274506,3.3654366l0.234642,0.7766609l0.1212692,0.3964081l0.5501709,1.8444977l0.4934769,1.5937653l0.6796341,2.2894516
				l0.2022552,0.1213684l4.2472687,2.4270172l0.1212769,0.0728302l0.0323868,0.0161438l0.0081024,0.0081024l0.21035,0.1213684
				L120.2608871,73.7067566z"/>
			<path class="st13" d="M119.6298447,73.3507919c-1.035553,2.1842728-1.8607559,3.9236526-1.8607559,3.9236526
				l-7.9200821-3.7699432l-1.9983215-5.0886688l5.1291656-4.5870399l0.234642,0.7766609l0.1212692,0.3964081l0.5501709,1.8444977
				l0.4934769,1.5937653l0.6796341,2.2894516l0.2022552,0.1213684l4.2472687,2.4270172L119.6298447,73.3507919z"/>
			<line class="st62" x1="115.059967" y1="70.7268448" x2="113.3173447" y2="71.6420288"/>
			<line class="st4" x1="126.8220139" y1="78.2225113" x2="125.0466309" y2="76.8111954"/>
			<line class="st4" x1="125.5663071" y1="78.9389343" x2="124.4723053" y2="77.8156586"/>
			<line class="st4" x1="124.6737289" y1="79.7764282" x2="123.8982086" y2="79.1694794"/>
			<line class="st4" x1="140.6327362" y1="59.3641624" x2="139.1647949" y2="60.4813538"/>
		</g>
		<path class="st7" d="M77.8078156,94.0503082v38.4519653c0,1.1326141-0.9061813,2.0629425-2.0387039,2.0872345H68.107666
			c-0.5743637,0-1.1001358-0.2346344-1.480545-0.6148529c-0.3721085-0.380249-0.6067505-0.8979797-0.6067505-1.4723816V94.0503082
			c0-0.2022552,0.0082932-0.4045029,0.0323868-0.5987091c0.0161972-0.1860504,0.0406876-0.3559647,0.0809784-0.5339203
			c0.0083008-0.0485382,0.0161972-0.0970764,0.0323944-0.1375198c0.0244904-0.1537094,0.0647812-0.3074265,0.1133728-0.4611359
			c0.048584-0.1456146,0.0971756-0.2912292,0.1536636-0.4287949c0.0240936-0.0727844,0.056488-0.1456146,0.0888824-0.218399
			c0.048584-0.1132736,0.0971756-0.2184448,0.1536636-0.3317184c0.1054688-0.1941528,0.2105408-0.3802109,0.3318176-0.5582123
			c0.1212692-0.186058,0.2587357-0.3640671,0.4045029-0.5339279c0.1374664-0.1699066,0.2911301-0.3317184,0.4609833-0.4854279
			c0.1378632-0.1375198,0.2915268-0.2669373,0.4530945-0.3883057c0.0161972-0.0161972,0.0323944-0.032341,0.048584-0.0404434
			l0.0083008-0.0080948c0.986763-0.7361755,2.2085648-1.1730652,3.5350494-1.1730652
			C75.1702576,88.1526337,77.8078156,90.7899933,77.8078156,94.0503082z"/>
		<path class="st8" d="M77.8078156,129.7759247v2.7263489c0,1.1326141-0.9061813,2.0629425-2.0387039,2.0872345
			c-0.0161972,0-0.0323944-0.0080872-0.0485916-0.0080872h-7.612854c-0.5743637,0-1.1001358-0.2346039-1.480545-0.6067657
			c-0.3721085-0.380249-0.6067505-0.8979797-0.6067505-1.4723816V94.0503082c0-0.2022552,0.0082932-0.4045029,0.0323868-0.5987091
			c0.0161972-0.1860504,0.0406876-0.3559647,0.0809784-0.5339203c0.0083008-0.0485382,0.0161972-0.0970764,0.0323944-0.1375198
			c0.0244904-0.1537094,0.0647812-0.3074265,0.1133728-0.4611359c0.048584-0.1456146,0.0971756-0.2912292,0.1536636-0.4287949
			c0.0240936-0.0727844,0.056488-0.1456146,0.0888824-0.218399c0.048584-0.1132736,0.0971756-0.2184448,0.1536636-0.3317184
			c0.1054688-0.1941528,0.2105408-0.3802109,0.3318176-0.5582123c0.1212692-0.186058,0.2587357-0.3640671,0.4045029-0.5339279
			c0.1374664-0.1699066,0.2911301-0.3317184,0.4609833-0.4854279c0.1378632-0.1375198,0.2915268-0.2669373,0.4530945-0.3883057
			c0.0161972-0.0161972,0.0323944-0.032341,0.048584-0.0404434c-0.4123993,0.8171005-0.6553345,1.7393341-0.6553345,2.7182465
			v35.6690292c0,1.1568756,0.930275,2.087204,2.0872879,2.087204h7.6128616
			C77.5486832,129.8082733,77.6782532,129.7921143,77.8078156,129.7759247z"/>
		<circle class="st11" cx="71.8474808" cy="84.9139786" r="2.1568475"/>
		<circle class="st6" cx="71.8474808" cy="84.9139786" r="1.3700651"/>
		<path class="st40" d="M75.2267914,84.0122757v1.8034058c0,0.3016739,0.2427216,0.5443115,0.5443497,0.5443115
			c0.3016357,0,0.5443573-0.2426376,0.5443573-0.5443115v-1.8034058c0-0.3016281-0.2427216-0.5443039-0.5443573-0.5443039
			C75.4695129,83.4679718,75.2267914,83.7106476,75.2267914,84.0122757z"/>
		<path class="st94" d="M104.0322113,38.7092094c-0.1455688,0.5501175-0.5743637,0.9869614-1.0193558,1.3591232
			c-0.7604141,0.6552887-1.634201,1.2054062-2.6049728,1.4480972c-0.9788589,0.2426949-2.0629959,0.1456184-2.8961945-0.4206467
			c1.0516434,1.132576,1.0193481,3.0580101,0.0160904,4.2391739c-1.0031509,1.173069-2.7910233,1.5451775-4.2310715,0.9708176
			c-1.4319611-0.5744133-2.2813492-1.7231827-2.5077972-3.2522163c-2.0145111,4.4090881-4.4091339,0.5663147-4.4091339,0.5663147
			l-21.6166763,5.3798523l1.5129318-2.4674568v1.3834152l20.1199417-5.3232613
			c0.299324,1.0031586,1.6826935,1.3267784,2.6292648,0.8656387c0.9465637-0.4611359,1.4480515-1.5613708,1.439949-2.6130676
			c0.4773865,1.1649208,1.3106842,2.2490082,2.4756012,2.7424889c1.1568222,0.5015793,2.669754,0.2750816,3.4463654-0.7199783
			c1.0679474-1.359169,0.4045029-3.3331451-0.299324-4.9187622c1.8202591,0.9222794,4.1420975,1.8121643,5.7520065,0.5582161
			c0.7523193-0.5825081,1.1326294-1.5128326,1.2621002-2.4755516c0.0080948,0.0080986,0.0161972,0.0242462,0.024292,0.032341
			C103.6924896,36.8485069,104.2830505,37.7788353,104.0322113,38.7092094z"/>
		<path class="st94" d="M40.4525681,61.9033585l-7.450901,12.7984543c0.3155251,0.3802109,0.6067543,0.7928085,0.7281227,1.2701492
			c0.1131744,0.4772797,0.0403938,1.0273972-0.2994232,1.3833618c-0.3397217,0.3559647-0.9626694,0.4368973-1.326683,0.0971298
			c1.5047379,1.6665421,1.6180115,4.4090347,0.2588387,6.1969528c-0.2507401,0.323616-0.5420685,0.6148453-0.8979836,0.8171005
			c-0.8737869,0.5015793-2.0387058,0.3235703-2.839613-0.2912292c-0.8009071-0.6067581-1.2701931-1.5937653-1.4076595-2.588829
			c-0.0080986,0.8898849-1.0517464,1.6018143-1.8850441,1.286293c-0.7604179-0.2912292-1.0759411-1.3348312-0.6794376-2.0225143
			c0.0888786-0.064682,0.1779575-0.1294174,0.2668362-0.1941528c0.2265453,0.3802567,0.534071,0.9141846,1.0517464,0.8494492
			c0.234642-0.0242462,0.4287968-0.1779556,0.5986557-0.3397675c0.404501-0.4126053,0.6796341-0.9546204,0.7766132-1.5290298
			c0.1133709,0.8737335,0.2832298,1.7717209,0.7686119,2.4998398c0.485384,0.7361755,1.3672695,1.2701492,2.2328606,1.0921402
			c0.8009071-0.1618118,1.3834648-0.8979874,1.6018143-1.6907959c0.2184467-0.7847595,0.1375675-1.6423035-0.1698589-2.4027634
			c-0.2993279-0.7604675-0.8171024-1.4238586-1.440052-1.9577789c0.4934807,0.21035,1.0678425,0.2750854,1.5776176,0.0970764
			c0.5095787-0.1779556,0.930275-0.6229477,1.019352-1.156868c0.1050758-0.6714935-0.2508354-1.3510284-0.6472397-1.9092407
			L40.112751,61.725399l0.3802071-1.7636719L40.4525681,61.9033585z"/>
		<path class="st94" d="M41.4719238,44.2913132l-1.5857162,1.1326256L25.1785583,47.15522
			c-0.1132736,0.4772835-0.2669373,0.9546204-0.5824604,1.342926c-0.3074245,0.3802567-0.7928085,0.6471939-1.2782898,0.5905571
			c-0.4852848-0.0646858-0.9302769-0.5096283-0.8736897-1.0031586c-0.4286976,2.2005196-2.5564823,3.9398499-4.7974415,3.9237022
			c-0.4125996,0-0.8250999-0.0566368-1.1973095-0.2265434c-0.9302769-0.4045029-1.4885416-1.4400024-1.480443-2.443161
			c0.0080976-1.0112572,0.5177746-1.9739723,1.2377996-2.6859016c-0.7200251,0.5339203-1.9173365,0.1294174-2.1600771-0.7281227
			c-0.2508392-0.8575439,0.5501661-1.8364563,1.440052-1.7717247c-0.2427406-0.0161934-0.7685146-0.5905571-0.9303751-0.7685623
			c-0.3074255-0.3316727-0.4934807-0.7685661-0.5339708-1.20541c-0.0646849-0.6471939,0.1456642-1.2943878,0.5178738-1.8283577
			c0.1617613-0.2264977,0.3559141-0.4287453,0.5662632-0.6067543c-0.129468,0.6714897-0.0647831,1.3834152,0.1941538,2.0225105
			c0.4045019,1.0112572,1.2781906,1.8121643,2.3218384,2.1357841c-0.655241,0.178009-1.2458973,0.5663147-1.6745958,1.0840874
			c-0.1214685,0.1456184-0.2265444,0.3154755-0.2022505,0.5015793c0.0322924,0.2345963,0.2749348,0.3721123,0.4933815,0.4611397
			c0.5501671,0.2345924,1.1327248,0.3883057,1.7232819,0.4530411c-0.5259705,0.3640137-1.0598431,0.7361717-1.4157562,1.2620468
			c-0.3560143,0.5258217-0.4854832,1.2539444-0.1537628,1.7959633c0.2507401,0.4207001,0.7362213,0.6552925,1.2054081,0.7928085
			c0.5177746,0.1537132,1.0597458,0.21035,1.5857162,0.1132736c1.0678425-0.2022514,1.9253368-1.0597954,2.4027195-2.0386581
			c0.4691887-0.9789124,0.6391468-2.0791473,0.7928104-3.1551361c0.1779556,0.5905571,0.4368935,1.2458496,1.0112553,1.4561958
			c0.525774,0.178009,1.1164303-0.1213188,1.4481487-0.5582123c0.3316212-0.4449425,0.4610901-1.0031586,0.5824604-1.5370789
			c0.1617603,0.5015755,0.6229496,0.8736877,1.1244297,1.051693c0.5016766,0.1779594,1.0436478,0.1941566,1.5776176,0.1941566
			c3.8346748-0.0161972,7.6532497-0.7766647,11.479826-0.5986557L41.4719238,44.2913132z"/>
		<path class="st95" d="M76.3194199,92.6438675v35.3697128c0,0.3397675-0.2832336,0.6228943-0.6310501,0.6228943
			c-0.3479156,0-0.6310425-0.2831268-0.6310425-0.6228943V92.6438675c0-0.3478622,0.2831268-0.6309967,0.6310425-0.6309967
			C76.0361862,92.0128708,76.3194199,92.2960052,76.3194199,92.6438675z"/>
		<path class="st96" d="M52.5252457,25.2912083c3.7850609,0.1676922,7.5827179,0.8730774,11.025032,2.4558945
			c3.4423065,1.5828171,6.5190964,4.0835056,8.4417572,7.3481922"/>
		<path class="st96" d="M48.412941,20.8763294c3.7351532-0.6351643,7.5961342-0.7474155,11.2950172,0.0730095
			c3.6988792,0.820425,7.2342491,2.6152,9.8027992,5.4004059"/>
		<line class="st62" x1="127.760376" y1="68.3915863" x2="127.760376" y2="69.725914"/>
		<path class="st5" d="M123.0253448,47.3237724c-0.0889816,0.3883553-0.1698608,0.7766609-0.2912292,1.1649666
			c-0.2588425-0.0727806-0.5096741-0.1779556-0.7281265-0.3235703c-0.299324-0.1942024-0.5419693-0.4611397-0.7361221-0.7604675
			c-0.5582657-0.8413963-0.7282257-1.9254341-0.4530869-2.8962517c0.024292-0.0728302,0.0404892-0.1456146,0.0727768-0.2184448
			c0.194252,0.242691,0.3884125,0.4692345,0.6472473,0.6391449c0.4610901,0.3074265,1.100235,0.3964043,1.4157562,0.8575439
			C123.2599869,46.2478294,123.1305161,46.8221931,123.0253448,47.3237724z"/>
		<path class="st34" d="M80.5097656,133.99086v0.7523651c0,0.4934845-0.4045029,0.8898926-0.8899841,0.8898926H64.2166977
			c-0.4937782,0-0.8899841-0.3964081-0.8899841-0.8898926V133.99086c0-0.4935303,0.3962059-0.8899384,0.8899841-0.8899384
			h15.4030838C80.1052628,133.1009216,80.5097656,133.4973297,80.5097656,133.99086z"/>
		<path class="st34" d="M80.5097656,122.6809387v12.0622864c0,0.4934845-0.4045029,0.8898926-0.8899841,0.8898926h-1.0918427
			v-12.952179c0-0.5501175,0.4448013-0.9950562,0.9867706-0.9950562
			C80.0649719,121.6858826,80.5097656,122.1308212,80.5097656,122.6809387z"/>
		<path class="st34" d="M72.904129,113.6441498v20.4781952c0,0.8377838-0.4045029,1.5107727-0.8899841,1.5107727h-1.0918427
			v-21.9889679c0-0.9339371,0.4447937-1.6893158,0.986763-1.6893158
			C72.4593353,111.954834,72.904129,112.7102127,72.904129,113.6441498z"/>
		<path class="st34" d="M65.3085403,122.6809387v12.952179h-1.0918427c-0.4937782,0-0.8899841-0.3964081-0.8899841-0.8898926
			v-12.0622864c0-0.5501175,0.4368935-0.9950562,0.986763-0.9950562
			C64.8637466,121.6858826,65.3085403,122.1308212,65.3085403,122.6809387z"/>
		<rect x="64.6570969" y="126.7803574" class="st34" width="14.5222864" height="1.8791357"/>
		<rect x="65.5076752" y="116.6652222" class="st34" width="12.8211279" height="1.8791357"/>
		<rect x="65.3085403" y="133.0973969" class="st53" width="13.2194033" height="1.2696217"/>
	</g>
	<line class="st92" x1="119.5361786" y1="108.0101624" x2="121.9274826" y2="121.6858826"/>
	<path class="st97" d="M108.3865051,79.6904068c-0.2033691,0.6010742-0.4865799,1.4042587-0.7496719,2.1419601
		c-0.4458694,1.2501984-0.2687683,2.638031,0.4742661,3.7378922l10.120903,14.9814301l1.3041763,7.4584732"/>
	<path class="st92" d="M108.6707535,78.763031c0,0.0635986-0.1142197,0.4248505-0.2842484,0.9273758"/>
	<path class="st92" d="M108.1948471,94.9693222c-0.0616684,0.1233368-1.7518234,3.7475891-2.7093811,5.8016434
		c-0.3937454,0.8446045-1.2497482,1.3691025-2.1812363,1.3420105l-16.2765656-0.4734268"/>
</g>
</svg>
