<?xml version="1.0" encoding="utf-8"?>
<!-- Generator: Adobe Illustrator 22.0.1, SVG Export Plug-In . SVG Version: 6.00 Build 0)  -->
<svg version="1.1" id="Layer_1" xmlns="http://www.w3.org/2000/svg" xmlns:xlink="http://www.w3.org/1999/xlink" x="0px" y="0px"
	 viewBox="0 0 156 156" style="enable-background:new 0 0 156 156;" xml:space="preserve">
<style type="text/css">
	.st0{fill:#FFD9B2;}
	.st1{fill:#F7AC76;}
	.st2{fill:none;stroke:#3643C3;stroke-width:0.5;stroke-linecap:round;stroke-linejoin:round;stroke-miterlimit:10;}
	.st3{fill:#233764;}
	.st4{fill:none;stroke:#F7AC76;stroke-width:0.5;stroke-linecap:round;stroke-linejoin:round;stroke-miterlimit:10;}
	.st5{fill:#161718;}
	.st6{fill:#FFFFFF;}
	.st7{fill:#F06449;}
	.st8{fill:#BE412D;}
	.st9{fill:#FE8E60;}
	.st10{fill:#7D4C47;}
	.st11{fill:#4456D6;}
	.st12{fill:#203881;}
	.st13{fill:#6582FC;}
	.st14{fill:#DDA103;}
	.st15{fill:#FBC32E;}
	.st16{fill:none;stroke:#DDA103;stroke-width:0.5;stroke-miterlimit:10;}
	.st17{fill:#FBE6BB;}
	.st18{fill:none;stroke:#BE412D;stroke-width:0.5;stroke-linecap:round;stroke-linejoin:round;stroke-miterlimit:10;}
	.st19{fill:none;stroke:#F06449;stroke-width:0.5;stroke-linecap:round;stroke-linejoin:round;stroke-miterlimit:10;}
	.st20{fill:#F34B4B;}
	.st21{fill:#FC7070;}
	.st22{fill:none;stroke:#FFFFFF;stroke-miterlimit:10;}
	.st23{fill:#FC9F9F;}
	.st24{fill:#408A6F;}
	.st25{fill:#64B48D;}
	.st26{fill:none;stroke:#FBE6BB;stroke-width:0.5;stroke-linecap:round;stroke-linejoin:round;stroke-miterlimit:10;}
	.st27{fill:none;stroke:#F7AC76;stroke-width:0.25;stroke-linecap:round;stroke-linejoin:round;stroke-miterlimit:10;}
	.st28{fill:#A0665A;}
	.st29{fill:#6C3F44;}
	.st30{fill:none;stroke:#6C3F44;stroke-width:0.5;stroke-linecap:round;stroke-linejoin:round;stroke-miterlimit:10;}
	.st31{fill:none;stroke:#7D4C47;stroke-width:0.5;stroke-linecap:round;stroke-linejoin:round;stroke-miterlimit:10;}
	.st32{fill:none;stroke:#F34B4B;stroke-width:0.5;stroke-linecap:round;stroke-linejoin:round;stroke-miterlimit:10;}
	.st33{fill:none;stroke:#FC7070;stroke-width:0.5;stroke-linecap:round;stroke-linejoin:round;stroke-miterlimit:10;}
	.st34{fill:#EAE8F3;}
	.st35{fill:#40304A;}
	.st36{fill:none;stroke:#43334E;stroke-linecap:round;stroke-linejoin:round;stroke-miterlimit:10;}
	.st37{fill:#32775B;}
	.st38{fill:none;stroke:#233764;stroke-width:0.5;stroke-linecap:round;stroke-linejoin:round;stroke-miterlimit:10;}
	.st39{fill:none;stroke:#408A6F;stroke-width:0.5;stroke-linecap:round;stroke-linejoin:round;stroke-miterlimit:10;}
	.st40{fill:#3643C3;}
	.st41{opacity:0.56;fill:url(#SVGID_1_);}
	.st42{opacity:0.52;fill:#FBC32E;}
	.st43{opacity:0.56;fill:url(#SVGID_2_);}
	.st44{fill:none;stroke:#EAE8F3;stroke-width:0.5;stroke-linecap:round;stroke-linejoin:round;stroke-miterlimit:10;}
	.st45{fill:#FEFFFD;}
	.st46{opacity:0.35;fill:#32775B;}
	.st47{fill:#43334E;}
	.st48{fill:none;stroke:#EAE8F3;stroke-width:0.25;stroke-linecap:round;stroke-linejoin:round;stroke-miterlimit:10;}
	.st49{fill:none;stroke:#FBC32E;stroke-width:0.5;stroke-linecap:round;stroke-linejoin:round;stroke-miterlimit:10;}
	.st50{fill:none;stroke:#161718;stroke-width:0.5;stroke-linecap:round;stroke-linejoin:round;stroke-miterlimit:10;}
	.st51{fill:none;stroke:#40304A;stroke-linecap:round;stroke-linejoin:round;stroke-miterlimit:10;}
	.st52{opacity:0.33;fill:#FBC32E;}
	.st53{fill:#A6A3AE;}
	.st54{fill:#5B4B68;}
	.st55{fill:#776688;}
	.st56{fill:none;stroke:#FBC32E;stroke-width:0.5;stroke-miterlimit:10;}
	.st57{fill:none;stroke:#EAE8F3;stroke-linecap:round;stroke-linejoin:round;stroke-miterlimit:10;}
	.st58{fill:none;stroke:#203881;stroke-width:2;stroke-linecap:round;stroke-linejoin:round;stroke-miterlimit:10;}
	.st59{fill:none;stroke:#40304A;stroke-width:2;stroke-linecap:round;stroke-linejoin:round;stroke-miterlimit:10;}
	.st60{fill:#FFD8B7;}
	.st61{fill:#F4E4D4;}
	.st62{fill:none;stroke:#4456D6;stroke-width:0.5;stroke-linecap:round;stroke-linejoin:round;stroke-miterlimit:10;}
	.st63{fill:none;stroke:#DDA103;stroke-width:0.25;stroke-miterlimit:10;}
	.st64{fill:none;stroke:#FFFFFF;stroke-width:0.5;stroke-linecap:round;stroke-linejoin:round;stroke-miterlimit:10;}
	.st65{fill:none;stroke:#64B48D;stroke-width:0.5;stroke-linecap:round;stroke-linejoin:round;stroke-miterlimit:10;}
	.st66{fill:none;stroke:#64B48D;stroke-linecap:round;stroke-linejoin:round;stroke-miterlimit:10;}
	.st67{opacity:0.48;fill:#64B48D;}
	.st68{fill:none;stroke:#64B48D;stroke-width:0.25;stroke-linecap:round;stroke-linejoin:round;stroke-miterlimit:10;}
	.st69{fill:none;stroke:#F06449;stroke-width:2;stroke-linecap:round;stroke-linejoin:round;stroke-miterlimit:10;}
	.st70{opacity:0.92;fill:#64B48D;}
	.st71{opacity:0.57;fill:#408A6F;}
	.st72{opacity:0.36;fill:#408A6F;}
	.st73{fill:none;stroke:#BE412D;stroke-width:2;stroke-linecap:round;stroke-linejoin:round;stroke-miterlimit:10;}
	.st74{opacity:0.65;fill:none;stroke:#408A6F;stroke-width:0.25;stroke-linecap:round;stroke-linejoin:round;stroke-miterlimit:10;}
	.st75{opacity:0.67;fill:none;stroke:#64B48D;stroke-width:0.25;stroke-linecap:round;stroke-linejoin:round;stroke-miterlimit:10;}
	.st76{opacity:0.98;fill:#64B48D;}
	.st77{opacity:0.48;fill:#FFFFFF;}
	.st78{font-family:'MyriadPro-Regular';}
	.st79{font-size:5.6657px;}
	.st80{fill:none;stroke:#408A6F;stroke-width:0.25;stroke-linecap:round;stroke-linejoin:round;stroke-miterlimit:10;}
	.st81{fill:none;stroke:#FFD9B2;stroke-width:0.5;stroke-linecap:round;stroke-linejoin:round;}
	
		.st82{fill:none;stroke:#FFD9B2;stroke-width:0.5;stroke-linecap:round;stroke-linejoin:round;stroke-dasharray:4.0333505,4.0333505;}
	.st83{fill:#E68B4A;}
	.st84{opacity:0.62;fill:#64B48D;}
	.st85{fill:none;stroke:#FBC32E;stroke-width:0.25;stroke-miterlimit:10;}
	.st86{font-size:5.4271002px;}
	.st87{font-size:4.7446299px;}
	.st88{fill:none;stroke:#4456D6;stroke-linecap:round;stroke-linejoin:round;stroke-miterlimit:10;}
	.st89{fill:none;stroke:#E68B4A;stroke-width:0.5;stroke-linecap:round;stroke-linejoin:round;stroke-miterlimit:10;}
	.st90{fill:none;stroke:#203881;stroke-width:0.5;stroke-linecap:round;stroke-linejoin:round;stroke-miterlimit:10;}
	.st91{opacity:0.29;fill:#EAE8F3;}
	.st92{fill:none;stroke:#A6A3AE;stroke-width:0.5;stroke-linecap:round;stroke-linejoin:round;stroke-miterlimit:10;}
	.st93{opacity:0.74;fill:#FFFFFF;}
	.st94{opacity:0.19;fill:#FFFFFF;}
	.st95{fill:none;stroke:#40304A;stroke-width:0.25;stroke-linecap:round;stroke-linejoin:round;stroke-miterlimit:10;}
	.st96{fill:none;stroke:#F34B4B;stroke-width:2;stroke-linecap:round;stroke-linejoin:round;stroke-miterlimit:10;}
	.st97{fill:none;stroke:#43334E;stroke-width:0.5;stroke-linecap:round;stroke-linejoin:round;stroke-miterlimit:10;}
	.st98{fill:none;stroke:#6582FC;stroke-miterlimit:10;}
	.st99{opacity:0.47;fill:#A6A3AE;}
	.st100{opacity:0.43;fill:#FFFFFF;}
	.st101{fill:none;stroke:#FBE6BB;stroke-linecap:round;stroke-linejoin:round;stroke-miterlimit:10;}
	.st102{fill:none;stroke:#5B4B68;stroke-width:0.5;stroke-linecap:round;stroke-linejoin:round;stroke-miterlimit:10;}
	.st103{fill:none;stroke:#40304A;stroke-width:0.5;stroke-linecap:round;stroke-linejoin:round;stroke-miterlimit:10;}
	.st104{fill:none;stroke:#DDA103;stroke-linecap:round;stroke-linejoin:round;stroke-miterlimit:10;}
	.st105{fill:none;stroke:#FBC32E;stroke-linecap:round;stroke-linejoin:round;stroke-miterlimit:10;}
	.st106{fill:none;stroke:#32775B;stroke-width:0.5;stroke-linecap:round;stroke-linejoin:round;stroke-miterlimit:10;}
	.st107{opacity:0.4;fill:#FBE6BB;}
	.st108{fill:none;stroke:#FBC32E;stroke-width:0.25;stroke-linecap:round;stroke-linejoin:round;stroke-miterlimit:10;}
	.st109{fill:none;stroke:#4456D6;stroke-miterlimit:10;}
	.st110{opacity:0.61;fill:#64B48D;}
	.st111{opacity:0.9;fill:#64B48D;}
	.st112{opacity:0.76;fill:#64B48D;}
	.st113{fill:none;stroke:#5B4B68;stroke-width:0.5;stroke-miterlimit:10;}
	.st114{opacity:0.66;fill:#A6A3AE;}
	.st115{fill:none;stroke:#43334E;stroke-miterlimit:10;}
	.st116{opacity:0.52;fill:#6582FC;}
	.st117{fill:none;stroke:#DDA103;stroke-width:0.5;stroke-linecap:round;stroke-linejoin:round;stroke-miterlimit:10;}
	.st118{fill:#46724E;}
	.st119{fill:#FE8B2E;}
	.st120{fill:none;stroke:#7D4C47;stroke-width:2;stroke-linecap:round;stroke-linejoin:round;stroke-miterlimit:10;}
	.st121{opacity:0.4;fill:#EAE8F3;}
	.st122{fill:none;stroke:#EAE8F3;stroke-width:0.5;stroke-linecap:round;stroke-miterlimit:10;}
	.st123{fill:none;stroke:#4456D6;stroke-width:0.25;stroke-linecap:round;stroke-linejoin:round;stroke-miterlimit:10;}
	.st124{opacity:0.5;fill:#EAE8F3;}
	.st125{opacity:0.46;fill:#A6A3AE;}
	.st126{fill:#E0916E;}
	.st127{fill:none;stroke:#A0665A;stroke-linecap:round;stroke-linejoin:round;stroke-miterlimit:10;}
	.st128{opacity:0.46;fill:#BE412D;}
	.st129{fill:none;stroke:#203881;stroke-linecap:round;stroke-linejoin:round;stroke-miterlimit:10;}
	.st130{fill:#DBDBE1;}
	.st131{fill:none;stroke:#6582FC;stroke-width:0.5;stroke-linecap:round;stroke-linejoin:round;stroke-miterlimit:10;}
	.st132{opacity:0.53;fill:#A6A3AE;}
	.st133{fill:none;stroke:#DDA103;stroke-miterlimit:10;}
	.st134{opacity:0.2;fill:#FFFFFF;}
	.st135{fill:#B4A1BF;}
	.st136{opacity:0.5;fill:#6582FC;}
	.st137{opacity:0.6;fill:none;stroke:#FFFFFF;stroke-linecap:round;stroke-linejoin:round;stroke-miterlimit:10;}
	.st138{opacity:0.6;fill:none;stroke:#FFFFFF;stroke-width:2;stroke-linecap:round;stroke-linejoin:round;stroke-miterlimit:10;}
	.st139{opacity:0.54;fill:#A6A3AE;}
	.st140{fill:#161718;stroke:#000000;stroke-width:0.25;stroke-miterlimit:10;}
</style>
<g id="_x32_9">
	<g>
		<g>
			<path class="st14" d="M106.2190247,114.4778671c-0.023819,4.1458664-2.1382217,7.789566-5.3368149,9.9462891
				c-0.2665405,0.1771927-0.5432358,0.3440781-0.8248901,0.5058517c-1.2653656,0.7126846-2.672287,1.1998596-4.1694031,1.4159164
				c0.0404434,0.0768356,0.0707855,0.1331711,0.0707855,0.1331711l-1.7104416-0.0149384l-0.3522644-0.0020218
				c-0.0511398,0.0048141-0.1072006-0.000618-0.1582794-0.0060196c-2.0317535-0.0678329-3.9381943-0.640419-5.5971222-1.5945663
				c-0.2800598-0.1598892-0.5495834-0.3299103-0.8140411-0.5152664c-1.1544952-0.7929306-2.1649933-1.7841721-2.9804688-2.9172745
				c-0.1214371-0.1691666-0.2329102-0.3383102-0.3443451-0.5125656c-0.5767441-0.8968506-1.0358734-1.8695908-1.3567581-2.9079514
				c-0.0551224-0.1688232-0.1052628-0.3375778-0.1451569-0.5114212c-0.2499771-0.9256058-0.3872528-1.8965302-0.4019165-2.9024658
				c-0.0045166-0.0817032-0.0040207-0.1685257-0.0035248-0.2553177c0.0005035-0.0867844,0.0009689-0.1684952,0.0064545-0.2552567
				c0.0261917-1.000618,0.169632-1.969902,0.4302292-2.8925705c0.0468674-0.1733475,0.093956-0.3415833,0.1510162-0.5097275
				c0.3327942-1.0345993,0.8028183-2.0020065,1.3900757-2.8921661c0.1131821-0.172966,0.2318497-0.3459015,0.3552017-0.5085526
				c0.8284607-1.1287689,1.8450241-2.1032562,3.0035629-2.8829269c0.2665634-0.1822815,0.5432663-0.3491592,0.8248901-0.5058594
				c1.7621231-0.9957275,3.8027191-1.5558624,5.9726639-1.543396c0.0712967,0.000412,0.1428452,0.0008163,0.2143707,0.00634
				c0.0000305-0.0051117,0.0000305-0.0051117,0.0000305-0.0051117l1.3631897,0.0078354l0.0402451,0.1125412
				c1.5611801,0.2183304,3.0236893,0.7322083,4.331459,1.4902802c0.279808,0.1599197,0.5495834,0.3299408,0.8140411,0.5152664
				C104.1704636,106.6591721,106.2428436,110.3320084,106.2190247,114.4778671z"/>
			<g>
				<g>
					<path class="st15" d="M100.9918137,104.4759827l-13.5608902-0.0778961
						c0.2665634-0.1822815,0.5432663-0.3491592,0.8248901-0.5058594l11.9219589,0.0684891
						C100.4575806,104.120636,100.727356,104.290657,100.9918137,104.4759827z"/>
				</g>
				<g>
					<path class="st15" d="M101.832756,107.3809967l-0.0029297,0.5105743l-17.7576675-0.102005
						c0.1131821-0.172966,0.2318497-0.3459015,0.3552017-0.5085526L101.832756,107.3809967z"/>
				</g>
				<g>
					<path class="st15" d="M101.8131638,110.7916336l-0.0029297,0.5105743l-19.2791672-0.1107483
						c0.0468674-0.1733475,0.093956-0.3415833,0.1510162-0.5097275L101.8131638,110.7916336z"/>
				</g>
				<g>
					<path class="st15" d="M101.793602,114.1971512l-0.0029297,0.5105743l-19.6927643-0.113121
						c-0.0045166-0.0817032-0.0040207-0.1685257-0.0035248-0.2553177c0.0005035-0.0867844,0.0009689-0.1684952,0.0064545-0.2552567
						L101.793602,114.1971512z"/>
				</g>
				<g>
					<path class="st15" d="M101.7740097,117.6077881l-0.0029297,0.5105743l-19.1260986-0.1098709
						c-0.0551224-0.1688232-0.1052628-0.3375778-0.1451569-0.5114212L101.7740097,117.6077881z"/>
				</g>
				<g>
					<path class="st15" d="M101.7544174,121.0184174l-0.0029297,0.5105743l-17.4054031-0.0999832
						c-0.1214371-0.1691666-0.2329102-0.3383102-0.3443451-0.5125656L101.7544174,121.0184174z"/>
				</g>
				<g>
					<path class="st15" d="M100.8822098,124.4241562c-0.2665405,0.1771927-0.5432358,0.3440781-0.8248901,0.5058517
						l-11.9167252-0.0684586c-0.2800598-0.1598892-0.5495834-0.3299103-0.8140411-0.5152664L100.8822098,124.4241562z"/>
				</g>
			</g>
			<path class="st15" d="M94.2460251,126.466507c-0.0511322,0.0048141-0.1072311,0.0044937-0.1583328,0.0041962
				c-0.0663223-0.0003815-0.1276474-0.0007324-0.1939316-0.0062256L94.2460251,126.466507z"/>
			<circle class="st15" cx="96.1129074" cy="114.4220428" r="12.0610104"/>
			<circle class="st63" cx="96.1129074" cy="114.4220428" r="10.3382149"/>
			<path class="st15" d="M93.8937607,126.4644775l-0.1583099-0.0009079l0.0000305-0.0051117
				C93.7865601,126.4638672,93.8426208,126.4692993,93.8937607,126.4644775z"/>
			<path class="st14" d="M99.7471619,116.9399414c-0.0088654,1.542572-1.0899658,2.983757-3.1041565,3.3023071l-0.0116653,2.031395
				l-1.2314911-0.0070724l0.0113373-1.9742432c-1.1300201-0.0255585-2.3023148-0.3814392-2.9787979-0.8741531l0.4709091-1.3050461
				l0.5587082,0.003212c0,0,0.0118027,0.1587753,0.0171661,0.3302231c0.6330948,0.3019867,1.4126968,0.5159683,2.2316208,0.5206757
				c1.3901978,0.0079803,2.3279419-0.7865219,2.3343201-1.897438c0.0061646-1.0728226-0.7517471-1.7437439-2.189415-2.3360291
				c-1.9888992-0.7922897-3.2152176-1.7007828-3.2054443-3.4020691c0.0093002-1.6187515,1.1717682-2.8436432,2.9698486-3.125351
				l0.0113068-1.9678879l1.2062302,0.0069275l-0.0108719,1.891716c1.1740875,0.044838,1.9723206,0.3604813,2.5352936,0.7001953
				l-0.219101,0.5573883c0.0940781,0.216362,0.281601,0.7316513,0.281601,0.7316513l-0.5587158-0.003212
				c-0.4048615-0.2372055-1.2022476-0.6734695-2.4527969-0.6806488c-1.50457-0.0086441-2.0748138,0.8895264-2.0792999,1.6703644
				c-0.0058365,1.0156784,0.7150192,1.5276794,2.4058914,2.2357254
				C98.7473831,114.1790161,99.7571487,115.2005692,99.7471619,116.9399414z"/>
			<path class="st17" d="M95.9583969,122.2701645l0.0113297-1.9723053c-1.1324997-0.0260315-2.3021469-0.3842621-2.982811-0.8763885
				l0.476181-1.3056641c0.7003098,0.472702,1.713623,0.8495636,2.8071747,0.8558426
				c1.3864746,0.0079651,2.3284073-0.7872849,2.3348007-1.9003754c0.0061722-1.074028-0.7515945-1.7423477-2.1932907-2.3364792
				c-1.9873428-0.7925568-3.2124329-1.6978989-3.2026749-3.3968201c0.0093079-1.6208038,1.1685181-2.8444366,2.9667587-3.1270294
				l0.0113297-1.9723129l1.2107162,0.006958l-0.0108795,1.8941956c1.1714478,0.045784,1.9702911,0.3628311,2.5346909,0.6980591
				l-0.4955978,1.286026c-0.4087372-0.2366867-1.2069092-0.6708984-2.4566879-0.6780777
				c-1.5036392-0.0086365-2.0751114,0.8863831-2.0795975,1.6674957c-0.0058289,1.0154495,0.7137833,1.5273209,2.4086609,2.2400818
				c2.0066528,0.8317184,3.0162582,1.8529968,3.006279,3.5909729c-0.0088654,1.5426941-1.0911942,2.9815826-3.1044617,3.302002
				l-0.0116653,2.0308838L95.9583969,122.2701645z"/>
		</g>
		<path class="st29" d="M95.9229202,74.2900543l-0.1500473,4.23069c0,0-62.8571663,5.3802185-63.3418121,4.6453476
			c-0.4846439-0.7348709-6.246891-11.139061-6.246891-11.139061s0.9465675-4.4174042,1.2133617-4.3750992
			c0.2667961,0.0422974,63.0767441,0.1278915,63.0767441,0.1278915c0.70755,0.3674622,1.4195862,0.5596085,2.1369476,0.9075394
			c0.7776566,0.3771744,1.5672379,0.7623062,2.2055511,1.3450317c0.6383209,0.5827179,1.1155777,1.4015274,1.0861588,2.2653198"/>
		<path class="st10" d="M95.9077301,74.5484467c0,0,0.7458344-6.3503036-7.6966705-5.426384
			s-54.4520111-0.5118484-54.4520111-0.5118484s-6.5559711-0.5463867-4.8275909,3.005455s15.5052948,3.5607529,15.5052948,3.5607529
			l49.3525772,0.1093903c0,0,4.9448547-0.0861588,5.5489578,5.4339371l-2.0785141,40.3672638
			c0,0-0.3824768,6.4369278-6.9091263,6.6203613l-60.9617996,1.211647c0,0-6.2374802-0.1768188-7.7708492-5.8732605
			l0.0676346-49.2721786c0,0,0.3886929-6.8420334,6.2428284-8.0893402s61.1487999-0.1957474,61.1487999-0.1957474
			S98.4856262,65.3922653,95.9077301,74.5484467z"/>
		<path class="st6" d="M37.9856491,74.4107208c0,0-3.7091217-13.1938667-23.9856491-11.3145447l11.9928246-21.6117783
			c0,0,33.5046272,5.1409225,27.5087624,32.5525208L37.9856491,74.4107208z"/>
		<path class="st76" d="M37.9856491,74.4107208c0,0-3.7091217-13.1938667-23.9856491-11.3145447l11.9928246-21.6117783
			c0,0,33.5046272,5.1409225,27.5087624,32.5525208L37.9856491,74.4107208z"/>
		
			<ellipse transform="matrix(0.5594147 -0.8288879 0.8288879 0.5594147 -31.1221809 57.527668)" class="st24" cx="38.5532799" cy="58.0394363" rx="3.1793456" ry="4.5497684"/>
		<text transform="matrix(0.7221699 0.6917101 -0.6917101 0.7221699 36.0521507 58.2019348)" class="st77 st78 st79">$</text>
		
			<ellipse transform="matrix(0.9818872 -0.1894665 0.1894665 0.9818872 -9.5777273 6.4467325)" class="st24" cx="28.9286957" cy="53.3165894" rx="2.7624142" ry="2.2106507"/>
		<path class="st80" d="M39.2038002,72.5878906c-1.4790573-3.2965164-6.6333122-11.4682007-21.3754826-11.4682007
			c-0.2263336,0-0.4544201,0.0021896-0.6842575,0.0061302l9.7860146-17.6348343
			c3.8735161,0.8287239,16.0531178,4.05476,22.044199,12.7964401c3.0787163,4.4921036,4.1005058,9.8663445,3.0447884,15.9913902
			L39.2038002,72.5878906z"/>
		<g>
			<path class="st14" d="M51.8275528,69.6277695c-0.0200844,3.4962234-1.8031731,6.5689774-4.5005646,8.3877487
				c-0.2247696,0.1494293-0.4581108,0.2901611-0.6956329,0.42659c-1.0670891,0.6010056-2.2535553,1.0118484-3.5160789,1.1940536
				c0.034111,0.0647964,0.0596962,0.1122971,0.0596962,0.1122971l-1.4424248-0.0125961l-0.2970695-0.0017014
				c-0.0431213,0.0040588-0.0904007-0.0005264-0.1334763-0.0050812c-1.7133865-0.0571976-3.3210983-0.5400696-4.7200813-1.344696
				c-0.2361717-0.1348419-0.4634666-0.2782211-0.6864815-0.4345322c-0.9735909-0.6686783-1.8257523-1.5046005-2.5134468-2.4601517
				c-0.1024094-0.142662-0.1964111-0.2853012-0.29039-0.432251c-0.4863701-0.7563171-0.8735542-1.5766373-1.1441574-2.4522858
				c-0.0464878-0.1423721-0.0887699-0.2846832-0.1224098-0.4312897c-0.2108078-0.780571-0.3265743-1.59935-0.3389416-2.4476624
				c-0.003809-0.0689011-0.0033894-0.1421204-0.0029678-0.2153091c0.0004196-0.0731888,0.0008163-0.1420975,0.0054417-0.2152634
				c0.0220871-0.8438263,0.1430473-1.6612244,0.3628101-2.4393158c0.0395241-0.1461868,0.0792351-0.2880554,0.1273556-0.4298553
				c0.2806435-0.8724823,0.677021-1.6883011,1.1722565-2.4389801c0.0954475-0.1458626,0.1955223-0.2916985,0.2995415-0.4288635
				c0.6986504-0.9518967,1.5559196-1.7736855,2.5329247-2.4311905c0.2247963-0.1537132,0.4581375-0.294445,0.6956329-0.4265862
				c1.4860077-0.8397026,3.206852-1.3120689,5.0367737-1.3015594c0.0601273,0.0003471,0.1204681,0.0006943,0.1807823,0.0053482
				c0.0000229-0.0043106,0.0000229-0.0043106,0.0000229-0.0043106l1.1495895,0.0066071l0.0339355,0.0949097
				c1.316555,0.1841164,2.5498924,0.6174774,3.6527443,1.2567558c0.2359619,0.134861,0.4634666,0.278244,0.6864815,0.4345284
				C50.0999908,63.0342255,51.8476372,66.131546,51.8275528,69.6277695z"/>
			<g>
				<g>
					<path class="st15" d="M47.4194183,61.1931267l-11.4359627-0.0656929
						c0.2247963-0.1537132,0.4581375-0.294445,0.6956329-0.4265862l10.0538483,0.0577507
						C46.9688988,60.8934593,47.1964035,61.0368423,47.4194183,61.1931267z"/>
				</g>
				<g>
					<path class="st15" d="M48.1285934,63.6429405l-0.0024757,0.4305687l-14.9751282-0.0860214
						c0.0954475-0.1458626,0.1955223-0.2916985,0.2995415-0.4288635L48.1285934,63.6429405z"/>
				</g>
				<g>
					<path class="st15" d="M48.1120682,66.5191422l-0.0024719,0.4305725l-16.2582188-0.0933914
						c0.0395241-0.1461868,0.0792351-0.2880554,0.1273556-0.4298553L48.1120682,66.5191422z"/>
				</g>
				<g>
					<path class="st15" d="M48.0955734,69.391037l-0.0024757,0.4305725l-16.6070042-0.0953979
						c-0.003809-0.0689011-0.0033894-0.1421204-0.0029678-0.2153091c0.0004196-0.0731888,0.0008163-0.1420975,0.0054417-0.2152634
						L48.0955734,69.391037z"/>
				</g>
				<g>
					<path class="st15" d="M48.079052,72.2672424l-0.0024757,0.4305725l-16.1291313-0.0926514
						c-0.0464878-0.1423721-0.0887699-0.2846832-0.1224098-0.4312897L48.079052,72.2672424z"/>
				</g>
				<g>
					<path class="st15" d="M48.0625267,75.1434479l-0.0024719,0.4305725l-14.6780624-0.0843201
						c-0.1024094-0.142662-0.1964111-0.2853012-0.29039-0.432251L48.0625267,75.1434479z"/>
				</g>
				<g>
					<path class="st15" d="M47.3269882,78.0155182c-0.2247696,0.1494293-0.4581108,0.2901611-0.6956329,0.42659
						l-10.0494347-0.057724c-0.2361717-0.1348419-0.4634666-0.2782211-0.6864815-0.4345322L47.3269882,78.0155182z"/>
				</g>
			</g>
			<path class="st15" d="M41.7306633,79.7378464c-0.0431252,0.0040588-0.0904274,0.0037918-0.1335258,0.00354
				c-0.0559235-0.0003204-0.1076431-0.000618-0.1635437-0.005249L41.7306633,79.7378464z"/>
			<circle class="st15" cx="43.3050117" cy="69.5806885" r="10.1711102"/>
			<circle class="st63" cx="43.3050117" cy="69.5806885" r="8.7182684"/>
			<path class="st15" d="M41.4335938,79.7361374l-0.1334991-0.0007706l0.0000229-0.004303
				C41.3431931,79.7356186,41.3904724,79.7401962,41.4335938,79.7361374z"/>
			<path class="st14" d="M46.3697968,71.7040405c-0.007473,1.3008652-0.9191742,2.5162201-2.6177483,2.7848587l-0.0098419,1.713089
				l-1.0385208-0.0059662l0.0095634-1.6648941c-0.9529533-0.021553-1.941555-0.3216705-2.5120354-0.737175l0.3971214-1.1005478
				l0.4711609,0.0027008c0,0,0.0099487,0.1338959,0.0144768,0.2784805c0.5338936,0.2546692,1.1913338,0.4351196,1.8819389,0.4390869
				c1.1723557,0.0067368,1.9631615-0.6632767,1.9685402-1.6001129c0.0051994-0.9047241-0.6339493-1.4705048-1.8463478-1.969986
				c-1.6772461-0.6681442-2.7114029-1.4342804-2.7031631-2.8689804c0.007843-1.3651047,0.9881592-2.3980637,2.5044899-2.6356277
				l0.0095329-1.6595268l1.0172157,0.0058403l-0.0091629,1.5952911c0.9901085,0.0378113,1.6632652,0.3039932,2.1380272,0.590477
				l-0.1847687,0.4700546c0.0793343,0.182457,0.2374687,0.6170044,0.2374687,0.6170044l-0.4711647-0.0027084
				c-0.3414192-0.2000427-1.0138588-0.5679398-2.0684547-0.5739975c-1.2688103-0.0072937-1.7497025,0.750145-1.7534828,1.4086304
				c-0.004921,0.8565216,0.6029739,1.2882919,2.0289001,1.8853912C45.52668,69.3757477,46.3782234,70.2372284,46.3697968,71.7040405
				z"/>
			<path class="st17" d="M43.1747169,76.1990509l0.0095558-1.6632538c-0.9550438-0.0219574-1.9414139-0.3240509-2.5154228-0.7390594
				l0.4015656-1.1010818c0.5905724,0.3986359,1.4451065,0.7164459,2.3673058,0.7217407
				c1.16922,0.0067215,1.9635582-0.6639252,1.9689522-1.6025925c0.0051994-0.9057312-0.633831-1.4693298-1.849617-1.9703674
				c-1.6759377-0.6683655-2.7090645-1.4318466-2.7008324-2.8645554c0.0078506-1.3668365,0.9854164-2.3987274,2.5018806-2.6370468
				l0.009552-1.6632538l1.0210114,0.005867l-0.0091782,1.5973816c0.9878845,0.0386124,1.6615524,0.3059769,2.137516,0.5886765
				l-0.417942,1.0845108c-0.3446884-0.1996002-1.0177917-0.565773-2.0717354-0.5718231
				c-1.2680283-0.0072861-1.7499504,0.7474976-1.7537308,1.4062119c-0.004921,0.8563309,0.6019325,1.2879944,2.0312309,1.8890686
				c1.6922188,0.7013931,2.5436287,1.562645,2.5352097,3.0282822c-0.007473,1.3009644-0.9202042,2.5143814-2.6180077,2.7845917
				l-0.0098381,1.7126617L43.1747169,76.1990509z"/>
		</g>
		<path class="st6" d="M85.23909,60.4258118c0,0-13.3014297,6.4619522-15.5314941,21.765274l-16.453476-10.6939011
			c0,0,2.4847107-8.3847427,8.402317-13.3628998c2.0281448-1.7120781,4.4689674-3.0202675,7.3487282-3.459259l13.6702271,4.846489
			L85.23909,60.4258118z"/>
		<path class="st67" d="M85.2352982,60.4229546c0,0-1.6675186,0.8068924-3.9179459,2.5283165
			c-4.1062012,3.1470108-10.1673279,9.3514023-11.6107025,19.2406769L53.2542725,71.4957275
			c0,0,0.4036369-1.3807144,1.2910271-3.3532104c1.2912445-2.8870239,3.5955238-7.047123,7.1100578-10.0058899
			c2.0262833-1.7124481,4.473938-3.0214806,7.3519287-3.4607964l13.6639099,4.841568L85.2352982,60.4229546z"/>
		<path class="st76" d="M85.2352982,60.4229546c0,0-1.6675186,0.8068924-3.9179459,2.5283165
			c-4.1062012,3.1470108-10.1673279,9.3514023-11.6107025,19.2406769L53.2542725,71.4957275
			c0,0,0.4036369-1.3807144,1.2910271-3.3532104c1.2912445-2.8870239,3.5955238-7.047123,7.1100578-10.0058899
			c2.0262833-1.7124481,4.473938-3.0214806,7.3519287-3.4607964l13.6639099,4.841568L85.2352982,60.4229546z"/>
		<path class="st24" d="M81.3173523,62.9512711c-4.1062012,3.1470108-10.1673279,9.3514023-11.6107025,19.2406769
			L53.2542725,71.4957275c0,0,0.4036369-1.3807144,1.2910271-3.3532104
			c2.2235069-0.2151718,7.6209488-0.4124451,13.359211,1.6766052
			C67.9045105,69.8191223,69.4466019,61.0415459,81.3173523,62.9512711z"/>
		<path class="st80" d="M55.4088287,70.7592621c0.9112473-2.4139404,3.2833824-7.7877426,7.4020576-11.2528076
			c1.8651848-1.5747108,3.8930016-2.5772362,6.0355186-2.9852524l12.2645264,4.3480759
			c-3.9833984,2.8350906-10.3673935,8.7092819-12.6624756,18.3650589L55.4088287,70.7592621z"/>
		<g>
			<path class="st14" d="M89.9965134,74.4016571c-0.0221863,3.8621674-1.9919052,7.2565384-4.9716263,9.2656708
				c-0.2482986,0.1650696-0.5060577,0.3205338-0.7684402,0.4712372c-1.1787796,0.6639175-2.4894257,1.1177597-3.8840942,1.3190308
				c0.037674,0.071579,0.0659409,0.124054,0.0659409,0.124054l-1.593399-0.013916l-0.3281631-0.0018845
				c-0.0476379,0.0044937-0.0998688-0.0005722-0.1474457-0.0056076c-1.8927231-0.0631866-3.6687164-0.5965958-5.214119-1.4854431
				c-0.2608948-0.1489487-0.5119781-0.3073349-0.7583389-0.480011c-1.0754929-0.7386703-2.0168457-1.6620865-2.7765198-2.7176514
				c-0.1131287-0.1575928-0.2169724-0.3151627-0.3207855-0.4774933c-0.5372772-0.8354797-0.9649887-1.7416534-1.263916-2.7089615
				c-0.0513535-0.1572647-0.0980606-0.3144836-0.1352158-0.4764252c-0.232872-0.8622742-0.3607635-1.7667542-0.3744202-2.7038574
				c-0.0042114-0.0761108-0.003746-0.1569901-0.0032806-0.2378464c0.0004654-0.0808487,0.0009003-0.1569672,0.006012-0.2377853
				c0.0243988-0.9321518,0.15802-1.8351059,0.4007874-2.6946411c0.0436554-0.1614838,0.0875244-0.3182068,0.140686-0.4748459
				c0.3100128-0.9638062,0.747879-1.8650131,1.2949524-2.6942596c0.1054382-0.1611328,0.2159882-0.3222275,0.3308945-0.4737549
				c0.7717743-1.0515289,1.7187729-1.9593277,2.7980347-2.6856537c0.2483292-0.1697998,0.5060883-0.325264,0.7684402-0.4712372
				c1.6415482-0.9275932,3.542511-1.4494019,5.5639648-1.4377899c0.0664215,0.0003815,0.1330719,0.0007668,0.1996994,0.005909
				c0.0000305-0.0047607,0.0000305-0.0047607,0.0000305-0.0047607l1.2699127,0.0072937l0.0374832,0.104847
				c1.454361,0.2033882,2.8167877,0.682106,4.0350723,1.388298c0.2606583,0.1489792,0.5119781,0.3073654,0.7583313,0.480011
				C88.0881348,67.117981,90.0186996,70.5394897,89.9965134,74.4016571z"/>
			<g>
				<g>
					<path class="st15" d="M85.1269913,65.0841827l-12.6329346-0.0725708
						c0.2483292-0.1697998,0.5060883-0.325264,0.7684402-0.4712372l11.106163,0.063797
						C84.6293182,64.7531509,84.8806381,64.9115372,85.1269913,65.0841827z"/>
				</g>
				<g>
					<path class="st15" d="M85.9103928,67.7904129l-0.0027313,0.4756317l-16.5425339-0.0950241
						c0.1054382-0.1611328,0.2159882-0.3222275,0.3308945-0.4737549L85.9103928,67.7904129z"/>
				</g>
				<g>
					<path class="st15" d="M85.8921432,70.967659l-0.0027313,0.4756393L67.9294891,71.340126
						c0.0436554-0.1614838,0.0875244-0.3182068,0.140686-0.4748459L85.8921432,70.967659z"/>
				</g>
				<g>
					<path class="st15" d="M85.8739166,74.1401443l-0.0027313,0.4756393l-18.3452148-0.1053848
						c-0.0042114-0.0761108-0.003746-0.1569901-0.0032806-0.2378464c0.0004654-0.0808487,0.0009003-0.1569672,0.006012-0.2377853
						L85.8739166,74.1401443z"/>
				</g>
				<g>
					<path class="st15" d="M85.8556671,77.3173981l-0.0027313,0.4756317l-17.8173294-0.1023483
						c-0.0513535-0.1572647-0.0980606-0.3144836-0.1352158-0.4764252L85.8556671,77.3173981z"/>
				</g>
				<g>
					<path class="st15" d="M85.8374176,80.4946442l-0.0027313,0.4756393l-16.2143784-0.0931473
						c-0.1131287-0.1575928-0.2169724-0.3151627-0.3207855-0.4774933L85.8374176,80.4946442z"/>
				</g>
				<g>
					<path class="st15" d="M85.0248871,83.6673279c-0.2482986,0.1650696-0.5060577,0.3205338-0.7684402,0.4712372
						l-11.1012802-0.0637665c-0.2608948-0.1489487-0.5119781-0.3073349-0.7583389-0.480011L85.0248871,83.6673279z"/>
				</g>
			</g>
			<path class="st15" d="M78.8428116,85.5699234c-0.0476379,0.0044861-0.0998917,0.0041885-0.1474991,0.0039139
				c-0.0617828-0.000351-0.1189117-0.000679-0.1806641-0.0057983L78.8428116,85.5699234z"/>
			<circle class="st15" cx="80.5819397" cy="74.3496475" r="11.2356939"/>
			<circle class="st63" cx="80.5819397" cy="74.3496475" r="9.6307869"/>
			<path class="st15" d="M78.5146484,85.5680389l-0.1474762-0.0008469l0.0000305-0.0047607
				C78.4147873,85.5674667,78.4670105,85.572525,78.5146484,85.5680389z"/>
			<path class="st14" d="M83.9675064,76.6952438c-0.008255,1.437027-1.0153732,2.7795868-2.8917389,3.0763397l-0.0108719,1.892395
				l-1.1472168-0.0065918l0.0105667-1.8391495c-1.0527039-0.0238113-2.1447754-0.3553391-2.774971-0.8143387l0.4386902-1.2157364
				l0.5204773,0.0029907c0,0,0.010994,0.1479034,0.0159912,0.3076248c0.5897751,0.2813187,1.3160248,0.4806595,2.0789185,0.4850464
				c1.2950592,0.0074387,2.1686401-0.7327042,2.1745834-1.767601c0.0057373-0.9994125-0.7003098-1.6244202-2.0396042-2.176178
				c-1.8527985-0.7380753-2.9952011-1.584404-2.9860916-3.1692657c0.0086594-1.507988,1.0915833-2.6490631,2.7666245-2.9114914
				l0.0105286-1.8332291l1.1236877,0.0064545l-0.0101242,1.7622681c1.0937424,0.0417633,1.8373566,0.3358154,2.3618088,0.6522751
				l-0.2041092,0.5192566c0.0876389,0.2015533,0.2623291,0.6815796,0.2623291,0.6815796l-0.5204773-0.0029907
				c-0.3771591-0.2209778-1.1199799-0.6273804-2.2849579-0.6340714c-1.401619-0.0080566-1.9328384,0.8286591-1.9370193,1.5560684
				c-0.0054321,0.9461746,0.6660919,1.4231339,2.2412643,2.0827332
				C83.0361481,74.1232529,83.9768143,75.0748978,83.9675064,76.6952438z"/>
			<path class="st17" d="M80.4380112,81.6607361l0.0105515-1.8373489c-1.0550003-0.0242462-2.1446152-0.3579636-2.7787018-0.8164139
				l0.4435959-1.2163239c0.6523895,0.440361,1.5963593,0.7914352,2.6150894,0.797287
				c1.2915955,0.0074158,2.169075-0.7334213,2.1750336-1.77034c0.0057449-1.0005341-0.7001724-1.6231232-2.0432129-2.1765976
				c-1.8513565-0.7383194-2.9926147-1.5817184-2.9835205-3.1643753c0.0086746-1.509903,1.0885544-2.6498032,2.7637482-2.913063
				l0.0105515-1.8373413l1.1278763,0.0064774l-0.0101395,1.7645798c1.0912857,0.0426559,1.8354645,0.3380051,2.3612442,0.6502914
				l-0.4616852,1.1980286c-0.3807678-0.2204971-1.124321-0.6249924-2.2885818-0.6316833
				c-1.4007492-0.008049-1.9331055,0.825737-1.9372864,1.5533981c-0.0054398,0.945961,0.6649323,1.4228058,2.2438354,2.086792
				c1.869339,0.7748032,2.8098679,1.7261963,2.8005676,3.3452454c-0.0082626,1.4371338-1.0165253,2.7775574-2.8920288,3.0760498
				l-0.0108719,1.891922L80.4380112,81.6607361z"/>
		</g>
		<path class="st6" d="M54.9837761,72.3312836c-0.0790405,0.0526733-0.9833374,2.2476349-1.8350105,4.2757797
			c-0.7199516,1.7120819-1.3959656,3.2924423-1.4837952,3.3451157c-0.1492424,0.0702591-8.0423164-1.4047546-12.1249657-2.1773834
			c-1.4223289-0.263382-2.379303-0.4477768-2.379303-0.4477768c2.8709717-3.3977966,12.2303162-6.699028,15.3910408-7.7438354
			l0.0175781-0.0087357c0.4302025-0.1405029,0.7462654-0.2458572,0.9042969-0.2985382
			c0.0878296-0.0175705,0.1317177-0.0350952,0.1317177-0.0350952L54.9837761,72.3312836z"/>
		<path class="st24" d="M54.9837761,72.3312836c-0.0790405,0.0526733-0.9833374,2.2476349-1.8350105,4.2757797
			c-0.7199516,1.7120819-1.3959656,3.2924423-1.4837952,3.3451157c-0.1492424,0.0702591-8.0423164-1.4047546-12.1249657-2.1773834
			c-1.4223289-0.263382-2.379303-0.4477768-2.379303-0.4477768c2.8709717-3.3977966,12.2303162-6.699028,15.3910408-7.7438354
			l0.0175781-0.0087357c0.4302025-0.1405029,0.7462654-0.2458572,0.9042969-0.2985382
			c0.0878296-0.0175705,0.1317177-0.0350952,0.1317177-0.0350952L54.9837761,72.3312836z"/>
		<path class="st10" d="M99.3395767,80.7160263l-0.8779831,17.0417099l-0.658493,12.739563l-0.5443954,10.5884933
			c0,0-0.3775253,6.4356384-6.9097366,6.6199799l-60.9584656,1.2116318c0,0-6.2424564-0.1756134-7.7701416-5.8737259
			l0.0614643-49.2724915c0,0,0.3951054-6.8394775,6.2424583-8.0862579c0.4740925-0.0965652,1.1765232,0.3687973,2.2212734,0.2985382
			l0.0790424,2.9237061c-1.194046,0.3687363-2.0632439,1.1325836-1.2906132,2.704155
			c0.6584892,1.3521271,3.0729465,2.1949615,5.812254,2.7129974c0.1492424,0.0350952,0.3072739,0.0614624,0.4565163,0.0877762
			l0.1580315,0.0263672c4.2845688,0.7374725,9.0783844,0.7374725,9.0783844,0.7374725l28.481823,0.0702591l5.6103363,0.0087814
			l15.2593765,0.0351028c0,0,0.5706558-0.0087357,1.3432846,0.1931839
			C96.6441574,75.8695831,98.9356842,77.0636292,99.3395767,80.7160263z"/>
		<path class="st28" d="M95.1339951,75.4832687l-1.3696518,22.142746l-0.7901535,12.7307739l-0.6547394,10.5528946
			c-0.1771164,2.8546982-2.4717331,5.1200714-5.3284683,5.2605591l-14.2631683,0.7014389l-3.4855728-21.7915878
			l13.1961288-20.5623779l-9.5173721-9.2715149l5.6103363,0.0087814l15.2593765,0.0351028
			C93.7907104,75.2900848,94.3613663,75.2813492,95.1339951,75.4832687z"/>
		<path class="st29" d="M98.4615936,97.7577362l-0.658493,12.739563l-15.663269-0.4477768
			c-3.5207214-0.1053543-6.2951355-3.0378494-6.1897812-6.5585785c0.0263138-0.9920731,0.2809677-1.9315186,0.7111664-2.7568283
			c1.0886917-2.1071854,3.3187561-3.51194,5.8473587-3.4329529L98.4615936,97.7577362z"/>
		<path class="st10" d="M93.7643433,97.6260147l-0.7901535,12.7307739l-10.8343582-0.3072662
			c-3.5207214-0.1053543-6.2951355-3.0378494-6.1897812-6.5585785c0.0263138-0.9920731,0.2809677-1.9315186,0.7111664-2.7568283
			c1.0886917-2.1071854,3.3187561-3.51194,5.8473587-3.4329529L93.7643433,97.6260147z"/>
		<path class="st29" d="M82.4383698,84.5177155l-16.5763474,16.5412521c0,0-13.5560875-23.4509888-30.5012321-26.6204987
			c4.2845688,0.7374725,9.0783844,0.7374725,9.0783844,0.7374725l19.0877457-2.5569534L82.4383698,84.5177155z"/>
		<g>
			<g>
				<line class="st81" x1="26.6808472" y1="125.9203491" x2="28.6802368" y2="125.870636"/>
				<path class="st82" d="M32.7123413,125.7704468l56.4951782-1.4040833
					c2.8030396-0.0696716,5.0770874-2.247467,5.2150269-4.9942627l1.8395386-36.6327515
					c0.1506348-2.9998016-2.2885742-5.5128937-5.350769-5.5128937H27.9366455c0,0-1.421875,0.1281128-2.6847534-0.5357361"/>
				<path class="st81" d="M23.8244629,75.2996216c-0.2719727-0.5028839-0.4520874-1.1351013-0.4838257-1.9295502"/>
			</g>
		</g>
		<path class="st83" d="M100.1473083,97.60849l-0.272171,9.5699997c-0.0263672,0.8779907-0.7550583,1.5716324-1.6330414,1.5452652
			l-16.1022644-0.4565735c-3.5207214-0.1053543-6.2951355-3.0377884-6.1897812-6.5585175
			c0.0087891-0.3072739,0.0351028-0.6146011,0.0965652-0.9130859c0.1053543-0.6584854,0.3160629-1.2730865,0.6146011-1.8437958
			c1.0886917-2.107132,3.3187561-3.51194,5.8473587-3.4328995l16.0934677,0.4565201
			c0.7375336,0.0263596,1.3432922,0.544342,1.4925842,1.2291946C100.1385193,97.336319,100.1473083,97.4679871,100.1473083,97.60849
			z"/>
		<path class="st1" d="M100.0946274,97.2045975l-0.2194901,7.8316116c-0.0263672,0.8779831-0.7550583,1.5628357-1.6330414,1.5452576
			l-16.1022644-0.4653015c-3.0993118-0.0878296-5.6103287-2.3705673-6.0932159-5.3205872
			c0.1053543-0.6584854,0.3160629-1.2730865,0.6146011-1.8437958c1.0886917-2.107132,3.3187561-3.51194,5.8473587-3.4328995
			l16.0934677,0.4565201C99.3395767,96.0017624,99.9453354,96.5197449,100.0946274,97.2045975z"/>
		<path class="st47" d="M85.177681,102.3583679c-0.0439453,0.2809601-0.1317215,0.5707092-0.272171,0.8428802
			c-0.7024307,1.3608704-2.379364,1.8964233-3.7402267,1.185257c-0.8165207-0.4214096-1.334549-1.194046-1.4574814-2.0457153
			c-0.0965652-0.5618744-0.0087891-1.1501617,0.272171-1.6945038c0.7111664-1.3608704,2.3793564-1.8876343,3.7402267-1.185257
			C84.8088913,100.0316849,85.3620224,101.2082062,85.177681,102.3583679z"/>
		<path class="st6" d="M85.177681,102.3583679c-0.0439453,0.2809601-0.1317215,0.5707092-0.272171,0.8428802
			c-0.7024307,1.3608704-2.379364,1.8964233-3.7402267,1.185257c-0.8165207-0.4214096-1.334549-1.194046-1.4574814-2.0457153
			c0.0438843-0.2896957,0.1317139-0.5706558,0.272171-0.8516235c0.7111664-1.3608627,2.3793564-1.8876877,3.7402267-1.1765213
			C84.5367126,100.7341156,85.0547485,101.5067444,85.177681,102.3583679z"/>
		<path class="st6" d="M82.4383698,84.5177155L68.1886444,95.1500931c-0.2194977-2.4583435-0.7726288-4.6181564-1.5715714-6.5234222
			c-2.8534508-6.8482666-8.8062096-10.3075256-13.4683075-12.0196075c-3.6260796-1.3345032-8.1292191-1.5088654-8.1292191-1.5088654
			l8.454071-5.8222885l0.0790405-0.0614624c3.7929001-0.3072739,7.1292305-0.0702515,10.0529327,0.5355606
			C78.0484467,72.6912842,82.4383698,84.5177155,82.4383698,84.5177155z"/>
		<path class="st24" d="M82.4380798,84.514122L68.1914749,95.147583c-0.224144-2.4566345-0.7711563-4.617424-1.5779953-6.5181732
			c-1.6677399-3.9987259-4.384407-6.8409348-7.2893257-8.8492661c-2.0711594-1.4434891-4.231842-2.4566269-6.1773567-3.1738815
			c-3.6222305-1.3358994-8.1230927-1.5062561-8.1230927-1.5062561l8.4457397-5.8277817l0.0807686-0.0537949
			c0.5467949-0.0448761,1.0758553-0.0717468,1.6049194-0.098671c3.1380386-0.1344528,5.9442368,0.1165619,8.4547119,0.6276245
			C78.0449066,72.6881943,82.4380798,84.514122,82.4380798,84.514122z"/>
		<path class="st84" d="M82.4380798,84.514122L68.1914749,95.147583c-0.224144-2.4566345-0.7711563-4.617424-1.5779953-6.5181732
			c-1.6677399-3.9987259-4.384407-6.8409348-7.2893257-8.8492661l-4.1690216-10.6603851
			c3.1380386-0.1344528,5.9442368,0.1165619,8.4547119,0.6276245C78.0449066,72.6881943,82.4380798,84.514122,82.4380798,84.514122z
			"/>
		<ellipse class="st24" cx="62.8426857" cy="74.8168869" rx="3.6492815" ry="2.6430156"/>
		
			<ellipse transform="matrix(0.8075606 -0.5897846 0.5897846 0.8075606 -33.7909088 57.237545)" class="st24" cx="70.8148193" cy="80.3996429" rx="2.0848625" ry="2.9117694"/>
		
			<ellipse transform="matrix(0.9999809 -0.0061878 0.0061878 0.9999809 -0.447179 0.3379412)" class="st37" cx="54.389782" cy="72.4358444" rx="2.1089718" ry="1.1076351"/>
		<path class="st0" d="M113.4337845,58.8460541c-0.1029663,2.5106163-0.0950394,5.0687485-0.7999268,7.4764481
			c-0.1267014,0.4355927-0.9741364,1.7819977-1.2038498,2.1700668c-0.0158081-0.0158539-0.0395889-0.0317154-0.055397-0.0554504
			c-0.4593735-0.435585-0.8316345-0.9899902-1.1642609-1.5760651c-0.6335831-1.0850296-1.172142-2.2968063-1.9720612-3.1521759
			c-0.0713043-0.0791817-0.1504822-0.1583595-0.1821442-0.2533951c-0.0396423-0.1108932-0.0237808-0.2376404-0.0079269-0.3484802
			c0.0791779-0.6336365,0.1584091-1.2672234,0.2217331-1.9008141c0.1108932-0.9583321,0.197998-1.9166145,0.2613678-2.8828773
			c0-0.0079269,0-0.0079269,0-0.0158081c0.0079346-0.1029625,0.0158615-0.197998,0.023735-0.3009605l1.14048-1.1008873
			l3.4214325-3.2947311C113.6397095,55.2900009,113.5129623,57.0877991,113.4337845,58.8460541z"/>
		<path class="st0" d="M138.624649,116.5769577c-0.1617889,0.1402664-3.9487915,1.9744339-3.9487915,1.9744339
			s-0.9278412-1.4349747-1.7909698-2.7836227c-0.7768402-1.1867752-1.510498-2.3196182-1.5213013-2.3412247
			c0-0.075531,3.3554077-3.4525375,3.3554077-3.4525375l0.7444458,0.5502625l1.7586365,1.3055038l1.4997101,1.7154388
			C138.7217865,113.5452118,138.7757263,116.4258957,138.624649,116.5769577z"/>
		<path class="st1" d="M135.4634399,110.5242691l-2.5785522,5.2434998c-0.7768402-1.1867752-1.510498-2.3196182-1.5213013-2.3412247
			c0-0.075531,3.3554077-3.4525375,3.3554077-3.4525375L135.4634399,110.5242691z"/>
		<path class="st21" d="M139.9388428,113.2345428l2.0536499,2.6571655c0.1502838,1.1784897-2.0066833,3.7932358-2.0066833,3.7932358
			l-0.639267-0.5336838l-1.5052032,2.698288c-0.5848846,1.0393219-1.399826,1.936142-2.3762665,2.6240082l-3.2312775,2.2437744
			c-0.3972321,0.280365-0.933075,0.1739502-1.1988068-0.2213135l-0.6260071-0.9309692
			c-0.2848816-0.4204636-0.322113-0.95224-0.092041-1.3970184l0.9506226-1.8959122l1.6831055-3.3829956l-0.0736084-3.1865387
			c0.0041809-0.4436264,0.2203522-0.8376694,0.5545044-1.0959244c0.141983-0.1097412,0.3033752-0.1943817,0.4842987-0.2541428
			c0.4207458-0.1116562,0.8697662-0.0315781,1.2284698,0.2251129l0.83078,0.6259003l0.0210571,0.0103683l1.709671-2.5892868
			l-0.5209961-0.8119736l1.2091827,0.4936142C139.0058746,112.4072876,139.5578003,112.7415237,139.9388428,113.2345428z"/>
		<path class="st12" d="M138.8015137,118.6995468l0.5443878,0.4510727l-1.5067749,2.7005615
			c-0.5818787,1.042778-1.3921051,1.9358597-2.372467,2.6164703l-3.2355194,2.2515793
			c-0.3930664,0.2741394-0.9286194,0.1720657-1.1924133-0.2230148l-0.0786743-0.1171494
			c0.2385254,0.0707016,0.5036621,0.0377579,0.7239227-0.1147003l3.2392426-2.2544327
			c0.9803772-0.680603,1.7905121-1.573616,2.3723755-2.616394L138.8015137,118.6995468z"/>
		<path class="st12" d="M141.5466919,115.3146362l0.4447784,0.5754852c0.1503143,1.1766968-2.0081024,3.7938004-2.0081024,3.7938004
			l-0.6374664-0.5333023C139.3459015,119.1506195,140.8380127,117.0603561,141.5466919,115.3146362z"/>
		<path class="st0" d="M119.5926666,119.5116348l0.1402664,2.2872925c0,0-1.7155075,2.3088303-1.9313049,2.3304291
			c-0.2157898,0.0215988-4.3371887-0.8523178-4.3371887-0.8523178s0.8954544-3.5820007,1.3486481-5.4161682
			c0.1617966-0.6149902,0.2589264-1.0357819,0.2589264-1.0465164c0-0.0540009,5.0493088-1.6831055,5.0493088-1.6831055
			l-0.4207916,3.4632721L119.5926666,119.5116348z"/>
		<path class="st1" d="M120.1213226,115.1312485l-0.4207916,3.4632721c-2.0391617-0.302063-4.876709-0.7228546-4.876709-0.7228546
			l-0.0107346-0.0107956c0.1617966-0.6149902,0.2589264-1.0357819,0.2589264-1.0465164
			C115.0720139,116.7603531,120.1213226,115.1312485,120.1213226,115.1312485z"/>
		<path class="st21" d="M120.8829575,122.2917709v3.3582764c-0.6017761,1.024353-3.9073944,1.7741852-3.9073944,1.7741852
			l-0.179451-0.8131943l-2.841011,1.2145004c-1.0983505,0.4646683-2.2915802,0.6758957-3.4848099,0.6230392l-3.9287949-0.2006531
			c-0.4857483-0.0210724-0.8446426-0.4329529-0.8131866-0.9081955l0.0739899-1.1194305
			c0.0317154-0.5068893,0.327446-0.9504166,0.7814789-1.161644l1.9115448-0.9187698l3.4004974-1.6474609l1.8904037-2.5662994
			c0.2745819-0.3484573,0.6865921-0.5280304,1.1089172-0.5280304c0.179451,0,0.358902,0.0317154,0.5386047,0.0950699
			c0.4011841,0.1689453,0.7074814,0.506897,0.8343353,0.9293442l0.2745895,1.0032806l0.0103073,0.0210724l2.9361572-1.003212
			l0.0843048-0.9610519l0.6548843,1.1299973C120.65065,121.0666962,120.8829575,121.668663,120.8829575,122.2917709z"/>
		<path class="st12" d="M116.6411133,125.9203415l0.1548843,0.6898041l-2.8436584,1.215332
			c-1.0980759,0.4692459-2.2852783,0.6804123-3.4771881,0.6194077l-3.9369202-0.1970825
			c-0.4786377-0.0234528-0.8399734-0.4317245-0.8070908-0.905632l0.0093918-0.1408005
			c0.1454926,0.2018051,0.3754196,0.3378754,0.6429214,0.3519363l3.9416275,0.1971054
			c1.1919022,0.0610046,2.3789902-0.1501617,3.477066-0.6194077L116.6411133,125.9203415z"/>
		<path class="st12" d="M120.8831177,124.920845v0.7273254c-0.6006546,1.0229492-3.9088593,1.7737579-3.9088593,1.7737579
			l-0.1782608-0.8117828C116.7959976,126.6101456,119.2548447,125.8687286,120.8831177,124.920845z"/>
		<g>
			<g>
				<path class="st0" d="M123.7646408,30.719614v7.7422428c0,0.4161339-0.0885925,0.8322296-0.2661209,1.2073936
					c-0.12957,0.2592163-0.2934418,0.4979477-0.4912872,0.7094498c-0.0339737,0.0409279-0.1568756,0.1227798-0.3204193,0.2319031
					v8.1993065h-4.65905v-6.6099129c-0.0476303-0.0273132-0.1092529-0.0477562-0.1705322-0.0682373
					c-0.5798874-0.252388-1.0778351-0.695755-1.3915863-1.2824249c-0.5525742-1.0027199-0.8390198-2.1214371-0.8390198-3.2605934
					v-4.051899c0,0-0.1502151-1.9168034,1.8009338-2.8172283H123.7646408z"/>
				<path class="st1" d="M123.7674866,34.480957v3.6031036c-0.2569809-0.1251183-0.428093-0.3952904-0.428093-0.6982689v-2.2131615
					C123.3393936,34.8696518,123.5105057,34.6060715,123.7674866,34.480957z"/>
				<path class="st3" d="M114.5350647,32.1088562c0.3121414,0.8796158,0.4634476,1.7876358,0.8796158,2.6388474
					c0.0567474,0.1418991,0.132431,0.2837944,0.2081146,0.4161682c0.0505219-1.2889252,1.0139236-2.2893333,1.3927994-3.4602699
					c-0.1507416,0.4656754,0.3139114,0.9535904,0.8017197,0.993763c0.4878159,0.0401726,0.9458694-0.2329483,1.324173-0.5435371
					c0.3181305-0.2611866,0.6082916-0.5564098,0.8639526-0.8790035c-0.0911026,0.3868237-0.0845032,0.8277111,0.1596909,1.1412334
					c0.2259064,0.2900429,0.6156464,0.4130363,0.9831772,0.4044189c0.4334564-0.0101624,0.7054825-0.2053604,1.0783539-0.3372688
					c0.3580399-0.1266594,0.2581177,0.0644836,0.2876816,0.4734612c0.0161057,0.2228775,0.1212387,2.6700668,0.0981598,2.6707077
					c0.0000916,0,1.0214539-0.0284004,1.0214539-0.0284004c0.0567474,0.2175217,0.0094681,0.4539795,0.0094681,0.6715584v0.2080574
					c0,0.0662155,0.0094681,0.1418953,0.0094681,0.2081108c0.0283966,0.6904411,0.0472794,1.3903465,0.0945587,2.0807838
					c0.5864639-0.652626,1.1822891-1.2673798,1.5890579-2.0524559c0.845253-1.5968857,0.9382095-3.567482,1.0465317-5.3369846
					c0.0361252-0.5900917,0.0550766-1.1919994-0.0997696-1.762558c-0.11866-0.437252-0.37146-0.8763218-0.7927933-1.0429115
					c-0.4081192-0.1613655-0.9184418-0.0025826-1.1629715,0.3618469c0.0150375-0.3473873-0.0353317-0.7491341-0.3249512-0.9415531
					c-0.3930664-0.2611485-0.8978195,0.0359707-1.3355408,0.2123222c-0.6173248,0.2487164-1.3136444,0.2433376-1.9644775,0.1041241
					c-1.0199051-0.2181625-1.9262695-0.7392826-2.9232788-1.0241756c-0.4634476-0.132431-0.9363632-0.2459259-1.3998108-0.1891785
					c-0.3688889,0.0472813-0.6904373,0.2364578-0.9647675,0.5012608c-0.4634476,0.4445705-0.784996,1.0971966-0.9174271,1.6457939
					C114.2702637,30.1415119,114.2135162,31.2292404,114.5350647,32.1088562z"/>
				<path class="st1" d="M118.032486,43.1464462v-0.9510078c0.0170135,0.2299347,2.5199661-0.6191063,2.8182373-0.8377304
					c0.1609192-0.0414009,0.2469788,0.1822929,0.0998077,0.2594261
					C120.1810455,42.3814392,119.2176361,42.9028206,118.032486,43.1464462z"/>
				<path class="st0" d="M123.3386154,34.9194756v2.2120857c0,0.434948,0.3522415,0.7871895,0.7871857,0.7871895
					s0.7871857-0.3522415,0.7871857-0.7871895v-2.2120857c0-0.2174721-0.0882187-0.4134979-0.2303391-0.5562248
					c-0.1427307-0.1421242-0.3393784-0.2303352-0.5568466-0.2303352
					C123.6908569,34.1329155,123.3386154,34.485157,123.3386154,34.9194756z"/>
				<path class="st4" d="M118.3988953,36.7731438l-0.4969711,0.6158104
					c-0.1298828,0.1609497-0.1028824,0.397068,0.0599899,0.5245361l0.4369812,0.3419838"/>
			</g>
		</g>
		<g>
			<path class="st5" d="M118.817955,40.5975952c0.0491333-0.0061417,0.0982666-0.0122833,0.153389-0.0244179
				c0.4540329-0.1044083,0.7485275-0.4787483,0.9387741-0.8836479c0.0737-0.1472473,0.1288223-0.3006401,0.171814-0.4417458
				c0-0.0061417,0.0061417-0.0122833,0.0061417-0.018425s0.0061417-0.0122833,0.0061417-0.018425
				c0.0429916-0.1288261,0.0735474-0.2576485,0.098114-0.3864746c0.0061417-0.03685,0.0122833-0.0675583,0.018425-0.1042595
				c0.0061417-0.0307045,0.018425-0.0675545,0.0122833-0.1044044c0-0.0122833-0.0061417-0.0245667-0.018425-0.0307083
				c-0.0061417-0.0122833-0.0182724-0.0122833-0.0245667-0.0182762c-0.0366974-0.0122833-0.0735474,0.0059929-0.1103973,0.0122833
				c-0.0245667,0.0059929-0.055275,0.0182762-0.079689,0.0244179c-0.0675583,0.018425-0.1349716,0.03685-0.2025299,0.055275
				c-0.0798416,0.0245667-0.1595306,0.0491295-0.2392197,0.0674057c-0.0921249,0.0245667-0.1779556,0.0491333-0.2639389,0.0737
				c-0.09198,0.0307083-0.1779633,0.055275-0.2699356,0.0796928c-0.0859833,0.0245667-0.171814,0.0491333-0.2576523,0.0737
				c-0.079834,0.0245667-0.1595306,0.0429916-0.2393723,0.0674057c-0.0674057,0.0185776-0.134964,0.03685-0.2025223,0.055275
				c-0.0551224,0.018425-0.1042557,0.0307083-0.153389,0.0429916c-0.0305634,0.0122833-0.05513,0.018425-0.0858383,0.0245667
				c0,0,0,0-0.0061417,0c-0.018425,0.0061417-0.1103973,0.0305595-0.196228,0.0612679
				c-0.0921249,0.0245667-0.1779556,0.0491333-0.1779556,0.0491333
				C117.5786896,39.4931488,117.8546143,40.6958618,118.817955,40.5975952z"/>
			<path class="st6" d="M117.8731918,39.204792l0.098114,0.3374901c0.0429916,0.153389,0.2086639,0.2453651,0.3620605,0.2025223
				l1.7485657-0.4970207c0-0.0061417,0.0061417-0.0122833,0.0061417-0.018425s0.0061417-0.0122833,0.0061417-0.018425
				c0.0429916-0.1288261,0.0735474-0.2576485,0.098114-0.3864746c0.0061417-0.03685,0.0122833-0.0675583,0.018425-0.1042595
				c0.0061417-0.0307045,0.018425-0.0675545,0.0122833-0.1044044c0-0.0122833-0.0061417-0.0245667-0.018425-0.0307083
				c-0.0061417-0.0122833-0.0182724-0.0122833-0.0245667-0.0182762c-0.0366974-0.0122833-0.0735474,0.0059929-0.1103973,0.0122833
				c-0.0245667,0.0059929-0.055275,0.0182762-0.079689,0.0244179c-0.0675583,0.018425-0.1349716,0.03685-0.2025299,0.055275
				c-0.0798416,0.0245667-0.1595306,0.0491295-0.2392197,0.0674057c-0.0921249,0.0245667-0.1779556,0.0491333-0.2639389,0.0737
				c-0.09198,0.0307083-0.1779633,0.055275-0.2699356,0.0796928c-0.0859833,0.0245667-0.171814,0.0491333-0.2576523,0.0737
				c-0.079834,0.0245667-0.1595306,0.0429916-0.2393723,0.0674057c-0.0674057,0.0185776-0.134964,0.03685-0.2025223,0.055275
				c-0.0551224,0.018425-0.1042557,0.0307083-0.153389,0.0429916c-0.0305634,0.0122833-0.05513,0.018425-0.0858383,0.0245667
				c0,0,0,0-0.0061417,0C118.0509949,39.1496658,117.9590225,39.1740837,117.8731918,39.204792z"/>
			<path class="st3" d="M119.911293,39.692585c-0.1920547,0.3993454-0.4886475,0.7733879-0.9418716,0.8795166
				c-0.0522461,0.0118065-0.1044464,0.0219269-0.1533127,0.0252991c-0.0690689-0.3032913,0.0893021-0.6470184,0.406044-0.8306656
				C119.4479446,39.6369934,119.7023697,39.6167755,119.911293,39.692585z"/>
		</g>
		<path class="st1" d="M124.4155884,34.9616966v0.6323318l-0.5795822,0.2701721v-0.902504
			c0-0.1580849,0.1317139-0.2897911,0.2897949-0.2897911S124.4155884,34.8036118,124.4155884,34.9616966z"/>
		<path class="st1" d="M123.8360062,36.483345l0.5795822-0.2370453v0.5927734c0,0.1580811-0.1317062,0.2897911-0.2897873,0.2897911
			s-0.2897949-0.1317101-0.2897949-0.2897911V36.483345z"/>
		<path class="st7" d="M116.8498306,53.7169075l-3.6260834,6.2688255l-7.7350464-4.0562859l0.4214172-0.7726326l0.0878296-0.1492424
			l0.2721786-0.482933l1.791069-3.2046127l1.1677322-2.0808182c0.4653015-0.7814178,1.1676788-1.3521309,1.9666748-1.66819
			c0.0087891,0,0.0175781-0.0087891,0.0263138-0.0087891c0.149292-0.0526772,0.3073273-0.1053543,0.4565659-0.1492424
			c0.4126816-0.0965652,0.8253098-0.1317215,1.2379913-0.0965652c0.4477234,0.0175209,0.8779831,0.1404533,1.2994003,0.3072739
			c0.1404572,0.0702515,0.272171,0.1492386,0.4126282,0.2282829l0.2809601,0.1756058l0.3336411,0.1756096l0.2019196,0.1228752
			c0.6497498,0.3775291,1.1414185,0.9043503,1.4750595,1.5189514c0.0087357,0.0087891,0.0087357,0.0087891,0.0087357,0.0087891
			C117.5522003,51.0302773,117.5785675,52.4877625,116.8498306,53.7169075z"/>
		<path class="st9" d="M113.0708923,48.85886l-0.5443497,0.9745483c-0.0184402,0.0105476-0.1364441,0.0147667-0.2926102,0.0155029
			c-0.5567017,0.0026321-1.0426331,0.3762321-1.2026062,0.9094543c-0.1509857,0.5032539-0.3204269,1.0241966-0.3748932,1.0241966
			c-0.052681,0-1.2906113-0.201973-2.6251678-0.4477806l1.1677322-2.0808182
			c0.469841-0.7890358,1.1813965-1.3632355,1.9900818-1.67733c0.0010223,0.0001144,0.0018921,0.0002174,0.0029221,0.0003357
			L113.0708923,48.85886z"/>
		<path class="st7" d="M131.3332825,48.0462532l-0.1931305,1.7120781l-0.0350952,0.3687401l-0.526825,4.609417l-0.1756134,1.5803642
			l-0.4477234,4.0738602l-0.272171,2.4232445l-0.8516693,7.6559982c-0.4565735,0.1931839-0.9130936,0.377533-1.3520813,0.5355606
			c-0.807785,0.2985382-1.6067276,0.5444031-2.4056702,0.7375336c-4.3723984,1.0711136-8.6042938,0.6496964-12.7132568-1.2730942
			c0-0.0087891,0-0.7111588-0.0175171-1.8788986V56.2729645c-0.0263672-0.9745522-0.0263672-1.9315796-0.0263672-2.8358765
			v-4.6884613c0-0.7462654,0-1.1765213,0-1.1765213c-0.0263138-0.2107086-0.6058121-0.0702019-0.5267715-0.1404533
			l0.0263138-0.0087891c0.0526733-0.035099,0.3424225-0.1756096,0.7726288-0.3775253
			c0.4302063-0.2019196,0.9921265-0.4740944,1.5979385-0.7638435c0.1053543-0.0438881,0.2019196-0.0877762,0.3072739-0.1404533
			c0.3424301-0.1580849,0.6848526-0.3161163,1.0272827-0.4829369c1.2203522-0.5618668,2.3091049-1.0448036,2.4934464-1.0448036
			c0.0175705,0,0.0263596,0,0.0263596,0.0087891c0.0965652,2.3969345,3.5031509,2.6339531,4.4162369,0.8428841
			c0.1317215-0.263382,0.2194977-0.5707092,0.2194977-0.9130821l0.2809601,0.1053505l7.2609482,2.9324417l0.649704,0.263382
			L131.3332825,48.0462532z"/>
		<path class="st8" d="M130.5782318,54.7364883l-0.1756134,1.5803642l-0.4477234,4.0738602l-0.272171,2.4232445
			l-0.8516693,7.6559982c-0.4565735,0.1931839-0.9130936,0.377533-1.3520813,0.5355606
			c-0.807785,0.2985382-1.6067276,0.5444031-2.4056702,0.7375336c-1.8438034-0.5355606-3.3714828-1.0097046-3.3714828-1.0097046
			l1.8295517-3.5769043l1.2658691-14.5551338c0.0639038-0.7347603,0.9845123-1.024765,1.4586334-0.4598122
			c0.5563354,0.6629181,1.0952225,1.286808,1.1528397,1.286808L130.5782318,54.7364883z"/>
		<path class="st9" d="M123.7243652,57.6999054l-0.8474884,5.0427322c0,0-5.5738373,0.782486-10.4817429,1.3356247v-7.8052979
			c-0.0263596-0.9745522-0.0263596-1.9315796-0.0263596-2.8358765v-4.6884613L123.7243652,57.6999054z"/>
		<path class="st11" d="M136.0744171,109.7949219l-0.5970154,0.719902l-3.6348724,4.319725l-3.2924347-3.2661362
			l-4.1352844-4.1265335l-1.9140472-1.8876343l-2.5461273-2.5461807l-3.1081009-3.0817337l-0.8428268-0.8340454
			l-0.0175781-0.0175705l-0.1141434-0.1053543l-2.712944-2.7042084c-0.0351486-0.0351028-0.0702515-0.0702591-0.0966187-0.1053543
			l-0.0087357-0.0087891c-0.6321716-0.6409149-1.1414185-1.3784409-1.5452576-2.1685944
			c-0.7287445-1.4487-1.0535965-3.0905228-0.8955612-4.7411423l1.0447998-11.2996597l0.1668243-1.8262177l0.1580276-1.6857147
			l0.3687363-3.9597244v-0.0087891h10.7641068l-0.0965729,0.8428879l-0.9130783,8.964241l-0.8165207,8.0335312l-0.1931839,1.8437958
			l2.7480927,3.6172943v0.0087891l0.597023,0.7725754l1.3081894,1.6945572l6.2864075,8.2442322l2.5987854,3.4153748
			l0.0175781,0.0175781L136.0744171,109.7949219z"/>
		<path class="st2" d="M119.9421921,96.601944c0.4162521,0.5066528,13.4713211,15.2106934,13.4713211,15.2106934"/>
		<path class="st12" d="M118.5581818,99.7653275l-2.6824493-0.8026199l-2.7141647-2.692955
			c-0.675766-0.6758957-1.2355118-1.4573746-1.6578369-2.2916489c0.3588943-6.1357346,1.0454941-17.9531174,1.0454941-18.1432037
			l4.8894653,10.2755051L118.5581818,99.7653275z"/>
		<path class="st12" d="M125.7398605,96.2311249l-1.3280029,11.219696l-7.5643082-7.5267258
			c0.3097763-2.0130615,2.3603287-9.9714813,3.7492752-11.1586609c0.1971588-0.1689224,0.4317856-0.3237762,0.6897812-0.4598541
			l-0.1876526,1.8394394L125.7398605,96.2311249z"/>
		<path class="st11" d="M128.8272552,70.4646378l-0.0269318,3.8104706c-0.0269165,1.9007568-0.3675232,3.7746353-1.013031,5.5229797
			c-0.2690201,0.7620773-0.6188126,1.4972839-0.9953003,2.2145386c-0.1613235,0.3227539-0.3405991,0.6186447-0.5288467,0.9235001
			l-1.4435959,2.3042297l-0.977356,8.5264511v0.0089722l-0.430336,3.7746353l-0.9145355,8.0064774l-1.3628235,11.9693527
			l-0.5826874,0.0448685l-6.7064209,0.2958374c0,0-0.0628204-0.7351532-0.1613235-2.0979767
			c-0.0089722-0.286911-0.0269241-0.6006927-0.0538483-0.9324799c-0.1074753-2.1697159-0.2420959-5.4332886-0.3495712-9.6113358
			c-0.0091934-0.2599869-0.0091934-0.529007-0.017952-0.8158646c-0.0628204-2.4656067-0.1256409-5.0746918-0.1882477-7.7106476
			c-0.0091934-0.1882477-0.0091934-0.367569-0.0179443-0.5468979c-0.0538483-2.115921-0.0987244-4.2318954-0.1525726-6.3030014
			c-0.0269241-1.0310364-0.0448685-2.0441818-0.0715714-3.0483475c0-0.1793289-0.0091934-0.3586578-0.0091934-0.529007
			c-0.0805588-2.8869705-0.1433792-5.5767212-0.2061996-7.8899155c-0.017952-0.5648499-0.0267029-1.1027832-0.0446548-1.6138382
			c-0.0089722-0.2151718-0.0089722-0.4214249-0.017952-0.6365967c-0.0358963-1.5242004-0.0717926-2.8063049-0.1076889-3.7566833
			c-0.0446548-1.1565704-0.0718002-1.8469543-0.0805511-1.9097214H128.8272552z"/>
		<path class="st12" d="M128.8272552,70.4646378l-0.0269318,3.8104706c-0.0269165,1.9007568-0.3675232,3.7746353-1.013031,5.5229797
			c-0.2895966,0.8203735-0.6727982,1.6096039-1.0821533,2.3788147c-0.1376648,0.258667-0.2864075,0.5109253-0.4419785,0.7592392
			l-1.4436111,2.3042145l1.5310898-7.9366989c0.4247589-2.2018585-1.2187424-4.2621078-3.4599304-4.3372879l-2.9485168-0.0988998
			l0.1523514-2.402832H128.8272552z"/>
		<path class="st12" d="M122.5973816,70.4611664c-0.052681,0.0790482-0.1053543,0.1580353-0.1668243,0.2370758
			c-3.924614,5.2679062-8.6657028,5.4786148-9.877327,5.4347305c-0.1931839,0-0.2985382-0.0175781-0.2985382-0.0175781h-0.4301987
			l0.1580276-1.6857147l0.3687363-3.9597244v-0.0087891H122.5973816z"/>
		<g>
			<path class="st14" d="M119.3692169,64.49189c-0.0255661,4.4501038-2.2951355,8.3611984-5.7284546,10.6761856
				c-0.2860947,0.1902008-0.5830994,0.3693314-0.8854218,0.5429764c-1.358223,0.7649765-2.8683929,1.2879105-4.4753723,1.5198212
				c0.0434113,0.0824738,0.0759811,0.1429443,0.0759811,0.1429443l-1.8359604-0.016037l-0.3781204-0.0021744
				c-0.0548859,0.0051727-0.1150665-0.0006561-0.1698914-0.0064621c-2.1808548-0.0727997-4.2271957-0.6874084-6.0078659-1.7115707
				c-0.3006058-0.1716232-0.5899124-0.354126-0.8737717-0.5530777c-1.2392197-0.85112-2.3238754-1.9151077-3.1991959-3.1313629
				c-0.1303482-0.1815796-0.25-0.3631363-0.3696136-0.5501785c-0.6190643-0.9626617-1.1118927-2.0067902-1.4563217-3.1213455
				c-0.059166-0.1812134-0.1129913-0.3623581-0.1558075-0.5489578c-0.2683182-0.9935303-0.4156723-2.0357056-0.4314117-3.1154556
				c-0.0048523-0.0877075-0.0043182-0.1809006-0.0037766-0.2740555c0.0005341-0.0931549,0.0010376-0.1808624,0.0069199-0.2739944
				c0.0281143-1.0740471,0.1820831-2.1144562,0.4617996-3.1048393c0.0503082-0.1860657,0.100853-0.366642,0.1621017-0.5471268
				c0.3572159-1.110527,0.8617325-2.1489258,1.4920807-3.1044083c0.1214905-0.1856575,0.2488708-0.3712807,0.3812714-0.5458717
				c0.8892593-1.2116051,1.9804153-2.2576027,3.2239838-3.0944939c0.2861252-0.195652,0.5831299-0.3747787,0.8854218-0.5429726
				c1.8914337-1.0687981,4.0817795-1.6700439,6.4109573-1.656662c0.0765305,0.0004387,0.1533356,0.0008812,0.2301025,0.0068054
				c0.0000305-0.0054855,0.0000305-0.0054855,0.0000305-0.0054855l1.4632339,0.0084076l0.04319,0.1208038
				c1.6757507,0.2343483,3.2455826,0.7859421,4.6493301,1.5996399c0.3003387,0.1716537,0.5899124,0.3541565,0.8737717,0.5530777
				C117.1703262,56.0994263,119.394783,60.04179,119.3692169,64.49189z"/>
			<g>
				<g>
					<path class="st15" d="M113.7584076,53.7560196l-14.5560379-0.0836143
						c0.2861252-0.195652,0.5831299-0.3747787,0.8854218-0.5429726l12.7968445,0.0735092
						C113.1849747,53.3745956,113.4745483,53.5570984,113.7584076,53.7560196z"/>
				</g>
				<g>
					<path class="st15" d="M114.6610641,56.874218l-0.0031433,0.5480461l-19.0608063-0.1094933
						c0.1214905-0.1856575,0.2488708-0.3712807,0.3812714-0.5458717L114.6610641,56.874218z"/>
				</g>
				<g>
					<path class="st15" d="M114.6400375,60.535141l-0.0031509,0.5480423l-20.6939545-0.1188774
						c0.0503082-0.1860657,0.100853-0.366642,0.1621017-0.5471268L114.6400375,60.535141z"/>
				</g>
				<g>
					<path class="st15" d="M114.6190414,64.1905746l-0.0031509,0.5480423l-21.1379013-0.1214218
						c-0.0048523-0.0877075-0.0043182-0.1809006-0.0037766-0.2740555c0.0005341-0.0931549,0.0010376-0.1808624,0.0069199-0.2739944
						L114.6190414,64.1905746z"/>
				</g>
				<g>
					<path class="st15" d="M114.5980072,67.8514938l-0.0031509,0.5480423l-20.5296478-0.1179276
						c-0.059166-0.1812134-0.1129913-0.3623581-0.1558075-0.5489578L114.5980072,67.8514938z"/>
				</g>
				<g>
					<path class="st15" d="M114.5769806,71.512413l-0.0031509,0.5480423l-18.6826859-0.1073227
						c-0.1303482-0.1815796-0.25-0.3631363-0.3696136-0.5501785L114.5769806,71.512413z"/>
				</g>
				<g>
					<path class="st15" d="M113.6407623,75.1680756c-0.2860947,0.1902008-0.5830994,0.3693314-0.8854218,0.5429764
						l-12.7912292-0.0734787c-0.3006058-0.1716232-0.5899124-0.354126-0.8737717-0.5530777L113.6407623,75.1680756z"/>
				</g>
			</g>
			<path class="st15" d="M106.5175858,77.3602982c-0.0548859,0.0051727-0.115097,0.0048294-0.1699524,0.0045166
				c-0.0711823-0.000412-0.1370087-0.0007935-0.2081604-0.0066833L106.5175858,77.3602982z"/>
			<path class="st15" d="M121.4663391,64.5023956c-0.0358963,6.3388443-4.6173096,11.5838318-10.6333466,12.6687164
				c-0.7711563,0.143425-1.5690155,0.2151718-2.3850479,0.206192c-7.1547089-0.0448151-12.9106979-5.8726044-12.8748016-13.0183945
				c0-0.2599869,0.0087585-0.5199776,0.0267029-0.7710457c0.3944473-6.0250092,4.8865509-10.90242,10.6963882-11.9155617
				c0.7440186-0.1255341,1.5151749-0.1883011,2.2953033-0.1883011c5.9083405,0.0358429,10.8754425,4.0256462,12.3906174,9.44104
				C121.3050156,62.0636635,121.4753189,63.2651062,121.4663391,64.5023956z"/>
			<path class="st17" d="M109.0579987,53.4078484c3.7916107,2.3831329,8.1570282,5.1296692,11.9241562,7.5171928
				c0.3228607,1.1386223,0.4931641,2.340065,0.4841843,3.5773544c-0.0358963,6.3388443-4.6173096,11.5838318-10.6333466,12.6687164
				c-3.8839035-3.4540634-8.8202438-7.854744-13.4799728-12.0168839"/>
			<path class="st17" d="M97.3530197,65.1542282c-0.5897217-0.526741-1.1750107-1.0496674-1.7531738-1.5663643
				c0.3944473-6.0250092,4.8865509-10.90242,10.6963882-11.9155617c0.8706436,0.5471001,1.7976532,1.1295738,2.7617645,1.7355461"/>
			<path class="st85" d="M118.3092346,59.1986694c0.845108,1.5772324,1.319931,3.3818703,1.3089294,5.2970428
				c-0.0339813,5.9151535-4.6899796,10.7227402-10.5245819,11.018692"/>
			<path class="st85" d="M97.4476547,65.1542435c-0.0166702-0.2597046-0.0243988-0.5218124-0.0228806-0.786026
				c0.035202-6.1285324,5.0318985-11.0681496,11.1604385-11.0329475c4.2133636,0.0242043,7.8647842,2.393486,9.7240219,5.8633995"/>
			<path class="st63" d="M109.0935822,75.5144043c-0.2104721,0.0106735-0.4224777,0.01548-0.6358566,0.0142517
				c-5.8643265-0.0336838-10.6400375-4.6102905-11.0100708-10.3744125"/>
			<path class="st15" d="M106.139473,77.3581314l-0.1699295-0.0009766l0.0000305-0.0054855
				C106.0244064,77.3574677,106.0845795,77.3632965,106.139473,77.3581314z"/>
			<path class="st14" d="M112.4224167,67.1346359c-0.0095139,1.655777-1.1699524,3.2027206-3.3319473,3.5446472
				l-0.0125275,2.1804657l-1.3218613-0.0075912l0.0121765-2.1191254c-1.2129517-0.0274277-2.4712753-0.4094238-3.197403-0.9383011
				l0.5054703-1.4008102l0.5997162,0.0034485c0,0,0.0126572,0.1704254,0.018425,0.354454
				c0.6795502,0.3241501,1.5163574,0.553833,2.3953857,0.5588837c1.4922104,0.0085678,2.4987717-0.8442383,2.5056152-2.0366745
				c0.0066147-1.1515579-0.8069077-1.8717041-2.3500824-2.5074615c-2.1348572-0.8504333-3.4511642-1.8255959-3.4406738-3.651722
				c0.0099869-1.737545,1.2577591-3.0523262,3.1877899-3.3547058l0.0121307-2.1123009l1.2947464,0.0074387l-0.0116577,2.0305367
				c1.2602386,0.0481224,2.1170502,0.3869324,2.721344,0.7515755l-0.2351761,0.5982971
				c0.100975,0.2322388,0.3022537,0.7853394,0.3022537,0.7853394l-0.5997086-0.0034447
				c-0.4345703-0.2546196-1.2904739-0.7228928-2.6327972-0.7306023c-1.6149826-0.0092773-2.2270737,0.9548035-2.2318878,1.7929459
				c-0.0062637,1.0902138,0.7674866,1.639782,2.5824509,2.3997879
				C111.3492737,64.1711121,112.4331436,65.2676239,112.4224167,67.1346359z"/>
			<path class="st15" d="M108.3556213,72.8560181l0.0121613-2.1170425
				c-1.2156067-0.0279465-2.4710846-0.4124603-3.2017059-0.9406967l0.5111313-1.4014893
				c0.7516937,0.5073929,1.8393707,0.911911,3.013176,0.9186554c1.4882202,0.0085526,2.4992752-0.8450623,2.5061417-2.0398331
				c0.0066223-1.1528473-0.8067551-1.8702087-2.354248-2.5079422c-2.1331863-0.8507156-3.4481812-1.8224983-3.437706-3.6460915
				c0.0099945-1.7397461,1.2542725-3.0531731,3.1844711-3.3565102l0.0121613-2.1170425l1.2995682,0.0074654l-0.011673,2.0331993
				c1.2574081,0.0491447,2.1148758,0.3894577,2.7206879,0.7492828l-0.5319672,1.3804054
				c-0.4387283-0.2540588-1.2954788-0.7201347-2.6369705-0.7278404c-1.6139832-0.0092735-2.2273865,0.9514351-2.2322006,1.7898674
				c-0.0062637,1.089962,0.7661591,1.6394005,2.5854187,2.4044647c2.1539078,0.8927574,3.2376099,1.9889793,3.2268906,3.854496
				c-0.0095139,1.655899-1.1712646,3.2003784-3.332283,3.5443115l-0.0125198,2.179924L108.3556213,72.8560181z"/>
		</g>
		<path class="st34" d="M128.834198,71.3743362c-5.3388596,0.7625961-10.8690262,0.7326889-16.5765762-0.0329361
			l0.0809555-1.4893417c5.7892838,0.4634399,11.3375015,0.5089493,16.5657501,0L128.834198,71.3743362z"/>
		<path class="st32" d="M135.9685516,115.1763077c-0.2878723,0.8033142-0.599823,1.5979919-0.935318,2.3826065"/>
		<path class="st0" d="M128.6131897,67.41362l-9.1107254,4.372818l-2.3400803,1.6734772l-1.1707611,0.8293152l-0.8199997,0.7343597
			c-0.2148438,0.1789627-0.5120926,0.208519-0.7526932,0.0523453l-0.5518875-0.3428345l-0.363472,0.1936951
			c-0.098175,0.069809-0.2385788,0.0912781-0.367157,0.0815277c-0.1434021-0.0082321-0.2926712-0.0759277-0.4018402-0.1926804
			c-0.2183228-0.2334137-0.2389603-0.5915985-0.0449066-0.8284988l0.1777954-0.2503128l-0.5880661,0.5012436
			c-0.2564621,0.2131042-0.6487503,0.1920624-0.8834305-0.0547485l-0.1514893-0.1650848
			c-0.201973-0.2200165-0.2345276-0.5469742-0.0649109-0.803978l0.0721207-0.1047287l-0.4660873,0.3690186
			c-0.2646408,0.2064056-0.6502762,0.1772308-0.8782578-0.0777588l-0.1692657-0.1933136
			c-0.2361603-0.2616882-0.2165985-0.6688461,0.0450897-0.9050064l2.1365814-1.9084167l0.1650467-0.1514359
			c0.248291-0.2198029,0.5307617-0.3980331,0.840683-0.5263596c0.1441956-0.0593567,0.2749405-0.1024017,0.4287872-0.1401901
			l3.3782349-0.5910416l8.5156021-5.6794357l1.4366608-7.1368332l6.2721634,1.0423393l-0.857605,4.1300659l-0.4626617,2.2148094
			C131.2871399,65.2491531,130.1606598,66.674408,128.6131897,67.41362z"/>
		<polygon class="st1" points="126.7503281,61.0550346 126.465683,63.7459526 116.7324982,68.9850311 125.2481003,63.3055954 
			126.684761,56.1687622 132.9569244,57.2111015 132.0993195,61.3411674 		"/>
		<path class="st7" d="M132.603775,61.1296082c-3.0402679-0.5382538-6.5665665-1.1333466-7.8406525-1.3441963l0.2339706-1.1189079
			l0.4709015-2.2080688l1.1591263-5.3983688c0.1326218-0.6285934,0.413147-1.2041931,0.7945938-1.6698685
			c0.8365097-1.0212097,2.1543655-1.5798988,3.5295334-1.4090538c0.0839996,0.0142288,0.1596222,0.021595,0.2436676,0.0357742
			c0.0378876,0.0037918,0.0758057,0.0075302,0.1070404,0.0194511c0.4984436,0.1080017,0.94487,0.2962074,1.3392639,0.5646057
			c0.3930664,0.2537384,0.7323914,0.5726814,1.0018463,0.9435501c0.0275269,0.0498009,0.0617218,0.0914688,0.087738,0.126442
			c0.5886841,0.8644905,0.8318634,1.950985,0.5949402,3.0401421l-1.1660767,5.4064331c0,0-0.1147461,0.6568146-0.2891998,1.6196671
			C132.7914429,60.150238,132.6969452,60.6325912,132.603775,61.1296082z"/>
		<line class="st4" x1="111.2544556" y1="73.1109238" x2="113.1621017" y2="71.3082886"/>
		<line class="st4" x1="112.7621384" y1="73.8348083" x2="113.9142151" y2="72.42836"/>
		<line class="st4" x1="113.8641663" y1="74.7320175" x2="114.6983337" y2="73.955719"/>
		<line class="st4" x1="125.2481003" y1="63.3055954" x2="126.8309937" y2="63.8248558"/>
		<path class="st13" d="M121.5530701,84.6238632l-2.3271713,17.3042984l-6.154686-5.232811
			c-0.0614624-2.2915268-0.1141434-4.6006241-0.1668167-6.8482666c-0.0263138-1.0272293-0.0438919-2.0457153-0.0701981-3.0465775
			c0-0.1756134-0.0087891-0.3600082-0.0087891-0.526825c-0.0790482-2.8885498-0.1492996-5.5751801-0.2107086-7.893074
			c-0.0175781-0.5619202-0.0263672-1.1062698-0.0439453-1.6155167l6.2262192,2.8558502
			C120.7158508,80.501091,121.8344498,82.531601,121.5530701,84.6238632z"/>
		<path class="st80" d="M42.5330086,74.1967697c0,0,22.3340034-1.2616425,26.7092323,18.451088l11.2843781-8.6675873
			c0,0-1.9502182-12.3995132-27.050663-14.341156l-10.9429474,4.4630737"/>
		<text transform="matrix(1.0804213 0.3092248 -0.6684501 0.74376 60.1210327 75.5049896)" class="st77 st78 st86">$</text>
		<path class="st80" d="M68.0605316,84.6771545c0,0,2.1875534,2.3718948,2.3167801,5.4563141"/>
		<path class="st80" d="M69.5177307,83.5444794c0,0,2.1875534,2.3718948,2.3167801,5.4563141"/>
		
			<ellipse transform="matrix(0.9559534 -0.2935184 0.2935184 0.9559534 -16.3365612 21.9348164)" class="st24" cx="64.9165344" cy="65.3993454" rx="2.618154" ry="2.4642859"/>
		
			<ellipse transform="matrix(0.9905196 -0.1373713 0.1373713 0.9905196 -7.7296438 10.1632853)" class="st24" cx="69.7685394" cy="61.0831833" rx="1.847124" ry="1.3254397"/>
		<text transform="matrix(0.2367776 -0.8665168 0.97774 0.20984 66.1200333 66.865921)" class="st77 st78 st87">$</text>
		<path class="st80" d="M20.9965153,59.1114426c0,0,4.6071167,0.1850243,7.9694633,2.2863197"/>
		<path class="st80" d="M21.5613346,57.2116013c0,0,4.6071167,0.1850243,7.9694633,2.2863235"/>
	</g>
	<path class="st2" d="M120.0944366,73.1258621c-0.0347672,0.548317-2.509758,44.0484619-2.509758,44.0484619"/>
</g>
</svg>
