<?xml version="1.0" encoding="utf-8"?>
<!-- Generator: Adobe Illustrator 22.0.1, SVG Export Plug-In . SVG Version: 6.00 Build 0)  -->
<svg version="1.1" id="Layer_1" xmlns="http://www.w3.org/2000/svg" xmlns:xlink="http://www.w3.org/1999/xlink" x="0px" y="0px"
	 viewBox="0 0 156 156" style="enable-background:new 0 0 156 156;" xml:space="preserve">
<style type="text/css">
	.st0{fill:#FFD9B2;}
	.st1{fill:#F7AC76;}
	.st2{fill:none;stroke:#3643C3;stroke-width:0.5;stroke-linecap:round;stroke-linejoin:round;stroke-miterlimit:10;}
	.st3{fill:#233764;}
	.st4{fill:none;stroke:#F7AC76;stroke-width:0.5;stroke-linecap:round;stroke-linejoin:round;stroke-miterlimit:10;}
	.st5{fill:#161718;}
	.st6{fill:#FFFFFF;}
	.st7{fill:#F06449;}
	.st8{fill:#BE412D;}
	.st9{fill:#FE8E60;}
	.st10{fill:#7D4C47;}
	.st11{fill:#4456D6;}
	.st12{fill:#203881;}
	.st13{fill:#6582FC;}
	.st14{fill:#DDA103;}
	.st15{fill:#FBC32E;}
	.st16{fill:none;stroke:#DDA103;stroke-width:0.5;stroke-miterlimit:10;}
	.st17{fill:#FBE6BB;}
	.st18{fill:none;stroke:#BE412D;stroke-width:0.5;stroke-linecap:round;stroke-linejoin:round;stroke-miterlimit:10;}
	.st19{fill:none;stroke:#F06449;stroke-width:0.5;stroke-linecap:round;stroke-linejoin:round;stroke-miterlimit:10;}
	.st20{fill:#F34B4B;}
	.st21{fill:#FC7070;}
	.st22{fill:none;stroke:#FFFFFF;stroke-miterlimit:10;}
	.st23{fill:#FC9F9F;}
	.st24{fill:#408A6F;}
	.st25{fill:#64B48D;}
	.st26{fill:none;stroke:#FBE6BB;stroke-width:0.5;stroke-linecap:round;stroke-linejoin:round;stroke-miterlimit:10;}
	.st27{fill:none;stroke:#F7AC76;stroke-width:0.25;stroke-linecap:round;stroke-linejoin:round;stroke-miterlimit:10;}
	.st28{fill:#A0665A;}
	.st29{fill:#6C3F44;}
	.st30{fill:none;stroke:#6C3F44;stroke-width:0.5;stroke-linecap:round;stroke-linejoin:round;stroke-miterlimit:10;}
	.st31{fill:none;stroke:#7D4C47;stroke-width:0.5;stroke-linecap:round;stroke-linejoin:round;stroke-miterlimit:10;}
	.st32{fill:none;stroke:#F34B4B;stroke-width:0.5;stroke-linecap:round;stroke-linejoin:round;stroke-miterlimit:10;}
	.st33{fill:none;stroke:#FC7070;stroke-width:0.5;stroke-linecap:round;stroke-linejoin:round;stroke-miterlimit:10;}
	.st34{fill:#EAE8F3;}
	.st35{fill:#40304A;}
	.st36{fill:none;stroke:#43334E;stroke-linecap:round;stroke-linejoin:round;stroke-miterlimit:10;}
	.st37{fill:#32775B;}
	.st38{fill:none;stroke:#233764;stroke-width:0.5;stroke-linecap:round;stroke-linejoin:round;stroke-miterlimit:10;}
	.st39{fill:none;stroke:#408A6F;stroke-width:0.5;stroke-linecap:round;stroke-linejoin:round;stroke-miterlimit:10;}
	.st40{fill:#3643C3;}
	.st41{opacity:0.56;fill:url(#SVGID_1_);}
	.st42{opacity:0.52;fill:#FBC32E;}
	.st43{opacity:0.56;fill:url(#SVGID_2_);}
	.st44{fill:none;stroke:#EAE8F3;stroke-width:0.5;stroke-linecap:round;stroke-linejoin:round;stroke-miterlimit:10;}
	.st45{fill:#FEFFFD;}
	.st46{opacity:0.35;fill:#32775B;}
	.st47{fill:#43334E;}
	.st48{fill:none;stroke:#EAE8F3;stroke-width:0.25;stroke-linecap:round;stroke-linejoin:round;stroke-miterlimit:10;}
	.st49{fill:none;stroke:#FBC32E;stroke-width:0.5;stroke-linecap:round;stroke-linejoin:round;stroke-miterlimit:10;}
	.st50{fill:none;stroke:#161718;stroke-width:0.5;stroke-linecap:round;stroke-linejoin:round;stroke-miterlimit:10;}
	.st51{fill:none;stroke:#40304A;stroke-linecap:round;stroke-linejoin:round;stroke-miterlimit:10;}
	.st52{opacity:0.33;fill:#FBC32E;}
	.st53{fill:#A6A3AE;}
	.st54{fill:#5B4B68;}
	.st55{fill:#776688;}
	.st56{fill:none;stroke:#FBC32E;stroke-width:0.5;stroke-miterlimit:10;}
	.st57{fill:none;stroke:#EAE8F3;stroke-linecap:round;stroke-linejoin:round;stroke-miterlimit:10;}
	.st58{fill:none;stroke:#203881;stroke-width:2;stroke-linecap:round;stroke-linejoin:round;stroke-miterlimit:10;}
	.st59{fill:none;stroke:#40304A;stroke-width:2;stroke-linecap:round;stroke-linejoin:round;stroke-miterlimit:10;}
	.st60{fill:#FFD8B7;}
	.st61{fill:#F4E4D4;}
	.st62{fill:none;stroke:#4456D6;stroke-width:0.5;stroke-linecap:round;stroke-linejoin:round;stroke-miterlimit:10;}
	.st63{fill:none;stroke:#DDA103;stroke-width:0.25;stroke-miterlimit:10;}
	.st64{fill:none;stroke:#FFFFFF;stroke-width:0.5;stroke-linecap:round;stroke-linejoin:round;stroke-miterlimit:10;}
	.st65{fill:none;stroke:#64B48D;stroke-width:0.5;stroke-linecap:round;stroke-linejoin:round;stroke-miterlimit:10;}
	.st66{fill:none;stroke:#64B48D;stroke-linecap:round;stroke-linejoin:round;stroke-miterlimit:10;}
	.st67{opacity:0.48;fill:#64B48D;}
	.st68{fill:none;stroke:#64B48D;stroke-width:0.25;stroke-linecap:round;stroke-linejoin:round;stroke-miterlimit:10;}
	.st69{fill:none;stroke:#F06449;stroke-width:2;stroke-linecap:round;stroke-linejoin:round;stroke-miterlimit:10;}
	.st70{opacity:0.92;fill:#64B48D;}
	.st71{opacity:0.57;fill:#408A6F;}
	.st72{opacity:0.36;fill:#408A6F;}
	.st73{fill:none;stroke:#BE412D;stroke-width:2;stroke-linecap:round;stroke-linejoin:round;stroke-miterlimit:10;}
	.st74{opacity:0.65;fill:none;stroke:#408A6F;stroke-width:0.25;stroke-linecap:round;stroke-linejoin:round;stroke-miterlimit:10;}
	.st75{opacity:0.67;fill:none;stroke:#64B48D;stroke-width:0.25;stroke-linecap:round;stroke-linejoin:round;stroke-miterlimit:10;}
	.st76{opacity:0.98;fill:#64B48D;}
	.st77{fill:none;stroke:#408A6F;stroke-width:0.25;stroke-linecap:round;stroke-linejoin:round;stroke-miterlimit:10;}
	.st78{fill:none;stroke:#FFD9B2;stroke-width:0.5;stroke-linecap:round;stroke-linejoin:round;}
	
		.st79{fill:none;stroke:#FFD9B2;stroke-width:0.5;stroke-linecap:round;stroke-linejoin:round;stroke-dasharray:4.0333505,4.0333505;}
	.st80{fill:#E68B4A;}
	.st81{opacity:0.62;fill:#64B48D;}
	.st82{fill:none;stroke:#FBC32E;stroke-width:0.25;stroke-miterlimit:10;}
	.st83{fill:none;stroke:#4456D6;stroke-linecap:round;stroke-linejoin:round;stroke-miterlimit:10;}
	.st84{fill:none;stroke:#E68B4A;stroke-width:0.5;stroke-linecap:round;stroke-linejoin:round;stroke-miterlimit:10;}
	.st85{fill:none;stroke:#203881;stroke-width:0.5;stroke-linecap:round;stroke-linejoin:round;stroke-miterlimit:10;}
	.st86{opacity:0.29;fill:#EAE8F3;}
	.st87{fill:none;stroke:#A6A3AE;stroke-width:0.5;stroke-linecap:round;stroke-linejoin:round;stroke-miterlimit:10;}
	.st88{opacity:0.74;fill:#FFFFFF;}
	.st89{opacity:0.19;fill:#FFFFFF;}
	.st90{fill:none;stroke:#40304A;stroke-width:0.25;stroke-linecap:round;stroke-linejoin:round;stroke-miterlimit:10;}
	.st91{fill:none;stroke:#F34B4B;stroke-width:2;stroke-linecap:round;stroke-linejoin:round;stroke-miterlimit:10;}
	.st92{fill:none;stroke:#43334E;stroke-width:0.5;stroke-linecap:round;stroke-linejoin:round;stroke-miterlimit:10;}
	.st93{fill:none;stroke:#6582FC;stroke-miterlimit:10;}
	.st94{opacity:0.47;fill:#A6A3AE;}
	.st95{opacity:0.43;fill:#FFFFFF;}
	.st96{fill:none;stroke:#FBE6BB;stroke-linecap:round;stroke-linejoin:round;stroke-miterlimit:10;}
	.st97{fill:none;stroke:#5B4B68;stroke-width:0.5;stroke-linecap:round;stroke-linejoin:round;stroke-miterlimit:10;}
	.st98{fill:none;stroke:#40304A;stroke-width:0.5;stroke-linecap:round;stroke-linejoin:round;stroke-miterlimit:10;}
	.st99{fill:none;stroke:#DDA103;stroke-linecap:round;stroke-linejoin:round;stroke-miterlimit:10;}
	.st100{fill:none;stroke:#FBC32E;stroke-linecap:round;stroke-linejoin:round;stroke-miterlimit:10;}
	.st101{fill:none;stroke:#32775B;stroke-width:0.5;stroke-linecap:round;stroke-linejoin:round;stroke-miterlimit:10;}
	.st102{opacity:0.4;fill:#FBE6BB;}
	.st103{fill:none;stroke:#FBC32E;stroke-width:0.25;stroke-linecap:round;stroke-linejoin:round;stroke-miterlimit:10;}
	.st104{fill:none;stroke:#4456D6;stroke-miterlimit:10;}
	.st105{opacity:0.61;fill:#64B48D;}
	.st106{opacity:0.9;fill:#64B48D;}
	.st107{opacity:0.76;fill:#64B48D;}
	.st108{opacity:0.48;fill:#FFFFFF;}
	.st109{font-family:'MyriadPro-Regular';}
	.st110{font-size:0.99471px;}
	.st111{font-size:1.35543px;}
	.st112{font-size:1.04803px;}
	.st113{fill:none;stroke:#5B4B68;stroke-width:0.5;stroke-miterlimit:10;}
	.st114{opacity:0.66;fill:#A6A3AE;}
	.st115{fill:none;stroke:#43334E;stroke-miterlimit:10;}
	.st116{opacity:0.52;fill:#6582FC;}
	.st117{fill:none;stroke:#DDA103;stroke-width:0.5;stroke-linecap:round;stroke-linejoin:round;stroke-miterlimit:10;}
	.st118{fill:#46724E;}
	.st119{fill:#FE8B2E;}
	.st120{fill:none;stroke:#7D4C47;stroke-width:2;stroke-linecap:round;stroke-linejoin:round;stroke-miterlimit:10;}
	.st121{opacity:0.4;fill:#EAE8F3;}
	.st122{fill:none;stroke:#EAE8F3;stroke-width:0.5;stroke-linecap:round;stroke-miterlimit:10;}
	.st123{fill:none;stroke:#4456D6;stroke-width:0.25;stroke-linecap:round;stroke-linejoin:round;stroke-miterlimit:10;}
	.st124{opacity:0.5;fill:#EAE8F3;}
	.st125{opacity:0.46;fill:#A6A3AE;}
	.st126{fill:#E0916E;}
	.st127{fill:none;stroke:#A0665A;stroke-linecap:round;stroke-linejoin:round;stroke-miterlimit:10;}
	.st128{opacity:0.46;fill:#BE412D;}
	.st129{fill:none;stroke:#203881;stroke-linecap:round;stroke-linejoin:round;stroke-miterlimit:10;}
	.st130{fill:#DBDBE1;}
	.st131{fill:none;stroke:#6582FC;stroke-width:0.5;stroke-linecap:round;stroke-linejoin:round;stroke-miterlimit:10;}
	.st132{opacity:0.53;fill:#A6A3AE;}
	.st133{fill:none;stroke:#DDA103;stroke-miterlimit:10;}
	.st134{opacity:0.2;fill:#FFFFFF;}
	.st135{fill:#B4A1BF;}
	.st136{opacity:0.5;fill:#6582FC;}
	.st137{opacity:0.6;fill:none;stroke:#FFFFFF;stroke-linecap:round;stroke-linejoin:round;stroke-miterlimit:10;}
	.st138{opacity:0.6;fill:none;stroke:#FFFFFF;stroke-width:2;stroke-linecap:round;stroke-linejoin:round;stroke-miterlimit:10;}
	.st139{opacity:0.54;fill:#A6A3AE;}
	.st140{fill:#161718;stroke:#000000;stroke-width:0.25;stroke-miterlimit:10;}
</style>
<g id="_x32_0">
	<g>
		<polygon class="st0" points="79.4784012,137.3873291 83.29776,138.7136078 84.0364456,137.2362518 85.6312408,134.0800629 
			80.9306717,133.2658539 80.4605484,134.6088867 		"/>
		<path class="st1" d="M80.4605484,134.6088867v0.0167999c0,0,1.930687,1.4437714,3.5758972,2.6105652l1.5947952-3.156189
			l-4.7005692-0.814209L80.4605484,134.6088867z"/>
		<polygon class="st0" points="119.0313797,120.7922363 121.2977448,121.2035446 122.9849625,121.514122 123.6313248,117.8543091 
			121.0795898,117.0484543 119.0817947,116.4188995 119.0733948,117.2163467 		"/>
		<path class="st1" d="M119.0313797,120.7922363l2.2663651,0.4113083c-0.0670166-1.2423096-0.2265549-4.1047287-0.2181549-4.1550903
			l-2.0061951,0.1678925L119.0313797,120.7922363z"/>
		<path class="st7" d="M91.7964249,79.9187775l-6.0524216,7.5419006c-0.6619568,0.8353577-1.7416687,1.2372894-2.789772,1.0481567
			l-8.6452255-1.560379c-1.0875473-0.1576233-1.859848-1.0954361-1.859848-2.1514816
			c0-0.1418457,0.0078888-0.2836914,0.0393906-0.4334335c0.2127991-1.0875473,1.2215118-1.8362274,2.3248367-1.7337723
			l1.9465714,0.1812897l1.0323792,0.0945663l0.9929352,0.0945587l3.8694839,0.3625336l3.9167175-6.0918579l0.2600784-0.4019318
			l0.8117447-1.2372818c0-0.007843,0.0078354-0.0236206,0.0078354-0.0236206l0.0236664-0.0236664
			c0.5437775-0.6304474,1.3081894-0.9456482,2.0805359-0.9456482c0.6698456,0,1.3396912,0.236412,1.883461,0.7329025
			C92.8209152,76.4591599,92.9864273,78.8233948,91.7964249,79.9187775z"/>
		<polygon class="st9" points="89.0145416,77.775238 87.0364609,84.1350174 85.7676697,85.1831741 75.5620651,86.4204102 
			76.7599564,82.811058 77.7923355,82.9056244 78.7852707,83.0001831 82.6547546,83.3627167 86.5714722,77.2708588 
			86.8315506,76.868927 		"/>
		<path class="st54" d="M121.2070465,116.4156952l-1.0853195,5.4606476l-17.4254303-0.8911285
			c-2.0634384-0.0715637-3.8645096-1.4372482-4.490593-3.4053268l-0.4533997-1.419342l-3.4349899-10.7765427l-0.811142-2.5346069
			l4.8663864-2.2423859l2.6062393-1.1987228l0.995903-0.4592209c0,0.0238724,0.0179138,0.1252518,0.0537262,0.2981873
			c0.2028275,1.0019073,0.9541168,4.3893661,1.6995926,7.6992493c0.8409805,3.7631454,1.6758575,7.4368134,1.6758575,7.4368134
			L121.2070465,116.4156952z"/>
		<path class="st47" d="M103.7280197,106.9465027c-0.9779968,1.5147858-3.9837646,6.1426849-5.9757156,9.2140427
			l-3.4349899-10.7765427c1.0614243-1.6817932,2.5941544-3.5961761,4.0552444-4.7769928
			c0.7157745-0.5785065,1.4075165-0.9840393,2.027771-1.0973511c0.1847687-0.0357819,0.3816223-0.0715637,0.5784683-0.1013718
			c0.3340073-0.0596237,0.6857758-0.1133118,1.0496292-0.1610336
			C102.2312546,100.2491608,102.9825439,103.6366196,103.7280197,106.9465027z"/>
		<path class="st5" d="M91.2293091,61.4879799c-0.6684647,1.0405884-1.1176071,2.0685349-1.3825531,3.2762871
			c-0.3858643,1.7589722-0.6155396,3.5522003-0.6848526,5.3516769c-0.0031281,0.0811234-0.0046234,0.1675491,0.0375519,0.2369232
			c0.0475693,0.0782394,0.1390457,0.1162338,0.2247162,0.1485596c1.4356079,0.5417175,2.9501419,0.873764,4.4807129,0.9823532
			c0.5364227-2.3936691-0.3600311-4.9185486,0.0798874-7.3318176"/>
		<path class="st3" d="M100.5077133,72.7242889c-0.4667358,0.0115585-0.9335938,0.0183792-1.4004669,0.020462
			c-0.0765762,0.0003433-0.1603622-0.0019531-0.2185516-0.0517349c-0.0523071-0.0447464-0.0704269-0.1166534-0.0857468-0.1837616
			c-0.1138611-0.4987488-0.2277222-0.9975052-0.3415756-1.496254c-0.0413437,0.555748-0.082695,1.1115036-0.1240387,1.6672516
			c-1.5568085-0.1625137-3.1191177-0.2722931-4.6833496-0.3290939c-0.1557007-0.0056534,0.458168-3.4216385,0.5359802-3.7233353
			c0.0751877-0.2915344,0.1324005-0.6269913,0.2649002-0.8985443c0.0803146-0.1646042,0.2222672-0.2868347,0.2764053-0.4640274
			c0.1374893-0.4500198-0.283226-0.9089966,0.1407471-1.2780991c0.0923233-0.0839157,1.099678-0.5959473,1.1836014-0.5455856
			c0,0-5.1036758-3.1813927-5.1874924-3.2317543c-0.6211548-0.386097-0.5037308-1.8046989,0-2.1908455
			c0.6043472-0.4784698,1.5360794-0.3105774,2.2411575-0.2686195c0.6547623,0.0419617,1.3095245,0.0839729,1.9642868,0.1259308
			c0.3945007,0.0251579,0.7890015,0.0503654,1.1834946,0.0755196c0.545639,0.0336113,1.108078,0.0671692,1.594902,0.3105774
			c0.1595383,0.0755692,0.3105774,0.1678925,0.4364014,0.2938232c0.2770615,0.2433968,0.4701004,0.5875587,0.4701233,0.9568748
			c-0.0000381-0.6404152,0.6106186-1.236412,1.1498642-0.6393585c0.6058197,0.6707649,0.6705246,1.908535,0.7404404,2.7565079
			c0.0990906,1.201786,0.1515961,2.4068718,0.2262726,3.6104164c0.0635223,1.0238342,0.1471863,2.0650635,0.5255585,3.0185394
			c0.3739929,0.9424515,1.0347366,1.7689056,1.8717575,2.3411713
			C102.3517761,72.6601334,101.4299774,72.7014542,100.5077133,72.7242889z"/>
		<path class="st0" d="M95.249527,75.9802475l-3.5554962-0.2522888l0.353775-5.0591812
			c-0.0374222-0.0213852-0.0820007-0.0384293-0.1250229-0.0611954c-0.4327087-0.2219772-0.7870636-0.5891571-1.0012589-1.0560074
			c-0.1823654-0.3979263-0.3117752-0.8134766-0.3894424-1.2405396c-0.0779419-0.4271393-0.1053391-0.8602982-0.0713272-1.2965088
			l0.2210541-3.106411c0,0-0.0074081-0.7874641,0.59095-1.4383011c0.2170639-0.238987,0.5215988-0.462429,0.9370422-0.6162529
			l4.8483582,0.3446541l-0.2048798,2.8910789l-0.1886978,2.6272736l-0.0256729,0.40168
			c-0.0187149,0.324295-0.1135712,0.6359711-0.2730408,0.9134903c-0.1068573,0.1868134-0.2423477,0.3667374-0.4066925,0.5151978
			c-0.0371857,0.0272903-0.1301422,0.0837021-0.2647629,0.1602097l-0.1614075,2.2928925L95.249527,75.9802475z"/>
		<path class="st0" d="M95.4218369,73.5595093c0,0-0.3817139-0.2610779-3.6383667,0.3185425l-2.5906525,2.5570297
			l2.6685104,2.3772507l4.8807678-0.5333862c1.2675629-0.7327118,1.9486618-2.2985458,1.7002335-3.7414093"/>
		<path class="st1" d="M96.6645813,67.716568c-0.1281433-0.1229248-0.2019653-0.2933121-0.1927414-0.4797211l0.1179047-1.6945801
			c0.0164108-0.1908951,0.1176529-0.3548508,0.2635345-0.4529724L96.6645813,67.716568z"/>
		<path class="st1" d="M91.999527,71.3961639l0.0515366-0.7277908c0.0005569,0.1768875,1.9620209-0.3372269,2.2021332-0.4883728
			c0.1253891-0.0229645,0.1791306,0.1528854,0.0623169,0.2039413C93.6852264,70.9271469,92.919693,71.273941,91.999527,71.3961639z"
			/>
		<path class="st4" d="M92.3033218,66.5692139l-0.4136887,0.4443359c-0.1081238,0.1161346-0.1002579,0.2982941,0.0174789,0.4046707
			l0.3158798,0.2853928"/>
		<path class="st3" d="M96.9238586,65.6374664c-0.8381577-0.4696426-1.6763153-0.9392776-2.514473-1.4089203
			c-0.6263962-0.3509865-1.2527924-0.7019691-1.8791809-1.0529556c-0.242218-0.1357155-0.4844284-0.2714348-0.7266388-0.4071503
			c-0.1369171-0.0767174-0.3666306-0.1535149-0.477066-0.2661247c-0.1868439-0.1905212,0.0883713-0.6477547,0.2196198-0.8390808
			c0.1943054-0.2832413,0.4690323-0.5130844,0.7885818-0.6415558c0.260025-0.104538,0.5409775-0.1452446,0.8199539-0.1719437
			c0.9422302-0.0901756,1.8987885-0.0290337,2.8218689,0.1803665c0.4091034,0.0928078,0.8195038,0.2182503,1.163269,0.4586792
			c0.3437576,0.2404327,0.6154633,0.6124573,0.6493988,1.0305786c0.0289841,0.3570366-0.1142197,0.705864-0.2897186,1.0181389
			c-0.223732,0.3980904-0.5225983,0.7548065-0.5408554,1.2221375
			C96.9471817,65.0522537,96.9354477,65.3448563,96.9238586,65.6374664z"/>
		<path class="st0" d="M96.5968781,65.3850555l-0.1198807,1.6928635c-0.0235672,0.3328552,0.2269058,0.6215057,0.559761,0.6450729
			s0.6215057-0.2269058,0.6450729-0.559761l0.119873-1.6928635c0.0117874-0.1664276-0.0450974-0.3212204-0.1461258-0.4381485
			c-0.101532-0.1165009-0.2472382-0.194664-0.4136658-0.2064438C96.9090652,64.8022003,96.6204147,65.052681,96.5968781,65.3850555z
			"/>
		<path class="st1" d="M97.4930115,65.3962402l-0.0532684,0.565239l-0.5408401,0.192688l0.0760193-0.8067474
			c0.0133209-0.1413116,0.1421432-0.2479477,0.2834549-0.2346344
			C97.3996887,65.1261063,97.5063248,65.2549362,97.4930115,65.3962402z"/>
		<path class="st1" d="M96.8467484,66.7076187l0.5380554-0.1630707l-0.0499344,0.5298691
			c-0.0133133,0.1413116-0.1421432,0.2479553-0.2834549,0.2346344c-0.141304-0.0133133-0.2479477-0.1421432-0.2346344-0.2834549
			L96.8467484,66.7076187z"/>
		<path class="st5" d="M92.595787,69.2569351c0.0153351,0.0035019,0.0321121,0.005928,0.0488663,0.0083618
			c0.4288864,0.0611572,0.7910233-0.3361511,0.9729843-0.6884995l-0.0001526-0.0007782
			c0.03479-0.0678787,0.0626678-0.1335831,0.0833282-0.1946259c0.0217514-0.0636902,0.0348663-0.1216278,0.0393066-0.1697311
			c0.0032654-0.033226-0.0263748-0.0599976-0.0593185-0.053566l-1.5499954,0.3028488
			c-0.0219498,0.0042877-0.0386505,0.0230179-0.0400085,0.0452728C92.0821762,68.6496048,92.0921478,69.155014,92.595787,69.2569351
			z"/>
		<path class="st45" d="M92.4147644,68.4054642l0.0173264,0.0886459c0.0140915,0.0721588,0.0834808,0.118866,0.1548538,0.1049194
			l1.1138687-0.2176361c0.0217514-0.0636902,0.0348663-0.1216278,0.0393066-0.1697311
			c0.0032654-0.033226-0.0263748-0.0599976-0.0593185-0.053566L92.4147644,68.4054642z"/>
		<path class="st3" d="M92.595787,69.2569351c0.0153351,0.0035019,0.0321121,0.005928,0.0488663,0.0083618
			c0.4288864,0.0611572,0.7910233-0.3361511,0.9729843-0.6884995l-0.0001526-0.0007782
			c-0.1836395-0.0480042-0.4334183,0.0073242-0.6552887,0.1638565
			C92.7590561,68.8838043,92.6277695,69.0788498,92.595787,69.2569351z"/>
		<path class="st7" d="M104.2716827,92.3467636l-5.2407227,1.0875473c-0.007843,0-0.007843,0-0.007843,0l-0.859024,0.1812439
			v1.2372818l-4.9333649,0.8747559l-0.5043793-1.631279l-1.1742249-3.8458176l-0.6777344-2.2302628l-0.3625336-1.1821213
			c-1.9465256-0.3152466-2.3957367-1.9386826-2.2853928-3.6724091c0.1497345-2.246048,1.2451248-4.6733398,1.2451248-4.6733398
			L89.34552,77.775238l-0.2994766-1.6786118l-0.0236206-0.1891251l-0.1891785-1.1033249l2.9001694-0.8983765h0.0078354
			l0.047287-0.0236664v0.0866776c0,0.0078888,0,0.0393982,0,0.0393982c0,0.4413223-0.0393982,0.8905258-0.0393982,1.3318481
			c0,0.394043,0.0393982,0.7959671,0.2127991,1.1427231c0.1733551,0.3546448,0.5201111,0.6383362,0.9141464,0.646225
			c0.1734009,0.0078888,0.346756-0.0709,0.5122681-0.1182251c0.7014008-0.2048645,2.3642273-2.6321487,2.0332489-3.4517365
			c0,0,2.7818909,0.701355,3.6724167,1.0796661c1.8441238,0.7801895,2.9158936,4.5156631,3.6409073,8.4008713
			C103.4521027,86.9011765,103.8224792,90.9203415,104.2716827,92.3467636z"/>
		<path class="st8" d="M96.5067139,78.1780014l-0.3012772-0.8627472c-0.1044006-0.2989655-0.4903412-0.3778687-0.7036972-0.1438675
			l-6.8127823,7.4719315c0,0,6.7043915-2.253891,6.8012085-2.3022995"/>
		<path class="st9" d="M88.2264633,83.1657028c0.1497345-2.246048,1.2451248-4.6733398,1.2451248-4.6733398L89.34552,77.775238
			l3.5542297,1.3476257C92.8997498,79.1228638,89.9207993,81.7156219,88.2264633,83.1657028z"/>
		<path class="st8" d="M99.0309601,93.4343109l3.7276306-2.0095825l-2.2471085-7.5948486
			c-0.1889267-0.6385498-0.9809341-0.85923-1.472847-0.4103928l-7.4865112,6.8310089l-0.6777344-2.2302628
			c3.3493195-3.0971375,9.1889496-8.5112152,9.1889496-8.5112152l2.6715851,3.5305634
			c0.7171783,3.8615952,1.0875549,7.8807602,1.5367584,9.3071823L99.0309601,93.4343109z"/>
		<line class="st87" x1="90.512291" y1="86.8367233" x2="91.4179611" y2="86.7422943"/>
		<path class="st54" d="M104.3746948,102.8716888c-0.0471344,0.0945663-0.1260223,0.2127533-0.2364578,0.3624878
			c-1.7889557,2.5139618-11.1748734,12.6328888-11.1748734,12.6328888l-7.5735016,20.3165894l-5.6896896-1.907135
			l3.4201279-12.3649216l1.2215576-4.413208l1.1978912-4.389595c0.0709915-0.2600784,0.1417999-0.5201569,0.2364578-0.7880783
			v-0.0157776c0.2362671-0.7092361,0.5358353-1.4027481,0.8904343-2.0647507l5.9263535-10.8360519l1.0874481-2.0017014
			l-0.4017334-1.4185715L93.12883,95.432251l-0.039444-0.1340103l-0.2599335-0.8983688l3.2625504-0.5910568v-0.0078888
			l8.180336-1.4579697l0.3388214,1.7180481C105.9350739,96.8743896,105.8484879,100.144928,104.3746948,102.8716888z"/>
		<path class="st47" d="M104.3746948,102.8716888c-0.0471344,0.0945663-0.1260223,0.2127533-0.2364578,0.3624878
			c0.1353226-1.8067169,0.4765549-4.1740799,0.620285-5.1291351c0.0428009-0.2844086,0.0363617-0.573288-0.0196228-0.8553925
			l-0.5199966-2.6203232c-0.1108017-0.558342-0.6448288-0.9278946-1.206398-0.8348389L93.12883,95.432251l-0.039444-0.1340103
			l-0.2599335-0.8983688l3.2625504-0.5910568v-0.0078888l8.180336-1.4579697l0.3388214,1.7180481
			C105.9350739,96.8743896,105.8484879,100.144928,104.3746948,102.8716888z"/>
		<path class="st55" d="M104.2716827,97.4061966l-0.929924,5.1146545L92.198349,115.334938l-4.3344193,12.0970001
			l-4.7442398-5.5165329l1.2215576-4.4132614l1.1978455-4.3895416c0.0709457-0.2600784,0.1418457-0.5201569,0.236412-0.7880783
			v-0.01577c0.2364655-0.7092896,0.5359344-1.4028015,0.8905334-2.0647583l5.9263458-10.8360519l1.0875549-2.0017471
			l-0.4019318-1.4185257l10.4499054-1.3081894L104.2716827,97.4061966z"/>
		<path class="st7" d="M91.7811203,73.8801041v0.0785599c0,0.007103,0,0.007103,0,0.0142517v0.0285797
			c-0.2426071,0.4782715-0.7710266,1.4919434-0.7710266,1.4919434l-0.8851852,1.7204285L89.4682159,78.48452l-0.2997665-1.6704102
			l-0.1214752-0.7210083l-0.0285797-0.1927567l-0.1854401-1.0993271l2.8981476-0.8994751L91.7811203,73.8801041z"/>
		<line class="st92" x1="105.4038773" y1="114.383316" x2="103.9390106" y2="115.4881592"/>
		<line class="st92" x1="92.9635239" y1="115.8742599" x2="91.9410095" y2="115.1518021"/>
		<line class="st19" x1="82.6556244" y1="83.3615341" x2="83.0508575" y2="84.1338348"/>
		<g>
			<path class="st102" d="M116.0320206,61.0043678c-1.433876,1.0075798-3.4588547,0.7944603-4.9894714-0.0581284
				c-1.1722641-0.6491127-2.0055771-1.6663895-2.9164734-2.5771065c-0.0967407-0.106617-0.2034225-0.2034798-0.3098602-0.3003426
				c-0.3197937-0.3100357-0.658989-0.6006775-1.0367355-0.8525887c-0.4262314-0.290699-0.8621674-0.5619469-1.2983398-0.823555
				c-0.1452255-0.096859-0.2904587-0.184082-0.4359283-0.2615471c-0.5035858-0.2907028-1.0074005-0.5619469-1.5306168-0.8041611
				c-0.1551666-0.0775223-0.3100967-0.1550484-0.4650269-0.2131767c-0.6007996-0.2809448-1.220993-0.5134583-1.8603516-0.7072372
				c-0.9494476-0.2906456-1.9279938-0.4747276-2.9065399-0.6491127c-0.174324-0.0290947-0.3486481-0.0581284-0.5229797-0.0872231
				c-0.0099335,0-0.0099335,0-0.0099335,0c-0.6975403-0.1259537-1.3950806-0.2519073-2.0732269-0.4262924
				c-1.8215561-0.4456329-3.6622696-1.259491-4.7763519-2.7708893c-0.397377-0.5425529,0.2616119-0.8428917,0.8815689-1.1335335
				c0.8427734-0.4069595,1.7536697-0.639473,2.6643295-0.8622894c0.0775833-0.009697,0.1549301-0.0290947,0.2325134-0.0484314
				c1.017334-0.2325134,2.0346756-0.4650841,2.9841232-0.9010201c1.8213196-0.833252,3.2551956-2.3833847,4.2628326-4.1175995
				c1.007637-1.743969,1.637291-3.6719666,2.2186966-5.5902634c0.5232162-1.724575,1.017334-3.4781876,1.1046143-5.2802277
				c0.0579529-1.1044979-0.0484848-2.2283344-0.3779831-3.2844048c-0.009697-0.0774651-0.0387878-0.1452904-0.0581818-0.2228146
				c-0.2034225-0.5812855-0.4747314-1.1432323-0.8233795-1.6470528l-13.5929489-2.1314144
				c4.2145767-0.9107189,8.7099228-1.4629688,12.740242,0.0581284c2.034668,0.7750645,3.8271332,2.0442524,5.3577499,3.5846863
				c0.1066742,0.09692,0.2034225,0.2034779,0.2907028,0.3003387c0.7654266,0.7944622,1.45327,1.6470528,2.0732269,2.5383739
				c1.9376907,2.7902851,3.274826,5.9487324,4.5246735,9.1071835c0.0193939,0.0484314,0.0387955,0.0968628,0.0581894,0.1453514
				c0.0579529,0.1355934,0.1064377,0.2809448,0.1549301,0.4165955c0.009697,0.0290375,0.0193939,0.0484314,0.0290909,0.0775261
				c0.0773468,0.1840248,0.1452332,0.3681068,0.2131195,0.5425529c0.4844208,1.3079185,0.9300537,2.6061974,1.2983398,3.9238167
				c0.0870438,0.3003387,0.174324,0.6006813,0.2516708,0.9010201c0.4361725,1.7051811,0.7460327,3.4490929,0.8721085,5.2705307
				C118.4541321,54.9296799,118.6769485,59.1441994,116.0320206,61.0043678z"/>
			<g>
				<path class="st103" d="M97.1788635,48.8664665c7.4439163,1.1927032,14.2904205,5.7142448,18.3099365,12.0921745"/>
				<path class="st103" d="M83.9546967,41.2146034c1.5460892-0.2974548,3.141983-0.1041489,4.6951141,0.1541061
					c11.0225525,1.8328285,21.4711685,6.9849777,29.6359787,14.6133308"/>
				<path class="st103" d="M84.4967804,34.8477364c6.0728989-0.212986,12.1572495,1.0610886,17.7711105,3.3870392
					c5.6138535,2.3259506,10.767395,5.6875954,15.3859634,9.6365547"/>
				<path class="st103" d="M87.3496246,28.2924194c8.9749603,0.0668259,18.6345901,3.0319614,26.1013489,8.0121117"/>
			</g>
			
				<ellipse transform="matrix(0.3773023 -0.9260902 0.9260902 0.3773023 25.5763454 115.4331665)" class="st103" cx="98.6255798" cy="38.6977234" rx="13.6129131" ry="10.2375937"/>
			<path class="st15" d="M102.7879562,36.9963722c-1.0270309,4.3501129-3.7883377,7.9541969-6.9952774,9.6303406
				c-1.4726715,0.7653694-3.0420761,1.1238365-4.5826263,0.9688492c-0.0579529-0.0097008-0.1064453-0.0097008-0.1646347-0.0193977
				c-4.7860413-0.6103783-7.4600677-6.1231194-5.9777069-12.4109268c1.5015259-6.3556309,6.6849518-11.1030045,11.5776749-10.599184
				c0.3682861,0.0387325,0.7169342,0.1065578,1.0561295,0.2034779c3.2648849,0.8719273,5.348053,4.1757278,5.4835815,8.3514557
				C103.2335892,34.3513832,103.1075134,35.659359,102.7879562,36.9963722z"/>
			<path class="st48" d="M95.7926788,46.6267128c-0.1161423-1.3176765-0.0194016-2.7321548,0.3197937-4.1854248
				c0.9979401-4.3113785,3.8077393-7.8185997,7.0726242-9.3203011"/>
			<path class="st48" d="M89.3848648,46.6756477c-0.0579529-0.0097008-0.1064453-0.0097008-0.1646271-0.0193977
				c-2.2863464-2.6643295-3.2164001-6.9175797-2.1508102-11.5293007c1.2304535-5.3092613,4.7569504-9.6012459,8.8069-11.2773323"/>
			<g>
				<path class="st15" d="M115.5960846,41.4046135c-0.0484924-0.1356506-0.0969772-0.281002-0.1549301-0.4165955
					c-0.0678864,0.716938-0.1939621,1.45327-0.3585892,2.1896019c-1.5502472,6.6656151-6.7722244,11.7520599-12.0329971,11.936142
					c0.1549301,0.0581284,0.3098602,0.1356544,0.4650269,0.2131767c5.2025833-0.4650269,10.2793274-5.5127411,11.8004837-12.0911903
					c0.1355362-0.5813408,0.2422104-1.1723251,0.3100967-1.7536087
					C115.6154785,41.4530449,115.6057816,41.433651,115.5960846,41.4046135z"/>
			</g>
			<g>
				<path class="st15" d="M117.1366348,45.9485092c0.0676498,1.1626282-0.0678864,2.441452-0.407074,3.7494316
					c-1.2207565,4.7473145-4.7763519,8.4774094-8.0123825,8.4774094c-0.0872803,0-0.174324,0-0.2616119-0.009697
					c-0.2228088-0.009697-0.4359283-0.0387306-0.6393509-0.0968628c0.1064377,0.0968628,0.2131195,0.1937256,0.3098602,0.3003426
					c0.1066818,0.0193367,0.213356,0.0290337,0.3197937,0.0387306c0.0872803,0.0097008,0.1745682,0.0097008,0.2616119,0.0097008
					c3.3427124,0,7.0047379-3.8075638,8.2642899-8.6614952c0.2616043-0.9979401,0.3971405-1.9764252,0.4165344-2.9065399
					C117.3109589,46.5491905,117.2236786,46.248848,117.1366348,45.9485092z"/>
			</g>
			<g>
				<path class="st48" d="M83.9519043,41.2120209c0.3140945-0.0642471,0.6353302-0.0999374,0.9565735-0.1213531
					c1.2421188-0.092804,2.5056534,0.0713844,3.7406311,0.2784042c3.5336151,0.5853653,7.0029755,1.5133858,10.3652649,2.7555046"/>
				<path class="st48" d="M84.4944382,34.8443794c0.2141571-0.0071373,0.4354553-0.0142746,0.6567535-0.0142746
					c5.8536606-0.0999413,11.7001801,1.1635933,17.1183853,3.405117c0.0499725,0.0214157,0.0999451,0.0428314,0.14991,0.0642471"/>
				<path class="st48" d="M87.349884,28.2911358c0.4068985,0,0.8209381,0.0142765,1.2278366,0.028553
					c4.9042282,0.1713276,9.7727585,1.1350403,14.3843002,2.8197517"/>
			</g>
			<path class="st11" d="M97.5948334,22.2892265c-6.2587128-0.7459717-12.740242,4.9120617-14.4939117,12.6434975
				c-1.7439728,7.7313805,1.9085999,14.6005287,8.1576157,15.3465004
				c6.2589493,0.7460327,12.7404785-4.9216995,14.4941483-12.6434364
				C107.4964218,29.9044075,103.8438492,23.0352573,97.5948334,22.2892265z M102.7879562,36.9963722
				c-1.5017548,6.3556328-6.6851807,11.1029472-11.5779037,10.5991898
				c-4.8924942-0.5038223-7.644104-6.0746918-6.1423416-12.4303246c1.5015259-6.3556309,6.6849518-11.1030045,11.5776749-10.599184
				C101.5381088,25.0698719,104.2894821,30.6407413,102.7879562,36.9963722z"/>
		</g>
		<line class="st92" x1="93.6812515" y1="97.40625" x2="95.4936066" y2="97.0998688"/>
		<polygon class="st1" points="91.7421646,73.9027786 91.7841797,73.9279861 91.7841797,73.8776245 		"/>
		<path class="st104" d="M89.4348907,48.5231667c-0.004158,0.4132767-19.5742111,45.7864952-19.5742111,45.7864952"/>
		<path class="st10" d="M78.4393845,77.0913544c0,0.1259308-0.0252075,0.2518082-0.0755692,0.369339l-7.4539566,17.0148468
			c-0.2014542,0.4616699-0.7470398,0.679924-1.2171555,0.4700699c-0.4700699-0.2014465-0.679924-0.7470856-0.4784164-1.2171555
			l7.4539566-17.0064468c0.2014542-0.4700623,0.7470398-0.6799164,1.2171021-0.4784698
			C78.2379379,76.3946762,78.4393845,76.7304153,78.4393845,77.0913544z"/>
		<path class="st0" d="M74.2220383,85.336731l-1.1425781-0.2367477c-0.0071182,0.0223465-0.3754807,0.8437195-0.5904083,1.2635651
			c0,0-1.1770935-2.7192688-0.5934753-3.7777252l0.8891449-1.585907c0.2672195-0.4591293,0.5044327-0.6003342,0.7631836-0.6039658
			l2.5834656-0.0362549c0.2149582-0.0057755,0.4014053,0.1289978,0.483902,0.3160706
			c0.0232086,0.0638809,0.0400391,0.1300964,0.0400467,0.2097092c-0.0064087,0.2410507-0.1772308,0.4478607-0.4124985,0.4972
			l-1.6242371,0.4674759l-0.1900558,0.4525146l0.9997025,0.9388351c0.1539078,0.1249008,0.1835251,0.3456573,0.0783615,0.5140991
			l-0.8999557,1.405159C74.5218048,85.285614,74.373085,85.3541489,74.2220383,85.336731z"/>
		<g>
			<g>
				<path class="st53" d="M76.547554,28.0122833c0,0,2.0159302,0.3154087,2.8456955-1.3153954
					c0,0-2.6706696-5.1312332-2.7290115-5.0437222s-2.7128372,5.0437222-2.7128372,5.0437222"/>
				<path class="st20" d="M70.532135,29.9958611c0,0,3.710968,0.5834045,6.015419-1.9835777l-0.7000885-6.3591175h-7.1467133
					l-0.5250626,6.0965843"/>
				<path class="st53" d="M61.85215,29.9958611c0,0,3.6563568,2.6836662,8.679985,0l-0.9334946-9.1011219
					c0,0-8.0153694,0.4884663-7.8695793,0.6417446c0.1457901,0.1532803-1.2251511,6.7966728-1.2251511,6.7966728"/>
				<path class="st20" d="M55.8171082,28.1289635c0,0,0.73246,2.362793,6.0350418,1.8668976l0.8557243-8.7510796
					l-6.0252686,0.1166821l-2.2169418,3.7337933"/>
				<path class="st53" d="M52.9228897,26.696888c0,0,0.3951874,1.5195866,2.8942184,1.4320755l0.8654976-6.884182
					l-2.27528,3.0920486"/>
				<path class="st34" d="M55.8171082,25.2987213c0,0-2.0746384,0.1230049-2.8942184,1.3981667
					c0,0,0.5245209-9.9347858,9.7849846-11.9011564l-6.6968575,9.5678053"/>
				<path class="st21" d="M61.936882,23.3417892c0,0-6.059166-0.6533775-6.1197739,1.9569321
					c0,0-0.0557442-9.9562197,9.4781189-11.0820093c0.3761215-0.0444136,0,0,0,0l-2.1080894,6.2982588l0.6634674,1.0955887"/>
				<path class="st34" d="M76.7307129,25.2987213c0,0,1.8443375,0.0648136,2.6625366,1.3981667
					c0,0-0.1584244-9.3555279-10.6737442-12.108572l4.5827332,5.653923l3.2453156,4.0089207"/>
				<path class="st21" d="M70.532135,23.3417892c0,0,6.330574,0.1446819,6.1985779,1.9569321
					c0.2527313-0.1532898,0.6661224-9.1667614-9.6893692-11.1120358l1.4555969,6.6371632"/>
				<path class="st34" d="M61.936882,23.3417892c0,0,3.4249268-2.008852,8.595253,0c0,0-0.098793-7.6731586-3.4907913-9.1550989
					S61.377037,20.4437733,61.936882,23.3417892z"/>
			</g>
			<path class="st48" d="M79.3278503,26.6727524c0.0154953,0.6039047-0.0820389,1.2045441-0.1877441,1.7993298
				c-0.3812256,2.1450844-0.8802948,4.2916889-1.828537,6.2532063c-0.9482498,1.9615173-2.3817749,3.7417183-4.2903824,4.7924042"/>
			<path class="st48" d="M70.5022659,23.2362404c0.0111542,2.2832069-0.1292725,4.5671444-0.4200439,6.831789
				c-0.1817627,1.4156075-0.4249954,2.8341923-0.9288788,4.1695194c-0.5038757,1.3353233-1.2844849,2.5925331-2.3975372,3.4858971"
				/>
			<path class="st48" d="M73.7940445,29.7361851c0.1635056,1.5724297-0.140358,3.1553097-0.527626,4.6880512
				c-0.4364243,1.7273293-1.0354996,3.5152359-2.3631744,4.7032738"/>
			<path class="st48" d="M61.8652802,23.2260094c-0.1956749,2.1471786-0.3425751,4.3052769-0.2306824,6.4584484
				s0.4881363,4.3087215,1.3065033,6.3034496"/>
			<path class="st48" d="M53.0053329,26.4928703c0.3984451,2.0956192,0.8028603,4.2110233,1.6494675,6.1689911
				s2.1846733,3.7729912,4.0546379,4.7994461"/>
			<path class="st48" d="M58.0495644,29.7346878c0.1919937,2.7743607,1.2727203,5.4804039,3.044735,7.6237411"/>
		</g>
		<g>
			<g>
				<path class="st53" d="M46.5763245,34.2982445c0,0,1.5824852,0.2475929,2.2338409-1.0325699
					c0,0-2.0964508-4.0279713-2.1422462-3.9592762c-0.0457993,0.0686951-2.1295509,3.9592762-2.1295509,3.9592762"/>
				<path class="st20" d="M41.8542786,35.8553352c0,0,2.9130745,0.4579659,4.7220459-1.5570908l-0.5495605-4.9918461h-5.6101036
					l-0.4121704,4.7857609"/>
				<path class="st53" d="M35.0405731,35.8553352c0,0,2.8702049,2.1066475,6.8137054,0l-0.7327881-7.1442947
					c0,0-6.2919846,0.3834419-6.1775398,0.5037651s-0.961731,5.3353195-0.961731,5.3353195"/>
				<path class="st20" d="M30.3031254,34.3898392c0,0,0.5749741,1.8547668,4.7374477,1.4654961l0.6717339-6.8695126
					l-4.7297745,0.0915928l-1.7402763,2.9309921"/>
				<path class="st53" d="M28.0311928,33.2656746c0,0,0.3102169,1.1928596,2.2719326,1.1241646l0.6794071-5.4040165
					l-1.7860737,2.427227"/>
				<path class="st34" d="M30.3031254,32.1681252c0,0-1.6285725,0.0965576-2.2719326,1.0975494
					c0,0,0.4117432-7.7987137,7.6811142-9.3422947l-5.2569656,7.5106354"/>
				<path class="st21" d="M35.1070862,30.6319523c0,0-4.7563858-0.5128956-4.8039608,1.5361729
					c0,0-0.0437584-7.8155365,7.4402332-8.6992702c0.2952499-0.0348644,0,0,0,0l-1.6548347,4.9440727l0.5208168,0.8600273"/>
				<path class="st34" d="M46.7201004,32.1681252c0,0,1.4477882,0.0508766,2.090065,1.0975494
					c0,0-0.1243591-7.3440018-8.3787842-9.5051136l3.5974007,4.4382744l2.5475426,3.1469631"/>
				<path class="st21" d="M41.8542786,30.6319523c0,0,4.9694405,0.1135731,4.8658218,1.5361729
					c0.198391-0.1203308,0.5228996-7.1958179-7.60606-8.7228394l1.1426315,5.2101078"/>
				<path class="st34" d="M35.1070862,30.6319523c0,0,2.6885376-1.5769291,6.7471924,0c0,0-0.0775528-6.0233555-2.7402382-7.1866646
					S34.667614,28.3570366,35.1070862,30.6319523z"/>
			</g>
			<path class="st48" d="M48.7588272,33.246727c0.0121689,0.4740601-0.0643959,0.9455566-0.1473732,1.4124565
				c-0.2992592,1.6838684-0.691021,3.3689346-1.4353905,4.9087067c-0.7443657,1.5397682-1.8696632,2.9372139-3.3679047,3.7619896"/>
			<path class="st48" d="M41.8308334,30.5490971c0.0087547,1.7922955-0.1014786,3.585165-0.3297348,5.3628902
				c-0.1426811,1.1112366-0.3336182,2.2248116-0.7291565,3.2730293c-0.3955421,1.048214-1.0083122,2.0351143-1.8820457,2.7363968"/>
			<path class="st48" d="M44.4148483,35.6514893c0.1283455,1.2343445-0.1101799,2.4768906-0.4141808,3.6800766
				c-0.3425941,1.355938-0.8128624,2.7594261-1.8550682,3.6920242"/>
			<path class="st48" d="M35.0508804,30.5410652c-0.1536026,1.6855164-0.2689171,3.3796005-0.1810837,5.0698204
				c0.0878372,1.6902199,0.3831825,3.3823051,1.0255928,4.9481468"/>
			<path class="st48" d="M28.0959072,33.1055183c0.3127785,1.6450424,0.6302376,3.3056145,1.294817,4.842598
				c0.6645775,1.5369873,1.7149467,2.9617615,3.1828499,3.7675209"/>
			<path class="st48" d="M32.0555801,35.6503143c0.1507149,2.1778488,0.999073,4.302063,2.3900871,5.9845657"/>
		</g>
		<g>
			<g>
				<path class="st53" d="M60.4898529,53.4416656c0,0,1.2227364,0.1913071,1.726017-0.7978363
					c0,0-1.6198578-3.112278-1.6552429-3.0592003c-0.0353851,0.0530815-1.6454315,3.0592003-1.6454315,3.0592003"/>
				<path class="st20" d="M56.8412857,54.6447754c0,0,2.2508354,0.3538589,3.6485672-1.2031097l-0.4246254-3.8570366h-4.3347397
					l-0.31847,3.6977997"/>
				<path class="st53" d="M51.576561,54.6447754c0,0,2.2177124,1.627739,5.2647247,0l-0.5662003-5.5201569
					c0,0-4.8616104,0.2962723-4.7731819,0.3892403s-0.7430992,4.1224251-0.7430992,4.1224251"/>
				<path class="st20" d="M47.9160919,53.5124359c0,0,0.4442635,1.4331169,3.6604691,1.1323395l0.5190277-5.3078461
					l-3.654541,0.0707741l-1.3446541,2.264679"/>
				<path class="st53" d="M46.1606445,52.6438293c0,0,0.2396927,0.9216843,1.7554474,0.8686066l0.5249557-4.1755066
					l-1.3800392,1.8754387"/>
				<path class="st34" d="M47.9160919,51.7957916c0,0-1.2583427,0.0746078-1.7554474,0.8480377
					c0,0,0.3181381-6.0258064,5.9349442-7.2184792l-4.0618858,5.8032188"/>
				<path class="st21" d="M51.6279526,50.6088409c0,0-3.6751022-0.3962975-3.7118607,1.1869507
					c0,0-0.0338097-6.0388069,5.7488213-6.7216377c0.2281303-0.0269394,0,0,0,0l-1.2786331,3.8201218l0.4024162,0.6645126"/>
				<path class="st34" d="M60.6009445,51.7957916c0,0,1.11866,0.0393105,1.6149254,0.8480377
					c0,0-0.0960884-5.6744652-6.4740105-7.3442841l2.7795944,3.429306l1.968399,2.4315567"/>
				<path class="st21" d="M56.8412857,50.6088409c0,0,3.8397217,0.0877571,3.7596588,1.1869507
					c0.1532898-0.0929756,0.404026-5.5599709-5.8769493-6.7398491l0.8828735,4.0256767"/>
				<path class="st34" d="M51.6279526,50.6088409c0,0,2.0773468-1.218441,5.2133331,0c0,0-0.0599213-4.6540451-2.1172905-5.5528984
					C52.666626,44.157093,51.2883873,48.8510895,51.6279526,50.6088409z"/>
			</g>
			<path class="st48" d="M62.1762047,52.6291924c0.0093994,0.3662872-0.0497589,0.7305984-0.1138725,1.0913582
				c-0.2312279,1.3010712-0.5339317,2.6030655-1.1090775,3.7927933c-0.5751495,1.1897316-1.4446297,2.2694893-2.6022682,2.906765"/>
			<path class="st48" d="M56.8231697,50.5448227c0.0067635,1.3848457-0.0784111,2.7701378-0.254776,4.1437263
				c-0.1102448,0.8586159-0.2577744,1.7190399-0.5633926,2.5289612c-0.3056221,0.8099251-0.7790909,1.5724678-1.4541969,2.1143265"
				/>
			<path class="st48" d="M58.8197517,54.4872742c0.0991707,0.9537354-0.0851326,1.9138069-0.3200226,2.8434715
				c-0.2647133,1.0476875-0.6280708,2.1321182-1.4333496,2.8527031"/>
			<path class="st48" d="M51.5845261,50.5386162c-0.1186867,1.3023415-0.2077866,2.6113052-0.1399193,3.9172821
				s0.2960739,2.6133957,0.7924423,3.8232727"/>
			<path class="st48" d="M46.2106476,52.5200844c0.2416725,1.2710686,0.4869614,2.5541382,1.0004616,3.7417183
				c0.5134964,1.1875763,1.3250847,2.2884521,2.4592857,2.9110336"/>
			<path class="st48" d="M49.2701569,54.4863663c0.1164513,1.6827507,0.7719498,3.3240623,1.8467407,4.624073"/>
		</g>
		<path class="st0" d="M69.1856842,89.5507126l0.1586761,0.312706c0.1017685,0.2015991,0.333847,0.308075,0.5546494,0.263649
			l0.3024292-0.1527023l-0.0912552,0.0795898c-0.2882767,0.2609177-0.2406616,0.7261581,0.0953445,0.9304504l2.109169,1.2336273
			l0.0663834,0.0440903c0.1871262,0.1116867,0.4050446,0.1099548,0.5881882,0.0118256l0.4510574-0.2515564l1.5656281-0.8970795
			l0.5794907,0.0442429l2.7911682,0.2271576l0.339447,0.0312576l1.8457947,0.1531982l-0.4339447-4.0405731l-1.0304871,0.1116714
			l-0.1795654,0.0207977l-2.9105682,0.3405838l-0.0103149,0.0059052l-0.1083069,0.0141296l-1.173317,0.1250305l-0.6378403-0.2775269
			c-0.1231461-0.0595016-0.2423859-0.1005707-0.3580093-0.1232529c-0.446991-0.1474686-0.9263992-0.2080154-1.4019547-0.1544418
			l-0.4284134,0.0402603l-1.6326752-0.4258652c-0.1450806-0.0741577-0.3085327-0.0489349-0.4306107,0.0483627
			c-0.0353317,0.0339432-0.0603409,0.0619202-0.0772476,0.0921097c-0.0969391,0.165062-0.0584183,0.3755569,0.0815735,0.5005188
			c0.450386,0.3919525,1.0801163,0.6672745,1.0860596,0.773262c0.0045471,0.079483-0.6225433,0.1788788-1.2931976,0.2142639
			c-0.0449448,0.0052109-0.0817871,0.012619-0.1207123,0.0281219
			C69.2180939,88.9506454,69.0506363,89.2792435,69.1856842,89.5507126z"/>
		<path class="st1" d="M75.8686676,88.0336838c-0.0108566,0.1362-0.1790314,1.7170486-0.3032227,3.1358719l2.7911682,0.2271576
			l0.339447,0.0312576c0.2945557-1.1812439,0.6774445-3.0082092,0.655838-3.2489319
			c-0.0045395-0.0794907-0.1085129-0.2729797-0.2744751-0.5267715l-0.1795654,0.0207977l-2.9105682,0.3405838l-0.0103149,0.0059052
			L75.8686676,88.0336838z"/>
		<path class="st7" d="M99.2831497,81.9126358l-8.1014023,7.825592c-0.8353577,0.8117447-1.9386826,1.2924576-3.0971375,1.3555222
			l-11.7344666,0.7013474l-0.4807129-4.5077744l0.9141464-0.1339569l0.236412-0.0315552l0.1340103-0.0157318l9.7878952-1.4106827
			l4.9333649-4.3659286l1.2687912-1.1269455l0.7801895-0.6935043l2.4587936-2.1672134
			c1.158493-0.7329025,2.6794815-0.3861465,3.4202728,0.7644119l0.2443008,0.3861465
			C100.7805099,79.6429749,100.4416428,81.1797333,99.2831497,81.9126358z"/>
		<polygon class="st9" points="98.4950714,81.2427902 89.4321899,89.541214 77.4613113,90.8572845 77.1539993,87.1060791 
			86.9418945,85.6953964 91.8752594,81.3294678 93.1440506,80.2025223 93.9242401,79.5090179 		"/>
		<g>
			<path class="st12" d="M83.0171814,138.8842926h-6.2282715v-0.9857941l-4.0264053,1.3152924
				c-0.297966-0.1171417-0.7911148-0.3329468-0.7911148-0.3329468c-0.1062241,0.1757355-0.2091522,0.3416748-0.2521591,0.5455933
				c-0.0507278,0.2401276-0.0222931,0.4968567,0.0807343,0.7197266c0.1059189,0.2291565,0.2371292,0.4830933,0.4017029,0.6773682
				c0.633194,0.7472992,1.5518646,1.170929,2.522171,1.1689453L82.6716919,142
				c0.3464508,0.000351,0.6417236-0.2511902,0.6965103-0.5932312l0.0966797-0.603653l-0.2745514,0.171936L83.0171814,138.8842926z"
				/>
			<path class="st11" d="M83.7186432,138.102478c0.0315475,0.2285767-0.0315094,0.4728699-0.0393982,0.7092896
				c-0.0157776,0.2442932-0.0315018,0.4886017-0.0393906,0.7407837c-0.0157776,0.2837067-0.0315552,0.5752869-0.047287,0.8589783
				c-0.0157776,0.4098206-0.3546448,0.7250671-0.7565689,0.7250671h-7.8177032c-0.977211,0-1.899292-0.4255829-2.529747-1.1742706
				l-0.4413147-0.5279999c-0.2443085-0.2836914-0.118187-0.7171326,0.236412-0.8274689
				c0.3073578-0.1024475,0.6068344-0.2049103,0.9141922-0.299469c0.5673904-0.1891327,1.1269455-0.3703766,1.6943359-0.5516663
				c0.0078888-0.0078888,0.0078888-0.0078888,0.0078888-0.0078888c0.1418457-0.047287,0.275856-0.0866852,0.4177017-0.1339569
				c0.7959671-0.2600861,1.5840454-0.5201111,2.3799591-0.7801971c0.5674438-0.1812439,1.1269913-0.3704224,1.6943817-0.551651
				c0.1024551-0.0393982,0.2049103-0.0630646,0.3073654-0.0787964c0.2521896-0.0393982,0.4886017-0.0078888,0.7171249,0.1970215
				c0.2049103,0.1812439,0.346756,0.4255371,0.5122681,0.6383362c0.1339645,0.1654663,0.283699,0.3230896,0.4492111,0.4492188
				c0.1970215,0.165451,0.4176559,0.299469,0.6619568,0.3940277c0.4334793,0.1733551,0.929924,0.2127533,1.3791351,0.094574
				c0.0945663-0.0236664,0.2049103-0.047287,0.2600784,0.0236053
				C83.7029114,138.0315704,83.7107544,138.0630798,83.7186432,138.102478z"/>
			<path class="st64" d="M77.5868454,137.0525513c0.0666656,0.3643188,0.206131,0.7151642,0.4077835,1.0258179"/>
			<path class="st64" d="M75.6672058,137.6313629c-0.0201874,0.100708,0.0214081,0.202774,0.0666656,0.2949677
				c0.1376801,0.2805023,0.3183365,0.5398712,0.5337143,0.7662506"/>
		</g>
		<g>
			<path class="st12" d="M124.1556778,118.0600891l0.5284195,6.2058105l-0.9822388,0.0836411l1.652153,3.9002914
				c-0.0914383,0.3068237-0.2646255,0.8165131-0.2646255,0.8165131c0.1841202,0.0909271,0.3581924,0.1794128,0.565033,0.2049561
				c0.2435608,0.0301819,0.4969559-0.0199432,0.7102737-0.14151c0.2193451-0.1249695,0.461235-0.2772522,0.6408463-0.4577179
				c0.6908798-0.694313,1.0350494-1.645607,0.9507523-2.6122513l-0.6668243-7.9198303
				c-0.0290375-0.3452377-0.3047409-0.618103-0.6501923-0.6436768l-0.6096649-0.0451126l0.194603,0.2589722L124.1556778,118.0600891
				z"/>
			<path class="st11" d="M123.3171692,117.4274902c0.2250748-0.0508347,0.4738388-0.008728,0.7100754-0.0209274
				c0.2447586-0.0050049,0.4895096-0.0100632,0.7414627-0.0235977c0.2840118-0.0083466,0.575882-0.0173721,0.8598938-0.0257645
				c0.4096756-0.0190506,0.752533,0.2918472,0.7866364,0.6923218l0.663269,7.7895203
				c0.0829086,0.9736862-0.2629166,1.9285507-0.9554062,2.6202469l-0.4886551,0.4845276
				c-0.2619476,0.2674866-0.7045135,0.1786041-0.8445435-0.1653595c-0.1281662-0.2975616-0.2556534-0.5872498-0.3759537-0.8854904
				c-0.2365875-0.5492935-0.464653-1.0914536-0.693428-1.6414185c-0.0085297-0.0071945-0.0085297-0.0071945-0.0085297-0.0071945
				c-0.0591431-0.1373215-0.1097717-0.2675018-0.1689148-0.4048309c-0.3266754-0.7710266-0.652626-1.5342026-0.9792938-2.3051834
				c-0.2287369-0.5500183-0.4647064-1.0914993-0.693428-1.6414719c-0.0479507-0.0987396-0.0802231-0.1988144-0.1045837-0.2995682
				c-0.0606461-0.2479324-0.0493164-0.4861679,0.1354675-0.7312546c0.1632004-0.2195435,0.3945847-0.3816071,0.5925751-0.5645828
				c0.1535034-0.1475143,0.2978516-0.3100815,0.4094772-0.4857025c0.1481552-0.2103424,0.2629547-0.4415512,0.3364563-0.6930008
				c0.1359482-0.4466248,0.1330795-0.9446182-0.022789-1.3821793c-0.031601-0.0922165-0.0644913-0.2001572,0.0014725-0.2611465
				C123.2478561,117.449173,123.2785873,117.4386902,123.3171692,117.4274902z"/>
			<path class="st64" d="M122.7912674,123.6262512c0.3573456-0.0973358,0.6950912-0.2660675,0.9875183-0.4933472"/>
			<path class="st64" d="M123.5308609,125.4898605c0.1020584,0.0115662,0.2002182-0.0385284,0.2882462-0.0914459
				c0.267807-0.1609879,0.51091-0.362999,0.7182007-0.5968018"/>
		</g>
	</g>
	<g>
		<path class="st14" d="M103.1951294,96.0133362c0,0.9803848-0.4950333,1.8448715-1.2484589,2.3592072
			c-0.0627899,0.0422592-0.1279907,0.0820999-0.1943741,0.1207352c-0.2982483,0.1702423-0.6302719,0.2873535-0.9839935,0.340477
			c0.0096664,0.0181122,0.0169144,0.031395,0.0169144,0.031395l-0.40448-0.0012131h-0.0832977
			c-0.012085,0.0012131-0.0253525,0-0.0374374-0.0012054c-0.4805298-0.0132751-0.9321213-0.1460876-1.3256912-0.3694534
			c-0.0664444-0.0374298-0.1304092-0.0772705-0.1931915-0.1207352c-0.2740784-0.185936-0.5143738-0.4189606-0.7087402-0.685791
			c-0.0289536-0.0398407-0.0555344-0.0796814-0.0821228-0.1207352c-0.1376038-0.2112885-0.2474899-0.4406891-0.3247757-0.685791
			c-0.0132675-0.0398407-0.0253525-0.0796814-0.0350189-0.1207352c-0.0603714-0.2185364-0.0941544-0.447937-0.0989838-0.6857834
			c-0.0011826-0.0193176-0.0011826-0.0398483-0.0011826-0.0603714s0-0.0398483,0.0011826-0.0603714
			c0.0048294-0.2366409,0.0374298-0.4660416,0.0978012-0.6845779c0.010849-0.0410538,0.0217514-0.0808945,0.0350189-0.1207352
			c0.0772858-0.2451019,0.1871185-0.4744949,0.3247757-0.6857834c0.0265274-0.0410538,0.0543518-0.0821075,0.0833054-0.1207428
			c0.1943665-0.2680359,0.4334259-0.4998474,0.7063217-0.685791c0.0627823-0.0434647,0.1279907-0.0832977,0.1943665-0.1207352
			c0.415329-0.2378464,0.8971024-0.3730774,1.4102325-0.3730774c0.016861,0,0.033783,0,0.050705,0.0012131
			c0-0.0012131,0-0.0012131,0-0.0012131h0.3223572l0.0096664,0.0265579c0.3694611,0.0495071,0.7159958,0.1690369,1.026268,0.3465195
			c0.0663834,0.0374374,0.1304092,0.0772705,0.1931915,0.1207352
			C102.7000961,94.1672668,103.1951294,95.0329514,103.1951294,96.0133362z"/>
		<g>
			<g>
				<path class="st15" d="M101.945488,93.6553345h-3.2067871c0.0627823-0.0434647,0.1279907-0.0832977,0.1943665-0.1207352
					h2.8192291C101.8186798,93.5720367,101.8827057,93.6118698,101.945488,93.6553345z"/>
			</g>
			<g>
				<path class="st15" d="M102.1482849,94.3411255v0.1207428h-4.1992111
					c0.0265274-0.0410538,0.0543518-0.0821075,0.0833054-0.1207428H102.1482849z"/>
			</g>
			<g>
				<path class="st15" d="M102.1482849,95.1476517v0.1207352h-4.5590057
					c0.010849-0.0410538,0.0217514-0.0808945,0.0350189-0.1207352H102.1482849z"/>
			</g>
			<g>
				<path class="st15" d="M102.1482849,95.9529648v0.1207428H97.491478
					c-0.0011826-0.0193176-0.0011826-0.0398483-0.0011826-0.0603714s0-0.0398483,0.0011826-0.0603714H102.1482849z"/>
			</g>
			<g>
				<path class="st15" d="M102.1482849,96.759491v0.1207352h-4.5228043
					c-0.0132675-0.0398407-0.0253525-0.0796814-0.0350189-0.1207352H102.1482849z"/>
			</g>
			<g>
				<path class="st15" d="M102.1482849,97.5660172v0.1207352h-4.1159058
					c-0.0289536-0.0398407-0.0555344-0.0796814-0.0821228-0.1207352H102.1482849z"/>
			</g>
			<g>
				<path class="st15" d="M101.9466705,98.3725433c-0.0627899,0.0422592-0.1279907,0.0820999-0.1943741,0.1207352h-2.8179855
					c-0.0664444-0.0374298-0.1304092-0.0772705-0.1931915-0.1207352H101.9466705z"/>
			</g>
		</g>
		<path class="st15" d="M100.3802109,98.864502c-0.012085,0.0012054-0.0253448,0.0012054-0.0374298,0.0012054
			c-0.015686,0-0.0301895,0-0.0458679-0.0012054H100.3802109z"/>
		<circle class="st15" cx="100.8053055" cy="96.0138626" r="2.8520603"/>
		<circle class="st63" cx="100.8053055" cy="96.0138626" r="2.4446719"/>
		<path class="st15" d="M100.2969131,98.864502h-0.0374374v-0.0012131
			C100.2715607,98.864502,100.2848282,98.8657074,100.2969131,98.864502z"/>
		<path class="st14" d="M101.6680984,96.6043243c0,0.3647766-0.253685,0.7070313-0.729538,0.7850952v0.4803696h-0.291214v-0.4668503
			c-0.2672424-0.004509-0.5449371-0.0870743-0.705574-0.2026672l0.109581-0.3092346h0.1321259
			c0,0,0.003006,0.037529,0.004509,0.078064c0.150116,0.070549,0.3347473,0.1200867,0.5284042,0.1200867
			c0.328743,0,0.549408-0.1891403,0.549408-0.4518433c0-0.2536926-0.18013-0.4113159-0.5208969-0.5494156
			c-0.4713821-0.1846542-0.7625961-0.3978119-0.7625961-0.8001175c0-0.3827972,0.2732239-0.6740189,0.6980209-0.7430725v-0.4653549
			h0.2852402v0.4473419c0.2776947,0.0090027,0.4668808,0.0825577,0.6004639,0.1621246l-0.0510559,0.132103
			c0.0225449,0.051033,0.0675812,0.1726227,0.0675812,0.1726227h-0.1321182
			c-0.0960541-0.055542-0.285202-0.1576157-0.580925-0.1576157c-0.3557892,0-0.4894104,0.2131577-0.4894104,0.3978119
			c0,0.240181,0.1711502,0.3602676,0.5719452,0.5253983C101.4279404,95.9528198,101.6680984,96.1930084,101.6680984,96.6043243z"/>
		<path class="st17" d="M100.7794342,97.8698807v-0.4663925c-0.2678375-0.0046234-0.5449066-0.087738-0.7065277-0.203186
			l0.1108246-0.3093948c0.1662445,0.1108322,0.4063721,0.1985703,0.6649628,0.1985703
			c0.3278656,0,0.5495224-0.1893311,0.5495224-0.4525452c0-0.2539825-0.1800919-0.4109879-0.5218124-0.5495224
			c-0.4710159-0.1847076-0.76194-0.3971252-0.76194-0.7988739c0-0.3832779,0.2724533-0.674202,0.6972885-0.7434692v-0.4664001
			h0.2863083v0.4479294c0.2770691,0.0092316,0.4663925,0.0831223,0.6003113,0.1616211l-0.1154404,0.3047791
			c-0.0969772-0.0554199-0.2863083-0.1570053-0.5818481-0.1570053c-0.3555679,0-0.4894867,0.2124176-0.4894867,0.3971252
			c0,0.2401276,0.1708603,0.3601913,0.5726089,0.5264359c0.4756317,0.1939468,0.7157593,0.4340668,0.7157593,0.8450546
			c0,0.3648071-0.2539825,0.7065201-0.7296143,0.7850266v0.4802475H100.7794342z"/>
	</g>
	<path class="st55" d="M102.9856415,100.0187759c-0.5122681,0.9141998-1.2845688,1.7101135-2.2381592,2.1593246
		s-2.0884247,0.535881-3.0735168,0.1497345c-0.9772034-0.3861465-1.7652817-1.27668-1.9544144-2.3090591
		c-0.0787888-0.4334335-0.0551682-0.8747482-0.0078888-1.300293c0.1340103-1.1663895,0.5358887-2.3169479,1.2845688-3.1995926
		l0.7880783-0.0867233c0.3231354,0.929924,1.0717697,1.7101593,1.9780807,2.1278152
		c1.0796585,0.4886017,2.3406067,0.5043793,3.475441,0.1734009
		C103.6082001,98.332283,103.3323975,99.4041061,102.9856415,100.0187759z"/>
	<path class="st54" d="M97.7843094,95.4321671l-0.7880783,0.0867233c0.1812897-0.228569,0.4019241-0.4413223,0.6383438-0.6305008
		C97.6661224,95.0775681,97.7134094,95.258812,97.7843094,95.4321671z"/>
	<path class="st97" d="M97.6325455,94.8882751c0.1939087,1.1685867,1.0541077,2.1732483,2.1301956,2.6684647
		c1.076088,0.495224,2.3371048,0.5110931,3.4731827,0.175621"/>
	<path class="st50" d="M94.1766434,59.9877434c0.5499191,1.1523819,1.45755,2.1309547,2.565361,2.7658844
		c1.1078186,0.6349297,2.410965,0.9234238,3.6832581,0.8154144"/>
	<path class="st50" d="M100.5993118,65.7461472c-0.6519012,1.1609802-1.0028076,2.4893265-1.0093231,3.8208008
		c-0.0050964,1.0408173,0.2320175,2.1471176,0.969986,2.8810959"/>
	<g>
		<g>
			<g>
				<g>
					<g>
						<g>
							<path class="st24" d="M51.9955826,58.0360451c0,0-2.564476,0.6979828-4.0810432,0.1684074l-0.0797195,0.703392
								l1.1412582-0.0461121"/>
							<polygon class="st24" points="51.8689117,58.2506142 58.253334,60.8663559 58.9195747,61.91716 58.8040543,62.3041878 
								50.8708496,59.4012642 51.0569992,58.5163918 							"/>
							<polygon class="st6" points="59.2556152,63.0775452 54.5094604,63.4135704 52.8866081,62.8398666 50.2916832,61.9228821 
								47.2813225,60.8584557 51.6815262,60.2987442 54.5366058,61.3464508 56.9114037,62.2173386 							"/>
							<polygon class="st67" points="59.2556152,63.0775452 54.5094604,63.4135704 52.8866081,62.8398666 50.2916832,61.9228821 
								47.2813225,60.8584557 51.6815262,60.2987442 54.5366058,61.3464508 56.9114037,62.2173386 							"/>
							
								<ellipse transform="matrix(0.0636664 -0.9979712 0.9979712 0.0636664 -12.6817617 108.9991913)" class="st105" cx="51.7463531" cy="61.2578888" rx="0.2793901" ry="0.738511"/>
							
								<ellipse transform="matrix(0.0636664 -0.9979712 0.9979712 0.0636664 -10.6497297 113.8989944)" class="st105" cx="55.3735466" cy="62.6248894" rx="0.2793901" ry="0.738511"/>
							<polygon class="st6" points="59.5589943,61.1856422 59.2556152,63.0775452 56.9114037,62.2173386 54.5366058,61.3464508 
								51.6815262,60.2987442 51.8099213,59.3742256 54.6627007,60.4323692 57.052536,61.3191338 58.8297234,61.9783287 
								57.0605774,61.2643051 54.6801376,60.302948 51.8401871,59.1560669 51.929142,58.5149117 54.7670555,59.6726952 
								56.9175873,60.5560913 54.7737694,59.6250153 51.9460793,58.3977623 51.9956436,58.0357246 54.8301239,59.2159958 
								57.2257271,60.2135429 							"/>
							<polygon class="st106" points="59.5589943,61.1856422 59.2556152,63.0775452 56.9114037,62.2173386 54.5366058,61.3464508 
								51.6815262,60.2987442 51.8099213,59.3742256 54.6627007,60.4323692 57.052536,61.3191338 58.8297234,61.9783287 
								57.0605774,61.2643051 54.6801376,60.302948 51.8401871,59.1560669 51.929142,58.5149117 54.7670555,59.6726952 
								56.9175873,60.5560913 54.7737694,59.6250153 51.9460793,58.3977623 51.9956436,58.0357246 54.8301239,59.2159958 
								57.2257271,60.2135429 							"/>
							<polygon class="st6" points="51.6816597,60.2986832 47.2813225,60.85849 47.5027504,58.7984009 51.9955826,58.0360451 
															"/>
							<polygon class="st107" points="51.6816597,60.2986832 47.2813225,60.85849 47.5027504,58.7984009 51.9955826,58.0360451 
															"/>
							<polygon class="st24" points="51.8401871,59.1560669 48.4887505,59.8082657 51.8099213,59.3742256 							"/>
						</g>
					</g>
				</g>
			</g>
		</g>
		
			<ellipse transform="matrix(0.0636664 -0.9979712 0.9979712 0.0636664 -11.6864138 111.4987183)" class="st105" cx="53.5760612" cy="61.9772148" rx="0.3506536" ry="0.9268816"/>
		<text transform="matrix(1.069052 -0.6279666 0.9349699 0.35473 53.57444 62.3227577)" class="st108 st109 st110">$</text>
	</g>
	<g>
		<g>
			<g>
				<g>
					<g>
						<g>
							<path class="st24" d="M63.0242233,35.4639359c0,0-3.4944344,0.9510956-5.5609512,0.2294769l-0.1086273,0.9584656
								l1.5551109-0.0628357"/>
							<polygon class="st24" points="62.8516159,35.7563133 71.5512238,39.3206024 72.4590683,40.7524605 72.3016586,41.2798386 
								61.4916306,37.3242226 61.7452812,36.1184731 							"/>
							<polygon class="st6" points="72.9169693,42.3336372 66.4497147,42.7915154 64.2383652,42.0097694 60.7024384,40.7602615 
								56.6004333,39.3098373 62.596283,38.5471611 66.486702,39.9748001 69.7226715,41.1614952 							"/>
							<polygon class="st67" points="72.9169693,42.3336372 66.4497147,42.7915154 64.2383652,42.0097694 60.7024384,40.7602615 
								56.6004333,39.3098373 62.596283,38.5471611 66.486702,39.9748001 69.7226715,41.1614952 							"/>
							<polygon class="st68" points="66.4850616,42.5306435 57.7097969,39.4286041 62.5665054,38.8108635 71.6991806,42.1614609 
															"/>
							
								<ellipse transform="matrix(0.0636664 -0.9979712 0.9979712 0.0636664 18.9204502 99.8741989)" class="st105" cx="62.6846199" cy="39.8541183" rx="0.3807055" ry="1.0063176"/>
							
								<ellipse transform="matrix(0.0636664 -0.9979712 0.9979712 0.0636664 21.6893578 106.5508118)" class="st105" cx="67.6271362" cy="41.7168388" rx="0.3807055" ry="1.0063176"/>
							<polygon class="st6" points="73.3303604,39.7556725 72.9169693,42.3336372 69.7226715,41.1614952 66.486702,39.9748001 
								62.596283,38.5471611 62.7712364,37.287384 66.6585236,38.7292404 69.9149857,39.9375725 72.3366394,40.8358116 
								69.9259415,39.8628616 66.6822815,38.552887 62.8124771,36.9901085 62.9336929,36.1164551 66.8007202,37.694088 
								69.7310944,38.8978271 66.8098679,37.6291161 62.9567719,35.9568214 63.0243073,35.463501 66.8866577,37.0717773 
								70.1509781,38.4310608 							"/>
							<polygon class="st106" points="73.3303604,39.7556725 72.9169693,42.3336372 69.7226715,41.1614952 66.486702,39.9748001 
								62.596283,38.5471611 62.7712364,37.287384 66.6585236,38.7292404 69.9149857,39.9375725 72.3366394,40.8358116 
								69.9259415,39.8628616 66.6822815,38.552887 62.8124771,36.9901085 62.9336929,36.1164551 66.8007202,37.694088 
								69.7310944,38.8978271 66.8098679,37.6291161 62.9567719,35.9568214 63.0243073,35.463501 66.8866577,37.0717773 
								70.1509781,38.4310608 							"/>
							<polygon class="st6" points="62.5964622,38.5470772 56.6004333,39.3098831 56.9021568,36.5027428 63.0242233,35.4639359 
															"/>
							<polygon class="st107" points="62.5964622,38.5470772 56.6004333,39.3098831 56.9021568,36.5027428 63.0242233,35.4639359 
															"/>
							<polygon class="st24" points="62.8124771,36.9901085 58.2457085,37.8788185 62.7712364,37.287384 							"/>
						</g>
					</g>
				</g>
			</g>
		</g>
		
			<ellipse transform="matrix(0.0636664 -0.9979712 0.9979712 0.0636664 20.276741 103.2801285)" class="st105" cx="65.1778336" cy="40.8342972" rx="0.4778114" ry="1.2629972"/>
		<text transform="matrix(1.069052 -0.6279666 0.9349699 0.35473 65.1797256 41.2873001)" class="st108 st109 st111">$</text>
	</g>
	<g>
		<g>
			<g>
				<g>
					<g>
						<g>
							<path class="st24" d="M35.8445053,39.7571907c0,0-2.7019501,0.735405-4.2998123,0.1774368l-0.083992,0.7411003
								l1.2024345-0.048584"/>
							<polygon class="st24" points="35.7110443,39.9832649 42.4377136,42.7392273 43.1396713,43.8463631 43.0179596,44.2541389 
								34.659481,41.1955986 34.8556061,40.2632904 							"/>
							<polygon class="st6" points="43.4937286,45.0689507 38.493145,45.4229927 36.7832985,44.818531 34.0492668,43.8523941 
								30.8775311,42.7309036 35.5136185,42.1411896 38.5217476,43.24506 41.0238495,44.162632 							"/>
							<polygon class="st67" points="43.4937286,45.0689507 38.493145,45.4229927 36.7832985,44.818531 34.0492668,43.8523941 
								30.8775311,42.7309036 35.5136185,42.1411896 38.5217476,43.24506 41.0238495,44.162632 							"/>
							
								<ellipse transform="matrix(0.0636664 -0.9979712 0.9979712 0.0636664 -9.7476606 75.9141617)" class="st105" cx="35.5819168" cy="43.1517487" rx="0.2943673" ry="0.7781002"/>
							
								<ellipse transform="matrix(0.0636664 -0.9979712 0.9979712 0.0636664 -7.6066976 81.0766296)" class="st105" cx="39.403553" cy="44.5920334" rx="0.2943673" ry="0.7781002"/>
							<polygon class="st6" points="43.8133698,43.0756302 43.4937286,45.0689507 41.0238495,44.162632 38.5217476,43.24506 
								35.5136185,42.1411896 35.6488914,41.1671104 38.6546021,42.2819748 41.1725502,43.2162781 43.0450058,43.9108086 
								41.1810188,43.1585121 38.6729698,42.1456184 35.6807823,40.9372559 35.7745056,40.2617302 38.7645493,41.4815788 
								41.0303612,42.4123306 38.7716217,41.4313469 35.7923508,40.1383018 35.8445702,39.756855 38.8309975,41.0004005 
								41.3550224,42.0514183 							"/>
							<polygon class="st106" points="43.8133698,43.0756302 43.4937286,45.0689507 41.0238495,44.162632 38.5217476,43.24506 
								35.5136185,42.1411896 35.6488914,41.1671104 38.6546021,42.2819748 41.1725502,43.2162781 43.0450058,43.9108086 
								41.1810188,43.1585121 38.6729698,42.1456184 35.6807823,40.9372559 35.7745056,40.2617302 38.7645493,41.4815788 
								41.0303612,42.4123306 38.7716217,41.4313469 35.7923508,40.1383018 35.8445702,39.756855 38.8309975,41.0004005 
								41.3550224,42.0514183 							"/>
							<polygon class="st6" points="35.5137558,42.1411247 30.877533,42.730938 31.1108303,40.5604134 35.8445053,39.7571907 
															"/>
							<polygon class="st107" points="35.5137558,42.1411247 30.877533,42.730938 31.1108303,40.5604134 35.8445053,39.7571907 
															"/>
							<polygon class="st24" points="35.6807823,40.9372559 32.1496849,41.6244202 35.6488914,41.1671104 							"/>
						</g>
					</g>
				</g>
			</g>
		</g>
		
			<ellipse transform="matrix(0.0636664 -0.9979712 0.9979712 0.0636664 -8.6989546 78.5476837)" class="st105" cx="37.5097122" cy="43.9096375" rx="0.3694511" ry="0.9765688"/>
		<text transform="matrix(1.069052 -0.6279666 0.9349699 0.35473 37.5089836 44.2717323)" class="st108 st109 st112">$</text>
	</g>
	<g>
		<path class="st14" d="M114.1838684,101.5293655c0,1.6397705-0.8279877,3.0856857-2.08815,3.9459534
			c-0.1050186,0.0706863-0.2140732,0.1373138-0.3251038,0.2019424c-0.4988403,0.2847443-1.054184,0.4806213-1.6458054,0.5694733
			c0.0161667,0.0302963,0.0282974,0.0525131,0.0282974,0.0525131l-0.6765289-0.0020218h-0.139328
			c-0.0202103,0.0020218-0.0423965,0-0.0626144-0.0020218c-0.8037262-0.0222092-1.5590363-0.2443466-2.2173233-0.6179428
			c-0.1111221-0.0626068-0.2181091-0.1292343-0.3231277-0.2019424c-0.4584122-0.3109894-0.860321-0.700737-1.1854248-1.1470337
			c-0.0484161-0.0666275-0.0928802-0.1332779-0.137352-0.2019424c-0.2301483-0.3534012-0.4139404-0.7370834-0.5432129-1.1470261
			c-0.0221863-0.0666504-0.0424042-0.1332779-0.0585709-0.2019424c-0.100975-0.3655167-0.1574707-0.7492142-0.1655579-1.1470337
			c-0.001976-0.0323029-0.001976-0.0666428-0.001976-0.100975c0-0.0343246,0-0.0666428,0.001976-0.1009674
			c0.0080872-0.395813,0.0626144-0.7794952,0.1635818-1.1450119c0.0181427-0.0686646,0.0363846-0.1353073,0.0585709-0.2019424
			c0.1292725-0.4099503,0.312973-0.7936325,0.5432129-1.1470261c0.0443726-0.0686722,0.0909119-0.1373367,0.139328-0.2019424
			c0.3251038-0.4483185,0.7249451-0.8360443,1.1813812-1.147049c0.1050186-0.0726929,0.2140732-0.139328,0.3251038-0.2019424
			c0.6946716-0.3978195,1.5004654-0.6239929,2.3587189-0.6239929c0.0282059,0,0.0565033,0,0.0848007,0.0020218
			c0-0.0020218,0-0.0020218,0-0.0020218h0.5391693l0.0161743,0.044426c0.6179581,0.0828018,1.1975555,0.2827225,1.716507,0.579567
			c0.1110306,0.0626144,0.2181168,0.1292496,0.3231277,0.2019424
			C113.3558807,98.4416733,114.1838684,99.889595,114.1838684,101.5293655z"/>
		<g>
			<g>
				<path class="st15" d="M112.0937424,97.5854263h-5.3636017c0.1050186-0.0726929,0.2140732-0.139328,0.3251038-0.2019424
					h4.7153702C111.8816452,97.4460983,111.9887314,97.5127335,112.0937424,97.5854263z"/>
			</g>
			<g>
				<path class="st15" d="M112.4329453,98.7324753v0.2019424h-7.0235138
					c0.0443726-0.0686722,0.0909119-0.1373367,0.139328-0.2019424H112.4329453z"/>
			</g>
			<g>
				<path class="st15" d="M112.4329453,100.0814438v0.2019424h-7.6252975
					c0.0181427-0.0686646,0.0363846-0.1353073,0.0585709-0.2019424H112.4329453z"/>
			</g>
			<g>
				<path class="st15" d="M112.4329453,101.4283981v0.2019424h-7.7888794c-0.001976-0.0323029-0.001976-0.0666428-0.001976-0.100975
					c0-0.0343246,0-0.0666428,0.001976-0.1009674H112.4329453z"/>
			</g>
			<g>
				<path class="st15" d="M112.4329453,102.7773743v0.2019424h-7.5647507
					c-0.0221863-0.0666504-0.0424042-0.1332779-0.0585709-0.2019424H112.4329453z"/>
			</g>
			<g>
				<path class="st15" d="M112.4329453,104.1263428v0.2019424h-6.8841858
					c-0.0484161-0.0666275-0.0928802-0.1332779-0.137352-0.2019424H112.4329453z"/>
			</g>
			<g>
				<path class="st15" d="M112.0957184,105.4753189c-0.1050186,0.0706863-0.2140732,0.1373138-0.3251038,0.2019424h-4.7133026
					c-0.1111221-0.0626068-0.2181091-0.1292343-0.3231277-0.2019424H112.0957184z"/>
			</g>
		</g>
		<path class="st15" d="M109.4757004,106.2981567c-0.0202103,0.0020218-0.0423965,0.0020218-0.0626144,0.0020218
			c-0.0262299,0-0.0504837,0-0.0767136-0.0020218H109.4757004z"/>
		<circle class="st15" cx="110.1866989" cy="101.5302505" r="4.7702909"/>
		<circle class="st16" cx="110.1866989" cy="101.5302505" r="4.088902"/>
		<path class="st15" d="M109.3363724,106.2981567h-0.0626144v-0.0020218
			C109.2939758,106.2981567,109.3161621,106.3001785,109.3363724,106.2981567z"/>
		<path class="st14" d="M111.6297913,102.5178375c0,0.6101227-0.4243088,1.1825714-1.2202072,1.3131409v0.8034515h-0.4870834
			v-0.7808533c-0.446991-0.0075378-0.9114456-0.1456299-1.1801224-0.3389587l0.1832886-0.5172272h0.2209778
			c0,0,0.0050278,0.062767,0.0075378,0.1305695c0.2510834,0.1179962,0.559906,0.2008591,0.8838043,0.2008591
			c0.5498505,0,0.9189301-0.3163605,0.9189301-0.7557526c0-0.424324-0.3012848-0.6879578-0.8712387-0.9189453
			c-0.7884216-0.3088379-1.2754974-0.6653671-1.2754974-1.3382568c0-0.6402435,0.4569778-1.1273422,1.1674881-1.2428436v-0.7783356
			h0.4770889v0.7482071c0.4644623,0.0150681,0.7808838,0.138092,1.0043182,0.2711716l-0.0853882,0.2209473
			c0.0376968,0.0853577,0.1130371,0.2887344,0.1130371,0.2887344h-0.2209854
			c-0.1606598-0.0928955-0.4770279-0.2636261-0.9716415-0.2636261c-0.5950928,0-0.8185883,0.3565216-0.8185883,0.6653595
			c0,0.4017258,0.2862701,0.6025848,0.9566269,0.8787766C111.2281036,101.4281464,111.6297913,101.8298798,111.6297913,102.5178375z
			"/>
		<path class="st17" d="M110.143425,104.6345901v-0.7800903c-0.4479752-0.0077209-0.9113922-0.1467514-1.1817169-0.3398361
			l0.1853638-0.5174866c0.2780533,0.1853638,0.6796799,0.3321152,1.1122055,0.3321152
			c0.548378,0,0.9191132-0.3166656,0.9191132-0.7569122c0-0.4248047-0.3012238-0.6874084-0.8727722-0.9191132
			c-0.7878113-0.3089447-1.2743988-0.6642303-1.2743988-1.3361893c0-0.6410599,0.4556961-1.1276474,1.1662674-1.2435074v-0.7800827
			h0.4788666v0.7491913c0.4634171,0.0154495,0.7800903,0.1390228,1.0040741,0.2703247l-0.1930923,0.509758
			c-0.1621933-0.0926819-0.4788666-0.2625961-0.973175-0.2625961c-0.5947189,0-0.8187103,0.3552856-0.8187103,0.6642303
			c0,0.4016266,0.2857742,0.6024399,0.9577332,0.8804932c0.7955322,0.3243942,1.1971588,0.7260208,1.1971588,1.4134216
			c0,0.6101685-0.4247971,1.1817169-1.2203293,1.3130188v0.8032608H110.143425z"/>
	</g>
	<polyline class="st113" points="99.8192902,98.2498322 89.4348907,113.0229187 82.6556244,133.5646362 	"/>
</g>
</svg>
