<?xml version="1.0" encoding="utf-8"?>
<!-- Generator: Adobe Illustrator 22.0.1, SVG Export Plug-In . SVG Version: 6.00 Build 0)  -->
<svg version="1.1" id="Layer_1" xmlns="http://www.w3.org/2000/svg" xmlns:xlink="http://www.w3.org/1999/xlink" x="0px" y="0px"
	 viewBox="0 0 156 156" style="enable-background:new 0 0 156 156;" xml:space="preserve">
<style type="text/css">
	.st0{fill:#FFD9B2;}
	.st1{fill:#F7AC76;}
	.st2{fill:none;stroke:#3643C3;stroke-width:0.5;stroke-linecap:round;stroke-linejoin:round;stroke-miterlimit:10;}
	.st3{fill:#233764;}
	.st4{fill:none;stroke:#F7AC76;stroke-width:0.5;stroke-linecap:round;stroke-linejoin:round;stroke-miterlimit:10;}
	.st5{fill:#161718;}
	.st6{fill:#FFFFFF;}
	.st7{fill:#F06449;}
	.st8{fill:#BE412D;}
	.st9{fill:#FE8E60;}
	.st10{fill:#7D4C47;}
	.st11{fill:#4456D6;}
	.st12{fill:#203881;}
	.st13{fill:#6582FC;}
	.st14{fill:#DDA103;}
	.st15{fill:#FBC32E;}
	.st16{fill:none;stroke:#DDA103;stroke-width:0.5;stroke-miterlimit:10;}
	.st17{fill:#FBE6BB;}
	.st18{fill:none;stroke:#BE412D;stroke-width:0.5;stroke-linecap:round;stroke-linejoin:round;stroke-miterlimit:10;}
	.st19{fill:none;stroke:#F06449;stroke-width:0.5;stroke-linecap:round;stroke-linejoin:round;stroke-miterlimit:10;}
	.st20{fill:#F34B4B;}
	.st21{fill:#FC7070;}
	.st22{fill:none;stroke:#FFFFFF;stroke-miterlimit:10;}
	.st23{fill:#FC9F9F;}
	.st24{fill:#408A6F;}
	.st25{fill:#64B48D;}
	.st26{fill:none;stroke:#FBE6BB;stroke-width:0.5;stroke-linecap:round;stroke-linejoin:round;stroke-miterlimit:10;}
	.st27{fill:none;stroke:#F7AC76;stroke-width:0.25;stroke-linecap:round;stroke-linejoin:round;stroke-miterlimit:10;}
	.st28{fill:#A0665A;}
	.st29{fill:#6C3F44;}
	.st30{fill:none;stroke:#6C3F44;stroke-width:0.5;stroke-linecap:round;stroke-linejoin:round;stroke-miterlimit:10;}
	.st31{fill:none;stroke:#7D4C47;stroke-width:0.5;stroke-linecap:round;stroke-linejoin:round;stroke-miterlimit:10;}
	.st32{fill:none;stroke:#F34B4B;stroke-width:0.5;stroke-linecap:round;stroke-linejoin:round;stroke-miterlimit:10;}
	.st33{fill:none;stroke:#FC7070;stroke-width:0.5;stroke-linecap:round;stroke-linejoin:round;stroke-miterlimit:10;}
	.st34{fill:#EAE8F3;}
	.st35{fill:#40304A;}
	.st36{fill:none;stroke:#43334E;stroke-linecap:round;stroke-linejoin:round;stroke-miterlimit:10;}
	.st37{fill:#32775B;}
	.st38{fill:none;stroke:#233764;stroke-width:0.5;stroke-linecap:round;stroke-linejoin:round;stroke-miterlimit:10;}
	.st39{fill:none;stroke:#408A6F;stroke-width:0.5;stroke-linecap:round;stroke-linejoin:round;stroke-miterlimit:10;}
	.st40{fill:#3643C3;}
	.st41{opacity:0.56;fill:url(#SVGID_1_);}
	.st42{opacity:0.52;fill:#FBC32E;}
	.st43{opacity:0.56;fill:url(#SVGID_2_);}
	.st44{fill:none;stroke:#EAE8F3;stroke-width:0.5;stroke-linecap:round;stroke-linejoin:round;stroke-miterlimit:10;}
	.st45{fill:#FEFFFD;}
	.st46{opacity:0.35;fill:#32775B;}
	.st47{fill:#43334E;}
	.st48{fill:none;stroke:#EAE8F3;stroke-width:0.25;stroke-linecap:round;stroke-linejoin:round;stroke-miterlimit:10;}
	.st49{fill:none;stroke:#FBC32E;stroke-width:0.5;stroke-linecap:round;stroke-linejoin:round;stroke-miterlimit:10;}
	.st50{fill:none;stroke:#161718;stroke-width:0.5;stroke-linecap:round;stroke-linejoin:round;stroke-miterlimit:10;}
	.st51{fill:none;stroke:#40304A;stroke-linecap:round;stroke-linejoin:round;stroke-miterlimit:10;}
	.st52{opacity:0.33;fill:#FBC32E;}
	.st53{fill:#A6A3AE;}
	.st54{fill:#5B4B68;}
	.st55{fill:#776688;}
	.st56{fill:none;stroke:#FBC32E;stroke-width:0.5;stroke-miterlimit:10;}
	.st57{fill:none;stroke:#EAE8F3;stroke-linecap:round;stroke-linejoin:round;stroke-miterlimit:10;}
	.st58{fill:none;stroke:#203881;stroke-width:2;stroke-linecap:round;stroke-linejoin:round;stroke-miterlimit:10;}
	.st59{fill:none;stroke:#40304A;stroke-width:2;stroke-linecap:round;stroke-linejoin:round;stroke-miterlimit:10;}
	.st60{fill:#FFD8B7;}
	.st61{fill:#F4E4D4;}
	.st62{fill:none;stroke:#4456D6;stroke-width:0.5;stroke-linecap:round;stroke-linejoin:round;stroke-miterlimit:10;}
	.st63{fill:none;stroke:#DDA103;stroke-width:0.25;stroke-miterlimit:10;}
	.st64{fill:none;stroke:#FFFFFF;stroke-width:0.5;stroke-linecap:round;stroke-linejoin:round;stroke-miterlimit:10;}
	.st65{fill:none;stroke:#64B48D;stroke-width:0.5;stroke-linecap:round;stroke-linejoin:round;stroke-miterlimit:10;}
	.st66{fill:none;stroke:#64B48D;stroke-linecap:round;stroke-linejoin:round;stroke-miterlimit:10;}
	.st67{opacity:0.48;fill:#64B48D;}
	.st68{fill:none;stroke:#64B48D;stroke-width:0.25;stroke-linecap:round;stroke-linejoin:round;stroke-miterlimit:10;}
	.st69{fill:none;stroke:#F06449;stroke-width:2;stroke-linecap:round;stroke-linejoin:round;stroke-miterlimit:10;}
	.st70{opacity:0.92;fill:#64B48D;}
	.st71{opacity:0.57;fill:#408A6F;}
	.st72{opacity:0.36;fill:#408A6F;}
	.st73{fill:none;stroke:#BE412D;stroke-width:2;stroke-linecap:round;stroke-linejoin:round;stroke-miterlimit:10;}
	.st74{opacity:0.65;fill:none;stroke:#408A6F;stroke-width:0.25;stroke-linecap:round;stroke-linejoin:round;stroke-miterlimit:10;}
	.st75{opacity:0.67;fill:none;stroke:#64B48D;stroke-width:0.25;stroke-linecap:round;stroke-linejoin:round;stroke-miterlimit:10;}
	.st76{opacity:0.98;fill:#64B48D;}
	.st77{fill:none;stroke:#408A6F;stroke-width:0.25;stroke-linecap:round;stroke-linejoin:round;stroke-miterlimit:10;}
	.st78{fill:none;stroke:#FFD9B2;stroke-width:0.5;stroke-linecap:round;stroke-linejoin:round;}
	
		.st79{fill:none;stroke:#FFD9B2;stroke-width:0.5;stroke-linecap:round;stroke-linejoin:round;stroke-dasharray:4.0333505,4.0333505;}
	.st80{fill:#E68B4A;}
	.st81{opacity:0.62;fill:#64B48D;}
	.st82{fill:none;stroke:#FBC32E;stroke-width:0.25;stroke-miterlimit:10;}
	.st83{fill:none;stroke:#4456D6;stroke-linecap:round;stroke-linejoin:round;stroke-miterlimit:10;}
	.st84{fill:none;stroke:#E68B4A;stroke-width:0.5;stroke-linecap:round;stroke-linejoin:round;stroke-miterlimit:10;}
	.st85{fill:none;stroke:#203881;stroke-width:0.5;stroke-linecap:round;stroke-linejoin:round;stroke-miterlimit:10;}
	.st86{opacity:0.29;fill:#EAE8F3;}
	.st87{fill:none;stroke:#A6A3AE;stroke-width:0.5;stroke-linecap:round;stroke-linejoin:round;stroke-miterlimit:10;}
	.st88{opacity:0.74;fill:#FFFFFF;}
	.st89{opacity:0.19;fill:#FFFFFF;}
	.st90{fill:none;stroke:#40304A;stroke-width:0.25;stroke-linecap:round;stroke-linejoin:round;stroke-miterlimit:10;}
	.st91{fill:none;stroke:#F34B4B;stroke-width:2;stroke-linecap:round;stroke-linejoin:round;stroke-miterlimit:10;}
	.st92{fill:none;stroke:#43334E;stroke-width:0.5;stroke-linecap:round;stroke-linejoin:round;stroke-miterlimit:10;}
	.st93{fill:none;stroke:#6582FC;stroke-miterlimit:10;}
	.st94{opacity:0.47;fill:#A6A3AE;}
	.st95{opacity:0.43;fill:#FFFFFF;}
	.st96{fill:none;stroke:#FBE6BB;stroke-linecap:round;stroke-linejoin:round;stroke-miterlimit:10;}
	.st97{fill:none;stroke:#5B4B68;stroke-width:0.5;stroke-linecap:round;stroke-linejoin:round;stroke-miterlimit:10;}
	.st98{font-family:'Poppins-Regular';}
	.st99{font-size:4.9967399px;}
	.st100{fill:none;stroke:#40304A;stroke-width:0.5;stroke-linecap:round;stroke-linejoin:round;stroke-miterlimit:10;}
	.st101{fill:none;stroke:#DDA103;stroke-linecap:round;stroke-linejoin:round;stroke-miterlimit:10;}
	.st102{fill:none;stroke:#FBC32E;stroke-linecap:round;stroke-linejoin:round;stroke-miterlimit:10;}
	.st103{fill:none;stroke:#32775B;stroke-width:0.5;stroke-linecap:round;stroke-linejoin:round;stroke-miterlimit:10;}
	.st104{opacity:0.4;fill:#FBE6BB;}
	.st105{fill:none;stroke:#FBC32E;stroke-width:0.25;stroke-linecap:round;stroke-linejoin:round;stroke-miterlimit:10;}
	.st106{fill:none;stroke:#4456D6;stroke-miterlimit:10;}
	.st107{opacity:0.61;fill:#64B48D;}
	.st108{opacity:0.9;fill:#64B48D;}
	.st109{opacity:0.76;fill:#64B48D;}
	.st110{fill:none;stroke:#5B4B68;stroke-width:0.5;stroke-miterlimit:10;}
	.st111{opacity:0.66;fill:#A6A3AE;}
	.st112{fill:none;stroke:#43334E;stroke-miterlimit:10;}
	.st113{opacity:0.52;fill:#6582FC;}
	.st114{fill:none;stroke:#DDA103;stroke-width:0.5;stroke-linecap:round;stroke-linejoin:round;stroke-miterlimit:10;}
	.st115{fill:#46724E;}
	.st116{fill:#FE8B2E;}
	.st117{fill:none;stroke:#7D4C47;stroke-width:2;stroke-linecap:round;stroke-linejoin:round;stroke-miterlimit:10;}
	.st118{opacity:0.4;fill:#EAE8F3;}
	.st119{fill:none;stroke:#EAE8F3;stroke-width:0.5;stroke-linecap:round;stroke-miterlimit:10;}
	.st120{fill:none;stroke:#4456D6;stroke-width:0.25;stroke-linecap:round;stroke-linejoin:round;stroke-miterlimit:10;}
	.st121{opacity:0.5;fill:#EAE8F3;}
	.st122{opacity:0.46;fill:#A6A3AE;}
	.st123{fill:#E0916E;}
	.st124{fill:none;stroke:#A0665A;stroke-linecap:round;stroke-linejoin:round;stroke-miterlimit:10;}
	.st125{opacity:0.46;fill:#BE412D;}
	.st126{fill:none;stroke:#203881;stroke-linecap:round;stroke-linejoin:round;stroke-miterlimit:10;}
	.st127{fill:#DBDBE1;}
	.st128{fill:none;stroke:#6582FC;stroke-width:0.5;stroke-linecap:round;stroke-linejoin:round;stroke-miterlimit:10;}
	.st129{opacity:0.53;fill:#A6A3AE;}
	.st130{fill:none;stroke:#DDA103;stroke-miterlimit:10;}
	.st131{opacity:0.2;fill:#FFFFFF;}
	.st132{fill:#B4A1BF;}
	.st133{opacity:0.5;fill:#6582FC;}
	.st134{opacity:0.6;fill:none;stroke:#FFFFFF;stroke-linecap:round;stroke-linejoin:round;stroke-miterlimit:10;}
	.st135{opacity:0.6;fill:none;stroke:#FFFFFF;stroke-width:2;stroke-linecap:round;stroke-linejoin:round;stroke-miterlimit:10;}
	.st136{opacity:0.54;fill:#A6A3AE;}
	.st137{fill:#161718;stroke:#000000;stroke-width:0.25;stroke-miterlimit:10;}
</style>
<g id="_x32_2">
	<g>
		<g>
			<path class="st54" d="M102.4839935,130.185379H89.0345383l-1.0282745-5.1904449
				c-0.2362747-1.1928024,0.0709457-2.4160614,0.8428955-3.3563538c0.7721558-0.9394913,1.9126511-1.4789734,3.1292953-1.4789734
				h7.561615c1.2166443,0,2.3573456,0.5394821,3.1294937,1.4797745c0.7719574,0.9394913,1.0791702,2.1627502,0.8426971,3.3563538
				L102.4839935,130.185379z M91.0570068,127.7228165h9.4045181l0.6350784-3.2064438
				c0.0925827-0.4673462-0.0276566-0.9459076-0.3300629-1.3146515c-0.3026123-0.3679352-0.7495117-0.5795593-1.2264709-0.5795593
				h-7.561615c-0.4767532,0-0.9236526,0.2116241-1.226265,0.5795593c-0.3024063,0.3687439-0.4228516,0.8473053-0.3302612,1.3146515
				L91.0570068,127.7228165z"/>
		</g>
		<path class="st54" d="M104.1808624,134.5256805c0,3.2532501-1.8534927,6.0747528-4.5633926,7.4743195h-7.7200394
			c-2.7095413-1.3995667-4.5633926-4.2210693-4.5633926-7.4743195c0-0.729538,0.0966873-1.4442291,0.2755356-2.1216583
			c0.9378281-3.625473,4.228241-6.3054733,8.1515121-6.3054733c0.9752731,0,1.905838,0.1637573,2.7767868,0.4689636
			C101.8286514,127.7139893,104.1808624,130.8480988,104.1808624,134.5256805z"/>
		<path class="st47" d="M104.1808624,134.5256805c0,3.2532501-1.8534927,6.0747528-4.5633926,7.4743195h-7.7200394
			c-2.7095413-1.3995667-4.5633926-4.2210693-4.5633926-7.4743195c0-0.2158661,0.0072708-0.4242859,0.0225372-0.6327515
			c0.2231903,2.9852448,2.0097961,5.5387115,4.5408554,6.8489532h7.7200394
			c2.5310593-1.3027954,4.3104019-3.8488007,4.5335846-6.8265991
			C104.1735916,134.1162415,104.1808624,134.3172607,104.1808624,134.5256805z"/>
		<circle class="st47" cx="93.3088913" cy="131.3291168" r="2.6113269"/>
		<text transform="matrix(1 0 0 1 89.8323975 139.0223389)" class="st6 st98 st99">Debt</text>
	</g>
	<path class="st8" d="M62.8041306,58.5126953c-0.0568848,0.0893097-0.0452576,0.2099457,0.0063095,0.302433
		c0.0515671,0.0924835,0.1370125,0.1611824,0.2258186,0.2188568c0.3719749,0.2415886,0.8330154,0.3252182,1.2746315,0.2839203
		c0.4416199-0.0413017,0.8656921-0.2009773,1.2553635-0.4128342c0.3963547-0.2154846,0.7661057-0.489563,1.0496597-0.8404579
		s0.4773407-0.7827568,0.5018692-1.2332306c0.0364914-0.6703377-0.298912-1.3102951-0.7256699-1.8285179"/>
	<path class="st7" d="M63.7182426,55.3515167c-0.0474396,0.1522713-0.963028,3.2742043-0.963028,3.2742043
		s0.9128494-1.3859673,3.6062889-1.2009583c2.6934433,0.1850128,2.2465744-1.8593636,2.2465744-1.8593636l-4.2549667-2.4592209"/>
	<path class="st7" d="M78.869545,34.5459862c-0.6252213-0.4019852-1.466362-0.4690056-2.1366577-0.1339951
		c-1.8534927,0.9082527-1.49617,4.2433777-1.7640762,5.9556046c-0.3649521,2.2408028-0.915657,4.4667053-1.749527,6.5809631
		c-1.3773041,3.4914742-3.6924438,7.1094933-7.437233,8.3527145c-0.5954208,0.1935654-1.2057343,0.3275604-1.8313217,0.3871269
		c-7.0497437,0.7742119-15.5142326-6.5288429-20.1074371-13.7127647c-1.2133675-1.890934-2.1588326-3.7818222-2.7320747-5.5089531
		c-2.9479942-8.8589802,2.0770454-18.5070286,11.2263718-21.5518532c1.4067497-0.4690075,2.8585739-0.7593536,4.3249397-0.8635426
		c2.9407234-0.2233715,5.9257965,0.2828951,8.6356964,1.5186625c0.9752731,0.4392471,1.905838,0.9752293,2.7767868,1.5931358
		c0.8040619,0.5657902,1.444191,1.3921185,2.2111816,1.9430046c1.7717056,1.2730274,4.9283447,0.8114719,6.722229-0.0967827
		c-0.7891617,1.206007-1.5336151,2.4939365-1.7491684,3.9232693c-0.1043243,0.7369995-0.0672531,1.4889011,0.118866,2.2035446
		c0.1861115,0.7295933,0.5063553,1.4219265,0.9603653,2.024929c0.022171,0.0372143,0.0447083,0.0669746,0.0745163,0.1042347
		c0.9454727,1.2060051,2.4045639,2.002573,3.930542,2.1440201c-0.6772003,0.0967827-1.3696747,0.1935196-1.9876251,0.4838657
		c-0.6252213,0.2903481-1.1762924,0.8040199-1.347496,1.4665909c-0.1712112,0.6699772,0.0745163,1.3921185,0.4914474,1.9430065
		C77.8721008,33.7940865,78.3708191,34.1812134,78.869545,34.5459862z"/>
	<path class="st9" d="M75.3781204,25.1361217c0.1861115,0.7295933,0.5063553,1.4219265,0.9603653,2.024929
		c-4.0646667,9.4098644-8.7098541,20.1224766-12.3877563,28.5273495
		c-7.0497437,0.7742119-15.5142326-6.5288429-20.1074371-13.7127647
		c4.0795746-8.8961945,9.3576126-20.3905125,12.8192368-27.9243469c2.9407234-0.2233715,5.9257965,0.2828951,8.6356964,1.5186625
		c0.9752731,0.4392471,1.905838,0.9752293,2.7767868,1.5931358c0.8040619,0.5657902,1.444191,1.3921185,2.2111816,1.9430046
		c1.7717056,1.2730274,4.9283447,0.8114719,6.722229-0.0967827c-0.7891617,1.206007-1.5336151,2.4939365-1.7491684,3.9232693
		C75.1549301,23.6695766,75.1920013,24.4214783,75.3781204,25.1361217z"/>
	<path class="st7" d="M65.8441391,37.9248962c0.2983627,2.05159-1.0452042,4.1334152-4.0155487,4.8785858l0.392868,2.7014198
		l-1.865406,0.1841354l-0.3820648-2.6271439c-1.7113533,0.1406517-3.5493813-0.1487389-4.6767349-0.6965599l0.452343-1.8149338
		l1.0222435-0.1009064c0,0,0.0775452,0.3124695,0.1163826,0.5064011c0.9800835,0.2705116,2.1126137,0.4129219,3.2718697,0.2984924
		c2.097229-0.207016,3.3542175-1.4139442,3.1382065-2.8992805c-0.2079048-1.4295807-1.4849281-2.1980934-3.7798882-2.7625046
		c-3.1547623-0.7432251-5.1943283-1.7566528-5.5223885-4.0124474c-0.3132133-2.1536922,1.186779-3.9684181,3.8491249-4.6267471
		l-0.3807144-2.6178493l1.8337555-0.1810093l0.3658676,2.515749c1.7680779-0.1180305,3.0394783,0.1707935,3.9579277,0.5321026
		l-0.2562752,0.9575672l0.7905426,0.7317619l-1.0222397,0.1009045c-0.6571808-0.255312-1.9514656-0.7019405-3.8379707-0.5157242
		c-2.2763748,0.224699-2.9572182,1.4971752-2.8060074,2.5369377c0.1971016,1.3553009,1.3916817,1.9248199,4.0876312,2.6003418
		C63.7721786,34.4099884,65.5079803,35.6134033,65.8441391,37.9248962z"/>
	<path class="st6" d="M61.3793068,45.5853691l-0.3816986-2.6245995c-1.714859,0.1429138-3.5529633-0.1501122-4.6799927-0.6978455
		l0.4548302-1.8109589c1.1527481,0.5188332,2.758625,0.8611412,4.4107018,0.6980667
		c2.0945969-0.2067566,3.3557167-1.4119682,3.1403084-2.893177c-0.2078552-1.4292374-1.4869003-2.1991959-3.7833786-2.7632866
		c-3.1603088-0.7424126-5.1927376-1.7543144-5.5215225-4.0151081c-0.3136711-2.1568489,1.1888237-3.9657879,3.8462639-4.6234894
		L58.48312,24.2303715l1.8290863-0.1805477l0.366581,2.5206547c1.7776413-0.1227512,3.0476608,0.1736317,3.9674454,0.5309448
		l-0.4881058,1.7878876c-0.6648788-0.2506809-1.9575768-0.70298-3.845665-0.5166092
		c-2.2716064,0.2242298-2.9533043,1.5040417-2.8021393,2.5434875c0.1965179,1.3512783,1.3863258,1.9191723,4.0889969,2.6013203
		c3.1973648,0.7914772,4.9279556,1.9913254,5.2642975,4.3040924c0.2985535,2.0529022-1.0443649,4.1360397-4.0187569,4.8777466
		l0.3930321,2.7025604L61.3793068,45.5853691z"/>
	<path class="st8" d="M74.8870239,40.8068428c-1.1392136,6.6702461-4.087204,12.819416-9.0973434,14.4869766
		c-0.599411,0.1977005-1.2122726,0.3161583-1.8334999,0.3827209c-0.0018158,0.0038643-0.0036354,0.0079994-0.0054512,0.0118599
		c-0.1039619,0.0074539-0.2010193,0.0223122-0.3049774,0.0297623c-0.2457275,0.014904-0.5063591,0.029808-0.7593575,0.029808
		c-0.2086487,0-0.416935-0.0074539-0.6255836-0.0223541c-0.1933823-0.0074539-0.3871307-0.0297623-0.580513-0.0521202
		c-0.037075-0.0074501-0.0745163-0.0074501-0.1043243-0.0149002c-0.1861115-0.0148582-0.3645897-0.0446663-0.5434341-0.0744286
		c-0.0596123-0.014904-0.1264992-0.0223083-0.1861115-0.0372124c-0.1784782-0.029808-0.3645935-0.0670204-0.5434341-0.1116867
		c-0.3794975-0.0893288-0.7593536-0.1935654-1.1388512-0.3201065c-0.1413994-0.0446663-0.2828026-0.0893326-0.4245682-0.141449
		c-0.565609-0.1935654-1.1315804-0.4317932-1.6971893-0.6997871c-0.1341286-0.0669746-0.2755318-0.1339951-0.416935-0.2009697
		c-0.1413994-0.0744705-0.2828026-0.1414452-0.4242058-0.2159195c-0.1414032-0.0744286-0.2755318-0.1488991-0.416935-0.2307777
		c-0.1414032-0.0744286-0.2828026-0.1563492-0.4245682-0.2382278c-0.2751732-0.1637573-0.5583382-0.3350143-0.8335114-0.5062218
		c-0.268261-0.1712112-0.5285301-0.3498726-0.7967949-0.5285759c-0.1486702-0.1041908-0.2900734-0.2009735-0.4391098-0.3126564
		c-0.1341286-0.0967827-0.2678986-0.1935654-0.4093018-0.2977524c-0.268261-0.2010193-0.5361633-0.4020348-0.8040619-0.6179085
		c-0.1341324-0.1042328-0.2679024-0.2084694-0.4020348-0.3201065c-0.5285301-0.431797-1.0497894-0.8858986-1.5561485-1.354908
		c-0.1264992-0.1191368-0.2529945-0.2382278-0.3794937-0.3573227c-0.2529984-0.2382278-0.4987259-0.4764557-0.7444534-0.7295914
		c-0.1264954-0.119091-0.2457237-0.245636-0.3649521-0.3722229c-0.3198814-0.3201103-0.6252251-0.6476707-0.9229317-0.9826813
		c-0.1192284-0.126545-0.2380943-0.26054-0.3573227-0.3945351c-0.0447083-0.0521164-0.0894203-0.1042366-0.1341286-0.156353
		c-0.1115952-0.1265411-0.2159233-0.2456818-0.3198814-0.3722229c-0.439476-0.5136757-0.8560486-1.0347977-1.2580795-1.5558777
		c-0.1192284-0.1563492-0.2384567-0.3127022-0.3576851-0.4690056c-0.0370789-0.0521202-0.0817871-0.1116867-0.118866-0.1638031
		c-0.1563034-0.2158737-0.3053398-0.4243431-0.461647-0.6402168c-0.2977066-0.4243431-0.5805092-0.8561363-0.8560448-1.2804337
		c-1.2133675-1.890934-2.1588326-3.7743683-2.7320747-5.5014992c-1.1762886-3.5510445-1.0795975-7.2211819,0.0519829-10.5488987
		c-0.2606316,2.3152752-0.0370789,4.6975269,0.7371788,7.0276165c0.6473961,1.9505005,1.7640724,4.1093788,3.2158966,6.2459488
		c4.8610992,7.2137299,13.4520874,14.2562485,20.4204063,12.856678c0.3496933-0.0670204,0.6921082-0.156353,1.034523-0.2679939
		C70.6882248,50.4176788,73.4126663,46.0254021,74.8870239,40.8068428z"/>
	<path class="st89" d="M62.397541,17.0275841c0.408699,0.1418037,0.8042336,0.3208752,1.1795616,0.536911
		c1.2842941,0.7392254,2.3210907,1.9139137,2.8529739,3.2970161c-0.1369324-0.356081-1.436264-0.6813316-1.7619858-0.7868309
		c-0.6733971-0.2181091-1.377758-0.3586292-2.0878906-0.3499699c-1.2071266,0.0147171-2.4154625-0.0632267-3.6107368-0.2325439
		c-0.6610107-0.0936375-1.4263802-0.299654-1.6671333-0.9223423c-0.1931992-0.4996872,0.0651932-1.0889168,0.4882278-1.4176331
		c0.4230347-0.3287144,0.9726219-0.4447079,1.506012-0.4948025C60.3407593,16.5593204,61.4077568,16.6841621,62.397541,17.0275841z"
		/>
	<path class="st100" d="M44.1872902,42.3486977c7.7061424,1.0433922,15.7357292-0.4604721,22.5419731-4.2218933
		c1.2194138-0.6738968,2.4062729-1.4222679,3.4463882-2.3492317c0.7639542-0.6808395,1.4418106-1.4517365,2.1073151-2.229084
		c1.1786957-1.3767967,2.3423462-2.8084335,3.0322037-4.4844379"/>
	<path class="st26" d="M78.0367279,22.7367764c1.1991043,0.3049831,2.5664978-0.5281258,2.8453445-1.7335796
		c0.0813828-0.3518486,0.0805435-0.7202282,0.1797638-1.0674706c0.3269119-1.144125,1.6146469-1.7214184,2.792984-1.8870144
		c1.1783295-0.165596,2.4204102-0.0802364,3.5086975-0.5613937c1.1697998-0.5171909,2.016983-1.6996794,2.1304626-2.9736643"/>
	<path class="st26" d="M79.7171555,26.9740543c0.8041306,0.5247784,1.7482605,1.0608215,2.6717758,0.7978764
		c0.4769897-0.1358089,0.873024-0.4710693,1.3375168-0.6448727c0.84758-0.3171444,1.8102722-0.0552044,2.6017838,0.3835182
		c0.7915192,0.4387226,1.4797058,1.0452785,2.2679901,1.4897785c2.0620956,1.1627827,4.774086,1.0613956,6.7436142-0.2521057"/>
	<path class="st26" d="M80.0997238,32.3596115c-0.0182571,0.668602,0.6767044,1.1460495,1.3344727,1.267292
		c0.6577759,0.1212425,1.3487701,0.0250473,1.9915085,0.2101097c0.9188995,0.2645798,1.5747604,1.045536,2.2753448,1.6963539
		c0.9041367,0.8399086,1.99823,1.5238152,3.2158279,1.7247581c1.2175903,0.200943,2.5658951-0.1456375,3.3770218-1.0756836"/>
	<path class="st100" d="M47.7251244,42.5961304c5.1171074,12.0776329,15.6962242,21.7143097,28.1975441,25.6855774"/>
	<path class="st100" d="M73.0447464,32.4670448c6.153656,9.5971794,10.2375717,20.5142059,11.8936691,31.7938652"/>
	<path class="st0" d="M110.5017319,102.4173965c0,0-1.9034424,1.5874634-2.0190048,1.6336975
		c-0.1156158,0.0462341-1.6491318-0.6858063-1.6491318-0.6858063l-0.5548172-1.2253036l-0.0848007-0.4007339l-0.1849442-0.8553696
		l-0.1155624-0.5394363c0,0,2.5892563-0.9555588,2.6740112-0.9555588c0.0077133,0.0077133,0.1849365,0.2928391,0.4315414,0.6781464
		c0.1309891,0.2157974,0.2851257,0.4546814,0.4469681,0.7089539
		C109.9622955,101.5697403,110.5017319,102.4173965,110.5017319,102.4173965z"/>
	<path class="st1" d="M108.9990234,100.0670319c0,0-1.7030716,1.0403137-2.8050461,1.6722183l-0.1849442-0.8553696
		l-0.1155624-0.5394363c0,0,2.5892563-0.9555588,2.6740112-0.9555588
		C108.5751953,99.3965988,108.7524185,99.6817245,108.9990234,100.0670319z"/>
	<path class="st21" d="M106.3681259,103.9442749l0.9246826,1.7503967c0.5957031,0.3682175,2.525116-0.1511383,2.525116-0.1511383
		l-0.1303787-0.473259l1.8151932-0.1492386c0.7004318-0.0602264,1.3805237-0.2786789,1.9878998-0.6347809l1.9925156-1.1863556
		c0.2473755-0.1447296,0.3210297-0.4582291,0.1737823-0.6972733l-0.3468018-0.5630951
		c-0.1560974-0.2554703-0.4323578-0.40522-0.7271729-0.3902969l-1.2493057,0.0474472l-2.2260208,0.0776215l-1.691925-0.8170853
		c-0.2390671-0.1060181-0.5032578-0.086174-0.723381,0.0301132c-0.0935364,0.049408-0.1783371,0.1153488-0.2545547,0.1978531
		c-0.1625824,0.1985168-0.229187,0.4589996-0.178978,0.714119l0.1331253,0.5985336l0.0004272,0.0138245l-1.8066101,0.2855606
		l-0.3085632-0.4777069l-0.0301971,0.7692947C106.151886,103.2417755,106.1965561,103.6194992,106.3681259,103.9442749z"/>
	<path class="st12" d="M109.5781555,104.6675873l0.1092072,0.4021835l1.816803-0.1495285
		c0.7015381-0.0577698,1.378479-0.2745972,1.9829178-0.6345749l1.9977417-1.1867294
		c0.2430115-0.1440201,0.3189316-0.4563065,0.1713028-0.6942673l-0.043663-0.0707932
		c-0.0202713,0.1452408-0.1026459,0.2794724-0.2381973,0.3604584l-2.0001755,1.1880341
		c-0.6044464,0.3599777-1.2813263,0.5767746-1.9828644,0.6345444L109.5781555,104.6675873z"/>
	<path class="st12" d="M107.0919418,105.3146362l0.200264,0.379097c0.5947342,0.3677979,2.5257645-0.1517563,2.5257645-0.1517563
		l-0.1306076-0.4722061C109.6873627,105.0697708,108.201622,105.3603592,107.0919418,105.3146362z"/>
	<path class="st32" d="M108.3789139,102.287674c0.5013046,0.0415573,1.0038452,0.0680771,1.5067368,0.0795212"/>
	<path class="st0" d="M97.4706116,114.5083389c0,0-2.1962357,1.1636353-2.3195114,1.1867828
		c-0.1233215,0.0230942-1.4719009-1.0018387-1.4719009-1.0018387l-0.2928391-1.3177185v-0.377594l-0.0077133-0.9093704
		l-0.0076599-0.5471039c0,0,2.7741928-0.4161606,2.8127136-0.3930206c0.0077133,0.0077133,0.1618423,0.4161148,0.3544998,0.9401245
		c0.0770416,0.1849899,0.154129,0.3930206,0.2311707,0.6011047
		C97.1084442,113.5682144,97.4706116,114.5083389,97.4706116,114.5083389z"/>
	<path class="st1" d="M96.5382004,112.0886002l-0.02314,0.0539474c0,0-1.7492676,0.5009232-3.1287003,0.855423l-0.0077133-0.9093704
		l-0.0076599-0.5471039c0,0,2.7741928-0.4161606,2.8127136-0.3930206
		C96.1914139,111.156189,96.3455429,111.5645905,96.5382004,112.0886002z"/>
	<path class="st21" d="M93.1066055,115.1602707l0.5490723,1.9019623c0.5082932,0.4817505,2.5030212,0.3659592,2.5030212,0.3659592
		l-0.0313187-0.4898911l1.8075714,0.2233353c0.6980209,0.0835876,1.4083405,0.0081253,2.0754852-0.2169037l2.1922684-0.7559891
		c0.2716522-0.0913544,0.4075699-0.3833008,0.3120575-0.647316l-0.2249298-0.6218872
		c-0.1008377-0.2818909-0.3408432-0.4847336-0.632515-0.5301285l-1.2328186-0.2078094l-2.1952286-0.3770676l-1.4902115-1.1443405
		c-0.2124863-0.1524582-0.4751892-0.1867981-0.7143707-0.1177444c-0.1016312,0.029335-0.1980743,0.0766373-0.2894897,0.1418991
		c-0.199585,0.1612778-0.3178101,0.4027557-0.3205795,0.6627502l0.008522,0.6130981l-0.0023956,0.0136185l-1.8269119-0.0881119
		l-0.2048798-0.5305099l-0.186142,0.7470474C93.0378723,114.4284744,93.0047302,114.807373,93.1066055,115.1602707z"/>
	<path class="st12" d="M96.1022339,116.5217819l0.0250626,0.4159927l1.8092117,0.2233734
		c0.698616,0.0862198,1.4055099,0.0117111,2.0705719-0.2177124l2.1974487-0.7552948
		c0.2672424-0.0915375,0.4051361-0.3818436,0.3090286-0.6448669l-0.0283432-0.0782013
		c-0.0494003,0.1380768-0.1573715,0.2527313-0.3065796,0.3044357l-2.2001038,0.756073
		c-0.665062,0.2294235-1.3718948,0.3039169-2.0705109,0.2176895L96.1022339,116.5217819z"/>
	<path class="st12" d="M93.5363617,116.6492691l0.1189194,0.4119263c0.5074234,0.4811401,2.5037842,0.3654785,2.5037842,0.3654785
		l-0.0317688-0.4888992C96.1272964,116.9377747,94.6135101,116.9198914,93.5363617,116.6492691z"/>
	<path class="st32" d="M95.4124756,113.9476013c0.4823532,0.1427155,0.9689789,0.2709656,1.4590149,0.3845215"/>
	<path class="st0" d="M84.1466522,68.2217484l0.546196,1.0397873l1.1728668,2.2218628l4.033226,7.6123123
		c0.2018814,0.3842697,0.5141068,0.6932449,0.8837967,0.9028473c0.3603668,0.2029343,0.7861252,0.3051605,1.2229691,0.2747498
		c0.8178482-0.0518036,1.5375748-0.5538635,1.8731613-1.3041077l3.9912643-6.5178452l0.0053711-0.0172577l3.0931931-5.0539932
		l-1.6981888-3.1341324c-0.1187668-0.2260208-0.3665924-0.3409843-0.6082916-0.3178825
		c-0.0796661,0.0130157-0.1580276,0.0340042-0.2405167,0.0801811c-0.2460022,0.1465454-0.3611221,0.4435349-0.2757339,0.7159042
		l0.4582596,1.9540558l-0.3585205,0.4594803l-1.5527802-0.4908676c-0.2187347-0.0869522-0.4646301,0.010437-0.5781097,0.2171783
		l-0.9335327,1.7478256c-0.0801163,0.1603394-0.064827,0.3541794,0.0408707,0.5005493l0.6982117,0.8185654l-3.641655,3.9000778
		l-0.5342331-1.868042l-0.8701019-3.0730591l-0.6365433-2.2440109l-2.4404602,0.6358871l-2.1588058,0.5571671L84.1466522,68.2217484
		z"/>
	<path class="st1" d="M85.865715,71.4833984l4.033226,7.6123123c0.2018814,0.3842697,0.5141068,0.6932449,0.8837967,0.9028473
		c0.3603668,0.2029343,0.7861252,0.3051605,1.2229691,0.2747498c0.8178482-0.0518036,1.5375748-0.5538635,1.8731613-1.3041077
		l3.9912643-6.5178452l-4.987236,5.8916702c-0.4070511,0.4808731-1.0607147,0.6742401-1.6638718,0.4922028l0,0
		c-0.6114273-0.1845322-1.0510483-0.7131195-1.115715-1.3485031c-0.1508942-1.4825821-0.4221039-4.0267029-0.5112076-4.0758362
		c-0.1166153-0.0627975,1.9888077-1.3475189,2.1523743-1.4478912l-0.8701019-3.0730591l-0.6365433-2.2440109l-2.4404602,0.6358871
		C87.3004303,68.2465668,86.4840622,69.9097977,85.865715,71.4833984z"/>
	<path class="st0" d="M85.9594345,53.4710579l-1.3066101,5.7733192c-0.0702286,0.3103104-0.2065125,0.6056366-0.4022064,0.8554344
		c-0.1403656,0.1714287-0.3028564,0.3217926-0.4860764,0.4461174c-0.0322418,0.0247879-0.1377029,0.0650826-0.2780685,0.1188545
		l-1.3837433,6.1141472l-3.4742126-0.7862778l1.115509-4.9289513c-0.0309067-0.0284042-0.0734024-0.0540466-0.1156464-0.0796623
		c-0.3898239-0.286068-0.6863174-0.7007141-0.8212738-1.1911392c-0.2428207-0.8409767-0.2676239-1.7235336-0.0753784-2.5729904
		l0.683815-3.0214653c0,0,0.2114716-1.4546928,1.8183823-1.7968521L85.9594345,53.4710579z"/>
	<path class="st1" d="M85.3267746,56.2763367l-0.6080704,2.6868019c-0.170517-0.1366653-0.2525177-0.3670082-0.2013855-0.5929375
		l0.3735046-1.6503334C84.9419556,56.4939384,85.1140289,56.3262672,85.3267746,56.2763367z"/>
	<path class="st3" d="M78.8744583,52.9687691c-0.0070038,0.1153984-0.0135422,0.223053-0.0128479,0.3389168
		c-0.0129166,0.5936966,0.0438843,1.1838531,0.178566,1.7633781c0.0237503,0.117218,0.055191,0.234951,0.0871048,0.344986
		c0.1189651-0.4328423,0.3749466-0.8342285,0.7171402-1.1299591c0.3345032-0.2962494,0.7783737-0.4854431,1.2235413-0.442955
		c0.3678513,0.045475,0.7113724,0.2362061,1.048645,0.4033737c0.3372803,0.1671219,0.6845398,0.2963066,1.0600815,0.3422928
		c0.4524002,0.0506096,0.9137192-0.0448837,1.3591766-0.1336555c-0.094696,0.2876244-0.0902863,0.5967255-0.0224991,0.8787613
		c0.1071548,0.5237579,0.4348526,0.9759941,0.5035553,1.4974632c0.0398331,0.2340202-0.0389938,0.5148811-0.100563,0.7659264
		l-0.0324326,0.152401c-0.1042328,0.5726967-0.2089844,1.1530876-0.3055649,1.7262497
		c0.54879-0.3912849,1.095192-0.7441216,1.5355377-1.2578163c0.2667007-0.3235016,0.4963531-0.67239,0.6812057-1.047184
		c0.316185-0.6293297,0.5215912-1.3425713,0.6477585-2.0219841c0.1280899-0.7102547,0.1792297-1.4251328,0.121727-2.1311569
		c-0.0314255-0.3724709-0.1211319-0.8025742-0.4588776-0.9620438c-0.2328415-0.1067772-0.5537949-0.0336266-0.6980972,0.18153
		c-0.0153809-0.2557182-0.0451813-0.5277672-0.1864243-0.7447624c-0.0284119-0.0403175-0.0568237-0.0806808-0.0934525-0.1137695
		c-0.1675644-0.1645927-0.4004059-0.2713699-0.6369858-0.3166008c-0.2134857-0.0438766-0.4298172-0.0415573-0.6456375-0.0469322
		c-0.0774155,0.0030251-0.1466141-0.0011749-0.2235641-0.0058479c-0.7691956-0.046711-1.5171509-0.3160477-2.1457291-0.7710991
		c-0.1997528-0.1433601-0.3831787-0.3011894-0.6164932-0.4002686c-0.4431-0.2045059-0.9736252-0.1131706-1.3976212,0.1312752
		c-0.3923187,0.2309647-0.6916809,0.5833473-0.9317856,0.9779663c-0.024498,0.0216484-0.0340729,0.0519791-0.0508194,0.0741005
		c-0.1725388,0.2983551-0.3233719,0.6211624-0.4357529,0.9463081c-0.0641251,0.1659317-0.1047363,0.3256111-0.1227112,0.4943428
		C78.8950119,52.6303215,78.877037,52.7990532,78.8744583,52.9687691z"/>
	<path class="st1" d="M79.587822,61.7702599L79.7483215,61.0611c-0.0261154,0.1743317,1.9835968-0.0363846,2.2429047-0.1490707
		c0.1269913-0.0037155,0.1534119,0.1776123,0.0306473,0.2102928C81.3190918,61.562397,80.5126953,61.7885971,79.587822,61.7702599z"
		/>
	<path class="st0" d="M84.9329605,56.5309601l-0.3733139,1.6495323c-0.0734024,0.324337,0.1298141,0.6464462,0.4541473,0.7198486
		s0.6464386-0.1298141,0.719841-0.4541512l0.3733215-1.6495323c0.036705-0.1621704,0.0040054-0.3232307-0.0778885-0.4536438
		c-0.0824509-0.1300697-0.2141953-0.2290344-0.3763657-0.2657356
		C85.3283691,56.0038757,85.0062637,56.2070923,84.9329605,56.5309601z"/>
	<path class="st4" d="M80.9366302,57.0795822l-0.4745102,0.3753319c-0.1240234,0.0980988-0.1437302,0.2787285-0.0437927,0.401268
		l0.2681427,0.3287582"/>
	<path class="st5" d="M80.4079819,58.670826c0.0325317-0.0082512,0.0650558-0.0164986,0.1028519-0.0224457
		c0.312355-0.046154,0.5906296,0.1174507,0.8106461,0.3260727c0.0828552,0.0747566,0.1555099,0.1579742,0.2174759,0.2364311
		c0.0015106,0.0038757,0.0069046,0.006237,0.0084229,0.0101166c0.0015182,0.0038757,0.0069046,0.006237,0.0084229,0.0101128
		c0.0589294,0.0707054,0.1100159,0.1444778,0.1573181,0.2197304c0.01297,0.0217438,0.0244217,0.0396118,0.0373611,0.0612602
		c0.0114517,0.017868,0.0282974,0.0380974,0.0335159,0.0628738c0.0030365,0.0077515,0.0021896,0.0170212-0.0040512,0.0239296
		c-0.0008392,0.0092697-0.0084991,0.0122643-0.010994,0.0175972c-0.020134,0.0168114-0.047905,0.01437-0.0727158,0.0194931
		c-0.016983,0.0022812-0.0393982,0.0021057-0.0563278,0.0042572c-0.0471878,0.005043-0.0942841,0.0100517-0.1414795,0.0150948
		c-0.0564575,0.0041962-0.1128235,0.008358-0.1676331,0.0164909c-0.0642166,0.0072289-0.1244583,0.0129089-0.1847916,0.0186234
		c-0.0656357,0.003315-0.1259689,0.0090294-0.1900558,0.0163155c-0.0603333,0.0057144-0.120575,0.0113945-0.1808167,0.0170708
		c-0.0564575,0.0041962-0.1113052,0.0122375-0.1677322,0.0165291c-0.0471344,0.0049133-0.0942841,0.0100517-0.1414795,0.0150948
		c-0.0393372,0.0019722-0.0733871,0.0063477-0.1074295,0.0107193c-0.022316-0.0002098-0.0393448,0.001976-0.0602417,0.0056763
		c0,0,0,0-0.0038757,0.0015182c-0.0131454,0.0006676-0.0772247,0.0079575-0.1389847,0.009758
		c-0.0642166,0.0072289-0.1244583,0.0129051-0.1244583,0.0129051C79.8983307,59.6738167,79.7756653,58.8465538,80.4079819,58.670826
		z"/>
	<path class="st6" d="M80.1553879,59.7831459l-0.0213623-0.2372437c-0.0107193-0.1074295,0.0711517-0.2063751,0.1785507-0.2171898
		l1.2263794-0.1178284c0.0015106,0.0038757,0.0069046,0.006237,0.0084229,0.0101166
		c0.0015182,0.0038757,0.0069046,0.006237,0.0084229,0.0101128c0.0589294,0.0707054,0.1100159,0.1444778,0.1573181,0.2197304
		c0.01297,0.0217438,0.0244217,0.0396118,0.0373611,0.0612602c0.0114517,0.017868,0.0282974,0.0380974,0.0335159,0.0628738
		c0.0030365,0.0077515,0.0021896,0.0170212-0.0040512,0.0239296c-0.0008392,0.0092697-0.0084991,0.0122643-0.010994,0.0175972
		c-0.020134,0.0168114-0.047905,0.01437-0.0727158,0.0194931c-0.016983,0.0022812-0.0393982,0.0021057-0.0563278,0.0042572
		c-0.0471878,0.005043-0.0942841,0.0100517-0.1414795,0.0150948c-0.0564575,0.0041962-0.1128235,0.008358-0.1676331,0.0164909
		c-0.0642166,0.0072289-0.1244583,0.0129089-0.1847916,0.0186234c-0.0656357,0.003315-0.1259689,0.0090294-0.1900558,0.0163155
		c-0.0603333,0.0057144-0.120575,0.0113945-0.1808167,0.0170708c-0.0564575,0.0041962-0.1113052,0.0122375-0.1677322,0.0165291
		c-0.0471344,0.0049133-0.0942841,0.0100517-0.1414795,0.0150948c-0.0393372,0.0019722-0.0733871,0.0063477-0.1074295,0.0107193
		c-0.022316-0.0002098-0.0393448,0.001976-0.0602417,0.0056763c0,0,0,0-0.0038757,0.0015182
		C80.2812271,59.7740555,80.2171478,59.7813454,80.1553879,59.7831459z"/>
	<path class="st1" d="M85.7289276,56.7441978l-0.1067123,0.4715233l-0.4777832,0.103653l0.1523056-0.6729889
		c0.02668-0.1178818,0.1471252-0.1938667,0.265007-0.1671906C85.6796265,56.5058746,85.7556076,56.6263161,85.7289276,56.7441978z"
		/>
	<path class="st1" d="M85.0399399,57.7810669l0.4721985-0.078949l-0.1000366,0.4420242
		c-0.02668,0.117878-0.1471252,0.1938667-0.265007,0.1671867c-0.1178818-0.0266762-0.1938629-0.1471214-0.1671829-0.2649994
		L85.0399399,57.7810669z"/>
	<path class="st24" d="M91.8731995,71.7907944l-3.0596771,0.7891159l-3.4020996,0.8858948l-1.6006775-5.3004837
		c-0.4987259-1.5856781,0.3871307-3.2755508,1.9803543-3.7669144l0.1712112-0.0595245l0.2827988-0.0744705l0.2457275-0.0744247
		c0.1042328-0.0446701,0.2233734-0.0744781,0.3275146-0.0967865c0.06707-0.0074539,0.1340408-0.0223541,0.1935654-0.029808
		c0.2828979-0.0297623,0.5657883-0.0223083,0.8338699,0.0149078c0.3126144,0.0521164,0.617775,0.1563492,0.9082108,0.2903442
		c0.6922836,0.3647766,1.2506256,0.9901352,1.5038071,1.7941055l1.2282639,4.2433777l0.037262,0.141449l0.1264954,0.4615555
		L91.8731995,71.7907944z"/>
	<path class="st24" d="M90.2578049,81.535675c-3.387291,2.3077774-7.1691589,3.067131-11.3454208,2.2631073
		c-0.3499603-0.0595169-0.7147369-0.1488953-1.0869598-0.2382278l-1.5856857-5.6727066l-0.1712112-0.5955505l-0.2531738-0.8933487
		l-0.0595245-0.2233276l-0.0222626-0.0818787l-0.8338776-3.0150146l-1.2953339-4.5858459l-0.0744247-0.2679901l-0.3573227-1.2804337
		c0-0.0074463,0.0074539-0.0074463,0.0149002-0.0074463l0.3201599-0.1935654l0.4614639-0.275444l1.4814453-0.9008026
		l3.6330185-2.2035904l0.1935577-0.119091c0.0446243,0.2679901,0.1488571,0.4839096,0.2753525,0.662571
		c0.9082108,1.2432175,3.0299683,0.5955505,3.4617157-1.1613426c0.0149002-0.0670204,0.7221832,0.1563072,1.8016052,0.4541054
		v0.0074501c0.3573227,0.1042366,0.7220917,0.2010193,1.0794144,0.3126564h0.0074539
		c0.3126984,0.0893326,0.6104965,0.1712112,0.8784866,0.2456818c0.0967865,0.0297623,0.1934738,0.0595703,0.2828979,0.0818787
		c0.4168472,0.126545,0.7146454,0.2084656,0.7593536,0.2233276c0.0074539,0.0074539,0.0223541,0.0074539,0.0223541,0.0074539
		c0.0668869,0.0446625-0.3871231,0.0074463-0.3796768,0.1712036c0,0,0.089241,0.5360336,0.2307358,1.4144745
		c0.1265869,0.7816696,0.2977982,1.8239136,0.4913635,3.0150146c0.0446167,0.2531357,0.0818787,0.5211258,0.1264954,0.7891159
		c0.0745163,0.4392471,0.1414948,0.8933563,0.2084656,1.3549118c0.0967865,0.5732422,0.1935654,1.1613388,0.2903519,1.7568893
		c0.148941,0.9157028,0.3052444,1.8462677,0.4466476,2.7321701c0.1488571,0.9603195,0.2977982,1.868576,0.4243927,2.6874542
		c0.1264954,0.7072372,0.2158279,1.3399963,0.3051605,1.8611221c0.0149002,0.0744324,0.0223541,0.1563568,0.0372543,0.2233276
		c0.0074539,0.0595703,0.0223541,0.1265411,0.029808,0.1786575C90.1832809,81.0517578,90.2578049,81.5282211,90.2578049,81.535675z"
		/>
	<path class="st25" d="M91.4860687,70.4061279c-1.2580719,0.6700211-2.3971024,1.2953339-2.3971024,1.2953339l-0.7742615-2.2333527
		l-1.8238678-5.2781219l0.2903442-0.4243469c0.0967865,0.0297623,0.1934738,0.0595703,0.2828979,0.0818787
		c0.4168472,0.126545,0.7146454,0.2084656,0.7593536,0.2233276c0.0074539,0.0074539,0.0223541,0.0074539,0.0223541,0.0074539
		c0.3126144,0.0521164,0.617775,0.1563492,0.9082108,0.2903442c0.6922836,0.3647766,1.2506256,0.9901352,1.5038071,1.7941055
		L91.4860687,70.4061279z"/>
	<path class="st25" d="M90.0567856,80.2626419L79.924736,81.8557816l-1.3176956-7.5412903l5.2484131-6.9904022
		c-0.0744247,1.3325958,2.8065948,4.9878311,5.4047165,7.9879913c0.1488571,0.9603195,0.2977982,1.868576,0.4243927,2.6874542
		c0.1264954,0.7072372,0.2158279,1.3399963,0.3051605,1.8611221c0.0149002,0.0744324,0.0223541,0.1563568,0.0372543,0.2233276
		C90.0344315,80.1435547,90.0493317,80.2105255,90.0567856,80.2626419z"/>
	<path class="st37" d="M83.6304321,62.8846169c0,0-0.2552719,5.2724876,5.4587479,11.3878899L85.1444321,64.26091
		l-0.5997772-0.9409142"/>
	<path class="st37" d="M77.3540878,77.3800201l1.5644455,6.4229965c-0.3607712-0.0687637-0.7244797-0.1492691-1.0911179-0.2415161
		l-2.9354477-10.4793701l1.6627808-0.8811417l0.9618759-1.4297791c0.1823959-0.2711258,0.6047974-0.0879288,0.5315094,0.2305069
		L77.3540878,77.3800201z"/>
	<path class="st11" d="M109.754921,99.8640442l-4.4816132,1.176239h-0.0074463l-4.2954941-10.4744186l-11.3826828-1.9876709
		l0.2084732,0.1861115l0.6923752,0.6178589l4.0870285,3.6552811c0.5434341,0.4838638,0.9454651,1.0943146,1.1836472,1.7643433
		c0.1191406,0.3424149,0.2010193,0.7072372,0.2308273,1.0794601c0.0074539,0.0223083,0.0074539,0.0446625,0.0074539,0.0744247
		l1.1985474,16.1545868l-4.5262222,0.1861115l-2.9034653-14.3976898l-8.4494095-5.2260132
		c-0.2382736-0.1488953-0.461647-0.3126984-0.677475-0.4913635c-1.6973648-1.340004-2.7023544-3.4021454-2.7023544-5.60569
		v-2.3301315l12.3429565-2.7470245l0.2381821,1.0198975l0.0521622,0.2382278l1.0719681,0.141449l0.2978897,0.0372086
		l8.6206131,1.1241302l1.8165054,0.2382278l0.9603729,0.1265411c1.4219208,0.1861191,2.5832214,1.2060089,2.9628983,2.5981293
		L109.754921,99.8640442z"/>
	<polygon class="st13" points="100.5608826,84.0593719 98.7966309,88.0049515 89.5281601,86.0768051 91.6423798,82.8980331 
		91.9402695,82.9352417 	"/>
	<path class="st13" d="M95.7592087,94.8017883l-3.4839783,7.7869186l-0.6677551-3.4156036
		c-0.2335358-1.1945343-0.9652176-2.232872-2.0115738-2.8546295l-7.1978607-4.2770386
		c-0.4326859-0.2571106-0.7373352-0.6842957-0.8394775-1.1771317L80.99897,88.1642914
		c-0.1932907-0.9326477,0.3766174-1.8535919,1.2975235-2.0967407l4.1943436-1.1074219l2.9107361,4.02005l1.0869598,0.4019852
		l4.0870285,3.6552811C95.1189957,93.5213089,95.5210266,94.1317596,95.7592087,94.8017883z"/>
	<line class="st85" x1="93.0580521" y1="100.8582458" x2="94.6901474" y2="110.7010574"/>
	<path class="st2" d="M81.3147736,86.734024l0.0792084,0.4447708c0.2562637,1.439003,1.1015015,2.7057419,2.3318939,3.494751
		l7.1485901,4.5841446c0.8940201,0.5733109,1.5033951,1.4984512,1.6771317,2.5462036l0.5064545,3.0543518"/>
	<line class="st85" x1="80.9613724" y1="84.7495651" x2="81.3147736" y2="86.734024"/>
	<path class="st12" d="M90.2576675,82.8360977l-9.636116,2.463089c-1.0156555,0.259613-1.6551285,1.2555084-1.4766769,2.2885132
		c0.2209625,1.2791138,0.6543808,3.025528,1.4955368,4.5959625c-1.6953583-1.3408661-2.7048645-3.4061508-2.7048645-5.6100998
		v-2.3272247l12.3452606-2.7510986l0.2388916,1.0248795L90.2576675,82.8360977z"/>
	<path class="st12" d="M105.2769394,101.0380173h-0.0076675l-4.3000412-10.4726791l-11.3819885-1.9881516l-0.5291061-1.134613
		c-0.0928955-0.1992111,0.0747604-0.4212265,0.7099762-0.3729706l12.0200424,1.9294052L105.2769394,101.0380173z"/>
	<path class="st0" d="M70.0420303,80.4904251l4.3557816,6.3815384l0.9081192,2.0033112l0.4573746,0.9970169l0.2615891,0.7999039
		c0.0736771,0.2006836,0.2590866,0.3340302,0.4781113,0.3227692l0.4964828-0.0156403l0.1664047,0.2673264
		c0.0382538,0.083786,0.1229553,0.151741,0.2117844,0.1945038c0.098053,0.0494461,0.2227554,0.0617828,0.3396988,0.0262985
		c0.2338409-0.0709,0.384613-0.3000565,0.3468628-0.5311279l-0.021843-0.2337189l0.1973114,0.556839
		c0.0881653,0.239212,0.3558426,0.3754501,0.6056366,0.3019409l0.1634521-0.0512695
		c0.2178879-0.0682983,0.3645859-0.2722244,0.3507156-0.5072403l-0.0076447-0.0969238l0.1672058,0.4226379
		c0.096138,0.237915,0.3625259,0.3662186,0.6110153,0.2847366l0.1860275-0.0631485
		c0.2564697-0.0827866,0.3993759-0.3597412,0.3165894-0.6162109l-0.6835098-2.0808945l-0.0512619-0.1633987
		c-0.0801849-0.2405167-0.1989059-0.4665985-0.3548965-0.670166c-0.0727005-0.0944824-0.1427536-0.1730194-0.2301178-0.2569199
		l-2.0095291-1.6843262l-3.4617462-7.0184708l1.7811127-5.2732468l-4.5500488-1.7110977l-1.0133743,3.0616455l-0.5416107,1.6429138
		C69.1008987,78.0343704,69.3008499,79.408844,70.0420303,80.4904251z"/>
	<polygon class="st1" points="73.708931,76.9952774 72.8672562,78.8851471 77.3033905,86.0782623 73.8416443,79.0597916 
		75.622757,73.7865448 71.0727081,72.0754471 70.0593338,75.1370926 	"/>
	<path class="st24" d="M69.8064575,74.803978c2.2181549,0.8075638,4.7797241,1.7635651,5.7036514,2.1117325l0.2734604-0.8300858
		l0.5335846-1.6415939l1.299324-4.0164566c0.1528473-0.4667816,0.1875305-0.9551086,0.1133347-1.409317
		c-0.1627121-0.9960709-0.8210297-1.8702774-1.7965469-2.2836227c-0.0610352-0.0227356-0.1138992-0.0468063-0.1749496-0.0695877
		c-0.0265274-0.012001-0.0530624-0.0240402-0.0782928-0.0281067c-0.3712234-0.1193237-0.7387161-0.165657-1.1024704-0.1389923
		c-0.3572693,0.0174637-0.7039337,0.0986557-1.024231,0.2409592c-0.0372849,0.0224228-0.0758591,0.036911-0.1064682,0.0500946
		c-0.72052,0.3467941-1.2973633,0.9727707-1.5574875,1.7842941l-1.2978134,4.0244446c0,0-0.1754837,0.4786148-0.4285965,1.1826324
		C70.0571594,74.0839767,69.935051,74.4393768,69.8064575,74.803978z"/>
	<path class="st37" d="M76.9722366,65.031723l-1.5180435,0.534874c0,0,0.1001816,0.4007339,0.2311783,1.071167
		c0.3467789,1.7570267,0.9247437,5.3557816,0.5008698,8.2224426c-0.0847549,0.5471573-0.200325,1.071167-0.3698807,1.5412292
		l0.2543182,0.8939438c0.272377-0.2765198,0.5782394-0.5951309,0.9015579-0.9368362V65.031723z"/>
	<line class="st4" x1="79.3495026" y1="90.9058151" x2="78.7770233" y2="88.9825668"/>
	<line class="st4" x1="78.0745926" y1="90.8077698" x2="77.850502" y2="89.4359436"/>
	<line class="st4" x1="77.0018005" y1="90.9797134" x2="76.7468948" y2="90.1466293"/>
	<path class="st34" d="M77.9371567,84.2473602c4.1224213-0.0826263,8.2915115-0.7868195,12.5037766-2.0680008l-0.2446594-1.1138077
		c-4.3111725,1.0632477-8.4919662,1.7814331-12.4996643,2.0418091L77.9371567,84.2473602z"/>
	<line class="st4" x1="73.8416443" y1="79.0597916" x2="72.5952835" y2="78.7975235"/>
	<line class="st4" x1="92.2787094" y1="73.8310394" x2="91.532814" y2="75.0639343"/>
	<path class="st17" d="M75.456192,65.5643387c0,0,2.4370041,4.9060745,0.4617157,11.180336l0.4767914,1.6961212
		c0,0,4.509285-11.2964401,1.6765289-14.5156212L75.456192,65.5643387z"/>
	<path class="st17" d="M86.1670456,63.5918808c0,0,0.3372879,5.4263763,2.6902161,9.2608948l0.2319183,1.4197311
		c0,0-5.3485031-7.1894073-5.4587479-11.3878899L86.1670456,63.5918808z"/>
	<path class="st5" d="M78.8744583,52.9687691c-0.0070038,0.1153984-0.0135422,0.223053-0.0128479,0.3389168
		c0.3153458,0.0191498,0.6330795-0.0001488,0.9444656-0.0430145c0.4666901-0.0565758,0.9519958-0.1660652,1.3105316-0.4763107
		c0.2769089-0.2379227,0.452713-0.590126,0.543869-0.9474258c0.0916672-0.3650398,0.0986862-0.7351761,0.0826569-1.1067123
		c0.2855072,0.5114517,0.9299622,0.7049522,1.5154953,0.7251015c0.4393845,0.0112228,0.8834381-0.054451,1.2734146-0.2469635
		c0.1114349-0.0549622,0.2155914-0.1181412,0.3130722-0.1971321c-0.0774155,0.0030251-0.1466141-0.0011749-0.2235641-0.0058479
		c-0.7691956-0.046711-1.5171509-0.3160477-2.1457291-0.7710991c-0.1997528-0.1433601-0.3831787-0.3011894-0.6164932-0.4002686
		c-0.4431-0.2045059-0.9736252-0.1131706-1.3976212,0.1312752c-0.3923187,0.2309647-0.6916809,0.5833473-0.9317856,0.9779663
		c-0.024498,0.0216484-0.0340729,0.0519791-0.0508194,0.0741005c-0.1725388,0.2983551-0.3233719,0.6211624-0.4357529,0.9463081
		c-0.0641251,0.1659317-0.1047363,0.3256111-0.1227112,0.4943428C78.8950119,52.6303215,78.877037,52.7990532,78.8744583,52.9687691
		z"/>
	<path class="st100" d="M92.1253128,109.5545349c-0.3023911,0.2640381-0.3865204,0.7461472-0.1914215,1.0969925
		c0.1365814,0.2456055,0.3852768,0.414093,0.6509399,0.5057373s0.5497284,0.1140976,0.8304825,0.1263657
		c0.3434601,0.0150146,0.6875381,0.0159073,1.0310745,0.0026779c0.9695206-0.0373535,1.9995193-0.217598,2.7079391-0.8805466
		c0.1291504-0.1208572,0.2466278-0.258255,0.3188477-0.4197159c0.1178436-0.2634277,0.1016006-0.58284-0.0423431-0.832962
		c-0.1439438-0.2501144-0.4119644-0.4246216-0.6989365-0.4550781"/>
	<path class="st100" d="M92.6925583,111.2322922c0.0701447,0.6605148-0.4418716,0.9946976-0.7901306,1.441925
		c-0.3582077,0.4600143-0.5422211,1.1101379-0.6207657,1.6783524c-0.1600952,1.1582336,0.1434402,2.393364,0.8980942,3.2973785
		c0.6415939,0.7685699,1.5221634,1.2722015,2.301239,1.882782c0.5409698,0.4239807,1.1002731,0.6613998,1.4496613,1.3126144
		c0.2746429,0.5119171,0.343956,1.1537781,0.0894318,1.6759872"/>
	<path class="st7" d="M65.5366821,52.055481c-0.5434341,1.2506714-1.0719604,2.4641266-1.5859528,3.6329193
		c-0.1039619,0.0074539-0.2010193,0.0223122-0.3049774,0.0297623c-0.2457275,0.014904-0.5063591,0.029808-0.7593575,0.029808
		c-0.2086487,0-0.416935-0.0074539-0.6255836-0.0223541c-0.1933823-0.0074539-0.3871307-0.0297623-0.580513-0.0521202
		c-0.037075-0.0074501-0.0745163-0.0074501-0.1043243-0.0149002c-0.1861115-0.0148582-0.3645897-0.0446663-0.5434341-0.0744286
		c-0.0596123-0.014904-0.1264992-0.0223083-0.1861115-0.0372124c-0.1784782-0.029808-0.3645935-0.0670204-0.5434341-0.1116867
		c-0.3794975-0.0893288-0.7593536-0.1935654-1.1388512-0.3201065c-0.1413994-0.0446663-0.2828026-0.0893326-0.4245682-0.141449
		c-0.565609-0.1935654-1.1315804-0.4317932-1.6971893-0.6997871c-0.1341286-0.0669746-0.2755318-0.1339951-0.416935-0.2009697
		c-0.1413994-0.0744705-0.2828026-0.1414452-0.4242058-0.2159195c-0.1414032-0.0744286-0.2755318-0.1488991-0.416935-0.2307777
		c-0.1414032-0.0744286-0.2828026-0.1563492-0.4245682-0.2382278c-0.2828064-0.1563072-0.5583382-0.3275604-0.8335114-0.5062218
		c-0.268261-0.1712112-0.5361633-0.3424644-0.7967949-0.5285759c-0.1486702-0.1041908-0.2900734-0.2009735-0.4391098-0.3126564
		c-0.1341286-0.0967827-0.2678986-0.1935654-0.4093018-0.2977524c-0.268261-0.2010193-0.5361633-0.4020348-0.8040619-0.6179085
		c-0.1341324-0.1042328-0.2679024-0.2084694-0.4020348-0.3201065c-0.5285301-0.431797-1.0497894-0.8858986-1.5561485-1.354908
		c-0.1264992-0.1191368-0.2529945-0.2382278-0.3794937-0.3573227c-0.2529984-0.2382278-0.4987259-0.4764557-0.7444534-0.7295914
		c-0.1264954-0.119091-0.2457237-0.245636-0.3649521-0.3722229c-0.3198814-0.3201103-0.6252251-0.6476707-0.9229317-0.9826813
		c-0.1192284-0.126545-0.2380943-0.26054-0.3573227-0.3945351c-0.0447083-0.0521164-0.0894203-0.1042366-0.1341286-0.156353
		c-0.1115952-0.1265411-0.2159233-0.2456818-0.3198814-0.3722229c-0.439476-0.5136757-0.8560486-1.0347977-1.2580795-1.5558777
		c-0.1192284-0.1563492-0.2384567-0.3127022-0.3576851-0.4690056c-0.0370789-0.0521202-0.0817871-0.1116867-0.118866-0.1638031
		c-0.1563034-0.2158737-0.3053398-0.4243431-0.461647-0.6402168c-0.2977066-0.4243431-0.5805092-0.8561363-0.8560448-1.2804337
		c0.4093018-0.9008026,0.8411446-1.8313637,1.2729836-2.7768326C49.977375,46.4125328,58.5683632,53.4550514,65.5366821,52.055481z"
		/>
	<line class="st2" x1="89.7663498" y1="97.8986816" x2="90.293869" y2="97.7364883"/>
	<line class="st85" x1="100.9692307" y1="90.5653381" x2="101.7831802" y2="88.7672348"/>
</g>
</svg>
