<?xml version="1.0" encoding="utf-8"?>
<!-- Generator: Adobe Illustrator 22.0.1, SVG Export Plug-In . SVG Version: 6.00 Build 0)  -->
<svg version="1.1" id="Layer_1" xmlns="http://www.w3.org/2000/svg" xmlns:xlink="http://www.w3.org/1999/xlink" x="0px" y="0px"
	 viewBox="0 0 156 156" style="enable-background:new 0 0 156 156;" xml:space="preserve">
<style type="text/css">
	.st0{fill:#FFD9B2;}
	.st1{fill:#F7AC76;}
	.st2{fill:none;stroke:#3643C3;stroke-width:0.5;stroke-linecap:round;stroke-linejoin:round;stroke-miterlimit:10;}
	.st3{fill:#233764;}
	.st4{fill:none;stroke:#F7AC76;stroke-width:0.5;stroke-linecap:round;stroke-linejoin:round;stroke-miterlimit:10;}
	.st5{fill:#161718;}
	.st6{fill:#FFFFFF;}
	.st7{fill:#F06449;}
	.st8{fill:#BE412D;}
	.st9{fill:#FE8E60;}
	.st10{fill:#7D4C47;}
	.st11{fill:#4456D6;}
	.st12{fill:#203881;}
	.st13{fill:#6582FC;}
	.st14{fill:#DDA103;}
	.st15{fill:#FBC32E;}
	.st16{fill:none;stroke:#DDA103;stroke-width:0.5;stroke-miterlimit:10;}
	.st17{fill:#FBE6BB;}
	.st18{fill:none;stroke:#BE412D;stroke-width:0.5;stroke-linecap:round;stroke-linejoin:round;stroke-miterlimit:10;}
	.st19{fill:none;stroke:#F06449;stroke-width:0.5;stroke-linecap:round;stroke-linejoin:round;stroke-miterlimit:10;}
	.st20{fill:#F34B4B;}
	.st21{fill:#FC7070;}
	.st22{fill:none;stroke:#FFFFFF;stroke-miterlimit:10;}
	.st23{fill:#FC9F9F;}
	.st24{fill:#408A6F;}
	.st25{fill:#64B48D;}
	.st26{fill:none;stroke:#FBE6BB;stroke-width:0.5;stroke-linecap:round;stroke-linejoin:round;stroke-miterlimit:10;}
	.st27{fill:none;stroke:#F7AC76;stroke-width:0.25;stroke-linecap:round;stroke-linejoin:round;stroke-miterlimit:10;}
	.st28{fill:#A0665A;}
	.st29{fill:#6C3F44;}
	.st30{fill:none;stroke:#6C3F44;stroke-width:0.5;stroke-linecap:round;stroke-linejoin:round;stroke-miterlimit:10;}
	.st31{fill:none;stroke:#7D4C47;stroke-width:0.5;stroke-linecap:round;stroke-linejoin:round;stroke-miterlimit:10;}
	.st32{fill:none;stroke:#F34B4B;stroke-width:0.5;stroke-linecap:round;stroke-linejoin:round;stroke-miterlimit:10;}
	.st33{fill:none;stroke:#FC7070;stroke-width:0.5;stroke-linecap:round;stroke-linejoin:round;stroke-miterlimit:10;}
	.st34{fill:#EAE8F3;}
	.st35{fill:#40304A;}
	.st36{fill:none;stroke:#43334E;stroke-linecap:round;stroke-linejoin:round;stroke-miterlimit:10;}
	.st37{fill:#32775B;}
	.st38{fill:none;stroke:#233764;stroke-width:0.5;stroke-linecap:round;stroke-linejoin:round;stroke-miterlimit:10;}
	.st39{fill:none;stroke:#408A6F;stroke-width:0.5;stroke-linecap:round;stroke-linejoin:round;stroke-miterlimit:10;}
	.st40{fill:#3643C3;}
	.st41{opacity:0.56;fill:url(#SVGID_1_);}
	.st42{opacity:0.52;fill:#FBC32E;}
	.st43{opacity:0.56;fill:url(#SVGID_2_);}
	.st44{fill:none;stroke:#EAE8F3;stroke-width:0.5;stroke-linecap:round;stroke-linejoin:round;stroke-miterlimit:10;}
	.st45{fill:#FEFFFD;}
	.st46{opacity:0.35;fill:#32775B;}
	.st47{fill:#43334E;}
	.st48{fill:none;stroke:#EAE8F3;stroke-width:0.25;stroke-linecap:round;stroke-linejoin:round;stroke-miterlimit:10;}
	.st49{fill:none;stroke:#FBC32E;stroke-width:0.5;stroke-linecap:round;stroke-linejoin:round;stroke-miterlimit:10;}
	.st50{fill:none;stroke:#161718;stroke-width:0.5;stroke-linecap:round;stroke-linejoin:round;stroke-miterlimit:10;}
	.st51{fill:none;stroke:#40304A;stroke-linecap:round;stroke-linejoin:round;stroke-miterlimit:10;}
	.st52{opacity:0.33;fill:#FBC32E;}
	.st53{fill:#A6A3AE;}
	.st54{fill:#5B4B68;}
	.st55{fill:#776688;}
	.st56{fill:none;stroke:#FBC32E;stroke-width:0.5;stroke-miterlimit:10;}
	.st57{fill:none;stroke:#EAE8F3;stroke-linecap:round;stroke-linejoin:round;stroke-miterlimit:10;}
	.st58{fill:none;stroke:#203881;stroke-width:2;stroke-linecap:round;stroke-linejoin:round;stroke-miterlimit:10;}
	.st59{fill:none;stroke:#40304A;stroke-width:2;stroke-linecap:round;stroke-linejoin:round;stroke-miterlimit:10;}
	.st60{fill:#FFD8B7;}
	.st61{fill:#F4E4D4;}
	.st62{fill:none;stroke:#4456D6;stroke-width:0.5;stroke-linecap:round;stroke-linejoin:round;stroke-miterlimit:10;}
	.st63{fill:none;stroke:#DDA103;stroke-width:0.25;stroke-miterlimit:10;}
	.st64{fill:none;stroke:#FFFFFF;stroke-width:0.5;stroke-linecap:round;stroke-linejoin:round;stroke-miterlimit:10;}
	.st65{fill:none;stroke:#64B48D;stroke-width:0.5;stroke-linecap:round;stroke-linejoin:round;stroke-miterlimit:10;}
	.st66{fill:none;stroke:#64B48D;stroke-linecap:round;stroke-linejoin:round;stroke-miterlimit:10;}
	.st67{opacity:0.48;fill:#64B48D;}
	.st68{fill:none;stroke:#64B48D;stroke-width:0.25;stroke-linecap:round;stroke-linejoin:round;stroke-miterlimit:10;}
	.st69{fill:none;stroke:#F06449;stroke-width:2;stroke-linecap:round;stroke-linejoin:round;stroke-miterlimit:10;}
	.st70{opacity:0.92;fill:#64B48D;}
	.st71{opacity:0.57;fill:#408A6F;}
	.st72{opacity:0.36;fill:#408A6F;}
	.st73{fill:none;stroke:#BE412D;stroke-width:2;stroke-linecap:round;stroke-linejoin:round;stroke-miterlimit:10;}
	.st74{opacity:0.65;fill:none;stroke:#408A6F;stroke-width:0.25;stroke-linecap:round;stroke-linejoin:round;stroke-miterlimit:10;}
	.st75{opacity:0.67;fill:none;stroke:#64B48D;stroke-width:0.25;stroke-linecap:round;stroke-linejoin:round;stroke-miterlimit:10;}
	.st76{opacity:0.98;fill:#64B48D;}
	.st77{fill:none;stroke:#408A6F;stroke-width:0.25;stroke-linecap:round;stroke-linejoin:round;stroke-miterlimit:10;}
	.st78{fill:none;stroke:#FFD9B2;stroke-width:0.5;stroke-linecap:round;stroke-linejoin:round;}
	
		.st79{fill:none;stroke:#FFD9B2;stroke-width:0.5;stroke-linecap:round;stroke-linejoin:round;stroke-dasharray:4.0333505,4.0333505;}
	.st80{fill:#E68B4A;}
	.st81{opacity:0.62;fill:#64B48D;}
	.st82{fill:none;stroke:#FBC32E;stroke-width:0.25;stroke-miterlimit:10;}
	.st83{fill:none;stroke:#4456D6;stroke-linecap:round;stroke-linejoin:round;stroke-miterlimit:10;}
	.st84{fill:none;stroke:#E68B4A;stroke-width:0.5;stroke-linecap:round;stroke-linejoin:round;stroke-miterlimit:10;}
	.st85{fill:none;stroke:#203881;stroke-width:0.5;stroke-linecap:round;stroke-linejoin:round;stroke-miterlimit:10;}
	.st86{opacity:0.29;fill:#EAE8F3;}
	.st87{fill:none;stroke:#A6A3AE;stroke-width:0.5;stroke-linecap:round;stroke-linejoin:round;stroke-miterlimit:10;}
	.st88{opacity:0.74;fill:#FFFFFF;}
	.st89{opacity:0.19;fill:#FFFFFF;}
	.st90{fill:none;stroke:#40304A;stroke-width:0.25;stroke-linecap:round;stroke-linejoin:round;stroke-miterlimit:10;}
	.st91{fill:none;stroke:#F34B4B;stroke-width:2;stroke-linecap:round;stroke-linejoin:round;stroke-miterlimit:10;}
	.st92{fill:none;stroke:#43334E;stroke-width:0.5;stroke-linecap:round;stroke-linejoin:round;stroke-miterlimit:10;}
	.st93{fill:none;stroke:#6582FC;stroke-miterlimit:10;}
	.st94{opacity:0.47;fill:#A6A3AE;}
	.st95{opacity:0.43;fill:#FFFFFF;}
	.st96{fill:none;stroke:#FBE6BB;stroke-linecap:round;stroke-linejoin:round;stroke-miterlimit:10;}
	.st97{fill:none;stroke:#5B4B68;stroke-width:0.5;stroke-linecap:round;stroke-linejoin:round;stroke-miterlimit:10;}
	.st98{fill:none;stroke:#40304A;stroke-width:0.5;stroke-linecap:round;stroke-linejoin:round;stroke-miterlimit:10;}
	.st99{fill:none;stroke:#DDA103;stroke-linecap:round;stroke-linejoin:round;stroke-miterlimit:10;}
	.st100{fill:none;stroke:#FBC32E;stroke-linecap:round;stroke-linejoin:round;stroke-miterlimit:10;}
	.st101{fill:none;stroke:#32775B;stroke-width:0.5;stroke-linecap:round;stroke-linejoin:round;stroke-miterlimit:10;}
	.st102{opacity:0.4;fill:#FBE6BB;}
	.st103{fill:none;stroke:#FBC32E;stroke-width:0.25;stroke-linecap:round;stroke-linejoin:round;stroke-miterlimit:10;}
	.st104{fill:none;stroke:#4456D6;stroke-miterlimit:10;}
	.st105{opacity:0.61;fill:#64B48D;}
	.st106{opacity:0.9;fill:#64B48D;}
	.st107{opacity:0.76;fill:#64B48D;}
	.st108{fill:none;stroke:#5B4B68;stroke-width:0.5;stroke-miterlimit:10;}
	.st109{opacity:0.66;fill:#A6A3AE;}
	.st110{fill:none;stroke:#43334E;stroke-miterlimit:10;}
	.st111{opacity:0.52;fill:#6582FC;}
	.st112{fill:none;stroke:#DDA103;stroke-width:0.5;stroke-linecap:round;stroke-linejoin:round;stroke-miterlimit:10;}
	.st113{fill:#46724E;}
	.st114{fill:#FE8B2E;}
	.st115{fill:none;stroke:#7D4C47;stroke-width:2;stroke-linecap:round;stroke-linejoin:round;stroke-miterlimit:10;}
	.st116{opacity:0.4;fill:#EAE8F3;}
	.st117{fill:none;stroke:#EAE8F3;stroke-width:0.5;stroke-linecap:round;stroke-miterlimit:10;}
	.st118{fill:none;stroke:#4456D6;stroke-width:0.25;stroke-linecap:round;stroke-linejoin:round;stroke-miterlimit:10;}
	.st119{opacity:0.5;fill:#EAE8F3;}
	.st120{opacity:0.46;fill:#A6A3AE;}
	.st121{fill:#E0916E;}
	.st122{fill:none;stroke:#A0665A;stroke-linecap:round;stroke-linejoin:round;stroke-miterlimit:10;}
	.st123{opacity:0.46;fill:#BE412D;}
	.st124{fill:none;stroke:#203881;stroke-linecap:round;stroke-linejoin:round;stroke-miterlimit:10;}
	.st125{fill:#DBDBE1;}
	.st126{fill:none;stroke:#6582FC;stroke-width:0.5;stroke-linecap:round;stroke-linejoin:round;stroke-miterlimit:10;}
	.st127{opacity:0.53;fill:#A6A3AE;}
	.st128{fill:none;stroke:#DDA103;stroke-miterlimit:10;}
	.st129{opacity:0.2;fill:#FFFFFF;}
	.st130{fill:#B4A1BF;}
	.st131{opacity:0.5;fill:#6582FC;}
	.st132{opacity:0.6;fill:none;stroke:#FFFFFF;stroke-linecap:round;stroke-linejoin:round;stroke-miterlimit:10;}
	.st133{opacity:0.6;fill:none;stroke:#FFFFFF;stroke-width:2;stroke-linecap:round;stroke-linejoin:round;stroke-miterlimit:10;}
	.st134{opacity:0.54;fill:#A6A3AE;}
	.st135{fill:#161718;stroke:#000000;stroke-width:0.25;stroke-miterlimit:10;}
</style>
<g id="_x33_5">
	<polygon class="st0" points="44.9529228,131.0409241 44.7063675,134.3810883 44.6614876,135.0237122 39.7371368,135.7784271 
		39.9613419,133.5740662 39.9688225,133.5591125 40.2602577,130.6822662 40.6189156,130.7121429 	"/>
	<path class="st1" d="M44.9529228,131.0409241l-0.2465553,3.3401642c-2.1147385-0.3587036-4.7450256-0.8070221-4.7450256-0.8070221
		l0.0074806-0.0149536l0.6500931-2.8469696L44.9529228,131.0409241z"/>
	<polygon class="st0" points="62.363472,136.2940216 58.3135109,137.8930664 58.044426,134.7098389 57.7306442,131.0633698 
		61.9450684,130.6822662 62.1393547,133.2602386 	"/>
	<polygon class="st1" points="62.1393547,133.2602386 58.044426,134.7098389 57.7306442,131.0633698 61.9450684,130.6822662 	"/>
	<path class="st2" d="M108.7348557,75.2770309c0.8126526,1.1779633,1.6363907,2.3781128,2.0718842,3.7413177
		c0.4355011,1.3632126,0.4335327,2.9384232-0.3445358,4.1395111c-0.5007477,0.7729874-1.2831345,1.34021-1.7370377,2.1416092
		c-0.6099701,1.0769501-0.5027161,2.5172195,0.2600403,3.4919434c0.5290756,0.6761093,1.3056641,1.1044388,2.0632706,1.508255
		c0.7576065,0.4038239,1.5389328,0.817749,2.0895462,1.4764252c0.5506134,0.6586838,0.8180695,1.6331406,0.4137039,2.3904572
		c-0.6771698,1.2682343-2.5534973,1.112999-3.766922,1.8840942c-0.9680252,0.6151581-1.4458084,1.8638306-1.2552414,2.9948425
		c0.1905594,1.131012,0.9869614,2.1137161,1.9988861,2.6536331c0.5608597,0.2992477,1.2087708,0.492897,1.6207123,0.9770584
		c0.5099792,0.5993881,0.509407,1.507225,0.2054443,2.2331314c-0.3039627,0.725914-0.859993,1.3119125-1.4042816,1.8803177"/>
	<path class="st2" d="M93.8142471,32.2123222c0.5994034,0.7858887,1.0566559,1.6804047,0.8414536,2.6821404
		c-0.1776276,0.8268661-1.1643524,1.083477-0.9562531,2.0695915c0.1834335,0.8692398,3.5169067,2.2244911,1.3298798,3.0081902"/>
	<path class="st2" d="M72.2099228,45.0475464c1.2269516,1.7340927,2.5287552,3.9090347,1.464859,6.0378265
		c-0.8071442,1.6150513-2.9884262,3.0550575-0.9948044,4.9303131"/>
	<path class="st0" d="M50.6439285,49.9488144v7.5193634c0,0.4041557,0.0860481,0.8082695,0.2584686,1.1726379
		c0.1258354,0.2517509,0.2849884,0.4836121,0.4771423,0.6890259c0.0329933,0.0397491,0.152359,0.1192436,0.3111916,0.2252274
		v7.9632645h4.524929v-6.4196281c0.046257-0.0265274,0.106102-0.0463791,0.1656265-0.0662766
		c0.5631866-0.245121,1.0467987-0.6757202,1.3515244-1.2455025c0.5366631-0.9738541,0.8148613-2.0603638,0.8148613-3.166729
		v-3.9352531c0,0,0.1458931-1.8616219-1.7490883-2.7361298H50.6439285z"/>
	<path class="st1" d="M50.6411667,53.6018791v3.4993782c0.249588-0.1215134,0.4157715-0.3839111,0.4157715-0.6781654v-2.1494522
		C51.0569382,53.9793816,50.8907547,53.7233925,50.6411667,53.6018791z"/>
	<path class="st3" d="M58.5484657,54.1521263c0.5109596-0.6350021,0.9387856-1.3731041,1.2422676-2.1277313
		c0.3894882-0.9684944,0.806015-2.8417892-0.4575272-3.3347206c-0.4727058-0.1844101-0.99897-0.1461372-1.5047073-0.1050835
		c0.3012428-0.4359169,0.579113-1.0107117,0.3137474-1.4693565c-0.2220268-0.3837395-0.7276268-0.4922752-1.1707916-0.479641
		c-1.4946404,0.042614-2.8032303,0.9904022-4.2536354,1.3538399c-0.632061,0.1583824-1.2921562,0.2042122-1.9400444,0.1347046
		c-0.6002884-0.0644035-1.2582779-0.2149086-1.7698936,0.1056252c-0.3814354,0.2389755-0.5764542,0.6838455-0.7139702,1.1124382
		c-0.5748825,1.7916756-0.4997902,3.7784309,0.1803703,5.5304642c0.4469261,1.1512299,1.3873787,1.9905548,2.1989059,2.9067574
		c0,0,0.1466789-3.3675919,0.1471252-3.3778419c-0.0001907,0.0043983,0.5075073-0.1689262,0.5390015-0.1844559
		c0.377758-0.1862907,0.6653633-0.4570198,0.8684616-0.8222656c0.4094315-0.7363014,0.3872604-1.691433-0.1998291-2.3352203
		c0.6249619,0.5369606,1.4208488,0.8718681,2.2416992,0.9433098c0.4478188,0.0389748,0.9900627-0.0568314,1.1696205-0.4689217
		c0.1089058-0.2499466,0.039711-0.553009-0.1260262-0.7694969s-0.4142456-0.3562317-0.671566-0.4463501
		c0.599987,0.239994,1.2215271,0.4365044,1.8301125,0.6539764c0.5572739,0.1991348,1.1173363,0.4845848,1.6830139,0.6302414
		c0.2071953,0.3812866,0.2400093,0.7560158,0.279686,1.1761818C58.4556694,53.0028763,58.7093544,53.9912376,58.5484657,54.1521263z
		"/>
	<path class="st1" d="M56.211071,62.01791v-0.9236336c-0.0165253,0.2233162-2.4474182-0.601284-2.7371063-0.8136139
		c-0.1562881-0.0402069-0.2398682,0.1770439-0.0969353,0.2519569C54.1243629,61.2749252,55.0600395,61.7812958,56.211071,62.01791z"
		/>
	<path class="st0" d="M51.0576935,54.0277748v2.1484032c0,0.4224281-0.3421021,0.7645302-0.7645226,0.7645302
		s-0.7645226-0.3421021-0.7645226-0.7645302v-2.1484032c0-0.2112122,0.0856743-0.4015961,0.2237053-0.5402107
		c0.1386223-0.1380348,0.3296051-0.2237053,0.5408173-0.2237053C50.7155914,53.2638588,51.0576935,53.605957,51.0576935,54.0277748z
		"/>
	<path class="st4" d="M55.8552132,55.8280792l0.4826622,0.5980797c0.1261482,0.1563187,0.0999222,0.3856392-0.0582657,0.5094376
		l-0.4243965,0.3321381"/>
	<path class="st5" d="M55.4482155,59.5424309c-0.047718-0.0059624-0.0954361-0.0119286-0.1489754-0.0237122
		c-0.4409599-0.1014023-0.7269821-0.4649658-0.9117432-0.8582077c-0.071579-0.143013-0.1251183-0.2919884-0.1668701-0.4290314
		c0-0.0059662-0.0059662-0.0119324-0.0059662-0.0178947c0-0.0059662-0.0059662-0.0119286-0.0059662-0.0178947
		c-0.0417519-0.1251183-0.0714302-0.2502327-0.0952911-0.3753471c-0.0059624-0.0357895-0.0119286-0.0656128-0.0178947-0.1012573
		c-0.0059624-0.0298233-0.0178947-0.0656128-0.0119286-0.1014023c0-0.0119286,0.0059662-0.0238609,0.0178947-0.0298233
		c0.0059662-0.0119324,0.0177498-0.0119324,0.0238571-0.0177498c0.0356445-0.0119286,0.071434,0.0058174,0.1072235,0.0119286
		c0.0238609,0.0058212,0.0536842,0.0177498,0.0773964,0.023716c0.0656128,0.0178947,0.1310806,0.0357857,0.1966934,0.0536804
		c0.0775452,0.0238609,0.1549416,0.0477219,0.232338,0.0654678c0.0894737,0.0238609,0.1728363,0.0477219,0.2563438,0.071579
		c0.089325,0.0298233,0.1728325,0.0536842,0.2621613,0.0773964c0.0835075,0.0238609,0.1668701,0.047718,0.2502327,0.071579
		c0.0775414,0.0238609,0.1549377,0.0417557,0.2324829,0.0654678c0.0654678,0.0180397,0.1310806,0.0357895,0.1966934,0.0536842
		c0.0535355,0.0178947,0.1012573,0.0298233,0.1489754,0.0417519c0.0296783,0.0119324,0.0535355,0.0178947,0.0833626,0.0238609
		c0,0,0,0,0.0059624,0c0.0178947,0.0059662,0.1072235,0.0296783,0.1905861,0.0595016
		c0.0894699,0.0238609,0.1728325,0.047718,0.1728325,0.047718C56.6518021,58.46978,56.3838234,59.6378708,55.4482155,59.5424309z"/>
	<path class="st6" d="M56.3657837,58.189724l-0.0952911,0.327774c-0.0417557,0.1489754-0.2026596,0.2383041-0.351635,0.1966972
		l-1.6982307-0.4827156c0-0.0059662-0.0059662-0.0119324-0.0059662-0.0178947c0-0.0059662-0.0059662-0.0119286-0.0059662-0.0178947
		c-0.0417519-0.1251183-0.0714302-0.2502327-0.0952911-0.3753471c-0.0059624-0.0357895-0.0119286-0.0656128-0.0178947-0.1012573
		c-0.0059624-0.0298233-0.0178947-0.0656128-0.0119286-0.1014023c0-0.0119286,0.0059662-0.0238609,0.0178947-0.0298233
		c0.0059662-0.0119324,0.0177498-0.0119324,0.0238571-0.0177498c0.0356445-0.0119286,0.071434,0.0058174,0.1072235,0.0119286
		c0.0238609,0.0058212,0.0536842,0.0177498,0.0773964,0.023716c0.0656128,0.0178947,0.1310806,0.0357857,0.1966934,0.0536804
		c0.0775452,0.0238609,0.1549416,0.0477219,0.232338,0.0654678c0.0894737,0.0238609,0.1728363,0.0477219,0.2563438,0.071579
		c0.089325,0.0298233,0.1728325,0.0536842,0.2621613,0.0773964c0.0835075,0.0238609,0.1668701,0.047718,0.2502327,0.071579
		c0.0775414,0.0238609,0.1549377,0.0417557,0.2324829,0.0654678c0.0654678,0.0180397,0.1310806,0.0357895,0.1966934,0.0536842
		c0.0535355,0.0178947,0.1012573,0.0298233,0.1489754,0.0417519c0.0296783,0.0119324,0.0535355,0.0178947,0.0833626,0.0238609
		c0,0,0,0,0.0059624,0C56.1930923,58.1361885,56.2824211,58.1599007,56.3657837,58.189724z"/>
	<path class="st3" d="M54.3863487,58.6634789c0.1865311,0.3878441,0.4745789,0.7511215,0.9147644,0.8541946
		c0.0507355,0.011467,0.1014366,0.0212975,0.1488953,0.0245705c0.0670815-0.2945595-0.086731-0.6283913-0.3943558-0.8067551
		C54.8363609,58.6094856,54.5892601,58.5898476,54.3863487,58.6634789z"/>
	<path class="st1" d="M50.0117226,54.068779v0.6141281l0.5629005,0.262394V54.068779
		c0-0.1535339-0.1279182-0.2814484-0.2814522-0.2814484C50.1396408,53.7873306,50.0117226,53.9152451,50.0117226,54.068779z"/>
	<path class="st1" d="M50.5746231,55.5466232l-0.5629005-0.2302208v0.5757065c0,0.1535339,0.1279182,0.2814522,0.2814484,0.2814522
		c0.1535339,0,0.2814522-0.1279182,0.2814522-0.2814522V55.5466232z"/>
	<path class="st0" d="M80.7191086,64.8532562L80.554924,65.480957c-0.0448761,0.1568909-0.1196747,0.2988663-0.2240219,0.4184494
		l-1.2631531,1.5916214c-0.0073013,0-1.2700806,1.5916138-1.9425201,2.435997
		c-0.2466507,0.3063431-0.4112015,0.5155945-0.4112015,0.5155945l-1.3525391,3.4447479l-3.2950668,0.8892136l-1.0088425-2.779747
		l0.5527649-1.5766525l0.710022-2.0100708c-0.0372162-0.4334106,0.0521774-0.7845917,0.201767-1.1955566
		c0.1419296-0.3811035,0.306488-0.7696762,0.6275635-1.0162811c0.0226212-0.0223923,0.052536-0.0373535,0.0747986-0.0597458
		c0.4407501-0.2914276,1.046051-0.3138733,1.5393448-0.4632797c0.4783325-0.1494598,1.0610199-0.1494598,1.5616074-0.2167282
		c1.0759811-0.1494141,2.1446609-0.2988663,3.2206345-0.4483261C79.9346619,64.9578857,80.3309021,64.905571,80.7191086,64.8532562z
		"/>
	<path class="st1" d="M77.1252289,69.9270248c-0.2466507,0.3063431-0.4112015,0.5155945-0.4112015,0.5155945l-1.3525391,3.4447479
		l-3.2950668,0.8892136l-1.0088425-2.779747l0.5527649-1.5766525L77.1252289,69.9270248z"/>
	<path class="st5" d="M68.201828,141.0156555h-9.4991989c-0.4694824,0-0.850071-0.3805847-0.850071-0.8500671v-0.6939392
		l11.199337-0.57341v1.2673492C69.0518951,140.6350708,68.6713028,141.0156555,68.201828,141.0156555z"/>
	<path class="st5" d="M39.0210953,137.2438507v0.2414856c-0.3376808,0.3423767-0.66259,0.7055511-1.0156822,1.0315094
		c-0.3503571,0.3234558-0.9392471,0.2221985-1.2529335,0.5992889c-0.1237793,0.1487274-0.1692047,0.346344-0.1973,0.5377197
		c-0.0797234,0.5426788-0.1156616,1.2276611,0.1968422,1.7069092C37.0097961,141.7561798,37.4589424,142,37.9310722,142
		c0.0013695,0,4.3712234,0,4.3712234,0c0.4396553,0,0.8396378-0.2542572,1.0261726-0.6523285l0.2072411-0.4421234
		l0.2882385-0.0480652c0.3256416-0.0542297,0.591259-0.2903442,0.6832047-0.6072693l0.1572571-0.5417328v-2.4646301H39.0210953z"/>
	<path class="st7" d="M76.1835175,72.5124283l-1.8604279,5.6565857l-1.2631531,3.818367l-0.2612381,0.7846375
		c-0.2543106,0.7920685-0.8519516,1.404808-1.5915222,1.7036743c-0.179512,0.0672684-0.3736191,0.1270142-0.5680923,0.1569366
		c-1.8009567,0.3213043-3.5716324-1.5467834-4.871994-2.5630188c-1.434639-1.1208496-2.7200432-2.4136047-4.0277061-3.6689529
		c-0.2616081-0.2540359-0.5305099-0.5006332-0.7994118-0.7472382c-0.0372162-0.0373535-0.0671349-0.074707-0.1047173-0.1046219
		c-1.6586609-1.5318298-3.2877655-3.5269318-4.1769333-5.6266632c-0.179512-0.4259338-0.3214417-0.85186-0.4035378-1.2628326
		c-0.3214417-1.5467834,0.1196747-2.9665527,1.8903503-3.9827805l0.5232086-0.2914352l0.2838631-0.1643753
		c0.5232124-0.298912,1.0909348-0.4632797,1.6590271-0.4931488c0.3287392-0.0224457,0.6501808,0,0.9712601,0.0672226
		c0.1568909,0.0298691,0.3064842,0.0672684,0.4557114,0.1195831h0.0076637
		c0.0521736,0.0223923,0.112011,0.0373535,0.1645508,0.0597458c0.0970535,0.0373535,0.2014046,0.0822296,0.2911606,0.1270599
		c0.0970535,0.044838,0.1944695,0.0896683,0.2838593,0.1494141c0.0974197,0.0523148,0.179512,0.1046219,0.269268,0.1644135
		c0.0521774,0.0373535,0.104351,0.0821838,0.1568909,0.1195374c0.3809166,0.2914352,0.7023582,0.6650543,0.9563026,1.098465
		l2.6678696,4.6702271l2.301178,4.0798798l1.7637405-4.7001038l0.2539444-0.6650467l0.1944733-0.5155945l0.5677261,0.2391205
		L76.1835175,72.5124283z"/>
	<path class="st8" d="M73.0599365,81.987381l-0.2612381,0.7846375c-0.2543106,0.7920685-0.8519516,1.404808-1.5915222,1.7036743
		c-0.179512,0.0672684-0.3736191,0.1270142-0.5680923,0.1569366c-1.8009567,0.3213043-3.5716324-1.5467834-4.871994-2.5630188
		c-1.434639-1.1208496-2.7200432-2.4136047-4.0277061-3.6689529c-0.2616081-0.2540359-0.5305099-0.5006332-0.7994118-0.7472382
		l0.4972878-0.4596939c0.5780602-0.5343552,1.4767723-0.5102921,2.0253983,0.054245l6.1526222,6.3310318
		C70.1173325,84.2935333,71.7442474,83.5648117,73.0599365,81.987381z"/>
	<path class="st9" d="M74.7377472,72.6369553l-3.3326416,8.4437637c-0.4558945,1.1432495-1.9951553,1.337532-2.7125626,0.3362656
		l-3.5119781-4.8944321c-0.829422-1.0535889-2.1445618-1.584137-3.4372673-1.4272079
		c-0.2615128,0.0298767-0.5231171,0.0821915-0.7845421,0.1718521l-0.2616043-7.5022354l1.0611076-1.2628326l0.2540359-0.298912
		l0.1568909-0.1868057l0.0373955-0.044838c0.3586617,0.1344986,0.6948814,0.321312,1.0013618,0.5604324
		c0.3810081,0.2914352,0.7023582,0.6650467,0.9563942,1.0984573l2.6675949,4.6702271l2.3015442,4.0798798l1.7634659-4.7000961
		l0.2540359-0.6650543l0.1942902-0.5155945l0.5679092,0.2391205L74.7377472,72.6369553z"/>
	<path class="st10" d="M39.8777313,134.4172058l-0.8566093,2.2169647l-2.0914764,2.1201172
		c-0.2596703,0.2632294-0.4052544,0.6181183-0.4052544,0.9878693l0,0c0,0.7768707,0.629776,1.4066467,1.4066467,1.4066467h4.3712616
		c0.4396362,0,0.8396149-0.2542419,1.0262108-0.6523285l0.2072487-0.4421234l0.2882462-0.0480499
		c0.3255348-0.054245,0.5911255-0.2903595,0.6831398-0.6072998l0.1572762-0.5417175l-0.0000114-4.0960541
		C42.871479,135.5271912,41.8346672,135.2500763,39.8777313,134.4172058z"/>
	<path class="st10" d="M67.9875183,137.7589874c0.6381989,0.0510559,1.1134872,0.6108704,1.060318,1.2489014
		c-0.0499573,0.5994263-0.5510483,1.0605011-1.1525497,1.0605011h-9.4914017c-0.3089066,0-0.5593452-0.2503204-0.5595436-0.5591888
		c-0.000061-0.1009979,0.0214844-0.225647-0.0000076-0.323822c-0.0423126-0.1932831-0.2100449-0.3677368-0.291832-0.5491028
		c-0.2181969-0.4838257-0.2538452-1.038147-0.1739311-1.5579987c0.1045609-0.6802063,0.3911133-1.3170319,0.6756058-1.9436798
		c0.3674889,0.6200562,1.0305099,1.0558167,1.7454758,1.147171c0.5541801,0.0708008,1.1331825-0.0666962,1.6027222-0.3682098
		c0.3203239-0.2057037,0.3523788-0.743927,0.727253-0.8661804c0.0857086-0.0279541,0.1786003-0.0248871,0.2677383-0.0113983
		c0.3163338,0.0478973,0.5988693,0.2197113,0.8642502,0.398407c0.6898079,0.4644928,1.3294334,0.9983673,2.0145531,1.4694366
		c0.3101425,0.2132416,0.6470108,0.4600677,0.9912949,0.6106415
		C66.7851639,137.74086,67.4321899,137.7145538,67.9875183,137.7589874z"/>
	<path class="st7" d="M62.0122948,66.2032166c-0.1269722,0-0.2465553,0.022438-0.2540359,0.1195831c0,0,0,0.0597916,0,0.1793289
		c0,0.6277008-0.0074806,2.7797012-0.0074806,5.5146103c0,0.8742523,0,1.8008194-0.0074806,2.7573013v0.3213043
		c0,1.0835037,0,2.1968765-0.0074768,3.3027725c0,2.002594,0,3.9603424-0.0074806,5.6192322
		c-0.0074806,1.0835037-0.0074806,2.0324631-0.0074806,2.7797012c-0.0073891,1.0909805-0.0073891,1.7485504-0.0073891,1.7560272
		c-4.7225838,2.211792-9.6170158,2.3762054-14.6833,0.5305099c-0.4333649-0.1568909-0.8742104-0.3362198-1.3151436-0.5305099
		l-1.0909348-9.7888184l-0.4408455-3.9453888l-0.7174072-6.3664627l-0.1793327-1.6738052l0.4558945-0.1868057l0.6351357-0.2615128
		l7.0464783-2.8395386l0.2689018-0.1045761c0.0747948,2.6601563,4.3938446,2.7348633,4.5133362,0.0672264
		c0.0074806-0.0896683,1.1507721,0.4184494,2.4434776,1.0087929v0.0074387
		c0.9864006,0.4633255,2.2267494,0.9340439,2.9964256,1.262825c0.1494102,0.067276,0.2839508,0.1270676,0.3885765,0.1793747
		h0.0074806c0.0672226,0.0298767,0.1045303,0.0672302,0.1269722,0.1045837
		c0.0673141,0.0747528,0.0448761,0.1494522,0.0673141,0.1569366c0.0149612,0.0074768,0.0299187,0.0149536,0.0299187,0.0149536
		C62.3112068,66.2256546,62.161705,66.1957855,62.0122948,66.2032166z"/>
	<path class="st9" d="M63.207943,66.5320053c-0.5604248,1.1133728-1.4571648,3.2505035-1.4571648,5.4847336
		c0,0.8742523,0,1.8008194-0.0074806,2.7573013v0.3213043c0,1.0835037,0,2.1968765-0.0074768,3.3027725
		c0,2.002594,0,3.9603424-0.0074806,5.6192322c-0.0074806,1.0835037-0.0074806,2.0324631-0.0074806,2.7797012l-13.1214218,0.7323227
		l-0.089756-9.8037415l7.7414474-7.0688705l5.3278008-4.8645172l0.0672264-0.0597916
		c0.1494102,0.067276,0.2839508,0.1270676,0.3885765,0.1793747h0.0074806
		c0.0522652,0.0223999,0.112011,0.0373535,0.1643677,0.0597458c0.0971451,0.0373993,0.2017708,0.0822372,0.2914352,0.1270676
		c0.0971451,0.0448303,0.1942863,0.0896606,0.2839508,0.1494064c0.0971451,0.0523148,0.1793327,0.1046295,0.2689972,0.1644211
		C63.1032295,66.4498215,63.1555862,66.4946518,63.207943,66.5320053z"/>
	<path class="st8" d="M46.3898354,80.708931l0.6459732,8.3728256c-0.4382172-0.1600876-0.8777084-0.3355026-1.3184738-0.5262375
		l-1.5340729-13.7390366l2.2650681-0.7641602l1.4986954-1.59552c0.2841911-0.3025513,0.7762375,0.0136261,0.6191368,0.3978424
		L46.3898354,80.708931z"/>
	<path class="st11" d="M64.0372772,133.1380615l-4.8719978,0.3063507l-2.0249825,0.1270599l-4.7524109-28.7910385
		l-0.2839546,1.1059418l-1.0984154,4.4385834L45.3041,133.5714722h-7.0689163l4.3938446-37.2571869
		c0.3137817-2.4957962,1.1955605-4.8869553,2.5854073-6.9866867l0.5005913-0.7771149h15.9984436l0.0447884,0.7696304
		l0.0373077,0.7248459l0.1495018,2.7049866L64.0372772,133.1380615z"/>
	<path class="st12" d="M51.6780472,88.5504837l-5.5594826,1.1208572l-7.2930336,43.9001312h-0.5903473l4.3938446-37.2571869
		c0.3137817-2.4957962,1.1955605-4.8869553,2.5854073-6.9866867l0.5005913-0.7771149H51.6780472z"/>
	<polygon class="st13" points="61.9445953,92.7513504 55.794857,100.7243958 53.9940834,97.6906204 52.1035538,105.8877792 
		44.1828651,116.1324005 47.4108849,90.0463562 61.7577858,89.3215637 61.7951851,90.0463562 	"/>
	<g>
		<path class="st14" d="M34.8398705,87.9549713c-0.420002-3.7839355,1.1203041-7.3325958,3.8079224-9.6405106
			c0.2242241-0.1900177,0.4588165-0.3717117,0.6984749-0.5492706c1.0781898-0.7848511,2.3095245-1.379097,3.6520042-1.7356796
			c-0.0450745-0.0657654-0.0787506-0.1139145-0.0787506-0.1139145l1.5616684-0.1686172l0.3215141-0.0356903
			c0.0461273-0.0098419,0.0978432-0.0108566,0.1450081-0.0113678c1.8603668-0.1546097,3.6602173,0.1645203,5.2749672,0.8580322
			c0.2724724,0.1159973,0.5364189,0.2423553,0.7973709,0.3832397c1.1374893,0.6002121,2.1647682,1.3966522,3.0292778,2.3432541
			c0.1287918,0.1413651,0.2484818,0.2837601,0.3686905,0.4308243c0.6215935,0.7565536,1.1440048,1.5948639,1.5473099,2.5077515
			c0.0682678,0.1481018,0.1319771,0.2966843,0.186882,0.4509964c0.326622,0.8176041,0.5552788,1.6885452,0.6758347,2.6044846
			c0.012825,0.0740433,0.0216217,0.1532822,0.0304108,0.2324982c0.0087929,0.0792084,0.0170708,0.1537857,0.0213127,0.2335052
			c0.0827217,0.9154434,0.0551682,1.8147964-0.0842133,2.6841202c-0.0242805,0.1631012-0.049305,0.3215637-0.0834351,0.4810028
			c-0.1933022,0.9791107-0.5189362,1.9115448-0.9597244,2.786026c-0.0848045,0.1698151-0.174614,0.3401871-0.2697868,0.5016861
			c-0.6353722,1.1178055-1.4587364,2.1149368-2.4323616,2.9495087c-0.2237091,0.1946487-0.4583015,0.3763428-0.6984749,0.5492706
			c-1.5011253,1.0959396-3.3026505,1.8242493-5.2831573,2.044075c-0.0650749,0.007225-0.1303787,0.014473-0.1962013,0.0170593
			c0.0005188,0.0046616,0.0005188,0.0046616,0.0005188,0.0046616l-1.2441902,0.1380997l-0.0486946-0.0983582
			c-1.4472008-0.0327988-2.8358879-0.3456802-4.1094627-0.8977737c-0.2722473-0.1160431-0.5364227-0.2423782-0.7973747-0.3832321
			C37.5413857,94.8680573,35.2598686,91.7389069,34.8398705,87.9549713z"/>
		<g>
			<g>
				<path class="st15" d="M40.6732101,96.5206528l12.377037-1.3738022
					c-0.2237091,0.1946487-0.4583015,0.3763428-0.6984749,0.5492706l-10.8811874,1.2077637
					C41.1983376,96.7878418,40.9341621,96.6615067,40.6732101,96.5206528z"/>
			</g>
			<g>
				<path class="st15" d="M39.5966759,93.9606171l-0.0517235-0.4660034l16.2074432-1.7989578
					c-0.0848045,0.1698151-0.174614,0.3401871-0.2697868,0.5016861L39.5966759,93.9606171z"/>
			</g>
			<g>
				<path class="st15" d="M39.2511597,90.8477249l-0.0517235-0.4660034l17.5961189-1.9530945
					c-0.0242805,0.1631012-0.049305,0.3215637-0.0834351,0.4810028L39.2511597,90.8477249z"/>
			</g>
			<g>
				<path class="st15" d="M38.9061584,87.739502l-0.0517235-0.4660034l17.9736099-1.9949951
					c0.012825,0.0740433,0.0216217,0.1532822,0.0304108,0.2324982c0.0087929,0.0792084,0.0170708,0.1537857,0.0213127,0.2335052
					L38.9061584,87.739502z"/>
			</g>
			<g>
				<path class="st15" d="M38.5606422,84.6266098l-0.0517273-0.4659958l17.4564133-1.9375916
					c0.0682678,0.1481018,0.1319771,0.2966843,0.186882,0.4509964L38.5606422,84.6266098z"/>
			</g>
			<g>
				<path class="st15" d="M38.2151222,81.5137253l-0.0517235-0.4660034l15.8859291-1.7632751
					c0.1287918,0.1413651,0.2484818,0.2837601,0.3686905,0.4308243L38.2151222,81.5137253z"/>
			</g>
			<g>
				<path class="st15" d="M38.6477928,78.3144608c0.2242241-0.1900177,0.4588165-0.3717117,0.6984749-0.5492706
					l10.8764114-1.2072372c0.2724724,0.1159973,0.5364189,0.2423553,0.7973709,0.3832397L38.6477928,78.3144608z"/>
			</g>
		</g>
		<path class="st15" d="M44.4829788,75.7445984c0.0461273-0.0098419,0.0973244-0.0155258,0.1439705-0.0206985
			c0.060524-0.0067215,0.1165009-0.0129318,0.1775436-0.0149841L44.4829788,75.7445984z"/>
		<circle class="st15" cx="44.0634995" cy="86.9291306" r="11.0755196"/>
		<circle class="st16" cx="44.0634995" cy="86.9291306" r="9.4934912"/>
		<path class="st15" d="M44.804493,75.7089157l0.1444855-0.0160446l0.0005188,0.0046692
			C44.9023323,75.6980515,44.8506203,75.6990738,44.804493,75.7089157z"/>
		<path class="st14" d="M47.7538185,88.9860687c0.1562004,1.4072723-0.6767731,2.8300171-2.4788055,3.3413315l0.2058601,1.8546524
			l-1.118084,0.1240997l-0.1996498-1.7987366c-1.0364151,0.0962067-2.1447449-0.1110153-2.8177032-0.4797058l0.1400604-0.6099243
			c-0.2155724-0.0703888-0.4402542-0.1398315-0.4402542-0.1398315l-0.0007095-0.4338684l0.5961304-0.0661697
			c0.6910324,0.3572464,1.6517143,0.5996857,2.6487465,0.4890213c1.2677994-0.1407242,2.0434113-0.9721146,1.9306564-1.9879761
			c-0.1086159-0.9785461-0.8748245-1.5067062-2.2479973-1.8920593c-1.8971634-0.515892-3.1158333-1.2108612-3.2875443-2.7578964
			c-0.1644783-1.481842,0.7648506-2.7171402,2.3748856-3.169426l-0.199646-1.7986755l1.1089821-0.1230927l0.1913681,1.7241058
			c1.0667076-0.0806274,1.8350601,0.1265564,2.3805542,0.3678589l-0.3169861,1.2239304l-0.5870247,0.0651627l-0.0805473-0.3023605
			c-0.418499-0.1139755-0.965065-0.1947861-1.6453781-0.119278c-1.3701859,0.1520844-1.7915535,1.0290909-1.7119026,1.746666
			c0.1024055,0.9226303,0.8062286,1.3162308,2.4339104,1.7865448
			C46.5516663,86.5722504,47.5779686,87.4017792,47.7538185,88.9860687z"/>
		<path class="st17" d="M43.76371,94.3709564l-0.1998062-1.8001251c-1.0357132,0.0969162-2.1407051-0.1052017-2.8139687-0.4815369
			l0.295208-1.2416229c0.689106,0.3565369,1.653492,0.5923004,2.6515846,0.4815216
			c1.2654343-0.1404648,2.0398293-0.9661636,1.9270668-1.9820786c-0.1088028-0.9802628-0.8711662-1.5090942-2.2494164-1.8973923
			c-1.8970833-0.5111389-3.1109352-1.2063675-3.2830467-2.7569733c-0.164196-1.4793091,0.7627296-2.7188797,2.372776-3.1682281
			l-0.1998062-1.8001251l1.1050262-0.1226578l0.1918945,1.7288361c1.0733414-0.083046,1.8357353,0.1210098,2.3862343,0.3666306
			l-0.3150063,1.2257767c-0.3980255-0.1723328-1.1722908-0.4833298-2.3129654-0.35672
			c-1.3723755,0.1523285-1.7982407,1.0295563-1.7191086,1.742485c0.1028671,0.926796,0.813755,1.3169937,2.4355774,1.7865143
			c1.9188614,0.5448074,2.9485321,1.3687363,3.1245995,2.9549866c0.1562843,1.40802-0.6775894,2.8357239-2.4797325,3.3424835
			l0.2057419,1.8535919L43.76371,94.3709564z"/>
	</g>
	<path class="st0" d="M37.994381,87.5251923l2.7427597,4.4851379l0.728653,2.6897507l0.3645706,1.3448944l0.1720924,1.0533524
		c0.0464211,0.2716522,0.2584648,0.4770203,0.5300331,0.5101395l0.6293449,0.0794983L43.307724,98.05233
		c0.0396271,0.1192474,0.1258392,0.2186356,0.2251472,0.2915039c0.1193657,0.0794983,0.2717285,0.1192474,0.4240913,0.1060181
		c0.3113556-0.0397415,0.5431328-0.2981262,0.5497665-0.6028976l0.0132599-0.2914963l0.1324692,0.7353668
		c0.0663147,0.3246536,0.3710403,0.549881,0.7022896,0.5035019l0.2186775-0.0331116
		c0.2848282-0.0397491,0.5101357-0.2650223,0.5366631-0.5565186l0.0132637-0.1324692l0.1258354,0.5697403
		c0.0661545,0.3179855,0.3775101,0.5299911,0.7022896,0.4836121l0.2450409-0.0397491
		c0.3445129-0.053009,0.5762901-0.3776321,0.5233994-0.7155151L47.29599,95.6209641l-0.0333214-0.205368
		c-0.052887-0.3179932-0.1588287-0.6293869-0.3111916-0.9142532c-0.0663147-0.1325073-0.1458931-0.2517548-0.2319412-0.3710022
		l-1.8152428-2.3783951l-1.1064873-2.1597519l-0.8015976-1.5701218L37.994381,87.5251923z"/>
	<polygon class="st1" points="37.994381,87.5251923 40.7371407,92.0103302 41.4657936,94.7000809 41.2738037,91.3147125 
		43.7978058,89.5921936 42.9962082,88.0220718 	"/>
	<path class="st7" d="M48.5093002,70.30439c0,0.5828629-0.1419296,1.1806488-0.4258842,1.7410736l-2.4509544,4.7748032
		l-1.0087509,1.9428406l-2.1072578,4.0799255l0.0373993,0.1419373l1.4645538,5.1036301l0.1345406,0.4632874l0.074707,0.276474
		l0.1420212,0.478241l-5.4846878,2.6975098l-3.4971085-9.1461639c-0.4258842-1.1208496-0.3661385-2.3687286,0.1718521-3.4372711
		c1.1805992-2.3463287,3.265419-6.0974731,3.265419-6.0974731l2.4509544-4.7748032
		c0.5005913-0.9639664,1.3525429-1.6364517,2.3164177-1.9204025c0.0522652-0.0074768,0.1046219-0.022438,0.1495018-0.0373535
		c0.8667259-0.224205,1.8232117-0.1419754,2.6899414,0.3063507c0.0299187,0.0149536,0.0673141,0.0298691,0.089756,0.0523071
		C47.7919846,67.6442261,48.5093002,68.9518967,48.5093002,70.30439z"/>
	<path class="st9" d="M44.0184059,88.0886002c-2.3537216,1.3151474-4.5431633,2.5630188-4.5431633,2.5630188l-1.2927055-3.8034058
		l4.371315-3.8632431L44.0184059,88.0886002z"/>
	<line class="st18" x1="42.5167656" y1="82.8426743" x2="40.3886986" y2="82.245018"/>
	<line class="st19" x1="69.1304703" y1="76.3775101" x2="68.7205887" y2="77.9519272"/>
	<line class="st4" x1="46.1215286" y1="98.0747299" x2="45.7976761" y2="95.5463257"/>
	<line class="st4" x1="44.5432587" y1="97.690712" x2="44.5432587" y2="95.9249878"/>
	<line class="st4" x1="43.163105" y1="97.6865845" x2="43.0141373" y2="96.5899506"/>
	<path class="st14" d="M102.0123672,78.3470383c-0.1333466,0.0949173-0.1867371,0.2744904-0.1665726,0.4369278
		c0.0201721,0.1624298,0.1026917,0.310463,0.1964188,0.4446564c0.3926086,0.562088,1.0045242,0.9496078,1.6611633,1.1468811
		c0.6566315,0.1972656,1.3568649,0.2147598,2.0381317,0.1375351c0.6929321-0.0785522,1.3817825-0.2564926,1.991745-0.5945282
		c0.6099701-0.3380356,1.1383591-0.8441849,1.4350662-1.4752884c0.4415207-0.9391251,0.332634-2.0506668,0.0221786-3.0408783"/>
	<path class="st15" d="M105.1575089,74.3491898c-0.1563797,0.1905899-3.2808456,4.1313705-3.2808456,4.1313705
		s2.1125183-1.4554596,5.8636703,0.3735809c3.751152,1.8290482,4.2980728-1.3591766,4.2980728-1.3591766l-4.6676025-5.9937592"/>
	<path class="st2" d="M104.7636414,74.8256683c0.579895,0.3674393,1.2733536,0.5239487,1.9591522,0.5550919
		s1.3708191-0.0565109,2.0517349-0.1439819c0.5894165-0.0757141,1.2129669-0.1656418,1.6721573-0.5428619"/>
	<path class="st15" d="M122.9678802,55.6921349c-0.3137817,4.9392662-2.278923,9.9681511-5.1857758,13.6968575
		c-1.2927017,1.6737976-2.7722168,3.0786057-4.3787003,4.0948334c-1.9501877,1.2329636-4.0871811,1.9054947-6.2843781,1.7635193
		c-5.6042709,0-8.4436264-5.5893631-11.4026489-9.3554153c-0.0747986-0.0971451-0.1419296-0.1868134-0.2240219-0.2839508
		c-0.2616119-0.3138275-0.5531311-0.620224-0.9340515-0.7995529c-0.9716263-0.4558029-2.1672745,0.0523148-3.1983719-0.2465515
		c1.0088425-0.0897141,1.9202652-0.8668213,2.1669083-1.8456993c0.2466507-0.978878-0.1941071-2.0922546-1.046051-2.637722
		c-0.4932938-0.3213501-1.0836411-0.4483681-1.6586609-0.5455132c-1.3751678-0.2466011-2.7050858-0.2017212-4.1696396-0.3736191
		c2.1147385,0.1344986,4.5206299,0.0896645,5.9479675-1.4645538c0.9490051-1.0386696,1.2252121-2.6452446,0.6647797-3.9454269
		c-0.5155487-1.2030411-1.7484131-2.0772934-3.056076-2.1968765c0.4783325,0.022438,0.956665,0.0373535,1.4495926,0.0373535
		h0.0076599c1.6962433,0,3.4369965-0.1793327,5.0288849-0.7845917c0.6126022-0.2391205,1.2850418-0.6202164,1.3824615-1.2703094
		c0.0521774-0.3736191-0.1047134-0.7472382-0.2316818-1.1133766c-1.3675079-3.8034058,0.5527649-7.0314713,3.5493698-9.0863724
		c1.4944687-1.031189,3.2578506-1.7709465,5.0062637-2.1445656c1.0836411-0.2316399,2.1519547-0.3213501,3.1607971-0.2540779
		C117.5952911,37.4446373,123.5958099,45.8435669,122.9678802,55.6921349z"/>
	<path class="st17" d="M122.9678802,55.6921349c-0.3137817,4.9392662-2.278923,9.9681511-5.1857758,13.6968575
		c-14.496315-9.3927689-12.6282196-26.1457939-11.380394-32.198391c1.0836411-0.2316399,2.1519547-0.3213501,3.1607971-0.2540779
		C117.5952911,37.4446373,123.5958099,45.8435669,122.9678802,55.6921349z"/>
	<path class="st14" d="M113.4068451,73.4801407c-1.9503632,1.2403946-4.0873566,1.9054489-6.2842789,1.7634659
		c-5.6042786,0-8.443718-5.5893097-11.402832-9.3553619c-0.074707-0.0897141-0.1420288-0.1868134-0.2241211-0.2765198
		c3.4223099,1.6663666,6.1422577,4.6777039,9.572052,6.4038162
		C107.630722,73.3008118,110.5673141,73.8537598,113.4068451,73.4801407z"/>
	<path class="st14" d="M112.9078827,57.8237991c0.2286377,1.6934052-0.7372437,3.4388504-2.8943024,4.1045761l0.3010559,2.2297821
		l-1.3562546,0.1831207l-0.2927856-2.1684685c-1.2444077,0.1445885-2.5834045-0.064724-3.4067688-0.4996605l0.3189163-1.5098534
		l0.7432251-0.1003494c0,0,0.0581818,0.2573891,0.0875397,0.4172859c0.7146378,0.2078018,1.5394821,0.3070564,2.3823242,0.1932564
		c1.5248108-0.2058792,2.4326172-1.2256584,2.2670822-2.4516678c-0.159317-1.1799889-1.0928268-1.7951546-2.7658386-2.2246094
		c-2.2996368-0.5633354-3.7893524-1.3686905-4.0407486-3.2306442c-0.2400208-1.7776756,0.8411713-3.3045921,2.7746277-3.893364
		l-0.291748-2.1607971l1.3332443-0.1800156l0.2803726,2.0765228c1.2858047-0.1267967,2.2125244,0.0913696,2.8828278,0.375351
		l-0.181076,0.7968941l0.5793304,0.5927429l-0.7432327,0.1003532c-0.4796066-0.2005348-1.4238586-0.5489578-2.7954559-0.3637695
		c-1.6550522,0.223465-2.14328,1.2880249-2.0274048,2.1462555c0.1510391,1.1186752,1.0234375,1.5704689,2.9888458,2.0853081
		C111.3805084,54.948246,112.6502762,55.9158745,112.9078827,57.8237991z"/>
	<path class="st6" d="M109.7023315,64.2386169l-0.2925034-2.1663628c-1.2469482,0.1465187-2.5860214-0.0658035-3.4091492-0.5006714
		l0.3207474-1.5065994c0.8416748,0.4105225,2.0120544,0.6674614,3.2132111,0.5052834
		c1.5228958-0.205616,2.4337158-1.2240448,2.2686386-2.4466476c-0.1592789-1.1797028-1.0942612-1.796032-2.7683868-2.2252007
		c-2.3036575-0.5625687-3.7881699-1.3667793-4.0401306-3.2328606c-0.2403717-1.7802811,0.8426819-3.3024445,2.7725677-3.8906212
		l-0.2925034-2.1663666l1.3298492-0.179554l0.2809143,2.0805702c1.2927475-0.1308632,2.2184982,0.093586,2.8897552,0.3742371
		l-0.3450851,1.4880447c-0.4851913-0.1965714-1.4283142-0.5497169-2.8010635-0.3643684
		c-1.6515884,0.2229958-2.1403961,1.293644-2.0245514,2.1516075c0.150589,1.1153603,1.0195084,1.5658836,2.9898453,2.0860977
		c2.3308945,0.6025734,3.5968475,1.567337,3.854599,3.4763145c0.2287827,1.6944847-0.7366104,3.4410057-2.8966446,4.1039352
		l0.3011856,2.2307129L109.7023315,64.2386169z"/>
	<path class="st20" d="M66.9835281,46.4874382c-0.1045456,0.0744095-0.1464005,0.2151871-0.1305923,0.3425293
		c0.0158157,0.1273422,0.0805054,0.2433968,0.1539841,0.3485947c0.3077927,0.4406586,0.7875137,0.7444611,1.3022842,0.8991089
		c0.5147781,0.1546516,1.063736,0.1683693,1.5978241,0.1078224c0.5432358-0.0615807,1.0832672-0.2010765,1.5614548-0.4660835
		c0.4781876-0.2650108,0.8924255-0.661808,1.1250305-1.1565704c0.346138-0.7362404,0.2607803-1.6076469,0.017395-2.383934"/>
	<path class="st21" d="M69.4491959,43.3532715c-0.1225967,0.1494179-2.5720596,3.2388382-2.5720596,3.2388382
		s1.6561356-1.1410217,4.5968933,0.2928772c2.9407654,1.4338989,3.3695297-1.0655479,3.3695297-1.0655479l-3.6592255-4.6988792"/>
	<path class="st22" d="M69.140419,43.7268105c0.4546127,0.288063,0.9982605,0.410759,1.5359039,0.435173
		c0.5376358,0.0244141,1.0746689-0.0443039,1.6084747-0.1128769c0.4620895-0.0593605,0.9509277-0.1298523,1.3109131-0.4255829"/>
	<path class="st23" d="M83.4165878,28.7212048c-0.4917526,7.718401-6.1292191,15.7372646-12.4276047,15.3359852
		c-6.298378-0.4012833-10.8726044-9.070755-10.3808479-16.789156c0.4917526-7.718401,5.9962425-13.6500988,12.2946281-13.2488165
		C79.2011414,14.4204988,83.9083405,21.0028038,83.4165878,28.7212048z"/>
	<path class="st21" d="M81.3853683,36.2002182c-2.2839127,4.6376266-6.1898041,8.1273575-10.3969803,7.8593102
		c-6.2969818-0.4011955-10.875618-9.0772171-10.3843002-16.7887917c0.2459488-3.8603268,1.745739-7.2651043,3.9601669-9.6621742
		c-0.7789841,1.7280235-1.2793579,3.6845322-1.4119263,5.7652569c-0.4919014,7.7207088,4.0781784,16.3870144,10.3843002,16.7887897
		C76.4387207,40.3475075,79.1981201,38.7456589,81.3853683,36.2002182z"/>
	<path class="st21" d="M75.5251923,30.3979893c0.179245,1.3275642-0.5779648,2.6959286-2.2690201,3.2178326l0.2360153,1.7480621
		l-1.0632477,0.1435585l-0.2295303-1.6999931c-0.9755707,0.1133499-2.0252991-0.0507431-2.670784-0.391716l0.2500153-1.1836662
		l0.5826645-0.0786705c0,0,0.0456161,0.2017822,0.0686264,0.3271332c0.5602493,0.1629105,1.2069016,0.2407227,1.8676529,0.1515083
		c1.1953888-0.1613998,1.9070816-0.9608707,1.7773056-1.9220161c-0.1249008-0.925066-0.8567352-1.4073315-2.1683121-1.7440109
		c-1.8028259-0.4416332-2.9707108-1.0730019-3.1678009-2.5327034c-0.1881638-1.393631,0.6594543-2.5906754,2.175209-3.0522518
		l-0.2287216-1.6939812l1.0452118-0.1411247l0.2198029,1.6279144c1.0080261-0.0994053,1.7345352,0.0716305,2.2600327,0.29426
		l-0.1419601,0.6247349l0.4541702,0.4646912l-0.5826569,0.0786705c-0.3759995-0.1572132-1.1162567-0.4303627-2.1915359-0.2851791
		c-1.2975006,0.1751862-1.6802521,1.0097618-1.5894089,1.6825809c0.1184082,0.8770008,0.8023376,1.2311897,2.3431473,1.6348038
		C74.3277893,28.1436634,75.3232422,28.9022484,75.5251923,30.3979893z"/>
	<path class="st6" d="M73.0121613,35.4269676l-0.2293091-1.6983528c-0.9775543,0.1148682-2.0273438-0.0515862-2.6726456-0.3925056
		l0.2514572-1.181118c0.6598434,0.3218346,1.5773773,0.5232658,2.5190353,0.3961258
		c1.1938934-0.1611977,1.9079437-0.9596062,1.7785263-1.9180813c-0.1248703-0.9248447-0.8578644-1.4080219-2.170311-1.7444725
		c-1.8059769-0.4410343-2.96978-1.0715065-3.167305-2.534441c-0.188446-1.3956738,0.6606293-2.588995,2.173584-3.0501003
		l-0.2293091-1.6983509l1.0425491-0.1407642l0.2202301,1.6310902c1.0134583-0.1025925,1.7392197,0.0733662,2.2654572,0.2933865
		l-0.2705383,1.1665726c-0.3803635-0.1541061-1.1197433-0.4309578-2.1959229-0.2856541
		c-1.2947845,0.1748199-1.6779938,1.0141678-1.5871735,1.6867828c0.1180573,0.8743973,0.7992554,1.2275925,2.3439255,1.6354218
		c1.8273392,0.472393,2.8197937,1.2287312,3.0218582,2.7252979c0.1793594,1.328413-0.5774765,2.6976185-2.2708588,3.217329
		l0.2361221,1.7487984L73.0121613,35.4269676z"/>
	<path class="st24" d="M91.2023315,33.9561768c-0.058548,0.0416718-0.0819931,0.1205101-0.0731354,0.1918259
		s0.0450821,0.1363068,0.086235,0.1952209c0.1723709,0.2467804,0.4410248,0.4169159,0.7293091,0.5035248
		c0.2882919,0.0866089,0.5957184,0.0942879,0.8948212,0.0603828c0.3042221-0.0344887,0.6066589-0.1126099,0.8744583-0.2610207
		c0.2677917-0.1484108,0.4997787-0.3706284,0.630043-0.6477051c0.1938477-0.4123154,0.1460419-0.9003258,0.0097427-1.3350639"/>
	<path class="st25" d="M92.5831604,32.2009659c-0.0686493,0.0836754-1.4404144,1.8138313-1.4404144,1.8138313
		s0.9274826-0.6389999,2.574379,0.1640167c1.646904,0.8030205,1.8870239-0.5967331,1.8870239-0.5967331l-2.049263-2.6314907"/>
	<path class="st22" d="M92.4102402,32.4101563c0.2546005,0.1613235,0.5590515,0.2300377,0.8601456,0.2437096
		s0.6018448-0.0248108,0.9007874-0.0632133c0.2587814-0.0332451,0.532547-0.0727234,0.7341461-0.2383385"/>
	<path class="st25" d="M100.4052582,24.0066433c-0.2753983,4.3224983-3.432518,8.813261-6.9597702,8.5885334
		s-6.0889359-5.0798473-5.8135376-9.4023457s3.3580475-7.6443977,6.8852997-7.4196701
		C98.0445023,15.9978895,100.6806488,19.684145,100.4052582,24.0066433z"/>
	<path class="st24" d="M99.2677231,28.195076c-1.2790527,2.597187-3.4664459,4.5515251-5.8225708,4.4014091
		c-3.5264664-0.224678-6.0906219-5.0834656-5.8154678-9.4021416c0.1377335-2.1618786,0.9776535-4.0686398,2.2177963-5.4110584
		c-0.4362564,0.9677353-0.7164764,2.0634289-0.7907181,3.2286873c-0.2754745,4.3237915,2.2838821,9.1771393,5.8154678,9.4021435
		C96.4974747,30.517662,98.0428085,29.6205883,99.2677231,28.195076z"/>
	<path class="st24" d="M95.985878,24.9456825c0.1003799,0.7434692-0.3236771,1.5097866-1.2707138,1.8020668l0.1321793,0.97896
		l-0.5954514,0.0803967l-0.12854-0.9520397c-0.5463409,0.0634804-1.1342163-0.0284176-1.4957047-0.2193718l0.1400146-0.6628819
		l0.3263092-0.0440578c0,0,0.0255432,0.1130028,0.0384293,0.1832047c0.3137589,0.0912323,0.6758957,0.1348095,1.0459366,0.0848465
		c0.6694489-0.0903873,1.0680084-0.5381107,0.9953308-1.076376c-0.0699463-0.5180607-0.4797897-0.7881413-1.2143097-0.9766903
		c-1.0096283-0.2473259-1.6636658-0.6009083-1.7740402-1.4183769c-0.1053772-0.780468,0.3693085-1.4508438,1.2181625-1.7093372
		l-0.1280823-0.9486732l0.5853424-0.0790329l0.1230927,0.9116726c0.5645218-0.0556679,0.9713821,0.0401154,1.2656784,0.1647949
		l-0.0795059,0.3498669l0.2543488,0.2602367l-0.3263016,0.0440578c-0.2105713-0.0880413-0.6251297-0.2410126-1.2273178-0.159708
		c-0.7266312,0.0981102-0.940979,0.5654926-0.8901062,0.9422874c0.0663147,0.4911442,0.4493256,0.689497,1.3122177,0.9155312
		C95.3153,23.6832047,95.8727798,24.1080303,95.985878,24.9456825z"/>
	<path class="st6" d="M94.5785141,27.7620354l-0.128418-0.9511185c-0.5474548,0.0643291-1.1353607-0.0288887-1.4967422-0.2198124
		l0.1408157-0.6614552c0.3695297,0.1802349,0.8833694,0.2930412,1.4107208,0.2218399
		c0.6686096-0.0902748,1.0684967-0.5374031,0.9960251-1.0741749c-0.069931-0.5179348-0.480423-0.7885265-1.2154312-0.9769478
		c-1.0113907-0.2469902-1.6631546-0.600069-1.7737732-1.4193497c-0.1055298-0.7816124,0.3699722-1.4499016,1.2172623-1.7081337
		l-0.128418-0.9511185l0.5838547-0.0788307l0.1233368,0.9134502c0.5675583-0.0574551,0.973999,0.0410881,1.2687073,0.1643047
		l-0.1515045,0.6533089c-0.2130127-0.0863018-0.6270828-0.2413464-1.2297745-0.1599731
		c-0.7251129,0.0979042-0.9397125,0.5679607-0.888855,0.9446411c0.0661163,0.4896851,0.4476013,0.6874828,1.3126602,0.9158764
		c1.0233536,0.2645531,1.579155,0.6881218,1.6923141,1.5262356c0.1004486,0.7439442-0.3234024,1.5107346-1.2717361,1.8017864
		l0.1322327,0.9793682L94.5785141,27.7620354z"/>
	<path class="st11" d="M70.3104172,64.1043854c-0.0368195,0.0062714-0.0822678,0.0064163-0.1190948,0.0126877
		c-0.9060974,0.1542358-1.5247192,1.0175247-1.367981,1.938324c0.1630096,0.9576263,1.1012421,1.5710754,2.0488281,1.3491287
		l19.6912689-4.9941063l-0.0033035-0.0193939L70.3104172,64.1043854z M72.0183563,65.9890747
		c-0.7734604,0.1316605-1.4447784-0.0269775-1.4986954-0.3437271c-0.0551758-0.3241272,0.5271149-0.6885223,1.3005753-0.8201752
		c0.7660904-0.1304092,1.4361496,0.020813,1.4913177,0.3449326C73.3654709,65.4868546,72.7844467,65.8586731,72.0183563,65.9890747z
		"/>
	<path class="st0" d="M72.5938339,67.1016312l1.0593338-2.598587c0.150528-0.3692627,0.5335999-0.5881615,0.9281616-0.5303726l0,0
		c0.531929,0.0779037,0.8653488,0.616272,0.6980896,1.1271973l-1.0570374,3.2288284"/>
	<path class="st26" d="M90.6390915,53.4981003c-0.4652176-0.5713539-1.2077484-0.9055977-1.9439163-0.8750458
		c-1.0138855,0.0420799-1.8742676,0.7087631-2.7668991,1.1914063c-1.0557251,0.5708237-2.4162903,0.8833694-3.4169159,0.2206993
		c-0.770752-0.5104294-1.2609024-1.5484962-2.1825485-1.6204453c-0.2765656-0.0215874-0.5504532,0.0540123-0.8175659,0.128891
		c-0.8137589,0.2281227-1.6275253,0.4562416-2.4412842,0.6843643"/>
	<path class="st26" d="M90.7068787,63.8690453c-0.830658-0.1139336-1.6006317,0.4801826-2.0941086,1.1580086
		s-0.8269653,1.4733429-1.4032135,2.0823746c-0.5609665,0.5928802-1.3391876,0.9755096-2.1512451,1.0576935
		c-0.9422302,0.0953522-2.0106888-0.1688309-2.7589264,0.4117126c-0.5757065,0.4466858-0.7349167,1.2368698-1.1252899,1.85215
		c-0.4229431,0.6666107-1.1496658,1.1317978-1.9321213,1.2367783"/>
	<path class="st26" d="M85.7568512,58.2351227c-0.6781845-0.1584167-1.4069138-0.2872429-2.0563889-0.0358315
		c-0.6604233,0.2556496-1.1188889,0.8582191-1.7198792,1.2328148c-0.714798,0.4455299-1.6366119,0.5416565-2.427948,0.2531853
		c-0.7140732-0.2602997-1.3344498-0.8144913-2.0927048-0.8664856c-1.1474304-0.0786858-2.2240372,1.0250969-3.3218918,0.6822891"/>
	<path class="st14" d="M100.6279984,49.6226006c0.1157608,0.6883202-0.273262,1.3675079-0.927063,1.6119003
		c-0.4351196,0.1626472-0.8722382,0.320076-1.3136139,0.4711647c-1.1506805,0.3960571-2.3462372,0.7621956-3.5643311,0.7323227
		c-0.9190826-0.0149574-1.8232117-0.2615585-2.6675949-0.6202164c-0.1643677-0.0672722-0.3288269-0.149456-0.4857178-0.2316437
		c1.6962433,0,3.4373627-0.1718941,5.0288849-0.7845879c0.6127853-0.2391205,1.2853165-0.6202202,1.3824615-1.2703094
		c0.0522614-0.3736191-0.1046219-0.7472382-0.2316895-1.1059418c-1.3674088-3.8108864,0.552948-7.0389519,3.5493698-9.093853
		c-0.6201706,1.457119-0.9564819,3.0337791-1.0834503,4.6253929
		C100.1607513,45.8478737,100.3129044,47.7491455,100.6279984,49.6226006z"/>
	<path class="st12" d="M59.1652794,133.4021759l-2.0249825,0.1270599l-4.7524109-28.7910385l0.805481-2.3068695
		c0.2608948-0.4321213,0.9188576-0.3045578,0.9993668,0.1937485L59.1652794,133.4021759z"/>
</g>
</svg>
