<?xml version="1.0" encoding="utf-8"?>
<!-- Generator: Adobe Illustrator 22.0.1, SVG Export Plug-In . SVG Version: 6.00 Build 0)  -->
<svg version="1.1" id="Layer_1" xmlns="http://www.w3.org/2000/svg" xmlns:xlink="http://www.w3.org/1999/xlink" x="0px" y="0px"
	 viewBox="0 0 156 156" style="enable-background:new 0 0 156 156;" xml:space="preserve">
<style type="text/css">
	.st0{fill:#FFD9B2;}
	.st1{fill:#F7AC76;}
	.st2{fill:none;stroke:#3643C3;stroke-width:0.5;stroke-linecap:round;stroke-linejoin:round;stroke-miterlimit:10;}
	.st3{fill:#233764;}
	.st4{fill:none;stroke:#F7AC76;stroke-width:0.5;stroke-linecap:round;stroke-linejoin:round;stroke-miterlimit:10;}
	.st5{fill:#161718;}
	.st6{fill:#FFFFFF;}
	.st7{fill:#F06449;}
	.st8{fill:#BE412D;}
	.st9{fill:#FE8E60;}
	.st10{fill:#7D4C47;}
	.st11{fill:#4456D6;}
	.st12{fill:#203881;}
	.st13{fill:#6582FC;}
	.st14{fill:#DDA103;}
	.st15{fill:#FBC32E;}
	.st16{fill:none;stroke:#DDA103;stroke-width:0.5;stroke-miterlimit:10;}
	.st17{fill:#FBE6BB;}
	.st18{fill:none;stroke:#BE412D;stroke-width:0.5;stroke-linecap:round;stroke-linejoin:round;stroke-miterlimit:10;}
	.st19{fill:none;stroke:#F06449;stroke-width:0.5;stroke-linecap:round;stroke-linejoin:round;stroke-miterlimit:10;}
	.st20{fill:#F34B4B;}
	.st21{fill:#FC7070;}
	.st22{fill:none;stroke:#FFFFFF;stroke-miterlimit:10;}
	.st23{fill:#FC9F9F;}
	.st24{fill:#408A6F;}
	.st25{fill:#64B48D;}
	.st26{fill:none;stroke:#FBE6BB;stroke-width:0.5;stroke-linecap:round;stroke-linejoin:round;stroke-miterlimit:10;}
	.st27{fill:none;stroke:#F7AC76;stroke-width:0.25;stroke-linecap:round;stroke-linejoin:round;stroke-miterlimit:10;}
	.st28{fill:#A0665A;}
	.st29{fill:#6C3F44;}
	.st30{fill:none;stroke:#6C3F44;stroke-width:0.5;stroke-linecap:round;stroke-linejoin:round;stroke-miterlimit:10;}
	.st31{fill:none;stroke:#7D4C47;stroke-width:0.5;stroke-linecap:round;stroke-linejoin:round;stroke-miterlimit:10;}
	.st32{fill:none;stroke:#F34B4B;stroke-width:0.5;stroke-linecap:round;stroke-linejoin:round;stroke-miterlimit:10;}
	.st33{fill:none;stroke:#FC7070;stroke-width:0.5;stroke-linecap:round;stroke-linejoin:round;stroke-miterlimit:10;}
	.st34{fill:#EAE8F3;}
	.st35{fill:#40304A;}
	.st36{fill:none;stroke:#43334E;stroke-linecap:round;stroke-linejoin:round;stroke-miterlimit:10;}
	.st37{fill:#32775B;}
	.st38{fill:none;stroke:#233764;stroke-width:0.5;stroke-linecap:round;stroke-linejoin:round;stroke-miterlimit:10;}
	.st39{fill:none;stroke:#408A6F;stroke-width:0.5;stroke-linecap:round;stroke-linejoin:round;stroke-miterlimit:10;}
	.st40{fill:#3643C3;}
	.st41{opacity:0.56;fill:url(#SVGID_1_);}
	.st42{opacity:0.52;fill:#FBC32E;}
	.st43{opacity:0.56;fill:url(#SVGID_2_);}
	.st44{fill:none;stroke:#EAE8F3;stroke-width:0.5;stroke-linecap:round;stroke-linejoin:round;stroke-miterlimit:10;}
	.st45{fill:#FEFFFD;}
	.st46{opacity:0.35;fill:#32775B;}
	.st47{fill:#43334E;}
	.st48{fill:none;stroke:#EAE8F3;stroke-width:0.25;stroke-linecap:round;stroke-linejoin:round;stroke-miterlimit:10;}
	.st49{fill:none;stroke:#FBC32E;stroke-width:0.5;stroke-linecap:round;stroke-linejoin:round;stroke-miterlimit:10;}
	.st50{fill:none;stroke:#161718;stroke-width:0.5;stroke-linecap:round;stroke-linejoin:round;stroke-miterlimit:10;}
	.st51{fill:none;stroke:#40304A;stroke-linecap:round;stroke-linejoin:round;stroke-miterlimit:10;}
	.st52{opacity:0.33;fill:#FBC32E;}
	.st53{fill:#A6A3AE;}
	.st54{fill:#5B4B68;}
	.st55{fill:#776688;}
	.st56{fill:none;stroke:#FBC32E;stroke-width:0.5;stroke-miterlimit:10;}
	.st57{fill:none;stroke:#EAE8F3;stroke-linecap:round;stroke-linejoin:round;stroke-miterlimit:10;}
	.st58{fill:none;stroke:#203881;stroke-width:2;stroke-linecap:round;stroke-linejoin:round;stroke-miterlimit:10;}
	.st59{fill:none;stroke:#40304A;stroke-width:2;stroke-linecap:round;stroke-linejoin:round;stroke-miterlimit:10;}
	.st60{fill:#FFD8B7;}
	.st61{fill:#F4E4D4;}
	.st62{fill:none;stroke:#4456D6;stroke-width:0.5;stroke-linecap:round;stroke-linejoin:round;stroke-miterlimit:10;}
	.st63{fill:none;stroke:#DDA103;stroke-width:0.25;stroke-miterlimit:10;}
	.st64{fill:none;stroke:#FFFFFF;stroke-width:0.5;stroke-linecap:round;stroke-linejoin:round;stroke-miterlimit:10;}
	.st65{fill:none;stroke:#64B48D;stroke-width:0.5;stroke-linecap:round;stroke-linejoin:round;stroke-miterlimit:10;}
	.st66{fill:none;stroke:#64B48D;stroke-linecap:round;stroke-linejoin:round;stroke-miterlimit:10;}
	.st67{opacity:0.48;fill:#64B48D;}
	.st68{fill:none;stroke:#64B48D;stroke-width:0.25;stroke-linecap:round;stroke-linejoin:round;stroke-miterlimit:10;}
	.st69{fill:none;stroke:#F06449;stroke-width:2;stroke-linecap:round;stroke-linejoin:round;stroke-miterlimit:10;}
	.st70{opacity:0.92;fill:#64B48D;}
	.st71{opacity:0.57;fill:#408A6F;}
	.st72{opacity:0.36;fill:#408A6F;}
	.st73{fill:none;stroke:#BE412D;stroke-width:2;stroke-linecap:round;stroke-linejoin:round;stroke-miterlimit:10;}
	.st74{opacity:0.65;fill:none;stroke:#408A6F;stroke-width:0.25;stroke-linecap:round;stroke-linejoin:round;stroke-miterlimit:10;}
	.st75{opacity:0.67;fill:none;stroke:#64B48D;stroke-width:0.25;stroke-linecap:round;stroke-linejoin:round;stroke-miterlimit:10;}
	.st76{opacity:0.98;fill:#64B48D;}
	.st77{fill:none;stroke:#408A6F;stroke-width:0.25;stroke-linecap:round;stroke-linejoin:round;stroke-miterlimit:10;}
	.st78{fill:none;stroke:#FFD9B2;stroke-width:0.5;stroke-linecap:round;stroke-linejoin:round;}
	
		.st79{fill:none;stroke:#FFD9B2;stroke-width:0.5;stroke-linecap:round;stroke-linejoin:round;stroke-dasharray:4.0333505,4.0333505;}
	.st80{fill:#E68B4A;}
	.st81{opacity:0.62;fill:#64B48D;}
	.st82{fill:none;stroke:#FBC32E;stroke-width:0.25;stroke-miterlimit:10;}
	.st83{fill:none;stroke:#4456D6;stroke-linecap:round;stroke-linejoin:round;stroke-miterlimit:10;}
	.st84{fill:none;stroke:#E68B4A;stroke-width:0.5;stroke-linecap:round;stroke-linejoin:round;stroke-miterlimit:10;}
	.st85{fill:none;stroke:#203881;stroke-width:0.5;stroke-linecap:round;stroke-linejoin:round;stroke-miterlimit:10;}
	.st86{opacity:0.29;fill:#EAE8F3;}
	.st87{fill:none;stroke:#A6A3AE;stroke-width:0.5;stroke-linecap:round;stroke-linejoin:round;stroke-miterlimit:10;}
	.st88{opacity:0.74;fill:#FFFFFF;}
	.st89{opacity:0.19;fill:#FFFFFF;}
	.st90{fill:none;stroke:#40304A;stroke-width:0.25;stroke-linecap:round;stroke-linejoin:round;stroke-miterlimit:10;}
	.st91{fill:none;stroke:#F34B4B;stroke-width:2;stroke-linecap:round;stroke-linejoin:round;stroke-miterlimit:10;}
	.st92{fill:none;stroke:#43334E;stroke-width:0.5;stroke-linecap:round;stroke-linejoin:round;stroke-miterlimit:10;}
	.st93{fill:none;stroke:#6582FC;stroke-miterlimit:10;}
	.st94{opacity:0.47;fill:#A6A3AE;}
	.st95{opacity:0.43;fill:#FFFFFF;}
	.st96{fill:none;stroke:#FBE6BB;stroke-linecap:round;stroke-linejoin:round;stroke-miterlimit:10;}
	.st97{fill:none;stroke:#5B4B68;stroke-width:0.5;stroke-linecap:round;stroke-linejoin:round;stroke-miterlimit:10;}
	.st98{fill:none;stroke:#40304A;stroke-width:0.5;stroke-linecap:round;stroke-linejoin:round;stroke-miterlimit:10;}
	.st99{fill:none;stroke:#DDA103;stroke-linecap:round;stroke-linejoin:round;stroke-miterlimit:10;}
	.st100{fill:none;stroke:#FBC32E;stroke-linecap:round;stroke-linejoin:round;stroke-miterlimit:10;}
	.st101{fill:none;stroke:#32775B;stroke-width:0.5;stroke-linecap:round;stroke-linejoin:round;stroke-miterlimit:10;}
	.st102{opacity:0.4;fill:#FBE6BB;}
	.st103{fill:none;stroke:#FBC32E;stroke-width:0.25;stroke-linecap:round;stroke-linejoin:round;stroke-miterlimit:10;}
	.st104{fill:none;stroke:#4456D6;stroke-miterlimit:10;}
	.st105{opacity:0.61;fill:#64B48D;}
	.st106{opacity:0.9;fill:#64B48D;}
	.st107{opacity:0.76;fill:#64B48D;}
	.st108{fill:none;stroke:#5B4B68;stroke-width:0.5;stroke-miterlimit:10;}
	.st109{opacity:0.66;fill:#A6A3AE;}
	.st110{fill:none;stroke:#43334E;stroke-miterlimit:10;}
	.st111{opacity:0.52;fill:#6582FC;}
	.st112{font-family:'MyriadPro-Regular';}
	.st113{font-size:10.5508299px;}
	.st114{fill:none;stroke:#DDA103;stroke-width:0.5;stroke-linecap:round;stroke-linejoin:round;stroke-miterlimit:10;}
	.st115{fill:#46724E;}
	.st116{fill:#FE8B2E;}
	.st117{fill:none;stroke:#7D4C47;stroke-width:2;stroke-linecap:round;stroke-linejoin:round;stroke-miterlimit:10;}
	.st118{opacity:0.4;fill:#EAE8F3;}
	.st119{fill:none;stroke:#EAE8F3;stroke-width:0.5;stroke-linecap:round;stroke-miterlimit:10;}
	.st120{fill:none;stroke:#4456D6;stroke-width:0.25;stroke-linecap:round;stroke-linejoin:round;stroke-miterlimit:10;}
	.st121{opacity:0.5;fill:#EAE8F3;}
	.st122{opacity:0.46;fill:#A6A3AE;}
	.st123{fill:#E0916E;}
	.st124{fill:none;stroke:#A0665A;stroke-linecap:round;stroke-linejoin:round;stroke-miterlimit:10;}
	.st125{opacity:0.46;fill:#BE412D;}
	.st126{fill:none;stroke:#203881;stroke-linecap:round;stroke-linejoin:round;stroke-miterlimit:10;}
	.st127{fill:#DBDBE1;}
	.st128{fill:none;stroke:#6582FC;stroke-width:0.5;stroke-linecap:round;stroke-linejoin:round;stroke-miterlimit:10;}
	.st129{opacity:0.53;fill:#A6A3AE;}
	.st130{fill:none;stroke:#DDA103;stroke-miterlimit:10;}
	.st131{opacity:0.2;fill:#FFFFFF;}
	.st132{fill:#B4A1BF;}
	.st133{opacity:0.5;fill:#6582FC;}
	.st134{opacity:0.6;fill:none;stroke:#FFFFFF;stroke-linecap:round;stroke-linejoin:round;stroke-miterlimit:10;}
	.st135{opacity:0.6;fill:none;stroke:#FFFFFF;stroke-width:2;stroke-linecap:round;stroke-linejoin:round;stroke-miterlimit:10;}
	.st136{opacity:0.54;fill:#A6A3AE;}
	.st137{fill:#161718;stroke:#000000;stroke-width:0.25;stroke-miterlimit:10;}
</style>
<g id="_x31_7">
	<g>
		<path class="st14" d="M77.6203995,31.9322376c0.2631454,1.7031612-0.3648071,3.3378429-1.5356369,4.4335918
			c-0.0977325,0.090271-0.2003098,0.1769829-0.3052597,0.2619209c-0.472435,0.3758049-1.017807,0.6683769-1.6180496,0.8556099
			c0.0216599,0.0288734,0.0378189,0.0499954,0.0378189,0.0499954l-0.7030029,0.1064682l-0.1447144,0.0223579
			c-0.020668,0.0053444-0.0440369,0.0068054-0.065361,0.0079498c-0.838356,0.1059113-1.6585159-0.0035973-2.4022064-0.2860031
			c-0.1254654-0.0471878-0.2472839-0.0992241-0.3680267-0.1578941c-0.5260391-0.2494431-1.0060349-0.5897598-1.4153214-1.0011368
			c-0.0609818-0.0614395-0.1178665-0.1235237-0.1750717-0.187706c-0.2957535-0.3301277-0.548233-0.6991463-0.7482834-1.1041985
			c-0.0337448-0.0656624-0.0654297-0.1316261-0.0932465-0.2003517c-0.1635284-0.3634415-0.2837906-0.752903-0.3560257-1.1648026
			c-0.0072327-0.0332375-0.0127487-0.0689049-0.0182571-0.104557c-0.0055084-0.035656-0.0106964-0.0692215-0.0141525-0.1051941
			c-0.0551224-0.4124107-0.0600586-0.8196754-0.0138397-1.2155228c0.0078278-0.074234,0.0160751-0.1463814,0.0284271-0.2191486
			c0.0684814-0.4465427,0.1977081-0.8745384,0.3801422-1.2785473c0.0350647-0.0784416,0.0723877-0.1572304,0.1123047-0.2321072
			c0.2657242-0.5178223,0.6187973-0.9847012,1.0429764-1.3809719c0.0974045-0.0923595,0.1999893-0.1790676,0.3052597-0.2619209
			c0.6576843-0.5246773,1.4583359-0.8889084,2.3497696-1.026638c0.0292892-0.0045261,0.0586853-0.0090675,0.0884018-0.0115089
			c-0.0003281-0.0021-0.0003281-0.0021-0.0003281-0.0021l0.5600204-0.086525l0.0239182,0.0435429
			c0.6551361-0.0131626,1.2892227,0.1014729,1.8758774,0.3265171c0.1253738,0.0472164,0.2472839,0.0992413,0.3680267,0.1578941
			C76.2649002,28.8580532,77.3572464,30.2290764,77.6203995,31.9322376z"/>
		<g>
			<g>
				<path class="st15" d="M74.8165588,28.1712513l-5.5709457,0.8607388
					c0.0974045-0.0923595,0.1999893-0.1790676,0.3052597-0.2619209l4.8976593-0.756712
					C74.5739059,28.0605736,74.695816,28.1125984,74.8165588,28.1712513z"/>
			</g>
			<g>
				<path class="st15" d="M75.3529434,29.3082027l0.0324097,0.2097492l-7.2950211,1.1271172
					c0.0350647-0.0784416,0.0723877-0.1572304,0.1123047-0.2321072L75.3529434,29.3082027z"/>
			</g>
			<g>
				<path class="st15" d="M75.5694275,30.7093258l0.0324097,0.2097473l-7.9200745,1.2236919
					c0.0078278-0.074234,0.0160751-0.1463814,0.0284271-0.2191486L75.5694275,30.7093258z"/>
			</g>
			<g>
				<path class="st15" d="M75.7855835,32.1083488l0.0324097,0.2097473l-8.0899811,1.2499428
					c-0.0072327-0.0332375-0.0127487-0.0689049-0.0182571-0.104557c-0.0055084-0.035656-0.0106964-0.0692215-0.0141525-0.1051941
					L75.7855835,32.1083488z"/>
			</g>
			<g>
				<path class="st15" d="M76.0020599,33.5094681l0.0324097,0.2097511l-7.8571854,1.213974
					c-0.0337448-0.0656624-0.0654297-0.1316261-0.0932465-0.2003517L76.0020599,33.5094681z"/>
			</g>
			<g>
				<path class="st15" d="M76.218544,34.9105911l0.0324097,0.2097473l-7.1503143,1.1047592
					c-0.0609818-0.0614395-0.1178665-0.1235237-0.1750717-0.187706L76.218544,34.9105911z"/>
			</g>
			<g>
				<path class="st15" d="M76.0847626,36.3658295c-0.0977325,0.090271-0.2003098,0.1769829-0.3052597,0.2619209
					l-4.8955154,0.7563782c-0.1254654-0.0471878-0.2472839-0.0992241-0.3680267-0.1578941L76.0847626,36.3658295z"/>
			</g>
		</g>
		<path class="st15" d="M73.4955063,37.640934c-0.020668,0.0053444-0.0437164,0.0089035-0.0647125,0.012146
			c-0.0272369,0.0042114-0.0524368,0.0081024-0.0800018,0.0102119L73.4955063,37.640934z"/>
		<circle class="st15" cx="73.4688492" cy="32.5746078" r="5.0134907"/>
		<circle class="st16" cx="73.4688492" cy="32.5746078" r="4.2973633"/>
		<path class="st15" d="M73.3507919,37.6632919l-0.065033,0.0100479l-0.0003281-0.0020981
			C73.3067551,37.6700974,73.3301239,37.6686363,73.3507919,37.6632919z"/>
		<path class="st14" d="M75.1262131,33.3687897c0.0979156,0.633709-0.2509308,1.2963829-1.0566483,1.5597191l0.1289368,0.8345184
			l-0.5059128,0.0781631l-0.1253052-0.811039c-0.4654846,0.0639038-0.9700546-0.0049896-1.2801437-0.1626854l0.1073685-0.5666313
			l0.2295227-0.0354614c0,0,0.0152969,0.0643883,0.0287857,0.1344032c0.2797241,0.0822678,0.6137772,0.1187744,0.9502029,0.0667953
			c0.571106-0.0882378,0.9036865-0.476059,0.833168-0.9324341c-0.0680923-0.4407272-0.4233246-0.6662025-1.0523834-0.8146553
			c-0.8684616-0.194252-1.4315872-0.4863968-1.5395737-1.1853008c-0.1027451-0.664999,0.2937317-1.2442589,1.013176-1.4782486
			l-0.1249008-0.8084278l0.4955292-0.076561l0.1200714,0.7771339c0.4848328-0.0588875,0.8332291,0.018116,1.0866547,0.1204834
			l-0.0532303,0.2431946c0.0528564,0.0826092,0.1637421,0.2817554,0.1637421,0.2817554l-0.2295227,0.0354614
			c-0.1817856-0.0707054-0.5377731-0.1972694-1.0515137-0.1178932c-0.6180954,0.0954971-0.7930145,0.5016747-0.743454,0.8224525
			c0.0644684,0.4172497,0.3940353,0.5799351,1.1346359,0.7592297
			C74.5341263,32.3014374,75.0158157,32.6542397,75.1262131,33.3687897z"/>
		<path class="st17" d="M73.9220734,35.8058968l-0.1251831-0.8102417c-0.4665298,0.0638657-0.9701691-0.0061646-1.2819366-0.1633377
			l0.1094894-0.567234c0.3185501,0.1479111,0.7592545,0.235878,1.2084961,0.1664696
			c0.5695801-0.0880013,0.9038239-0.4764061,0.8331757-0.9336739c-0.0681686-0.4412231-0.4231796-0.665638-1.0540085-0.8145828
			c-0.8678436-0.1944618-1.4302597-0.4853973-1.5380936-1.1833286c-0.1028748-0.665844,0.2923508-1.2443714,1.0118027-1.4787369
			l-0.1251907-0.8102436l0.4973755-0.0768471l0.1202316,0.7781544c0.4838104-0.0583229,0.83255,0.0192146,1.0862656,0.1196461
			l-0.1187439,0.5604534c-0.183342-0.0702381-0.5395203-0.1959076-1.0529404-0.116581
			c-0.6177139,0.095438-0.7933426,0.5004044-0.7437592,0.8212929c0.0644455,0.4171543,0.3934937,0.5798721,1.1360474,0.7608395
			c0.8783493,0.2092667,1.3599548,0.5619659,1.4702682,1.2759438c0.0979156,0.6337547-0.2515793,1.2955704-1.0568008,1.5596123
			l0.1289063,0.8343086L73.9220734,35.8058968z"/>
	</g>
	<path class="st13" d="M111.2852097,129.2675323c11.1816559,1.0397339,18.9708176,3.3659668,18.9708176,6.0710297
		c0,3.6832275-14.3714905,6.661438-32.1087952,6.661438c-17.7287064,0-32.1001968-2.9782104-32.1001968-6.661438
		c0-0.46698,0.2379227-0.9251862,0.6784973-1.3657684c-1.259758,0.026474-2.5552292,0.0440521-3.8593025,0.0440521
		c-18.6713715,0-33.8095627-3.1368713-33.8095627-7.005043c0-3.8770523,15.1381912-7.013916,33.8095627-7.013916
		c1.3393517,0,2.661068,0.0176392,3.9561043,0.0440445c0.0090408,0,0.0090408,0,0.0090408,0
		c5.1547699-2.5200577,17.1999283-4.2911606,31.2538986-4.2911606c18.7333221,0,33.9240036,3.1456833,33.9240036,7.0315018
		C132.0092773,125.6988525,123.4624481,128.2013245,111.2852097,129.2675323z"/>
	<g>
		<path class="st14" d="M105.0116959,126.1974258c0.4164581,2.6954117-0.5773392,5.2824478-2.4302826,7.0165634
			c-0.1546631,0.142868-0.317009,0.2800903-0.4831009,0.414505c-0.7476654,0.5947571-1.6107712,1.0577698-2.5606995,1.3540802
			c0.0342712,0.0457001,0.0598526,0.0791321,0.0598526,0.0791321l-1.1125717,0.1684875l-0.2290192,0.0353851
			c-0.0327148,0.0084534-0.0696945,0.0107727-0.1034393,0.0125885c-1.3267822,0.1676025-2.6247559-0.0057068-3.8017044-0.4526215
			c-0.1985703-0.0746918-0.3913498-0.1570435-0.5824356-0.2498932c-0.8325119-0.3947601-1.5921478-0.9333496-2.2398834-1.5843811
			c-0.0965042-0.0972443-0.1865311-0.1954956-0.2770691-0.2970734c-0.4680557-0.5224457-0.8676224-1.1064606-1.184227-1.7474823
			c-0.0533905-0.1039276-0.1035461-0.208313-0.1475677-0.3170776c-0.2587967-0.5751801-0.4491196-1.1915436-0.563446-1.8434143
			c-0.0114441-0.052597-0.0201645-0.1090393-0.0288849-0.1654663s-0.0169296-0.1095428-0.0223999-0.1664734
			c-0.0872345-0.6526794-0.095047-1.2972107-0.021904-1.9236832c0.0123825-0.1174774,0.025444-0.2316589,0.0449905-0.346817
			c0.1083755-0.7066956,0.3128891-1.3840332,0.6016006-2.0234146c0.0555038-0.1241455,0.114563-0.2488327,0.177742-0.3673325
			c0.4205246-0.8195038,0.9793015-1.5583801,1.6506042-2.1855164c0.1541519-0.1461639,0.3164978-0.2833862,0.4831009-0.4145126
			c1.0408401-0.8303452,2.3079453-1.4067764,3.7187195-1.6247482c0.0463562-0.007164,0.0928726-0.0143509,0.1399078-0.0182114
			c-0.0005188-0.0033264-0.0005188-0.0033264-0.0005188-0.0033264l0.8862762-0.1369324l0.0378571,0.0689163
			c1.0368118-0.0208359,2.0403061,0.1605835,2.9687424,0.5167389c0.19841,0.0747223,0.3913574,0.1570587,0.5824356,0.2498856
			C102.8665009,121.3322525,104.5952454,123.5020218,105.0116959,126.1974258z"/>
		<g>
			<g>
				<path class="st15" d="M100.5743713,120.2453308l-8.8165207,1.3621902
					c0.1541519-0.1461639,0.3164978-0.2833862,0.4831009-0.4145126l7.7509842-1.1975632
					C100.1903458,120.0701675,100.3832932,120.152504,100.5743713,120.2453308z"/>
			</g>
			<g>
				<path class="st15" d="M101.4232559,122.0446548l0.0512848,0.3319473l-11.5450363,1.7837677
					c0.0555038-0.1241455,0.114563-0.2488327,0.177742-0.3673325L101.4232559,122.0446548z"/>
			</g>
			<g>
				<path class="st15" d="M101.7658539,124.2620544l0.0512848,0.3319473l-12.5342255,1.9365997
					c0.0123825-0.1174774,0.025444-0.2316589,0.0449905-0.346817L101.7658539,124.2620544z"/>
			</g>
			<g>
				<path class="st15" d="M102.1079407,126.4761353l0.0512848,0.3319473l-12.8031235,1.9781418
					c-0.0114441-0.052597-0.0201645-0.1090393-0.0288849-0.1654663s-0.0169296-0.1095428-0.0223999-0.1664734
					L102.1079407,126.4761353z"/>
			</g>
			<g>
				<path class="st15" d="M102.4505386,128.6935425l0.0512924,0.3319397l-12.4347153,1.9212341
					c-0.0533905-0.1039276-0.1035461-0.208313-0.1475677-0.3170776L102.4505386,128.6935425z"/>
			</g>
			<g>
				<path class="st15" d="M102.7931366,130.9109344l0.0512924,0.331955l-11.3160172,1.7483826
					c-0.0965042-0.0972443-0.1865311-0.1954956-0.2770691-0.2970734L102.7931366,130.9109344z"/>
			</g>
			<g>
				<path class="st15" d="M102.5814133,133.2139893c-0.1546631,0.142868-0.317009,0.2800903-0.4831009,0.414505l-7.7475815,1.197052
					c-0.1985703-0.0746918-0.3913498-0.1570435-0.5824356-0.2498932L102.5814133,133.2139893z"/>
			</g>
		</g>
		<path class="st15" d="M98.4836884,135.2319489c-0.0327148,0.0084686-0.0691833,0.0140991-0.1024094,0.0192261
			c-0.0431137,0.0066681-0.0829849,0.0128326-0.1266098,0.0161591L98.4836884,135.2319489z"/>
		<circle class="st15" cx="98.4414978" cy="127.214035" r="7.9343014"/>
		<circle class="st16" cx="98.4414978" cy="127.214035" r="6.8009653"/>
		<path class="st15" d="M98.2546692,135.267334l-0.1029282,0.0159149l-0.0005112-0.0033264
			C98.184967,135.2781067,98.2219543,135.2758026,98.2546692,135.267334z"/>
		<path class="st14" d="M101.0644302,128.4709015c0.154953,1.0028992-0.3971252,2.0516357-1.6722488,2.468399l0.2040558,1.320694
			l-0.8006439,0.123703l-0.1983185-1.2835388c-0.7366562,0.10112-1.5351944-0.0079041-2.0259323-0.2574615l0.1699142-0.8967438
			l0.3632431-0.0561218c0,0,0.0242081,0.1018982,0.0455551,0.2126923c0.442688,0.1302032,0.9713593,0.187973,1.5037842,0.1057129
			c0.9038239-0.1396484,1.4301605-0.7534027,1.3185654-1.4756622c-0.1077652-0.6974945-0.66996-1.0543213-1.6654968-1.2892609
			c-1.3744202-0.3074188-2.2656174-0.7697678-2.4365082-1.8758469c-0.1626053-1.0524216,0.464859-1.9691544,1.6034393-2.3394623
			l-0.19767-1.2794113l0.7842178-0.1211624l0.1900253,1.2298889c0.7672882-0.0932007,1.3186646,0.0286636,1.7197342,0.1906738
			l-0.0842438,0.3848801c0.0836487,0.1307297,0.2591324,0.4459,0.2591324,0.4459l-0.3632431,0.0561218
			c-0.2876892-0.1119003-0.8510742-0.3121948-1.6641159-0.1865768c-0.9781876,0.1511307-1.2550125,0.7939453-1.1765747,1.3016052
			c0.1020279,0.6603317,0.6235886,0.9178009,1.7956543,1.2015533
			C100.1273956,126.7817154,100.8897095,127.340065,101.0644302,128.4709015z"/>
		<path class="st17" d="M99.1587753,132.3278503l-0.1981201-1.2822876
			c-0.7383194,0.1010742-1.5353851-0.0097504-2.0287781-0.2584991l0.1732712-0.8977051
			c0.5041351,0.2340851,1.2015915,0.3733063,1.9125595,0.2634583c0.9014053-0.139267,1.4303818-0.753952,1.318573-1.4776154
			c-0.1078873-0.6982803-0.6697235-1.0534363-1.6680603-1.2891541c-1.3734436-0.3077545-2.2635193-0.7681885-2.4341736-1.8727264
			c-0.1628113-1.0537567,0.4626694-1.9693298,1.601265-2.3402328l-0.1981201-1.2822876l0.7871475-0.1216125l0.1902695,1.2314987
			c0.7656784-0.0923004,1.3175888,0.0304031,1.7191162,0.1893463l-0.1879349,0.8869705
			c-0.2901459-0.1111603-0.8538361-0.3100433-1.6663666-0.1845016c-0.9775848,0.1510391-1.2555313,0.7919388-1.1770706,1.2997742
			c0.102005,0.6601868,0.6227493,0.9176941,1.797905,1.2040939c1.3900604,0.3311844,2.1522522,0.8893661,2.326828,2.0192947
			c0.1549683,1.0029755-0.3981476,2.050354-1.6724777,2.4682312l0.2040024,1.3203735L99.1587753,132.3278503z"/>
	</g>
	<path class="st29" d="M127.3928299,77.2533112c-5.1370773,23.8965988-13.146637,31.8973923-13.146637,31.8973923
		c-48.5157318,24.8482437-76.1836395,18.0898361-76.1836395,18.0898361
		c-8.9523907-5.8683853-14.0718288-16.5301971-14.0718288-16.5301971l4.8374653-0.6961365l12.9880409-0.5639496l4.4673996-1.6829529
		l27.2008781-10.2300644L127.3928299,77.2533112z"/>
	<path class="st10" d="M96.6673813,113.9705276l-12.3536453,4.634819c0,0-10.7777252-7.1278992-18.0898361-0.9340057
		c-5.9262428,5.0199509-16.1601868,3.8065414-16.1601868,3.8065414l-3.7800865-13.7105789l27.2008781-10.2300644
		l11.498909,1.4009933L96.6673813,113.9705276z"/>
	<path class="st47" d="M84.2650223,101.6689606l3.136795,2.0414124l-3.9807587,8.5228958l2.7559052,0.408287l-0.5613861,6.5835571
		l2.8069458-6.8897705l-2.5007324-1.8883057l4.0317917-7.4001236c0,0-2.143486-4.6952515-2.2965927-4.7462845"/>
	<polygon class="st47" points="51.084774,110.2458267 50.7177925,113.4457703 54.2426453,113.0460434 54.2426453,117.1523132 
		60.8199463,118.6058578 56.0232391,116.6155396 57.5494652,112.2829285 53.8065796,111.7378464 54.1336288,109.3395004 	"/>
	<path class="st28" d="M95.0466919,75.3857422c-10.5628738,8.9621964-23.2517014,16.1903-34.9567299,21.709343
		c-0.5168839,0.250145-1.0337715,0.4918976-1.5506554,0.7253571c-18.7164154,8.6536865-34.548233,12.888855-34.548233,12.888855
		c9.3290253,0.6336136,18.0577621,0.4335403,26.1946144-0.3751678c5.71912-0.5669098,11.1464691-1.4339294,16.2653542-2.5344086
		c39.6504288-8.4953308,60.9429245-30.5465164,60.9429245-30.5465164
		C121.7665405,77.8534851,95.0466919,75.3857422,95.0466919,75.3857422z M75.8717575,103.8980408
		c-1.083786,0.3168106-2.1926117,0.6252747-3.3097839,0.9170456c-2.6344452,0.700325-5.3689804,1.3422852-8.186821,1.9091873
		c-0.558609,0.1083832-1.1171684,0.2167664-1.6840744,0.3251038c-4.3935776,0.8336945-8.8454666,1.4589615-13.3641205,1.8758087
		c-5.4856606,0.5252304-11.0547218,0.7419968-16.6738548,0.6669922c8.2702713-2.7428818,21.7010498-7.695015,35.5486717-14.8897934
		c2.8845978-1.5006332,5.7941742-3.1013107,8.678772-4.7937317c6.5027924-3.826622,12.8888626-8.1618347,18.649704-12.9972458
		c3.4348145,0.3168106,19.558403,1.7423935,27.9870758,1.900795
		C117.3146515,84.1728439,101.0076218,96.5948868,75.8717575,103.8980408z"/>
	<path class="st10" d="M123.5153732,78.8132706c-1.0751877,0.9340057-2.4584274,2.0706635-4.1501541,3.3659744
		c-2.2910538,1.7798691-5.1547699,3.8153076-8.5472565,5.9829407c-8.4147415,5.3661804-20.1518478,11.4372177-34.9462662,15.7371979
		c-1.0837936,0.3172531-2.1938248,0.6256332-3.3128967,0.9164276c-2.634819,0.6960831-5.3660202,1.3392944-8.1858521,1.9120636
		c-0.0968018,0.0088196-0.2026443,0.0352249-0.3084869,0.0528641c-0.45821,0.0969162-0.9073868,0.176239-1.3746338,0.2643356
		c-1.4800453,0.2819672-2.9605179,0.5374832-4.4586334,0.7665863c-0.4052925,0.0705109-0.810585,0.1321945-1.2244797,0.1938782
		h-0.009037c-0.0968056,0.0175858-0.2026443,0.0264053-0.2994499,0.0440521
		c-0.4319649,0.0705032-0.8725395,0.1233673-1.3217125,0.1850586c-0.5726585,0.0792694-1.1543503,0.1585999-1.736042,0.2202835
		c-0.0968056,0.0175858-0.1936111,0.0264053-0.2994499,0.0352249c-0.0529213,0.0176392-0.1144485,0.0176392-0.167366,0.0264053
		c-0.0529213,0.0088196-0.1144485,0.0088196-0.167366,0.0176392c-0.3876534,0.0440521-0.7666969,0.08815-1.1543503,0.1321945
		c-0.0968056,0.0088196-0.1940422,0.0264053-0.290844,0.0352249c-0.4491768,0.0528717-0.8987846,0.0969162-1.3479614,0.1410141
		c-0.1411209,0.0175858-0.290844,0.0264053-0.4319649,0.0440445c-0.0438881,0-0.0791664,0.0088272-0.1234818,0.0088272
		c-0.0791664,0.0087662-0.167366,0.0175858-0.2555656,0.0175858c-0.0262451,0.0088196-0.0438843,0.0088196-0.0701294,0.0088196
		h-0.009037c-0.1144447,0.0088196-0.2288895,0.0264587-0.3437653,0.0352249
		c-0.2288895,0.0264587-0.45821,0.0440979-0.6957092,0.0616837c-0.132515,0.0088196-0.2732048,0.0264587-0.4057198,0.0352783
		c-0.158329,0.0088272-0.3080559,0.0175934-0.4668159,0.0352325c-0.6169739,0.0528641-1.2425499,0.0969086-1.8590927,0.1497726
		c-0.3261261,0.0176468-0.6608582,0.0441055-0.9869843,0.0616913c-0.0705605,0.0088196-0.1497231,0.0088196-0.2202835,0.0176392
		c-0.0443153,0-0.0968056,0.0088196-0.1411209,0.0088196c-0.167366,0.0088196-0.3347321,0.0175858-0.5111313,0.0352249
		c-0.1230507,0-0.2379265,0.0088196-0.3609772,0.0176392c-0.4052925,0.0175858-0.8196182,0.0440521-1.2339439,0.0616913
		c-0.0438843,0-0.0791664,0-0.1230507,0.0088196c-3.0839996,0.1321411-6.1946754,0.1850052-9.3225632,0.1409607
		c2.4670296-0.8282776,5.4103394-1.8327942,8.670311-3.0487747c0.009037-0.0088196,0.0266762-0.0088196,0.0352821-0.0175858
		c0.3966827-0.1498337,0.8019753-0.299614,1.2158737-0.4493942c0.1587601-0.0616837,0.3084831-0.1145554,0.467247-0.176239
		c0.2288895-0.0880966,0.449173-0.176239,0.6784973-0.2555161c0.1406898-0.0616837,0.290844-0.1145477,0.4315338-0.1674194
		l0.0176392-0.0088196c0.3523712-0.1321869,0.7051735-0.2731476,1.0751839-0.4141617l0.017643-0.0087662
		c0.0086021,0,0.0176392,0,0.0176392-0.0088196c0.0262451-0.0088196,0.0529213-0.0264587,0.0881996-0.0352783
		c0.6079369-0.2378769,1.2244797-0.4846191,1.8500557-0.7313156l0.0266762-0.0088196
		c0.1497269-0.0616837,0.3084869-0.1233673,0.45821-0.1850586c0.0262451-0.0176392,0.0615273-0.0264053,0.0791664-0.0352249
		c0.0352821-0.0176392,0.0529213-0.0352783,0.0881996-0.0440445c0.0881996-0.0352859,0.1850052-0.0705109,0.2732086-0.1057892
		c0.1497231-0.0616302,0.3084831-0.1233215,0.45821-0.1850052c0.0262451-0.0088196,0.0615234-0.0264587,0.0968056-0.0440445
		c0.0705605-0.0264587,0.1411209-0.0528717,0.2116814-0.08815c0.1230507-0.0440445,0.2555656-0.0969086,0.3876495-0.1497803
		c0.0701294-0.0264587,0.1406898-0.0616837,0.2112503-0.088089c0.009037,0,0.009037,0,0.009037,0
		c0.1144447-0.0440979,0.2202835-0.0969696,0.3347321-0.1498337l1.1629524-0.4757996
		c0.0795937-0.0352249,0.1587601-0.0616837,0.2379265-0.1057281c0.167366-0.0616913,0.3351593-0.1321945,0.5025253-0.2114716
		c0.0968056-0.0352783,0.2026482-0.0793228,0.3080559-0.1321869c0.1058426-0.0352325,0.2116814-0.0880966,0.3261261-0.1321945
		c0.3523712-0.1497803,0.7137794-0.2995605,1.0751839-0.4581604c0.1230507-0.0440445,0.2465324-0.1057358,0.3786163-0.1674194
		c0.4052925-0.176239,0.8196182-0.352478,1.2339439-0.5374832c0.0172119,0,0.0352821-0.0088196,0.0524902-0.0176392
		c0.1940422-0.0880966,0.3966866-0.1850586,0.5993347-0.2731552c0.1497231-0.0705032,0.3084831-0.1321945,0.45821-0.2114639
		c3.8859787-1.7182388,7.9302902-3.639122,12.0189133-5.7627106c2.8813553-1.4979019,5.7889557-3.1015854,8.670311-4.7934189
		c6.5027313-3.8241348,12.8910141-8.1593399,18.6537247-12.9968567
		C98.9664154,77.2272186,115.0915909,78.6546707,123.5153732,78.8132706z"/>
	<path class="st29" d="M119.3652191,82.179245c-2.2910538,1.7798691-5.1547699,3.8153076-8.5472565,5.9829407
		c-4.9874039,3.1809082-11.1377716,6.5997467-18.415802,9.7718964c-0.3966904,0.1761856-0.7929459,0.3524246-1.1982346,0.5198441
		c-0.0266724,0.0088196-0.0619583,0.0264587-0.0882034,0.0352783c-0.4848862,0.202652-0.9607391,0.3964767-1.4537964,0.5991745
		c-0.3880844,0.1585999-0.7757339,0.3171997-1.1633835,0.46698c-0.2202911,0.0969086-0.4315414,0.176239-0.651825,0.264328
		c-0.0090332,0-0.0176392,0.0088196-0.0266724,0.0088196c-0.1497269,0.0616913-0.2908478,0.1145554-0.4315414,0.1674194
		c-0.0529175,0.0264587-0.105835,0.0440445-0.1587601,0.0705109c-0.0791626,0.0264053-0.1497192,0.0528641-0.2288895,0.088089
		c-0.467247,0.176239-0.9340591,0.3436584-1.4099121,0.5198975c-0.0791702,0.0440445-0.167366,0.0705109-0.2555695,0.0969162
		c-0.5111313,0.1850586-1.0222626,0.3700638-1.5333939,0.5551224c-0.2112503,0.0793304-0.4315338,0.1585999-0.643219,0.2291031
		c-0.0881958,0.0352325-0.1850052,0.0705109-0.273201,0.0969162c-0.4229355,0.1497803-0.8458633,0.2907944-1.2687988,0.4405746
		c-0.2994461,0.1057281-0.607933,0.2026443-0.91642,0.3084259c-0.1144485,0.0352325-0.2379303,0.0704575-0.3523712,0.114502
		c-0.6165466,0.1938782-1.2425537,0.3965225-1.8681259,0.5904007c-0.1144485,0.0352325-0.2202835,0.0704575-0.3347321,0.1057358
		c-0.2641678,0.0880966-0.5373764,0.1674194-0.8019791,0.2466965c-0.4844589,0.149826-0.977951,0.2907867-1.4714355,0.440567
		c-1.0747604,0.3172531-2.1852188,0.6256332-3.2952576,0.9164276c-0.0090332,0-0.0090332,0-0.0176392,0
		c-1.083786,0.2819672-2.1766129,0.5638885-3.286644,0.82827c-1.6035233,0.3877106-3.2337265,0.7489548-4.8992081,1.0837936
		c-0.0968018,0.0088196-0.2026443,0.0352249-0.3084869,0.0528641c-0.45821,0.0969162-0.9073868,0.176239-1.3746338,0.2643356
		c-4.388073,0.8370972-8.8467102,1.4627228-13.3668709,1.8768387c-0.3437653,0.0352249-0.6871033,0.0705032-1.0394745,0.0969086
		c6.0707664-2.3526382,13.0407448-5.3132629,20.2310143-8.8907013c1.1276703-0.5463028,2.2643814-1.1278915,3.4010849-1.7182388
		c0.7843399-0.4053497,1.5682526-0.819458,2.3525848-1.2512054c0.3790512-0.2027054,0.7667007-0.4141693,1.1453171-0.6168137
		c0.0705566-0.0352249,0.132515-0.0705109,0.2026443-0.1057358c0.3966827-0.2114639,0.8019791-0.440567,1.1986618-0.6608582
		c0.1406937-0.0793228,0.2818146-0.1585999,0.4139023-0.2379227c1.0751801-0.5903473,2.1499329-1.2071609,3.2165146-1.8327942
		c0.0524902-0.0264053,0.0968018-0.0616302,0.1497269-0.088089c0.6432114-0.378891,1.3040695-0.7754135,1.9558945-1.171936
		c0,0,0,0,0.0090332,0c0.343338-0.2114639,0.6694641-0.4141159,1.0132294-0.6255798
		c0.4844589-0.2907944,0.9693451-0.5991669,1.4451981-0.9076004c0.1936035-0.1233749,0.3876495-0.2379303,0.5812607-0.3612442
		c0.1940384-0.1321945,0.3966827-0.2555695,0.5902939-0.3877106l0.5287704-0.3436584
		c4.3618317-2.819664,8.5825424-5.8948441,12.5210114-9.1991348
		C101.7776413,80.8575287,111.2146454,81.6858063,119.3652191,82.179245z"/>
	<path class="st13" d="M75.6873627,99.2818909c0.026413,0.8899612-0.2731476,1.823967-0.9604645,2.379097
		c-0.6784439,0.563942-1.7886963,0.6256256-2.4319687,0.0264053c0.0793304,1.0397949,0.1674194,2.0883026,0.2819748,3.1280975
		c-0.0087662,0-0.0087662,0-0.0175858,0c-1.0838394,0.2819214-2.1764526,0.5638962-3.2866974,0.8282776
		c-0.0969162-0.7313614-0.2026443-1.4627228-0.2995605-2.1852722c-0.1497803-1.1102448-0.299614-2.2204437-0.4582138-3.3306885
		c-0.0616837-0.4934387-0.1321335-0.9692917-0.1938248-1.4627304c-1.3393555,0.1850586-2.731575,0.0352783-3.9475555-0.5198441
		c-0.1761856-0.0793228-0.3524246-0.1674194-0.5110245-0.264328c-2.0090332-1.1895752-3.9475594-4.6876907-0.8723755-5.8860855
		c1.1102448-0.4317551,2.4055557-0.1938248,3.4188385,0.4318008c-0.907547-1.1102448-1.3040771-2.555336-1.4891357-3.9739609
		c-0.1321411-0.9340057-0.1761856-1.9032974,0.1410141-2.7844391c0.3171997-0.898735,1.0485611-1.6829605,1.9737549-1.8063354
		c0.8899612-0.1233749,1.7799225,0.3700638,2.3350449,1.0662003c0.55513,0.7049103,0.8370438,1.5772324,1.0485611,2.4407349
		c0.4405746,1.7975616,0.6255798,3.6567612,0.5638962,5.5071411c0.0440979-0.4846191,0.2202835-0.9692383,0.5022583-1.3569412
		c0.1145477-0.1585999,0.264328-0.3171997,0.4493866-0.3348389c0.3171997-0.0352249,0.5286636,0.3171997,0.6079941,0.6256332
		c0.0705032,0.264328,0.0969086,0.5463028,0.0705032,0.8282776c-0.0088196,0.2819672-0.0705032,0.5463028-0.1585999,0.8106308
		c0.2202911-0.4846115,0.5638962-0.9076004,1.0044632-1.2248001c0.1938782-0.1409607,0.4405746-0.2555084,0.6873169-0.2907333
		c0.2379303-0.0441055,0.46698-0.0088196,0.643219,0.1585999c0.1321945,0.1233139,0.2114639,0.2995529,0.2643356,0.4669724
		c0.2996063,0.8987885,0.2819672,1.9208908-0.0880966,2.7844467c-0.352478,0.8018112-1.0133362,1.471489-1.8151474,1.8063278
		c0.3612442-0.1145477,0.7577667-0.1057281,1.1190643,0.0088196c0.4317551,0.1321411,0.8106384,0.3964767,1.0485611,0.7665939
		C75.5728149,98.3302383,75.6697235,98.8149109,75.6873627,99.2818909z"/>
	<path class="st11" d="M75.6873627,99.2818909c0.026413,0.8899612-0.2731476,1.823967-0.9604645,2.379097
		c-0.6784439,0.563942-1.7886963,0.6256256-2.4319687,0.0264053c0.0793304,1.0397949,0.1674194,2.0883026,0.2819748,3.1280975
		c-0.0087662,0-0.0087662,0-0.0175858,0c-1.0838394,0.2819214-2.1764526,0.5638962-3.2866974,0.8282776
		c-0.0969162-0.7313614-0.2026443-1.4627228-0.2995605-2.1852722l2.5024185,0.819458v-3.3130493
		c0.6344452,0,1.3217087,0.1761856,1.9208832-0.0616913c0.5904007-0.2291031,1.0750198-0.819458,1.0397949-1.4539032
		c-0.0440979-0.5991745-0.5022583-1.0837936-0.9868774-1.4362717c-0.7578201-0.5551224-1.6477814-0.9251862-2.5729752-1.0749664
		c1.2864914-0.1321945,2.4319611-1.0309753,2.9782715-2.202858c0.3965225-0.8635559,0.4846115-1.8592529,0.2907867-2.8020248
		c0.2379303-0.0441055,0.46698-0.0088196,0.643219,0.1585999c0.1321945,0.1233139,0.2114639,0.2995529,0.2643356,0.4669724
		c0.2996063,0.8987885,0.2819672,1.9208908-0.0880966,2.7844467c-0.352478,0.8018112-1.0133362,1.471489-1.8151474,1.8063278
		c0.3612442-0.1145477,0.7577667-0.1057281,1.1190643,0.0088196c0.4317551,0.1321411,0.8106384,0.3964767,1.0485611,0.7665939
		C75.5728149,98.3302383,75.6697235,98.8149109,75.6873627,99.2818909z"/>
	<path class="st28" d="M85.615654,84.3816376l26.4529953,2.9760132c-3.1925354,2.7180405-6.7578812,4.8857956-10.8082199,6.337677
		L78.06353,89.2018738L85.615654,84.3816376z"/>
	<g>
		<path class="st0" d="M93.1339874,83.9499817c0,0-0.8106384,2.1588058-0.9780579,2.2293167
			c-0.1585999,0.0616837-3.5333939,0.3083801-3.5333939,0.3083801s-0.1145477-2.9606323-0.176239-4.484993l0.0705109-0.0088196
			l3.8682327-0.5110779l0.1233139,0.7313614l0.1321945,0.378891L93.1339874,83.9499817z"/>
		<path class="st1" d="M92.6405487,82.5930405c-1.8239746-0.1145554-4.1766129-0.2907944-4.1766129-0.2907944l0.0528717-0.3083801
			l3.8682327-0.5110779l0.1233139,0.7313614L92.6405487,82.5930405z"/>
		<path class="st21" d="M94.1281128,84.069252l0.7515335,2.5932465c-0.2354507,0.9256744-2.6202316,2.2444382-2.6202316,2.2444382
			l-0.320549-0.5877914l-1.9220352,1.5736084c-0.7441559,0.6046143-1.6182938,1.0347519-2.5515289,1.2609634l-3.0786972,0.7242584
			c-0.3798065,0.0924301-0.7491226-0.1453094-0.8311844-0.5193329l-0.193367-0.8809738
			c-0.0889511-0.3985138,0.0401535-0.8071823,0.3434906-1.0718994l1.2704773-1.1372452l2.2571716-2.0331421l0.8854599-2.4047241
			c0.1340561-0.3305283,0.4120255-0.5613937,0.7381439-0.6559067c0.1385651-0.0401611,0.2842331-0.0558243,0.4371796-0.0471191
			c0.3475952,0.0406799,0.6597519,0.2331009,0.8522415,0.5309296l0.436554,0.7132721l0.0126801,0.0139694l2.042778-1.4317398
			l-0.1499634-0.760994l0.7585754,0.7260284C93.6745758,83.1752396,93.9886703,83.588089,94.1281128,84.069252z"/>
		<path class="st12" d="M91.6646042,87.8204803l0.2739716,0.4980011l-1.9238892,1.5748444
			c-0.7429199,0.608078-1.6124191,1.0368195-2.5464554,1.2564468l-3.0841751,0.7288437
			c-0.374855,0.0889969-0.7452316-0.1454086-0.8258972-0.5187225l-0.0242538-0.1108246
			c0.1575089,0.1232681,0.3655014,0.1768875,0.5752182,0.1278839l3.0878067-0.729866
			c0.9340363-0.2196274,1.8034439-0.6483383,2.5463638-1.256424L91.6646042,87.8204803z"/>
		<path class="st12" d="M94.7165833,86.0993729l0.1627655,0.5616379c-0.2348938,0.9243393-2.62146,2.2444382-2.62146,2.2444382
			l-0.319313-0.5869675C91.9385757,88.3184814,93.6713638,87.1957092,94.7165833,86.0993729z"/>
	</g>
	<g>
		<path class="st0" d="M113.4883728,75.8346863c0,0-1.5067215,1.8239746-1.6565018,1.903244
			c-0.1586533,0.0793304-2.3262329-0.731308-2.3262329-0.731308l-0.8547363-1.5332336l-0.0440445-0.079277l-0.4757996-1.8591995
			l2.9782715-1.9825668l0.4493866-0.299614c0.1233215,0.3788834,0.3083801,0.8635025,0.5198441,1.3745804l0.0088196,0.0088196
			C112.6953735,74.125267,113.4883728,75.8346863,113.4883728,75.8346863z"/>
		<path class="st21" d="M108.9475098,77.8387146l1.4656372,2.2675247c0.8533707,0.4290161,3.4125748-0.5073471,3.4125748-0.5073471
			l-0.2337265-0.627388l2.4482956-0.4198456c0.9444046-0.1656036,1.8422623-0.5437317,2.6248703-1.100174l2.5651627-1.8501053
			c0.318779-0.2262268,0.3813553-0.6609573,0.15271-0.9681168l-0.5385132-0.7235489
			c-0.24263-0.3284149-0.6358719-0.4988251-1.0346222-0.4432907l-1.691658,0.2138824l-3.0150223,0.3716965l-2.3963928-0.9077606
			c-0.3374786-0.1154404-0.6940384-0.0568771-0.9791946,0.1274338c-0.1211624,0.0783157-0.2284927,0.1780396-0.3221741,0.2992554
			c-0.1971512,0.2891541-0.2564774,0.6510162-0.1577606,0.9916153l0.2524567,0.7972488l0.0022354,0.0187378l-2.4203262,0.6040344
			l-0.4763565-0.612114l0.0509796,1.0487823C108.5697098,76.9101639,108.6755676,77.4179916,108.9475098,77.8387146z"/>
		<path class="st12" d="M113.3952103,78.4375l0.1964722,0.5333557l2.4504471-0.4204483
			c0.9462128-0.1623917,1.8399734-0.5379333,2.6181259-1.0993042l2.5722198-1.8512344
			c0.3129425-0.2247238,0.3787308-0.6580811,0.149704-0.9637222l-0.0677872-0.0909653
			c-0.01017,0.1997528-0.1060333,0.3919754-0.2805099,0.5182114l-2.5753784,1.853302
			c-0.7781525,0.5613708-1.6718369,0.9368668-2.6180573,1.0992508L113.3952103,78.4375z"/>
		<path class="st12" d="M110.0947952,79.613945l0.317421,0.4910965c0.8519974,0.4285583,3.4133835-0.5082703,3.4133835-0.5082703
			l-0.2339172-0.6259155C113.5916824,78.9708557,111.6078873,79.5433426,110.0947952,79.613945z"/>
	</g>
	<polygon class="st1" points="112.0873795,72.6361313 108.6509018,75.4733887 108.6068573,75.3941116 108.1310577,73.5349121 
		111.1093292,71.5523453 112.0785599,72.6273117 	"/>
	<path class="st28" d="M58.8197556,99.2868805l12.3651276,5.8906555c-3.2839355,1.1980133-6.4880829,2.0770721-9.4676323,2.0596008
		l-9.1144218-5.1958771L58.8197556,99.2868805z"/>
	<path class="st0" d="M73.6249466,38.2110023l-0.0011749-0.007431l-1.3735809-1.1383171l0.509964-0.7725906
		c0.0779266-0.1340256,0.0670166-0.299675-0.0219803-0.4302483l-0.9772568-1.3756409
		c-0.1171265-0.1641808-0.3316269-0.2217407-0.5067444-0.1257439l-1.2631912,0.5791321l-0.3590088-0.3467674l0.1811981-1.7024307
		c0.0454559-0.2430229-0.0833511-0.4814758-0.312294-0.5824165c-0.0726395-0.0266075-0.1429443-0.038353-0.2109985-0.0352631
		c-0.2051697,0.0018082-0.4064102,0.1248093-0.480011,0.3341751l-0.7900085,2.0265312
		c-0.1955109,0.5015411-0.1086502,1.069294,0.22789,1.4894333l2.6280289,3.2808876l1.7812347,2.2306938l1.6591034,2.082531
		l0.3638229-0.0572281l-0.0665741-0.423233l1.1583481-0.1822014l-0.5536041-3.5195007L73.6249466,38.2110023z"/>
	<path class="st1" d="M74.7578506,40.6730118c-0.5635986,0.4310532-0.8428726,0.6880035-0.8428726,0.6880035
		s-0.6302719,0.1524048-1.2579651,0.2739906l-1.7812347-2.2306938c1.1810989-0.5205688,2.7479935-1.2007408,2.7479935-1.2007408
		l0.0011749,0.007431L74.7578506,40.6730118z"/>
	<line class="st4" x1="69.8631668" y1="35.0057869" x2="69.4089737" y2="35.2285271"/>
	<path class="st7" d="M84.1374969,33.5926857l-0.1497803,0.9692383c-0.1497803,0.92519-0.2026443,1.912117-0.46698,2.8108482
		c-0.2379227,0.7754097-0.1057281,1.7094193-0.1674194,2.5288773c-0.0176392,0.2555656-0.0440979,0.5110779-0.0705032,0.7578239
		c-0.2026443,1.9561119-0.5727615,3.9122772-1.2864914,5.7274284c-0.1497726,0.3877029-0.343605,0.7753563-0.6784363,1.0132828
		c-0.3701248,0.2731514-0.854744,0.3348389-1.3041306,0.2996101c-0.995697-0.0793266-1.9208832-0.528717-2.7579803-1.0838432
		c-0.1761856-0.105732-0.343605-0.2290497-0.5110245-0.3524246c-1.1102524-0.8018684-2.1411743-1.7270584-3.0575943-2.7491608
		c-0.2378769-0.2555656-0.4581604-0.5198975-0.6784439-0.7930489c-0.5992279-0.7401314-1.3217163-1.4538536-1.9121246-2.1235313
		c0.2027054-0.3172531,2.8108521-2.7932625,2.9694519-2.6522484c0.1057281,0.105732,0.2114639,0.2114639,0.3172531,0.3171959
		c0.6255722,0.6256332,1.2423859,1.2424431,1.8944244,1.8416138c0.7137222,0.6696243,1.4539032,1.3393021,2.2910004,1.8415604
		c0.079277-0.2643318,0.079277-0.537487,0.0704575-0.8106384c-0.0175858-1.7094193-0.0264053-3.4188385-0.0175858-5.1282578
		v-0.1497803c0-0.810688,0-1.6213264,0.0087662-2.4231415c0.0088196-0.7225456,0.0352783-1.4450893,0.5022583-2.0354404
		c0.528717-0.6696758,1.5244141-0.9781094,2.3438644-0.9164219C83.0713501,30.6056004,84.2608719,32.0066414,84.1374969,33.5926857z
		"/>
	<path class="st9" d="M80.951683,43.4248734l-0.2607574,0.4509659c-0.5203781,0.8999786-1.700058,1.1608429-2.5513916,0.5641937
		l-5.7212296-4.0096664l1.9649887-2.1676331c0.6255722,0.6256332,1.2423859,1.2424431,1.8944244,1.8416138
		c0.7137222,0.6696243,1.4539032,1.3393021,2.2910004,1.8415604c0.079277-0.2643318,0.079277-0.537487,0.0704575-0.8106384
		c-0.0175858-1.7094193-0.0264053-3.4188385-0.0175858-5.1282578v-0.1497803l2.167572,0.4757996l0.3967819,6.0894852
		C81.2087479,42.7724533,81.1272202,43.1212883,80.951683,43.4248734z"/>
	<path class="st0" d="M110.6785126,44.6079483c0.1478195,0.0653992,0.2493973,0.204464,0.2782211,0.3621979
		c0.0124969,0.068367,0.0144577,0.1386642-0.010025,0.2137909c-0.003212,0.011467-0.005455,0.0281982-0.0124054,0.0511627
		c-0.0251923,0.0698166-0.0691757,0.1268158-0.1192627,0.1794243c-0.1107025,0.1072044-0.275322,0.1589851-0.4330368,0.1280327
		l-2.341629-0.441597l-1.7189407,0.0804214c-0.8342743,0.0437965-1.643837-0.2810669-2.2219467-0.8873291l-2.4653015-1.5060043
		l2.1992645-2.4181824l1.7180939,1.4903717l0.8009567,0.6959648l2.1929855-0.4007797
		c0.2945404-0.0538292,0.5961838-0.0382996,0.8799515,0.0565872l2.2802277,0.7299957
		c0.1094971,0.0343208,0.2050018,0.0820808,0.2879868,0.1484489l0.0009613,0.0052643
		c0.22995,0.1590576,0.394783,0.4061127,0.4476318,0.6953201l-2.4277649,0.5144081l0.0073013,0.0094757l0.0051346-0.0009384
		L110.6785126,44.6079483z"/>
	<path class="st1" d="M110.8150406,45.4145241c-0.1107025,0.1072044-0.275322,0.1589851-0.4330368,0.1280327l-2.341629-0.441597
		l-1.7189407,0.0804214c-0.8342743,0.0437965-1.643837-0.2810669-2.2219467-0.8873291l-2.4653015-1.5060043l2.1992645-2.4181824
		l1.7180939,1.4903717l-0.6257248,2.5918884l2.9264069,0.1607971c0.059288,0.0032578,0.118042,0.0129013,0.1752625,0.0287666
		L110.8150406,45.4145241z"/>
	<path class="st7" d="M105.8841553,41.293869l-2.3350525,3.7360382l-2.1059418-1.4186287l-0.0616913-0.0440445l-4.846283-3.2338333
		c-0.1145554-0.0880928-0.2114639-0.1850052-0.290741-0.3083801l-2.4584198-4.0973358l-0.3700638-0.9692345l-0.2467499,0.0793228
		l-1.3217163,0.4405746l-0.1674194,0.0528641l-0.3788834,0.1233215l-1.2776108-3.8505917
		c-0.4934387-1.5067196,0.3260193-3.1456871,1.8327332-3.647892l0.6696777-0.229105
		c0.202652-0.0616875,0.4053497-0.1057339,0.5991745-0.123373c0.6168137-0.0616875,1.2159805,0.070507,1.735878,0.3700657
		c0.5991745,0.3260174,1.083786,0.8811417,1.3217163,1.5948658l3.5333939,7.4985371l4.5995407,3.0047264l0.616806,0.4052925
		l0.1321411,0.0793266l0.4229889,0.281971L105.8841553,41.293869z"/>
	<path class="st9" d="M105.4876328,41.0383568l-2.2381439,2.828434c0,0-4.6524048-4.564312-4.7405548-4.5731354l5.8067627,0.9781113
		l0.616806,0.4052925l0.1321411,0.0793266L105.4876328,41.0383568z"/>
	<path class="st8" d="M101.3800507,43.5682335l-4.8422546-3.2400551c-0.1181412-0.0816345-0.2181244-0.1829109-0.2884369-0.3004913
		l-1.2247162-2.031662l-1.2416992-2.0665054l-0.3686447-0.9760513l-0.245697,0.0829163l-1.3222809,0.437294l2.2842789-1.716301
		l0.219017-0.3770409c0.2406769-0.4080696,0.8518982-0.3350105,0.9888687,0.1182137l0.7750931,2.5757065l1.0460739,3.493576
		C97.1596527,39.5678329,99.6244736,41.8727455,101.3800507,43.5682335z"/>
	<path class="st0" d="M83.3869095,28.4980106c0,0,3.5471344-1.8729248,7.7901077-1.3306675
		c0,0,0.9700317,2.5512905,0.7791748,2.8965664c-0.1908646,0.3452759-3.4762497,1.8345566-3.7141495,1.8780327
		c-0.2379074,0.043478-3.9763107-1.0792503-3.9865417-1.1902523"/>
	<path class="st0" d="M80.592514,20.3071537l0.9705505,3.0371609c0.2733688,0.8554707,0.7556152,1.6266422,1.4066086,2.2437496
		c0.3806763,0.3614902,0.8609161,0.5734768,1.3538895,0.622263c0.0494919,0.007637,0.0974426,0.0100117,0.1453934,0.0123863
		l1.582283,4.9514942l3.4863663-1.1140919l-1.9633179-6.1439056c0.0973129-0.1195831,0.1694031-0.207365,0.1912537-0.2497406
		c0.0985107-0.2081604,0.159729-0.4222469,0.1927032-0.6508999c0.0448227-0.3207836,0.0153275-0.6530647-0.0855026-0.9685955
		l-1.8522797-5.7963924l-4.7483597,1.5173702C80.0222778,18.9098911,80.592514,20.3071537,80.592514,20.3071537z"/>
	<path class="st1" d="M86.8626556,19.6235657l0.5296783,1.6575489c0.0581131,0.1818504,0.1948853,0.3149681,0.3573837,0.3808784
		l-0.8167801-2.5559692C86.8387756,19.2539501,86.8045425,19.4417152,86.8626556,19.6235657z"/>
	<path class="st3" d="M88.5226746,20.9749374l-0.0175858,0.0088215l-0.5463028,0.229105l-0.7578278-1.6300926
		c0,0-0.088089,0.0088196-0.2290497,0.0088196c-0.0440979,0-0.1233749,0-0.1938782-0.0088196
		c-0.0528641,0-0.1145554-0.0088196-0.176239-0.0088196c-0.1057358-0.0176411-0.2202911-0.0352268-0.3260193-0.0528679
		c-0.176239-0.0440464-0.3612442-0.0969124-0.5374832-0.176239c-0.0528717-0.0264053-0.1057358-0.0616856-0.1585999-0.0880928
		c-0.0528641-0.0352802-0.1057358-0.0705051-0.1585999-0.1145515c-0.0440445-0.0352802-0.08815-0.0881481-0.1321945-0.1321945
		c-0.0264053-0.0352249-0.0528641-0.0792713-0.0792694-0.123373c-0.0176392-0.0264053-0.0264664-0.052866-0.0441055-0.0792713
		c-0.0528641-0.0969143-0.0792694-0.2026463-0.0969086-0.3260193c-0.0088196-0.070507-0.0175858-0.1410122-0.0088196-0.2202854
		v-0.0352802c0-0.0704536,0.0088196-0.1497803,0.0352783-0.2290516c0-0.0441017,0.0175858-0.0793266,0.0264053-0.123373
		c0.0088196-0.0528679,0.0264587-0.0881462,0.0352783-0.1321926l-3.8946915,1.2600269c0,0-0.6608505,1.4450874-0.3260117,2.3879166
		c-0.290741-0.2907925-0.5110245-0.6696758-0.6696777-1.0309219c-0.1497803-0.3612976-0.2114716-0.7225437-0.2555161-1.1102486
		c-0.0264053-0.1674194-0.0440445-0.3171978,0-0.4846172c0.0176392-0.0441017,0.1497803-0.4053459,0.2202835-0.4053459
		c-0.0176392-0.0088196-0.0264053-0.0088196-0.0440445-0.0176392c-0.0264587-0.0088215-0.0440445-0.0175877-0.0705032-0.0264072
		c-0.5727158-0.2379265-1.0837936-0.6256313-1.462677-1.1190681c-0.1585999-0.2026463-0.299614-0.4405727-0.3436584-0.696085
		c-0.0440445-0.2555656,0.0264053-0.5463037,0.2291031-0.7049026c0.3083801-0.2467461,0.7577744-0.1321936,1.1454773-0.0969667
		c0.3612442,0.0352802,0.7401886-0.0175867,1.0749664-0.1409597c0.5022583-0.1938791,0.9340134-0.528718,1.374588-0.8370962
		c0.2819672-0.1938257,0.5904007-0.3788853,0.9252396-0.4846182c0.1761856-0.0616865,0.3612442-0.0969124,0.5463028-0.0969124
		c0.5374832-0.0088205,1.1102524,0.3260183,1.2071609,0.8546829c0.3700638-0.4141111,0.8282776-0.8635035,1.3834-0.8194571
		c0.3965302,0.0352268,0.7313156,0.3260193,0.9868774,0.6343975c0.2907944,0.3348389,0.5374832,0.704957,0.731369,1.101429
		c0.555069,1.1102495,0.5903473,2.3086443,0.6167526,3.5245714C88.5314941,19.5299053,88.6284637,20.9485321,88.5226746,20.9749374z
		"/>
	<path class="st1" d="M84.6977615,26.9336376l-0.2277069-0.7125645c0.0678024,0.1682091,1.7398987-1.0672455,1.9110413-1.3024712
		c0.1106644-0.0695515,0.2287064,0.0774498,0.1369019,0.1704807C86.1244507,25.8459988,85.5274277,26.467329,84.6977615,26.9336376z
		"/>
	<path class="st4" d="M82.9629898,22.1227188l-0.2249222,0.5804005c-0.0587845,0.1516933,0.0179825,0.3221474,0.1705399,0.3786564
		l0.4093018,0.1516113"/>
	<path class="st7" d="M96.4647369,44.5188293c-3.2161942,2.273365-6.8288651,3.0752335-10.8468704,2.3879166
		c-0.3436584-0.0616875-0.6961365-0.1409607-1.0485611-0.2202873l-0.6784973-2.2645416l-0.3348389-1.1102486l-0.2643356-0.8635025
		l-0.7665863-2.5817451l-0.4582138-1.4979515l-0.5022583-1.6829605l-0.0792694-0.2379265l-1.762291-5.5423698l0.2555161-0.1674194
		l0.1233673-0.0793266l1.0309219-0.6696777l0.1850662-0.1233196l2.0706635-1.3745804
		c0.5903473,0.7313099,1.5684586,1.0573292,2.4936447,1.0661488c0.9340134,0.0088196,1.8415604-0.2555122,2.7315216-0.5639439
		c0.2731552-0.0969124,0.5463104-0.1850052,0.8106384-0.3083782c0.2026978-0.070507,0.3965225-0.1674194,0.5815887-0.2819729
		c0.0176392-0.0088196,0.0264053-0.0176411,0.0440445-0.0264072c0.0176392-0.0088196,0.0352249-0.0176392,0.0528641-0.0264587
		c0.4405746-0.2907925,0.7137222-0.748951,0.9340134-1.2512093c0.0264587-0.0616856,0.5815811,0.0792732,1.1895752,0.2555122
		c0.0264053,0,0.0616302,0.0088215,0.088089,0.0176411c0.0880966,0.0176392,0.1674194,0.0440464,0.2466965,0.0705051
		c0.5904007,0.1674194,1.1455231,0.343605,1.2424393,0.3700657c0.1674194,0.0440464-0.3436584,0-0.3348389,0.1674194
		c0,0,0.0705032,0.4141121,0.2026443,1.101429c0.1585999,0.8811436,0.4053421,2.2116776,0.6784973,3.7360363
		c0.2731552,1.5243607,0.5903549,3.2337799,0.8811417,4.8726959c0.4141159,2.3086433,0.8018188,4.4498138,1.0221024,5.7010231
		l0.0176392,0.0969124l0.1850586,1.0133362C96.4559097,44.5100632,96.4647369,44.5188293,96.4647369,44.5188293z"/>
	<polygon class="st9" points="95.1606064,42.4305229 83.8908081,44.421917 83.5559692,43.3116684 83.2916336,42.4481659 
		82.5250473,39.8664207 82.0668335,38.3684692 81.5645752,36.6855087 81.4853058,36.4475822 94.6848068,38.6504402 	"/>
	<path class="st5" d="M83.5527573,23.8106689c0.0253983-0.0375118,0.0507965-0.0750237,0.0835724-0.1149349
		c0.2735596-0.3268681,0.7010117-0.4116306,1.1100998-0.3987007c0.15065,0.0010204,0.2985992,0.0197334,0.4314957,0.0432434
		c0.0050049,0.0025501,0.0125656,0.0000916,0.0175705,0.0026398c0.0050125,0.0025501,0.0125656,0.0000896,0.0175705,0.0026398
		c0.1228867,0.0184116,0.2406082,0.0469608,0.3558426,0.0803967c0.0325928,0.0102863,0.0601807,0.0180225,0.0926514,0.0282459
		c0.0275879,0.0077381,0.0627289,0.0130157,0.0902252,0.0333176c0.0100174,0.0050983,0.0174866,0.0152035,0.017395,0.0277672
		c0.0074692,0.0101051,0.0024338,0.0199986,0.0047073,0.0276146c-0.0052185,0.0350227-0.0354156,0.0574837-0.0558395,0.084919
		c-0.0150757,0.0175438-0.0378418,0.0374832-0.0529785,0.0548439c-0.0430603,0.0474358-0.0860596,0.0947514-0.1291199,0.142189
		c-0.0531693,0.054903-0.1062775,0.1096859-0.1542511,0.167078c-0.0582657,0.0649185-0.1139145,0.1247082-0.169632,0.1846199
		c-0.0632095,0.0622482-0.118927,0.1221581-0.1770096,0.1870174c-0.0557098,0.0599117-0.1113663,0.1197014-0.1670227,0.179491
		c-0.0531616,0.054903-0.101265,0.1122341-0.1543045,0.1672001c-0.0431213,0.0472527-0.0860596,0.0947514-0.1291199,0.142189
		c-0.0379028,0.0373001-0.0683136,0.0722637-0.0987167,0.1072273c-0.0226974,0.0198174-0.0379028,0.0372982-0.0556564,0.0597878
		c0,0,0,0-0.0025482,0.0050087c-0.0126572,0.0124741-0.0707321,0.0773335-0.1313934,0.134573
		c-0.0582657,0.0649185-0.1139221,0.1247082-0.1139221,0.1247082
		C83.9389496,25.2794895,83.0728226,24.5553551,83.5527573,23.8106689z"/>
	<path class="st6" d="M84.2962952,25.1590424l-0.2344589-0.220068c-0.1072235-0.0987148-0.1134567-0.2719707-0.0148697-0.3792591
		l1.1309586-1.2194386c0.0050049,0.0025501,0.0125656,0.0000916,0.0175705,0.0026398
		c0.0050125,0.0025501,0.0125656,0.0000896,0.0175705,0.0026398c0.1228867,0.0184116,0.2406082,0.0469608,0.3558426,0.0803967
		c0.0325928,0.0102863,0.0601807,0.0180225,0.0926514,0.0282459c0.0275879,0.0077381,0.0627289,0.0130157,0.0902252,0.0333176
		c0.0100174,0.0050983,0.0174866,0.0152035,0.017395,0.0277672c0.0074692,0.0101051,0.0024338,0.0199986,0.0047073,0.0276146
		c-0.0052185,0.0350227-0.0354156,0.0574837-0.0558395,0.084919c-0.0150757,0.0175438-0.0378418,0.0374832-0.0529785,0.0548439
		c-0.0430603,0.0474358-0.0860596,0.0947514-0.1291199,0.142189c-0.0531693,0.054903-0.1062775,0.1096859-0.1542511,0.167078
		c-0.0582657,0.0649185-0.1139145,0.1247082-0.169632,0.1846199c-0.0632095,0.0622482-0.118927,0.1221581-0.1770096,0.1870174
		c-0.0557098,0.0599117-0.1113663,0.1197014-0.1670227,0.179491c-0.0531616,0.054903-0.101265,0.1122341-0.1543045,0.1672001
		c-0.0431213,0.0472527-0.0860596,0.0947514-0.1291199,0.142189c-0.0379028,0.0373001-0.0683136,0.0722637-0.0987167,0.1072273
		c-0.0226974,0.0198174-0.0379028,0.0372982-0.0556564,0.0597878c0,0,0,0-0.0025482,0.0050087
		C84.4150314,25.0369434,84.3569565,25.1018028,84.2962952,25.1590424z"/>
	<path class="st0" d="M86.7928772,19.3995972l0.5296478,1.6574535c0.1041412,0.3258953,0.4524078,0.5054817,0.7782974,0.4013405
		c0.3258896-0.1041393,0.5054779-0.452404,0.4013367-0.7782974l-0.5296478-1.6574554
		c-0.0520706-0.1629467-0.1651077-0.288702-0.3057632-0.3616123c-0.140976-0.0723171-0.3094406-0.0913277-0.4723816-0.039257
		C86.8684769,18.7259102,86.6888885,19.074173,86.7928772,19.3995972z"/>
	<path class="st1" d="M87.1364441,19.3002605l0.1640244,0.5133095l0.5405731,0.0689697l-0.2341156-0.732626
		c-0.0410004-0.1283283-0.1820908-0.2010784-0.3104172-0.1600723
		C87.1681824,19.0308495,87.0954361,19.1719341,87.1364441,19.3002605z"/>
	<path class="st1" d="M88.0016556,20.3851433l-0.5319824-0.042078l0.1537704,0.4811935
		c0.041008,0.1283283,0.1820908,0.2010784,0.3104172,0.1600723c0.1283264-0.041008,0.2010803-0.1820927,0.1600723-0.3104191
		L88.0016556,20.3851433z"/>
	<line class="st18" x1="99.7167358" y1="37.2635117" x2="98.8833542" y2="37.796524"/>
	<line class="st19" x1="78.5715332" y1="41.9473267" x2="79.3797455" y2="42.9175682"/>
	<path class="st11" d="M112.4391251,72.4426193l-4.3966751,2.4495544l-2.1323013-6.4587936l-2.9519119-8.9347496
		l-8.7761536-3.9475594l-1.0485077,26.3197403l-4.8286438,0.4493866l-0.5730896,0.0528717l-2.0264587-22.0638046
		l-1.1367035-12.291954l-0.008606-0.1057358l-0.299881-2.2380829l11.9750214-2.6787109l0.1230545,0.8547401l0.1497269,1.013279
		l0.8811417,0.7490044l9.5075684,8.0360222c0.6875305,0.5903511,1.1810226,1.3834,1.4013062,2.2645416l3.5860977,14.3273926
		L112.4391251,72.4426193z"/>
	<path class="st12" d="M96.3406296,43.8671074l-8.5052414,2.2545242c-1.2556915,0.3328552-2.0968628,1.5075989-2.0018082,2.8031769
		c0.4668579,6.3628693,1.814682,24.7086525,2.4713516,33.3953896l-0.5730896,0.0528717l-2.0264587-22.0638046l-1.1367035-12.291954
		l-0.008606-0.1057358l-0.299881-2.2380829l11.9750214-2.6787109l0.1230545,0.8547401L96.3406296,43.8671074z"/>
	<path class="st12" d="M105.9105606,68.4330597l-2.9518051-8.9347992l-8.776207-3.9475021l-0.234375-1.2264977
		c-0.159935-0.8369522,0.7382507-1.4741211,1.4753342-1.0465927l8.3546982,4.8460121L105.9105606,68.4330597z"/>
	<path class="st111" d="M31.748785,126.8517075c-0.0721455-2.904541,1.8863392-5.7477112,4.625864-6.7154541
		c2.3642807-0.8351974,4.9987297-0.3328629,7.3481789,0.5431976c2.3494453,0.8760529,4.5639038,2.1148605,6.9748726,2.8037796
		c4.4326859,1.2666016,9.4004555,0.5149536,13.260025-2.0062943c1.6355515-1.0684204,3.0740356-2.4315109,4.7784729-3.3862076
		c3.168129-1.7745438,7.1762619-1.961235,10.4956284-0.4888687c2.2850723,1.0135956,4.1946259,2.7311096,6.4472504,3.8149109
		c1.0864868,0.5227432,1.7637939,1.3858719,1.6152039,2.6867294c-0.3360291,2.9417419-4.8152466,2.7365646-7.0058823,2.9619751
		c-7.8322601,0.8059311-15.4829102,3.2064514-23.354393,3.3896637c-6.2147598,0.1446381-12.3686523-1.0985565-18.460701-2.3359222"
		/>
	<path class="st111" d="M84.7092514,133.1328278c-0.0512543-2.6623077,2.0548935-5.0564423,4.7567062-5.1688461
		c1.2770081-0.0531311,2.5492554,0.3893356,3.5932312,1.1266861c0.8553925,0.6041412,1.5825729,1.4075317,2.5365295,1.8395691
		c1.3615417,0.6166077,3.0847397,0.3216553,4.1636734-0.7127075c0.5742188-0.5504761,0.9580612-1.2650757,1.4378128-1.8995819
		c0.479744-0.6345062,1.1178055-1.2221146,1.9060822-1.3288193c0.8469772-0.1146545,1.6753845,0.3579254,2.2745667,0.9674301
		c0.5991821,0.6095123,1.0363312,1.3581238,1.5903091,2.0089874c1.1335678,1.3318176,2.7683792,2.2264099,4.5012054,2.4631195
		c-2.2589035,1.860611-5.2275238,2.6087494-8.1266174,3.0085297c-5.0064087,0.6903839-10.1176453,0.5015411-15.0859222,1.4272766"/>
	<g>
		<path class="st14" d="M55.3795776,108.2332535c-0.5752487,0.0833511-1.158844,0.1584091-1.7423897,0.2250671
			c-0.1500587,0.025032-0.3084641,0.0417252-0.4668655,0.0583649c-0.9838028,0.1167297-1.967556,0.2251129-2.9596519,0.3251495
			c-0.1833878,0.0166931-0.3668251,0.0333328-0.5502129,0.0500183c-0.1083832,0.0166931-0.2251129,0.0250397-0.3334999,0.0333328
			c-0.3501358,0.0333786-0.691925,0.0667114-1.0421143,0.0917435c-0.2917709,0.0249863-0.5835457,0.0500183-0.8753662,0.0750046
			c-1.0170822,0.0833969-2.0425568,0.1584015-3.0679855,0.2251129c-0.0416718,0-0.0916939,0.0083466-0.1417122,0.0083466
			c-0.166748,0.0083466-0.3334961,0.0166397-0.5085411,0.0333252c-0.5252304,0.0250397-1.0588074,0.0583649-1.5923805,0.0834045
			c-0.3001175-0.5919418-0.5085411-1.2172089-0.6252708-1.8508301c-0.0166893-0.1000366-0.033329-0.1917267-0.0500183-0.2834778
			c-0.0416756-0.2667313-0.0583649-0.525177-0.0667114-0.7836227c-0.033329-0.9254379,0.1167297-1.8424759,0.4335365-2.7094955
			c0.0500221-0.150116,0.1083832-0.2918243,0.166748-0.4335403c0.5252304-1.2005157,1.3839111-2.2676697,2.5510979-3.0513458
			l1.6506958-1.1087723l0.1584053,0.2334061c0.6503029-0.2084198,1.3172493-0.3251495,1.9841919-0.3417892
			c0.1500587-0.0083466,0.3084641-0.0083466,0.4585228,0c1.1838799,0.0416718,2.351017,0.3751678,3.3764458,0.9837494
			c0.0833969,0.0500183,0.166748,0.1000366,0.2418022,0.1500626c0.5418701,0.3501358,1.0337715,0.766983,1.467308,1.2588806
			c0.1917343,0.2000809,0.3584824,0.4251938,0.5252304,0.6585999c0.0249825,0.0333786,0.0500183,0.0667114,0.0750046,0.1000366
			c0.0250359,0.0416794,0.0416718,0.075058,0.0667076,0.1083832c0.5252304,0.8087082,0.8586769,1.6757355,1.0254288,2.5677948
			c0.0166893,0.0916901,0.0333786,0.1833878,0.0500183,0.2834244
			C55.73806,106.2323761,55.6630554,107.2577972,55.3795776,108.2332535z"/>
		<g>
			<g>
				<path class="st15" d="M48.763237,99.1153488l-6.9746094,4.6961594c0.0510025-0.1466599,0.1085396-0.2883606,0.1710663-0.4271774
					l6.3434448-4.2711792C48.4552803,99.1074295,48.6081696,99.1074448,48.763237,99.1153488z"/>
			</g>
			<g>
				<path class="st15" d="M52.3796082,100.2464447l-10.9030762,7.3412781
					c-0.0191193-0.0932159-0.0345802-0.1857529-0.0501022-0.2782593l10.7119942-7.212616
					C52.2205048,100.1445389,52.3003769,100.1937027,52.3796082,100.2464447z"/>
			</g>
			<g>
				<path class="st15" d="M54.5125542,102.3723679l-0.3084602,0.2084274l-0.9087486,0.6086273l-2.3009987,1.5506592
					l-0.1917343,0.1333694l-0.8003654,0.5419159l-0.1917305,0.1250229l-3.5598869,2.4010468l-1.9508095,1.3172455
					l-0.1000404,0.0667114c-0.166748,0.0083466-0.3334961,0.0166397-0.5085411,0.0333252l0.4668655-0.316803l1.9508133-1.3172531
					l3.1013641-2.0842285l0.1750412-0.1166763l1.0504608-0.7170181l0.1917343-0.1250229l2.5261154-1.7007141l0.9086952-0.6086349
					l0.3085136-0.2084198c0.0249825,0.0333786,0.0500183,0.0667114,0.0750046,0.1000366
					C54.4708824,102.3056641,54.4875183,102.3390427,54.5125542,102.3723679z"/>
			</g>
			<g>
				<path class="st15" d="M55.5880013,105.223587l-0.6585999,0.4418793l-0.9004021,0.6085815l-2.1759262,1.4589615
					l-0.2000771,0.1334229l-0.2251129,0.1500549l-0.1833878,0.1333694l-1.0338249,0.6919785
					c-0.1833878,0.0166931-0.3668251,0.0333328-0.5502129,0.0500183l1.4339256-0.9670563l0.1917839-0.1250763l0.2250633-0.1500626
					l0.1917839-0.1334152l2.3426743-1.5756454l0.9004021-0.6002808l0.5918922-0.4001541
					C55.5546722,105.0318527,55.5713615,105.1235504,55.5880013,105.223587z"/>
			</g>
		</g>
		<path class="st15" d="M56.6968269,108.0498199c-0.4335365,0.0667038-0.8753662,0.1250687-1.3172493,0.1834335
			c-0.5752487,0.0833511-1.158844,0.1584091-1.7423897,0.2250671c-0.1500587,0.025032-0.3084641,0.0417252-0.4668655,0.0583649
			c-0.9838028,0.1167297-1.967556,0.2251129-2.9596519,0.3251495c-0.1833878,0.0166931-0.3668251,0.0333328-0.5502129,0.0500183
			c-0.1083832,0.0166931-0.2251129,0.0250397-0.3334999,0.0333328c-0.3501358,0.0333786-0.691925,0.0667114-1.0421143,0.0917435
			c-0.2917709,0.0249863-0.5835457,0.0500183-0.8753662,0.0750046c-1.0170822,0.0833969-2.0425568,0.1584015-3.0679855,0.2251129
			c-0.0166893-0.0166931-0.0249825-0.0333328-0.0416718-0.0583649c-0.0250359-0.0333328-0.0500221-0.075058-0.075058-0.1083832
			c-0.0249825-0.0333328-0.0500183-0.0750046-0.066658-0.1083832c-0.5252304-0.8003159-0.8670731-1.6673889-1.0338211-2.5594482
			v-0.0083389c-0.0166397-0.0916977-0.033329-0.1833878-0.0500183-0.2750854c0-0.0083466,0-0.0083466,0-0.0083466
			c-0.0166397-0.1000366-0.0249863-0.1917343-0.033329-0.2917709c-0.1167297-1.0838394,0.025032-2.1759796,0.3918114-3.1930542
			c0.0500679-0.1500626,0.1083832-0.2918243,0.1750908-0.4335403c0.5252304-1.2005157,1.3839607-2.2676163,2.5510979-3.0512924
			c3.1096611-2.0925751,7.2781219-1.4256363,9.5707779,1.4506149c0.1250763,0.1500626,0.241806,0.3168106,0.358532,0.4835587
			C57.5138283,103.2727737,57.6555939,105.8738937,56.6968269,108.0498199z"/>
		<path class="st14" d="M54.9460907,105.3403168c0,0.1083832-0.0083427,0.2167664-0.0166893,0.3251495
			c-0.1167297,1.0254288-0.5585594,2.0175247-1.2922134,2.7928543c-0.1500587,0.025032-0.3084641,0.0417252-0.4668655,0.0583649
			c-0.9838028,0.1167297-1.967556,0.2251129-2.9596519,0.3251495c-0.1833878,0.0166931-0.3668251,0.0333328-0.5502129,0.0500183
			c-0.1083832,0.0166931-0.2251129,0.0250397-0.3334999,0.0333328c-0.3501358,0.0333786-0.691925,0.0667114-1.0421143,0.0917435
			c-0.2917709,0.0249863-0.5835457,0.0500183-0.8753662,0.0750046c-0.4335365-0.3084641-0.8336945-0.6919327-1.1588478-1.1504974
			c-0.0249825-0.0333328-0.0500183-0.0750046-0.0750008-0.1083908c-0.0250359-0.0333252-0.0500221-0.0750046-0.0667114-0.1083832
			c-0.5418701-0.8419876-0.7753296-1.7924042-0.7419968-2.7261353c-0.008297-0.0083466-0.008297-0.0166931,0-0.0250397
			c0-0.0083466,0-0.0083466,0-0.0083466c0-0.1083298,0.0083427-0.216713,0.0166893-0.3167572c0-0.0083389,0-0.0083389,0-0.0083389
			c0.1333656-1.1838837,0.700325-2.3176956,1.6590385-3.134697c0.133419-0.1250763,0.2834778-0.2334595,0.4335365-0.3334961
			c1.2255058-0.8253479,2.6844673-1.0087357,3.9933701-0.625267h0.0083466
			c0.1083832,0.025032,0.2084236,0.0583649,0.3084602,0.1000366c0.6169281,0.2167664,1.1921768,0.558609,1.6757317,1.0254745
			c0.2167702,0.2084274,0.4251938,0.4418335,0.600235,0.7002716c0.0250359,0.0333862,0.0500717,0.0667114,0.0750542,0.1000443
			c0.0250359,0.0333786,0.0500221,0.0667114,0.0667114,0.1083832
			C54.7543068,103.4311752,54.9961128,104.3982391,54.9460907,105.3403168z"/>
		<path class="st17" d="M54.0456886,105.9405975c0,0.1083908-0.0083427,0.216774-0.0166893,0.3334503
			c-0.0916939,0.8003616-0.3751717,1.5756912-0.8586769,2.2426376c-0.9838028,0.1167297-1.967556,0.2251129-2.9596519,0.3251495
			c-0.1833878,0.0166931-0.3668251,0.0333328-0.5502129,0.0500183c-0.1083832,0.0166931-0.2251129,0.0250397-0.3334999,0.0333328
			c-0.3501358,0.0333786-0.691925,0.0667114-1.0421143,0.0917435c-0.2917709,0.0249863-0.5835457,0.0500183-0.8753662,0.0750046
			c-0.4335365-0.3084641-0.8336945-0.6919327-1.1588478-1.1504974c-0.0249825-0.0333328-0.0500183-0.0750046-0.0750008-0.1083908
			c-0.0250359-0.0333252-0.0500221-0.0750046-0.0667114-0.1083832c-0.5418701-0.8419876-0.7753296-1.7924042-0.7419968-2.7261353
			c-0.008297-0.0083466-0.008297-0.0166931,0-0.0250397c0-0.0083466,0-0.0083466,0-0.0083466
			c0-0.1083298,0.0083427-0.216713,0.0166893-0.3167572c0-0.0083389,0-0.0083389,0-0.0083389
			c0.1333656-1.1838837,0.700325-2.3176956,1.6590385-3.134697c1.1171722-0.5835953,2.3760567-0.6836319,3.5265579-0.3584824
			h0.0082932c0.1083832,0.0333328,0.2001266,0.066658,0.3084602,0.1083832
			c0.5419235,0.1917343,1.0504608,0.4835052,1.5006905,0.8753662c0.2834244,0.2417526,0.5418701,0.5252304,0.766983,0.8503876
			c0.0249825,0.0333252,0.0500183,0.066658,0.0750008,0.1000366c0.0250359,0.0333328,0.0500717,0.066658,0.0667114,0.1083832
			C53.8456116,104.0397568,54.0873642,104.9985275,54.0456886,105.9405975z"/>
		<g>
			<path class="st14" d="M51.522583,105.40979c0.3512344,0.5216446,0.3180046,1.2553558-0.2873154,1.8251724l0.4625359,0.6869431
				l-0.4164467,0.2804031l-0.4495239-0.6676178c-0.3865089,0.2508774-0.8631134,0.4001923-1.2041245,0.3895645l-0.1410522-0.5477371
				l0.1889381-0.1272125c0,0,0.040432,0.0507736,0.0816116,0.1072922c0.2826004-0.0436554,0.5943413-0.150589,0.871273-0.337059
				c0.4701118-0.3165359,0.6035461-0.7994919,0.3505974-1.1751633c-0.2442741-0.362793-0.6536331-0.4147491-1.2739143-0.2841339
				c-0.8518829,0.1898346-1.4735794,0.1654053-1.8609467-0.4099045c-0.3685799-0.5474091-0.2582779-1.226944,0.2827072-1.734726
				l-0.4480743-0.6654663l0.4079018-0.2746506l0.4307327,0.6397095c0.4057808-0.2545013,0.7471428-0.3314743,1.0147858-0.3463211
				l0.0541916,0.2380676c0.0813713,0.0512772,0.2628593,0.1817932,0.2628593,0.1817932l-0.1889343,0.1272125
				c-0.1908455,0.0130615-0.5596199,0.0492172-0.9825134,0.3339615c-0.5087929,0.3425751-0.4946289,0.7760696-0.3168373,1.0401154
				c0.2312622,0.3434677,0.5916481,0.3504028,1.3237991,0.2006378
				C50.5518265,104.7093658,51.1265411,104.8216019,51.522583,105.40979z"/>
		</g>
		<g>
			<path class="st15" d="M51.7030144,107.516243l-0.2751312-0.4085007c0.6002846-0.5669098,0.6336136-1.30056,0.2834778-1.8257904
				c-0.1917839-0.2834244-0.4251938-0.458519-0.7170143-0.5418701c-0.108387-0.0333786-0.2334099-0.0500183-0.3668289-0.0583649
				c-0.2167168,0-0.4668655,0.0249863-0.7502937,0.0833511c-0.733654,0.1500549-1.1004791,0.1417618-1.325592-0.2000809
				c-0.1584053-0.2334061-0.1833878-0.5835953,0.1417656-0.9004059c0.0166359-0.0249786,0.0416718-0.0416718,0.066658-0.0583115
				c0.0083427-0.0083466,0.0166893-0.0166855,0.0333786-0.025032c0.0166397-0.0166931,0.0249863-0.0250397,0.0416756-0.0250397
				c0.0083427-0.0166397,0.0249825-0.0249786,0.033329-0.0333252c0.4168472-0.283432,0.7920189-0.3251572,0.9837494-0.3334503
				l-0.1333656-0.5502625c-0.2667885,0.0166855-0.6085815,0.0916901-1.0087891,0.3501358l-0.1250229-0.1833878l-0.1501083-0.2167664
				l-0.1583519-0.2417526l-0.1917839,0.1250229l-0.2167702,0.1500549l0.1584053,0.241806l0.1500587,0.2167664l0.1417618,0.2084274
				c-0.2251129,0.216713-0.3835144,0.458519-0.4502258,0.7086182c-0.1000366,0.3501358-0.0416756,0.7086182,0.166748,1.0254211
				c0.3001175,0.4502258,0.7586899,0.5669098,1.3505783,0.5002518c0.1584053-0.0166931,0.3251534-0.0500259,0.5085411-0.0917511
				c0.0417252-0.0082932,0.0750542-0.0166397,0.1083832-0.0166397c0.5586128-0.1083832,0.9337349-0.0333786,1.1671906,0.3001175
				c0.2500992,0.3751755,0.1167297,0.8587341-0.3501358,1.1754837c-0.0333786,0.0250397-0.0667076,0.0417252-0.1083832,0.0583649
				c-0.3418427,0.2084274-0.7253075,0.3001709-1.0337715,0.3001709l0.1417122,0.5502167
				c0.3417931,0.0083466,0.8170052-0.141716,1.2005196-0.3918152l0.2667885,0.3918152l0.141716,0.2167664l0.0416718,0.0583649
				l0.2251129-0.1500549l0.1917343-0.1334229l-0.033329-0.0583649L51.7030144,107.516243z"/>
		</g>
	</g>
	<polygon class="st21" points="60.1263504,82.7956848 58.6636772,97.7575302 58.6636772,97.7927551 45.3672028,91.4132919 
		50.9008102,88.0296783 44.2305489,79.2182465 37.4897842,82.249382 35.031414,77.6410217 30.5904732,69.2966232 
		30.9341316,69.6138153 36.6527405,74.9623642 39.1992035,77.3414078 48.2309189,73.0590668 54.5222931,86.3378983 	"/>
	<path class="st35" d="M62.2992172,97.4869461c-0.600235,0.1083832-3.5765228,0.700325-3.5765228,0.700325l-0.9337311,0.9253845
		c0,0,0.7003212-1.2672272,0.7503433-1.2922134c0.5168839-0.2334595,1.0337715-0.4752121,1.5506554-0.7253571
		c-0.133419,0.2751312-0.2251129,0.4669113-0.2418022,0.4752045C59.8064842,97.5869827,61.7990227,97.5369644,62.2992172,97.4869461
		z"/>
	<path class="st13" d="M70.6574326,81.8851242c0.5500946,0.0714035,1.0175705,0.4436188,1.3730316,0.8694687
		c0.8190308,0.9812088,1.079689,2.2518311,0.8211823,3.4975891c-0.1087799,0.5242081-0.3759155,1.0349808-0.8193359,1.3349915
		c0.3066635-0.5343399,0.1928482-1.2084732-0.0070419-1.7912369c-0.1432495-0.4176254-0.3292313-0.8268967-0.6102142-1.1674576
		c-0.402298-0.4876099-0.9737473-0.8056793-1.4142151-1.2590942C69.3979568,82.7487793,69.7132797,81.7626266,70.6574326,81.8851242
		z"/>
	<path class="st13" d="M69.7683487,79.569191c0.3209-0.1945114,0.7251434-0.1951523,1.0928268-0.1201477
		c0.8471832,0.172821,1.521431,0.7343597,1.9107742,1.5019608c0.1638336,0.3230057,0.2382889,0.7057648,0.1305923,1.0515594
		c-0.0635223-0.411911-0.4083099-0.7201767-0.7600098-0.9438019c-0.2520523-0.1602554-0.5231476-0.2980499-0.8154526-0.3594284
		c-0.4185181-0.0878677-0.8548508-0.0147171-1.2791061-0.0683975C69.4672928,80.557457,69.2175827,79.9030838,69.7683487,79.569191z
		"/>
	<path class="st13" d="M64.1389008,82.8128738c-0.3728752,0.0421677-0.6932259,0.2887268-0.9384041,0.5728149
		c-0.5649147,0.6545639-0.7553825,1.5111084-0.5944023,2.3566132c0.0677376,0.3557816,0.2427368,0.7042465,0.5393257,0.912117
		c-0.2014771-0.3648453-0.1169815-0.8195648,0.0247154-1.2115173c0.1015472-0.2808838,0.2319031-0.5556412,0.4257507-0.7828674
		c0.2775459-0.3253403,0.6676178-0.534111,0.9706039-0.8358994C64.9811859,83.4110794,64.7788925,82.7405319,64.1389008,82.8128738z
		"/>
	<g>
		<path class="st34" d="M58.6902885,21.6610756c0.7984047,3.0998535,4.5442657,4.8097954,8.3638115,3.826025
			c1.5463867-0.3982906,2.8651428-1.178648,3.8415222-2.1672306l3.6115494,0.8935223c0,0-1.274231-1.9970264-2.1150742-3.2849998
			c0.311203-0.9160442,0.3739243-1.8820457,0.1298141-2.8298206c-0.7965546-3.0926771-4.5353012-4.8044996-8.3548889-3.8207178
			C60.347477,15.2616253,57.8937302,18.5683994,58.6902885,21.6610756z"/>
	</g>
	<text transform="matrix(0.99879 -0.04924 0.04924 0.99879 64.4459763 23.3106346)" class="st20 st112 st113">!</text>
	<path class="st13" d="M93.1339874,52.9601936l0.2026443,10.3798904l-2.2500534-1.1457901
		c-1.7196274-0.8756866-2.8680038-2.5742302-3.0399399-4.4963074l-0.8935394-9.9891853l4.0293503-0.7438736
		C91.3939133,48.0839996,92.4724426,51.1932526,93.1339874,52.9601936z"/>
	<path class="st13" d="M111.8847351,70.2393951l-4.846283-1.8063354l-2.3499832-9.684536
		c-0.1771164-0.7299385-0.6288071-1.3635025-1.2611237-1.7689171l-6.0902863-3.9048615l-3.7624969-6.7495308l3.815361-0.7137222
		l9.507515,8.0360184c0.6873169,0.5903511,1.1807556,1.3834,1.4010391,2.2645454L111.8847351,70.2393951z"/>
	<polygon class="st20" points="58.6636772,97.7575302 58.6636772,97.7927551 45.3672028,91.4132919 50.9008102,88.0296783 
		44.2305489,79.2182465 37.4897842,82.249382 35.031414,77.6410217 30.5904732,69.2966232 30.9341316,69.6138153 
		37.516243,79.5971832 44.6270752,77.2533112 52.3811226,88.0825424 48.7596359,90.5145035 	"/>
	<path class="st24" d="M83.9583588,16.3313503c-0.0528641,0.3788853-0.2290497,0.7401314-0.5198441,0.978056
		c-0.2202835,0.1850605-0.4934387,0.2907925-0.7577667,0.3788853c-0.4405746,0.1410141-0.8811417,0.2555656-1.3305359,0.3612995
		c-0.3788834,0.0969124-0.7578278,0.1938248-1.1367111,0.2819176l-0.0264053,0.0088215
		c-0.0264587-0.0088215-0.0440445-0.0175877-0.0705032-0.0264072c-0.5727158-0.2379265-1.0837936-0.6256313-1.462677-1.1190681
		c-0.1585999-0.2026463-0.299614-0.4405727-0.3436584-0.696085c-0.0440445-0.2555656,0.0264053-0.5463037,0.2291031-0.7049026
		c0.3083801-0.2467461,0.7577744-0.1321936,1.1454773-0.0969667c0.3612442,0.0352802,0.7401886-0.0175867,1.0749664-0.1409597
		c0.5022583-0.1938791,0.9340134-0.528718,1.374588-0.8370962c0.2819672-0.1938257,0.5904007-0.3788853,0.9252396-0.4846182
		c0.3171997,0.2643328,0.5638885,0.6079912,0.731308,0.9956961C83.9319534,15.5735807,84.0024643,15.9612865,83.9583588,16.3313503z
		"/>
	<g>
		<path class="st14" d="M91.1157227,98.4892044c-0.4848862,0.202652-0.9607391,0.3964767-1.4537964,0.5991745
			c-0.6083679,0.2466888-1.2249069,0.5022583-1.8418808,0.7401276c-0.2026443,0.0793304-0.3962555,0.1498337-0.5903015,0.2379303
			c-1.1190643,0.4229279-2.2643814,0.8459167-3.4277649,1.260025c-0.7223816,0.2643356-1.4447632,0.5110779-2.1852188,0.7665939
			c-0.2994461,0.1057281-0.607933,0.2026443-0.91642,0.3084259c-0.1144485,0.0352325-0.2379303,0.0704575-0.3523712,0.114502
			c-0.6165466,0.1938782-1.2425537,0.3965225-1.8681259,0.5904007c-0.1144485,0.0352325-0.2202835,0.0704575-0.3347321,0.1057358
			c-0.2641678,0.0880966-0.5373764,0.1674194-0.8019791,0.2466965c-0.0262451-0.026413-0.0438843-0.0528717-0.0701294-0.079277
			c-0.467247-0.5198975-0.8725357-1.1014252-1.1896286-1.7446976c-0.0529175-0.1057358-0.0968094-0.2114639-0.1411209-0.3171997
			c-0.2641678-0.5727081-0.449173-1.1895218-0.5636215-1.8415604c-0.018074-0.0528641-0.0266724-0.1057281-0.0352783-0.1674194
			c-0.0090408-0.0528641-0.0090408-0.1057281-0.0176392-0.1674194c-0.0882034-0.6520386-0.0972366-1.2953033-0.02668-1.9208832
			c0.0176392-0.1145554,0.02668-0.2291031,0.0529251-0.3436584c0.0176392-0.1145554,0.0352783-0.2291031,0.0615234-0.3348389
			c0.1148758-0.5903549,0.2908478-1.1542969,0.5378036-1.6917801c0.0529251-0.1233749,0.1144485-0.2467422,0.175972-0.3701172
			c0.4229355-0.819458,0.9783783-1.5595856,1.6478424-2.1852188c0.1587601-0.1409607,0.3170929-0.2819748,0.4844589-0.4141083
			c1.0399017-0.8282776,2.3086929-1.4010468,3.7186127-1.6213303c0.0438843-0.0088196,0.0968018-0.0176392,0.1411133-0.0176392
			c0-0.0088196,0-0.0088196,0-0.0088196l0.8897552-0.1321411l0.0090332,0.0088196l0.0262451,0.0616837
			c0.8901749-0.0264587,1.7446442,0.1057358,2.5552292,0.378891c0.1411209,0.0352249,0.2822418,0.0792694,0.4143219,0.1321335
			c0.1936111,0.0793304,0.3876572,0.1585999,0.5812607,0.2555695c2.2910614,1.083786,4.0180664,3.2514191,4.4323959,5.9477158
			C91.1157227,97.4318237,91.1419678,97.9693069,91.1157227,98.4892044z"/>
		<g>
			<g>
				<path class="st15" d="M86.5944824,90.9346085l-8.8165283,1.3621979
					c0.1541595-0.1461716,0.3164978-0.2833939,0.4831009-0.4145126l7.7509918-1.1975708
					C86.2104568,90.7594528,86.4033966,90.8417816,86.5944824,90.9346085z"/>
			</g>
			<g>
				<path class="st15" d="M87.4433594,92.7339325l0.0512924,0.3319473l-11.5450363,1.7837677
					c0.0554962-0.1241379,0.114563-0.2488327,0.1777344-0.3673325L87.4433594,92.7339325z"/>
			</g>
			<g>
				<path class="st15" d="M87.785965,94.9513397l0.0512848,0.3319473l-12.5342331,1.9365997
					c0.0123825-0.117485,0.025444-0.2316589,0.0449905-0.3468246L87.785965,94.9513397z"/>
			</g>
			<g>
				<path class="st15" d="M88.1280441,97.1654129l0.0512924,0.3319473l-12.8031311,1.9781494
					c-0.0114441-0.0526047-0.0201645-0.1090469-0.0288849-0.1654739c-0.0087128-0.056427-0.016922-0.1095505-0.0223999-0.1664734
					L88.1280441,97.1654129z"/>
			</g>
			<g>
				<path class="st15" d="M88.4985428,99.5553589c-0.2202911,0.0969086-0.4315414,0.176239-0.651825,0.264328l-11.7633438,1.815155
					c-0.0529175-0.1057358-0.0968094-0.2114639-0.1411209-0.3171997l12.5300446-1.9385223L88.4985428,99.5553589z"/>
			</g>
		</g>
		<path class="st15" d="M91.2039261,98.4539261c-0.0266724,0.0088196-0.0619583,0.0264587-0.0882034,0.0352783
			c-0.4848862,0.202652-0.9607391,0.3964767-1.4537964,0.5991745c-0.6083679,0.2466888-1.2249069,0.5022583-1.8418808,0.7401276
			c-0.2026443,0.0793304-0.3962555,0.1498337-0.5903015,0.2379303c-1.1190643,0.4229279-2.2643814,0.8459167-3.4277649,1.260025
			c-0.7223816,0.2643356-1.4447632,0.5110779-2.1852188,0.7665939c-0.2994461,0.1057281-0.607933,0.2026443-0.91642,0.3084259
			c-0.1144485,0.0352325-0.2379303,0.0704575-0.3523712,0.114502c-0.6165466,0.1938782-1.2425537,0.3965225-1.8681259,0.5904007
			c-0.9603119-1.0926056-1.62117-2.4584198-1.8590927-3.9916c-0.175972-1.1542969-0.0968018-2.2821274,0.1940384-3.3395157
			c0.7929459-2.8373032,3.1455307-5.1018524,6.2032852-5.665741c0.0705566-0.0176392,0.1497269-0.0352783,0.2288895-0.0440445
			c1.0132294-0.1586533,2.0002136-0.1145554,2.9428787,0.0969086c3.1016388,0.6872635,5.6043777,3.2161407,6.115509,6.5292511
			c0.0615311,0.4141617,0.0968094,0.8282776,0.0968094,1.2424393
			C92.0054703,98.1102676,91.6092148,98.2865067,91.2039261,98.4539261"/>
		<path class="st114" d="M79.6705856,102.7308655c-0.9978638-0.9887466-1.6992264-2.2942276-1.930191-3.789093
			c-0.5735321-3.7120209,1.970726-7.186142,5.6827545-7.7596741c3.7120209-0.5735245,7.1861496,1.9707336,7.7596741,5.6827545
			c0.0817337,0.5290375,0.1001511,1.0532379,0.0608749,1.5649033"/>
		<path class="st14" d="M87.0008545,100.1545258c-0.467247,0.176239-0.9340591,0.3436584-1.4099121,0.5198975
			c-0.0791702,0.0440445-0.167366,0.0705109-0.2555695,0.0969162c-0.5111313,0.1850586-1.0222626,0.3700638-1.5333939,0.5551224
			c-0.2112503,0.0793304-0.4315338,0.1585999-0.643219,0.2291031c-0.0881958,0.0352325-0.1850052,0.0705109-0.273201,0.0969162
			c-0.1054153-0.0352249-0.2026443-0.079277-0.2904205-0.1233749l0.167366-0.8899078l0.3609772-0.0616837
			c0,0,0.0266724,0.1057281,0.0443192,0.2114639c0.449173,0.1321411,0.9779434,0.1938248,1.5067139,0.1057281
			c0.0352859-0.0088196,0.0791702-0.0176392,0.1144485-0.0264587c0.8372574-0.1674194,1.3040771-0.7577667,1.2072678-1.4450302
			c-0.1144409-0.6961365-0.6698914-1.0573807-1.6654816-1.2864914c-1.3746338-0.3083801-2.2734146-0.7754059-2.4407806-1.8768387
			c-0.1583328-1.0573807,0.467247-1.9737473,1.6039581-2.3438187l-0.194046-1.2776642l0.361412-0.0528641v-0.0088196
			l0.4229279-0.0616913l0.1850052,1.2336273c0.7667007-0.0969696,1.3217163,0.0264053,1.7179718,0.1850052l-0.0791626,0.3877029
			c0.0705566,0.1145554,0.2116776,0.3701172,0.2465286,0.4317474l0.0090332,0.0088196c0,0.0088196,0,0.0088196,0,0.0088196
			l-0.3614044,0.0528717c-0.2555695-0.1057358-0.7309875-0.2643356-1.4008789-0.2114639
			c-0.0090332-0.0088196-0.0176392-0.0088196-0.0262451,0c-0.0795975,0.0088196-0.1587601,0.0176392-0.2379303,0.0264053
			c-0.9783783,0.1498337-1.2515793,0.793045-1.1719894,1.3041229c0.0968094,0.6608582,0.6165466,0.9163742,1.7885361,1.1983414
			c1.3922729,0.3260193,2.1589737,0.8899689,2.334938,2.0177994C87.1415482,99.4936676,87.1062698,99.837326,87.0008545,100.1545258
			z"/>
		<path class="st17" d="M85.0359268,100.8418427c-0.0882034,0.0088196-0.1678009,0.0264053-0.2469635,0.0264053
			c-0.6255798,0.0441055-1.2249069-0.0792694-1.6654816-0.2907333l-0.167366,0.8987274
			c0.0619583,0.0352783,0.132515,0.0616837,0.2026443,0.0793228c0.2116852-0.0705032,0.4319687-0.1497726,0.643219-0.2291031
			c0.5111313-0.1850586,1.0222626-0.3700638,1.5333939-0.5551224
			C85.2385712,100.8065643,85.1413345,100.8242035,85.0359268,100.8418427z M87.4500351,99.1059647
			c-0.175972-1.1278381-0.9426727-1.6917801-2.3263397-2.0177994c-1.1805954-0.2907944-1.7003326-0.5463028-1.7975693-1.2071609
			c-0.0791626-0.4846191,0.1678009-1.0926056,1.0489426-1.2688446c0.008606-0.0088196,0.0172119-0.0088196,0.0262451,0
			c0.0352783-0.0176468,0.0615234-0.0176468,0.0968018-0.0264664c0.8019791-0.1321335,1.3660278,0.0705109,1.6564484,0.1674194
			l0.0090332,0.0088196l0.1940384-0.8811417c-0.4052887-0.1585999-0.9607315-0.2819672-1.727005-0.1938248l-0.1854324-1.2248001
			l-0.3609772,0.0528641l-0.4229279,0.0616913v0.0088196l0.1936035,1.2776642
			c-1.1367035,0.3700638-1.7622833,1.286438-1.6035233,2.3349991c0.1763992,1.1102448,1.0661469,1.5684586,2.4407883,1.8768387
			c0.9955826,0.2379227,1.559639,0.5903473,1.6654739,1.2864838c0.0877762,0.55513-0.2030716,1.0573883-0.7666931,1.3128967
			c0.475853-0.176239,0.9426651-0.3436584,1.4099121-0.5198975c0.0791702-0.0352249,0.1497269-0.0616837,0.2288895-0.088089
			c0.0529251-0.0264664,0.1058426-0.0440521,0.1587601-0.0705109
			C87.4762802,99.7139587,87.4943466,99.4055786,87.4500351,99.1059647z"/>
	</g>
	<g>
		<path class="st14" d="M56.9976768,108.0055389c-0.0968056,0.0175858-0.2026443,0.0264053-0.2994499,0.0440521
			c-0.4319649,0.0705032-0.8725395,0.1233673-1.3217125,0.1850586c-0.5726585,0.0792694-1.1543503,0.1585999-1.736042,0.2202835
			c-0.0968056,0.0175858-0.1936111,0.0264053-0.2994499,0.0352249c-0.0529213,0.0176392-0.1144485,0.0176392-0.167366,0.0264053
			c-0.0529213,0.0088196-0.1144485,0.0088196-0.167366,0.0176392c-0.3876534,0.0440521-0.7666969,0.08815-1.1543503,0.1321945
			c-0.0968056,0.0088196-0.1940422,0.0264053-0.290844,0.0352249c-0.4491768,0.0528717-0.8987846,0.0969162-1.3479614,0.1410141
			c-0.1411209,0.0175858-0.290844,0.0264053-0.4319649,0.0440445c-0.0438881,0-0.0791664,0.0088272-0.1234818,0.0088272
			c-0.0791664,0.0087662-0.167366,0.0175858-0.2555656,0.0175858c-0.0262451,0.0088196-0.0438843,0.0088196-0.0701294,0.0088196
			h-0.009037c-0.1144447,0.0088196-0.2288895,0.0264587-0.3437653,0.0352249
			c-0.2288895,0.0264587-0.45821,0.0440979-0.6957092,0.0616837c-0.132515,0.0088196-0.2732048,0.0264587-0.4057198,0.0352783
			c-0.158329,0.0088272-0.3080559,0.0175934-0.4668159,0.0352325c-0.6169739,0.0528641-1.2425499,0.0969086-1.8590927,0.1497726
			c-0.3261261,0.0176468-0.6608582,0.0441055-0.9869843,0.0616913c-0.0705605,0.0088196-0.1497231,0.0088196-0.2202835,0.0176392
			c-0.0443153,0-0.0968056,0.0088196-0.1411209,0.0088196c-0.167366,0.0088196-0.3347321,0.0175858-0.5111313,0.0352249
			c-0.1230507,0-0.2379265,0.0088196-0.3609772,0.0176392c-0.4052925,0.0175858-0.8196182,0.0440521-1.2339439,0.0616913
			c-0.0438843,0-0.0791664,0-0.1230507,0.0088196c-0.1763992-0.4053497-0.3175201-0.8282776-0.4319649-1.2776718
			c-0.008606-0.0528641-0.0262451-0.1057281-0.0352821-0.1585999c-0.008606-0.0616837-0.0262451-0.1145477-0.0352783-0.1674194
			c-0.0877724-0.440567-0.1406898-0.8723755-0.1497269-1.3041229c-0.008606-0.202652-0.008606-0.4141159,0-0.6167603
			c0.009037-0.1145554,0.009037-0.2291031,0.0266762-0.3436584c0.0529213-0.7137222,0.2112503-1.4098587,0.45821-2.0618973
			c0.0529213-0.1321411,0.0968056-0.2555161,0.1583328-0.3788834c0.3614044-0.8459167,0.8725357-1.6212769,1.4981117-2.2909546
			c0.1411209-0.1585999,0.2994537-0.3084335,0.4491768-0.4493866c0.9869843-0.8987885,2.211895-1.550827,3.6041679-1.8680191
			c0.0438843-0.0088196,0.0968056-0.0176392,0.1406898-0.0264664l0.8725395-0.2026443l0.008606,0.0088196l0.0352783,0.0616913
			c1.0312996-0.08815,2.044529,0.0264053,2.9958,0.3171997c0.2030754,0.0616837,0.4057236,0.1321335,0.5993347,0.2114639
			c1.1281013,0.4493866,2.1413307,1.1454773,2.9605179,2.0442581c0.1234818,0.1321945,0.2379265,0.264328,0.3437653,0.4053421
			c0.7223854,0.9075546,1.2511559,1.9825745,1.5243607,3.1897354
			C57.2622795,105.7233582,57.2446404,106.8952942,56.9976768,108.0055389z"/>
		<g>
			<g>
				<path class="st15" d="M52.1685143,98.9011383l-8.7056351,1.9489975c0.1440315-0.1561508,0.2968292-0.3039322,0.4542847-0.4459
					l7.6535034-1.7134476C51.7736282,98.7520676,51.9716492,98.8213043,52.1685143,98.9011383z"/>
			</g>
			<g>
				<path class="st15" d="M53.1358757,100.6396408l0.0733795,0.327774l-11.3998299,2.5521698
					c0.0470695-0.1275787,0.0976601-0.2559357,0.1527634-0.3784027L53.1358757,100.6396408z"/>
			</g>
			<g>
				<path class="st15" d="M53.6260567,102.829155l0.0733833,0.327774l-12.3765831,2.7708435
					c0.0044975-0.1180496,0.0098877-0.2328491,0.0216866-0.3490601L53.6260567,102.829155z"/>
			</g>
			<g>
				<path class="st15" d="M54.1155052,105.0153885l0.0733833,0.327774l-12.6420975,2.8302841
					c-0.0149384-0.0517197-0.02742-0.10746-0.0398903-0.1631699c-0.0124741-0.0557175-0.0242195-0.1081696-0.0334892-0.1646042
					L54.1155052,105.0153885z"/>
			</g>
			<g>
				<path class="st15" d="M54.6803741,107.529686l-1.083786,0.2467499l-0.3614082,0.0792694l-0.8105812,0.176239
					l-0.3614082,0.0793304L47.8777618,109.0541c-0.158329,0.0088272-0.3080559,0.0175934-0.4668159,0.0352325
					c-0.6169739,0.0528641-1.2425499,0.0969086-1.8590927,0.1497726l6.5995369-1.4891281l0.3614082-0.079277l0.7490578-0.1674194
					l0.3609772-0.0793228l0.9869804-0.2202835L54.6803741,107.529686z"/>
			</g>
		</g>
		<path class="st15" d="M58.2311935,107.8116608c-0.4052925,0.0705109-0.810585,0.1321945-1.2244797,0.1938782h-0.009037
			c-0.0968056,0.0175858-0.2026443,0.0264053-0.2994499,0.0440521c-0.4319649,0.0705032-0.8725395,0.1233673-1.3217125,0.1850586
			c-0.5726585,0.0792694-1.1543503,0.1585999-1.736042,0.2202835c-0.0968056,0.0175858-0.1936111,0.0264053-0.2994499,0.0352249
			c-0.0529213,0.0176392-0.1144485,0.0176392-0.167366,0.0264053c-0.0529213,0.0088196-0.1144485,0.0088196-0.167366,0.0176392
			c-0.3876534,0.0440521-0.7666969,0.08815-1.1543503,0.1321945c-0.0968056,0.0088196-0.1940422,0.0264053-0.290844,0.0352249
			c-0.4491768,0.0528717-0.8987846,0.0969162-1.3479614,0.1410141c-0.1411209,0.0175858-0.290844,0.0264053-0.4319649,0.0440445
			c-0.0438881,0-0.0791664,0.0088272-0.1234818,0.0088272c-0.0791664,0.0087662-0.167366,0.0175858-0.2555656,0.0175858
			c-0.0262451,0.0088196-0.0438843,0.0088196-0.0701294,0.0088196h-0.009037
			c-0.1144447,0.0088196-0.2288895,0.0264587-0.3437653,0.0352249c-0.2288895,0.0264587-0.45821,0.0440979-0.6957092,0.0616837
			c-0.132515,0.0088196-0.2732048,0.0264587-0.4057198,0.0352783c-0.158329,0.0088272-0.3080559,0.0175934-0.4668159,0.0352325
			c-0.6169739,0.0528641-1.2425499,0.0969086-1.8590927,0.1497726c-0.3261261,0.0176468-0.6608582,0.0441055-0.9869843,0.0616913
			c-0.0705605,0.0088196-0.1497231,0.0088196-0.2202835,0.0176392c-0.0443153,0-0.0968056,0.0088196-0.1411209,0.0088196
			c-0.167366,0.0088196-0.3347321,0.0175858-0.5111313,0.0352249c-0.1230507,0-0.2379265,0.0088196-0.3609772,0.0176392
			c-0.2202873-0.4670258-0.3966866-0.9692841-0.5201683-1.4891281c-0.0176392-0.0528717-0.0348473-0.1057358-0.0438843-0.1585999
			c-0.0090332-0.0528717-0.0262451-0.1145554-0.0352783-0.1674194c-0.1058426-0.5022583-0.1497269-0.995697-0.1587601-1.4891357
			c0-0.1497803,0-0.2907944,0.0176392-0.4317551c-0.008606-0.1145477,0-0.2291031,0.0090332-0.3436584
			c0.0615273-0.7137222,0.2202873-1.4098587,0.475853-2.0618973c0.0438843-0.1321411,0.0881996-0.2555084,0.1497269-0.3788834
			c0.3614044-0.8458633,0.8635025-1.6212692,1.4981155-2.290947c0.1406898-0.1585999,0.2904129-0.3084335,0.449173-0.4493942
			c0.9250298-0.8459167,2.0707741-1.4803162,3.3658142-1.8063354c0.0795937-0.0264587,0.1587601-0.0440445,0.2379265-0.0616837
			c2.7845497-0.6168137,5.5514565,0.3083801,7.4105492,2.2116776c0.9955864,1.0132828,1.727005,2.3085938,2.0617371,3.7977219
			C58.5220375,105.4766617,58.4957924,106.6838303,58.2311935,107.8116608z"/>
		<path class="st16" d="M44.5648689,109.3007965c-0.290844-0.5110245-0.5111313-1.0661469-0.6522522-1.6565552
			c-0.0176392-0.0528641-0.0348473-0.1057281-0.0438843-0.1585999c-0.0090332-0.0528641-0.0262451-0.1145477-0.0352783-0.1674194
			c-0.1144447-0.563942-0.1497269-1.1278305-0.1144447-1.6741409c0-0.0881424,0-0.1674194,0.0086021-0.2555618
			c0.009037-0.1145554,0.0266762-0.2378693,0.0443153-0.3524246c0.1058426-0.7401886,0.3347321-1.4539108,0.6694641-2.1059494
			c0.0619545-0.1321869,0.1320839-0.264328,0.2116814-0.3877029c0.625576-1.0750198,1.550602-1.9649277,2.6787071-2.555336h0.008606
			c0.0090332,0,0.0090332-0.0087662,0.0176392-0.0087662c0.5111313-0.2819748,1.0751839-0.4846725,1.6654816-0.6168137
			c0.5902977-0.1321869,1.1982346-0.1850586,1.7708893-0.149826c0.009037,0,0.009037,0,0.017643,0
			c1.6039543,0.0616837,3.1106758,0.6961365,4.2650223,1.7535172c0.1406898,0.1145554,0.2727776,0.2466888,0.3962555,0.3877029
			c0.8019791,0.8458633,1.40131,1.9208832,1.6740875,3.1544571c0.2646027,1.1983948,0.2026443,2.3967361-0.1406898,3.4981613"/>
		<path class="st14" d="M49.4021225,108.9130936c-0.0262451,0.0088196-0.0438843,0.0088196-0.0701294,0.0088196h-0.009037
			c-0.1144447,0.0088196-0.2288895,0.0264587-0.3437653,0.0352249l0.0176392-0.1233215l0.3528023-0.0793228l0.008606,0.0088196
			C49.3668404,108.789772,49.3849106,108.8514023,49.4021225,108.9130936z"/>
		<path class="st14" d="M53.2618561,107.5032806c0,0.1233749-0.009037,0.2379303-0.0266762,0.3524246
			c-0.0352783,0.2379303-0.1054115,0.4670334-0.2288895,0.6784973c-0.3876534,0.0440521-0.7666969,0.08815-1.1543503,0.1321945
			c-0.0968056,0.0088196-0.1940422,0.0264053-0.290844,0.0352249c0.2379227-0.1497803,0.4143257-0.3524246,0.5020943-0.5903473
			c0.0529213-0.1145554,0.0881996-0.2291031,0.0881996-0.3612976c0.017643-0.1057358,0.009037-0.2290573-0.0176392-0.343605
			c-0.1497269-0.6873169-0.7400208-1.0045166-1.7446442-1.171936c-0.0352821-0.0088196-0.0705605-0.0088196-0.0968056-0.0176392
			c-0.2818108-0.0440521-0.5464134-0.0969162-0.7843399-0.1674194c-0.8987808-0.2466965-1.4890785-0.6872635-1.6740837-1.5243607
			c0-0.0176392-0.009037-0.0352249-0.009037-0.0528641c-0.0262451-0.1145554-0.0348473-0.2291107-0.0348473-0.3348389
			c-0.009037-0.0352325-0.009037-0.0616913-0.009037-0.0969162c0.009037-0.8459167,0.5550156-1.5772781,1.4890785-1.9561691
			l-0.0529175-0.2291031l-0.0705605-0.3260193l-0.1583328-0.7049026l0.3614082-0.0792694l0.4138947-0.0969696l0.1587639,0.7137222
			l0.0705566,0.3260193l0.0438881,0.176239c0.7576599-0.1497803,1.3217125-0.0616837,1.727005,0.0705109l-0.0529213,0.3965225
			c0.009037,0.0175858,0.0266762,0.0352249,0.0443153,0.0616837c0.0968056,0.1409607,0.2379265,0.3612442,0.2379265,0.3612442
			l-0.3528023,0.0793304c-0.1497231-0.0440979-0.3609734-0.1057358-0.625576-0.1233749
			c-0.2465324-0.0352249-0.5373764-0.0440445-0.8811417,0.0264053c-0.0529213,0-0.1058426,0.0088196-0.167366,0.0264587
			c-0.6255798,0.1321945-0.9426689,0.4582138-1.0571136,0.8106384c-0.0352821,0.1057358-0.0529213,0.2202911-0.0529213,0.3260193
			c0,0.0793304,0.008606,0.1585999,0.0262451,0.2379303c0.009037,0.0352249,0.0176392,0.0705032,0.0266762,0.0969086
			c0.1759682,0.5815887,0.7133446,0.7842331,1.8414497,0.9780579c0.4315376,0.0705032,0.8019791,0.1674194,1.1190681,0.3084335
			c0.167366,0.0616837,0.3170929,0.1409531,0.4582138,0.2379227c0.45821,0.2995605,0.7490578,0.7224884,0.8811417,1.3128967
			C53.2442169,107.2213135,53.2618561,107.3535004,53.2618561,107.5032806z"/>
		<path class="st17" d="M53.570343,106.9922028c-0.1325188-0.5903473-0.4233627-1.0132828-0.8811455-1.3128891
			c-0.132515-0.0969162-0.290844-0.176239-0.4586411-0.2379303c-0.3170891-0.1409607-0.6871033-0.2378693-1.1186371-0.3083801
			c-1.1367111-0.1938782-1.6654816-0.3965225-1.8504868-0.9780502c-0.009037-0.0264664-0.0176392-0.0616913-0.0266762-0.0969696
			c-0.0176392-0.0792694-0.0262451-0.1585999-0.0262451-0.2378693c0-0.1321945,0.0262451-0.2643356,0.0881996-0.3965302
			c0.1054115-0.2819672,0.3700104-0.5463028,0.8368301-0.6873169c0.0619545-0.0264053,0.1234779-0.0352249,0.1850052-0.0528641
			c0.3527985-0.0792694,0.6698914-0.0969162,0.934063-0.0792694c0.3261261,0.0176392,0.5816917,0.0969086,0.7404518,0.1497726
			l0.0701294-0.4934311l0.0619545-0.4053497c-0.4143257-0.1321411-0.9693413-0.2202835-1.727005-0.0704498l-0.0443153-0.176239
			l-0.0705605-0.3260193l-0.158329-0.7137222l-0.3614082,0.0792694l-0.4138947,0.08815v0.0088196l0.158329,0.7049026
			l0.0705605,0.3260193l0.0529213,0.2291031c-0.9073868,0.3612442-1.4538002,1.0749664-1.4890785,1.8856049
			c-0.009037,0.0616837-0.009037,0.1145554,0,0.1674194c0,0.1145554,0.0086021,0.2291031,0.0352783,0.3348389
			c0,0.0176392,0.008606,0.0352783,0.008606,0.0528641c0.1940384,0.8370972,0.7753029,1.2688522,1.6740837,1.5244141
			c0.2379265,0.0704575,0.5025291,0.1233215,0.7843399,0.1674194c0.0266724,0.0088196,0.0619545,0.0088196,0.0968056,0.0175858
			c1.0136566,0.1674194,1.5949173,0.4846725,1.7536812,1.171936c0.0262451,0.1145554,0.0352783,0.2379303,0.0176392,0.3436584
			c0,0.1321411-0.0352821,0.2466965-0.0881996,0.3612442c-0.0968056,0.2555695-0.2994537,0.475853-0.5726585,0.6344528
			c0.3876534-0.0440445,0.7666969-0.0881424,1.1543503-0.1321945c0.0529175-0.0088196,0.1144447-0.0088196,0.167366-0.0176392
			c0.0529175-0.0087662,0.1144447-0.0087662,0.167366-0.0264053c0.1411171-0.2202835,0.2202835-0.4670334,0.2555656-0.7137222
			c0.0176392-0.1145554,0.0262451-0.2379227,0.0262451-0.352478
			C53.6228333,107.2741776,53.6051903,107.141983,53.570343,106.9922028z M49.3582382,108.7633133l-0.008606-0.0088196
			l-0.0176392,0.1674194c0.0262451,0,0.0438843,0,0.0701294-0.0088196c0.0881996,0,0.1763992-0.0088196,0.2555656-0.0175858
			c0.0443153,0,0.0795937-0.0088272,0.1234818-0.0088272C49.622406,108.8514023,49.4903221,108.8073578,49.3582382,108.7633133z"/>
	</g>
	<line class="st2" x1="87.1129532" y1="47.0292702" x2="89.7092514" y2="81.4827881"/>
</g>
</svg>
