<?xml version="1.0" encoding="utf-8"?>
<!-- Generator: Adobe Illustrator 22.0.1, SVG Export Plug-In . SVG Version: 6.00 Build 0)  -->
<svg version="1.1" id="Layer_1" xmlns="http://www.w3.org/2000/svg" xmlns:xlink="http://www.w3.org/1999/xlink" x="0px" y="0px"
	 viewBox="0 0 156 156" style="enable-background:new 0 0 156 156;" xml:space="preserve">
<style type="text/css">
	.st0{fill:#FFD9B2;}
	.st1{fill:#F7AC76;}
	.st2{fill:none;stroke:#3643C3;stroke-width:0.5;stroke-linecap:round;stroke-linejoin:round;stroke-miterlimit:10;}
	.st3{fill:#233764;}
	.st4{fill:none;stroke:#F7AC76;stroke-width:0.5;stroke-linecap:round;stroke-linejoin:round;stroke-miterlimit:10;}
	.st5{fill:#161718;}
	.st6{fill:#FFFFFF;}
	.st7{fill:#F06449;}
	.st8{fill:#BE412D;}
	.st9{fill:#FE8E60;}
	.st10{fill:#7D4C47;}
	.st11{fill:#4456D6;}
	.st12{fill:#203881;}
	.st13{fill:#6582FC;}
	.st14{fill:#DDA103;}
	.st15{fill:#FBC32E;}
	.st16{fill:none;stroke:#DDA103;stroke-width:0.5;stroke-miterlimit:10;}
	.st17{fill:#FBE6BB;}
	.st18{fill:none;stroke:#BE412D;stroke-width:0.5;stroke-linecap:round;stroke-linejoin:round;stroke-miterlimit:10;}
	.st19{fill:none;stroke:#F06449;stroke-width:0.5;stroke-linecap:round;stroke-linejoin:round;stroke-miterlimit:10;}
	.st20{fill:#F34B4B;}
	.st21{fill:#FC7070;}
	.st22{fill:none;stroke:#FFFFFF;stroke-miterlimit:10;}
	.st23{fill:#FC9F9F;}
	.st24{fill:#408A6F;}
	.st25{fill:#64B48D;}
	.st26{fill:none;stroke:#FBE6BB;stroke-width:0.5;stroke-linecap:round;stroke-linejoin:round;stroke-miterlimit:10;}
	.st27{fill:none;stroke:#F7AC76;stroke-width:0.25;stroke-linecap:round;stroke-linejoin:round;stroke-miterlimit:10;}
	.st28{fill:#A0665A;}
	.st29{fill:#6C3F44;}
	.st30{fill:none;stroke:#6C3F44;stroke-width:0.5;stroke-linecap:round;stroke-linejoin:round;stroke-miterlimit:10;}
	.st31{fill:none;stroke:#7D4C47;stroke-width:0.5;stroke-linecap:round;stroke-linejoin:round;stroke-miterlimit:10;}
	.st32{fill:none;stroke:#F34B4B;stroke-width:0.5;stroke-linecap:round;stroke-linejoin:round;stroke-miterlimit:10;}
	.st33{fill:none;stroke:#FC7070;stroke-width:0.5;stroke-linecap:round;stroke-linejoin:round;stroke-miterlimit:10;}
	.st34{fill:#EAE8F3;}
	.st35{fill:#40304A;}
	.st36{fill:none;stroke:#43334E;stroke-linecap:round;stroke-linejoin:round;stroke-miterlimit:10;}
	.st37{fill:#32775B;}
	.st38{fill:none;stroke:#233764;stroke-width:0.5;stroke-linecap:round;stroke-linejoin:round;stroke-miterlimit:10;}
	.st39{fill:none;stroke:#408A6F;stroke-width:0.5;stroke-linecap:round;stroke-linejoin:round;stroke-miterlimit:10;}
	.st40{fill:#3643C3;}
	.st41{opacity:0.56;fill:url(#SVGID_1_);}
	.st42{opacity:0.52;fill:#FBC32E;}
	.st43{opacity:0.56;fill:url(#SVGID_2_);}
	.st44{fill:none;stroke:#EAE8F3;stroke-width:0.5;stroke-linecap:round;stroke-linejoin:round;stroke-miterlimit:10;}
	.st45{fill:#FEFFFD;}
	.st46{opacity:0.35;fill:#32775B;}
	.st47{fill:#43334E;}
	.st48{fill:none;stroke:#EAE8F3;stroke-width:0.25;stroke-linecap:round;stroke-linejoin:round;stroke-miterlimit:10;}
	.st49{fill:none;stroke:#FBC32E;stroke-width:0.5;stroke-linecap:round;stroke-linejoin:round;stroke-miterlimit:10;}
	.st50{fill:none;stroke:#161718;stroke-width:0.5;stroke-linecap:round;stroke-linejoin:round;stroke-miterlimit:10;}
	.st51{fill:none;stroke:#40304A;stroke-linecap:round;stroke-linejoin:round;stroke-miterlimit:10;}
	.st52{opacity:0.33;fill:#FBC32E;}
	.st53{fill:#A6A3AE;}
	.st54{fill:#5B4B68;}
	.st55{fill:#776688;}
	.st56{fill:none;stroke:#FBC32E;stroke-width:0.5;stroke-miterlimit:10;}
	.st57{fill:none;stroke:#EAE8F3;stroke-linecap:round;stroke-linejoin:round;stroke-miterlimit:10;}
	.st58{fill:none;stroke:#203881;stroke-width:2;stroke-linecap:round;stroke-linejoin:round;stroke-miterlimit:10;}
	.st59{fill:none;stroke:#40304A;stroke-width:2;stroke-linecap:round;stroke-linejoin:round;stroke-miterlimit:10;}
	.st60{fill:#FFD8B7;}
	.st61{fill:#F4E4D4;}
	.st62{fill:none;stroke:#4456D6;stroke-width:0.5;stroke-linecap:round;stroke-linejoin:round;stroke-miterlimit:10;}
	.st63{fill:none;stroke:#DDA103;stroke-width:0.25;stroke-miterlimit:10;}
	.st64{fill:none;stroke:#FFFFFF;stroke-width:0.5;stroke-linecap:round;stroke-linejoin:round;stroke-miterlimit:10;}
	.st65{fill:none;stroke:#64B48D;stroke-width:0.5;stroke-linecap:round;stroke-linejoin:round;stroke-miterlimit:10;}
	.st66{fill:none;stroke:#64B48D;stroke-linecap:round;stroke-linejoin:round;stroke-miterlimit:10;}
	.st67{opacity:0.48;fill:#64B48D;}
	.st68{fill:none;stroke:#64B48D;stroke-width:0.25;stroke-linecap:round;stroke-linejoin:round;stroke-miterlimit:10;}
	.st69{fill:none;stroke:#F06449;stroke-width:2;stroke-linecap:round;stroke-linejoin:round;stroke-miterlimit:10;}
	.st70{opacity:0.92;fill:#64B48D;}
	.st71{opacity:0.57;fill:#408A6F;}
	.st72{opacity:0.36;fill:#408A6F;}
	.st73{fill:none;stroke:#BE412D;stroke-width:2;stroke-linecap:round;stroke-linejoin:round;stroke-miterlimit:10;}
	.st74{opacity:0.65;fill:none;stroke:#408A6F;stroke-width:0.25;stroke-linecap:round;stroke-linejoin:round;stroke-miterlimit:10;}
	.st75{opacity:0.67;fill:none;stroke:#64B48D;stroke-width:0.25;stroke-linecap:round;stroke-linejoin:round;stroke-miterlimit:10;}
	.st76{opacity:0.98;fill:#64B48D;}
	.st77{fill:none;stroke:#408A6F;stroke-width:0.25;stroke-linecap:round;stroke-linejoin:round;stroke-miterlimit:10;}
	.st78{fill:none;stroke:#FFD9B2;stroke-width:0.5;stroke-linecap:round;stroke-linejoin:round;}
	
		.st79{fill:none;stroke:#FFD9B2;stroke-width:0.5;stroke-linecap:round;stroke-linejoin:round;stroke-dasharray:4.0333505,4.0333505;}
	.st80{fill:#E68B4A;}
	.st81{opacity:0.62;fill:#64B48D;}
	.st82{fill:none;stroke:#FBC32E;stroke-width:0.25;stroke-miterlimit:10;}
	.st83{fill:none;stroke:#4456D6;stroke-linecap:round;stroke-linejoin:round;stroke-miterlimit:10;}
	.st84{fill:none;stroke:#E68B4A;stroke-width:0.5;stroke-linecap:round;stroke-linejoin:round;stroke-miterlimit:10;}
	.st85{fill:none;stroke:#203881;stroke-width:0.5;stroke-linecap:round;stroke-linejoin:round;stroke-miterlimit:10;}
	.st86{opacity:0.29;fill:#EAE8F3;}
	.st87{fill:none;stroke:#A6A3AE;stroke-width:0.5;stroke-linecap:round;stroke-linejoin:round;stroke-miterlimit:10;}
	.st88{opacity:0.74;fill:#FFFFFF;}
	.st89{opacity:0.19;fill:#FFFFFF;}
	.st90{fill:none;stroke:#40304A;stroke-width:0.25;stroke-linecap:round;stroke-linejoin:round;stroke-miterlimit:10;}
	.st91{fill:none;stroke:#F34B4B;stroke-width:2;stroke-linecap:round;stroke-linejoin:round;stroke-miterlimit:10;}
	.st92{fill:none;stroke:#43334E;stroke-width:0.5;stroke-linecap:round;stroke-linejoin:round;stroke-miterlimit:10;}
	.st93{fill:none;stroke:#6582FC;stroke-miterlimit:10;}
	.st94{opacity:0.47;fill:#A6A3AE;}
	.st95{opacity:0.43;fill:#FFFFFF;}
	.st96{fill:none;stroke:#FBE6BB;stroke-linecap:round;stroke-linejoin:round;stroke-miterlimit:10;}
	.st97{fill:none;stroke:#5B4B68;stroke-width:0.5;stroke-linecap:round;stroke-linejoin:round;stroke-miterlimit:10;}
	.st98{fill:none;stroke:#40304A;stroke-width:0.5;stroke-linecap:round;stroke-linejoin:round;stroke-miterlimit:10;}
	.st99{fill:none;stroke:#DDA103;stroke-linecap:round;stroke-linejoin:round;stroke-miterlimit:10;}
	.st100{fill:none;stroke:#FBC32E;stroke-linecap:round;stroke-linejoin:round;stroke-miterlimit:10;}
	.st101{fill:none;stroke:#32775B;stroke-width:0.5;stroke-linecap:round;stroke-linejoin:round;stroke-miterlimit:10;}
	.st102{opacity:0.4;fill:#FBE6BB;}
	.st103{fill:none;stroke:#FBC32E;stroke-width:0.25;stroke-linecap:round;stroke-linejoin:round;stroke-miterlimit:10;}
	.st104{fill:none;stroke:#4456D6;stroke-miterlimit:10;}
	.st105{opacity:0.61;fill:#64B48D;}
	.st106{opacity:0.9;fill:#64B48D;}
	.st107{opacity:0.76;fill:#64B48D;}
	.st108{fill:none;stroke:#5B4B68;stroke-width:0.5;stroke-miterlimit:10;}
	.st109{opacity:0.66;fill:#A6A3AE;}
	.st110{fill:none;stroke:#43334E;stroke-miterlimit:10;}
	.st111{opacity:0.52;fill:#6582FC;}
	.st112{fill:none;stroke:#DDA103;stroke-width:0.5;stroke-linecap:round;stroke-linejoin:round;stroke-miterlimit:10;}
	.st113{fill:#46724E;}
	.st114{fill:#FE8B2E;}
	.st115{fill:none;stroke:#7D4C47;stroke-width:2;stroke-linecap:round;stroke-linejoin:round;stroke-miterlimit:10;}
	.st116{opacity:0.4;fill:#EAE8F3;}
	.st117{fill:none;stroke:#EAE8F3;stroke-width:0.5;stroke-linecap:round;stroke-miterlimit:10;}
	.st118{fill:none;stroke:#4456D6;stroke-width:0.25;stroke-linecap:round;stroke-linejoin:round;stroke-miterlimit:10;}
	.st119{opacity:0.5;fill:#EAE8F3;}
	.st120{opacity:0.46;fill:#A6A3AE;}
	.st121{fill:#E0916E;}
	.st122{fill:none;stroke:#A0665A;stroke-linecap:round;stroke-linejoin:round;stroke-miterlimit:10;}
	.st123{opacity:0.46;fill:#BE412D;}
	.st124{fill:none;stroke:#203881;stroke-linecap:round;stroke-linejoin:round;stroke-miterlimit:10;}
	.st125{fill:#DBDBE1;}
	.st126{fill:none;stroke:#6582FC;stroke-width:0.5;stroke-linecap:round;stroke-linejoin:round;stroke-miterlimit:10;}
	.st127{opacity:0.53;fill:#A6A3AE;}
	.st128{fill:none;stroke:#DDA103;stroke-miterlimit:10;}
	.st129{opacity:0.2;fill:#FFFFFF;}
	.st130{fill:#B4A1BF;}
	.st131{opacity:0.5;fill:#6582FC;}
	.st132{opacity:0.6;fill:none;stroke:#FFFFFF;stroke-linecap:round;stroke-linejoin:round;stroke-miterlimit:10;}
	.st133{opacity:0.6;fill:none;stroke:#FFFFFF;stroke-width:2;stroke-linecap:round;stroke-linejoin:round;stroke-miterlimit:10;}
	.st134{opacity:0.54;fill:#A6A3AE;}
	.st135{fill:#161718;stroke:#000000;stroke-width:0.25;stroke-miterlimit:10;}
</style>
<g id="_x31_2">
	<g>
		<path class="st14" d="M59.3742981,117.6866455l0.0873413,3.7221603c0.0319748,1.3625946-1.2262306,2.6473923-3.3631096,3.6950989
			l-0.0081139,0.0001907c-0.1724968,0.0871582-0.3370705,0.165863-0.5263939,0.2450943l-0.0085182,0.0001984
			c-1.5217247,0.675827-3.4123001,1.2355881-5.5730972,1.6271591l-0.0081139,0.0001907
			c-0.1736641,0.0373077-0.3475266,0.0662994-0.5299034,0.0955429l-0.0081139,0.0001907
			c-1.7388077,0.2985001-3.6215248,0.4839859-5.6069603,0.5472183l-0.5566025,0.0130615
			c-1.9776993,0.0297623-3.8670425-0.0672073-5.617939-0.2838287l-0.00811,0.0001907
			c-0.1835518-0.0206528-0.3585815-0.0414581-0.5338058-0.0705795l-0.0085182,0.0001984
			c-2.1763802-0.2897949-4.0992432-0.7600708-5.6595097-1.3635788l-0.0085201,0.0001984
			c-0.1849136-0.0787659-0.3611126-0.1494751-0.5375061-0.228447l-0.0083084-0.0081253
			c-2.1587276-0.938591-3.4670963-2.1548386-3.4990692-3.5174332l-0.0881214-3.7553787l3.3662395-1.4340134l0.5521889,0.144989
			l1.7561455,0.45755c1.1551208-0.384552,2.4525757-0.7059326,3.8511887-0.9715424
			c0.1821861-0.0375061,0.3560448-0.0665512,0.5380211-0.0957336c1.7388077-0.2985077,3.6294403-0.4925003,5.6150742-0.5474091
			l0.5399666-0.0126724c1.9945412-0.0384827,3.8919983,0.0583038,5.6427002,0.2666016
			c0.1831436,0.0206604,0.3583679,0.0497894,0.5419159,0.0704422c1.4346886,0.1990738,2.7707291,0.46698,3.959446,0.8048553
			l1.6670113-0.5212326l0.5443764-0.170723L59.3742981,117.6866455z"/>
		<path class="st15" d="M31.4363098,125.9153519c-0.1849136-0.0787659-0.3611126-0.1494751-0.5375061-0.228447l-0.0083084-0.0081253
			c-0.0564804-2.0436401-0.1056099-4.1373825-0.1622677-6.2059784l0.5521889,0.144989
			C31.3289623,121.6865845,31.3867912,123.8050308,31.4363098,125.9153519z"/>
		<path class="st15" d="M37.6466637,127.3491135c-0.1835518-0.0206528-0.3585815-0.0414581-0.5338058-0.0705795
			l-0.0085182,0.0001984c-0.0703049-2.6501999-0.1439247-5.4416809-0.2165871-8.1749344
			c0.1821823-0.0375137,0.3560448-0.0665512,0.5380173-0.0957336
			C37.4982338,121.7330017,37.5728302,124.5660095,37.6466637,127.3491135z"/>
		<path class="st15" d="M43.8212013,127.6198807l-0.5484886,0.0128708
			c-0.0694046-2.9578018-0.1514091-6.1064911-0.2318687-9.1720963l0.5399666-0.0126724
			C43.6676292,121.4386063,43.7492599,124.5540695,43.8212013,127.6198807z"/>
		<path class="st15" d="M49.9742928,126.976738c-0.1736641,0.0373077-0.3475266,0.0662994-0.5299034,0.0955429l-0.0081139,0.0001907
			c-0.0635567-2.7085571-0.1389503-5.5581436-0.2127647-8.3578873c0.1831436,0.0206146,0.3581734,0.0414658,0.5419159,0.0703888
			C49.8283997,121.4686356,49.9020348,124.2434158,49.9742928,126.976738z"/>
		<path class="st15" d="M56.090416,125.1040955c-0.1724968,0.0871582-0.3370705,0.165863-0.5263939,0.2450943l-0.0085182,0.0001984
			c-0.0564651-2.0602875-0.1061783-4.1789246-0.16362-6.2807922l0.5443764-0.170723
			C55.9840279,120.9334488,56.041481,123.0186768,56.090416,125.1040955z"/>
		
			<ellipse transform="matrix(0.9997248 -0.0234589 0.0234589 0.9997248 -2.7624941 1.0493404)" class="st15" cx="43.3436394" cy="118.2674408" rx="16.035881" ry="5.8353257"/>
		<path class="st16" d="M57.0820885,117.9435425c0.0080528,0.3431702-0.1119957,0.6756363-0.348774,1.0039291
			c-1.3979378,1.9212799-6.8024597,3.4489822-13.2867966,3.6011429c-6.4900131,0.1522903-11.9603863-1.1202316-13.4410801-2.9739609
			c-0.251915-0.3168259-0.3874283-0.6433029-0.3954811-0.9864731c-0.055563-2.3678741,6.0463543-4.4269867,13.6355686-4.605072
			C50.8289223,113.8051605,57.0265274,115.5756607,57.0820885,117.9435425z"/>
		<path class="st14" d="M52.1646919,118.3848648l-0.2341461,0.6242218l-2.2298088-0.0215454
			c-0.2282333,0.5664368-0.8460236,1.158844-1.5234566,1.4944611l-1.3933067-0.248642
			c0.0081291-0.0003433,0.0077248-0.0099335,0.0158539-0.0102768l-0.0487709,0.0020523l0.2153969-0.4890747
			c0,0,0.5147896-0.1368256,0.7572289-0.1758423c0.0081291-0.0003357,0.0081291-0.0003357,0.0081291-0.0003357
			c0.2425232-0.2309875,0.4273415-0.4787598,0.5219421-0.7419662c0.2553101-0.7019348-0.4725914-1.1802216-1.7341118-1.1944427
			c-1.2125473-0.0162811-2.108036,0.3573837-3.0372047,1.0876236c-1.2598915,0.9938126-2.5033722,1.602829-4.424099,1.5779114
			c-1.8311119-0.0190735-3.0113106-0.6127777-3.0089111-1.5248871l-2.2302094-0.0311356l0.2268219-0.6047592l2.1399956,0.0157089
			c0.2601395-0.586998,0.7642555-0.9825439,1.2482185-1.2717209l0.7546577,0.1507187
			c0.035408-0.126297,0.0716248-0.2334137,0.0797539-0.2337494c0.0158501-0.0102768,0.7177963-0.1453552,0.7177963-0.1453552
			l-0.1824799,0.4972992c-0.3496017,0.1970978-0.9835777,0.5981064-1.208992,1.231636
			c-0.285408,0.7607956,0.6301308,1.0583954,1.5090103,1.0694733c1.1475143,0.009407,1.8564568-0.346756,2.975872-1.2002487
			c1.2999344-1.005043,2.6374588-1.5028687,4.5990257-1.4796677c1.7498283,0.0225449,3.1804008,0.5769043,3.1828308,1.6040115
			L52.1646919,118.3848648z"/>
		<path class="st17" d="M52.1167145,118.5145645l-2.2309608-0.0253677c-0.2329292,0.5727844-0.848568,1.1597672-1.528244,1.4986496
			l-1.3929214-0.2537003c0.6610069-0.3484116,1.269577-0.8577499,1.472805-1.4095993
			c0.2581329-0.700882-0.4736023-1.1853333-1.7325363-1.1994858c-1.2152176-0.013649-2.1090012,0.3628159-3.0394859,1.0853729
			c-1.2554131,0.996376-2.5008125,1.6070023-4.4226074,1.5850601c-1.8335533-0.0204926-3.0113869-0.619339-3.0083618-1.5307693
			l-2.2325478-0.0252991l0.2253342-0.6118393l2.1443291,0.0243149c0.2619209-0.5918198,0.7646675-0.9917068,1.2457581-1.2734909
			l1.3667107,0.263237c-0.341774,0.203743-0.9763947,0.6035461-1.2088547,1.2349091
			c-0.2794876,0.759903,0.630703,1.057785,1.514492,1.067543c1.1492615,0.0131378,1.8586655-0.3462067,2.9701347-1.1949692
			c1.3026619-1.0063324,2.6397133-1.5059509,4.6059914-1.4840012c1.7461472,0.0199432,3.1813812,0.5812607,3.1825371,1.601738
			l2.2977104,0.0258408L52.1167145,118.5145645z"/>
	</g>
	<g>
		<path class="st14" d="M63.1532593,110.6646957l0.0873451,3.7221603c0.031971,1.3625946-1.2262344,2.6473923-3.3631096,3.6951065
			l-0.0081139,0.0001907c-0.1724968,0.0871582-0.3370705,0.1658554-0.5263939,0.2450867l-0.008522,0.0001984
			c-1.5217209,0.675827-3.4122963,1.2355957-5.5730934,1.6271591l-0.0081139,0.0001907
			c-0.1736679,0.0373077-0.3475266,0.0662994-0.5299072,0.0955429l-0.00811,0.0001907
			c-1.7388077,0.2985001-3.6215248,0.4839859-5.6069641,0.5472183l-0.5565987,0.0130615
			c-1.9776993,0.0297623-3.8670425-0.0672073-5.617939-0.2838211l-0.0081139,0.0001907
			c-0.183548-0.0206604-0.3585777-0.0414658-0.533802-0.0705872l-0.0085182,0.0001984
			c-2.1763802-0.2897873-4.0992432-0.7600708-5.6595116-1.3635788l-0.0085182,0.000206
			c-0.1849136-0.0787735-0.3611145-0.1494751-0.5375061-0.228447l-0.0083084-0.0081253
			c-2.1587296-0.9385986-3.4670963-2.1548462-3.4990711-3.5174408l-0.0881214-3.7553787l3.3662415-1.4340134l0.5521889,0.1449966
			l1.7561417,0.45755c1.1551208-0.3845596,2.4525757-0.7059402,3.8511925-0.97155
			c0.1821861-0.0375061,0.3560448-0.0665512,0.5380173-0.0957336c1.7388077-0.2985001,3.6294441-0.4924927,5.615078-0.5474091
			l0.5399666-0.0126724c1.9945412-0.038475,3.8919983,0.0583038,5.6427002,0.2666016
			c0.1831436,0.020668,0.3583641,0.0497894,0.5419159,0.0704422c1.4346848,0.1990738,2.7707291,0.46698,3.959446,0.804863
			l1.6670113-0.5212326l0.5443764-0.170723L63.1532593,110.6646957z"/>
		<path class="st15" d="M35.2152748,118.8934097c-0.1849136-0.0787735-0.3611145-0.1494751-0.5375061-0.228447l-0.0083084-0.0081253
			c-0.0564804-2.0436478-0.1056099-4.1373825-0.1622696-6.205986l0.5521889,0.144989
			C35.1079254,114.6646347,35.1657562,116.7830811,35.2152748,118.8934097z"/>
		<path class="st15" d="M41.4256248,120.3271713c-0.183548-0.0206604-0.3585777-0.0414658-0.533802-0.0705872l-0.0085182,0.0001984
			c-0.0703049-2.6501999-0.1439285-5.4416809-0.2165871-8.1749344c0.1821823-0.0375061,0.356041-0.0665512,0.5380173-0.0957336
			C41.2771988,114.7110519,41.3517952,117.5440674,41.4256248,120.3271713z"/>
		<path class="st15" d="M47.6001625,120.5979309l-0.5484848,0.0128708
			c-0.0694046-2.9577942-0.1514091-6.1064835-0.2318687-9.1720963l0.5399666-0.0126724
			C47.4465942,114.4166565,47.5282249,117.5321198,47.6001625,120.5979309z"/>
		<path class="st15" d="M53.7532578,119.9547882c-0.1736679,0.0373077-0.3475266,0.0662994-0.5299072,0.0955429l-0.00811,0.0001907
			c-0.0635605-2.7085571-0.1389503-5.5581436-0.2127647-8.3578873c0.1831436,0.0206146,0.3581734,0.0414734,0.5419159,0.0703964
			C53.6073647,114.4466858,53.6809998,117.2214737,53.7532578,119.9547882z"/>
		<path class="st15" d="M59.869381,118.0821533c-0.1724968,0.0871582-0.3370705,0.1658554-0.5263939,0.2450867l-0.008522,0.0001984
			c-0.0564613-2.0602798-0.1061783-4.1789169-0.1636162-6.2807846l0.5443764-0.170723
			C59.762989,113.9115067,59.820446,115.996727,59.869381,118.0821533z"/>
		
			<ellipse transform="matrix(0.9997248 -0.0234589 0.0234589 0.9997248 -2.5967271 1.1360582)" class="st15" cx="47.1226044" cy="111.245491" rx="16.035881" ry="5.8353257"/>
		<path class="st16" d="M60.8610535,110.9215927c0.0080528,0.3431702-0.1119995,0.6756439-0.348774,1.0039368
			c-1.3979378,1.9212723-6.8024635,3.4489822-13.2867966,3.6011353c-6.4900131,0.1522903-11.9603882-1.1202316-13.441082-2.9739609
			c-0.251915-0.3168259-0.3874283-0.6432953-0.3954811-0.9864655c-0.0555611-2.3678818,6.0463562-4.4269943,13.6355705-4.605072
			C54.6078873,106.7832184,60.8054886,108.5537109,60.8610535,110.9215927z"/>
		<path class="st14" d="M55.9436569,111.362915l-0.2341461,0.6242294l-2.2298088-0.0215454
			c-0.2282333,0.5664291-0.8460274,1.1588364-1.5234604,1.4944611l-1.3933029-0.2486496
			c0.0081291-0.0003357,0.0077248-0.0099335,0.0158539-0.0102692l-0.0487709,0.0020447l0.2153969-0.4890747
			c0,0,0.5147858-0.1368256,0.7572289-0.1758347c0.0081291-0.0003433,0.0081291-0.0003433,0.0081291-0.0003433
			c0.2425232-0.2309799,0.4273415-0.4787598,0.5219421-0.7419662c0.2553101-0.7019348-0.4725952-1.1802139-1.7341118-1.1944427
			c-1.2125473-0.0162811-2.108036,0.3573837-3.0372047,1.0876236c-1.2598915,0.9938126-2.5033722,1.6028366-4.424099,1.577919
			c-1.8311119-0.0190735-3.0113144-0.6127853-3.0089111-1.5248871l-2.2302094-0.0311432l0.2268219-0.6047516l2.1399918,0.0157013
			c0.2601395-0.5869904,0.7642593-0.9825439,1.2482185-1.2717133l0.7546616,0.1507187
			c0.035408-0.1263046,0.0716209-0.2334137,0.0797501-0.233757c0.0158539-0.0102768,0.7177963-0.1453476,0.7177963-0.1453476
			l-0.1824799,0.4972992c-0.3496017,0.1970978-0.9835739,0.5980988-1.2089882,1.2316284
			c-0.2854118,0.7608032,0.6301308,1.058403,1.5090103,1.0694809c1.1475143,0.0093994,1.8564568-0.3467636,2.975872-1.2002563
			c1.2999344-1.005043,2.6374588-1.5028687,4.5990219-1.4796677c1.7498322,0.0225449,3.1804047,0.5769043,3.1828308,1.6040115
			L55.9436569,111.362915z"/>
		<path class="st17" d="M55.8956795,111.4926147l-2.2309608-0.0253677c-0.232933,0.5727844-0.848568,1.1597748-1.5282478,1.4986496
			l-1.3929214-0.2537003c0.6610107-0.3484039,1.2695808-0.8577423,1.472805-1.4095917
			c0.2581367-0.700882-0.4736023-1.1853333-1.7325325-1.1994934c-1.2152214-0.013649-2.1090012,0.3628159-3.0394859,1.0853806
			c-1.2554131,0.996376-2.5008125,1.6069946-4.4226074,1.5850525c-1.8335533-0.0204926-3.0113907-0.619339-3.0083618-1.5307693
			l-2.2325478-0.0252914l0.2253342-0.6118469l2.1443253,0.0243149c0.2619247-0.5918121,0.7646675-0.9917068,1.2457619-1.2734909
			l1.3667107,0.2632446c-0.3417778,0.2037354-0.9763947,0.6035385-1.2088547,1.2349014
			c-0.2794876,0.7599106,0.630703,1.0577927,1.5144882,1.0675507c1.1492615,0.0131378,1.8586693-0.3462143,2.9701385-1.1949692
			c1.3026619-1.0063324,2.6397095-1.5059586,4.6059914-1.4840088c1.7461472,0.0199432,3.1813812,0.5812607,3.1825371,1.601738
			l2.2977104,0.0258408L55.8956795,111.4926147z"/>
	</g>
	<g>
		<path class="st14" d="M39.910778,101.1903305l2.2504501,2.9660721c0.8238373,1.0858078,0.5562859,2.8640594-0.5623589,4.9646759
			l-0.0064659,0.0049057c-0.0887909,0.1716614-0.1761093,0.3318329-0.2831802,0.5069275l-0.0067902,0.0051498
			c-0.8377647,1.4389267-2.0424919,2.9997787-3.5647583,4.5825195l-0.0064659,0.0049057
			c-0.118927,0.1319427-0.2428818,0.2572556-0.3735962,0.3877563l-0.0064659,0.0049057
			c-1.2346916,1.2601929-2.6522217,2.5130463-4.2246094,3.726944l-0.4435349,0.336525
			c-1.5857105,1.182251-3.174017,2.2100143-4.7201557,3.0597305l-0.0064659,0.0049057
			c-0.1608829,0.0907364-0.3149452,0.1763687-0.4740372,0.2553711l-0.0067883,0.0051498
			c-1.9338932,1.0395508-3.7679749,1.7843475-5.3861465,2.2088089l-0.0067902,0.0051498
			c-0.1960182,0.0444336-0.3802509,0.0903015-0.5694828,0.1295776l-0.0114937-0.0017242
			c-2.299511,0.5032959-4.0723076,0.2835541-4.8961449-0.8022537l-2.2705336-2.9925385l1.8889647-3.1336517l0.5325146-0.2058258
			l1.6914825-0.6574783c0.7111588-0.9881516,1.5746918-2.0084381,2.552887-3.0427551
			c0.1257153-0.1370926,0.2496395-0.2624435,0.3800602-0.392662c1.2346935-1.2601929,2.6536598-2.5245743,4.2310753-3.7318497
			l0.4302826-0.3264694c1.5942593-1.199173,3.1890297-2.2318497,4.7301407-3.0881882
			c0.1605606-0.0904922,0.3196526-0.1694946,0.4805336-0.2602386c1.2795467-0.6787643,2.519434-1.2439651,3.6808796-1.6661758
			l1.0460663-1.3986969l0.341301-0.4571686L39.910778,101.1903305z"/>
		<path class="st15" d="M22.0826187,124.2207336c-0.1960182,0.0444336-0.3802509,0.0903015-0.5694828,0.1295776
			l-0.0114937-0.0017242c-1.2425117-1.6235199-2.5084057-3.291954-3.7656822-4.9356003l0.5325165-0.2058258
			C19.5192852,120.8557129,20.8066998,122.5390854,22.0826187,124.2207336z"/>
		<path class="st15" d="M27.9563808,121.746254c-0.1608829,0.0907364-0.3149452,0.1763687-0.4740372,0.2553711l-0.0067883,0.0051498
			c-1.6089153-2.1071091-3.3032513-4.3267975-4.9627113-6.4998474c0.1257172-0.1370926,0.2496414-0.2624435,0.3800621-0.392662
			C24.5473385,117.2806931,26.2667828,119.5334778,27.9563808,121.746254z"/>
		<path class="st15" d="M33.1200752,118.3499985l-0.4370728,0.3316193c-1.788311-2.3569717-3.698616-4.8613052-5.559021-7.299202
			l0.4302807-0.3264694C29.3759117,113.4293365,31.2664566,115.9069519,33.1200752,118.3499985z"/>
		<path class="st15" d="M37.7312088,114.2254868c-0.118927,0.1319427-0.2428818,0.2572556-0.3735962,0.3877563l-0.0064659,0.0049057
			c-1.6376152-2.1583633-3.3674088-4.424118-5.0667419-6.6503906c0.1605301-0.0905304,0.3146248-0.1761246,0.4805031-0.2602768
			C34.3874702,109.8460007,36.0720406,112.0521469,37.7312088,114.2254868z"/>
		<path class="st15" d="M41.5924034,109.1259842c-0.0887909,0.1716614-0.1761093,0.3318329-0.2831802,0.5069275
			l-0.0067902,0.0051498c-1.252243-1.6370239-2.5331917-3.3253021-3.8105812-4.9954529l0.3413048-0.4571762
			C39.0638809,105.807518,40.3315353,107.46418,41.5924034,109.1259842z"/>
		
			<ellipse transform="matrix(0.7966488 -0.6044424 0.6044424 0.7966488 -61.5798187 39.0566978)" class="st15" cx="27.2562866" cy="111.0484848" rx="16.035881" ry="5.8353257"/>
		<path class="st16" d="M38.2031288,102.74086c0.2074814,0.2734604,0.3048592,0.613266,0.3051682,1.0180359
			c-0.0081024,2.3760223-3.4944534,6.779213-8.6616116,10.6996994c-5.1716862,3.9239197-10.3511963,6.095787-12.6369801,5.4602127
			c-0.3897343-0.1093063-0.6907597-0.2945938-0.898243-0.5680542c-1.4316416-1.8868866,2.3088379-7.1292267,8.3564415-11.7177353
			C30.7108707,103.0480347,36.7714844,100.8539734,38.2031288,102.74086z"/>
		<path class="st14" d="M34.4754753,105.9781647l0.1757355,0.6431198l-1.820118,1.2882843
			c0.1466866,0.592804-0.0071945,1.4347916-0.3597908,2.1035385l-1.2750301,0.6143494
			c0.0063896-0.0050354,0.0004444-0.0125732,0.006834-0.0176086l-0.0383339,0.03022l-0.1117935-0.522583
			c0,0,0.3371677-0.4123688,0.510849-0.5859604c0.0063896-0.0050354,0.0063896-0.0050354,0.0063896-0.0050354
			c0.0613308-0.3292542,0.0660515-0.6383362-0.0113964-0.9070892c-0.2040863-0.7184982-1.0742092-0.6799545-2.1051369,0.0472488
			c-0.9924374,0.6968536-1.4995136,1.5241394-1.8250866,2.6601868c-0.4393158,1.5433731-1.0906582,2.765213-2.6622086,3.8697662
			c-1.4954834,1.0568237-2.7998333,1.2666626-3.3320045,0.5258942l-1.8260632,1.2807465l-0.1702728-0.6230469l1.7438965-1.2404175
			c-0.1328659-0.6281586,0.0441475-1.2440033,0.2671146-1.7618103l0.6999912-0.3197479
			c-0.0452557-0.1231155-0.0786247-0.2311478-0.072237-0.2361832c0.006834-0.0176163,0.4967384-0.5381546,0.4967384-0.5381546
			l0.1432934,0.5099716c-0.1679726,0.3644943-0.4470539,1.0607986-0.258791,1.7063446
			c0.214159,0.783844,1.1305752,0.4889526,1.8494892-0.0167313c0.9356918-0.6643524,1.3018036-1.3682098,1.7094173-2.7155685
			c0.4651966-1.5759277,1.257885-2.7627029,2.861536-3.8925629c1.4316292-1.0064087,2.9158936-1.3947601,3.5193195-0.5635986
			L34.4754753,105.9781647z"/>
		<path class="st17" d="M34.5125351,106.1113968l-1.8232918,1.2858658c0.1465988,0.6007004-0.008709,1.437027-0.3612213,2.1097336
			l-1.2776794,0.6100311c0.3317966-0.6695023,0.5268459-1.4387512,0.3684273-2.0050888
			c-0.2011795-0.7193069-1.078022-0.6835098-2.1068134,0.0422287c-0.9930611,0.7005539-1.4971142,1.5291138-1.8282509,2.6597061
			c-0.4341831,1.5428238-1.0861435,2.7670975-2.6568165,3.8746872c-1.4982967,1.0570908-2.8037376,1.2613907-3.3350048,0.5208054
			l-1.8245373,1.2868423l-0.1756306-0.6279221l1.752449-1.2359772c-0.134243-0.63311,0.0391178-1.2516632,0.2640858-1.7618027
			l1.2620163-0.5869446c-0.1577377,0.3652954-0.4380474,1.0610046-0.2567616,1.7089157
			c0.2184353,0.7796478,1.1306801,0.488121,1.8528023-0.0215073c0.9392948-0.6623383,1.303915-1.3690491,1.707859-2.7079239
			c0.4666538-1.5785675,1.257906-2.7665253,2.864645-3.9001617c1.4271202-1.0063553,2.9192352-1.3917999,3.5177498-0.5652695
			l1.8776817-1.3245621L34.5125351,106.1113968z"/>
	</g>
	<path class="st0" d="M105.957489,120.3611145l0.0239792-2.9044342l-0.0159683-0.0319901l-0.1040192-0.7601166l-0.48806-3.5605316
		l-0.168045-1.2321701l0.7201233,0.11203l3.9125443,0.6320801l0.6801224,2.7684174l1.3922043,5.6328125
		C111.9103699,121.0172119,106.1015015,120.4731369,105.957489,120.3611145z"/>
	<path class="st1" d="M110.5181656,115.3843994l-4.6566849,1.2801743l-0.48806-3.5605316
		c0.2079849-0.544075,0.4000549-0.9681625,0.5520782-1.1201401l3.9125443,0.6320801L110.5181656,115.3843994z"/>
	<path class="st24" d="M119.8792801,123.0871429v1.7310028l-14.7251358-0.5308456l-0.1076202-0.9616623l-0.2000351-1.7155991
		c-0.1231232-1.0847855,0.0846176-2.1849289,0.6000977-3.1465912l0.5384979-1.0001221l0.6770172,0.723175
		c0.3308563,0.3539047,0.8000412,0.5385361,1.2848206,0.507782l0.9000549-0.0615616
		c0.5539017-0.0307999,1.0616837-0.3539047,1.3232346-0.8539429l0.6078033-1.146347l2.6849594,2.6080475l4.4621735,1.2617188
		C119.0791473,120.8330002,119.8792801,121.8869858,119.8792801,123.0871429z"/>
	<polygon class="st47" points="119.8796768,123.3256378 119.8796768,124.8181458 105.154541,124.2873001 105.0469208,123.3256378 	
		"/>
	<path class="st0" d="M64.8474426,118.6968536l1.1521683,3.2084808c0,0-6.0729103,0.3440399-6.1609116,0.2720566l0.024025-2.9044266
		l0.6880913-1.6242599l1.7762375-4.2086334l0.3280754-0.7760849l1.1441612,0.3840408l4.2886162,1.4562149l-2.1523132,2.7843933
		l-0.0159683,0.0160217L64.8474426,118.6968536z"/>
	<path class="st1" d="M68.0879059,114.5042419l-2.1523132,2.7843933l-0.0159683,0.0160217
		c0,0-4.2166367,0.2960358-5.3688087,0.3440475l1.7762375-4.2086334c0.4480629-0.1360016,0.9521408-0.2639999,1.4722366-0.3920441
		L68.0879059,114.5042419z"/>
	<path class="st24" d="M73.7611694,124.9030685v1.7309952l-14.7251358-0.530838l-0.1076241-0.9616623l-0.2000351-1.7155991
		c-0.1231194-1.0847855,0.0846138-2.1849289,0.6001015-3.1465912l0.5384941-1.0001221l0.6770172,0.723175
		c0.3308563,0.3539047,0.8000298,0.5385361,1.2848091,0.507782c1.0320015-0.0347824,2.0293388-0.8551788,3.0206528-1.8124619
		l2.4954147,2.3586578l4.4621658,1.2617188C72.9610291,122.6489258,73.7611694,123.7029114,73.7611694,124.9030685z"/>
	<polygon class="st47" points="73.7615662,125.1415634 73.7615662,126.6340637 59.0364304,126.1032257 58.9288063,125.1415634 	"/>
	<path class="st0" d="M116.0083466,42.835537l-0.9489822,2.3937492l1.0293198,4.0801086l-1.74823,2.9649086l-0.2060928,0.3463058
		l-3.1750336,5.3527298l-3.45401-2.650383l-0.5994263-0.4505501l1.3733139-2.0570107l0.6671066-1.2690697l0.0070343-0.0234222
		l0.6423035-1.2204323l0.0337067-0.0612831l0.1382599-0.2901344l-0.6863861-5.7476921
		c-0.0382004-0.3482704,0.1824036-0.6748924,0.4997787-0.7632408c0.2958908-0.0845566,0.5911942,0.0195045,0.7652054,0.2554817
		c0.0397263,0.0374451,0.0724869,0.0983047,0.0907364,0.1395416l0.7316818,1.7251587l3.2037888-3.7164421
		c0.3779068-0.4425774,1.0426025-0.4469833,1.4350967-0.0381851c0.0163879,0.0304604,0.054245,0.0571289,0.0687637,0.0768166
		C116.0793152,42.1578369,116.1282959,42.5042381,116.0083466,42.835537z"/>
	<path class="st1" d="M114.3404541,52.2743034l-0.2060928,0.3463058l-3.1750336,5.3527298l-3.45401-2.650383l1.4409943-3.7766304
		l0.0070343-0.0234222C108.9533463,51.5229034,111.8500214,51.9188118,114.3404541,52.2743034z"/>
	<path class="st0" d="M86.9082336,36.290966l0.8889694,7.4136162c0.0477829,0.3984718,0.0107193,0.8070755-0.1161957,1.1867027
		c-0.0942993,0.263092-0.2238083,0.5105057-0.3889694,0.7357483c-0.027832,0.0430908-0.1361237,0.1355782-0.2801895,0.2588501
		l0.9414444,7.8512764l-4.4612885,0.5349541l-0.7589569-6.3293495c-0.0487442-0.0206833-0.1100922-0.0331802-0.1711349-0.0457611
		c-0.5842438-0.1750908-1.1119614-0.5424614-1.4797668-1.068203c-0.644249-0.8967133-1.0469818-1.9350548-1.1777802-3.0258598
		l-0.4652481-3.8799095c0,0-0.3639297-1.8181953,1.4010239-2.9044342L86.9082336,36.290966z"/>
	<path class="st1" d="M87.3428421,39.8923302l0.4137115,3.4501648c-0.2604446-0.0902977-0.4553146-0.3293571-0.4901047-0.6194725
		l-0.2541122-2.1192245C86.9775467,40.3136787,87.1111298,40.0416412,87.3428421,39.8923302z"/>
	<path class="st3" d="M77.0198822,38.1787758c0.0217667,0.0438042,0.0434341,0.098484,0.0651703,0.1531601
		c0.5104904,1.2141876,1.3490906,2.3308945,2.5388031,2.8802528c-0.0425949-0.459034,0.100647-0.9285316,0.2983704-1.3432732
		c0.1648941-0.3820763,0.4389038-0.7091866,0.8108521-0.8939934c0.361084-0.1848373,0.7655487-0.2493782,1.0177994-0.5984192
		c0.1864014-0.2617722,0.2309341-0.600399,0.2536392-0.9282112c0.0646515,0.3607788,0.2167358,0.7217751,0.4783478,0.9737396
		c0.2506409,0.2628708,0.6217804,0.427742,0.9933472,0.3958626c0.3606644-0.0208969,0.6889877-0.2276917,0.9301376-0.5112
		c0.2301407-0.2835388,0.3730545-0.6219177,0.4504623-0.9823418c0.3480759,0.6346741,0.7508621,1.2366714,1.1865158,1.8169403
		c0.3811264,0.5145073,0.8717041,0.9746666,1.1762009,1.5436668c0.1631317,0.317276,0.1728897,0.7872276,0.2266312,1.1369743
		c0.1183319,0.7324677,0.2367401,1.4648705,0.3660431,2.1863594c0.4825592-0.6980743,0.9758453-1.3415642,1.2838745-2.1493874
		c0.1869812-0.4912682,0.2756882-0.9936523,0.3535004-1.5180054c0.0779343-0.5679741,0.2432022-1.124855,0.2992859-1.7038841
		c0.0113754-0.174778,0.0336914-0.3495941,0.0450974-0.5353088c0.0461884-0.9942284-0.0277786-1.9997635-0.2437897-2.9837151
		c-0.151207-0.7106743-0.4115753-1.4543724-1.0116272-1.849247c-0.1635895-0.1097221-0.3491669-0.1757507-0.5349197-0.1980286
		c-0.4479294-0.0230026-0.8421173,0.3038063-1.170723,0.5980339c0.1537628-0.3056068,0.1328812-0.6990204-0.0740204-0.9836617
		c-0.1959686-0.2846107-0.56707-0.4384766-0.9059448-0.3847046c-0.4263077,0.0535469-0.7549667,0.3914604-1.1705322,0.521534
		c-0.3609161,0.1192741-0.7431946,0.0636902-1.1254425-0.0355835c-0.1856308-0.0442162-0.3712311-0.099308-0.5459976-0.1434326
		c-0.5350876-0.1324692-1.1030884-0.1994591-1.6496887-0.1025276c-1.3228149,0.2370987-1.8072128,1.6673393-3.0866318,2.0465393
		c-0.3171768,0.0975761-0.6669922,0.1513176-0.9515076,0.3363457c-0.3393173,0.2286377-0.5261154,0.6215324-0.6144714,1.0146713
		C76.5537643,36.6915207,76.7375565,37.4678383,77.0198822,38.1787758z"/>
	<path class="st1" d="M82.8462448,48.8484993l-0.1091919-0.9106407c0.0426865,0.2182198,2.3419113-0.8821716,2.602417-1.1257629
		c0.1493378-0.0581207,0.257431,0.1461945,0.1253586,0.2369537C84.8157654,47.8692665,83.9531097,48.4791336,82.8462448,48.8484993z
		"/>
	<path class="st0" d="M86.9825211,40.3614807l0.2539902,2.1181908c0.049942,0.4164848,0.427681,0.7133331,0.844162,0.6633911
		s0.7133255-0.4276772,0.6633835-0.844162l-0.2539902-2.1181908c-0.024971-0.2082443-0.1319504-0.3858185-0.2844315-0.5061684
		c-0.1529922-0.1197052-0.3514175-0.181591-0.5596542-0.15662C87.2294998,39.5678596,86.9326553,39.9455948,86.9825211,40.3614807z"
		/>
	<path class="st4" d="M82.4653091,42.7036476l-0.4051666,0.6467323c-0.105896,0.1690331-0.0529251,0.3920288,0.1176758,0.4953842
		l0.457695,0.2772942"/>
	<path class="st5" d="M83.3057098,46.3176498c0.0463409-0.0115242,0.0926819-0.0230446,0.1440735-0.0409927
		c0.4227753-0.1521072,0.6617889-0.5443726,0.7974625-0.9539299c0.0536652-0.1494637,0.0888367-0.3026733,0.1138077-0.4427261
		c-0.0007095-0.0058823,0.0044708-0.0124664,0.0037613-0.0183487c-0.0007019-0.0058784,0.0044708-0.0124664,0.0037689-0.0183487
		c0.0263748-0.1282921,0.0408401-0.2551575,0.0495758-0.3813324c0.0016479-0.0359917,0.0040054-0.0661011,0.0056686-0.1019478
		c0.0023575-0.0301132,0.0098877-0.0668068-0.0002289-0.101387c-0.0014038-0.0117645-0.0086975-0.0228195-0.0211639-0.0272903
		c-0.0072937-0.011055-0.0189133-0.0096626-0.0256195-0.014679c-0.0365601-0.0075493-0.0697403,0.014183-0.1043091,0.024437
		c-0.0228348,0.0085602-0.050827,0.0238457-0.0735016,0.0325317c-0.0625763,0.0253983-0.1250076,0.0507813-0.1875839,0.0761833
		c-0.0736313,0.032692-0.1471176,0.0653648-0.2213287,0.0920143c-0.0853958,0.0340996-0.1647644,0.067482-0.244278,0.1008759
		c-0.0845413,0.0399666-0.1640549,0.0733643-0.249321,0.1073036c-0.0795135,0.0333977-0.1588821,0.0667763-0.2382507,0.1001549
		c-0.0736313,0.032692-0.1478271,0.0594826-0.2214737,0.0920334c-0.0624161,0.0255241-0.1250076,0.0507813-0.1875839,0.0761795
		c-0.0506668,0.0239754-0.0963058,0.041378-0.1419449,0.0587807c-0.0278473,0.0152702-0.0506668,0.0239716-0.0793686,0.0333786
		c0,0,0,0-0.0058823,0.0007057c-0.0169373,0.0079956-0.1022034,0.0419388-0.1808624,0.0811996
		c-0.0853958,0.0340996-0.1647644,0.0674782-0.1647644,0.0674782
		C81.9922333,45.4023743,82.3945465,46.5223541,83.3057098,46.3176498z"/>
	<path class="st6" d="M82.241127,45.0924454l0.1326981,0.3118973c0.0587845,0.1419449,0.2279816,0.2109909,0.3699417,0.1523552
		l1.6172867-0.6766968c-0.0007095-0.0058823,0.0044708-0.0124664,0.0037613-0.0183487
		c-0.0007019-0.0058784,0.0044708-0.0124664,0.0037689-0.0183487c0.0263748-0.1282921,0.0408401-0.2551575,0.0495758-0.3813324
		c0.0016479-0.0359917,0.0040054-0.0661011,0.0056686-0.1019478c0.0023575-0.0301132,0.0098877-0.0668068-0.0002289-0.101387
		c-0.0014038-0.0117645-0.0086975-0.0228195-0.0211639-0.0272903c-0.0072937-0.011055-0.0189133-0.0096626-0.0256195-0.014679
		c-0.0365601-0.0075493-0.0697403,0.014183-0.1043091,0.024437c-0.0228348,0.0085602-0.050827,0.0238457-0.0735016,0.0325317
		c-0.0625763,0.0253983-0.1250076,0.0507813-0.1875839,0.0761833c-0.0736313,0.032692-0.1471176,0.0653648-0.2213287,0.0920143
		c-0.0853958,0.0340996-0.1647644,0.067482-0.244278,0.1008759c-0.0845413,0.0399666-0.1640549,0.0733643-0.249321,0.1073036
		c-0.0795135,0.0333977-0.1588821,0.0667763-0.2382507,0.1001549c-0.0736313,0.032692-0.1478271,0.0594826-0.2214737,0.0920334
		c-0.0624161,0.0255241-0.1250076,0.0507813-0.1875839,0.0761795c-0.0506668,0.0239754-0.0963058,0.041378-0.1419449,0.0587807
		c-0.0278473,0.0152702-0.0506668,0.0239716-0.0793686,0.0333786c0,0,0,0-0.0058823,0.0007057
		C82.4050522,45.0192413,82.3197861,45.0531845,82.241127,45.0924454z"/>
	<path class="st3" d="M84.2487335,45.3255157c-0.1380615,0.4044456-0.3791122,0.796669-0.8009186,0.9503326
		c-0.0486679,0.0173035-0.0974884,0.0329857-0.143898,0.0418282c-0.1009598-0.282486,0.0112228-0.6298103,0.2934341-0.8420334
		C83.7986679,45.3254852,84.0399704,45.2769127,84.2487335,45.3255157z"/>
	<path class="st1" d="M88.018631,40.2782478l0.0726089,0.6054916L87.567276,41.208992l-0.1036301-0.8641968
		c-0.0181503-0.151371,0.0928497-0.292614,0.2442169-0.3107643C87.8592377,40.0158806,88.0004807,40.1268768,88.018631,40.2782478z"
		/>
	<path class="st1" d="M87.6383667,41.801857l0.5277634-0.2935295l0.0680618,0.5676117
		c0.0181503,0.151371-0.0928421,0.292614-0.2442169,0.3107643s-0.2926102-0.0928459-0.3107681-0.2442169L87.6383667,41.801857z"/>
	<path class="st21" d="M113.5672379,54.3381119c-0.5017395,1.007534-1.3079605,2.4338112-2.2677917,3.997673
		c-1.6262817,2.6442986-3.7134476,5.7012329-5.5221176,7.9335938c-1.0139313,1.2515793-2.7104568,1.7011108-4.2196655,1.1199951
		c-3.1120987-1.1903152-8.1031342-3.174881-9.0530319-3.9195442c-0.5614166-0.4238396-1.1463318-0.8547707-1.7134247-1.3109283
		c-0.6428909-0.5095482-1.2806015-1.0532341-1.814415-1.6371384c-1.7623138-1.9124031-2.9967346-4.6815948-0.6601715-6.6838531
		l0.1947861-0.1558304l0.2696838-0.2352905l0.2519379-0.2100067c0.4429855-0.387394,0.9747849-0.6460114,1.5164185-0.7842865
		c0.2116013-0.0589027,0.4161606-0.0943832,0.6352463-0.1101799c0.1867447-0.0101891,0.3734818-0.0204391,0.5659103,0.0016899
		c0.5607224,0.0358276,1.1096573,0.1956749,1.6145477,0.4852066c0.3785706,0.2004967,0.7253036,0.473053,1.0186462,0.8214111
		c0,0,6.5711746,5.1484642,8.0634842,5.8877907c2.0120544-2.7223129,3.9919357-4.6072006,5.6125793-7.0287743
		c0.2383728-0.3518333,0.4533844-0.7107201,0.6772919-1.0823174
		C110.5168686,52.1611366,111.8174973,53.5214577,113.5672379,54.3381119z"/>
	<path class="st20" d="M111.2994461,58.3357849c-1.6262817,2.6442986-3.7134476,5.7012329-5.5221176,7.9335938
		c-1.0139313,1.2515793-2.7104568,1.7011108-4.2196655,1.1199951c-3.1120987-1.1903152-8.1031342-3.174881-9.0530319-3.9195442
		c-0.5614166-0.4238396-1.1463318-0.8547707-1.7134247-1.3109283l0.2705994-0.1023712l1.4184875-2.8890839
		c0.4917526-1.001564,1.9379654-0.9457283,2.3510361,0.0907707l1.7543259,4.4021072l5.7291946,2.5186386
		c0.5475845,0.2407227,1.1870041,0.1172409,1.6055756-0.3100739L111.2994461,58.3357849z"/>
	<path class="st21" d="M93.5706329,52.926651l0.0018616,0.0107079c-0.0753784,0.013073-0.4961319-0.0470276-0.4985809,0.1308784
		c0,0-0.004509,0.6772766,0.0137253,1.8053436c-0.0061035,0.9881096-0.006279,2.3300247,0.0127106,3.8460922
		c0.0075607,0.8748665,0.0225754,1.7927055,0.0090714,2.7377663c0.0129929,1.1622124,0.0246048,2.3801041,0.0432663,3.5746346
		l0.0018692,0.0107803c0.0023651,1.9958267,0.0188141,3.9448776,0.0260162,5.5849686
		c0.0032272,1.0419312,0.013237,1.738884,0.011116,2.238327c0.0041656,0.0880203-0.002388,0.1778336-0.0000916,0.2550735
		c0.0057678,0.6089554,0.0023727,0.9090042,0.0031433,1.2970657c-4.6596985,2.2277069-9.5219727,3.1597595-14.5547714,1.3820572
		c-0.214325-0.0848007-0.426796-0.1588974-0.6303406-0.2455673c-0.2377548-0.0918427-0.4647217-0.1855545-0.6916962-0.2792664
		l-0.8803406-7.377594l-0.2829971-2.3353577l-0.4564667-3.8467674l-0.0112076-0.0645943l-0.7237473-5.9631004l-0.2485275-2.0085716
		l0.4657669-0.191658l0.6306534-0.2646637l6.9638138-2.8824501l0.2705994-0.1023712
		c0.0021973,0.3323135,0.095665,0.6155624,0.219574,0.8823624c0.8861694,1.720562,4.1791611,1.4599838,4.2644806-0.8616104
		c0.0084763-0.079113,1.1362991,0.4128685,2.4227676,0.9882813l0.0018692,0.0107765
		c1.2017517,0.5345993,2.5298157,1.1582298,3.1802673,1.4557495c0.218132,0.1063461,0.3641205,0.1808014,0.4001312,0.1967583
		C93.557991,52.9177399,93.5706329,52.926651,93.5706329,52.926651z"/>
	<path class="st20" d="M80.1254349,59.522934l-2.0795517,15.7571106c-0.4315033-0.0026855-0.2964401-0.0018463-0.727951-0.0045319
		l-0.8803406-7.377594l-0.2829971-2.3353577l-0.4564667-3.8467674l1.2242508-0.6781769l2.2647247-2.0124817
		C79.579483,58.6764526,80.1941223,59.0025253,80.1254349,59.522934z"/>
	<path class="st11" d="M111.4942856,115.3843994h-7.4010849l-2.8964233-22.507309l-14.3061066-5.6488266L86.42659,88.3564072
		l-4.8086624,11.7457199c-0.1840591,0.4400558-0.4320984,0.8481216-0.7281342,1.2161942l-12.3458099,15.0821991
		l-1.0161667,1.2481842l-7.4730721-1.5842209l12.9059029-18.818779l4.6726608-18.4826965l-0.3120117-3.4885025l15.8743057-0.8561325
		l0.1040192,0.8801117l0.2720642,2.2963333l2.3763275,1.4322357l11.6577148,7.0250092
		c1.632225,0.9761734,2.656395,2.7043991,2.7444,4.6006775l1.0161667,22.0032349L111.4942856,115.3843994z"/>
	<path class="st12" d="M93.2996216,75.2984848c-1.6301804,0.0966644-10.0941544,1.4903717-13.3279495,2.0293655
		c-0.7607346,0.1268005-1.2761536,0.8763733-1.0794296,1.6220932c0.0012741,0.004837,0.0025558,0.0096283,0.0038452,0.0143661
		c0.4795227,1.7614594,0.3489151,3.6361694-0.3709641,5.313797l-5.564476,12.967598l4.6726608-18.4826965l-0.3120117-3.4885025
		l15.8743057-0.8561325L93.2996216,75.2984848z"/>
	<path class="st13" d="M86.42659,88.3564072l-4.8086624,11.7457199c-0.1840591,0.4400558-0.4320984,0.8481216-0.7281342,1.2161942
		l-12.3458099,15.0821991l-4.9527321-1.5681992l11.2896461-17.5866165l1.6899643-4.721405
		c0.8693542-2.4288101,2.5450134-4.4862213,4.7475815-5.8291931l3.2198792-1.9632568L86.42659,88.3564072z"/>
	<path class="st13" d="M111.3662949,112.6559753c-3.0724792,0.6721191-5.480835,1.2001724-5.480835,1.2001724l-1.2401733-23.9875031
		l-15.8423233-7.2650833l7.14505-3.5765076l11.6577148,7.0250092c1.632225,0.9761734,2.656395,2.7043991,2.7444,4.6006775
		L111.3662949,112.6559753z"/>
	<path class="st0" d="M69.6461487,74.3216553l2.7612839,4.4304504l0.7462082,2.6646805l0.3733521,1.3323593l0.1797638,1.044487
		c0.0483856,0.2693481,0.2606735,0.471489,0.5306091,0.5020828l0.6255798,0.0736313l0.1479416,0.3605728
		c0.0403519,0.1180725,0.1267929,0.2160339,0.2260208,0.2875519c0.119194,0.0779266,0.2708206,0.1161118,0.4219971,0.1016998
		c0.3088303-0.042099,0.5368042-0.300621,0.5408173-0.6032944l0.0107117-0.289566l0.1377335,0.7290802
		c0.0685883,0.3218155,0.3730698,0.5428848,0.7015915,0.4940414l0.2168655-0.034729
		c0.282486-0.0418701,0.5043106-0.2674561,0.5281906-0.5571289l0.0120544-0.1316452l0.1297531,0.5646667
		c0.0683746,0.3151932,0.3793259,0.5230789,0.7014313,0.4742889l0.242981-0.0415344
		c0.3416367-0.0555496,0.569046-0.379837,0.5136795-0.7148972l-0.4441299-2.7264252l-0.0348206-0.2036514
		c-0.0551987-0.3153-0.1630173-0.6236115-0.3167114-0.9051971c-0.0669632-0.131012-0.1469879-0.2487488-0.2334366-0.3664322
		l-1.8225327-2.3463516l-1.1169128-2.1352234l-0.8091965-1.5523148L69.6461487,74.3216553z"/>
	<polygon class="st1" points="69.6461487,74.3216553 72.4074326,78.7521057 73.1536407,81.4167862 72.9344559,78.0568619 
		75.4261703,76.3251724 74.6169739,74.7728577 	"/>
	<path class="st21" d="M79.9488602,57.1301765c0.0020447,0.5874634-0.1395569,1.1775703-0.4216156,1.7255669l-2.1826782,4.3600121
		l-0.2056808,0.4127045l-0.9842911,1.9341011l-0.8405075,1.6762466l-1.2148361,2.3954544l0.0663681,0.2546463l1.5488052,5.221077
		l0.0551605,0.1900482l0.0018692,0.0107803l0.078949,0.2635651l0.146759,0.4625168l-5.4271011,2.7268066l-3.5554733-9.054039
		c-0.424057-1.1020203-0.3748169-2.3526688,0.1391449-3.4177628c1.1577072-2.3412094,3.2044067-6.0787125,3.2044067-6.0787125
		l2.3902206-4.7620049c0.4877319-0.960701,1.3258591-1.6273422,2.283226-1.9264679
		c0.0411911-0.018177,0.0968628-0.0167999,0.1488266-0.0368462c0.8590012-0.2266273,1.8026199-0.1574364,2.674942,0.2679863
		c0.0252228,0.0178261,0.0523758,0.0463524,0.0883789,0.0623093c0.061348,0.033699,0.1352768,0.076313,0.1984406,0.1208649
		C79.2839203,54.6393127,79.9279022,55.8584023,79.9488602,57.1301765z"/>
	<line class="st32" x1="74.0972214" y1="69.6339493" x2="71.9790878" y2="69.0584412"/>
	<line class="st4" x1="77.8050766" y1="84.7284241" x2="77.4621811" y2="82.2205505"/>
	<line class="st4" x1="76.2346802" y1="84.3604279" x2="76.2197876" y2="82.6071167"/>
	<line class="st4" x1="74.8641968" y1="84.3679657" x2="74.7070313" y2="83.280304"/>
	<path class="st5" d="M83.5569611,32.786335c-0.0116959,0.327774,0.031189,0.6447487,0.1287003,0.9619255
		c0.2494431,0.7654762,0.9033661,1.4337311,1.7008057,1.5231094c0.3604965,0.0446625,0.7212753-0.019989,1.0820541-0.0846443
		c-0.2630157,0.28339-0.2204208,0.7424889-0.068306,1.0925484c0.271553,0.6453514,0.8275146,1.1494255,1.4496231,1.4459801
		c0.6003265,0.2856331,1.2775574,0.3857117,1.9441223,0.3764534c0.0461884-0.9942284-0.0277786-1.9997635-0.2437897-2.9837151
		c-0.151207-0.7106743-0.4115753-1.4543724-1.0116272-1.849247c-0.1635895-0.1097221-0.3491669-0.1757507-0.5349197-0.1980286
		c-0.4479294-0.0230026-0.8421173,0.3038063-1.170723,0.5980339c0.1537628-0.3056068,0.1328812-0.6990204-0.0740204-0.9836617
		c-0.1959686-0.2846107-0.56707-0.4384766-0.9059448-0.3847046c-0.4263077,0.0535469-0.7549667,0.3914604-1.1705322,0.521534
		C84.3214874,32.9411926,83.939209,32.8856087,83.5569611,32.786335z"/>
	<line class="st4" x1="115.0593643" y1="45.2292862" x2="113.6458588" y2="46.9650612"/>
	<path class="st15" d="M121.3941498,65.4469147c0.1263657,0.8504257,0.2205582,1.5632095,0.2205582,1.5632095l-2.2949066,0.2782364
		c0,0-13.9340973-0.0087509-18.7540512-16.1393356l-4.1044006-12.2134476c0,0,6.9639511-1.9098549,9.735199-10.2953396
		l2.294899-0.2782421c0,0,0.0193558,0.6719131,0.0426865,1.3766212c2.6070557,1.0158157,7.0429382,2.1345043,11.3009186,0.3779545
		l2.2949066-0.2782421c0,0-0.8836365,1.7386971-1.434082,2.7044144l4.0837021,11.4667549
		C124.7795792,44.0094986,129.105072,57.2782784,121.3941498,65.4469147z"/>
	<path class="st17" d="M98.7603912,38.6599083c0,0,6.9645538-1.9088287,9.7319946-10.2940598
		c0,0,7.0233765,4.2044716,13.6400528,1.4729786l4.9488068,13.8927937c0,0,5.0383682,15.4635658-5.4629059,23.2796326
		c0,0-13.9353561-0.0067291-18.7540131-16.1431427L98.7603912,38.6599083z"/>
	<path class="st15" d="M120.883728,64.4912338c-2.688858-0.2576599-12.1424789-2.0391731-15.8159561-14.3410416
		l-3.3787918-10.0557556c2.2904892-1.1930466,5.7626801-3.677597,8.0224457-8.4502258
		c2.2042923,0.9000816,5.733696,1.9415054,9.5379944,1.4802589c0.5068665-0.0614548,1.0068359-0.1484909,1.4981537-0.2600861
		l4.1732025,11.7157326C125.0725098,45.0563736,129.0152893,57.7068481,120.883728,64.4912338z"/>
	<polyline class="st35" points="115.5996628,48.140358 111.4972916,47.5712395 114.3526077,48.8892174 112.777565,57.2885513 
		115.2688904,49.2095337 117.3331375,50.9178696 116.4789658,49.1739426 116.550148,47.8137856 	"/>
	<path class="st12" d="M104.6452866,115.3843994h-0.5520859l-2.8964233-22.507309l-14.3061066-5.6488266v-0.9774094
		c0-0.7242508,0.7350464-1.2167816,1.404892-0.9413681l14.4248428,5.9526291
		C102.7204056,91.2621155,104.1012115,109.7275696,104.6452866,115.3843994z"/>
	<path class="st101" d="M67.3186569,121.1513596c0.004921,0.1990585-0.1170349,0.3773651-0.2441406,0.5306396
		c-0.2165222,0.2610855-0.4638138,0.4966202-0.7351379,0.7001648"/>
	<path class="st101" d="M68.2623215,122.9666901c0.5809021-0.2018738,1.0786819-0.6328812,1.3615799-1.1789246"/>
	<path class="st101" d="M112.3548813,120.4398193c0.2779617-0.0255508,0.5321121-0.1779861,0.7305603-0.3742828
		c0.1984482-0.1963043,0.3483124-0.4353943,0.4943619-0.6732712"/>
	<path class="st101" d="M114.6421127,121.2319336c0.2679138-0.0756454,0.4949493-0.2612762,0.6639938-0.4824524
		c0.1690445-0.2211838,0.2855225-0.4775238,0.3905258-0.7353516"/>
	<line class="st32" x1="102.4472809" y1="59.538414" x2="102.9667587" y2="61.0602684"/>
	<circle class="st35" cx="121.440979" cy="31.5942516" r="0.6201146"/>
	<circle class="st35" cx="100.4569092" cy="39.3882828" r="0.6201146"/>
	<circle class="st35" cx="121.2338715" cy="65.6361084" r="0.6201146"/>
	<circle class="st35" cx="109.2582016" cy="30.1155529" r="0.6201146"/>
	<line class="st85" x1="101.1967773" y1="92.8770905" x2="103.111908" y2="90.8471451"/>
	<line class="st85" x1="72.9606476" y1="97.2457047" x2="73.8612976" y2="97.5166702"/>
	<path class="st2" d="M79.4952698,88.0802002l-1.7570724,9.2519379c-0.1816177,0.9562988-0.5789642,1.8585739-1.1618195,2.638176
		l-10.9512024,14.6478348"/>
	<polyline class="st85" points="81.1419296,76.1937485 81.1419296,79.4096603 79.4952698,88.0802002 	"/>
	
		<rect x="130.396347" y="46.9775124" transform="matrix(0.9015279 -0.432721 0.432721 0.9015279 -7.5465555 61.7785149)" class="st8" width="3.1372478" height="0.9857048"/>
	
		<rect x="133.8975372" y="45.4527779" transform="matrix(0.9015279 -0.432721 0.432721 0.9015279 -6.5850039 62.9544411)" class="st8" width="2.263859" height="0.9857048"/>
	<g>
		<path class="st7" d="M138.8008423,37.7542763l1.9052277,5.407814l-16.2876358,7.3962212l0.618454,2.4416962l-9.1793518-4.1921272
			c0,0,4.0692215-9.136055,4.1016922-9.0438766c0.0324783,0.0921783,1.2109985,2.7510376,1.2109985,2.7510376
			L138.8008423,37.7542763z"/>
		<polygon class="st8" points="119.9592285,39.7640038 122.0444336,40.2305222 121.8264465,42.3378448 121.1702271,42.5150414 		"/>
		<polygon class="st8" points="125.0368881,53.0000076 126.2424393,52.1461639 124.6806488,50.4392433 124.4184341,50.5583115 		"/>
		<polygon class="st8" points="138.8008423,37.7542763 140.2563782,37.6146965 142,42.5638046 140.7060699,43.1620903 		"/>
	</g>
</g>
</svg>
