<?xml version="1.0" encoding="utf-8"?>
<!-- Generator: Adobe Illustrator 22.0.1, SVG Export Plug-In . SVG Version: 6.00 Build 0)  -->
<svg version="1.1" id="Layer_1" xmlns="http://www.w3.org/2000/svg" xmlns:xlink="http://www.w3.org/1999/xlink" x="0px" y="0px"
	 viewBox="0 0 156 156" style="enable-background:new 0 0 156 156;" xml:space="preserve">
<style type="text/css">
	.st0{fill:#FFD9B2;}
	.st1{fill:#F7AC76;}
	.st2{fill:none;stroke:#3643C3;stroke-width:0.5;stroke-linecap:round;stroke-linejoin:round;stroke-miterlimit:10;}
	.st3{fill:#233764;}
	.st4{fill:none;stroke:#F7AC76;stroke-width:0.5;stroke-linecap:round;stroke-linejoin:round;stroke-miterlimit:10;}
	.st5{fill:#161718;}
	.st6{fill:#FFFFFF;}
	.st7{fill:#F06449;}
	.st8{fill:#BE412D;}
	.st9{fill:#FE8E60;}
	.st10{fill:#7D4C47;}
	.st11{fill:#4456D6;}
	.st12{fill:#203881;}
	.st13{fill:#6582FC;}
	.st14{fill:#DDA103;}
	.st15{fill:#FBC32E;}
	.st16{fill:none;stroke:#DDA103;stroke-width:0.5;stroke-miterlimit:10;}
	.st17{fill:#FBE6BB;}
	.st18{fill:none;stroke:#BE412D;stroke-width:0.5;stroke-linecap:round;stroke-linejoin:round;stroke-miterlimit:10;}
	.st19{fill:none;stroke:#F06449;stroke-width:0.5;stroke-linecap:round;stroke-linejoin:round;stroke-miterlimit:10;}
	.st20{fill:#F34B4B;}
	.st21{fill:#FC7070;}
	.st22{fill:none;stroke:#FFFFFF;stroke-miterlimit:10;}
	.st23{fill:#FC9F9F;}
	.st24{fill:#408A6F;}
	.st25{fill:#64B48D;}
	.st26{fill:none;stroke:#FBE6BB;stroke-width:0.5;stroke-linecap:round;stroke-linejoin:round;stroke-miterlimit:10;}
	.st27{fill:none;stroke:#F7AC76;stroke-width:0.25;stroke-linecap:round;stroke-linejoin:round;stroke-miterlimit:10;}
	.st28{fill:#A0665A;}
	.st29{fill:#6C3F44;}
	.st30{fill:none;stroke:#6C3F44;stroke-width:0.5;stroke-linecap:round;stroke-linejoin:round;stroke-miterlimit:10;}
	.st31{fill:none;stroke:#7D4C47;stroke-width:0.5;stroke-linecap:round;stroke-linejoin:round;stroke-miterlimit:10;}
	.st32{fill:none;stroke:#F34B4B;stroke-width:0.5;stroke-linecap:round;stroke-linejoin:round;stroke-miterlimit:10;}
	.st33{fill:none;stroke:#FC7070;stroke-width:0.5;stroke-linecap:round;stroke-linejoin:round;stroke-miterlimit:10;}
	.st34{fill:#EAE8F3;}
	.st35{fill:#40304A;}
	.st36{fill:none;stroke:#43334E;stroke-linecap:round;stroke-linejoin:round;stroke-miterlimit:10;}
	.st37{fill:#32775B;}
	.st38{fill:none;stroke:#233764;stroke-width:0.5;stroke-linecap:round;stroke-linejoin:round;stroke-miterlimit:10;}
	.st39{fill:none;stroke:#408A6F;stroke-width:0.5;stroke-linecap:round;stroke-linejoin:round;stroke-miterlimit:10;}
	.st40{fill:#3643C3;}
	.st41{opacity:0.56;fill:url(#SVGID_1_);}
	.st42{opacity:0.52;fill:#FBC32E;}
	.st43{opacity:0.56;fill:url(#SVGID_2_);}
	.st44{fill:none;stroke:#EAE8F3;stroke-width:0.5;stroke-linecap:round;stroke-linejoin:round;stroke-miterlimit:10;}
	.st45{fill:#FEFFFD;}
	.st46{opacity:0.35;fill:#32775B;}
	.st47{fill:#43334E;}
	.st48{fill:none;stroke:#EAE8F3;stroke-width:0.25;stroke-linecap:round;stroke-linejoin:round;stroke-miterlimit:10;}
	.st49{fill:none;stroke:#FBC32E;stroke-width:0.5;stroke-linecap:round;stroke-linejoin:round;stroke-miterlimit:10;}
	.st50{fill:none;stroke:#161718;stroke-width:0.5;stroke-linecap:round;stroke-linejoin:round;stroke-miterlimit:10;}
	.st51{fill:none;stroke:#40304A;stroke-linecap:round;stroke-linejoin:round;stroke-miterlimit:10;}
	.st52{opacity:0.33;fill:#FBC32E;}
	.st53{fill:#A6A3AE;}
	.st54{fill:#5B4B68;}
	.st55{fill:#776688;}
	.st56{fill:none;stroke:#FBC32E;stroke-width:0.5;stroke-miterlimit:10;}
	.st57{fill:none;stroke:#EAE8F3;stroke-linecap:round;stroke-linejoin:round;stroke-miterlimit:10;}
	.st58{fill:none;stroke:#203881;stroke-width:2;stroke-linecap:round;stroke-linejoin:round;stroke-miterlimit:10;}
	.st59{fill:none;stroke:#40304A;stroke-width:2;stroke-linecap:round;stroke-linejoin:round;stroke-miterlimit:10;}
	.st60{fill:#FFD8B7;}
	.st61{fill:#F4E4D4;}
	.st62{fill:none;stroke:#4456D6;stroke-width:0.5;stroke-linecap:round;stroke-linejoin:round;stroke-miterlimit:10;}
	.st63{fill:none;stroke:#DDA103;stroke-width:0.25;stroke-miterlimit:10;}
	.st64{fill:none;stroke:#FFFFFF;stroke-width:0.5;stroke-linecap:round;stroke-linejoin:round;stroke-miterlimit:10;}
	.st65{fill:none;stroke:#64B48D;stroke-width:0.5;stroke-linecap:round;stroke-linejoin:round;stroke-miterlimit:10;}
	.st66{fill:none;stroke:#64B48D;stroke-linecap:round;stroke-linejoin:round;stroke-miterlimit:10;}
	.st67{opacity:0.48;fill:#64B48D;}
	.st68{fill:none;stroke:#64B48D;stroke-width:0.25;stroke-linecap:round;stroke-linejoin:round;stroke-miterlimit:10;}
	.st69{fill:none;stroke:#F06449;stroke-width:2;stroke-linecap:round;stroke-linejoin:round;stroke-miterlimit:10;}
	.st70{opacity:0.92;fill:#64B48D;}
	.st71{opacity:0.57;fill:#408A6F;}
	.st72{opacity:0.36;fill:#408A6F;}
	.st73{fill:none;stroke:#BE412D;stroke-width:2;stroke-linecap:round;stroke-linejoin:round;stroke-miterlimit:10;}
	.st74{opacity:0.65;fill:none;stroke:#408A6F;stroke-width:0.25;stroke-linecap:round;stroke-linejoin:round;stroke-miterlimit:10;}
	.st75{opacity:0.67;fill:none;stroke:#64B48D;stroke-width:0.25;stroke-linecap:round;stroke-linejoin:round;stroke-miterlimit:10;}
	.st76{opacity:0.98;fill:#64B48D;}
	.st77{fill:none;stroke:#408A6F;stroke-width:0.25;stroke-linecap:round;stroke-linejoin:round;stroke-miterlimit:10;}
	.st78{fill:none;stroke:#FFD9B2;stroke-width:0.5;stroke-linecap:round;stroke-linejoin:round;}
	
		.st79{fill:none;stroke:#FFD9B2;stroke-width:0.5;stroke-linecap:round;stroke-linejoin:round;stroke-dasharray:4.0333505,4.0333505;}
	.st80{fill:#E68B4A;}
	.st81{opacity:0.62;fill:#64B48D;}
	.st82{fill:none;stroke:#FBC32E;stroke-width:0.25;stroke-miterlimit:10;}
	.st83{fill:none;stroke:#4456D6;stroke-linecap:round;stroke-linejoin:round;stroke-miterlimit:10;}
	.st84{fill:none;stroke:#E68B4A;stroke-width:0.5;stroke-linecap:round;stroke-linejoin:round;stroke-miterlimit:10;}
	.st85{fill:none;stroke:#203881;stroke-width:0.5;stroke-linecap:round;stroke-linejoin:round;stroke-miterlimit:10;}
	.st86{opacity:0.29;fill:#EAE8F3;}
	.st87{fill:none;stroke:#A6A3AE;stroke-width:0.5;stroke-linecap:round;stroke-linejoin:round;stroke-miterlimit:10;}
	.st88{opacity:0.74;fill:#FFFFFF;}
	.st89{opacity:0.19;fill:#FFFFFF;}
	.st90{fill:none;stroke:#40304A;stroke-width:0.25;stroke-linecap:round;stroke-linejoin:round;stroke-miterlimit:10;}
	.st91{fill:none;stroke:#F34B4B;stroke-width:2;stroke-linecap:round;stroke-linejoin:round;stroke-miterlimit:10;}
	.st92{fill:none;stroke:#43334E;stroke-width:0.5;stroke-linecap:round;stroke-linejoin:round;stroke-miterlimit:10;}
	.st93{fill:none;stroke:#6582FC;stroke-miterlimit:10;}
	.st94{opacity:0.47;fill:#A6A3AE;}
	.st95{opacity:0.43;fill:#FFFFFF;}
	.st96{fill:none;stroke:#FBE6BB;stroke-linecap:round;stroke-linejoin:round;stroke-miterlimit:10;}
	.st97{fill:none;stroke:#5B4B68;stroke-width:0.5;stroke-linecap:round;stroke-linejoin:round;stroke-miterlimit:10;}
	.st98{fill:none;stroke:#40304A;stroke-width:0.5;stroke-linecap:round;stroke-linejoin:round;stroke-miterlimit:10;}
	.st99{fill:none;stroke:#DDA103;stroke-linecap:round;stroke-linejoin:round;stroke-miterlimit:10;}
	.st100{fill:none;stroke:#FBC32E;stroke-linecap:round;stroke-linejoin:round;stroke-miterlimit:10;}
	.st101{fill:none;stroke:#32775B;stroke-width:0.5;stroke-linecap:round;stroke-linejoin:round;stroke-miterlimit:10;}
	.st102{opacity:0.4;fill:#FBE6BB;}
	.st103{fill:none;stroke:#FBC32E;stroke-width:0.25;stroke-linecap:round;stroke-linejoin:round;stroke-miterlimit:10;}
	.st104{fill:none;stroke:#4456D6;stroke-miterlimit:10;}
	.st105{opacity:0.61;fill:#64B48D;}
	.st106{opacity:0.9;fill:#64B48D;}
	.st107{opacity:0.76;fill:#64B48D;}
	.st108{fill:none;stroke:#5B4B68;stroke-width:0.5;stroke-miterlimit:10;}
	.st109{opacity:0.66;fill:#A6A3AE;}
	.st110{fill:none;stroke:#43334E;stroke-miterlimit:10;}
	.st111{opacity:0.52;fill:#6582FC;}
	.st112{fill:none;stroke:#DDA103;stroke-width:0.5;stroke-linecap:round;stroke-linejoin:round;stroke-miterlimit:10;}
	.st113{fill:#46724E;}
	.st114{fill:#FE8B2E;}
	.st115{fill:none;stroke:#7D4C47;stroke-width:2;stroke-linecap:round;stroke-linejoin:round;stroke-miterlimit:10;}
	.st116{opacity:0.4;fill:#EAE8F3;}
	.st117{fill:none;stroke:#EAE8F3;stroke-width:0.5;stroke-linecap:round;stroke-miterlimit:10;}
	.st118{fill:none;stroke:#4456D6;stroke-width:0.25;stroke-linecap:round;stroke-linejoin:round;stroke-miterlimit:10;}
	.st119{opacity:0.5;fill:#EAE8F3;}
	.st120{opacity:0.46;fill:#A6A3AE;}
	.st121{fill:#E0916E;}
	.st122{fill:none;stroke:#A0665A;stroke-linecap:round;stroke-linejoin:round;stroke-miterlimit:10;}
	.st123{opacity:0.46;fill:#BE412D;}
	.st124{fill:none;stroke:#203881;stroke-linecap:round;stroke-linejoin:round;stroke-miterlimit:10;}
	.st125{fill:#DBDBE1;}
	.st126{fill:none;stroke:#6582FC;stroke-width:0.5;stroke-linecap:round;stroke-linejoin:round;stroke-miterlimit:10;}
	.st127{opacity:0.53;fill:#A6A3AE;}
	.st128{fill:none;stroke:#DDA103;stroke-miterlimit:10;}
	.st129{opacity:0.2;fill:#FFFFFF;}
	.st130{fill:#B4A1BF;}
	.st131{opacity:0.5;fill:#6582FC;}
	.st132{opacity:0.6;fill:none;stroke:#FFFFFF;stroke-linecap:round;stroke-linejoin:round;stroke-miterlimit:10;}
	.st133{opacity:0.6;fill:none;stroke:#FFFFFF;stroke-width:2;stroke-linecap:round;stroke-linejoin:round;stroke-miterlimit:10;}
	.st134{opacity:0.54;fill:#A6A3AE;}
	.st135{fill:#161718;stroke:#000000;stroke-width:0.25;stroke-miterlimit:10;}
</style>
<g id="_x31_0">
	<g>
		<path class="st0" d="M50.2319221,51.6865921c0.093792-0.5127029,0.6066895-0.8149109,1.0944824-0.6746826
			c0.0263863,0.0162315,0.0676994,0.0198669,0.0877953,0.0285912c0.281044,0.1220169,0.4747009,0.3683281,0.5307045,0.6788788
			l0.3409462,2.2808113l2.6314049,2.6978035l-0.0214195,3.0825157l-0.0039711,0.3608932l-0.0532799,5.5735321l-3.866909-0.5003815
			l-0.666851-0.0795517l0.139122-2.2107162c0,0-0.0537262-1.2829094-0.0587997-1.3042183l-0.0510712-1.2340851l-0.0014381-0.0626259
			c0,0-0.0233116-0.2867508-0.0233231-0.2868919c-0.0066681-0.0820465-0.1862297-0.2477036-0.2335892-0.3106956
			c-0.2008743-0.2671776-0.4017487-0.5343552-0.6026268-0.8015366c-0.240097-0.3193474-0.4830208-0.5809059-0.5541496-0.9827385
			c-0.0715523-0.404232,0.0046692-0.8241844,0.1393127-1.2071877c0.3200684-0.9104233,0.5619888-1.790596,0.7398033-2.7374573
			c0.1326714-0.7064629,0.2653427-1.4129219,0.3980141-2.119381C50.2080269,51.8138428,50.2199745,51.7502174,50.2319221,51.6865921
			z"/>
		<path class="st1" d="M54.8958359,59.7805099l-0.0039711,0.3608932l-0.0532799,5.5735321l-3.866909-0.5003815l-0.5814552-3.5731773
			l-0.0050735-0.0213089C50.3851471,61.6200676,52.8069153,60.6246338,54.8958359,59.7805099z"/>
		<path class="st24" d="M55.1147614,61.8609238c0.0629158,1.0056725-1.3094406,9.4593658-1.7075157,11.9944916
			c-0.2305565,1.4351425-1.3408966,2.5455399-2.7655525,2.7654877c-2.9436836,0.4818954-8.7889824,0.0838242-9.8573799-0.062851
			c-0.1153412-0.0104218-0.2410431-0.0209045-0.3562584-0.031395c-0.859066-0.0733337-1.8017578-0.062851-2.4617233-0.6494751
			c-0.4400177-0.3771057-0.6494751-0.9637299-0.6704483-1.5399399c-0.0209732-0.5761337,0.1361885-1.1522751,0.3457756-1.6865387
			c0.219944-0.5866318,0.5132904-1.1627731,0.9007492-1.6655731c0.2933464-0.3876572,0.859066-1.0580368,1.4038124-1.0371323
			c2.6398544,0.1047897,7.2175255,0.366684,8.6632805,0.5866241c0.2618904-2.4302597,1.0580406-6.4110107,1.3512573-8.0451927
			c0.0629158-0.3875885,0.1047287-0.6389923,0.1047287-0.7123299C51.7731323,61.546669,53.3967628,62.0180817,55.1147614,61.8609238
			z"/>
		<path class="st37" d="M55.1147614,61.8609238c0.0629158,1.0056725-1.3094406,9.4593658-1.7075157,11.9944916
			c-0.2305565,1.4351425-1.3408966,2.5455399-2.7655525,2.7654877c-2.9436836,0.4818954-8.7889824,0.0838242-9.8573799-0.062851
			c-0.1153412-0.0104218-0.2410431-0.0209045-0.3562584-0.031395l-0.1361885-0.6389923l0.1371498-0.574646
			c0.2612724-1.0947189,1.3505135-1.7790756,2.4501648-1.5394135l7.825428,1.7054977
			c1.9942093,0.0754471,2.8981628-4.559845,2.7761688-7.4178848l-3.5200195-5.5717888
			c0.0629158-0.3875885,0.1047287-0.6389923,0.1047287-0.7123299C51.7731323,61.546669,53.3967628,62.0180817,55.1147614,61.8609238
			z"/>
		<line class="st4" x1="52.7598457" y1="55.2877159" x2="52.4451866" y2="57.2676659"/>
		<g>
			<path class="st14" d="M141.9931183,111.642189c-0.1360626,5.7511139-1.8960114,9.7108307-4.9339447,11.8478165v0.0104828
				l-0.6704407,0.4400177l-9.2813034,6.033844l-3.1531448-4.3159027l-0.6180191-0.8590012l-0.7438507-1.016098
				l-9.7526474-13.3458099l-0.6180191-0.8485184l-10.4964981-14.3829346l-0.6181488-0.8380356L90.610733,79.9956589
				l-0.6180191-0.8485107L79.4962158,64.7746964L78.878067,63.926178L68.3815689,49.5537872l-0.6283722-0.8485146
				L57.2566948,34.3328171l-0.2409172-0.3352242l-0.3772316-0.5132904l-5.1748466-7.102375l9.8364067-6.4319878
				c3.2160606-2.6922169,8.0872002-3.0693207,14.1001472-1.07901c0.3875885,0.1257019,0.7856598,0.2618885,1.1942215,0.4085617
				c4.8396912,1.8018227,10.3706665,5.0492115,16.3627701,9.7946548c0.2828598,0.2199459,0.5655899,0.4504395,0.8484497,0.6808701
				c0.7438507,0.5971127,1.4875717,1.2151966,2.2419052,1.8646755c3.708252,3.1740513,7.353714,6.704298,10.8525009,10.4859486
				c0.2409134,0.2514648,0.4819641,0.5133514,0.7123947,0.7752419c3.9701309,4.3368187,7.751915,8.9879532,11.2507019,13.7962494
				c0.2095871,0.2828598,0.4190445,0.5656548,0.6075363,0.8485146c3.5513458,4.9025383,6.7986069,9.9622383,9.6584015,15.0219307
				c0.1677704,0.3142548,0.3457794,0.6180191,0.5237732,0.9322739c3.1113281,5.5939636,5.7406921,11.1669464,7.7730255,16.4989548
				c0.1255646,0.3457108,0.2618866,0.6914215,0.3769684,1.0370636c2.2104492,6.0025253,3.6246185,11.6802368,4.0541534,16.729454
				c0.0732727,0.8903885,0.1255646,1.7389069,0.1255646,2.5665131
				C142.0036011,110.7622757,142.0036011,111.2127151,141.9931183,111.642189z"/>
			<g>
				<g>
					<path class="st15" d="M76.5944748,19.2794914c-5.154007,4.0226288-11.5125885,8.9670467-19.33778,15.0533257
						l-0.2409172-0.3352242l-0.3772316-0.5132904c6.5157471-5.0701199,12.968708-10.0879383,18.7617073-14.6133728
						C75.7878418,18.9966316,76.1859131,19.1328182,76.5944748,19.2794914z"/>
				</g>
				<g>
					<path class="st15" d="M93.8056946,29.7550163c-6.1804581,4.8292046-14.4248199,11.2507057-25.4241257,19.7987709
						l-0.6283722-0.8485146c8.8832245-6.9034004,17.7769318-13.8277092,25.2040482-19.6311264
						C93.2401047,29.2940922,93.5228348,29.5245857,93.8056946,29.7550163z"/>
				</g>
				<g>
					<path class="st15" d="M107.6124954,42.8808823c-6.641449,5.1853333-15.7237778,12.2563133-28.1162796,21.8938141
						L78.878067,63.926178c9.847023-7.657608,19.8616867-15.4514008,28.0220337-21.8205376
						C107.1410141,42.3571053,107.3820648,42.6189919,107.6124954,42.8808823z"/>
				</g>
				<g>
					<path class="st15" d="M119.4707336,57.5256462c-6.913826,5.4053421-16.247551,12.6753578-28.8600006,22.4700127
						l-0.6180191-0.8485107c10.0040512-7.7728882,20.332901-15.8180847,28.8704834-22.4700165
						C119.0727844,56.9599915,119.2822418,57.2427864,119.4707336,57.5256462z"/>
				</g>
				<g>
					<path class="st15" d="M129.6529083,73.4798508c-6.9766006,5.4367981-16.0692902,12.5182648-27.9276581,21.7262344
						l-0.6181488-0.8380356c9.5013733-7.385231,19.4636078-15.137146,28.0220337-21.8204727
						C129.2969055,72.8618317,129.4749146,73.165596,129.6529083,73.4798508z"/>
				</g>
				<g>
					<path class="st15" d="M137.8029022,91.0158691c-6.6309662,5.1749191-14.833252,11.5545425-24.9631348,19.421669
						l-0.6180191-0.8485184c8.3489609-6.4948349,17.1902542-13.3667755,25.2041855-19.6102142
						C137.5514984,90.3245163,137.6878204,90.6702271,137.8029022,91.0158691z"/>
				</g>
				<g>
					<path class="st15" d="M141.9931183,111.642189c-5.2377625,4.0749893-11.2192535,8.7261276-18.0388336,14.0162582
						l-0.6180191-0.8590012c6.065239-4.7035065,12.4554214-9.6688919,18.6463547-14.4876099
						C142.0036011,110.7622757,142.0036011,111.2127151,141.9931183,111.642189z"/>
				</g>
			</g>
			
				<ellipse transform="matrix(0.8097351 -0.5867957 0.5867957 0.8097351 -29.2212543 67.0333405)" class="st15" cx="88.7580566" cy="78.5772705" rx="24.3975716" ry="64.1554565"/>
			<path class="st128" d="M123.2249908,120.2571564c-3.7344131,8.0114746-15.8602142,5.2324295-31.3947067-8.586853
				c-20.2348022-18.02034-38.5699997-47.9927597-40.9583206-66.9358673
				c-0.976902-7.7183456,0.8467712-12.4188576,4.7223129-14.0580711c5.6340141-2.3882561,15.599556,1.6934776,27.5949631,12.3754616
				c20.2349319,18.02034,38.5810013,47.9927559,40.9691849,66.9358673
				C124.7120743,114.4059448,124.3538895,117.8255005,123.2249908,120.2571564z"/>
			<g>
				<g>
					<path class="st14" d="M104.5023575,99.1143951l5.3154984,7.2075729l-1.8379669,2.3965454l-3.7298279-2.5407257
						l0.4865494-0.6306229l-4.3967361-5.9822998c-3.099205,0.1081085-6.4146271-0.5405426-8.7930298-1.5495987l-1.6938934,0.6125793
						l-2.3603668-2.1262207l1.8377457-2.4144745c2.4144745,0.9549408,5.6579742,1.5856705,8.7571793,1.0630493
						c4.7750626-0.7928314,6.3426971-4.6308746,3.0811691-9.027504c-3.1172409-4.2163696-7.5678711-5.3335342-12.9194412-4.9011002
						c-5.6399384,0.5225143-9.2256851-0.2883606-12.4331131-4.7029114
						c-3.0631256-4.1804123-4.4325867-9.820343-3.2973862-15.4242096l-3.5136032-4.7930984
						c-0.0541077,0.1441803-2.144371-0.4324379-2.0724411-0.3963623l0.2344742-3.1533165l1.8379669-2.3965492l4.7568054,6.4508095
						c1.7838593-4.6128426,4.1083755-7.2075729,6.3246689-8.8293228l2.8651657,7.8562317l-1.819931,2.4145851l-1.4416046-0.1801453
						c-1.1171646,1.0269814-2.2523651,2.4505501-3.2434921,4.5226631
						c-1.9820404,4.1804085-0.7205811,8.1085243,0.9189835,10.3429604c2.1443634,2.9369888,4.3967361,3.1352768,9.5140533,1.9820404
						c8.2528152-1.9280396,15.8747864-0.4324341,21.8930511,7.6400146
						C114.1604843,89.7805939,112.7371368,97.1502762,104.5023575,99.1143951z"/>
				</g>
				<g>
					<path class="st17" d="M103.1804581,108.3186722l-4.6727448-6.3567276
						c-3.3642197,0.1252594-6.9950562-0.6691818-9.4142532-1.8221741l-1.6007385-3.64608
						c2.4197159,0.9576645,5.6647186,1.5837631,8.7669067,1.0632095c4.7665863-0.8000565,6.3323746-4.6321564,3.0782166-9.0259399
						c-3.127182-4.2231827-7.563179-5.3409271-12.923027-4.9103546c-5.6379166,0.5293884-9.2171326-0.2902451-12.4415741-4.7009506
						c-3.0608139-4.1875-4.4280472-9.8258209-3.2950974-15.431633l-4.5065918-6.1287117l0.9997864-4.6110153l4.7570038,6.4498787
						c1.7885437-4.6095772,4.1066513-7.2026863,6.3289261-8.8242264l2.8660812,7.866745
						c-1.656601,0.8592072-4.4748459,2.4484444-6.5118942,6.7540131c-1.975914,4.172699-0.7271652,8.0981598,0.9213715,10.3468933
						c2.1475754,2.9293137,4.4035721,3.1237106,9.5191193,1.9686966c8.2417297-1.9199524,15.8627853-0.4304352,21.8842926,7.6405487
						c5.3861771,7.2213593,3.9586945,14.6014633-4.2699203,16.5643311l5.3155365,7.2101212L103.1804581,108.3186722z"/>
				</g>
			</g>
		</g>
		<path class="st0" d="M56.3290787,132.7699127l0.0214729-2.6011963l-0.0143013-0.028656l-0.0931587-0.6807556l-0.4371033-3.188797
			l-0.1504974-1.1035156l0.6449394,0.1003265l3.5040512,0.5660858l0.6091194,2.4793854l1.2468452,5.0447235
			C61.6604462,133.3575134,56.4580574,132.8702393,56.3290787,132.7699127z"/>
		<path class="st1" d="M60.4136009,128.3127899l-4.1705093,1.1465149l-0.4371033-3.188797
			c0.1862755-0.4872665,0.3582916-0.8670807,0.494442-1.0031891l3.5040512,0.5660858L60.4136009,128.3127899z"/>
		<path class="st7" d="M68.7973709,135.2113342v1.5502777l-13.1877632-0.4754333l-0.096386-0.8612518l-0.1791496-1.5364838
			c-0.1102676-0.9715271,0.075779-1.9568024,0.5374489-2.8180695l0.4822731-0.8957062l0.6063309,0.6476746
			c0.2963142,0.3169556,0.7165146,0.4823151,1.1506805,0.4547577l0.8060875-0.05513
			c0.496067-0.0275879,0.95084-0.3169556,1.1850777-0.7647858l0.5443459-1.0266571l2.4046402,2.3357544l3.9962997,1.1299896
			C68.0807724,133.1925354,68.7973709,134.1364746,68.7973709,135.2113342z"/>
		<polygon class="st47" points="68.7977219,135.4249268 68.7977219,136.7616119 55.6099625,136.2861786 55.5135765,135.4249268 		
			"/>
		<path class="st0" d="M19.5111179,131.2794037l1.0318794,2.8735046c0,0-5.4388733,0.3081207-5.5176868,0.2436523
			l0.0215178-2.6011963l0.61625-1.4546814l1.5907898-3.7692184l0.2938232-0.6950684l1.0247059,0.3439484l3.8408661,1.304184
			l-1.9276047,2.4936905l-0.0143032,0.0143433L19.5111179,131.2794037z"/>
		<path class="st1" d="M22.4132633,127.5245285l-1.9276047,2.4936905l-0.0143032,0.0143433
			c0,0-3.7763977,0.2651367-4.8082771,0.3081207l1.5907898-3.7692184c0.4012833-0.1218109,0.8527336-0.2364426,1.3185291-0.35112
			L22.4132633,127.5245285z"/>
		<path class="st7" d="M27.4942074,136.8376617v1.5502777l-13.1877613-0.4754181l-0.0963879-0.8612671l-0.1791496-1.5364838
			c-0.1102648-0.9715271,0.0757818-1.9568024,0.5374489-2.8180695l0.4822741-0.8957062l0.6063328,0.6476746
			c0.2963114,0.3169556,0.7165003,0.4823151,1.1506681,0.4547729c0.9242535-0.0311584,1.8174648-0.7658997,2.7052803-1.62323
			l2.2348843,2.1123962l3.9962959,1.1299896C26.7776089,134.8188629,27.4942074,135.7628174,27.4942074,136.8376617z"/>
		<polygon class="st47" points="27.4945621,137.0512543 27.4945621,138.3879395 14.3068018,137.9125214 14.2104149,137.0512543 		
			"/>
		<path class="st0" d="M26.5800037,59.1440163l2.1433449,6.3343697c0.115202,0.3404617,0.3028793,0.6563644,0.5519867,0.9141617
			c0.1777649,0.1762085,0.3779297,0.3261642,0.5983505,0.4444351c0.0391254,0.0240784,0.1623402,0.0570221,0.3263512,0.1010284
			l2.2698765,6.7083206l3.8118362-1.2898026l-1.8298759-5.4079437c0.0314064-0.0355301,0.0761642-0.0693207,0.1206322-0.1030426
			c0.4045677-0.3670273,0.6892242-0.8676147,0.7835159-1.4344635c0.1744957-0.9733582,0.0991516-1.9679413-0.2162094-2.8999519
			l-1.1217194-3.3150864c0,0-0.4077454-1.6098289-2.2533646-1.806366L26.5800037,59.1440163z"/>
		<path class="st1" d="M27.6189575,62.2221718l0.9974766,2.9479027c0.1756172-0.1735077,0.2408161-0.4419174,0.1569405-0.6898041
			l-0.6126862-1.8107147C28.0768108,62.4216728,27.8638496,62.2533951,27.6189575,62.2221718z"/>
		<path class="st3" d="M34.9123154,59.4112282c-0.0732727,0.1780663-0.1675148,0.3457108-0.2618866,0.5028038
			c-0.031456,0.0524292-0.2828598,0.3561974-0.2828598,0.3980751c-0.157032-0.4189796-0.5028038-0.8903923-0.9008789-1.0999146
			c-0.2304306-0.1152153-0.4818344-0.1885529-0.743721-0.2618904c-0.3456459-0.0942421-0.6914215-0.1885529-1.047554-0.2932816
			c0.3561325,0.1257019,0.6389923,0.4294701,0.7228775,0.7961502c0.0313301,0.1047287,0.0313301,0.219944-0.0104866,0.3142548
			c-0.0943718,0.2304306-0.398201,0.2723732-0.6496048,0.2514c-0.6075344-0.0523643-1.1940975-0.2723732-1.6864166-0.6285706
			c0.2722473,0.2200127,0.4189205,0.5657196,0.4398918,0.9114304c0.031456,0.3456459-0.0629158,0.6913567-0.2094593,1.0056114
			c-0.1991024,0.4399529-0.5132904,0.838028-0.9010086,1.1104012c-0.1989727,0.1361885-0.408432,0.2514038-0.6388645,0.3247414
			c-0.1153431,0.031456-0.2305584,0.062851-0.3457737,0.0733337c-0.0629139,0.0104866-0.2933445-0.0104828-0.335289,0.0314598
			c-0.1989727,0.1675797,0.1572876,0.775177,0.2200737,0.9742165c0.1886158,0.6389923,0.3771038,1.2779846,0.5446205,1.9065552
			c-0.0208435-0.0838242-0.4503765-0.2618942-0.5446205-0.303833c-0.1466732-0.0837631-0.3038311-0.1466064-0.4505043-0.2304306
			c-0.3456459-0.2095261-0.6808071-0.4190445-1.0056095-0.6389923c-0.5762043-0.3875885-1.1314373-0.8066368-1.6027851-1.3199272
			c-0.0629158-0.0523643-0.1152153-0.1047935-0.1675167-0.1676445c-0.8276081-0.9532433-1.3513832-2.2417145-1.0894966-3.4778824
			c0.0629158-0.2723083,0.157032-0.5341988,0.3143177-0.7646942c0.0627861-0.0942421,0.376976-0.4294662,0.4503765-0.1361847
			c-0.1047306-0.4189835-0.1257019-0.8485146-0.0629158-1.2779846c0.0419445-0.2409821,0.1048584-0.492382,0.2409172-0.6914215
			c0.2514019-0.3666153,0.670578-0.5656548,1.1104679-0.6285057c0.0838852-0.0104866,0.1676445-0.0209694,0.2514019-0.0209694
			c0.1153431-0.0104866,0.2199459-0.0104866,0.335289,0c0.6389904,0.0523643,1.2570114,0.2618866,1.8960037,0.2618866
			c0.7228775,0,1.4875698-0.2723732,2.0323181-0.7542076c0.0209713-0.0209694,0.0523014-0.0419426,0.0732727-0.062851
			c0.314188-0.2933426,0.6075344-0.5971107,0.9742794-0.7961502c0.8066349-0.4504395,1.8437023-0.2933426,2.5979099,0.2304306
			c0.2409172,0.1676445,0.4608612,0.3771706,0.6180191,0.6285706c0.1466751,0.2514038,0.2409172,0.5342636,0.303833,0.8170586
			c0.0418129,0.1571579,0.0732727,0.3142548,0.0942421,0.4818954C35.3313637,57.7246857,35.258091,58.615078,34.9123154,59.4112282z
			"/>
		<path class="st1" d="M34.710022,67.7242355l-0.2632751-0.7780762c0.0497322,0.1928329-2.2331161,0.1910934-2.537674,0.0948029
			c-0.1431198,0.0106735-0.1516018,0.217514-0.00984,0.2398834C32.7403793,67.6931458,33.6729393,67.8530045,34.710022,67.7242355z"
			/>
		<path class="st0" d="M28.0912418,62.4622231l0.6123886,1.8098335c0.1204109,0.3558578-0.0702648,0.7415543-0.4261169,0.861969
			c-0.3558502,0.1204071-0.7415524-0.0702667-0.8619614-0.4261246l-0.6123886-1.8098335
			c-0.0602055-0.1779289-0.0423012-0.3627281,0.0344658-0.5188446c0.0774307-0.1557961,0.2138977-0.282402,0.3918209-0.3426056
			C27.5853043,61.9162064,27.9710064,62.1068802,28.0912418,62.4622231z"/>
		<path class="st4" d="M32.645874,62.6113129l0.577076,0.3662491c0.1508255,0.0957222,0.1940994,0.2963829,0.0961304,0.4457588
			l-0.2628441,0.4007683"/>
		<path class="st5" d="M33.3617706,65.8563232c-0.0419006,0.0085754-0.0837975,0.0171509-0.1322594,0.0224838
			c-0.4003716,0.0402756-0.7449493-0.1844635-1.0126877-0.4630737c-0.1010628-0.1000671-0.1886292-0.2103043-0.2628651-0.3138504
			c-0.0017014-0.0050278-0.0084248-0.0083542-0.0101261-0.0133743c-0.0016994-0.0050278-0.0084248-0.0083466-0.0101261-0.0133743
			c-0.070837-0.0934982-0.1315022-0.1904373-0.1872635-0.289032c-0.0152264-0.02845-0.0287533-0.0518723-0.0439377-0.0802002
			c-0.0135269-0.0234222-0.0337772-0.0501709-0.0389538-0.0820236c-0.0034008-0.0100479-0.0017757-0.0217972,0.0065727-0.03022
			c0.0016251-0.0117569,0.0115528-0.0151138,0.0150414-0.021759c0.0266247-0.0202103,0.0618324-0.0154572,0.0937233-0.0205078
			c0.021759-0.0018997,0.0502834-0.000351,0.0719604-0.0020905c0.0603733-0.003624,0.1206245-0.0072098,0.1809998-0.0108414
			c0.0721207-0.0019989,0.1441231-0.0039673,0.2143822-0.0110779c0.0821724-0.0054016,0.1591988-0.0090637,0.2363472-0.012764
			c0.0837517-0.0003433,0.1609001-0.0040436,0.2429085-0.0095291c0.0771484-0.0037079,0.1541748-0.00737,0.2312012-0.0110321
			c0.0721245-0.0019989,0.1424255-0.0089874,0.2145081-0.011116c0.0602913-0.0034637,0.1206245-0.0072174,0.1809959-0.0108414
			c0.0502014-0.0001907,0.0937996-0.0037384,0.1374016-0.0072937c0.0284004,0.0015945,0.0502014-0.0001831,0.0770264-0.0036621
			c0,0,0,0,0.005024-0.0017014c0.0167732-0.0000763,0.0987816-0.0055618,0.1775093-0.0041962
			c0.0821724-0.0054016,0.1591988-0.0090714,0.1591988-0.0090714
			C34.0699272,64.6096344,34.1771355,65.6700287,33.3617706,65.8563232z"/>
		<path class="st6" d="M33.7491531,64.455246l0.0131569,0.3032837c0.0072899,0.1373978-0.1027946,0.2585144-0.2401543,0.2659225
			l-1.5681973,0.0774307c-0.0017014-0.0050278-0.0084248-0.0083542-0.0101261-0.0133743
			c-0.0016994-0.0050278-0.0084248-0.0083466-0.0101261-0.0133743c-0.070837-0.0934982-0.1315022-0.1904373-0.1872635-0.289032
			c-0.0152264-0.02845-0.0287533-0.0518723-0.0439377-0.0802002c-0.0135269-0.0234222-0.0337772-0.0501709-0.0389538-0.0820236
			c-0.0034008-0.0100479-0.0017757-0.0217972,0.0065727-0.03022c0.0016251-0.0117569,0.0115528-0.0151138,0.0150414-0.021759
			c0.0266247-0.0202103,0.0618324-0.0154572,0.0937233-0.0205078c0.021759-0.0018997,0.0502834-0.000351,0.0719604-0.0020905
			c0.0603733-0.003624,0.1206245-0.0072098,0.1809998-0.0108414c0.0721207-0.0019989,0.1441231-0.0039673,0.2143822-0.0110779
			c0.0821724-0.0054016,0.1591988-0.0090637,0.2363472-0.012764c0.0837517-0.0003433,0.1609001-0.0040436,0.2429085-0.0095291
			c0.0771484-0.0037079,0.1541748-0.00737,0.2312012-0.0110321c0.0721245-0.0019989,0.1424255-0.0089874,0.2145081-0.011116
			c0.0602913-0.0034637,0.1206245-0.0072174,0.1809959-0.0108414c0.0502014-0.0001907,0.0937996-0.0037384,0.1374016-0.0072937
			c0.0284004,0.0015945,0.0502014-0.0001831,0.0770264-0.0036621c0,0,0,0,0.005024-0.0017014
			C33.5884171,64.4593658,33.6704254,64.4538803,33.7491531,64.455246z"/>
		<path class="st3" d="M32.2167015,65.4185638c0.2676926,0.2735519,0.6138954,0.4974747,1.0140877,0.4588318
			c0.0460129-0.0047989,0.0915222-0.0109711,0.1324387-0.0217438c-0.0274582-0.2672577-0.2521858-0.5046387-0.5621719-0.5672073
			C32.5804062,65.2448044,32.3666496,65.2986984,32.2167015,65.4185638z"/>
		<path class="st1" d="M27.2217941,62.7949142l0.1750546,0.5173454l0.5489845,0.0605927l-0.2498474-0.7383919
			c-0.0437641-0.1293335-0.1879845-0.2006302-0.3173218-0.156868
			C27.2493286,62.5213547,27.1780319,62.6655769,27.2217941,62.7949142z"/>
		<path class="st1" d="M28.1172352,63.8794098l-0.5398121-0.0334892l0.1641006,0.4849815
			c0.0437641,0.1293335,0.1879845,0.2006302,0.3173218,0.156868c0.1293354-0.0437622,0.2006321-0.1879807,0.1568699-0.3173218
			L28.1172352,63.8794098z"/>
		<path class="st24" d="M44.9374657,91.9272995c-3.6664314,2.8283463-7.6996117,2.7236099-12.4345703,2.1160126
			c-0.2094612-0.0418777-0.408432-0.062851-0.5970497-0.1047287c-0.2304306-0.031456-0.4505043-0.0733337-0.6599636-0.1152115
			c-0.1780014-0.5133591-0.3561306-1.0161591-0.5342617-1.5189667c-1.0265808-2.9541092-2.1055908-5.8767548-3.1426582-8.8204422
			c-0.408432-1.1208191-0.8066349-2.2417068-1.1940956-3.373085c-0.3562603-1.0370636-0.7123928-2.095108-0.7123928-3.1845398
			c-0.0104866-2.0532227,1.3512554-2.9855576,2.8702831-4.0331116c0.9323368-0.6389923,1.8645477-1.2779846,2.7970123-1.9274597
			l0.2094593-0.1361923c0.0734005,0.2932816,0.2094593,0.5237808,0.3666172,0.7332993
			c1.0999832,1.3408356,3.9283218,0.4923248,3.5721893-1.5609055c-0.0104828-0.0732727,5.3215218-0.0104218,5.3215218-0.0104218
			s0.3980751,1.1941605,0.4295311,1.2046509c0.0209732,0,0.0314598,0,0.0419464,0.0104828
			c-0.0629158,0.031456-0.4400215,0.0523682-0.4085617,0.2095261c0,0,0.1152153,0.5971069,0.3456459,1.58181
			c0.1781311,0.8590012,0.4295311,2.0426788,0.7332344,3.3626022c0.1781311,0.7647629,0.3562622,1.5608444,0.523777,2.398941
			c0.0838852,0.3561325,0.3982048,2.0636444,0.7961502,4.1273575c0.1048584,0.6180191,0.2304306,1.2779846,0.3562584,1.9379501
			c0.2618904,1.3827744,0.523777,2.7864609,0.7437248,3.9806824c0.0419426,0.2514038,0.0838852,0.4818954,0.1256981,0.7123337
			C44.7383652,90.8797455,44.9164963,91.8329926,44.9374657,91.9272995z"/>
		<path class="st37" d="M44.3612633,88.8055496c-0.5447502-0.2514038-1.0999832-0.4609222-1.6552162-0.6285019
			c-1.5608444-0.4714127-3.2159309-0.7018433-4.6301003-1.4979935c-1.602787-0.9009476-2.7550697-2.4408188-3.6035194-4.0540237
			l-0.7123909-4.043602c-0.0099335-0.0462875-0.3783722-1.7455063-0.3787308-2.1987076
			c-0.0006409-0.8082809,1.0239906-1.1583633,1.5186195-0.5190887l4.6634636,6.9080048c0,0,1.854187,0.0419464,3.6978912,0.1152802
			c0.1048584,0.6180191,0.2304306,1.2779846,0.3562584,1.9379501
			C43.8794289,86.2076416,44.1413155,87.6113281,44.3612633,88.8055496z"/>
		<path class="st54" d="M61.2897491,128.3087769h-6.6309624l-2.5980377-20.154892l-12.8115501-5.0597l-0.4085579,1.016098
			l-4.3054276,10.5174637c-0.1676445,0.3875885-0.3875885,0.7542114-0.6599617,1.0894318l-11.051733,13.5029755
			l-0.9112377,1.1208801l-6.6940041-1.4142303l11.4079914-16.6455612l0.1465435-0.2095261l4.1902103-16.5618057
			l-0.2514019-2.7445831l-0.031456-0.3771667l7.9405289-0.4294662h0.0209732l6.2538567-0.3352203l0.0942459,0.7856598
			l0.2515297,2.0637131l2.1264343,1.2779846l10.433712,6.2957993c1.4664688,0.8694839,2.3778343,2.4198456,2.4615936,4.1168747
			l0.775177,16.8655701l0.1363182,2.8388901L61.2897491,128.3087769z"/>
		<path class="st0" d="M59.7342758,85.4712067l-3.0512276-0.9065704l-0.2286415-0.0660477
			c-0.3549805-0.1008911-0.7301674-0.1443024-1.1020279-0.1272354c-0.1705856,0.0032654-0.3342628,0.026535-0.5012703,0.0564575
			l-3.3817825,0.6981964l-2.7933044,0.0794144l-1.2910271,0.0349121v4.5041428l2.2149239-0.2278748l3.1458549,0.5656586
			l1.5731201,0.2825394l1.1740227,0.3374557c0.3038292,0.0849152,0.624157-0.0319672,0.797554-0.2937241l0.4043427-0.6053009
			l0.4503746,0.0283279c0.1432228,0.0175781,0.2898941-0.0221863,0.4158516-0.088295
			c0.143219-0.0834427,0.2621422-0.2199478,0.3267212-0.3823471c0.1185379-0.3379745-0.0290298-0.7012024-0.3397636-0.856575
			l-0.293602-0.1556854l0.8258171,0.2229462c0.3686638,0.090477,0.757019-0.1116333,0.8790131-0.4731979l0.077877-0.2399597
			c0.1049843-0.3108673-0.0116386-0.651268-0.2985916-0.8205109l-0.1296654-0.0781937l0.6516533,0.1490402
			c0.3616295,0.0872726,0.7398834-0.128006,0.8584251-0.4829865l0.0846519-0.270134
			C60.3254433,85.977272,60.1095886,85.5817566,59.7342758,85.4712067z"/>
		<polygon class="st1" points="49.157856,88.6282501 48.6760216,85.2054214 47.3849945,85.2403336 47.3849945,89.7444763 
			49.5999184,89.5166016 52.7457733,90.0822601 		"/>
		<path class="st24" d="M48.6100769,85.0103989l-0.0187263,5.3563461l-0.4800377-0.0376968l-12.2980537-0.9116516
			c-1.0540581-0.0848999-2.0329781-0.6129837-2.6730652-1.4239655c-1.4024258-1.8294678-3.5577698-4.8942795-3.5577698-4.8942795
			l-2.8331165-3.7343826c-0.5648308-0.7544098-0.7624531-1.6785507-0.611824-2.5461121
			c0-0.0471954,0.0281506-0.0848923,0.0281506-0.1320343c0.1694717-0.7732849,0.6119385-1.4899902,1.2990189-2.0180817
			c0.0281506-0.0188751,0.065836-0.0282593,0.0939846-0.0471344c0.0471077-0.0377045,0.1130581-0.0754623,0.1694736-0.1131592
			c0.5458717-0.3394775,1.1483898-0.5092087,1.7600994-0.5186539c0.5271435-0.0094376,1.0448685,0.1037216,1.5249043,0.3205948
			c0.4706173,0.2263184,0.8847046,0.5658493,1.204689,0.9996033l2.5978088,3.4137268l0.2447319,0.3206558l1.1482735,1.5276871
			l0.9976463,1.3108139l1.41185,1.8860397l0.2353058,0.047142l8.9096413,1.062561l0.1693573,0.0282593h0.0094223
			l0.2447281,0.0377045L48.6100769,85.0103989z"/>
		<path class="st25" d="M48.1113129,90.3290482l-12.2980537-0.9116516
			c-1.0540581-0.0848999-2.0329781-0.6129837-2.6730652-1.4239655c-1.4024258-1.8294678-3.5577698-4.8942795-3.5577698-4.8942795
			l-2.8331165-3.7343826c-0.5648308-0.7544098-0.7624531-1.6785507-0.611824-2.5461121
			c0-0.0471954,0.0281506-0.0848923,0.0281506-0.1320343c0.1694717-0.7732849,0.6119385-1.4899902,1.2990189-2.0180817
			c0.0281506-0.0188751,0.065836-0.0282593,0.0939846-0.0471344c0.0471077-0.0377045,0.1130581-0.0754623,0.1694736-0.1131592
			c0.5458717-0.3394775,1.1483898-0.5092087,1.7600994-0.5186539c1.2236462,1.4805527,8.4710865,10.5146484,8.4710865,10.5146484
			s10.0861778,1.6849289,10.0861778,1.7320709C48.045475,86.255188,48.0924683,88.3958664,48.1113129,90.3290482z"/>
		<line class="st39" x1="38.6217041" y1="83.7743683" x2="37.3034096" y2="85.2315292"/>
		<line class="st4" x1="58.6104012" y1="86.9628677" x2="55.8382416" y2="86.061615"/>
		<line class="st4" x1="57.4057007" y1="88.390831" x2="55.5856514" y2="87.5299835"/>
		<line class="st4" x1="56.6941032" y1="89.8012543" x2="55.4873848" y2="89.4190598"/>
		<path class="st47" d="M55.1538734,128.3127899h-0.494442l-2.5940208-20.1574402l-12.8124809-5.0590591v-0.8753586
			c0-0.6486435,0.6583023-1.0897522,1.258213-0.8430939l12.6147919,5.1866837
			C53.1259346,106.5645218,54.6666031,123.2465591,55.1538734,128.3127899z"/>
		<path class="st18" d="M21.7243252,133.4776459c0.0044041,0.1782837-0.1048126,0.3379822-0.2186527,0.4752502
			c-0.1939125,0.2338257-0.4153919,0.4447632-0.6583824,0.6270599"/>
		<path class="st18" d="M22.5694675,135.1034546c0.5202503-0.1808014,0.9660625-0.566803,1.2194233-1.0558472"/>
		<path class="st18" d="M62.0585518,132.8403931c0.2489395-0.0228729,0.4765587-0.1593933,0.6542854-0.3352051
			c0.1777306-0.1758118,0.3119469-0.3899384,0.4427528-0.6029663"/>
		<path class="st18" d="M64.106987,133.5498047c0.2399368-0.067749,0.4432678-0.2339935,0.5946655-0.4320679
			c0.1513977-0.1980896,0.2557144-0.4276733,0.3497543-0.6585846"/>
		<path class="st0" d="M96.3648682,126.269928c0.0003204,0.0090942,0.1620865,0.4425354,0.4041138,1.074379l0.0003204,0.0090866
			c0.6149139,1.5975494,1.7036972,4.4316711,1.7036972,4.4316711s2.1412888,0.783905,2.3132782,0.7320557
			c0.1629028-0.0515747,1.1595535-2.1272125,1.1595535-2.1272125l-0.475502-1.7946014l-0.196991-0.6517563l-0.7648239-2.4704895
			l0.4941101-0.2554474C100.137413,125.5868759,96.4366837,126.2307434,96.3648682,126.269928z"/>
		<path class="st1" d="M96.3648682,126.269928c0.0003204,0.0090942,0.1620865,0.4425354,0.4041138,1.074379l0.0003204,0.0090866
			l0.0091476-0.0003204c0,0,2.888031,0.4280167,4.4948883,0.590477l-0.7648239-2.4704895l0.4941101-0.2554474
			C100.137413,125.5868759,96.4366837,126.2307434,96.3648682,126.269928z"/>
		<path class="st21" d="M102.9229965,130.6036682l0.5110092,2.6381073
			c-0.3168564,0.8962555-2.7995071,1.9882813-2.7995071,1.9882813l-0.2647095-0.611496l-2.0469666,1.3863525
			c-0.7921066,0.5321503-1.697319,0.8796539-2.6427078,1.0196991l-3.1168137,0.4401855
			c-0.3847885,0.0573578-0.7294006-0.2115936-0.7770004-0.5897064l-0.1122131-0.890625
			c-0.0522156-0.4030151,0.1126099-0.7964325,0.4371414-1.0314484l1.3618164-1.012619l2.4205933-1.8115997l1.0945206-2.3036194
			c0.1626816-0.315506,0.4590149-0.5192719,0.7907715-0.5835266c0.1409683-0.0273132,0.2867584-0.0297089,0.4375687-0.0072784
			c0.3408585,0.0716705,0.6328964,0.2905426,0.7968292,0.6031036l0.3683624,0.7463379l0.0113068,0.0149841l2.153862-1.234848
			l-0.0800095-0.7677917l0.6863937,0.7880249C102.5541,129.676651,102.828186,130.1141815,102.9229965,130.6036682z"/>
		<path class="st12" d="M100.1429291,134.0995636l0.2266388,0.5183105l-2.0489273,1.3874054
			c-0.7911987,0.5357056-1.6916809,0.8822327-2.6372681,1.015686l-3.1226578,0.4442291
			c-0.37957,0.0544128-0.7255325-0.2113342-0.7718201-0.588623l-0.0140457-0.11203
			c0.1450043,0.1363831,0.3463287,0.2082977,0.5586014,0.1786346l3.126358-0.444931
			c0.9455872-0.1334381,1.8459778-0.47995,2.6371765-1.0156555L100.1429291,134.0995636z"/>
		<path class="st12" d="M103.3231735,132.6689148l0.110672,0.5713654c-0.3161926,0.8949738-2.8007202,1.9881744-2.8007202,1.9881744
			l-0.2635574-0.6105804C100.3695679,134.6178741,102.1883087,133.6613007,103.3231735,132.6689148z"/>
		<path class="st0" d="M77.5894852,132.9206696c0,0,3.1783218,1.1313019,3.3522644,1.1342773
			c0.1736145-0.0061798,1.7713165-1.6457214,1.7713165-1.6457214l0.1263123-1.8526154l0.0927048-0.2228699l1.1084061-2.7932663
			l-0.306366-0.3825073c0,0-0.0545044,0.0110931-0.1543503,0.0328979c-0.7545319,0.1366577-3.4337692,0.1769333-3.5156479,0.189003
			c-0.0088196,0.0094681-0.1694412,0.3811569-0.4240723,0.9391327
			C78.9368286,129.8993378,77.5894852,132.9206696,77.5894852,132.9206696z"/>
		<path class="st1" d="M79.6400528,128.3190002l3.2920303,2.01474l1.1084061-2.7932663l-0.306366-0.3825073
			c0,0-0.0545044,0.0110931-0.1543503,0.0328979c-0.7545319,0.1366577-3.4337692,0.1769333-3.5156479,0.189003
			C80.0553055,127.3893356,79.8946838,127.7610245,79.6400528,128.3190002z"/>
		<path class="st21" d="M83.5764465,132.9222107l-0.3566513,2.6633759
			c-0.5860367,0.7484894-3.2872772,0.9921112-3.2872772,0.9921112l-0.0559616-0.6639862l-2.3821182,0.6614838
			c-0.9204254,0.2518768-1.889183,0.2926788-2.829895,0.1240387l-3.0945282-0.5763702
			c-0.3829956-0.0682983-0.6238937-0.433075-0.5484772-0.8066406l0.1775742-0.8799286
			c0.0789795-0.3986359,0.3606186-0.7189789,0.7431335-0.8382874l1.6135788-0.52565l2.8718185-0.9454346l1.7717667-1.8345184
			c0.254776-0.2471924,0.6006088-0.3458557,0.9355392-0.3009949c0.1423187,0.0190582,0.2812653,0.0632629,0.4170609,0.1325989
			c0.3002243,0.17659,0.5072556,0.4771423,0.5629959,0.8256378l0.1112213,0.8248444l0.0059357,0.017807l2.4351425-0.4838104
			l0.1689224-0.7532349l0.3993759,0.9657288C83.5223083,131.9259644,83.6426163,132.4280396,83.5764465,132.9222107z"/>
		<path class="st12" d="M79.8269806,135.349472l0.0495834,0.5635223l-2.3843079,0.66185
			c-0.9207001,0.2555389-1.8846664,0.296936-2.8234634,0.1219635l-3.1013565-0.5743866
			c-0.3771057-0.0694275-0.6203156-0.4315948-0.5439072-0.8039551l0.0223999-0.110672
			c0.0939636,0.1755066,0.2618561,0.3078308,0.4725189,0.3473969l3.1050797,0.5749207
			c0.9387894,0.1749573,1.9026718,0.1335449,2.8233643-0.1219788L79.8269806,135.349472z"/>
		<path class="st12" d="M83.2973633,135.0072937l-0.07724,0.576828c-0.5849991,0.7474823-3.2883987,0.9916077-3.2883987,0.9916077
			l-0.0551605-0.662735C79.876564,135.9129944,81.9053574,135.5861206,83.2973633,135.0072937z"/>
		<path class="st11" d="M97.0139008,111.2651901l5.1017075,14.6762238l-5.9185715,1.5713272l-4.4101563-11.2087631
			l-0.6915512-1.7809143l-0.5237732-1.319931l-1.2986984-3.3207855l-1.047554-2.6503372l-0.3877182-0.9531784v-0.0104904
			l-0.3038254-0.7856598l-0.0629196-0.1675186c-0.73349-1.854187-0.136055-3.4465561,0.9636688-5.426384l6.0443954-8.8623123
			l0.9217224-1.3618088l3.9600372,1.6970291l3.1216888,1.8437042l-6.0863419,7.3642654l-2.1789932,2.6399155l1.183609,3.4150314
			l0.1785202,0.5237732l0.7120056,2.032196l0.062912,0.1884842L97.0139008,111.2651901z"/>
		<path class="st12" d="M97.0079651,111.2574844l-5.2247086,5.0460663l-2.5113068-6.4130249
			c1.6841354-0.9514771,4.0955963-2.2441101,6.1253815-3.2622299L97.0079651,111.2574844z"/>
		<path class="st11" d="M106.0439301,98.5478821c-1.2675018,1.8646774-2.8076248,3.6769257-4.4413605,5.3739548
			c-0.4403992,0.4503708-0.8802872,0.9113617-1.3201828,1.3513794c-0.7749176,0.7856674-1.560585,1.5503616-2.304306,2.2731094
			c-0.5866928,0.5762024-1.1524124,1.1209564-1.6869278,1.6342468c-2.7027664,2.566452-4.7451859,4.3682098-4.7451859,4.3682098
			l-0.4506378,0.9742813l-7.2070389,15.4932175l-5.2275314-2.095108l0.73349-1.9587936l0.1989746-0.5447464l5.1855927-13.9849319
			l0.4818344-1.3094406c0.062912-0.2409134,0.1780014-0.4503708,0.3247986-0.6493454l2.2521362-3.1950836v-0.0104904
			l4.012207-5.6777191l0.1253204-0.1676407c1.3830948-1.9484329,2.7866516-3.9073486,4.2321548-5.834877
			c0.5866928-0.806572,1.1943512-1.6027222,1.8122482-2.3988724c-0.010231-0.1885529-0.0209732-0.3037643-0.0312042-0.4818954
			c-0.293602-0.2723083-0.3560028-0.5551682-0.4716034-0.8275452c-0.1043472-0.2618866-2.0112228-0.9637299-2.1160812-1.2151337
			c0-0.0104828,0.0317154-0.1781311,0.094635-0.4295273c0.0311966-0.1466751,0.062912-0.3142548,0.1043396-0.513298h0.0107422
			c0.0521774-0.2932739,0.1360626-0.6285019,0.2097168-0.9532394c0.1672592-0.6704483,0.3452606-1.2885361,0.439888-1.4247208
			l10.2658157-3.6244888C109.3963013,87.6533127,109.2704697,93.8339005,106.0439301,98.5478821z"/>
		<path class="st12" d="M106.0439301,98.5478821c-1.2675018,1.8646774-2.8076248,3.6769257-4.4413605,5.3739548
			c-0.4403992,0.4503708-0.8802872,0.9113617-1.3201828,1.3513794c-0.7749176,0.7856674-1.560585,1.5503616-2.304306,2.2731094
			c4.7564392-5.4490738,8.5834885-10.9189987,9.3752899-16.4570084l-0.8378372-5.9396057l-10.9051895,3.5721207
			c0.0521774-0.2932739,0.1360626-0.6285019,0.2097168-0.9532394c0.1672592-0.6704483,0.3452606-1.2885361,0.439888-1.4247208
			l10.2658157-3.6244888C109.3963013,87.6533127,109.2704697,93.8339005,106.0439301,98.5478821z"/>
		<path class="st13" d="M100.293129,100.6848679l-10.8422699,11.1878586l-6.3379974,16.0694199l-3.5196381-2.5245132
			l5.1855927-13.9849319l0.4818344-1.3094406c0.062912-0.2409134,0.1780014-0.4503708,0.3247986-0.6493454l2.2521362-3.1950836
			v-0.0104904l4.012207-5.6777191l0.1253204-0.1676407c1.3830948-1.9484329,2.7866516-3.9073486,4.2321548-5.834877
			L100.293129,100.6848679z"/>
		<path class="st8" d="M88.330452,67.3516388l-1.8167114-1.2160416c-0.2797241-0.187233-0.3384094-0.5741882-0.1267853-0.8359451
			l2.1122894-2.8195076"/>
		<path class="st0" d="M80.5115891,62.050293l1.28022,2.0572052c0.9270782,0.8011551,1.2609863,0.5014496,2.485611-0.1383133
			c0.2043381-0.1064415,0.391861-0.1681137,0.5632401-0.1964455c0.8566742-0.1440926,1.3012314,0.5359535,1.3012314,0.5359535
			l2.1426163,3.4430008l3.8765793-3.8902168l-2.5508728-4.0990334c0.0988846-0.3377533-0.0812759-0.7771034-0.153923-1.1121178
			c-0.0985184-0.4542809-0.2084656-0.9061317-0.3325195-1.3541336c-0.2525101-0.9119339-0.5632935-1.8087234-0.9514389-2.6721344
			c-0.4812012-1.0704231-1.0833893-2.0903931-1.8221893-3.003788c-0.2612228-0.3229523-0.5736847-0.787384-0.9257584-1.0142784
			c-0.1727295-0.1113167-0.1913757-0.074192-0.3539963,0.0248642c-0.2449799,0.1492157-0.4871902,0.3031807-0.7307281,0.4547348
			c-0.7834778,0.4875679-1.5669556,0.9751358-2.3504333,1.4627037c-1.1705399,0.7284393-2.3410797,1.4568787-3.5116272,2.1853218
			c-0.774971,0.8848877-0.0801163,2.4487267-0.0801163,2.4487267l1.2201157,1.9606285l-0.2843781,2.2515488
			C79.6043167,62.4854431,80.5115891,62.050293,80.5115891,62.050293z"/>
		<path class="st7" d="M92.7581406,62.7319527l-0.680809,0.7019043l-0.3038254,0.3142548l-2.4513702,2.5455437l-1.822731,1.9065552
			l-0.1780014-1.8122482l-0.0838852-0.8694839c0-0.0838242,0.0419388-0.1676483,0.1048584-0.2304916l3.0169525-3.3312149
			l0.1571579-0.1675797l0.544754-0.5971107c0.1570282-0.1780663,0.4503708-0.1675797,0.5865631,0.0313911L92.7581406,62.7319527z"/>
		
			<ellipse transform="matrix(0.9518966 -0.3064193 0.3064193 0.9518966 -13.2644119 28.8850384)" class="st1" cx="85.3668976" cy="56.6897888" rx="1.0903162" ry="1.5722752"/>
		<path class="st3" d="M89.8459167,57.7351685c-0.0313339,0.3875923,0.031456,0.7228165-0.0523071,1.110405
			c-0.0209656,0.0733376-0.1361847,0.8799095-0.1990967,0.9008789c0,0-1.4664764,0.1152153-2.095108-0.618084
			c0,0-1.6341171-2.2417145-1.6341171-2.2522011c-0.0837555-0.1047935-0.6180191-0.1256981-0.7333603-0.1466713
			c-0.3141861-0.062851-0.5551071-0.0838203-0.8065109,0.1361885c-0.1990967,0.1990356-0.3770981,0.4399529-0.6389923,0.5132904
			c-0.5552292-0.8799095-1.1209488-1.7493973-1.6866684-2.6293678c-0.0522995,0.5133553-0.376976,1.0056725-0.8484497,1.2465897
			c-0.1152191,0.062851-0.2514038,0.1047935-0.3875885,0.0838203c-0.2304306-0.0418777-0.3875961-0.2828598-0.3980789-0.5237732
			c-0.0104828-0.1885529,0.0419464-0.3561974,0.1152191-0.523777c-0.2514038,0.586628-0.544754,1.1732521-0.984642,1.6236916
			c-0.4818344,0.4923859-1.4770813,0.9323387-2.1475296,0.6285706c-0.0314636-0.0104866-0.0629196-0.031456-0.0942459-0.0419426
			c-0.7543335-0.4399529-0.5970535-1.7493935-0.272377-2.4198418c0.3456497-0.7123299,1.0265808-1.2361069,1.8017578-1.4246597
			c-0.4085541,0.0943108-1.277977-0.2723732-1.2047043-0.775177c0.0209656-0.1361885,0.1048508-0.2514038,0.1990967-0.3457108
			c0.5342636-0.5761414,1.319931-0.7961502,2.0846176-0.9532433c0.3246765-0.0733376,0.6599655-0.1257019,0.9952545-0.1781311
			c0.8379669-0.1361885,1.6968994-0.2094574,2.5559692-0.2304306c-0.3143158,0-0.639122-0.0838203-0.9113693-0.2514038
			c-0.0942383-0.0523643-0.1990967-0.1361847-0.2095871-0.2409782c-0.0104828-0.0732727,0.0104904-0.1361237,0.0419464-0.1990395
			c0.1780014-0.3456459,0.5447464-0.5551682,0.9218521-0.6913567c1.4980545-0.5551682,3.2788391-0.2828598,4.5358582,0.7018433
			c0.2933426,0.2200089,0.5447464,0.4818954,0.7542038,0.775177c0.2200699,0.3143196,0.2828598,0.6495438,0.4505005,0.9847031
			c0.272377,0.5447502,0.4924469,1.0685234,0.6389923,1.634182c0.0734024,0.2304916,0.1258316,0.4609222,0.1676483,0.7123909
			c0.0209732,0.1152153,0.031456,0.2094574,0.0418167,0.3142509C89.9717407,55.681942,89.9298019,56.7190094,89.8459167,57.7351685z
			"/>
		
			<ellipse transform="matrix(0.9518966 -0.3064193 0.3064193 0.9518966 -13.2247105 28.8158493)" class="st0" cx="85.1663818" cy="56.5287437" rx="1.0903162" ry="1.5722752"/>
		<path class="st4" d="M85.3003998,57.0313416c0.2607498-0.1622658,0.3405838-0.5051804,0.1783142-0.7659264
			c-0.162262-0.260746-0.5051804-0.34058-0.7659225-0.1783142"/>
		<path class="st4" d="M82.6336441,60.9476089c0,0-0.2085648,1.283905-1.0798264,1.6795464"/>
		<path class="st3" d="M80.0391922,59.1981926c0.0252151,0.0405159,0.0641098,0.0666237,0.1068802,0.0760651
			c0.0425644,0.0104294,0.0895996,0.0038071,0.1295013-0.0210266l0.6650162-0.4138489
			c0.0804062-0.0500374,0.1050644-0.1559639,0.0550232-0.2363777c-0.0252075-0.0405006-0.0641022-0.0666046-0.1072617-0.076664
			c-0.0425415-0.0104256-0.0895844-0.0037956-0.1294785,0.0210342l-0.6650238,0.4138489
			C80.013443,59.0112648,79.9887848,59.1171913,80.0391922,59.1981926z"/>
		<circle class="st3" cx="80.5724716" cy="59.198082" r="0.2204092"/>
		
			<ellipse transform="matrix(0.8490229 -0.5283561 0.5283561 0.8490229 -20.3311691 51.8744164)" class="st1" cx="80.6036682" cy="61.512455" rx="0.4256396" ry="0.1752633"/>
		<path class="st1" d="M79.7880325,61.4466133l0.5542831-0.3449364c0.1510162-0.0939789,0.1972504-0.2925797,0.1032715-0.4435921
			L79.92836,59.8269386L79.7880325,61.4466133z"/>
		<path class="st38" d="M80.5578079,57.765316c0,0-1.1353912-0.3868752-1.4062119,0.8750992"/>
		<path class="st1" d="M84.8406601,63.7727394c0.8566742-0.1440926,1.3012314,0.5359535,1.3012314,0.5359535l0.1840897,0.2958145
			l0.1095505-3.0132256c0.0082703-0.2274246-0.2975388-0.308239-0.40271-0.1064186L84.8406601,63.7727394z"/>
		<path class="st7" d="M106.051651,81.7869339l-0.9847641,0.57621l-0.2618942,0.1466064l-3.2054443,1.885643l-6.0862122,3.5931015
			l-0.4086914-0.7437897l-0.2304306-0.4294662l-0.2513962-0.4505005l-0.0209732-0.0418777l-1.6341171-2.9959869
			l-1.9064865-3.4778824l-0.8171234-1.4979935l-1.3408966-2.4408188c-0.3562622-0.6599579-0.6494827-1.3408279-0.8905258-2.0531616
			c-0.0732727-0.2200089-0.136055-0.4400177-0.1989746-0.6495361c-0.2514038-0.9322739-0.3980713-1.8960724-0.4294052-2.870285
			c-0.0209656-0.5656586,0-1.1417999,0.0627899-1.7179413c0.0104828-0.0943069,0.0209732-0.1886139,0.031456-0.2723694
			l0.0208435-0.1361923v-0.0104828l1.8332214-1.9065552l2.4408798-2.5455437l0.3038254-0.3142548l0.680809-0.7019043
			l2.4408798,1.3722878c1.487442,0.8380966,2.7131271,2.095108,3.4987869,3.6140747l0.6704483,1.2675629l1.2675018,2.419838
			l0.4923172,0.9532471l3.8027496,7.2909927l0.2932205,0.5447464L106.051651,81.7869339z"/>
		<path class="st8" d="M99.3682556,68.985878c-0.8276062-0.0418854-1.6237564-0.4714127-2.0636444-1.6341858
			c-0.9847641-2.5560303-4.4311295-3.6874046-5.2272797-3.9178352c-0.1048584-0.031456-0.1676407-0.0419426-0.1676407-0.0419426
			l-1.5503616-1.4351425l0.1571579-0.1675797l0.544754-0.5971107c0.1570282-0.1780663,0.4503708-0.1675797,0.5865631,0.0313911
			l1.1103363,1.5084801l2.4408798,1.3722878c1.487442,0.8380966,2.7131271,2.095108,3.4987869,3.6140747L99.3682556,68.985878z"/>
		<path class="st8" d="M106.051651,81.7869339l-0.9847641,0.57621c-0.6912994-1.351387-3.0378036-6.107254-3.0378036-6.107254
			l-7.7586746-1.3773956c-1.0184479-0.180809-1.3941574-1.4374008-0.6552811-2.1612778l0.0020752-0.0020599l7.5108719-0.3561935
			l3.8027496,7.2909927l0.2932205,0.5447464L106.051651,81.7869339z"/>
		<path class="st9" d="M103.4955521,81.5774765c0,0-4.5671844,2.5140915-8.8727341,4.787262l-0.0209732-0.0418777
			l-1.6341171-2.9959869l-1.9064865-3.4778824l-0.8171234-1.4979935l-1.3408966-2.4408188
			c-0.3562622-0.6599579-0.6494827-1.3408279-0.8905258-2.0531616c-0.0732727-0.2200089-0.136055-0.4400177-0.1989746-0.6495361
			c-0.2514038-0.9322739-0.3980713-1.8960724-0.4294052-2.870285l3.3521194,1.2989502l2.8824081,5.0689011l4.193512,0.1591263
			c2.0369873,0.0772934,3.8759232,1.2414703,4.8171616,3.049614L103.4955521,81.5774765z"/>
		<polygon class="st6" points="95.5983047,88.720047 106.5193939,82.7232971 105.9237213,81.5756302 95.1034012,87.2451553 		"/>
		<path class="st1" d="M82.3983459,60.1570473l0.9915771,0.3199196c0.0517654-0.149292,0.0439758-0.3167038-0.0456772-0.460762
			c-0.154541-0.2483406-0.4736786-0.3183861-0.7170486-0.166935C82.5078735,59.9235229,82.4313583,60.0330467,82.3983459,60.1570473
			z"/>
		<path class="st0" d="M123.2525101,87.6113281l-0.2933502-0.0837631l0.7017822,0.3666229
			c0.303833,0.1466675,0.4400177,0.5342636,0.303833,0.8590012l-0.1047287,0.2095184
			c-0.1257019,0.2827988-0.4295349,0.4399567-0.7228775,0.3771057l-0.1360626-0.0209732l0.5237732,0.2828598
			c0.3141937,0.1780701,0.4294052,0.5552368,0.2828598,0.8694916l-0.1153412,0.2304306
			c-0.1570282,0.3352203-0.5447464,0.471405-0.8694229,0.3247375l-2.66082-1.2675018l-0.1991043-0.0838165
			c-0.3037033-0.1466751-0.5865631-0.3457108-0.8274765-0.5971146c-0.1047363-0.1047287-0.2095871-0.2304306-0.3037033-0.3457108
			l-1.718132-2.3465118l-0.1465454-0.1990356l-1.854187-1.7703629l-1.6971588-1.6236954l3.4464874-2.1998367l1.4665985,1.8646088
			l0.5447464,0.272377l3.3627319,1.6236954l1.016098,0.5028687c0.2618866,0.1152115,0.408432,0.3980103,0.3561325,0.6703873
			l-0.1152191,0.6704483l0.3351593,0.2618866c0.1047363,0.0838242,0.1781311,0.1990356,0.2200775,0.3247375
			c0.0418167,0.1361847,0.0522995,0.3037643-0.0104904,0.4609222
			C123.9018555,87.5380554,123.5666962,87.6951447,123.2525101,87.6113281z"/>
		<path class="st1" d="M118.3289337,82.4573822c0,0-0.6599655,2.1474762-1.2151947,3.9283218l-0.1465454-0.1990356
			l-1.854187-1.7703629l-1.6971588-1.6236954l3.4464874-2.1998367L118.3289337,82.4573822z"/>
		<line class="st2" x1="91.5464096" y1="113.549736" x2="90.230751" y2="112.4891205"/>
		<path class="st7" d="M91.1211777,69.3618088v0.0000076c-0.1916656,1.8142014,0.8410797,3.5038147,2.3988419,3.924614
			l11.1940842,3.0238724l9.6281357,8.9928055l2.9977417-3.9124527l-9.2429581-10.3775253
			c-0.180687-0.2028656-0.4105988-0.355751-0.6675644-0.4439011l-12.2830887-4.2139282
			C93.2777023,65.7142181,91.3547897,67.1504898,91.1211777,69.3618088z"/>
		<path class="st0" d="M50.6872101,59.7580414l-0.0929184-4.8465271c-0.0073395-0.3828201-0.2695236-0.713562-0.6405678-0.8080711
			c-0.5376167-0.1369362-1.0603409,0.2690849-1.0606689,0.8238678l-0.0015221,2.5490799
			c0.1338615,0.4517784,0.2858582,0.8960686,0.511631,1.3096542c0.225769,0.4135818,0.5519295,0.7873497,0.9789963,0.9864464
			c0.0618362,0.0288277,0.1295547,0.0543633,0.1968193,0.042942S50.6984558,59.8253326,50.6872101,59.7580414z"/>
		<line class="st18" x1="105.3681717" y1="76.2348633" x2="106.051651" y2="75.0289078"/>
		<line class="st4" x1="123.0011063" y1="89.31884" x2="121.0934448" y2="88.3565216"/>
		<line class="st4" x1="123.1225204" y1="87.5742111" x2="121.4735718" y2="86.6347427"/>
		<line class="st4" x1="123.3965988" y1="86.0980835" x2="122.0472717" y2="85.6886902"/>
		<path class="st55" d="M37.7861519,101.8975143l-4.1436729,11.8763504l-3.7479801,4.4364929
			c0,0-2.1264343-3.8549805-3.2682304-5.9291153l0.1465435-0.2095261l4.1902103-16.5618057l-0.2514019-2.7445831
			l3.1382408,0.1419983c2.1384468,0.096756,3.8315201,1.8423767,3.8628922,3.9827805L37.7861519,101.8975143z"/>
		<path class="st92" d="M34.8115616,92.3044052v2.90168l-4.5227852,17.4372177
			c-0.1553898,0.5990982-0.4204712,1.1641998-0.7818127,1.666687l-10.0463295,13.9705276"/>
		<path class="st25" d="M36.5989876,91.3615799c0,0-3.1636276,0.5342636-5.8873672,0.9428253
			c-1.0265808-2.9541092-2.1055908-5.8767548-3.1426582-8.8204422l5.2272797,5.3215866l3.48843,1.7808533L36.5989876,91.3615799z"/>
		<line class="st101" x1="48.6095009" y1="70.5346222" x2="49.6073418" y2="71.844902"/>
		<path class="st5" d="M89.6364517,53.6287193c-0.7332306,0.1047935-1.4979248-0.0837593-2.0951004-0.523777
			c-0.7542114-0.5761414-1.1732559-1.571331-1.0580444-2.5140877c-0.2828522,0.4504395-0.565712,0.9113655-0.9322052,1.2884674
			c-0.3772354,0.3875885-0.8485794,0.6914215-1.3723526,0.7751808c-0.3666229,0.062851-0.743721,0-1.1104736-0.0942459
			c-0.8589325-0.2409782-1.6341095-0.7437859-2.2101898-1.4142342c0.8379669-0.1361885,1.6968994-0.2094574,2.5559692-0.2304306
			c-0.3143158,0-0.639122-0.0838203-0.9113693-0.2514038c-0.0942383-0.0523643-0.1990967-0.1361847-0.2095871-0.2409782
			c-0.0104828-0.0732727,0.0104904-0.1361237,0.0419464-0.1990395c0.1780014-0.3456459,0.5447464-0.5551682,0.9218521-0.6913567
			c1.4980545-0.5551682,3.2788391-0.2828598,4.5358582,0.7018433c0.2933426,0.2200089,0.5447464,0.4818954,0.7542038,0.775177
			c0.2200699,0.3143196,0.2828598,0.6495438,0.4505005,0.9847031
			C89.2698364,52.5392876,89.4899063,53.0630608,89.6364517,53.6287193z"/>
		<path class="st3" d="M26.0929413,56.7141685c-0.1115093-0.1722717-0.0538101-0.4139404,0.0837669-0.5662041
			s0.3364391-0.2327766,0.5322227-0.2942657c0.2645245-0.0830803,0.5370922-0.1405296,0.812645-0.1712875
			c0.2803078-0.0312881,0.5640831-0.035099,0.8412552-0.087326c0.4898472-0.092308,0.9385929-0.3315926,1.3671112-0.586235
			c0.3935261-0.2338486,0.8138924-0.536068,0.8869228-0.9879684c0.196394,0.6294365,0.1036396,1.3272591-0.1720543,1.9262161
			s-0.7231464,1.1060829-1.2281494,1.5300293L26.0929413,56.7141685z"/>
		<path class="st5" d="M26.8357277,60.469265c0.094244,0.8799744-0.3038311,1.7808533-0.9846382,2.3569946
			c-0.1886158,0.1675797-0.3982029,0.3037682-0.6286335,0.4085617c-0.0629158-0.0523643-0.1152153-0.1047935-0.1675167-0.1676445
			c-0.8276081-0.9532433-1.3513832-2.2417145-1.0894966-3.4778824c0.0629158-0.2723083,0.157032-0.5341988,0.3143177-0.7646942
			c0.0627861-0.0942421,0.376976-0.4294662,0.4503765-0.1361847c-0.1047306-0.4189835-0.1257019-0.8485146-0.0629158-1.2779846
			c0.0419445-0.2409821,0.1048584-0.492382,0.2409172-0.6914215c0.2514019-0.3666153,0.670578-0.5656548,1.1104679-0.6285057
			c0.0419426,0.0209732,0.0943718,0.0418816,0.1361866,0.0838242c0.0837574,0.0313911,0.1571579,0.0837555,0.2305584,0.1361847
			c0.2304306,0.1675797,0.4294052,0.3771057,0.5760765,0.6180229c0.209589,0.3247375,0.3141899,0.7018394,0.2618885,1.07901
			c-0.0837574,0.6599617-0.6075344,1.1627655-1.1103382,1.6027222C26.52141,59.5892944,26.7832985,60.0607071,26.8357277,60.469265z
			"/>
	</g>
	<path class="st62" d="M98.9465942,98.8106155l-9.9970245,11.8243561c-0.3090057,0.3654861-0.5574112,0.7781525-0.7357559,1.2222824
		l-6.2266769,15.5060577"/>
	<path class="st2" d="M103.4955521,85.3031082l0.4458313,1.3694839c0.8899231,2.7336655,0.3369904,5.7319565-1.4694977,7.9683609
		l-3.5252914,4.1696625"/>
	<path class="st13" d="M95.8200607,94.0014801c-0.0209732,0.0419388-4.8188477,6.6833878-8.2863007,11.4812012l-0.0629196-0.1675186
		c-0.73349-1.854187-0.136055-3.4465561,0.9636688-5.426384l6.0443954-8.8623123
		C95.1075439,92.1892319,95.8200607,93.9072342,95.8200607,94.0014801z"/>
</g>
</svg>
