<?xml version="1.0" encoding="utf-8"?>
<!-- Generator: Adobe Illustrator 22.0.1, SVG Export Plug-In . SVG Version: 6.00 Build 0)  -->
<svg version="1.1" id="Layer_1" xmlns="http://www.w3.org/2000/svg" xmlns:xlink="http://www.w3.org/1999/xlink" x="0px" y="0px"
	 viewBox="0 0 156 156" style="enable-background:new 0 0 156 156;" xml:space="preserve">
<style type="text/css">
	.st0{fill:#FFD9B2;}
	.st1{fill:#F7AC76;}
	.st2{fill:none;stroke:#3643C3;stroke-width:0.5;stroke-linecap:round;stroke-linejoin:round;stroke-miterlimit:10;}
	.st3{fill:#233764;}
	.st4{fill:none;stroke:#F7AC76;stroke-width:0.5;stroke-linecap:round;stroke-linejoin:round;stroke-miterlimit:10;}
	.st5{fill:#161718;}
	.st6{fill:#FFFFFF;}
	.st7{fill:#F06449;}
	.st8{fill:#BE412D;}
	.st9{fill:#FE8E60;}
	.st10{fill:#7D4C47;}
	.st11{fill:#4456D6;}
	.st12{fill:#203881;}
	.st13{fill:#6582FC;}
	.st14{fill:#DDA103;}
	.st15{fill:#FBC32E;}
	.st16{fill:none;stroke:#DDA103;stroke-width:0.5;stroke-miterlimit:10;}
	.st17{fill:#FBE6BB;}
	.st18{fill:none;stroke:#BE412D;stroke-width:0.5;stroke-linecap:round;stroke-linejoin:round;stroke-miterlimit:10;}
	.st19{fill:none;stroke:#F06449;stroke-width:0.5;stroke-linecap:round;stroke-linejoin:round;stroke-miterlimit:10;}
	.st20{fill:#F34B4B;}
	.st21{fill:#FC7070;}
	.st22{fill:none;stroke:#FFFFFF;stroke-miterlimit:10;}
	.st23{fill:#FC9F9F;}
	.st24{fill:#408A6F;}
	.st25{fill:#64B48D;}
	.st26{fill:none;stroke:#FBE6BB;stroke-width:0.5;stroke-linecap:round;stroke-linejoin:round;stroke-miterlimit:10;}
	.st27{fill:none;stroke:#F7AC76;stroke-width:0.25;stroke-linecap:round;stroke-linejoin:round;stroke-miterlimit:10;}
	.st28{fill:#A0665A;}
	.st29{fill:#6C3F44;}
	.st30{fill:none;stroke:#6C3F44;stroke-width:0.5;stroke-linecap:round;stroke-linejoin:round;stroke-miterlimit:10;}
	.st31{fill:none;stroke:#7D4C47;stroke-width:0.5;stroke-linecap:round;stroke-linejoin:round;stroke-miterlimit:10;}
	.st32{fill:none;stroke:#F34B4B;stroke-width:0.5;stroke-linecap:round;stroke-linejoin:round;stroke-miterlimit:10;}
	.st33{fill:none;stroke:#FC7070;stroke-width:0.5;stroke-linecap:round;stroke-linejoin:round;stroke-miterlimit:10;}
	.st34{fill:#EAE8F3;}
	.st35{fill:#40304A;}
	.st36{fill:none;stroke:#43334E;stroke-linecap:round;stroke-linejoin:round;stroke-miterlimit:10;}
	.st37{fill:#32775B;}
	.st38{fill:none;stroke:#233764;stroke-width:0.5;stroke-linecap:round;stroke-linejoin:round;stroke-miterlimit:10;}
	.st39{fill:none;stroke:#408A6F;stroke-width:0.5;stroke-linecap:round;stroke-linejoin:round;stroke-miterlimit:10;}
	.st40{fill:#3643C3;}
	.st41{opacity:0.56;fill:url(#SVGID_1_);}
	.st42{opacity:0.52;fill:#FBC32E;}
	.st43{opacity:0.56;fill:url(#SVGID_2_);}
	.st44{fill:none;stroke:#EAE8F3;stroke-width:0.5;stroke-linecap:round;stroke-linejoin:round;stroke-miterlimit:10;}
	.st45{fill:#FEFFFD;}
	.st46{opacity:0.35;fill:#32775B;}
	.st47{fill:#43334E;}
	.st48{fill:none;stroke:#EAE8F3;stroke-width:0.25;stroke-linecap:round;stroke-linejoin:round;stroke-miterlimit:10;}
	.st49{fill:none;stroke:#FBC32E;stroke-width:0.5;stroke-linecap:round;stroke-linejoin:round;stroke-miterlimit:10;}
	.st50{fill:none;stroke:#161718;stroke-width:0.5;stroke-linecap:round;stroke-linejoin:round;stroke-miterlimit:10;}
	.st51{fill:none;stroke:#40304A;stroke-linecap:round;stroke-linejoin:round;stroke-miterlimit:10;}
	.st52{opacity:0.33;fill:#FBC32E;}
	.st53{fill:#A6A3AE;}
	.st54{fill:#5B4B68;}
	.st55{fill:#776688;}
	.st56{fill:none;stroke:#FBC32E;stroke-width:0.5;stroke-miterlimit:10;}
	.st57{fill:none;stroke:#EAE8F3;stroke-linecap:round;stroke-linejoin:round;stroke-miterlimit:10;}
	.st58{fill:none;stroke:#203881;stroke-width:2;stroke-linecap:round;stroke-linejoin:round;stroke-miterlimit:10;}
	.st59{fill:none;stroke:#40304A;stroke-width:2;stroke-linecap:round;stroke-linejoin:round;stroke-miterlimit:10;}
	.st60{fill:#FFD8B7;}
	.st61{fill:#F4E4D4;}
	.st62{fill:none;stroke:#4456D6;stroke-width:0.5;stroke-linecap:round;stroke-linejoin:round;stroke-miterlimit:10;}
	.st63{fill:none;stroke:#DDA103;stroke-width:0.25;stroke-miterlimit:10;}
	.st64{fill:none;stroke:#FFFFFF;stroke-width:0.5;stroke-linecap:round;stroke-linejoin:round;stroke-miterlimit:10;}
	.st65{fill:none;stroke:#64B48D;stroke-width:0.5;stroke-linecap:round;stroke-linejoin:round;stroke-miterlimit:10;}
	.st66{fill:none;stroke:#64B48D;stroke-linecap:round;stroke-linejoin:round;stroke-miterlimit:10;}
	.st67{opacity:0.48;fill:#64B48D;}
	.st68{fill:none;stroke:#64B48D;stroke-width:0.25;stroke-linecap:round;stroke-linejoin:round;stroke-miterlimit:10;}
	.st69{fill:none;stroke:#F06449;stroke-width:2;stroke-linecap:round;stroke-linejoin:round;stroke-miterlimit:10;}
	.st70{opacity:0.92;fill:#64B48D;}
	.st71{opacity:0.57;fill:#408A6F;}
	.st72{opacity:0.36;fill:#408A6F;}
	.st73{fill:none;stroke:#BE412D;stroke-width:2;stroke-linecap:round;stroke-linejoin:round;stroke-miterlimit:10;}
	.st74{opacity:0.65;fill:none;stroke:#408A6F;stroke-width:0.25;stroke-linecap:round;stroke-linejoin:round;stroke-miterlimit:10;}
	.st75{opacity:0.67;fill:none;stroke:#64B48D;stroke-width:0.25;stroke-linecap:round;stroke-linejoin:round;stroke-miterlimit:10;}
	.st76{opacity:0.98;fill:#64B48D;}
	.st77{fill:none;stroke:#408A6F;stroke-width:0.25;stroke-linecap:round;stroke-linejoin:round;stroke-miterlimit:10;}
	.st78{fill:none;stroke:#FFD9B2;stroke-width:0.5;stroke-linecap:round;stroke-linejoin:round;}
	
		.st79{fill:none;stroke:#FFD9B2;stroke-width:0.5;stroke-linecap:round;stroke-linejoin:round;stroke-dasharray:4.0333505,4.0333505;}
	.st80{fill:#E68B4A;}
	.st81{opacity:0.62;fill:#64B48D;}
	.st82{fill:none;stroke:#FBC32E;stroke-width:0.25;stroke-miterlimit:10;}
	.st83{fill:none;stroke:#4456D6;stroke-linecap:round;stroke-linejoin:round;stroke-miterlimit:10;}
	.st84{fill:none;stroke:#E68B4A;stroke-width:0.5;stroke-linecap:round;stroke-linejoin:round;stroke-miterlimit:10;}
	.st85{fill:none;stroke:#203881;stroke-width:0.5;stroke-linecap:round;stroke-linejoin:round;stroke-miterlimit:10;}
	.st86{opacity:0.29;fill:#EAE8F3;}
	.st87{fill:none;stroke:#A6A3AE;stroke-width:0.5;stroke-linecap:round;stroke-linejoin:round;stroke-miterlimit:10;}
	.st88{opacity:0.74;fill:#FFFFFF;}
	.st89{opacity:0.19;fill:#FFFFFF;}
	.st90{fill:none;stroke:#40304A;stroke-width:0.25;stroke-linecap:round;stroke-linejoin:round;stroke-miterlimit:10;}
	.st91{fill:none;stroke:#F34B4B;stroke-width:2;stroke-linecap:round;stroke-linejoin:round;stroke-miterlimit:10;}
	.st92{fill:none;stroke:#43334E;stroke-width:0.5;stroke-linecap:round;stroke-linejoin:round;stroke-miterlimit:10;}
	.st93{fill:none;stroke:#6582FC;stroke-miterlimit:10;}
	.st94{opacity:0.47;fill:#A6A3AE;}
	.st95{opacity:0.43;fill:#FFFFFF;}
	.st96{fill:none;stroke:#FBE6BB;stroke-linecap:round;stroke-linejoin:round;stroke-miterlimit:10;}
	.st97{fill:none;stroke:#5B4B68;stroke-width:0.5;stroke-linecap:round;stroke-linejoin:round;stroke-miterlimit:10;}
	.st98{fill:none;stroke:#40304A;stroke-width:0.5;stroke-linecap:round;stroke-linejoin:round;stroke-miterlimit:10;}
	.st99{fill:none;stroke:#DDA103;stroke-linecap:round;stroke-linejoin:round;stroke-miterlimit:10;}
	.st100{fill:none;stroke:#FBC32E;stroke-linecap:round;stroke-linejoin:round;stroke-miterlimit:10;}
	.st101{fill:none;stroke:#32775B;stroke-width:0.5;stroke-linecap:round;stroke-linejoin:round;stroke-miterlimit:10;}
	.st102{opacity:0.4;fill:#FBE6BB;}
	.st103{fill:none;stroke:#FBC32E;stroke-width:0.25;stroke-linecap:round;stroke-linejoin:round;stroke-miterlimit:10;}
	.st104{fill:none;stroke:#4456D6;stroke-miterlimit:10;}
	.st105{opacity:0.61;fill:#64B48D;}
	.st106{opacity:0.9;fill:#64B48D;}
	.st107{opacity:0.76;fill:#64B48D;}
	.st108{fill:none;stroke:#5B4B68;stroke-width:0.5;stroke-miterlimit:10;}
	.st109{opacity:0.66;fill:#A6A3AE;}
	.st110{fill:none;stroke:#43334E;stroke-miterlimit:10;}
	.st111{opacity:0.52;fill:#6582FC;}
	.st112{fill:none;stroke:#DDA103;stroke-width:0.5;stroke-linecap:round;stroke-linejoin:round;stroke-miterlimit:10;}
	.st113{fill:#46724E;}
	.st114{fill:#FE8B2E;}
	.st115{fill:none;stroke:#7D4C47;stroke-width:2;stroke-linecap:round;stroke-linejoin:round;stroke-miterlimit:10;}
	.st116{opacity:0.4;fill:#EAE8F3;}
	.st117{fill:none;stroke:#EAE8F3;stroke-width:0.5;stroke-linecap:round;stroke-miterlimit:10;}
	.st118{fill:none;stroke:#4456D6;stroke-width:0.25;stroke-linecap:round;stroke-linejoin:round;stroke-miterlimit:10;}
	.st119{opacity:0.5;fill:#EAE8F3;}
	.st120{opacity:0.46;fill:#A6A3AE;}
	.st121{fill:#E0916E;}
	.st122{fill:none;stroke:#A0665A;stroke-linecap:round;stroke-linejoin:round;stroke-miterlimit:10;}
	.st123{opacity:0.46;fill:#BE412D;}
	.st124{fill:none;stroke:#203881;stroke-linecap:round;stroke-linejoin:round;stroke-miterlimit:10;}
	.st125{fill:#DBDBE1;}
	.st126{fill:none;stroke:#6582FC;stroke-width:0.5;stroke-linecap:round;stroke-linejoin:round;stroke-miterlimit:10;}
	.st127{opacity:0.53;fill:#A6A3AE;}
	.st128{fill:none;stroke:#DDA103;stroke-miterlimit:10;}
	.st129{opacity:0.2;fill:#FFFFFF;}
	.st130{fill:#B4A1BF;}
	.st131{font-family:'Poppins-Regular';}
	.st132{font-size:8.2329102px;}
	.st133{opacity:0.5;fill:#6582FC;}
	.st134{opacity:0.6;fill:none;stroke:#FFFFFF;stroke-linecap:round;stroke-linejoin:round;stroke-miterlimit:10;}
	.st135{opacity:0.6;fill:none;stroke:#FFFFFF;stroke-width:2;stroke-linecap:round;stroke-linejoin:round;stroke-miterlimit:10;}
	.st136{opacity:0.54;fill:#A6A3AE;}
	.st137{fill:#161718;stroke:#000000;stroke-width:0.25;stroke-miterlimit:10;}
</style>
<g id="_x34_">
	<g>
		<g>
			<path class="st15" d="M109.5928345,137.5691223v2.4219055c0,1.1116943-0.8973846,2.0089722-2.0089798,2.0089722H85.0566635
				c-1.1038437,0-2.0089798-0.8972778-2.0089798-2.0089722v-2.4219055c0-1.1116028,0.9051361-2.0088806,2.0089798-2.0088806
				h22.5271912C108.6954498,135.5602417,109.5928345,136.4575195,109.5928345,137.5691223z"/>
			<g>
				<rect x="86.4619598" y="135.5602417" class="st14" width="0.7940534" height="6.4397612"/>
			</g>
			<g>
				<rect x="91.1946793" y="135.5602417" class="st14" width="0.7940534" height="6.4397612"/>
			</g>
			<g>
				<rect x="95.9192581" y="135.5602417" class="st14" width="0.7940534" height="6.4397612"/>
			</g>
			<g>
				<rect x="100.6517868" y="135.5602417" class="st14" width="0.7940534" height="6.4397612"/>
			</g>
			<g>
				<rect x="105.3843155" y="135.5602417" class="st14" width="0.7940534" height="6.4397612"/>
			</g>
		</g>
		<g>
			<path class="st15" d="M113.6564636,131.1223907v2.4219055c0,1.1116943-0.8973846,2.0089874-2.0089798,2.0089874H89.1202927
				c-1.1038437,0-2.0089798-0.8972931-2.0089798-2.0089874v-2.4219055c0-1.1115875,0.9051361-2.0088806,2.0089798-2.0088806
				h22.5271912C112.759079,129.1135101,113.6564636,130.0108032,113.6564636,131.1223907z"/>
			<g>
				<rect x="90.525589" y="129.1135101" class="st14" width="0.7940534" height="6.4397612"/>
			</g>
			<g>
				<rect x="95.2583084" y="129.1135101" class="st14" width="0.7940534" height="6.4397612"/>
			</g>
			<g>
				<rect x="99.9828873" y="129.1135101" class="st14" width="0.7940534" height="6.4397612"/>
			</g>
			<g>
				<rect x="104.7154083" y="129.1135101" class="st14" width="0.7940534" height="6.4397612"/>
			</g>
			<g>
				<rect x="109.447937" y="129.1135101" class="st14" width="0.7940534" height="6.4397612"/>
			</g>
		</g>
		<g>
			<path class="st15" d="M95.8515244,124.7130508v2.4218979c0,1.1116943-0.8973846,2.0089722-2.0089798,2.0089722H71.3153534
				c-1.1038437,0-2.0089798-0.8972778-2.0089798-2.0089722v-2.4218979c0-1.1116028,0.9051361-2.0088806,2.0089798-2.0088806
				h22.5271912C94.9541397,122.7041702,95.8515244,123.6014481,95.8515244,124.7130508z"/>
			<g>
				<rect x="72.7206497" y="122.7041702" class="st14" width="0.7940534" height="6.4397612"/>
			</g>
			<g>
				<rect x="77.4533691" y="122.7041702" class="st14" width="0.7940534" height="6.4397612"/>
			</g>
			<g>
				<rect x="82.177948" y="122.7041702" class="st14" width="0.7940534" height="6.4397612"/>
			</g>
			<g>
				<rect x="86.9104767" y="122.7041702" class="st14" width="0.7940534" height="6.4397612"/>
			</g>
			<g>
				<rect x="91.6429977" y="122.7041702" class="st14" width="0.7940534" height="6.4397612"/>
			</g>
		</g>
		<g>
			<path class="st15" d="M93.655632,118.2124634v2.4218979c0,1.1116943-0.8973846,2.0089798-2.0089798,2.0089798H69.1194611
				c-1.1038437,0-2.0089798-0.8972855-2.0089798-2.0089798v-2.4218979c0-1.1115952,0.9051361-2.0088806,2.0089798-2.0088806
				h22.5271912C92.7582474,116.2035828,93.655632,117.1008682,93.655632,118.2124634z"/>
			<g>
				<rect x="70.5247574" y="116.2035828" class="st14" width="0.7940534" height="6.4397612"/>
			</g>
			<g>
				<rect x="75.2574768" y="116.2035828" class="st14" width="0.7940534" height="6.4397612"/>
			</g>
			<g>
				<rect x="79.9820557" y="116.2035828" class="st14" width="0.7940534" height="6.4397612"/>
			</g>
			<g>
				<rect x="84.7145844" y="116.2035828" class="st14" width="0.7940534" height="6.4397612"/>
			</g>
			<g>
				<rect x="89.447113" y="116.2035828" class="st14" width="0.7940534" height="6.4397612"/>
			</g>
		</g>
		<path class="st21" d="M97.7956161,55.5018959c0,0.0255661,0,0.0511818-0.0085449,0.0852852
			c-0.0852814,0.776268-0.4435043,1.450222-0.981041,1.9364777c-0.0085373,0.017025,0.0597687,0.5629997,0.0939255,0.9298096
			c0.0256195,0.1791649,0.03405,0.3070908,0.0256195,0.3156319c-0.2218094,0.1877022-1.586792,0.2900658-3.3356171,0.3156281
			c-0.2899094,0-0.5971069,0.0085411-0.9041977,0.0085411c-2.9601135,0.034153-6.5771027-0.0852852-7.779953-0.2218056
			c-0.9554291-0.1109047-2.107048-1.151619-2.3630066-2.6359444l-0.0426941-1.0066109l-0.520256-11.0728226l5.3998718,0.4947929
			l0.6056366,7.8652878l7.0804901-0.290062c0.4947357,0.0511818,0.9554291,0.2132645,1.3563385,0.4606361
			C97.3264923,53.2838974,97.8808975,54.3502274,97.7956161,55.5018959z"/>
		<path class="st20" d="M96.9255753,58.7691002c-0.2218094,0.1877022-1.586792,0.2900658-3.3356171,0.3156281
			c0.2748642-1.9206886,1.6042404-4.9589577,1.6105728-5.0494156c0.0609436,0.1284065,0.0955582,2.9167519,0.0955582,2.9167519
			l1.6038666,1.5014038C96.9255753,58.6326332,96.9340057,58.7605591,96.9255753,58.7691002z"/>
		<path class="st23" d="M92.6857605,59.0932693c-2.9601135,0.034153-6.5771027-0.0852852-7.779953-0.2218056
			c-0.9554291-0.1109047-2.107048-1.151619-2.3630066-2.6359444l-0.0426941-1.0066109
			C84.5731049,55.9710732,92.2421494,58.6923523,92.6857605,59.0932693z"/>
		<g>
			<path class="st0" d="M105.7973709,122.6637115c0,0-1.0150986,1.93647-1.1772385,1.9791183
				c-0.1621323,0.0426407-3.3695602-0.1279831-3.3695602-0.1279831s0.2473145-2.798027,0.3752975-4.2397079
				c0.0512314-0.4777145,0.0682068-0.8104248,0.0682068-0.8189621c0,0,0.0256195-0.0170822,0.0683136-0.0511856
				c0.4948425-0.2729874,3.5402374-1.8170319,3.5402374-1.8170319l0.085289,2.3630066l0.0085373,0.2985535l0.0256195,0.7080612
				L105.7973709,122.6637115z"/>
			<path class="st1" d="M105.3879166,119.9509659l-3.6169891-0.2132645l-0.0085373-0.3327103
				c0.4948425-0.2729874,3.5402374-1.8170319,3.5402374-1.8170319L105.3879166,119.9509659z"/>
			<path class="st24" d="M106.7237473,122.8965759l0.3976822,2.5301743
				c-0.3320847,0.8430252-2.7337952,1.7994003-2.7337952,1.7994003l-0.2314911-0.591423l-1.9966431,1.2514496
				c-0.7724838,0.4801559-1.6464691,0.7806015-2.5517273,0.8820724l-2.9837723,0.3140717
				c-0.3684616,0.0416412-0.6876373-0.226181-0.7202148-0.5879669l-0.0768127-0.85215
				c-0.0361252-0.3856583,0.1341553-0.754837,0.4512177-0.9677429l1.3313904-0.9185791l2.3668976-1.643898l1.1203537-2.157341
				c0.1656189-0.2950439,0.4547653-0.4791336,0.7729492-0.5291443c0.1352005-0.0212479,0.2741547-0.0186081,0.4170532,0.0078506
				c0.322258,0.0797806,0.5930481,0.2981186,0.7386475,0.6013794l0.3256836,0.7233658l0.0102692,0.0146637l2.093338-1.1035309
				l-0.0502853-0.7340546l0.6272125,0.7738037C106.403656,122.001091,106.6499634,122.4271164,106.7237473,122.8965759z"/>
			<path class="st12" d="M103.9575729,126.1326981l0.1983795,0.5013733l-1.9985428,1.252388
				c-0.7717361,0.4835663-1.6411896,0.7832489-2.5464096,0.8784332l-2.9894714,0.3177185
				c-0.3633957,0.0390015-0.6839676-0.2257996-0.7153168-0.5867462l-0.0095978-0.107193
				c0.1335144,0.1348114,0.3228607,0.2100983,0.526062,0.1890106l2.9930191-0.3182526
				c0.90522-0.0951843,1.7745819-0.3948441,2.5463257-0.878418L103.9575729,126.1326981z"/>
			<path class="st12" d="M107.0351944,124.8773346l0.0861282,0.5479813c-0.331398,0.841835-2.7349396,1.7992554-2.7349396,1.7992554
				l-0.2304306-0.5904999C104.1559525,126.6340714,105.9206848,125.7843018,107.0351944,124.8773346z"/>
		</g>
		<g>
			<path class="st0" d="M94.8440399,110.4733734c0,0-1.0151978,1.945015-1.1772308,1.9876556
				c-0.1620331,0.0341568-1.9535522-0.7165451-1.9535522-0.7165451s-0.8701477-1.8255692-1.5952301-3.326973l-0.03405-0.0767975
				c-0.4863052-1.0150986-0.8957596-1.8596802-0.8957596-1.8681641c0,0,0.0256119-0.0170822,0.0682068-0.0341568
				c0.5288925-0.2559128,3.8900223-1.654953,3.8900223-1.654953l0.963974,2.900444l0.3582153,1.0833588L94.8440399,110.4733734z"/>
			<path class="st1" d="M94.1104202,107.6838837l-3.9923935,0.7336273l-0.03405-0.0767975l-0.8275528-1.9023209
				c0.5288925-0.2559128,3.8900223-1.654953,3.8900223-1.654953L94.1104202,107.6838837z"/>
			<path class="st24" d="M95.8893051,110.7357483l0.3976822,2.5301743
				c-0.3320847,0.8430252-2.7337952,1.7994003-2.7337952,1.7994003l-0.2314911-0.5914154l-1.9966431,1.2514496
				c-0.7724915,0.4801483-1.6464691,0.7805939-2.5517273,0.8820724l-2.9837723,0.314064
				c-0.3684616,0.0416412-0.6876373-0.226181-0.7202148-0.5879593l-0.0768127-0.8521576
				c-0.0361328-0.3856506,0.1341553-0.7548294,0.4512177-0.9677429l1.3313828-0.9185715l2.3669052-1.643898l1.1203537-2.1573486
				c0.1656189-0.2950439,0.4547653-0.479126,0.7729492-0.5291367c0.1352005-0.0212555,0.2741547-0.0186081,0.4170532,0.007843
				c0.322258,0.0797806,0.5930481,0.2981262,0.7386475,0.601387l0.3256836,0.7233658l0.0102692,0.0146561l2.093338-1.1035233
				l-0.0502853-0.7340622l0.6272125,0.7738113C95.5692139,109.840271,95.8155212,110.2662888,95.8893051,110.7357483z"/>
			<path class="st12" d="M93.1231308,113.9718781l0.1983795,0.5013657l-1.9985428,1.252388
				c-0.7717361,0.4835663-1.6411896,0.7832489-2.5464096,0.8784332l-2.9894714,0.3177185
				c-0.3633957,0.0390091-0.6839676-0.2257996-0.7153168-0.5867462l-0.0095978-0.107193
				c0.1335144,0.1348114,0.3228607,0.2101059,0.526062,0.1890182l2.9930115-0.3182526
				c0.9052277-0.0951843,1.7745895-0.3948517,2.5463333-0.878418L93.1231308,113.9718781z"/>
			<path class="st12" d="M96.2007523,112.7165146l0.0861282,0.5479736c-0.331398,0.841835-2.7349396,1.7992554-2.7349396,1.7992554
				l-0.2304306-0.5904999C93.3215103,114.4732437,95.0862427,113.6234818,96.2007523,112.7165146z"/>
		</g>
		<g>
			<path class="st0" d="M104.4859314,38.5161362l0.2204742,6.6897964c0.0118561,0.3595695-0.0528488,0.7216225-0.1955643,1.0508461
				c-0.1045761,0.2276688-0.2393723,0.4386139-0.4042969,0.6270027c-0.0281906,0.0363312-0.1320572,0.1105576-0.2702637,0.2095032
				l0.23349,7.0847282l-4.0257187,0.1326714l-0.1882324-5.7113876c-0.0419312-0.0222435-0.0957565-0.0381546-0.149292-0.0541077
				c-0.5082474-0.2015648-0.9511261-0.5704803-1.2389374-1.0684662c-0.506012-0.8506813-0.7853775-1.809166-0.8178177-2.7934723
				l-0.115387-3.5011024c0,0-0.1843796-1.6519623,1.4758987-2.4855537L104.4859314,38.5161362z"/>
			<path class="st1" d="M104.5955048,41.766098l0.1026001,3.1133156c-0.2256088-0.1007919-0.3811569-0.3293648-0.3897858-0.5911598
				l-0.0630188-1.9123154C104.2366714,42.1141472,104.3770142,41.8815231,104.5955048,41.766098z"/>
			<path class="st3" d="M107.0171967,39.4045067c-0.0169754,0.3327065-0.0511322,0.6483383-0.0937195,0.9554825
				c-0.0256195,0.1620293-0.0597763,0.3156281-0.0853958,0.4691734c-0.0938187,0.5118179-0.2814713,0.9980736-0.3923721,1.5014038
				c-0.1109009,0.4606361-0.2303467,0.9042473-0.4350739,1.33078c-0.3411407,0.690979-0.827446,1.2284164-1.3137512,1.8170319
				c-0.0596695-0.6568756-0.1108017-1.3137512-0.1620331-1.9791183c-0.0170822-0.3156281,0.0085373-0.7421608-0.1109009-1.0322266
				c-0.2303467-0.5374336-0.6312637-0.9810448-0.9298172-1.4757843c-0.4948425-0.7848587-1.1346436-1.4843254-1.7232056-2.209465
				c0.1705704,0.255909,0.2559586,0.5545158,0.2559586,0.8616066c-0.0085373,0.2218056-0.0768509,0.4606361-0.2474213,0.6056938
				c-0.238884,0.1876488-0.5801315,0.136467-0.8786774,0.0767479c-0.4436111-0.1023636-0.8872223-0.2132683-1.3222961-0.3582726
				c-0.272934-0.0853386-0.5458679-0.1791649-0.827446-0.1450081c-0.3923798,0.0511818-0.72509,0.3411942-0.9043045,0.6824417
				c-0.187645,0.3497353-0.2473145,0.7507019-0.2813644,1.1430779c-0.6228256-0.6056404-1.2881393-1.4416809-1.6635437-2.3373909
				c-0.3924789-0.9639664-0.4521484-2.0046806,0.2558594-2.8748245c0.3924789-0.4777145,0.9895859-0.7848053,1.6038666-0.810421
				c0.6141815-0.0341034,1.236908,0.2132645,1.6634369,0.6568756c-0.1961899-0.2644463-0.2986526-0.5971565-0.2644958-0.9213257
				c0.0426941-0.3326569,0.2303391-0.6397972,0.520462-0.8018837c0.2643967-0.1450043,0.5800247-0.1620827,0.8785782-0.1279259
				c0.0512314,0.0085373,0.1023636,0.0085373,0.153595,0.0255623c0.6568756,0.1023636,1.2710571,0.4179955,1.7999573,0.8189621
				c0.5374298,0.3924294,0.9981232,0.8871689,1.4502716,1.3734245c-0.1877518-0.2729874-0.1621399-0.6995201,0.0596695-0.9639702
				c0.2473145-0.3070908,0.6823883-0.4265327,1.0747681-0.3582726c0.3924789,0.0682602,0.7422638,0.2900124,1.03228,0.5629997
				c0.2985458,0.2815285,0.554512,0.6142349,0.673851,1.0066109
				C107.0428085,37.6642723,107.0769653,38.5599785,107.0171967,39.4045067z"/>
			<path class="st1" d="M99.8868561,49.416954l-0.0270767-0.8217316c0.0212479,0.1981926,2.1597748-0.6067085,2.4112778-0.8041077
				c0.1378708-0.0403557,0.2185974,0.1504784,0.0936279,0.2213173
				C101.7215652,48.6947556,100.9039612,49.1726952,99.8868561,49.416954z"/>
			<path class="st0" d="M104.2374191,42.1572227l0.0629883,1.9113846c0.0123901,0.3758202,0.3267746,0.6701508,0.7025986,0.6577644
				c0.3758163-0.0123863,0.6701431-0.3267746,0.6577606-0.7025986l-0.0629959-1.9113846
				c-0.0061874-0.187912-0.0879974-0.3547783-0.2148666-0.4740562c-0.1273727-0.1187401-0.2997971-0.1893578-0.487709-0.1831665
				C104.5193787,41.4675522,104.2250519,41.7819405,104.2374191,42.1572227z"/>
			<path class="st4" d="M100.021965,43.8995781l-0.4118729,0.5462494c-0.1076508,0.1427689-0.0775909,0.3460236,0.0667725,0.4515228
				l0.3873138,0.2830544"/>
			<path class="st5" d="M100.4929657,47.192215c0.0422821-0.0067062,0.0845566-0.0134125,0.1318436-0.0254669
				c0.3893433-0.1031418,0.6331482-0.4349823,0.7859955-0.7902603c0.059494-0.1293297,0.1027527-0.2634392,0.1358795-0.3865929
				c-0.0001678-0.0053062,0.0049591-0.010788,0.0047836-0.0160942s0.0049591-0.010788,0.0047836-0.0160942
				c0.0334778-0.1125374,0.0562134-0.22472,0.0737762-0.336731c0.0042572-0.0320168,0.0086899-0.0587273,0.0129471-0.0906105
				c0.0044327-0.0267105,0.0139999-0.0588989,0.0076447-0.0905647c-0.000351-0.0106163-0.006012-0.0210533-0.0167999-0.0260124
				c-0.0056534-0.010437-0.0161362-0.0100899-0.0217438-0.0150909c-0.0320587-0.0095673-0.063385,0.0072746-0.095047,0.0137596
				c-0.0210495,0.0058746-0.0472336,0.0173645-0.068161,0.023365c-0.0578461,0.0178452-0.1155701,0.0356865-0.1734161,0.0535278
				c-0.0682907,0.0235023-0.1364517,0.0469971-0.2047882,0.0650597c-0.0789032,0.0238495-0.1523666,0.0475197-0.2259598,0.0711975
				c-0.078598,0.0291519-0.1521988,0.0528259-0.2309723,0.0765457c-0.0735931,0.023674-0.1470642,0.0473442-0.2205276,0.0710182
				c-0.0682907,0.0234985-0.1366196,0.0416908-0.2049103,0.0650597c-0.0577164,0.017971-0.1155777,0.0356827-0.1734238,0.0535278
				c-0.0471039,0.0174904-0.0892105,0.0295029-0.1313171,0.0415154c-0.0260544,0.0114861-0.0471039,0.0174904-0.0734634,0.023674
				c0,0,0,0-0.0053101,0.0001717c-0.0157394,0.0058327-0.0945206,0.0295486-0.1678085,0.0585289
				c-0.0789032,0.0238495-0.1523666,0.0475197-0.1523666,0.0475197
				C99.3907166,46.2731934,99.6633759,47.304554,100.4929657,47.192215z"/>
			<path class="st6" d="M99.6369705,46.0156479l0.0943909,0.2888184c0.0415115,0.1313171,0.1872864,0.2060699,0.3186035,0.1646843
				l1.4967194-0.4792557c-0.0001678-0.0053062,0.0049591-0.010788,0.0047836-0.0160942s0.0049591-0.010788,0.0047836-0.0160942
				c0.0334778-0.1125374,0.0562134-0.22472,0.0737762-0.336731c0.0042572-0.0320168,0.0086899-0.0587273,0.0129471-0.0906105
				c0.0044327-0.0267105,0.0139999-0.0588989,0.0076447-0.0905647c-0.000351-0.0106163-0.006012-0.0210533-0.0167999-0.0260124
				c-0.0056534-0.010437-0.0161362-0.0100899-0.0217438-0.0150909c-0.0320587-0.0095673-0.063385,0.0072746-0.095047,0.0137596
				c-0.0210495,0.0058746-0.0472336,0.0173645-0.068161,0.023365c-0.0578461,0.0178452-0.1155701,0.0356865-0.1734161,0.0535278
				c-0.0682907,0.0235023-0.1364517,0.0469971-0.2047882,0.0650597c-0.0789032,0.0238495-0.1523666,0.0475197-0.2259598,0.0711975
				c-0.078598,0.0291519-0.1521988,0.0528259-0.2309723,0.0765457c-0.0735931,0.023674-0.1470642,0.0473442-0.2205276,0.0710182
				c-0.0682907,0.0234985-0.1366196,0.0416908-0.2049103,0.0650597c-0.0577164,0.017971-0.1155777,0.0356827-0.1734238,0.0535278
				c-0.0471039,0.0174904-0.0892105,0.0295029-0.1313171,0.0415154c-0.0260544,0.0114861-0.0471039,0.0174904-0.0734634,0.023674
				c0,0,0,0-0.0053101,0.0001717C99.7890396,45.9629517,99.7102585,45.9866676,99.6369705,46.0156479z"/>
			<path class="st3" d="M101.4119186,46.3790932c-0.1545868,0.3505287-0.4001999,0.6821747-0.7888031,0.7867813
				c-0.0447998,0.0116882-0.0896225,0.0219193-0.131752,0.026226c-0.0683136-0.2600975,0.0587463-0.5616074,0.3272018-0.7293129
				C101.0099716,46.3442535,101.2292328,46.3195381,101.4119186,46.3790932z"/>
			<path class="st1" d="M105.1691971,42.1630325l0.0180054,0.5463753l-0.493103,0.2499504l-0.0257034-0.7798195
				c-0.0045013-0.1365967,0.1055527-0.2541504,0.2421494-0.2586517S105.1646957,42.0264397,105.1691971,42.1630325z"/>
			<path class="st1" d="M104.711731,43.4943428l0.4940491-0.2213287l0.0168762,0.5121918
				c0.0045013,0.1365967-0.1055527,0.2541504-0.2421494,0.2586517c-0.1365891,0.0045013-0.2541428-0.1055527-0.2586441-0.2421455
				L104.711731,43.4943428z"/>
		</g>
		<path class="st21" d="M111.5641022,58.5388069c-0.0085449,0.6141815-0.0341568,1.2284164-0.051239,1.8084946
			c-0.0085373,0.6397972-0.0170746,1.2795982-0.0425873,1.9278831c0,0.2815247-0.0085373,0.5715904-0.0170822,0.8530655
			c-0.0170746,0.5630531-0.03405,1.1260529-0.0596619,1.6891022c-0.0256195,0.4862595,0.0085373,0.963974-0.0085449,1.4416885
			c-0.0426941,1.0321732-0.0256119,2.072937-0.0170746,3.1051636v0.1193924
			c0.0085373,0.3412476-0.0085373,0.9384003-0.0341568,1.6805649c0,0.2218094-0.0085373,0.4691772-0.0170746,0.7165451
			c-0.0767517,2.2777252-0.1961899,5.2378387-0.1791153,5.4681778c-0.9298096,0.4179916-1.4416275,1.3990402-2.4568329,1.5184326
			c-1.7914124,0.2218018-3.5658569,0.2815247-5.2890625,0.1706238c-0.2473221-0.0170822-0.4946365-0.0341034-0.7420578-0.0682602
			c-2.7213364-0.2644501-5.331665-0.9724579-7.8141098-2.2264862v-0.0426483c0-0.0597153,0.0085373-0.7677765,0.0170746-1.9108582
			c0.0255127-3.3184357,0.1023636-10.2709351,0.1536026-15.5940552c0.0425873-3.932621,0.0766373-6.9695282,0.0766373-6.9695282
			s4.7687149-0.375351,4.8796158-0.375351c0.0169754,0,0.4094543,1.3137016,1.0492554,1.586689
			c0.6397934,0.2729836,1.4161148,0.1962395,1.9876022-0.2132683c0.2645035-0.1876488,0.4777679-0.4520988,0.6483383-0.7250862
			c0.1194382-0.1961861,0.2218018-0.6654129,0.4350739-0.690979c0.1705704-0.0170784,0.4179916,0.0767479,0.5970993,0.1109009
			c0.1536026,0.0255661,0.3157349,0.0511818,0.4692307,0.085289c0.0341568,0.0085373,0.0597687,0.0085373,0.0939255,0.0170746
			c0.1791153,0.0255661,0.3496857,0.0597229,0.5287933,0.0938263c0.1961899,0.0341034,0.3839417,0.0682602,0.5801315,0.1023636
			c1.3734207,0.255909,3.1307907,0.2815247,4.1971207,1.3137016c0.4350739,0.4265327,0.6312561,0.9043007,0.7335205,1.4161186
			c0.1024628,0.5203552,0.119545,1.06633,0.1962891,1.6464081C111.5641022,57.233593,111.5726395,57.8904686,111.5641022,58.5388069
			z"/>
		<path class="st20" d="M111.4702759,62.2751923c0.0035324,0.0050964,0.006012,0.0086708,0.0095444,0.0137672
			c-0.0289688,0.8429146-0.0479507,1.6855965-0.0862885,2.5283928c-0.0256195,0.4862595,0.0085373,0.963974-0.0085449,1.4416885
			c-0.0426941,1.0321732-0.0256119,2.072937-0.0170746,3.1051636v0.1193924
			c0.0085373,0.3412476-0.0085373,0.9384003-0.0341568,1.6805649c0,0.2218094-0.0085373,0.4691772-0.0170746,0.7165451
			c-0.0767517,2.2777252-0.1961899,5.2378387-0.1791153,5.4681778c-0.9298096,0.4179916-1.4416275,1.3990402-2.4568329,1.5184326
			c-1.7914124,0.2218018-3.5658569,0.2815247-5.2890625,0.1706238c-0.2473221-0.0170822-0.4946365-0.0341034-0.7420578-0.0682602
			l1.9006729-19.6304817c0.0634995-0.655838,0.8512039-0.954483,1.3335419-0.5055923l2.6347733,2.4520454L111.4702759,62.2751923z"
			/>
		<path class="st23" d="M99.0837479,75.3697662c0,0-2.0388336-0.2729874-4.2311707-0.5800781
			c0.0255127-3.3184357,0.1023636-10.2709351,0.1536026-15.5940552l8.3416443,3.0211601
			C99.0737534,65.7577362,97.6842957,70.1515121,99.0837479,75.3697662z"/>
		<path class="st11" d="M109.3742294,89.4710007c-0.9042969,1.93647-3.2418976,11.0130463-3.344368,11.5504837l0.6910324,17.9313965
			c-0.1191254,0.0512314-0.4094543,0.119545-0.8018265,0.1877518c-1.7144623,0.3156281-5.4083023,0.7592392-5.4083023,0.7592392
			l-1.9193954-16.7883682l-0.3069916-2.7127457c-0.0853882-0.6995163-0.0770569-1.4075775,0.0166626-2.0985565
			c0.2303467-1.7914124,0.7251892-5.570488,1.0834122-8.7097626c0.0341568-0.3327103,0.0770569-0.6654129,0.1112137-0.9810486
			c0.1532822-1.381958,0.2640839-2.5677338,0.3069839-3.3013535c0.2303467-4.4615173-0.1366196-4.4103317,0.119545-5.0757523
			c0.0508194-0.1279297,0.1532898-0.5288925,0.2815781-0.9895325c0.1362076-0.503334,0.2982407-1.0834122,0.4431992-1.4673004
			c0.068306-0.187645,0.1282883-0.3241653,0.1791077-0.3838348c0.0174942-0.0170822,0.0429001-0.0341568,0.0599823-0.0597229
			c0.5031738-0.4777145,1.237114-0.5374374,1.9535522-0.5118713c0.4007034,0.0085373,0.8018341,0.0426483,1.1517181,0.0511856
			c1.2025452,0.0170746,2.4054947,0.0341568,3.6084518,0.051178h0.1791077c0.520256,0,1.9960403,0.0170822,2.8574371,0.0256195
			c0.3840485,0.0085373,0.639801,0.0170746,0.639801,0.0255661
			C111.8480377,81.2388992,111.1911545,85.5810242,109.3742294,89.4710007z"/>
		<path class="st13" d="M103.1360779,99.70961l0.239624,8.9126282l-4.7866898-5.5107727l-0.3071976-2.7127914
			c-0.0851822-0.6994705-0.0766449-1.4075241,0.0170746-2.0985031c0.2303467-1.7914734,0.7251892-5.5705414,1.0834122-8.709816
			c1.3820648-1.8084946,2.8919067-3.8643646,2.900444-4.1544266c0.0085373-0.5288925,4.7819672,0.0849686,4.7819672,0.0849686
			L103.1360779,99.70961z"/>
		<path class="st2" d="M107.8380814,81.4905548l-5.4152985,16.028183c-0.3015137,0.8924026-0.4172745,1.837059-0.3401718,2.775856
			l1.4925385,18.1725388"/>
		<path class="st11" d="M102.8396149,76.8114853v0.0085373l-0.358223,0.5715942l-0.0170746,0.8530655l-0.0341568,1.1942596
			l-0.3244858,5.5705414l-2.6100082,3.5999069l-0.0512314,0.0682602l-0.2732544,0.0597229l-8.9825897,5.0842361
			l4.6576996,12.5571518c0,0-0.4094543,0.187645-0.9980164,0.452095c-1.4587097,0.6483383-4.0608063,1.7914658-4.3590469,1.7914658
			l-7.6863327-14.3485641c-0.9297104-1.5184784-0.69104-3.4207993,0.4436035-4.6747818
			c0.2645035-0.2985992,0.5802383-0.554512,0.9384613-0.7677765L94.948761,77.8522491l-0.0170746-0.1791611L94.829216,76.265564
			L102.8396149,76.8114853z"/>
		<path class="st12" d="M109.3742294,89.4710007c-0.9042969,1.93647-3.2418976,11.0130463-3.344368,11.5504837l0.6910324,17.9313965
			c-0.1191254,0.0512314-0.4094543,0.119545-0.8018265,0.1877518l-1.3137589-19.1257629l5.1954498-16.9162445l-1.0067673-3.2160721
			l-6.3296738-1.6378708l-1.8173447-0.4692307L94.829216,76.265564l8.0103989,0.5459213v0.0085373
			c0.4007034,0.0085373,0.8018341,0.0426483,1.1517181,0.0511856c1.2025452,0.0170746,2.4054947,0.0341568,3.6084518,0.051178
			h0.1791077c0.520256,0,1.9960403,0.0170822,2.8574371,0.0256195c0.3840485,0.0085373,0.639801,0.0170746,0.639801,0.0255661
			C111.8480377,81.2388992,111.1911545,85.5810242,109.3742294,89.4710007z"/>
		<g>
			<path class="st14" d="M120.4233932,72.0596924c0,3.6514587-1.8437576,6.8712311-4.64991,8.7868729
				c-0.2338486,0.157402-0.4766922,0.3057785-0.723938,0.4496841c-1.110817,0.6340714-2.3474579,1.0702591-3.6649017,1.2681198
				c0.0360107,0.0674667,0.0630188,0.1169205,0.0630188,0.1169205l-1.5064926-0.0045013h-0.310257
				c-0.0450134,0.0045013-0.0944214,0-0.1394348-0.0045013c-1.7897415-0.0494537-3.4716721-0.5440979-4.9375458-1.3760376
				c-0.2474594-0.1394043-0.4857025-0.2877808-0.7195435-0.4496841c-1.0207977-0.6925125-1.9157791-1.5604019-2.6397171-2.5542221
				c-0.107811-0.1483765-0.2068329-0.2967758-0.3058624-0.4496841c-0.5124893-0.7869492-0.9217682-1.6413422-1.2096329-2.5542145
				c-0.0494003-0.148407-0.0944138-0.2967834-0.1304245-0.4496918c-0.2248459-0.8139267-0.3506622-1.6683426-0.3686676-2.5542145
				c-0.0043869-0.0719376-0.0043869-0.148407-0.0043869-0.2248459s0-0.1483994,0.0043869-0.2248459
				c0.0180054-0.8813934,0.1394348-1.7357788,0.3642731-2.5497131c0.0404053-0.1529083,0.0810242-0.3013077,0.1304245-0.4496841
				c0.2878647-0.9128799,0.6969299-1.7672653,1.2096329-2.5542221c0.0988083-0.1529007,0.202446-0.305809,0.310257-0.4496841
				c0.723938-0.9983215,1.6143036-1.8617096,2.6307144-2.554245c0.2338409-0.1618805,0.4766922-0.310257,0.7239304-0.4496841
				c1.5468979-0.8858719,3.3412552-1.3895187,5.2524261-1.3895187c0.0627975,0,0.1258087,0,0.1888275,0.0045013
				c0-0.0045013,0-0.0045013,0-0.0045013h1.2006302l0.0360107,0.0989189
				c1.3760681,0.1843872,2.6667175,0.6295738,3.8223343,1.2905998c0.2472458,0.1394272,0.4857025,0.2878036,0.7195435,0.4496841
				C118.5796356,65.1839905,120.4233932,68.4082413,120.4233932,72.0596924z"/>
			<g>
				<g>
					<path class="st15" d="M115.7690887,63.277298H103.825386c0.2338409-0.1618805,0.4766922-0.310257,0.7239304-0.4496841
						h10.5002289C115.2967911,62.967041,115.5352478,63.1154175,115.7690887,63.277298z"/>
				</g>
				<g>
					<path class="st15" d="M116.5244217,65.831543v0.4496841h-15.640007c0.0988083-0.1529007,0.202446-0.305809,0.310257-0.4496841
						H116.5244217z"/>
				</g>
				<g>
					<path class="st15" d="M116.5244217,68.8354492v0.4496841H99.5443573
						c0.0404053-0.1529083,0.0810242-0.3013077,0.1304245-0.4496841H116.5244217z"/>
				</g>
				<g>
					<path class="st15" d="M116.5244217,71.8348465v0.4496918H99.1800842
						c-0.0043869-0.0719376-0.0043869-0.148407-0.0043869-0.2248459s0-0.1483994,0.0043869-0.2248459H116.5244217z"/>
				</g>
				<g>
					<path class="st15" d="M116.5244217,74.8387527v0.4496918H99.6791763
						c-0.0494003-0.148407-0.0944138-0.2967834-0.1304245-0.4496918H116.5244217z"/>
				</g>
				<g>
					<path class="st15" d="M116.5244217,77.842659v0.4496841h-15.3297501
						c-0.107811-0.1483765-0.2068329-0.2967758-0.3058624-0.4496841H116.5244217z"/>
				</g>
				<g>
					<path class="st15" d="M115.7734833,80.8465652c-0.2338486,0.157402-0.4766922,0.3057785-0.723938,0.4496841h-10.4956131
						c-0.2474594-0.1394043-0.4857025-0.2877808-0.7195435-0.4496841H115.7734833z"/>
				</g>
			</g>
			<path class="st15" d="M109.939209,82.6788712c-0.0450058,0.0045013-0.0944138,0.0045013-0.1394272,0.0045013
				c-0.058403,0-0.1124191,0-0.1708298-0.0045013H109.939209z"/>
			<circle class="st15" cx="111.5224686" cy="72.0616531" r="10.6225204"/>
			<circle class="st16" cx="111.5224686" cy="72.0616531" r="9.1051989"/>
			<path class="st15" d="M109.628952,82.6788712h-0.1394272v-0.0045013
				C109.5345383,82.6788712,109.5839462,82.6833725,109.628952,82.6788712z"/>
			<path class="st14" d="M114.7359619,74.2608261c0,1.3586197-0.9448547,2.6333618-2.7171783,2.9241028v1.7891464h-1.0846329
				v-1.7388077c-0.9953537-0.0167923-2.0296173-0.324295-2.6278992-0.7548141l0.4081345-1.1517563h0.4920807
				c0,0,0.0112,0.1397781,0.0167923,0.2907486c0.5591049,0.262764,1.2467957,0.4472733,1.9680634,0.4472733
				c1.2244034,0,2.0462723-0.7044754,2.0462723-1.6829071c0-0.9448929-0.6708984-1.5319443-1.9400787-2.0463104
				c-1.755661-0.6877213-2.8402939-1.4816437-2.8402939-2.9800415c0-1.4257126,1.0176086-2.510376,2.5997849-2.7675781v-1.7332153
				h1.0623779v1.6661224c1.0342636,0.0335464,1.7388763,0.3075027,2.2364197,0.6038437l-0.1901398,0.4920197
				c0.0839462,0.1900711,0.2517014,0.6429443,0.2517014,0.6429443h-0.4920807
				c-0.3577652-0.2068634-1.0622482-0.5870514-2.1636658-0.5870514c-1.3251419,0-1.8228226,0.7939224-1.8228226,1.4816437
				c0,0.8945541,0.6374512,1.341835,2.1302185,1.956871C113.8414764,71.8342896,114.7359619,72.7288818,114.7359619,74.2608261z"/>
			<path class="st17" d="M111.4261017,78.9744186v-1.7371063c-0.9975433-0.0171967-2.0294876-0.3267822-2.6314545-0.7567596
				l0.4127808-1.1523285c0.6191635,0.4127731,1.5135117,0.7395554,2.4766617,0.7395554
				c1.2211304,0,2.0466843-0.705162,2.0466843-1.6855087c0-0.9459457-0.6707611-1.5307083-1.9434967-2.0466843
				c-1.7542953-0.6879578-2.8378372-1.4791183-2.8378372-2.9754333c0-1.4275208,1.01474-2.511055,2.5970535-2.769043v-1.7371063
				h1.0663376v1.6683121c1.0319443,0.0343933,1.7371063,0.3095779,2.235878,0.6019669l-0.4299774,1.1351318
				c-0.3611755-0.2063904-1.0663376-0.5847626-2.1670761-0.5847626c-1.3243256,0-1.8230972,0.791153-1.8230972,1.4791107
				c0,0.8943558,0.6363602,1.3415298,2.1326828,1.9606934c1.7714996,0.7223587,2.6658478,1.6167068,2.6658478,3.1474228
				c0,1.3587265-0.9459457,2.6314545-2.7174454,2.9238358v1.7887039H111.4261017z"/>
		</g>
		<path class="st13" d="M97.9955673,86.3840561l-9.4387894,6.5408783l0.949791,2.4321442l-7.2623215-5.7581863
			c0.2643967-0.2985535,0.5801315-0.554512,0.9383545-0.7677841l11.7638016-10.9789429l-0.0170746-0.1791077
			c3.1051712,0.878624,5.9116821,1.6549454,5.9116821,1.6549454l-1.0356064,4.3992233
			C99.5514145,84.8061676,98.9066238,85.7527161,97.9955673,86.3840561z"/>
		<g>
			<path class="st52" d="M97.8625107,84.0742188c-0.0164795,0-0.0247421,0.0086899-0.0330124,0.0260696l0.0247498-0.0347595
				L97.8625107,84.0742188z"/>
			<path class="st0" d="M110.6603394,75.3131943l-2.6180191,3.5991821l-0.8230362,2.2404251l-0.4117203,1.1202087
				l-0.2299652,0.8875275c-0.0609741,0.2286987-0.2513428,0.3857651-0.4755783,0.3898544l-0.5198898,0.0118256l-0.1499634,0.2992783
				c-0.0424576,0.098671-0.1212082,0.1761551-0.2083817,0.2297211c-0.1040878,0.0574646-0.2316971,0.0779037-0.3547974,0.0529327
				c-0.2504807-0.0619354-0.4174576-0.3041611-0.3969269-0.5659943l0.0139999-0.2510605l-0.1706009,0.6184998
				c-0.0817032,0.2723618-0.3493195,0.4381485-0.6154556,0.3687515l-0.1754761-0.0479507
				c-0.2288437-0.0595627-0.3933716-0.2728195-0.3901901-0.5250702l0.0004654-0.1147385l-0.1510925,0.4771194
				c-0.0810089,0.266655-0.3529053,0.4205246-0.6137619,0.3516998l-0.1964111-0.0559998
				c-0.2763824-0.0762711-0.4377289-0.375267-0.3658447-0.6601639l0.5796585-2.3187866l0.0446472-0.1730652
				c0.0701904-0.2678375,0.183075-0.5252838,0.331543-0.7558365c0.0653458-0.1076508,0.1403809-0.2027512,0.2206879-0.2972641
				l1.6824722-1.876297l1.0859833-1.7523117l0.7872086-1.2741623L110.6603394,75.3131943z"/>
			<polygon class="st1" points="110.6603394,75.3131943 108.0423203,78.9123764 107.2192841,81.1528015 107.5482635,78.6296463 
				105.7526855,76.5656815 106.5398941,75.2915192 			"/>
			<path class="st21" d="M115.24086,67.794548l-5.6814423,11.2774963l-4.2483521-2.798027l0.1621323-0.4009705l0.0085449-0.0426407
				l0.0341568-0.0767517l0.03405-0.1109009l0.4009171-0.8872223l3.4805679-7.6093216l-0.5288925-1.4075317l-0.6994705-1.8938293
				l-0.1450577-0.3838921l-0.3497849-0.9298096l-0.3070908-0.8189621l-0.085289-0.2388306l-1.5014038-4.086216
				c-0.187645-0.5032806-0.2559586-1.0236893-0.2132645-1.5269699c0.1194458-1.1516685,0.827446-2.2179985,1.9193954-2.695713
				c0.0170822-0.0084877,0.0426941-0.0255661,0.0767517-0.0341072c0.742157-0.3070908,1.5270157-0.290062,2.2179489-0.0256157
				c0.0341568,0.0170784,0.0853882,0.0341568,0.1110077,0.0512352c0.7676697,0.3326569,1.4074707,0.9809914,1.731636,1.8596764
				l1.5952301,4.2994308c0,0,1.3819656,3.4037209,2.1412048,5.5278435
				C115.7356033,65.8068848,115.6930084,66.8732224,115.24086,67.794548z"/>
			<polygon class="st23" points="115.2237854,66.1993179 109.5763931,77.6303635 105.9508667,74.7555313 109.4314346,67.1462097 
				108.9025421,65.738678 108.2030716,63.8448486 			"/>
			<line class="st4" x1="103.1360779" y1="83.6288986" x2="103.6153336" y2="81.4905548"/>
			<line class="st4" x1="104.455574" y1="83.4409561" x2="104.6058655" y2="81.9273911"/>
			<line class="st4" x1="105.5812149" y1="83.5609207" x2="105.7960129" y2="82.6342316"/>
		</g>
		<g>
			<path class="st54" d="M97.6787491,43.8436127c0.154213,1.2680588-0.3615112,2.3804207-1.1572113,2.4771881l-0.7757187,0.0943336
				l-0.044754-0.367981c-0.4479828-0.3643761-0.7980347-1.0434265-0.8966064-1.8539963
				c-0.0985718-0.8105659,0.077919-1.5587044,0.4261169-2.0148506l-0.044754-0.367981l0.7757263-0.0943375
				C96.7572403,41.6192207,97.5239334,42.5705795,97.6787491,43.8436127z"/>
			
				<ellipse transform="matrix(0.9926864 -0.1207215 0.1207215 0.9926864 -4.6270018 11.847271)" class="st55" cx="95.4648209" cy="44.1113739" rx="1.4478763" ry="2.3184006"/>
			<path class="st34" d="M95.8250885,45.1030273c-0.1365204,0.4777145-0.4265366,0.8189087-0.8019409,0.8615532
				l-5.4169388,1.0834084l-0.4606934-4.8368645l-0.0426941-0.4777145l1.0834122,0.136467l4.4018478,0.5459747
				c0.6142883-0.0682602,1.2028503,0.6653633,1.3222885,1.6464119
				C95.9529648,44.4376144,95.9273453,44.795887,95.8250885,45.1030273z"/>
			<path class="st53" d="M95.8250885,45.1030273c-0.1365204,0.4777145-0.4265366,0.8189087-0.8019409,0.8615532
				l-5.4169388,1.0834084l-0.4606934-4.8368645l1.0407181-0.3412476c0,0,1.8511887,1.5355072,1.5270233,3.1819687
				C91.7132568,45.0518456,94.6222382,45.0347672,95.8250885,45.1030273z"/>
			<path class="st34" d="M90.7152328,46.7664642c-0.2986526,0.5118713-0.708107,0.8445778-1.2028503,0.9042473L74.3790131,51.023304
				l-1.2540817-10.3647652l-0.0767517-0.6142349l1.859726,0.1365204l13.8196182,1.015152
				c1.117569-0.1365204,2.2009735,1.2027969,2.4142456,2.9942665
				C91.2696457,45.1883125,91.0905304,46.1181793,90.7152328,46.7664642z"/>
			<line class="st87" x1="90.5712204" y1="44.6728249" x2="76.0724716" y2="46.1188202"/>
			<line class="st87" x1="75.174324" y1="41.4547882" x2="89.8920441" y2="42.3544655"/>
			<path class="st53" d="M90.7152328,46.7664642c-0.2986526,0.5118713-0.708107,0.8445778-1.2028503,0.9042473L74.3790131,51.023304
				l-1.2540817-10.3647652l1.7829742-0.4777145c0,0,4.4615173,3.9411583,3.9155426,8.4197502L90.7152328,46.7664642z"/>
			<path class="st54" d="M77.2169952,45.1814079c0.4293747,3.5307007-1.00811,6.6071587-3.2110825,6.8750648l-2.9189682,0.3549767
				l-0.2467422-2.0289078c-0.8054886-1.0626945-1.3994904-2.5447388-1.6044998-4.2305222
				c-0.2044067-1.6808052,0.0164719-3.2669678,0.5443878-4.4867706l-0.2467422-2.0289078l2.9189682-0.3549767
				C74.6552887,39.0134583,76.7882385,41.6557121,77.2169952,45.1814079z"/>
			
				<ellipse transform="matrix(0.9926864 -0.1207215 0.1207215 0.9926864 -5.0418186 8.8246288)" class="st55" cx="70.3108292" cy="46.023632" rx="4.0186977" ry="6.4349079"/>
			<path class="st6" d="M73.5351257,45.6303177c0.3161621,2.5997658-0.6164169,4.8959084-2.1396713,5.4420624
				c-0.1473236,0.0608749-0.2977371,0.0963707-0.4585876,0.1159325c-1.7784195,0.2162743-3.5075989-1.9194489-3.8546524-4.7732506
				c-0.3470535-2.8537979,0.8198395-5.3417664,2.5982513-5.5580406c0.1608505-0.0195618,0.3153839-0.0211525,0.4730072,0.002636
				C71.7632294,41.024807,73.2189713,43.0305557,73.5351257,45.6303177z"/>
			
				<ellipse transform="matrix(0.9926862 -0.1207234 0.1207234 0.9926862 -5.0315461 8.8803244)" class="st34" cx="70.7744675" cy="45.9660339" rx="2.7810011" ry="5.1439695"/>
		</g>
		<path class="st0" d="M85.4018478,42.171463l0.3459625-1.1596985c0.0239105,0.0044937,0.9550858,0.0722618,1.4441681,0.0825844
			c0,0-1.9037094-2.4125748-3.1572571-2.4004478l-1.8854523,0.0315895c-0.5506668,0.0181007-0.7963028,0.1652184-0.926918,0.3996811
			l-1.3041229,2.3409843c-0.1110306,0.1934242-0.0797043,0.429966,0.0505142,0.5973282
			c0.0469055,0.0526161,0.0990829,0.1005592,0.1717758,0.1397362c0.2232437,0.1127434,0.496109,0.0585213,0.6569061-0.1320152
			l1.2259293-1.2530136l0.5066605,0.0491028l0.3653641,1.3746605c0.0383224,0.201973,0.2253113,0.3376274,0.4308472,0.3244781
			l1.7257309-0.1303864C85.207695,42.4200172,85.3434372,42.3179512,85.4018478,42.171463z"/>
		<line class="st33" x1="109.4314346" y1="67.1462097" x2="111.7998123" y2="67.1462097"/>
		<line class="st32" x1="87.9904175" y1="52.6185913" x2="87.9904175" y2="53.4497681"/>
		<path class="st12" d="M98.8687134,86.5545502c0.5158997-0.3753891,1.2112885,0.1268997,1.017067,0.7346344l-0.4437027,1.388382
			l-0.2730408,0.0597229l-8.9828033,5.0842819l4.6578064,12.5570984c0,0-0.4095612,0.187706-0.9981232,0.4521484
			l-4.2140884-13.5552216L98.8687134,86.5545502z"/>
		<path class="st5" d="M107.0171967,39.4045067c-0.3069916,0.0256157-0.6141815-0.0255661-0.8871155-0.1705704
			c-0.5289001-0.2900658-0.8190155-1.015152-0.5289001-1.5440483c-0.6056442,0.3668137-1.2625198,0.7507019-1.9791718,0.7080078
			c-0.4605789-0.0341034-0.8956528-0.2388306-1.2539749-0.5288963c-0.358223-0.2985535-0.639801-0.6739044-0.8872223-1.0577927
			c-0.443512-0.6995201-0.7847595-1.5355072-0.7676773-2.3544693c0.6568756,0.1023636,1.2710571,0.4179955,1.7999573,0.8189621
			c0.5374298,0.3924294,0.9981232,0.8871689,1.4502716,1.3734245c-0.1877518-0.2729874-0.1621399-0.6995201,0.0596695-0.9639702
			c0.2473145-0.3070908,0.6823883-0.4265327,1.0747681-0.3582726c0.3924789,0.0682602,0.7422638,0.2900124,1.03228,0.5629997
			c0.2985458,0.2815285,0.554512,0.6142349,0.673851,1.0066109
			C107.0428085,37.6642723,107.0769653,38.5599785,107.0171967,39.4045067z"/>
	</g>
	<g>
		<g>
			<g>
				<path class="st53" d="M58.3684845,28.5003376c0,0,2.0861435,0.326395,2.9448051-1.3612099
					c0,0-2.7636909-5.3099575-2.8240623-5.2193985s-2.8073235,5.2193985-2.8073235,5.2193985"/>
				<path class="st7" d="M52.1435432,30.5530052c0,0,3.8402252,0.6037254,6.2249413-2.0526676l-0.724472-6.5806084h-7.3956375
					l-0.543354,6.3089333"/>
				<path class="st53" d="M43.1612282,30.5530052c0,0,3.7837105,2.7771378,8.9823151,0l-0.966011-9.4181194
					c0,0-8.294548,0.5054798-8.1436806,0.6640987c0.1508713,0.158617-1.2678223,7.0334034-1.2678223,7.0334034"/>
				<path class="st7" d="M36.9159851,28.6210823c0,0,0.7579689,2.4450893,6.2452431,1.9319229l0.8855286-9.0558834
					l-6.2351303,0.1207447l-2.2941551,3.8638439"/>
				<path class="st53" d="M33.9209595,27.1391277c0,0,0.4089508,1.5725136,2.9950256,1.4819546l0.8956413-7.1239605
					l-2.3545303,3.1997452"/>
				<path class="st34" d="M36.9159851,25.6922607c0,0-2.1469002,0.1272907-2.9950256,1.446867
					c0,0,0.5427895-10.2808208,10.1257973-12.3156805l-6.9301109,9.9010572"/>
				<path class="st9" d="M43.2489128,23.6671696c0,0-6.2702103-0.676136-6.3329277,2.0250912
					c0,0-0.0576859-10.3029985,9.8082466-11.4680014c0.3892212-0.0459604,0,0,0,0L44.5427132,20.74189l0.6865768,1.1337509"/>
				<path class="st34" d="M58.5580177,25.6922607c0,0,1.9085808,0.06707,2.7552719,1.446867
					c0,0-0.1639366-9.6813869-11.0455132-12.5303202l4.7423553,5.850852l3.3583527,4.1485519"/>
				<path class="st9" d="M52.1435432,23.6671696c0,0,6.5510712,0.1497192,6.4144745,2.0250912
					c0.2615318-0.1586285,0.6893234-9.486042-10.0268517-11.4990721l1.5062981,6.8683386"/>
				<path class="st34" d="M43.2489128,23.6671696c0,0,3.54422-2.0788231,8.8946304,0c0,0-0.1022339-7.9404192-3.6123772-9.4739771
					S42.6695671,20.6682129,43.2489128,23.6671696z"/>
			</g>
		</g>
		<path class="st92" d="M60.9917946,27.1691589c-0.5118904,3.4875755-1.0883942,7.1357803-3.2015877,9.9570618
			c-0.4410515,0.5888405-0.9422798,1.1306229-1.4693336,1.6439209c-2.2012672,2.1438103-4.8940353,3.8096046-7.8482475,4.6546593
			c-2.3299713-1.3605995-4.8992767-2.4060936-7.2366714-3.7539024s-4.5565453-3.0540504-5.9289742-5.3770752
			c-1.1842499-2.0044975-1.6715736-4.4119625-1.3601227-6.7192268"/>
		<path class="st34" d="M52.9873161,45.1769028l-4.0761757-5.1345749l-5.8496208,2.5982475l-2.3987198,15.7473984
			c0,0,5.3545761,4.7290497,12.4688377,1.6634445C53.1316376,60.0514183,49.3236237,55.8859673,52.9873161,45.1769028z
			 M48.0657005,43.9671364c-0.4812889,0-0.872963-0.3918419-0.872963-0.872963c0-0.4811172,0.391674-0.8729591,0.872963-0.8729591
			c0.4809494,0,0.872963,0.3918419,0.872963,0.8729591C48.9386635,43.5752945,48.5466499,43.9671364,48.0657005,43.9671364z"/>
		<text transform="matrix(1.00187 0 -0.11416 0.9934601 43.6915398 53.9149437)" class="st47 st131 st132">$</text>
		<path class="st92" d="M46.8847885,40.7200546c-0.1387672-0.4205589-0.2188683-0.8760719-0.1130905-1.3061142
			c0.0637131-0.259037,0.2243195-0.5251045,0.4841652-0.5854263c0.270546-0.0628052,0.5392342,0.1211967,0.7141113,0.3369675
			c0.416851,0.5143242,0.5116997,1.2115822,0.5655174,1.8714294c0.0630951,0.7736015,0.0911636,1.5570068-0.0415421,2.321743
			c0.0381927-0.4312668,0.255188-0.8246994,0.4871559-1.1902733c0.3693695-0.5821266,0.7893219-1.1321411,1.2535744-1.641819
			c0.6447029-0.7077942,1.4085617-1.3560715,2.3316536-1.6100693c0.3298607-0.0907631,0.7313118-0.1097908,0.9647102,0.1403503
			c0.2098236,0.2248802,0.196373,0.5769997,0.1227188,0.875618c-0.2621307,1.0627441-1.1069298,1.9080162-2.0757103,2.4175377
			c-0.7699623,0.404953-1.6189156,0.6262398-2.4675941,0.7952766c-0.1551094,0.0308952-0.4315186,0.1405907-0.586235,0.1018906
			c-0.1507149-0.0377007-0.253788-0.2187805-0.3490219-0.3339767c-0.2601471-0.3146782-0.5048103-0.6430016-0.719368-0.9906349
			C47.2222977,41.5441742,47.0242729,41.1427917,46.8847885,40.7200546z"/>
	</g>
</g>
</svg>
