<?xml version="1.0" encoding="utf-8"?>
<!-- Generator: Adobe Illustrator 22.0.1, SVG Export Plug-In . SVG Version: 6.00 Build 0)  -->
<svg version="1.1" id="Layer_1" xmlns="http://www.w3.org/2000/svg" xmlns:xlink="http://www.w3.org/1999/xlink" x="0px" y="0px"
	 viewBox="0 0 156 156" style="enable-background:new 0 0 156 156;" xml:space="preserve">
<style type="text/css">
	.st0{fill:#FFD9B2;}
	.st1{fill:#F7AC76;}
	.st2{fill:none;stroke:#3643C3;stroke-width:0.5;stroke-linecap:round;stroke-linejoin:round;stroke-miterlimit:10;}
	.st3{fill:#233764;}
	.st4{fill:none;stroke:#F7AC76;stroke-width:0.5;stroke-linecap:round;stroke-linejoin:round;stroke-miterlimit:10;}
	.st5{fill:#161718;}
	.st6{fill:#FFFFFF;}
	.st7{fill:#F06449;}
	.st8{fill:#BE412D;}
	.st9{fill:#FE8E60;}
	.st10{fill:#7D4C47;}
	.st11{fill:#4456D6;}
	.st12{fill:#203881;}
	.st13{fill:#6582FC;}
	.st14{fill:#DDA103;}
	.st15{fill:#FBC32E;}
	.st16{fill:none;stroke:#DDA103;stroke-width:0.5;stroke-miterlimit:10;}
	.st17{fill:#FBE6BB;}
	.st18{fill:none;stroke:#BE412D;stroke-width:0.5;stroke-linecap:round;stroke-linejoin:round;stroke-miterlimit:10;}
	.st19{fill:none;stroke:#F06449;stroke-width:0.5;stroke-linecap:round;stroke-linejoin:round;stroke-miterlimit:10;}
	.st20{fill:#F34B4B;}
	.st21{fill:#FC7070;}
	.st22{fill:none;stroke:#FFFFFF;stroke-miterlimit:10;}
	.st23{fill:#FC9F9F;}
	.st24{fill:#408A6F;}
	.st25{fill:#64B48D;}
	.st26{fill:none;stroke:#FBE6BB;stroke-width:0.5;stroke-linecap:round;stroke-linejoin:round;stroke-miterlimit:10;}
	.st27{fill:none;stroke:#F7AC76;stroke-width:0.25;stroke-linecap:round;stroke-linejoin:round;stroke-miterlimit:10;}
	.st28{fill:#A0665A;}
	.st29{fill:#6C3F44;}
	.st30{fill:none;stroke:#6C3F44;stroke-width:0.5;stroke-linecap:round;stroke-linejoin:round;stroke-miterlimit:10;}
	.st31{fill:none;stroke:#7D4C47;stroke-width:0.5;stroke-linecap:round;stroke-linejoin:round;stroke-miterlimit:10;}
	.st32{fill:none;stroke:#F34B4B;stroke-width:0.5;stroke-linecap:round;stroke-linejoin:round;stroke-miterlimit:10;}
	.st33{fill:none;stroke:#FC7070;stroke-width:0.5;stroke-linecap:round;stroke-linejoin:round;stroke-miterlimit:10;}
	.st34{fill:#EAE8F3;}
	.st35{fill:#40304A;}
	.st36{fill:none;stroke:#43334E;stroke-linecap:round;stroke-linejoin:round;stroke-miterlimit:10;}
	.st37{fill:#32775B;}
	.st38{fill:none;stroke:#233764;stroke-width:0.5;stroke-linecap:round;stroke-linejoin:round;stroke-miterlimit:10;}
	.st39{fill:none;stroke:#408A6F;stroke-width:0.5;stroke-linecap:round;stroke-linejoin:round;stroke-miterlimit:10;}
	.st40{fill:#3643C3;}
	.st41{opacity:0.56;fill:url(#SVGID_1_);}
	.st42{opacity:0.52;fill:#FBC32E;}
	.st43{opacity:0.56;fill:url(#SVGID_2_);}
	.st44{fill:none;stroke:#EAE8F3;stroke-width:0.5;stroke-linecap:round;stroke-linejoin:round;stroke-miterlimit:10;}
	.st45{fill:#FEFFFD;}
	.st46{opacity:0.35;fill:#32775B;}
	.st47{fill:#43334E;}
	.st48{fill:none;stroke:#EAE8F3;stroke-width:0.25;stroke-linecap:round;stroke-linejoin:round;stroke-miterlimit:10;}
	.st49{fill:none;stroke:#FBC32E;stroke-width:0.5;stroke-linecap:round;stroke-linejoin:round;stroke-miterlimit:10;}
	.st50{fill:none;stroke:#161718;stroke-width:0.5;stroke-linecap:round;stroke-linejoin:round;stroke-miterlimit:10;}
	.st51{fill:none;stroke:#40304A;stroke-linecap:round;stroke-linejoin:round;stroke-miterlimit:10;}
	.st52{opacity:0.33;fill:#FBC32E;}
	.st53{fill:#A6A3AE;}
	.st54{fill:#5B4B68;}
	.st55{fill:#776688;}
	.st56{fill:none;stroke:#FBC32E;stroke-width:0.5;stroke-miterlimit:10;}
	.st57{fill:none;stroke:#EAE8F3;stroke-linecap:round;stroke-linejoin:round;stroke-miterlimit:10;}
	.st58{fill:none;stroke:#203881;stroke-width:2;stroke-linecap:round;stroke-linejoin:round;stroke-miterlimit:10;}
	.st59{fill:none;stroke:#40304A;stroke-width:2;stroke-linecap:round;stroke-linejoin:round;stroke-miterlimit:10;}
	.st60{fill:#FFD8B7;}
	.st61{fill:#F4E4D4;}
	.st62{fill:none;stroke:#4456D6;stroke-width:0.5;stroke-linecap:round;stroke-linejoin:round;stroke-miterlimit:10;}
	.st63{fill:none;stroke:#DDA103;stroke-width:0.25;stroke-miterlimit:10;}
	.st64{fill:none;stroke:#FFFFFF;stroke-width:0.5;stroke-linecap:round;stroke-linejoin:round;stroke-miterlimit:10;}
	.st65{fill:none;stroke:#64B48D;stroke-width:0.5;stroke-linecap:round;stroke-linejoin:round;stroke-miterlimit:10;}
	.st66{fill:none;stroke:#64B48D;stroke-linecap:round;stroke-linejoin:round;stroke-miterlimit:10;}
	.st67{opacity:0.48;fill:#64B48D;}
	.st68{fill:none;stroke:#64B48D;stroke-width:0.25;stroke-linecap:round;stroke-linejoin:round;stroke-miterlimit:10;}
	.st69{fill:none;stroke:#F06449;stroke-width:2;stroke-linecap:round;stroke-linejoin:round;stroke-miterlimit:10;}
	.st70{opacity:0.92;fill:#64B48D;}
	.st71{opacity:0.57;fill:#408A6F;}
	.st72{opacity:0.36;fill:#408A6F;}
	.st73{fill:none;stroke:#BE412D;stroke-width:2;stroke-linecap:round;stroke-linejoin:round;stroke-miterlimit:10;}
	.st74{opacity:0.65;fill:none;stroke:#408A6F;stroke-width:0.25;stroke-linecap:round;stroke-linejoin:round;stroke-miterlimit:10;}
	.st75{opacity:0.67;fill:none;stroke:#64B48D;stroke-width:0.25;stroke-linecap:round;stroke-linejoin:round;stroke-miterlimit:10;}
	.st76{opacity:0.98;fill:#64B48D;}
	.st77{fill:none;stroke:#408A6F;stroke-width:0.25;stroke-linecap:round;stroke-linejoin:round;stroke-miterlimit:10;}
	.st78{fill:none;stroke:#FFD9B2;stroke-width:0.5;stroke-linecap:round;stroke-linejoin:round;}
	
		.st79{fill:none;stroke:#FFD9B2;stroke-width:0.5;stroke-linecap:round;stroke-linejoin:round;stroke-dasharray:4.0333505,4.0333505;}
	.st80{fill:#E68B4A;}
	.st81{opacity:0.62;fill:#64B48D;}
	.st82{fill:none;stroke:#FBC32E;stroke-width:0.25;stroke-miterlimit:10;}
	.st83{fill:none;stroke:#4456D6;stroke-linecap:round;stroke-linejoin:round;stroke-miterlimit:10;}
	.st84{fill:none;stroke:#E68B4A;stroke-width:0.5;stroke-linecap:round;stroke-linejoin:round;stroke-miterlimit:10;}
	.st85{fill:none;stroke:#203881;stroke-width:0.5;stroke-linecap:round;stroke-linejoin:round;stroke-miterlimit:10;}
	.st86{opacity:0.29;fill:#EAE8F3;}
	.st87{fill:none;stroke:#A6A3AE;stroke-width:0.5;stroke-linecap:round;stroke-linejoin:round;stroke-miterlimit:10;}
	.st88{opacity:0.74;fill:#FFFFFF;}
	.st89{opacity:0.19;fill:#FFFFFF;}
	.st90{fill:none;stroke:#40304A;stroke-width:0.25;stroke-linecap:round;stroke-linejoin:round;stroke-miterlimit:10;}
	.st91{fill:none;stroke:#F34B4B;stroke-width:2;stroke-linecap:round;stroke-linejoin:round;stroke-miterlimit:10;}
	.st92{fill:none;stroke:#43334E;stroke-width:0.5;stroke-linecap:round;stroke-linejoin:round;stroke-miterlimit:10;}
	.st93{fill:none;stroke:#6582FC;stroke-miterlimit:10;}
	.st94{opacity:0.47;fill:#A6A3AE;}
	.st95{opacity:0.43;fill:#FFFFFF;}
	.st96{fill:none;stroke:#FBE6BB;stroke-linecap:round;stroke-linejoin:round;stroke-miterlimit:10;}
	.st97{fill:none;stroke:#5B4B68;stroke-width:0.5;stroke-linecap:round;stroke-linejoin:round;stroke-miterlimit:10;}
	.st98{fill:none;stroke:#40304A;stroke-width:0.5;stroke-linecap:round;stroke-linejoin:round;stroke-miterlimit:10;}
	.st99{fill:none;stroke:#DDA103;stroke-linecap:round;stroke-linejoin:round;stroke-miterlimit:10;}
	.st100{fill:none;stroke:#FBC32E;stroke-linecap:round;stroke-linejoin:round;stroke-miterlimit:10;}
	.st101{fill:none;stroke:#32775B;stroke-width:0.5;stroke-linecap:round;stroke-linejoin:round;stroke-miterlimit:10;}
	.st102{opacity:0.4;fill:#FBE6BB;}
	.st103{fill:none;stroke:#FBC32E;stroke-width:0.25;stroke-linecap:round;stroke-linejoin:round;stroke-miterlimit:10;}
	.st104{fill:none;stroke:#4456D6;stroke-miterlimit:10;}
	.st105{opacity:0.61;fill:#64B48D;}
	.st106{opacity:0.9;fill:#64B48D;}
	.st107{opacity:0.76;fill:#64B48D;}
	.st108{fill:none;stroke:#5B4B68;stroke-width:0.5;stroke-miterlimit:10;}
	.st109{opacity:0.66;fill:#A6A3AE;}
	.st110{fill:none;stroke:#43334E;stroke-miterlimit:10;}
	.st111{opacity:0.52;fill:#6582FC;}
	.st112{fill:none;stroke:#DDA103;stroke-width:0.5;stroke-linecap:round;stroke-linejoin:round;stroke-miterlimit:10;}
	.st113{fill:#46724E;}
	.st114{fill:#FE8B2E;}
	.st115{fill:none;stroke:#7D4C47;stroke-width:2;stroke-linecap:round;stroke-linejoin:round;stroke-miterlimit:10;}
	.st116{opacity:0.4;fill:#EAE8F3;}
	.st117{fill:none;stroke:#EAE8F3;stroke-width:0.5;stroke-linecap:round;stroke-miterlimit:10;}
	.st118{fill:none;stroke:#4456D6;stroke-width:0.25;stroke-linecap:round;stroke-linejoin:round;stroke-miterlimit:10;}
	.st119{opacity:0.5;fill:#EAE8F3;}
	.st120{opacity:0.46;fill:#A6A3AE;}
	.st121{fill:#E0916E;}
	.st122{fill:none;stroke:#A0665A;stroke-linecap:round;stroke-linejoin:round;stroke-miterlimit:10;}
	.st123{opacity:0.46;fill:#BE412D;}
	.st124{fill:none;stroke:#203881;stroke-linecap:round;stroke-linejoin:round;stroke-miterlimit:10;}
	.st125{fill:#DBDBE1;}
	.st126{fill:none;stroke:#6582FC;stroke-width:0.5;stroke-linecap:round;stroke-linejoin:round;stroke-miterlimit:10;}
	.st127{opacity:0.53;fill:#A6A3AE;}
	.st128{fill:none;stroke:#DDA103;stroke-miterlimit:10;}
	.st129{opacity:0.2;fill:#FFFFFF;}
	.st130{fill:#B4A1BF;}
	.st131{opacity:0.5;fill:#6582FC;}
	.st132{opacity:0.6;fill:none;stroke:#FFFFFF;stroke-linecap:round;stroke-linejoin:round;stroke-miterlimit:10;}
	.st133{opacity:0.6;fill:none;stroke:#FFFFFF;stroke-width:2;stroke-linecap:round;stroke-linejoin:round;stroke-miterlimit:10;}
	.st134{opacity:0.54;fill:#A6A3AE;}
	.st135{fill:#161718;stroke:#000000;stroke-width:0.25;stroke-miterlimit:10;}
</style>
<g id="_x32_5">
	<g>
		<path class="st0" d="M82.3067551,51.8364983c0.0514145-0.0085754,0.3256531,0.0171051,0.3770676,0l5.9388275-0.5142136
			l3.4193268-0.2913437l1.2426224-0.1114082l0.171402-8.6040077l-5.6817474,1.0283279l-1.0197983,0.1885605l-0.9598083,0.1714058
			l-2.8451614,6.641552L82.3067551,51.8364983z"/>
		<path class="st1" d="M85.6403961,50.1396561c0,0,2.6480255-1.0626411,2.6480255-1.0112267
			c0,0.0343132,0.1542511,1.0541153,0.3342285,2.1938553l3.4193268-0.2913437
			c0.0171509-0.0343132,0.0257339-0.068573,0.0257339-0.0942535c0.145668-1.045536,0.2313461-2.7937469-0.2228241-3.4707909
			c-0.4627991-0.6769905-1.0112228-1.3197212-1.4654465-1.7396317L85.6403961,50.1396561z"/>
		<path class="st24" d="M88.1684341,42.5897102l0.9598083,6.3844719l0.2913895,1.9367714l0.1285706,0.865551l5.9559326-0.7284584
			l4.6619415-0.5741577c0.308548-0.0599937,0.6170502-0.1285172,0.8998642-0.2313499
			c0.2485046-0.0943069,0.4884338-0.2057152,0.7112503-0.3342323c1.2854614-0.7369843,2.1681747-2.0653381,2.3224258-3.5736198
			c0.034256-0.377018,0.0256805-0.7626686-0.0257416-1.1568947c-0.3855896-2.5195084-2.7422714-4.284874-5.2875137-3.8992271
			l-2.5217209,0.1826172l-6.3136902,0.9057579l-0.7798233,0.0942574L88.1684341,42.5897102z"/>
		<path class="st37" d="M89.419632,50.9109535l0.1285706,0.865551l5.9559326-0.7284584l4.6619415-0.5741577
			c0.308548-0.0599937,0.6170502-0.1285172,0.8998642-0.2313499c0.2485046-0.0943069-0.4883728-0.0461617-0.2655563-0.174675
			l-0.5172882-1.3146629c-0.3466949-0.8810997-1.332901-1.3248215-2.2222366-0.9998474L89.419632,50.9109535z"/>
		<path class="st0" d="M103.5639954,33.9557114c0,0.1584396-0.0351791,0.3256302-0.1495743,0.457592l-0.9063187,1.1351128
			l-0.3431931,0.431221l-0.2727814,0.3431396l-0.9855423,2.3142662c-0.2287903,0.5280037-0.6863785,0.9063759-1.2495651,1.047142
			l-2.4286118,0.9415512l-7.4795609,6.1508331l-5.4468842,4.4613419c-0.0264206,0.0264244-0.0527954,0.0439873-0.079216,0.0527954
			c-0.703949,0.483963-1.5575256,0.6423988-2.3406372,0.4927711c-0.0616074-0.0175629-0.1055908-0.026371-0.1496353-0.0439873
			c-0.7303162-0.1583862-1.399086-0.5983582-1.8566742-1.2759361c-1.0647583-1.5399094-0.5279465-3.6693687,1.126358-4.5317039
			l7.1539841-4.9189339l6.6347961-4.5581284l0.2815857-3.2998047c-0.079216-0.5807419,0.0175629-1.1703472,0.2991562-1.6894875
			l1.9182816-3.5109844c0.0968323-0.202425,0.3168182-0.2992058,0.5368042-0.2640285
			c0.2551651,0.0264244,0.4399796,0.2376041,0.4575424,0.4840145c0.0088043,0.0703583-0.0087585,0.1583843-0.0351791,0.2287426
			l-0.6335373,1.4959221l1.4255066-1.5222931c0.2023773-0.2023716,0.483963-0.2551651,0.7215652-0.114397
			c0.1935654,0.0967808,0.3079605,0.2815895,0.3167725,0.4663448c0.0088043,0.114397-0.008812,0.219986-0.0704117,0.3168221
			l-0.7919769,1.5838966l1.2935562-1.3463478l0.4751511-0.5103302c0.0439835-0.0440407,0.088028-0.0792198,0.1408234-0.1055908
			c0.2375488-0.1496296,0.5455627-0.1408215,0.7831116,0.0439873c0.1496277,0.1232052,0.2376022,0.3167686,0.2464142,0.4927692
			c0.0176086,0.1583843-0.0176163,0.2991524-0.1144028,0.4399738l-0.7215652,1.0559483l1.1791534-1.011961
			c0.3167725-0.255167,0.7567444-0.1671925,0.967926,0.1671925c0.0615997,0.0967808,0.0967789,0.2023697,0.0967789,0.3167686
			c0.008812,0.1759987-0.0527954,0.3783703-0.1935577,0.5103836l-1.9358978,1.9182835l-0.0967865,0.0967789l-0.1583786,0.1671944
			l-0.6775818,2.4814606l1.2143326-1.1263084l0.1144028-0.105587l0.6247787-0.5896034
			c0.2023697-0.2111816,0.5103302-0.2375526,0.7655487-0.1055908
			C103.4320374,33.5333557,103.5552444,33.7445335,103.5639954,33.9557114z"/>
		<path class="st1" d="M103.5639954,33.9557114c0,0.1584396-0.0351791,0.3256302-0.1495743,0.457592l-0.9063187,1.1351128
			c-0.2903976-0.4487267-0.5191956-0.9239349-0.6775742-1.4342651l0.6247787-0.5896034
			c0.2023697-0.2111816,0.5103302-0.2375526,0.7655487-0.1055908
			C103.4320374,33.5333557,103.5552444,33.7445335,103.5639954,33.9557114z"/>
		<path class="st1" d="M103.3704376,30.6823292l-1.9358978,1.9182835c-0.0879745-0.4663467-0.1495819-0.9415531-0.1935654-1.4078979
			c-0.079216-0.8359623-0.1143951-1.6807308-0.1143951-2.5254478c0.2375488-0.1496296,0.5455627-0.1408215,0.7831116,0.0439873
			c0.1496277,0.1232052,0.2376022,0.3167686,0.2464142,0.4927692c0.0176086,0.1583843-0.0176163,0.2991524-0.1144028,0.4399738
			l-0.7215652,1.0559483l1.1791534-1.011961c0.3167725-0.255167,0.7567444-0.1671925,0.967926,0.1671925
			c0.0615997,0.0967808,0.0967789,0.2023697,0.0967789,0.3167686
			C103.5728073,30.3479443,103.5112,30.5503159,103.3704376,30.6823292z"/>
		<path class="st20" d="M59.236412,111.6917191l4.1895676-7.3245544l2.7323303,0.9491272l-1.5027847-4.9637299l-3.3698654-2.1403275
			l4.0223465-4.7412796c0,0,8.5918961,6.6539154,8.5918961,7.2914581s-0.7741623,11.475769-1.0018539,12.9330139
			s-3.4154053,4.5994186-4.5538788,4.91819c-1.1384659,0.3187714-11.1570015-1.0929337-11.8400841-1.2295456
			c-0.6830826-0.1366196-3.2332535-2.1086197-3.2332535-2.1086197"/>
		<g>
			<path class="st14" d="M72.0948715,108.7766418c0,3.03302-1.5314865,5.7074738-3.8623734,7.2986679
				c-0.1942368,0.1307526-0.3959579,0.2539978-0.601326,0.3735275c-0.9226837,0.52668-1.9498749,0.8889923-3.0441895,1.0533447
				c0.0299149,0.0560379,0.0523453,0.0971146,0.0523453,0.0971146l-1.2513466-0.0037384h-0.2577095
				c-0.0373878,0.0037384-0.0784264,0-0.1158142-0.0037384c-1.4866219-0.0410767-2.8836937-0.4519501-4.1012955-1.1429825
				c-0.2055473-0.1157913-0.4034348-0.2390366-0.5976753-0.3735275c-0.8479118-0.5752182-1.5913124-1.2961197-2.1926384-2.1216202
				c-0.08955-0.1232452-0.1718063-0.2465134-0.2540627-0.3735199c-0.4256859-0.6536713-0.7656517-1.3633575-1.0047569-2.1216202
				c-0.0410385-0.1232681-0.0784264-0.2465134-0.1083374-0.3735275c-0.1867638-0.6760788-0.2912712-1.3857803-0.3062248-2.1216202
				c-0.0036469-0.0597534-0.0036469-0.1232681-0.0036469-0.1867599s0-0.1232681,0.0036469-0.1867599
				c0.0149536-0.7321167,0.1158142-1.441803,0.302578-2.1178818c0.0335579-0.1270065,0.0672989-0.2502747,0.1083336-0.3735275
				c0.239109-0.7582626,0.5788918-1.4679489,1.0047607-2.1216125c0.0820732-0.1270142,0.1681595-0.2540207,0.2577095-0.3735275
				c0.601326-0.8292389,1.3408966-1.546402,2.1851578-2.1216431c0.1942406-0.1344604,0.3959579-0.2577133,0.601326-0.3735275
				c1.2849045-0.7358322,2.7753563-1.1541748,4.3628349-1.1541748c0.0521622,0,0.1045074,0,0.1568527,0.0037384
				c0-0.0037384,0-0.0037384,0-0.0037384H64.4263l0.0299149,0.0821609c1.1430054,0.1531601,2.215065,0.5229492,3.1749573,1.0720139
				c0.205368,0.1158142,0.4034424,0.2390671,0.5976791,0.3735275
				C70.563385,103.0654526,72.0948715,105.7436218,72.0948715,108.7766418z"/>
			<g>
				<g>
					<path class="st15" d="M68.2288513,101.4816895h-9.920845c0.1942406-0.1344604,0.3959579-0.2577133,0.601326-0.3735275
						h8.7218399C67.8365402,101.2239761,68.0346146,101.347229,68.2288513,101.4816895z"/>
				</g>
				<g>
					<path class="st15" d="M68.8562546,103.6033325v0.3735275H55.865139
						c0.0820732-0.1270142,0.1681595-0.2540207,0.2577095-0.3735275H68.8562546z"/>
				</g>
				<g>
					<path class="st15" d="M68.8562546,106.0984726v0.3735275H54.7520447
						c0.0335579-0.1270065,0.0672989-0.2502747,0.1083336-0.3735275H68.8562546z"/>
				</g>
				<g>
					<path class="st15" d="M68.8562546,108.5898819v0.3735199H54.4494667
						c-0.0036469-0.0597534-0.0036469-0.1232681-0.0036469-0.1867599s0-0.1232681,0.0036469-0.1867599H68.8562546z"/>
				</g>
				<g>
					<path class="st15" d="M68.8562546,111.085022v0.3735275H54.8640289
						c-0.0410385-0.1232681-0.0784264-0.2465134-0.1083374-0.3735275H68.8562546z"/>
				</g>
				<g>
					<path class="st15" d="M68.8562546,113.5801697v0.3735199H56.1228485
						c-0.08955-0.1232452-0.1718063-0.2465134-0.2540627-0.3735199H68.8562546z"/>
				</g>
				<g>
					<path class="st15" d="M68.2324982,116.0753098c-0.1942368,0.1307526-0.3959579,0.2539978-0.601326,0.3735275h-8.7180099
						c-0.2055473-0.1157913-0.4034348-0.2390366-0.5976753-0.3735275H68.2324982z"/>
				</g>
			</g>
			<path class="st15" d="M63.3863602,117.59729c-0.0373917,0.0037384-0.0784264,0.0037384-0.1158142,0.0037384
				c-0.0485153,0-0.0933838,0-0.1418991-0.0037384H63.3863602z"/>
			<circle class="st15" cx="64.7014694" cy="108.7782669" r="8.8234234"/>
			<circle class="st16" cx="64.7014694" cy="108.7782669" r="7.5630846"/>
			<path class="st15" d="M63.1286469,117.59729h-0.1158142v-0.0037384
				C63.0502243,117.59729,63.091259,117.6010284,63.1286469,117.59729z"/>
			<path class="st14" d="M67.370697,110.6049728c0,1.1285172-0.7848282,2.1873627-2.2569733,2.4288635v1.4861221h-0.9009323
				v-1.444313c-0.8267822-0.0139465-1.6858749-0.2693634-2.182827-0.6269684l0.3390121-0.9566879h0.408741
				c0,0,0.0092964,0.1161041,0.0139465,0.2415009c0.4644127,0.2182617,1.0356293,0.3715286,1.6347351,0.3715286
				c1.0170364,0,1.699707-0.5851669,1.699707-1.3978882c0-0.7848587-0.5572662-1.2724838-1.611496-1.6997299
				c-1.458313-0.5712509-2.3592453-1.2307053-2.3592453-2.4753265c0-1.1842422,0.8452606-2.0852051,2.1594696-2.2988434v-1.4396667
				h0.8824463v1.3839417c0.8591003,0.0278625,1.4443741,0.2554169,1.8576508,0.5015717l-0.1579437,0.4086838
				c0.0697327,0.1578827,0.2090759,0.5340576,0.2090759,0.5340576h-0.4087372
				c-0.2971725-0.1718292-0.8823395-0.4876251-1.7972183-0.4876251c-1.100708,0-1.5140991,0.6594543-1.5140991,1.2306976
				c0,0.7430496,0.5294952,1.1145706,1.7694397,1.6254425C66.6277084,108.5894165,67.370697,109.332489,67.370697,110.6049728z"/>
			<path class="st17" d="M64.6214218,114.5202484v-1.4429016c-0.828598-0.0142822-1.6857643-0.271431-2.1857758-0.6285858
				l0.342865-0.9571686c0.5143013,0.342865,1.2571793,0.6143036,2.0571976,0.6143036
				c1.0143127,0,1.7000504-0.5857315,1.7000504-1.4000397c0-0.7857361-0.5571594-1.2714615-1.6143341-1.7000427
				c-1.45718-0.5714493-2.3572044-1.2286072-2.3572044-2.4714966c0-1.1857452,0.8428802-2.0857697,2.1571999-2.3000641v-1.442894
				h0.8857422v1.3857498c0.8571625,0.0285721,1.442894,0.2571487,1.857193,0.5000153l-0.3571548,0.9428787
				c-0.3000107-0.1714325-0.8857422-0.4857254-1.8000488-0.4857254c-1.100029,0-1.514328,0.6571579-1.514328,1.2286072
				c0,0.7428741,0.5285873,1.1143112,1.7714767,1.6286087c1.4714661,0.6000214,2.2143478,1.3428955,2.2143478,2.614357
				c0,1.1286087-0.7857361,2.1857758-2.2572021,2.4286423v1.4857559H64.6214218z"/>
		</g>
		<g>
			<ellipse class="st20" cx="42.235611" cy="121.220108" rx="3.5125332" ry="5.9446607"/>
			<path class="st21" d="M40.4686775,102.8588257c0.7173958-0.2794189,1.4480057-0.5664368,2.0435181-1.0543823
				c0.5955124-0.4879532,1.0442772-1.2193451,0.9975395-1.9878159c-0.0188828-0.310463-0.1166115-0.6115952-0.2440948-0.8953018
				c-0.3908119-0.8697357-1.0596657-1.5914154-1.8150406-2.1732941c-1.4708519-1.1330032-3.2694092-2.0117111-5.0879974-2.3947678
				c0.518795,2.3068314,1.0221138,4.6172714,1.8290863,6.8397522"/>
			<path class="st23" d="M40.181694,100.1405563c0.1723251,0.5271225,0.7989311,1.9403992,0.387249,2.4379349
				c-0.4352951,0.5260696-1.8161049,0.2329865-2.3590736,0.0813065c-0.8376274-0.2339859-2.3166885-0.7011261-2.3901482-1.7172394
				c-0.0242767-0.3359299,0.0509415-0.6700058,0.1182251-1.0000229c0.3744774-1.8367462,0.5154839-3.7209625,0.4185562-5.5929947
				c1.0094643,0.6150284,1.8131371,1.5295639,2.4227486,2.5423126
				C39.3888588,97.9045944,39.8144875,99.0169754,40.181694,100.1405563z"/>
			<path class="st23" d="M78.8345261,109.6869354c0,0.4863129-0.0217438,0.9616852-0.0819092,1.4261551
				c-0.9179306,9.2507324-10.7751999,16.5398331-22.8126488,16.5398331c-12.6384201,0-22.8945618-8.0431519-22.8945618-17.9659882
				c0-4.8903503,2.4860611-9.3217697,6.5241127-12.5565109c3.6226387-2.9123764,8.5021858-4.8685074,13.9553566-5.3110962
				l-0.2677383,0.9671249l6.0650826,3.7593079l-3.7811203,3.1801147l1.8305283,6.3492889l3.3931885-2.1091385l3.0324745,7.6661301
				l-3.1035767,2.8194962l8.6004982-1.0873489l-1.8788757-5.2659225l1.3951187-7.8246078l-3.611702-3.7538376l0.1092529-3.0489807
				C74.8866043,95.6183472,78.8345261,101.479866,78.8345261,109.6869354z"/>
			<path class="st21" d="M78.836525,109.6894913c0,0.4871597-0.0194473,0.9548111-0.0876617,1.4225311
				c-0.915863,9.256073-10.7760086,16.5439911-22.8089409,16.5439911c-12.2375031,0-22.243763-7.5510025-22.8673439-17.0311508
				c2.13377,8.1842804,11.3605843,14.3420105,22.4191933,14.3420105c12.0426216,0,21.9027672-7.2879181,22.8186378-16.5342407
				c0.0584564-0.4677124,0.0779648-0.9451218,0.0779648-1.4322891c0-0.7599411-0.0292587-1.5004349-0.1072235-2.211731
				C78.6611481,106.3086166,78.836525,107.9454727,78.836525,109.6894913z"/>
			<path class="st23" d="M55.5380058,125.4721832c0,3.2821198-1.8100128,5.9447937-4.046402,5.9447937
				c-2.2283401,0-4.0383492-2.662674-4.0383492-5.9447937c0-1.7859573,0.5390167-3.3868027,1.391777-4.4727859l0.8285103,2.1317139
				c0,0,2.1801224,0.0322037,5.421978-0.3780746C55.3770561,123.5655441,55.5380058,124.4906769,55.5380058,125.4721832z"/>
			<path class="st33" d="M55.5284004,125.063942c0,3.2831497-1.7994308,6.3512497-4.0329971,6.3512497
				c-2.2335625,0-4.0442276-2.6615143-4.0442276-5.944664c0-0.3176346,0.1191254-1.2955399,0.1517639-1.5996857"/>
			<path class="st23" d="M70.1548767,128.7301331c-2.2122345,0.3218079-4.3843079-2.0432281-4.8669586-5.2932358
				c-0.1608505-1.1021881-0.1045761-2.1640167,0.1286469-3.0972061c1.8744278-0.6676559,3.7648621-1.5042114,5.5829239-2.5500412
				c1.1343002,0.9250412,2.0111237,2.5419922,2.2926636,4.4727859
				C73.7748947,125.5123444,72.3671112,128.4083405,70.1548767,128.7301331z"/>
			<path class="st33" d="M72.3983154,119.5258179c0.4311829,0.7889099,0.7469254,1.7194519,0.8960648,2.7359695
				c0.476593,3.2483673-0.9285278,6.1445389-3.1384354,6.4687729s-4.3877487-2.0462494-4.8643417-5.2946167
				c-0.0694885-0.4736099-0.0989761-0.9397278-0.0918045-1.3914795"/>
			<path class="st20" d="M49.9886475,104.3499985c0.7698784,0.0037994,1.6532593-0.0881042,2.3864326-0.3230362
				c0.7331696-0.2349243,1.4193344-0.7501907,1.6583061-1.4820557c0.0965462-0.2956772,0.116333-0.6116486,0.102047-0.9223557
				c-0.0438042-0.9524994-0.4006042-1.8694916-0.8892479-2.6882706c-0.9514885-1.5942993-2.4253082-2.8230591-3.9758263-3.847702
				c-0.3653526,2.3360519-0.6223335,4.4203033-0.6886787,6.7838211"/>
			
				<ellipse transform="matrix(0.293345 -0.9560066 0.9560066 0.293345 -71.9055176 113.761467)" class="st35" cx="40.9990234" cy="105.5198517" rx="1.2136923" ry="1.0207015"/>
			
				<ellipse transform="matrix(0.293345 -0.9560066 0.9560066 0.293345 -73.8217316 108.0573578)" class="st35" cx="36.1824799" cy="103.9639893" rx="1.2136923" ry="1.0207015"/>
			<path class="st21" d="M50.6994324,101.8781662c-0.0334702,0.553566,0.0298538,2.0982361-0.5358772,2.4096298
				c-0.5981789,0.3292694-1.7746239-0.450798-2.2238464-0.7914124c-0.6930046-0.5254669-1.8968582-1.5035172-1.591713-2.4755173
				c0.1008835-0.3213348,0.2936211-0.604393,0.4774857-0.8865814c1.0233383-1.5705566,1.8469887-3.2710724,2.4448776-5.0477066
				c0.7127724,0.9429932,1.124073,2.0888977,1.3187981,3.2548141S50.7708817,100.6982651,50.6994324,101.8781662z"/>
			<path class="st21" d="M37.8990784,111.4193192c-0.2817955,2.3499451-1.6640244,4.1150208-3.0836372,3.9449158
				l-0.2285767-0.0425034l-2.2276115-0.414711l0.3455276-2.8868637v-0.0159607
				c-0.0212898-0.382782-0.0053215-0.7868423,0.042572-1.2015533c0.0477676-0.4147034,0.1329155-0.813446,0.2445412-1.1802597
				l0.0053215-0.0159683l0.3827782-3.2059021l2.4563179,0.4572144
				C37.2557945,107.0331497,38.1808739,109.0747604,37.8990784,111.4193192z"/>
			
				<ellipse transform="matrix(0.1191932 -0.992871 0.992871 0.1191932 -80.9142761 130.0977325)" class="st23" cx="32.867836" cy="110.6533279" rx="4.2817135" ry="2.5946383"/>
			
				<ellipse transform="matrix(0.1191932 -0.992871 0.992871 0.1191932 -81.777916 128.7457733)" class="st35" cx="31.6740341" cy="110.4641113" rx="0.8997782" ry="0.6430495"/>
			
				<ellipse transform="matrix(0.1191932 -0.992871 0.992871 0.1191932 -80.2534332 131.2210999)" class="st35" cx="33.8314056" cy="110.8425522" rx="0.8997782" ry="0.6430495"/>
		</g>
		<polygon class="st21" points="78.8345261,127.976059 82.500618,131.4151917 89.684494,125.4655609 83.641983,122.5114441 
			83.3062897,127.976059 78.8345261,126.2081833 77.7337494,127.976059 		"/>
		<polyline class="st21" points="28.7233906,124.3304672 24.8859673,125.353775 29.1924095,128.2958069 31.1986256,125.780159 
			27.7427158,126.2081833 28.7660294,124.5369263 		"/>
		<path class="st21" d="M52.1400948,136.2300568l-3.1275978-2.1824799l4.1798248-0.7794495l0.7015419,2.6014252
			c0,0-1.4127808,0.3215485-1.7537689,0.3897552V136.2300568z"/>
		<polygon class="st21" points="59.2233849,139.3868408 52.783123,141.549881 50.7078094,137.223877 52.1400948,137.9253693 
			53.367691,138.5294342 53.1923218,139.3868408 		"/>
		<polygon class="st21" points="80.9921341,136.3040161 86.6603012,138.5328979 81.3027191,133.4164276 		"/>
		<g>
			<g>
				<path class="st0" d="M111.883728,20.4766903v9.8626022c0,0.5301018-0.1128616,1.0601501-0.3390121,1.538065
					c-0.1650543,0.3302078-0.3738022,0.6343193-0.6258316,0.9037437c-0.0432816,0.0521355-0.1998444,0.1564064-0.4081726,0.2954178
					v10.4448357h-5.9350204v-8.4201622c-0.0606766-0.03479-0.1391678-0.060833-0.2172394-0.0869255
					c-0.7386932-0.3215103-1.3730164-0.8862953-1.7726974-1.6336365c-0.7039032-1.2773361-1.0688019-2.7024345-1.0688019-4.1535721
					v-5.1615849c0,0-0.1913528-2.4417591,2.2941589-3.5887833H111.883728z"/>
				<path class="st1" d="M111.8873444,25.2681484v4.5898819c-0.3273621-0.1593819-0.5453339-0.5035458-0.5453339-0.8895016V26.14925
					C111.3420105,25.7632942,111.5599823,25.4275284,111.8873444,25.2681484z"/>
				<path class="st3" d="M115.038559,26.2825871c-0.1232071,0.6599617-0.3783722,1.2847443-0.8535767,1.8215008
					l-2.3406372,2.6398449c-0.0352325-0.7831669-0.0704117-1.5751419-0.1055908-2.3670635
					c-0.0176163-0.5103855-0.0439911-1.0295238-0.0616074-1.5399094c-0.0176163-0.2903976,0-0.448782-0.2551651-0.6159744
					c-0.299202-0.1935635-0.5807953-0.2903996-0.8007813-0.6071663c-0.3519974-0.5015774-0.4135513-1.1967182-0.8623352-1.6190758
					c-0.3080139-0.2903976-0.7303696-0.3959885-1.0911255-0.6159744c-0.6951904-0.4311657-1.0735626-1.3199234-0.9151764-2.1207066
					c-0.6511536,0.7479877-1.5134888,1.2935524-2.45504,1.5751419c-0.5543747,0.1583843-1.1351166,0.228796-1.6894836,0.0967827
					c-0.5543747-0.1232071-1.0735703-0.475153-1.3199234-0.9943466c-0.5368118,1.2583199-0.7743607,2.6926403-0.7743607,4.0565491
					c0,0-5.147728-6.4059963,0.6687698-8.0251255c-0.0704117,0.0176163,0.0791626-0.9151268,0.14077-1.0207157
					c0.219986-0.4136047,0.6423416-0.6423988,1.0735092-0.7743607c0.2640305-0.0792179,0.5368118-0.1320133,0.8095932-0.1583824
					c0.6863327-0.0704117,1.399086,0.0088062,2.0766602,0.1847534c0.9327469,0.2552204,1.8126984,0.6951942,2.6310425,1.2143345
					c0.2727814,0.1671906,0.5455627,0.3519993,0.8447647,0.4663982c0.0879745-0.5631809,0.6599655-0.9767303,1.2231445-0.9855385
					c0.5719376-0.0176163,1.1086884,0.2991524,1.4958725,0.7127552c0.3871765,0.4223595,0.642395,0.9415512,0.8799438,1.4606915
					c0.1408234,0.2992058,0.2815933,0.6071663,0.4136047,0.9151802c0.5279465,1.2055264,0.9767303,2.4550381,1.2055283,3.7573433
					C115.1265335,24.5842934,115.1969452,25.4642429,115.038559,26.2825871z"/>
				<path class="st1" d="M104.5817108,36.3068466v-1.2114601c0.0216751,0.2929077,3.2100983-0.788662,3.5900574-1.0671577
					c0.2049942-0.0527382,0.314621,0.2322159,0.1271439,0.330471
					C107.3186951,35.3323288,106.0914307,35.9964981,104.5817108,36.3068466z"/>
				<path class="st0" d="M111.3410187,25.826767v2.8179054c0,0.5540676,0.4487076,1.0027771,1.0027695,1.0027771
					s1.0027695-0.4487095,1.0027695-1.0027771V25.826767c0-0.2770348-0.1123734-0.5267467-0.2934189-0.708559
					c-0.1818161-0.1810493-0.4323196-0.293417-0.7093506-0.293417
					C111.7897263,24.824791,111.3410187,25.2735004,111.3410187,25.826767z"/>
				<path class="st4" d="M105.0484619,28.1880951l-0.6330719,0.7844601c-0.1654587,0.2050285-0.1310577,0.5058155,0.076416,0.66819
					l0.5566559,0.4356422"/>
			</g>
		</g>
		<g>
			<path class="st5" d="M104.8242416,30.8583565c0.0563354-0.0283604,0.1126785-0.0567226,0.1796112-0.0829945
				c0.5544434-0.2116623,1.1316147-0.0245476,1.6201553,0.2688656c0.1824493,0.1035042,0.3495941,0.2266827,0.4951935,0.3454742
				c0.0043564,0.0064983,0.015213,0.0086384,0.0195694,0.0151367s0.015213,0.0086384,0.0195694,0.0151367
				c0.1368866,0.1057949,0.2606125,0.2204113,0.378006,0.3392792c0.0326385,0.0346317,0.0609283,0.0627632,0.0934601,0.0972347
				c0.0282898,0.0281315,0.0674286,0.0584049,0.0870743,0.1017494c0.0087128,0.0129967,0.0109329,0.0303497,0.0022888,0.0455608
				c0.0022202,0.0173531-0.0106201,0.0259628-0.0130234,0.0367661c-0.0301132,0.039032-0.0820694,0.0458412-0.1255188,0.0653305
				c-0.0302429,0.0110893-0.0714493,0.0198822-0.1016388,0.0307045c-0.084549,0.0284386-0.1689377,0.0567703-0.2534866,0.0852051
				c-0.1019058,0.0306549-0.2036438,0.061203-0.3009262,0.0984077c-0.1148987,0.0393677-0.2231369,0.0742722-0.3315353,0.1092873
				c-0.1191025,0.0327644-0.2275009,0.0677757-0.3421326,0.1071968c-0.1083984,0.0350113-0.2166443,0.0699158-0.3248825,0.1048203
				c-0.1019058,0.0306549-0.1992874,0.0676994-0.3010864,0.0985107c-0.0844955,0.0281754-0.1689377,0.0567703-0.2534866,0.0852089
				c-0.0713959,0.0196152-0.1320953,0.0414772-0.1927948,0.0633392c-0.0410461,0.0086861-0.0713959,0.019619-0.1082382,0.0349083
				c0,0,0,0-0.0065002,0.0043564c-0.0238495,0.0065727-0.1384811,0.0459938-0.2510834,0.0744019
				c-0.1148987,0.0393677-0.2231369,0.074276-0.2231369,0.074276
				C104.296669,32.9061012,103.7353058,31.4378586,104.8242416,30.8583565z"/>
			<path class="st6" d="M104.8128357,33.002243l-0.1356354-0.4266777c-0.0633392-0.192791,0.0466919-0.4076424,0.2393723-0.4711456
				l2.2026291-0.7147179c0.0043564,0.0064983,0.015213,0.0086384,0.0195694,0.0151367s0.015213,0.0086384,0.0195694,0.0151367
				c0.1368866,0.1057949,0.2606125,0.2204113,0.378006,0.3392792c0.0326385,0.0346317,0.0609283,0.0627632,0.0934601,0.0972347
				c0.0282898,0.0281315,0.0674286,0.0584049,0.0870743,0.1017494c0.0087128,0.0129967,0.0109329,0.0303497,0.0022888,0.0455608
				c0.0022202,0.0173531-0.0106201,0.0259628-0.0130234,0.0367661c-0.0301132,0.039032-0.0820694,0.0458412-0.1255188,0.0653305
				c-0.0302429,0.0110893-0.0714493,0.0198822-0.1016388,0.0307045c-0.084549,0.0284386-0.1689377,0.0567703-0.2534866,0.0852051
				c-0.1019058,0.0306549-0.2036438,0.061203-0.3009262,0.0984077c-0.1148987,0.0393677-0.2231369,0.0742722-0.3315353,0.1092873
				c-0.1191025,0.0327644-0.2275009,0.0677757-0.3421326,0.1071968c-0.1083984,0.0350113-0.2166443,0.0699158-0.3248825,0.1048203
				c-0.1019058,0.0306549-0.1992874,0.0676994-0.3010864,0.0985107c-0.0844955,0.0281754-0.1689377,0.0567703-0.2534866,0.0852089
				c-0.0713959,0.0196152-0.1320953,0.0414772-0.1927948,0.0633392c-0.0410461,0.0086861-0.0713959,0.019619-0.1082382,0.0349083
				c0,0,0,0-0.0065002,0.0043564C105.0400696,32.9344139,104.9254379,32.973835,104.8128357,33.002243z"/>
		</g>
		<path class="st1" d="M112.712944,25.8805485v0.8055077l-0.7383118,0.3441639v-1.1496716
			c0-0.2013779,0.167778-0.3691578,0.3691559-0.3691578S112.712944,25.6791706,112.712944,25.8805485z"/>
		<path class="st1" d="M111.9746323,27.8189297l0.7383118-0.3019619v0.7551117c0,0.2013779-0.167778,0.3691578-0.3691559,0.3691578
			s-0.3691559-0.1677799-0.3691559-0.3691578V27.8189297z"/>
		<path class="st5" d="M89.3237457,139.9224854h12.459404c0.6157837,0,1.114975-0.4991913,1.114975-1.114975v-0.9101868
			l-14.6893539-0.7521057v1.6622925C88.2087708,139.4232941,88.707962,139.9224854,89.3237457,139.9224854z"/>
		<path class="st5" d="M127.1285248,132.4658661v2.8261871c0.4429626,0.4490356,0.8692017,0.9253845,1.3322601,1.3529205
			c0.4595032,0.4242401,1.2318573,0.2914276,1.6433868,0.7860718c0.162262,0.1950226,0.2220001,0.4542542,0.2588348,0.7052765
			c0.1044312,0.7118073,0.1517029,1.6102142-0.2581787,2.2387848c-0.3381958,0.5186462-0.9272766,0.8384705-1.546524,0.8384705
			c-0.0018463,0-5.7334595,0-5.7334595,0c-0.5766449,0-1.101265-0.3334808-1.3460159-0.8556061l-0.2718277-0.5799103
			l-0.3780746-0.0630188c-0.4269791-0.071167-0.7753372-0.3808441-0.8960266-0.7965546l-0.2062836-0.7105408v-6.5944214"/>
		<path class="st7" d="M127.1285248,131.3494263v2.8261719l2.7432404,2.7808228
			c0.3405914,0.3452606,0.5315399,0.81073,0.5315399,1.2957153l0,0c0,1.0189667-0.8260345,1.844986-1.8450012,1.844986h-5.7334595
			c-0.5766449,0-1.101265-0.3334808-1.3460159-0.8556061l-0.2718277-0.5799103l-0.3780746-0.0630035
			c-0.4269791-0.071167-0.7753372-0.3808594-0.8960266-0.7965546l-0.2062836-0.7105408v-6.5944214"/>
		<path class="st7" d="M97.5781174,132.1376953l-6.4615631,3.3923187l-1.5117188,0.1209259
			c-0.8370743,0.0669708-1.4604797,0.8012543-1.3907394,1.6381073l0,0c0.0655136,0.7862244,0.7227631,1.390976,1.5117111,1.390976
			h12.4491882c0.4053268,0,0.7339096-0.3285828,0.7339096-0.7339172v-0.4372406l0.6201935-1.076004
			c0.4152603-0.720459,0.4101639-1.6087494-0.0133209-2.3243866l-0.7064896-1.1938782L97.5781174,132.1376953z"/>
		<path class="st24" d="M121.5413895,42.5440178l-0.2464066,2.1998711l-0.9415512,8.3507042l-0.5719376,5.174099
			l-1.4343185,12.8384705c-0.5807953,0.2551651-1.1527328,0.4927673-1.7247162,0.6951447
			c-6.6436005,2.4286652-13.067215,2.2086792-19.262085-0.6951447c0-0.0088043,0-0.3079605-0.008812-0.8535767
			c0-1.0030975,0-2.8334045-0.0087509-5.0948792c-0.008812-2.7894249-0.0176163-6.2476158-0.0176163-9.6354485v-2.4902153
			c-0.008812-1.2495651-0.008812-2.4638977-0.008812-3.6078224c-0.0088043-4.276535-0.0176163-7.4795609-0.0176163-7.4795609
			c-0.0263672-0.2639732-0.7655487-0.0879745-0.6599579-0.1671944c0,0-0.3917847-0.3084755-0.3741684-0.3172836
			c0.1847534-0.088028,8.3113174-3.3872643,8.3201294-3.2729187c0.1583786,3.5022316,5.8252487,3.4054489,5.9220352-0.0879745
			l0.3519974,0.1408234l9.2482681,3.7221642l0.8271561,0.3431931L121.5413895,42.5440178z"/>
		<path class="st25" d="M116.2652206,58.6630669l-1.2530823,10.754612c0,0-9.3890381,0.4487305-17.6605759,0.835907
			c0-1.0030975,0-2.8334045-0.0087509-5.0948792c-0.008812-2.7894249-0.023613-9.9283562-0.023613-13.3161888
			L116.2652206,58.6630669z"/>
		<path class="st37" d="M117.4635086,60.822506l-0.8472672,10.9820366c0.5747681-0.2099762,1.1512222-0.4400558,1.7293396-0.6902313
			l2.0121384-18.0204926l-2.970932-1.0023003l-1.9657288-2.0927238c-0.3727493-0.3968353-1.0181351,0.0178642-0.8120728,0.5218124
			L117.4635086,60.822506z"/>
		<path class="st11" d="M128.9132538,133.0428009h-9.5156326l-1.5996552-2.2486877
			c-0.9415359-1.3253784-1.1700592-3.0164719-0.6033249-4.542984l0.6673203-1.8098755l-4.2779846-16.5815735l-3.6106033-14.0038376
			l-0.3473587-1.3619843l-0.0274506-0.1005402l-4.1316376,32.7152023l0.4387436,1.8007278
			c0.4113541,1.718483-0.1188354,3.5284195-1.4168243,4.7350235l-1.4808197,1.3985291l-1.7916336-0.1096954l-7.2487106-0.4570465
			l0.146225-2.714859l2.1389923-38.6476212l1.0054779-18.0349426l0.0182953-0.3199692l0.0822372-1.6544952h20.9874878
			l0.6581726,1.0237732c1.8281784,2.7514114,2.9798813,5.886734,3.3912354,9.168335L128.9132538,133.0428009z"/>
		<path class="st12" d="M128.9132538,133.0428009h-0.8409424c-1.060379-6.5723038-9.3237152-57.7429428-9.2505722-57.998909
			c0.0548477-0.1736832-1.2248993-2.3674622-2.1572342-3.9397202h1.6818924l0.6581726,1.0237732
			c1.8281784,2.7514114,2.9798813,5.886734,3.3912354,9.168335L128.9132538,133.0428009z"/>
		<path class="st13" d="M122.7888794,126.3942108l-6.1750183-6.8091431l-6.6426773-25.7303238l-0.3431931-1.3639069
			l-0.0263672-0.0968399l-2.0326767-10.0225677c-0.9327469,0.5455627-1.7071075,1.3023071-2.2702866,2.1910629
			s-0.915123,1.9182816-1.0031509,2.9917908l-0.8471069,28.3987885l-8.2807846-5.3216324l2.0883026-37.5522614l0.0176163-0.3168259
			l11.8986435,0.4394989c4.0727158,0.1504288,7.3767319,3.347374,7.6612091,7.4129181L122.7888794,126.3942108z"/>
		<path class="st2" d="M104.5551682,72.1971817c0.0315475,0.2208176,0.1561813,8.9507751,0.2041168,12.3853455
			c0.0105972,0.7594299,0.6292496,1.3678436,1.3887558,1.3678436h1.314949"/>
		<path class="st2" d="M107.3008041,72.590126c-0.0470581,0.2412567,1.1052628,15.7179337,1.1052628,15.7179337"/>
		<g>
			<path class="st47" d="M97.9336548,88.241333c0,0-1.882637,2.765213,1.2955627,4.627327l-5.839653,1.2348175
				c0,0,2.4208984-1.8672562-0.3333206-4.8309402c-0.1770859-0.190567-0.2455597-0.2583694-0.2214355-0.5222397
				c0.0199661-0.2184143,0.1561432-0.4133148,0.3278351-0.5497971s0.3773117-0.2224197,0.5819244-0.3014069
				c0.5616837-0.2168198,1.1385345-0.3943481,1.7249298-0.5308533"/>
			<path class="st54" d="M91.3409348,82.6908188c0,0-1.4222107-6.6343079,5.2483597-9.9284668
				c0,0-3.7882004,4.6520309-1.9170456,9.7398529c1.8711548,5.0878296-1.5403824,1.6233368-1.5403824,1.6233368"/>
			<path class="st10" d="M91.0185471,83.3066101l37.7598801-7.9844589c0.6629639-0.1401901,1.3155365,0.2845154,1.455719,0.9474182
				l0.6158447,2.9124451c0.1401672,0.6628952-0.2845917,1.315567-0.9475708,1.4557495l-37.7598648,7.9844589
				c-0.6629715,0.1401901-1.3155823-0.2846603-1.4557495-0.9475632l-0.6158524-2.9124451
				C89.9307861,84.0993195,90.3555756,83.4467926,91.0185471,83.3066101z"/>
			<path class="st1" d="M91.0185471,83.3066101l17.3379288-3.6661682l1.1240005,5.3156128l-17.3379211,3.6661682
				c-0.6629715,0.1401901-1.3155823-0.2846603-1.4557495-0.9475632l-0.6158524-2.9124451
				C89.9307861,84.0993195,90.3555756,83.4467926,91.0185471,83.3066101z"/>
			<path class="st54" d="M96.5837555,81.8574142l1.2241974,5.7894592c0.0694275,0.3283081-0.1404419,0.6507339-0.4687576,0.7201614
				l-4.003746,0.8466034c-0.3283081,0.0694275-0.6507339-0.1404495-0.7201614-0.4687576l-1.2241974-5.7894592
				c-0.0694275-0.3283081,0.1404495-0.6507416,0.4687576-0.7201614l4.003746-0.8466034
				C96.1919022,81.3192291,96.5143356,81.5291061,96.5837555,81.8574142z"/>
			<path class="st54" d="M93.3912582,93.8557587l5.7359085-1.2128754c0.4439545-0.0938797,0.8813934,0.190918,0.9752655,0.6348724
				l0.2478333,1.1720352c0.0938721,0.4439545-0.1908646,0.8813095-0.634819,0.9751816l-5.7359085,1.2128754
				c-0.4439545,0.0938797-0.8814011-0.1907654-0.9752731-0.6347198l-0.2478333-1.1720352
				C92.6625595,94.3871384,92.9473038,93.9496384,93.3912582,93.8557587z"/>
		</g>
		<path class="st0" d="M130.5960388,63.7683716l-5.7020493,11.8353195
			c-0.0088043,0.0264206-0.0176163,0.0439835-0.0176163,0.0439835l-0.9503555,3.5286026l-0.483963,1.7598953l-0.219986,1.3815231
			c-0.0615997,0.3608093-0.3431931,0.6247864-0.695137,0.6687698l-0.8271561,0.1055908l-0.1936188,0.4751511
			c-0.0527954,0.1583862-0.1671906,0.2903976-0.2991486,0.3871841c-0.1496277,0.1055908-0.352005,0.1583862-0.5543747,0.1408234
			c-0.4047928-0.0527954-0.7127533-0.3959885-0.7215652-0.7919769l-0.0176163-0.3871841l-0.1671906,0.9679794
			c-0.0879745,0.4223557-0.4927673,0.7215118-0.9239349,0.6599579l-0.2903976-0.0440369
			c-0.3695602-0.0527954-0.6687698-0.3431396-0.703949-0.7303162l-0.0176163-0.1760025l-0.1583862,0.7479324
			c-0.0879669,0.4224167-0.5015717,0.6951981-0.9239349,0.6335907l-0.3255768-0.0527954
			c-0.4487762-0.0615997-0.7567368-0.4927673-0.6863861-0.9327393l0.5631866-3.6078262l0.0352325-0.2727814
			c0.0703506-0.4135437,0.211174-0.8183441,0.4135437-1.1967163c0.0879745-0.1759949,0.1936188-0.3255768,0.2992096-0.4839554
			l2.3846283-3.1238098l4.6549606-12.2929077l-3.2910538-5.4204597l-1.9534607-3.2206383l7.4707565-3.2910004l4.2237473,8.0163193
			C131.2823792,60.5477829,131.3087921,62.290062,130.5960388,63.7683716z"/>
		<path class="st1" d="M130.6006775,63.7587509l-5.7066879,11.8449402
			c0.2361374-0.6679611,3.2503738-9.1373825,4.6436081-13.0518837c0.4443054-1.248333,0.326767-2.6234131-0.3198395-3.7799835
			l-1.9391403-3.4685516l-6.5028305,2.2878952l-1.9534607-3.2206383l7.4707565-3.2910004l4.2237473,8.0163193
			C131.2824554,60.5489502,131.3135681,62.2790565,130.6006775,63.7587509z"/>
		<path class="st24" d="M128.3873596,52.945015l-8.6322861,5.2708817l-1.2935028-2.4902153l-3.2118301-6.2652283
			c-0.3783722-0.7303734-0.571991-1.5135384-0.571991-2.287899c0-1.7775116,0.9503632-3.4846153,2.6134796-4.3997421
			c0.0351715-0.026371,0.0791626-0.0527954,0.1231995-0.0704079c1.1351166-0.5807457,2.3846283-0.6951408,3.5197983-0.3959351
			c0.0615463,0.0175629,0.131958,0.0351791,0.1935577,0.0527954c1.267128,0.3695602,2.3846817,1.2495117,3.0446472,2.5166397
			l3.2117767,6.2564201C127.3842087,51.1323242,127.7978134,51.8715019,128.3873596,52.945015z"/>
		<path class="st12" d="M101.2127609,132.9273529l1.7962799,0.1112671l1.4833755-1.3913422
			c1.2909393-1.2097931,1.830574-3.0219574,1.4105759-4.7412643l-0.437561-1.7954407l4.1313553-32.7153397l-2.2399521-5.0450974
			c-0.1935806-0.4360046-0.8410339-0.3256378-0.8792343,0.1498718l-2.9925079,37.2508087
			C103.4850922,124.7508163,104.6915359,129.5163422,101.2127609,132.9273529z"/>
		<line class="st4" x1="117.8154373" y1="83.5999756" x2="118.2402039" y2="80.2836533"/>
		<line class="st4" x1="119.8855362" y1="83.0962906" x2="119.8855362" y2="80.7803116"/>
		<line class="st4" x1="121.6957855" y1="83.0908737" x2="121.8911743" y2="81.6524963"/>
		<path class="st5" d="M113.771431,19.9821796c-0.1760025,0.1759472-0.3608093,0.3255768-0.563179,0.4487286
			c-1.0207138,0.6247826-2.3318863,0.7215652-3.4670029,0.3255768c-0.563179-0.2023697-1.0911255-0.5191383-1.478302-0.9679222
			c-0.3959885-0.4575901-0.6247864-1.0559483-0.5895538-1.6454983c-0.1320114,0.1407681-0.2727814,0.2815895-0.4047928,0.4223576
			c-0.3607559,0.3696175-0.783165,0.7655506-1.2935028,0.7567978c-0.219986-0.0088081-0.4312134-0.088028-0.6247787-0.1936169
			c-0.8975677-0.4839611-1.4343185-1.5487194-1.2935562-2.560627c0.0264282-0.1936169,0.0704117-0.3784256,0.1496353-0.5543709
			c0.6863327-0.0704117,1.399086,0.0088062,2.0766602,0.1847534c0.9327469,0.2552204,1.8126984,0.6951942,2.6310425,1.2143345
			c0.2727814,0.1671906,0.5455627,0.3519993,0.8447647,0.4663982c0.0879745-0.5631809,0.6599655-0.9767303,1.2231445-0.9855385
			c0.5719376-0.0176163,1.1086884,0.2991524,1.4958725,0.7127552c0.3871765,0.4223595,0.642395,0.9415512,0.8799438,1.4606915
			C113.4986496,19.3662052,113.6394196,19.6741657,113.771431,19.9821796z"/>
		<line class="st4" x1="124.0668411" y1="63.0116272" x2="125.5922775" y2="62.4853706"/>
		<path class="st34" d="M62.9183159,23.8350773c0,5.4431324,5.443058,9.8476009,12.1499214,9.8476009
			c2.7153473,0,5.2179108-0.7256889,7.2449875-1.939476l5.5681534,3.0031128c0,0-1.2512817-3.8289261-2.0896225-6.3064461
			c0.9009628-1.3764572,1.4139557-2.9405632,1.4139557-4.6047916C87.2057114,18.4045448,81.7751846,14,75.0682373,14
			C68.3613739,14,62.9183159,18.4045448,62.9183159,23.8350773z"/>
		<path class="st91" d="M71.796814,28.5545826l0.2746811-1.4167576c0.1865082-0.9620209-0.2863998-1.9313011-1.1594238-2.3763752
			l-1.6911926-0.8621769"/>
		<path class="st91" d="M79.9783173,27.0518494l-1.4241486-0.2333813c-0.9670334-0.1584721-1.9221573,0.342411-2.3416672,1.2280083
			l-0.8126526,1.7155399"/>
		<path class="st91" d="M78.5282974,18.9571342l-0.2565308,1.4201565c-0.1741943,0.9643269,0.3110733,1.9274788,1.1897278,2.3613491
			l1.7020798,0.8404751"/>
		<path class="st91" d="M70.1724091,20.2706337l1.386673,0.399744c0.9415894,0.2714367,1.9491348-0.1132813,2.4701767-0.9432106
			l1.009346-1.6077023"/>
		<g>
			<path class="st14" d="M80.104866,135.9871674v2.3403473c0,0.8567352-0.8096237,1.6455688-2.1679153,2.2724609h-0.0050964
				c-0.1096878,0.0522156-0.2142715,0.0992584-0.3344116,0.1462555h-0.0053558
				c-0.9662323,0.4022522-2.1625519,0.7261353-3.5261993,0.9403381h-0.0051041
				c-0.1096802,0.0208893-0.219368,0.0365448-0.334404,0.0522308h-0.0051041
				c-1.0970917,0.1619415-2.2829514,0.2507477-3.5315552,0.2612h-0.349968
				c-1.243248-0.0104523-2.4291077-0.0992584-3.5261993-0.2612h-0.0051041
				c-0.1150436-0.015686-0.2247238-0.0313416-0.334404-0.0522308h-0.0053635
				c-1.3633881-0.2142029-2.5648079-0.5380859-3.5363998-0.9403381h-0.0053558
				c-0.1150398-0.0522308-0.2247238-0.0992584-0.3344078-0.1514893l-0.0051041-0.0052338
				c-1.3427315-0.6216583-2.1469917-1.4052582-2.1469917-2.2619934v-2.3612366l2.1365356-0.8515015l0.3448639,0.0992584
				l1.0968361,0.3134155c0.7315636-0.2246246,1.5516396-0.4074554,2.4344673-0.5537415
				c0.1150436-0.020874,0.2247238-0.0365753,0.3395081-0.0522308c1.0970917-0.1619415,2.2880554-0.2559662,3.5366592-0.2612
				h0.3395081c1.2539673,0.0052338,2.4449234,0.0940399,3.5420151,0.2507477
				c0.1147842,0.015686,0.224472,0.0365753,0.3395081,0.0522614c0.8986435,0.1462555,1.7342834,0.3343048,2.4763031,0.5641632
				l1.0552597-0.3029633l0.3446121-0.0992584L80.104866,135.9871674z"/>
			<path class="st15" d="M62.4269257,140.7462311c-0.1150398-0.0522308-0.2247238-0.0992584-0.3344078-0.1514893
				l-0.0051041-0.0052338c-0.0053558-1.28508-0.0053558-2.601532-0.0104561-3.9023132l0.3448639,0.0992584
				C62.4218216,138.0872345,62.4269257,139.419342,62.4269257,140.7462311z"/>
			<path class="st15" d="M66.3084488,141.7388c-0.1150436-0.015686-0.2247238-0.0313416-0.334404-0.0522308h-0.0053635
				c-0.0050964-1.6664581-0.0102005-3.4217377-0.0155563-5.1404266c0.1150436-0.0208893,0.2247238-0.0365753,0.3395081-0.0522308
				C66.2979889,138.2073669,66.303093,139.9887695,66.3084488,141.7388z"/>
			<path class="st15" d="M70.1846161,142h-0.3448639c0-1.8597412-0.0051041-3.8396301-0.0104599-5.7672882h0.3395081
				C70.1792603,138.1133423,70.1846161,140.0723419,70.1846161,142z"/>
			<path class="st15" d="M74.0607834,141.6865692c-0.1096802,0.0208893-0.219368,0.0365448-0.334404,0.0522308h-0.0051041
				c0-1.7030334-0.0053558-3.4948578-0.0104599-5.2553406c0.1147842,0.0156555,0.224472,0.0313416,0.3395081,0.0522308
				C74.0503235,138.223053,74.055687,139.9678497,74.0607834,141.6865692z"/>
			<path class="st15" d="M77.9318542,140.5999756c-0.1096878,0.0522156-0.2142715,0.0992584-0.3344116,0.1462555h-0.0053558
				c-0.0051041-1.2955475-0.0051041-2.627655-0.0102005-3.9493408l0.3446121-0.0992584
				C77.9264984,137.9775085,77.9318542,139.2887421,77.9318542,140.5999756z"/>
			<ellipse class="st15" cx="70.0224228" cy="136.1157684" rx="10.0799332" ry="3.6680048"/>
			<path class="st16" d="M78.6606216,136.1148071c0,0.2157745-0.0803452,0.4229279-0.2339783,0.6257477
				c-0.9068146,1.1867371-4.3256149,2.0670776-8.4027023,2.0670776c-4.0806503,0-7.4995422-0.8803406-8.4026947-2.0670776
				c-0.1536369-0.2028198-0.2339783-0.4099731-0.2339783-0.6257477c0-1.4888306,3.8648834-2.6928253,8.636673-2.6928253
				C74.7920761,133.4219818,78.6606216,134.6259766,78.6606216,136.1148071z"/>
			<path class="st14" d="M75.5639572,136.3196259l-0.1563492,0.3888245l-1.4009171-0.0464172
				c-0.1517792,0.3525848-0.5487442,0.715744-0.9794006,0.9166718l-0.8719025-0.1768036
				c0.0051117-0.0000916,0.0049973-0.006134,0.0101089-0.0062256l-0.0306778,0.0005798l0.1425705-0.3041687
				c0,0,0.3255157-0.0783997,0.478447-0.0993347c0.0051117-0.0000916,0.0051117-0.0000916,0.0051117-0.0000916
				c0.1558151-0.1415863,0.2756042-0.2945557,0.3389359-0.4585724c0.1707916-0.4373322-0.2795792-0.7486267-1.0721207-0.7761688
				c-0.7617416-0.0281067-1.3299942,0.1934967-1.9246597,0.6386871c-0.8063889,0.6059418-1.5967865,0.9703217-2.8034286,0.9263458
				c-1.1504135-0.0389862-1.883316-0.4294891-1.8683548-1.0026245l-1.4010315-0.0524597l0.1514511-0.3766937l1.344574,0.0414276
				c0.1721268-0.365036,0.4947586-0.6061707,0.8031464-0.7807465l0.4720154,0.105835
				c0.0241165-0.0788422,0.0484543-0.1456299,0.053566-0.1457214c0.0101089-0.0062256,0.4532166-0.0807495,0.4532166-0.0807495
				l-0.1220093,0.3098145c-0.2226028,0.1186981-0.6269073,0.3613586-0.7779083,0.7561493
				c-0.1905746,0.473877,0.3803787,0.674408,0.9325104,0.6943207c0.7209778,0.0228271,1.1717377-0.1905365,1.8877792-0.7103729
				c0.8317184-0.6124115,1.6795731-0.9055328,2.9119034-0.86203c1.0992889,0.039978,1.9901047,0.4094391,1.9764862,1.0549164
				L75.5639572,136.3196259z"/>
			<path class="st17" d="M75.5318985,136.4004211l-1.4015961-0.0488281
				c-0.1548233,0.3565063-0.550354,0.7162933-0.9824677,0.9192352l-0.8715897-0.1799774
				c0.4205246-0.209198,0.8104706-0.5202942,0.9463196-0.86409c0.1725464-0.4366302-0.2801437-0.7518616-1.0710602-0.7793274
				c-0.7634583-0.0264893-1.3306732,0.1968994-1.9260635,0.6372528c-0.8036041,0.6076202-1.5952377,0.9729767-2.802597,0.9308472
				c-1.1519241-0.0399017-1.8832626-0.4335938-1.8679199-1.0063171l-1.4025879-0.0488129l0.1506271-0.3811646l1.3471603,0.0469055
				c0.1733246-0.368042,0.4951553-0.6119385,0.8016357-0.7819214l0.8549728,0.1855774
				c-0.2177811,0.1230011-0.6224823,0.3648834-0.7778702,0.7582092c-0.1868362,0.4734192,0.3807449,0.6740265,0.9359818,0.6931915
				c0.722023,0.0252075,1.1731186-0.190155,1.8840942-0.7071381c0.8334503-0.6131744,1.6810379-0.9074249,2.9163513-0.8646393
				c1.0970078,0.0382843,1.990654,0.4121857,1.976326,1.0534821l1.4435349,0.0501251L75.5318985,136.4004211z"/>
		</g>
		<g>
			<path class="st14" d="M47.4532547,133.1428375v2.3403473c0,0.8567505-0.8096199,1.6455688-2.1679115,2.2724609h-0.0051003
				c-0.109684,0.0522308-0.2142639,0.0992584-0.3344078,0.1462555h-0.0053558
				c-0.9662361,0.4022522-2.1625519,0.7261353-3.5261993,0.9403381h-0.0051041
				c-0.109684,0.0208893-0.219368,0.0365448-0.3344078,0.0522308h-0.0051003
				c-1.0970917,0.1619415-2.2829514,0.2507477-3.531559,0.2612h-0.3499641
				c-1.2432518-0.0104523-2.4291115-0.0992584-3.5262032-0.2612h-0.0051003
				c-0.1150398-0.015686-0.2247238-0.0313416-0.3344078-0.0522308h-0.0053558
				c-1.3633938-0.2142029-2.5648117-0.5380859-3.5364056-0.9403381h-0.0053558
				c-0.1150398-0.0522308-0.2247238-0.0992584-0.3344078-0.1514893l-0.0051022-0.0052338
				c-1.3427315-0.6216431-2.1469917-1.4052429-2.1469917-2.2619934v-2.3612213l2.1365337-0.8515167l0.3448658,0.0992584
				l1.0968361,0.3134155c0.7315655-0.2246246,1.5516396-0.4074554,2.4344673-0.5537415
				c0.1150398-0.020874,0.2247238-0.0365601,0.3395081-0.0522156c1.0970917-0.1619415,2.2880516-0.2559814,3.5366592-0.2612
				h0.3395081c1.2539635,0.0052185,2.4449234,0.0940247,3.5420151,0.2507324
				c0.1147881,0.015686,0.224472,0.0365753,0.3395119,0.0522614c0.8986397,0.1462555,1.7342758,0.3343201,2.4762993,0.5641632
				l1.0552559-0.3029633l0.3446121-0.0992584L47.4532547,133.1428375z"/>
			<path class="st15" d="M29.7753162,137.9019012c-0.1150398-0.0522308-0.2247238-0.0992584-0.3344078-0.1514893
				l-0.0051022-0.0052338c-0.0053558-1.28508-0.0053558-2.601532-0.010458-3.9023132l0.3448658,0.0992584
				C29.7702141,135.2429047,29.7753162,136.5750122,29.7753162,137.9019012z"/>
			<path class="st15" d="M33.6568413,138.8944702c-0.1150398-0.015686-0.2247238-0.0313416-0.3344078-0.0522308h-0.0053558
				c-0.0051041-1.6664581-0.0102043-3.4217377-0.0155602-5.1404266c0.1150398-0.0208893,0.2247238-0.0365753,0.3395081-0.0522308
				C33.6463814,135.3630371,33.6514854,137.1444397,33.6568413,138.8944702z"/>
			<path class="st15" d="M37.5330086,139.1556702h-0.3448639c0-1.8597412-0.0051041-3.8396301-0.0104599-5.7672882h0.3395081
				C37.5276527,135.2690125,37.5330086,137.2280121,37.5330086,139.1556702z"/>
			<path class="st15" d="M41.4091759,138.8422394c-0.109684,0.0208893-0.219368,0.0365448-0.3344078,0.0522308h-0.0051003
				c0-1.7030334-0.0053558-3.4948578-0.0104599-5.2553406c0.1147881,0.0156555,0.224472,0.0313416,0.3395119,0.0522308
				C41.3987198,135.3787231,41.4040756,137.1235352,41.4091759,138.8422394z"/>
			<path class="st15" d="M45.2802429,137.7556458c-0.109684,0.0522308-0.2142639,0.0992584-0.3344078,0.1462555h-0.0053558
				c-0.0051003-1.2955475-0.0051003-2.627655-0.0102043-3.9493408l0.3446121-0.0992584
				C45.2748871,135.1331787,45.2802429,136.4444122,45.2802429,137.7556458z"/>
			<ellipse class="st15" cx="37.3708153" cy="133.2714386" rx="10.0799332" ry="3.6680048"/>
			<path class="st16" d="M46.0090141,133.2704773c0,0.2157745-0.0803452,0.4229279-0.2339821,0.6257477
				c-0.9068108,1.1867371-4.3256111,2.0670776-8.4026985,2.0670776c-4.0806541,0-7.4995441-0.8803406-8.4026966-2.0670776
				c-0.153635-0.2028198-0.2339783-0.4099731-0.2339783-0.6257477c0-1.4888306,3.8648853-2.6928253,8.6366749-2.6928253
				C42.1404648,130.577652,46.0090141,131.7816467,46.0090141,133.2704773z"/>
			<path class="st14" d="M42.9123497,133.475296l-0.1563492,0.3888245l-1.4009209-0.0464172
				c-0.1517792,0.3525848-0.5487404,0.715744-0.9794006,0.9166718l-0.8719025-0.1768036
				c0.0051117-0.0000916,0.0050011-0.0061188,0.0101128-0.0062256l-0.0306778,0.0005798l0.1425705-0.3041687
				c0,0,0.3255157-0.0783997,0.478447-0.0993347c0.0051117-0.0000916,0.0051117-0.0000916,0.0051117-0.0000916
				c0.1558113-0.141571,0.2756081-0.2945557,0.3389359-0.4585724c0.1707916-0.4373322-0.2795792-0.7486267-1.0721245-0.7761688
				c-0.7617416-0.0281067-1.3299866,0.1934967-1.9246559,0.6386871c-0.8063889,0.605957-1.5967903,0.9703369-2.8034325,0.9263458
				c-1.1504135-0.0389862-1.8833122-0.4294739-1.868351-1.0026245l-1.4010353-0.0524597l0.1514568-0.3766937l1.3445683,0.0414276
				c0.1721306-0.365036,0.4947586-0.6061707,0.8031502-0.7807465l0.4720154,0.105835
				c0.0241127-0.0788422,0.0484505-0.1456299,0.0535622-0.1457214c0.0101128-0.0062256,0.4532166-0.0807495,0.4532166-0.0807495
				l-0.1220055,0.3098145c-0.222599,0.1187134-0.6269112,0.3613586-0.7779083,0.7561493
				c-0.1905746,0.4738922,0.3803749,0.674408,0.9325104,0.6943207c0.7209778,0.0228271,1.1717377-0.1905365,1.8877792-0.7103729
				c0.8317146-0.6124115,1.6795731-0.9055328,2.9119072-0.8620148c1.0992813,0.0399628,1.990097,0.4094238,1.9764786,1.0549011
				L42.9123497,133.475296z"/>
			<path class="st17" d="M42.8802872,133.5560913l-1.4015923-0.0488281
				c-0.1548233,0.3565063-0.550354,0.7162933-0.9824677,0.9192352l-0.8715897-0.1799774
				c0.4205246-0.209198,0.8104668-0.5202942,0.9463158-0.86409c0.1725502-0.4366302-0.2801399-0.7518616-1.0710602-0.7793121
				c-0.7634583-0.0265045-1.3306732,0.1968994-1.9260559,0.6372375c-0.8036118,0.6076202-1.5952415,0.9729767-2.8026009,0.9308624
				c-1.1519279-0.039917-1.8832626-0.433609-1.8679199-1.0063171l-1.4025898-0.0488281l0.1506252-0.3811646l1.3471642,0.0469055
				c0.1733246-0.368042,0.4951515-0.6119232,0.8016319-0.7819061l0.8549767,0.1855774
				c-0.2177811,0.1229858-0.6224785,0.3648682-0.7778702,0.758194c-0.1868401,0.4734192,0.3807449,0.6740417,0.9359818,0.6931915
				c0.7220192,0.0252075,1.1731186-0.190155,1.8840981-0.7071381c0.8334465-0.6131744,1.6810341-0.9074249,2.9163475-0.8646393
				c1.0970078,0.0382843,1.9906502,0.4121857,1.976326,1.0534821l1.443531,0.0501251L42.8802872,133.5560913z"/>
		</g>
	</g>
</g>
</svg>
