<?xml version="1.0" encoding="utf-8"?>
<!-- Generator: Adobe Illustrator 22.0.1, SVG Export Plug-In . SVG Version: 6.00 Build 0)  -->
<svg version="1.1" id="Layer_1" xmlns="http://www.w3.org/2000/svg" xmlns:xlink="http://www.w3.org/1999/xlink" x="0px" y="0px"
	 viewBox="0 0 156 156" style="enable-background:new 0 0 156 156;" xml:space="preserve">
<style type="text/css">
	.st0{fill:#FFD9B2;}
	.st1{fill:#F7AC76;}
	.st2{fill:none;stroke:#3643C3;stroke-width:0.5;stroke-linecap:round;stroke-linejoin:round;stroke-miterlimit:10;}
	.st3{fill:#233764;}
	.st4{fill:none;stroke:#F7AC76;stroke-width:0.5;stroke-linecap:round;stroke-linejoin:round;stroke-miterlimit:10;}
	.st5{fill:#161718;}
	.st6{fill:#FFFFFF;}
	.st7{fill:#F06449;}
	.st8{fill:#BE412D;}
	.st9{fill:#FE8E60;}
	.st10{fill:#7D4C47;}
	.st11{fill:#4456D6;}
	.st12{fill:#203881;}
	.st13{fill:#6582FC;}
	.st14{fill:#DDA103;}
	.st15{fill:#FBC32E;}
	.st16{fill:none;stroke:#DDA103;stroke-width:0.5;stroke-miterlimit:10;}
	.st17{fill:#FBE6BB;}
	.st18{fill:none;stroke:#BE412D;stroke-width:0.5;stroke-linecap:round;stroke-linejoin:round;stroke-miterlimit:10;}
	.st19{fill:none;stroke:#F06449;stroke-width:0.5;stroke-linecap:round;stroke-linejoin:round;stroke-miterlimit:10;}
	.st20{fill:#F34B4B;}
	.st21{fill:#FC7070;}
	.st22{fill:none;stroke:#FFFFFF;stroke-miterlimit:10;}
	.st23{fill:#FC9F9F;}
	.st24{fill:#408A6F;}
	.st25{fill:#64B48D;}
	.st26{fill:none;stroke:#FBE6BB;stroke-width:0.5;stroke-linecap:round;stroke-linejoin:round;stroke-miterlimit:10;}
	.st27{fill:none;stroke:#F7AC76;stroke-width:0.25;stroke-linecap:round;stroke-linejoin:round;stroke-miterlimit:10;}
	.st28{fill:#A0665A;}
	.st29{fill:#6C3F44;}
	.st30{fill:none;stroke:#6C3F44;stroke-width:0.5;stroke-linecap:round;stroke-linejoin:round;stroke-miterlimit:10;}
	.st31{fill:none;stroke:#7D4C47;stroke-width:0.5;stroke-linecap:round;stroke-linejoin:round;stroke-miterlimit:10;}
	.st32{fill:none;stroke:#F34B4B;stroke-width:0.5;stroke-linecap:round;stroke-linejoin:round;stroke-miterlimit:10;}
	.st33{fill:none;stroke:#FC7070;stroke-width:0.5;stroke-linecap:round;stroke-linejoin:round;stroke-miterlimit:10;}
	.st34{fill:#EAE8F3;}
	.st35{fill:#40304A;}
	.st36{fill:none;stroke:#43334E;stroke-linecap:round;stroke-linejoin:round;stroke-miterlimit:10;}
	.st37{fill:#32775B;}
	.st38{fill:none;stroke:#233764;stroke-width:0.5;stroke-linecap:round;stroke-linejoin:round;stroke-miterlimit:10;}
	.st39{fill:none;stroke:#408A6F;stroke-width:0.5;stroke-linecap:round;stroke-linejoin:round;stroke-miterlimit:10;}
	.st40{fill:#3643C3;}
	.st41{opacity:0.56;fill:url(#SVGID_1_);}
	.st42{opacity:0.52;fill:#FBC32E;}
	.st43{opacity:0.56;fill:url(#SVGID_2_);}
	.st44{fill:none;stroke:#EAE8F3;stroke-width:0.5;stroke-linecap:round;stroke-linejoin:round;stroke-miterlimit:10;}
	.st45{fill:#FEFFFD;}
	.st46{opacity:0.35;fill:#32775B;}
	.st47{fill:#43334E;}
	.st48{fill:none;stroke:#EAE8F3;stroke-width:0.25;stroke-linecap:round;stroke-linejoin:round;stroke-miterlimit:10;}
	.st49{fill:none;stroke:#FBC32E;stroke-width:0.5;stroke-linecap:round;stroke-linejoin:round;stroke-miterlimit:10;}
	.st50{fill:none;stroke:#161718;stroke-width:0.5;stroke-linecap:round;stroke-linejoin:round;stroke-miterlimit:10;}
	.st51{fill:none;stroke:#40304A;stroke-linecap:round;stroke-linejoin:round;stroke-miterlimit:10;}
	.st52{opacity:0.33;fill:#FBC32E;}
	.st53{fill:#A6A3AE;}
	.st54{fill:#5B4B68;}
	.st55{fill:#776688;}
	.st56{fill:none;stroke:#FBC32E;stroke-width:0.5;stroke-miterlimit:10;}
	.st57{fill:none;stroke:#EAE8F3;stroke-linecap:round;stroke-linejoin:round;stroke-miterlimit:10;}
	.st58{fill:none;stroke:#203881;stroke-width:2;stroke-linecap:round;stroke-linejoin:round;stroke-miterlimit:10;}
	.st59{fill:none;stroke:#40304A;stroke-width:2;stroke-linecap:round;stroke-linejoin:round;stroke-miterlimit:10;}
	.st60{fill:#FFD8B7;}
	.st61{fill:#F4E4D4;}
	.st62{fill:none;stroke:#4456D6;stroke-width:0.5;stroke-linecap:round;stroke-linejoin:round;stroke-miterlimit:10;}
	.st63{fill:none;stroke:#DDA103;stroke-width:0.25;stroke-miterlimit:10;}
	.st64{fill:none;stroke:#FFFFFF;stroke-width:0.5;stroke-linecap:round;stroke-linejoin:round;stroke-miterlimit:10;}
	.st65{fill:none;stroke:#64B48D;stroke-width:0.5;stroke-linecap:round;stroke-linejoin:round;stroke-miterlimit:10;}
	.st66{fill:none;stroke:#64B48D;stroke-linecap:round;stroke-linejoin:round;stroke-miterlimit:10;}
	.st67{opacity:0.48;fill:#64B48D;}
	.st68{fill:none;stroke:#64B48D;stroke-width:0.25;stroke-linecap:round;stroke-linejoin:round;stroke-miterlimit:10;}
	.st69{fill:none;stroke:#F06449;stroke-width:2;stroke-linecap:round;stroke-linejoin:round;stroke-miterlimit:10;}
	.st70{opacity:0.92;fill:#64B48D;}
	.st71{opacity:0.57;fill:#408A6F;}
	.st72{opacity:0.36;fill:#408A6F;}
	.st73{fill:none;stroke:#BE412D;stroke-width:2;stroke-linecap:round;stroke-linejoin:round;stroke-miterlimit:10;}
	.st74{opacity:0.65;fill:none;stroke:#408A6F;stroke-width:0.25;stroke-linecap:round;stroke-linejoin:round;stroke-miterlimit:10;}
	.st75{opacity:0.67;fill:none;stroke:#64B48D;stroke-width:0.25;stroke-linecap:round;stroke-linejoin:round;stroke-miterlimit:10;}
	.st76{opacity:0.98;fill:#64B48D;}
	.st77{fill:none;stroke:#408A6F;stroke-width:0.25;stroke-linecap:round;stroke-linejoin:round;stroke-miterlimit:10;}
	.st78{fill:none;stroke:#FFD9B2;stroke-width:0.5;stroke-linecap:round;stroke-linejoin:round;}
	
		.st79{fill:none;stroke:#FFD9B2;stroke-width:0.5;stroke-linecap:round;stroke-linejoin:round;stroke-dasharray:4.0333505,4.0333505;}
	.st80{fill:#E68B4A;}
	.st81{opacity:0.62;fill:#64B48D;}
	.st82{fill:none;stroke:#FBC32E;stroke-width:0.25;stroke-miterlimit:10;}
	.st83{fill:none;stroke:#4456D6;stroke-linecap:round;stroke-linejoin:round;stroke-miterlimit:10;}
	.st84{fill:none;stroke:#E68B4A;stroke-width:0.5;stroke-linecap:round;stroke-linejoin:round;stroke-miterlimit:10;}
	.st85{fill:none;stroke:#203881;stroke-width:0.5;stroke-linecap:round;stroke-linejoin:round;stroke-miterlimit:10;}
	.st86{opacity:0.29;fill:#EAE8F3;}
	.st87{fill:none;stroke:#A6A3AE;stroke-width:0.5;stroke-linecap:round;stroke-linejoin:round;stroke-miterlimit:10;}
	.st88{opacity:0.74;fill:#FFFFFF;}
	.st89{opacity:0.19;fill:#FFFFFF;}
	.st90{fill:none;stroke:#40304A;stroke-width:0.25;stroke-linecap:round;stroke-linejoin:round;stroke-miterlimit:10;}
	.st91{fill:none;stroke:#F34B4B;stroke-width:2;stroke-linecap:round;stroke-linejoin:round;stroke-miterlimit:10;}
	.st92{fill:none;stroke:#43334E;stroke-width:0.5;stroke-linecap:round;stroke-linejoin:round;stroke-miterlimit:10;}
	.st93{fill:none;stroke:#6582FC;stroke-miterlimit:10;}
	.st94{opacity:0.47;fill:#A6A3AE;}
	.st95{opacity:0.43;fill:#FFFFFF;}
	.st96{fill:none;stroke:#FBE6BB;stroke-linecap:round;stroke-linejoin:round;stroke-miterlimit:10;}
	.st97{fill:none;stroke:#5B4B68;stroke-width:0.5;stroke-linecap:round;stroke-linejoin:round;stroke-miterlimit:10;}
	.st98{fill:none;stroke:#40304A;stroke-width:0.5;stroke-linecap:round;stroke-linejoin:round;stroke-miterlimit:10;}
	.st99{fill:none;stroke:#DDA103;stroke-linecap:round;stroke-linejoin:round;stroke-miterlimit:10;}
	.st100{fill:none;stroke:#FBC32E;stroke-linecap:round;stroke-linejoin:round;stroke-miterlimit:10;}
	.st101{fill:none;stroke:#32775B;stroke-width:0.5;stroke-linecap:round;stroke-linejoin:round;stroke-miterlimit:10;}
	.st102{opacity:0.4;fill:#FBE6BB;}
	.st103{fill:none;stroke:#FBC32E;stroke-width:0.25;stroke-linecap:round;stroke-linejoin:round;stroke-miterlimit:10;}
	.st104{fill:none;stroke:#4456D6;stroke-miterlimit:10;}
	.st105{opacity:0.61;fill:#64B48D;}
	.st106{opacity:0.9;fill:#64B48D;}
	.st107{opacity:0.76;fill:#64B48D;}
	.st108{fill:none;stroke:#5B4B68;stroke-width:0.5;stroke-miterlimit:10;}
	.st109{opacity:0.66;fill:#A6A3AE;}
	.st110{fill:none;stroke:#43334E;stroke-miterlimit:10;}
	.st111{opacity:0.52;fill:#6582FC;}
	.st112{fill:none;stroke:#DDA103;stroke-width:0.5;stroke-linecap:round;stroke-linejoin:round;stroke-miterlimit:10;}
	.st113{fill:#46724E;}
	.st114{fill:#FE8B2E;}
	.st115{fill:none;stroke:#7D4C47;stroke-width:2;stroke-linecap:round;stroke-linejoin:round;stroke-miterlimit:10;}
	.st116{opacity:0.4;fill:#EAE8F3;}
	.st117{fill:none;stroke:#EAE8F3;stroke-width:0.5;stroke-linecap:round;stroke-miterlimit:10;}
	.st118{fill:none;stroke:#4456D6;stroke-width:0.25;stroke-linecap:round;stroke-linejoin:round;stroke-miterlimit:10;}
	.st119{opacity:0.5;fill:#EAE8F3;}
	.st120{opacity:0.46;fill:#A6A3AE;}
	.st121{fill:#E0916E;}
	.st122{fill:none;stroke:#A0665A;stroke-linecap:round;stroke-linejoin:round;stroke-miterlimit:10;}
	.st123{opacity:0.46;fill:#BE412D;}
	.st124{fill:none;stroke:#203881;stroke-linecap:round;stroke-linejoin:round;stroke-miterlimit:10;}
	.st125{fill:#DBDBE1;}
	.st126{fill:none;stroke:#6582FC;stroke-width:0.5;stroke-linecap:round;stroke-linejoin:round;stroke-miterlimit:10;}
	.st127{opacity:0.53;fill:#A6A3AE;}
	.st128{fill:none;stroke:#DDA103;stroke-miterlimit:10;}
	.st129{font-family:'Poppins-Regular';}
	.st130{font-size:12.29811px;}
	.st131{opacity:0.48;fill:#FFFFFF;}
	.st132{font-family:'MyriadPro-Regular';}
	.st133{font-size:4.8839202px;}
	.st134{font-size:3.7688601px;}
	.st135{opacity:0.2;fill:#FFFFFF;}
	.st136{fill:#B4A1BF;}
	.st137{opacity:0.5;fill:#6582FC;}
	.st138{opacity:0.6;fill:none;stroke:#FFFFFF;stroke-linecap:round;stroke-linejoin:round;stroke-miterlimit:10;}
	.st139{opacity:0.6;fill:none;stroke:#FFFFFF;stroke-width:2;stroke-linecap:round;stroke-linejoin:round;stroke-miterlimit:10;}
	.st140{opacity:0.54;fill:#A6A3AE;}
	.st141{fill:#161718;stroke:#000000;stroke-width:0.25;stroke-miterlimit:10;}
</style>
<g id="_x39_">
	<path class="st10" d="M70.7511826,28.0451508l-7.1744728-10.2683392c-0.3593712-0.5143471-0.2635765-1.2184429,0.22015-1.6180782
		h0.0000038c0.3427391-0.2831583,0.8136101-0.3544426,1.2248039-0.1854219l2.5127869,1.032876l1.0933151-1.5404005
		c0.466217-0.6568623,1.2111053-1.0598879,2.0160141-1.090765l0,0c0.7546844-0.0289507,1.48452,0.2724266,1.9989014,0.8254232
		l1.069519,1.1498222l2.8569412-2.1124239c0.362236-0.2678394,0.8430099-0.3130407,1.2488251-0.1174126v0.000001
		c0.5269089,0.2540035,0.7977371,0.8476486,0.6442184,1.412077l-3.387764,12.4550762"/>
	<path class="st10" d="M78.8764954,68.2000198c-11.0375748,1.6705017-21.1629028-4.7757378-22.618103-14.3990288
		c-0.0720558-0.4817085-0.1231003-0.9736137-0.1536255-1.4757767c-0.2356949-3.7099266,0.5939903-8.1064796,2.2953873-12.2161102
		c2.7362518-6.5897293,7.7378693-12.4210892,14.2046814-13.3947029c1.7114105-0.2562103,3.422821-0.1640091,5.1032028,0.2254353
		c6.1390457,1.3938351,11.8267212,6.6307659,15.2805634,12.390379c1.6808853,2.8183174,2.8288269,5.7493553,3.2386627,8.4241791
		C97.6824646,57.3776855,89.9140778,66.5295258,78.8764954,68.2000198z"/>
	<path class="st28" d="M92.9886017,39.3302155L60.4908752,60.4727287l-4.3861084-8.1475143
		c-0.2356949-3.7099266,0.5939903-8.1064796,2.2953873-12.2161102l19.3078842-13.1692677
		C83.847084,28.3336716,89.5347595,33.5706024,92.9886017,39.3302155z"/>
	<text transform="matrix(1 0 0 1 67.5718536 42.0389404)" class="st6 st129 st130">%</text>
	<polygon class="st0" points="105.8832474,135.7679749 100.1441498,135.9114685 98.5555954,131.9555817 98.6274033,130.7154999 
		98.6376648,130.4695587 98.9142685,125.5298004 104.9506073,125.704071 105.288887,129.3934784 105.2991409,129.4857483 	"/>
	<polygon class="st1" points="105.2991409,129.4857483 98.6376648,130.4695587 98.9142685,125.5298004 104.9506073,125.704071 
		105.288887,129.3934784 	"/>
	<path class="st35" d="M97.2297058,136.1442871l13.6491165,1.9322815l0.0870667-0.6150055
		c0.7465439,0.5100861,1.4917984,1.0223083,2.2100754,1.571228c0.2988052,0.2284393,0.6011734,0.4664917,0.8032227,0.7836456
		c0.3387985,0.5319977,0.2223282,1.2408295-0.2340088,1.6738129c-0.3905487,0.3708954-0.9703217,0.4436798-1.5080185,0.4766235
		c-2.2060928,0.134552-4.5083923-0.1148224-6.4170227-1.2292633c-0.628891-0.3672333-1.2080383-0.8240814-1.8735733-1.1194458
		c-1.0836563-0.4809875-2.318367-0.4984589-3.4946594-0.3511963c-0.7059326,0.0882874-1.4206924,0.2328186-2.1224365,0.11586
		c-0.7016144-0.1170502-1.4059753-0.5728912-1.5600128-1.2674561c-0.0742493-0.3346405-0.0137405-0.6855469,0.0884781-1.0128021
		C96.9591064,136.7792206,97.0916214,136.460556,97.2297058,136.1442871z"/>
	<path class="st7" d="M101.5401611,131.5166016c0.1897964,0.7102051,0.3795929,1.4204102,0.5693893,2.1306152
		c-0.6717987,0.3297272-1.4944763,0.3340302-2.1696854,0.0113525c-0.7345505-0.3510284-1.1827011-0.9221802-1.3871384-1.7048798
		c-0.000679,0.1564178-0.0306854,0.3111725-0.0648651,0.4638214c-0.1663818,0.743042-0.4862518,1.3824158-0.7660904,2.08078
		c-0.2441711,0.6093597-0.5602417,1.2216797-0.7570953,1.8509674c-0.102356,0.3272095-0.1627579,0.6781464-0.0885315,1.0128632
		c0.1540298,0.6945343,0.8582764,1.1504059,1.5599899,1.2674408c0.7017059,0.1170349,1.4165039-0.0274963,2.1223984-0.1158447
		c1.1762772-0.1472168,2.4110794-0.129715,3.4946213,0.351181c0.6656036,0.2953949,1.2447891,0.7522125,1.8736343,1.1194305
		c1.9086075,1.114502,4.2109528,1.3638458,6.417038,1.2292175c0.5376205-0.0328064,1.1174011-0.1056976,1.5080643-0.4765015
		c0.4562607-0.4330597,0.5728073-1.1418915,0.2339172-1.6738434c-0.2020721-0.3171844-0.5043488-0.5552979-0.8031693-0.7836456
		c-0.9329987-0.7129822-1.8905945-1.3937531-2.8705215-2.0407104c-1.2171021-0.8035431-2.494545-1.5777893-3.4009781-2.7203369
		c-0.4363708-0.5500336-0.7721558-1.1703491-1.0627289-1.807312c-0.2334595-0.5117645-0.2154999-1.4388428-0.966301-1.275116
		C103.8258438,130.6882324,102.7049332,131.2394257,101.5401611,131.5166016z"/>
	<path class="st18" d="M102.1227341,133.6475525c0.249588,0.5724182,0.6074829,1.0973816,1.0491104,1.5388794"/>
	<polygon class="st0" points="72.8627167,121.4714661 69.029808,125.9295044 67.5438385,127.6512375 66.9187012,131.443161 
		61.6202164,129.4754791 61.6099586,125.2838516 64.1823273,121.4919205 64.2028427,121.4612045 66.4677048,118.1099472 
		68.2611771,119.0527878 	"/>
	<path class="st1" d="M72.8627167,121.4714661l-3.8329086,4.4580383c-2.275116-2.0496826-4.5912704-4.1916351-4.8474808-4.4375839
		c-0.0102615,0-0.0205231-0.0102615-0.0205231-0.0102615l0.0410385-0.0204544l4.0583344-2.4084167L72.8627167,121.4714661z"/>
	<path class="st35" d="M58.8709297,128.6251678l11.7741661,6.7471313l0.3040161-0.5305176
		c0.4964294,0.7387695,0.9908981,1.4790344,1.4473114,2.2429962c0.1898422,0.3178864,0.3794327,0.6458588,0.4484329,1.0095673
		c0.1156387,0.6100311-0.2494965,1.2156067-0.8247147,1.4449615c-0.4924088,0.1965942-1.0490494,0.0515747-1.552681-0.114502
		c-2.0661011-0.6819611-4.0800781-1.7500458-5.4184647-3.4654083c-0.4409866-0.5652466-0.8038025-1.1942596-1.3045158-1.7071686
		c-0.8152657-0.8351746-1.9377708-1.3016815-3.0669746-1.5962677c-0.6776428-0.1768646-1.3838768-0.305542-1.9828033-0.6685333
		c-0.5987625-0.3630219-1.0764198-1.0368347-0.96381-1.7280579c0.0542221-0.3330536,0.2375832-0.6317902,0.4504547-0.8937073
		C58.3918381,129.1069489,58.6292725,128.8639374,58.8709297,128.6251678z"/>
	<path class="st7" d="M64.5005417,125.96698c-0.0856171,0.7185898-0.1712418,1.4371796-0.2568588,2.155777
		c-0.734539,0.0563202-1.4882698-0.2399292-1.9878693-0.7813339c-0.5434952-0.5889816-0.7448273-1.274704-0.6461411-2.0649185
		c-0.0576973,0.1427765-0.1416016,0.2733154-0.2285576,0.4004059c-0.4232483,0.6186371-0.9490051,1.0864944-1.4596863,1.6228943
		c-0.4455986,0.4680328-0.9580078,0.9125366-1.3676109,1.4160614c-0.2129822,0.2618103-0.3962593,0.5606384-0.4505234,0.8937378
		c-0.112606,0.6912079,0.3649368,1.364975,0.9637985,1.7280426c0.5988579,0.3630524,1.3051262,0.4917297,1.9827538,0.6685333
		c1.1291809,0.2946167,2.2517586,0.7612,3.0669594,1.5962372c0.5007629,0.5129547,0.8636169,1.1419678,1.3045654,1.7071533
		c1.3383484,1.7154388,3.3523712,2.7835083,5.4185028,3.4654083c0.5035095,0.1661682,1.0601959,0.3110962,1.5526733,0.114624
		c0.5751724-0.2294617,0.9403839-0.8350067,0.824646-1.4450226c-0.0690155-0.363739-0.2584991-0.6917419-0.4483871-1.0095673
		c-0.592865-0.9922943-1.2199783-1.9641418-1.8798447-2.9132233c-0.8195724-1.1787872-1.7050095-2.3527985-2.1168442-3.7281647
		c-0.1982651-0.6621246-0.278923-1.3517914-0.3121719-2.0401917c-0.0267029-0.5530853,0.3279953-1.3941498-0.4181976-1.5184174
		C66.8925858,126.0436401,65.6666183,126.1385803,64.5005417,125.96698z"/>
	<path class="st18" d="M64.2556152,128.1278687c0.0193176,0.6144257,0.1549835,1.2249908,0.3976669,1.7897797"/>
	<path class="st0" d="M106.121666,41.2314377c0,0,9.3927536,3.4619255,9.3736801,3.5997238
		c-0.0190659,0.1377983,0.734108,4.3654594,0.0933838,5.250267c-0.6407242,0.8848114-10.3736267-0.2392426-10.3736267-0.2392426
		s-3.1120834-4.1237831-3.1120834-5.0696106"/>
	<path class="st11" d="M112.9341736,95.8913651l-0.3382797,2.0496826l-5.2266769,31.9033585l-8.9673691-1.5577698
		l-1.362999-0.2357025l3.3204803-30.2738342L89.8239136,86.8522415l0.0102615,0.3894424l0.2562103,10.6891022
		c0.0512924,2.131691-0.594368,4.2120895-1.8447723,5.9440765c-0.0819397,0.1332397-0.1844025,0.2664719-0.2868576,0.399704
		L72.3605499,123.808075l-1.2913132,1.6192703l-6.9074326-3.9456863l-1.1682091-0.6661072l14.491169-23.7148819
		l-4.8474884-14.6449814c-1.701149-5.1447296-1.1682053-10.760849,1.4655838-15.4956207l1.8343811-3.2897682l7.8504562,3.0232964
		l14.6960907,6.4052734l0.9736786,1.2913055l12.1033249,15.9568176
		C112.759903,91.9252243,113.2620697,93.9339371,112.9341736,95.8913651z"/>
	<path class="st13" d="M112.9341736,95.8913651l-0.3382797,2.0496826l-10.0127335,15.7005997l3.9354858-18.9698486
		l-13.9379654-13.087265l-1.537262-4.0788574c0,0,3.7408218-1.3733139,8.4140472-3.1155014l12.1033249,15.9568176
		C112.759903,91.9252243,113.2620697,93.9339371,112.9341736,95.8913651z"/>
	<path class="st12" d="M76.1013794,70.9364624l-0.6577072,1.0908356c-1.2118149,2.0098572-1.525116,4.4358292-0.8636551,6.6876068
		l5.5694427,18.959671l-15.9876556,23.8070831l-1.1682091-0.6661072l14.491169-23.7148819l-4.8474884-14.6449814
		c-1.701149-5.1447296-1.1682053-10.760849,1.4655838-15.4956207l1.8343811-3.2897682l7.8504562,3.0232964l14.6960907,6.4052734
		C98.4837875,73.0988693,86.380455,78.0693283,76.1013794,70.9364624z"/>
	<path class="st12" d="M103.126358,95.5224304l-4.7245102,32.7642059l-1.362999-0.2357025l3.3204803-30.2738342
		L89.8239136,86.8522415l0.1709213-2.2092896c0.0945358-1.2219391,1.6025391-1.7410126,2.4291458-0.8361435L103.126358,95.5224304z"
		/>
	<path class="st0" d="M111.3890991,20.7909374l-2.874321,10.8166637c-0.1544876,0.5813828-0.1851883,1.1955986-0.0764389,1.7856522
		c0.0847778,0.4102478,0.2250977,0.8046188,0.4229889,1.1735573c0.0322723,0.0697937,0.1735916,0.2297783,0.361557,0.4429474
		l-3.0439987,11.4552269l6.5091476,1.7296753l2.4539337-9.2346878c0.076683-0.0204773,0.1703644-0.0261612,0.263588-0.0320244
		c0.9038544-0.1373291,1.7641373-0.571888,2.4202805-1.2750397c1.1442642-1.1957588,1.9597778-2.6523705,2.3826904-4.2438812
		l1.5042725-5.6608963c0,0,0.9214783-2.6221943-1.4701843-4.6045437L111.3890991,20.7909374z"/>
	<path class="st1" d="M109.9887161,26.0448418l-1.3376541,5.033886c0.4054871-0.0793915,0.7448425-0.3933258,0.8573227-0.8166161
		l0.82164-3.0920029C110.4425049,26.7468166,110.3013,26.3150482,109.9887161,26.0448418z"/>
	<path class="st3" d="M125.1395874,22.8721619c-0.4086609,0.7116146-1.0287018,1.2952137-1.6620255,1.8183975
		c0.284584-0.2436543,0.7914429,0.9104023,0.8122559,1.0650673c0.0418396,0.3791542-0.0106735,0.6961784-0.163147,0.9849319
		c-0.0714493,0.1510258-0.1770325,0.2963982-0.3051376,0.4380398c-0.8649673,0.9384689-1.6318359,1.9164715-2.6649399,2.6758709
		c0.1583557-0.1133461,0.2876434-1.1038857,0.3495483-1.3379211c0.1371384-0.6170177,0.2648163-1.247242,0.4018173-1.8643513
		c-0.0678558-0.0112381-4.2781525-1.4879456-4.6594925-1.644186c-1.3323975-0.5230656-2.8608932-1.0554714-3.9919434-1.9523373
		c-0.9568634,1.4932594-1.6344299,3.0559273-2.3892517,4.6640854c-0.1699829-0.0281563-0.8491669-0.2104435-0.9736557-0.0914898
		c-0.030159,0.0415058-0.0489883,0.0848885-0.0678329,0.1283398c-0.2331314,0.635973-0.4438858,1.2757225-0.645195,1.9286823
		c-0.2480545,0.7963619-0.4945221,1.5814152-0.7427216,2.3777542c-0.4196243-0.8371716-1.0900497-1.4949493-1.4304352-2.3887825
		c-0.5372009-1.3917332-0.3276062-3.1482754-0.112114-4.5898342c0.230423-1.6019459,0.6871948-3.1663284,1.3045807-4.6459618
		c0.2710342-0.6530533,0.5760574-1.3004036,1.0376663-1.8404579c0.4483871-0.5305309,1.0667114-0.9631958,1.7590561-1.069521
		c0.8827515-0.1329288,1.7717743,0.2586231,2.4985733,0.7860928c0.5541534-0.3967209,1.2445374-0.5615158,1.9142151-0.6715946
		c1.1373367-0.1954765,2.2880478-0.2608051,3.4256973-0.1770096c1.2792664,0.0723248,2.5433426,0.304924,3.7568893,0.7037296
		c1.2264938,0.3892345,2.5308838,1.0822353,2.9094086,2.3081093
		C125.753067,21.2755222,125.5501328,22.1492157,125.1395874,22.8721619z"/>
	<path class="st1" d="M114.7839966,40.2804985l0.3530655-1.3286514c-0.1091385,0.3149261-3.2907867-1.8004913-3.6263428-2.2166634
		c-0.2094498-0.1175804-0.4127274,0.1629868-0.2357483,0.3253899
		C112.0662613,38.4140549,113.2186813,39.5001411,114.7839966,40.2804985z"/>
	<path class="st0" d="M110.4250946,26.8167191l-0.8212357,3.090498c-0.1614761,0.6076641-0.7843628,0.9690094-1.3920212,0.8075352
		c-0.6076584-0.1614704-0.9690018-0.7843571-0.8075256-1.3920212l0.8212357-3.090498
		c0.0807419-0.303833,0.2767563-0.5449524,0.5283051-0.6915894c0.2521744-0.1455746,0.5596542-0.1958084,0.8634796-0.1150723
		C110.2249908,25.5870457,110.5863342,26.2099323,110.4250946,26.8167191z"/>
	<path class="st4" d="M116.6381912,31.2403488l0.4656906,1.0448456c0.1217117,0.2730827-0.0036697,0.5929413-0.2785492,0.710556
		l-0.7374573,0.3155556"/>
	<path class="st5" d="M116.0573578,34.3751373c-0.0399246-0.0467873-0.0798416-0.0935783-0.1300735-0.1424942
		c-0.4183502-0.3998413-1.0078659-0.4498329-1.5579071-0.3707771c-0.2031097,0.0240669-0.3999176,0.0716019-0.5756912,0.1233368
		c-0.0063782,0.0041924-0.0169449,0.0020142-0.0233154,0.0062065c-0.0063705,0.0041962-0.0169373,0.0020142-0.0233078,0.0062103
		c-0.1630325,0.0433502-0.3175735,0.0995979-0.4680252,0.1620674c-0.0424271,0.0187874-0.0784836,0.0333824-0.1207581,0.0520668
		c-0.0360641,0.014595-0.0826874,0.0270119-0.1167297,0.0585442c-0.0127487,0.0083885-0.0213013,0.0231476-0.0192871,0.0400848
		c-0.0085526,0.0147629-0.000267,0.0273514-0.0021896,0.0379715c0.0123138,0.0464668,0.0564423,0.0722275,0.0881271,0.1061707
		c0.022995,0.0214005,0.0567093,0.0448761,0.0797501,0.066021c0.0652466,0.057518,0.130394,0.1148872,0.1956406,0.1724091
		c0.0800018,0.0660706,0.1599045,0.1319923,0.233284,0.2022057c0.0883942,0.0788193,0.172493,0.1511116,0.256691,0.2235565
		c0.0946655,0.0744705,0.1788635,0.1469193,0.2669983,0.2256851c0.084198,0.0724449,0.1682968,0.1447372,0.2523956,0.2170296
		c0.0800095,0.0660744,0.1535416,0.1361847,0.2333908,0.2023621c0.0653,0.0572624,0.1303864,0.1148872,0.1956329,0.1724091
		c0.0567627,0.0446205,0.1030502,0.0872154,0.1493454,0.1298141c0.0336151,0.0233192,0.0567627,0.0446205,0.0840988,0.0722885
		c0,0,0,0,0.0041962,0.0063744c0.0189514,0.0149269,0.1070862,0.0936928,0.1975555,0.1617889
		c0.0883942,0.0788193,0.172493,0.1511116,0.172493,0.1511116
		C115.7574768,36.4151688,116.8170776,35.3076553,116.0573578,34.3751373z"/>
	<path class="st6" d="M115.2571793,36.306469l0.2832108-0.3322449c0.1298065-0.1493454,0.1121292-0.3840561-0.0370636-0.5139732
		l-1.7096405-1.4750481c-0.0063782,0.0041924-0.0169449,0.0020142-0.0233154,0.0062065
		c-0.0063705,0.0041962-0.0169373,0.0020142-0.0233078,0.0062103c-0.1630325,0.0433502-0.3175735,0.0995979-0.4680252,0.1620674
		c-0.0424271,0.0187874-0.0784836,0.0333824-0.1207581,0.0520668c-0.0360641,0.014595-0.0826874,0.0270119-0.1167297,0.0585442
		c-0.0127487,0.0083885-0.0213013,0.0231476-0.0192871,0.0400848c-0.0085526,0.0147629-0.000267,0.0273514-0.0021896,0.0379715
		c0.0123138,0.0464668,0.0564423,0.0722275,0.0881271,0.1061707c0.022995,0.0214005,0.0567093,0.0448761,0.0797501,0.066021
		c0.0652466,0.057518,0.130394,0.1148872,0.1956406,0.1724091c0.0800018,0.0660706,0.1599045,0.1319923,0.233284,0.2022057
		c0.0883942,0.0788193,0.172493,0.1511116,0.256691,0.2235565c0.0946655,0.0744705,0.1788635,0.1469193,0.2669983,0.2256851
		c0.084198,0.0724449,0.1682968,0.1447372,0.2523956,0.2170296c0.0800095,0.0660744,0.1535416,0.1361847,0.2333908,0.2023621
		c0.0653,0.0572624,0.1303864,0.1148872,0.1956329,0.1724091c0.0567627,0.0446205,0.1030502,0.0872154,0.1493454,0.1298141
		c0.0336151,0.0233192,0.0567627,0.0446205,0.0840988,0.0722885c0,0,0,0,0.0041962,0.0063744
		C115.0785751,36.1596069,115.1667099,36.2383728,115.2571793,36.306469z"/>
	<path class="st1" d="M108.9047775,26.4758739l-0.2347488,0.8834286l0.7094345,0.5926285l0.3350525-1.2608852
		c0.0586929-0.2208576-0.0764236-0.4537659-0.2972794-0.5124531
		C109.1963806,26.1199036,108.9634705,26.2550163,108.9047775,26.4758739z"/>
	<path class="st1" d="M109.1496048,28.8169384l-0.7217331-0.5463448l-0.2200699,0.8281574
		c-0.0586853,0.2208576,0.0764236,0.4537659,0.2972794,0.5124531c0.2208633,0.0586891,0.4537659-0.0764236,0.5124588-0.2972813
		L109.1496048,28.8169384z"/>
	<path class="st21" d="M118.324852,51.5771637c-0.3177567,3.863678-5.2062759,9.2030716-10.0537643,13.5894318
		c-4.9192963,4.4477768-9.7873001,7.9322739-9.7873001,7.9322739c-14.9113922,1.2810516-21.1423874-3.5664368-23.2125931-5.8518753
		c-0.625267-0.6866302-0.8712158-1.1375656-0.8712158-1.1375656c2.2855072-5.5033989,10.9147263-14.0506172,17.4531021-19.9946938
		c4.3658447-3.9866524,7.7991638-6.8049736,7.7991638-6.8049736l6.4666977,1.926712
		c-0.3894501,1.8037338,0.4612503,3.7714119,1.9472275,4.8782616c1.4859695,1.0965881,3.5253983,1.3425407,5.2983551,0.799408
		c1.0043259-0.3176994,2.0394287-1.0351028,2.131752-2.0804634c0,0,0.7378616,0.0922661,1.4757156,0.8506393
		C117.781662,46.5349541,118.5913239,48.2361679,118.324852,51.5771637z"/>
	<path class="st20" d="M98.0385361,50.6787758l-10.3222656,2.7738686L75.3156967,67.246994
		c-0.625267-0.6866302-0.8712158-1.1375656-0.8712158-1.1375656c2.2854996-5.5033989,10.9147263-14.0506172,17.4531021-19.9946938
		l1.0351028,0.4099617l5.2297287,2.1109085C99.1228943,49.0232887,99.0388184,50.4099731,98.0385361,50.6787758z"/>
	<path class="st23" d="M118.324852,51.5771637c-0.3177567,3.863678-5.2062759,9.2030716-10.0537643,13.5894318l6.0568542-11.9701614
		l-13.3332138,16.6638947c-14.1324997,3.8431625-20.6711273-3.1257629-20.6711273-3.1257629l36.6483917-21.0502472
		C117.781662,46.5349541,118.5913239,48.2361679,118.324852,51.5771637z"/>
	<path class="st0" d="M56.3364944,61.1030922l0.405323-0.0383911l-1.0101929,0.3099785
		c-0.4344215,0.1183853-0.7075996,0.5937538-0.6080666,1.053051l0.0863457,0.3004532
		c0.0959969,0.4017067,0.4563522,0.6819839,0.8565826,0.6710243l0.1836395,0.0056496l-0.7562141,0.2434654
		c-0.4556656,0.1570587-0.6987839,0.6238632-0.5831032,1.0719299l0.0951729,0.3304672
		c0.1243248,0.4781418,0.5998611,0.7513504,1.0616302,0.6380386l3.8003235-1.0144882l0.2816772-0.0614548
		c0.4342537-0.1184158,0.85392-0.3106308,1.2313194-0.5817719c0.1629486-0.1118889,0.3311768-0.2512627,0.4827728-0.3795815
		l2.8264122-2.6600914l0.2408066-0.225441l2.8644943-1.8709526l2.6226959-1.7167778l-3.9859848-3.7266159l-2.3788986,2.0890961
		l-0.7811775,0.2245941l-4.8081436,1.3107643l-1.4558296,0.4121361c-0.3717155,0.0873375-0.6329384,0.4226761-0.6307106,0.7928162
		l-0.0122566,0.9078026l-0.5036163,0.2619286c-0.1578522,0.0844536-0.2822495,0.2177391-0.3679237,0.3724518
		c-0.0880661,0.168499-0.1426773,0.3858299-0.0986023,0.6073494C55.5023232,60.8486595,55.9038048,61.1364899,56.3364944,61.1030922
		z"/>
	<path class="st1" d="M64.0532303,55.5406799c0,0,0.3424683,2.9786339,0.6368866,5.4506912l0.2408066-0.225441l2.8644943-1.8709526
		l2.6226959-1.7167778l-3.9859848-3.7266159L64.0532303,55.5406799z"/>
	<path class="st21" d="M103.106987,44.4340553l-0.0000076,0.0000114c-0.2005463,2.5516205-2.0580978,4.6176109-4.3147049,4.7988586
		l-16.2160034,1.3024445l-15.5855713,9.9372673l-3.1324387-6.1650429l15.4091263-11.9460564
		c0.3012238-0.2335281,0.6575394-0.3854942,1.0345917-0.441246l18.0231323-2.6649246
		C101.0670319,38.8499413,103.3514252,41.3239021,103.106987,44.4340553z"/>
	<line class="st4" x1="56.2501259" y1="63.4048576" x2="58.987812" y2="62.6071968"/>
	<line class="st4" x1="56.516098" y1="61.0860825" x2="58.9087448" y2="60.2553444"/>
	<line class="st4" x1="56.5163155" y1="59.0824051" x2="58.3865967" y2="58.8741493"/>
	<line class="st32" x1="102.5817337" y1="69.8559952" x2="115.8475189" y2="51.523262"/>
	<path class="st13" d="M90.0903854,97.9307861c0.0512924,2.131691-0.594368,4.2120895-1.8447723,5.9440765
		c-0.0819397,0.1332397-0.1844025,0.2664719-0.2868576,0.399704L72.3605499,123.808075l-5.4827576-3.4844284l16.0489502-21.6242218
		l-4.9500732-16.0695343l-1.1271744-7.4198532l11.1604233,1.5167465l1.8242569,10.5149002L90.0903854,97.9307861z"/>
	<line class="st32" x1="82.5762711" y1="50.5353699" x2="81.6334763" y2="48.1946602"/>
	<path class="st34" d="M43.4532166,69.1446609c0,0-8.2231331-2.0378494-10.3865433-4.9123306
		c0,0,0.1604385-10.9919472,11.236393-16.6761284l9.6879196,7.0097313
		C53.9909859,54.5659332,44.2362518,57.4826202,43.4532166,69.1446609z"/>
	<path class="st67" d="M43.4532166,69.1446609c0,0-8.2231331-2.0378494-10.3865433-4.9123306
		c0,0,0.1604385-10.9919472,11.236393-16.6761284l9.6879196,7.0097313
		C53.9909859,54.5659332,44.2362518,57.4826202,43.4532166,69.1446609z"/>
	<path class="st68" d="M35.5649643,64.9929962c2.1494026,1.3216019,5.2948647,2.3395233,6.9760551,2.8279495
		c1.0356712-8.2106934,6.4873734-12.0209656,9.3674774-13.4838524l-7.6896019-5.5641518
		c-8.7790527,4.8237114-9.9444466,13.2530975-10.0953636,15.1076889c0.3381844,0.3580551,0.8211975,0.7309952,1.4412155,1.1122284
		C35.5647469,64.9928589,35.5647469,64.9928589,35.5649643,64.9929962z"/>
	
		<ellipse transform="matrix(0.5551269 -0.8317657 0.8317657 0.5551269 -29.6752586 60.2545128)" class="st25" cx="41.4903831" cy="57.868721" rx="2.8712201" ry="2.6546516"/>
	
		<ellipse transform="matrix(0.999799 -0.0200496 0.0200496 0.999799 -1.2566142 0.7932187)" class="st25" cx="38.9305916" cy="63.0656738" rx="1.1299915" ry="1.295518"/>
	
		<ellipse transform="matrix(0.8759432 -0.4824142 0.4824142 0.8759432 -20.0365143 28.5499668)" class="st25" cx="45.4922562" cy="53.2325478" rx="1.3735973" ry="1.1234952"/>
	<text transform="matrix(0.5438001 -0.83922 -0.83922 -0.5438001 39.5487518 58.2157059)" class="st131 st132 st133">$</text>
	<path class="st34" d="M47.0407791,81.6851196c0,0-1.6333694,6.330368-3.8674927,7.978508
		c0,0-8.4808388-0.2051392-12.7851181-8.7940521l5.4808006-7.4238815
		C35.868969,73.445694,38.0474701,80.9945908,47.0407791,81.6851196z"/>
	<path class="st67" d="M47.0407791,81.6851196c0,0-1.6333694,6.330368-3.8674927,7.978508
		c0,0-8.4808388-0.2051392-12.7851181-8.7940521l5.4808006-7.4238815
		C35.868969,73.445694,38.0474701,80.9945908,47.0407791,81.6851196z"/>
	<path class="st68" d="M43.7787399,87.7414322c1.0357361-1.6488266,1.8444977-4.068512,2.2338333-5.3621979
		c-6.3281784-0.8599472-9.2280655-5.0949936-10.335598-7.32827l-4.3505249,5.8925705
		c3.6572914,6.810112,10.1532669,7.7717743,11.5832596,7.9019547c0.278801-0.2583084,0.5701599-0.628273,0.868927-1.1038895
		C43.7786369,87.7416,43.7786369,87.7416,43.7787399,87.7414322z"/>
	
		<ellipse transform="matrix(0.5630773 -0.8264042 0.8264042 0.5630773 -51.9425735 67.9874191)" class="st25" cx="38.3250885" cy="83.1163177" rx="2.0485764" ry="2.2157011"/>
	
		<ellipse transform="matrix(0.9999453 -0.0104614 0.0104614 0.9999453 -0.8882669 0.447349)" class="st25" cx="42.3164177" cy="85.1300583" rx="0.9997424" ry="0.8720067"/>
	
		<ellipse transform="matrix(0.8805289 -0.4739925 0.4739925 0.8805289 -33.7616577 26.0410767)" class="st25" cx="34.7771645" cy="79.9939346" rx="0.8669936" ry="1.0599957"/>
	<text transform="matrix(-0.83396 -0.55182 -0.55182 0.83396 38.4677544 84.6438599)" class="st131 st132 st134">$</text>
	<path class="st34" d="M49.2882538,96.6619339c0,0,4.3364944,4.8924637,7.0760231,5.3426514
		c0,0,7.457386-4.0440216,7.379055-13.650795l-8.2598915-4.1143036
		C55.4834404,84.2394867,56.9809074,91.9524231,49.2882538,96.6619339z"/>
	<path class="st67" d="M49.2882538,96.6619339c0,0,4.3364944,4.8924637,7.0760231,5.3426514
		c0,0,7.457386-4.0440216,7.379055-13.650795l-8.2598915-4.1143036
		C55.4834404,84.2394867,56.9809074,91.9524231,49.2882538,96.6619339z"/>
	<path class="st68" d="M54.9500313,100.5688553c-1.6728706-0.9964294-3.4946365-2.7825317-4.4303017-3.7570801
		c5.2426643-3.6468964,5.8962898-8.7378387,5.8655434-11.2304688l6.5563431,3.2655334
		c-0.1555252,7.7284775-5.5012703,11.5423355-6.7151718,12.3093185c-0.3658371-0.1030426-0.7936859-0.2997742-1.2762451-0.587204
		C54.9501991,100.5689545,54.9501991,100.5689545,54.9500313,100.5688553z"/>
	
		<ellipse transform="matrix(0.4794042 -0.8775942 0.8775942 0.4794042 -52.4274025 99.5562668)" class="st25" cx="57.6997681" cy="93.967865" rx="2.2157011" ry="2.0485764"/>
	
		<ellipse transform="matrix(0.8950495 -0.4459669 0.4459669 0.8950495 -37.7376862 34.7971497)" class="st25" cx="55.063015" cy="97.5780487" rx="0.9997424" ry="0.8720067"/>
	
		<ellipse transform="matrix(0.021102 -0.9997773 0.9997773 0.021102 -31.3698349 147.1060791)" class="st25" cx="59.4369698" cy="89.5725098" rx="1.0599957" ry="0.8669936"/>
	<text transform="matrix(0.49126 -0.87101 0.87101 0.49126 58.2088089 95.3781204)" class="st131 st132 st134">$</text>
	<path class="st49" d="M70.2129059,27.290905c1.7804413,0.4203148,3.716156,0.1422634,5.3062973-0.7622147"/>
	<path class="st49" d="M75.6401672,26.4065228c0.6511765-1.7797184,1.3441696-3.6250973,2.7104263-4.9384022
		c0.6073837-0.5838413,1.4004898-1.0608482,2.2405243-0.9965916c0.2272873,0.0173855,0.4718246,0.0880814,0.5997772,0.2767429
		c0.1047134,0.1544056,0.1088562,0.3558216,0.0826035,0.5405312c-0.0596161,0.4194031-0.2538147,0.8077145-0.4746857,1.1691933
		c-0.6890869,1.127739-1.6702652,2.0752926-2.8213348,2.7246532c-0.7700195,0.4343948-1.6148376,0.7384815-2.3378296,1.2473087
		c0.8782501-0.6143303,1.9814148-0.7815971,3.0348129-0.9792595c1.0945129-0.2053757,2.1956635-0.4623184,3.3075638-0.4006691
		c0.7121735,0.0394878,1.5054169,0.2780418,1.8203964,0.9179935c0.1777267,0.3610725,0.1657639,0.795475,0.0325394,1.1752243
		c-0.1332245,0.3797474-0.3780518,0.7110653-0.6519394,1.0059299c-0.2867889,0.3087578-0.6129456,0.5869484-0.9899673,0.7751999
		c-0.4199753,0.2097054-0.889679,0.3013725-1.3572159,0.3434582c-1.4550018,0.1309757-2.9487991-0.2107868-4.2021103-0.9613914
		c-0.5718307-0.3424683-1.1220932-0.8078232-1.3114929-1.4468842"/>
</g>
</svg>
