<?xml version="1.0" encoding="utf-8"?>
<!-- Generator: Adobe Illustrator 22.0.1, SVG Export Plug-In . SVG Version: 6.00 Build 0)  -->
<svg version="1.1" id="Layer_1" xmlns="http://www.w3.org/2000/svg" xmlns:xlink="http://www.w3.org/1999/xlink" x="0px" y="0px"
	 viewBox="0 0 156 156" style="enable-background:new 0 0 156 156;" xml:space="preserve">
<style type="text/css">
	.st0{fill:#FFD9B2;}
	.st1{fill:#F7AC76;}
	.st2{fill:none;stroke:#3643C3;stroke-width:0.5;stroke-linecap:round;stroke-linejoin:round;stroke-miterlimit:10;}
	.st3{fill:#233764;}
	.st4{fill:none;stroke:#F7AC76;stroke-width:0.5;stroke-linecap:round;stroke-linejoin:round;stroke-miterlimit:10;}
	.st5{fill:#161718;}
	.st6{fill:#FFFFFF;}
	.st7{fill:#F06449;}
	.st8{fill:#BE412D;}
	.st9{fill:#FE8E60;}
	.st10{fill:#7D4C47;}
	.st11{fill:#4456D6;}
	.st12{fill:#203881;}
	.st13{fill:#6582FC;}
	.st14{fill:#DDA103;}
	.st15{fill:#FBC32E;}
	.st16{fill:none;stroke:#DDA103;stroke-width:0.5;stroke-miterlimit:10;}
	.st17{fill:#FBE6BB;}
	.st18{fill:none;stroke:#BE412D;stroke-width:0.5;stroke-linecap:round;stroke-linejoin:round;stroke-miterlimit:10;}
	.st19{fill:none;stroke:#F06449;stroke-width:0.5;stroke-linecap:round;stroke-linejoin:round;stroke-miterlimit:10;}
	.st20{fill:#F34B4B;}
	.st21{fill:#FC7070;}
	.st22{fill:none;stroke:#FFFFFF;stroke-miterlimit:10;}
	.st23{fill:#FC9F9F;}
	.st24{fill:#408A6F;}
	.st25{fill:#64B48D;}
	.st26{fill:none;stroke:#FBE6BB;stroke-width:0.5;stroke-linecap:round;stroke-linejoin:round;stroke-miterlimit:10;}
	.st27{fill:none;stroke:#F7AC76;stroke-width:0.25;stroke-linecap:round;stroke-linejoin:round;stroke-miterlimit:10;}
	.st28{fill:#A0665A;}
	.st29{fill:#6C3F44;}
	.st30{fill:none;stroke:#6C3F44;stroke-width:0.5;stroke-linecap:round;stroke-linejoin:round;stroke-miterlimit:10;}
	.st31{fill:none;stroke:#7D4C47;stroke-width:0.5;stroke-linecap:round;stroke-linejoin:round;stroke-miterlimit:10;}
	.st32{fill:none;stroke:#F34B4B;stroke-width:0.5;stroke-linecap:round;stroke-linejoin:round;stroke-miterlimit:10;}
	.st33{fill:none;stroke:#FC7070;stroke-width:0.5;stroke-linecap:round;stroke-linejoin:round;stroke-miterlimit:10;}
	.st34{fill:#EAE8F3;}
	.st35{fill:#40304A;}
	.st36{fill:none;stroke:#43334E;stroke-linecap:round;stroke-linejoin:round;stroke-miterlimit:10;}
	.st37{fill:#32775B;}
	.st38{fill:none;stroke:#233764;stroke-width:0.5;stroke-linecap:round;stroke-linejoin:round;stroke-miterlimit:10;}
	.st39{fill:none;stroke:#408A6F;stroke-width:0.5;stroke-linecap:round;stroke-linejoin:round;stroke-miterlimit:10;}
	.st40{fill:#3643C3;}
	.st41{opacity:0.56;fill:url(#SVGID_1_);}
	.st42{opacity:0.52;fill:#FBC32E;}
	.st43{opacity:0.56;fill:url(#SVGID_2_);}
	.st44{fill:none;stroke:#EAE8F3;stroke-width:0.5;stroke-linecap:round;stroke-linejoin:round;stroke-miterlimit:10;}
	.st45{fill:#FEFFFD;}
	.st46{opacity:0.35;fill:#32775B;}
	.st47{fill:#43334E;}
	.st48{fill:none;stroke:#EAE8F3;stroke-width:0.25;stroke-linecap:round;stroke-linejoin:round;stroke-miterlimit:10;}
	.st49{fill:none;stroke:#FBC32E;stroke-width:0.5;stroke-linecap:round;stroke-linejoin:round;stroke-miterlimit:10;}
	.st50{fill:none;stroke:#161718;stroke-width:0.5;stroke-linecap:round;stroke-linejoin:round;stroke-miterlimit:10;}
	.st51{fill:none;stroke:#40304A;stroke-linecap:round;stroke-linejoin:round;stroke-miterlimit:10;}
	.st52{opacity:0.33;fill:#FBC32E;}
	.st53{fill:#A6A3AE;}
	.st54{fill:#5B4B68;}
	.st55{fill:#776688;}
	.st56{fill:none;stroke:#FBC32E;stroke-width:0.5;stroke-miterlimit:10;}
	.st57{fill:none;stroke:#EAE8F3;stroke-linecap:round;stroke-linejoin:round;stroke-miterlimit:10;}
	.st58{fill:none;stroke:#203881;stroke-width:2;stroke-linecap:round;stroke-linejoin:round;stroke-miterlimit:10;}
	.st59{fill:none;stroke:#40304A;stroke-width:2;stroke-linecap:round;stroke-linejoin:round;stroke-miterlimit:10;}
	.st60{fill:#FFD8B7;}
	.st61{fill:#F4E4D4;}
	.st62{fill:none;stroke:#4456D6;stroke-width:0.5;stroke-linecap:round;stroke-linejoin:round;stroke-miterlimit:10;}
	.st63{fill:none;stroke:#DDA103;stroke-width:0.25;stroke-miterlimit:10;}
	.st64{fill:none;stroke:#FFFFFF;stroke-width:0.5;stroke-linecap:round;stroke-linejoin:round;stroke-miterlimit:10;}
	.st65{fill:none;stroke:#64B48D;stroke-width:0.5;stroke-linecap:round;stroke-linejoin:round;stroke-miterlimit:10;}
	.st66{fill:none;stroke:#64B48D;stroke-linecap:round;stroke-linejoin:round;stroke-miterlimit:10;}
	.st67{opacity:0.48;fill:#64B48D;}
	.st68{fill:none;stroke:#64B48D;stroke-width:0.25;stroke-linecap:round;stroke-linejoin:round;stroke-miterlimit:10;}
	.st69{fill:none;stroke:#F06449;stroke-width:2;stroke-linecap:round;stroke-linejoin:round;stroke-miterlimit:10;}
	.st70{opacity:0.92;fill:#64B48D;}
	.st71{opacity:0.57;fill:#408A6F;}
	.st72{opacity:0.36;fill:#408A6F;}
	.st73{fill:none;stroke:#BE412D;stroke-width:2;stroke-linecap:round;stroke-linejoin:round;stroke-miterlimit:10;}
	.st74{opacity:0.65;fill:none;stroke:#408A6F;stroke-width:0.25;stroke-linecap:round;stroke-linejoin:round;stroke-miterlimit:10;}
	.st75{opacity:0.67;fill:none;stroke:#64B48D;stroke-width:0.25;stroke-linecap:round;stroke-linejoin:round;stroke-miterlimit:10;}
	.st76{opacity:0.98;fill:#64B48D;}
	.st77{fill:none;stroke:#408A6F;stroke-width:0.25;stroke-linecap:round;stroke-linejoin:round;stroke-miterlimit:10;}
	.st78{fill:none;stroke:#FFD9B2;stroke-width:0.5;stroke-linecap:round;stroke-linejoin:round;}
	
		.st79{fill:none;stroke:#FFD9B2;stroke-width:0.5;stroke-linecap:round;stroke-linejoin:round;stroke-dasharray:4.0333505,4.0333505;}
	.st80{fill:#E68B4A;}
	.st81{opacity:0.62;fill:#64B48D;}
	.st82{fill:none;stroke:#FBC32E;stroke-width:0.25;stroke-miterlimit:10;}
	.st83{fill:none;stroke:#4456D6;stroke-linecap:round;stroke-linejoin:round;stroke-miterlimit:10;}
	.st84{fill:none;stroke:#E68B4A;stroke-width:0.5;stroke-linecap:round;stroke-linejoin:round;stroke-miterlimit:10;}
	.st85{fill:none;stroke:#203881;stroke-width:0.5;stroke-linecap:round;stroke-linejoin:round;stroke-miterlimit:10;}
	.st86{opacity:0.29;fill:#EAE8F3;}
	.st87{fill:none;stroke:#A6A3AE;stroke-width:0.5;stroke-linecap:round;stroke-linejoin:round;stroke-miterlimit:10;}
	.st88{opacity:0.74;fill:#FFFFFF;}
	.st89{opacity:0.19;fill:#FFFFFF;}
	.st90{fill:none;stroke:#40304A;stroke-width:0.25;stroke-linecap:round;stroke-linejoin:round;stroke-miterlimit:10;}
	.st91{fill:none;stroke:#F34B4B;stroke-width:2;stroke-linecap:round;stroke-linejoin:round;stroke-miterlimit:10;}
	.st92{fill:none;stroke:#43334E;stroke-width:0.5;stroke-linecap:round;stroke-linejoin:round;stroke-miterlimit:10;}
	.st93{fill:none;stroke:#6582FC;stroke-miterlimit:10;}
	.st94{opacity:0.47;fill:#A6A3AE;}
	.st95{opacity:0.43;fill:#FFFFFF;}
	.st96{fill:none;stroke:#FBE6BB;stroke-linecap:round;stroke-linejoin:round;stroke-miterlimit:10;}
	.st97{fill:none;stroke:#5B4B68;stroke-width:0.5;stroke-linecap:round;stroke-linejoin:round;stroke-miterlimit:10;}
	.st98{fill:none;stroke:#40304A;stroke-width:0.5;stroke-linecap:round;stroke-linejoin:round;stroke-miterlimit:10;}
	.st99{fill:none;stroke:#DDA103;stroke-linecap:round;stroke-linejoin:round;stroke-miterlimit:10;}
	.st100{fill:none;stroke:#FBC32E;stroke-linecap:round;stroke-linejoin:round;stroke-miterlimit:10;}
	.st101{fill:none;stroke:#32775B;stroke-width:0.5;stroke-linecap:round;stroke-linejoin:round;stroke-miterlimit:10;}
	.st102{opacity:0.4;fill:#FBE6BB;}
	.st103{fill:none;stroke:#FBC32E;stroke-width:0.25;stroke-linecap:round;stroke-linejoin:round;stroke-miterlimit:10;}
	.st104{fill:none;stroke:#4456D6;stroke-miterlimit:10;}
	.st105{opacity:0.61;fill:#64B48D;}
	.st106{opacity:0.9;fill:#64B48D;}
	.st107{opacity:0.76;fill:#64B48D;}
	.st108{fill:none;stroke:#5B4B68;stroke-width:0.5;stroke-miterlimit:10;}
	.st109{opacity:0.66;fill:#A6A3AE;}
	.st110{fill:none;stroke:#43334E;stroke-miterlimit:10;}
	.st111{opacity:0.52;fill:#6582FC;}
	.st112{fill:none;stroke:#DDA103;stroke-width:0.5;stroke-linecap:round;stroke-linejoin:round;stroke-miterlimit:10;}
	.st113{fill:#46724E;}
	.st114{fill:#FE8B2E;}
	.st115{fill:none;stroke:#7D4C47;stroke-width:2;stroke-linecap:round;stroke-linejoin:round;stroke-miterlimit:10;}
	.st116{opacity:0.4;fill:#EAE8F3;}
	.st117{fill:none;stroke:#EAE8F3;stroke-width:0.5;stroke-linecap:round;stroke-miterlimit:10;}
	.st118{fill:none;stroke:#4456D6;stroke-width:0.25;stroke-linecap:round;stroke-linejoin:round;stroke-miterlimit:10;}
	.st119{opacity:0.5;fill:#EAE8F3;}
	.st120{opacity:0.46;fill:#A6A3AE;}
	.st121{fill:#E0916E;}
	.st122{fill:none;stroke:#A0665A;stroke-linecap:round;stroke-linejoin:round;stroke-miterlimit:10;}
	.st123{opacity:0.46;fill:#BE412D;}
	.st124{fill:none;stroke:#203881;stroke-linecap:round;stroke-linejoin:round;stroke-miterlimit:10;}
	.st125{fill:#DBDBE1;}
	.st126{fill:none;stroke:#6582FC;stroke-width:0.5;stroke-linecap:round;stroke-linejoin:round;stroke-miterlimit:10;}
	.st127{opacity:0.53;fill:#A6A3AE;}
	.st128{fill:none;stroke:#DDA103;stroke-miterlimit:10;}
	.st129{opacity:0.2;fill:#FFFFFF;}
	.st130{fill:#B4A1BF;}
	.st131{opacity:0.5;fill:#6582FC;}
	.st132{opacity:0.6;fill:none;stroke:#FFFFFF;stroke-linecap:round;stroke-linejoin:round;stroke-miterlimit:10;}
	.st133{opacity:0.6;fill:none;stroke:#FFFFFF;stroke-width:2;stroke-linecap:round;stroke-linejoin:round;stroke-miterlimit:10;}
	.st134{opacity:0.54;fill:#A6A3AE;}
	.st135{fill:#161718;stroke:#000000;stroke-width:0.25;stroke-miterlimit:10;}
</style>
<g id="_x31_6">
	<g>
		<g>
			<rect x="53.2343559" y="68.7048264" class="st11" width="6.976316" height="49.0013657"/>
			<polygon class="st13" points="60.2106705,92.6534271 60.2106705,117.706192 53.2343559,117.706192 53.2343559,91.616188 
				58.9893837,87.2580795 			"/>
			<polygon class="st40" points="60.2106705,90.654213 60.2106705,117.706192 58.0776405,117.706192 57.7597733,89.4329758 			"/>
			<rect x="50.3317719" y="68.7048264" class="st40" width="2.9025819" height="49.0013657"/>
			<rect x="38.0605392" y="82.6239624" class="st11" width="6.976265" height="35.0822258"/>
			<polygon class="st13" points="38.0605392,102.8083801 45.0368042,97.6639709 45.0368042,117.706192 35.1662788,117.706192 
				35.1662788,104.9414063 			"/>
			<rect x="35.1662788" y="82.6239624" class="st40" width="2.8942602" height="35.0822258"/>
			<rect x="21.8076191" y="97.0951614" class="st11" width="6.976265" height="20.6110287"/>
			<polygon class="st13" points="21.8076191,114.7952347 28.783884,109.6508255 28.783884,117.706192 18.9049873,117.706192 
				18.9049873,116.9366379 			"/>
			<rect x="18.9049873" y="97.0951614" class="st40" width="2.9026332" height="20.6110287"/>
			<polygon class="st11" points="21.8076191,114.7952347 21.8076191,117.706192 18.9049873,117.706192 18.9049873,116.9366379 			
				"/>
			<path class="st7" d="M104.6812134,77.9590836l-0.5543671,1.1449966l-4.3991928,9.1478043l-0.2048721,0.421875
				c-1.3378067,2.7720566-4.3629913,4.4232483-7.3640518,3.7845001c-0.4580002-0.0964355-0.8316269-0.241066-1.1088791-0.4098129
				c-0.0843048-0.0602493-0.1566925-0.1325607-0.2290039-0.2048721C87.2533569,87.7577591,80.226738,78.525589,80.226738,78.525589
				c0-0.0120697-0.0120621-0.0120697-0.0120621-0.0241318c-1.3016205-1.8440628-0.8556824-4.3871231,0.9762497-5.7008057
				c0.7713699-0.5423737,1.5788727-0.6388168,2.3381805-0.4098129c1.0606232,0.2771835,2.0730667,1.1329346,2.8323822,2.1935577
				l0.5905609,0.8195648L94.23172,85.5642014l8.9682083-14.6482544L104.6812134,77.9590836z"/>
			<polyline class="st11" points="88.5824966,94.9806213 81.4380417,97.2543564 81.9235764,99.4392548 			"/>
			<polygon class="st0" points="106.1783829,130.7731628 100.6448212,131.6351776 99.1802521,126.4723358 99.1802521,126.4630585 
				98.3461304,122.6071777 104.4913635,123.2374649 105.0104828,125.5639954 			"/>
			<path class="st1" d="M99.1802521,126.4723358v-0.0092773l-0.8341217-3.8558807l6.1452332,0.6302872l0.5191193,2.3265305
				C105.0104828,125.5639954,101.599556,126.1386642,99.1802521,126.4723358z"/>
			<path class="st0" d="M125.6247177,117.6019058l-1.112236,6.6551285c0,0-1.547966-0.9083481-3.2255936-1.8908539
				c-1.677742-0.9917908-3.4851456-2.0484695-4.0320969-2.3728638c-0.1019516-0.064888-0.1575012-0.09272-0.1667786-0.101944
				c-0.0185623-0.0092773,0.0556641-0.1946716,0.1853333-0.4820023c0.268837-0.5932312,0.7693939-1.6313553,1.2421265-2.6045914
				c0.5745544-1.1864548,1.1122284-2.2616348,1.1122284-2.2616348l1.0751266,0.7600632l1.575798,1.1122971l1.21418,0.8527298
				C123.4928055,117.2682343,125.5413284,117.6575165,125.6247177,117.6019058z"/>
			<path class="st1" d="M122.2786255,116.4155045c0,0-0.5468445,3.6704788-0.9917374,5.950676
				c-1.677742-0.9917908-3.4851456-2.0484695-4.0320969-2.3728638c0-0.194664,0.0092773-0.3985596,0.0185547-0.5839462
				c0.0463867-0.6117859,0.1483307-1.1679077,0.3429489-1.5479126c0.1761703-0.3429413,0.5098343-0.7044525,0.8991776-1.0566788
				c0.6766129-0.6025009,1.5478439-1.1679001,2.187355-1.5015717L122.2786255,116.4155045z"/>
			<path class="st35" d="M139.0848999,123.4009857c0.0200195-0.9034729-0.2763519-1.8663635-0.8908997-2.5175781
				c-0.161026-0.1672516-0.3502045-0.3212051-0.5570831-0.4455872c-0.5882111-0.3435822-1.2816772-0.4285507-1.9618073-0.5355911
				c-1.9752655-0.3123016-3.9311523-0.8242493-5.8144379-1.5239258c-0.9061432-0.3335037-1.7974548-0.7084427-2.7244034-0.9739456
				c-0.6282654-0.1765671-1.6260834-0.5752487-2.2002945-0.055275c-0.6985016,0.6264038-1.2702332,1.6609879-1.4278564,2.5924377
				c-0.2006226,1.1369781,0.1102829,2.3601303,0.8370056,3.2598724c-1.2924194,0.0076675-2.4940643-0.6041412-3.6469498-1.19664
				c0.2504501,1.0560074,0.5674133,2.1017838,0.956871,3.1106339c0.005928,0.0236435,0.0192261,0.0517807,0.0250778,0.0754395
				c0.4750595,1.2514114,1.6044235,1.6487503,2.884964,1.6942368c0.9064178,0.0318527,1.8100357-0.0989151,2.7105103-0.0404282
				c1.2701492,0.0795288,2.4882584,0.5301514,3.7182388,0.8772736c2.1953278,0.6156769,4.9486847,0.6713867,6.6833038-1.0423508
				C138.5444183,125.82267,139.0630493,124.6253662,139.0848999,123.4009857z"/>
			<path class="st10" d="M138.4765472,122.4215317c0.0092773-0.5175323-0.0803986-1.0544128-0.282547-1.5381241
				c-0.161026-0.1672516-0.3502045-0.3212051-0.5570831-0.4455872c-0.5882111-0.3435822-1.2816772-0.4285507-1.9618073-0.5355911
				c-1.9752655-0.3123016-3.9311523-0.8242493-5.8144379-1.5239258c-0.9061432-0.3335037-1.7974548-0.7084427-2.7244034-0.9739456
				c-0.6282654-0.1765671-1.6260834-0.5752487-2.2002945-0.055275c-0.6985016,0.6264038-1.2702332,1.6609879-1.4278564,2.5924377
				c-0.2006226,1.1369781,0.1102829,2.3601303,0.8370056,3.2598724c-1.2924194,0.0076675-2.4940643-0.6041412-3.6469498-1.19664
				c0.2504501,1.0560074,0.5674133,2.1017838,0.956871,3.1106339c0.5762482,0.5476227,1.3997116,0.7509689,2.3016815,0.7902222
				c0.8990707,0.0274353,1.8026886-0.1033401,2.7031631-0.0448456c1.2775726,0.0839233,2.4956131,0.5345688,3.7255936,0.881691
				c2.195343,0.6156387,4.9412842,0.6669388,6.6833038-1.0423508
				C137.9360657,124.8432159,138.4517365,123.6340637,138.4765472,122.4215317z"/>
			<path class="st30" d="M125.9573212,123.5987244c-0.5346451,0.0113297-1.0716324-0.1148529-1.5452805-0.3631134"/>
			<path class="st35" d="M110.8291626,140.7604675c0.6688538-0.6076965,1.1628952-1.4857178,1.2118225-2.3797913
				c0.0103683-0.2319336-0.0082855-0.4751282-0.060585-0.7107849c-0.155983-0.6631165-0.5719604-1.2244263-0.9627457-1.791275
				c-1.1339188-1.6472473-2.109726-3.4179382-2.8994293-5.2652893c-0.3822479-0.8866882-0.7242432-1.791153-1.1701202-2.6460953
				c-0.304657-0.5771255-0.7027817-1.5751648-1.4752502-1.6334c-0.9352264-0.0750504-2.0790939,0.2229233-2.8630066,0.7501297
				c-0.962532,0.637558-1.6352692,1.7053604-1.7871399,2.8519211c-0.8956451-0.9317932-1.2796097-2.2244034-1.6439972-3.4683609
				c-0.5931854,0.9088593-1.1331329,1.8588943-1.5963898,2.8360519c-0.0130615,0.0205841-0.0242996,0.0496063-0.0374222,0.0701447
				c-0.5801773,1.2062836-0.090477,2.2987671,0.7584381,3.2585602c0.6011429,0.6791382,1.3182755,1.2442474,1.896019,1.9374237
				c0.8170853,0.9756927,1.3292542,2.1692352,1.9246597,3.3000946c1.0654984,2.0157471,2.9213257,4.0504456,5.3584976,4.1278839
				C108.7010956,142.0363922,109.9263763,141.5878448,110.8291626,140.7604675z"/>
			<path class="st10" d="M111.1203537,139.6448364c0.3816299-0.3497009,0.709137-0.7844543,0.9206314-1.2641602
				c0.0103683-0.2319336-0.0082855-0.4751282-0.060585-0.7107849c-0.155983-0.6631165-0.5719604-1.2244263-0.9627457-1.791275
				c-1.1339188-1.6472473-2.109726-3.4179382-2.8994293-5.2652893c-0.3822479-0.8866882-0.7242432-1.791153-1.1701202-2.6460953
				c-0.304657-0.5771255-0.7027817-1.5751648-1.4752502-1.6334c-0.9352264-0.0750504-2.0790939,0.2229233-2.8630066,0.7501297
				c-0.962532,0.637558-1.6352692,1.7053604-1.7871399,2.8519211c-0.8956451-0.9317932-1.2796097-2.2244034-1.6439972-3.4683609
				c-0.5931854,0.9088593-1.1331329,1.8588943-1.5963898,2.8360519c-0.0001984,0.7949677,0.4194794,1.5320587,1.0121994,2.2130737
				c0.5992889,0.6707611,1.3164215,1.2358704,1.894165,1.9290466c0.8190002,0.9841156,1.3311081,2.1776123,1.9265137,3.3084717
				c1.0655518,2.0157318,2.9194565,4.0420074,5.3584976,4.1278839
				C108.9922791,140.9207458,110.2241135,140.4619141,111.1203537,139.6448364z"/>
			<path class="st30" d="M100.8439789,130.0079651c0.1462021,0.514389,0.42453,0.9906311,0.8009491,1.3704834"/>
			<path class="st5" d="M85.5582275,52.0722542c0.9779205,2.774662,1.7082291,5.9324226,0.6895752,8.7963982
				c-0.4296036,1.20784-1.0997009,2.3199501-1.8806381,3.3365936c-0.9403,1.2240906-2.150032,2.3764954-3.6708603,2.6403656
				c-1.2345886,0.2142029-2.5005951-0.1941605-3.6036606-0.7885742c-1.9434204-1.0472641-3.5565796-2.6972122-4.5597458-4.6637573"
				/>
			<path class="st3" d="M86.6369476,52.5523643c-0.1357193,0.1989975-0.46138,0.7689362-0.705658,0.8413239
				c-0.352829,0.1085548-0.7056046,0.2171097-1.0493774,0.3437767c-0.0904999,0.018055-0.1809464,0.0452194-0.2713852,0.0723305
				c-0.0181122,0.0090561-0.0452805,0.0090561-0.0814438,0.0181122c-0.7961044,0.2533302-1.601265,0.5066071-2.3973694,0.7599373
				c-1.004158,0.3166084-1.9992599,0.6965485-3.0215225,0.9498787c-0.4342194,0.1085548-0.9679947,0.0994987-1.356987,0.3256645
				c-0.1537781,0.0994987-0.7418289,1.103653-0.6151581,1.085598c0.3527679-0.0452194,0.7237091-0.0090523,1.0765381,0.126667
				c0.2171097,0.0813866-0.2804413,2.1620903-0.316658,2.4335289c-0.1176147,0.8141594-0.0452271,1.628376-0.2171097,2.4515877
				c-0.3075562,1.5650406-0.9951019,3.0758591-2.1168671,4.2428513c-1.610321,1.6826477-4.2066803,2.4878082-6.3778839,1.709816
				c-0.1537781-0.0452271-0.3075485-0.1085587-0.4613266-0.1809464c-0.8684921-0.4071045-1.6464844-1.1217651-1.8274231-2.0535889
				c-0.1537781-0.8051071,0.1628265-1.6374283,0.6966019-2.2525902c0.5337143-0.6061058,1.2664871-1.0132103,2.0264206-1.3117638
				c-0.7599335,0.2894974-1.6827011,0.1899986-2.2978668-0.3437195c-0.6151581-0.5337715-0.8232117-1.5108185-0.4070511-2.2073669
				c0.1989975-0.3257179,0.5156097-0.5789948,0.8503265-0.7871017c0.1266632-0.0813904,2.1169205-0.9498825,2.1169205-1.0403252
				c-0.0181046-0.0271645-0.0361633-0.0542755-0.0452194-0.0814438c-0.7870483-1.3117104-1.1579895-2.8586922-1.0584335-4.3785095
				c0.1175537-1.628376,0.8322678-3.9624062,2.3702011-4.7946777c0.5427704-0.2985497,1.3298187-0.2533302,1.7007599,0.2532768
				c-0.0090561-0.6694374,0.5879898-1.2845993,1.257431-1.2845993c0.5066071,0,0.9589386,0.2985535,1.4293747,0.497551
				c1.854538,0.8232155,3.9895172,0.1809425,6.0249939,0.1537781c1.2937088-0.018055,2.605423,0.226162,3.8086319,0.7147141
				c0.7779922,0.3166084,1.7188721,0.9136581,1.8635941,1.8273697
				C87.3425522,51.3219872,87.0078354,52.0095367,86.6369476,52.5523643z"/>
			<path class="st113" d="M73.1586609,98.2790146c-0.0188065,0.027565-0.0312195,0.0634689-0.0500183,0.0909882
				l-0.5997849-0.1793137C72.5088577,98.1906891,73.3937454,97.8220978,73.1586609,98.2790146z"/>
			<path class="st0" d="M85.4712067,56.2220535l-0.9114456,5.1334c-0.128006,0.7227211-0.3529358,1.4154205-0.6596909,2.0781212
				c-0.3069305,0.6627464-0.6956635,1.2806282-1.1587372,1.8536491c-0.5527725,0.6697006-1.2989349,1.1303787-2.1117249,1.3151703
				c-0.0819092,0.0147705-0.1640015,0.0295334-0.2309875,0.044281l-1.5063324,8.359436l-6.0425339-1.0175552l0.790947-4.4329987
				l0.3841476-2.1457367l0.6778183-3.7848549c-0.1934433-0.1792259-0.3272934-0.3136292-0.3719406-0.3733482
				c-0.2155914-0.3059578-0.3639679-0.6490898-0.4677582-0.9995995c-0.1555099-0.5145493-0.1843262-1.0586586-0.0788879-1.5875931
				l0.1206131-0.6630974l0.0751801-0.4023476l0.7004929-3.9412918l0.8512726-4.7757416l8.2402496,1.386837
				c0.6253281,0.418541,1.0418243,0.9037895,1.3093109,1.3812943
				C85.8091354,54.9482574,85.4712067,56.2220535,85.4712067,56.2220535z"/>
			<path class="st1" d="M73.9069901,59.9992065c0.2648087-0.1480408,0.458519-0.3950005,0.5202026-0.7013855l0.5037766-2.7988548
				c0.0515137-0.3165474-0.0497437-0.6234779-0.2527618-0.8414764L73.9069901,59.9992065z"/>
			<path class="st7" d="M84.7029572,86.655838c-0.7360611,0.9368591-1.6478577,1.4805908-2.0493546,1.7064133
				c-0.1505585,0.0669327-0.2342377,0.0919952-0.2342377,0.0919952l-0.0585632,1.8319092l-0.1756287,5.6462784l-2.3254547,5.2113419
				l-10.5898895-2.8022537l-0.9117889-0.2425613l-2.3505249-0.6273651
				c-1.5224152-4.8014221-2.9444504-11.183815-3.2037582-16.6209793c-0.1923752-4.1656799,0.2844276-7.7626114,1.8988419-9.6447067
				c0.5018692-0.5938721,1.1041641-1.0037384,1.8570251-1.2296066l6.9930115,0.1087418c0,0,0.9452286,2.97789,1.7147827,3.697258
				c0.0753098,0.0585556,0.142189,0.1003723,0.1840057,0.167305c2.7102585,2.2166595,3.9649887-2.0075836,3.9649887-2.0075836
				l1.338356,1.9992142l1.9573975,2.9360733l2.3923416,3.5718079c0.0585556,0.1254425,0.1003723,0.2341919,0.1421814,0.3429413
				C86.3090439,83.535759,85.6481857,85.4345474,84.7029572,86.655838z"/>
			<path class="st8" d="M75.8278503,91.164505c0,0-3.6638107,4.4333649-6.5580215,7.1770172l-0.9117889-0.2425613
				l-2.3505249-0.6273651c-1.5224152-4.8014221-2.9444504-11.183815-3.2037582-16.6209793l3.4045029-0.4266129
				c0,0,1.1263657-1.520874,2.0771866-2.7844086c0.2702332-0.3591156,0.8370972-0.0779877,0.7099304,0.3530807
				c-0.965004,3.271019-2.787117,9.3657761-2.787117,9.3657761L75.8278503,91.164505z"/>
			<path class="st9" d="M77.8363571,77.2212677c0,0-4.602478,7.1727524-2.3559875,12.7052078l-7.7651672-2.8112106
				l1.4053879-5.3596725L77.8363571,77.2212677z"/>
			<polygon class="st24" points="82.7583771,99.5132065 80.5148392,99.5222092 67.2343063,99.5584335 65.7690964,99.5584335 
				66.004097,97.4686737 67.9128036,97.2967911 76.2808838,96.4916306 77.2491531,96.4011841 82.1885452,95.930748 
				82.5503235,98.2738342 			"/>
			<path class="st24" d="M107.3633881,98.5422668l-0.0418167,1.3802261l-0.0418167,1.2714691l-0.025116,0.8113708
				l-0.4014969,12.547287l-0.1254959,3.5634384l-0.2341843,7.561821l-8.9922256-0.7109909l-1.2463608-10.9998169
				l-1.0121613-8.9754791l-0.0501938-0.5269852c0,0-5.9055862-6.1983414-6.8424454-6.0477829l2.3755875-3.454689
				l4.5504913-1.1292343l1.0791016-0.2676849l3.7223206-0.9117889c0.4349899-0.1087494,0.8448563-0.1673126,1.2464066-0.1840057
				C104.6197357,92.360672,107.4805069,95.0792542,107.3633881,98.5422668z"/>
			<path class="st25" d="M107.3633881,98.5422668l-0.0418167,1.3802261l-0.0418167,1.2714691l-0.4684296,0.8281174
				c-2.8939514-3.0621033-6.9487991-5.7184982-11.5351715-8.1891785l1.0791016-0.2676849l3.7223206-0.9117889
				c0.4349899-0.1087494,0.8448563-0.1673126,1.2464066-0.1840057
				C104.6197357,92.360672,107.4805069,95.0792542,107.3633881,98.5422668z"/>
			<path class="st37" d="M106.8524628,114.5485306l-0.1205063,3.5685425l-10.4740067-4.1524887l-1.0102844-8.9723816
				c2.2430191,0.1390533,4.374939,0.2594986,4.7827148,0.2038879
				C100.5680542,105.1219788,104.1365967,110.4053192,106.8524628,114.5485306z"/>
			<path class="st1" d="M80.1753616,67.8500519l0.2148666-1.2024155c-0.0740738,0.2869797-3.1367798-1.336731-3.4752197-1.6787109
				c-0.1998901-0.0877228-0.3623352,0.1761856-0.1883926,0.3060608
				C77.5544739,66.4104919,78.6893845,67.2814865,80.1753616,67.8500519z"/>
			<path class="st4" d="M81.6638794,59.8904991l0.5070648,0.8878479c0.1325302,0.232048,0.0440674,0.5246544-0.1965103,0.650013
				l-0.645462,0.3363304"/>
			<path class="st3" d="M74.3336945,56.5191498c1.59375-0.4254112,3.1875-0.8508224,4.78125-1.2762337
				c1.1910858-0.3179321,2.382164-0.6358604,3.5732498-0.9537926c0.4605637-0.1229362,0.9211273-0.2458725,1.381691-0.3688087
				c0.2603455-0.0694885,0.6756744-0.1017838,0.9066467-0.2402039c0.39077-0.2341881,0.1202621-1.0872879-0.0197906-1.4507256
				c-0.2073441-0.5380478-0.5710526-1.0217361-1.0515213-1.35886c-0.3909607-0.2743263-0.843277-0.4534264-1.2980728-0.6089859
				c-1.5360718-0.5254097-3.1586151-0.8108864-4.7865753-0.8421745c-0.721489-0.0138626-1.4586639,0.0247345-2.1320877,0.2768478
				c-0.6734238,0.2521095-1.2809372,0.7468681-1.5104904,1.4121094c-0.1960144,0.5680504-0.1011276,1.1920319,0.0628128,1.7696495
				c0.2089844,0.7363625,0.5605469,1.4357605,0.3978043,2.2018929
				C74.5367126,55.5595741,74.4353333,56.0393906,74.3336945,56.5191498z"/>
			<path class="st0" d="M74.9840622,56.2408371l-0.4997787,2.7968597c-0.0982742,0.5499306-0.6358643,0.9178581-1.201416,0.8222427
				c-0.5655441-0.0956116-0.9439697-0.6184006-0.8457031-1.1683311l0.4997787-2.7968597
				c0.0491333-0.2749634,0.2081299-0.5034218,0.4251709-0.6526337c0.2177048-0.1483231,0.4933243-0.2166214,0.7760925-0.1688156
				C74.7037582,55.168911,75.0821915,55.6917038,74.9840622,56.2408371z"/>
			<path class="st1" d="M73.4830551,55.8985558l-0.1447678,0.9391823l0.8234406,0.5303993l0.2066269-1.3404617
				c0.0361862-0.2347984-0.1348419-0.4597626-0.3763046-0.4949799
				C73.7505798,55.4974785,73.519249,55.6637573,73.4830551,55.8985558z"/>
			<path class="st1" d="M74.0199814,58.287735l-0.8310242-0.4811935l-0.1357117,0.8804245
				c-0.0361938,0.2347946,0.1348343,0.4597626,0.376297,0.4949799c0.2414703,0.0352173,0.4728088-0.1310654,0.5089951-0.36586
				L74.0199814,58.287735z"/>
			<path class="st5" d="M81.0465775,62.8638878c-0.0149231-0.0225792-0.0328598-0.0455627-0.050766-0.0685272
				c-0.4595642-0.5864334-1.3631668-0.5338669-1.9925766-0.3211479l-0.0007095,0.0011406
				c-0.1209259,0.0412865-0.2308197,0.0881805-0.3264389,0.1379929c-0.1000137,0.051754-0.1827469,0.106781-0.2434769,0.1601715
				c-0.0421906,0.0366325-0.0363159,0.1046753,0.0117645,0.1361351l2.2624817,1.4802475
				c0.0320282,0.0209579,0.074173,0.0180359,0.1014023-0.0074997
				C80.9835739,64.2177734,81.5516586,63.5892563,81.0465775,62.8638878z"/>
			<path class="st45" d="M80.2923584,64.1187134l0.0804138-0.1288223c0.0654449-0.1048584,0.033371-0.2446404-0.0708084-0.3128052
				l-1.6258774-1.0637398c-0.1000137,0.051754-0.1827469,0.106781-0.2434769,0.1601715
				c-0.0421906,0.0366325-0.0363159,0.1046753,0.0117645,0.1361351L80.2923584,64.1187134z"/>
			<path class="st24" d="M123.0063629,115.100441l-4.224678,7.6533737l-27.1485672-14.4111404l-0.1448822,0.0904465
				l-2.6234207,1.601265l-5.2830582,3.2295761l-1.646759,0.9952087l-1.1577682,0.7146072
				c-0.1718369,0.108551-0.3617783,0.2171097-0.560997,0.3166046c-1.1758728,0.6332169-2.4785309,1.0584946-3.8085709,1.1851578
				c-3.0488052,0.289444-5.2830582-0.3347168-6.8662109-1.465538c-0.1718292-0.1176147-0.3259964-0.244278-0.4704361-0.352829
				l-0.4342194-0.4070587c-0.2805023-0.2623825-0.53405-0.524765-0.7509384-0.8143234
				c-3.3111877-4.2609024-2.2528076-11.3443298-2.2528076-11.3443298l0.1360474-2.5330276l1.46521-0.0181122l13.0724792-0.1356659
				l0.5154953-0.0090561l1.7280426-1.1217651l1.5018692-0.9770432l1.3658218-0.8866043
				c2.5602493-1.6645432,5.581665-2.1801987,8.4043045-1.61026c0.4797134,0.0994949,0.958992,0.2352142,1.4294281,0.4071045
				c1.0314331,0.3618317,2.0080948,0.8774872,2.9220276,1.5469284l7.9338684,5.8712769l0.1625519,0.1175537l6.9117126,5.1022797
				L123.0063629,115.100441z"/>
			<path class="st37" d="M91.6331177,107.8903503c0,0-0.0543289,0.1989975-0.1448822,0.5427704l-2.6234207,1.601265
				l-5.2830582,3.2295761l-1.646759,0.9952087l-1.1577682,0.7146072c-0.1718369,0.108551-0.3617783,0.2171097-0.560997,0.3166046
				c-1.1758728,0.6332169-2.4785309,1.0584946-3.8085709,1.1851578c-3.0488052,0.289444-5.2830582-0.3347168-6.8662109-1.465538
				c-0.1718292-0.1176147-0.3259964-0.244278-0.4704361-0.352829l-0.4342194-0.4070587
				c-0.2805023-0.2623825-0.53405-0.524765-0.7509384-0.8143234c-3.3111877-4.2609024-2.2528076-11.3443298-2.2528076-11.3443298
				l0.1360474-2.5330276l0.2350006-2.0897598l1.9087067-0.1718826l8.3680801-0.8051605l0.9682693-0.0904465l0.2531052,1.14888
				l-10.267952,1.9902573v0.0181122l0.2650986,5.9141083c0.1332397,2.9723969,1.8096313,5.6592102,4.4208755,7.085495
				l0.0582275,0.0318069c2.2573471,1.2329788,4.9513321,1.3785172,7.3283691,0.3959045L91.6331177,107.8903503z"/>
			<path class="st37" d="M93.8206711,94.8031998v5.1276627c0,0-5.2949677,3.9565659-13.3084641-0.4098663
				c-0.0669327-0.033493-0.1422424-0.0753098-0.2091217-0.1171188c-0.6190491-0.3429413-1.2631073-0.7444916-1.9155884-1.1961746
				c-0.8113708-0.5604324-1.5056686-1.1292877-2.1079102-1.7147827l5.9055862-0.5604858l0.3680573,2.3422012l1.4972916-0.9787216
				l1.3718491-0.886673C87.9820175,94.7446365,91.0017166,94.2260208,93.8206711,94.8031998z"/>
			<path class="st25" d="M106.2675934,102.7414474l-5.5124664,8.8165894l-7.9215012-3.9649811l-3.8478165-1.438736
				l6.265274-5.7048416v-5.2447815c1.028862,0.3680573,2.0075378,0.8783493,2.9193268,1.5475311l7.9382477,5.8720932
				L106.2675934,102.7414474z"/>
			<line class="st101" x1="82.3665161" y1="97.1014175" x2="73.1983871" y2="99.3251953"/>
			<path class="st9" d="M64.8419724,76.4978027c-0.0017014-0.0563583,0.0112381-0.0826874,0.0216751-0.0905762
				C64.8949814,76.3834,64.8899918,76.4201126,64.8419724,76.4978027z"/>
			<path class="st101" d="M92.8338623,94.5003357c2.4105225,0.1432343,4.5469055,1.5339203,6.5211487,2.9244232
				c2.5398483,1.7888718,5.0262375,3.6536407,7.4547272,5.5909882"/>
			<polygon class="st7" points="82.8892899,77.4707108 78.3874207,75.725441 78.6090927,74.9220047 79.4124451,71.9438095 
				82.6552811,72.2774582 82.3767776,72.7472458 			"/>
			<line class="st18" x1="94.2375717" y1="85.560257" x2="93.9563293" y2="87.1792679"/>
			<g>
				<path class="st14" d="M110.0135956,91.8416595c-0.129715,0.1520157-0.2450638,0.2920914-0.3749542,0.4439697
					c-0.6177368,0.6647186-1.3073959,1.2815247-2.0779037,1.8327637c-0.0433426,0.035347-0.1030579,0.0700989-0.1500854,0.1029816
					c-0.2585144-0.6550827-0.4460373-1.3756943-0.6214676-2.1044083c-0.0934906-0.3911133-0.1842041-0.7859497-0.2812424-1.1796951
					c-0.0099335-0.0244751-0.0136871-0.0498581-0.0174332-0.0752487c-0.0250473-0.1032257-0.0508728-0.2128143-0.0822372-0.314949
					c-0.1320267-0.5214386-0.2784653-1.0312653-0.4591904-1.5097733c-0.0396118-0.1140442-0.0854187-0.2271729-0.1304398-0.333931
					c-0.0566406-0.1211777-0.1070862-0.2432709-0.1674576-0.367218c-0.0183182-0.0362091-0.0367661-0.0722351-0.0550766-0.1084366
					c-0.0318069-0.0633163-0.0639267-0.1265869-0.1022339-0.1889496c-0.1326523-0.2396545-0.2824478-0.4636459-0.4500351-0.6785278
					c-0.0638962-0.0813599-0.1302414-0.1590271-0.2034073-0.2356949c-0.0499115-0.0541611-0.0963974-0.1054993-0.1518936-0.1525116
					c-0.01548-0.0170059-0.0310059-0.0343323-0.045578-0.0451508c-0.0108337-0.008049-0.0227585-0.0224152-0.0373306-0.0332336
					c-0.0145645-0.0108261-0.0299149-0.0280075-0.0482101-0.0416031c-0.0119324-0.0143738-0.0264969-0.0251923-0.0373306-0.0332413
					c-0.0674286-0.0613785-0.1438141-0.1181107-0.2136993-0.1758041c-0.1454926-0.1080627-0.3029022-0.2078781-0.4683533-0.2968597
					l-0.029129-0.021637c-0.0534439-0.0341873-0.1109314-0.0710907-0.1697922-0.0979919
					c-0.0100479-0.0016785-0.0137787-0.0044479-0.017334-0.0070877c-0.0636749-0.0359955-0.1354065-0.0611496-0.2097244-0.0824432
					c-0.1062698-0.0395126-0.2205429-0.0678787-0.3430405-0.0855408c-0.0100555-0.0016785-0.016243-0.0007629-0.0235291-0.0061722
					c-0.0300293-0.0052185-0.0599289-0.0106125-0.0963287-0.0150452l-0.0027695,0.0037308
					c-1.2143097-0.1739197-2.9029617,0.1921005-3.8274155-0.9347076c-0.0951233-0.1836624-0.1775131-0.3688965-0.2534409-0.555397
					c-0.0504532-0.1220932-0.1008987-0.2441864-0.1450272-0.367363c-0.0009079-0.0061951-0.0057373-0.0152893-0.009285-0.0179291
					c-0.0403976-0.1204147-0.0835648-0.2370911-0.1239548-0.3575058c-0.0018768-0.0126953-0.0065155-0.0216599-0.0110321-0.0307999
					c-0.079483-0.2544556-0.143692-0.5083313-0.2006836-0.761528c-0.0019836-0.0080872-0.0048523-0.0168381-0.0059509-0.0242691
					c-0.0231705-0.0905304-0.0398407-0.1820221-0.059288-0.2697754c-0.0029755-0.0416336-0.0123291-0.082489-0.0204163-0.1168823
					c-0.0151215-0.1013641-0.0336609-0.2055511-0.045105-0.3044586c-0.0035706-0.0252533-0.0037613-0.0479965-0.0102844-0.0696564
					c-0.0129166-0.0661011-0.0224228-0.1293869-0.0252914-0.1938171c-0.0056152-0.0380783-0.0112381-0.0761566-0.0104904-0.1150208
					c-0.0074768-0.0281525-0.0112305-0.0535431-0.008606-0.0797119c-0.011261-0.0987701-0.0163269-0.1984558-0.0214005-0.2981491
					c-0.0075073-0.0733871-0.0123825-0.1503296-0.0099716-0.2218552c0.0007172-0.0165558,0.0016556-0.0326767-0.0011749-0.0518646
					c0.0018539-0.0099258-0.0000153-0.0226212-0.0018921-0.0353088c0.0016785-0.0100555,0.002449-0.0263062,0.0005722-0.0389938
					c-0.0000153-0.0226212-0.0002136-0.0453644-0.0002289-0.0679779c-0.0027924-0.0188904-0.0020676-0.0354462-0.0022202-0.0578842
					c-0.0004196-0.0907211,0.0019684-0.1848679,0.0041885-0.2791443c-0.0056229-0.0380859-0.0039673-0.070755,0.0014267-0.1006546
					l-0.0009613-0.0065002c-0.0009079-0.0061874-0.0009079-0.0061874-0.0018692-0.0126877
					c-0.0005722-0.1131668,0.0051804-0.2274246,0.0146561-0.3389053c-0.0018692-0.0126953,0.0025787-0.0264816,0.0044327-0.0363998
					c0.0065155-0.1305008,0.0168915-0.2584076,0.0306931-0.3834991c0.010376-0.1279144,0.0233994-0.2593689,0.0436935-0.3854218
					l0.0026398-0.0035553c0.0079498-0.0789948,0.0193253-0.1551666,0.0333405-0.2348938
					c0.0025558-0.0490952,0.0113068-0.0991058,0.0201035-0.1488037c0.0062866-0.0463181,0.0186386-0.0933762,0.0249252-0.1397018
					c0.0052185-0.0300293,0.0104294-0.0600586,0.0156937-0.0897827c0.0025864-0.0146179,0.0067596-0.0302582,0.0093842-0.0456772
					c0.0124435-0.0657349,0.0224457-0.131897,0.0358582-0.197464c0.0052185-0.0300293,0.0132446-0.0634842,0.0212326-0.0972443
					c0.0104752-0.0597534,0.0248108-0.1169128,0.0354233-0.1768417c0.0140076-0.0797272,0.0292435-0.1533127,0.0505371-0.2276306
					c0.2993546-1.3074799,0.7764435-2.5959625,1.2944717-3.8482513c-2.806366,0.7382278-5.5191269,2.1104889-8.3254929,2.8487167
					c0.0389404-0.219429,0.0814362-0.4362259,0.1248398-0.6468277c0.0149078-0.0961533,0.0363159-0.1932678,0.0547791-0.2867813
					c0.0044937-0.0134735,0.0080261-0.0334473,0.0124817-0.0472336c0.0009384-0.0161133,0.0026169-0.0261688,0.0070724-0.0399551
					c0.0115662-0.0534286,0.0231323-0.1068573,0.0346527-0.1605911c0.0096893-0.066124,0.0255814-0.1331558,0.0389557-0.1968231
					l0.0026398-0.0035477c0.0167847-0.0834579,0.0363312-0.1706543,0.0532913-0.2539749
					c0.0212326-0.0972443,0.0434265-0.1879883,0.0647049-0.2849274c0.0053864-0.0298996,0.0133743-0.0636597,0.0187683-0.0935593
					c0.0026398-0.0035477-0.0009155-0.0061874,0.0017242-0.0097427l0.0027695-0.0037308
					c0.0540314-0.2479172,0.1091995-0.4891968,0.1705627-0.7313995c0.054985-0.2414169,0.1137085-0.4800568,0.1750641-0.7222595
					c0.0898438-0.3792572,0.1860046-0.759613,0.2820358-1.1397934c0.1653748-0.1087112,0.3298264-0.2236252,0.4989243-0.329567
					c2.4192505-1.4940643,5.2062149-2.1226654,7.9201508-1.9077301c0.6118774,0.0423737,1.1787872,0.1304474,1.7406235,0.2709961
					l0.0244904,0.0126724c2.1901016,0.4411011,4.2532806,1.4709778,5.9690475,3.0220642
					c0.1503296,0.1397705,0.2904282,0.2777252,0.4243393,0.4166031c1.4460907,1.4354095,2.5007019,3.0935822,3.1571198,4.862587
					c0.1779404,0.4596176,0.3196716,0.9375534,0.4316864,1.4102325c0.3923187,1.5389404,0.4840393,3.1255875,0.291954,4.6764679
					c-0.0314636,0.2475891-0.0710983,0.5061874-0.118988,0.7528839c-0.0208664,0.1650467-0.051796,0.3284073-0.0890884,0.4925613
					c-0.1970139,0.903595-0.4892197,1.7987823-0.8822937,2.647171c-0.0779495,0.1962509-0.1740646,0.3787308-0.2727737,0.5650711
					C111.1728363,90.2808609,110.6482925,91.0936203,110.0135956,91.8416595z"/>
				<path class="st15" d="M108.6865616,90.2463226c-0.1188812,0.1600571-0.2480087,0.2956924-0.3750839,0.4441452
					c-0.4625015,0.5087814-0.9688416,0.9852753-1.5222931,1.4264984l-0.0026398,0.0035477
					c-0.093483-0.3911057-0.185112-0.7921371-0.2786026-1.1832428c-0.0099335-0.0244751-0.0136871-0.0498581-0.0174332-0.0752487
					c-0.028595-0.1058578-0.0536423-0.2090836-0.0822372-0.314949c-0.1320267-0.5214386-0.2784653-1.0312653-0.4591904-1.5097733
					c-0.0396118-0.1140442-0.0846329-0.2208023-0.1304398-0.333931c-0.0566406-0.1211777-0.1070862-0.2432709-0.1674576-0.367218
					c-0.0183182-0.0362091-0.0367661-0.0722351-0.0577164-0.1048889l0.0026398-0.0035477
					c-0.0318069-0.0633163-0.0676575-0.129364-0.1022339-0.1889496c-0.1326523-0.2396545-0.2824478-0.4636459-0.4500351-0.6785278
					c-0.0638962-0.0813599-0.1302414-0.1590271-0.2034073-0.2356949c-0.0345612-0.036972-0.07267-0.0765762-0.1136017-0.1127701
					c-0.0119324-0.0143661-0.0237274-0.028923-0.0382919-0.0397415c-0.0119324-0.0143661-0.0300522-0.0278244-0.045578-0.0451508
					c-0.0108337-0.008049-0.0227585-0.0224152-0.0373306-0.0332336c-0.0145645-0.0108261-0.0299149-0.0280075-0.0482101-0.0416031
					c-0.0119324-0.0143738-0.0264969-0.0251923-0.0373306-0.0332413c-0.0674286-0.0613785-0.1373138-0.119072-0.2136993-0.1758041
					c-0.1454926-0.1080627-0.3029022-0.2078781-0.4683533-0.2968597l-0.029129-0.021637
					c-0.0534439-0.0341873-0.1109314-0.0710907-0.1697922-0.0979919c-0.0100479-0.0016785-0.0137787-0.0044479-0.017334-0.0070877
					c-0.0636749-0.0359955-0.1354065-0.0611496-0.2097244-0.0824432c-0.1062698-0.0395126-0.2205429-0.0678787-0.3430405-0.0855408
					c-0.0100555-0.0016785-0.016243-0.0007629-0.0235291-0.0061722c-0.0300293-0.0052185-0.0599289-0.0106125-0.0963287-0.0150452
					l-0.0027695,0.0037308c-1.2143097-0.1739197-2.9029617,0.1921005-3.8274155-0.9347076
					c-0.0951233-0.1836624-0.1775131-0.3688965-0.2534409-0.555397c-0.0504532-0.1220932-0.1008987-0.2441864-0.1450272-0.367363
					c-0.0009079-0.0061951-0.0057373-0.0152893-0.009285-0.0179291c-0.0403976-0.1204147-0.0835648-0.2370911-0.1239548-0.3575058
					c-0.0018768-0.0126953-0.0065155-0.0216599-0.0110321-0.0307999c-0.079483-0.2544556-0.143692-0.5083313-0.2006836-0.761528
					c-0.0019836-0.0080872-0.0048523-0.0168381-0.0059509-0.0242691c-0.0231705-0.0905304-0.0398407-0.1820221-0.059288-0.2697754
					c-0.0029755-0.0416336-0.0123291-0.082489-0.0204163-0.1168823c-0.0151215-0.1013641-0.0336609-0.2055511-0.045105-0.3044586
					c-0.0035706-0.0252533-0.0037613-0.0479965-0.0102844-0.0696564c-0.0129166-0.0661011-0.0224228-0.1293869-0.0252914-0.1938171
					c-0.0056152-0.0380783-0.0112381-0.0761566-0.0104904-0.1150208c-0.0074768-0.0281525-0.0112305-0.0535431-0.008606-0.0797119
					c-0.011261-0.0987701-0.0163269-0.1984558-0.0214005-0.2981491c-0.0075073-0.0733871-0.0123825-0.1503296-0.0099716-0.2218552
					c0.0007172-0.0165558,0.0016556-0.0326767-0.0011749-0.0518646c0.0018539-0.0099258-0.0000153-0.0226212-0.0018921-0.0353088
					c0.0016785-0.0100555,0.002449-0.0263062,0.0005722-0.0389938c-0.0000153-0.0226212-0.0002136-0.0453644-0.0002289-0.0679779
					c-0.0027924-0.0188904-0.0020676-0.0354462-0.0022202-0.0578842c-0.0004196-0.0907211,0.0019684-0.1848679,0.0041885-0.2791443
					c-0.0056229-0.0380859-0.0039673-0.070755,0.0014267-0.1006546l-0.0009613-0.0065002
					c-0.0009079-0.0061874-0.0009079-0.0061874-0.0018692-0.0126877c-0.0005722-0.1131668,0.0051804-0.2274246,0.0146561-0.3389053
					c-0.0018692-0.0126953,0.0025787-0.0264816,0.0044327-0.0363998c0.0065155-0.1305008,0.0168915-0.2584076,0.0306931-0.3834991
					c0.010376-0.1279144,0.0233994-0.2593689,0.0436935-0.3854218l0.0026398-0.0035553
					c0.0079498-0.0789948,0.0193253-0.1551666,0.0333405-0.2348938c0.0025558-0.0490952,0.0113068-0.0991058,0.0201035-0.1488037
					c0.0062866-0.0463181,0.0186386-0.0933762,0.0249252-0.1397018c0.0052185-0.0300293,0.0104294-0.0600586,0.0156937-0.0897827
					c0.0025864-0.0146179,0.0067596-0.0302582,0.0093842-0.0456772c0.0124435-0.0657349,0.0224457-0.131897,0.0358582-0.197464
					c0.0052185-0.0300293,0.0132446-0.0634842,0.0212326-0.0972443c0.0104752-0.0597534,0.0248108-0.1169128,0.0354233-0.1768417
					c0.0140076-0.0797272,0.0292435-0.1533127,0.0505371-0.2276306c0.2993546-1.3074799,0.7764435-2.5959625,1.2944717-3.8482513
					c-2.806366,0.7382278-5.5191269,2.1104889-8.3254929,2.8487167c0.0389404-0.219429,0.0814362-0.4362259,0.1248398-0.6468277
					c0.0149078-0.0961533,0.0363159-0.1932678,0.0547791-0.2867813c0.0044937-0.0134735,0.0091248-0.0271225,0.0070724-0.0399475
					c0,0,0.0026398-0.0035553,0.0054092-0.0072861c0.0009384-0.0161133,0.0026169-0.0261688,0.0070724-0.0399551
					c0.0115662-0.0534286,0.0231323-0.1068573,0.0346527-0.1605911c0.0123291-0.0696793,0.0255814-0.1331558,0.0389557-0.1968231
					l0.0026398-0.0035477c0.0167847-0.0834579,0.0363312-0.1706543,0.0532913-0.2539749
					c0.0212326-0.0972443,0.0434265-0.1879883,0.0647049-0.2849274c0.0053864-0.0298996,0.0133743-0.0636597,0.0187683-0.0935593
					c0.0026398-0.0035477-0.0009155-0.0061874,0.0017242-0.0097427l0.0027695-0.0037308
					c0.0540314-0.2479172,0.1091995-0.4891968,0.1705627-0.7313995c0.054985-0.2414169,0.1137085-0.4800568,0.1750641-0.7222595
					c0.0898438-0.3792572,0.1860046-0.759613,0.2820358-1.1397934c0.2171478-0.8776169,0.4332428-1.7612534,0.6248016-2.6578751
					c4.6707001-2.1309128,10.3158646-1.3252106,14.1661224,2.1780853c0.6808319,0.6186829,1.2748108,1.2629929,1.7866516,1.9648285
					c0.7597427,0.9989624,1.3477325,2.084816,1.7742615,3.1976624c0.1753006,0.4631805,0.3161163,0.9349213,0.4327774,1.4165649
					c0.395874,1.5415802,0.5031204,3.145546,0.3192291,4.7080231c-0.026947,0.2567291-0.0638123,0.5116043-0.111702,0.7583008
					c-0.0252991,0.2014389-0.0579529,0.3745499-0.0989151,0.5588531c-0.1961136,0.8871689-0.4875565,1.7661133-0.8633041,2.5989761
					c-0.0716248,0.1951599-0.1703339,0.3815002-0.2692184,0.5677109
					C109.8493576,88.6881561,109.3209457,89.4983292,108.6865616,90.2463226z"/>
				<path class="st17" d="M108.0074921,82.5821533c-0.0167389,0.3011246-0.0585556,0.6106186-0.1171188,0.9201126v0.0418167
					c-0.025116,0.1505585-0.0585556,0.3011703-0.0919952,0.4433594c-0.0251236,0.1171188-0.0501938,0.2341919-0.0836868,0.3429337
					c-0.0250626,0.0836792-0.0501862,0.1673126-0.0752487,0.2426147c-0.0753098,0.2676849-0.1589355,0.5269928-0.2676849,0.7779312
					c-0.0501862,0.133812-0.1003723,0.2593079-0.1589355,0.3764267c-0.3931732,0.9033661-0.9368591,1.7482224-1.6144104,2.5010834
					l-0.0083694,0.0083771c-0.2342453-0.4601135-0.5102463-0.8699799-0.8616104-1.2212906
					c-0.0166931-0.0167465-0.0250626-0.0334396-0.0418091-0.0418167c-0.0083771-0.0167465-0.0250702-0.033493-0.0418167-0.0501862
					c-0.0167465-0.0083694-0.0250702-0.0167465-0.0418167-0.033493c-0.0167465-0.0166931-0.025116-0.0250626-0.0418091-0.0418091
					c-0.0167465-0.0083771-0.033493-0.0250702-0.0418701-0.0334473c-0.0668793-0.0585556-0.142189-0.1171188-0.2091217-0.1756744
					c-0.1505585-0.1003799-0.309494-0.2007523-0.4684296-0.2927551l-0.0334396-0.025116
					c-0.0501862-0.0334396-0.1087494-0.0668793-0.167305-0.0920029c-0.0083771-0.0083694-0.0167007-0.0083694-0.0167007-0.0083694
					c-0.0669327-0.0334473-0.1338654-0.0585632-0.2091141-0.0836334c-0.0167465-0.0083694-0.0251236-0.0083694-0.0418701-0.0083694
					c-0.0920029-0.0418167-0.2007446-0.0585632-0.3011246-0.0753098c-0.0167465,0-0.0167465,0-0.0250626-0.008316
					c-0.033493-0.0083771-0.0585632-0.0083771-0.1003799-0.0167465v0.0083694
					c-0.0836792-0.0083694-0.167305-0.025116-0.2593536-0.025116c-0.5269394-0.0501862-1.1208649-0.0250702-1.6980438-0.0752563
					c-0.0501862-0.0083771-0.1087494-0.0083771-0.1589355-0.0167465c-0.6524811-0.0836258-1.2714767-0.2760544-1.7147827-0.8197403
					c-0.0920029-0.1840515-0.1756821-0.3680573-0.2509384-0.5521088c-0.0501862-0.1254425-0.1003723-0.2509384-0.1422348-0.3680573
					c0-0.0083694-0.0083771-0.0166931-0.0083771-0.0250702l-0.1254425-0.3513565
					c0-0.0167007-0.0083694-0.0250702-0.0083694-0.0334396c-0.0836334-0.2509384-0.1505661-0.5102463-0.2007523-0.7611847
					c-0.0083694-0.0083694-0.0083694-0.0167465-0.0083694-0.025116c-0.0250702-0.0920029-0.0418167-0.1840057-0.0585632-0.2676849
					c-0.0083694-0.0418091-0.0167465-0.0836258-0.0250702-0.1171188c-0.0083694-0.0501862-0.0167465-0.108696-0.025116-0.1589355
					c-0.0083694-0.0501862-0.0167465-0.1003723-0.0167465-0.1505585c-0.0083237-0.0250702-0.0083237-0.0418167-0.0083237-0.0668869
					c-0.0167465-0.0669327-0.025116-0.1254883-0.025116-0.192421c-0.0083771-0.0418167-0.0167465-0.0752563-0.0167465-0.1170731
					c-0.0083237-0.025116-0.0083237-0.0501862-0.0083237-0.0753021c-0.0083694-0.1003799-0.0167465-0.2007523-0.0167465-0.3011246
					c-0.0083694-0.0753098-0.0167465-0.1505585-0.0083694-0.2174988c0-0.0167389,0-0.0334396-0.0083771-0.0585556
					c0.0083771-0.0083771,0-0.0167465,0-0.0334396c0-0.0083771,0.0083771-0.0251236,0-0.0418701v-0.1254425
					c0-0.0836792,0-0.1840515,0.0083771-0.2760544c-0.0083771-0.0418091-0.0083771-0.0669327,0-0.1003723V80.674942
					c-0.0083771-0.0083771-0.0083771-0.0083771-0.0083771-0.0083771c0-0.1170654,0.0083771-0.2258148,0.0167465-0.3429337
					c0-0.0083771,0-0.0251236,0.0083771-0.0334396c0-0.133873,0.0166931-0.2593155,0.0250626-0.3848038
					c0.0167465-0.1254959,0.0251236-0.2593079,0.0501938-0.3848038v-0.0083694
					c0.0083694-0.0752563,0.0167389-0.1505661,0.0334854-0.2341919c0-0.0418167,0.0083237-0.0920029,0.0167007-0.142189
					c0.0083694-0.0501862,0.0167465-0.1003723,0.025116-0.1422424c0.0083771-0.0334396,0.0083771-0.0585098,0.0167465-0.0919952
					c0-0.0167465,0.0083237-0.0250702,0.0083237-0.0418167c0.0167465-0.0669327,0.025116-0.1338196,0.033493-0.2007523
					c0.0083694-0.025116,0.0166931-0.0585556,0.0250626-0.1003723c0.0083771-0.0585556,0.0251236-0.1087494,0.033493-0.1756821
					c0.0166931-0.0752563,0.0334396-0.1505585,0.0501862-0.2258682c0.3011246-1.3049164,0.7779312-2.5930862,1.2965469-3.8478088
					c-1.5140381,0.3931198-2.9946365,0.9786682-4.483551,1.5474777c-0.3346176,0.1254883-0.6692352,0.2509842-0.9954224,0.3764267
					c-0.9452362,0.3513107-1.8904648,0.6775513-2.8440704,0.9284897c0.0334396-0.2258224,0.0836258-0.4433136,0.1254883-0.6524353
					c0.0083237-0.0920029,0.0334396-0.1923752,0.0501862-0.2844238c0.0083771-0.0167007,0.0083771-0.0250702,0.0083771-0.0418167
					c0.0083237-0.0167465,0.0083237-0.0334396,0.0166931-0.0418167c0.0083771-0.0585556,0.0167465-0.1087494,0.033493-0.167305
					c0.0083237-0.0669327,0.0250702-0.1338196,0.0334396-0.1923752l0.0083771-0.0083771
					c0.0334396-0.1756744,0.0752487-0.3513031,0.1171188-0.5353622c0,0,0-0.0083694,0-0.0166931
					c0.2174454-0.2258682,0.443306-0.4601059,0.6858749-0.6859283c0.0083694-0.0083694,0.025116-0.0167389,0.0334854-0.025116
					c0.0334473-0.0334396,0.0752563-0.0669327,0.1087494-0.1003723c0.1923752-0.1505661,0.3847504-0.2843781,0.5938721-0.4266205
					h0.0083771c0.4182434-0.2843704,0.8448563-0.5269852,1.2882156-0.7277374
					c0.3345642-0.1505585,0.6775589-0.2843781,1.0204926-0.3931198c0.4600601-0.1505661,0.9368591-0.2593079,1.4052887-0.3346176
					c0.5939255-0.0920029,1.196167-0.133812,1.7900925-0.1171188c0,0,0,0,0.0083771,0
					c0.2341843,0.0083694,0.476799,0.025116,0.7109909,0.0418625h0.0083694
					c0.3513107,0.0418167,0.7026749,0.1003723,1.0539856,0.1756287c0.2425613,0.0501862,0.4684296,0.1087494,0.7026138,0.1756821
					c1.505722,0.451683,2.9193802,1.2798004,4.0569916,2.4676437c0.167305,0.1672592,0.3345642,0.3513107,0.4851227,0.5353165
					c0.1589355,0.1840515,0.301178,0.3680496,0.443367,0.5604782c0.133812,0.1923752,0.2676773,0.3847504,0.3847961,0.5855026
					c0.1840057,0.3011703,0.3429413,0.6106644,0.4934998,0.9285355c0.1924286,0.409874,0.3513107,0.8364868,0.4851761,1.2714233
					c0.0920029,0.3346176,0.1756821,0.6608582,0.2425613,0.9954224v0.0083694
					c0.033493,0.1505661,0.0501862,0.3095016,0.0753098,0.4684296c0.0167465,0.1171265,0.0334396,0.2426147,0.0418167,0.3596878
					c0.0083694,0.1087494,0.0167389,0.2174911,0.0167389,0.3178711
					C108.0409393,81.72892,108.0409393,82.1555328,108.0074921,82.5821533z"/>
				<path class="st17" d="M112.6781158,80.2927475l-1.3786316-1.6558075
					c-0.1173782-0.4802399-0.2602081-0.9545059-0.437027-1.4156723l1.3857498,1.6643677
					C112.4250336,79.3468018,112.5678635,79.8210678,112.6781158,80.2927475z"/>
				<path class="st17" d="M112.8542099,85.7237244c0.0467834-0.2466888,0.0862579-0.5021057,0.1171875-0.7500916
					l-1.3569336-1.6296768c-0.023407,0.2571564-0.0629272,0.5122604-0.1095276,0.759079L112.8542099,85.7237244z"/>
				<path class="st17" d="M111.6091843,89.4300766c0.0977783-0.1850967,0.1958771-0.3702393,0.2702408-0.5661163
					l-1.3349915-1.6031799c-0.0743637,0.1958771-0.1721497,0.3809738-0.2702484,0.5661163L111.6091843,89.4300766z"/>
				<path class="st17" d="M108.6853333,90.2478104c-0.119812,0.1590881-0.2454987,0.2934265-0.3724747,0.4436035
					l1.3276901,1.5944519c0.1268005-0.1503143,0.2453613-0.2932434,0.3719864-0.4436874L108.6853333,90.2478104z"/>
			</g>
			<g>
				<path class="st14" d="M92.9805222,91.3274384c-0.7717285-1.1193161-3.4089813-0.9524155-4.0648499-2.7020798
					c-0.5655212-4.0138168,1.6475983-7.1910782,4.1179581-9.9952393c-2.8945007-0.2062073-5.9048615,0.2179337-8.7993622,0.0117264
					c0.7788162-1.4137344,1.6300354-2.7228317,2.4768066-4.0380096c-1.9989471,0.5527725-3.7500305,1.5149536-5.1788177,2.7863083
					c-1.1531296,1.0041504-2.0871658,2.1674194-2.8233871,3.462822c-0.1501007,0.2773895-0.289772,0.5508118-0.4248657,0.8339844
					c-1.0840149,2.3323975-1.4999695,5.0065002-1.0830231,7.6544037c0.0749512,0.4837341,0.1618729,0.9637833,0.2943649,1.4374161
					c0.0399399,0.1678696,0.1011734,0.32724,0.1368408,0.4846115c0.2431107,0.7615662,0.5580597,1.5200958,0.9473724,2.2496643
					c0.0907822,0.1725998,0.1813736,0.3453217,0.281044,0.4781876c1.44133,2.4869843,3.6791992,4.3761292,6.2486801,5.4426346
					c0.1027908,0.045784,0.2059555,0.0921097,0.3113632,0.1124344c1.4693832,0.5850906,3.0315018,0.9019699,4.6192093,0.9039307
					c0.0107956-0.0042191,0.0251999,0.0022507,0.0359955-0.0019684c0.1946259-0.0011368,0.3791733,0.001442,0.5694504-0.0106735
					c0.825882-0.0114288,1.6400604-0.1158447,2.4412766-0.2882004c0.0887146-0.0221939,0.1527176-0.0466995,0.2379608-0.0793991
					c0.0425873-0.0161896,0.0782242-0.0179138,0.1208725-0.0344162c0.1287613-0.0323334,0.2518311-0.0674591,0.3754654-0.1021729
					C93.6883545,97.032959,94.9938049,93.5079803,92.9805222,91.3274384z"/>
				<path class="st15" d="M92.9805222,91.3274384c-0.7717285-1.1193161-3.4089813-0.9524155-4.0648499-2.7020798
					c-0.5655212-4.0138168,1.6475983-7.1910782,4.1179581-9.9952393c-2.8945007-0.2062073-5.9048615,0.2179337-8.7993622,0.0117264
					c1.2298203-2.2324142,2.6387558-4.20504,3.9271164-6.3525543c-0.5532837,0.0551682-1.106842,0.136055-1.657486,0.2660065
					c-2.2469559,0.5076675-4.1865005,1.5309753-5.7628403,2.9290543c-1.3683472,1.2073669-2.4799805,2.6712875-3.242157,4.2818604
					c-1.3677902,2.9293365-1.6782532,6.3564072-0.6379318,9.6445313l0.0572052,0.1492462
					c0.195282,0.5717163,0.421814,1.1318359,0.7140121,1.703392c0.041008,0.1066589,0.1111298,0.2262955,0.16642,0.3392334
					c0.3900604,0.729866,0.8311005,1.4030762,1.3236084,2.0195618c0.8090973,0.9965286,1.7385254,1.8611679,2.7737579,2.5872726
					c0.0629349,0.036705,0.1191101,0.0885544,0.193222,0.1215897c0.1671524,0.1188583,0.3308258,0.2272186,0.5265961,0.3228607
					c1.0975113,0.6659622,2.2778091,1.1654587,3.5181274,1.4717178c0.0226593,0.028183,0.0337677,0.024025,0.0507813,0.0050354
					c1.0185776,0.268837,2.0639496,0.4178696,3.1288223,0.4244385c0.1989517,0.0090485,0.4043732,0.0036926,0.609787-0.0016632
					c0.8029327-0.0388718,1.6070404-0.1395798,2.4035492-0.3226547c0.067482-0.0140076,0.1424103-0.0425491,0.2165451-0.0710831
					c0.0579147-0.0095596,0.110817-0.0299072,0.1637115-0.0502548c0.1935577-0.0377655,0.3788147-0.0961456,0.5525894-0.1509094
					c0.2199936-0.0664749,0.4359131-0.1384659,0.6488724-0.2151489
					C94.125412,95.4038391,94.5057983,92.9794998,92.9805222,91.3274384z"/>
				<path class="st17" d="M94.0297928,93.6822891c-0.3513107,0.192421-0.7193604,0.3680496-1.0957947,0.5186691L92.75,94.2678375
					c-0.3178711,0.1254959-0.6608582,0.2342377-0.9954224,0.309494l-0.0167465,0.0083771
					c-4.6257935,1.1877899-9.4774017-1.2881699-11.2005615-5.8470306c-0.133812-0.3680573-0.2509308-0.7361145-0.3429337-1.1041718
					c-0.0083771-0.0250626-0.0083771-0.0250626-0.0083771-0.0250626c-0.6357346-2.6517029-0.0753021-5.361908,1.3718491-7.5283737
					c0.9033737-1.3467865,2.1748505-2.4760208,3.7223282-3.2205048c-0.3596878,0.577179-0.7109985,1.1710968-1.0456085,1.7817154
					c0.577179,0.0418167,1.1627274,0.0585632,1.7482758,0.0585632c0.3596802,0,0.7277374,0,1.0874252-0.0167465
					c1.9908371-0.0418167,4.0067978-0.1923752,5.9641495-0.0501862c-1.5307846,1.7399063-2.9695206,3.6303711-3.697258,5.7717743
					c-0.1756821,0.5018692-0.309494,1.0204849-0.3931732,1.5558548c-0.142189,0.8448563-0.1589355,1.7315292-0.0250702,2.6600189
					c0.2341919,0.644104,0.7361145,1.0289078,1.3132935,1.3049164C91.110466,90.3614578,92.172821,90.5622101,92.75,91.0808258
					c0.0920029,0.0669327,0.1672516,0.1505661,0.2341919,0.2426147
					C93.6031799,92.0009918,93.9043045,92.8039856,94.0297928,93.6822891z"/>
				<path class="st17" d="M93.8101273,99.3946533l-0.5504227-1.4361267
					c-0.1737747,0.0547638-0.3590317,0.1131439-0.5525894,0.1509094l0.7382965,1.9261398
					c0.1287613-0.0323334,0.2518311-0.0674591,0.3754654-0.1021729
					C93.8129501,99.7558289,93.8083649,99.5764847,93.8101273,99.3946533z"/>
				<path class="st114" d="M93.9980698,99.8851547l-0.1879425-0.4905014
					c-0.0017624,0.1818314,0.0028229,0.3611755,0.0107498,0.5387497
					C93.8792419,99.9170837,93.9423599,99.9025955,93.9980698,99.8851547z"/>
				<path class="st17" d="M90.6452484,100.4375381c-0.1902771,0.0121155-0.374855,0.0095291-0.569313,0.0107346
					c-0.01091,0.0041809-0.0252914-0.0022278-0.0362091,0.0019531L89.31353,98.5552292
					c0.1989594,0.0089951,0.4043274,0.0036087,0.6097031-0.00177L90.6452484,100.4375381z"/>
			</g>
			<path class="st115" d="M101.2847519,35.8382683c1.2282791,1.0994034,2.7811966,1.8315544,4.4108734,2.0795784"/>
			<path class="st115" d="M101.2606735,37.4300423c1.184845,0.7821388,2.4509048,1.5702934,3.8679352,1.6576462"/>
			<path class="st115" d="M100.9953079,38.7210236c1.1034546,0.8337631,2.4310455,1.3679352,3.8044586,1.5307732"/>
			<path class="st115" d="M100.4831848,40.066288c1.2651367,0.8195152,2.71772,1.3159599,4.1945267,1.6179924"/>
			<path class="st115" d="M102.2247696,40.9628906c-0.1237869,0.7070732-0.3797684,1.3831825-0.6343613,2.0543404
				c-0.6087494,1.6047516-1.2174988,3.2095032-1.8262482,4.8142509c-0.6609879,1.742466-1.3307114,3.5285225-1.361763,5.3918877
				c-0.0245438,1.4728355,0.445076,3.0078011,1.4621048,4.0983276c1.1597061,1.243515,2.8515854,1.5795975,4.4822311,1.2714577
				c0.7798538-0.1473694,1.5532761-0.4396744,2.1371307-0.9773521c2.1626129-1.991642,1.8214035-5.3163567,0.892334-7.8129807
				c-0.4756546-1.2781906-1.0161819-2.5322495-1.618988-3.7556267c-0.5746231-1.1661987-1.1536636-2.3830528-2.0044556-3.3783379
				c-0.4800797-0.5616188-0.9879608-1.0015297-1.3741302-1.6601334"/>
			<path class="st115" d="M103.7645874,37.1964226c-0.3146973-2.9631386,1.0444183-6.0482426,3.4432602-7.8159542"/>
			<line class="st115" x1="102.8975372" y1="14" x2="103.1946411" y2="36.8780594"/>
			<path class="st0" d="M85.9911804,95.2632599l-0.1171265,0.2342377c-0.1589279,0.3178711-0.5520554,0.4433136-0.8782959,0.2843781
				l-0.5939255-0.276001l0.1171188,0.1003723c0.2425613,0.2174454,0.3011246,0.5688019,0.1589355,0.8364868l-0.1087494,0.2174377
				c-0.167305,0.3178711-0.5604248,0.4266205-0.8950424,0.2676849l-0.7444839-0.3847504l0.2509842,0.2091217
				c0.276001,0.2091217,0.3596802,0.5855484,0.2007523,0.8782959c-0.0836792,0.142189-0.2174988,0.2509384-0.3680573,0.3011246
				c-0.1254959,0.033493-0.2676849,0.0418167-0.4015503,0l-0.4182434-0.1254425l-0.4684296,0.4934998
				c-0.2007446,0.2091217-0.5186157,0.2593079-0.7946167,0.1171188l-1.0539856-0.5604324l-1.4471512-0.5855484l-0.9284897-0.3848038
				l-1.9489746-0.7946701l-2.7771378-0.309494l-2.9862671-0.3261948l3.1870117-3.5383682l0.409874-0.451683l1.9155273,0.3596802
				l1.33004,0.2509384l1.3132858,0.2426147l3.287384,0.0250626c0.1589355,0.0083771,0.3178711,0.0167465,0.4768066,0.0501938
				c0.3513107,0.0585556,0.7026215,0.1756744,1.0204849,0.3429871l0.2091217,0.108696l2.7436981,1.4805984
				C86.016243,94.5104523,86.1668091,94.9286957,85.9911804,95.2632599z"/>
			<path class="st1" d="M77.500824,96.8860397l-1.9489746-0.7946701l-2.7771378-0.309494
				c-0.1171265-1.0623016-0.0501938-2.6850891,0.2007446-3.864563l0.409874-0.451683l1.9155273,0.3596802l1.33004,0.2509384
				L77.500824,96.8860397z"/>
			<path class="st7" d="M76.781456,91.4656296l-1.5391541,6.2736435l-13.0491638-3.4212494
				c-2.0326538-0.4014969-3.4379425-1.6227875-4.1573105-3.5717621c-0.2426147-0.6608582-0.3513603-1.2965927-0.2258682-1.7900925
				c1.4052925-5.236412,4.8097954-16.3532867,4.8097954-16.3532867c0.7863007-2.1079636,3.1451988-3.1703186,5.2614784-2.3840179
				c2.116333,0.7946701,2.2250824,3.1786346,1.4220352,5.2949677l-1.915535,4.9771042l-1.0205383,2.835701l-1.5642242,4.307869
				l11.3427505,3.6303711L76.781456,91.4656296z"/>
			<polygon class="st21" points="28.7336979,82.9920197 31.9541492,86.2961502 26.2576809,87.3417587 16.9141464,89.073288 
				20.076088,74.1085434 23.5558472,77.6803589 51.3857536,50.845871 56.3042946,55.8982277 29.3694344,81.871109 
				28.4743881,82.7243423 			"/>
			<g>
				<path class="st15" d="M87.8063354,81.1935577c1.0707321-0.5018692,1.9322815-0.451683,2.3756485-0.4182434l-0.1003799-1.3049164
					c-0.6190414-0.0585632-1.4220352,0-2.4425735,0.4349899l-0.5688019-1.2212906
					c-0.3596878,0.0167465-0.7277451,0.0167465-1.0874252,0.0167465l-0.142189,0.0669327l0.7863007,1.6896667
					c-1.4220352,0.9787292-1.9155884,2.4927673-1.2630997,3.8813095c0.618988,1.3216629,1.8402786,1.6729736,3.5801315,1.6227875
					c0.0836792-0.5353699,0.2174911-1.0539856,0.3931732-1.5558548c-1.505661,0.0501862-2.2417755-0.1338654-2.6265793-0.9368591
					C86.3926773,82.791275,86.5181656,81.7958527,87.8063354,81.1935577z M92.75,91.0808258
					c-0.577179-0.5186157-1.639534-0.719368-2.5178299-1.1543503c-0.6691818,0.167305-1.3384094,0.1840515-1.8904724,0.1003723
					l0.1171265,1.3132858c0.786293,0.1422424,1.9322739-0.0250626,2.9109497-0.4684296l0.7946777,1.6897202l1.053978-0.4935532
					L92.75,91.0808258z"/>
				<path class="st15" d="M102.6874084,86.0117264c-0.5269394-0.0501862-1.1208649-0.0250702-1.6980438-0.0752563
					c-0.0501862-0.0083771-0.1087494-0.0083771-0.1589355-0.0167465c0.0585632-0.0334396,0.1171188-0.0753098,0.1673126-0.1254959
					c1.0957947-0.8531799,1.338356-2.0660934,0.6440582-2.9360733c-0.6608047-0.8531799-1.6812973-0.9033661-3.1786423-0.4767532
					c-0.0668793,0.0167007-0.133812,0.0418167-0.2007446,0.0585098c-0.0083694-0.0501862-0.0167465-0.1003723-0.0167465-0.1505585
					c-0.0083237-0.0250702-0.0083237-0.0418167-0.0083237-0.0668869c-0.0167465-0.0669327-0.025116-0.1254883-0.025116-0.192421
					c-0.0083771-0.0418167-0.0167465-0.0752563-0.0167465-0.1170731c-0.0083237-0.025116-0.0083237-0.0501862-0.0083237-0.0753021
					c-0.0083694-0.1003799-0.0167465-0.2007523-0.0167465-0.3011246c-0.0083694-0.0753098-0.0167465-0.1505585-0.0083694-0.2174988
					c0-0.0167389,0-0.0334396-0.0083771-0.0585556c0.0083771-0.0083771,0-0.0167465,0-0.0334396
					c0-0.0083771,0.0083771-0.0251236,0-0.0418701v-0.1254425c0-0.0836792,0-0.1840515,0.0083771-0.2760544
					c0.0418091-0.0083694,0.0836258-0.0167465,0.1254883-0.0334396c2.091217-0.6022949,3.529953-0.4266129,4.6090012,0.9368591
					C103.8083191,82.8498306,103.900322,84.5478745,102.6874084,86.0117264z"/>
			</g>
			<path class="st9" d="M76.1457214,91.2648773l-1.5726013,5.3200455l-13.3451653-4.8118134
				c-1.2494812-0.4505234-2.041851-1.6826859-1.9333725-3.0064697l0.1297913-1.5838165l6.9428215-3.8561859l-1.5642242,4.307869
				L76.1457214,91.2648773z"/>
			<polygon class="st11" points="53.2343559,91.616188 53.2343559,117.706192 50.3317719,117.706192 50.3317719,93.7575912 			"/>
			<polygon class="st11" points="38.0605392,102.8083801 38.0605392,117.706192 35.1662788,117.706192 35.1662788,104.9414063 			
				"/>
			<polygon class="st20" points="28.7336979,82.9920197 31.9541492,86.2961502 26.2576809,87.3417587 16.9141464,89.073288 
				29.5785561,85.8695374 26.7261105,82.2391663 54.2799644,56.0404167 51.3857536,50.845871 56.3042946,55.8982277 
				29.3694344,81.871109 28.4743881,82.7243423 			"/>
			<line class="st4" x1="84.5189514" y1="95.6062469" x2="82.7539825" y2="94.3379898"/>
			<line class="st4" x1="83.1805954" y1="96.7522278" x2="81.6725235" y2="95.9911423"/>
			<line class="st4" x1="82.0423126" y1="97.7392731" x2="80.3891525" y2="96.7522278"/>
		</g>
		<path class="st50" d="M68.8929214,52.405571c2.1078415,0.7006721,4.4368744,0.8414001,6.5508423,0.1594582
			s3.981102-2.2352409,4.8226624-4.2908897"/>
		<path class="st5" d="M71.574379,65.1361313c-0.3256683,0.705658-0.7237167,1.3931503-1.2664871,1.9540329
			c-0.3257217,0.3257217-0.7056656,0.6152191-1.1218262,0.8232727c-0.1537781-0.0452271-0.3075485-0.1085587-0.4613266-0.1809464
			c-0.8684921-0.4071045-1.6464844-1.1217651-1.8274231-2.0535889c-0.1537781-0.8051071,0.1628265-1.6374283,0.6966019-2.2525902
			c0.5337143-0.6061058,1.2664871-1.0132103,2.0264206-1.3117638c-0.7599335,0.2894974-1.6827011,0.1899986-2.2978668-0.3437195
			c-0.6151581-0.5337715-0.8232117-1.5108185-0.4070511-2.2073669c0.1989975-0.3257179,0.5156097-0.5789948,0.8503265-0.7871017
			c0.1266632-0.0813904,2.1169205-0.9498825,2.1169205-1.0403252c-0.0181046-0.0271645-0.0361633-0.0542755-0.0452194-0.0814438
			c0.3347168,0.1357231,0.6603851,0.3076096,0.9589386,0.5066071c0.352829,0.2261658,0.6966019,0.5156631,0.8232117,0.9227676
			c0.1176071,0.3889961,0,0.8232155-0.253273,1.1398773c-0.244278,0.3256645-0.6061096,0.5427742-0.9770508,0.6784935
			c0.8684921,0.0361671,1.5560455,0.8503799,1.7007599,1.709816C72.2257614,63.4715347,71.936264,64.3490829,71.574379,65.1361313z"
			/>
		<path class="st0" d="M109.489975,77.4303131l1.387558-0.614357c0.0151825,0.0264587,0.7087479,0.9695892,1.0971298,1.4443665
			c0,0,0.7505264-3.7797165-0.2817154-4.9652023l-1.5653076-1.7721939c-0.4656296-0.510376-0.8059235-0.6248169-1.135849-0.5584641
			l-3.2941666,0.6625061c-0.2748489,0.0516205-0.4748993,0.2740936-0.5284653,0.5345383
			c-0.0119858,0.0875702-0.015213,0.1763611,0.0066147,0.2775726c0.0742569,0.3046799,0.3481369,0.5207367,0.660759,0.5189209
			l2.1930237,0.1487808l0.3657227,0.5231247l-1.0133591,1.4676895c-0.1613922,0.2009964-0.1384964,0.4897537,0.0413895,0.6750412
			l1.52948,1.5394592C109.0948715,77.4475479,109.3027267,77.4938889,109.489975,77.4303131z"/>
	</g>
	<line class="st101" x1="91.6290817" y1="108.3459091" x2="91.6290817" y2="107.4325027"/>
</g>
</svg>
