<?xml version="1.0" encoding="utf-8"?>
<!-- Generator: Adobe Illustrator 22.0.1, SVG Export Plug-In . SVG Version: 6.00 Build 0)  -->
<svg version="1.1" id="Layer_1" xmlns="http://www.w3.org/2000/svg" xmlns:xlink="http://www.w3.org/1999/xlink" x="0px" y="0px"
	 viewBox="0 0 156 156" style="enable-background:new 0 0 156 156;" xml:space="preserve">
<style type="text/css">
	.st0{fill:#FFD9B2;}
	.st1{fill:#F7AC76;}
	.st2{fill:none;stroke:#3643C3;stroke-width:0.5;stroke-linecap:round;stroke-linejoin:round;stroke-miterlimit:10;}
	.st3{fill:#233764;}
	.st4{fill:none;stroke:#F7AC76;stroke-width:0.5;stroke-linecap:round;stroke-linejoin:round;stroke-miterlimit:10;}
	.st5{fill:#161718;}
	.st6{fill:#FFFFFF;}
	.st7{fill:#F06449;}
	.st8{fill:#BE412D;}
	.st9{fill:#FE8E60;}
	.st10{fill:#7D4C47;}
	.st11{fill:#4456D6;}
	.st12{fill:#203881;}
	.st13{fill:#6582FC;}
	.st14{fill:#DDA103;}
	.st15{fill:#FBC32E;}
	.st16{fill:none;stroke:#DDA103;stroke-width:0.5;stroke-miterlimit:10;}
	.st17{fill:#FBE6BB;}
	.st18{fill:none;stroke:#BE412D;stroke-width:0.5;stroke-linecap:round;stroke-linejoin:round;stroke-miterlimit:10;}
	.st19{fill:none;stroke:#F06449;stroke-width:0.5;stroke-linecap:round;stroke-linejoin:round;stroke-miterlimit:10;}
	.st20{fill:#F34B4B;}
	.st21{fill:#FC7070;}
	.st22{fill:none;stroke:#FFFFFF;stroke-miterlimit:10;}
	.st23{fill:#FC9F9F;}
	.st24{fill:#408A6F;}
	.st25{fill:#64B48D;}
	.st26{fill:none;stroke:#FBE6BB;stroke-width:0.5;stroke-linecap:round;stroke-linejoin:round;stroke-miterlimit:10;}
	.st27{fill:none;stroke:#F7AC76;stroke-width:0.25;stroke-linecap:round;stroke-linejoin:round;stroke-miterlimit:10;}
	.st28{fill:#A0665A;}
	.st29{fill:#6C3F44;}
	.st30{fill:none;stroke:#6C3F44;stroke-width:0.5;stroke-linecap:round;stroke-linejoin:round;stroke-miterlimit:10;}
	.st31{fill:none;stroke:#7D4C47;stroke-width:0.5;stroke-linecap:round;stroke-linejoin:round;stroke-miterlimit:10;}
	.st32{fill:none;stroke:#F34B4B;stroke-width:0.5;stroke-linecap:round;stroke-linejoin:round;stroke-miterlimit:10;}
	.st33{fill:none;stroke:#FC7070;stroke-width:0.5;stroke-linecap:round;stroke-linejoin:round;stroke-miterlimit:10;}
	.st34{fill:#EAE8F3;}
	.st35{fill:#40304A;}
	.st36{fill:none;stroke:#43334E;stroke-linecap:round;stroke-linejoin:round;stroke-miterlimit:10;}
	.st37{fill:#32775B;}
	.st38{fill:none;stroke:#233764;stroke-width:0.5;stroke-linecap:round;stroke-linejoin:round;stroke-miterlimit:10;}
	.st39{fill:none;stroke:#408A6F;stroke-width:0.5;stroke-linecap:round;stroke-linejoin:round;stroke-miterlimit:10;}
	.st40{fill:#3643C3;}
	.st41{opacity:0.56;fill:url(#SVGID_1_);}
	.st42{opacity:0.52;fill:#FBC32E;}
	.st43{opacity:0.56;fill:url(#SVGID_2_);}
	.st44{fill:none;stroke:#EAE8F3;stroke-width:0.5;stroke-linecap:round;stroke-linejoin:round;stroke-miterlimit:10;}
	.st45{fill:#FEFFFD;}
	.st46{opacity:0.35;fill:#32775B;}
	.st47{fill:#43334E;}
	.st48{fill:none;stroke:#EAE8F3;stroke-width:0.25;stroke-linecap:round;stroke-linejoin:round;stroke-miterlimit:10;}
	.st49{fill:none;stroke:#FBC32E;stroke-width:0.5;stroke-linecap:round;stroke-linejoin:round;stroke-miterlimit:10;}
	.st50{font-family:'Poppins-Regular';}
	.st51{font-size:9.2703199px;}
	.st52{fill:none;stroke:#161718;stroke-width:0.5;stroke-linecap:round;stroke-linejoin:round;stroke-miterlimit:10;}
	.st53{fill:none;stroke:#40304A;stroke-linecap:round;stroke-linejoin:round;stroke-miterlimit:10;}
	.st54{opacity:0.33;fill:#FBC32E;}
	.st55{fill:#A6A3AE;}
	.st56{fill:#5B4B68;}
	.st57{fill:#776688;}
	.st58{fill:none;stroke:#FBC32E;stroke-width:0.5;stroke-miterlimit:10;}
	.st59{fill:none;stroke:#EAE8F3;stroke-linecap:round;stroke-linejoin:round;stroke-miterlimit:10;}
	.st60{fill:none;stroke:#203881;stroke-width:2;stroke-linecap:round;stroke-linejoin:round;stroke-miterlimit:10;}
	.st61{fill:none;stroke:#40304A;stroke-width:2;stroke-linecap:round;stroke-linejoin:round;stroke-miterlimit:10;}
	.st62{fill:#FFD8B7;}
	.st63{fill:#F4E4D4;}
	.st64{fill:none;stroke:#4456D6;stroke-width:0.5;stroke-linecap:round;stroke-linejoin:round;stroke-miterlimit:10;}
	.st65{fill:none;stroke:#DDA103;stroke-width:0.25;stroke-miterlimit:10;}
	.st66{fill:none;stroke:#FFFFFF;stroke-width:0.5;stroke-linecap:round;stroke-linejoin:round;stroke-miterlimit:10;}
	.st67{fill:none;stroke:#64B48D;stroke-width:0.5;stroke-linecap:round;stroke-linejoin:round;stroke-miterlimit:10;}
	.st68{fill:none;stroke:#64B48D;stroke-linecap:round;stroke-linejoin:round;stroke-miterlimit:10;}
	.st69{opacity:0.48;fill:#64B48D;}
	.st70{fill:none;stroke:#64B48D;stroke-width:0.25;stroke-linecap:round;stroke-linejoin:round;stroke-miterlimit:10;}
	.st71{fill:none;stroke:#F06449;stroke-width:2;stroke-linecap:round;stroke-linejoin:round;stroke-miterlimit:10;}
	.st72{opacity:0.92;fill:#64B48D;}
	.st73{opacity:0.57;fill:#408A6F;}
	.st74{opacity:0.36;fill:#408A6F;}
	.st75{fill:none;stroke:#BE412D;stroke-width:2;stroke-linecap:round;stroke-linejoin:round;stroke-miterlimit:10;}
	.st76{opacity:0.65;fill:none;stroke:#408A6F;stroke-width:0.25;stroke-linecap:round;stroke-linejoin:round;stroke-miterlimit:10;}
	.st77{opacity:0.67;fill:none;stroke:#64B48D;stroke-width:0.25;stroke-linecap:round;stroke-linejoin:round;stroke-miterlimit:10;}
	.st78{opacity:0.98;fill:#64B48D;}
	.st79{fill:none;stroke:#408A6F;stroke-width:0.25;stroke-linecap:round;stroke-linejoin:round;stroke-miterlimit:10;}
	.st80{fill:none;stroke:#FFD9B2;stroke-width:0.5;stroke-linecap:round;stroke-linejoin:round;}
	
		.st81{fill:none;stroke:#FFD9B2;stroke-width:0.5;stroke-linecap:round;stroke-linejoin:round;stroke-dasharray:4.0333505,4.0333505;}
	.st82{fill:#E68B4A;}
	.st83{opacity:0.62;fill:#64B48D;}
	.st84{fill:none;stroke:#FBC32E;stroke-width:0.25;stroke-miterlimit:10;}
	.st85{fill:none;stroke:#4456D6;stroke-linecap:round;stroke-linejoin:round;stroke-miterlimit:10;}
	.st86{fill:none;stroke:#E68B4A;stroke-width:0.5;stroke-linecap:round;stroke-linejoin:round;stroke-miterlimit:10;}
	.st87{fill:none;stroke:#203881;stroke-width:0.5;stroke-linecap:round;stroke-linejoin:round;stroke-miterlimit:10;}
	.st88{opacity:0.29;fill:#EAE8F3;}
	.st89{fill:none;stroke:#A6A3AE;stroke-width:0.5;stroke-linecap:round;stroke-linejoin:round;stroke-miterlimit:10;}
	.st90{opacity:0.74;fill:#FFFFFF;}
	.st91{opacity:0.19;fill:#FFFFFF;}
	.st92{fill:none;stroke:#40304A;stroke-width:0.25;stroke-linecap:round;stroke-linejoin:round;stroke-miterlimit:10;}
	.st93{fill:none;stroke:#F34B4B;stroke-width:2;stroke-linecap:round;stroke-linejoin:round;stroke-miterlimit:10;}
	.st94{fill:none;stroke:#43334E;stroke-width:0.5;stroke-linecap:round;stroke-linejoin:round;stroke-miterlimit:10;}
	.st95{fill:none;stroke:#6582FC;stroke-miterlimit:10;}
	.st96{opacity:0.47;fill:#A6A3AE;}
	.st97{opacity:0.43;fill:#FFFFFF;}
	.st98{fill:none;stroke:#FBE6BB;stroke-linecap:round;stroke-linejoin:round;stroke-miterlimit:10;}
	.st99{fill:none;stroke:#5B4B68;stroke-width:0.5;stroke-linecap:round;stroke-linejoin:round;stroke-miterlimit:10;}
	.st100{fill:none;stroke:#40304A;stroke-width:0.5;stroke-linecap:round;stroke-linejoin:round;stroke-miterlimit:10;}
	.st101{fill:none;stroke:#DDA103;stroke-linecap:round;stroke-linejoin:round;stroke-miterlimit:10;}
	.st102{fill:none;stroke:#FBC32E;stroke-linecap:round;stroke-linejoin:round;stroke-miterlimit:10;}
	.st103{fill:none;stroke:#32775B;stroke-width:0.5;stroke-linecap:round;stroke-linejoin:round;stroke-miterlimit:10;}
	.st104{opacity:0.4;fill:#FBE6BB;}
	.st105{fill:none;stroke:#FBC32E;stroke-width:0.25;stroke-linecap:round;stroke-linejoin:round;stroke-miterlimit:10;}
	.st106{fill:none;stroke:#4456D6;stroke-miterlimit:10;}
	.st107{opacity:0.61;fill:#64B48D;}
	.st108{opacity:0.9;fill:#64B48D;}
	.st109{opacity:0.76;fill:#64B48D;}
	.st110{fill:none;stroke:#5B4B68;stroke-width:0.5;stroke-miterlimit:10;}
	.st111{opacity:0.66;fill:#A6A3AE;}
	.st112{fill:none;stroke:#43334E;stroke-miterlimit:10;}
	.st113{opacity:0.52;fill:#6582FC;}
	.st114{fill:none;stroke:#DDA103;stroke-width:0.5;stroke-linecap:round;stroke-linejoin:round;stroke-miterlimit:10;}
	.st115{fill:#46724E;}
	.st116{fill:#FE8B2E;}
	.st117{fill:none;stroke:#7D4C47;stroke-width:2;stroke-linecap:round;stroke-linejoin:round;stroke-miterlimit:10;}
	.st118{opacity:0.4;fill:#EAE8F3;}
	.st119{fill:none;stroke:#EAE8F3;stroke-width:0.5;stroke-linecap:round;stroke-miterlimit:10;}
	.st120{fill:none;stroke:#4456D6;stroke-width:0.25;stroke-linecap:round;stroke-linejoin:round;stroke-miterlimit:10;}
	.st121{opacity:0.5;fill:#EAE8F3;}
	.st122{opacity:0.46;fill:#A6A3AE;}
	.st123{fill:#E0916E;}
	.st124{fill:none;stroke:#A0665A;stroke-linecap:round;stroke-linejoin:round;stroke-miterlimit:10;}
	.st125{opacity:0.46;fill:#BE412D;}
	.st126{fill:none;stroke:#203881;stroke-linecap:round;stroke-linejoin:round;stroke-miterlimit:10;}
	.st127{fill:#DBDBE1;}
	.st128{fill:none;stroke:#6582FC;stroke-width:0.5;stroke-linecap:round;stroke-linejoin:round;stroke-miterlimit:10;}
	.st129{opacity:0.53;fill:#A6A3AE;}
	.st130{fill:none;stroke:#DDA103;stroke-miterlimit:10;}
	.st131{opacity:0.2;fill:#FFFFFF;}
	.st132{fill:#B4A1BF;}
	.st133{opacity:0.5;fill:#6582FC;}
	.st134{opacity:0.6;fill:none;stroke:#FFFFFF;stroke-linecap:round;stroke-linejoin:round;stroke-miterlimit:10;}
	.st135{opacity:0.6;fill:none;stroke:#FFFFFF;stroke-width:2;stroke-linecap:round;stroke-linejoin:round;stroke-miterlimit:10;}
	.st136{opacity:0.54;fill:#A6A3AE;}
	.st137{fill:#161718;stroke:#000000;stroke-width:0.25;stroke-miterlimit:10;}
</style>
<g id="_x33_3">
	<g>
		<g>
			<path class="st25" d="M98.3539505,55.3775215c0.2816772-0.0522003,0.5482635-0.1538315,0.8202896-0.230648
				c0.0410843-0.0146599,0.0781708-0.0249519,0.1192474-0.039608c0.0619049-0.0157623,0.1277847-0.0358925,0.1899033-0.0474777
				c0.0579681-0.0113716,0.1159363-0.0227203,0.1738739-0.0340919l-0.1894379-1.2364388
				c-0.3329544,0.1928673-0.7125702,0.2919731-1.1000214,0.3203964c-0.0667267,0.0034523-0.1334763,0.0069084-0.2004166,0.0061836
				c-0.3428802,0.0009995-0.6804276-0.0568047-1.0111694-0.1442413c-0.0807571-0.0250969-0.1613007-0.0460205-0.2420578-0.0710945
				c-0.0467377-0.0143242-0.0557327-0.0263939-0.0877838,0.0003586c-0.0279083,0.026535-0.0457611,0.0859871-0.0651016,0.1162643
				c-0.0797958,0.154705-0.1554489,0.3091698-0.2267151,0.4675903c-0.0110092,0.0298462-0.0220032,0.0596924-0.0204926,0.0888939
				c0.0023804,0.0458717,0.0379105,0.0858421,0.0688095,0.1177101c0.0842133,0.0918198,0.1682129,0.179493,0.2603378,0.2625313
				c0.0002136,0.0041733,0.0002136,0.0041733,0.0002136,0.0041733c0.1320343,0.1269989,0.2759399,0.2408218,0.4433594,0.3241768
				C97.6257782,55.4486656,97.9897232,55.450737,98.3539505,55.3775215z"/>
			<path class="st24" d="M100.7162094,56.0122261c0.2682419,0.0112076,0.5529175-0.2251587,0.6938095-0.4122734
				c0.2819443-0.3700829,0.3947678-0.856842,0.3499603-1.3187523c-0.0450516-0.4660568-0.2435303-0.9074287-0.5219803-1.2777863
				c-0.166626-0.2297592-0.374115-0.4406586-0.6426849-0.5396805c-0.1876221-0.0697517-0.4095535-0.0749855-0.5933609,0.0098
				c-0.1141815,0.0560913-0.2176666,0.1576271-0.313446,0.2462273c-0.0318604,0.0309258-0.0597687,0.0574646-0.0878906,0.0798225
				c-0.2244949,0.1872826-0.3867188,0.4465904-0.468399,0.7268219c-0.0246658,0.0891113-0.0451508,0.1780014-0.0529327,0.2703972
				c-0.0539932,0.4920883,0.1270905,1.0013161,0.4358215,1.3909874c0.1475754,0.1847458,0.33181,0.3508492,0.5268478,0.4829597
				c0.0609894,0.0470238,0.1215439,0.085701,0.1862488,0.1241646c0.1250763,0.0729866,0.2766571,0.1738815,0.4164658,0.2084808
				C100.6701202,56.0104256,100.6953583,56.0133057,100.7162094,56.0122261z"/>
			<path class="st15" d="M108.5868225,54.1559181c-0.0303802,0.2352448-0.1593781,0.4401054-0.2883682,0.6450157
				c-0.2352448,0.3490906-0.5084305,0.6526108-0.8195877,0.9333839c-0.7816086,0.7057838-1.7377777,1.2218056-2.640831,1.7226334
				c-0.5312119,0.2959709-1.0851669,0.5539551-1.6847,0.6678047c-0.0227356,0-0.0455246,0.0075951-0.0758667,0.0075951
				c-0.0075912,0.0075989-0.022789,0.0075989-0.0379333,0.0075989c-0.2504349,0.0455284-0.5084686,0.0379333-0.7664566,0
				c-0.3794327-0.0607224-0.7436752-0.2125053-1.0320435-0.4856834c-0.4704895-0.440155-0.6829987-1.2672882-0.3187561-1.7985039
				c-0.5084229-0.3642387-0.8726654-0.9258347-0.9941101-1.548111c-0.1289902-0.6146774-0.0910568-1.3128166,0.2276993-1.8591766
				c-0.3187561-0.3870277-0.5084763-0.8879013-0.4856873-1.3887329c0.0227432-0.4932785,0.2655869-0.9865112,0.6678009-1.2900734
				c0.3414536-0.2655869,0.7664642-0.3566437,1.1914215-0.417366c0.0455322-0.0075989,0.0910645-0.0151939,0.1289978-0.022789
				c0.5615463-0.0530815,1.0093002-0.0758667,1.5708542-0.0758667c0.4325562,0,0.8650665,0.0151901,1.2976227,0.0607224
				c0,0,0,0,0.0075989,0c0.5540009,0.0455284,1.1079559,0.1441841,1.6543121,0.2883682
				c0.4174118,0.1138039,0.8575211,0.2731819,1.161087,0.5842934c0.3187027,0.311161,0.4704895,0.8195877,0.2579803,1.2066154
				c0.3946304,0.128994,0.7892532,0.4325562,0.8879089,0.8195839c0.0986557,0.4021721,0.1062012,0.8423271-0.1821213,1.1382942
				c0.0379333,0.0379333,0.0227432,0.128994,0.0606766,0.1593323
				C108.5564423,53.6626396,108.6247559,53.9206734,108.5868225,54.1559181z"/>
			<path class="st14" d="M108.5868225,54.1559181c-0.0303802,0.2352448-0.1593781,0.4401054-0.2883682,0.6450157
				c-0.2352448,0.3490906-0.5084305,0.6526108-0.8195877,0.9333839c-0.7816086,0.7057838-1.7377777,1.2218056-2.640831,1.7226334
				c-0.5312119,0.2959709-1.0851669,0.5539551-1.6847,0.6678047c-0.0227356,0-0.0455246,0.0075951-0.0758667,0.0075951
				c0.8651199-0.417366,1.6922531-0.9182396,2.5118332-1.4114723c0.5691528-0.3414993,1.138298-0.6905937,1.6391296-1.1231499
				c0.1897125-0.1669273,0.8954926-0.8423271,0.6071243-1.1382942c-0.0835114-0.0834618-0.2125015-0.0758667-0.3339005-0.0531273
				c-0.8423767,0.1366386-1.5784454,0.6678047-2.4283752,0.7740555c0.8043976-0.4401512,1.6239777-0.9030495,2.2310638-1.5935936
				c0.1441879-0.1669731,0.280777-0.3490944,0.3414993-0.5540009c0.0606689-0.2124557,0.0530777-0.4552994-0.0835114-0.6298218
				c-0.1745224-0.2352448-0.5008316-0.2959671-0.7967987-0.303566c-0.7891998-0.0379333-1.5556564,0.1669769-2.3373108,0.2200546
				c0.546402-0.1972656,1.0700226-0.4325104,1.5784454-0.7208824c0.280777-0.1593781,0.584343-0.3794327,0.5995331-0.7057838
				c0.0151443-0.1897163-0.0911026-0.3794327-0.2125015-0.5311661c-0.2504425-0.2959671-0.5994873-0.4932785-0.9485779-0.6602058
				c-0.2959671-0.1441879-0.5994873-0.2732277-0.9106445-0.3870277c0.5540009,0.0455284,1.1079559,0.1441841,1.6543121,0.2883682
				c0.4174118,0.1138039,0.8575211,0.2731819,1.161087,0.5842934c0.3187027,0.311161,0.4704895,0.8195877,0.2579803,1.2066154
				c0.3946304,0.128994,0.7892532,0.4325562,0.8879089,0.8195839c0.0986557,0.4021721,0.1062012,0.8423271-0.1821213,1.1382942
				c0.0379333,0.0379333,0.0227432,0.128994,0.0606766,0.1593323
				C108.5564423,53.6626396,108.6247559,53.9206734,108.5868225,54.1559181z"/>
		</g>
		<g>
			<path class="st21" d="M87.9988632,49.5192299c-0.0075912,0.1366348-0.0151901,0.2732239-0.0303802,0.4022179
				c-0.1062088,0.8043938-0.4856415,1.7605705-1.3280106,2.0413437c-0.1517334,0.0531273-0.3187103,0.0758667-0.4704895,0.1441879
				c-0.5084305,0.2049065-0.7664185,0.7664566-1.1838303,1.1231003c-0.4097672,0.3566895-0.9865112,0.4856834-1.5404663,0.4780884
				c-0.280777,0-0.5691452-0.0455284-0.8499222-0.0986557c-0.2580338-0.0531273-0.5084686-0.0758667-0.7588654-0.1441879
				c-0.3566895-0.0986557-0.6981812-0.2276497-1.0320358-0.3870277c-0.8347778-0.4021721-1.6239777-0.9637222-2.2841873-1.5708046
				c-0.4249649-0.3946228-0.8575211-0.8195839-1.1155548-1.3432007c-0.0531235-0.1138496-0.1062546-0.2352448-0.1517792-0.3642387
				c-0.0834656-0.2276993-0.151741-0.462944-0.1972656-0.7057838c0-0.0075493,0-0.0151482,0-0.0151482
				c-0.0379791-0.1973114-0.0607224-0.3946228-0.0683212-0.5843391c0-0.1593781,0.0151901-0.3187103,0.0531311-0.4780846
				c0.0607147-0.257988,0.1669235-0.5160217,0.3035126-0.7512703c0.045578-0.0910568,0.0911102-0.1745224,0.1441879-0.2504349
				c0.4780884-0.7436714,1.2369461-1.1610374,2.0717239-1.3886871c0.4097748-0.1214447,0.7133331-0.2201004,0.9713211-0.5767441
				c0.1441879-0.2049065,0.2580338-0.4249611,0.4022217-0.6222725c0.2959671-0.4022179,0.7057343-0.7057381,1.115509-1.0017052
				c0.1669693-0.1214447,0.3414917-0.2428398,0.5312119-0.3414955c0.6526108-0.3263054,1.4418564-0.2731819,2.1324005-0.0455322
				c0.7816544,0.2731819,1.403923,0.7285271,1.8819656,1.373539c0.0303879,0.0303383,0.0607224,0.0683212,0.0835114,0.1062546
				c0.0379333,0.0455284,0.0682755,0.1062508,0.1062088,0.1517792c0.0759125,0.1213989,0.1517792,0.2352486,0.2201004,0.3642426
				c0.3642349,0.6146774,0.637413,1.2369499,0.80439,1.9578781c0,0.0151443,0.0075989,0.0303383,0.0075989,0.0455284
				C87.9988632,47.8497658,88.0595856,48.6844978,87.9988632,49.5192299z"/>
			<path class="st20" d="M87.9988632,49.5192299c-0.0075912,0.1366348-0.0151901,0.2732239-0.0303802,0.4022179
				c-0.1062088,0.8043938-0.4856415,1.7605705-1.3280106,2.0413437c-0.1517334,0.0531273-0.3187103,0.0758667-0.4704895,0.1441879
				c-0.5084305,0.2049065-0.7664185,0.7664566-1.1838303,1.1231003c-0.4097672,0.3566895-0.9865112,0.4856834-1.5404663,0.4780884
				c-0.280777,0-0.5691452-0.0455284-0.8499222-0.0986557c-0.2580338-0.0531273-0.5084686-0.0758667-0.7588654-0.1441879
				c-0.3566895-0.0986557-0.6981812-0.2276497-1.0320358-0.3870277c-0.8347778-0.4021721-1.6239777-0.9637222-2.2841873-1.5708046
				c-0.4249649-0.3946228-0.8575211-0.8195839-1.1155548-1.3432007c-0.0531235-0.1138496-0.1062546-0.2352448-0.1517792-0.3642387
				c-0.0834656-0.2276993-0.151741-0.462944-0.1972656-0.7057838c0-0.0075493,0-0.0151482,0-0.0151482
				c-0.0379791-0.1973114-0.0607224-0.3946228-0.0683212-0.5843391c0-0.1593781,0.0151901-0.3187103,0.0531311-0.4780846
				c0.0607147-0.257988,0.1669235-0.5160217,0.3035126-0.7512703c-0.0606766,0.7512703,0.1214447,1.525322,0.4705353,2.2007217
				c0.5311737,1.0244484,1.4266205,1.8288422,2.4055862,2.4359207c0.7360764,0.4553452,1.5708542,0.8271828,2.4359207,0.8043938
				c0.8651123-0.0227432,1.7681656-0.5160217,2.0489426-1.3356056c0.0910568-0.2731819,0.1365891-0.5918884,0.3718338-0.7588654
				c0.3263474-0.2352448,0.7740555,0.0151939,1.1838226,0.0379829c0.6905899,0.0455284,1.267334-0.5995331,1.4494553-1.2749329
				c0.1745224-0.6753502,0.0758667-1.3886833,0.0910568-2.0868721c0-0.0834656,0.0075989-0.1669273,0.0151978-0.2503929
				C87.9988632,47.8497658,88.0595856,48.6844978,87.9988632,49.5192299z"/>
			<path class="st25" d="M80.4770126,45.2082253c-0.3479843-0.437397-0.5117722-1.0198441-0.4292908-1.5726585
				c0.0824738-0.5528145,0.4137573-1.0663376,0.8905487-1.3580132c0.2323532-0.1421356,0.4922943-0.2313385,0.7450256-0.3329124
				c0.3063049-0.1231041,0.6047592-0.2657433,0.892952-0.4267578c-0.2572556,0.3486862-0.2724152,0.8155518-0.2538376,1.2484665
				c0.0185852,0.4329147,0.0571671,0.88591-0.1191559,1.2817268c-0.1378098,0.3093414-0.3967285,0.5523338-0.6867523,0.727169
				c-0.2900314,0.1748314-0.6123276,0.2879181-0.9328995,0.3971024
				C80.5351028,45.1888657,80.526413,45.1946182,80.4770126,45.2082253z"/>
			<path class="st0" d="M78.4973373,45.0145378c0.2356415,0.0234489,0.4651337,0.093338,0.6898956,0.1691589
				c0.4982376,0.1698875,0.9921188,0.3825188,1.3850632,0.7326012c0.2192764,0.1957588,0.4007034,0.4298134,0.5824661,0.6612854
				l0.244812-0.2823296c-0.1141663-0.2066994-0.2397385-0.4071045-0.3813171-0.59515
				c-0.1968155-0.2662659-0.4202499-0.5098381-0.6757355-0.7196121c-0.4364243-0.3584824-0.9667664-0.6127014-1.52771-0.6859818
				c-0.0412445-0.0054703-0.085434-0.0087471-0.1242523,0.007103c-0.0318832,0.0128098-0.0573959,0.0369682-0.0817947,0.0625916
				c-0.0940018,0.0950623-0.1853943,0.1904984-0.2794037,0.2855606c0.0425873,0.1040688,0.0895538,0.2047844,0.1390762,0.3058128
				C78.4778214,44.973896,78.4868317,44.9947624,78.4973373,45.0145378z"/>
		</g>
		<g>
			<g>
				<g>
					<path class="st11" d="M117.8126984,24.020237c-0.0396881,0.1427288-0.0873108,0.2855053-0.1506195,0.4282341
						c-0.2220535,0.5233402-0.586792,0.9991512-1.0626526,1.4035263c-0.3329849,0.2775688-0.7294693,0.5392628-1.1656418,0.7453938
						c-0.9515305,0.4837494-2.133049,0.800909-3.4733124,0.9595127c-1.4351349,0.1586037-3.0607605,0.1268539-4.7578278-0.1268539
						c-0.9039001-0.1269016-1.8316116-0.3172073-2.7753983-0.5789013c-2.814888-0.7533321-5.2731781-1.9665527-7.0573654-3.3701267
						c-1.8159332-1.4035263-2.9656982-3.0053425-3.1480713-4.5278339c-0.0555573-0.4440613-0.0317459-0.8881226,0.0873108-1.3084202
						c0.0474319-0.1586037,0.1029968-0.3172073,0.1744308-0.4678745c1.1180191-2.5137043,5.3682404-3.6793489,10.371933-2.9736414
						c0.9279022,0.13484,1.8794327,0.3251457,2.8468323,0.5868397c4.6151428,1.2607965,8.2470169,3.7110987,9.6188354,6.224803
						C117.8918762,22.0299206,118.07444,23.0607719,117.8126984,24.020237z"/>
				</g>
				<path class="st13" d="M117.8126984,24.020237c-0.0396881,0.1427288-0.0873108,0.2855053-0.1506195,0.4282341
					c-0.2220535,0.5233402-0.586792,0.9991512-1.0626526,1.4035263c-0.3329849,0.2775688-0.7294693,0.5392628-1.1656418,0.7453938
					c-0.9515305,0.4837494-2.133049,0.800909-3.4733124,0.9595127c-1.4351349,0.1586037-3.0607605,0.1268539-4.7578278-0.1268539
					l-7.2476654-9.6108513l4.9005051-3.6159468c0.9279022,0.13484,1.8794327,0.3251457,2.8468323,0.5868397
					c4.6151428,1.2607965,8.2470169,3.7110987,9.6188354,6.224803
					C117.8918762,22.0299206,118.07444,23.0607719,117.8126984,24.020237z"/>
				<g>
					<path class="st40" d="M117.6620789,24.4484711c-0.2220535,0.5233402-0.586792,0.9991512-1.0626526,1.4035263
						c-0.3329849,0.2775688-0.7294693,0.5392628-1.1656418,0.7453938c-0.9515305,0.4837494-2.133049,0.800909-3.4733124,0.9595127
						c-2.2042923,0.2458191-4.829071,0.0396385-7.533226-0.7057552c-2.814888-0.7533321-5.2731781-1.9665527-7.0573654-3.3701267
						c-1.8159332-1.4035263-2.9656982-3.0053425-3.1480713-4.5278339c-0.0555573-0.4440613-0.0317459-0.8881226,0.0873108-1.3084202
						c0.0474319-0.1586037,0.1029968-0.3172073,0.1744308-0.4678745c0.4280472-0.0396385,0.8721542-0.0634022,1.3242035-0.079277
						c3.0053864-0.0951538,6.3834534,0.3013325,9.856575,1.2449703c4.2504044,1.1656437,7.9693985,2.9736404,10.7447968,5.0750332
						C116.8452988,23.7506542,117.2655945,24.0916252,117.6620789,24.4484711z"/>
				</g>
				<g>
					<path class="st11" d="M121.2542572,33.3614578c-0.8644028,3.1718826-4.6786423,5.1463737-9.8091431,5.5745583
						c-3.3145599,0.2855072-7.1843643-0.079277-11.1650925-1.1656418
						c-10.1657486-2.7753983-17.2548599-9.2539577-15.8276672-14.4717197
						c0.1903076-0.6978188,0.5234833-1.3480606,0.9912109-1.9189758c1.8000641-2.2679348,5.5271835-3.5921822,10.1421356-3.7428493
						c1.3876953-0.047575,2.8468323,0.0079384,4.369278,0.1823692c1.7683029,0.1982422,3.6080551,0.5471516,5.4793549,1.0626011
						c4.2583466,1.1577549,7.9773331,2.9736423,10.7447968,5.0750332c0.5550385,0.4202499,1.0705872,0.8405476,1.5543823,1.2925472
						C120.5642853,27.8582363,121.9678574,30.7684269,121.2542572,33.3614578z"/>
				</g>
				<path class="st13" d="M121.2542572,33.3614578c-0.8644028,3.1718826-4.6786423,5.1463737-9.8091431,5.5745583
					L93.8412018,22.0774956l6.1137772-4.258297c1.7683029,0.1982422,3.6080551,0.5471516,5.4793549,1.0626011
					c4.2583466,1.1577549,7.9773331,2.9736423,10.7447968,5.0750332c0.5550385,0.4202499,1.0705872,0.8405476,1.5543823,1.2925472
					C120.5642853,27.8582363,121.9678574,30.7684269,121.2542572,33.3614578z"/>
				<g>
					<path class="st34" d="M127.8198929,42.0127487c0,0.0079384,0,0.0079384,0,0.0158768
						c-0.396492,1.4669762-1.5541992,2.6485443-3.3145676,3.5366669c-2.4739685,0.7374573-6.1852112,0.9277611-10.6416092,0.5709152
						c-4.6389542-0.372673-10.0865631-1.3401222-15.8117905-2.9022522
						c-8.3105164-2.2758217-15.4867477-5.3367271-20.1018906-8.3420715
						c-1.6176987-1.0546646-2.9260178-2.1013908-3.8539276-3.1084309c-1.0624542-1.6573315-1.4668808-3.2670364-1.0545197-4.7419987
						c0.27742-1.0229149,0.9197769-1.903101,1.8792419-2.6405582h0.0079346c0,0,0,0,0.0079422-0.0079384
						c3.3306274-2.5612812,10.4118042-3.4177036,18.9044952-2.3154621c3.0133286,0.3885479,6.2088318,1.0229149,9.4759598,1.9189758
						c8.6988678,2.3789139,16.0338516,6.0662003,20.3793182,9.8724976c0.1903076,0.1664925,0.372673,0.3330345,0.5550385,0.4995766
						C127.090416,37.0091057,128.4463654,39.6893501,127.8198929,42.0127487z"/>
				</g>
				<path class="st6" d="M124.2515182,34.3685455c-3.5761108,4.0520706-7.1921082,8.1437798-10.3878021,11.767662
					c-4.6389542-0.372673-10.0865631-1.3401222-15.8117905-2.9022522
					c-8.3105164-2.2758217-15.4867477-5.3367271-20.1018906-8.3420715
					c3.9886627-3.2115211,9.9597549-8.0327988,15.8911667-12.8143883c3.0133286,0.3885479,6.2088318,1.0229149,9.4759598,1.9189758
					c8.6988678,2.3789139,16.0338516,6.0662003,20.3793182,9.8724976
					C123.8867874,34.0354614,124.0691528,34.2020035,124.2515182,34.3685455z"/>
				<g>
					<path class="st11" d="M127.7766571,43.0613976c-0.3075562,1.1247177-1.4586563,1.9624863-3.2702942,2.5016518
						c-5.0509949,1.5086136-15.2266083,0.7445145-26.4527206-2.3253288
						c-11.226181-3.0698624-20.3746109-7.5900307-23.9550858-11.4589653
						c-1.2851868-1.3860073-1.8498688-2.6929665-1.542305-3.8176861c0.0901184-0.329567,0.2520523-0.6338692,0.4805679-0.9143372
						c2.7572479-3.3391151,15.1706009-3.1100101,29.2425156,0.7380314
						c14.0562057,3.8437481,24.855011,9.9565086,25.5465927,14.2330971
						C127.8851547,42.3770142,127.8682175,42.726593,127.7766571,43.0613976z"/>
				</g>
				<g>
					<path class="st6" d="M125.7589035,42.5096321c-0.2604675,0.9525108-1.303978,1.6432343-2.9621506,2.0659561
						c-4.623024,1.1831779-14.0139084,0.3246155-24.4196167-2.5208817
						c-10.4057693-2.8455162-18.9267273-6.8850479-22.3043823-10.2560539
						c-1.2123337-1.2076817-1.7592163-2.3333054-1.4987488-3.2858162c0.0763245-0.279108,0.2193222-0.5352135,0.4241562-0.7696495
						c2.4724045-2.7903042,13.9141312-2.3422375,26.9576721,1.2245903
						c13.0289764,3.5628471,23.1029434,8.9935989,23.8272171,12.653286
						C125.8449326,41.9284325,125.836441,42.2260895,125.7589035,42.5096321z"/>
				</g>
				<g>
					
						<rect x="78.6721802" y="25.0083904" transform="matrix(0.4894861 -0.8720111 0.8720111 0.4894861 13.0748072 85.097084)" class="st11" width="1.085149" height="12.7471619"/>
				</g>
				<g>
					<path class="st11" d="M87.6375351,34.6625519c-2.3264618-3.4270515-5.8519821-8.6122932-6.0299835-8.8498459
						l0.8367844-0.6897526c0.1100235,0.1267204,3.3727798,4.9265957,6.0905228,8.9306393L87.6375351,34.6625519z"/>
				</g>
				<g>
					
						<rect x="96.2627563" y="32.4545021" transform="matrix(0.2881816 -0.9575758 0.9575758 0.2881816 40.2810059 120.1816177)" class="st11" width="9.4301643" height="1.0844707"/>
				</g>
				<g>
					
						<rect x="110.4696655" y="37.4570656" transform="matrix(0.9338968 -0.3575427 0.3575427 0.9338968 -5.9082055 44.0423203)" class="st11" width="11.3709936" height="1.0848215"/>
				</g>
				<g>
					
						<rect x="120.2054138" y="36.565136" transform="matrix(0.0399374 -0.9992022 0.9992022 0.0399374 73.4256516 161.4866791)" class="st11" width="1.0849394" height="11.9373503"/>
				</g>
				<g>
					<path class="st40" d="M117.0442276,42.915226c-0.1373215,0.5021744-0.5371628,0.9157448-1.1637878,1.2335358
						l-0.3668747,0.1695366l-2.4751053,1.1560669l-1.7838516-0.4878044
						c-3.45755,0.0609398-8.1322861-0.5876884-13.1437454-1.9580994s-9.3710632-3.1922722-12.3164215-5.0041237
						l-1.3182678-0.3604889l-1.6116714-1.9193382l-0.0218887-0.0228653
						c-0.1349411-0.1437645-0.2527466-0.2884674-0.3601608-0.4302597l-0.0128479-0.0147667
						c-0.5408325-0.7157593-0.7682114-1.385128-0.6051331-1.9814911c0.7438507-2.7201939,9.2190552-2.769598,18.9385834-0.1117401
						C110.5173416,35.8398132,117.7880783,40.1950302,117.0442276,42.915226z"/>
				</g>
				<g>
					
						<ellipse transform="matrix(0.2637712 -0.9645853 0.9645853 0.2637712 32.6096115 125.8649139)" class="st11" cx="98.7570572" cy="41.5703812" rx="4.1422544" ry="14.8042994"/>
				</g>
				<path class="st6" d="M111.2540741,44.9893036c-0.0222244,0.0518074-0.0369949,0.0962105-0.0592194,0.1480179
					c-0.7696152,1.5688705-6.593689,1.3912659-13.2910309-0.4440498c-6.8675003-1.8796692-12.0699615-4.7954063-11.64814-6.5196991
					c0.0074081-0.0147705,0.0074081-0.0221786,0.0074081-0.0221786c0.0813904-0.3108482,0.3478394-0.5624352,0.7696228-0.7474442
					c1.9018936-0.8658257,6.9267502-0.4958076,12.5805817,1.0508385c5.6464691,1.5392838,10.1607056,3.7815628,11.3595581,5.4910431
					C111.2392578,44.3232574,111.3428726,44.6710968,111.2540741,44.9893036z"/>
				<g>
					
						<ellipse transform="matrix(0.2637712 -0.9645853 0.9645853 0.2637712 33.6539536 125.4416122)" class="st34" cx="99.0019226" cy="40.6745949" rx="2.3048825" ry="12.4084387"/>
				</g>
				
					<linearGradient id="SVGID_1_" gradientUnits="userSpaceOnUse" x1="86.2317429" y1="41.5744629" x2="111.2851791" y2="41.5744629">
					<stop  offset="0" style="stop-color:#FFFFFF;stop-opacity:0"/>
					<stop  offset="1" style="stop-color:#FBE6BB"/>
				</linearGradient>
				<path class="st41" d="M111.2540741,44.9893036c-0.0222244,0.0518074-0.0369949,0.0962105-0.0592194,0.1480179
					c-0.7696152,1.5688705-6.593689,1.3912659-13.2910309-0.4440498c-6.8675003-1.8796692-12.0699615-4.7954063-11.64814-6.5196991
					c0.0074081-0.0147705,0.0074081-0.0221786,0.0074081-0.0221786c0.0813904-0.3108482,0.3478394-0.5624352,0.7696228-0.7474442
					c1.9018936-0.8658257,6.9267502-0.4958076,12.5805817,1.0508385c5.6464691,1.5392838,10.1607056,3.7815628,11.3595581,5.4910431
					C111.2392578,44.3232574,111.3428726,44.6710968,111.2540741,44.9893036z"/>
			</g>
			<circle class="st6" cx="87.0245819" cy="33.6918564" r="1.1189848"/>
			<circle class="st6" cx="95.9702072" cy="34.3637466" r="1.1189848"/>
			<circle class="st6" cx="104.3627014" cy="36.6587219" r="1.1189848"/>
			<circle class="st6" cx="112.2020721" cy="40.5767784" r="1.1189848"/>
		</g>
		<path class="st25" d="M91.755249,60.0902328c0.0303345,1.4570045-0.1214447,2.9140053-0.2732315,4.3634644
			c-0.0986557,0.9561234-0.2427902,1.9350891-0.7436676,2.7546234c-0.5008316,0.8195877-1.3887329,1.4570541-2.3448639,1.441864
			l-1.1686783-1.1079559c-0.2049026-0.7133331-0.6981354-1.2976303-1.2141571-1.8288422
			c-0.5236206-0.5312119-1.0851669-1.0244446-1.6771088-1.4721985c-0.781601-0.5994835-1.6239777-1.1155052-2.5118332-1.5556564
			c0.720932-0.6753998,1.0624313-1.7302322,0.8575211-2.7015533c1.2976685,0.9106445,3.0126648,1.0699768,4.5607758,0.7436714
			c0.4249573-0.0910606,0.8347321-0.2124557,1.2369461-0.3566437c1.0775757-0.3946228,2.0944748-0.9561729,3.080986-1.555706
			C91.7172699,59.2175217,91.7400589,59.6576729,91.755249,60.0902328z"/>
		<path class="st24" d="M91.755249,60.0902328c0.0303345,1.4570045-0.1214447,2.9140053-0.2732315,4.3634644
			c-0.0986557,0.9561234-0.2427902,1.9350891-0.7436676,2.7546234c-0.5008316,0.8195877-1.3887329,1.4570541-2.3448639,1.441864
			l-1.1686783-1.1079559c-0.2049026-0.7133331-0.6981354-1.2976303-1.2141571-1.8288422
			c-0.5236206-0.5312119-1.0851669-1.0244446-1.6771088-1.4721985c1.2748871,0.561554,2.4435654,1.3659439,3.4224854,2.3524551
			c-0.1213989-0.2731781-0.022789-0.6222229,0.220047-0.7967911c0.2504425-0.1745224,0.6146774-0.1441879,0.8271866,0.0607224
			c-0.5767441-0.561554-0.9941101-1.3356094-0.97892-2.1400032c0.0151443-0.80439,0.5160217-1.6239777,1.2824326-1.8743668
			c-0.4249573-0.3490944-0.6450119-0.9182434-0.6298218-1.4721985c1.0775757-0.3946228,2.0944748-0.9561729,3.080986-1.555706
			C91.7172699,59.2175217,91.7400589,59.6576729,91.755249,60.0902328z"/>
		<path class="st17" d="M94.3126144,63.8238258c0.3490448,0.1062508,0.5918884,0.409771,0.7588577,0.7284813
			c0.6298218,1.1686783,0.4932327,2.7015915-0.3263016,3.7412338c-0.8195877,1.0396347-2.2841873,1.5252762-3.5666656,1.1838226
			c0.0303345,0.0531235,0.0455322,0.1062088,0.0607224,0.1669235c0.1138,0.4325638-0.1290436,0.9333878-0.5388107,1.1306992
			c-0.4704895,0.2201004-1.0624237,0.0607224-1.4114761-0.3187027c-0.0379791,0.4628906-0.4553452,0.8347244-0.9106445,0.9106445
			c-0.4553452,0.0758667-0.9333878-0.1062546-1.2824783-0.4098206c-0.3794327-0.3187103-0.584343-0.7133331-0.7740555-1.1534424
			c-0.1897125-0.4325562-0.4932327-0.7588577-0.5463562-1.2597351c-0.0531311-0.4628983,0.1062012-0.9561768,0.4704895-1.2520981
			c0.2959671-0.2352448,0.6905441-0.3187561,1.0699768-0.3263016c0.7209244-0.0151978,1.4418564,0.2124557,2.0261993,0.6374207
			c-0.1745758-0.2200546-0.3490982-0.440155-0.4250107-0.7057419c-0.0758667-0.2655792-0.0227432-0.5918884,0.1973114-0.7588654
			c0.2959671-0.220047,0.7057343-0.0834579,1.0396423,0.0607224c-0.7208862-0.4173584-1.2900314-1.1231461-1.4646072-1.9426804
			c-0.1821136-0.8119926,0.0455322-1.7226372,0.6450653-2.3069763c0.394577-0.394577,0.9561768-0.6222725,1.5101318-0.6298218
			c-0.3187103-0.0835114-0.6222763-0.2201004-0.8651199-0.43256C89.5241852,60.5,89.3572159,59.7183495,89.7973709,59.3085785
			c0.1897125-0.1745224,0.4628906-0.2428398,0.7285233-0.2504349c-0.3187561-0.0379333-0.6222763-0.2124596-0.8195877-0.4552994
			c-0.2352448-0.303566-0.3187103-0.7133331-0.2201004-1.0851707c0.0835114-0.3111572,0.2883759-0.5615501,0.5464096-0.7588615
			c0.2580338-0.2049065,0.5843353-0.3490944,0.8954468-0.440155c0.8195877-0.2504349,1.699852-0.265583,2.5270309-0.0607224
			c0.5463562,0.1365929,1.1079102,0.3946266,1.3962784,0.8803101c0.2580338,0.4249611,0.2732315,0.9637222,0.1669769,1.4494057
			c-0.1365891,0.6070824-0.4553452,1.1686783-0.8954544,1.6087875c0.5994873-0.1593323,1.2672882,0.1593781,1.5859985,0.6905899
			c0.3187561,0.5312157,0.2959671,1.2293549,0.0075989,1.7833099C95.4281158,63.2167435,94.896904,63.6189156,94.3126144,63.8238258
			z"/>
		<path class="st42" d="M89.6911163,67.2538986c-0.0607224,0.538765,0.417366,0.9637222,0.8499222,1.2900314
			c-0.5236206-0.2428436-1.1079102-0.3187103-1.6846542-0.3414536c-0.5312119-0.022789-1.9350891-0.0455704-1.9882202,0.7436752
			c-0.0151901,0.2049026,0.0758743,0.4021683,0.17453,0.5843353c0.2655792,0.4780426,0.6905441,0.9257965,1.2293549,0.97892
			c0.546402,0.0531235,1.1231003-0.4932785,0.9258347-1.001709c0.1821213,0.4022217,0.561554,0.7664642,1.0016556,0.7512665
			c0.4477539-0.0075912,0.8271866-0.5615463,0.5691528-0.91819c0.1669693,0.0834656,0.3263474,0.1821213,0.4705353,0.3035126
			c0.1138,0.4325638-0.1290436,0.9333878-0.5388107,1.1306992c-0.4704895,0.2201004-1.0624237,0.0607224-1.4114761-0.3187027
			c-0.0379791,0.4628906-0.4553452,0.8347244-0.9106445,0.9106445c-0.4553452,0.0758667-0.9333878-0.1062546-1.2824783-0.4098206
			c-0.3794327-0.3187103-0.584343-0.7133331-0.7740555-1.1534424c-0.1897125-0.4325562-0.4932327-0.7588577-0.5463562-1.2597351
			c-0.0531311-0.4628983,0.1062012-0.9561768,0.4704895-1.2520981c0.2959671-0.2352448,0.6905441-0.3187561,1.0699768-0.3263016
			c0.7209244-0.0151978,1.4418564,0.2124557,2.0261993,0.6374207c-0.1745758-0.2200546-0.3490982-0.440155-0.4250107-0.7057419
			c-0.0758667-0.2655792-0.0227432-0.5918884,0.1973114-0.7588654c0.2959671-0.220047,0.7057343-0.0834579,1.0396423,0.0607224
			c-0.7208862-0.4173584-1.2900314-1.1231461-1.4646072-1.9426804c-0.1821136-0.8119926,0.0455322-1.7226372,0.6450653-2.3069763
			c0.394577-0.394577,0.9561768-0.6222725,1.5101318-0.6298218c-0.3187103-0.0835114-0.6222763-0.2201004-0.8651199-0.43256
			C89.5241852,60.5,89.3572159,59.7183495,89.7973709,59.3085785c0.1897125-0.1745224,0.4628906-0.2428398,0.7285233-0.2504349
			c-0.3187561-0.0379333-0.6222763-0.2124596-0.8195877-0.4552994c-0.2352448-0.303566-0.3187103-0.7133331-0.2201004-1.0851707
			c0.0835114-0.3111572,0.2883759-0.5615501,0.5464096-0.7588615c-0.0075989,0.3870277,0.1138458,0.7816048,0.3339005,1.1155052
			c0.3794327,0.5767441,1.0017014,0.9637718,1.639122,1.2293549c-0.3642426,0.0986557-0.7284775,0.2352448-1.0623779,0.4022217
			c-0.2276535,0.1138-0.4704971,0.2883682-0.4704971,0.5463562c-0.0075912,0.1365929,0.0758743,0.2656326,0.151741,0.3718834
			c0.4477463,0.6298218,1.0700226,1.1382942,1.7757568,1.4418106c-0.5312119,0.0075989-1.0548325,0.1138496-1.5480652,0.311161
			c-0.3035583,0.1213989-0.6071243,0.2883263-0.80439,0.54636c-0.3187561,0.4097672-0.3263092,0.9865112-0.1669769,1.4797897
			c0.303566,0.9409866,1.1231079,1.6011887,1.9047546,2.200676c-0.417366-0.0530777-0.8499222-0.1138-1.2596893-0.0075531
			C90.1160736,66.5101852,89.7290497,66.8288956,89.6911163,67.2538986z"/>
		<path class="st24" d="M81.2624359,62.0859413c-0.0731659-0.6865883,0.1139603-1.3969612,0.5169983-1.9626656
			c0.1360092-0.1908989,0.3336487-0.3818054,0.5700378-0.3613777c0.1609802,0.013916,0.2971115,0.1261444,0.3917007,0.2547722
			c0.1969757,0.2678566,0.2552185,0.6157951,0.2225571,0.9445877c-0.0326691,0.3287964-0.1489029,0.6436234-0.2745819,0.9500771
			c-0.0952454,0.2322388-0.2030487,0.4710007-0.3983841,0.6319618
			C81.8478928,62.9082375,81.3169861,62.5978355,81.2624359,62.0859413z"/>
		<linearGradient id="SVGID_2_" gradientUnits="userSpaceOnUse" x1="84.8348312" y1="87.9778824" x2="84.8348312" y2="38.1735725">
			<stop  offset="0" style="stop-color:#FFFFFF;stop-opacity:0"/>
			<stop  offset="1" style="stop-color:#FBE6BB"/>
		</linearGradient>
		<path class="st43" d="M111.1948547,45.1373215c-6.9193039,17.8792114-8.3402023,42.8405609-8.3402023,42.8405609
			L58.4748039,71.386322c16.9985695-7.5409508,27.455265-32.4430847,27.78088-33.2127495
			c-0.4218216,1.7242928,4.7806396,4.6400299,11.64814,6.5196991
			C104.6011658,46.5285873,110.4252396,46.706192,111.1948547,45.1373215z"/>
		<path class="st44" d="M33.3109322,93.2852249c-0.2375412-6.0949402,1.9304352-12.251442,5.9345779-16.8526993"/>
		<path class="st0" d="M71.8324203,67.0127411l-0.8806458,1.7760544l0.4588165,2.7825394l0.0666275,0.4070053l-1.5244675,2.1609344
			l-5.7205048,9.0728302c-0.7178078,1.213623-2.2274628,1.7168427-3.5299301,1.1766281l-8.7694359-3.6187744l-0.6438255-0.6882324
			l-2.0572739-2.1904678l-1.4430771-1.5466919c-1.1988525-0.9398651-1.3616829-2.6937408-0.3552017-3.8481903
			c0.1997795-0.2220001,0.4217796-0.3996048,0.6660042-0.5402145c0.2590408-0.1554184,0.5402565-0.2960281,0.8362427-0.3182068
			c0.9176369-0.074028,1.5762787,0.2294083,2.5753059,1.0434265l9.5982704,6.5715103l5.3356667-6.926712l0.0295868-0.0443954
			l0.1257935-0.2146454l-0.1627884-4.4475632c-0.0074081-0.266449,0.1850052-0.5032196,0.429184-0.5476685
			c0.2294159-0.0517578,0.4514618,0.0518112,0.5698471,0.2368164c0.0295792,0.0370407,0.0518036,0.0814438,0.0666199,0.1184311
			l0.4440002,1.3616409l2.6937408-2.6419296c0.3182068-0.3182068,0.8288345-0.2738113,1.1026459,0.0592117
			c0.0074005,0.0296326,0.0369873,0.0518112,0.0443954,0.0666275C71.928627,66.4947052,71.9434433,66.7685165,71.8324203,67.0127411
			z"/>
		<path class="st1" d="M71.4772186,71.9783401l-1.5244675,2.1609344l-5.7205048,9.0728302
			c-0.7178078,1.213623-2.2274628,1.7168427-3.5299301,1.1766281l-8.7694359-3.6187744l-0.6438255-0.6882324l1.7020683-0.8288345
			l7.7284126,3.5026169c0.8018227,0.3634033,1.7471123,0.1325226,2.2897644-0.5606613
			c2.0332642-2.5973053,6.8412628-8.728363,8.4012909-10.6235123L71.4772186,71.9783401z"/>
		<g>
			<polygon class="st0" points="63.2197189,135.4757843 59.552494,135.687851 58.457428,133.1965942 58.4777718,132.4046326 
				58.5501938,129.0834351 62.4123344,129.0643158 62.7067451,131.414093 			"/>
			<path class="st1" d="M62.7067451,131.414093c0,0-2.534008,0.6266327-4.2289734,0.9905396l0.072422-3.3211975l3.8621407-0.0191193
				L62.7067451,131.414093z"/>
			<g>
				<path class="st35" d="M57.6977234,135.9006042l8.7631226,0.9442291l0.0425415-0.3948517
					c0.487915,0.3100586,0.9750443,0.621521,1.4457169,0.9570007c0.1958008,0.1396179,0.3940887,0.2852936,0.5299454,0.4836578
					c0.227829,0.3327484,0.1684875,0.7881775-0.1138992,1.074585c-0.2416687,0.2453156-0.610611,0.3041687-0.9535065,0.3366699
					c-1.4068604,0.1329346-2.8833694,0.022583-4.1267357-0.6489258c-0.409687-0.2212982-0.7894974-0.500885-1.2210693-0.6754608
					c-0.702713-0.2843018-1.4920807-0.2691803-2.240612-0.1500397c-0.4492264,0.0714417-0.9028893,0.1790161-1.3538094,0.1192169
					c-0.4508286-0.0598602-0.9106331-0.3361664-1.0238457-0.7767334c-0.0545692-0.2122498-0.0233727-0.4377747,0.0349808-0.6490631
					C57.5383186,136.3121033,57.6162148,136.1056519,57.6977234,135.9006042z"/>
				<path class="st7" d="M60.3536644,132.8516998c0.1364021,0.4497986,0.2728004,0.8995819,0.4092026,1.3493805
					c-0.4222755,0.2250061-0.9478836,0.2452545-1.3862228,0.0534363c-0.4768562-0.2086792-0.7753906-0.5641174-0.9226913-1.0599213
					c0.0028992,0.0999756-0.0129852,0.1995087-0.0315781,0.2977753c-0.0905037,0.4783478-0.2812958,0.8937378-0.4452515,1.3459473
					c-0.1430588,0.3945923-0.3319969,0.7926025-0.444397,1.1989136c-0.058445,0.2112732-0.0895691,0.4368134-0.0350113,0.6491241
					c0.1132088,0.4405365,0.572937,0.7168579,1.0238304,0.7767029c0.4508972,0.059845,0.9045868-0.0477142,1.3537827-0.1192017
					c0.7485275-0.1191101,1.5379562-0.134201,2.2405891,0.1500244c0.4316177,0.1745911,0.811451,0.4541779,1.2211075,0.6754456
					c1.243351,0.6715698,2.7198982,0.7818909,4.1267509,0.6488953c0.3428421-0.0324097,0.7117844-0.0913239,0.9535294-0.3365784
					c0.282341-0.2864532,0.3417282-0.7418823,0.1138535-1.0746002c-0.1358795-0.1983795-0.3341064-0.344101-0.5299225-0.4836578
					c-0.6113739-0.4357452-1.2377853-0.8503876-1.8777466-1.2429504c-0.7948456-0.4875641-1.6276321-0.9551239-2.2311783-1.6659393
					c-0.290554-0.3421936-0.5183258-0.7314301-0.7175674-1.1322784c-0.1600761-0.322052-0.168335-0.914856-0.6446228-0.7942505
					C61.7966194,132.2737122,61.0920715,132.6497955,60.3536644,132.8516998z"/>
				<path class="st18" d="M60.7712975,134.201004c0.1716728,0.3604736,0.4115448,0.688324,0.7031517,0.9610443"/>
			</g>
			<path class="st11" d="M63.4478149,131.3735199l-5.7056351,0.3256226l-2.0573196-13.3502121l-1.1544533-7.4669724
				l-2.3828888-2.0350952l-0.9768486-0.8288345l-3.6631813-3.1303253c-1.1840363-0.6142426-2.5234985-1.7686996-3.5669708-3.3079834
				c-0.8288345-1.2210312-1.4800682-2.6789169-1.7316551-4.3143692c-0.0666237-0.4218216-0.1110229-0.8584595-0.1184311-1.3024673
				l-0.5846138-1.0360641l-0.3108444-0.5402145l1.8649025-1.0434723l5.6760483-3.1673203l2.109127-1.1766739
				c0.2368164,0.28862,0.555027,0.5106201,0.7992516,0.7918396c0.0591698,0.0814362,0.3033943,1.4874802,0.3329773,1.8426819
				c0.0443993,0.3996429-0.1776009,0.8880463-0.103569,1.2210693l-0.0074081,0.0148163
				c0.1480141,0.1776047,0.3182106,0.3921967,0.5180321,0.6438293c0.8066139,1.0730591,2.0128746,2.7898941,3.2931175,4.6473923
				c0.5772476,0.8436508,1.1692696,1.7168884,1.739109,2.5679398c0.5402107,0.7992554,1.0582428,1.5836868,1.5466461,2.3163147
				c0.8732376,1.3172379,1.6206779,2.4569168,2.1165352,3.2339478c0.399601,0.5994263,0.6438255,1.2876511,0.7400322,1.9981003
				c0.0147705,0.0517654,0.0147705,0.103569,0.0221786,0.1553802l0.4440041,6.3125153L63.4478149,131.3735199z"/>
			<path class="st12" d="M55.973484,109.557312c-0.1036148,0.1850128-0.2072296,4.1589966-0.2886238,8.7916183l-1.1544533-7.4669724
				l-3.3597374-2.8639297l0.3963509-3.3008499c0.0868721-0.7234802,1.0275421-0.9462814,1.4284172-0.3377838
				C54.2828941,106.3336411,56.1442871,109.2547302,55.973484,109.557312z"/>
			<path class="st13" d="M55.4776726,98.9896011c-0.4292297-0.0444031-5.52808,0.9694443-5.9720802,0.9916687l-1.1692696-3.6113739
				c0,0,1.7242928-1.2580719,4.0480118-2.8565216c0.8066139,1.0730591,2.0128746,2.7898941,3.2931175,4.6473923
				c0.5772476,0.8436508,1.1692696,1.7168884,1.739109,2.5679398c0.0221786,0.0369949,0.0443993,0.0665817,0.0665779,0.1036148
				C56.6173096,99.8628845,55.6996765,99.0044174,55.4776726,98.9896011z"/>
			<path class="st13" d="M62.2859573,114.7449646l-5.6242447,4.2773743l-0.2664032-7.9109726l-0.4144173-0.4883957
				c1.0804214-2.2645111,3.0859299-6.379097,3.2117233-7.2301559c0.7770729,1.1692657,1.4356689,2.175705,1.8871269,2.8861542
				c0.399601,0.5994263,0.6438255,1.2876511,0.7400322,1.9981003c0.0147705,0.0517654,0.0147705,0.103569,0.0221786,0.1553802
				L62.2859573,114.7449646z"/>
		</g>
		<polygon class="st0" points="45.1428719,137.6687164 41.478466,137.4125214 40.7092247,134.8022003 40.8301544,134.0192566 
			41.324501,130.7342529 45.1576958,131.2066193 45.1507835,133.5747681 		"/>
		<path class="st1" d="M45.1507835,133.5747681c0,0-2.5931396,0.2991638-4.3206291,0.4444885l0.4943466-3.2850037
			l3.8331947,0.4723663L45.1507835,133.5747681z"/>
		<path class="st35" d="M39.6116982,137.3876038l8.5717964,2.0513611l0.0924339-0.3862305
			c0.4445,0.3696136,0.8880501,0.7405243,1.3122177,1.1331482c0.1764526,0.1633911,0.3545952,0.3331146,0.464119,0.5471497
			c0.1836395,0.359024,0.0668411,0.8032074-0.2496834,1.0513458c-0.270916,0.2125854-0.6443405,0.2240295-0.9885864,0.2126312
			c-1.4123421-0.0471191-2.8628159-0.3443909-4.0106506-1.1686401c-0.3782082-0.2716064-0.7193642-0.5972443-1.1252213-0.8253174
			c-0.6608353-0.3713684-1.445713-0.4568024-2.2033195-0.4338531c-0.4546623,0.0137177-0.9183273,0.0626984-1.357975-0.0539703
			c-0.4395523-0.116745-0.860466-0.449295-0.9167137-0.9006653c-0.0271263-0.2174835,0.0325089-0.4371948,0.1172676-0.6393585
			C39.4012413,137.7754669,39.5047684,137.5806122,39.6116982,137.3876038z"/>
		<path class="st7" d="M42.633934,134.7013397c0.0780678,0.463501,0.1561394,0.9269867,0.234211,1.3904724
			c-0.4474678,0.1694489-0.9713821,0.1226807-1.3817596-0.1233521c-0.446434-0.2676392-0.6973228-0.6581726-0.7803535-1.1686859
			c-0.0098419,0.0995331-0.0382576,0.196228-0.0692024,0.2913361c-0.1506233,0.4629517-0.3927078,0.8506927-0.6128616,1.2783813
			c-0.1920929,0.3731842-0.43013,0.743927-0.5933075,1.1326294c-0.0848465,0.2021179-0.1444092,0.421875-0.1173019,0.639389
			c0.0562439,0.4513702,0.4770851,0.7839203,0.9167023,0.90065c0.4396133,0.1167297,0.9033012,0.067749,1.3579445,0.0539856
			c0.7575951-0.0229187,1.5425339,0.0625458,2.2033005,0.4338379c0.405899,0.2280884,0.7470779,0.5537262,1.1252556,0.8253174
			c1.1478195,0.8242798,2.5983276,1.1215515,4.0106697,1.1686096c0.3441849,0.0114746,0.7176208-0.0000305,0.9886017-0.2125397
			c0.3164864-0.2481995,0.4333305-0.6923828,0.24963-1.0513763c-0.1095352-0.2140656-0.2876129-0.3838196-0.4640808-0.5471497
			c-0.5509758-0.5099792-1.1195488-1.000946-1.7043648-1.4717255c-0.7263641-0.5847321-1.4929008-1.1544342-2.0011177-1.9362488
			c-0.2446594-0.3763733-0.4210663-0.7914276-0.5676918-1.2143707c-0.1178055-0.339798-0.0505829-0.928833-0.5383453-0.8697968
			C44.1386909,134.311615,43.392025,134.5950165,42.633934,134.7013397z"/>
		<path class="st18" d="M42.8765144,136.0928192c0.124424,0.3793793,0.3206406,0.7350769,0.5751839,1.0426788"/>
		<path class="st11" d="M52.3211555,111.7057495c0,0.0475693-0.015873,0.1030884-0.0317497,0.1506653l-3.568367,12.4734116
			l-2.7513924,9.6346207l-4.5280266-1.3560486l-0.9515266-0.2853546l4.0918541-20.6569366l-2.2679825-3.9966049
			l-1.4670753-2.5929794l-0.8245277-1.4432144c-1.617691-1.7683105-3.1006393-5.3049774-2.3711662-8.9764404
			c0.0793724-0.4202957,0.1823654-0.8405457,0.3331795-1.2608414l-0.3014297-1.7920761l10.903347-1.7683563
			c0.0476265,0.1189651,0.095253,0.2299957,0.1506195,0.3409729c0.1190605,0.2299881,0.2458687,0.4519958,0.3331795,0.6819916
			c0.0315552,0.0951538,0.214119,0.5074615,0.3647346,0.8405457c0.0950584,0.2220078,0.1664925,0.4043732,0.1506195,0.4202499
			c-0.0079384,0.0158768-0.0238113,0.0396347-0.0317497,0.0555115c-0.2220535,0.2696304-0.4439163,0.5550919-0.6739082,0.8326111
			c-0.0079384,0.0079346-0.0158768,0.0158768-0.0158768,0.0238113c-0.2141151,0.2616501-0.4282341,0.5233383-0.6264763,0.7770996
			c-0.0079384,0.0079346-0.0079384,0.0079346-0.0158768,0.0158691c0.4123611,1.1260071,1.0783348,3.5763092,1.7762489,6.2644424
			c0.2538033,0.9991531,0.5232887,2.014183,0.7691574,3.0133286c0.0238113,0.1347961,0.0634995,0.2695847,0.0952492,0.4043808
			c0.1982422,0.7929688,0.3806114,1.5701141,0.5629807,2.3075714c0.2776146,1.1577072,0.5312271,2.2044296,0.7215309,3.0291519
			c0.0634995,0.2695847,0.1111259,0.5154037,0.166687,0.7295227
			C52.4799042,110.2784042,52.4717751,110.9999924,52.3211555,111.7057495z"/>
		<polygon class="st12" points="45.1608009,110.9444733 41.4416199,132.6083984 40.4900932,132.3230438 44.5819473,111.6661072 
			42.3139648,107.6695023 40.8468895,105.0765228 42.6628227,105.8536148 		"/>
		<path class="st12" d="M51.8737106,92.8547287l-0.0074081,0.0148163l-3.0045395,0.1627884l-5.8018875,0.3107986l-3.10075,0.1702423
			l1.5466919,1.4134445l3.3745575,3.1007462c0,0-0.4070091,1.5466919-0.9398575,3.5521545
			c-0.5106277,1.924118-1.1322289,4.27742-1.6280861,6.0905151l-2.2866821-4.0331955
			c-1.6206779-1.768692-3.1007462-5.3060379-2.3755264-8.9766235c0.0813942-0.4218216,0.185009-0.8436508,0.3330269-1.2654724
			l-0.3034401-1.7908707l10.9081459-1.768692c0.0443993,0.1184311,0.0962067,0.2294083,0.1479683,0.3404312l2.109127-1.1766739
			c0.2368164,0.28862,0.555027,0.5106201,0.7992516,0.7918396c0.0591698,0.0814362,0.3033943,1.4874802,0.3329773,1.8426819
			C52.0216789,92.0333023,51.7996788,92.5217056,51.8737106,92.8547287z"/>
		<path class="st13" d="M52.3177109,111.7034302c0,0.0517654-0.0148125,0.1035767-0.029583,0.1553802l-0.481041,1.6798935
			l-4.8842087,5.3948364c0.3477936,1.3764496,1.2210274,2.6049347,2.3607101,3.4337692l-0.5624313,1.961113l-6.0608864,4.336586
			l3.2191315-17.5536423l-2.3681183-6.2902908l7.3485832-1.3172379c0.1997795,0.7918396,0.3847847,1.5762787,0.5623856,2.3089066
			c0.370018,1.5318756,0.6882286,2.8639297,0.8880539,3.7593842
			C52.4804993,110.2751236,52.4731369,111.0003891,52.3177109,111.7034302z"/>
		<path class="st5" d="M49.4627838,58.8195457c0,0,4.8777504,10.8610954-2.3800697,13.6471291
			c-7.2578239,2.7860413-1.7342033-5.5172348-1.7342033-5.5172348l0.123455-4.0849991L49.4627838,58.8195457z"/>
		<polygon class="st21" points="50.2345657,76.0635452 48.6439896,76.5418472 47.3395081,76.9378738 46.5824928,71.9828339 
			48.7353592,71.6922379 48.9026527,72.1811447 		"/>
		<polygon class="st21" points="50.2345657,76.0635452 48.6439896,76.5418472 47.955265,73.2944107 48.9736252,72.3880234 		"/>
		<path class="st3" d="M49.7471886,59.7198563l-0.5652809,0.2356224l-0.4179077,0.1830864l-5.6105766,2.3601837l1.4084053,0.9377289
			c-0.2447472,1.0282364-0.4820671,2.054184-0.7193413,3.0801239c-0.1844635,0.822403-0.3516502,1.6477737-0.435112,2.4805145
			c-0.0376663,0.362114-0.137291,0.8163528-0.0538063,1.1745605c0.0722733,0.3208694,0.2627182,0.6549988,0.3596458,0.9765472
			c0.5048065,1.5935364,0.7875862,3.2621689,0.8429108,4.9340439c0.0270729,0.685257,0.0040855,1.3937149-0.2613945,2.0284424
			c-0.2118111,0.4880524-0.5576286,0.9104538-0.958149,1.2595673c-2.0762939,1.8098221-5.6732903,2.5825119-8.333168,2.0072174
			c-2.0454216-0.4423981-3.9686604-2.0872345-4.082695-4.1768417c-0.0193558-0.3546753,0.0155773-0.7220688,0.1784039-1.0377502
			c0.1696663-0.3289413,0.4619465-0.5739746,0.7374954-0.8210831c3.6239719-3.2499313,5.3405399-8.1769867,5.8602276-13.0169373
			c0.1064224-0.9911499,0.1697617-1.9924431,0.415184-2.9586067c0.1721306-0.6776276,0.4666672-1.3752251,1.0524139-1.7569427
			s1.5192108-0.2781982,1.815239,0.3551865c0.1918106-0.7140541,0.4497414-1.5115395,1.1148949-1.8343964
			c0.2595406-0.1259766,0.554039-0.1618156,0.8425369-0.1632118c1.3047562-0.0063019,2.5266571,0.443058,3.8415604,0.392952
			c0.7681656-0.029274,1.9847908,0.1129036,2.7230225,0.407608C51.5973587,57.6040688,49.7471886,59.7198563,49.7471886,59.7198563z
			"/>
		<g>
			<path class="st0" d="M49.6515045,61.7175255l-0.3189011,3.6335335c-0.0406075,0.5110168-0.1554947,1.0086365-0.3211517,1.4860382
				c-0.1701546,0.4777756-0.3958054,0.9358368-0.6829071,1.3598404c-0.3293648,0.5007324-0.8070488,0.8624725-1.3489189,1.0391617
				c-0.0570259,0.0193787-0.1098824,0.0286407-0.1572075,0.0471649l0.0004005,0.0048523L46.757534,70.030571l-0.4603767,5.1681442
				l-4.1544838-0.3636322l0.4048576-4.655899l0.2370338-2.6797943c-0.1413422-0.1152039-0.2406464-0.1948013-0.2783508-0.2356491
				c-0.1630096-0.2012329-0.284874-0.4351959-0.3728867-0.6719589c-0.1364746-0.349884-0.1872101-0.7264175-0.1501999-1.1053391
				l0.0442276-0.4673386l0.267868-3.0728607l0.2955894-3.3827209l5.6691589,0.4968071
				c0.4556198,0.2551651,0.7647018,0.5712128,0.9714394,0.8860245
				C49.8009949,60.8119278,49.6515045,61.7175255,49.6515045,61.7175255z"/>
		</g>
		<path class="st1" d="M42.0295563,65.0179291c0.1708412-0.1184692,0.2876205-0.3018494,0.3113556-0.5190735l0.176342-1.9809456
			c0.0162392-0.2237282-0.0705566-0.4319687-0.2211113-0.5723305L42.0295563,65.0179291z"/>
		<path class="st1" d="M46.8193436,69.2816086l0.0004005,0.0048523l-0.0652885,0.7424545
			c-0.6951294-0.3182678-1.2685928-0.7588654-1.739399-1.3153381c-0.12883-0.0820999-0.0325966-0.2754974,0.10849-0.2237854
			C45.2762032,68.6235962,46.1550217,69.0389023,46.8193436,69.2816086z"/>
		<path class="st4" d="M47.2835426,64.4960861l0.3963089,0.5900421c0.1035805,0.1542206,0.0608711,0.3633728-0.0948753,0.4646378
			l-0.4178619,0.2716751"/>
		<path class="st3" d="M42.1133995,62.56633c1.0556908-0.3883362,2.1113815-0.7766685,3.1670723-1.1650009
			c0.7889671-0.2902222,1.5779343-0.5804405,2.3669014-0.8706589c0.3050766-0.1122246,0.6101532-0.2244453,0.915226-0.3366661
			c0.1724472-0.0634346,0.4522018-0.1098366,0.6006622-0.2196579c0.2511749-0.1857986,0.0173416-0.765213-0.099102-1.0106277
			c-0.1723862-0.3633232-0.4476051-0.6797447-0.7933502-0.8872337c-0.2813377-0.1688423-0.5986557-0.2677383-0.9162712-0.3500786
			c-1.0727272-0.2781067-2.18993-0.3839073-3.2957954-0.3121147c-0.4901085,0.0318146-0.9877434,0.1011238-1.4295425,0.3156738
			s-0.8245735,0.5945396-0.9409561,1.0716896c-0.0993805,0.4074402,0.0018196,0.8371658,0.14711,1.2305832
			c0.1852188,0.5015335,0.4649391,0.9690971,0.3998222,1.5127716C42.1944046,61.8854256,42.1539917,62.2258873,42.1133995,62.56633z
			"/>
		<path class="st0" d="M42.5380135,62.3348312l-0.173748,1.9793243c-0.0341606,0.389183-0.3770065,0.6766968-0.7661858,0.6425323
			c-0.3891754-0.0341568-0.6766891-0.3770065-0.6425247-0.7661896l0.173748-1.9793282
			c0.0170784-0.1945877,0.1114082-0.3630638,0.2497864-0.4796066c0.1388779-0.1159592,0.3217583-0.1794434,0.516346-0.1623611
			C42.2846146,61.603363,42.5721283,61.946209,42.5380135,62.3348312z"/>
		<g>
			<path class="st1" d="M41.4968033,62.1807747l-0.0427094,0.6633301l0.5897522,0.3225632l0.0609512-0.9467506
				c0.0106773-0.1658325-0.1185913-0.3128929-0.2844238-0.3235703S41.5074768,62.0149422,41.4968033,62.1807747z"/>
			<path class="st1" d="M42.0020294,63.8161659l-0.5919876-0.2878113l-0.0400352,0.62183
				c-0.0106773,0.1658325,0.1185913,0.3128967,0.2844238,0.3235703c0.1658325,0.0106812,0.3128967-0.1185913,0.3235741-0.2844238
				L42.0020294,63.8161659z"/>
		</g>
		<g>
			<path class="st5" d="M46.9565392,66.5487061c-0.0114326-0.0144424-0.024971-0.0289536-0.0384865-0.043457
				c-0.3467293-0.3701935-0.9685555-0.2729034-1.3929367-0.0845947l-0.0004387,0.000824
				c-0.0815125,0.0364685-0.1551247,0.0760193-0.2187271,0.1166c-0.0665436,0.0422134-0.1209793,0.0854874-0.1602936,0.126152
				c-0.0273361,0.0279388-0.0198975,0.0741119,0.0148926,0.0923767l1.6370621,0.8596191
				c0.0231781,0.0121689,0.0521545,0.007309,0.069706-0.0120087C46.9802856,67.4796371,47.3416252,67.01091,46.9565392,66.5487061z"
				/>
			<path class="st45" d="M46.4976997,67.4587402l0.0491638-0.0936279c0.0400162-0.07621,0.0109024-0.1697083-0.0644798-0.2092896
				l-1.1764336-0.6177444c-0.0665436,0.0422134-0.1209793,0.0854874-0.1602936,0.126152
				c-0.0273361,0.0279388-0.0198975,0.0741119,0.0148926,0.0923767L46.4976997,67.4587402z"/>
		</g>
		<path class="st21" d="M51.8929214,83.2698212c-0.0871201,0.0713348-0.1268044,0.1030884-0.1268044,0.1030884l0.0238113,1.546257
			l0.0555611,3.0529633l0.1903076,2.2917023l0.0553665,0.6026154l0.0555611,0.7771454l-3.9172287-0.1665421l-0.7532845,0.7453918
			l-2.4741631,0.0555115l-1.29245,0.0555191l-5.9631538,0.2458191l-1.2688332-3.3542557l0.4520493-7.4856491l0.0714378-1.2529068
			l0.4677277-7.9455795l4.9560699-0.9832764c0,0-0.2061806,1.0942993,1.6970634,2.6009674
			c2.0774841,1.6414032,2.4580956-2.1806717,2.4580956-2.1806717l0.9755325,0.9356995l3.599926,3.4494019l0.8802834,0.8405533
			l0.3091698,0.293396C54.5811996,80.6530228,52.4560928,82.7940063,51.8929214,83.2698212z"/>
		<path class="st20" d="M43.7095985,92.3334732l-5.9631538,0.2458191l-1.2688332-3.3542557l0.4520493-7.4856491l0.0714378-1.2529068
			l3.2907486,0.6184921c0-0.0293732,0.1268082-0.4221344,0.3132973-0.9838562
			c0.3404083-1.0253601,1.8413086-0.8597565,1.9452209,0.2156219L43.7095985,92.3334732z"/>
		<path class="st23" d="M51.8958893,83.2712784c-0.0888023,0.0666199-0.1332016,0.1036148-0.1332016,0.1036148l0.029583,1.5466919
			l0.0518074,3.0489349l0.1924171,2.2940903l0.0518074,0.5994263c-1.5096512,0.0148163-2.7529526,0-2.7529526,0
			l-0.2367706-4.9508362l-3.8037872,4.1664047c0,0-1.6594543-4.9929581-1.5851936-5.0416412
			c0.5609283-0.3677521,5.9735947-5.6518707,8.3268967-7.8349838l0.3108025,0.2960358
			C54.5822182,80.6515732,52.4583206,82.7902832,51.8958893,83.2712784z"/>
		<path class="st44" d="M47.6337509,71.6754761c1.1300125,3.8130035,0.896328,8.0150681-0.6495056,11.6792603
			c-1.6536102,3.9196625-4.7616272,7.29422-5.3556328,11.5067444c-0.1935959,1.3729095-0.1078072,2.7891388-0.4754219,4.1260071"/>
		<polygon class="st20" points="48.7273903,87.0341187 48.2358894,91.4726791 47.4786339,92.2284851 44.9983253,92.2777252 		"/>
		<line class="st33" x1="51.760807" y1="83.3729706" x2="50.282795" y2="83.4127655"/>
		<g>
			<g>
				<path class="st25" d="M28.1394253,99.6477051c-0.0972061,0.1843948-0.1272373,0.3879242-0.1005363,0.5687256
					c0.0338421,0.2963486,0.2050667,0.5574188,0.4759693,0.6725693l11.6856003,4.9671783l3.7825089-9.1422043l-11.0961494-4.7166214
					c-0.3903122-0.1659088-0.8738518,0.0425491-1.0964928,0.4555817l-1.8565102,3.6593857l-0.2249165,0.4405365
					L28.1394253,99.6477051z"/>
				<path class="st37" d="M28.0388889,100.2164307c0.0338421,0.2963486,0.2050667,0.5574188,0.4759693,0.6725693
					l11.6856003,4.9671783l3.7825089-9.1422043l-11.0961494-4.7166214
					c-0.3903122-0.1659088-0.8738518,0.0425491-1.0964928,0.4555817l-1.8565102,3.6593857l-0.2249165,0.4405365
					c2.2675781,1.1707611,6.980875,3.5788116,8.4599934,4.103981c1.1537895,0.4057159,1.7107315,0.1347809,1.9793777-0.1650238
					l-2.0328636,4.0078278L28.0388889,100.2164307z"/>
				<path class="st24" d="M43.5112839,96.5179138l-1.2950592,0.3774185L40.129364,99.988678
					c-0.2738533,0.4144135-0.7992477,0.5550232-1.2506599,0.3477936l-8.2292233-3.759346
					c-0.0888004-0.0370407-0.1627865-0.0888443-0.2294083-0.1480179c-0.3626099-0.3108444-0.4735889-0.8510513-0.222002-1.2728806
					l0.1331997-0.2220001l1.4578915-2.4790955c0.2220039-0.4144211,0.7030411-0.6216507,1.1026459-0.4588242l1.7908707,0.7622147
					L43.5112839,96.5179138z"/>
				<path class="st25" d="M43.5112839,96.5179138l-1.2950592,0.3774185L40.129364,99.988678
					c-0.2738533,0.4144135-0.7992477,0.5550232-1.2506599,0.3477936l-8.2292233-3.759346
					c-0.0888004-0.0370407-0.1627865-0.0888443-0.2294083-0.1480179l4.2626057-3.6705856L43.5112839,96.5179138z"/>
				<path class="st25" d="M38.9492264,105.3164978l2.1357651,0.9078445c0.4462357,0.189682,0.9773293-0.0819321,1.1538811-0.5901184
					l2.6424446-7.6061478c0.1587753-0.4570313-0.028717-0.9421997-0.4300308-1.1127853l-1.1351776-0.4825287
					c-0.4013138-0.1705856-0.8807602,0.0310898-1.099659,0.4625626l-3.6430321,7.1808319
					C38.3300171,104.5559311,38.5029907,105.1268158,38.9492264,105.3164978z"/>
				<path class="st46" d="M39.1239929,103.8748932c-0.2181358,0.4245987-0.1017799,0.9254761,0.2486649,1.07444l1.6808434,0.7144699
					c0.3504448,0.1489639,0.7918396-0.11483,0.9461899-0.5665436l2.4335289-6.809166
					c0.1453781-0.4084473,0.0145493-0.830986-0.2960281-0.9629974l-0.8922501-0.3792725
					c-0.3185501-0.1354065-0.7135773,0.0636063-0.9067993,0.4517212L39.1239929,103.8748932z"/>
				<path class="st24" d="M39.1239929,103.8748932c-0.2181358,0.4245987-0.1017799,0.9254761,0.2486649,1.07444l1.1948509,0.5078888
					c0.3506393,0.1490479,0.7918396-0.11483,0.9541664-0.5631485l2.4255524-6.812561
					c0.1453781-0.4084473,0.0147438-0.8309021-0.2960281-0.9629974l-0.4062576-0.1726913
					c-0.3185501-0.1354065-0.7135773,0.0636063-0.9067993,0.4517212L39.1239929,103.8748932z"/>
			</g>
		</g>
		<g>
			<path class="st20" d="M77.3173523,125.6509171c-0.091156,0.2896118-0.1256332,0.6029434-0.0876617,0.9261856
				l1.5012665,12.8919067c0.1237411,1.1297607,1.0678787,1.9655457,2.1976318,1.9655457H97.53479
				c1.1298523,0,2.0738907-0.8357849,2.2131271-1.9655457l1.4857712-12.8919067
				c0.0380707-0.3232422,0.0035934-0.6365738-0.0875626-0.9261856H77.3173523z"/>
			<polygon class="st20" points="78.7974319,125.5196838 70.6552887,126.1114655 72.248085,139.3387909 81.3696747,140.7933197 			
				"/>
			<g>
				<polygon class="st15" points="82.1524811,139.0192719 82.1524811,139.033905 74.6883926,139.5895233 74.0889206,137.6960602 
					71.391304,129.1938324 78.3656006,127.5709 80.7854004,134.9034119 80.7927246,134.9034119 				"/>
				<polygon class="st17" points="84.9597702,135.4517059 82.1524811,139.0192719 80.7927246,134.9034119 78.3656006,127.5709 
					78.3656006,127.5562668 81.5018692,125.0779648 84.2872086,133.4412842 				"/>
				<polygon class="st14" points="78.3622437,127.5688934 78.763092,123.8953781 72.0533371,125.6966171 71.3896179,129.1955109 
									"/>
				<polygon class="st15" points="81.5013199,125.074791 78.763092,123.8838959 78.3622437,127.5574112 				"/>
				<polygon class="st17" points="72.0533371,125.6851349 71.4481277,123.7771149 78.0533676,122.0262375 78.763092,123.8838959 
									"/>
			</g>
			<g>
				<path class="st1" d="M80.054451,121.0842056c-0.0989838,1.3240738,0.2661285,2.6520004,0.8507996,3.8469772
					c0.581459,1.1909485,1.3728409,2.2697525,2.181488,3.3248444c3.0794601,4.0351257,6.4186249,7.8721619,9.9836884,11.4855042
					l0.6819-0.5098114l5.1235504-3.8258972c-2.0044479-2.4786072-4.0121078-4.9612274-6.0197601-7.4439468
					c-2.7407684-3.3940659-5.6538239-6.9169388-9.6813431-8.5990143c-0.1365356-0.0552902-0.2802811-0.1113815-0.4248428-0.1603317
					c-0.592659-0.1973114-1.2338715-0.2864838-1.7648773,0.0167694
					C80.3564987,119.5777512,80.1087341,120.3623352,80.054451,121.0842056z"/>
				<path class="st0" d="M81.3757629,121.2331696c-0.0995255,1.3244171,0.2603149,2.6488876,0.8497772,3.8431778
					c0.5818405,1.1942902,1.3780594,2.2737274,2.1819,3.3225479c1.9139328,2.5187683,3.935051,4.9532776,6.0556488,7.3035889
					c1.0718155,1.1942749,2.1665802,2.3732452,3.2919464,3.5292664l5.1216736-3.8278503
					c-1.0181808-1.2555542-2.0363998-2.5187225-3.0622864-3.7742615c-0.1377945-0.1837311-0.2909241-0.359848-0.4363327-0.5435791
					c-0.8344955-1.0411682-1.6766052-2.0823212-2.5187607-3.123497c-0.2679291-0.336853-0.5435257-0.6660843-0.8115005-1.0029373
					c-0.4363861-0.5281982-0.8803787-1.0564499-1.3320923-1.5770798c-1.2172775-1.4086227-2.5110931-2.7483673-3.950325-3.8737869
					c-1.102417-0.865097-2.289093-1.6000137-3.5905228-2.1435852c-0.1378479-0.0612564-0.2833099-0.1148071-0.4287186-0.1607437
					c-0.145462,0.0229492-0.298584,0.0765381-0.444046,0.1607437
					C81.6743469,119.7250137,81.4293594,120.505867,81.3757629,121.2331696z"/>
				<path class="st1" d="M83.7188797,124.2293625c-0.0876694,0.5279694,0.0318146,1.1008377,0.3692322,1.5222549
					c0.2952423,0.372818,0.737381,0.6082916,1.1971207,0.717659c0.4633331,0.1098633,0.9434967,0.1008453,1.41362,0.050354
					c0.6997375-0.0761566,1.3877792-0.2450485,2.0637894-0.4372406c0.6647644-0.1897812,1.3287125-0.4052734,1.9540787-0.7018356
					c-1.219902-1.4042206-2.5124359-2.7470016-3.9498215-3.8716736c-0.4383316,0.1928711-0.8706284,0.3973923-1.2876434,0.6292267
					c-0.3548203,0.1984482-0.7044296,0.4158707-0.9953537,0.6981888
					C84.0950241,123.210289,83.8069763,123.6977768,83.7188797,124.2293625z"/>
				<path class="st1" d="M88.3178864,129.9688721c-0.0916901,0.531189,0.0314178,1.1044464,0.3652267,1.5253754
					c0.2956314,0.3692932,0.7377701,0.6047668,1.2011261,0.7145386c0.4597321,0.109375,0.9435043,0.1007538,1.41362,0.050354
					c0.6997375-0.0761566,1.3837814-0.2418365,2.060173-0.4376373c0.6908646-0.1942139,1.3780899-0.4217834,2.0235214-0.734436
					c-0.8395309-1.0402832-1.6822891-2.0845032-2.5254364-3.1251907c-0.2667313-0.3331375-0.5370865-0.6665878-0.8110275-1.0005188
					c-0.6711426,0.2805099-1.3358536,0.5690613-1.9668198,0.9162598c-0.3548279,0.1984482-0.7048264,0.4193954-0.9993744,0.7014084
					C88.6904297,128.9493103,88.405983,129.4372864,88.3178864,129.9688721z"/>
			</g>
			<g>
				<path class="st47" d="M91.0297775,127.441185c-0.2045212,0-0.370018-0.1654968-0.370018-0.370018v-10.0898361
					c0-0.2045212,0.1654968-0.370018,0.370018-0.370018s0.3700104,0.1654968,0.3700104,0.370018v10.0898361
					C91.3997879,127.2756882,91.2342987,127.441185,91.0297775,127.441185z"/>
			</g>
			<path class="st20" d="M101.1461563,125.6508865h-9.8392944v11.4968185H88.861145v4.2868195h8.6736832
				c1.129837,0,2.0738449-0.8357849,2.2131042-1.9655304l1.4857559-12.8918915
				C101.2717667,126.2538376,101.2373047,125.940506,101.1461563,125.6508865z"/>
			<path class="st21" d="M93.287262,125.6480865H69.4581375c-0.0962067,0.29599-0.1257935,0.6068344-0.0887985,0.9324493
				l1.5022507,12.8913879c0.1184311,1.1248627,1.0656509,1.9610596,2.1979218,1.9610596h16.6063766
				c1.1248703,0,2.0720901-0.8361969,2.1978836-1.9610596l1.4948807-12.8913879
				C93.4130554,126.254921,93.3760605,125.9440765,93.287262,125.6480865z M87.6333847,138.8280945H74.42379
				c-0.2886276,0-0.525444-0.310791-0.525444-0.7104492c0-0.3995972,0.2368164-0.7104034,0.525444-0.7104034h13.2095947
				c0.2886276,0,0.5328522,0.3108063,0.5328522,0.7104034C88.1662369,138.5173035,87.9220123,138.8280945,87.6333847,138.8280945z
				 M89.1578598,134.9650879H72.8993225c-0.3552475,0-0.6512375-0.310791-0.6512375-0.7104034
				c0-0.3996429,0.29599-0.7104492,0.6512375-0.7104492h16.2585373c0.3552017,0,0.6512299,0.3108063,0.6512299,0.7104492
				C89.8090897,134.6542969,89.5130615,134.9650879,89.1578598,134.9650879z M89.9571075,131.1021423H72.1000671
				c-0.3848267,0-0.7104492-0.3108063-0.7104492-0.7104492c0-0.3996124,0.3256226-0.7104034,0.7104492-0.7104034h17.8570404
				c0.3847885,0,0.7104034,0.310791,0.7104034,0.7104034C90.667511,130.7913361,90.3418961,131.1021423,89.9571075,131.1021423z"/>
			<path class="st21" d="M102.4891205,125.5384903c0,0.5107498-0.4178925,0.9131546-0.9131546,0.9131546H78.6863251
				c-0.4952545,0-0.913147-0.4024048-0.913147-0.9131546s0.4178925-0.913063,0.913147-0.913063h22.8896408
				C102.071228,124.6254272,102.4891205,125.0277405,102.4891205,125.5384903z"/>
			<path class="st23" d="M93.3871613,125.5384903c0,0.5107498-0.4178925,0.9131546-0.9131546,0.9131546H69.5843658
				c-0.4952545,0-0.913147-0.4024048-0.913147-0.9131546s0.4178925-0.913063,0.913147-0.913063h22.8896408
				C92.9692688,124.6254272,93.3871613,125.0277405,93.3871613,125.5384903z"/>
			<path class="st47" d="M83.7543411,125.5196838c0,0.6564789-0.2679138,1.2526627-0.7033386,1.6813354
				c-0.4287109,0.4287109-1.0248489,0.6966705-1.6813278,0.6966705c-1.3195877,0-2.3846664-1.0650864-2.3846664-2.378006H83.7543411
				z"/>
			<g>
				<path class="st47" d="M81.7027359,127.441185c-0.2045212,0-0.370018-0.1654968-0.370018-0.370018v-10.0898361
					c0-0.2045212,0.1654968-0.370018,0.370018-0.370018h9.3270416c0.2045212,0,0.3700104,0.1654968,0.3700104,0.370018
					s-0.1654892,0.370018-0.3700104,0.370018h-8.9570236v9.7198181
					C82.0727539,127.2756882,81.9072571,127.441185,81.7027359,127.441185z"/>
			</g>
		</g>
		<path class="st34" d="M47.5819511,99.086174c0,0-1.7183037,3.1843109,3.7104874,3.2873001l5.3657074-1.3712769
			l-2.6617699-3.1433792l-5.2340965,0.7874908L47.5819511,99.086174z"/>
		<path class="st6" d="M53.4375,120.8945389c-1.4735451-7.031105,8.2714424-2.8240891,8.8976135-12.9132538
			c0.6261673-10.0891647-7.470829-11.6089859-7.470829-11.6089859l-7.2823334,2.7138748
			c0,0,8.8660622-3.2125092,8.2398949,6.8766556c-0.6261711,10.0891647-10.3711586,5.8821487-8.8976135,12.9132538
			L53.4375,120.8945389z"/>
		<path class="st48" d="M50.0074883,119.8315811l3.4300117,1.0629578c-1.4735451-7.031105,8.2714424-2.8240891,8.8976135-12.9132538
			c0.6261673-10.0891647-7.470829-11.6089859-7.470829-11.6089859"/>
		<path class="st0" d="M53.2613144,98.4118652c0.0060387,0.0471191,0.0000801,0.0815277-0.0110474,0.1257095
			c-0.0401459,0.1915436-0.2172737,0.3346558-0.4170151,0.3214798c-0.6366882-0.0283432-1.3386917-0.2735443-1.4052048-0.1963882
			c-0.0612335,0.0674057,0.3561401,0.5860138,0.8400764,1.1090469c0.0359802,0.0381012,0.0547333,0.0732269,0.0735016,0.1083984
			c0.152935,0.2638855,0.0337334,0.6260834-0.2758598,0.7357407l-0.3446884,0.1283493
			c-0.2273026,0.0848465-0.4817924-0.0015945-0.6166916-0.2056427l-0.1186676-0.3394928l0.0136642,0.1264267
			c0.0371742,0.4211197-0.3453903,0.7485428-0.7502594,0.6503143l-2.611618-0.599472
			c-0.220768-0.0558319-0.3990517-0.2141953-0.462162-0.4235535l-0.712326-2.36306l-6.9541664-5.5880356
			c-1.1083794-0.8895111-1.8469429-2.1759872-2.0582695-3.5806656l-0.898098-5.9289322l-0.4074516-2.6507339l-0.6588783-4.3777084
			c-0.1609192-1.1832809,0.4735184-2.2718277,1.4760971-2.7616577c0.2833099-0.1425095,0.5996284-0.2296906,0.9414978-0.2593613
			c0.7083359-0.0585251,1.3909035,0.1762009,1.9099274,0.5989456c0.5114937,0.4250107,0.8789024,1.0484009,0.9523659,1.7522812
			l0.2757492,2.5925522l1.0644226,10.0799103l6.7442398,8.0577774l0.6990662,0.2623672
			c0.1272545,0.0432434,0.2492638,0.0961838,0.3637886,0.1513824c0.4506264,0.2230911,0.8594971,0.5240479,1.1891785,0.914093
			l0.2989426,0.3422546l1.5661888,0.8657227C53.1367035,98.1068268,53.2461243,98.2532883,53.2613144,98.4118652z"/>
		<line class="st4" x1="42.1019325" y1="87.4630432" x2="41.0389481" y2="87.9798813"/>
		<path class="st1" d="M46.4630165,97.5897217l-6.9541664-5.5880356c-1.1083794-0.8895111-1.8469429-2.1759872-2.0582695-3.5806656
			l-0.898098-5.9289322l-0.4074516-2.6507339l-0.6588783-4.3777084c-0.1609192-1.1832809,0.4735184-2.2718277,1.4760971-2.7616577
			l1.9556351,16.5003433L46.4630165,97.5897217z"/>
		<line class="st49" x1="56.0623055" y1="101.475975" x2="59.8205452" y2="100.4321213"/>
		<line class="st49" x1="56.8535995" y1="102.7776184" x2="59.8159256" y2="101.9548264"/>
		<line class="st39" x1="56.391674" y1="108.7661972" x2="61.2005157" y2="110.3469391"/>
		<line class="st39" x1="56.1914024" y1="110.5342102" x2="59.6901207" y2="111.684288"/>
		<line class="st39" x1="55.9734192" y1="112.122963" x2="58.161747" y2="112.922554"/>
		<line class="st33" x1="48.9732132" y1="116.7161331" x2="52.3209152" y2="117.7945023"/>
		<line class="st33" x1="48.9732132" y1="118.029068" x2="51.6219521" y2="118.8822861"/>
		<line class="st4" x1="61.1093254" y1="79.2528915" x2="61.6420822" y2="80.4787521"/>
		<path class="st15" d="M49.5055923,99.9812698l0.0592117,0.1924133l-0.074028-0.1924133
			C49.4907761,99.9812698,49.4981842,99.9812698,49.5055923,99.9812698z"/>
		<line class="st4" x1="70.9517746" y1="68.7887955" x2="69.5248337" y2="70.0289154"/>
	</g>
	<text transform="matrix(0.96351 0.26766 -0.26766 0.96351 104.226944 22.3756599)" class="st6 st50 st51">$</text>
	<path class="st52" d="M38.2276535,59.8230934c1.3003044,0.8396072,3.0095062,0.7287102,4.4849205,0.2608643
		c0.8709183-0.276165,1.7160072-0.6713753,2.4119148-1.2633896c0.6959038-0.5920105,1.235508-1.3941536,1.4055061-2.291851"/>
</g>
</svg>
