<?xml version="1.0" encoding="utf-8"?>
<!-- Generator: Adobe Illustrator 22.0.1, SVG Export Plug-In . SVG Version: 6.00 Build 0)  -->
<svg version="1.1" id="Layer_1" xmlns="http://www.w3.org/2000/svg" xmlns:xlink="http://www.w3.org/1999/xlink" x="0px" y="0px"
	 viewBox="0 0 156 156" style="enable-background:new 0 0 156 156;" xml:space="preserve">
<style type="text/css">
	.st0{fill:#FFD9B2;}
	.st1{fill:#F7AC76;}
	.st2{fill:none;stroke:#3643C3;stroke-width:0.5;stroke-linecap:round;stroke-linejoin:round;stroke-miterlimit:10;}
	.st3{fill:#233764;}
	.st4{fill:none;stroke:#F7AC76;stroke-width:0.5;stroke-linecap:round;stroke-linejoin:round;stroke-miterlimit:10;}
	.st5{fill:#161718;}
	.st6{fill:#FFFFFF;}
	.st7{fill:#F06449;}
	.st8{fill:#BE412D;}
	.st9{fill:#FE8E60;}
	.st10{fill:#7D4C47;}
	.st11{fill:#4456D6;}
	.st12{fill:#203881;}
	.st13{fill:#6582FC;}
	.st14{fill:#DDA103;}
	.st15{fill:#FBC32E;}
	.st16{fill:none;stroke:#DDA103;stroke-width:0.5;stroke-miterlimit:10;}
	.st17{fill:#FBE6BB;}
	.st18{fill:none;stroke:#BE412D;stroke-width:0.5;stroke-linecap:round;stroke-linejoin:round;stroke-miterlimit:10;}
	.st19{fill:none;stroke:#F06449;stroke-width:0.5;stroke-linecap:round;stroke-linejoin:round;stroke-miterlimit:10;}
	.st20{fill:#F34B4B;}
	.st21{fill:#FC7070;}
	.st22{fill:none;stroke:#FFFFFF;stroke-miterlimit:10;}
	.st23{fill:#FC9F9F;}
	.st24{fill:#408A6F;}
	.st25{fill:#64B48D;}
	.st26{fill:none;stroke:#FBE6BB;stroke-width:0.5;stroke-linecap:round;stroke-linejoin:round;stroke-miterlimit:10;}
	.st27{fill:none;stroke:#F7AC76;stroke-width:0.25;stroke-linecap:round;stroke-linejoin:round;stroke-miterlimit:10;}
	.st28{fill:#A0665A;}
	.st29{fill:#6C3F44;}
	.st30{fill:none;stroke:#6C3F44;stroke-width:0.5;stroke-linecap:round;stroke-linejoin:round;stroke-miterlimit:10;}
	.st31{fill:none;stroke:#7D4C47;stroke-width:0.5;stroke-linecap:round;stroke-linejoin:round;stroke-miterlimit:10;}
	.st32{fill:none;stroke:#F34B4B;stroke-width:0.5;stroke-linecap:round;stroke-linejoin:round;stroke-miterlimit:10;}
	.st33{fill:none;stroke:#FC7070;stroke-width:0.5;stroke-linecap:round;stroke-linejoin:round;stroke-miterlimit:10;}
	.st34{fill:#EAE8F3;}
	.st35{fill:#40304A;}
	.st36{fill:none;stroke:#43334E;stroke-linecap:round;stroke-linejoin:round;stroke-miterlimit:10;}
	.st37{fill:#32775B;}
	.st38{fill:none;stroke:#233764;stroke-width:0.5;stroke-linecap:round;stroke-linejoin:round;stroke-miterlimit:10;}
	.st39{fill:none;stroke:#408A6F;stroke-width:0.5;stroke-linecap:round;stroke-linejoin:round;stroke-miterlimit:10;}
	.st40{fill:#3643C3;}
	.st41{opacity:0.56;fill:url(#SVGID_1_);}
	.st42{opacity:0.52;fill:#FBC32E;}
	.st43{opacity:0.56;fill:url(#SVGID_2_);}
	.st44{fill:none;stroke:#EAE8F3;stroke-width:0.5;stroke-linecap:round;stroke-linejoin:round;stroke-miterlimit:10;}
	.st45{fill:#FEFFFD;}
	.st46{opacity:0.35;fill:#32775B;}
	.st47{fill:#43334E;}
	.st48{fill:none;stroke:#EAE8F3;stroke-width:0.25;stroke-linecap:round;stroke-linejoin:round;stroke-miterlimit:10;}
	.st49{fill:none;stroke:#FBC32E;stroke-width:0.5;stroke-linecap:round;stroke-linejoin:round;stroke-miterlimit:10;}
	.st50{fill:none;stroke:#161718;stroke-width:0.5;stroke-linecap:round;stroke-linejoin:round;stroke-miterlimit:10;}
	.st51{fill:none;stroke:#40304A;stroke-linecap:round;stroke-linejoin:round;stroke-miterlimit:10;}
	.st52{opacity:0.33;fill:#FBC32E;}
	.st53{fill:#A6A3AE;}
	.st54{fill:#5B4B68;}
	.st55{fill:#776688;}
	.st56{fill:none;stroke:#FBC32E;stroke-width:0.5;stroke-miterlimit:10;}
	.st57{fill:none;stroke:#EAE8F3;stroke-linecap:round;stroke-linejoin:round;stroke-miterlimit:10;}
	.st58{fill:none;stroke:#203881;stroke-width:2;stroke-linecap:round;stroke-linejoin:round;stroke-miterlimit:10;}
	.st59{fill:none;stroke:#40304A;stroke-width:2;stroke-linecap:round;stroke-linejoin:round;stroke-miterlimit:10;}
	.st60{fill:#FFD8B7;}
	.st61{fill:#F4E4D4;}
	.st62{fill:none;stroke:#4456D6;stroke-width:0.5;stroke-linecap:round;stroke-linejoin:round;stroke-miterlimit:10;}
	.st63{fill:none;stroke:#DDA103;stroke-width:0.25;stroke-miterlimit:10;}
	.st64{fill:none;stroke:#FFFFFF;stroke-width:0.5;stroke-linecap:round;stroke-linejoin:round;stroke-miterlimit:10;}
	.st65{fill:none;stroke:#64B48D;stroke-width:0.5;stroke-linecap:round;stroke-linejoin:round;stroke-miterlimit:10;}
	.st66{fill:none;stroke:#64B48D;stroke-linecap:round;stroke-linejoin:round;stroke-miterlimit:10;}
	.st67{opacity:0.48;fill:#64B48D;}
	.st68{fill:none;stroke:#64B48D;stroke-width:0.25;stroke-linecap:round;stroke-linejoin:round;stroke-miterlimit:10;}
	.st69{fill:none;stroke:#F06449;stroke-width:2;stroke-linecap:round;stroke-linejoin:round;stroke-miterlimit:10;}
	.st70{opacity:0.92;fill:#64B48D;}
	.st71{opacity:0.57;fill:#408A6F;}
	.st72{opacity:0.36;fill:#408A6F;}
	.st73{fill:none;stroke:#BE412D;stroke-width:2;stroke-linecap:round;stroke-linejoin:round;stroke-miterlimit:10;}
	.st74{opacity:0.65;fill:none;stroke:#408A6F;stroke-width:0.25;stroke-linecap:round;stroke-linejoin:round;stroke-miterlimit:10;}
	.st75{opacity:0.67;fill:none;stroke:#64B48D;stroke-width:0.25;stroke-linecap:round;stroke-linejoin:round;stroke-miterlimit:10;}
	.st76{opacity:0.98;fill:#64B48D;}
	.st77{fill:none;stroke:#408A6F;stroke-width:0.25;stroke-linecap:round;stroke-linejoin:round;stroke-miterlimit:10;}
	.st78{fill:none;stroke:#FFD9B2;stroke-width:0.5;stroke-linecap:round;stroke-linejoin:round;}
	
		.st79{fill:none;stroke:#FFD9B2;stroke-width:0.5;stroke-linecap:round;stroke-linejoin:round;stroke-dasharray:4.0333505,4.0333505;}
	.st80{fill:#E68B4A;}
	.st81{opacity:0.62;fill:#64B48D;}
	.st82{fill:none;stroke:#FBC32E;stroke-width:0.25;stroke-miterlimit:10;}
	.st83{fill:none;stroke:#4456D6;stroke-linecap:round;stroke-linejoin:round;stroke-miterlimit:10;}
	.st84{fill:none;stroke:#E68B4A;stroke-width:0.5;stroke-linecap:round;stroke-linejoin:round;stroke-miterlimit:10;}
	.st85{fill:none;stroke:#203881;stroke-width:0.5;stroke-linecap:round;stroke-linejoin:round;stroke-miterlimit:10;}
	.st86{opacity:0.29;fill:#EAE8F3;}
	.st87{fill:none;stroke:#A6A3AE;stroke-width:0.5;stroke-linecap:round;stroke-linejoin:round;stroke-miterlimit:10;}
	.st88{opacity:0.74;fill:#FFFFFF;}
	.st89{opacity:0.19;fill:#FFFFFF;}
	.st90{fill:none;stroke:#40304A;stroke-width:0.25;stroke-linecap:round;stroke-linejoin:round;stroke-miterlimit:10;}
	.st91{fill:none;stroke:#F34B4B;stroke-width:2;stroke-linecap:round;stroke-linejoin:round;stroke-miterlimit:10;}
	.st92{fill:none;stroke:#43334E;stroke-width:0.5;stroke-linecap:round;stroke-linejoin:round;stroke-miterlimit:10;}
	.st93{fill:none;stroke:#6582FC;stroke-miterlimit:10;}
	.st94{opacity:0.47;fill:#A6A3AE;}
	.st95{opacity:0.43;fill:#FFFFFF;}
	.st96{fill:none;stroke:#FBE6BB;stroke-linecap:round;stroke-linejoin:round;stroke-miterlimit:10;}
	.st97{fill:none;stroke:#5B4B68;stroke-width:0.5;stroke-linecap:round;stroke-linejoin:round;stroke-miterlimit:10;}
	.st98{fill:none;stroke:#40304A;stroke-width:0.5;stroke-linecap:round;stroke-linejoin:round;stroke-miterlimit:10;}
	.st99{fill:none;stroke:#DDA103;stroke-linecap:round;stroke-linejoin:round;stroke-miterlimit:10;}
	.st100{fill:none;stroke:#FBC32E;stroke-linecap:round;stroke-linejoin:round;stroke-miterlimit:10;}
	.st101{fill:none;stroke:#32775B;stroke-width:0.5;stroke-linecap:round;stroke-linejoin:round;stroke-miterlimit:10;}
	.st102{opacity:0.4;fill:#FBE6BB;}
	.st103{fill:none;stroke:#FBC32E;stroke-width:0.25;stroke-linecap:round;stroke-linejoin:round;stroke-miterlimit:10;}
	.st104{fill:none;stroke:#4456D6;stroke-miterlimit:10;}
	.st105{opacity:0.61;fill:#64B48D;}
	.st106{opacity:0.9;fill:#64B48D;}
	.st107{opacity:0.76;fill:#64B48D;}
	.st108{fill:none;stroke:#5B4B68;stroke-width:0.5;stroke-miterlimit:10;}
	.st109{opacity:0.66;fill:#A6A3AE;}
	.st110{fill:none;stroke:#43334E;stroke-miterlimit:10;}
	.st111{opacity:0.52;fill:#6582FC;}
	.st112{fill:none;stroke:#DDA103;stroke-width:0.5;stroke-linecap:round;stroke-linejoin:round;stroke-miterlimit:10;}
	.st113{fill:#46724E;}
	.st114{fill:#FE8B2E;}
	.st115{fill:none;stroke:#7D4C47;stroke-width:2;stroke-linecap:round;stroke-linejoin:round;stroke-miterlimit:10;}
	.st116{opacity:0.4;fill:#EAE8F3;}
	.st117{fill:none;stroke:#EAE8F3;stroke-width:0.5;stroke-linecap:round;stroke-miterlimit:10;}
	.st118{fill:none;stroke:#4456D6;stroke-width:0.25;stroke-linecap:round;stroke-linejoin:round;stroke-miterlimit:10;}
	.st119{opacity:0.5;fill:#EAE8F3;}
	.st120{opacity:0.46;fill:#A6A3AE;}
	.st121{fill:#E0916E;}
	.st122{fill:none;stroke:#A0665A;stroke-linecap:round;stroke-linejoin:round;stroke-miterlimit:10;}
	.st123{opacity:0.46;fill:#BE412D;}
	.st124{fill:none;stroke:#203881;stroke-linecap:round;stroke-linejoin:round;stroke-miterlimit:10;}
	.st125{fill:#DBDBE1;}
	.st126{fill:none;stroke:#6582FC;stroke-width:0.5;stroke-linecap:round;stroke-linejoin:round;stroke-miterlimit:10;}
	.st127{opacity:0.53;fill:#A6A3AE;}
	.st128{fill:none;stroke:#DDA103;stroke-miterlimit:10;}
	.st129{opacity:0.2;fill:#FFFFFF;}
	.st130{fill:#B4A1BF;}
	.st131{opacity:0.5;fill:#6582FC;}
	.st132{font-family:'MyriadPro-Regular';}
	.st133{font-size:28.52384px;}
	.st134{font-size:13.2165298px;}
	.st135{font-size:19.6496201px;}
	.st136{font-size:11.6649399px;}
	.st137{opacity:0.6;fill:none;stroke:#FFFFFF;stroke-linecap:round;stroke-linejoin:round;stroke-miterlimit:10;}
	.st138{opacity:0.6;fill:none;stroke:#FFFFFF;stroke-width:2;stroke-linecap:round;stroke-linejoin:round;stroke-miterlimit:10;}
	.st139{opacity:0.54;fill:#A6A3AE;}
	.st140{fill:#161718;stroke:#000000;stroke-width:0.25;stroke-miterlimit:10;}
</style>
<g id="_x33_">
	<path class="st131" d="M126.1870804,60.9030495c-4.1863556,10.6678886-14.6474304,18.7253227-26.6548233,18.7253227
		c-4.8366241,0.0098572-9.7516403-1.1819839-13.8889389-3.7233047c-4.6690063-2.8664551-6.6390533-7.0429459-8.8748398-11.8400116
		c-1.4972534-3.2406464-3.6053391-6.9936485-7.3189011-7.968811c-0.9357224-0.2462578-1.704071-0.0493011-2.6299362-0.0788803
		c-1.1033478-0.0394402-1.4578171-0.1476555-2.5808792-0.6894684l0.1380386-17.1886292
		c2.1472855,0.9751663,4.5013809,1.4479599,6.8557281,1.4282379c1.723793-0.0197182,3.4475861-0.3054161,5.0826416-0.8668251
		c6.0383224-2.0783882,10.2641144-7.4664421,15.6521683-10.9140282c7.1315689-4.5607872,16.1543045-5.0533009,23.6011505-0.8077869
		c7.1414261,4.0780163,11.1996002,12.0369701,12.3128052,19.9763241
		C128.5608978,51.7915726,127.8911514,56.5591774,126.1870804,60.9030495z"/>
	<path class="st131" d="M126.1870804,60.9030495c-4.1863556,10.6678886-14.6474304,18.7253227-26.6548233,18.7253227
		c-4.8366241,0.0098572-9.7516403-1.1819839-13.8889389-3.7233047c-4.6690063-2.8664551-6.6390533-7.0429459-8.8748398-11.8400116
		c-1.4972534-3.2406464-3.6053391-6.9936485-7.3189011-7.968811c-0.9357224-0.2462578-1.704071-0.0493011-2.6299362-0.0788803
		c-1.1033478-0.0394402-1.4578171-0.1476555-2.5808792-0.6894684l0.1380386-17.1886292
		c2.1472855,0.9751663,4.5013809,1.4479599,6.8557281,1.4282379c4.3241501,3.0831337,6.7176895,8.6682625,5.9693069,13.9183998
		c-0.0887375,0.6600113-0.2265396,1.3199005-0.1870956,1.979908c0.0589142,0.9653053,0.4824066,1.8617134,0.9653015,2.6890984
		c3.0534286,5.2402763,8.5400848,8.806179,14.4107895,10.3034401c5.8707123,1.5069962,12.1059875,1.0932388,18.006279-0.3054199
		C116.0708618,66.8034515,121.5967102,64.4985275,126.1870804,60.9030495z"/>
	<g>
		
			<rect x="39.6945686" y="94.6969528" transform="matrix(-1 -4.842006e-11 4.842006e-11 -1 80.2156143 211.083313)" class="st6" width="0.8264732" height="21.6894112"/>
		<path class="st0" d="M53.3430367,70.8644485l2.1400223,4.6628342l2.4286346-0.6688004
			c0.0278206-0.0052032,0.0431862-0.0046921,0.0431862-0.0046921l0.8870888-0.0595016l2.39011-0.1599045l1.6235237-0.1179352
			l1.2518578,0.0602493c0.3348236,0.005043,0.6148834-0.1915207,0.7143784-0.5016556l0.2446899-0.7017593l0.4424744-0.0897064
			c0.1544952-0.0255661,0.2889709-0.0948486,0.3999786-0.1987c0.114418-0.1129761,0.1968231-0.2792511,0.2182922-0.4628983
			c0.0305176-0.3616409-0.2196503-0.6926498-0.5672302-0.7749557l-0.3385086-0.0789032l0.8782806,0.0200958
			c0.3904419-0.0054016,0.7201843-0.3078842,0.7392044-0.694458l0.0240631-0.2604294
			c0.01754-0.3405609-0.1842346-0.6484451-0.5279465-0.7551651l-0.149086-0.0449524l0.685463-0.0047836
			c0.3842545-0.0025101,0.7082214-0.3174744,0.7238998-0.6949539l0.0040054-0.3041229
			c0.0287018-0.3985367-0.291481-0.7503662-0.6934204-0.7699051l-3.2745476-0.137001l-0.2484093-0.0144501
			c-0.3808556-0.0065613-0.7541504,0.0363083-1.1300087,0.1559067c-0.1675224,0.0466309-0.3201904,0.1091309-0.472847,0.1716766
			l-3.1740456,1.5474167l-1.3753014,0.2306671L53.3430367,70.8644485z"/>
		<g>
			<path class="st0" d="M32.6953125,35.153553l-0.7856159,8.1946983c-0.0422249,0.4404526,0.0093288,0.8898544,0.1591625,1.3049583
				c0.110836,0.2875137,0.2600594,0.5568237,0.4480095,0.8007622c0.0318031,0.0467644,0.1535873,0.145874,0.315609,0.2779694
				l-0.8319931,8.6784706l4.931324,0.4727592l0.6707191-6.9961929c0.0531845-0.0240746,0.1204796-0.0394592,0.1874237-0.054924
				c0.6393814-0.2082939,1.2114182-0.6270409,1.6030388-1.2161598c0.6866112-1.005249,1.1033134-2.1602783,1.2189064-3.3660049
				l0.4111519-4.2886925c0,0,0.3534966-2.0135803-1.6203156-3.1646118L32.6953125,35.153553z"/>
			<path class="st1" d="M32.3106346,39.1344185l-0.365612,3.8136673c0.2846985-0.1063499,0.4932213-0.3749466,0.5239677-0.6956329
				l0.2245712-2.3424988C32.7243042,39.5892677,32.5699425,39.292923,32.3106346,39.1344185z"/>
			<path class="st3" d="M32.1638718,41.8705711c0.0694618-0.4961128,0.1427917-0.9831047,0.2375793-1.4757156
				c0.0064621-0.033577,0.0134048-0.0683174,0.0332603-0.0961571c0.0770302-0.108017,0.5910034-0.0508614,0.7156448-0.0566635
				c0.2658691-0.9401855,0.4881248-1.8927002,0.6658211-2.8534584c0.1143341,0.5223274,0.712719,0.8823624,1.2277565,0.7387085
				c0.5150337-0.1436501,0.8406944-0.7614174,0.6681824-1.2675171c1.5612259,0.821888,3.323513,1.2584457,5.0878639,1.260376
				c0.0671196,0.5966148,0.0730896,1.1807175,0.0720406,1.7768173c-0.0001869,0.1074104,0.0662384,0.5940514-0.0014,0.6632729
				c0.6608734-0.6763268,1.1032982-1.4827347,1.6105423-2.262249c0.1822929-0.2801476,0.314209-0.6175537,0.2485123-0.9452705
				c-0.0904846-0.4513893-0.5979347-0.7716942-1.0443459-0.6591988c0.437603-0.2607307,0.8900261-0.5500565,1.1294785-0.9996605
				c0.2394524-0.4496002,0.1709862-1.1041908-0.2753906-1.3496017c-0.1883965-0.1035805-0.4111748-0.1202393-0.6260948-0.1259079
				c-0.2585258-0.0068245-0.5173836-0.0009804-0.775341,0.017498c0.2679825-0.3393936,0.5505829-0.7239456,0.516983-1.1550751
				c-0.0143547-0.1841583-0.0877037-0.3605232-0.191082-0.5136032c-0.4473381-0.6624126-1.3500557-0.8198071-2.1493645-0.8196468
				c-0.8751335,0.0001755-1.6552086,0.2250042-2.4954185,0.3523083c-0.8672562,0.1314049-1.7540817,0.0643387-2.6264114,0.1355095
				c-0.3881264,0.0316658-0.7902985,0.0776939-1.1224098,0.2810364c-0.3321152,0.2033424-0.5724564,0.609005-0.4632874,0.982811
				c-0.2178421-0.1949959-0.5262108-0.4243355-0.8249569-0.4618301c-0.415802-0.0521889-0.8198185,0.213726-1.0536156,0.561512
				c-0.573864,0.8536606-0.6240578,2.097332-0.7012291,3.0880928c-0.0884552,1.1356239-0.0879097,2.2782059,0.0025539,3.4136887
				c0.0413342,0.5187912,0.0655575,1.0725403,0.3606606,1.5038757c0.1941586,0.2837906,0.4056358,0.5572319,0.6080227,0.8352127
				c0.303545,0.4169235,0.60709,0.833847,0.910635,1.2507706C31.9939976,43.0838623,32.0789337,42.4772148,32.1638718,41.8705711z"
				/>
			<path class="st1" d="M37.5014877,48.8882599l0.0965004-1.006588c-0.0413399,0.2416458-2.6044083-0.9109917-2.8979263-1.172657
				c-0.1661263-0.0601501-0.279911,0.1678848-0.1319656,0.2644577C35.3049927,47.860527,36.271801,48.5101357,37.5014877,48.8882599
				z"/>
			<path class="st0" d="M32.7200737,39.642086l-0.2244644,2.3413582c-0.044136,0.4603653-0.4527054,0.797451-0.9130669,0.753315
				c-0.4603577-0.0441322-0.7974415-0.4527016-0.7533073-0.9130669l0.2244644-2.341362
				c0.0220661-0.2301826,0.1353264-0.4287148,0.3002377-0.5653572c0.1654949-0.1359482,0.3825817-0.2093582,0.6127605-0.187294
				C32.4270592,38.7738152,32.7641449,39.1823845,32.7200737,39.642086z"/>
			<path class="st4" d="M37.760376,42.10532l0.4635239,0.7022247c0.1211472,0.1835365,0.0686073,0.4307137-0.1167221,0.5491028
				l-0.4972153,0.3176308"/>
			<path class="st5" d="M36.6206093,45.81707c0.0377235,0.0148811,0.0754433,0.0297585,0.1198273,0.0426865
				c0.3673019,0.1032639,0.7259521-0.0501175,1.0216751-0.2663994c0.1107903-0.0768814,0.2106438-0.1654739,0.2969513-0.25
				c0.0024109-0.0044136,0.0092392-0.0064163,0.0116501-0.0108299s0.0092392-0.0064163,0.0116501-0.0108299
				c0.0814857-0.0756989,0.1540337-0.1562843,0.2222786-0.2392197c0.0188866-0.0240707,0.0353584-0.0437279,0.054184-0.0676918
				c0.0164719-0.0196571,0.039772-0.041317,0.0498276-0.0702095c0.0048256-0.0088272,0.0052338-0.0200691-0.0011826-0.0293045
				c0.000412-0.0112419-0.0083084-0.0160065-0.010479-0.0227814c-0.0215492-0.0232391-0.0552101-0.0245781-0.0841637-0.0345268
				c-0.0200081-0.0053406-0.0469017-0.0085716-0.0668602-0.0137482c-0.0557861-0.0132866-0.1114693-0.026516-0.1672554-0.0398064
				c-0.067028-0.0136948-0.1339455-0.0273361-0.1983948-0.0454979c-0.0758553-0.0185204-0.1471863-0.0345726-0.2186279-0.0506821
				c-0.0781593-0.0140495-0.149601-0.030159-0.2252884-0.0487289c-0.0714417-0.0161095-0.1427727-0.0321617-0.2141075-0.0482101
				c-0.067028-0.0136986-0.1315346-0.0317535-0.1985016-0.0455589c-0.0557404-0.0131226-0.1114693-0.026516-0.1672554-0.0398064
				c-0.0468521-0.0084038-0.0869865-0.0188713-0.127121-0.0293388c-0.026783-0.0031738-0.0468521-0.0084076-0.071331-0.0160522
				c0,0,0,0-0.0044136-0.0024109c-0.0156555-0.0028229-0.0913429-0.0213928-0.1650887-0.0330276
				c-0.0758553-0.0185242-0.1471863-0.0345764-0.1471863-0.0345764
				C36.1636963,44.5366783,35.8896942,45.5093918,36.6206093,45.81707z"/>
			<path class="st6" d="M36.4885826,44.4450951l-0.0620155,0.2810745c-0.0293427,0.127121,0.0536079,0.2582779,0.1806679,0.2877274
				l1.451828,0.3294601c0.0024109-0.0044136,0.0092392-0.0064163,0.0116501-0.0108299s0.0092392-0.0064163,0.0116501-0.0108299
				c0.0814857-0.0756989,0.1540337-0.1562843,0.2222786-0.2392197c0.0188866-0.0240707,0.0353584-0.0437279,0.054184-0.0676918
				c0.0164719-0.0196571,0.039772-0.041317,0.0498276-0.0702095c0.0048256-0.0088272,0.0052338-0.0200691-0.0011826-0.0293045
				c0.000412-0.0112419-0.0083084-0.0160065-0.010479-0.0227814c-0.0215492-0.0232391-0.0552101-0.0245781-0.0841637-0.0345268
				c-0.0200081-0.0053406-0.0469017-0.0085716-0.0668602-0.0137482c-0.0557861-0.0132866-0.1114693-0.026516-0.1672554-0.0398064
				c-0.067028-0.0136948-0.1339455-0.0273361-0.1983948-0.0454979c-0.0758553-0.0185204-0.1471863-0.0345726-0.2186279-0.0506821
				c-0.0781593-0.0140495-0.149601-0.030159-0.2252884-0.0487289c-0.0714417-0.0161095-0.1427727-0.0321617-0.2141075-0.0482101
				c-0.067028-0.0136986-0.1315346-0.0317535-0.1985016-0.0455589c-0.0557404-0.0131226-0.1114693-0.026516-0.1672554-0.0398064
				c-0.0468521-0.0084038-0.0869865-0.0188713-0.127121-0.0293388c-0.026783-0.0031738-0.0468521-0.0084076-0.071331-0.0160522
				c0,0,0,0-0.0044136-0.0024109C36.6380157,44.4752998,36.5623283,44.4567299,36.4885826,44.4450951z"/>
			<path class="st1" d="M31.5758743,39.5774879l-0.0641632,0.6692886l0.5860405,0.3447723l0.0915794-0.9552498
				c0.0160408-0.1673203-0.1100006-0.3200912-0.2773228-0.336132S31.5919151,39.4101677,31.5758743,39.5774879z"/>
			<path class="st1" d="M32.0349274,41.2468758l-0.5894032-0.3097076l-0.0601501,0.6274109
				c-0.0160408,0.1673203,0.1100006,0.3200912,0.2773228,0.336132c0.1673203,0.0160408,0.3200912-0.1100006,0.336132-0.2773209
				L32.0349274,41.2468758z"/>
			<path class="st5" d="M50.3984375,134.6571198l-10.3862228,0.5314941
				c-0.5133171,0.0262604-0.9507408-0.3685608-0.9770088-0.8818817l-0.0388298-0.7587433l12.2130356-1.2535858l0.0709114,1.3856964
				C51.306591,134.1934204,50.9117584,134.6308441,50.3984375,134.6571198z"/>
			<path class="st5" d="M18.5661068,130.0539398l0.1205597,2.3559113c-0.3501053,0.393219-0.6850967,0.8084869-1.0528717,1.1846313
				c-0.3649445,0.3732605-1.0144424,0.2955017-1.3363991,0.7253876c-0.1269436,0.1694946-0.1656818,0.3881378-0.1856747,0.5989532
				c-0.0566921,0.5978241-0.0577774,1.3487549,0.3107128,1.8552551c0.3040524,0.417923,0.8087559,0.6593933,1.3249607,0.6329803
				c0.0015373-0.0000763,4.7794456-0.2445831,4.7794456-0.2445831c0.48069-0.0245972,0.9037914-0.3249664,1.0855389-0.7706604
				l0.2018661-0.4950104l0.3124714-0.0686493c0.3528976-0.0775452,0.6300793-0.3505554,0.7129536-0.70224l0.1416492-0.6011047
				l-0.2813072-5.4971466"/>
			<path class="st24" d="M36.7743263,58.1200714l0.0730782,1.4705276c0.0519485,1.1578331,0.1041489,2.3155365,0.1563492,3.4628029
				c0.0417595,0.9387169,0.1044006,0.7822418,0.8550682,1.0951881c1.0221138,0.4379807,0.9388466,1.919075,0.9075241,2.8369064
				c-0.0626373,1.5331726,0.3025093,3.1602936,0.6467781,4.6725845c0.3231354,1.4393311,0.8759499,2.9099884,1.8669968,4.0363693
				c0.8863869,1.02211,2.1274872,1.7522812,3.4729881,1.9086304c0.4692955,0.0522003,0.949028,0.0313187,1.4185791,0.010437
				c2.3258514-0.1251526,4.5681801-0.5006104,6.862709-0.8865128c0.4069099-0.0729523,5.893055-1.02211,5.9034958-0.907402
				c-0.2920685-2.1486206-0.3860283-4.4013901-0.3964691-6.5604553c-0.5734406,0.062645-1.1366959,0.1357193-1.7103958,0.1773529
				c-3.1185341,0.3232651-6.257946,0.490181-9.3973618,0.511055c-0.0626411,0-0.1357193,0-0.177227-0.041626
				c-0.0522003-0.0417633-0.0730782-0.1148453-0.083519-0.1773605c-0.2189903-1.3037338-0.2398682-2.6387939-0.3860283-3.9529724
				c-0.2085495-1.8461189-0.3753357-3.6921043-0.584137-5.5382233c-0.2607498-2.4302483,0.1461601-4.9228859-2.5343971-6.1641121
				c-0.2920685-0.1355934-0.604763-0.229557-0.9281502-0.2816277c-0.3025093-0.0625153-0.6154594-0.0833931-0.938591-0.0729561
				l-0.3547096,0.0208817l-0.6572189,0.020752c-0.437973,0.0208817-0.8550682,0.1042747-1.2515373,0.2504349
				C37.8588219,54.615509,36.7012444,56.2426376,36.7743263,58.1200714z"/>
			<path class="st25" d="M44.5654411,57.984478l-2.1068649,15.3841209l3.0454559,3.024704l11.2747955-1.2932968
				c0,0,0.0208817-2.4511337,0.0522003-5.6635056c-3.1185341,0.3232651-6.257946,0.490181-9.3973618,0.511055
				c-0.0626411,0-0.1357193,0-0.177227-0.041626c-0.0522003-0.0417633-0.0730782-0.1148453-0.083519-0.1773605
				c-0.2189903-1.3037338-0.2398682-2.6387939-0.3860283-3.9529724c-0.2085495-1.8461189-0.3753357-3.6921043-0.584137-5.5382233
				c-0.2607498-2.4302483,0.1461601-4.9228859-2.5343971-6.1641121c-0.2920685-0.1355934-0.604763-0.229557-0.9281502-0.2816277
				l-0.2816315,4.6518288L44.5654411,57.984478z"/>
			<path class="st37" d="M36.8435555,59.5918846l0.2004204,4.40131L37.62117,63.96912l2.8781281-0.1282463
				c-0.4409676,1.1062851-0.7055855,2.0042191-0.7055855,3.2147293c0,1.2346268,0,2.2848358,0.3287201,3.4793472
				c0.1042213,0.37677,0.513092,1.8999939,1.018158,3.7919693l1.0581856-8.5700531l1.7165337-5.8487358
				c0.1412544-0.4813004-0.4155235-0.8624535-0.8131104-0.5566254l-1.552742,1.1943932L36.8435555,59.5918846z"/>
			<path class="st15" d="M18.5184803,129.1232605l0.1205597,2.3559113l-2.1681519,2.4351349
				c-0.2691879,0.3023376-0.4085121,0.6985016-0.3878231,1.1027832l0,0c0.0434666,0.849411,0.7672901,1.5027618,1.616703,1.4592896
				l4.7794456-0.2445831c0.4806919-0.0245972,0.9037914-0.3249664,1.0855408-0.7706451l0.2018642-0.4950256l0.3124714-0.0686493
				c0.3528976-0.0775452,0.6300812-0.3505554,0.7129536-0.70224l0.1416492-0.6011047l-0.2813072-5.4971466"/>
			<path class="st15" d="M43.1854668,128.5197906l5.5310974,2.5522156l1.2653389,0.0363159
				c0.7006454,0.0201263,1.2516403,0.6056213,1.2292061,1.3061981l0,0c-0.02108,0.6582031-0.5431633,1.1903687-1.2008324,1.2240143
				l-10.3777008,0.5310669c-0.3378868,0.0172882-0.6258125-0.2425995-0.6431007-0.5804901l-0.0186539-0.3644867
				l-0.5628967-0.8704987c-0.3768959-0.5828705-0.4105453-1.3235626-0.088047-1.9382019l0.538002-1.0253448L43.1854668,128.5197906z
				"/>
			<path class="st24" d="M23.288517,78.7087097c0.0728264,0.0313263,0.3648949,0.1042786,0.8655109,0.1667862
				c0.4797344,0.073082,1.1265125,0.1461639,1.9191952,0.2191162c3.8694572,0.3754654,10.8261299,0.6570892,14.6538277-0.7092896
				c-0.0623894-0.2711868-0.0623894-0.8551941-0.0310669-1.6583176c0-0.1773529,0.0101852-0.3650208,0.0208778-0.5526886
				c0.0101891-0.2711868,0.0310669-0.5528183,0.0519485-0.8553238c0.1461601-2.3049698,0.4382286-5.5696716,0.7822418-8.8549881
				c0.2398682-2.3467331,0.500618-4.6830215,0.7404823-6.6960526c0.4069099-3.2541275,0.7198601-5.6112976,0.8031273-5.6112976
				c0.0417595-0.1876678,0.4904289-0.0729523,0.5736961-0.0729523v-0.0104408c0,0-0.0208817-0.0104408-0.0415077-0.0208817
				c-0.1252823-0.0833931-1.6480064-1.0116692-3.1605492-1.8981895c-0.1876678-0.1148376-0.3753357-0.2294273-0.5629997-0.333828
				v-0.010437c-1.3559418-0.7926865-2.5344009-1.449646-2.5552788-1.3559418
				c-0.4173508,2.8891068-5.1108131,2.3571701-4.9127045-0.5526886l-0.3129463,0.0833931l-9.6787376,2.8055878l0.5006161,1.773159
				c-0.1981087,2.0339127-0.3338299,4.0572548-0.4379749,6.0285225c-0.0106964,0.1564751-0.0208817,0.3023796-0.0208817,0.4589806
				C22.2139511,67.2358093,22.4123135,73.1494904,23.288517,78.7087097z"/>
			<path class="st37" d="M23.2869835,78.7041473c0.0721245,0.0400772,0.3688431,0.1042252,0.8657875,0.1763535
				c0.267662,0.0401535,0.5873985,0.080307,0.9537315,0.1204529c0.4526825,0.049614,0.811327-0.3839264,0.6745834-0.818306
				l-2.4638176-7.8266602c-0.0404625-0.1285324-0.0387878-0.2666321,0.0047817-0.3941498l0.4613972-1.3503952
				c0.0110664-0.0323868,0.0247459-0.0638275,0.040905-0.0940018l4.0260258-7.5187378
				c0.2752361-0.5140114-0.2330265-1.0948372-0.7790089-0.8902283l-2.448101,0.9174347
				c-0.0725021,0.0271721-0.1493797,0.0407906-0.2268047,0.0401764l-1.2963772-0.0102577
				c-0.3422565-0.0027084-0.6270599,0.2697563-0.6404095,0.6117668
				C22.2268257,67.6326752,22.442234,73.3332443,23.2869835,78.7041473z"/>
			<path class="st7" d="M17.0929546,130.6079712l7.9372768-0.4067841l0.9699116-1.5019684l0.2816277-0.437973
				c0.1357212-0.2189941,0.2503071-0.4485474,0.333828-0.6884079c0.4170952-0.990921,0.3962154-2.1171799-0.0417595-3.1081009
				l-0.6258965-1.512413l1.0116711-4.9646454l0.9179649-4.4952316l2.1486225-10.5237427l0.761364-3.7444305l0.0101852-0.0625153
				l0.4277897-2.023468l0.2398682-1.2410965l0.511055,2.8055801l4.3494453,24.2913132l-0.3025055,1.522728
				c-0.2816277,1.4498978,0.2500534,2.9413071,1.376564,3.8903351l1.2933006,1.0951996l1.4914055-0.1667938l6.0180817-0.6988525
				l-0.2398682-2.2424545l-0.4692955-4.4327164l-0.0208817-0.1772232l-1.7312737-16.3646011l-0.2085457-1.9190674
				l-0.9699135-9.021904l-0.4486694-4.2553558l-0.4170914-3.9007797l-0.3547096-3.2542572l-0.4066544-3.7963791
				l-0.0104408-0.1461563l-0.0522003-0.5631332l-0.1044006-0.9282761l-17.4909878,0.8969574l-0.5107994,0.8760757
				c-1.4081402,2.3676147-2.2425842,5.037735-2.4406929,7.7912445l-0.3233871,4.4013901l-0.6780987,9.0948563l-0.2918129,3.7547455
				L17.0929546,130.6079712z"/>
			<path class="st8" d="M19.329567,100.692955c1.0470085-4.9702301,2.531147-13.0353546,2.531147-13.0353546l2.4196529-6.0228043
				c0.4671116-1.1626968,1.5232048-1.98452,2.7650242-2.1516647l13.7182732-1.8464661l-17.4878387,0.8973618l-0.5062294,0.8744049
				c-1.403595,2.3700562-2.2434483,5.0392609-2.4390869,7.7890091l-0.3221073,4.4064865L19.329567,100.692955z"/>
			<path class="st8" d="M40.1892929,129.3330994l-1.4926376,0.1693878l-1.2958984-1.0965576
				c-1.1277466-0.9534149-1.6548958-2.4410248-1.3781242-3.8921661l0.2881622-1.5153503l-4.8395023-27.0954285l1.6520214-4.3011703
				c0.1427727-0.3717117,0.6871948-0.3073349,0.7393265,0.0874329l4.0836334,30.9247894
				C37.9462738,122.6140366,37.1438637,126.6380692,40.1892929,129.3330994z"/>
			<path class="st52" d="M34.9667587,87.5540771c0.0220108,0,0.0330505,0.0110397,0.0440865,0.0331192l-0.0330467-0.0441589
				L34.9667587,87.5540771z"/>
			<path class="st0" d="M17.8750134,76.4249268l3.4964161,4.572052l1.0991821,2.8460236l0.5498562,1.4230042l0.3071327,1.1274185
				c0.0814266,0.2905197,0.3356667,0.4900436,0.6351376,0.4952393l0.6943245,0.0150223l0.2002792,0.3801727
				c0.0567055,0.1253357,0.1618748,0.2237625,0.2782974,0.2918167c0.1390133,0.072998,0.3094387,0.0989609,0.4738407,0.0672379
				c0.3345146-0.0786743,0.5575237-0.3863754,0.5301018-0.7189789l-0.0186958-0.318924l0.2278366,0.785675
				c0.1091137,0.3459778,0.4665298,0.5565872,0.8219528,0.4684296l0.2343502-0.0609131
				c0.3056316-0.0756607,0.5253601-0.3465652,0.5211067-0.6669998l-0.0006161-0.1457443l0.2017879,0.6060791
				c0.108181,0.3387299,0.4713135,0.5341873,0.8196907,0.4467697l0.2623062-0.0711365
				c0.3691101-0.0968857,0.5845909-0.4767075,0.4885921-0.8386154l-0.7741451-2.9455566l-0.0596275-0.219841
				c-0.0937386-0.3402405-0.2444954-0.6672745-0.4427834-0.9601517c-0.0872726-0.1367493-0.187479-0.2575455-0.2947311-0.3776093
				l-2.2469673-2.3834686l-1.4503536-2.2259598l-1.0513382-1.618576L17.8750134,76.4249268z"/>
			<polygon class="st1" points="17.8750134,76.4249268 21.3714294,80.9969788 22.4706116,83.8430023 22.0312576,80.6378326 
				24.429285,78.0159683 23.3779469,76.3973923 			"/>
			<path class="st24" d="M27.379221,56.4704361c0,0.0394402,0.009861,0.0788803,0,0.1281815
				c0.0394402,0.6008492-0.0591583,1.2214203-0.2856941,1.8124084l-1.9996281,5.20084l-0.1279392,0.2955551l-0.8669453,2.226162
				l-1.1326828,2.8959198l-0.6993294,1.7730865l2.4329815,6.038208l0.0492992,0.1477737l0.0490589,0.0984802l0.0101013,0.0493011
				l0.1180782,0.2757111l0.0983582,0.2363968l-5.6735096,3.5560455l-4.8464842-9.5744095
				c-0.6007309-1.1722412-0.6598892-2.5217209-0.2068167-3.7529984c1.0244637-2.6890945,2.8663349-7.0232277,2.8663349-7.0232277
				l2.1179466-5.456955c0.4432125-1.1132011,1.2901993-1.9405899,2.3247623-2.3642044
				c0.0391998-0.0098572,0.0983582-0.0393181,0.1377983-0.0590363c0.9258652-0.3447342,1.979908-0.3545952,2.9649334,0.0295792
				c0.0490589,0.0195999,0.0884972,0.0294571,0.1082172,0.0491791
				C26.2758789,53.6632614,27.2118454,55.0027618,27.379221,56.4704361z"/>
			<path class="st25" d="M27.379221,56.5986176c0.0394402,0.6008492-0.0591583,1.2214203-0.2856941,1.8124084l-1.9996281,5.20084
				l-0.1279392,0.2955551l-0.8669453,2.226162l-1.1326828,2.8959198l-0.6993294,1.7730865l2.4329815,6.038208l0.0492992,0.1477737
				l0.0490589,0.0984802l0.0101013,0.0493011l0.1180782,0.2757111c-2.886055,0.9259872-5.0533009,1.6254349-5.0533009,1.6254349
				l-4.0088758-9.7813416c0,0,3.9105177-11.7513962,3.9105177-11.8990517
				C19.7748623,57.2585068,24.4340076,56.8547325,27.379221,56.5986176z"/>
			<line class="st4" x1="27.9238148" y1="86.9883881" x2="27.283762" y2="84.2720413"/>
			<line class="st4" x1="26.1615982" y1="86.749649" x2="25.9608803" y2="84.8269577"/>
			<line class="st4" x1="24.658289" y1="86.9020386" x2="24.3714199" y2="85.7248535"/>
		</g>
		<path class="st25" d="M25.1448193,70.3961029c0,0,2.0024605,5.8407211,2.4615707,5.9972
			c1.1262569,0.3962097,3.2853222-0.2086792,4.4431553-0.3129501c2.9099846-0.2398682,5.8092766-0.511055,8.719265-0.7613602
			c0.1461601-2.3049698,0.4382286-5.5696716,0.7822418-8.8549881c0.2398682-2.3467331,0.500618-4.6830215,0.7404823-6.6960526
			c0.4069099-3.2541275,0.7198601-5.6112976,0.8031273-5.6112976c0.0417595-0.1876678,0.4904289-0.0729523,0.5736961-0.0729523
			v-0.0104408c0,0-0.0208817-0.0104408-0.0415077-0.0208817c-0.1252823-0.0833931-1.6480064-1.0116692-3.1605492-1.8981895
			l-10.7426071,4.2553596v5.1836395L25.1448193,70.3961029z"/>
		<path class="st9" d="M36.044281,91.161972l4.1403923,33.4487991c0,0,2.8267212-1.5122833,5.2880363-2.8264618
			l-1.7312737-16.3646011l-0.2085457-1.9190674l-0.9699135-9.021904l-0.4486694-4.2553558l-0.4170914-3.9007797L36.044281,91.161972
			z"/>
		<path class="st9" d="M21.7342167,128.0943298l4.881382-0.521492c0.4170952-0.990921,0.3962154-2.1171799-0.0417595-3.1081009
			l-0.6258965-1.512413l1.0116711-4.9646454l0.9179649-4.4952316l2.1486225-10.5237427l0.761364-3.7444305l0.0101852-0.0625153
			l0.0315742-0.7613602c0,0-7.7809296,4.2135925-7.7809296,4.6100616
			C23.0483952,103.4066772,21.7342167,128.0943298,21.7342167,128.0943298z"/>
		<line class="st101" x1="22.2688236" y1="70.8075409" x2="20.1671028" y2="70.554863"/>
		<line class="st39" x1="47.2538261" y1="69.9065323" x2="45.4727097" y2="71.8173141"/>
		<path class="st18" d="M33.5326042,91.2720871c0.1626434-3.9103546,0.1082268-7.8297272-0.1629143-11.7340622"/>
		<path class="st18" d="M30.6758995,79.0393143c-0.0697861,3.4779968,0.0718803,6.960228,0.423954,10.4210663
			c0.0362701,0.3565292,0.0829716,0.733757,0.3050499,1.0150299c0.2220764,0.2812729,0.6840591,0.403656,0.9404907,0.1533127"/>
		<path class="st0" d="M62.1777802,68.292984l3.2402802-0.9646912c0.402565-0.1347275,0.8292694,0.1263428,0.8925934,0.5461121
			c0.0529709,0.3511276-0.1718216,0.6843262-0.5172501,0.7666702l-4.577179,2.5863419
			c-0.2040367-0.1607513-0.3891029-0.3946457-0.4498444-0.6472015c-0.0607376-0.2525482,0.0274162-0.552536,0.253685-0.6801071"/>
	</g>
	<ellipse class="st40" cx="64.8687668" cy="46.7616844" rx="8.1660414" ry="10.8106699"/>
	<ellipse class="st6" cx="64.8687668" cy="46.7616844" rx="6.1685328" ry="8.166254"/>
	<ellipse class="st131" cx="64.8687668" cy="46.7616844" rx="6.1685328" ry="8.166254"/>
	<path class="st40" d="M64.8687668,81.2130814L64.8687668,81.2130814c-1.1605759,0-2.0880928-0.9655228-2.0415077-2.1251602
		l0.8913269-22.1877747h2.3003654l0.8913193,22.1877747C66.9568558,80.2475586,66.0293427,81.2130814,64.8687668,81.2130814z"/>
	<text transform="matrix(1 0 0 1 95.8052826 61.8929443)" class="st6 st132 st133">$</text>
	<g>
		<circle class="st131" cx="133.3031006" cy="25.8099461" r="8.6969042"/>
		<path class="st131" d="M141.760376,27.8358307c-0.9162445,3.8218994-4.3539734,6.6686363-8.4614563,6.6686363
			c-4.7971802,0-8.687973-3.8909206-8.687973-8.6977234c0-1.6351738,0.4530716-3.16189,1.2411346-4.4720497
			c-0.1476517,0.6402893-0.226532,1.3002987-0.226532,1.979908c0,4.8069248,3.8907928,8.6978416,8.6978455,8.6978416
			C137.4754181,32.0124435,140.2335358,30.3378315,141.760376,27.8358307z"/>
		<text transform="matrix(1 0 0 1 130.1109467 29.9300537)" class="st6 st132 st134">$</text>
	</g>
	<g>
		<circle class="st131" cx="106.8431702" cy="94.135498" r="12.9300861"/>
		<path class="st131" d="M117.242981,101.8209991c-2.3543472,3.1816101-6.1366806,5.2404022-10.4019165,5.2404022
			c-7.1414261,0-12.9233932-5.7820892-12.9233932-12.9235153c0-4.2651138,2.0587845-8.047699,5.2403946-10.4019165
			c-1.5859909,2.1473999-2.5315781,4.8069229-2.5315781,7.6832352c0,7.1414261,5.7918243,12.9333725,12.9332504,12.9333725
			C112.4361801,104.3525772,115.0956955,103.4069977,117.242981,101.8209991z"/>
		<text transform="matrix(1 0 0 1 102.0982513 100.262085)" class="st6 st132 st135">$</text>
	</g>
	<g>
		<circle class="st131" cx="133.3031006" cy="78.5378342" r="7.6759071"/>
		<path class="st131" d="M140.2631226,81.7757797c-1.2216644,2.6300583-3.8811798,4.4424667-6.9642029,4.4424667
			c-4.2356415,0-7.6733704-3.4377213-7.6733704-7.6831207c0-2.0390625,0.7979279-3.9007721,2.0881271-5.2699738
			c-0.4530716,0.9850235-0.7089539,2.0785065-0.7089539,3.2309113c0,4.2455139,3.4374924,7.6832352,7.6830063,7.6832352
			C136.8843079,84.1792984,138.864212,83.2533112,140.2631226,81.7757797z"/>
		<text transform="matrix(1 0 0 1 130.4859467 82.1732178)" class="st6 st132 st136">$</text>
	</g>
	<g>
		<path class="st29" d="M81.7671127,119.5559311v16.4008408c0,1.2789917-0.9250412,2.3153381-2.0666122,2.3153381H56.4468651
			c-1.1416512,0-2.0666161-1.0363464-2.0666161-2.3153381v-16.4008408c0-1.2757339,0.9249649-2.3153305,2.0666161-2.3153305
			h23.2536354C80.8420715,117.2406006,81.7671127,118.2801971,81.7671127,119.5559311z"/>
		<path class="st62" d="M66.8403091,117.7201538h-7.2415962v-1.7973709c0-1.2440948,1.0085411-2.2526398,2.2526436-2.2526398
			h2.7363052c1.2441025,0,2.2526474,1.0085449,2.2526474,2.2526398V117.7201538z"/>
		<rect x="58.8053017" y="116.5529175" class="st10" width="1.5868194" height="1.0408514"/>
		<rect x="66.0468979" y="116.5529175" class="st10" width="1.5868194" height="1.0408514"/>
		<path class="st10" d="M75.7860413,119.5540695v16.4006882c0,1.2845001-0.9288635,2.3149719-2.0682068,2.3149719H50.4665718
			c-1.1393471,0-2.0682564-1.0304718-2.0682564-2.3149719v-16.4006882c0-1.2772293,0.9289093-2.3149719,2.0682564-2.3149719
			h23.2512627C74.8571777,117.2390976,75.7860413,118.2768402,75.7860413,119.5540695z"/>
		<path class="st28" d="M75.7860413,119.5540695v14.0929947l-3.3962479,0.3338318l-2.394783-16.7417984h3.7228241
			C74.8571777,117.2390976,75.7860413,118.2768402,75.7860413,119.5540695z"/>
		<polygon class="st28" points="68.6452255,136.7747955 57.7017326,136.3176117 56.1269875,117.6236954 57.3098717,117.2390976 
			68.4275284,117.2390976 		"/>
		<path class="st28" d="M53.050045,133.0665131c0,0.1596222-3.1640625,0.3120422-4.6517296,0.3701019v-13.8825455
			c0-1.2772293,0.9289093-2.3149719,2.0682564-2.3149719h2.6414986
			C53.1008072,123.3857193,53.0137253,132.9286194,53.050045,133.0665131z"/>
		<path class="st17" d="M55.3630486,138.8869629h-0.470356c-0.4200287,0-0.7605324-0.3404999-0.7605324-0.7605286v-20.7401657
			c0-0.4200287,0.3405037-0.7605286,0.7605324-0.7605286h0.470356c0.4200325,0,0.7605324,0.3404999,0.7605324,0.7605286v20.7401657
			C56.1235809,138.546463,55.7830811,138.8869629,55.3630486,138.8869629z"/>
		<path class="st17" d="M69.2318573,138.8869629h-0.4703598c-0.4200287,0-0.7605286-0.3404999-0.7605286-0.7605286v-20.7401657
			c0-0.4200287,0.3404999-0.7605286,0.7605286-0.7605286h0.4703598c0.4200287,0,0.7605286,0.3404999,0.7605286,0.7605286v20.7401657
			C69.9923859,138.546463,69.651886,138.8869629,69.2318573,138.8869629z"/>
		<path class="st15" d="M64.8884277,114.198761h-3.5562134c-0.2351761,0-0.4258232-0.1906433-0.4258232-0.4258194v-0.2633591
			c0-0.2351685,0.1906471-0.4258194,0.4258232-0.4258194h3.5562134c0.2351761,0,0.4258194,0.1906509,0.4258194,0.4258194v0.2633591
			C65.3142471,114.0081177,65.1236038,114.198761,64.8884277,114.198761z"/>
		<g>
			<circle class="st35" cx="68.9436646" cy="134.9652405" r="0.4683949"/>
			<circle class="st35" cx="68.9436646" cy="130.2029877" r="0.4683949"/>
			<circle class="st35" cx="68.9436646" cy="125.4407501" r="0.4683949"/>
			<circle class="st35" cx="68.9436646" cy="120.6785049" r="0.4683949"/>
		</g>
		<g>
			<circle class="st35" cx="55.1278725" cy="134.9652405" r="0.4683949"/>
			<circle class="st35" cx="55.1278725" cy="130.2029877" r="0.4683949"/>
			<circle class="st35" cx="55.1278725" cy="125.4407501" r="0.4683949"/>
			<circle class="st35" cx="55.1278725" cy="120.6785049" r="0.4683949"/>
		</g>
	</g>
	<path class="st137" d="M111.0025177,83.8927383c1.8565903,0.4169998,3.5142746,1.65065,4.4468155,3.3093185"/>
	<path class="st137" d="M135.2363434,72.3501205c1.2880707,0.2187653,2.4925079,0.9005203,3.3430328,1.8922806"/>
	<path class="st137" d="M134.8777924,18.4015923c1.7819366,0.5707073,3.3603668,1.7567997,4.4043274,3.3095894"/>
	<path class="st138" d="M100.0550461,28.7479877c1.1920776-0.6337967,15.4403-2.0034752,21.036377,11.9858685"/>
	<path class="st0" d="M61.7801857,68.4355774l1.3671722-1.0141678c0.7392883-0.5484009,1.7844658,0.0031815,1.7489281,0.9229813l0,0
		c-0.0167313,0.4330902-0.2870026,0.8156738-0.6895905,0.9761887l-2.5598106,1.6634903"/>
</g>
</svg>
