<?xml version="1.0" encoding="utf-8"?>
<!-- Generator: Adobe Illustrator 22.0.1, SVG Export Plug-In . SVG Version: 6.00 Build 0)  -->
<svg version="1.1" id="Layer_1" xmlns="http://www.w3.org/2000/svg" xmlns:xlink="http://www.w3.org/1999/xlink" x="0px" y="0px"
	 viewBox="0 0 156 156" style="enable-background:new 0 0 156 156;" xml:space="preserve">
<style type="text/css">
	.st0{fill:#FFD9B2;}
	.st1{fill:#F7AC76;}
	.st2{fill:none;stroke:#3643C3;stroke-width:0.5;stroke-linecap:round;stroke-linejoin:round;stroke-miterlimit:10;}
	.st3{fill:#233764;}
	.st4{fill:none;stroke:#F7AC76;stroke-width:0.5;stroke-linecap:round;stroke-linejoin:round;stroke-miterlimit:10;}
	.st5{fill:#161718;}
	.st6{fill:#FFFFFF;}
	.st7{fill:#F06449;}
	.st8{fill:#BE412D;}
	.st9{fill:#FE8E60;}
	.st10{fill:#7D4C47;}
	.st11{fill:#4456D6;}
	.st12{fill:#203881;}
	.st13{fill:#6582FC;}
	.st14{fill:#DDA103;}
	.st15{fill:#FBC32E;}
	.st16{fill:none;stroke:#DDA103;stroke-width:0.5;stroke-miterlimit:10;}
	.st17{fill:#FBE6BB;}
	.st18{fill:none;stroke:#BE412D;stroke-width:0.5;stroke-linecap:round;stroke-linejoin:round;stroke-miterlimit:10;}
	.st19{fill:none;stroke:#F06449;stroke-width:0.5;stroke-linecap:round;stroke-linejoin:round;stroke-miterlimit:10;}
	.st20{fill:#F34B4B;}
	.st21{fill:#FC7070;}
	.st22{fill:none;stroke:#FFFFFF;stroke-miterlimit:10;}
	.st23{fill:#FC9F9F;}
	.st24{fill:#408A6F;}
	.st25{fill:#64B48D;}
	.st26{fill:none;stroke:#FBE6BB;stroke-width:0.5;stroke-linecap:round;stroke-linejoin:round;stroke-miterlimit:10;}
	.st27{fill:none;stroke:#F7AC76;stroke-width:0.25;stroke-linecap:round;stroke-linejoin:round;stroke-miterlimit:10;}
	.st28{fill:#A0665A;}
	.st29{fill:#6C3F44;}
	.st30{fill:none;stroke:#6C3F44;stroke-width:0.5;stroke-linecap:round;stroke-linejoin:round;stroke-miterlimit:10;}
	.st31{fill:none;stroke:#7D4C47;stroke-width:0.5;stroke-linecap:round;stroke-linejoin:round;stroke-miterlimit:10;}
	.st32{fill:none;stroke:#F34B4B;stroke-width:0.5;stroke-linecap:round;stroke-linejoin:round;stroke-miterlimit:10;}
	.st33{fill:none;stroke:#FC7070;stroke-width:0.5;stroke-linecap:round;stroke-linejoin:round;stroke-miterlimit:10;}
	.st34{fill:#EAE8F3;}
	.st35{fill:#40304A;}
	.st36{fill:none;stroke:#43334E;stroke-linecap:round;stroke-linejoin:round;stroke-miterlimit:10;}
	.st37{fill:#32775B;}
	.st38{fill:none;stroke:#233764;stroke-width:0.5;stroke-linecap:round;stroke-linejoin:round;stroke-miterlimit:10;}
	.st39{fill:none;stroke:#408A6F;stroke-width:0.5;stroke-linecap:round;stroke-linejoin:round;stroke-miterlimit:10;}
	.st40{fill:#3643C3;}
	.st41{opacity:0.56;fill:url(#SVGID_1_);}
	.st42{opacity:0.52;fill:#FBC32E;}
	.st43{opacity:0.56;fill:url(#SVGID_2_);}
	.st44{fill:none;stroke:#EAE8F3;stroke-width:0.5;stroke-linecap:round;stroke-linejoin:round;stroke-miterlimit:10;}
	.st45{fill:#FEFFFD;}
	.st46{opacity:0.35;fill:#32775B;}
	.st47{fill:#43334E;}
	.st48{fill:none;stroke:#EAE8F3;stroke-width:0.25;stroke-linecap:round;stroke-linejoin:round;stroke-miterlimit:10;}
	.st49{fill:none;stroke:#FBC32E;stroke-width:0.5;stroke-linecap:round;stroke-linejoin:round;stroke-miterlimit:10;}
	.st50{fill:none;stroke:#161718;stroke-width:0.5;stroke-linecap:round;stroke-linejoin:round;stroke-miterlimit:10;}
	.st51{fill:none;stroke:#40304A;stroke-linecap:round;stroke-linejoin:round;stroke-miterlimit:10;}
	.st52{opacity:0.33;fill:#FBC32E;}
	.st53{fill:#A6A3AE;}
	.st54{fill:#5B4B68;}
	.st55{fill:#776688;}
	.st56{fill:none;stroke:#FBC32E;stroke-width:0.5;stroke-miterlimit:10;}
	.st57{fill:none;stroke:#EAE8F3;stroke-linecap:round;stroke-linejoin:round;stroke-miterlimit:10;}
	.st58{fill:none;stroke:#203881;stroke-width:2;stroke-linecap:round;stroke-linejoin:round;stroke-miterlimit:10;}
	.st59{fill:none;stroke:#40304A;stroke-width:2;stroke-linecap:round;stroke-linejoin:round;stroke-miterlimit:10;}
	.st60{fill:#FFD8B7;}
	.st61{fill:#F4E4D4;}
	.st62{fill:none;stroke:#4456D6;stroke-width:0.5;stroke-linecap:round;stroke-linejoin:round;stroke-miterlimit:10;}
	.st63{fill:none;stroke:#DDA103;stroke-width:0.25;stroke-miterlimit:10;}
	.st64{fill:none;stroke:#FFFFFF;stroke-width:0.5;stroke-linecap:round;stroke-linejoin:round;stroke-miterlimit:10;}
	.st65{fill:none;stroke:#64B48D;stroke-width:0.5;stroke-linecap:round;stroke-linejoin:round;stroke-miterlimit:10;}
	.st66{fill:none;stroke:#64B48D;stroke-linecap:round;stroke-linejoin:round;stroke-miterlimit:10;}
	.st67{opacity:0.48;fill:#64B48D;}
	.st68{fill:none;stroke:#64B48D;stroke-width:0.25;stroke-linecap:round;stroke-linejoin:round;stroke-miterlimit:10;}
	.st69{fill:none;stroke:#F06449;stroke-width:2;stroke-linecap:round;stroke-linejoin:round;stroke-miterlimit:10;}
	.st70{opacity:0.92;fill:#64B48D;}
	.st71{opacity:0.57;fill:#408A6F;}
	.st72{opacity:0.36;fill:#408A6F;}
	.st73{fill:none;stroke:#BE412D;stroke-width:2;stroke-linecap:round;stroke-linejoin:round;stroke-miterlimit:10;}
	.st74{opacity:0.65;fill:none;stroke:#408A6F;stroke-width:0.25;stroke-linecap:round;stroke-linejoin:round;stroke-miterlimit:10;}
	.st75{opacity:0.67;fill:none;stroke:#64B48D;stroke-width:0.25;stroke-linecap:round;stroke-linejoin:round;stroke-miterlimit:10;}
	.st76{opacity:0.98;fill:#64B48D;}
	.st77{fill:none;stroke:#408A6F;stroke-width:0.25;stroke-linecap:round;stroke-linejoin:round;stroke-miterlimit:10;}
	.st78{fill:none;stroke:#FFD9B2;stroke-width:0.5;stroke-linecap:round;stroke-linejoin:round;}
	
		.st79{fill:none;stroke:#FFD9B2;stroke-width:0.5;stroke-linecap:round;stroke-linejoin:round;stroke-dasharray:4.0333505,4.0333505;}
	.st80{fill:#E68B4A;}
	.st81{opacity:0.62;fill:#64B48D;}
	.st82{fill:none;stroke:#FBC32E;stroke-width:0.25;stroke-miterlimit:10;}
	.st83{fill:none;stroke:#4456D6;stroke-linecap:round;stroke-linejoin:round;stroke-miterlimit:10;}
	.st84{fill:none;stroke:#E68B4A;stroke-width:0.5;stroke-linecap:round;stroke-linejoin:round;stroke-miterlimit:10;}
	.st85{fill:none;stroke:#203881;stroke-width:0.5;stroke-linecap:round;stroke-linejoin:round;stroke-miterlimit:10;}
	.st86{opacity:0.29;fill:#EAE8F3;}
	.st87{fill:none;stroke:#A6A3AE;stroke-width:0.5;stroke-linecap:round;stroke-linejoin:round;stroke-miterlimit:10;}
	.st88{opacity:0.74;fill:#FFFFFF;}
	.st89{opacity:0.19;fill:#FFFFFF;}
	.st90{fill:none;stroke:#40304A;stroke-width:0.25;stroke-linecap:round;stroke-linejoin:round;stroke-miterlimit:10;}
	.st91{fill:none;stroke:#F34B4B;stroke-width:2;stroke-linecap:round;stroke-linejoin:round;stroke-miterlimit:10;}
	.st92{fill:none;stroke:#43334E;stroke-width:0.5;stroke-linecap:round;stroke-linejoin:round;stroke-miterlimit:10;}
	.st93{fill:none;stroke:#6582FC;stroke-miterlimit:10;}
	.st94{opacity:0.47;fill:#A6A3AE;}
	.st95{opacity:0.43;fill:#FFFFFF;}
	.st96{fill:none;stroke:#FBE6BB;stroke-linecap:round;stroke-linejoin:round;stroke-miterlimit:10;}
	.st97{fill:none;stroke:#5B4B68;stroke-width:0.5;stroke-linecap:round;stroke-linejoin:round;stroke-miterlimit:10;}
	.st98{fill:none;stroke:#40304A;stroke-width:0.5;stroke-linecap:round;stroke-linejoin:round;stroke-miterlimit:10;}
	.st99{fill:none;stroke:#DDA103;stroke-linecap:round;stroke-linejoin:round;stroke-miterlimit:10;}
	.st100{fill:none;stroke:#FBC32E;stroke-linecap:round;stroke-linejoin:round;stroke-miterlimit:10;}
	.st101{fill:none;stroke:#32775B;stroke-width:0.5;stroke-linecap:round;stroke-linejoin:round;stroke-miterlimit:10;}
	.st102{opacity:0.4;fill:#FBE6BB;}
	.st103{fill:none;stroke:#FBC32E;stroke-width:0.25;stroke-linecap:round;stroke-linejoin:round;stroke-miterlimit:10;}
	.st104{fill:none;stroke:#4456D6;stroke-miterlimit:10;}
	.st105{opacity:0.61;fill:#64B48D;}
	.st106{opacity:0.9;fill:#64B48D;}
	.st107{opacity:0.76;fill:#64B48D;}
	.st108{fill:none;stroke:#5B4B68;stroke-width:0.5;stroke-miterlimit:10;}
	.st109{opacity:0.66;fill:#A6A3AE;}
	.st110{fill:none;stroke:#43334E;stroke-miterlimit:10;}
	.st111{opacity:0.52;fill:#6582FC;}
	.st112{fill:none;stroke:#DDA103;stroke-width:0.5;stroke-linecap:round;stroke-linejoin:round;stroke-miterlimit:10;}
	.st113{fill:#46724E;}
	.st114{fill:#FE8B2E;}
	.st115{fill:none;stroke:#7D4C47;stroke-width:2;stroke-linecap:round;stroke-linejoin:round;stroke-miterlimit:10;}
	.st116{opacity:0.4;fill:#EAE8F3;}
	.st117{fill:none;stroke:#EAE8F3;stroke-width:0.5;stroke-linecap:round;stroke-miterlimit:10;}
	.st118{fill:none;stroke:#4456D6;stroke-width:0.25;stroke-linecap:round;stroke-linejoin:round;stroke-miterlimit:10;}
	.st119{opacity:0.5;fill:#EAE8F3;}
	.st120{opacity:0.46;fill:#A6A3AE;}
	.st121{fill:#E0916E;}
	.st122{fill:none;stroke:#A0665A;stroke-linecap:round;stroke-linejoin:round;stroke-miterlimit:10;}
	.st123{opacity:0.46;fill:#BE412D;}
	.st124{fill:none;stroke:#203881;stroke-linecap:round;stroke-linejoin:round;stroke-miterlimit:10;}
	.st125{fill:#DBDBE1;}
	.st126{fill:none;stroke:#6582FC;stroke-width:0.5;stroke-linecap:round;stroke-linejoin:round;stroke-miterlimit:10;}
	.st127{opacity:0.53;fill:#A6A3AE;}
	.st128{fill:none;stroke:#DDA103;stroke-miterlimit:10;}
	.st129{opacity:0.2;fill:#FFFFFF;}
	.st130{fill:#B4A1BF;}
	.st131{opacity:0.5;fill:#6582FC;}
	.st132{opacity:0.6;fill:none;stroke:#FFFFFF;stroke-linecap:round;stroke-linejoin:round;stroke-miterlimit:10;}
	.st133{opacity:0.6;fill:none;stroke:#FFFFFF;stroke-width:2;stroke-linecap:round;stroke-linejoin:round;stroke-miterlimit:10;}
	.st134{opacity:0.54;fill:#A6A3AE;}
	.st135{fill:#161718;stroke:#000000;stroke-width:0.25;stroke-miterlimit:10;}
</style>
<g id="_x31_">
	<g>
		<path class="st8" d="M71.9342957,106.5333633c-0.1428528,0.4538651-0.1968842,0.9448853-0.1373749,1.4514542l2.3526764,20.2033081
			c0.193924,1.7704773,1.6735077,3.0802612,3.4439774,3.0802612h26.024086c1.7706146,0,3.2500534-1.3097839,3.4682541-3.0802612
			l2.3283997-20.2033081c0.0596619-0.5065689,0.0056229-0.9975891-0.1372223-1.4514542H71.9342957z"/>
		<path class="st25" d="M83.1693954,99.4036942c0.1516266,0.5652008,0.401474,1.0917282,0.6016769,1.6333313
			c0.0364609,0.0812912,0.063385,0.1551666,0.0998459,0.2364578c0.0420609,0.1235199,0.0936508,0.2544479,0.127243,0.3790741
			c0.032486,0.1162186,0.0649185,0.2324371,0.0973969,0.3486023l2.4874115-0.5847321
			c-0.4463272-0.6469879-0.7092285-1.4040909-0.8294525-2.1885376c-0.0177689-0.1353226-0.0355453-0.2706909-0.0448456-0.4071274
			c-0.0572052-0.698082,0.0062027-1.3947754,0.1310425-2.0823593c0.0381165-0.1684952,0.0677643-0.3358765,0.1058273-0.5043716
			c0.0216522-0.0974808,0.0447769-0.1177444-0.0148544-0.1787109c-0.0585251-0.0525589-0.1824722-0.0793457-0.2472382-0.1138535
			c-0.3278809-0.137619-0.6546021-0.2668228-0.988678-0.3864517c-0.0625534-0.0176239-0.1251068-0.035202-0.1843185-0.0274277
			c-0.0930405,0.0122147-0.1687164,0.0910034-0.2286377,0.1590576c-0.1734314,0.186264-0.3384552,0.3714218-0.4927292,0.572403
			c-0.0084686,0.0011063-0.0084686,0.0011063-0.0084686,0.0011063c-0.2373734,0.289299-0.4460144,0.6006622-0.5888138,0.9550095
			C82.9073486,97.9322739,82.9616852,98.6737442,83.1693954,99.4036942z"/>
		<path class="st24" d="M82.2569656,104.31633c0.0203323,0.5480423,0.5474854,1.0897293,0.9511948,1.3465347
			c0.7990036,0.5146103,1.8083954,0.6660461,2.7418213,0.500473c0.9418335-0.1667252,1.8087158-0.6419296,2.5181122-1.2685623
			c0.4410706-0.3762817,0.8371582-0.8327408,0.9955978-1.3955917c0.1118546-0.3932953,0.0868073-0.8460846-0.1154327-1.2067566
			c-0.1325912-0.2234955-0.3560104-0.4178925-0.551857-0.5986786c-0.0681-0.0599136-0.1266327-0.1124649-0.1766891-0.1661301
			c-0.4175034-0.4270477-0.9716644-0.7156677-1.5554733-0.8369064c-0.1854324-0.0358963-0.369751-0.0633163-0.5591583-0.0642929
			c-1.0107727-0.030777-2.018631,0.4199295-2.7624817,1.1113205c-0.352478,0.3302536-0.661087,0.7321548-0.898735,1.1505814
			c-0.0859528,0.1317673-0.1549683,0.2613068-0.2228775,0.3992615c-0.1285095,0.2664413-0.3095779,0.591362-0.3575439,0.8816299
			C82.2532196,104.2221832,82.2514191,104.2740479,82.2569656,104.31633z"/>
		<path class="st15" d="M96.1917648,114.4269638c-0.1668625,0.8760681-0.4171524,1.793808-1.0012512,2.4613342
			c-0.5840149,0.6952896-1.5991058,1.0846024-2.4195786,0.7230377c-0.1947021,0.8204803-0.7508774,1.6687088-1.5295944,1.9329147
			c-0.8065567,0.2642136-1.6965408,0.3476486-2.3500671-0.1807785c-0.0695114,0.0834274-0.2502975,0.0556793-0.3059692,0.1391068
			c-0.2780457,0.4032364-0.7926407,0.5840149-1.2793045,0.5422592c-0.4866638-0.0277557-0.9316559-0.2502899-1.3627319-0.4866638
			c-0.7509613-0.41716-1.4184113-0.9316635-2.0302658-1.5156784c-1.5574265-1.4740829-2.7672195-3.3374023-3.9353333-5.1034546
			c-0.681366-1.029007-1.3071442-2.1136093-1.6269455-3.3234787c-0.013916-0.0695114-0.0416718-0.1529465-0.0555954-0.2224579
			c-0.1251831-0.5005875-0.1530228-1.029007-0.1251831-1.5574341c0.0695114-0.7926331,0.3198013-1.5574265,0.8204727-2.1832047
			c0.8203888-1.029007,2.475174-1.5991898,3.615448-0.9455795c0.66745-1.0846863,1.7521362-1.9189911,2.9897614-2.2666321
			c1.2375412-0.3615646,2.6698685-0.4032364,3.8240662,0.1668625c0.7369614-0.7231293,1.7242966-1.1819534,2.7533035-1.2237091
			c1.0150909-0.0277557,2.0580215,0.3893967,2.7394714,1.1541977c0.5840149,0.6535263,0.8482285,1.5018387,1.042923,2.3639832
			c0.0138397,0.0834351,0.0416794,0.1807785,0.0555954,0.2642136c0.2085342,1.126358,0.3198013,2.0440979,0.4171524,3.1843719
			C96.5950012,110.3804398,96.5533295,112.4245377,96.1917648,114.4269638z"/>
		<g>
			<path class="st1" d="M102.3700409,94.4534225c-1.5897675,0.9900513-2.7974167,2.5116272-3.670845,4.1724243
				c-0.8715363,1.6537933-1.4405746,3.4531631-1.9682312,5.2524414c-2.0289536,6.8662338-3.616127,13.8631592-4.760498,20.9309464
				l1.1482697,0.3516922l8.6224747,2.6463776c1.1523056-4.3461304,2.3065109-8.6992645,3.4608154-13.0524597
				c1.5812454-5.9467697,3.1656418-12.1969681,1.7262955-18.1827927c-0.0507584-0.2014847-0.1066208-0.41185-0.1712952-0.6171875
				c-0.2689667-0.8390045-0.7014618-1.6432343-1.4889297-1.9951782
				C104.3365555,93.5426636,103.2370377,93.9140244,102.3700409,94.4534225z"/>
			<path class="st0" d="M103.3008957,96.0816803c-1.5906219,0.9897079-2.7987213,2.5024109-3.6673965,4.1680908
				c-0.8750076,1.6570129-1.4407272,3.4624176-1.9652634,5.2510071c-1.2733994,4.2765198-2.3616257,8.6049042-3.2711411,12.9764099
				c-0.4669495,2.214798-0.8973389,4.442955-1.276123,6.6868439l8.6231232,2.6426086
				c0.5813599-2.2047577,1.1713486-4.4159012,1.7462921-6.6294327c0.0943985-0.3098831,0.1673584-0.6308746,0.2554169-0.9494247
				c0.4902802-1.8171082,0.9742203-3.6428833,1.4581146-5.4687042c0.1603394-0.585556,0.3056183-1.1734924,0.4659195-1.7591019
				c0.2378769-0.936676,0.4694595-1.8820648,0.6859512-2.8298874c0.5898056-2.5588989,1.0374603-5.1475677,1.1200104-7.7232742
				c0.0667038-1.9754791-0.0849533-3.9384613-0.5500107-5.8727188c-0.0450668-0.2079391-0.1052475-0.4181366-0.1740646-0.6219254
				c-0.1472549-0.1464844-0.3358002-0.2761688-0.5527954-0.3716354
				C105.2664566,95.1655579,104.1734924,95.5369797,103.3008957,96.0816803z"/>
			<path class="st1" d="M101.8414154,101.2444153c-0.6740646,0.3398972-1.2267075,0.9530182-1.4254379,1.6881104
				c-0.1785355,0.6465988-0.0783768,1.3460388,0.1799927,1.960495c0.2608261,0.6189575,0.6709747,1.1580658,1.1199799,1.651207
				c0.6694641,0.7331696,1.4347458,1.3757706,2.2165451,1.9852905c0.7696762,0.5987167,1.567955,1.1750946,2.426384,1.6400299
				c0.5826035-2.5582199,1.0347824-5.1479568,1.1180191-7.7209396c-0.5846176-0.3383713-1.1774673-0.6601715-1.7886963-0.9418182
				c-0.5214233-0.2386627-1.0600967-0.4555817-1.6237793-0.551651
				C103.3147964,100.8239059,102.5199432,100.9019852,101.8414154,101.2444153z"/>
			<path class="st1" d="M99.1376953,111.2599716c-0.681076,0.3380051-1.2311554,0.9555817-1.4323425,1.6861572
				c-0.1741867,0.644104-0.074028,1.3435516,0.1868973,1.9624481c0.2583771,0.6144485,0.6710815,1.1580048,1.1199799,1.6512146
				c0.6694641,0.7331619,1.4277573,1.3739014,2.2139893,1.980835c0.7964554,0.624733,1.627861,1.2175598,2.5213165,1.6919403
				c0.4850922-1.8221054,0.971962-3.6511612,1.4544907-5.4777222c0.1571121-0.5810928,0.311554-1.1665726,0.463562-1.7565384
				c-0.8782883-0.5304108-1.7603607-1.046814-2.6811066-1.4759598c-0.5214233-0.2386627-1.0644379-0.4530869-1.6307907-0.5535431
				C100.6086273,110.8349533,99.8162231,110.9175491,99.1376953,111.2599716z"/>
		</g>
		<polygon class="st8" points="74.2537766,106.3277054 61.493969,107.2551041 63.9900894,127.9840546 78.2848053,130.2634735 		"/>
		<g>
			<polygon class="st6" points="77.2672577,125.5182648 77.2678299,125.5372772 67.5935822,126.5487518 66.7413712,124.1124268 
				62.9071541,113.1727982 71.9037247,110.7938919 75.331665,120.2248459 75.3411713,120.224556 			"/>
			<polygon class="st34" points="80.7754288,120.7750397 77.2672577,125.5182648 75.3411713,120.224556 71.9037247,110.7938919 
				71.9031525,110.7748795 75.8809509,107.4338379 79.8237305,118.1896286 			"/>
			<polygon class="st14" points="71.8992844,110.7914124 72.2773895,106.0039749 63.6313705,108.6042328 62.9050293,113.1750412 			
				"/>
			<polygon class="st15" points="75.8801117,107.4297409 72.276947,105.9890594 71.8988419,110.7764969 			"/>
			<polygon class="st34" points="63.6309242,108.5893173 62.7706985,106.1343002 71.2829056,103.6035233 72.276947,105.9890594 			
				"/>
		</g>
		<g>
			<path class="st47" d="M93.4234467,109.3389435c-0.3205109,0-0.5798645-0.2593536-0.5798645-0.5798645V92.946991
				c0-0.3205109,0.2593536-0.5798645,0.5798645-0.5798645s0.5798645,0.2593536,0.5798645,0.5798645v15.812088
				C94.0033112,109.0795898,93.7439575,109.3389435,93.4234467,109.3389435z"/>
		</g>
		<path class="st8" d="M109.2771378,106.5333176H93.8576889v18.0170212h-3.8327637v6.7180023h13.5927887
			c1.7705994,0,3.2499924-1.3097992,3.4682236-3.080246l2.3283768-20.20327
			C109.4739838,107.4782181,109.4199753,106.9871902,109.2771378,106.5333176z"/>
		<path class="st7" d="M96.9612274,106.5289307H59.6178818c-0.1507721,0.4638519-0.1971359,0.9509888-0.1391602,1.4612732
			l2.3542137,20.2024841c0.1855965,1.7628174,1.6700172,3.0732422,3.4444389,3.0732422h26.0243607
			c1.7628098,0,3.2472305-1.3104248,3.4443665-3.0732422l2.3426743-20.2024841
			C97.1583633,107.4799194,97.1003876,106.9927826,96.9612274,106.5289307z M88.1008682,127.1837311H67.399704
			c-0.4523163,0-0.8234406-0.4870682-0.8234406-1.1133652c0-0.6262283,0.3711243-1.1132965,0.8234406-1.1132965h20.7011642
			c0.4523087,0,0.8350372,0.4870682,0.8350372,1.1132965C88.9359055,126.6966629,88.5531769,127.1837311,88.1008682,127.1837311z
			 M90.4899063,121.1298981h-25.479248c-0.5567169,0-1.0205688-0.4870682-1.0205688-1.1132965
			c0-0.626297,0.4638519-1.1133652,1.0205688-1.1133652h25.479248c0.5566483,0,1.0205688,0.4870682,1.0205688,1.1133652
			C91.5104752,120.6428299,91.0465546,121.1298981,90.4899063,121.1298981z M91.7424393,115.0761414H63.7581291
			c-0.6030807,0-1.1133652-0.4870682-1.1133652-1.1133652c0-0.6262283,0.5102844-1.1132965,1.1133652-1.1132965h27.9843102
			c0.6030121,0,1.1132965,0.4870682,1.1132965,1.1132965C92.8557358,114.5890732,92.3454514,115.0761414,91.7424393,115.0761414z"/>
		<path class="st8" d="M111.3817444,106.3571777c0,0.8004074-0.6548996,1.4310303-1.4310303,1.4310303H74.0796509
			c-0.7761307,0-1.4310226-0.6306229-1.4310226-1.4310303c0-0.800415,0.654892-1.4308853,1.4310226-1.4308853h35.8710632
			C110.7268448,104.9262924,111.3817444,105.5567627,111.3817444,106.3571777z"/>
		<path class="st7" d="M97.1177826,106.3571777c0,0.8004074-0.654892,1.4310303-1.4310303,1.4310303H59.8156967
			c-0.7761345,0-1.4310303-0.6306229-1.4310303-1.4310303c0-0.800415,0.6548958-1.4308853,1.4310303-1.4308853h35.8710556
			C96.4628906,104.9262924,97.1177826,105.5567627,97.1177826,106.3571777z"/>
		<path class="st47" d="M82.0218964,106.3277054c0,1.0287933-0.4198608,1.9630814-1.1022186,2.6348724
			c-0.6718521,0.6718445-1.6060791,1.091774-2.6348724,1.091774c-2.0679626,0-3.7370834-1.6691208-3.7370834-3.7266464H82.0218964z"
			/>
		<g>
			<path class="st47" d="M78.8067627,109.3389435c-0.3205109,0-0.5798645-0.2593536-0.5798645-0.5798645V92.946991
				c0-0.3205109,0.2593536-0.5798645,0.5798645-0.5798645h14.616684c0.3205109,0,0.5798645,0.2593536,0.5798645,0.5798645
				s-0.2593536,0.5798645-0.5798645,0.5798645H79.3866272v15.2322235
				C79.3866272,109.0795898,79.1272736,109.3389435,78.8067627,109.3389435z"/>
		</g>
		<path class="st53" d="M119.4843674,136.5946045l11.5894699,0.3459625c0,0-0.934082,4.3590088-4.359024,4.7741547
			c-3.4249496,0.4151459-12.6619186,0.254837-12.6619186,0.254837l3.3903503-6.9317474"/>
		<path class="st53" d="M99.0564346,136.0649109c0.1540756,0.2366333,12.8907471,0,12.8907471,0l2.1057129-13.011795
			l-6.1155777-6.6456604c0,0-4.9603958-3.163269-5.4705429-2.9446335c-0.5101547,0.2186432-3.9597626,6.3539734-4.1055222,6.8452301
			"/>
		<path class="st34" d="M92.5709839,104.9460526c0,0,2.1948547-0.5487137,2.0380783,3.684227
			c-0.1567764,4.232933,0.0080185,24.8488922,0.0080185,24.8488922s3.2058792,4.8600311,7.3604279,1.2541962v-14.2395172
			c0,0-0.1902161-5.1933975,5.9598083-4.0863953l0.2945938-8.6485825c0,0-0.4969635-3.2076721-2.7107086-3.2076721
			S92.5709839,104.9460526,92.5709839,104.9460526z"/>
		<path class="st34" d="M107.9373169,116.4074554v20.4160614c0,0,1.1517487,5.6417694,5.8642883,5.1107788
			s5.6827621-5.3396912,5.6827621-5.3396912l1.7547531,0.0523834l-0.2691498-16.3389359
			c0,0-0.0663757-3.9940338-2.5885773-4.2595291S107.9373169,116.4074554,107.9373169,116.4074554z"/>
		<path class="st24" d="M61.4295273,54.4095688c-0.2343178,0.3795357-0.5133171,0.7143898-0.8255539,1.0045586
			c-1.9415512,1.818943-5.0890045,1.8301125-7.0419998-0.1897697l-5.8366318-6.6625938l-0.356926-0.4127769l-1.8189392-2.0758743
			l1.1715775,0.602684l-0.1226082-0.1562576l-0.5138588-0.703083l-2.053257-2.8123283
			c-1.3279686-1.818943-1.037529-4.3299332,0.636467-5.791954c0.1002617-0.1117096,0.2005272-0.1897659,0.3007927-0.2566566
			l0.1340523-0.5468254c1.9306488-1.3949966,4.2634506-1.004425,5.6807861,0.9262276l6.7292137,10.8921242l1.5737305,2.5555382
			l1.8968658,2.9352112L61.4295273,54.4095688z"/>
		<path class="st37" d="M60.9832382,53.7177925c-0.1335068,0.6025467-0.2675552,1.1828842-0.3792648,1.6963348
			c-1.9415512,1.818943-5.0890045,1.8301125-7.0419998-0.1897697l-5.8366318-6.6625938l-0.356926-0.4127769l0.8702393-6.6514282
			l0.3122749-0.8686447c0.288784-0.8032951,1.3757133-0.9217834,1.8307953-0.1995811l4.9768486,7.8981133
			c0,0,0.9601517-0.0446815,2.154068-0.1004028l1.5737305,2.5555382L60.9832382,53.7177925z"/>
		<path class="st135" d="M46.4142265,15.7973471c1.2101097-0.0880165,2.5633659-0.1309977,3.4754524,0.6691675
			c1.3839035,1.2141113,1.0780449,3.1952858,1.0189743,4.8495064c-0.0694504,1.9448814-0.296814,3.8896675-0.7813454,5.77705
			c-0.7716179,3.0056534-2.2287674,5.8861732-4.4823418,8.0194206c-0.5670929,0.5368118-1.1971512,1.0328407-1.9351349,1.2880745
			c-0.7379799,0.2552338-1.6030579,0.2388153-2.2509651-0.1970482c-0.9072533-0.6103325-1.1559563-1.8299446-1.1822395-2.923069
			c-0.055294-2.2995014,0.5259933-4.5993309,0.2692528-6.8851242c-0.1372986-1.222393-0.512928-2.418642-0.5241318-3.6486702
			c-0.0150757-1.6554947,0.6670189-3.3062763,1.8462791-4.4682751"/>
		<path class="st3" d="M42.5307465,31.7710629c0.2571487-0.723753,0.2928925-1.1676903,0.2463264-1.9068565
			c-0.0730705-1.159853,0.5027885-2.3489647,0.5346336-3.5257683c0.0280762-1.0374756-0.006031-2.3505116-0.8011742-3.1301575
			c-0.5151825-0.5051403-1.1867828-0.7926617-1.8236275-1.3153c1.2513237-0.408638,2.5145569-0.8218803,3.7698402-1.2317505
			c1.1022606-0.3599072,2.7186813-1.264677,3.8882904-1.2649479l0.5267906-0.1755962l0.7713547-0.2520237
			c0.9239159-0.8922615,1.7706833-2.505497,0.5774345-3.5310888c-1.13237-0.973197-2.7667732-0.921032-4.1484451-1.2107038
			c-1.2622566-0.2646294-2.5778313-0.2748346-3.857338-0.1477709c-0.5521088,0.0548277-1.1799698,0.0780163-1.6711121,0.3258286
			c-0.5110245,0.2578468-0.9928093,0.714632-1.4202805,1.0899611c-1.7798691,1.5627575-3.1503716,3.5697346-4.0618439,5.7498074
			c-1.1812515,2.8253441-1.6125031,5.9288177-1.5207558,8.9897823c-1.3358879-1.6061554-3.8839111-2.2005367-5.6270981-1.0491753
			c-0.7671261,0.5066795-1.3243313,1.2840805-1.7101517,2.1185551c-1.1984196,2.5920162-0.7354946,5.8669338,1.1344051,8.0252285
			c-1.1313248,0.1533394-1.9832458,0.8073845-2.2866993,1.9415321c-0.2059917,0.769886-0.130024,1.5881386,0.0291653,2.3690453
			c0.1689644,0.8288612,0.435791,1.6508522,0.9110737,2.3506088c1.0868855,1.6002197,3.1284103,2.3309746,5.0628281,2.3375854
			c0.8199444,0.0028038,1.6506348-0.1089172,2.4039459-0.4326973c0.8605652-0.3698807,1.5816841-0.9973526,2.2668724-1.6360245
			c0.7712212-0.7188683,1.5261993-1.4765739,2.0550766-2.3886299c0.5094452-0.8785477,0.7856522-1.8612785,1.1724014-2.794384
			c0.4065781-0.980957,1.0617447-1.8528671,1.5008965-2.835743C41.3832245,36.159668,41.7733612,33.9027634,42.5307465,31.7710629z"
			/>
		<path class="st0" d="M38.0182571,37.9834976l5.419014,0.9305649l1.3319244-7.7088966
			c0.0639229-0.0182648,0.1369781-0.0273952,0.2098083-0.04566c0.7298851-0.1732845,1.3958473-0.592907,1.8885269-1.2134323
			c0.4196205-0.5289822,0.7664108-1.1038475,1.0399246-1.7150173c0.2739563-0.6111717,0.4744148-1.2499599,0.5839958-1.9159222
			l0.8120728-4.734787c0,0,0.3009109-1.1769047-0.3559227-2.3720722c-0.2372055-0.4378872-0.6111679-0.8846817-1.1769028-1.2679996
			l-7.3897247-1.2679996l-0.7570572,4.4062614l-0.684227,4.005125l-0.1093597,0.6111698
			c-0.09132,0.4926796-0.0639229,0.9944897,0.0728302,1.4689026c0.09132,0.3191719,0.2280769,0.638567,0.4196243,0.9214325
			c0.0456581,0.0545692,0.1641502,0.1732845,0.3376579,0.3374367l-0.6020393,3.4941826L38.0182571,37.9834976z"/>
		<path class="st1" d="M38.9396896,25.083662c0.2372055-0.1369781,0.4104919-0.3650532,0.4652824-0.6476974l0.4470177-2.5818825
			c0.0456581-0.2919998-0.0456581-0.5748653-0.2280731-0.7755451L38.9396896,25.083662z"/>
		<path class="st1" d="M44.5738258,32.312561l0.1906395-1.1091976c-0.065937,0.2647686-2.8150215-1.2272396-3.1190834-1.5420208
			c-0.17939-0.0805454-0.324604,0.1631031-0.1684151,0.282568C42.2212334,30.989603,43.2403793,31.7908325,44.5738258,32.312561z"/>
		<path class="st4" d="M45.8951492,24.9699478l0.4561882,0.8178635c0.1192284,0.2137585,0.0404015,0.4837418-0.1751175,0.599762
			l-0.5782204,0.3112717"/>
		<path class="st3" d="M39.3164444,21.8737297c1.4284058-0.3950672,2.8568115-0.7901344,4.2852173-1.1852016
			c1.0675125-0.2952518,2.135025-0.5905037,3.2025414-0.8857555c0.4127808-0.1141682,0.8255653-0.2283344,1.2383461-0.3425026
			c0.2333336-0.0645332,0.6057091-0.0950356,0.8125877-0.2230816c0.3500099-0.2166405,0.1060028-1.0028706-0.0201988-1.3377762
			c-0.1868286-0.4958096-0.5137863-0.9412212-0.9451904-1.2512722c-0.3510475-0.2522945-0.7569389-0.416666-1.1650238-0.5593319
			c-1.3782845-0.4818459-2.8337097-0.7422876-4.29356-0.7683125c-0.6469955-0.0115337-1.3079491,0.025341-1.9113884,0.2589989
			c-0.6034355,0.2336578-1.1473656,0.6909618-1.3520851,1.304821c-0.1748085,0.5241776-0.088665,1.0994301,0.0593109,1.6318054
			c0.1886444,0.6786823,0.5050697,1.3230362,0.3604355,2.0298195
			C39.4968758,20.9884892,39.4067764,21.4311333,39.3164444,21.8737297z"/>
		<path class="st0" d="M39.8991623,21.6159496l-0.4434357,2.5800381c-0.0871887,0.5072975-0.5686302,0.8475189-1.0759239,0.7603302
			c-0.5072861-0.0871887-0.8475113-0.5686321-0.7603188-1.0759277l0.4434319-2.5800381
			c0.0435944-0.2536488,0.1857796-0.4645996,0.3801498-0.6025734c0.1949654-0.1371555,0.4420013-0.2006187,0.6956444-0.1570244
			C39.6460037,20.627943,39.9862251,21.1093864,39.8991623,21.6159496z"/>
		<path class="st1" d="M38.5526237,21.3029137l-0.1282272,0.8663349l0.7392807,0.4876862l0.1830139-1.2364883
			c0.0320587-0.2165833-0.121685-0.4237423-0.3382683-0.4557991S38.5846825,21.0863304,38.5526237,21.3029137z"/>
		<path class="st1" d="M39.0381203,23.5052032l-0.7459984-0.4422989l-0.1202049,0.8121338
			c-0.0320587,0.2165852,0.121685,0.4237423,0.3382683,0.455801c0.2165833,0.0320568,0.4237404-0.121685,0.4557991-0.3382683
			L39.0381203,23.5052032z"/>
		<path class="st5" d="M44.5503044,29.0796947c-0.0242577-0.0007477-0.0502434-0.0036621-0.0762024-0.0065651
			c-0.6639481-0.0758953-1.0495605-0.81003-1.1837997-1.4068298l0.0005341-0.001112
			c-0.0254707-0.1148624-0.0414696-0.2237988-0.0485115-0.3229504c-0.007637-0.1035423-0.004631-0.1951199,0.0074959-0.2686462
			c0.0080719-0.0508633,0.0627518-0.0792675,0.1094055-0.0568218l2.1953239,1.0561638
			c0.0310822,0.0149536,0.0487022,0.0494194,0.042057,0.0831623C45.5535927,28.3734531,45.3417015,29.1238823,44.5503044,29.0796947
			z"/>
		<path class="st45" d="M45.1523628,27.8794422l-0.0604057,0.125555c-0.0491676,0.1021996-0.1709328,0.1448593-0.2720222,0.0962257
			l-1.57761-0.7589855c-0.007637-0.1035423-0.004631-0.1951199,0.0074959-0.2686462
			c0.0080719-0.0508633,0.0627518-0.0792675,0.1094055-0.0568218L45.1523628,27.8794422z"/>
		<path class="st0" d="M42.4851303,119.8416519l0.9830856,5.1807861l0.0398064,0.2258072l0.4118004,2.2449951l0.013298,0.7572021
			l0.3453979,2.4043884l6.2168922,2.5372925l6.7349892-2.9091949c-2.6435013-3.294487-7.8242836-4.6228867-7.8242836-4.6228867
			l-0.1328087-1.7268982l-0.013298-0.2391052l-0.013298-0.2789917l-0.2125854-2.9755936l-0.9830017-0.0930023
			L42.4851303,119.8416519z"/>
		<path class="st1" d="M42.4851303,119.8416519l0.9830856,5.1807861c2.1918068-0.3852005,5.8050919-1.0892944,5.8050919-1.0892944
			l-1.2221832-3.5866928L42.4851303,119.8416519z"/>
		<path class="st37" d="M57.2244301,130.2864075l-7.6510811,0.1930847l-5.6326027-2.2208099l-1.3765297,2.6763306
			c-0.2947006,0.5729675-0.2899933,1.2539825,0.0126038,1.8228149l0,0c0.3169632,0.5958557,0.9173584,0.9875183,1.5904121,1.0374756
			l0.8190498,0.0608063l0.033371,1.3224182l6.2750893-0.1583557l-0.5528908-1.3093109l2.5987816-0.0183105l2.3463974,1.2167664
			l3.8260689-0.0965424c0.8083038-0.020401,1.4470291-0.6921997,1.4266319-1.5005035l0,0
			c-0.0126266-0.5003967-0.2800331-0.9596558-0.7089729-1.2176514L57.2244301,130.2864075z"/>
		<path class="st0" d="M27.7133503,119.8416519l1.03619,5.5925903l0.0929966,0.5047989l0.2922096,1.5541992l0.0265942,0.7572021
			l0.345396,2.4043884l6.1903,2.5372925l6.7482834-2.9091949c-2.6434975-3.294487-7.8242836-4.6228867-7.8242836-4.6228867
			l-0.1461029-1.9660034l-0.013298-0.1461029v-0.013298l-0.2125092-3.0951843l-2.9888954-0.2657013h-0.0132961
			L27.7133503,119.8416519z"/>
		<polygon class="st1" points="27.7133503,119.8416519 28.7495403,125.4342422 28.8425369,125.9390411 34.4616356,123.5479355 
			34.4749336,123.5479355 34.4616356,123.5346375 31.2469349,120.1737518 		"/>
		<path class="st24" d="M42.4393806,130.2864075l-7.6510811,0.1930847l-5.6326008-2.2208099l-1.3765278,2.6763306
			c-0.2947025,0.5729675-0.2899933,1.2539825,0.0126038,1.8228149l0,0c0.3169594,0.5958557,0.9173584,0.9875183,1.5904102,1.0374756
			l0.8190498,0.0608063l0.0333729,1.3224182l6.2750893-0.1583557l-0.5528908-1.3093109l2.5987816-0.0183105l2.3463936,1.2167664
			l3.8260727-0.0965424c0.8083038-0.020401,1.4470291-0.6921997,1.4266319-1.5005035l0,0
			c-0.0126305-0.5003967-0.2800331-0.9596558-0.7089767-1.2176514L42.4393806,130.2864075z"/>
		<polygon class="st11" points="49.8478966,123.9364319 43.3338814,123.3540192 41.9660416,123.2321777 38.7292862,94.1422119 
			38.539669,92.395134 38.4178276,91.3523941 37.7271309,85.0955276 37.3207817,81.5202866 37.3207817,81.5067291 
			37.2260551,80.6535263 36.4677429,80.0169678 35.6957092,74.383194 35.4384727,72.6226425 35.3842506,72.1351166 
			38.2417641,67.8962021 40.6658211,64.2802124 40.8691597,63.9823074 42.3722305,61.7341537 44.4307632,62.275898 
			48.6156197,63.3999786 48.6967888,63.4405632 48.8050728,65.6210175 48.9135208,68.1264114 49.1843109,74.0175095 
			49.1843109,74.1394272 49.428154,80.0169678 49.6042175,84.9736938 49.6584435,92.7879257 49.7260551,104.4211731 
			49.8343391,120.3882217 49.8343391,121.1466141 		"/>
		<path class="st12" d="M37.3177223,81.5041046v0.013298l0.4118004,3.5866928l0.690712,6.2434845l0.1195946,1.049408
			l0.1859932,1.7401962l3.2412949,29.0919495l1.3682098,0.1195145l-2.9090385-43.7140121
			c-0.0514641-0.7733002-1.0460052-1.0529175-1.4929008-0.4197235L37.3177223,81.5041046z"/>
		<path class="st11" d="M45.3381958,60.5424614l-0.3521271,0.6635857l-0.5553055,1.0698509l-0.9614868,1.8689156
			l-5.3086815,10.1706772l-0.4741325,0.9209061l-0.0406685,0.0676956l-0.2436752,4.7128754l-0.0542259,0.7449265
			l-0.0271111,0.7448349v0.0135574l-0.1758995,3.3314819v0.1219254l-0.0406685,0.8667603l-0.2979012,5.9452362l-0.0271111,0.4198227
			l-0.1355629,2.8033752l-0.1218376,2.2481537l-0.6500282,12.3916397l-0.0677834,1.3272552l-0.3519592,6.6494904
			l-0.0406685,4.1847687l-0.0271111,1.6792984l-7.719347,0.4469376l-0.5147991-8.4642639l-0.2979031-16.4004288l-0.0406685-1.665741
			l-0.1623421-9.1414108l-0.054224-2.5189438l-0.0135555-0.541748l-0.1896191-3.1555023l-0.054224-0.7854233
			c-0.026947-0.3385696-0.081171-0.6906967-0.108284-1.0292664c0-0.0812531-0.0135555-0.1625061-0.0135555-0.2302094
			c-0.2572346-2.7763443,0.1218395-5.1733704,0.7720337-7.6381683c0.5551357-2.126236,1.3136139-4.2930603,2.0583706-6.7985306
			l0.7449207-1.692852l0.3926296-3.6159134L45.3381958,60.5424614z"/>
		<path class="st12" d="M26.2112179,80.0048599c0,0.0705261,0.011694,0.1528244,0.0234623,0.2233505
			c0.0235329,0.34095,0.070528,0.6935883,0.1058273,1.034462l0.0469952,0.7875824
			c1.0579987-4.3846741,1.9278736-8.1933517,1.8103485-8.2521133c-0.2821846-0.1528244,4.0907917-9.1102905,4.0907917-9.1102905
			l8.3814774-0.4114761l2.7977448-0.1410599l5.2310867-0.6794586l-4.2671509-1.1778107l0.5524635-1.069767l0.3526421-0.6700554
			l-15.15242-0.2821121l-0.3997097,3.6206245l-0.7405834,1.6927528
			C27.4455013,70.97686,25.7409801,74.8326035,26.2112179,80.0048599z"/>
		<path class="st24" d="M50.9507179,46.9324532c-0.3574638,1.7521896-1.6184082,2.8235016-2.1317253,3.1918678
			c-0.0108986,0.0333748-0.0223389,0.0333748-0.0223389,0.0333748c-0.1002655,0.0780602-0.1781921,0.1004028-0.1781921,0.1004028
			v0.5468254l0.0108986,1.7075043l0.0223427,6.7183151v0.9151955l0.0223427,0.7252884v0.5691681l-9.7649612-0.4129143
			l-2.154068-0.0892296l-5.5238514-0.234314l-0.6250229-0.0223427l-0.926363-0.0558548
			c0,0,0.0555801-9.1957932,0.0555801-15.2444038c0.0114441-2.6785507,0.0114441-4.742981-0.0108967-5.1113434
			c-0.0446835-0.9040222,0.9372616-1.7075081,1.8636246-2.5221634c0.8816814-0.7476311,1.7072353-1.5177383,1.5737286-2.3659058
			c2.7453041-0.2344513,2.2205467-0.3793983,5.3342171-0.6248856c-0.0108948,0.9931145,0.5694427,1.9641647,1.4505768,2.4216232
			c0.8931236,0.4575958,2.0200195,0.3907089,2.8346748-0.2008018c0.5694389-0.3907089,0.7590714-0.9487076,1.1606789-1.4396782
			c0.1231499-0.1674271,0.1454926-0.1450844,0.3574677-0.1339149c0.1896324,0.0111694,0.3460236,0.0333748,0.5242119,0.0557175
			c0.2681007,0.0111732,0.5471001,0.0446854,0.8146553,0.0558548c0.335125,0.0223427,1.172123,0.0558548,1.5067024,0.0781975
			l-0.0332413,1.1271667l0.6697083,1.6628227l0.4571877,1.1493683l0.7252884,1.8637619l1.0604134,1.2275696
			C51.0400848,44.3434029,51.1959343,45.7941132,50.9507179,46.9324532z"/>
		<path class="st25" d="M50.9507179,46.9324532c-5.9036598,1.3279686-10.9256401,2.4663048-10.9256401,2.4663048
			l-1.1159935-5.2562943l9.3295708-4.6090698l0.7252884,1.8637619l1.0604134,1.2275696
			C51.0400848,44.3434029,51.1959343,45.7941132,50.9507179,46.9324532z"/>
		<path class="st37" d="M38.9090843,61.0274811l-2.154068-0.0892296l-5.5238514-0.234314l-0.6250229-0.0223427l-0.926363-0.0558548
			c0,0,0.0555801-9.1957932,0.0555801-15.2444038l5.6137657-1.5625572l1.9527168-2.3323288
			c0.3026848-0.5193672,1.0952187-0.3300438,1.1304817,0.2700539L38.9090843,61.0274811z"/>
		<polygon class="st34" points="29.6805191,62.6768417 48.6989517,63.4402275 48.6615334,61.2011719 29.7669945,60.5224571 		"/>
		<polygon class="st13" points="49.7260551,104.4211731 44.1599731,107.9693832 42.4806786,69.5483932 48.9135208,68.1264114 
			49.1843109,74.0175095 49.1843109,74.1394272 49.428154,80.0169678 49.6042175,84.9736938 49.6584435,92.7879257 		"/>
		<polygon class="st13" points="37.1448822,84.9736938 37.1042137,85.8404541 36.8063126,91.7856903 36.7792015,92.205513 
			36.6436386,95.0088882 36.521801,97.2570419 35.8717728,109.6486816 35.8039894,110.9759369 29.046133,113.4136276 
			29.046133,85.027832 		"/>
		<g>
			<g>
				<path class="st21" d="M36.0916748,58.762085c-0.0022583,0.3618164-0.2341919,0.6557617-0.4625854,0.8220215
					c-0.2313843,0.175293-0.4943237,0.2895508-0.7409668,0.3673096c-0.4967041,0.1697998-1.0150757,0.269043-1.5360718,0.3000488
					c-1.0421753,0.0550537-2.0945435-0.1591797-3.0234985-0.6280518c-0.4597168-0.2391357-0.9016113-0.527832-1.2658081-0.9173584
					c-0.3601074-0.3820801-0.6422119-0.9001465-0.6294556-1.4631348c0.0119019-0.5561523,0.291748-1.0788574,0.7176514-1.4160156
					c0.430603-0.3383789,0.989563-0.4692383,1.5175781-0.4100342c0.5303345,0.0579834,1.0387573,0.3293457,1.3638306,0.7564697
					c0.3399048,0.4191895,0.4130859,1.0478516,0.161377,1.5251465c-0.2357788,0.4797363-0.6824951,0.8319092-1.1869507,0.9733887
					c-0.5043945,0.1428223-1.0380249,0.0981445-1.5268555-0.0411377c-1.9671021-0.5844727-3.449646-2.3920898-3.7226563-4.387085
					c0.3133545,1.9892578,1.8313599,3.7397461,3.7553101,4.2663574c0.4764404,0.1254883,0.9852295,0.154541,1.4502563,0.0119629
					c0.4594727-0.1379395,0.8626709-0.473999,1.0614624-0.9038086c0.2102661-0.4285889,0.137085-0.947876-0.164978-1.3110352
					c-0.2937012-0.3690186-0.7472534-0.6005859-1.2166138-0.6416016c-0.4694824-0.0432129-0.958374,0.0863037-1.3156738,0.3806152
					c-0.3555298,0.2919922-0.5830688,0.7474365-0.5812988,1.2001953c0.0169067,0.9420166,0.9024048,1.6315918,1.7494507,2.0412598
					c0.8762207,0.4196777,1.8635864,0.5983887,2.8278809,0.5273438c0.4819336-0.0389404,0.9577026-0.140625,1.4089355-0.305542
					c0.4395752-0.1391602,0.8746338-0.4359131,0.8596802-0.7479248L36.0916748,58.762085z"/>
			</g>
			<path class="st23" d="M65.32164,53.2579117c0.0691833-0.0461273,2.0525284-1.1992302,2.0525284-1.1992302
				s2.2831421,0.2574654,2.3292694,0.3708839s1.5451584,1.6816406,1.5451584,1.6816406l0.3920593-0.438179l-1.6143494-1.7988434
				l-2.7674484-0.876358l-3.2748184,1.0608559"/>
			<path class="st21" d="M68.1536789,59.5559235c0,2.8620987-1.1536102,5.441246-3.014473,7.3022385
				c-0.8921738,0.8923035-1.9373817,1.6105881-3.1016159,2.1220322l-0.7178841,3.6021652
				c-0.1200905,0.5984573-0.6424255,1.0228958-1.2519112,1.0228958h-3.9826279
				c-0.6206436,0-1.1536102-0.4462204-1.2519112-1.0555725l-0.4676094-2.6662903h-6.4970779l-0.5329666,2.698967
				c-0.1200905,0.5984573-0.6424294,1.0228958-1.2513809,1.0228958h-3.9831581
				c-0.6206436,0-1.1536102-0.4462204-1.2625389-1.0555725l-0.6636848-3.9069061
				c-3.2323303-1.730278-5.4194565-5.1473999-5.4194565-9.086853c0-2.840313,1.1536064-5.4194603,3.0144691-7.2913475
				c1.8714905-1.8717575,4.4619255-3.0252304,7.3021088-3.0252304h12.7651367c3.689312,0,6.9211121,1.9369812,8.7384033,4.8427849
				C67.5771408,55.6709328,68.1536789,57.5426903,68.1536789,59.5559235z"/>
			<path class="st23" d="M66.5755005,54.0821304c-5.6915169,6.9211159-10.686409,13.0480957-10.686409,13.0480957
				L44.4189034,56.759182c0,0,2.3290024-3.3954659,5.1473961-7.5198364h8.2707977
				C61.5264091,49.2393456,64.7582092,51.1763268,66.5755005,54.0821304z"/>
			<path class="st20" d="M65.9014969,61.5085335h-1.6212311c-1.0930901,0-1.9792137-0.8861237-1.9792137-1.9792137v-0.2846565
				c0-1.0930901,0.8861237-1.9792137,1.9792137-1.9792137h1.6212311c1.0930862,0,1.9792099,0.8861237,1.9792099,1.9792137v0.2846565
				C67.8807068,60.6224098,66.9945831,61.5085335,65.9014969,61.5085335z"/>
			<path class="st23" d="M67.9593887,61.5085335h-1.6212234c-1.0930939,0-1.9792175-0.8861237-1.9792175-1.9792137v-0.2846565
				c0-1.0930901,0.8861237-1.9792137,1.9792175-1.9792137h1.6212234c1.0930939,0,1.9792175,0.8861237,1.9792175,1.9792137v0.2846565
				C69.9386063,60.6224098,69.0524826,61.5085335,67.9593887,61.5085335z"/>
			<rect x="45.1967583" y="49.2391129" class="st47" width="10.6967564" height="1.4696648"/>
			<circle class="st35" cx="63.167099" cy="55.5012627" r="0.5214074"/>
			<circle class="st35" cx="65.4534378" cy="55.5012627" r="0.5214074"/>
			<path class="st23" d="M66.688736,49.5745049l-1.504837,0.4548111l-0.104805,0.0350304l-0.4203568-0.6649895l-1.6796951,2.0764122
				l0.5952148,1.2132111l-2.2863045-0.6416321c0-0.0116768-0.0119629-0.0116768-0.0119629-0.0116768L59.269352,51.475769
				l0.7820358-2.8228493l4.7822151-1.0382042L66.688736,49.5745049z"/>
			<path class="st21" d="M62.7460823,49.0728455l1.9126549,0.3265114l-1.6796951,2.0764122l0.5952148,1.2132111
				l-2.2863045-0.6416321c0-0.0116768-0.0119629-0.0116768-0.0119629-0.0116768
				c-0.0233498-0.0116768-0.0347443-0.0232124-0.0347443-0.0232124l0.1281586-1.5397224L62.7460823,49.0728455z"/>
			<polygon class="st23" points="65.1838989,50.0293159 65.0790939,50.0643463 64.6587372,49.3993568 			"/>
		</g>
		<g>
			<path class="st0" d="M36.4889641,60.2945213l1.9887886,1.4138145l3.5458336,2.5182114l1.5608101,1.5884323l0.6054764,0.6163712
				l1.0933723,1.0966568l0.7266769,0.9259338c0.1958885,0.2268219,0.5002785,0.3111954,0.7938728,0.1855164l0.6396484-0.2539291
				l0.3561134,0.2711716c0.0885811,0.0849915,0.2283249,0.1409454,0.3712006,0.1546478
				c0.1530571,0.0079346,0.3194427-0.0322342,0.4613075-0.1394806c0.279335-0.1986465,0.3596268-0.5817719,0.1975288-0.868187
				L48.6879387,67.5056l0.5280609,0.6466675c0.2350731,0.2721634,0.6533318,0.3191299,0.9472923,0.0986862l0.1872711-0.1464691
				c0.2530937-0.1972351,0.3462906-0.5336609,0.2148781-0.837532l-0.0534401-0.1183167l0.4296417,0.4727707
				c0.2453117,0.2663651,0.6577797,0.303093,0.9459419,0.072403l0.2121315-0.174057
				c0.298439-0.2364197,0.3498535-0.6707153,0.1192284-0.9589157l-1.9190903-2.4123077l-0.1464615-0.1872673
				c-0.214653-0.2837181-0.4848289-0.5224953-0.7844086-0.7176704c-0.1468925-0.0924644-0.2763977-0.154213-0.437912-0.224884
				l-3.459259-1.2434425l-0.1990166-0.1845703l-4.128994-3.9305763L36.4889641,60.2945213z"/>
			<g>
				<path class="st1" d="M38.671093,62.0499535l3.5458298,2.5182152l1.5608101,1.5884247
					c0.6642838-1.6185913,1.6884041-4.2242775,1.6884041-4.2242775l-6.8063698-1.0240326
					C38.6478081,60.9825706,38.6560593,61.4506187,38.671093,62.0499535z"/>
				<path class="st24" d="M46.4510002,61.6100349l-3.3537712,4.7773933l-10.6541481-9.1111755
					c-1.1943359-1.0227356-1.9665852-2.4807777-2.1478691-4.0511436L28.730772,39.766777
					c-0.0615921-1.1934586,0.3796406-2.3008766,1.1750946-3.1173897c0.0395985-0.0286522,0.0837421-0.0699883,0.1106358-0.1033707
					c0.359024-0.3431511,0.7672806-0.6247559,1.2328148-0.8270836c0.4655628-0.2024078,0.9756012-0.3304825,1.5287552-0.3412514
					c0.0348663-0.0159492,0.072979-0.0017586,0.1031189-0.0050049c0.102932-0.004982,0.1837349,0.0106354,0.2694168,0.013607
					c1.4933395,0.0646973,2.1160011,0.6433296,2.8226395,1.8890724c0.3152885,0.5508957,0.5149269,1.2176781,0.5293198,1.9167404
					l0.5219193,6.9429054l0.4944,6.6292381l3.2109833,3.1752548l5.0667267,5.0222282L46.4510002,61.6100349z"/>
				<path class="st25" d="M45.1097679,60.8684273c-1.530056,1.8581009-2.7201309,3.3081017-2.7201309,3.3081017
					l-10.6984749-9.0698204l-1.4719906-7.1088409l6.1184864-1.9561615l0.4944,6.6292419l3.2109833,3.1752548L45.1097679,60.8684273z
					"/>
				<line class="st4" x1="50.7036667" y1="67.4856796" x2="49.0142746" y2="65.2279739"/>
				<line class="st4" x1="48.9749947" y1="67.9759064" x2="48.0129242" y2="66.2759933"/>
				<line class="st4" x1="47.6440277" y1="68.7239227" x2="46.9031067" y2="67.7493286"/>
				<line class="st39" x1="36.8323212" y1="52.6741638" x2="35.1710358" y2="53.6143684"/>
			</g>
		</g>
		<path class="st0" d="M62.2919769,66.5820313l0.8077011,1.1720581c-0.0217438,0.0186005-0.7703819,0.8219833-1.1404228,1.2625732
			c0,0,3.6144753,0.0341339,4.5275688-1.1235809l1.3611374-1.7511444c0.3894043-0.5179901,0.4356766-0.8515625,0.3171158-1.1441193
			l-1.1838226-2.9210663c-0.0954056-0.2443504-0.3352661-0.3900414-0.5846481-0.3940964
			c-0.0828018,0.0041924-0.1652069,0.0166588-0.2546997,0.05439c-0.2679062,0.1214638-0.4194031,0.411499-0.3633423,0.6993332
			l0.2444458,2.0472717l-0.4185486,0.4281158l-1.529129-0.6786728c-0.2133522-0.1137924-0.4755249-0.04245-0.6150131,0.1556015
			l-1.1528435,1.6776276C62.2073479,66.2208557,62.2008018,66.4205017,62.2919769,66.5820313z"/>
		<circle class="st35" cx="65.400795" cy="59.2518044" r="0.5810907"/>
		<circle class="st35" cx="67.8262177" cy="59.2518044" r="0.5810907"/>
		<g>
			<g>
				<path class="st14" d="M54.9952812,48.4341507c0,0.2682724-0.0233536,0.5482216-0.0700569,0.8049622
					c-0.0814514,0.524868-0.2563133,1.0148506-0.5018044,1.4696617h-8.5386086
					c-0.1515083-0.2565956-0.2682724-0.524868-0.3497238-0.7931404c-0.0233536-0.0700607-0.0467033-0.1399765-0.0586662-0.2098923
					c-0.0467072-0.1517944-0.0814514-0.3033028-0.0934105-0.466629c-0.0461349-0.2217102-0.0694885-0.4549561-0.0694885-0.6998749
					c-0.0119629-0.0350304-0.0119629-0.0700607-0.0119629-0.1050873c0-0.0350304,0-0.0699196,0.0119629-0.0932693
					c0-0.4082489,0.0580978-0.7932854,0.162899-1.1665077c0.0119629-0.0699158,0.0353127-0.1399727,0.0586662-0.2100334
					c0.1281586-0.4082451,0.3149796-0.8048172,0.5479393-1.1665039c0.0467072-0.0699158,0.0934105-0.1398315,0.1401176-0.1982155
					c0.3383331-0.4549522,0.7347603-0.8515244,1.2012482-1.1665039c0.1053734-0.0700569,0.2221375-0.1401176,0.3269424-0.2100334
					c0.7114067-0.3965721,1.5281868-0.6298141,2.4030647-0.6298141h0.6299591v0.0116768l0.0113907,0.0348854
					c0.6299591,0.0815926,1.225174,0.291626,1.7497597,0.583252c0.1167641,0.0699158,0.2215652,0.1399765,0.3269386,0.2100334
					c0.291626,0.1982155,0.5598984,0.4199257,0.7928581,0.6881981c0.0353165,0.0233536,0.0700607,0.058239,0.0934143,0.0932693
					C54.5287933,46.0777855,54.9952812,47.1977272,54.9952812,48.4341507z"/>
			</g>
			<g>
				<g>
					<g>
						<path class="st15" d="M52.8724632,44.4332123h-5.4458847c0.1066246-0.0738106,0.2173538-0.1414642,0.3300858-0.20504
							h4.7877159C52.6571121,44.291748,52.7658386,44.3594017,52.8724632,44.4332123z"/>
					</g>
				</g>
				<g>
					<g>
						<path class="st15" d="M53.2168694,45.5978546v0.20504h-7.1312637c0.0450516-0.0697174,0.092308-0.1394386,0.1414642-0.20504
							H53.2168694z"/>
					</g>
				</g>
				<g>
					<g>
						<path class="st15" d="M53.2168694,46.9675255v0.20504h-7.7422829c0.018425-0.0697212,0.0369453-0.1373863,0.0594711-0.20504
							H53.2168694z"/>
					</g>
				</g>
				<g>
					<g>
						<path class="st15" d="M53.2168694,48.3351402v0.20504h-7.9083748c-0.0020027-0.0327988-0.0020027-0.0676651-0.0020027-0.10252
							c0-0.0348511,0-0.0676651,0.0020027-0.10252H53.2168694z"/>
					</g>
				</g>
				<g>
					<g>
						<path class="st15" d="M53.2168694,49.7048111v0.20504h-7.680809c-0.0225258-0.0676689-0.0430489-0.1353226-0.0594711-0.20504
							H53.2168694z"/>
					</g>
				</g>
			</g>
			<g>
				<path class="st15" d="M55.7767487,48.4341507c0,0.2682724-0.0233536,0.5482216-0.0700569,0.8049622
					c-0.0814514,0.524868-0.2563133,1.0265274-0.4898415,1.4696617h-8.5505714
					c-0.1395454-0.2449188-0.2563133-0.5131912-0.3383331-0.7931404c-0.0233498-0.0700607-0.0461349-0.1399765-0.058094-0.2098923
					c-0.0467072-0.1517944-0.0814514-0.3033028-0.104805-0.466629c-0.0467072-0.233387-0.0586662-0.4666328-0.0700569-0.6998749
					v-0.1983566c0.0113907-0.4082489,0.0700569-0.7932854,0.1748619-1.1665077
					c0.0119591-0.0699158,0.0347443-0.1399727,0.058094-0.2100334c0.128727-0.4199219,0.3149796-0.8048172,0.5485077-1.1665039
					c0.0467072-0.0699158,0.0934143-0.1282959,0.1401176-0.1982155c0.3263702-0.4549522,0.7347641-0.8515244,1.201252-1.1665039
					c0.1167641-0.0817337,0.2215652-0.1516495,0.3383293-0.2100334c0.6647034-0.3848953,1.4233856-0.6064606,2.2282066-0.6181374
					c0.0467072-0.0116768,0.104805-0.0116768,0.1515083-0.0116768
					C53.6072083,43.5932693,55.7767487,45.7628098,55.7767487,48.4341507z"/>
			</g>
			<g>
				<path class="st14" d="M53.7587204,45.2145844c-0.0233536-0.0350304-0.0580978-0.0699158-0.0934143-0.0932693
					c-0.3616829-0.291626-0.7581139-0.525013-1.1898575-0.6881981c-0.2215652-0.0934105-0.4431343-0.1516495-0.6766624-0.2100334
					c-0.2796669-0.0465622-0.5712929-0.0815926-0.8629189-0.0815926s-0.583252,0.0350304-0.862915,0.0815926
					c-0.2335281,0.0583839-0.4550972,0.1166229-0.6766663,0.2100334c-0.6533089,0.2449226-1.2251701,0.6531715-1.6802673,1.1665039
					c-0.0580978,0.0583839-0.1048012,0.1282997-0.162899,0.1982155c-0.2802353,0.3500099-0.4898415,0.746582-0.6419182,1.1665039
					c-0.0347481,0.0700607-0.0580978,0.1401176-0.0700607,0.2100334c-0.1281548,0.3732224-0.1862526,0.7582588-0.1982155,1.1665077
					v0.1983566c0.0119629,0.2449188,0.0353165,0.4781647,0.0700607,0.6998749
					c0.0353127,0.1633263,0.0700569,0.3148346,0.1281548,0.466629c0.0119629,0.0699158,0.0353127,0.1398315,0.0700607,0.2098923
					c0.0934105,0.2799492,0.2335281,0.5482216,0.3850365,0.7931404h0.3502922
					c-0.1754303-0.2449188-0.3149796-0.5131912-0.4317436-0.7931404c-0.0233536-0.0700607-0.0467033-0.1399765-0.0700569-0.2098923
					c-0.0580978-0.1517944-0.0934143-0.3033028-0.1281586-0.466629c-0.0467033-0.2217102-0.0700569-0.4549561-0.0700569-0.6998749
					c-0.0119629-0.0350304-0.0119629-0.0700607-0.0119629-0.1050873v-0.0932693
					c0.0119629-0.4082489,0.0820198-0.8049622,0.1982155-1.1665077c0.023922-0.0699158,0.0586662-0.1399727,0.0820198-0.2100334
					c0.1748619-0.4314575,0.4197845-0.8281708,0.7233696-1.1665039c0.0580978-0.0699158,0.1161957-0.1398315,0.1862526-0.1982155
					c0.7233696-0.7233696,1.7030525-1.1665039,2.8114586-1.1665039c2.2048531,0,4.0013161,1.796463,4.0013161,4.0010338
					c0,0.2799492-0.0233536,0.5482216-0.0820198,0.8049622c-0.1048012,0.5365448-0.3263702,1.0382042-0.6299553,1.4696617h0.3502922
					c0.2796631-0.4431343,0.4778786-0.9447937,0.583252-1.4696617c0.0467072-0.2567406,0.0700569-0.525013,0.0700569-0.8049622
					C55.2288094,47.1510239,54.6569519,45.9961929,53.7587204,45.2145844z"/>
			</g>
			<g>
				<path class="st14" d="M52.4059601,49.4374695c0,0.0932693-0.0119591,0.1748619-0.0353127,0.2682724
					c-0.0113907,0.0699158-0.0233536,0.1398315-0.0580978,0.2098923c-0.128727,0.3500061-0.4317436,0.6416321-0.8634872,0.7931404
					h-1.388073c-0.2335281-0.058239-0.4431343-0.1515083-0.595211-0.2565956l0.186821-0.524868h0.2215691
					c0,0,0,0.011673,0,0.0233498c0.0119591,0.0233536,0.0119591,0.0700607,0.0119591,0.1049461
					c0.2563133,0.1282997,0.5712929,0.2100334,0.8982315,0.2100334c0.0467072,0,0.0934105,0,0.1281586-0.0116768
					c0.3030167-0.0233498,0.5365448-0.1516495,0.6646996-0.3383293c0.05867-0.0700607,0.0820198-0.1399765,0.1053734-0.2098923
					c0.0233536-0.0700569,0.0347443-0.1401176,0.0347443-0.2100334c0-0.0932693-0.0113907-0.1866798-0.0467033-0.2565956
					c-0.104805-0.291626-0.3850403-0.4899864-0.8395653-0.6765213c-0.0233536-0.0116768-0.0467072-0.0116768-0.0586662-0.0233536
					c-0.1629028-0.0700607-0.3030205-0.1284409-0.4317436-0.1983566c-0.5012321-0.2682762-0.804821-0.6066055-0.804821-1.1316185
					v-0.0348892c0-0.0699158,0.0119629-0.1399727,0.0233536-0.2100334c0.1053734-0.5365448,0.5365448-0.9099045,1.1665039-1.0263863
					v-0.7816086h0.4784508v0.758255c0.478447,0.0116768,0.7934265,0.1398354,1.0263863,0.2682762l-0.0934105,0.233242
					c0.0467033,0.0817337,0.1167641,0.291626,0.1167641,0.291626h-0.2215691
					c-0.1515083-0.0817337-0.4431343-0.2449188-0.8862686-0.2565956c-0.0353165-0.0116768-0.0700607-0.0116768-0.1053734-0.0116768
					c-0.5012321,0-0.7461548,0.2565956-0.804821,0.524868c-0.0113907,0.0467072-0.0233536,0.1050911-0.0233536,0.1517944v0.058239
					c0.0353165,0.3732224,0.3269424,0.5599022,0.9682922,0.8281746c0.2568817,0.1049461,0.4664879,0.2100334,0.6419182,0.3383331
					c0.0928421,0.058239,0.162899,0.1282959,0.2329597,0.1983566c0.186821,0.1865387,0.3035889,0.4197807,0.3263702,0.6998749
					C52.4059601,49.2973518,52.4059601,49.3674088,52.4059601,49.4374695z"/>
			</g>
			<g>
				<path class="st17" d="M52.6041756,49.2391129c-0.0233536-0.2800941-0.1401176-0.5016594-0.3269424-0.6998749
					c-0.0700569-0.0700607-0.1515083-0.1401176-0.2449188-0.1983566c-0.1748619-0.1282997-0.3730774-0.233387-0.6179962-0.3383331
					c-0.6533127-0.2682724-0.9449387-0.4549522-0.9802513-0.8281746v-0.058239c0-0.0467033,0.0119591-0.1050873,0.0233536-0.1517944
					c0.0586662-0.2449188,0.2682724-0.4781609,0.6886253-0.5131912c0.0347443-0.0116768,0.0814476-0.0116768,0.1281548-0.0116768
					c0.5018005,0,0.8162117,0.1750031,0.9796829,0.2682724l0.1982117-0.524868
					c-0.2215652-0.1284409-0.5479355-0.2565994-1.0144234-0.2682762v-0.758255h-0.4898415v0.7932854
					c-0.6299591,0.104805-1.0617027,0.4898415-1.1665039,1.0147095c-0.0119629,0.0700607-0.023922,0.1401176-0.023922,0.2100334
					v0.0348892c0,0.525013,0.3035851,0.8633423,0.8053894,1.1316185c0.1281548,0.0699158,0.2682724,0.1282959,0.4311714,0.1983566
					c0.0119629,0.0116768,0.0353165,0.0116768,0.0586662,0.0233536c0.4545288,0.1865349,0.7347641,0.3848953,0.8395653,0.6765213
					c0.0353165,0.0699158,0.0467072,0.1633263,0.0467072,0.2565956c0,0.0699158-0.0113907,0.1399765-0.0347443,0.2100334
					c-0.0233536,0.0699158-0.0467072,0.1398315-0.1053734,0.2098923c-0.1515083,0.2098885-0.4311752,0.3500061-0.7928581,0.3500061
					c-0.0353165,0-0.0580978,0-0.0934105-0.0116768c-0.396431-0.0116768-0.7700768-0.1516495-1.0263901-0.3266525
					l-0.0119591,0.0233498L49.687912,50.452179c0.1515121,0.1050873,0.3611183,0.1983566,0.5946465,0.2565956h1.388073
					c0.4437027-0.1515083,0.7353287-0.4431343,0.8634834-0.7931404c0.0347481-0.0700607,0.0467072-0.1399765,0.0580978-0.2098923
					c0.0233536-0.0934105,0.0353165-0.1750031,0.0353165-0.2682724
					C52.6275291,49.3674088,52.6275291,49.2973518,52.6041756,49.2391129z"/>
			</g>
		</g>
	</g>
	<g>
		<line class="st39" x1="97.6183624" y1="109.0605774" x2="105.4499283" y2="109.0605774"/>
		<line class="st39" x1="97.6183624" y1="112.0792007" x2="105.4499283" y2="112.0792007"/>
	</g>
	<g>
		<line class="st19" x1="110.6773453" y1="121.031311" x2="118.5089188" y2="121.031311"/>
		<line class="st19" x1="110.6773453" y1="124.049942" x2="118.5089188" y2="124.049942"/>
	</g>
</g>
</svg>
