<?xml version="1.0" encoding="utf-8"?>
<!-- Generator: Adobe Illustrator 22.0.1, SVG Export Plug-In . SVG Version: 6.00 Build 0)  -->
<svg version="1.1" id="Layer_1" xmlns="http://www.w3.org/2000/svg" xmlns:xlink="http://www.w3.org/1999/xlink" x="0px" y="0px"
	 viewBox="0 0 156 156" style="enable-background:new 0 0 156 156;" xml:space="preserve">
<style type="text/css">
	.st0{fill:#FFD9B2;}
	.st1{fill:#F7AC76;}
	.st2{fill:none;stroke:#3643C3;stroke-width:0.5;stroke-linecap:round;stroke-linejoin:round;stroke-miterlimit:10;}
	.st3{fill:#233764;}
	.st4{fill:none;stroke:#F7AC76;stroke-width:0.5;stroke-linecap:round;stroke-linejoin:round;stroke-miterlimit:10;}
	.st5{fill:#161718;}
	.st6{fill:#FFFFFF;}
	.st7{fill:#F06449;}
	.st8{fill:#BE412D;}
	.st9{fill:#FE8E60;}
	.st10{fill:#7D4C47;}
	.st11{fill:#4456D6;}
	.st12{fill:#203881;}
	.st13{fill:#6582FC;}
	.st14{fill:#DDA103;}
	.st15{fill:#FBC32E;}
	.st16{fill:none;stroke:#DDA103;stroke-width:0.5;stroke-miterlimit:10;}
	.st17{fill:#FBE6BB;}
	.st18{fill:none;stroke:#BE412D;stroke-width:0.5;stroke-linecap:round;stroke-linejoin:round;stroke-miterlimit:10;}
	.st19{fill:none;stroke:#F06449;stroke-width:0.5;stroke-linecap:round;stroke-linejoin:round;stroke-miterlimit:10;}
	.st20{fill:#F34B4B;}
	.st21{fill:#FC7070;}
	.st22{fill:none;stroke:#FFFFFF;stroke-miterlimit:10;}
	.st23{fill:#FC9F9F;}
	.st24{fill:#408A6F;}
	.st25{fill:#64B48D;}
	.st26{fill:none;stroke:#FBE6BB;stroke-width:0.5;stroke-linecap:round;stroke-linejoin:round;stroke-miterlimit:10;}
	.st27{fill:none;stroke:#F7AC76;stroke-width:0.25;stroke-linecap:round;stroke-linejoin:round;stroke-miterlimit:10;}
	.st28{fill:#A0665A;}
	.st29{fill:#6C3F44;}
	.st30{fill:none;stroke:#6C3F44;stroke-width:0.5;stroke-linecap:round;stroke-linejoin:round;stroke-miterlimit:10;}
	.st31{fill:none;stroke:#7D4C47;stroke-width:0.5;stroke-linecap:round;stroke-linejoin:round;stroke-miterlimit:10;}
	.st32{fill:none;stroke:#F34B4B;stroke-width:0.5;stroke-linecap:round;stroke-linejoin:round;stroke-miterlimit:10;}
	.st33{fill:none;stroke:#FC7070;stroke-width:0.5;stroke-linecap:round;stroke-linejoin:round;stroke-miterlimit:10;}
	.st34{fill:#EAE8F3;}
	.st35{fill:#40304A;}
	.st36{fill:none;stroke:#43334E;stroke-linecap:round;stroke-linejoin:round;stroke-miterlimit:10;}
	.st37{fill:#32775B;}
	.st38{fill:none;stroke:#233764;stroke-width:0.5;stroke-linecap:round;stroke-linejoin:round;stroke-miterlimit:10;}
	.st39{fill:none;stroke:#408A6F;stroke-width:0.5;stroke-linecap:round;stroke-linejoin:round;stroke-miterlimit:10;}
	.st40{fill:#3643C3;}
	.st41{opacity:0.56;fill:url(#SVGID_1_);}
	.st42{opacity:0.52;fill:#FBC32E;}
	.st43{opacity:0.56;fill:url(#SVGID_2_);}
	.st44{fill:none;stroke:#EAE8F3;stroke-width:0.5;stroke-linecap:round;stroke-linejoin:round;stroke-miterlimit:10;}
	.st45{fill:#FEFFFD;}
	.st46{opacity:0.35;fill:#32775B;}
	.st47{fill:#43334E;}
	.st48{fill:none;stroke:#EAE8F3;stroke-width:0.25;stroke-linecap:round;stroke-linejoin:round;stroke-miterlimit:10;}
	.st49{fill:none;stroke:#FBC32E;stroke-width:0.5;stroke-linecap:round;stroke-linejoin:round;stroke-miterlimit:10;}
	.st50{fill:none;stroke:#161718;stroke-width:0.5;stroke-linecap:round;stroke-linejoin:round;stroke-miterlimit:10;}
	.st51{fill:none;stroke:#40304A;stroke-linecap:round;stroke-linejoin:round;stroke-miterlimit:10;}
	.st52{opacity:0.33;fill:#FBC32E;}
	.st53{fill:#A6A3AE;}
	.st54{fill:#5B4B68;}
	.st55{fill:#776688;}
	.st56{fill:none;stroke:#FBC32E;stroke-width:0.5;stroke-miterlimit:10;}
	.st57{fill:none;stroke:#EAE8F3;stroke-linecap:round;stroke-linejoin:round;stroke-miterlimit:10;}
	.st58{fill:none;stroke:#203881;stroke-width:2;stroke-linecap:round;stroke-linejoin:round;stroke-miterlimit:10;}
	.st59{fill:none;stroke:#40304A;stroke-width:2;stroke-linecap:round;stroke-linejoin:round;stroke-miterlimit:10;}
	.st60{fill:#FFD8B7;}
	.st61{fill:#F4E4D4;}
	.st62{fill:none;stroke:#4456D6;stroke-width:0.5;stroke-linecap:round;stroke-linejoin:round;stroke-miterlimit:10;}
	.st63{fill:none;stroke:#DDA103;stroke-width:0.25;stroke-miterlimit:10;}
	.st64{fill:none;stroke:#FFFFFF;stroke-width:0.5;stroke-linecap:round;stroke-linejoin:round;stroke-miterlimit:10;}
	.st65{fill:none;stroke:#64B48D;stroke-width:0.5;stroke-linecap:round;stroke-linejoin:round;stroke-miterlimit:10;}
	.st66{fill:none;stroke:#64B48D;stroke-linecap:round;stroke-linejoin:round;stroke-miterlimit:10;}
	.st67{opacity:0.48;fill:#64B48D;}
	.st68{fill:none;stroke:#64B48D;stroke-width:0.25;stroke-linecap:round;stroke-linejoin:round;stroke-miterlimit:10;}
	.st69{fill:none;stroke:#F06449;stroke-width:2;stroke-linecap:round;stroke-linejoin:round;stroke-miterlimit:10;}
	.st70{opacity:0.92;fill:#64B48D;}
	.st71{opacity:0.57;fill:#408A6F;}
	.st72{opacity:0.36;fill:#408A6F;}
	.st73{fill:none;stroke:#BE412D;stroke-width:2;stroke-linecap:round;stroke-linejoin:round;stroke-miterlimit:10;}
	.st74{opacity:0.65;fill:none;stroke:#408A6F;stroke-width:0.25;stroke-linecap:round;stroke-linejoin:round;stroke-miterlimit:10;}
	.st75{opacity:0.67;fill:none;stroke:#64B48D;stroke-width:0.25;stroke-linecap:round;stroke-linejoin:round;stroke-miterlimit:10;}
	.st76{opacity:0.98;fill:#64B48D;}
	.st77{fill:none;stroke:#408A6F;stroke-width:0.25;stroke-linecap:round;stroke-linejoin:round;stroke-miterlimit:10;}
	.st78{fill:none;stroke:#FFD9B2;stroke-width:0.5;stroke-linecap:round;stroke-linejoin:round;}
	
		.st79{fill:none;stroke:#FFD9B2;stroke-width:0.5;stroke-linecap:round;stroke-linejoin:round;stroke-dasharray:4.0333505,4.0333505;}
	.st80{fill:#E68B4A;}
	.st81{opacity:0.62;fill:#64B48D;}
	.st82{fill:none;stroke:#FBC32E;stroke-width:0.25;stroke-miterlimit:10;}
	.st83{fill:none;stroke:#4456D6;stroke-linecap:round;stroke-linejoin:round;stroke-miterlimit:10;}
	.st84{fill:none;stroke:#E68B4A;stroke-width:0.5;stroke-linecap:round;stroke-linejoin:round;stroke-miterlimit:10;}
	.st85{fill:none;stroke:#203881;stroke-width:0.5;stroke-linecap:round;stroke-linejoin:round;stroke-miterlimit:10;}
	.st86{opacity:0.29;fill:#EAE8F3;}
	.st87{fill:none;stroke:#A6A3AE;stroke-width:0.5;stroke-linecap:round;stroke-linejoin:round;stroke-miterlimit:10;}
	.st88{opacity:0.74;fill:#FFFFFF;}
	.st89{opacity:0.19;fill:#FFFFFF;}
	.st90{fill:none;stroke:#40304A;stroke-width:0.25;stroke-linecap:round;stroke-linejoin:round;stroke-miterlimit:10;}
	.st91{fill:none;stroke:#F34B4B;stroke-width:2;stroke-linecap:round;stroke-linejoin:round;stroke-miterlimit:10;}
	.st92{fill:none;stroke:#43334E;stroke-width:0.5;stroke-linecap:round;stroke-linejoin:round;stroke-miterlimit:10;}
	.st93{fill:none;stroke:#6582FC;stroke-miterlimit:10;}
	.st94{opacity:0.47;fill:#A6A3AE;}
	.st95{opacity:0.43;fill:#FFFFFF;}
	.st96{fill:none;stroke:#FBE6BB;stroke-linecap:round;stroke-linejoin:round;stroke-miterlimit:10;}
	.st97{fill:none;stroke:#5B4B68;stroke-width:0.5;stroke-linecap:round;stroke-linejoin:round;stroke-miterlimit:10;}
	.st98{fill:none;stroke:#40304A;stroke-width:0.5;stroke-linecap:round;stroke-linejoin:round;stroke-miterlimit:10;}
	.st99{fill:none;stroke:#DDA103;stroke-linecap:round;stroke-linejoin:round;stroke-miterlimit:10;}
	.st100{fill:none;stroke:#FBC32E;stroke-linecap:round;stroke-linejoin:round;stroke-miterlimit:10;}
	.st101{fill:none;stroke:#32775B;stroke-width:0.5;stroke-linecap:round;stroke-linejoin:round;stroke-miterlimit:10;}
	.st102{opacity:0.4;fill:#FBE6BB;}
	.st103{fill:none;stroke:#FBC32E;stroke-width:0.25;stroke-linecap:round;stroke-linejoin:round;stroke-miterlimit:10;}
	.st104{fill:none;stroke:#4456D6;stroke-miterlimit:10;}
	.st105{opacity:0.61;fill:#64B48D;}
	.st106{opacity:0.9;fill:#64B48D;}
	.st107{opacity:0.76;fill:#64B48D;}
	.st108{fill:none;stroke:#5B4B68;stroke-width:0.5;stroke-miterlimit:10;}
	.st109{opacity:0.66;fill:#A6A3AE;}
	.st110{fill:none;stroke:#43334E;stroke-miterlimit:10;}
	.st111{opacity:0.52;fill:#6582FC;}
	.st112{fill:none;stroke:#DDA103;stroke-width:0.5;stroke-linecap:round;stroke-linejoin:round;stroke-miterlimit:10;}
	.st113{fill:#46724E;}
	.st114{fill:#FE8B2E;}
	.st115{fill:none;stroke:#7D4C47;stroke-width:2;stroke-linecap:round;stroke-linejoin:round;stroke-miterlimit:10;}
	.st116{opacity:0.4;fill:#EAE8F3;}
	.st117{fill:none;stroke:#EAE8F3;stroke-width:0.5;stroke-linecap:round;stroke-miterlimit:10;}
	.st118{fill:none;stroke:#4456D6;stroke-width:0.25;stroke-linecap:round;stroke-linejoin:round;stroke-miterlimit:10;}
	.st119{opacity:0.5;fill:#EAE8F3;}
	.st120{opacity:0.46;fill:#A6A3AE;}
	.st121{fill:#E0916E;}
	.st122{fill:none;stroke:#A0665A;stroke-linecap:round;stroke-linejoin:round;stroke-miterlimit:10;}
	.st123{opacity:0.46;fill:#BE412D;}
	.st124{fill:none;stroke:#203881;stroke-linecap:round;stroke-linejoin:round;stroke-miterlimit:10;}
	.st125{fill:#DBDBE1;}
	.st126{fill:none;stroke:#6582FC;stroke-width:0.5;stroke-linecap:round;stroke-linejoin:round;stroke-miterlimit:10;}
	.st127{opacity:0.53;fill:#A6A3AE;}
	.st128{fill:none;stroke:#DDA103;stroke-miterlimit:10;}
	.st129{opacity:0.2;fill:#FFFFFF;}
	.st130{fill:#B4A1BF;}
	.st131{opacity:0.5;fill:#6582FC;}
	.st132{opacity:0.6;fill:none;stroke:#FFFFFF;stroke-linecap:round;stroke-linejoin:round;stroke-miterlimit:10;}
	.st133{opacity:0.6;fill:none;stroke:#FFFFFF;stroke-width:2;stroke-linecap:round;stroke-linejoin:round;stroke-miterlimit:10;}
	.st134{opacity:0.54;fill:#A6A3AE;}
	.st135{fill:#161718;stroke:#000000;stroke-width:0.25;stroke-miterlimit:10;}
</style>
<g id="_x32_8">
	<g>
		<path class="st14" d="M71.1382751,120.454895v4.4508514c0,1.6293488-1.5397263,3.1295471-4.1229248,4.3217468h-0.009697
			c-0.2085953,0.0993347-0.4074936,0.1887665-0.6359787,0.2781525h-0.0101852
			c-1.8375854,0.7650146-4.1127357,1.3809814-6.7061157,1.7883453h-0.0097008
			c-0.2085953,0.0397186-0.4171944,0.0694885-0.6359749,0.0993347h-0.0097046
			c-2.086441,0.3079681-4.3417015,0.4768524-6.716301,0.4967499H51.616127
			c-2.3644104-0.0198975-4.6196709-0.1887817-6.7061157-0.4967499h-0.0097008
			c-0.2187843-0.0298462-0.4273796-0.0596161-0.6359749-0.0993347h-0.0101891
			c-2.5928917-0.4073639-4.8777466-1.0233307-6.7255173-1.7883453h-0.0101852
			c-0.2187843-0.0993195-0.4273796-0.1887665-0.6359749-0.2880859l-0.0097046-0.0099487
			c-2.5536003-1.1822662-4.0831413-2.6725159-4.0831413-4.3018646v-4.4905701l4.0632515-1.6194077l0.6558647,0.1887665
			l2.0859604,0.5960693c1.3912849-0.4271927,2.950901-0.7748947,4.6298561-1.0531006
			c0.2187843-0.0397186,0.4273796-0.0695572,0.6456795-0.0993271c2.086441-0.3079834,4.3514061-0.4868088,6.7260017-0.4967499
			h0.6456757c2.3847847,0.0099411,4.6497498,0.1788254,6.7361908,0.47686
			c0.2182999,0.0298309,0.4268951,0.0695496,0.6456795,0.0993881c1.7090302,0.2781448,3.2982407,0.635788,4.7094154,1.0729294
			l2.0068893-0.5761795l0.6553726-0.1887665L71.1382751,120.454895z"/>
		<path class="st15" d="M37.5184441,129.5056458c-0.2187843-0.0993195-0.4273796-0.1887665-0.6359749-0.2880859
			l-0.0097046-0.0099487c-0.0101852-2.4439697-0.0101852-4.9476013-0.0198898-7.421402l0.6558647,0.1887665
			C37.5087395,124.4487762,37.5184441,126.9821854,37.5184441,129.5056458z"/>
		<path class="st15" d="M44.9003105,131.3933258c-0.2187843-0.0298462-0.4273796-0.0596161-0.6359749-0.0993347h-0.0101891
			c-0.0097008-3.1692657-0.0194016-6.5074615-0.0295906-9.7760468c0.2187843-0.0397186,0.4273796-0.0695572,0.6456795-0.0993271
			C44.8804207,124.6772614,44.8901215,128.0651245,44.9003105,131.3933258z"/>
		<path class="st15" d="M52.2719917,131.8900757H51.616127c0-3.5368652-0.0097008-7.3022003-0.0198898-10.9682083h0.6456757
			C52.2618027,124.498436,52.2719917,128.2240601,52.2719917,131.8900757z"/>
		<path class="st15" d="M59.6436729,131.2939911c-0.2085953,0.0397186-0.4171944,0.0694885-0.6359749,0.0993347h-0.0097046
			c0-3.2388153-0.0101852-6.6465149-0.0198898-9.9945984c0.2182999,0.0297699,0.4268951,0.0596085,0.6456795,0.0993271
			C59.6237831,124.7070923,59.6339684,128.0253448,59.6436729,131.2939911z"/>
		<path class="st15" d="M67.0056534,129.2274933c-0.2085953,0.0993347-0.4074936,0.1887665-0.6359787,0.2781525h-0.0101852
			c-0.0097046-2.4638519-0.0097046-4.997261-0.0194016-7.5108414l0.6553726-0.1887665
			C66.9954605,124.2401199,67.0056534,126.7338104,67.0056534,129.2274933z"/>
		<ellipse class="st15" cx="51.9635315" cy="120.6994476" rx="19.1699753" ry="6.9757967"/>
		<path class="st16" d="M68.3916245,120.6976318c0,0.410347-0.1528015,0.8043213-0.4449844,1.190033
			c-1.7245712,2.2569351-8.2264328,3.93116-15.980217,3.93116c-7.7605743,0-14.2626076-1.6742249-15.980217-3.93116
			c-0.2921829-0.3857117-0.4449806-0.779686-0.4449806-1.190033c0-2.8314438,7.3502274-5.1211929,16.4251976-5.1211929
			C61.0344315,115.5764389,68.3916245,117.866188,68.3916245,120.6976318z"/>
		<path class="st14" d="M62.5023956,121.0871582l-0.2973366,0.7394562l-2.6642685-0.0882874
			c-0.2886505,0.6705551-1.0435944,1.3612289-1.8626175,1.7433319l-1.6581841-0.336235
			c0.0097237-0.0001755,0.00951-0.0116501,0.0192337-0.0118332l-0.058342,0.0010834l0.2711411-0.5784607
			c0,0,0.6190643-0.149086,0.9099045-0.1889114c0.0097237-0.0001831,0.0097237-0.0001831,0.0097237-0.0001831
			c0.2963181-0.2692413,0.524147-0.5601807,0.6445847-0.8720932c0.3248138-0.8317337-0.5317039-1.4237442-2.0389595-1.4761276
			c-1.4486771-0.0534592-2.5293655,0.3680038-3.6603088,1.2146606c-1.5335808,1.1523895-3.0367622,1.8453674-5.3315506,1.7617188
			c-2.187851-0.0741425-3.5816765-0.8167877-3.5532265-1.9067917l-2.6644783-0.0997543l0.2880363-0.7163925l2.5570946,0.0787811
			c0.3273582-0.6942291,0.9409294-1.1528168,1.5274277-1.4848404l0.8976784,0.2012863
			c0.0458565-0.1499481,0.0921402-0.276947,0.1018639-0.2771225c0.0192375-0.0118408,0.861927-0.1535873,0.861927-0.1535873
			l-0.2320328,0.5892181c-0.4233398,0.2257462-1.1922569,0.6872177-1.4794197,1.4380341
			c-0.3624306,0.9012375,0.7233963,1.2825775,1.7734451,1.3204651c1.371151,0.0434189,2.228405-0.3623581,3.590168-1.3509827
			c1.5817528-1.1646881,3.1942062-1.7221375,5.5378494-1.6393967c2.0906143,0.0760117,3.7847672,0.778656,3.7588654,2.0062332
			L62.5023956,121.0871582z"/>
		<path class="st17" d="M62.4414215,121.2408142l-2.6655388-0.0928726c-0.294445,0.678009-1.0466614,1.3622589-1.8684578,1.7481918
			l-1.6575851-0.3422623c0.7997513-0.39785,1.5413475-0.989502,1.7997017-1.6433258
			c0.3281555-0.8303909-0.5327682-1.4298859-2.0369377-1.4821091c-1.4519424-0.0503922-2.5306702,0.3744583-3.6629677,1.2119064
			c-1.5283051,1.1555786-3.0338249,1.8504181-5.3299713,1.7703018c-2.190731-0.0759125-3.5815811-0.8246307-3.5524063-1.9138107
			l-2.6674347-0.0928421l0.2864571-0.7249069l2.5620308,0.0891953c0.3296242-0.6999359,0.9416771-1.1637497,1.5245399-1.4870224
			l1.625988,0.3529282c-0.4141731,0.2339096-1.1838264,0.6939163-1.4793472,1.4419479
			c-0.3553314,0.9003372,0.7240944,1.281868,1.7800484,1.3183136c1.3731308,0.0479279,2.2310295-0.3616333,3.5831642-1.3448334
			c1.5850487-1.1661453,3.1969872-1.7257614,5.546299-1.6443863c2.0862846,0.0728073,3.7858124,0.7838898,3.7585754,2.0035095
			l2.7453003,0.0953217L62.4414215,121.2408142z"/>
	</g>
	<g>
		<path class="st14" d="M66.3133087,113.2244644v4.4508591c0,1.6293488-1.5397263,3.1295395-4.122921,4.3217545h-0.0097046
			c-0.2085953,0.0993271-0.4074898,0.1887665-0.6359749,0.2781448H61.534523
			c-1.8375854,0.7650146-4.1127357,1.3809814-6.7061157,1.7883453h-0.0097008
			c-0.2085953,0.0397186-0.4171944,0.0694962-0.6359749,0.0993271H54.173027
			c-2.086441,0.3079834-4.3417015,0.47686-6.716301,0.4967499h-0.6655655
			c-2.3644104-0.0198898-4.6196709-0.1887665-6.7061157-0.4967499h-0.0097008
			c-0.2187843-0.0298309-0.4273796-0.0596085-0.6359749-0.0993271h-0.0101891
			c-2.5928917-0.4073639-4.8777466-1.0233307-6.7255173-1.7883453h-0.0101891
			c-0.2187805-0.0993271-0.4273758-0.1887665-0.6359711-0.2880936l-0.0097046-0.0099411
			c-2.5536003-1.1822662-4.0831413-2.6725159-4.0831413-4.3018646v-4.4905701l4.0632515-1.6194077l0.6558647,0.1887665
			l2.0859604,0.5960693c1.3912849-0.4271927,2.950901-0.7748947,4.6298561-1.0531006
			c0.2187843-0.0397186,0.4273796-0.0695572,0.6456795-0.0993271c2.086441-0.3079834,4.3514061-0.4868088,6.7260017-0.4967499
			h0.6456757c2.3847847,0.0099411,4.6497498,0.1788254,6.7361908,0.47686
			c0.2182999,0.0298309,0.4268951,0.0695496,0.6456795,0.0993881c1.7090302,0.2781448,3.2982407,0.635788,4.7094154,1.0729294
			l2.0068855-0.5761795l0.6553802-0.1887665L66.3133087,113.2244644z"/>
		<path class="st15" d="M32.6934738,122.2752228c-0.2187805-0.0993271-0.4273758-0.1887665-0.6359711-0.2880936
			l-0.0097046-0.0099411c-0.0101852-2.4439697-0.0101852-4.9476013-0.0198898-7.421402l0.6558647,0.1887665
			C32.683773,117.2183533,32.6934738,119.7517624,32.6934738,122.2752228z"/>
		<path class="st15" d="M40.0753441,124.1628952c-0.2187843-0.0298309-0.4273796-0.0596085-0.6359749-0.0993271h-0.0101891
			c-0.0097008-3.1692581-0.0194016-6.5074615-0.0295906-9.7760468c0.2187843-0.0397186,0.4273796-0.0695572,0.6456795-0.0993271
			C40.0554543,117.4468384,40.065155,120.8347015,40.0753441,124.1628952z"/>
		<path class="st15" d="M47.4470253,124.6596451h-0.6558647c0-3.53685-0.0097008-7.3021927-0.0198898-10.9682007h0.6456757
			C47.4368362,117.268013,47.4470253,120.9936295,47.4470253,124.6596451z"/>
		<path class="st15" d="M54.8187065,124.0635681c-0.2085953,0.0397186-0.4171944,0.0694962-0.6359749,0.0993271H54.173027
			c0-3.2388153-0.0101852-6.6465073-0.0198898-9.9945908c0.2182999,0.0297699,0.4268951,0.0596085,0.6456795,0.0993271
			C54.7988167,117.4766693,54.8090019,120.7949219,54.8187065,124.0635681z"/>
		<path class="st15" d="M62.1806831,121.9970779c-0.2085953,0.0993271-0.4074898,0.1887665-0.6359749,0.2781448H61.534523
			c-0.0097046-2.4638519-0.0097046-4.997261-0.0194054-7.5108414l0.6553802-0.1887665
			C62.1704979,117.009697,62.1806831,119.5033875,62.1806831,121.9970779z"/>
		<ellipse class="st15" cx="47.1385651" cy="113.4690247" rx="19.1699753" ry="6.9757967"/>
		<path class="st16" d="M63.5666542,113.4672089c0,0.410347-0.1527977,0.8043213-0.4449806,1.190033
			c-1.7245712,2.2569351-8.2264328,3.93116-15.980217,3.93116c-7.7605743,0-14.2626076-1.6742249-15.9802189-3.93116
			c-0.2921829-0.3857117-0.4449787-0.779686-0.4449787-1.190033c0-2.8314438,7.3502274-5.1211929,16.4251976-5.1211929
			C56.209465,108.3460159,63.5666542,110.6357651,63.5666542,113.4672089z"/>
		<path class="st14" d="M57.6774292,113.8567352l-0.2973366,0.7394562l-2.6642685-0.0882874
			c-0.2886505,0.6705551-1.0435944,1.3612289-1.8626175,1.7433319l-1.6581841-0.336235
			c0.0097237-0.0001755,0.00951-0.0116501,0.0192337-0.0118332l-0.058342,0.0010834l0.2711411-0.5784607
			c0,0,0.6190643-0.149086,0.9099045-0.1889114c0.0097237-0.0001831,0.0097237-0.0001831,0.0097237-0.0001831
			c0.2963181-0.2692413,0.524147-0.5601807,0.6445847-0.8720932c0.3248138-0.8317337-0.5317039-1.4237442-2.0389595-1.4761276
			c-1.4486771-0.0534592-2.5293655,0.3680038-3.6603088,1.2146606c-1.5335808,1.1523895-3.0367622,1.8453598-5.3315506,1.7617188
			c-2.187851-0.0741425-3.5816765-0.8167877-3.5532265-1.9067917l-2.6644821-0.099762l0.2880402-0.7163849l2.5570946,0.0787811
			c0.3273582-0.6942291,0.9409294-1.1528168,1.5274277-1.4848404l0.8976784,0.2012863
			c0.0458565-0.1499481,0.0921402-0.276947,0.1018639-0.2771225c0.0192375-0.0118408,0.861927-0.1535873,0.861927-0.1535873
			l-0.2320328,0.5892181c-0.4233398,0.2257462-1.1922569,0.6872177-1.4794197,1.4380341
			c-0.3624306,0.9012375,0.7233963,1.2825775,1.7734451,1.3204651c1.371151,0.0434189,2.228405-0.3623581,3.590168-1.3509827
			c1.5817528-1.1646881,3.1942062-1.7221375,5.5378494-1.6393967c2.0906143,0.0760117,3.7847672,0.778656,3.7588654,2.0062332
			L57.6774292,113.8567352z"/>
		<path class="st17" d="M57.6164551,114.0103912l-2.6655388-0.0928726c-0.294445,0.678009-1.0466614,1.3622589-1.8684578,1.7481918
			l-1.6575851-0.3422623c0.7997513-0.39785,1.5413475-0.989502,1.7997017-1.6433258
			c0.3281555-0.8303909-0.5327682-1.4298859-2.0369377-1.4821091c-1.4519424-0.0503922-2.5306702,0.3744583-3.6629677,1.2119064
			c-1.5283051,1.1555786-3.0338249,1.8504181-5.3299713,1.7703018c-2.190731-0.0759125-3.5815811-0.8246307-3.5524063-1.9138107
			l-2.6674347-0.0928421l0.2864571-0.7249069l2.5620308,0.0891953c0.3296242-0.6999435,0.9416771-1.1637497,1.5245399-1.4870224
			l1.625988,0.3529282c-0.4141731,0.233902-1.1838264,0.6939163-1.4793472,1.4419479
			c-0.3553314,0.9003372,0.7240944,1.281868,1.7800484,1.3183136c1.3731308,0.0479279,2.2310257-0.3616333,3.5831642-1.3448334
			c1.5850487-1.1661453,3.1969872-1.7257614,5.546299-1.6443863c2.0862846,0.0728073,3.7858124,0.7838898,3.7585754,2.0035095
			l2.7453003,0.0953217L57.6164551,114.0103912z"/>
	</g>
	<g>
		<path class="st14" d="M72.5637665,105.8911438v4.4508514c0,1.6293564-1.5397263,3.1295471-4.1229248,4.3217545h-0.009697
			c-0.2085953,0.0993271-0.4074936,0.1887665-0.6359787,0.2781525h-0.0101852
			c-1.8375854,0.765007-4.1127357,1.3809738-6.7061157,1.7883453h-0.0097008
			c-0.2085991,0.0397186-0.4171944,0.0694885-0.6359749,0.0993195h-0.0097046
			c-2.086441,0.3079834-4.3417053,0.47686-6.716301,0.4967499h-0.6655655
			c-2.3644104-0.0198898-4.6196709-0.1887665-6.7061157-0.4967499h-0.0097008
			c-0.2187843-0.0298309-0.4273796-0.0596008-0.6359749-0.0993195h-0.0101891
			c-2.5928955-0.4073715-4.8777466-1.0233383-6.7255173-1.7883453h-0.0101891
			c-0.2187805-0.0993271-0.4273758-0.1887741-0.6359749-0.2880936l-0.0097008-0.0099487
			c-2.5536003-1.1822662-4.0831413-2.6725082-4.0831413-4.3018646v-4.4905701l4.0632515-1.6194077l0.6558647,0.1887665
			l2.0859604,0.596077c1.3912849-0.4272003,2.950901-0.7749023,4.6298561-1.0531082
			c0.2187843-0.0397186,0.4273796-0.0695496,0.6456757-0.0993271c2.0864449-0.3079834,4.3514099-0.4868011,6.7260056-0.4967499
			h0.6456757c2.3847847,0.0099487,4.6497498,0.1788254,6.7361908,0.47686
			c0.2182999,0.0298386,0.4268951,0.0695572,0.6456795,0.0993881c1.7090302,0.2781448,3.2982368,0.6357956,4.7094154,1.072937
			l2.0068817-0.5761871l0.6553802-0.1887665L72.5637665,105.8911438z"/>
		<path class="st15" d="M38.9439316,114.9419022c-0.2187805-0.0993271-0.4273758-0.1887741-0.6359749-0.2880936
			l-0.0097008-0.0099487c-0.0101852-2.4439621-0.0101852-4.9476013-0.0198898-7.421402l0.6558647,0.1887665
			C38.9342308,109.885025,38.9439316,112.4184341,38.9439316,114.9419022z"/>
		<path class="st15" d="M46.3258018,116.829567c-0.2187843-0.0298309-0.4273796-0.0596008-0.6359749-0.0993195h-0.0101891
			c-0.0097008-3.1692657-0.0194016-6.5074692-0.0295906-9.7760544c0.2187843-0.0397186,0.4273796-0.0695496,0.6456757-0.0993271
			C46.305912,110.1135101,46.3156128,113.5013733,46.3258018,116.829567z"/>
		<path class="st15" d="M53.6974831,117.3263168h-0.6558647c0-3.53685-0.0097008-7.3021851-0.0198898-10.9682007h0.6456757
			C53.687294,109.9346848,53.6974831,113.6603088,53.6974831,117.3263168z"/>
		<path class="st15" d="M61.0691643,116.7302475c-0.2085991,0.0397186-0.4171944,0.0694885-0.6359749,0.0993195h-0.0097046
			c0-3.2388153-0.0101852-6.6465073-0.0198898-9.9945908c0.2182999,0.0297775,0.4268951,0.0596085,0.6456795,0.0993271
			C61.0492744,110.1433487,61.0594597,113.4615936,61.0691643,116.7302475z"/>
		<path class="st15" d="M68.4311447,114.6637497c-0.2085953,0.0993271-0.4074936,0.1887665-0.6359787,0.2781525h-0.0101852
			c-0.0097046-2.4638596-0.0097046-4.9972687-0.0194092-7.510849l0.6553802-0.1887665
			C68.4209518,109.6763687,68.4311447,112.1700592,68.4311447,114.6637497z"/>
		<ellipse class="st15" cx="53.3890228" cy="106.1356964" rx="19.1699753" ry="6.9757967"/>
		<path class="st16" d="M69.8171082,106.1338806c0,0.4103546-0.1527939,0.8043289-0.4449768,1.190033
			c-1.7245712,2.2569427-8.2264366,3.93116-15.980217,3.93116c-7.7605743,0-14.2626076-1.6742172-15.9802208-3.93116
			c-0.2921791-0.385704-0.4449768-0.7796783-0.4449768-1.190033c0-2.8314438,7.3502274-5.1211929,16.4251976-5.1211929
			C62.4599228,101.0126877,69.8171082,103.3024368,69.8171082,106.1338806z"/>
		<path class="st14" d="M63.927887,106.523407l-0.2973366,0.7394562l-2.6642685-0.0882797
			c-0.2886505,0.6705551-1.0435944,1.3612213-1.8626175,1.7433243l-1.6581841-0.3362274
			c0.0097237-0.0001831,0.00951-0.0116577,0.0192337-0.0118408l-0.058342,0.0010834l0.2711372-0.5784607
			c0,0,0.6190681-0.149086,0.9099083-0.1889114c0.0097237-0.0001755,0.0097237-0.0001755,0.0097237-0.0001755
			c0.2963181-0.269249,0.524147-0.5601883,0.6445847-0.8720932c0.3248138-0.8317337-0.5317039-1.4237518-2.0389595-1.4761276
			c-1.4486771-0.0534668-2.5293655,0.3679962-3.6603088,1.2146606c-1.5335808,1.1523819-3.0367622,1.8453598-5.3315506,1.7617111
			c-2.187851-0.0741425-3.5816765-0.8167877-3.5532265-1.9067917l-2.6644821-0.0997543l0.2880402-0.7163925l2.5570946,0.0787888
			c0.3273582-0.6942368,0.9409294-1.1528244,1.5274277-1.484848l0.8976746,0.2012863
			c0.0458603-0.1499481,0.092144-0.276947,0.1018677-0.2771225c0.0192375-0.0118408,0.861927-0.1535797,0.861927-0.1535797
			l-0.2320328,0.5892105c-0.4233398,0.2257538-1.1922569,0.6872177-1.4794197,1.4380341
			c-0.3624306,0.9012375,0.7233963,1.2825775,1.7734451,1.3204651c1.371151,0.0434189,2.228405-0.3623581,3.590168-1.3509827
			c1.5817528-1.1646881,3.1942062-1.7221375,5.5378494-1.6393967c2.0906143,0.0760117,3.7847672,0.778656,3.7588615,2.0062332
			L63.927887,106.523407z"/>
		<path class="st17" d="M63.8669128,106.6770706l-2.6655388-0.0928802c-0.294445,0.678009-1.0466614,1.3622589-1.8684578,1.7481995
			l-1.6575851-0.3422699c0.7997513-0.3978424,1.5413437-0.9894943,1.7997017-1.6433182
			c0.3281555-0.8303986-0.5327682-1.4298935-2.0369377-1.4821167c-1.4519424-0.0503922-2.5306702,0.3744659-3.6629677,1.2119064
			c-1.5283051,1.1555786-3.0338249,1.8504181-5.3299713,1.7703018c-2.190731-0.0759125-3.5815811-0.8246307-3.5524063-1.9138107
			l-2.6674347-0.0928421l0.2864571-0.7248993l2.5620308,0.0891953c0.3296242-0.6999435,0.9416771-1.1637573,1.5245399-1.48703
			l1.625988,0.3529282c-0.4141731,0.2339096-1.1838264,0.6939163-1.4793472,1.4419479
			c-0.3553314,0.9003372,0.7240944,1.281868,1.7800484,1.3183136c1.3731308,0.0479355,2.2310257-0.3616333,3.5831642-1.3448334
			c1.5850487-1.1661453,3.1969872-1.7257538,5.546299-1.6443787c2.0862846,0.0727997,3.7858124,0.7838898,3.7585754,2.0035095
			l2.7453003,0.0953217L63.8669128,106.6770706z"/>
	</g>
	<path class="st20" d="M94.1703339,63.2211952c-0.1106491,0.0565147-0.1706238,0.1854591-0.1734543,0.3096733
		c-0.0028381,0.1242142,0.0427475,0.2445183,0.0982742,0.3556671c0.2326126,0.4655685,0.6492386,0.8243256,1.1205139,1.0451584
		c0.4712677,0.2208328,0.9951859,0.3114853,1.5153427,0.3289108c0.529068,0.0177155,1.0660629-0.03965,1.561554-0.2259827
		c0.4954834-0.1863251,0.9483109-0.5079346,1.2409973-0.9490204c0.4355316-0.6563759,0.4768143-1.5031624,0.3532867-2.2811432"/>
	<path class="st83" d="M75.8715057,88.8134003c2.1479034,0.0259171,4.3987808,0.0780869,6.272438,1.1285858
		c1.7082748,0.9577789,2.9079208,2.6676331,3.5563049,4.5156479c0.8278046,2.3593979,1.5499268,5.1178818,3.2676773,7.0172348
		c1.3611755,1.5050812,3.36763,2.3294678,5.3874893,2.5250702c4.0058746,0.3879242,8.1220551-1.7029877,10.270134-5.1063995
		c0.7694244-1.2190781,1.3053131-2.6013031,1.4347839-4.0370712c0.4587021-5.0869598-4.1022034-7.8250961-6.9747009-11.3648911
		c-2.606308-3.2117615-4.8414612-7.4765701-4.2537384-11.7094498c0.3208084-2.3104935,1.238884-4.4965439,2.2978287-6.5749817
		c0.702858-1.3795319,1.4722366-2.7268944,2.0959549-4.1439629c1.3922119-3.1630707,2.0337677-6.653614,1.8572693-10.105011"/>
	<path class="st40" d="M99.9151688,63.7074432L98.81147,66.3309021c-0.2631912,0.6197586-0.9848251,0.916893-1.6046371,0.6537018
		l-1.2140808-0.5178833c-0.6197586-0.2631912-0.9084396-0.976326-0.6452484-1.596138l1.1037521-2.6234093
		c0.2631912-0.6198082,0.9848251-0.9169426,1.6045837-0.6537514l1.2141266,0.5178833
		C99.8897247,62.3744965,100.17836,63.0876846,99.9151688,63.7074432z"/>
	<path class="st20" d="M82.0350571,88.6598129v1.723465c0,0.3481216-0.2886353,0.6367569-0.6282578,0.6367569h-0.9253922
		c-0.3396225,0-0.6283112-0.2886353-0.6283112-0.6367569v-1.723465c0-0.3480682,0.2886887-0.6282578,0.6283112-0.6282578h0.9253922
		C81.7464218,88.0315552,82.0350571,88.3117447,82.0350571,88.6598129z"/>
	<path class="st1" d="M75.3818893,78.201683c-0.0439606-0.0271072-0.3051453-0.1061325-0.3459091-0.1410599l-5.2557144-2.6933289
		l-3.0277786-1.5463791l-1.098259-0.5670471l3.0613632-7.9571304l4.8275528,3.0687943l0.8649902,0.5544739l0.8163757,0.5162811
		l0.1255646,7.1570511L75.3818893,78.201683z"/>
	<path class="st80" d="M72.9584808,75.397995c0,0-2.0316849-1.9654007-2.0509186-1.9182358
		c-0.0128326,0.0314789-0.5358276,0.9093094-1.1272964,1.8875351l-3.0277786-1.5463791
		c-0.0028992-0.0378952,0.0020447-0.0725327,0.0116577-0.0960922c0.2574768-1.0136261,0.8328552-2.6494217,1.5027695-3.1006241
		c0.677803-0.4479218,1.4213409-0.8323822,1.9951096-1.0476761L72.9584808,75.397995z"/>
	<path class="st7" d="M73.4640045,67.5296707l-3.2683487,5.4931107l-0.9932709,1.6725159l-0.4415054,0.7386398l-5.1877403-2.8950958
		l-4.0667839-2.2668915c-0.2632408-0.1697617-0.5177765-0.3480759-0.7383194-0.5518265
		c-0.1952553-0.1783066-0.3739281-0.3735657-0.5264854-0.5688705c-0.8999977-1.1631393-1.2142334-2.7082901-0.7897263-4.1516113
		c0.1019783-0.3566208,0.2549515-0.7046967,0.4502068-1.0527649c1.2987976-2.1650124,4.1177711-2.9036446,6.307869-1.5961418
		l2.5727234,1.4348297l2.2415009,1.2565117l1.1968155,0.6707001l1.6897278,0.9424362l0.679039,0.382019L73.4640045,67.5296707z"/>
	<path class="st9" d="M73.4640045,67.5296707c-2.2327881,2.7847672-4.2616196,5.3911819-4.2616196,5.3911819l-3.656868-2.5327072
		l4.5082855-4.5082321l1.8568649,0.7752991l0.679039,0.382019L73.4640045,67.5296707z"/>
	<path class="st8" d="M69.2030182,74.6918182l-0.4417343,0.7459259l-5.1912537-2.8962708L59.50811,70.270813
		c-0.2606087-0.1704559-0.5179825-0.3487244-0.7389603-0.548851c-0.192688-0.1794739,0.4652901,0.1403427,0.3089561-0.0609055
		l0.9663353-1.0125122c0.647644-0.6785965,1.7183495-0.7167358,2.4126282-0.0859299L69.2030182,74.6918182z"/>
	<path class="st1" d="M78.1275406,77.8542557c-0.6778259,0.4479675-1.4545059,0.598877-2.1836777,0.4757385
		c-0.0457001-0.0003281-0.0882034-0.0084839-0.1496582-0.0151901c-0.7777481-0.161293-1.4983368-0.6201706-1.9681244-1.3343658
		c-0.0203552-0.0174789-0.0375443-0.0428467-0.0515442-0.0760345l-3.3250656-6.1236954l-4.5613937-8.4432602l-1.8800812-1.7752075
		c-0.459671-0.3341751-0.7399597-0.8610802-0.7488213-1.4239807l-0.0384865-2.491291l-0.1233559-0.4170227l-0.561142-1.9067345
		c-0.0541115-0.1596184-0.0293083-0.3328362,0.0394707-0.4790001c0.0848045-0.185463,0.2750244-0.3371162,0.5132408-0.3591728
		c0.2792702-0.0328522,0.5494423,0.1140289,0.6611748,0.3796349l0.4164658,0.9124985l0.693161,1.4929504l0.3086395-2.5331268
		l-0.0884552-0.2102852l-1.10989-2.6072426c-0.0744591-0.1770935-0.0636406-0.3835487,0.0115585-0.5454483
		c0.0495491-0.0989952,0.122654-0.188385,0.2129478-0.2524071c0.3136978-0.2296791,0.75457-0.1415672,0.9524841,0.2050133
		l0.6955414,1.3747215l-0.2628326-1.2441025c-0.0352249-0.1610413-0.012146-0.3075409,0.0612946-0.442627
		c0.0751801-0.16185,0.2243118-0.3027802,0.4107056-0.3551521c0.3427734-0.0985641,0.6837387,0.0771294,0.8187485,0.398056
		l0.2510986,0.6433792l0.6837921,1.7183533l-0.1412506-1.7446899c-0.0165634-0.1167793,0.0061646-0.2175293,0.0557098-0.3165245
		c0.0783844-0.1697235,0.2590027-0.2978172,0.467186-0.3137665c0.2714539-0.0360413,0.5115967,0.116951,0.618721,0.3714981
		l0.7422485,1.9347l-0.023941-1.6051331c0.0052338-0.0803528,0.0216064-0.1653976,0.0550613-0.2250671
		c0.1087189-0.2215996,0.3539734-0.3508072,0.5994186-0.2781982c0.217247,0.0518761,0.3753204,0.2263565,0.3959045,0.4456749
		l0.4387512,3.9381104c0.0671082,0.5774727-0.0597534,1.1583939-0.3563614,1.6609726l-0.974823,3.1324654l4.3793716,6.6636429
		l4.7243271,7.1893845C79.9791489,74.6850662,79.6794052,76.8366928,78.1275406,77.8542557z"/>
	<path class="st1" d="M90.1188126,133.2601776l0.0339355-3.4384766l-0.0254364-0.04245l-2.428154-4.1686554l-0.1953049-0.3310699
		l0.4329987-0.0509415l4.3469162-0.4924393l1.451828-0.1698151l1.5791397,3.2262268l0.0084991,0.0084991l0.5093842,1.0442657
		l0.645256,6.1468658C96.4778748,134.9921875,90.28862,133.3960419,90.1188126,133.2601776z"/>
	<path class="st80" d="M95.3232346,127.8010559c0,0-2.8781509,1.1291962-5.1959229,1.9781952l-2.428154-4.1686554
		c0.0678787-0.1188202,0.1443176-0.2461929,0.2376938-0.3820114l4.3469162-0.4924393l3.0309677,3.0564117L95.3232346,127.8010559z"
		/>
	<path class="st24" d="M106.6152802,136.4897766v2.0506897l-17.4447479-0.6288757l-0.1274948-1.1392822l-0.2369843-2.0324554
		c-0.1458588-1.285141,0.1002426-2.5884552,0.7109375-3.7277374l0.6379547-1.184845l0.8020554,0.8567505
		c0.3919601,0.4192657,0.9477997,0.6380005,1.52211,0.6015625l1.0662994-0.0729218
		c0.6561966-0.036499,1.2577667-0.419281,1.5676193-1.011673l0.7200546-1.3580627l3.1808548,3.0897369l5.286293,1.4947357
		C105.667366,133.8193054,106.6152802,135.0679474,106.6152802,136.4897766z"/>
	<polygon class="st47" points="106.6157532,136.7723083 106.6157532,138.5404663 89.1710052,137.9115906 89.0435028,136.7723083 	
		"/>
	<path class="st1" d="M67.8153381,131.7489624l-0.3650665,0.4499512l0.3396301,5.9261169
		c0,0-5.8666801-1.7998962-6.0279961-1.9442749l0.1868095-3.2941437l0.2716904-1.22258l1.2904587-5.8241882l0.4499969-2.012146
		l1.1036987,1.7404556l1.7404556,2.7338333l3.9054718-0.118866L67.8153381,131.7489624z"/>
	<path class="st80" d="M70.7104874,128.1831207l-2.8951492,3.5658417l-5.5949326-0.0849304l1.2904587-5.8241882
		c0.5009384-0.0933762,1.0273132-0.1867523,1.5536957-0.2716904l1.7404556,2.7338333L70.7104874,128.1831207z"/>
	<path class="st24" d="M77.4558411,140.0218811L77.3626709,142l-16.7237091-1.4017029l-0.071434-1.091095l-0.1268921-1.9621429
		c-0.0907059-1.2411652,0.2133446-2.4812622,0.8516464-3.556488l0.6575813-1.1093903l0.7314911,0.859024
		c0.3573456,0.4203644,0.8810463,0.6643372,1.4340172,0.6552582l1.027504-0.0217438
		c0.6409912-0.0137177,1.2271423-0.3545227,1.5512009-0.9006958l0.7528076-1.2715759l2.9236984,3.1114655l5.0002365,1.6741333
		C76.6660004,137.4232483,77.5197372,138.6652222,77.4558411,140.0218811z"/>
	<path class="st1" d="M56.940361,61.4902992c0,0-4.7435379-0.9260063-8.2681503,0l-2.4339256,2.6373024
		c0,0,3.2882156,3.8252411,4.1186981,4.102066c0.8304787,0.2768326,4.8339081-0.603981,5.587883-1.0066376
		c0.7539711-0.4026566,2.0626068-2.6172791,2.0122757-2.7682724"/>
	<path class="st1" d="M51.3178711,43.264164l-1.292038,9.348259c-0.0707817,0.5121346-0.0275154,1.0311279,0.1184082,1.5112877
		c0.1130981,0.3340645,0.2731285,0.6481056,0.4727173,0.9321976c0.0449295,0.0592804,0.1705322,0.1739845,0.3509598,0.3404274
		l-1.3676186,9.895092l5.6245499,0.7773819l1.1024895-7.9768181c0.0743103-0.0251503,0.1473083-0.0415688,0.2203102-0.0580406
		c0.7451096-0.2065964,1.4183464-0.6619759,1.8974915-1.312252c0.8351212-1.1141396,1.3694878-2.4202118,1.5602341-3.8003349
		l0.6766052-4.8954163c0,0,0.5025597-2.2923813-1.7083893-3.7036705L51.3178711,43.264164z"/>
	<path class="st80" d="M50.6881142,47.8065147l-0.6016045,4.3527718c0.3313484-0.1082382,0.583168-0.4060516,0.6337547-0.7720718
		l0.3695297-2.6736374C51.1403809,48.3475571,50.9776802,48.0005684,50.6881142,47.8065147z"/>
	<path class="st3" d="M47.6768837,47.6296005c-0.0252151,0.5109787-0.0118599,1.0238304,0.0419235,1.5332718
		c0.0387878,0.3674164,0.2188835,0.7237358,0.4210854,1.0305367l1.8667068,2.8144226c0,0,0.5006294-2.726078,0.5006332-2.7260895
		c0.0511169-0.2826042,0.1022377-0.5652084,0.1533585-0.8478127c0.0198212-0.109581,0.0178413-0.4097977,0.0889969-0.4948654
		c0.1306725-0.1562233,0.6129456,0.0085564,0.8315582,0.0432472c0.069294,0.010994,0.1471748,0.0200462,0.2033958-0.0219269
		c0.0409164-0.0305443,0.0603409-0.0813141,0.0777664-0.1293106c0.4015007-1.1058807,0.8626862-2.1704559,1.2850571-3.265892
		c0.4434242,0.7620049,1.2862396,1.1973419,2.1198349,1.4843979c1.5763855,0.5428352,3.2848091,0.6976547,4.9330978,0.4470406
		c0.172184,0.7657967,0.2324905,1.5566559,0.1784134,2.3397026c0.0039177-0.0567398,0.4031448-0.3100319,0.4635582-0.3666039
		c0.1701393-0.1593132,0.3247032-0.3353386,0.4604836-0.5247917c0.1704865-0.2378769,0.3421516-0.4746704,0.5125618-0.7130394
		c0.3167915-0.4431305,0.6044922-0.9100723,0.8330421-1.4051552c0.2156906-0.4672356,0.3178177-0.9027748,0.3783264-1.4011002
		c0.0656624-0.5407562,0.2497635-1.0389633,0.0717583-1.5843925c-0.2698441-0.8267899-1.1612434-1.2391739-1.884922-1.72155
		c-0.7930908-0.5286446-1.4545288-1.2279663-2.1744843-1.852562s-1.5349426-1.1915321-2.4710922-1.3706436
		s-2.0140762,0.1136055-2.5380745,0.9097748c-0.1869087-0.4749336-0.8446617-0.637661-1.296772-0.4008179
		s-0.6955643,0.7619896-0.7259941,1.2714729c-0.1062508-0.2555962-0.4385033-0.3534966-0.7060242-0.2824249
		c-0.2675209,0.0710754-0.4817581,0.2671623-0.6761246,0.464241C48.856823,42.651535,47.8008423,45.1179199,47.6768837,47.6296005z"
		/>
	<path class="st80" d="M56.1694908,59.2325325l0.1587906-1.1488762c-0.0589485,0.2749329-2.9408989-1.1686745-3.2647285-1.4825859
		c-0.1874924-0.0768852-0.328804,0.178978-0.1638908,0.2967339C53.7016296,57.9496155,54.7784386,58.7403336,56.1694908,59.2325325z
		"/>
	<path class="st1" d="M51.1330032,48.4078827l-0.3693504,2.6723366c-0.0726204,0.525444-0.5569649,0.8921623-1.0824051,0.8195419
		c-0.5254364-0.0726242-0.8921509-0.5569649-0.8195305-1.0824127l0.3693504-2.6723366
		c0.0363083-0.262722,0.1756096-0.4848061,0.3711319-0.6334953c0.1961594-0.1478653,0.4484444-0.2215958,0.7111626-0.1852837
		C50.8388023,47.3988533,51.2055206,47.8831978,51.1330032,48.4078827z"/>
	<path class="st84" d="M56.9829102,51.0135536l0.4975471,0.8269157c0.130043,0.2161217,0.0579948,0.4968643-0.1600494,0.6236572
		l-0.5849991,0.3401756"/>
	<path class="st7" d="M61.9044685,61.7004623l-0.4839401,4.7884216l-0.152813,6.8345032l-0.3056335,13.813385l-0.0339928,1.5706482
		l-0.025444,1.3329468c-4.7459793,2.4536438-10.0607796,2.8866501-15.9359055,1.3583908
		c-0.8065681-0.2037506-1.621582-0.4499435-2.4451485-0.7301331l-0.1613121-6.4694366l-0.3311272-12.8285065l-0.0169449-0.619812
		l-0.1273689-5.2468643l0.1018753-3.5403519l6.7326317-0.5178833c0,0.0169945,0.0084991,0.0424385,0.0084991,0.0594368
		c0.2546921,1.7319565,0.8660049,3.5658455,4.1346664,3.9733543c3.3026543,0.4075089,4.1177216-4.0327911,4.1177216-4.0327911
		L61.9044685,61.7004623z"/>
	<path class="st9" d="M61.2677155,73.3233871l-0.3056335,13.813385l-5.3580246-0.7683945
		c0,0-11.289566-4.6881027-11.289566-5.0107269C44.3569832,81.1029587,59.204628,74.2657776,61.2677155,73.3233871z"/>
	<path class="st8" d="M42.9934959,79.668663c0,0,1.8508339,10.5276794,1.9697075,11.7333069
		c-0.8065681-0.203804-1.6216354-0.4499969-2.4451485-0.7301865l-0.1613159-6.4694443l-0.3311234-12.8284988l0.8442421-0.5116043
		l4.1322136-1.6538162c0.3622284-0.2932739,0.8713417,0.1062088,0.6726418,0.5278015L42.9934959,79.668663z"/>
	<path class="st80" d="M49.8248978,48.2790642l-0.1055794,0.7638969l0.6550636,0.4231567l0.150692-1.0902824
		c0.0263939-0.1909714-0.1107292-0.3720779-0.3017044-0.3984718C50.0323982,47.9509697,49.8512917,48.088089,49.8248978,48.2790642z
		"/>
	<path class="st80" d="M50.2710037,50.2140846l-0.6605949-0.3831367l-0.0989723,0.7161064
		c-0.0263977,0.1909752,0.1107254,0.3720779,0.3017006,0.3984718s0.3720779-0.1107254,0.3984718-0.3017006L50.2710037,50.2140846z"
		/>
	<path class="st11" d="M97.0618896,127.4816208l-7.7259598,1.3923874l-1.205574,0.2122498l-14.5605164-23.00811l-2.657402-4.1940994
		c0,0-1.9102707-0.3481293-4.5506744-0.806572c-5.7223053-1.0103226-14.8661461-2.6064606-15.409523-2.6149597l1.8508339-7.7514496
		l8.0995712-0.6707001l-0.0764313,1.4178314l-0.0084991,0.1358719l3.2602119,0.4669418l2.2923355,0.3226242l9.1862793,1.2989578
		c2.1055222,0.2971878,3.463913,0.9848785,4.6101074,2.2328949c0.441452,0.4584961,0.8490067,1.0018234,1.2480164,1.6385803
		c0.390564,0.5943146,0.7726288,1.2735138,1.1801376,2.0376434l0.5348816,1.0357666L97.0618896,127.4816208z"/>
	<path class="st13" d="M78.1714478,105.7894669c0,0,1.3244553-6.427002-0.9338837-7.5646439
		c0,0,1.4178238-1.1291962,2.9290848-2.3093338c0.441452,0.4584961,0.8490067,1.0018234,1.2480164,1.6385803
		c0.390564,0.5943146,0.7726288,1.2735138,1.1801376,2.0376434l0.5348816,1.0357666L78.1714478,105.7894669z"/>
	<polygon class="st12" points="89.3323898,128.8771667 88.1267624,129.0894165 73.5662994,106.0813065 76.4274521,106.0813065 	"/>
	<path class="st11" d="M77.2375641,102.4613647l-1.3584442,6.0703812l-0.0084534,0.0254898l-5.2978516,23.7042999
		l-7.5900879-1.740448l-1.2820091-0.2971344l5.6204338-24.103363l-19.3913803-1.9357681
		c-1.2310715-0.2206955-2.3687134-0.7386322-3.3365974-1.5112076c-0.6112595-0.4839401-1.1546364-1.0697556-1.6046371-1.7489548
		c-0.5858192-0.891449-0.9593849-1.8932724-1.1121979-2.9120941c-0.0678825-0.3905563-0.09338-0.764122-0.09338-1.154686
		c0-0.6197586,0.0764351-1.2395172,0.2377472-1.8508301l0.5263824-2.03759l-0.0169983-2.3008347l1.4263306,0.0084991
		l3.7865944,0.0169983l5.0600586,0.0169449l-0.0509377,2.2243958l2.3432693,0.3396225l2.3857117,0.3480759l5.1789818,0.7471313
		l2.0036507,0.288681l6.6307526,0.9593887c0.0933762,0.0169907,0.1867599,0.0339355,0.2716904,0.0509338
		c1.7743988,0.3226318,3.2856598,1.307457,4.3044739,2.6913452c0.0594406,0.0679321,0.1018829,0.1358719,0.1528168,0.2037506
		c0.2037582,0.2971878,0.3820648,0.6113129,0.5433807,0.9424438c0.2291946,0.4923859,0.4075089,1.0103149,0.5178833,1.5536423
		C77.1866226,101.5104828,77.2375641,101.9859238,77.2375641,102.4613647z"/>
	<path class="st12" d="M75.8706665,98.3606415c0,0-7.4967575,3.5064087-14.3397636-0.7046967
		c-2.0970764-1.290451-3.3365936-2.6998367-4.0497856-4.0327835l5.1789818,0.7471313l2.0036507,0.288681l6.6307526,0.9593887
		c0.0933762,0.0169907,0.1867599,0.0339355,0.2716904,0.0509338C73.3405914,95.9919281,74.8518524,96.9767532,75.8706665,98.3606415
		z"/>
	<path class="st13" d="M77.2375641,102.4613647l-1.3584442,6.0703812l-0.0084534,0.0254898l-7.9806976,9.3645935
		l2.0800781-13.5586929l-1.9527054-1.2055817l8.0061417-4.5931625c0.2037582,0.2971878,0.3820648,0.6113129,0.5433807,0.9424438
		c0.2291946,0.4923859,0.4075089,1.0103149,0.5178833,1.5536423
		C77.1866226,101.5104828,77.2375641,101.9859238,77.2375641,102.4613647z"/>
	<path class="st12" d="M68.1373978,106.1891022l-5.1582603,24.335144l-1.2819595-0.2971344l5.6204338-24.103363
		l-19.3913803-1.9357147c-1.2310715-0.2207489-2.3687134-0.7386856-3.3365936-1.511261
		c-0.6113129-0.4839401-1.1546402-1.0697556-1.604641-1.7489548c-0.5858154-0.891449-0.9593811-1.8932724-1.1121979-2.9120941
		c-0.0679359-0.390564-0.09338-0.7641296-0.09338-1.1546402c0-0.619812,0.0763817-1.2395706,0.2376976-1.8508301
		l0.5263786-2.0376434l-0.0169449-2.300827l1.4263306,0.0084991l0.4415016,2.2923279l-0.0838051,2.755928
		c-0.071888,2.364006,1.5223579,4.4550552,3.8210106,5.0117264l19.3500023,4.4225616
		C67.9437561,105.2684555,68.2357025,105.7253265,68.1373978,106.1891022z"/>
	<path class="st53" d="M49.6801643,88.2635117c-0.0614662-0.0102386-0.1329269-0.0102386-0.2046394-0.0102386h0.194397
		L49.6801643,88.2635117z"/>
	<polygon class="st47" points="77.4426498,140.3019714 77.3626709,142 60.6389618,140.5982971 60.5675278,139.5072021 	"/>
	<line class="st85" x1="67.3204651" y1="106.1260681" x2="68.7159042" y2="105.0411987"/>
	<rect x="58.5382652" y="88.9684143" class="st47" width="5.832768" height="2.3614094"/>
	<path class="st47" d="M79.7636948,90.4469757c-0.0763779,4.9497299-4.1431656,8.9060898-9.0928421,8.8382034
		c-4.9497375-0.0764313-8.9061432-4.1431656-8.8297119-9.0928955c0.0679359-4.9497375,4.1346664-8.9060898,9.084404-8.8296585
		h1.120697c0,0-0.0509415,0.025444-0.1358719,0.0678864C76.393158,81.9823837,79.8231354,85.8283691,79.7636948,90.4469757z"/>
	<circle class="st54" cx="71.9198532" cy="90.3205109" r="8.9628429"/>
	<path class="st34" d="M79.7467499,90.3196564c0,4.3214188-3.5064087,7.8278351-7.8278809,7.8278351
		c-0.1867599,0-0.3735657-0.0084991-0.5603256-0.025444c-4.0582809-0.2801895-7.2675095-3.6677246-7.2675095-7.8023911
		s3.2092285-7.5222549,7.2675095-7.8023911c0.1867599-0.0169983,0.3735657-0.0254974,0.5603256-0.0254974
		C76.2403412,82.4917679,79.7467499,85.9981766,79.7467499,90.3196564z"/>
	<ellipse class="st6" cx="71.3585434" cy="90.3196564" rx="7.2675104" ry="7.8023896"/>
	<circle class="st11" cx="71.9198456" cy="90.1495056" r="1.1830193"/>
	<path class="st20" d="M78.1272812,89.8864746h-1.5948563c0-2.5433655-2.0691147-4.6128693-4.6124802-4.6128693v-1.5948639
		C75.3425064,83.6787415,78.1272812,86.4635162,78.1272812,89.8864746z"/>
	<path class="st15" d="M67.3070755,89.8864746h-1.5948639c0-3.4229584,2.7847748-6.2077332,6.2077332-6.2077332v1.5948639
		C69.3765717,85.2736053,67.3070755,87.3431091,67.3070755,89.8864746z"/>
	<path class="st54" d="M60.3563538,87.77771v5.0855484c0,0.7810745-0.6282578,1.4093857-1.4092789,1.4093857
		c-0.7727318,0-1.4094849-0.6283112-1.4094849-1.4093857V87.77771c0-0.7725754,0.6367531-1.4093323,1.4094849-1.4093323
		C59.728096,86.3683777,60.3563538,87.0051346,60.3563538,87.77771z"/>
	<g>
		<path class="st11" d="M71.442627,89.9637299l4.4214478-4.6626282l-3.6444702,5.2921677
			c-0.1571045,0.2281189-0.4693604,0.2856979-0.6975098,0.1286011s-0.2857056-0.4693756-0.1286011-0.6975021
			C71.407959,90.0033722,71.4257202,89.9818039,71.442627,89.9637299z"/>
	</g>
	<path class="st1" d="M61.9915581,89.9315948l-1.0832367,3.5431671c-0.1003075,0.3251419-0.4440422,0.5222778-0.7715988,0.4481125
		c-0.1292915-0.0295258-0.2672195-0.0597916-0.4235191-0.0830002l0.0697174-1.9031067l-0.5045433,1.370285
		c-0.0931816,0.246582-0.3448601,0.3993988-0.6144905,0.3657532c-0.8851891-0.1343384-1.8584213-0.2679749-2.4159508-0.4249191
		c-0.3188171-0.07341-0.5828209-0.2648697-0.7792549-0.5205688l-0.8758659-1.1894226l-1.1117401-1.7830963l-8.100193-0.2358322
		l-2.9224205-0.0843887c-1.1669846-0.0370941-2.3242149-0.1789246-3.462265-0.4333344l-3.3358612-0.756073
		c-1.1982803-0.2687683-2.2104073-1.0307693-2.8263931-2.0818634c-0.5897865-1.0486755-0.7398758-2.2855911-0.386219-3.4497833
		l2.2993126-7.4789429l0.7055855-2.3108826l7.0511475,1.8814774l-0.0757141,0.2481918l-0.7796936,2.5416565l-1.4933128,4.8429337
		l21.4090271,6.6887054C61.9066887,89.2285843,62.0934753,89.5889816,61.9915581,89.9315948z"/>
	<path class="st80" d="M53.4810753,89.7547989l-8.100193-0.2358322l-2.9224205-0.0843887
		c-1.1669846-0.0370941-2.3242149-0.1789246-3.462265-0.4333344l-3.3358612-0.756073
		c-1.1982803-0.2687683-2.2104073-1.0307693-2.8263931-2.0818634c-0.5897865-1.0486755-0.7398758-2.2855911-0.386219-3.4497833
		l2.2993126-7.4789429c2.5053253-0.0683746,5.5398941-0.1496506,7.6810188-0.1812134l-0.7796936,2.5416565l-6.0861168-0.798233
		l-1.5490608,6.9563065c-0.201149,0.9033051,0.2358665,1.8280106,1.0614853,2.2460556l3.8396568,1.9441986
		c0.2133789,0.1080475,0.4442177,0.1774216,0.6818085,0.2049103L53.4810753,89.7547989z"/>
	<path class="st7" d="M46.3475723,66.9816589c-0.032711,0.3012466-0.0907555,0.6048126-0.182663,0.9113617l-2.0717239,6.280159
		l-0.7981339,2.4155502l-0.449276,1.3614349l-3.0748901-0.9266205l-5.7463951-1.7274323l3.3183746-10.0656052
		c0.7458839-2.4279404,3.3074379-3.8079605,5.7422791-3.0797615c1.3238373,0.4099808,2.3272095,1.3345261,2.8667336,2.5051613
		C46.2706566,65.3604736,46.4193993,66.1654358,46.3475723,66.9816589z"/>
	<line class="st84" x1="40.1550484" y1="82.4379578" x2="37.927742" y2="83.1382523"/>
	<path class="st5" d="M56.9642029,53.9153519c-0.05233-0.0263443-0.10466-0.0526848-0.1668243-0.0770874
		c-0.5149689-0.1965904-1.0510445-0.0228004-1.5048065,0.2497253c-0.1694565,0.0961342-0.324707,0.2105408-0.459938,0.3208771
		c-0.0040474,0.0060349-0.0141296,0.0080223-0.018177,0.0140572s-0.0141296,0.0080223-0.018177,0.014061
		c-0.1271362,0.0982628-0.2420578,0.2047195-0.3510895,0.3151245c-0.0303192,0.0321617-0.056591,0.0582924-0.0868111,0.0903091
		c-0.026268,0.0261307-0.0626221,0.0542488-0.0808716,0.0945053c-0.008091,0.0120697-0.0101509,0.0281906-0.0021286,0.0423203
		c-0.0020599,0.0161171,0.0098648,0.0241127,0.0121002,0.0341454c0.0279694,0.0362549,0.0762215,0.0425797,0.116581,0.0606804
		c0.0280876,0.0102997,0.0663605,0.0184631,0.0944023,0.0285187c0.0785294,0.026413,0.1569099,0.0527267,0.2354393,0.0791397
		c0.0946465,0.0284729,0.1891479,0.0568428,0.2795029,0.0914001c0.1067162,0.0365639,0.2072525,0.068985,0.3079338,0.1015053
		c0.1106186,0.0304298,0.2112999,0.0629501,0.3177719,0.0995636c0.1006813,0.0325203,0.2012177,0.0649414,0.3017502,0.0973587
		c0.0946503,0.0284729,0.1851006,0.0628815,0.2796516,0.0914993c0.0784798,0.0261688,0.1569099,0.0527267,0.2354393,0.0791397
		c0.0663109,0.018219,0.1226883,0.0385246,0.1790657,0.0588341c0.0381241,0.0080643,0.0663109,0.018219,0.1005325,0.0324173
		c0,0,0,0,0.0060387,0.0040474c0.0221519,0.0061073,0.128624,0.0427208,0.2332039,0.0691071
		c0.10672,0.0365639,0.2072525,0.068985,0.2072525,0.068985C57.4542122,55.8173027,57.9756126,54.4535942,56.9642029,53.9153519z"/>
	<path class="st6" d="M56.9747925,55.906601l0.1259804-0.3963013c0.0588303-0.1790657-0.0433655-0.3786201-0.222332-0.4375992
		l-2.0458069-0.6638336c-0.0040474,0.0060349-0.0141296,0.0080223-0.018177,0.0140572s-0.0141296,0.0080223-0.018177,0.014061
		c-0.1271362,0.0982628-0.2420578,0.2047195-0.3510895,0.3151245c-0.0303192,0.0321617-0.056591,0.0582924-0.0868111,0.0903091
		c-0.026268,0.0261307-0.0626221,0.0542488-0.0808716,0.0945053c-0.008091,0.0120697-0.0101509,0.0281906-0.0021286,0.0423203
		c-0.0020599,0.0161171,0.0098648,0.0241127,0.0121002,0.0341454c0.0279694,0.0362549,0.0762215,0.0425797,0.116581,0.0606804
		c0.0280876,0.0102997,0.0663605,0.0184631,0.0944023,0.0285187c0.0785294,0.026413,0.1569099,0.0527267,0.2354393,0.0791397
		c0.0946465,0.0284729,0.1891479,0.0568428,0.2795029,0.0914001c0.1067162,0.0365639,0.2072525,0.068985,0.3079338,0.1015053
		c0.1106186,0.0304298,0.2112999,0.0629501,0.3177719,0.0995636c0.1006813,0.0325203,0.2012177,0.0649414,0.3017502,0.0973587
		c0.0946503,0.0284729,0.1851006,0.0628815,0.2796516,0.0914993c0.0784798,0.0261688,0.1569099,0.0527267,0.2354393,0.0791397
		c0.0663109,0.018219,0.1226883,0.0385246,0.1790657,0.0588341c0.0381241,0.0080643,0.0663109,0.018219,0.1005325,0.0324173
		c0,0,0,0,0.0060387,0.0040474C56.7637405,55.8436012,56.8702126,55.8802147,56.9747925,55.906601z"/>
	<path class="st21" d="M96.9747925,60.5671158c-0.1385345,0.1258163-2.9211502,2.7393227-2.9211502,2.7393227
		s1.747551-0.8591385,4.3620605,0.9296684c2.6145096,1.7888107,3.3781738-0.5448952,3.3781738-0.5448952l-2.8416901-5.0178185"/>
	
		<ellipse transform="matrix(0.2842287 -0.9587565 0.9587565 0.2842287 12.2643394 113.8976212)" class="st21" cx="82.4135818" cy="48.7349319" rx="6.961731" ry="4.1134915"/>
	<path class="st21" d="M86.5413742,27.5309296c0.8984909-0.0749416,1.8143463-0.154007,2.645401-0.5036526
		s1.5783691-1.021471,1.7816849-1.8998585c0.0821381-0.3548717,0.0726471-0.7255058,0.023941-1.0864887
		c-0.1492996-1.1066132-0.6600723-2.1395378-1.3145142-3.0442963c-1.2743301-1.7617111-3.0012436-3.3469734-4.9156342-4.3823967
		c-0.1853485,2.7627697-0.3892746,5.5244408-0.2229843,8.2884235"/>
	<path class="st23" d="M87.1239471,24.383358c0.0180283,0.6492062,0.2511597,2.4445972-0.3766861,2.8661861
		c-0.6638489,0.4457722-2.1166534-0.342907-2.6758041-0.6939373c-0.8625946-0.5415287-2.3677826-1.5583458-2.1120377-2.7236824
		c0.0845566-0.3852577,0.2802124-0.735321,0.4655991-1.0834618c1.0318375-1.9376335,1.817337-4.0062809,2.3316193-6.1404362
		c0.9287109,1.0265484,1.5266495,2.3208923,1.8740158,3.6609039C86.9780197,21.6089439,87.08564,22.9995842,87.1239471,24.383358z"
		/>
	<path class="st21" d="M127.3424606,47.9685326c-0.1612625,0.5433235-0.3399353,1.0697594-0.5604782,1.5706444
		c-2.3687668,5.8241844-7.8703232,9.9164124-14.7046738,11.5719872c-5.0007782,1.2055779-10.7062988,1.0952034-16.420105-0.5943146
		c-7.1485825-2.1225204-12.9386749-6.3335686-16.5046768-11.410675c-3.5063019-5.0091209-4.8560944-10.8503036-3.2177734-16.3773537
		c1.6300278-5.4931126,5.892067-9.6447258,11.5043106-11.9285603c2.5043259-1.027319,5.2806015-1.689518,8.2098465-1.918766
		c3.8118362-0.3141289,7.8956146,0.0763817,11.9710999,1.2905083c10.1793976,3.0224686,17.5999298,10.2644825,19.76474,18.2366848
		C128.2424622,41.5500298,128.2760468,44.8101921,127.3424606,47.9685326z"/>
	<path class="st23" d="M127.3847504,38.4086876c-5.1873245,7.6070824-10.9351349,16.1651039-15.3074417,22.7024765
		c-5.0007782,1.2055779-10.7062988,1.0952034-16.420105-0.5943146c-7.1485825-2.1225204-12.9386749-6.3335686-16.5046768-11.410675
		c4.856514-8.8890953,11.9623947-21.8874111,16.4963837-30.2246799c3.8118362-0.3141289,7.8956146,0.0763817,11.9710999,1.2905083
		C117.799408,23.1944714,125.2199402,30.4364853,127.3847504,38.4086876z"/>
	<path class="st23" d="M95.9340439,57.9369087c-1.0924759,3.6851273-4.0110321,6.0722771-6.5220261,5.327877
		c-2.5019608-0.7417183-3.6479263-4.3338165-2.5554504-8.0189438c0.5944672-2.005249,1.7325211-3.6232452,3.0514755-4.5587311
		l0.2206802,2.669239c0,0,2.4371033,0.7618332,6.2135849,1.3802528
		C96.38797,55.7425842,96.2607422,56.8348885,95.9340439,57.9369087z"/>
	<path class="st33" d="M95.9364166,57.9355927c-1.0928116,3.6862831-4.0117111,6.0719147-6.5195389,5.3284569
		c-2.5078278-0.7434616-3.6549149-4.3344765-2.5620956-8.0207558c0.1057281-0.356636,0.2285461-0.7010994,0.3664322-1.0317307"/>
	<path class="st21" d="M116.933403,60.2451591c-0.5347748,3.8035927-3.0818024,6.5883141-5.6711121,6.2147484
		c-0.8154297-0.1188736-1.5367508-0.5348816-2.1312256-1.1716385c-1.2822189-1.3753853-1.9442596-3.7780952-1.5707474-6.3930016
		c0.1869659-1.2905121,0.6027603-2.4621468,1.1715317-3.430027c2.3264847-0.1273232,4.7292404-0.441452,7.1232986-1.0103226
		c0.1019821,0.1528664,0.1952515,0.3056793,0.2889404,0.475441
		C116.8994141,56.3227463,117.2306366,58.2160683,116.933403,60.2451591z"/>
	<path class="st23" d="M116.1440887,54.9303589c-2.5980148,3.8290367-5.0940475,7.4967575-7.0130234,10.3579102
		c-1.2822189-1.3753853-1.9442596-3.7780952-1.5707474-6.3930016c0.1869659-1.2905121,0.6027603-2.4621468,1.1715317-3.430027
		c2.3264847-0.1273232,4.7292404-0.441452,7.1232986-1.0103226
		C115.9571304,54.6077843,116.0503998,54.7605972,116.1440887,54.9303589z"/>
	<path class="st33" d="M116.8439178,56.8724785c0.2215347,1.0292969,0.266304,2.1791992,0.0954056,3.3701782
		c-0.5461273,3.8058739-3.0877991,6.5899544-5.6769867,6.2184181c-2.58918-0.3715363-4.2454071-3.7579994-3.6992798-7.5638733
		c0.0796204-0.5548897,0.2016678-1.0880585,0.3600922-1.5928955"/>
	<path class="st20" d="M96.7339478,32.3739929c0.8631516,0.2605324,1.8855972,0.4513779,2.7869873,0.4316444
		c0.9013977-0.0197372,1.8433228-0.3698769,2.3552475-1.1120605c0.2068176-0.2998447,0.3342056-0.6480274,0.4215851-1.001646
		c0.267868-1.0840359,0.1724854-2.2323895-0.1036224-3.3143539c-0.5376511-2.1067696-1.7834396-3.976984-3.1832809-5.6435394
		c-1.1877899,2.5012836-2.1700821,4.7559185-3.0312881,7.3875675"/>
	
		<ellipse transform="matrix(0.552971 -0.8332005 0.8332005 0.552971 12.9814587 85.586113)" class="st35" cx="86.2510986" cy="30.6952324" rx="1.4213425" ry="1.1953331"/>
	
		<ellipse transform="matrix(0.552971 -0.8332005 0.8332005 0.552971 13.5867786 80.0140915)" class="st35" cx="81.3610153" cy="27.3451023" rx="1.4213425" ry="1.1953331"/>
	<path class="st21" d="M98.3547821,29.8352394c-0.2218399,0.6103954-0.6648941,2.3658066-1.4037399,2.5271378
		c-0.7812271,0.1705856-1.8424835-1.0968475-2.2334824-1.6288185c-0.6031952-0.8206596-1.6293182-2.3195171-0.9631729-3.3092976
		c0.2202377-0.3272152,0.5308533-0.5808697,0.8312225-0.836504c1.6717682-1.4227848,3.1625824-3.057951,4.4252548-4.8537197
		c0.486412,1.296032,0.5667877,2.7195473,0.3973389,4.093441C99.2387619,27.2013721,98.8277435,28.5342388,98.3547821,29.8352394z"
		/>
	<path class="st34" d="M114.7227249,25.7157364l-0.0304489,0.0695381c-0.0508881,0.1716709-0.14431,0.3208981-0.250412,0.4465733
		c-0.4412766,0.5275707-1.2511444,0.6412067-1.8562622,0.1964931c-3.0989532-2.2747059-6.6482468-3.4940014-10.6721497-3.576437
		c-0.6831818-0.0158958-1.1955643-0.5411892-1.2851639-1.1671276c-0.0277176-0.2046909-0.0139923-0.4168873,0.056633-0.6219311
		l0.0331345-0.0785789c0.1894531-0.5727177,0.7368622-0.9606342,1.3433151-0.9185467
		c4.5344086,0.2830772,8.5696869,1.6857891,12.1537704,4.1140289
		C114.7150955,24.5147209,114.9095078,25.1520596,114.7227249,25.7157364z"/>
	<path class="st47" d="M114.441864,26.2318478c-0.4412766,0.5275707-1.2511444,0.6412067-1.8562622,0.1964931
		c-0.0488892-0.0341644-0.0887299-0.065649-0.137619-0.0998116c-0.388031-0.2820015-0.781395-0.54603-1.1891556-0.7946568
		c-0.091301-0.0565739-0.1916428-0.1158276-0.2856522-0.16325c-0.149231-0.0934181-0.3101044-0.1803322-0.4592209-0.2737179
		c-1.5974274-0.8764687-3.2994232-1.4989433-5.1179276-1.8611259l-0.0090408-0.0026798
		c-0.5644302-0.1182728-1.1457596-0.2119255-1.7470398-0.2722683c-0.4964676-0.0489445-1.0045395-0.0914936-1.5234528-0.0979118
		c-0.0658569-0.0096874-0.1345062-0.0103683-0.2030411-0.0110149c-0.6831818-0.0158958-1.1955643-0.5411892-1.2851639-1.1671276
		c0.260704-0.3157806,0.6598053-0.5020123,1.0956955-0.4809818c0.0090408,0.0026798,0.0298004-0.0010014,0.0388412,0.0016804
		c0.5496826,0.0353317,1.093956,0.0884914,1.6328354,0.1598454c0.5209122,0.0660248,1.0455322,0.1527023,1.5582886,0.2458172
		c0.8731842,0.1704578,1.7328796,0.3859787,2.5674591,0.6530666c0.0750122,0.0124016,0.138298,0.0311623,0.20784,0.0616131
		l0.1535873,0.0455322c0.385643,0.1241627,0.7686081,0.2573662,1.1490021,0.3996429
		c0.0514908,0.0249805,0.1030579,0.0501041,0.1663437,0.0688648c0.1481171,0.0635815,0.2990265,0.1181545,0.4536514,0.1933804
		c0.0631714,0.0187302,0.1236725,0.0464993,0.1842804,0.0743027c0.6985016,0.2955971,1.3862076,0.6272144,2.0605087,1.0040379
		c0.1700211,0.0896263,0.3400497,0.1792545,0.5072479,0.2779999c0.0063553,0.0117207,0.0244446,0.0170822,0.0425262,0.0224419
		c0.4438095,0.2593155,0.8733368,0.5340652,1.3064651,0.8294353c0.0425262,0.0224419,0.0850525,0.0448856,0.1248932,0.0763683
		C114.1977539,25.5307178,114.3911362,25.872921,114.441864,26.2318478z"/>
	<path class="st20" d="M80.8068314,36.2872543c-1.0985947,2.5447006-3.2380676,4.0664215-4.7753677,3.4029045l-0.2425003-0.1238136
		l-2.3630981-1.2071037l1.3488617-3.1263275l0.0053177-0.0179291c0.103508-0.4368629,0.255928-0.8852272,0.4477463-1.3349152
		c0.1916733-0.4497299,0.4199982-0.8690948,0.6674271-1.2437897l0.0112915-0.0161552l1.4968872-3.4721489l2.6057434,1.3309612
		C81.5445251,31.148386,81.9036331,33.7486038,80.8068314,36.2872543z"/>
	
		<ellipse transform="matrix(0.3964798 -0.9180434 0.9180434 0.3964798 14.5268459 89.6025314)" class="st23" cx="75.4127655" cy="33.7525253" rx="5.0142703" ry="3.0385542"/>
	
		<ellipse transform="matrix(0.3964798 -0.9180434 0.9180434 0.3964798 14.3157501 88.0617752)" class="st35" cx="74.1353607" cy="33.142704" rx="1.0537211" ry="0.7530687"/>
	
		<ellipse transform="matrix(0.3964798 -0.9180434 0.9180434 0.3964798 14.6522827 90.8597183)" class="st35" cx="76.4316711" cy="34.2857132" rx="1.0537211" ry="0.7530687"/>
	<g>
		<path class="st14" d="M102.742836,18.9102764c0.6594315-2.1401672,2.3215561-3.6943474,4.3122253-4.310358
			c0.1654892-0.0500269,0.3346252-0.0931358,0.5055237-0.1328287c0.7655716-0.171032,1.5691605-0.2033558,2.3770599-0.0814037
			c-0.0089188-0.0460453-0.0158157-0.0799112-0.0158157-0.0799112l0.8821564,0.2747021l0.1818466,0.0560303
			c0.0271988,0.0054913,0.0553436,0.0170507,0.0809097,0.0278187c1.040062,0.3522053,1.9365387,0.9458694,2.645462,1.6982059
			c0.1198654,0.1263943,0.2327042,0.2563858,0.3405228,0.3935127c0.4732437,0.5902367,0.8410645,1.2605495,1.0858994,1.9737759
			c0.0363922,0.1064358,0.0676346,0.2113018,0.0980606,0.3188057c0.1582565,0.5537949,0.2438431,1.1284771,0.2477036,1.7155132
			c0.0021591,0.0959034,0.0017395,0.1909981-0.0047684,0.2871208c-0.0152054,0.517662-0.0957642,1.0411682-0.2451935,1.5636406
			c-0.0104141,0.0429554-0.0242233,0.0877743-0.0380325,0.132576c-0.0138016,0.0448017-0.0268021,0.0869808-0.0431747,0.130991
			c-0.1697311,0.5133457-0.395195,0.9921856-0.6739731,1.4286366c-0.0512924,0.082325-0.1018982,0.1619701-0.1576538,0.2400131
			c-0.33358,0.4830647-0.7276306,0.9099579-1.1702576,1.2786102c-0.0855255,0.0717754-0.1738815,0.1426792-0.2630539,0.2075367
			c-0.604599,0.4543896-1.2823792,0.7996387-2.0031738,1.0219879c-0.1662979,0.0526485-0.335434,0.0957565-0.5055237,0.1328297
			c-1.0666351,0.2398605-2.2092896,0.2110043-3.3294525-0.13414c-0.0368042-0.0113411-0.0737381-0.0227222-0.1098633-0.0367413
			c-0.0008087,0.0026379-0.0008087,0.0026379-0.0008087,0.0026379l-0.7037048-0.2168255l-0.0032425-0.0644798
			c-0.7732315-0.3565807-1.4493027-0.8505936-2.0072479-1.4467278c-0.1197357-0.1263714-0.2326965-0.2564011-0.3405228-0.3935127
			C102.5817795,23.2731876,102.0834045,21.0504417,102.742836,18.9102764z"/>
		<g>
			<g>
				<path class="st15" d="M103.8847427,24.8982925l7.0003662,2.1569595
					c-0.1662979,0.0526485-0.335434,0.0957565-0.5055237,0.1328297l-6.1543198-1.8962765
					C104.1055298,25.1654339,103.992569,25.0354042,103.8847427,24.8982925z"/>
			</g>
			<g>
				<path class="st15" d="M103.9033127,23.2648087l0.0812073-0.2635689l9.1668167,2.8244877
					c-0.0855255,0.0717754-0.1738815,0.1426792-0.2630539,0.2075367L103.9033127,23.2648087z"/>
			</g>
			<g>
				<path class="st15" d="M104.4457932,21.504179l0.0812149-0.263567l9.95224,3.0664921
					c-0.0512924,0.082325-0.1018982,0.1619701-0.1576538,0.2400131L104.4457932,21.504179z"/>
			</g>
			<g>
				<path class="st15" d="M104.9874649,19.7461891l0.0812149-0.263567l10.1657486,3.1322784
					c-0.0104141,0.0429554-0.0242233,0.0877743-0.0380325,0.132576c-0.0138016,0.0448017-0.0268021,0.0869808-0.0431747,0.130991
					L104.9874649,19.7461891z"/>
			</g>
			<g>
				<path class="st15" d="M105.529953,17.9855614l0.0812149-0.2635689l9.8732224,3.0421467
					c0.0021591,0.0959034,0.0017395,0.1909981-0.0047684,0.2871208L105.529953,17.9855614z"/>
			</g>
			<g>
				<path class="st15" d="M106.0724411,16.2249317l0.0812073-0.263567l8.9849777,2.7684555
					c0.0363922,0.1064358,0.0676346,0.2113018,0.0980606,0.3188057L106.0724411,16.2249317z"/>
			</g>
			<g>
				<path class="st15" d="M107.0550613,14.5999184c0.1654892-0.0500269,0.3346252-0.0931358,0.5055237-0.1328287l6.151619,1.895442
					c0.1198654,0.1263943,0.2327042,0.2563858,0.3405228,0.3935127L107.0550613,14.5999184z"/>
			</g>
		</g>
		<path class="st15" d="M110.8055115,14.5796118c0.0271912,0.0054903,0.0561523,0.0144119,0.0825348,0.022541
			c0.0342331,0.0105486,0.0658875,0.0203028,0.0993118,0.0334892L110.8055115,14.5796118z"/>
		<circle class="st15" cx="107.9601364" cy="20.5165787" r="6.5148454"/>
		<circle class="st16" cx="107.9601364" cy="20.5165787" r="5.5842643"/>
		<path class="st15" d="M110.9873581,14.6356421l0.0817184,0.0251799l-0.0008087,0.0026379
			C111.0426941,14.6526928,111.0145493,14.6411324,110.9873581,14.6356421z"/>
		<path class="st14" d="M109.46978,22.4906464c-0.2452469,0.7959442-1.0278778,1.3686066-2.1199875,1.2225399l-0.3232117,1.0489769
			l-0.6323776-0.194849l0.3134613-1.0173531c-0.5817795-0.1907768-1.1313095-0.5621243-1.4081039-0.9186554l0.218399-0.2963181
			c-0.0998383-0.0884628-0.2048187-0.178545-0.2048187-0.178545l0.1012192-0.2342834l0.3371658,0.1038876
			c0.2892227,0.3545856,0.7508392,0.7103634,1.3147583,0.8841171c0.7170563,0.2209415,1.3302612-0.0460567,1.5072937-0.6206226
			c0.1705322-0.5534611-0.1192398-1.0178738-0.7699661-1.5473595c-0.9029083-0.7226257-1.3977737-1.3830013-1.1281662-2.2579918
			c0.2582397-0.8381195,1.0489731-1.2870712,2.0236588-1.1541119l0.3134613-1.0173206l0.6272278,0.1932621l-0.3004608,0.9751434
			c0.5944748,0.2062778,0.9605637,0.4979954,1.19841,0.7559376l-0.4576416,0.5862103l-0.3320236-0.1023006l0.0273361-0.1820126
			c-0.1991272-0.1595001-0.4751358-0.3310947-0.8599167-0.4496536c-0.7749634-0.2387829-1.2077026,0.1357822-1.3327484,0.5416355
			c-0.1607895,0.5218353,0.1268234,0.8990326,0.8949966,1.5339603
			C109.3863297,20.9066448,109.7458725,21.5945835,109.46978,22.4906464z"/>
		<path class="st17" d="M106.0557632,24.4619999l0.3137054-1.0181389c-0.5815659-0.1902313-1.1304932-0.5580425-1.4056625-0.9187698
			l0.4500351-0.600853c0.2883606,0.3537502,0.7535324,0.7067966,1.3180466,0.8807335
			c0.7157211,0.2205296,1.3269424-0.0436859,1.5039825-0.6182785c0.1708298-0.5544319-0.1167068-1.0183086-0.7694855-1.5505733
			c-0.9039764-0.7200394-1.3961792-1.379425-1.1259537-2.2564373c0.2578049-0.836689,1.048233-1.2885094,2.0222397-1.1539631
			l0.3137131-1.0181389l0.6249924,0.1925735l-0.3012848,0.9778175c0.5986252,0.2065239,0.9622345,0.4951611,1.201767,0.7566051
			l-0.457016,0.5876694c-0.1744156-0.1861954-0.5193863-0.5353146-1.1645432-0.7341022
			c-0.776207-0.2391644-1.2114258,0.1344681-1.3356628,0.5376911c-0.1615143,0.5241909,0.1307068,0.9012089,0.8959045,1.5343361
			c0.9078445,0.7433071,1.2705231,1.4290104,0.9940872,2.3261833c-0.2453842,0.7963657-1.0296631,1.3714981-2.1207657,1.2229462
			l-0.3230286,1.0483799L106.0557632,24.4619999z"/>
	</g>
	<path class="st23" d="M113.2915802,26.698246c-0.2440262-0.022171-0.4882584-0.1098976-0.7059784-0.2699051
		c-3.0989532-2.2747059-6.6482468-3.4940014-10.6721497-3.576437c-0.4785156-0.0111332-0.8732376-0.2721691-1.09758-0.6426544
		c0.1061859,1.1073608,0.5509109,2.2942181,1.1232071,3.2481575c1.1607513,1.9348125,3.0330124,3.4730797,5.2148819,4.0478115
		c2.1818619,0.5747299,4.6525726,0.1189251,6.3692551-1.3452568c0.1073914-0.0915909,0.2149811-0.1912098,0.2692337-0.3215084
		c0.0797348-0.1915035,0.026535-0.4194489-0.0935211-0.5886154
		C113.5788651,27.0806694,113.4981689,26.7170162,113.2915802,26.698246z"/>
</g>
</svg>
