<?xml version="1.0" encoding="utf-8"?>
<!-- Generator: Adobe Illustrator 22.0.1, SVG Export Plug-In . SVG Version: 6.00 Build 0)  -->
<svg version="1.1" id="Layer_1" xmlns="http://www.w3.org/2000/svg" xmlns:xlink="http://www.w3.org/1999/xlink" x="0px" y="0px"
	 viewBox="0 0 156 156" style="enable-background:new 0 0 156 156;" xml:space="preserve">
<style type="text/css">
	.st0{fill:#FFD9B2;}
	.st1{fill:#F7AC76;}
	.st2{fill:none;stroke:#3643C3;stroke-width:0.5;stroke-linecap:round;stroke-linejoin:round;stroke-miterlimit:10;}
	.st3{fill:#233764;}
	.st4{fill:none;stroke:#F7AC76;stroke-width:0.5;stroke-linecap:round;stroke-linejoin:round;stroke-miterlimit:10;}
	.st5{fill:#161718;}
	.st6{fill:#FFFFFF;}
	.st7{fill:#F06449;}
	.st8{fill:#BE412D;}
	.st9{fill:#FE8E60;}
	.st10{fill:#7D4C47;}
	.st11{fill:#4456D6;}
	.st12{fill:#203881;}
	.st13{fill:#6582FC;}
	.st14{fill:#DDA103;}
	.st15{fill:#FBC32E;}
	.st16{fill:none;stroke:#DDA103;stroke-width:0.5;stroke-miterlimit:10;}
	.st17{fill:#FBE6BB;}
	.st18{fill:none;stroke:#BE412D;stroke-width:0.5;stroke-linecap:round;stroke-linejoin:round;stroke-miterlimit:10;}
	.st19{fill:none;stroke:#F06449;stroke-width:0.5;stroke-linecap:round;stroke-linejoin:round;stroke-miterlimit:10;}
	.st20{fill:#F34B4B;}
	.st21{fill:#FC7070;}
	.st22{fill:none;stroke:#FFFFFF;stroke-miterlimit:10;}
	.st23{fill:#FC9F9F;}
	.st24{fill:#408A6F;}
	.st25{fill:#64B48D;}
	.st26{fill:none;stroke:#FBE6BB;stroke-width:0.5;stroke-linecap:round;stroke-linejoin:round;stroke-miterlimit:10;}
	.st27{fill:none;stroke:#F7AC76;stroke-width:0.25;stroke-linecap:round;stroke-linejoin:round;stroke-miterlimit:10;}
	.st28{fill:#A0665A;}
	.st29{fill:#6C3F44;}
	.st30{fill:none;stroke:#6C3F44;stroke-width:0.5;stroke-linecap:round;stroke-linejoin:round;stroke-miterlimit:10;}
	.st31{fill:none;stroke:#7D4C47;stroke-width:0.5;stroke-linecap:round;stroke-linejoin:round;stroke-miterlimit:10;}
	.st32{fill:none;stroke:#F34B4B;stroke-width:0.5;stroke-linecap:round;stroke-linejoin:round;stroke-miterlimit:10;}
	.st33{fill:none;stroke:#FC7070;stroke-width:0.5;stroke-linecap:round;stroke-linejoin:round;stroke-miterlimit:10;}
	.st34{fill:#EAE8F3;}
	.st35{fill:#40304A;}
	.st36{fill:none;stroke:#43334E;stroke-linecap:round;stroke-linejoin:round;stroke-miterlimit:10;}
	.st37{fill:#32775B;}
	.st38{fill:none;stroke:#233764;stroke-width:0.5;stroke-linecap:round;stroke-linejoin:round;stroke-miterlimit:10;}
	.st39{fill:none;stroke:#408A6F;stroke-width:0.5;stroke-linecap:round;stroke-linejoin:round;stroke-miterlimit:10;}
	.st40{fill:#3643C3;}
	.st41{opacity:0.56;fill:url(#SVGID_1_);}
	.st42{opacity:0.52;fill:#FBC32E;}
	.st43{opacity:0.56;fill:url(#SVGID_2_);}
	.st44{fill:none;stroke:#EAE8F3;stroke-width:0.5;stroke-linecap:round;stroke-linejoin:round;stroke-miterlimit:10;}
	.st45{fill:#FEFFFD;}
	.st46{opacity:0.35;fill:#32775B;}
	.st47{fill:#43334E;}
	.st48{fill:none;stroke:#EAE8F3;stroke-width:0.25;stroke-linecap:round;stroke-linejoin:round;stroke-miterlimit:10;}
	.st49{fill:none;stroke:#FBC32E;stroke-width:0.5;stroke-linecap:round;stroke-linejoin:round;stroke-miterlimit:10;}
	.st50{fill:none;stroke:#161718;stroke-width:0.5;stroke-linecap:round;stroke-linejoin:round;stroke-miterlimit:10;}
	.st51{fill:none;stroke:#40304A;stroke-linecap:round;stroke-linejoin:round;stroke-miterlimit:10;}
	.st52{opacity:0.33;fill:#FBC32E;}
	.st53{fill:#A6A3AE;}
	.st54{fill:#5B4B68;}
	.st55{fill:#776688;}
	.st56{fill:none;stroke:#FBC32E;stroke-width:0.5;stroke-miterlimit:10;}
	.st57{fill:none;stroke:#EAE8F3;stroke-linecap:round;stroke-linejoin:round;stroke-miterlimit:10;}
	.st58{fill:none;stroke:#203881;stroke-width:2;stroke-linecap:round;stroke-linejoin:round;stroke-miterlimit:10;}
	.st59{fill:none;stroke:#40304A;stroke-width:2;stroke-linecap:round;stroke-linejoin:round;stroke-miterlimit:10;}
	.st60{fill:#FFD8B7;}
	.st61{fill:#F4E4D4;}
	.st62{fill:none;stroke:#4456D6;stroke-width:0.5;stroke-linecap:round;stroke-linejoin:round;stroke-miterlimit:10;}
	.st63{fill:none;stroke:#DDA103;stroke-width:0.25;stroke-miterlimit:10;}
	.st64{fill:none;stroke:#FFFFFF;stroke-width:0.5;stroke-linecap:round;stroke-linejoin:round;stroke-miterlimit:10;}
	.st65{fill:none;stroke:#64B48D;stroke-width:0.5;stroke-linecap:round;stroke-linejoin:round;stroke-miterlimit:10;}
	.st66{fill:none;stroke:#64B48D;stroke-linecap:round;stroke-linejoin:round;stroke-miterlimit:10;}
	.st67{opacity:0.48;fill:#64B48D;}
	.st68{fill:none;stroke:#64B48D;stroke-width:0.25;stroke-linecap:round;stroke-linejoin:round;stroke-miterlimit:10;}
	.st69{fill:none;stroke:#F06449;stroke-width:2;stroke-linecap:round;stroke-linejoin:round;stroke-miterlimit:10;}
	.st70{opacity:0.92;fill:#64B48D;}
	.st71{opacity:0.57;fill:#408A6F;}
	.st72{opacity:0.36;fill:#408A6F;}
	.st73{fill:none;stroke:#BE412D;stroke-width:2;stroke-linecap:round;stroke-linejoin:round;stroke-miterlimit:10;}
	.st74{opacity:0.65;fill:none;stroke:#408A6F;stroke-width:0.25;stroke-linecap:round;stroke-linejoin:round;stroke-miterlimit:10;}
	.st75{opacity:0.67;fill:none;stroke:#64B48D;stroke-width:0.25;stroke-linecap:round;stroke-linejoin:round;stroke-miterlimit:10;}
	.st76{opacity:0.98;fill:#64B48D;}
	.st77{fill:none;stroke:#408A6F;stroke-width:0.25;stroke-linecap:round;stroke-linejoin:round;stroke-miterlimit:10;}
	.st78{fill:none;stroke:#FFD9B2;stroke-width:0.5;stroke-linecap:round;stroke-linejoin:round;}
	
		.st79{fill:none;stroke:#FFD9B2;stroke-width:0.5;stroke-linecap:round;stroke-linejoin:round;stroke-dasharray:4.0333505,4.0333505;}
	.st80{fill:#E68B4A;}
	.st81{opacity:0.62;fill:#64B48D;}
	.st82{fill:none;stroke:#FBC32E;stroke-width:0.25;stroke-miterlimit:10;}
	.st83{fill:none;stroke:#4456D6;stroke-linecap:round;stroke-linejoin:round;stroke-miterlimit:10;}
	.st84{fill:none;stroke:#E68B4A;stroke-width:0.5;stroke-linecap:round;stroke-linejoin:round;stroke-miterlimit:10;}
	.st85{fill:none;stroke:#203881;stroke-width:0.5;stroke-linecap:round;stroke-linejoin:round;stroke-miterlimit:10;}
	.st86{opacity:0.29;fill:#EAE8F3;}
	.st87{fill:none;stroke:#A6A3AE;stroke-width:0.5;stroke-linecap:round;stroke-linejoin:round;stroke-miterlimit:10;}
	.st88{opacity:0.74;fill:#FFFFFF;}
	.st89{opacity:0.19;fill:#FFFFFF;}
	.st90{fill:none;stroke:#40304A;stroke-width:0.25;stroke-linecap:round;stroke-linejoin:round;stroke-miterlimit:10;}
	.st91{fill:none;stroke:#F34B4B;stroke-width:2;stroke-linecap:round;stroke-linejoin:round;stroke-miterlimit:10;}
	.st92{fill:none;stroke:#43334E;stroke-width:0.5;stroke-linecap:round;stroke-linejoin:round;stroke-miterlimit:10;}
	.st93{fill:none;stroke:#6582FC;stroke-miterlimit:10;}
	.st94{opacity:0.47;fill:#A6A3AE;}
	.st95{opacity:0.43;fill:#FFFFFF;}
	.st96{fill:none;stroke:#FBE6BB;stroke-linecap:round;stroke-linejoin:round;stroke-miterlimit:10;}
	.st97{fill:none;stroke:#5B4B68;stroke-width:0.5;stroke-linecap:round;stroke-linejoin:round;stroke-miterlimit:10;}
	.st98{fill:none;stroke:#40304A;stroke-width:0.5;stroke-linecap:round;stroke-linejoin:round;stroke-miterlimit:10;}
	.st99{fill:none;stroke:#DDA103;stroke-linecap:round;stroke-linejoin:round;stroke-miterlimit:10;}
	.st100{fill:none;stroke:#FBC32E;stroke-linecap:round;stroke-linejoin:round;stroke-miterlimit:10;}
	.st101{fill:none;stroke:#32775B;stroke-width:0.5;stroke-linecap:round;stroke-linejoin:round;stroke-miterlimit:10;}
	.st102{opacity:0.4;fill:#FBE6BB;}
	.st103{fill:none;stroke:#FBC32E;stroke-width:0.25;stroke-linecap:round;stroke-linejoin:round;stroke-miterlimit:10;}
	.st104{fill:none;stroke:#4456D6;stroke-miterlimit:10;}
	.st105{opacity:0.61;fill:#64B48D;}
	.st106{opacity:0.9;fill:#64B48D;}
	.st107{opacity:0.76;fill:#64B48D;}
	.st108{fill:none;stroke:#5B4B68;stroke-width:0.5;stroke-miterlimit:10;}
	.st109{opacity:0.66;fill:#A6A3AE;}
	.st110{fill:none;stroke:#43334E;stroke-miterlimit:10;}
	.st111{opacity:0.52;fill:#6582FC;}
	.st112{fill:none;stroke:#DDA103;stroke-width:0.5;stroke-linecap:round;stroke-linejoin:round;stroke-miterlimit:10;}
	.st113{fill:#46724E;}
	.st114{fill:#FE8B2E;}
	.st115{fill:none;stroke:#7D4C47;stroke-width:2;stroke-linecap:round;stroke-linejoin:round;stroke-miterlimit:10;}
	.st116{opacity:0.4;fill:#EAE8F3;}
	.st117{fill:none;stroke:#EAE8F3;stroke-width:0.5;stroke-linecap:round;stroke-miterlimit:10;}
	.st118{fill:none;stroke:#4456D6;stroke-width:0.25;stroke-linecap:round;stroke-linejoin:round;stroke-miterlimit:10;}
	.st119{opacity:0.5;fill:#EAE8F3;}
	.st120{opacity:0.46;fill:#A6A3AE;}
	.st121{fill:#E0916E;}
	.st122{fill:none;stroke:#A0665A;stroke-linecap:round;stroke-linejoin:round;stroke-miterlimit:10;}
	.st123{opacity:0.46;fill:#BE412D;}
	.st124{fill:none;stroke:#203881;stroke-linecap:round;stroke-linejoin:round;stroke-miterlimit:10;}
	.st125{fill:#DBDBE1;}
	.st126{fill:none;stroke:#6582FC;stroke-width:0.5;stroke-linecap:round;stroke-linejoin:round;stroke-miterlimit:10;}
	.st127{opacity:0.53;fill:#A6A3AE;}
	.st128{fill:none;stroke:#DDA103;stroke-miterlimit:10;}
	.st129{opacity:0.2;fill:#FFFFFF;}
	.st130{fill:#B4A1BF;}
	.st131{opacity:0.5;fill:#6582FC;}
	.st132{opacity:0.6;fill:none;stroke:#FFFFFF;stroke-linecap:round;stroke-linejoin:round;stroke-miterlimit:10;}
	.st133{opacity:0.6;fill:none;stroke:#FFFFFF;stroke-width:2;stroke-linecap:round;stroke-linejoin:round;stroke-miterlimit:10;}
	.st134{opacity:0.54;fill:#A6A3AE;}
	.st135{fill:#161718;stroke:#000000;stroke-width:0.25;stroke-miterlimit:10;}
</style>
<g id="_x33_2">
	<g>
		<g>
			<path class="st14" d="M36.3143921,65.3063965c-0.1368027,0.1111221-0.181881,0.3077545-0.149086,0.4809265
				c0.0327988,0.173172,0.1316071,0.3265991,0.2415161,0.464386c0.4603844,0.5771484,1.1444931,0.9516907,1.8636284,1.118721
				c0.7191315,0.1670303,1.4728165,0.137886,2.1996231,0.008255c0.7392578-0.1318512,1.4673233-0.3702316,2.0996552-0.7752533
				c0.6323357-0.4050217,1.1654968-0.9851074,1.4411316-1.6836166c0.4101677-1.0394287,0.2170601-2.2264519-0.1843567-3.2692909"/>
			<path class="st0" d="M88.4127884,40.8191071l0.7573853,7.9001961c0.0407028,0.4246254-0.0089951,0.857872-0.1534424,1.2580605
				c-0.1068573,0.2771797-0.2507172,0.5368118-0.4319077,0.7719841c-0.0306625,0.0450859-0.1480713,0.1406326-0.3042679,0.2679787
				l0.8020935,8.366581l-4.7541046,0.4557724l-0.6466141-6.7447662c-0.0512695-0.0232086-0.1161499-0.0380402-0.180687-0.052948
				c-0.6164017-0.2008095-1.1678848-0.6045074-1.545433-1.172451c-0.6619339-0.9691238-1.0636597-2.0826416-1.1750946-3.2450409
				l-0.3963776-4.1345596c0,0-0.3407898-1.9412155,1.5620804-3.0508842L88.4127884,40.8191071z"/>
			<path class="st1" d="M88.7836456,44.6569099l0.3524704,3.676609c-0.2744675-0.1025276-0.4754944-0.3614731-0.5051346-0.6706352
				l-0.216507-2.2583122C88.3848419,45.0954094,88.5336533,44.8097153,88.7836456,44.6569099z"/>
			<path class="st3" d="M88.9251328,47.2947273c-0.0669632-0.4782829-0.1376648-0.947773-0.2290421-1.4226799
				c-0.0062332-0.0323715-0.0129242-0.0658607-0.0320663-0.0927048c-0.0742645-0.1041298-0.5697632-0.0490303-0.6899261-0.0546265
				c-0.2563095-0.906395-0.4705811-1.8246765-0.6418915-2.7509079c-0.1102219,0.5035553-0.6871033,0.8506508-1.1836319,0.712162
				s-0.8104858-0.7340546-0.6441727-1.2219658c-1.5051193,0.7923508-3.204071,1.2132187-4.905014,1.2150803
				c-0.0647049,0.5751724-0.0704651,1.1382828-0.0694504,1.7129631c0.0001831,0.1035461-0.063858,0.5727005,0.0013504,0.6394348
				c-0.6371231-0.6520195-1.0636444-1.4294472-1.5526581-2.1809502c-0.1757507-0.2700768-0.3029175-0.5953598-0.2395859-0.9112968
				c0.0872345-0.4351692,0.5764465-0.7439613,1.006813-0.6355095c-0.421875-0.251358-0.8580399-0.5302887-1.0888824-0.9637299
				c-0.2308502-0.433445-0.1648483-1.0645103,0.2654877-1.3011017c0.181633-0.0998573,0.3964005-0.1159172,0.6035919-0.1213875
				c0.2492371-0.0065765,0.4987946-0.0009422,0.7474823,0.0168724c-0.2583542-0.327198-0.5307999-0.6979294-0.4984055-1.1135635
				c0.0138397-0.1775398,0.0845566-0.3475685,0.1842117-0.4951439c0.4312668-0.638607,1.3015366-0.7903481,2.0721283-0.7901917
				c0.8436813,0.0001678,1.5957184,0.2169189,2.4057312,0.3396492c0.8360901,0.1266785,1.6910477,0.0620232,2.5320282,0.1306343
				c0.374176,0.030529,0.7618942,0.0749054,1.0820694,0.2709389s0.5518799,0.5871201,0.44664,0.9474907
				c0.2100067-0.1879883,0.5072937-0.4090843,0.7953033-0.4452324c0.4008636-0.0503159,0.7903595,0.2060432,1.0157547,0.5413322
				c0.5532379,0.8229828,0.6016312,2.0219574,0.6760254,2.9771118c0.0852737,1.0948143,0.0847549,2.196331-0.0024643,3.291008
				c-0.0398407,0.500145-0.0632019,1.0339928-0.3476944,1.4498291c-0.1871796,0.2735901-0.3910599,0.5372047-0.586174,0.8051949
				c-0.2926331,0.4019394-0.5852737,0.8038788-0.8779068,1.2058182C89.0888977,48.4644127,89.007019,47.87957,88.9251328,47.2947273
				z"/>
			<path class="st1" d="M83.7793427,54.0602112l-0.0930328-0.9704094c0.039856,0.2329597,2.5108032-0.8782539,2.7937775-1.1305161
				c0.1601563-0.0579872,0.2698517,0.16185,0.1272202,0.2549553C85.8968964,53.069416,84.9648361,53.6956787,83.7793427,54.0602112z
				"/>
			<path class="st0" d="M88.388916,45.1463318l0.2164001,2.2572136c0.0425491,0.443821,0.4364319,0.7687912,0.880249,0.7262421
				c0.4438171-0.0425453,0.7687836-0.4364319,0.7262344-0.8802528l-0.2163925-2.2572174
				c-0.0212784-0.2219086-0.1304626-0.4133072-0.2894516-0.5450401c-0.1595459-0.1310616-0.3688278-0.2018356-0.5907364-0.1805611
				C88.671402,44.3092651,88.3464279,44.7031517,88.388916,45.1463318z"/>
			<path class="st4" d="M83.5297546,47.5210419l-0.4468689,0.6769867c-0.1167908,0.1769409-0.0661392,0.4152374,0.1125336,0.5293694
				l0.4793472,0.3062134"/>
			<path class="st5" d="M84.3314896,51.3825226c0.0495377-0.0110741,0.0990677-0.0221481,0.154129-0.0399208
				c0.4530869-0.1509552,0.7169724-0.5617409,0.8714828-0.9935112c0.0607986-0.1574631,0.1020432-0.3193741,0.1321106-0.4675674
				c-0.0006027-0.0062675,0.0050659-0.013134,0.0044632-0.0194016s0.0050659-0.013134,0.0044632-0.0194016
				c0.0312653-0.1356583,0.0498428-0.2700996,0.0623093-0.4039574c0.0026627-0.0382004,0.005928-0.070137,0.008606-0.1081848
				c0.0032578-0.0319366,0.0121918-0.0707397,0.0023193-0.1077423c-0.0012054-0.0125313-0.0086746-0.0244637-0.0218048-0.0295296
				c-0.0074692-0.0119324-0.0198517-0.010746-0.0268555-0.0162468c-0.0386505-0.0089417-0.0744629,0.0133095-0.1114502,0.0233345
				c-0.0244827,0.0085182-0.0546188,0.0240555-0.0789261,0.032711c-0.0671387,0.0254097-0.1341171,0.0508041-0.2012558,0.0762138
				c-0.0790634,0.0328789-0.1579742,0.0657425-0.2375107,0.092186c-0.0915985,0.0340805-0.1767807,0.067543-0.2621155,0.1010208
				c-0.0908432,0.0403328-0.176178,0.0738144-0.2676392,0.1077271c-0.0853348,0.0334778-0.170517,0.0669403-0.2556992,0.1004066
				c-0.0790634,0.0328789-0.158577,0.0594749-0.2376633,0.0921974c-0.0669632,0.0255508-0.1341095,0.050808-0.2012482,0.0762177
				c-0.0544434,0.0241928-0.1033783,0.0415306-0.1523132,0.0588722c-0.0299835,0.015522-0.0544434,0.0241928-0.0851822,0.0334663
				c0,0,0,0-0.0062637,0.0005989c-0.0182037,0.0080681-0.1096649,0.0419807-0.1942444,0.0817146
				c-0.0915985,0.0340767-0.1767807,0.067543-0.1767807,0.067543
				C82.9589005,50.3767738,83.3581085,51.5770302,84.3314896,51.3825226z"/>
			<path class="st6" d="M83.2312012,50.0537262l0.1331329,0.334774c0.058876,0.152317,0.2369232,0.2299614,0.3892517,0.1712379
				l1.7356262-0.678215c-0.0006027-0.0062675,0.0050659-0.013134,0.0044632-0.0194016s0.0050659-0.013134,0.0044632-0.0194016
				c0.0312653-0.1356583,0.0498428-0.2700996,0.0623093-0.4039574c0.0026627-0.0382004,0.005928-0.070137,0.008606-0.1081848
				c0.0032578-0.0319366,0.0121918-0.0707397,0.0023193-0.1077423c-0.0012054-0.0125313-0.0086746-0.0244637-0.0218048-0.0295296
				c-0.0074692-0.0119324-0.0198517-0.010746-0.0268555-0.0162468c-0.0386505-0.0089417-0.0744629,0.0133095-0.1114502,0.0233345
				c-0.0244827,0.0085182-0.0546188,0.0240555-0.0789261,0.032711c-0.0671387,0.0254097-0.1341171,0.0508041-0.2012558,0.0762138
				c-0.0790634,0.0328789-0.1579742,0.0657425-0.2375107,0.092186c-0.0915985,0.0340805-0.1767807,0.067543-0.2621155,0.1010208
				c-0.0908432,0.0403328-0.176178,0.0738144-0.2676392,0.1077271c-0.0853348,0.0334778-0.170517,0.0669403-0.2556992,0.1004066
				c-0.0790634,0.0328789-0.158577,0.0594749-0.2376633,0.0921974c-0.0669632,0.0255508-0.1341095,0.050808-0.2012482,0.0762177
				c-0.0544434,0.0241928-0.1033783,0.0415306-0.1523132,0.0588722c-0.0299835,0.015522-0.0544434,0.0241928-0.0851822,0.0334663
				c0,0,0,0-0.0062637,0.0005989C83.4072418,49.9800797,83.3157806,50.0139923,83.2312012,50.0537262z"/>
			<path class="st3" d="M85.3586044,50.3520927c-0.1569138,0.426281-0.4229584,0.8369675-0.8750534,0.9896011
				c-0.0521545,0.0171585-0.1044312,0.032589-0.1539612,0.0408134c-0.1001511-0.3027229,0.027832-0.6689568,0.3330688-0.8873367
				C84.8803635,50.3406944,85.1380005,50.2951736,85.3586044,50.3520927z"/>
			<path class="st1" d="M89.4919968,45.0840569l0.0618591,0.6452332l-0.5649796,0.3323784l-0.0882874-0.9209137
				c-0.0154648-0.1613083,0.1060486-0.3085899,0.2673569-0.3240547S89.476532,44.9227486,89.4919968,45.0840569z"/>
			<path class="st1" d="M89.0494461,46.6934471l0.5682144-0.2985764l0.057991,0.6048622
				c0.0154648,0.1613083-0.1060486,0.3085899-0.2673569,0.3240547s-0.3085861-0.1060486-0.3240509-0.2673569L89.0494461,46.6934471z
				"/>
			<path class="st5" d="M71.3458862,136.7466888l10.0129547,0.5123901c0.494873,0.0253296,0.9165802-0.3553162,0.9419022-0.8501892
				l0.0374298-0.7314758l-11.7741165-1.2085266l-0.068367,1.3358917
				C70.4703674,136.2996521,70.8510132,136.7213593,71.3458862,136.7466888z"/>
			<path class="st5" d="M102.0342178,132.3089294l-0.1162262,2.2712555
				c0.3375168,0.3790894,0.6604691,0.7794189,1.0150299,1.1420593c0.3518295,0.359848,0.9779816,0.2848663,1.2883682,0.6993103
				c0.1223831,0.1634064,0.159729,0.3741913,0.1790085,0.5774384c0.0546494,0.5763245,0.0556946,1.3002777-0.2995529,1.7885742
				c-0.2931213,0.4029083-0.779686,0.6356964-1.2773438,0.6102295c-0.0014801-0.0000763-4.6076736-0.2357941-4.6076736-0.2357941
				c-0.4634171-0.0237122-0.871315-0.3132935-1.0465317-0.7429504l-0.1946106-0.4772339l-0.301239-0.0661926
				c-0.3402176-0.0747375-0.6074371-0.3379517-0.6873322-0.6769867l-0.1365585-0.5795135l0.2711945-5.2995758"/>
			<path class="st7" d="M84.4755173,62.9648399l-0.0618896,1.4143333l-0.193222,4.2431259l-0.5564423-0.0232086
				l-2.7746964-0.1236343c0.4251175,1.0665207,0.6802292,1.9321899,0.6802292,3.0991974
				c0,1.1902542,0,2.2027206-0.3169098,3.3543015c-0.1004715,0.3632278-0.4946518,1.8317184-0.9815674,3.6556931
				c-1.0201569,3.7948532-1.8778839,9.2720871-1.8082581,9.2875595c-1.483963-0.285965-3.5323486-0.6622314-5.0316772-0.8400269
				c0.2627487-2.6895905,0.4946518-5.3714523,0.7032471-8.05336c0.2319031-2.8828125,0.4483261-5.7733612,0.6802292-8.6562271
				c0.1235886-1.6616592,0.2627487-3.3156204,0.4096451-4.9773254c0.2163391-2.4422722-0.0464172-5.093235,2.612236-6.2911835
				c0.5409775-0.2473259,1.159317-0.3710136,1.8008652-0.3400688l0.3400192,0.0231628l0.633812,0.0232086
				C82.8446655,58.8531303,84.5681686,60.7312126,84.4755173,62.9648399z"/>
			<path class="st8" d="M84.4136276,64.3791733l-0.193222,4.2431259l-0.5564423-0.0232086l-2.7746964-0.1236343
				c0.4251175,1.0665207,0.6802292,1.9321899,0.6802292,3.0991974c0,1.1902542,0,2.2027206-0.3169098,3.3543015
				c-0.1004715,0.3632278-0.4946518,1.8317184-0.9815674,3.6556931l-1.0201569-8.2620544l-1.6548386-5.6385422
				c-0.1361847-0.4640045,0.400589-0.831459,0.7838821-0.5366211l1.4969406,1.1514664L84.4136276,64.3791733z"/>
			<path class="st9" d="M79.4208755,77.8427124l-0.3014374,2.0403595l-4.9851074-0.9042511
				c0.2319031-2.8828125,0.4483261-5.7733612,0.6802292-8.6562271l4.1425171,0.6801376L79.4208755,77.8427124z"/>
			<path class="st24" d="M102.0801315,131.4116974l-0.1162262,2.2712555l2.0902328,2.3476105
				c0.2595139,0.2914734,0.3938293,0.6734009,0.3738861,1.0631561l0,0c-0.0419083,0.8188782-0.7397156,1.448761-1.5586014,1.4068451
				l-4.6076813-0.2357941c-0.4634171-0.0237122-0.871315-0.3132782-1.0465317-0.7429504l-0.1946106-0.4772339l-0.301239-0.0661774
				c-0.3402176-0.0747528-0.6074371-0.3379517-0.6873322-0.677002l-0.1365585-0.5794983l0.2711945-5.2995911"/>
			<path class="st24" d="M78.2996368,130.8299255l-5.3323212,2.4604797l-1.2198639,0.0350342
				c-0.6754684,0.0193787-1.2066574,0.583847-1.1850357,1.2592468l0,0c0.0203247,0.6345367,0.5236435,1.147583,1.1576767,1.1800232
				l10.0047455,0.5119781c0.3257446,0.0166626,0.6033249-0.2338867,0.6199875-0.5596161l0.0179825-0.3513947l0.5426712-0.8392181
				c0.3633499-0.5619202,0.3957901-1.276001,0.0848846-1.8685455l-0.5186691-0.9884949L78.2996368,130.8299255z"/>
			<path class="st51" d="M41.3818741,59.7854424c0.8676758,4.0762405,0.1801071,8.368351-1.3119125,12.2596779
				c-0.7823486,2.0404358-1.7827301,3.999527-2.419838,6.0898666c-0.7884483,2.5869064-0.6632881,5.0205078,0.0749397,7.5932465
				c1.6697998,5.8192978,7.3549652,10.121376,7.9868774,16.1424332c0.3322029,3.1653214-0.8230209,6.29673-2.2320747,9.150528
				c-1.40905,2.8537979-3.1035652,5.6011963-3.9804573,8.6607132s-0.8134613,6.5975723,1.0950813,9.1445389
				c4.5299339,6.0452423,16.7969475,3.8478546,23.4227371,3.8478546c5.8014755,0,11.6029587,0,17.4044342,0"/>
			<path class="st35" d="M42.9419975,63.6624756l-0.3642845,3.7590179c-0.0312576,0.366272-0.3747025,0.6361771-0.7598228,0.5976486
				l-0.9992065-0.0771255c-0.395668-0.0385971-0.6767273-0.3566284-0.6454697-0.7132492l0.3644104-3.7590752
				c0.0312576-0.366272,0.3747025-0.6265335,0.7702446-0.5975876l0.9887848,0.0771255
				C42.6921959,62.9877625,42.9732552,63.305851,42.9419975,63.6624756z"/>
			<path class="st15" d="M39.4204865,60.7949104c-0.1549988,0.215519-3.2427864,4.664257-3.2427864,4.664257
				s2.1704979-1.7086906,6.326767,0c4.1562691,1.7086868,4.5257149-1.7548714,4.5257149-1.7548714l-5.426239-6.1214066"/>
			<path class="st51" d="M39.0181122,61.1933403c1.0198746,0.2889023,2.0848846,0.4025421,3.1448364,0.3918152
				c0.9153748-0.0092583,1.8796272-0.1291771,2.6135178-0.6763496"/>
			<path class="st7" d="M97.4830017,82.8045731c-0.0695343,0.0386353-0.3555908,0.1004791-0.834671,0.1700058
				c-0.4638062,0.0695801-1.0897827,0.1391602-1.8472824,0.2086945c-3.732872,0.3632736-10.4414825,0.6337662-14.1358566-0.6878738
				c0.0617981-0.2550125,0.0695343-0.8192444,0.0385895-1.5998611c-0.0077362-0.1700058-0.0153809-0.3477554-0.0231171-0.533287
				c-0.1082077-2.2181473-0.4327545-5.7810974-0.8038177-9.35952c-0.2318039-2.2567902-0.4869156-4.5135727-0.7188187-6.4535065
				c-0.3864365-3.1378746-0.6955109-5.4101334-0.7728729-5.4101334c-0.0385895-0.1777458-0.4713516-0.0695801-0.5487137-0.0695801
				v-0.0077362c0,0,0.0154724-0.0154266,0.038681-0.0231628c0.1313248-0.0927429,1.970871-1.2211571,3.5938034-2.1563072v-0.0077362
				c1.2984695-0.7574539,2.4346695-1.3989067,2.4577866-1.3061638c0.4019089,2.7823372,4.9232178,2.2722588,4.7377396-0.533287
				l0.3014297,0.0850029l9.3299408,2.6971512l-0.4804459,1.715992c0.1854858,1.963089,0.3245468,3.9107552,0.4250259,5.8120041
				c0.0077362,0.146843,0.0154724,0.2936935,0.0154724,0.4405441C98.518631,71.7524414,98.3254089,77.4485397,97.4830017,82.8045731
				z"/>
			<path class="st8" d="M97.4830017,82.8045731c-0.0695343,0.0386353-0.3555908,0.1004791-0.834671,0.1700058
				c-0.258049,0.0387115-0.5662918,0.0774231-0.9194565,0.116127c-0.4364166,0.0478287-0.7821732-0.3701324-0.6503448-0.7888947
				l2.3752747-7.5453796c0.0390091-0.1239166,0.0373917-0.2570572-0.0046082-0.3799896l-0.4448166-1.3018646
				c-0.0106735-0.0312271-0.0238571-0.0615311-0.0394363-0.0906219l-3.88134-7.2485275
				c-0.2653427-0.4955368,0.2246552-1.0554886,0.7510147-0.8582382l2.3601227,0.8844681
				c0.0698929,0.0261917,0.1440125,0.0393219,0.2186508,0.0387344l1.2497864-0.0098877
				c0.3299561-0.0026169,0.6045227,0.2600555,0.6173935,0.5897751
				C98.5050583,72.1309814,98.2973862,77.6266861,97.4830017,82.8045731z"/>
			<path class="st9" d="M96.764183,73.3368301l-2.0557861,8.4398041l-14.0277328-1.4143829
				c-0.1082077-2.2181473-0.4327545-5.7810974-0.8038177-9.35952L96.764183,73.3368301z"/>
			<path class="st11" d="M103.4481735,132.8406067l-0.865715-0.0463715l-6.7860718-0.3400726l-0.9351501-1.4530182
				l-0.2626572-0.4250641c-0.7034378-1.0974731-0.8113708-2.4732208-0.2860565-3.6556931l0.6030579-1.4530106l-0.9740219-4.7918472
				l-0.8887329-4.3358231l-2.0714417-10.1401443l-0.7340088-3.6171036l-0.4173813-2.0094604l-0.2320938-1.1979446
				l-0.4943695,2.7127991l-4.1889267,23.4104233l0.285675,1.4762192c0.2705841,1.3989029-0.2396393,2.8287125-1.3291397,3.748436
				l-1.2442245,1.0511017l-1.4378204-0.1622772l-5.8041229-0.6647034l0.2317123-2.1640472l0.4558792-4.2739868l1.6929321-15.9444504
				l0.1932144-1.8549271l0.9351501-8.6948624l0.4404068-4.1039734l0.7419281-6.9017792l0.3864441-3.6556931l0.0154724-0.1391602
				l0.0539627-0.5487137l0.0698166-0.5796585l0.0309448-0.309166l0.5641861,0.0309448l16.2919235,0.834671l0.4947433,0.842453
				c1.3525391,2.2799988,2.1563568,4.8536453,2.3495789,7.5046082l0.3090744,4.2508163l0.6570206,8.7644501l0.2781296,3.6170502
				L103.4481735,132.8406067z"/>
			<path class="st12" d="M103.4481735,132.8406067l-0.865715-0.0463715l-5.8682632-44.1564178
				C96.3856583,86.1657104,94.4651489,84.2069778,92,83.8297958l-11.3981094-1.7439957l0.5951309-0.2782211l16.2919235,0.834671
				l0.4947433,0.842453c1.3525391,2.2799988,2.1563568,4.8536453,2.3495789,7.5046082l0.3090744,4.2508163l0.6570206,8.7644501
				l0.2781296,3.6170502L103.4481735,132.8406067z"/>
			<path class="st13" d="M87.0685425,89.4393539l-4.2161407,22.263092l-5.085495-3.1378784l0.193222-1.8549271l0.9352417-8.6948624
				l0.4404984-4.1039734l0.7419357-6.9017792l0.3864365-3.6556931l0.0154724-0.1391602l3.2397461,0.8777313
				C86.0609818,84.7262802,87.5199432,87.0557785,87.0685425,89.4393539z"/>
			<path class="st12" d="M81.1881332,131.6139984l1.4389877,0.1632996l1.2493286-1.0571442
				c1.0872192-0.9191437,1.5954208-2.353302,1.328598-3.7522888l-0.2778091-1.4608917l4.6655807-26.121666l-1.5926514-4.1465912
				c-0.1376419-0.3583527-0.6624985-0.2962875-0.7127533,0.0842896l-3.9368744,29.8134079
				C83.3505402,125.1364136,84.124115,129.0158234,81.1881332,131.6139984z"/>
			<path class="st52" d="M86.2229767,91.3364487c-0.0212173,0-0.0318604,0.010643-0.0425034,0.031929l0.0318604-0.042572
				L86.2229767,91.3364487z"/>
			<rect x="83.8505859" y="90.2942505" class="st53" width="1.9494129" height="11.6574516"/>
			<rect x="83.2061462" y="90.2942505" class="st34" width="1.9494129" height="11.6574516"/>
			<path class="st21" d="M86.6341171,100.4929352v1.7348938h-4.2116699v-1.7348938
				c0-0.2333298,0.1509323-0.416008,0.3336868-0.416008h3.5520554
				C86.4909439,100.0769272,86.6341171,100.2596054,86.6341171,100.4929352z"/>
			<path class="st53" d="M88.9516373,102.3025818v28.8025055c0,0.6532135-0.5358963,1.1697235-1.1696014,1.1697235H82.957283
				c-0.633461,0-1.1598434-0.51651-1.1598434-1.1697235v-28.8025055c0-0.6335831,0.5263824-1.1502075,1.1598434-1.1502075h4.8247528
				C88.415741,101.1523743,88.9516373,101.6689987,88.9516373,102.3025818z"/>
			<path class="st34" d="M87.7602463,102.3042374v28.7973862c0,0.6569366-0.541069,1.1747894-1.1747894,1.1747894h-4.8227463
				c-0.633812,0-1.1593094-0.5178528-1.1593094-1.1747894v-28.7973862c0-0.6337662,0.5254974-1.1515808,1.1593094-1.1515808
				h4.8227463C87.2191772,101.1526566,87.7602463,101.6704712,87.7602463,102.3042374z"/>
			<path class="st53" d="M85.0094528,117.9367905c0,3.294632-1.5888977,5.9653244-3.5578232,5.9653244
				c-0.2924576,0-0.5749283-0.0585403-0.8478699-0.1851425v-11.5601196
				c0.2729416-0.1169662,0.5554123-0.1753845,0.8478699-0.1753845
				C83.4205551,111.9814682,85.0094528,114.652153,85.0094528,117.9367905z"/>
			<path class="st17" d="M79.946846,133.5601196l-2.0500107-0.2277222
				c-0.1545334-0.0171661-0.2714386-0.1477814-0.2714386-0.3032532v-0.7097015c0-0.1554718,0.1169052-0.286087,0.2714386-0.3032532
				l2.0500107-0.2277222c0.180748-0.0200806,0.3388138,0.1213989,0.3388138,0.3032532v1.1651459
				C80.2856598,133.4387207,80.127594,133.5802002,79.946846,133.5601196z"/>
			<rect x="79.4343262" y="131.1302032" class="st21" width="9.486413" height="3.5611825"/>
			<rect x="87.7579498" y="131.130188" class="st20" width="2.446883" height="3.5612719"/>
			<rect x="76.6747055" y="134.1942596" class="st54" width="15.3487244" height="3.1959488"/>
			<rect x="87.7579498" y="134.1942291" class="st47" width="4.2654777" height="3.1959951"/>
			<ellipse class="st54" cx="81.3307648" cy="116.8112946" rx="3.0574894" ry="5.1076779"/>
			<ellipse class="st55" cx="80.6012421" cy="116.8112946" rx="3.0574894" ry="5.1076779"/>
			<path class="st53" d="M82.6407394,116.815979c0,1.8031769-0.7310257,3.3139038-1.6957397,3.5966034
				c-0.1073227,0.039032-0.2244034,0.0585403-0.3412399,0.0585403c-1.1308136,0-2.0372238-1.6374359-2.0372238-3.6551437
				c0-2.0274658,0.9064102-3.6649094,2.0372238-3.6649094c0.1168365,0,0.2339172,0.019516,0.3412399,0.0585403
				C81.9097137,113.4921951,82.6407394,115.0030365,82.6407394,116.815979z"/>
			<path class="st6" d="M82.6407394,116.815979c0,1.8031769-0.7310257,3.3139038-1.6957397,3.5966034
				c-0.9747086-0.2826996-1.7057343-1.7934265-1.7057343-3.5966034c0-1.7252502,0.662735-3.1775589,1.5691452-3.5479507
				c0.0390244-0.0291519,0.0875702-0.0486603,0.1365891-0.0584183c0.5651703,0.1656265,1.0525208,0.7505417,1.3449783,1.5789032
				C82.5141449,115.3734283,82.6407394,116.0654297,82.6407394,116.815979z"/>
			<path class="st15" d="M82.289978,114.7885132l-1.6862183,1.8812332l0.2046509-3.4017181
				c0.0390244-0.0291519,0.0875702-0.0486603,0.1365891-0.0584183
				C81.51017,113.3752365,81.9975204,113.9601517,82.289978,114.7885132z"/>
			<path class="st12" d="M80.6035385,118.2551422c-0.1960754,0-0.5713425-0.561615-0.5713425-1.4416656
				c0-0.8974533,0.3698883-1.446785,0.5713425-1.446785c0.2285919,0.0665588,0.5713425,0.5943832,0.5713425,1.446785
				c0,0.8488235-0.3432693,1.3751144-0.5352478,1.431427L80.6035385,118.2551422z"/>
			<g>
				<path class="st7" d="M80.3972778,116.6667404l1.6630173-1.9141235l-1.2550812,2.2032394
					c-0.0686798,0.1205597-0.222084,0.1626129-0.3426437,0.0939407c-0.1205597-0.0686798-0.1626129-0.222084-0.0939407-0.3426437
					C80.3767471,116.6929016,80.3869858,116.6787415,80.3972778,116.6667404z"/>
			</g>
			<path class="st54" d="M97.2218094,91.0514374H71.8347549c-0.5143509,0-0.9313126-0.4169617-0.9313126-0.9313126v-0.486412
				c0-0.5143509,0.4169617-0.9313126,0.9313126-0.9313126h25.3870544c0.5143433,0,0.9313126,0.4169617,0.9313126,0.9313126v0.486412
				C98.1531219,90.6344757,97.7361526,91.0514374,97.2218094,91.0514374z"/>
			<path class="st35" d="M87.261734,91.563736h-5.7161942c-0.3364944,0-0.6092834-0.272789-0.6092834-0.6092911v-1.9058533
				c0-0.3364944,0.272789-0.6092834,0.6092834-0.6092834h5.7161942c0.3364944,0,0.6092834,0.272789,0.6092834,0.6092834v1.9058533
				C87.8710175,91.290947,87.5982285,91.563736,87.261734,91.563736z"/>
			<path class="st0" d="M102.70047,80.6072617l-3.3707581,4.4077377l-1.0596771,2.7437363L97.7399368,89.1306L97.44384,90.2175064
				c-0.0784988,0.2800827-0.3236008,0.472435-0.6123123,0.4774399l-0.6693649,0.0144806l-0.1930847,0.3665085
				c-0.0546646,0.120842-0.1560593,0.2157288-0.2682953,0.2813339c-0.1340179,0.0703735-0.298317,0.0954056-0.45681,0.064827
				c-0.3224945-0.0758514-0.5374908-0.3724899-0.511055-0.6931458l0.0180206-0.3074646l-0.2196426,0.7574387
				c-0.1051941,0.3335495-0.4497681,0.5365906-0.7924118,0.4515991l-0.2259293-0.0587311
				c-0.2946472-0.072937-0.506485-0.3341064-0.5023804-0.6430206l0.0005951-0.1405106l-0.1945343,0.5842972
				c-0.1042938,0.326561-0.4543762,0.5149918-0.7902374,0.4307175l-0.2528763-0.0685806
				c-0.3558502-0.0934067-0.5635834-0.4595795-0.4710312-0.8084793l0.7463226-2.8396988l0.0574799-0.211937
				c0.0903702-0.3280182,0.2357101-0.6432953,0.4268723-0.9256439c0.084137-0.1318359,0.1807404-0.248291,0.2841415-0.3640442
				l2.166214-2.2978058l1.3982315-2.1459656l1.0135498-1.5604095L102.70047,80.6072617z"/>
			<path class="st0" d="M79.1241837,90.5655518c-0.0662842-0.4266586-0.1306305-0.8536682-0.1959381-1.2804947
				c-0.0986404-0.6446228-0.1337204-1.3526459-0.2994003-1.9803848c-0.0833664-0.3158798-0.2807999-0.5123444-0.5821228-0.6274872
				c-0.2145004-0.0819702-0.4452133-0.1103287-0.6736374-0.1338196c-0.8730545-0.0897903-1.7524567-0.1179199-2.6294632-0.0841217
				c-0.4522858,0.0174332-0.9093933,0.0523529-1.3393631,0.1937485c-0.2306061,0.0758362-0.4642334,0.1932983-0.5878525,0.4022293
				c-0.1016693,0.1718445-0.1143799,0.3827667-0.0924225,0.5812302c0.0371323,0.3355789,0.2116852,0.6164551,0.2641449,0.944458
				c0.0338745,0.211792,0.0686798,0.4234467,0.1030273,0.6351776c0.0486603,0.2867737,0.2722168,0.5037918,0.5588074,0.5390778
				l0.6641541,0.084671l0.1535416,0.3847504c0.0416794,0.1259079,0.1325531,0.2309113,0.2372818,0.3079453
				c0.1258926,0.0840454,0.2866516,0.1261826,0.4474869,0.1124115c0.3286667-0.0415726,0.573616-0.3140106,0.580986-0.6356659
				l0.0143509-0.3076553l0.1389236,0.7763138c0.0695953,0.3427429,0.3909531,0.5808334,0.7406311,0.53228l0.2308426-0.0346909
				c0.3006744-0.0416031,0.5387573-0.2790985,0.5671082-0.586731l0.0141525-0.139801l0.1321259,0.6014938
				c0.0694427,0.335701,0.3978043,0.559845,0.7406616,0.5112839l0.2586746-0.0416565
				C78.9345703,91.2645798,79.1795959,90.9222412,79.1241837,90.5655518z"/>
			<polygon class="st1" points="102.70047,80.6072617 99.3297119,85.0149994 98.2700348,87.7587357 98.6935959,84.6687546 
				96.381752,82.1411209 97.3953018,80.5807114 			"/>
			<path class="st7" d="M105.9536972,75.987793l-4.6758499,9.2281494l-5.472023-3.431572l0.2086945-0.4869156l0.0154724-0.0541077
				l0.038681-0.0927429l0.0540543-0.1391144l2.3418427-5.8197327l-0.6724014-1.7158127l-1.0897827-2.7900772l-0.8424072-2.1486206
				l-0.1159515-0.2859573l-1.9321899-5.0082245c-0.2395401-0.6105576-0.324646-1.2520561-0.2704926-1.8703499
				c0.154541-1.4143791,1.0588379-2.7128029,2.4654388-3.3001976c0.0232086-0.0154724,0.0541534-0.030899,0.1004715-0.0463715
				c0.9583588-0.3709641,1.9708786-0.3555412,2.8597031-0.0232086c0.0385895,0.0154724,0.1003799,0.038681,0.1390686,0.0541077
				c0.9893036,0.4096451,1.8085938,1.2056847,2.2336197,2.279995l2.0481415,5.2632866c0,0,1.7776566,4.1735535,2.7591324,6.7704086
				C106.5874176,73.553215,106.5257111,74.859375,105.9536972,75.987793z"/>
			<path class="st9" d="M104.9799576,74.4652481l-3.678894,8.586647c0,0-2.7360153-0.9970398-5.2323914-1.9012909
				l0.0540543-0.1391144l2.3418427-5.8197327l-0.6724014-1.7158127L104.9799576,74.4652481z"/>
			<line class="st4" x1="93.0128098" y1="90.7910843" x2="93.6298599" y2="88.1723633"/>
			<line class="st4" x1="94.7116928" y1="90.5609283" x2="94.9051971" y2="88.7073364"/>
			<line class="st4" x1="96.1609726" y1="90.70784" x2="96.4375381" y2="89.5729675"/>
			<path class="st6" d="M86.6317825,114.1369781l-6.0283813-3.7561722v-8.0765686
				c0-0.6337662,0.5254974-1.1515808,1.1593094-1.1515808h4.1966705L86.6317825,114.1369781z"/>
			<path class="st13" d="M98.8200607,117.9395599l-5.7656326-1.5998535l-2.0713501-10.1401443l-0.7341919-3.6171036
				l-0.4173813-2.0094604l4.0864563-0.3058929c1.4156342-0.1059647,2.6681976,0.9106522,2.8557358,2.3178101L98.8200607,117.9395599
				z"/>
			<line class="st4" x1="77.4394226" y1="90.2489929" x2="77.3240509" y2="88.5069275"/>
			<line class="st4" x1="75.7477646" y1="89.701622" x2="75.7477646" y2="88.3489838"/>
			<line class="st4" x1="74.3164902" y1="89.701622" x2="74.213707" y2="88.4393082"/>
		</g>
		<ellipse class="st35" cx="58.7800026" cy="132.8732452" rx="4.1853275" ry="1.8182151"/>
		
			<ellipse transform="matrix(0.9159792 -0.4012257 0.4012257 0.9159792 -47.4223213 26.7611656)" class="st35" cx="40.1853371" cy="126.6088409" rx="1.8182151" ry="4.1853275"/>
		
			<ellipse transform="matrix(0.2233514 -0.974738 0.974738 0.2233514 -68.4778748 126.2176819)" class="st35" cx="44.9662323" cy="106.0806503" rx="4.1853275" ry="1.8182151"/>
		
			<ellipse transform="matrix(0.9528301 -0.3035043 0.3035043 0.9528301 -24.3538704 15.7045841)" class="st35" cx="38.346859" cy="86.2020264" rx="1.8182151" ry="4.1853275"/>
	</g>
	<g>
		<path class="st14" d="M62.6872978,37.4909973c0,8.0756493-4.0777054,15.1965828-10.2838593,19.4332657
			c-0.5171814,0.3481255-1.0542717,0.676281-1.6010742,0.9945374c-2.4567223,1.4023361-5.1917038,2.3670082-8.1053925,2.8046074
			c0.0796432,0.1492043,0.1393738,0.2585907,0.1393738,0.2585907l-3.3318024-0.0099564h-0.6861725
			c-0.0995522,0.0099564-0.2088165,0-0.3083687-0.0099525c-3.9582443-0.1093864-7.678051-1.2033539-10.9200134-3.0432892
			c-0.5472889-0.3083038-1.0741806-0.6364555-1.5913601-0.9945374c-2.2576218-1.5315666-4.2369862-3.4510193-5.8380585-5.6489716
			c-0.2384357-0.3281555-0.457449-0.6563683-0.6764603-0.9945412c-1.1334248-1.7404404-2.0386105-3.6300278-2.675251-5.6489716
			c-0.1092644-0.3282127-0.2088146-0.6563683-0.288456-0.9945374c-0.4972687-1.8001137-0.775526-3.6897621-0.8153458-5.6489716
			c-0.0097132-0.1590996-0.0097132-0.3282166-0.0097132-0.4972725c0-0.1690521,0-0.3282127,0.0097132-0.4972687
			c0.0398197-1.9493179,0.3083649-3.8389053,0.8056335-5.6390171c0.0893536-0.3381691,0.1791916-0.6663837,0.288456-0.9945374
			c0.6366405-2.0189438,1.5413399-3.9085312,2.675251-5.6489735c0.2185268-0.3381691,0.4477367-0.6763401,0.6861725-0.9945374
			c1.6010723-2.2079086,3.5702381-4.1174049,5.8181496-5.6490345c0.5171795-0.3580189,1.0542679-0.6861725,1.6010704-0.9945374
			C31.000946,15.1138783,34.9693871,14,39.1961784,14c0.1388855,0,0.2782555,0,0.4176254,0.0099554
			c0-0.0099554,0-0.0099554,0-0.0099554h2.6553421l0.0796394,0.2187691c3.0433502,0.407795,5.8977928,1.3923788,8.4535789,2.8543224
			c0.5468025,0.3083649,1.0741806,0.6365185,1.591362,0.9945374C58.6095924,22.2845249,62.6872978,29.41535,62.6872978,37.4909973z"
			/>
		<g>
			<g>
				<path class="st15" d="M52.3937263,18.0676289H25.9787197c0.5171795-0.3580189,1.0542679-0.6861725,1.6010704-0.9945374
					h23.2225742C51.3491669,17.3814564,51.876545,17.70961,52.3937263,18.0676289z"/>
			</g>
			<g>
				<path class="st15" d="M54.0642395,23.7166634v0.9945374H19.4743977
					c0.2185268-0.3381691,0.4477367-0.6763401,0.6861725-0.9945374H54.0642395z"/>
			</g>
			<g>
				<path class="st15" d="M54.0642395,30.3601742v0.9945374H16.5106907c0.0893536-0.3381691,0.1791916-0.6663837,0.288456-0.9945374
					H54.0642395z"/>
			</g>
			<g>
				<path class="st15" d="M54.0642395,36.9937286v0.9945412H15.7050571
					c-0.0097132-0.1590996-0.0097132-0.3282166-0.0097132-0.4972725c0-0.1690521,0-0.3282127,0.0097132-0.4972687H54.0642395z"/>
			</g>
			<g>
				<path class="st15" d="M54.0642395,43.6372414v0.9945374H16.8088589
					c-0.1092644-0.3282127-0.2088146-0.6563683-0.288456-0.9945374H54.0642395z"/>
			</g>
			<g>
				<path class="st15" d="M54.0642395,50.2807503v0.9945412H20.1605701
					c-0.2384357-0.3281555-0.457449-0.6563683-0.6764603-0.9945412H54.0642395z"/>
			</g>
			<g>
				<path class="st15" d="M52.4034386,56.924263c-0.5171814,0.3481255-1.0542717,0.676281-1.6010742,0.9945374H27.5899887
					c-0.5472889-0.3083038-1.0741806-0.6364555-1.5913601-0.9945374H52.4034386z"/>
			</g>
		</g>
		<path class="st15" d="M39.5002174,60.9766388c-0.0995522,0.0099564-0.2088127,0.0099564-0.3083649,0.0099564
			c-0.1291733,0-0.2486343,0-0.3778076-0.0099564H39.5002174z"/>
		<path class="st15" d="M66.4921188,37.4973717c0,3.5938988-0.8038254,7.0022621-2.2567444,10.0473976
			C60.84272,54.7170906,53.9098511,59.8953743,45.7018089,60.822834c-0.8887329,0.1081657-1.7853928,0.1622734-2.6971436,0.1622734
			c-8.4552269,0-15.8673706-4.4595146-20.0019588-11.1603394c-2.2182465-3.5861626-3.4937954-7.8060379-3.4937954-12.3273964
			c0-12.9765816,10.5191231-23.4954224,23.4957542-23.4954224c2.5967598,0,5.0931358,0.4173365,7.4272385,1.2056866
			C59.7603912,18.306879,66.4921188,27.1176453,66.4921188,37.4973717z"/>
		<path class="st17" d="M66.4921188,37.4973717c0,3.5938988-0.8038254,7.0022621-2.2567444,10.0473976L45.7018089,60.822834
			c-0.8887329,0.1081657-1.7853928,0.1622734-2.6971436,0.1622734c-8.4552269,0-15.8673706-4.4595146-20.0019588-11.1603394
			l27.4291973-34.6171341C59.7603912,18.306879,66.4921188,27.1176453,66.4921188,37.4973717z"/>
		<path class="st56" d="M48.1923141,18.033329c8.6059837,2.2893105,14.9467697,10.1351719,14.9467697,19.4620018
			c0,11.121521-9.0157738,20.1372948-20.137291,20.1372948c-7.6853676,0-14.3651752-4.3053055-17.7591839-10.6356697"/>
		<path class="st16" d="M25.242609,46.9969559c-1.5174732-2.8303299-2.378109-6.0654716-2.378109-9.5016251
			c0-11.1215172,9.0157719-20.137291,20.1372929-20.137291c1.7946854,0,3.5345383,0.2347755,5.1905212,0.6752892"/>
		<path class="st15" d="M38.814045,60.9766388h-0.3083649v-0.0099525
			C38.6052284,60.9766388,38.7144928,60.9865952,38.814045,60.9766388z"/>
		<path class="st14" d="M50.1088295,42.3590736c0,3.0047607-2.0896683,5.8240128-6.0093765,6.4670334v3.9569168h-2.3987961
			v-3.8455963c-2.2013664-0.0371323-4.4887657-0.7172089-5.8119392-1.6693611l0.9026413-2.5472527h1.0883064
			c0,0,0.0247536,0.3091354,0.0371323,0.6430206c1.2365303,0.5811348,2.7574425,0.989212,4.3526154,0.989212
			c2.7079315,0,4.5255966-1.5580444,4.5255966-3.7219734c0-2.0897408-1.4837799-3.3880844-4.2907295-4.5256729
			c-3.8828773-1.5209846-6.2816772-3.2768364-6.2816772-6.5907326c0-3.153141,2.2505722-5.5520153,5.749752-6.1208458v-3.8332176
			h2.3495903v3.6848392c2.2874031,0.0741882,3.8457451,0.6800766,4.946125,1.335474l-0.4205284,1.0881538
			c0.1856613,0.4203796,0.5566826,1.4219666,0.5566826,1.4219666H48.315918
			c-0.7912483-0.45751-2.3492889-1.2983437-4.7852211-1.2983437c-2.9307213,0-4.0314064,1.7558537-4.0314064,3.2768402
			c0,1.9784203,1.4098167,2.9676285,4.7112579,4.327858C48.130558,36.9924927,50.1088295,38.9709892,50.1088295,42.3590736z"/>
		<path class="st17" d="M45.2998962,35.4029083c-3.3077469-1.3680077-4.7142448-2.3572655-4.7142448-4.3358269
			c0-1.5225925,1.0974236-3.2770386,4.0266571-3.2770386c2.4344864,0,3.9957123,0.8424568,4.7916107,1.2984276l0.9506226-2.5118484
			c-1.0974236-0.6491909-2.6586494-1.2597466-4.9384117-1.3293247v-3.6943741h-2.3574982v3.8412209
			c-0.2936058,0.0463715-0.5796585,0.1082153-0.8502426,0.1854839c-3.006218,0.7883492-4.8999176,3.0451355-4.8999176,5.9434242
			c0,0.0772686,0,0.1545849,0.0154724,0.2318535c0.1003838,3.161087,2.4729805,4.8614235,6.2603798,6.3453331
			c2.8209229,1.1438446,4.3047867,2.4345818,4.3047867,4.5290489c0,2.1640434-1.83181,3.7252693-4.5289536,3.7252693
			c-2.1333351,0-4.1119461-0.7187691-5.4795761-1.6384926l-0.9121284,2.5504837
			c1.3291359,0.9506226,3.6171989,1.6384926,5.8195953,1.6771278v3.8412209h2.3959923V48.827774
			c3.9183502-0.6492386,6.0128174-3.4624748,6.0128174-6.4689751
			C51.1968575,38.9735947,49.2186241,36.9950333,45.2998962,35.4029083z"/>
		<path class="st15" d="M51.1968575,42.358799c0,3.0065002-2.0944672,5.8197365-6.0128174,6.4689751v3.9571228h-2.3959923V48.943676
			c-2.2023964-0.0386353-4.4904594-0.7265053-5.8195953-1.6771278l0.9121284-2.5504837
			c1.36763,0.9197235,3.346241,1.6384926,5.4795761,1.6384926c2.6971436,0,4.5289536-1.5612259,4.5289536-3.7252693
			c0-2.0944672-1.4838638-3.3852043-4.3047867-4.5290489c-3.7873993-1.4839096-6.159996-3.1842461-6.2603798-6.3453331
			l4.8844452-6.1752777l0.8502426-1.0665741l2.3416481-2.9601307h0.0158501v3.6943741
			c2.2797623,0.0695782,3.8409882,0.6801338,4.9384117,1.3293247l-0.9506226,2.5118484
			c-0.7958984-0.4559708-2.3571243-1.2984276-4.7916107-1.2984276c-2.9292336,0-4.0266571,1.754446-4.0266571,3.2770386
			c0,1.9785614,1.406498,2.9678192,4.7142448,4.3358269C49.2186241,36.9950333,51.1968575,38.9735947,51.1968575,42.358799z"/>
	</g>
	<g>
		<path class="st14" d="M137.6400604,132.5864105v3.6640015c0,1.3413086-1.2675171,2.5762787-3.394043,3.557724h-0.0079803
			c-0.1717224,0.0817719-0.3354492,0.1553955-0.5235443,0.2289734h-0.0083771
			c-1.5127258,0.629776-3.3856659,1.1368408-5.5205688,1.4721985h-0.0079803
			c-0.1717224,0.0326843-0.3434448,0.0572052-0.5235519,0.0817566h-0.007988
			c-1.7175827,0.25354-3.5741501,0.3925629-5.5289459,0.4089355h-0.547905
			c-1.9464111-0.0163727-3.8029709-0.1553955-5.5205612-0.4089355h-0.007988
			c-0.1801071-0.0245514-0.3518219-0.0490723-0.5235443-0.0817566h-0.0083847
			c-2.1345062-0.3353577-4.0154266-0.8424225-5.5365372-1.4721985h-0.0083847
			c-0.1801071-0.0817566-0.3518219-0.1553955-0.5235443-0.2371521l-0.007988-0.008194
			c-2.1021576-0.9732513-3.3612976-2.2000427-3.3612976-3.5413513v-3.696701l3.3449249-1.3331146l0.539917,0.1553955
			l1.7171936,0.4906921c1.1453247-0.3516693,2.4292221-0.6378937,3.8113556-0.8669281
			c0.1801071-0.0326996,0.3518295-0.057251,0.5315323-0.0817566c1.7175903-0.25354,3.5821381-0.4007568,5.5369339-0.4089355
			h0.5315323c1.9631882,0.0081787,3.8277359,0.1472015,5.5453186,0.3925629
			c0.1797104,0.0245514,0.3514252,0.057251,0.5315247,0.0818024c1.4069061,0.2289886,2.7151642,0.5233917,3.8768616,0.883255
			l1.6520996-0.4743195l0.539505-0.1553955L137.6400604,132.5864105z"/>
		<path class="st15" d="M109.9637756,140.0371094c-0.1801071-0.0817566-0.3518219-0.1553955-0.5235443-0.2371521l-0.007988-0.008194
			c-0.0083847-2.0119019-0.0083847-4.072937-0.0163727-6.1093903l0.539917,0.1553955
			C109.9557877,135.8742218,109.9637756,137.9597626,109.9637756,140.0371094z"/>
		<path class="st15" d="M116.0406265,141.5910645c-0.1801071-0.0245514-0.3518219-0.0490723-0.5235443-0.0817566h-0.0083847
			c-0.007988-2.6089783-0.015976-5.3570404-0.0243607-8.0477753c0.1801071-0.0326996,0.3518295-0.0572662,0.5315323-0.0817719
			C116.0242538,136.0623169,116.0322418,138.8512573,116.0406265,141.5910645z"/>
		<path class="st15" d="M122.1090927,142h-0.539917c0-2.9115906-0.007988-6.011261-0.0163727-9.0291748h0.5315323
			C122.100708,135.9151154,122.1090927,138.9820862,122.1090927,142z"/>
		<path class="st15" d="M128.1775665,141.5093079c-0.1717224,0.0326843-0.3434448,0.0572052-0.5235519,0.0817566h-0.007988
			c0-2.6662292-0.0083847-5.4714813-0.0163727-8.2276764c0.1797104,0.0245056,0.3514252,0.0490723,0.5315247,0.0817719
			C128.1611786,136.0868835,128.1695709,138.818512,128.1775665,141.5093079z"/>
		<path class="st15" d="M134.2380371,139.808136c-0.1717224,0.0817719-0.3354492,0.1553955-0.5235443,0.2289734h-0.0083771
			c-0.0079956-2.0282745-0.0079956-4.1138153-0.015976-6.1830292l0.539505-0.1553955
			C134.2296448,135.7024536,134.2380371,137.7552948,134.2380371,139.808136z"/>
		<ellipse class="st15" cx="121.8551636" cy="132.787735" rx="15.7809782" ry="5.7425685"/>
		<path class="st16" d="M135.3789825,132.7862396c0,0.3377991-0.1257782,0.6621246-0.3663025,0.9796448
			c-1.419693,1.8579407-6.77211,3.2361908-13.1551361,3.2361908c-6.3886032,0-11.7411652-1.3782501-13.1551285-3.2361908
			c-0.2405243-0.3175201-0.3663101-0.6418457-0.3663101-0.9796448c0-2.3308868,6.0508041-4.2158356,13.5214386-4.2158356
			C129.3224487,128.5704041,135.3789825,130.4553528,135.3789825,132.7862396z"/>
		<path class="st14" d="M130.530899,133.1069031l-0.2447662,0.6087189l-2.1932678-0.0726624
			c-0.2376175,0.552002-0.8591003,1.120575-1.5333328,1.4351196l-1.365036-0.2767792
			c0.0080032-0.0001526,0.0078278-0.0095978,0.015831-0.0097504l-0.048027,0.000885l0.2232056-0.4761963
			c0,0,0.5096207-0.1227264,0.7490463-0.1555023c0.0080032-0.0001526,0.0080032-0.0001526,0.0080032-0.0001526
			c0.2439346-0.2216492,0.431488-0.4611511,0.530632-0.717926c0.2673874-0.6846924-0.437706-1.1720428-1.6784973-1.2151642
			c-1.1925735-0.0440063-2.0822067,0.302948-3.0132141,0.9999237c-1.2624664,0.9486694-2.4999008,1.5191345-4.3890076,1.4502716
			c-1.8010635-0.0610352-2.9484787-0.6723938-2.9250565-1.5697021l-2.1934357-0.0821075l0.237114-0.5897522l2.1050339,0.0648651
			c0.2694855-0.5715027,0.7745895-0.9490204,1.2574005-1.2223511l0.7389755,0.1657104
			c0.0377579-0.1234436,0.0758591-0.2279968,0.0838623-0.2281342c0.015831-0.0097504,0.709549-0.1264343,0.709549-0.1264343
			l-0.1910172,0.4850464c-0.3484955,0.1858368-0.9814758,0.5657349-1.2178726,1.1838074
			c-0.2983627,0.7419128,0.5955048,1.0558472,1.4599228,1.0870209c1.128746,0.0357513,1.8344498-0.2982941,2.9554749-1.1121368
			c1.3021164-0.958786,2.629509-1.4176941,4.5588303-1.3495789c1.7210236,0.0625763,3.1156616,0.6410065,3.0943451,1.6515656
			L130.530899,133.1069031z"/>
		<path class="st17" d="M130.4806976,133.2333984l-2.1943054-0.0764618
			c-0.2423859,0.5581512-0.861618,1.1214294-1.5381317,1.4391327l-1.3645477-0.2817535
			c0.6583633-0.3275146,1.2688522-0.8145599,1.4815369-1.3527985c0.2701416-0.6835938-0.4385834-1.1771088-1.6768341-1.2200928
			c-1.1952591-0.0414886-2.0832825,0.3082581-3.0154037,0.9976501c-1.2581177,0.9512939-2.4974823,1.5232849-4.3877029,1.4573364
			c-1.8034363-0.0624847-2.9484024-0.6788483-2.9243851-1.57547l-2.1958694-0.0764313l0.235817-0.596756l2.1090927,0.0734253
			c0.2713547-0.5762024,0.7751999-0.9580078,1.2550201-1.2241364l1.3385391,0.2905426
			c-0.34095,0.1925507-0.9745407,0.5712433-1.2178192,1.187027c-0.292511,0.7411652,0.5960846,1.0552521,1.4653625,1.0852509
			c1.1303787,0.0394592,1.8366089-0.297699,2.949707-1.1070862c1.3048325-0.9599915,2.6317978-1.4206696,4.5657883-1.3536682
			c1.717453,0.0599213,3.1165314,0.6453094,3.094101,1.6493073l2.2599792,0.078476L130.4806976,133.2333984z"/>
	</g>
	<g>
		<path class="st14" d="M140.304657,126.0113602v3.6639938c0,1.3413086-1.2675323,2.5762939-3.394043,3.5577393h-0.0079956
			c-0.1717072,0.0817566-0.3354492,0.1553955-0.5235291,0.2289734h-0.0083923
			c-1.5127258,0.6297607-3.3856659,1.1368408-5.5205688,1.4721832h-0.0079803
			c-0.1717224,0.0326996-0.3434448,0.0572052-0.5235443,0.0817719h-0.0079803
			c-1.7175903,0.2535248-3.5741577,0.3925476-5.5289536,0.4089203h-0.547905
			c-1.9464111-0.0163727-3.8029709-0.1553955-5.5205612-0.4089203h-0.007988
			c-0.1801071-0.0245667-0.3518219-0.0490723-0.5235443-0.0817719h-0.0083847
			c-2.1345062-0.3353424-4.0154266-0.8424225-5.5365372-1.4721832h-0.0083847
			c-0.1801071-0.0817719-0.3518219-0.1553955-0.5235443-0.2371674l-0.007988-0.0081787
			c-2.1021576-0.9732666-3.3612976-2.200058-3.3612976-3.5413666v-3.6966934l3.3449249-1.3331146l0.539917,0.1553955
			l1.717186,0.4906921c1.1453247-0.3516693,2.4292297-0.6379013,3.8113632-0.8669281
			c0.1801071-0.032692,0.3518219-0.0572586,0.5315323-0.0817642c1.7175827-0.2535324,3.5821304-0.4007416,5.5369339-0.4089279
			h0.5315323c1.9631805,0.0081863,3.8277359,0.1472015,5.5453262,0.3925552
			c0.1797028,0.024559,0.3514252,0.057251,0.5315247,0.0818176c1.4068909,0.2289734,2.7151489,0.5233917,3.8768463,0.8832474
			l1.6520996-0.4743195l0.5395203-0.1553955L140.304657,126.0113602z"/>
		<path class="st15" d="M112.6283646,133.4620667c-0.1801071-0.0817719-0.3518219-0.1553955-0.5235443-0.2371674
			l-0.007988-0.0081787c-0.0083847-2.0119171-0.0083847-4.072937-0.0163727-6.1094055l0.539917,0.1553955
			C112.6203766,129.2991791,112.6283646,131.3847046,112.6283646,133.4620667z"/>
		<path class="st15" d="M118.7052155,135.0160217c-0.1801071-0.0245667-0.3518219-0.0490723-0.5235443-0.0817719h-0.0083847
			c-0.007988-2.6089783-0.015976-5.3570251-0.0243607-8.0477753c0.1801071-0.032692,0.3518219-0.057251,0.5315323-0.0817642
			C118.6888428,129.4872742,118.6968307,132.2761993,118.7052155,135.0160217z"/>
		<path class="st15" d="M124.7736816,135.424942h-0.539917c0-2.9115753-0.007988-6.0112457-0.0163727-9.0291595h0.5315323
			C124.7652969,129.3400574,124.7736816,132.4070435,124.7736816,135.424942z"/>
		<path class="st15" d="M130.8421478,134.9342499c-0.1717224,0.0326996-0.3434448,0.0572052-0.5235443,0.0817719h-0.0079803
			c0-2.6662445-0.0083923-5.4714966-0.0163727-8.227684c0.1797028,0.0245056,0.3514252,0.0490723,0.5315247,0.0817642
			C130.8257751,129.5118256,130.8341522,132.243454,130.8421478,134.9342499z"/>
		<path class="st15" d="M136.9026184,133.2330933c-0.1717072,0.0817566-0.3354492,0.1553955-0.5235291,0.2289734h-0.0083923
			c-0.0079956-2.0282898-0.0079956-4.1138153-0.015976-6.1830368l0.5395203-0.1553955
			C136.8942413,129.1274109,136.9026184,131.1802521,136.9026184,133.2330933z"/>
		<ellipse class="st15" cx="124.5197525" cy="126.212677" rx="15.7809782" ry="5.7425685"/>
		<path class="st16" d="M138.0435791,126.2111816c0,0.3378067-0.1257935,0.6621323-0.3663177,0.9796524
			c-1.419693,1.8579483-6.77211,3.2361832-13.1551285,3.2361832c-6.3886032,0-11.7411652-1.3782349-13.1551285-3.2361832
			c-0.2405243-0.3175201-0.3663101-0.6418457-0.3663101-0.9796524c0-2.3308792,6.0508041-4.2158356,13.5214386-4.2158356
			C131.9870453,121.9953461,138.0435791,123.8803024,138.0435791,126.2111816z"/>
		<path class="st14" d="M133.1954803,126.5318451l-0.2447662,0.6087341l-2.1932678-0.0726776
			c-0.2376099,0.5520096-0.8591003,1.120575-1.5333252,1.4351349l-1.365036-0.2767944
			c0.0080032-0.0001526,0.0078278-0.0095978,0.015831-0.0097351l-0.048027,0.000885l0.2232056-0.4761963
			c0,0,0.5096283-0.1227264,0.7490387-0.1555176c0.0080109-0.000145,0.0080109-0.000145,0.0080109-0.000145
			c0.2439423-0.2216492,0.431488-0.4611511,0.5306396-0.7179184c0.2673798-0.6846924-0.4377136-1.1720505-1.6785049-1.2151718
			c-1.1925735-0.0440063-2.0822067,0.302948-3.0132141,0.9999237c-1.2624664,0.9486618-2.4999084,1.5191269-4.3890076,1.4502792
			c-1.8010635-0.0610352-2.9484787-0.6724014-2.9250565-1.5697021l-2.1934433-0.0821228l0.2371216-0.5897446l2.1050339,0.0648575
			c0.2694855-0.5715027,0.7745819-0.9490204,1.2573929-1.2223434l0.7389832,0.1657028
			c0.0377502-0.123436,0.0758514-0.2279816,0.0838623-0.2281342c0.015831-0.0097427,0.7095413-0.1264267,0.7095413-0.1264267
			l-0.1910095,0.4850464c-0.3484955,0.1858444-0.9814758,0.5657272-1.2178726,1.1838074
			c-0.2983627,0.7419128,0.5955048,1.0558395,1.4599228,1.0870285c1.128746,0.0357361,1.8344498-0.2983017,2.9554672-1.1121521
			c1.302124-0.958786,2.6295166-1.4176865,4.5588379-1.3495712c1.7210159,0.0625763,3.1156693,0.6410065,3.0943375,1.6515579
			L133.1954803,126.5318451z"/>
		<path class="st17" d="M133.1452942,126.6583405l-2.1943054-0.0764542
			c-0.2424011,0.5581436-0.8616333,1.1214294-1.538147,1.4391403l-1.3645477-0.2817612
			c0.658371-0.3275146,1.2688599-0.8145676,1.4815369-1.3528061c0.2701416-0.6835861-0.4385681-1.1771011-1.6768265-1.2200928
			c-1.1952591-0.041481-2.0832825,0.3082657-3.0154037,0.9976578c-1.2581253,0.9512863-2.4974823,1.5232925-4.3877029,1.4573364
			c-1.8034363-0.0624924-2.94841-0.6788483-2.9243851-1.5754776l-2.1958694-0.0764236l0.2358093-0.5967484l2.1091003,0.0734253
			c0.2713547-0.5762024,0.7751999-0.9580231,1.2550201-1.224144l1.3385391,0.290535
			c-0.3409576,0.1925583-0.9745407,0.5712433-1.2178192,1.1870346c-0.292511,0.7411652,0.5960846,1.0552521,1.4653625,1.0852509
			c1.1303787,0.0394592,1.8366089-0.297699,2.949707-1.1070862c1.3048325-0.9599838,2.6317978-1.4206619,4.5657806-1.3536758
			c1.7174683,0.0599365,3.1165314,0.6453094,3.0941162,1.6493149l2.259964,0.0784683L133.1452942,126.6583405z"/>
	</g>
</g>
</svg>
