<?xml version="1.0" encoding="utf-8"?>
<!-- Generator: Adobe Illustrator 22.0.1, SVG Export Plug-In . SVG Version: 6.00 Build 0)  -->
<svg version="1.1" id="Layer_1" xmlns="http://www.w3.org/2000/svg" xmlns:xlink="http://www.w3.org/1999/xlink" x="0px" y="0px"
	 viewBox="0 0 156 156" style="enable-background:new 0 0 156 156;" xml:space="preserve">
<style type="text/css">
	.st0{fill:#FFD9B2;}
	.st1{fill:#F7AC76;}
	.st2{fill:none;stroke:#3643C3;stroke-width:0.5;stroke-linecap:round;stroke-linejoin:round;stroke-miterlimit:10;}
	.st3{fill:#233764;}
	.st4{fill:none;stroke:#F7AC76;stroke-width:0.5;stroke-linecap:round;stroke-linejoin:round;stroke-miterlimit:10;}
	.st5{fill:#161718;}
	.st6{fill:#FFFFFF;}
	.st7{fill:#F06449;}
	.st8{fill:#BE412D;}
	.st9{fill:#FE8E60;}
	.st10{fill:#7D4C47;}
	.st11{fill:#4456D6;}
	.st12{fill:#203881;}
	.st13{fill:#6582FC;}
	.st14{fill:#DDA103;}
	.st15{fill:#FBC32E;}
	.st16{fill:none;stroke:#DDA103;stroke-width:0.5;stroke-miterlimit:10;}
	.st17{fill:#FBE6BB;}
	.st18{fill:none;stroke:#BE412D;stroke-width:0.5;stroke-linecap:round;stroke-linejoin:round;stroke-miterlimit:10;}
	.st19{fill:none;stroke:#F06449;stroke-width:0.5;stroke-linecap:round;stroke-linejoin:round;stroke-miterlimit:10;}
	.st20{fill:#F34B4B;}
	.st21{fill:#FC7070;}
	.st22{fill:none;stroke:#FFFFFF;stroke-miterlimit:10;}
	.st23{fill:#FC9F9F;}
	.st24{fill:#408A6F;}
	.st25{fill:#64B48D;}
	.st26{fill:none;stroke:#FBE6BB;stroke-width:0.5;stroke-linecap:round;stroke-linejoin:round;stroke-miterlimit:10;}
	.st27{fill:none;stroke:#F7AC76;stroke-width:0.25;stroke-linecap:round;stroke-linejoin:round;stroke-miterlimit:10;}
	.st28{fill:#A0665A;}
	.st29{fill:#6C3F44;}
	.st30{fill:none;stroke:#6C3F44;stroke-width:0.5;stroke-linecap:round;stroke-linejoin:round;stroke-miterlimit:10;}
	.st31{fill:none;stroke:#7D4C47;stroke-width:0.5;stroke-linecap:round;stroke-linejoin:round;stroke-miterlimit:10;}
	.st32{fill:none;stroke:#F34B4B;stroke-width:0.5;stroke-linecap:round;stroke-linejoin:round;stroke-miterlimit:10;}
	.st33{fill:none;stroke:#FC7070;stroke-width:0.5;stroke-linecap:round;stroke-linejoin:round;stroke-miterlimit:10;}
	.st34{fill:#EAE8F3;}
	.st35{fill:#40304A;}
	.st36{fill:none;stroke:#43334E;stroke-linecap:round;stroke-linejoin:round;stroke-miterlimit:10;}
	.st37{fill:#32775B;}
	.st38{fill:none;stroke:#233764;stroke-width:0.5;stroke-linecap:round;stroke-linejoin:round;stroke-miterlimit:10;}
	.st39{fill:none;stroke:#408A6F;stroke-width:0.5;stroke-linecap:round;stroke-linejoin:round;stroke-miterlimit:10;}
	.st40{fill:#3643C3;}
	.st41{opacity:0.56;fill:url(#SVGID_1_);}
	.st42{opacity:0.52;fill:#FBC32E;}
	.st43{opacity:0.56;fill:url(#SVGID_2_);}
	.st44{fill:none;stroke:#EAE8F3;stroke-width:0.5;stroke-linecap:round;stroke-linejoin:round;stroke-miterlimit:10;}
	.st45{fill:#FEFFFD;}
	.st46{opacity:0.35;fill:#32775B;}
	.st47{fill:#43334E;}
	.st48{fill:none;stroke:#EAE8F3;stroke-width:0.25;stroke-linecap:round;stroke-linejoin:round;stroke-miterlimit:10;}
	.st49{fill:none;stroke:#FBC32E;stroke-width:0.5;stroke-linecap:round;stroke-linejoin:round;stroke-miterlimit:10;}
	.st50{fill:none;stroke:#161718;stroke-width:0.5;stroke-linecap:round;stroke-linejoin:round;stroke-miterlimit:10;}
	.st51{fill:none;stroke:#40304A;stroke-linecap:round;stroke-linejoin:round;stroke-miterlimit:10;}
	.st52{opacity:0.33;fill:#FBC32E;}
	.st53{fill:#A6A3AE;}
	.st54{fill:#5B4B68;}
	.st55{fill:#776688;}
	.st56{fill:none;stroke:#FBC32E;stroke-width:0.5;stroke-miterlimit:10;}
	.st57{fill:none;stroke:#EAE8F3;stroke-linecap:round;stroke-linejoin:round;stroke-miterlimit:10;}
	.st58{fill:none;stroke:#203881;stroke-width:2;stroke-linecap:round;stroke-linejoin:round;stroke-miterlimit:10;}
	.st59{fill:none;stroke:#40304A;stroke-width:2;stroke-linecap:round;stroke-linejoin:round;stroke-miterlimit:10;}
	.st60{fill:#FFD8B7;}
	.st61{fill:#F4E4D4;}
	.st62{fill:none;stroke:#4456D6;stroke-width:0.5;stroke-linecap:round;stroke-linejoin:round;stroke-miterlimit:10;}
	.st63{fill:none;stroke:#DDA103;stroke-width:0.25;stroke-miterlimit:10;}
	.st64{fill:none;stroke:#FFFFFF;stroke-width:0.5;stroke-linecap:round;stroke-linejoin:round;stroke-miterlimit:10;}
	.st65{fill:none;stroke:#64B48D;stroke-width:0.5;stroke-linecap:round;stroke-linejoin:round;stroke-miterlimit:10;}
	.st66{fill:none;stroke:#64B48D;stroke-linecap:round;stroke-linejoin:round;stroke-miterlimit:10;}
	.st67{opacity:0.48;fill:#64B48D;}
	.st68{fill:none;stroke:#64B48D;stroke-width:0.25;stroke-linecap:round;stroke-linejoin:round;stroke-miterlimit:10;}
	.st69{fill:none;stroke:#F06449;stroke-width:2;stroke-linecap:round;stroke-linejoin:round;stroke-miterlimit:10;}
	.st70{opacity:0.92;fill:#64B48D;}
	.st71{opacity:0.57;fill:#408A6F;}
	.st72{opacity:0.36;fill:#408A6F;}
	.st73{fill:none;stroke:#BE412D;stroke-width:2;stroke-linecap:round;stroke-linejoin:round;stroke-miterlimit:10;}
	.st74{opacity:0.65;fill:none;stroke:#408A6F;stroke-width:0.25;stroke-linecap:round;stroke-linejoin:round;stroke-miterlimit:10;}
	.st75{opacity:0.67;fill:none;stroke:#64B48D;stroke-width:0.25;stroke-linecap:round;stroke-linejoin:round;stroke-miterlimit:10;}
	.st76{opacity:0.98;fill:#64B48D;}
	.st77{fill:none;stroke:#408A6F;stroke-width:0.25;stroke-linecap:round;stroke-linejoin:round;stroke-miterlimit:10;}
	.st78{fill:none;stroke:#FFD9B2;stroke-width:0.5;stroke-linecap:round;stroke-linejoin:round;}
	
		.st79{fill:none;stroke:#FFD9B2;stroke-width:0.5;stroke-linecap:round;stroke-linejoin:round;stroke-dasharray:4.0333505,4.0333505;}
	.st80{fill:#E68B4A;}
	.st81{opacity:0.62;fill:#64B48D;}
	.st82{fill:none;stroke:#FBC32E;stroke-width:0.25;stroke-miterlimit:10;}
	.st83{fill:none;stroke:#4456D6;stroke-linecap:round;stroke-linejoin:round;stroke-miterlimit:10;}
	.st84{fill:none;stroke:#E68B4A;stroke-width:0.5;stroke-linecap:round;stroke-linejoin:round;stroke-miterlimit:10;}
	.st85{fill:none;stroke:#203881;stroke-width:0.5;stroke-linecap:round;stroke-linejoin:round;stroke-miterlimit:10;}
	.st86{opacity:0.29;fill:#EAE8F3;}
	.st87{fill:none;stroke:#A6A3AE;stroke-width:0.5;stroke-linecap:round;stroke-linejoin:round;stroke-miterlimit:10;}
	.st88{opacity:0.74;fill:#FFFFFF;}
	.st89{opacity:0.19;fill:#FFFFFF;}
	.st90{fill:none;stroke:#40304A;stroke-width:0.25;stroke-linecap:round;stroke-linejoin:round;stroke-miterlimit:10;}
	.st91{fill:none;stroke:#F34B4B;stroke-width:2;stroke-linecap:round;stroke-linejoin:round;stroke-miterlimit:10;}
	.st92{fill:none;stroke:#43334E;stroke-width:0.5;stroke-linecap:round;stroke-linejoin:round;stroke-miterlimit:10;}
	.st93{fill:none;stroke:#6582FC;stroke-miterlimit:10;}
	.st94{opacity:0.47;fill:#A6A3AE;}
	.st95{opacity:0.43;fill:#FFFFFF;}
	.st96{fill:none;stroke:#FBE6BB;stroke-linecap:round;stroke-linejoin:round;stroke-miterlimit:10;}
	.st97{fill:none;stroke:#5B4B68;stroke-width:0.5;stroke-linecap:round;stroke-linejoin:round;stroke-miterlimit:10;}
	.st98{fill:none;stroke:#40304A;stroke-width:0.5;stroke-linecap:round;stroke-linejoin:round;stroke-miterlimit:10;}
	.st99{fill:none;stroke:#DDA103;stroke-linecap:round;stroke-linejoin:round;stroke-miterlimit:10;}
	.st100{fill:none;stroke:#FBC32E;stroke-linecap:round;stroke-linejoin:round;stroke-miterlimit:10;}
	.st101{fill:none;stroke:#32775B;stroke-width:0.5;stroke-linecap:round;stroke-linejoin:round;stroke-miterlimit:10;}
	.st102{opacity:0.4;fill:#FBE6BB;}
	.st103{fill:none;stroke:#FBC32E;stroke-width:0.25;stroke-linecap:round;stroke-linejoin:round;stroke-miterlimit:10;}
	.st104{fill:none;stroke:#4456D6;stroke-miterlimit:10;}
	.st105{opacity:0.61;fill:#64B48D;}
	.st106{opacity:0.9;fill:#64B48D;}
	.st107{opacity:0.76;fill:#64B48D;}
	.st108{fill:none;stroke:#5B4B68;stroke-width:0.5;stroke-miterlimit:10;}
	.st109{opacity:0.66;fill:#A6A3AE;}
	.st110{fill:none;stroke:#43334E;stroke-miterlimit:10;}
	.st111{opacity:0.52;fill:#6582FC;}
	.st112{fill:none;stroke:#DDA103;stroke-width:0.5;stroke-linecap:round;stroke-linejoin:round;stroke-miterlimit:10;}
	.st113{fill:#46724E;}
	.st114{fill:#FE8B2E;}
	.st115{fill:none;stroke:#7D4C47;stroke-width:2;stroke-linecap:round;stroke-linejoin:round;stroke-miterlimit:10;}
	.st116{opacity:0.4;fill:#EAE8F3;}
	.st117{fill:none;stroke:#EAE8F3;stroke-width:0.5;stroke-linecap:round;stroke-miterlimit:10;}
	.st118{fill:none;stroke:#4456D6;stroke-width:0.25;stroke-linecap:round;stroke-linejoin:round;stroke-miterlimit:10;}
	.st119{opacity:0.5;fill:#EAE8F3;}
	.st120{opacity:0.46;fill:#A6A3AE;}
	.st121{fill:#E0916E;}
	.st122{fill:none;stroke:#A0665A;stroke-linecap:round;stroke-linejoin:round;stroke-miterlimit:10;}
	.st123{opacity:0.46;fill:#BE412D;}
	.st124{fill:none;stroke:#203881;stroke-linecap:round;stroke-linejoin:round;stroke-miterlimit:10;}
	.st125{fill:#DBDBE1;}
	.st126{fill:none;stroke:#6582FC;stroke-width:0.5;stroke-linecap:round;stroke-linejoin:round;stroke-miterlimit:10;}
	.st127{opacity:0.53;fill:#A6A3AE;}
	.st128{fill:none;stroke:#DDA103;stroke-miterlimit:10;}
	.st129{opacity:0.2;fill:#FFFFFF;}
	.st130{fill:#B4A1BF;}
	.st131{opacity:0.5;fill:#6582FC;}
	.st132{opacity:0.6;fill:none;stroke:#FFFFFF;stroke-linecap:round;stroke-linejoin:round;stroke-miterlimit:10;}
	.st133{opacity:0.6;fill:none;stroke:#FFFFFF;stroke-width:2;stroke-linecap:round;stroke-linejoin:round;stroke-miterlimit:10;}
	.st134{opacity:0.54;fill:#A6A3AE;}
	.st135{fill:#161718;stroke:#000000;stroke-width:0.25;stroke-miterlimit:10;}
</style>
<g id="_x33_1">
	<g>
		<path class="st14" d="M106.6136322,123.2173309c0,6.4541779-3.2589569,12.1453094-8.2190018,15.5313263
			c-0.4133377,0.2782288-0.8425827,0.5404968-1.2795944,0.7948608c-1.9634476,1.1207581-4.1492844,1.8917389-6.4779434,2.2414703
			c0.063652,0.1192474,0.1113892,0.206665,0.1113892,0.206665l-2.6628265-0.0079498H87.537262
			c-0.079567,0.0079498-0.166893,0-0.2464523-0.0079498c-3.1634827-0.0874329-6.1364059-0.9617462-8.7274246-2.4322357
			c-0.4374008-0.2464142-0.8584976-0.508667-1.2718353-0.7948608c-1.8043213-1.2240448-3.386261-2.7581024-4.6658554-4.5147247
			c-0.190567-0.2622681-0.3656006-0.5245819-0.5406418-0.7948608c-0.9058456-1.390976-1.6292801-2.9011688-2.138092-4.5147247
			c-0.087326-0.2623138-0.166893-0.5245819-0.2305374-0.7948608c-0.3974304-1.4386673-0.619812-2.9488983-0.6516418-4.5147324
			c-0.0077591-0.1271515-0.0077591-0.2623138-0.0077591-0.3974228s0-0.2623138,0.0077591-0.3974228
			c0.0318298-1.5579224,0.2464523-3.0681076,0.6438751-4.5067825c0.0714111-0.2702713,0.1432114-0.5325851,0.2305374-0.7948456
			c0.508812-1.6135712,1.2318649-3.1237488,2.1380997-4.51474c0.1746445-0.2702713,0.3578339-0.540535,0.5484009-0.7948456
			c1.2795944-1.764595,2.8533783-3.2906876,4.6499405-4.5147858c0.4133377-0.2861328,0.8425903-0.5484009,1.2796021-0.7948532
			c2.73423-1.5658264,5.9058609-2.4560547,9.2839737-2.4560547c0.1110001,0,0.2223816,0,0.3337708,0.0079575
			c0-0.0079575,0-0.0079575,0-0.0079575h2.1221848l0.063652,0.1748428c2.4322815,0.3259201,4.7135925,1.1128082,6.756218,2.2812119
			c0.4370117,0.2464523,0.8584976,0.5087204,1.2718353,0.7948532
			C103.3546753,111.0641098,106.6136322,116.7631607,106.6136322,123.2173309z"/>
		<g>
			<g>
				<path class="st15" d="M98.3868713,107.6939087H77.2756348c0.4133377-0.2861328,0.8425903-0.5484009,1.2796021-0.7948532
					H97.115036C97.5520477,107.1455078,97.9735336,107.4077759,98.3868713,107.6939087z"/>
			</g>
			<g>
				<path class="st15" d="M99.7219696,112.2086945v0.7948456H72.0772934
					c0.1746445-0.2702713,0.3578339-0.540535,0.5484009-0.7948456H99.7219696z"/>
			</g>
			<g>
				<path class="st15" d="M99.7219696,117.51828v0.7948456H69.7086563c0.0714111-0.2702713,0.1432114-0.5325851,0.2305374-0.7948456
					H99.7219696z"/>
			</g>
			<g>
				<path class="st15" d="M99.7219696,122.8199081v0.7948456H69.0647812
					c-0.0077591-0.1271515-0.0077591-0.2623138-0.0077591-0.3974228s0-0.2623138,0.0077591-0.3974228H99.7219696z"/>
			</g>
			<g>
				<path class="st15" d="M99.7219696,128.1294861v0.7948608H69.9469604
					c-0.087326-0.2623138-0.166893-0.5245819-0.2305374-0.7948608H99.7219696z"/>
			</g>
			<g>
				<path class="st15" d="M99.7219696,133.4390717v0.7948608H72.6256943
					c-0.190567-0.2622681-0.3656006-0.5245819-0.5406418-0.7948608H99.7219696z"/>
			</g>
			<g>
				<path class="st15" d="M98.3946304,138.7486572c-0.4133377,0.2782288-0.8425827,0.5404968-1.2795944,0.7948608H78.563385
					c-0.4374008-0.2464142-0.8584976-0.508667-1.2718353-0.7948608H98.3946304z"/>
			</g>
		</g>
		<path class="st15" d="M88.0821991,141.987381c-0.0795593,0.0079498-0.1668854,0.0079498-0.2464447,0.0079498
			c-0.103241,0-0.1987152,0-0.3019485-0.0079498H88.0821991z"/>
		<path class="st15" d="M109.656517,123.2200241c0,3.0357132-0.7187347,5.9108353-2.0034943,8.4494553
			c-2.5306854,5.0161438-7.2410965,8.7400665-12.8920135,9.9252777C93.5068665,141.8623657,92.2146378,142,90.8843307,142
			c-8.3346863,0-15.4002991-5.4290466-17.8469772-12.9379883c-0.6041107-1.842804-0.9330444-3.8003693-0.9330444-5.8419876
			c0-10.3687515,8.403389-18.7723236,18.7800217-18.7723236c4.8018799,0,9.1758881,1.8045807,12.4943771,4.7637939
			C107.2326126,112.6447983,109.656517,117.6533432,109.656517,123.2200241z"/>
		<path class="st17" d="M109.656517,123.2200241c0,3.0357132-0.7187347,5.9108353-2.0034943,8.4494553l-12.8920135,9.9252777
			C93.5068665,141.8623657,92.2146378,142,90.8843307,142c-8.3346863,0-15.4002991-5.4290466-17.8469772-12.9379883
			c10.1850967-6.6448669,22.6335526-14.7655258,30.3413544-19.8505173
			C107.2326126,112.6447983,109.656517,117.6533432,109.656517,123.2200241z"/>
		<circle class="st16" cx="90.8807068" cy="123.2207947" r="16.0939999"/>
		<path class="st15" d="M87.5338058,141.987381h-0.2464523v-0.0079651
			C87.3669128,141.987381,87.4542389,141.9953308,87.5338058,141.987381z"/>
		<path class="st14" d="M96.5607529,127.1079636c0,2.4014511-1.6700897,4.6546249-4.8027802,5.168541v3.1624298h-1.9171524
			v-3.0734558c-1.7593613-0.0296783-3.5874786-0.5732117-4.6449814-1.3341827l0.721405-2.0357971h0.8697891
			c0,0,0.019783,0.2470703,0.0296783,0.513916c0.9882507,0.464447,2.2037811,0.7905884,3.4786682,0.7905884
			c2.1642151,0,3.6169205-1.2452087,3.6169205-2.9746552c0-1.6701508-1.1858597-2.7078018-3.4292068-3.6169739
			c-3.1032486-1.2155991-5.020401-2.6188965-5.020401-5.2674103c0-2.5200348,1.7986832-4.4372482,4.5952759-4.891861v-3.0635605
			h1.8778229v2.9449768c1.828125,0.059288,3.0735779,0.5435257,3.9530182,1.0673294l-0.3360977,0.8696671
			c0.1483841,0.335968,0.4449081,1.1364517,0.4449081,1.1364517h-0.8697891
			c-0.6323776-0.3656464-1.8775864-1.0376511-3.8244095-1.0376511c-2.3422775,0-3.221962,1.4032974-3.221962,2.6188889
			c0,1.5811844,1.1267471,2.3717728,3.7653046,3.4588852C94.9796906,122.8189163,96.5607529,124.4001617,96.5607529,127.1079636z"/>
		<path class="st17" d="M92.7194366,121.5454178c-2.3167496-0.9558182-3.4715729-1.682251-3.7161331-2.9133377
			c-0.0384521-0.1758575-0.0537643-0.3593674-0.0537643-0.5505295c0-1.2158279,0.8796539-2.6151657,3.2191772-2.6151657
			c0.543251,0,1.0323639,0.0535355,1.4684525,0.1376801c1.1316833,0.2140808,1.9038086,0.6269836,2.3626709,0.8946381
			l0.7568207-2.0033951c-0.2367172-0.1376343-0.5044174-0.2829208-0.802742-0.4052963
			c-0.7952728-0.344101-1.8197937-0.6117172-3.1426392-0.6575928v-2.951561h-1.8888626v3.0738907
			c-2.7983932,0.4511642-4.587944,2.3704605-4.587944,4.8938217c0,0.642334,0.1149979,1.208168,0.3289337,1.7204742
			c0.6728134,1.5904999,2.3398972,2.6151199,4.6872635,3.5327148c2.2480469,0.9176025,3.4334869,1.9498672,3.4334869,3.6244659
			c0,1.7281418-1.4606171,2.9745255-3.6168137,2.9745255c-1.7051697,0-3.2804108-0.5734863-4.3814697-1.3075714
			l-0.7265701,2.0416565c1.062973,0.7570038,2.8902359,1.3075409,4.6491699,1.3305054v3.0739288h1.9191132v-3.1580353
			c3.1277008-0.5200043,4.8022537-2.7680511,4.8022537-5.1690903
			C97.4298401,124.4052353,95.8467636,122.8224335,92.7194366,121.5454178z"/>
		<path class="st15" d="M97.4298401,127.1121445c0,2.4010391-1.6745529,4.649086-4.8022537,5.1690903v3.1580353h-1.9191132
			v-3.0739288c-1.758934-0.0229645-3.5861969-0.5735016-4.6491699-1.3305054l0.7265701-2.0416565
			c1.101059,0.7340851,2.6763,1.3075714,4.3814697,1.3075714c2.1561966,0,3.6168137-1.2463837,3.6168137-2.9745255
			c0-1.6745987-1.1854401-2.7068634-3.4334869-3.6244659c-2.3473663-0.9175949-4.0144501-1.942215-4.6872635-3.5327148
			c0.7874374-0.5199585,1.5673981-1.0322647,2.3398972-1.5369644c0.2445602,1.2310867,1.3993835,1.9575195,3.7161331,2.9133377
			C95.8467636,122.8224335,97.4298401,124.4052353,97.4298401,127.1121445z"/>
		<path class="st15" d="M95.9998398,116.498703c-0.4588623-0.2676544-1.2309875-0.6805573-2.3626709-0.8946381
			c0.7874374-0.512352,1.5599365-1.0170059,2.3167496-1.5140533c0.2983246,0.1223755,0.5660248,0.267662,0.802742,0.4052963
			L95.9998398,116.498703z"/>
	</g>
	<g>
		<line class="st57" x1="51.8082085" y1="16.9165154" x2="51.4746513" y2="14"/>
		<path class="st1" d="M32.4427795,35.240097c0,0-3.7317696-3.5838795-8.3576546-1.1106911
			c0,0,7.8240471-8.3295288,15.0830421-7.1067505c7.2589912,1.2227764,0.4034157,4.1188011,0.4034157,4.1188011"/>
		<path class="st8" d="M47.7129097,35.6118851c0,0-7.6128426-3.3432236-15.2701302-0.371788
			c0,0,5.1796455-8.9697609,9.1849594-10.5672379c4.0053139-1.5974751,10.7508698,0.5593777,10.9799461,0.6808662
			c0.2290726,0.1214867,0.1455879,5.7247028,0.1455879,5.7247028"/>
		<path class="st1" d="M63.6883888,34.3771057c0,0-7.7930031-1.9428558-15.9754791,1.2347794
			c0,0,0.6540298-9.6690693,3.2499619-11.9989605c2.5959358-2.3298912,11.2193565-0.2890091,11.3755989-0.1946907
			c0.1562386,0.0943203,3.0245895,5.1219692,3.0245895,5.1219692"/>
		<line class="st57" x1="52.6448479" y1="22.7974014" x2="56.0980263" y2="51.6767311"/>
		<path class="st58" d="M55.4956779,45.9621277l0.4107666,4.6173248c0.0995293,1.1187706,1.0871544,1.9450302,2.205925,1.8455009
			h0.0000038c1.1187706-0.0995293,1.9450302-1.0871544,1.8455009-2.205925l-0.0988617-1.1112747"/>
		<path class="st8" d="M78.1105194,30.5000477c0,0-10.7562485-0.9260941-14.4221306,3.877058
			c0,0-2.4791374-9.6792774-6.3072472-13.4087849c0,0,15.3078156,0.1072254,15.4647446,0.2309132
			c0.1569366,0.1236877,4.6625061,5.6083488,4.6625061,5.6083488"/>
		<path class="st1" d="M83.3359528,26.7214813c0,0-6.1395187,1.2205429-5.2254333,3.7785664l-6.8644562-8.2411175
			c0,0,5.5473709,0.5231895,5.7423477,0.5278645"/>
		<path class="st7" d="M34.9737091,29.007618c0,0-7.4354839,1.219574-10.8885841,5.121788
			c0,0,7.2704353-11.5813446,17.1568642-14.1125298s0.9566765,4.3412571,0.9566765,4.3412571"/>
		<path class="st7" d="M66.8787613,25.4293804c0,0,8.3359375-1.2883167,16.4571915,1.2921009
			c0,0-7.4598618-11.6787071-23.1360931-10.5260067s1.3215332,4.8953743,1.3215332,4.8953743"/>
		<path class="st0" d="M66.8787613,25.4293804c0,0-15.094162-3.1630402-31.9050522,3.5782375
			c0,0,6.6758957-12.610733,11.9556198-12.2767696c0,0,5.3146782,0.3175201,9.2583351-1.2813711
			C60.131321,13.850584,64.7779694,20.4662476,66.8787613,25.4293804z"/>
		<path class="st0" d="M59.2203789,53.2883606v-0.0076561l-1.20047-1.3611107l0.6346321-0.6958199
			c0.0995026-0.1223717,0.1147156-0.2905731,0.0459213-0.4358597l-0.7646561-1.5369682
			c-0.0917549-0.1835098-0.2982254-0.2752647-0.4893913-0.2064705l-1.3610191,0.382328l-0.3059731-0.4052429l0.4512138-1.6822548
			c0.0840988-0.2370453-0.0076561-0.4970474-0.2217827-0.6346817c-0.0687904-0.0382233-0.1375847-0.0611382-0.2064705-0.0687904
			c-0.2064743-0.0306168-0.4281578,0.0611839-0.5352211,0.2599564l-1.5599327,2.6763l2.561676,4.4809265l1.4374657,2.5233574
			l1.33815,2.3551598h0.3746758v-0.4358597h1.1929092v-3.6245155L59.2203789,53.2883606z"/>
		<path class="st1" d="M59.9697266,55.9416962c-0.6345367,0.3441048-0.955822,0.5581856-0.955822,0.5581856
			s-0.6574974,0.0535316-1.3075333,0.0764923l-1.4374657-2.5233574c1.2692642-0.3364525,2.9514732-0.7723122,2.9514732-0.7723122
			v0.0076561L59.9697266,55.9416962z"/>
		<line class="st4" x1="55.9465714" y1="49.4725494" x2="55.4549103" y2="49.6245956"/>
		<line class="st59" x1="44.1564064" y1="116.2554855" x2="131.9148712" y2="92.709053"/>
		<path class="st51" d="M66.1627121,113.6228333c-2.2196732,3.2555923-3.286644,7.2242508-3.3379669,11.1641998
			c-0.0513229,3.9399567,0.8785362,7.8536835,2.3807373,11.4963684"/>
		<path class="st51" d="M60.6626778,117.2544937c-1.5082092,2.2120895-2.2331848,4.9086838-2.2680588,7.5857773
			c-0.0348701,2.6770859,0.5969429,5.3363647,1.6176491,7.8114777"/>
		<path class="st51" d="M116.1702042,118.341713c1.044136,3.7994156,0.7666321,7.8996277-0.4623337,11.6433487
			c-1.2289658,3.7437286-3.3776016,7.1445007-5.9797745,10.103302"/>
		<path class="st51" d="M120.1955338,123.5605316c0.7094574,2.581604,0.5209045,5.3675842-0.3141479,7.9113464
			s-2.2949905,4.8544922-4.0630951,6.8649292"/>
		<g>
			
				<rect x="89.3096313" y="95.0972672" transform="matrix(-0.9917451 0.1282255 -0.1282255 -0.9917451 194.2833557 181.6562042)" class="st60" width="3.9693379" height="3.9693379"/>
			<path class="st37" d="M89.3304749,99.8540726l0.2793732,2.1607819l8.2351074-1.0647354l-0.3447266-0.6618271
				c-0.1647491-0.3221436-0.4748306-0.5153427-0.7914276-0.5068436l-1.1603699,0.0463562
				c-0.1865234,0.0111465-0.3718109-0.068573-0.5143127-0.2186432l-0.5406418-0.5716629l-0.3302917-0.4498215l-0.8628845-1.6149521
				l-4.086731,0.3782349l0.2001495,1.6373291L89.3304749,99.8540726z"/>
			<path class="st24" d="M89.356842,100.0580444l0.253006,1.95681l8.2351074-1.0647354l-0.3447266-0.6618271
				c-0.1647491-0.3221436-0.4748306-0.5153427-0.7914276-0.5068436l-1.1603699,0.0463562
				c-0.1865234,0.0111465-0.3718109-0.068573-0.5143127-0.2186432l-0.5406418-0.5716629l-0.3302917-0.4498215L91.94104,99.9961014
				L89.356842,100.0580444z"/>
			<path class="st35" d="M89.2842484,102.5808334l0.0764847,0.5915756l2.2425919-0.2899551l-0.0871658-0.6741486
				l1.6750717-0.2165756c0.2877579-0.0372009,0.5544357,0.1924973,0.5958557,0.5128403l0.012146,0.0939713l4.4388275-0.5739059
				l-0.0642929-0.4972458c-0.060791-0.470192-0.4521942-0.8071747-0.8745575-0.7525635l-7.4330978,0.9610443
				C89.4907455,101.7844009,89.2301712,102.1626129,89.2842484,102.5808334z"/>
			<circle class="st61" cx="93.5428314" cy="98.3967514" r="0.1456226"/>
			<circle class="st61" cx="93.0139389" cy="97.6217117" r="0.1456226"/>
			<path class="st40" d="M76.8889771,42.8824196c0,0-3.1029816-0.1791763-2.9603043,2.4365349
				c0.1426849,2.6157112,4.1646118,0.6476669,4.1580582,0.3827858c-0.0065536-0.2648773-0.7901535-2.3190536-0.7901535-2.3190536"/>
			<path class="st11" d="M70.5143814,50.306179l-0.3057938,0.9481659c-0.2906647,0.9099426-0.5046997,1.8963356-0.9099884,2.7604027
				c-0.3593674,0.7417412-0.3746719,1.6975632-0.565834,2.5080948c-0.061142,0.2523499-0.1300278,0.5046539-0.1911697,0.7570038
				c-0.512352,1.9269524-1.1928177,3.8385963-2.2022171,5.5514183c-0.2141266,0.3593674-0.4664307,0.7187805-0.8411026,0.9099464
				c-0.412941,0.214077-0.9099884,0.1988182-1.3611145,0.0917549c-0.9863396-0.2370453-1.8428459-0.8334999-2.5998497-1.5216637
				c-0.1528931-0.1376305-0.3057861-0.282917-0.4511223-0.4358597c-0.9939957-0.9863892-1.8811188-2.0722351-2.6457748-3.2497902
				c-0.1911659-0.2905731-0.3746758-0.5964546-0.5505333-0.9022903c-0.489296-0.8411522-1.1048203-1.6662102-1.582798-2.4392586
				c0.2523041-0.2829208,3.2651024-2.362812,3.3951263-2.194561c0.6193237,0.8487549,1.2309952,1.6975136,1.8810272,2.5233574
				c0.6194153,0.7799644,1.2539558,1.5751915,2.0186119,2.2098694c0.1148109-0.2523499,0.1606407-0.5276146,0.1988182-0.8028793
				c0.2447433-1.7204781,0.512352-3.4409561,0.7876205-5.1614342c0.1376801-0.8640671,0.2753601-1.7204819,0.4206009-2.5769386
				c0.1222763-0.726387,0.2599564-1.4528198,0.8258896-1.9727821c0.6345367-0.5888023,1.6822052-0.7417412,2.500351-0.542923
				C69.917923,47.1404877,70.8890533,48.7309875,70.5143814,50.306179z"/>
			<path class="st40" d="M68.5415955,57.2798462c-0.512352,1.9269524-1.1928177,3.8385963-2.2022171,5.5514183
				c-0.2141266,0.3593674-0.4664307,0.7187805-0.8411026,0.9099464c-0.412941,0.214077-0.9099884,0.1988182-1.3611145,0.0917549
				c-0.9863396-0.2370453-1.8428459-0.8334999-2.5998497-1.5216637c-0.1528931-0.1376305-0.3057861-0.282917-0.4511223-0.4358597
				c-0.9939957-0.9863892-1.8811188-2.0722351-2.6457748-3.2497902l5.9202805,3.8987045
				c0.1938095,0.1276283,0.4542542,0.0752831,0.5837021-0.1173172l1.8923416-2.8156204
				c0.0541992-0.0806313,0.0794601-0.1722069,0.0706635-0.268959c-0.053894-0.5930672-0.2626114-2.8956184-0.4170532-4.6777725
				c-0.0408936-0.4719429,0.6059113-0.6407814,0.8055573-0.2111931c0.6074524,1.3070908,1.2674026,2.7833595,1.2380371,2.8463516
				H68.5415955z"/>
			<path class="st0" d="M95.4469681,65.5744934c0.1382141,0.0890961,0.2183151,0.2449036,0.2223511,0.4079819
				c0.0017471,0.0706863-0.0073929,0.1416397-0.043869,0.2132721c-0.005043,0.0110168-0.0099487,0.0274734-0.0205612,0.0494537
				c-0.0363464,0.066185-0.0895615,0.1165085-0.1482239,0.1614609c-0.1281967,0.0902405-0.3018188,0.1162567-0.4554214,0.0602188
				l-2.2834625-0.8139572l-1.7402039-0.1909027c-0.8453445-0.0878677-1.6075821-0.5423203-2.0927277-1.2429886l-2.2394867-1.9032021
				l2.5924606-2.08255l1.4910355,1.7693787l0.6949234,0.8260384l2.2672501-0.0561066
				c0.304512-0.007534,0.6051941,0.0557518,0.8753738,0.1959686l2.1761703,1.0940781
				c0.1046219,0.0518036,0.1930466,0.1148987,0.2659531,0.1947174l0.0001297,0.0054398
				c0.2059555,0.1961975,0.33255,0.4705353,0.3399506,0.7695389l-2.5211639,0.1331863l0.0058441,0.0106812l0.0053101-0.0001297
				L95.4469681,65.5744934z"/>
			<path class="st1" d="M95.456665,66.406662c-0.1281967,0.0902405-0.3018188,0.1162567-0.4554214,0.0602188l-2.2834625-0.8139572
				l-1.7402039-0.1909027c-0.8453445-0.0878677-1.6075821-0.5423203-2.0927277-1.2429886l-2.2394867-1.9032021l2.5924606-2.08255
				l1.4910355,1.7693787l-1.0385513,2.5058632l2.915535,0.6241989c0.0590668,0.0126495,0.1165924,0.0316238,0.1715851,0.0566101
				L95.456665,66.406662z"/>
			<path class="st11" d="M91.1536407,61.4858513l-2.933815,3.3834419l-1.899559-1.7589149l-0.0522232-0.0532188l-4.354187-4.0176773
				c-0.1044312-0.0998764-0.1888809-0.2193794-0.2468185-0.3517227l-1.825531-4.505909l-0.2201462-1.0367737L79.364006,53.188591
				l-1.399353,0.2295723l-0.1781616,0.0311279l-0.3959732,0.0618477l-0.6769485-4.0659027
				c-0.2604599-1.5972595,0.8223648-3.1149826,2.4198151-3.3820763l0.7062225-0.1180153
				c0.2111359-0.0308304,0.4222183-0.0484314,0.626297-0.033165c0.6257019,0.0327072,1.2097397,0.262661,1.6802902,0.6430435
				c0.555809,0.4273796,0.9512787,1.0639954,1.075531,1.8098564l2.3688812,8.0960426l4.7076569,4.2518845l0.1174774,0.1066055
				L91.1536407,61.4858513z"/>
			<path class="st13" d="M90.2982635,60.7128067c-1.1352539,1.4842072-1.9836197,2.6155663-1.9836197,2.6155663
				l-4.4252472-5.4614677l-1.6987457-7.2523689l-1.6339722-0.0166168l-1.3524323-2.4386292l2.9419479-1.6042671
				c0.555809,0.4273796,0.9512787,1.0639954,1.075531,1.8098564l2.3688812,8.0960426L90.2982635,60.7128067z"/>
			<path class="st40" d="M86.2666245,63.0597191l-4.3541412-4.0216179
				c-0.1058273-0.1007195-0.1902924-0.2183037-0.2423706-0.3475838l-0.9096451-2.2353668l-0.921196-2.2730675l-0.2161865-1.0391808
				l-0.2600327,0.0444908l-1.3979874,0.230442L80.5320206,52.0541l0.2797089-0.3442955
				c0.3063812-0.3720512,0.9090958-0.2020073,0.97509,0.2751236l0.371788,2.7110367l0.4990082,3.6763115
				C82.6576157,58.3722763,84.77034,61.0782852,86.2666245,63.0597191z"/>
			
				<rect x="77.3411102" y="98.0830231" transform="matrix(-0.9875773 0.1571339 -0.1571339 -0.9875773 173.390152 186.4275055)" class="st60" width="3.9693379" height="3.9693379"/>
			<path class="st0" d="M70.5662994,45.0702324c0,0,3.8608475-1.3215141,8.0391922-0.105835
				c0,0,0.5715561,2.7173157,0.3251648,3.0341415c-0.2463913,0.3168221-3.7835388,1.2941551-4.0294952,1.3002434
				c-0.2459564,0.0060844-3.8254776-1.713192-3.8182144-1.8263626"/>
			<path class="st0" d="M77.7830734,36.1770096l0.080246,3.2427254c0.0225983,0.9133682-0.1836624,1.8153877-0.6034927,2.6256256
				c-0.2453003,0.4743996-0.6361465,0.8383217-1.0936737,1.0496368c-0.0450134,0.0238495-0.0903091,0.0421257-0.1356049,0.0603981
				l0.1308289,5.2866249l-3.7223434,0.0921135l-0.1623306-6.5597382c-0.1334152-0.0824738-0.2319794-0.1427917-0.2671127-0.1762314
				c-0.1641083-0.1672058-0.2943573-0.3525429-0.4023056-0.561306c-0.1500778-0.2933502-0.2325592-0.6225433-0.2408981-0.9594307
				l-0.1531448-6.1887054l5.0697479-0.1254578C77.8650742,34.6439056,77.7830734,36.1770096,77.7830734,36.1770096z"/>
			<path class="st1" d="M71.528862,37.6113892l0.0437927,1.7697372c0.0048065,0.1941566-0.0822525,0.3677177-0.2164383,0.4852638
				l-0.0675278-2.7289658C71.4285202,37.248188,71.5240555,37.4172325,71.528862,37.6113892z"/>
			<path class="st3" d="M77.5731277,34.1047096c-0.032196,0.0287743-0.0648956,0.0569687-0.0981064,0.0845718
				c0.053894-0.0447922,0.3230667,0.2727814,0.3505478,0.3131371c0.1003342,0.1473312,0.1298752,0.2954979,0.1664963,0.4651031
				c0.0830765,0.384697,0.1465302,0.7496834,0.119339,1.1458511c-0.0279999,0.4081192-0.1159668,0.8455887-0.2995529,1.2153511
				c0.0129395-1.0122414-1.1040878-2.1814766-1.1040878-2.1814766l-4.1706543,0.0868683
				c0.0280151,0.0373611,0.0561676,0.0692749,0.0790176,0.1122742c0.0280228,0.037426,0.0505981,0.0694771,0.0681305,0.112545
				c0.0504684,0.0640335,0.0850067,0.1393509,0.1085281,0.2094994c0.0055771,0.0107536,0.0114212,0.0214996,0.0116882,0.0323181
				c0.0342712,0.0753937,0.0523453,0.1401634,0.0702896,0.2105141c0.0195541,0.1246376,0.0276947,0.2386627,0.0143204,0.3532219
				c-0.0048981,0.0273514-0.0095367,0.0546951-0.0143051,0.0874214c-0.0096741,0.0491867-0.0245209,0.1040115-0.0399094,0.147892
				c-0.0257339,0.055027-0.0513306,0.1154976-0.0827713,0.1652222c-0.0364838,0.0608063-0.0735092,0.1106682-0.11026,0.1605225
				c-0.0423279,0.0500603-0.0846558,0.099987-0.127121,0.1446037c-0.1380081,0.1339836-0.2985916,0.2467384-0.4540024,0.3430977
				c-0.1019287,0.0569115-0.2038574,0.1138916-0.3004761,0.1597862c-0.0594635,0.0231857-0.1129532,0.0517387-0.1668396,0.0748558
				c-0.0646362,0.0288277-0.1347122,0.0522804-0.1834259,0.0698204c-0.1292801,0.0466995-0.2158203,0.0706253-0.2158203,0.0706253
				l-0.1890869,1.8163986l-0.5992203-0.0396271l-0.0217667,0.0005379c-0.1077499,0.0026665-0.4905014-1.3908653-0.5198746-1.4821396
				c-0.3785553-1.1764679-0.7457047-2.3397255-0.586792-3.5940247c0.0564499-0.445549,0.1672897-0.8843689,0.3324051-1.3021278
				c0.1498642-0.3791885,0.3690414-0.7673798,0.7417984-0.9326057c0.5171127-0.2292137,1.1060791,0.0507431,1.6010742,0.3244858
				c-0.0831528-0.5389481,0.3568115-1.0526905,0.8747406-1.2233601s1.0843353-0.0749779,1.610878,0.0669117
				s1.0499115,0.3298779,1.5951233,0.3411903c0.3710403,0.0076981,0.743576-0.0685806,1.0817337-0.221489
				c0.3654938-0.165266,0.7548141-0.4254303,1.1323547-0.2899456c0.249855,0.0896645,0.4151535,0.3429508,0.4599686,0.6045971
				c0.0448227,0.2616463-0.0133743,0.5304451-0.0985641,0.7818604
				C78.4058609,33.1382828,78.0448456,33.6831055,77.5731277,34.1047096z"/>
			<path class="st1" d="M76.0477753,43.9149818l-0.0188293-0.7607956c-0.0090637,0.1842804-2.0281906-0.4453888-2.2711334-0.6143799
				c-0.1295547-0.0299339-0.1939697,0.1507225-0.074707,0.2095146C74.3138123,43.34552,75.0948486,43.7435455,76.0477753,43.9149818
				z"/>
			<path class="st4" d="M76.1103973,38.7126007l0.4097519,0.4827995c0.1071014,0.1261864,0.0901718,0.3156128-0.0376053,0.4208069
				l-0.342804,0.2822342"/>
			<path class="st11" d="M81.1728745,63.2162094c-0.0001373,0.0131493-0.000206,0.0197449-0.000206,0.0197449
				c-3.5894928,1.7821655-7.3477478,2.0140839-11.2747116,0.6826668c-0.3348083-0.1154556-0.6761551-0.2441254-1.0174408-0.3793526
				l-0.4844131-3.5565948l-0.1290894-0.9106445l-0.3678436-2.7119522l-0.2210922-1.5771141l-0.23909-1.7683716l-0.9329147-6.1046333
				l0.2846909-0.1289024l0.1324234-0.0579338l1.1385193-0.5090065l0.2052155-0.0967293l2.2972488-1.050705
				c0.4858398,0.8220139,1.4099655,1.3058281,2.3441086,1.4603119c0.9340744,0.1610413,1.8908081,0.032383,2.8346863-0.1293106
				c0.2905426-0.056366,0.5744324-0.106205,0.865097-0.1823158c0.2113495-0.0439835,0.422821-0.107708,0.621376-0.1979523
				c0.0198517-0.0063934,0.0331039-0.0128136,0.0529556-0.019207s0.039711-0.0127869,0.052887-0.019249
				c0.4964218-0.2189674,0.843338-0.6371689,1.1380386-1.1020279c0.0400925-0.058876,0.5715256,0.1639481,1.1552582,0.4400711
				c0.0262299,0.0068626,0.0589905,0.0203476,0.0852356,0.0338058c0.0854034,0.0338058,0.1639862,0.0741425,0.2427902,0.1078796
				c0.5639191,0.2627296,1.0950241,0.5251274,1.1868134,0.5721893c0.1574478,0.0674782-0.3486862-0.0562706-0.3635406,0.1149063
				c0,0,0.0088272,0.4218178,0.0279694,1.1336327l-0.0000687,0.0065956
				c0.0407791,1.8190804,0.1283417,5.5165863,0.2060013,8.8977165c0.0548706,2.3793411,0.1049042,4.5938644,0.1312637,5.8856163
				L81.1440353,62.16819L81.1728745,63.2162094z"/>
			<path class="st13" d="M81.1450424,62.0693436c-5.4435196,0.0698433-11.1370773,0.1042023-11.1370773,0.1042023
				l-0.9853287-6.3176155c-0.1844788-1.1828423,0.3933792-2.3541908,1.4442673-2.9275894l10.3408737-5.6423302
				c0.0407791,1.8190804,0.1283417,5.5165863,0.2060013,8.8977165
				C81.0686493,58.5630684,81.1186829,60.7775917,81.1450424,62.0693436z"/>
			<path class="st2" d="M73.4475937,46.983223c0.2454453,0.3780479,0.5200577,0.7371521,0.8205948,1.0730629"/>
			<path class="st40" d="M79.6296921,45.3147316l-2.8739243,1.2926407l0.4740067-0.5903549
				c0.0191345-0.0069084,0.0318375-0.0136566,0.050972-0.020565s0.038269-0.0138168,0.0574036-0.020649
				c0.4959259-0.2179642,0.8393173-0.6315689,1.1364212-1.1017914
				C78.5115662,44.815258,79.0443497,45.0399437,79.6296921,45.3147316z"/>
			<path class="st40" d="M69.9078827,47.8406639c-0.0197678,0.015564-0.0473328,0.0160866-0.0722961,0.0129814
				c-0.1658249-0.0206413-0.4003906-0.1388168-0.8279343-0.307888c-0.6945572-0.2746582-1.3891068-0.5493164-2.0836639-0.8239784
				l1.1351929-0.5122337l0.2043991-0.0921249l1.3086472,0.9904289
				C69.6308594,47.2131081,69.9996567,47.7484016,69.9078827,47.8406639z"/>
			<path class="st6" d="M72.0719376,43.9832726c0.2301254,0.6964607,0.6653137,1.3394279,1.2826767,1.7355156
				c0.6173553,0.3960876,1.4242096,0.5197945,2.1032104,0.2423553c0.656517-0.2682495,1.1183395-0.8561668,1.5490189-1.4196167
				c0.0210876,0.1894302,0.0811157,0.4519768,0.0152969,0.633976c-0.0741882,0.205162-0.2148743,0.4054909-0.3444061,0.5790329
				c-0.2689819,0.3603821-0.612854,0.6653061-1.0054092,0.8851433c-0.6266403,0.3509331-1.3732376,0.4827919-2.0821762,0.3677406
				c-0.5948181-0.0965309-1.1546249-0.3607292-1.6440277-0.7123146c-0.4894028-0.3515892-0.9118271-0.7890472-1.2945633-1.2544937"
				/>
			<path class="st11" d="M74.1472778,47.9793892l0.0032272,0.1304893c0,0-5.3111801-0.2711601-6.150177-1.6377449
				c-0.1474228-0.2465935-0.2398834-0.461937-0.2773819-0.6568604c-0.0428085-0.1948547-0.0360947-0.3636398,0.0091171-0.5116615
				c0.0909729-0.2851028,0.3144455-0.4865494,0.5830688-0.6237602c0.3493271-0.1718864,0.7715607-0.2529984,1.0700912-0.2876129
				c0.2170258-0.0217094,0.3694153-0.0254784,0.3694153-0.0254784c0.1998138-2.6925087,2.5351639-1.5425301,2.5351639-1.5425301
				c0.0018845,0.0761261-0.0019455,0.1469498-0.000061,0.2230797c0.0407715,1.6474037,0.6741638,3.0571976,1.1912231,3.942028
				C73.8444977,47.6169014,74.1472778,47.9793892,74.1472778,47.9793892z"/>
			<path class="st21" d="M93.6574249,95.9095764l-4.3355484,0.344101l-1.2541428-1.039917
				c-0.7261963-0.6041107-1.101059-1.5293198-1.0092163-2.4698792l0.1071625-1.1316757c0,0-0.045929-0.7340851-0.1071625-1.8504562
				c-0.0840073-1.3687668-0.1911621-3.3033218-0.3057861-5.1996613c-0.1758575-3.0510178-0.7952728-5.574379-0.8184204-5.8496475
				l-6.2778015-6.2395782L79.6490402,72.46521l0.0153046,0.1758575l0.114624,1.139328l2.0875015,20.4775391l0.0459213,0.4434738
				l0.5201035,0.9558182c0.4891129,0.9099426,0.4584961,2.0187073-0.0996857,2.8904266l-0.6268845,1.0170059l-1.0323639,0.2064285
				l-4.1750031,0.8258438L72.7977371,84.523819l-3.0739365-13.3279648c-0.298317-1.3075333-0.4816437-2.6456833-0.5428772-3.9914932
				l-0.0840073-2.0798874l-0.298317-2.1410332c0.3210983,0.0076561,0.6347275,0.0153084,0.9479828,0.0153084
				c3.8617401,0.0458794,7.6618729-0.2217789,11.4086227-0.8105354v1.5445786
				c0.0918503,0.130024,0.2064743,0.2753105,0.3442459,0.4358559c1.9041748,2.2710571,7.9601974,7.4401474,10.5065689,9.7799988
				c0.8255157,0.7570038,1.2996902,1.812233,1.3228378,2.9286041l0.0914764,5.4061279L93.6574249,95.9095764z"/>
			<path class="st5" d="M75.4819717,41.9921455c-0.0458603-0.0045815-0.0917206-0.0091667-0.1432953-0.0191879
				c-0.4248657-0.0866928-0.7075119-0.4282303-0.8938522-0.8005981c-0.0719681-0.1353149-0.1267929-0.2767754-0.1700439-0.4070816
				c-0.0001373-0.0057144-0.0059967-0.0112877-0.006134-0.0170021c-0.000145-0.0057144-0.0059967-0.0112877-0.0061417-0.0170021
				c-0.0429688-0.1188812-0.0743713-0.2380447-0.1001968-0.3573494c-0.0065613-0.0341454-0.0129852-0.0625763-0.0195389-0.0965843
				c-0.006424-0.0284309-0.0186996-0.062439-0.0138397-0.0968666c-0.0002823-0.0114288,0.0051498-0.0229988,0.0164413-0.0289993
				c0.0054321-0.01157,0.0167236-0.0118484,0.022438-0.0175705c0.0338669-0.0122719,0.068573,0.0038834,0.1030045,0.0088882
				c0.022995,0.0050087,0.051857,0.0157318,0.0747147,0.0208855c0.0632858,0.0155869,0.1264343,0.0311813,0.1897202,0.0467682
				c0.074852,0.021019,0.1495743,0.0420456,0.224144,0.0572128c0.0862885,0.0207367,0.1667175,0.0416222,0.2472839,0.0625
				c0.0862885,0.0264549,0.1668625,0.0473328,0.253006,0.0679359c0.0805664,0.0208778,0.1610031,0.0417595,0.2414322,0.0626411
				c0.0748596,0.0210228,0.1494293,0.0363312,0.2242889,0.0572128c0.0631485,0.0157318,0.1264267,0.0311813,0.1897125,0.0467682
				c0.0517197,0.015873,0.0977173,0.0261726,0.1437225,0.0364685c0.028717,0.0107269,0.051712,0.0158768,0.0804291,0.0208855
				c0,0,0,0,0.0057144-0.0001411c0.0172882,0.0052872,0.1034241,0.0258904,0.1839981,0.0524864
				c0.0862885,0.0207367,0.1667175,0.0416222,0.1667175,0.0416222C76.6096497,40.9359474,76.3806,42.0613976,75.4819717,41.9921455z
				"/>
			<path class="st6" d="M76.3289795,40.6744156l-0.083519,0.316288c-0.0364761,0.1437187-0.1885147,0.2331123-0.3322296,0.1967812
				l-1.6384506-0.4222069c-0.0001373-0.0057144-0.0059967-0.0112877-0.006134-0.0170021
				c-0.000145-0.0057144-0.0059967-0.0112877-0.0061417-0.0170021c-0.0429688-0.1188812-0.0743713-0.2380447-0.1001968-0.3573494
				c-0.0065613-0.0341454-0.0129852-0.0625763-0.0195389-0.0965843c-0.006424-0.0284309-0.0186996-0.062439-0.0138397-0.0968666
				c-0.0002823-0.0114288,0.0051498-0.0229988,0.0164413-0.0289993c0.0054321-0.01157,0.0167236-0.0118484,0.022438-0.0175705
				c0.0338669-0.0122719,0.068573,0.0038834,0.1030045,0.0088882c0.022995,0.0050087,0.051857,0.0157318,0.0747147,0.0208855
				c0.0632858,0.0155869,0.1264343,0.0311813,0.1897202,0.0467682c0.074852,0.021019,0.1495743,0.0420456,0.224144,0.0572128
				c0.0862885,0.0207367,0.1667175,0.0416222,0.2472839,0.0625c0.0862885,0.0264549,0.1668625,0.0473328,0.253006,0.0679359
				c0.0805664,0.0208778,0.1610031,0.0417595,0.2414322,0.0626411c0.0748596,0.0210228,0.1494293,0.0363312,0.2242889,0.0572128
				c0.0631485,0.0157318,0.1264267,0.0311813,0.1897125,0.0467682c0.0517197,0.015873,0.0977173,0.0261726,0.1437225,0.0364685
				c0.028717,0.0107269,0.051712,0.0158768,0.0804291,0.0208855c0,0,0,0,0.0057144-0.0001411
				C76.1622696,40.6272163,76.2484055,40.6478195,76.3289795,40.6744156z"/>
			<path class="st3" d="M74.4437943,41.1752281c0.1879044,0.3671608,0.4724884,0.7083702,0.8966522,0.7966881
				c0.0488815,0.0097809,0.0976868,0.0179939,0.1432343,0.0200081c0.0572815-0.2837982-0.0979919-0.5999832-0.3969421-0.7635727
				C74.8736572,41.1128311,74.6364517,41.0998764,74.4437943,41.1752281z"/>
			<path class="st0" d="M71.5212173,37.37286l0.0437927,1.7696381c0.008606,0.34795-0.2662048,0.6367111-0.614151,0.6453209
				s-0.6367111-0.2662048-0.6453171-0.6141548l-0.0437927-1.7696342c-0.0043106-0.1739769,0.0623779-0.3325424,0.1732483-0.4495316
				c0.1113739-0.1165276,0.2669373-0.1909866,0.4409103-0.1952896C71.2238617,36.7505989,71.512619,37.0254135,71.5212173,37.37286z
				"/>
			<path class="st1" d="M71.1578903,37.391983l0.0135574,0.5480499l-0.4965363,0.2465935l-0.0193558-0.7822113
				c-0.0033951-0.1370125,0.1079407-0.253994,0.2449493-0.2573814
				C71.0375214,37.1436424,71.1544952,37.2549706,71.1578903,37.391983z"/>
			<path class="st1" d="M70.6881943,38.7232475l0.4972458-0.2178802l0.0127106,0.5137634
				c0.0033951,0.1370125-0.107933,0.2539902-0.2449493,0.2573814c-0.1370087,0.0033913-0.2539902-0.1079369-0.2573776-0.2449493
				L70.6881943,38.7232475z"/>
			<path class="st2" d="M75.3383102,46.9673157c-0.1769333,0.2923546-0.3679962,0.5761566-0.5723038,0.8500786"/>
			<path class="st11" d="M78.4873734,45.2823181c-0.2589264,0.9693832-3.3580704,2.3475685-3.3580704,2.3475685l0.4299011-0.9095421
				c0,0,1.8267593-1.5358925,1.3291321-3.8357811c0,0,0.0921249-0.0131683,0.2230072-0.0055161
				c0.3208466-0.0024948,0.8839798,0.1032448,0.8676071,0.7619247c-0.0020828,0.14151-0.0358734,0.3110313-0.0964737,0.5028687
				c0,0,0.092926,0.0194855,0.2087021,0.0819702c0.1432495,0.0671158,0.3206406,0.2041855,0.4027557,0.4415016
				C78.5466843,44.8238029,78.5572433,45.0249023,78.4873734,45.2823181z"/>
			<line class="st62" x1="85.5916824" y1="56.4607162" x2="84.669899" y2="56.8646393"/>
			<path class="st37" d="M82.2529602,102.3922882l0.3416977,2.147522l-9.4811096,1.5085449l0.1812592-0.7347488
				c0.088768-0.3603287,0.3709183-0.6406555,0.731514-0.7274094l1.3010559-0.311821
				c0.2103806-0.0501556,0.3914032-0.1825714,0.5037003-0.3675995l0.4317245-0.7126541l1.0183182-2.3205948l4.1453094-0.9461441
				l0.195694,1.5000229L82.2529602,102.3922882z"/>
			<path class="st24" d="M82.285553,102.5971298l0.3091049,1.9426804l-9.4811096,1.5085449l0.1812592-0.7347488
				c0.088768-0.3603287,0.3709183-0.6406555,0.731514-0.7274094l1.3010559-0.311821
				c0.2103806-0.0501556,0.3914032-0.1825714,0.5037003-0.3675995l0.4317245-0.7126541l0.0746231,1.0005417L82.285553,102.5971298z"
				/>
			<path class="st35" d="M83.069458,104.9933929l0.0937347,0.5890808l-2.5832977,0.4110336l-0.1068115-0.6713181
				l-1.9295502,0.3070068c-0.3314743,0.052742-0.5587997,0.3542099-0.508049,0.6732025l0.0148926,0.0935822l-5.1131897,0.8135605
				l-0.0787811-0.4951553c-0.074501-0.4682159,0.2591858-0.9105301,0.7457199-0.9879456l8.5623627-1.3623581
				C82.5988846,104.2952805,83.0031967,104.5769196,83.069458,104.9933929z"/>
			<circle class="st61" cx="76.7667847" cy="102.9951706" r="0.1456226"/>
			<circle class="st61" cx="77.2824173" cy="102.265358" r="0.1456226"/>
			<circle class="st61" cx="77.7412033" cy="101.5164108" r="0.1456226"/>
			<path class="st20" d="M90.5442657,96.1579819l-1.2192535,0.0957108l-1.2338486-1.0270233
				c-0.7366714-0.6131744-1.122345-1.5510559-1.0301361-2.5050812l0.1072845-1.1100388
				c0,0-1.1855392-12.3145218-1.2313919-12.898613l-6.2798309-6.2423553l0.0205917-1.5629044
				c0.0083237-0.631958,0.7547531-0.9619827,1.2244949-0.5391541c2.3597031,2.1240692,6.2073059,7.7439728,6.2073059,7.7439728
				l0.8306808,13.8568649C87.9401627,91.9693604,88.052475,94.5465164,90.5442657,96.1579819z"/>
			<path class="st32" d="M81.0823441,63.8440514c0,0-7.8932724,1.4176674-11.798912,0.8745384"/>
		</g>
		<path class="st23" d="M93.4234772,82.2841415l-4.603157,5.9643173L87.9792175,77.237381l-7.6211777-8.2940216
			c-1.0470276-1.1394577-0.9551239-2.9163437,0.2038651-3.9417114l0.9406891-0.8322296
			c1.9039841,2.2710037,7.9600143,7.440094,10.5063782,9.7799454c0.825798,0.7570038,1.299881,1.812233,1.3228455,2.9286499
			L93.4234772,82.2841415z"/>
		<path class="st23" d="M79.6880341,72.8582687l2.1815796,21.400383l-4.8173752,4.1597366l-4.1891403-18.8776932
			c-0.4046555-1.8235168,0.5052567-3.6845779,2.1928864-4.4851303L79.6880341,72.8582687z"/>
		<line class="st2" x1="63.6009293" y1="57.8252106" x2="64.2597885" y2="58.9280396"/>
	</g>
	<path class="st20" d="M69.8003464,66.2791138c0,0,1.6054764,9.5352936,2.9973907,18.2447052l-3.0739365-13.3279648
		c-0.298317-1.3075333-0.4816437-2.6456833-0.5428772-3.9914932l-0.0840073-2.0798874l-0.298317-2.1410332
		c0.3210983,0.0076561,0.6347275,0.0153084,0.9479828,0.0153084l0.3136292,1.0399246h10.0245438
		C79.9167404,64.0386734,69.8003464,66.2791138,69.8003464,66.2791138z"/>
</g>
</svg>
