<?xml version="1.0" encoding="utf-8"?>
<!-- Generator: Adobe Illustrator 22.0.1, SVG Export Plug-In . SVG Version: 6.00 Build 0)  -->
<svg version="1.1" id="Layer_1" xmlns="http://www.w3.org/2000/svg" xmlns:xlink="http://www.w3.org/1999/xlink" x="0px" y="0px"
	 viewBox="0 0 156 156" style="enable-background:new 0 0 156 156;" xml:space="preserve">
<style type="text/css">
	.st0{fill:#FFD9B2;}
	.st1{fill:#F7AC76;}
	.st2{fill:none;stroke:#3643C3;stroke-width:0.5;stroke-linecap:round;stroke-linejoin:round;stroke-miterlimit:10;}
	.st3{fill:#233764;}
	.st4{fill:none;stroke:#F7AC76;stroke-width:0.5;stroke-linecap:round;stroke-linejoin:round;stroke-miterlimit:10;}
	.st5{fill:#161718;}
	.st6{fill:#FFFFFF;}
	.st7{fill:#F06449;}
	.st8{fill:#BE412D;}
	.st9{fill:#FE8E60;}
	.st10{fill:#7D4C47;}
	.st11{fill:#4456D6;}
	.st12{fill:#203881;}
	.st13{fill:#6582FC;}
	.st14{fill:#DDA103;}
	.st15{fill:#FBC32E;}
	.st16{fill:none;stroke:#DDA103;stroke-width:0.5;stroke-miterlimit:10;}
	.st17{fill:#FBE6BB;}
	.st18{fill:none;stroke:#BE412D;stroke-width:0.5;stroke-linecap:round;stroke-linejoin:round;stroke-miterlimit:10;}
	.st19{fill:none;stroke:#F06449;stroke-width:0.5;stroke-linecap:round;stroke-linejoin:round;stroke-miterlimit:10;}
	.st20{fill:#F34B4B;}
	.st21{fill:#FC7070;}
	.st22{fill:none;stroke:#FFFFFF;stroke-miterlimit:10;}
	.st23{fill:#FC9F9F;}
	.st24{fill:#408A6F;}
	.st25{fill:#64B48D;}
	.st26{fill:none;stroke:#FBE6BB;stroke-width:0.5;stroke-linecap:round;stroke-linejoin:round;stroke-miterlimit:10;}
	.st27{fill:none;stroke:#F7AC76;stroke-width:0.25;stroke-linecap:round;stroke-linejoin:round;stroke-miterlimit:10;}
	.st28{fill:#A0665A;}
	.st29{fill:#6C3F44;}
	.st30{fill:none;stroke:#6C3F44;stroke-width:0.5;stroke-linecap:round;stroke-linejoin:round;stroke-miterlimit:10;}
	.st31{fill:none;stroke:#7D4C47;stroke-width:0.5;stroke-linecap:round;stroke-linejoin:round;stroke-miterlimit:10;}
	.st32{fill:none;stroke:#F34B4B;stroke-width:0.5;stroke-linecap:round;stroke-linejoin:round;stroke-miterlimit:10;}
	.st33{fill:none;stroke:#FC7070;stroke-width:0.5;stroke-linecap:round;stroke-linejoin:round;stroke-miterlimit:10;}
	.st34{fill:#EAE8F3;}
	.st35{fill:#40304A;}
	.st36{fill:none;stroke:#43334E;stroke-linecap:round;stroke-linejoin:round;stroke-miterlimit:10;}
	.st37{fill:#32775B;}
	.st38{fill:none;stroke:#233764;stroke-width:0.5;stroke-linecap:round;stroke-linejoin:round;stroke-miterlimit:10;}
	.st39{fill:none;stroke:#408A6F;stroke-width:0.5;stroke-linecap:round;stroke-linejoin:round;stroke-miterlimit:10;}
	.st40{fill:#3643C3;}
	.st41{opacity:0.56;fill:url(#SVGID_1_);}
	.st42{opacity:0.52;fill:#FBC32E;}
	.st43{opacity:0.56;fill:url(#SVGID_2_);}
	.st44{fill:none;stroke:#EAE8F3;stroke-width:0.5;stroke-linecap:round;stroke-linejoin:round;stroke-miterlimit:10;}
	.st45{fill:#FEFFFD;}
	.st46{opacity:0.35;fill:#32775B;}
	.st47{fill:#43334E;}
	.st48{fill:none;stroke:#EAE8F3;stroke-width:0.25;stroke-linecap:round;stroke-linejoin:round;stroke-miterlimit:10;}
	.st49{fill:none;stroke:#FBC32E;stroke-width:0.5;stroke-linecap:round;stroke-linejoin:round;stroke-miterlimit:10;}
	.st50{fill:none;stroke:#161718;stroke-width:0.5;stroke-linecap:round;stroke-linejoin:round;stroke-miterlimit:10;}
	.st51{fill:none;stroke:#40304A;stroke-linecap:round;stroke-linejoin:round;stroke-miterlimit:10;}
	.st52{opacity:0.33;fill:#FBC32E;}
	.st53{fill:#A6A3AE;}
	.st54{fill:#5B4B68;}
	.st55{fill:#776688;}
	.st56{fill:none;stroke:#FBC32E;stroke-width:0.5;stroke-miterlimit:10;}
	.st57{fill:none;stroke:#EAE8F3;stroke-linecap:round;stroke-linejoin:round;stroke-miterlimit:10;}
	.st58{fill:none;stroke:#203881;stroke-width:2;stroke-linecap:round;stroke-linejoin:round;stroke-miterlimit:10;}
	.st59{fill:none;stroke:#40304A;stroke-width:2;stroke-linecap:round;stroke-linejoin:round;stroke-miterlimit:10;}
	.st60{fill:#FFD8B7;}
	.st61{fill:#F4E4D4;}
	.st62{fill:none;stroke:#4456D6;stroke-width:0.5;stroke-linecap:round;stroke-linejoin:round;stroke-miterlimit:10;}
	.st63{fill:none;stroke:#DDA103;stroke-width:0.25;stroke-miterlimit:10;}
	.st64{fill:none;stroke:#FFFFFF;stroke-width:0.5;stroke-linecap:round;stroke-linejoin:round;stroke-miterlimit:10;}
	.st65{fill:none;stroke:#64B48D;stroke-width:0.5;stroke-linecap:round;stroke-linejoin:round;stroke-miterlimit:10;}
	.st66{fill:none;stroke:#64B48D;stroke-linecap:round;stroke-linejoin:round;stroke-miterlimit:10;}
	.st67{opacity:0.48;fill:#64B48D;}
	.st68{fill:none;stroke:#64B48D;stroke-width:0.25;stroke-linecap:round;stroke-linejoin:round;stroke-miterlimit:10;}
	.st69{fill:none;stroke:#F06449;stroke-width:2;stroke-linecap:round;stroke-linejoin:round;stroke-miterlimit:10;}
	.st70{opacity:0.92;fill:#64B48D;}
	.st71{opacity:0.57;fill:#408A6F;}
	.st72{opacity:0.36;fill:#408A6F;}
	.st73{fill:none;stroke:#BE412D;stroke-width:2;stroke-linecap:round;stroke-linejoin:round;stroke-miterlimit:10;}
	.st74{opacity:0.48;fill:#FFFFFF;}
	.st75{font-family:'MyriadPro-Regular';}
	.st76{font-size:5.1252499px;}
	.st77{font-size:3.81549px;}
	.st78{opacity:0.65;fill:none;stroke:#408A6F;stroke-width:0.25;stroke-linecap:round;stroke-linejoin:round;stroke-miterlimit:10;}
	.st79{opacity:0.67;fill:none;stroke:#64B48D;stroke-width:0.25;stroke-linecap:round;stroke-linejoin:round;stroke-miterlimit:10;}
	.st80{opacity:0.98;fill:#64B48D;}
	.st81{fill:none;stroke:#408A6F;stroke-width:0.25;stroke-linecap:round;stroke-linejoin:round;stroke-miterlimit:10;}
	.st82{fill:none;stroke:#FFD9B2;stroke-width:0.5;stroke-linecap:round;stroke-linejoin:round;}
	
		.st83{fill:none;stroke:#FFD9B2;stroke-width:0.5;stroke-linecap:round;stroke-linejoin:round;stroke-dasharray:4.0333505,4.0333505;}
	.st84{fill:#E68B4A;}
	.st85{opacity:0.62;fill:#64B48D;}
	.st86{fill:none;stroke:#FBC32E;stroke-width:0.25;stroke-miterlimit:10;}
	.st87{fill:none;stroke:#4456D6;stroke-linecap:round;stroke-linejoin:round;stroke-miterlimit:10;}
	.st88{fill:none;stroke:#E68B4A;stroke-width:0.5;stroke-linecap:round;stroke-linejoin:round;stroke-miterlimit:10;}
	.st89{fill:none;stroke:#203881;stroke-width:0.5;stroke-linecap:round;stroke-linejoin:round;stroke-miterlimit:10;}
	.st90{opacity:0.29;fill:#EAE8F3;}
	.st91{fill:none;stroke:#A6A3AE;stroke-width:0.5;stroke-linecap:round;stroke-linejoin:round;stroke-miterlimit:10;}
	.st92{opacity:0.74;fill:#FFFFFF;}
	.st93{opacity:0.19;fill:#FFFFFF;}
	.st94{fill:none;stroke:#40304A;stroke-width:0.25;stroke-linecap:round;stroke-linejoin:round;stroke-miterlimit:10;}
	.st95{fill:none;stroke:#F34B4B;stroke-width:2;stroke-linecap:round;stroke-linejoin:round;stroke-miterlimit:10;}
	.st96{fill:none;stroke:#43334E;stroke-width:0.5;stroke-linecap:round;stroke-linejoin:round;stroke-miterlimit:10;}
	.st97{fill:none;stroke:#6582FC;stroke-miterlimit:10;}
	.st98{opacity:0.47;fill:#A6A3AE;}
	.st99{opacity:0.43;fill:#FFFFFF;}
	.st100{fill:none;stroke:#FBE6BB;stroke-linecap:round;stroke-linejoin:round;stroke-miterlimit:10;}
	.st101{fill:none;stroke:#5B4B68;stroke-width:0.5;stroke-linecap:round;stroke-linejoin:round;stroke-miterlimit:10;}
	.st102{fill:none;stroke:#40304A;stroke-width:0.5;stroke-linecap:round;stroke-linejoin:round;stroke-miterlimit:10;}
	.st103{fill:none;stroke:#DDA103;stroke-linecap:round;stroke-linejoin:round;stroke-miterlimit:10;}
	.st104{fill:none;stroke:#FBC32E;stroke-linecap:round;stroke-linejoin:round;stroke-miterlimit:10;}
	.st105{fill:none;stroke:#32775B;stroke-width:0.5;stroke-linecap:round;stroke-linejoin:round;stroke-miterlimit:10;}
	.st106{opacity:0.4;fill:#FBE6BB;}
	.st107{fill:none;stroke:#FBC32E;stroke-width:0.25;stroke-linecap:round;stroke-linejoin:round;stroke-miterlimit:10;}
	.st108{fill:none;stroke:#4456D6;stroke-miterlimit:10;}
	.st109{opacity:0.61;fill:#64B48D;}
	.st110{opacity:0.9;fill:#64B48D;}
	.st111{opacity:0.76;fill:#64B48D;}
	.st112{fill:none;stroke:#5B4B68;stroke-width:0.5;stroke-miterlimit:10;}
	.st113{opacity:0.66;fill:#A6A3AE;}
	.st114{fill:none;stroke:#43334E;stroke-miterlimit:10;}
	.st115{opacity:0.52;fill:#6582FC;}
	.st116{fill:none;stroke:#DDA103;stroke-width:0.5;stroke-linecap:round;stroke-linejoin:round;stroke-miterlimit:10;}
	.st117{fill:#46724E;}
	.st118{fill:#FE8B2E;}
	.st119{fill:none;stroke:#7D4C47;stroke-width:2;stroke-linecap:round;stroke-linejoin:round;stroke-miterlimit:10;}
	.st120{opacity:0.4;fill:#EAE8F3;}
	.st121{fill:none;stroke:#EAE8F3;stroke-width:0.5;stroke-linecap:round;stroke-miterlimit:10;}
	.st122{fill:none;stroke:#4456D6;stroke-width:0.25;stroke-linecap:round;stroke-linejoin:round;stroke-miterlimit:10;}
	.st123{opacity:0.5;fill:#EAE8F3;}
	.st124{opacity:0.46;fill:#A6A3AE;}
	.st125{fill:#E0916E;}
	.st126{fill:none;stroke:#A0665A;stroke-linecap:round;stroke-linejoin:round;stroke-miterlimit:10;}
	.st127{opacity:0.46;fill:#BE412D;}
	.st128{fill:none;stroke:#203881;stroke-linecap:round;stroke-linejoin:round;stroke-miterlimit:10;}
	.st129{fill:#DBDBE1;}
	.st130{fill:none;stroke:#6582FC;stroke-width:0.5;stroke-linecap:round;stroke-linejoin:round;stroke-miterlimit:10;}
	.st131{opacity:0.53;fill:#A6A3AE;}
	.st132{fill:none;stroke:#DDA103;stroke-miterlimit:10;}
	.st133{opacity:0.2;fill:#FFFFFF;}
	.st134{fill:#B4A1BF;}
	.st135{opacity:0.5;fill:#6582FC;}
	.st136{opacity:0.6;fill:none;stroke:#FFFFFF;stroke-linecap:round;stroke-linejoin:round;stroke-miterlimit:10;}
	.st137{opacity:0.6;fill:none;stroke:#FFFFFF;stroke-width:2;stroke-linecap:round;stroke-linejoin:round;stroke-miterlimit:10;}
	.st138{opacity:0.54;fill:#A6A3AE;}
	.st139{fill:#161718;stroke:#000000;stroke-width:0.25;stroke-miterlimit:10;}
</style>
<g id="_x33_0">
	<g>
		<path class="st14" d="M99.316597,57.4326782c0.1022949,0.7763023-0.1994934,1.5124779-0.7424164,1.9983597
			c-0.0453033,0.0400124-0.0927811,0.0783615-0.1413116,0.1158829c-0.218399,0.1659241-0.4690857,0.2933006-0.7436295,0.3722725
			c0.0095444,0.0133324,0.0166702,0.0230904,0.0166702,0.0230904l-0.3204041,0.0412483l-0.0659637,0.0086899
			c-0.0094452,0.0022202-0.0200729,0.0026474-0.0297699,0.0029488c-0.3818893,0.0396233-0.7533264-0.0184174-1.0882721-0.1542244
			c-0.0565186-0.0227051-0.1113205-0.0475731-0.1655731-0.0754471c-0.2364273-0.1186295-0.4510117-0.2780724-0.6327591-0.4690781
			c-0.0270767-0.0285225-0.0522919-0.0573006-0.0776291-0.0870323c-0.1309967-0.1529503-0.241951-0.3231277-0.3287201-0.5091438
			c-0.0146637-0.0301666-0.028389-0.0604477-0.040329-0.0919495c-0.0706024-0.1667442-0.1212845-0.3448677-0.1499329-0.5326996
			c-0.0029449-0.0151711-0.0050888-0.0314255-0.0072327-0.0476799c-0.0021362-0.0162506-0.004158-0.0315475-0.0053635-0.047924
			c-0.0208664-0.1878891-0.0189819-0.3729324,0.0060196-0.5522766c0.004303-0.033638,0.0087814-0.0663261,0.0151291-0.0992546
			c0.0356293-0.2021446,0.0986557-0.3952484,0.1856155-0.5769157c0.0167236-0.0352745,0.0344696-0.0706863,0.05336-0.1042938
			c0.125946-0.2325249,0.2910461-0.4410248,0.4877396-0.6167336c0.0451813-0.040966,0.0926514-0.0793152,0.1413116-0.1158829
			c0.3040543-0.2316704,0.6714249-0.3890152,1.0777359-0.4425545c0.0133514-0.0017586,0.0267487-0.0035248,0.0402756-0.0043335
			c-0.0001297-0.0009575-0.0001297-0.0009575-0.0001297-0.0009575l0.2552567-0.0336342l0.0104294,0.0200195
			c0.2977142,0.0006523,0.5845795,0.0591431,0.8487854,0.167305c0.0564651,0.0227165,0.1113205,0.0475807,0.1655731,0.0754433
			C98.7319946,56.0225525,99.2143021,56.6563797,99.316597,57.4326782z"/>
		<g>
			<g>
				<path class="st15" d="M98.0810623,55.6959229l-2.539238,0.3345947c0.0451813-0.040966,0.0926514-0.0793152,0.1413116-0.1158829
					l2.2323532-0.2941551C97.9719543,55.6431961,98.0268097,55.6680603,98.0810623,55.6959229z"/>
			</g>
			<g>
				<path class="st15" d="M98.3132019,56.2178001l0.0125961,0.0956001l-3.3250732,0.4381447
					c0.0167236-0.0352745,0.0344696-0.0706863,0.05336-0.1042938L98.3132019,56.2178001z"/>
			</g>
			<g>
				<path class="st15" d="M98.3973541,56.8564301l0.0125961,0.0956039l-3.6099701,0.4756813
					c0.004303-0.033638,0.0087814-0.0663261,0.0151291-0.0992546L98.3973541,56.8564301z"/>
			</g>
			<g>
				<path class="st15" d="M98.4813766,57.4941063l0.0125961,0.0956001l-3.6874161,0.4858894
					c-0.0029449-0.0151711-0.0050888-0.0314255-0.0072327-0.0476799c-0.0021362-0.0162506-0.004158-0.0315475-0.0053635-0.047924
					L98.4813766,57.4941063z"/>
			</g>
			<g>
				<path class="st15" d="M98.5655289,58.1327362l0.0125961,0.0956039l-3.5813065,0.4719048
					c-0.0146637-0.0301666-0.028389-0.0604477-0.040329-0.0919495L98.5655289,58.1327362z"/>
			</g>
			<g>
				<path class="st15" d="M98.6496811,58.7713661l0.0125961,0.0956039l-3.2591095,0.429451
					c-0.0270767-0.0285225-0.0522919-0.0573006-0.0776291-0.0870323L98.6496811,58.7713661z"/>
			</g>
			<g>
				<path class="st15" d="M98.5741806,59.4310379c-0.0453033,0.0400124-0.0927811,0.0783615-0.1413116,0.1158829
					l-2.231369,0.2940254c-0.0565186-0.0227051-0.1113205-0.0475731-0.1655731-0.0754471L98.5741806,59.4310379z"/>
			</g>
		</g>
		<path class="st15" d="M97.3851471,59.9840279c-0.0094452,0.0022163-0.0199509,0.0036011-0.0295181,0.0048637
			c-0.0124207,0.0016365-0.0239029,0.0031471-0.0364456,0.00383L97.3851471,59.9840279z"/>
		<circle class="st15" cx="97.4243164" cy="57.6824493" r="2.2778752"/>
		<circle class="st63" cx="97.4243164" cy="57.6824493" r="1.9525032"/>
		<path class="st15" d="M97.3191833,59.9927216l-0.0296402,0.0039024l-0.0001297-0.0009537
			C97.2991104,59.9953651,97.3097382,59.9949379,97.3191833,59.9927216z"/>
		<path class="st14" d="M98.1691132,58.0599709c0.0380554,0.2888412-0.1271057,0.5863228-0.4957581,0.6977844l0.0501175,0.3803749
			l-0.2305908,0.0303841l-0.0487137-0.3696709c-0.2120819,0.0243149-0.4405823-0.012085-0.579834-0.0868568l0.0545044-0.2562943
			l0.1046143-0.0137863c0,0,0.0062943,0.0294037,0.0117188,0.0613403c0.1262207,0.0402031,0.2775955,0.0601654,0.4309387,0.039959
			c0.2603073-0.0343018,0.4153061-0.2070961,0.3878937-0.4151115c-0.026474-0.2008858-0.1855469-0.3069-0.4697876-0.3806992
			c-0.3925247-0.0970268-0.6453552-0.2354279-0.6873322-0.5539894c-0.0399399-0.3031044,0.146019-0.5622139,0.4751816-0.6612167
			l-0.0485535-0.3684845l0.2258606-0.0297623l0.0466766,0.3542213c0.2208252-0.021843,0.3783035,0.0166588,0.4923782,0.0657234
			l-0.0266418,0.1099319c0.0231781,0.0380554,0.0715256,0.1296387,0.0715256,0.1296387l-0.1046143,0.0137863
			c-0.0818558-0.0339584-0.2422791-0.0950508-0.4764404-0.0641937c-0.2817307,0.0371208-0.3652954,0.2198524-0.3460312,0.3660622
			c0.0250626,0.1901817,0.1731186,0.2674141,0.5077057,0.3563538C97.910965,57.5691452,98.1261978,57.7342796,98.1691132,58.0599709
			z"/>
		<path class="st17" d="M97.5974808,59.1548042l-0.0486603-0.3693085c-0.2125626,0.0242882-0.4406281-0.012619-0.5806503-0.0871696
			l0.0554733-0.2565498c0.1431961,0.0704117,0.3424911,0.11483,0.5472565,0.0878487
			c0.259613-0.0342064,0.4153748-0.2072525,0.3879089-0.4156761c-0.0264969-0.201107-0.1854858-0.3066368-0.47052-0.3806801
			c-0.3922424-0.0971146-0.6447678-0.2349625-0.6866837-0.5530777c-0.0399933-0.3034935,0.1453857-0.5622787,0.4745636-0.6614571
			l-0.0486679-0.3693085l0.2267075-0.0298729l0.0467377,0.3546829c0.2203522-0.021595,0.3779831,0.0171547,0.4922104,0.0653419
			l-0.0596161,0.253376c-0.0825653-0.0337601-0.2430801-0.0944481-0.4771042-0.0636101
			c-0.2815475,0.0370979-0.3654251,0.2192726-0.3461533,0.3655319c0.0250549,0.1901398,0.1728745,0.2673836,0.5083389,0.3570976
			c0.3968582,0.1039467,0.6120529,0.2690315,0.6549301,0.5944633c0.038063,0.2888641-0.127388,0.5859489-0.4958191,0.6977348
			l0.0501099,0.3802795L97.5974808,59.1548042z"/>
	</g>
	<path class="st0" d="M57.0464859,116.8486481c-0.1629066,0.7821884-0.3041344,1.5643005-0.4671097,2.346489v0.0108032
		c-0.0216827,0.0651779-0.0325546,0.1086731-0.0325546,0.173851c-0.0760498,0.4128036-0.1629753,0.814743-0.2281494,1.2275467
		c-0.3476295,1.7815781-0.6626396,3.5848389-0.9342194,5.3880997l-0.5540314-0.6735153
		c-0.7495651,0.173851-1.5100021,0.260704-2.2812424,0.1629715c-0.2715797-0.0326157-0.5323524-0.1629715-0.7821846-0.1955261
		c-0.3367577-0.054306-0.7169418,0.0325546-1.0536995,0.0108719c-0.1629715-0.0108719-0.3150749-0.0217438-0.4671059-0.0760498
		c-0.1412277-0.0651779-0.2607727-0.1738434-0.3150749-0.3150711c-0.3693123-1.0645752-0.1737823-2.226944,0.0217476-3.3241348
		c0.0651741-0.2823868,0.1194763-0.5539703,0.1629066-0.8255463c0.0108719-0.0434952,0.0217476-0.0978012,0.0326195-0.1412277
		c0.1737823-1.1732407,0.2498322-2.3464813,0.4453621-3.5197296c0.0651779-0.4996643,0.1738472-0.9993896,0.2607727-1.4882507
		c0.010807-0.0325546,0.010807-0.0760498,0.0216827-0.1086044c0.1520996-0.6952591,0.3041992-1.3905182,0.4345512-2.0965881
		l5.2794952,0.054306c-0.1303558,0.5974579-0.2281532,1.1949234-0.2715797,1.7815781v0.0651779
		c-0.0325546,0.2280807-0.0217476,0.4453583,0.0434265,0.6626358c0.119545,0.3693771,0.5540352,0.325882,0.7061348,0.6300812
		C57.0899811,116.6748657,57.0682335,116.7509232,57.0464859,116.8486481z"/>
	<path class="st1" d="M57.0464859,116.8486481c-0.1629066,0.7821884-0.3041344,1.5643005-0.4671097,2.346489v0.0108032
		c-0.0216827,0.0651779-0.0325546,0.1086731-0.0325546,0.173851c-0.0760498,0.4128036-0.1629753,0.814743-0.2281494,1.2275467
		l-0.1521034,0.2172775c0,0-4.6602821,0.6083374-6.213707,0.7603683c0.0651741-0.2823868,0.1194763-0.5539703,0.1629066-0.8255463
		c0.0108719-0.0434952,0.0217476-0.0978012,0.0326195-0.1412277c0.1737823-1.1732407,0.2498322-2.3464813,0.4453621-3.5197296
		c0.0651779-0.4996643,0.1738472-0.9993896,0.2607727-1.4882507c0.010807-0.0325546,0.010807-0.0760498,0.0216827-0.1086044
		c1.7490234-0.1737823,4.2257957-0.2281494,5.4424667-0.1955261c-0.0325546,0.2280807-0.0217476,0.4453583,0.0434265,0.6626358
		c0.119545,0.3693771,0.5540352,0.325882,0.7061348,0.6300812
		C57.0899811,116.6748657,57.0682335,116.7509232,57.0464859,116.8486481z"/>
	<path class="st35" d="M63.4423523,129.7723389c-0.7964706-0.5961761-1.6171799-1.1598969-2.4497261-1.7048035l-12.653244-0.1241074
		c-0.0214233,0.0631332-0.0513573,0.1248245-0.0704918,0.1882401c-0.0920219,0.3048248-0.1449394,0.6313629-0.0728874,0.9415436
		c0.1574783,0.6773987,0.8016777,0.9559479,1.3728638,1.2132111c0.7391434,0.3327942,1.6857033,0.408844,2.4807625,0.576355
		c1.7644958,0.3717041,3.5329208,0.7241669,5.3052788,1.0572662c0.8899078,0.1683807,1.7815437,0.3298645,2.6736374,0.4873962
		c0.8717422,0.154007,1.6827202,0.1617126,2.5692825,0.0986328c0.4989624-0.0354614,1.0367775-0.108551,1.3961067-0.4565735
		c0.4198074-0.4064636,0.5213394-1.065918,0.2016525-1.5567932
		C64.0050049,130.1999817,63.7221642,129.9816437,63.4423523,129.7723389z"/>
	<path class="st10" d="M52.4805412,122.8678818c0.1828957,0.6578522,0.3657913,1.3156967,0.548687,1.9735413
		c-0.6208725,0.3125-1.3848991,0.3241653-2.0150223,0.0307617c-0.6854897-0.3191833-1.1070442-0.8454666-1.3042145-1.5705032
		c0.0008316,0.1452866-0.0255966,0.289299-0.0559235,0.4313889c-0.1476021,0.691658-0.4387245,1.2884674-0.6921196,1.9396896
		c-0.2210999,0.5682373-0.5089455,1.1398773-0.6859131,1.7261734c-0.0920143,0.3048553-0.1448402,0.6313553-0.0727768,0.9415512
		c0.1574402,0.6773682,0.801548,0.9559326,1.3728256,1.2131805c0.7391319,0.3328247,1.6855545,0.408844,2.4806404,0.576355
		c1.7645035,0.3717194,3.533062,0.7241821,5.3052635,1.057312c0.8901253,0.1683655,1.7816124,0.3298187,2.6737099,0.4873962
		c0.8716927,0.1539764,1.6826897,0.1616821,2.5692787,0.0986328c0.4990158-0.0354767,1.0368195-0.1085815,1.3961906-0.456604
		c0.4197235-0.4064636,0.5213623-1.0658875,0.2016602-1.5567932c-0.1906357-0.2927094-0.4735985-0.5110474-0.7532616-0.7203369
		c-0.8731804-0.6534882-1.7689095-1.2768402-2.6850586-1.8685837c-1.1378899-0.7349625-2.3315468-1.4421463-3.184063-2.4948502
		c-0.410408-0.5067825-0.728054-1.0797729-1.0038681-1.668663c-0.2215996-0.4731293-0.2135582-1.3343353-0.9093513-1.1752701
		C54.5956802,122.0772247,53.5597572,122.5996017,52.4805412,122.8678818z"/>
	<path class="st64" d="M53.0414734,124.8416061c0.2371445,0.5293121,0.5744362,1.0135498,0.9887199,1.4194717"/>
	<path class="st65" d="M105.1652145,115.3022003c1.5436172-2.7388153,3.5755005-5.1662521,5.3451691-7.76474
		c1.7696686-2.5984955,3.3091888-5.4638824,3.6687469-8.5871201"/>
	<path class="st65" d="M104.9187698,112.1525345c-0.9346161-3.613121-2.7690887-6.9898453-5.2916107-9.740303"/>
	<path class="st65" d="M89.1936264,116.2325821c1.2765579,0.7541351,2.1739197,2.0368958,2.7278366,3.4122162
		c0.5539093,1.3753128,0.7967606,2.8528595,1.0230637,4.318161"/>
	<path class="st65" d="M131.2635956,111.5638733c0.5058136,2.3816681,0.2210388,4.9243469-0.7990875,7.1351242
		c-0.4512177,0.9778595-1.0384674,1.8861771-1.5403442,2.8390274c-1.2587891,2.3898926-1.9604874,5.2916031-0.9264679,7.7869873"/>
	<path class="st66" d="M106.1804581,121.1925812c-1.2844543-4.3728561-1.325676-9.0083389-1.1435165-13.562294
		s0.5771255-9.1236877,0.1292572-13.6592331c-0.4478607-4.5355377-1.8136597-9.1150284-4.7529297-12.5981827"/>
	<path class="st6" d="M128.9282379,87.8330612c0,4.1171875-6.6374664,15.7842407-6.6374664,15.7842407l-3.2697601-0.8364868
		l-1.1732407-4.3669586c0,0-0.8038712-8.1908798-0.6518326-11.8082733c0.0543671-1.3362198,0.2390213-2.0531616,0.6518326-1.4556961
		c0.2281494,0.325882,0.6408844,0.6192093,1.1732407,0.8690414c0.4996643,0.2498932,1.0971222,0.4562302,1.7489548,0.6300812
		C124.1049728,87.5832291,128.9282379,87.8330612,128.9282379,87.8330612z"/>
	<path class="st67" d="M128.9282379,87.8330612c0,4.1171875-6.6374664,15.7842407-6.6374664,15.7842407l-3.2697601-0.8364868
		l-1.1732407-4.3669586c0,0-0.8038712-8.1908798-0.6518326-11.8082733c0.0543671-1.3362198,0.2390213-2.0531616,0.6518326-1.4556961
		c0.2281494,0.325882,0.6408844,0.6192093,1.1732407,0.8690414c0.4996643,0.2498932,1.0971222,0.4562302,1.7489548,0.6300812
		C124.1049728,87.5832291,128.9282379,87.8330612,128.9282379,87.8330612z"/>
	<path class="st68" d="M120.2876434,87.2578278c0.0201569,0,4.6330109,1.6523666,7.8000488,1.5146713
		c0,0-3.5574799,10.5691376-5.8000336,12.899704"/>
	<path class="st25" d="M122.2907715,103.6173019l-3.2697601-0.8364868l-1.1732407-4.3669586
		c0,0-0.8038712-8.1908798-0.6518326-11.8082733c0.6192093-0.3693771,1.2275467-0.5757828,1.8250732-0.5866547
		c0.6083374,0,1.1949234,0.1846542,1.7489548,0.6300812C125.6040955,90.516304,122.2907715,103.6173019,122.2907715,103.6173019z"/>
	<path class="st0" d="M46.7482071,120.607338c-0.0869255,0.7929916-0.1629753,1.5859833-0.2498322,2.3790359v0.0108795
		c-0.0108719,0.0651779-0.0217476,0.1194763-0.0217476,0.1846542c0,0.0434265-0.0108719,0.0977325-0.0108719,0.1412277
		c-0.2172775,2.1835098-0.3910599,4.3561478-0.51054,6.5504608l-0.6192093-0.6192017
		c-0.7278137,0.2498932-1.4773788,0.4019318-2.2595596,0.3693695c-0.2715797,0-0.5431595-0.1085968-0.8038673-0.1085968
		c-0.3367538-0.021759-0.6952591,0.086853-1.0428886,0.1085968c-0.1520348,0-0.3150101,0.0108795-0.4671097-0.0326233
		c-0.1520996-0.0542908-0.2824516-0.1411591-0.3476295-0.2932587c-0.5757141-1.2818451-0.3041344-2.7918396-0.2064018-4.1388702
		c0.0108719-0.0542984,0.0108719-0.0977936,0.0217476-0.1520996c0.0108719-0.2933273,0.0217476-0.5974579,0.0326195-0.8907852
		c0.0216827-0.879921,0.0216827-1.7598343,0.075985-2.6397476c0.0217476-0.5106049,0.0869255-1.0211411,0.1304207-1.520874
		c0.0325546-0.2932587,0.0651741-0.5757141,0.0977287-0.8690414c0.0543022-0.4453583,0.0977974-0.9016647,0.1412277-1.3578949
		l5.2578125-0.4453659c-0.0326233,0.260704-0.0543709,0.5105362-0.0651779,0.7712479
		c-0.0326195,0.3476257-0.0434952,0.6843872-0.0434952,1.0211411c0,0.260704,0.0217476,0.4888535,0.1194801,0.7170029
		c0.1629715,0.3584442,0.5866547,0.2824554,0.760437,0.5648422
		C46.7699547,120.4334869,46.7590828,120.5095367,46.7482071,120.607338z"/>
	<path class="st1" d="M46.7482071,120.607338c-0.0869255,0.7929916-0.1629753,1.5859833-0.2498322,2.3790359v0.0108795
		c-0.0108719,0.0651779-0.0217476,0.1194763-0.0217476,0.1846542c0,0.0434265-0.0108719,0.0977325-0.0108719,0.1412277
		l-6.2028389,0.7929916c0.0216827-0.879921,0.0216827-1.7598343,0.075985-2.6397476
		c0.0217476-0.5106049,0.0869255-1.0211411,0.1304207-1.520874c0.0325546-0.2932587,0.0651741-0.5757141,0.0977287-0.8690414
		c1.5099983-0.3367538,4.280098-0.9233398,5.3338623-1.0320129c-0.0326195,0.3476257-0.0434952,0.6843872-0.0434952,1.0211411
		c0,0.260704,0.0217476,0.4888535,0.1194801,0.7170029c0.1629715,0.3584442,0.5866547,0.2824554,0.760437,0.5648422
		C46.7699547,120.4334869,46.7590828,120.5095367,46.7482071,120.607338z"/>
	<path class="st35" d="M54.3269005,132.8729095c-0.8491096-0.5184631-1.7192955-1.0023346-2.5994835-1.4663391
		l-12.6086311,1.0688782c-0.0153732,0.0648804-0.0393639,0.1291199-0.0524368,0.194046
		c-0.0628853,0.312149-0.0847931,0.6422119,0.0161667,0.9442291c0.2206192,0.6595306,0.8882027,0.8761444,1.4810867,1.0784149
		c0.7672195,0.2616577,1.7167358,0.2481842,2.524044,0.3400116c1.7916679,0.2037659,3.5854378,0.3880005,5.3813019,0.552597
		c0.9018135,0.0837708,1.8047028,0.1605072,2.7076721,0.2332611c0.8823738,0.071167,1.6904716,0.0023956,2.5671425-0.1439362
		c0.4934006-0.0823212,1.0219307-0.20578,1.3468628-0.5861206c0.3796387-0.4441986,0.4185715-1.1102905,0.0540428-1.5688629
		C54.9273491,133.2456207,54.6251907,133.0549164,54.3269005,132.8729095z"/>
	<path class="st10" d="M42.763195,127.0322342c0.2440796,0.6376801,0.4881554,1.2753677,0.732235,1.9130478
		c-0.5886612,0.3696136-1.3481903,0.4532318-2.0031586,0.22052c-0.7125206-0.2531586-1.1817932-0.737381-1.4464149-1.4406128
		c0.0145187,0.1445694,0.0017815,0.2904358-0.0150185,0.4347534c-0.0817642,0.7024841-0.3153458,1.3240662-0.5062408,1.9962769
		c-0.1665688,0.5865326-0.3992615,1.1827698-0.5201874,1.7831268c-0.0628777,0.3121796-0.0846939,0.6421967,0.0162811,0.9442139
		c0.2205734,0.6595306,0.8880653,0.8761597,1.4810486,1.0784149c0.7672043,0.2616882,1.7165794,0.2481842,2.5239105,0.3400116
		c1.7916832,0.2037811,3.5855904,0.3880005,5.3812943,0.5526276c0.9020348,0.0837402,1.8047676,0.1604614,2.7077446,0.2332611
		c0.8823242,0.0711365,1.6904373,0.0023804,2.5671387-0.1439362c0.4934502-0.0823517,1.0219727-0.2058105,1.3469467-0.5861511
		c0.3795509-0.4442139,0.4185944-1.1102753,0.0540466-1.5688629c-0.2173691-0.2734375-0.5196495-0.4641266-0.817791-0.6461487
		c-0.9308815-0.5682831-1.8813667-1.1044464-2.849205-1.6072235c-1.2020912-0.6244507-2.4570808-1.2160034-3.4050064-2.18367
		c-0.4563408-0.4658585-0.8265724-1.0063629-1.1566582-1.5666428c-0.2651978-0.4501419-0.338356-1.3082657-1.0160599-1.0843353
		C44.7944107,126.0457611,43.8123245,126.6634369,42.763195,127.0322342z"/>
	<path class="st64" d="M43.507637,128.9443054c0.2859688,0.5046082,0.6673927,0.9549103,1.1180916,1.3199768"/>
	<path class="st11" d="M68.9458389,92.7420273l-11.428093,28.4290009l-8.2890129-2.1400833l-0.1082077-0.0325546
		l0.1410942-0.4128036l5.0836296-15.382309l3.0420113-9.201088l-6.1269875-9.7008133l-0.6953888-1.086319v-0.0108719
		l-2.9327431-4.6277313l1.3032646-6.3549347l-3.041481-7.7129059c0,0,2.835144-3.0307999,4.6603508-4.6168518
		c0.6518974-0.5648384,1.1733055-0.9450912,1.3902512-0.9559631c0.8476257-0.0325546,5.8230515,2.30299,5.8230515,2.30299
		l1.4989929,1.216671l0.2498322,1.086319l-0.2715797,2.5420151c0,0,0.1628418,0.3693771,0.4561691,1.0211411
		c1.4989891,3.4110565,6.3221779,14.5458221,8.3754692,21.0419846
		C68.8042145,90.4390335,69.1739197,92.1445618,68.9458389,92.7420273z"/>
	<path class="st12" d="M54.3452492,103.2032776l3.0420113-9.201088l-6.1269875-9.7008133l-0.6953888-1.086319v-0.0108719
		l0.7698746-2.5203552c0.2665749-0.8727036,1.4740334-0.9450226,1.8428726-0.1103821l5.502285,12.4510269L54.3452492,103.2032776z"
		/>
	<path class="st13" d="M59.3277931,96.7735062l0.0434303-4.7798309l-7.8975563-18.163208
		c0,0,5.9095764-4.8123856,8.2234383-6.7243195c1.4991264,3.4110565,6.3223801,14.5458221,8.3755417,21.0419846
		L59.3277931,96.7735062z"/>
	<path class="st5" d="M68.8700562,20.5153046c0,0,2.1356964,16.4216309-8.6478386,17.2182693
		c-10.7835312,0.7966423-0.0946426-8.0433884-0.0946426-8.0433884l1.8042336-5.3903732"/>
	<path class="st0" d="M84.4760284,59.5236015l-1.672905,0.5106049c0,0,0-0.0108757-0.0108719,0L69.1915817,64.151329
		c-1.8793716,0.5757828-3.89991-0.325882-4.7363968-2.0965881l-5.6162491-11.9386292l-0.0760498-5.496769l-0.0325546-2.933075
		c-0.3476295-2.0965843,1.1297493-4.0519447,3.2372093-4.2909698c0.4128075-0.0434303,0.8147392-0.0216827,1.1949234,0.0651779
		c0.4128075,0.0869217,0.8038635,0.249897,1.1623726,0.4562988c1.1732407,0.7278175,1.7706985,2.1182709,1.6620941,3.4870415
		l3.5087891,16.2622223l14.1655731-1.0971909L84.4760284,59.5236015z"/>
	<path class="st1" d="M82.7922516,60.0342064L69.1915817,64.151329c-1.8793716,0.5757828-3.89991-0.325882-4.7363968-2.0965881
		l-5.6162491-11.9386292l-0.0760498-5.496769l6.4961624,5.9638786l-0.5974579,7.6151047l2.867897,4.2583466
		C67.5294876,62.4566727,82.259964,59.8386765,82.7922516,60.0342064z"/>
	<polygon class="st21" points="62.9756203,43.7887154 60.6654663,43.787159 58.7693291,43.7908936 59.7503128,36.8884506 
		62.7339058,37.3656807 62.7604294,38.0839043 	"/>
	<polygon class="st21" points="62.9756203,43.7887154 60.6654663,43.787159 61.0519104,39.1861191 62.7718964,38.3878975 	"/>
	<path class="st3" d="M68.8873825,21.8284016l-0.8473587,0.0868568l-0.6300201,0.0760517l-8.4189644,0.890789l1.4991226,1.8141327
		c-0.7386856,1.27104-1.466568,2.5420151-2.1943817,3.8129883c-0.5757828,1.021143-1.1297493,2.0531578-1.5751762,3.128603
		c-0.1955299,0.4671078-0.51054,1.0320148-0.5431595,1.5425549c-0.0325546,0.4562988,0.0869255,0.9777107,0.0869255,1.4448204
		c0.0325546,2.3247375-0.2607079,4.6603508-0.8581696,6.9089699c-0.2390251,0.9234123-0.5540314,1.8576279-1.1623688,2.5963173
		c-0.4779816,0.5649071-1.1080666,0.9885864-1.7815781,1.2927208c-2.3790398,1.0971947-5.2251892,0.8147392-7.6151047-0.2389565
		c-1.6837807-0.7386894-3.2372055-1.8576279-4.1931725-3.4219284c-0.9559669-1.5643044-1.2492943-3.5957146-0.4779816-5.2578125
		c0.5322838-1.1623039,1.5208054-2.0639648,2.5419464-2.8352737c1.9228058-1.466507,4.1063156-2.6723022,5.5728188-4.595108
		c1.6403542-2.1508884,2.1726379-4.8666859,2.9873772-7.3760796c0.2390251-0.7387543,0.4997292-1.4774437,0.8364868-2.1835098
		c0.2172775-0.4779835,0.4671097-0.9450912,0.760437-1.3905201c0.6300812-0.9885197,1.803257-1.9336128,2.7592239-2.6071243
		c1.977108-1.4122667,4.8667526-1.9445524,7.2240448-1.1406879c0.3150101,0.1086721,0.6083374,0.2390251,0.9016609,0.3802519
		c0.1411629,0.0869236,0.3475685,0.1846552,0.5865898,0.3150082c0.5649033,0.2933273,1.3361511,0.6843863,2.1292114,1.086318
		c1.6077271,0.8147392,3.2697601,1.6403522,3.2697601,1.6403522C72.2006454,19.7534962,68.8873825,21.8284016,68.8873825,21.8284016
		z"/>
	<path class="st0" d="M67.958046,24.4502583l-1.8832779,4.7107124c-0.2592087,0.6642094-0.6119614,1.2807693-1.0242081,1.8500175
		c-0.4183807,0.5679398-0.9027557,1.0873508-1.4552917,1.5367413c-0.6396217,0.5346031-1.4209557,0.8245735-2.2134857,0.8423424
		c-0.0837212,0.0029182-0.1578293-0.0059624-0.2282829-0.0002975l-0.0014114,0.0066223l-0.3849869,0.9625053l-2.6877098,6.6975403
		l-5.3864937-2.1519661l2.4081421-6.0376701l1.3913994-3.4734917c-0.1419792-0.2101536-0.2422676-0.35602-0.2760811-0.4255524
		c-0.1362915-0.3334179-0.2046585-0.6938953-0.2268257-1.0445213c-0.0412865-0.5207253,0.0423012-1.0425186,0.2436981-1.532259
		l0.2464981-0.604599l1.5902481-3.9845524l1.751545-4.3860683l7.3501091,2.9373455
		c0.5043106,0.5227013,0.7890472,1.0676498,0.9379807,1.5698719C68.5206528,23.3042965,67.958046,24.4502583,67.958046,24.4502583z"
		/>
	<path class="st1" d="M56.4831314,25.7857056c0.2750664-0.0891895,0.5041924-0.2865086,0.6229973-0.5662575l1.0300407-2.5672112
		c0.1114388-0.2914181,0.0794411-0.603569-0.0647049-0.8509254L56.4831314,25.7857056z"/>
	<path class="st1" d="M61.1500664,33.3863411l-0.0014114,0.0066223l-0.3849869,0.9625092
		c-0.7979317-0.702877-1.3847389-1.519825-1.7883224-2.4498672c-0.1386032-0.1610451,0.0671844-0.3799572,0.234314-0.2544594
		C59.35923,31.8906174,60.3628273,32.7964554,61.1500664,33.3863411z"/>
	<path class="st4" d="M63.6892776,27.1998634l0.2908974,0.9448471c0.0760307,0.2469482-0.0648041,0.5083313-0.3128624,0.580658
		l-0.6655197,0.1940498"/>
	<path class="st3" d="M57.5789223,22.5545979c1.5617371-0.0933552,3.1234741-0.1867104,4.6852112-0.2800655
		c1.16716-0.0697689,2.3343163-0.1395378,3.5014763-0.2093067c0.4513168-0.0269775,0.902626-0.0539551,1.3539429-0.0809345
		c0.2551117-0.0152493,0.6462784,0.0352554,0.8880692-0.0513916c0.4090652-0.1465969,0.3302689-1.0120621,0.2737198-1.385622
		c-0.0837173-0.5530338-0.323204-1.0848904-0.7003326-1.4999924c-0.3068771-0.3377781-0.689743-0.596859-1.0796509-0.8340111
		c-1.3169022-0.8009701-2.7621956-1.3903389-4.2636795-1.7386608c-0.6654396-0.1543732-1.3559608-0.2618408-2.0304222-0.1534786
		c-0.6744652,0.1083641-1.3367386,0.4607334-1.6832657,1.0494289c-0.2959023,0.5026913-0.3336334,1.1155739-0.2980843,1.6978035
		c0.0453224,0.7422409,0.2301331,1.4771729-0.0748253,2.1750374C57.9601326,21.6803684,57.7696419,22.1175346,57.5789223,22.5545979
		z"/>
	<path class="st0" d="M58.2373085,22.4167671l-1.0259361,2.5660973c-0.2017212,0.5045547-0.7737007,0.7498016-1.2782516,0.5480824
		c-0.5045433-0.2017193-0.749794-0.7736969-0.548069-1.2782536l1.0259323-2.5660954
		c0.1008606-0.2522793,0.2941055-0.4387646,0.5251656-0.5384159c0.2314911-0.0986748,0.500515-0.1098003,0.7527885-0.0089397
		C58.1934891,21.3409634,58.4387398,21.912941,58.2373085,22.4167671z"/>
	<path class="st1" d="M56.9125824,21.793642l-0.3231544,0.8662052l0.65588,0.6662922l0.4612198-1.2363033
		c0.0807877-0.2165508-0.0323257-0.464283-0.2488747-0.5450706C57.2411003,21.4639778,56.9933701,21.5770912,56.9125824,21.793642z"
		/>
	<path class="st1" d="M56.928894,24.1742802l-0.6728058-0.6209126l-0.3029366,0.8120117
		c-0.0807877,0.2165527,0.0323257,0.4642849,0.2488785,0.5450726c0.2165489,0.0807877,0.464283-0.0323257,0.5450706-0.2488766
		L56.928894,24.1742802z"/>
	<path class="st5" d="M61.3528709,30.9313126c-0.0249634-0.0057507-0.0512772-0.014101-0.0775604-0.0224323
		c-0.6719742-0.214798-0.9206886-1.0541286-0.9372673-1.6996765l0.000782-0.0010414
		c-0.0028114-0.1241703,0.0029716-0.2402592,0.0160179-0.3443775c0.0133324-0.1087894,0.0352325-0.2030048,0.0628738-0.2766571
		c0.0187912-0.0510139,0.0812416-0.0692101,0.1249504-0.0363979l2.0566711,1.5440578
		c0.0291176,0.0218639,0.0402985,0.0611668,0.0264893,0.0947456C62.5366974,30.4057941,62.1633301,31.1394215,61.3528709,30.9313126
		z"/>
	<path class="st45" d="M62.2225494,29.8119144l-0.0883064,0.1176243c-0.0718842,0.095747-0.2067223,0.1149426-0.3014297,0.0438423
		l-1.4779701-1.1095963c0.0133324-0.1087894,0.0352325-0.2030048,0.0628738-0.2766571
		c0.0187912-0.0510139,0.0812416-0.0692101,0.1249504-0.0363979L62.2225494,29.8119144z"/>
	<path class="st3" d="M61.3528709,30.9313126c-0.0249634-0.0057507-0.0512772-0.014101-0.0775604-0.0224323
		c-0.6719742-0.214798-0.9206886-1.0541286-0.9372673-1.6996765l0.000782-0.0010414
		c0.3032074,0.0600033,0.6300049,0.3183804,0.8440628,0.7052822C61.3784409,30.2685757,61.4323997,30.6476097,61.3528709,30.9313126
		z"/>
	<path class="st11" d="M56.5613823,61.8688698l-1.9116669,2.4550896l-0.2933273,1.1841202l-2.8245354,11.6126785
		l-0.2715797,7.1806183l-0.0541,1.292717l-0.0328903,0.5322876l-1.1733055,19.8253174l-0.7383575,12.6338882l-0.0328865,0.4453583
		l-0.2715797,4.6494751l-9.2008209-1.3144684L37.344471,87.8753357l-0.097599-0.7713089l-0.977581-8.0930176l-0.1410942-1.1732407
		c-0.6630363-5.4750214,0.4885254-11.0044174,3.2913132-15.7624931l2.900383-4.910183l8.2343826,2.7266693l3.986702,1.3144722
		L56.5613823,61.8688698z"/>
	<path class="st12" d="M59.5164032,63.5417786l-0.2715797,2.5420151l-4.8884354-0.5757141l-8.4624634-0.9994659
		l-1.5318794-0.1846542l-0.0000038,0.0000076c-2.6568565,1.0868988-4.5259933,3.5103455-4.8971596,6.3568344
		c-0.6097794,4.6764297-1.5591469,11.8659363-2.2180099,16.4232254l-0.977581-8.0930176l-0.1410942-1.1732407
		c-0.6630363-5.4750214,0.4885254-11.0044174,3.2913132-15.7624931l2.900383-4.910183l8.2343826,2.7266693
		c0.6518974-0.5648384,1.1733055-0.9450912,1.3902512-0.9559631c0.8476257-0.0325546,5.8230515,2.30299,5.8230515,2.30299
		l1.4989929,1.216671L59.5164032,63.5417786z"/>
	<path class="st13" d="M51.1695328,86.127594l-1.1732445,19.8253174l-8.7122269,8.5927505l-1.4058456-26.7985458
		c-0.1431465-2.7287064,1.152607-5.3332291,3.4153481-6.8650055l8.1801033-5.5375671L51.1695328,86.127594z"/>
	<path class="st2" d="M45.1110725,63.4549217l-2.803772,5.6613884c-0.5923767,1.1961288-0.8664589,2.5247498-0.7957916,3.8576508
		l2.5551758,48.1970673"/>
	<path class="st21" d="M62.2974396,54.0473633c-0.1410942,0.0543709-0.2174759,0.0869255-0.2174759,0.0869255l-0.5866547,2.0748405
		l-1.1515617,4.084568l-0.6625023,3.1286011l-0.4020653,1.8793755l-5.1488762-1.79245l-1.3037949,0.6952591l-3.3241959-0.9234123
		l-2.161499-0.5757141l-7.1804161-1.9336777l-0.771244-4.9861641l2.8022537-7.604229l0.7929916-2.1726379l4.4216576-12.0364304
		l6.9846878,0.6735153c0,0-0.71661,1.3796425,1.2168045,4.1606178c2.1073952,3.0090561,4.1500778-1.9228058,4.1500778-1.9228058
		l0.9229431,1.6294785l3.41119,6.0399284l1.1298141,1.9988556C66.9249039,51.6466446,63.2426643,53.6345596,62.2974396,54.0473633z"
		/>
	<path class="st20" d="M51.4360046,44.1260033l-4.0971909,18.5793533l-7.1804161-1.9336777l-0.771244-4.9861641l2.8022537-7.604229
		l6.2028389-2.8353424c0.0598984-0.0918732,0.7546806-0.963871,1.5365753-1.9396477
		C50.4960442,42.6984177,51.6313477,43.2401886,51.4360046,44.1260033z"/>
	<path class="st23" d="M62.2934227,54.0485802c-0.1412277,0.0543022-0.2172775,0.0869217-0.2172775,0.0869217l-0.586586,2.0748405
		l-1.1514969,4.084568l-0.6626396,3.1286049c-1.977108-0.499733-3.6935081-0.9342194-3.6935081-0.9342194l2.0857124-6.8981628
		l-5.0352325,3.6660309c-0.9621506,0.7005157-2.312294,0.0104866-2.3081665-1.179657l0.0250778-7.2285004l13.3365707-6.2948418
		l1.1297455,1.9987907C66.9211502,51.6477928,63.2385139,53.6357727,62.2934227,54.0485802z"/>
	<polygon class="st20" points="56.5646439,57.7930527 54.1283607,63.5065231 52.8165321,64.2090378 49.4937744,63.2789497 	"/>
	<line class="st33" x1="62.0738907" y1="54.1352463" x2="60.0896683" y2="53.5949249"/>
	<path class="st69" d="M74.3440704,54.1431465c-10.6526451,1.7133522-19.8985329,10.2056313-22.5092392,20.674572
		c-1.171154,4.6963272-1.0941162,9.5983582-1.4762878,14.4234009c-0.3821678,4.8250351-1.3088112,9.8042831-4.1601601,13.7154007
		c-2.231308,3.0606232-5.5855408,5.2830582-9.2738686,6.1446533c-2.8711815,0.6707077-5.9170303,0.5453568-8.6968918,1.5281601
		c-3.4892426,1.2336044-6.2126331,4.1380615-7.8504696,7.45681s-3.342905,8.4696503-3.6572056,12.1571732"/>
	<path class="st0" d="M58.0350723,74.764679c-0.0108719,0.0651779-0.0326195,0.1086121-0.0651779,0.1629791
		c-0.130352,0.2389526-0.4236794,0.3584366-0.6843834,0.260704c-0.8364868-0.2933273-1.6729088-0.9016647-1.7924538-0.8256149
		c-0.1086044,0.0651779,0.2390251,0.9233475,0.6735115,1.8141327c0.0326233,0.0651779,0.0434952,0.1194839,0.0543709,0.173851
		c0.0977325,0.4128036-0.2064018,0.8472977-0.6627045,0.8690414l-0.51054,0.0325546
		c-0.3367538,0.0217514-0.6409569-0.1955261-0.7386856-0.5214081l-0.0217476-0.499733l-0.0325584,0.173851
		c-0.119545,0.5757141-0.7604332,0.8581619-1.2601662,0.5648346l-3.2372055-1.8466873
		c-0.2715797-0.1629715-0.4454269-0.4454269-0.4454269-0.7495575v-3.4328079l-7.0175781-10.2331009
		c-1.1189384-1.6294785-1.5860481-3.6391411-1.3035927-5.5945663l1.1840477-8.2559967l0.5214767-3.6935081l0.8799171-6.0942307
		c0.260704-1.6403503,1.5425529-2.8352776,3.0742989-3.0851059c0.4344902-0.0760536,0.8907242-0.0651779,1.3578987,0.0325546
		c0.966774,0.2064018,1.7815132,0.7929916,2.30299,1.5643005c0.51054,0.7713089,0.7495613,1.7489548,0.5648422,2.7157974
		l-0.6735115,3.5631561l-2.6288757,13.8505592l5.7466011,13.4377594l0.8256149,0.6300125
		c0.1520996,0.1086731,0.2933273,0.2281494,0.4236794,0.3476334c0.51054,0.4779816,0.9342194,1.0428848,1.216671,1.6946487
		l0.2607079,0.5757828l1.7381477,1.7815781C57.9915771,74.3084488,58.0785027,74.5474014,58.0350723,74.764679z"/>
	<line class="st4" x1="47.5694313" y1="55.7046089" x2="45.9463959" y2="55.9661636"/>
	<path class="st10" d="M39.7392769,132.7376404c-0.003006,0.0079803-0.003006,0.0079803-0.0137939,0.013031l0.0030022-0.0079803
		L39.7392769,132.7376404z"/>
	<path class="st0" d="M132.2632294,131.6769257c-1.1298065-0.1195526-2.3030548-0.1195526-3.4762268-0.0977936
		c-1.0971909,0.0217438-2.2052536,0.0760498-3.2807007,0.0760498h-19.8253174c-0.0108719,0-0.0108719,0-0.0217438,0H84.0306702
		c0.2824478,0,0.8038635-0.7169495,1.2818451-1.4773865c0.4562378-0.738678,0.8581696-1.5099945,0.9993973-1.7272644
		c0.8364868-1.4447632,1.6838455-2.8895874,2.5202637-4.3452835c1.2818451-2.194313,2.6723709-4.5081787,4.9319305-5.6705475
		c2.9873734-1.5317459,6.6156387-0.6409607,9.7551193,0.5431595c1.8250046,0.6952591,3.6500092,1.4882507,5.3446655,2.487648
		c1.9336777,1.1189346,3.7043839,2.4768372,5.1165848,4.2040482c0.8690414-1.9987946,3.0308075-3.1177292,5.2251892-3.4218674
		c0.325882-0.0543671,0.6626358-0.0869217,0.9885178-0.0978012c2.7809753-0.1086044,5.594574,0.814743,7.7889557,2.5420151
		C130.1665802,126.4191132,131.7200775,128.9393768,132.2632294,131.6769257z"/>
	<path class="st65" d="M73.6598053,114.2138214c-0.794075,0.936882-0.7631607,2.3266678-0.4393921,3.5113525
		c0.3237686,1.1846771,0.89505,2.306221,1.0548706,3.5239105c0.1144791,0.8722,0.0092392,1.772377-0.3033295,2.5946579
		c-0.2906189,0.7645187-0.763237,1.4906464-0.7837524,2.3082809c-0.0187454,0.7468262,0.3479843,1.449585,0.7788544,2.0598755"/>
	<path class="st0" d="M83.5688171,131.5661621l-19.2989502,0.2442932c-0.3977432-0.3813171-0.1614838-0.9784088,0.3125229-1.2593231
		c0.4740143-0.2809296,1.0956192-0.1805725,1.5743179,0.0922852c-0.4444656-0.3717194-0.5842133-0.995224-0.6050262-1.5742645
		c-0.0219803-0.6113281,0.0669327-1.2488556,0.4020767-1.7606049c0.4896774-0.7477188,1.4548798-1.1008301,2.3427277-0.9979172
		c0.8878555,0.1029205,1.6929855,0.6058731,2.3097763,1.2527466c0.6167831,0.6468735,1.0660553,1.4329453,1.4791031,2.225563
		c-0.265358-0.5483704-0.1293335-1.1979675,0.0226593-1.7879181c0.3106995-1.2058868,0.6792908-2.4260941,1.4074097-3.4363251
		c0.7281113-1.010231,1.8832474-1.7888336,3.128273-1.763916c1.1210098,0.0224304,2.1593323,0.696846,2.8290024,1.596138
		c0.6696625,0.899292,1.0127335,2.0015717,1.2165604,3.1041336c0.0599899-0.7504501,0.5849915-1.4439926,1.2909775-1.7054291
		c0.7059937-0.2614441,1.556076-0.0771179,2.0903854,0.4532471c0.3291702,0.3267441,0.5335846,0.7575302,0.6971741,1.1915283
		c0.2262039,0.6000977,0.38694,1.2248383,0.4784317,1.8596039c0.0661545-0.4186554,0.2458878-0.8302765,0.5613556-1.1133423
		c0.3154602-0.2830505,0.7776642-0.4180222,1.1797638-0.2840271c0.390274,0.1300659,0.6641693,0.4776764,0.8821793,0.8265228
		c0.5450745,0.8722382,0.9121246,1.8635254,1.0248108,2.8858643h-8.7149734"/>
	<path class="st25" d="M73.6198425,118.98423c-0.1392212-0.4284363-0.0712128-0.910202,0.1405029-1.3078461
		c0.2117233-0.3976364,0.5580673-0.714119,0.9513626-0.9337997c0.7737808-0.4322205,1.7309799-0.513031,2.4233856-1.0663223
		c0.2675552-0.2137985,0.4800873-0.4872665,0.6886902-0.7589035c-0.2367783,1.0795441-0.6258316,2.1408386-1.2761536,3.034462
		c-0.6503296,0.8936234-1.5803223,1.6108932-2.6547775,1.8697815c-0.1168365-0.4129944-0.2336731-0.8259888-0.3505096-1.2389755"/>
	<path class="st25" d="M74.358429,120.7725983c-0.2371368-0.5154648-0.5636902-1.010788-1.0415497-1.3167038
		c-0.4519348-0.2893219-0.9993973-0.3850784-1.5336609-0.4351959c-0.5342712-0.0501099-1.0772552-0.0617447-1.5937042-0.2074585
		c-0.3790817-0.1069565-0.7377777-0.2856674-1.0514679-0.5238647c0.1298752,0.20858,0.259758,0.41716,0.3896332,0.6257401
		c0.1975555,0.3172684,0.3955307,0.6351395,0.6234283,0.9313583c0.9896927,1.2863922,2.5543823,2.1125107,4.1748428,2.2042084"/>
	<path class="st1" d="M128.7870026,131.5791321c-1.0971909,0.0217438-2.2052536,0.0760498-3.2807007,0.0760498h-19.7492676
		l-3.0307999-4.2366714c2.2703705-0.0325546,4.540802,0.1412277,6.7677383,0.5106049
		c-0.7604294-0.8581696-0.9993896-2.0640335-1.0320129-3.2046585c-0.0325546-1.0971909,0.1086731-2.1943817,0.4019318-3.2589493
		c1.9336777,1.1189346,3.7043839,2.4768372,5.1165848,4.2040482c0.8690414-1.9987946,3.0308075-3.1177292,5.2251892-3.4218674
		c-0.1412277,1.7380829-0.6192093,3.4436111-1.0754471,5.1165161c1.4230804-1.672905,2.9765015-3.4218597,5.094841-4.0301971
		c0.1520309,1.0319519-0.1629791,2.0748367-0.6843872,2.9656296c-0.5106049,0.9016647-1.2275467,1.672905-1.9228058,2.4224701
		c2.226944-0.0977325,4.4865036,0.3367462,6.5179138,1.2818451c0.5974579,0.2824554,1.2166672,0.6409607,1.5208664,1.2275391
		C128.7109528,131.3401642,128.7652588,131.4596558,128.7870026,131.5791321z"/>
	<path class="st1" d="M106.0720444,128.0268402l-0.4128036,3.6283417H84.0306702
		c0.2824478,0,0.8038635-0.7169495,1.2818451-1.4773865c2.7375412-0.2715759,5.4207153-0.8038635,7.9409866-1.879364
		c0.9777145-0.4127502,1.9336777-0.9124756,2.9656296-1.194931c0.7821808-0.2064056,1.5969238-0.2715759,2.4116592-0.2933273
		c1.9444885-0.0325546,3.8890381,0.2499008,5.7357254,0.8364868
		C104.931427,127.8205109,105.4854584,128.0268402,106.0720444,128.0268402z"/>
	<path class="st34" d="M107.9230423,102.9330902c0,0,8.4712067,2.6982346,11.9851913,1.3177414
		c0,0,5.898468-9.9144516-0.8784943-21.0838928l-12.5135269,0.941246
		C106.5162125,84.1081848,113.6332626,92.0773926,107.9230423,102.9330902z"/>
	<path class="st67" d="M107.9230423,102.9330902c0,0,8.4712067,2.6982346,11.9851913,1.3177414
		c0,0,5.898468-9.9144516-0.8784943-21.0838928l-12.5135269,0.941246
		C106.5162125,84.1081848,113.6332626,92.0773926,107.9230423,102.9330902z"/>
	<path class="st68" d="M117.2567749,103.5576019c-2.6478958,0-6.0193024-0.8189774-7.7906723-1.3064423
		c3.5872879-7.9092255,0.8081055-14.3120346-0.9624634-17.2028732l9.9325485-0.7473755
		c5.1966095,9.1377029,1.6050797,17.3137283,0.7205887,19.0546036c-0.4991379,0.1341934-1.1359177,0.2020874-1.8997345,0.2020874
		C117.2570419,103.5576019,117.2570419,103.5576019,117.2567749,103.5576019z"/>
	<path class="st6" d="M97.0040741,95.8593445c0,0,6.8175507,2.8255386,9.5121384,8.6574707l-9.5121384,1.9636993
		c0,0-3.3448868-8.0649338-10.1198425-6.5251694c-6.7749634,1.5397644,1.8477097-2.8157806,1.8477097-2.8157806"/>
	<path class="st70" d="M97.0040741,95.8593445c0,0,6.8175507,2.8255386,9.5121384,8.6574707l-9.5121384,1.9636993
		c0,0-3.3448868-8.0649338-10.1198425-6.5251694c-6.7749634,1.5397644,1.8477097-2.8157806,1.8477097-2.8157806"/>
	
		<ellipse transform="matrix(0.323137 -0.9463522 0.9463522 0.323137 -29.2016525 155.6956329)" class="st71" cx="94.2416534" cy="98.261879" rx="1.7680523" ry="2.3811207"/>
	<path class="st24" d="M116.8048782,119.0104141c-0.0325546,0.4562988-0.0868607,0.9016647-0.1520996,1.347023
		c-0.0434265,0.2715836-0.0868607,0.5540314-0.1303558,0.8256149c-0.2823868,1.6294785-0.7278137,3.2155228-1.2601013,4.7798309
		c-0.260704,0.7821121-0.5540314,1.553421-0.8581619,2.3247299c-0.2824554,0.7169495-0.5866547,1.4122009-0.9559708,2.0965881
		c-0.2281494,0.4236755-0.4671097,0.84729-0.706131,1.2818451c-0.2824554-0.2498322-0.5322876-0.5322723-0.8038635-0.792984
		c-1.6077347-1.5860443-2.6180649-3.7369385-2.6397476-6.0182495c-0.0108719-1.0320129,0.1737823-2.0639648,0.380188-3.0851059
		c0.5866547-2.8135986,1.3687668-5.5836945,1.6837769-8.4407196c0.3041992-2.8461456,0.0978012-5.8443985-1.2275467-8.3972168
		c0.0760498,0.0325546,0.1520996,0.0760498,0.2172775,0.1194763c2.5637665,1.347023,4.4865036,3.7694931,5.5076447,6.4852905
		C116.7505722,113.9047012,117.0004044,116.4793396,116.8048782,119.0104141z"/>
	<path class="st25" d="M116.8048782,119.0104141l-6.4309845-13.796257l-0.0217514-0.1629105
		c2.5637665,1.347023,4.4865036,3.7694931,5.5076447,6.4852905
		C116.7505722,113.9047012,117.0004044,116.4793396,116.8048782,119.0104141z"/>
	<path class="st24" d="M121.8127899,125.8650818c-0.3910599,0.4236832-0.8147354,0.8147354-1.2492218,1.1841125
		c-0.499733,0.4236832-1.0320206,0.8364868-1.5534286,1.2384186c-0.9450912,0.7495728-1.7707062,1.8466949-2.7375488,2.5202637
		c-1.933609,1.3470306-0.8256073-4.4648132-0.4888535-5.2686768c0.5214767-1.2057953,1.3035965-2.3029938,2.3138657-3.1394806
		c0.0651703-0.0542984,0.1412277-0.1194763,0.2172775-0.1629028c1.1841125-0.9342194,2.5963135-1.5969238,3.5957108-2.7157974
		c1.1189346-1.2384186,1.6403503-2.9439468,1.5751724-4.6059799
		C125.1369858,118.4672546,124.4526062,122.975502,121.8127899,125.8650818z"/>
	<path class="st25" d="M121.8127899,125.8650818c-0.3910599,0.4236832-0.8147354,0.8147354-1.2492218,1.1841125
		l-2.2486877-4.8123779c1.1841125-0.9342194,2.5963135-1.5969238,3.5957108-2.7157974
		c1.1189346-1.2384186,1.6403503-2.9439468,1.5751724-4.6059799
		C125.1369858,118.4672546,124.4526062,122.975502,121.8127899,125.8650818z"/>
	<path class="st24" d="M111.7001648,130.7023315c-0.1132355-0.1153412-0.2337036-0.2232819-0.3726883-0.3478088
		c-0.3484268-0.3116608-0.6959305-0.6067963-1.0883026-0.8661194c-0.6508408-0.4301453-1.3508835-0.7813416-2.0632019-1.0970612
		c-1.3516617-0.5990829-2.7786102-1.0155945-4.2143631-1.3581848c-1.4286575-0.3408966-2.9107666-0.621376-4.3593445-0.3786926
		c-1.0387192,0.1740189-2.0126266,0.609642-2.9733505,1.0411911c-1.3382339,0.6011124-2.6767273,1.2023544-3.9951782,1.8456955
		c-1.9950333,0.9734955-3.9492722,2.045578-6.0312805,2.8156738c-2.0820084,0.7701111-4.3273468,1.2321472-6.5263672,0.9286194
		c1.7791672,1.664917,3.6321945,3.3751984,5.937767,4.1636963c1.3759003,0.4705505,2.8497314,0.5868378,4.303688,0.5639954
		c1.1634521-0.01828,2.3274384-0.1235657,3.467453-0.3566284c3.23246-0.6608429,6.1567383-2.3162537,9.1426544-3.7197571
		c0.7295151-0.3428955,1.4663773-0.6708984,2.2160568-0.9674377c0.7555923-0.2988892,1.5244598-0.565979,2.3082657-0.7811279
		c0.7807159-0.2143097,1.5765305-0.3768005,2.3815918-0.4656067c0.3968048-0.0437775,0.7947693-0.089447,1.1944809-0.0674133
		c0.4189911,0.0230865,0.839241,0.0327148,1.2587662,0.039093c0.1154785,0.00177,0.233902,0.0099182,0.3489914,0.0027466
		c-0.027153,0.0016937-0.112381-0.0782013-0.1347351-0.0963745c-0.0316315-0.0257111-0.0498352-0.0546417-0.0757675-0.085495
		c-0.0772781-0.0919952-0.1649094-0.1764069-0.24366-0.2674866
		C112.0230026,131.0644073,111.8702164,130.8755341,111.7001648,130.7023315z"/>
	<path class="st24" d="M139.8565979,141.9208984c-4.3452759,0.3041382-8.994751-0.1955261-12.50354-2.7918396
		c-0.7061386-0.5214233-1.3579025-1.1189423-1.9771118-1.7489624c-0.966835-0.9668427-1.8684311-1.9988556-2.8570251-2.9439392
		c-0.9233398-0.8799286-1.9553528-1.4122009-3.0416718-2.0640411c-0.7713165-0.4671021-1.9119339-1.1080017-2.867897-0.6735077
		l3.0960464-1.4013214c0.6626358-0.293335,1.4013214-0.4345551,2.1508865-0.4671173
		c1.1949234-0.054306,2.4442215,0.1737823,3.5305328,0.5431671c2.9547653,0.9885101,5.2686234,3.2698212,7.3978348,5.5401917
		C134.9138489,138.18396,137.0429993,140.5847473,139.8565979,141.9208984z"/>
	<path class="st25" d="M139.8565979,141.9208984c-4.3452759,0.3041382-8.994751-0.1955261-12.50354-2.7918396
		c-0.7061386-0.5214233-1.3579025-1.1189423-1.9771118-1.7489624l-3.5196609-7.5499268
		c1.1949234-0.054306,2.4442215,0.1737823,3.5305328,0.5431671c2.9547653,0.9885101,5.2686234,3.2698212,7.3978348,5.5401917
		C134.9138489,138.18396,137.0429993,140.5847473,139.8565979,141.9208984z"/>
	<path class="st6" d="M79.3603134,105.5435104l10.9444351-4.5104294c0,0,2.3878784-4.7757568,6.6993256-5.1737366
		C97.0040741,95.8593445,81.2175522,92.3438568,79.3603134,105.5435104z"/>
	<path class="st67" d="M79.3603134,105.5435104l10.9444351-4.5104294c0,0,2.3878784-4.7757568,6.6993256-5.1737366
		C97.0040741,95.8593445,81.2175522,92.3438568,79.3603134,105.5435104z"/>
	<path class="st12" d="M75.2860184,57.6991615l3.413414,0.4521027c0.3026505,0.0400887,0.5804977-0.1727638,0.6205826-0.4754181
		l0.6163483-4.6535034c0.0400925-0.3026505-0.17276-0.5804977-0.4754181-0.6205826l-3.4134064-0.4521027
		c-0.3026581-0.0400887-0.5805054,0.1727676-0.6205902,0.4754181l-0.6163483,4.6535034
		C74.7705154,57.3812332,74.9833679,57.6590767,75.2860184,57.6991615z"/>
	<polygon class="st40" points="79.3603134,57.300209 95.0730286,58.5416756 95.3901901,56.1471138 79.8960648,53.2552681 	"/>
	<path class="st35" d="M75.8643112,52.1040916l-0.7170029,5.3880997c-0.0434341,0.3259468-0.3367615,0.5649071-0.6735153,0.5214767
		c-0.325882-0.0434952-0.5540314-0.3476295-0.5105362-0.6735115l0.7169418-5.3990364
		c0.0434265-0.3041344,0.3041992-0.51054,0.5974579-0.51054h0.0760498
		C75.6795883,51.4740105,75.9077454,51.7782097,75.8643112,52.1040916z"/>
	<path class="st13" d="M94.4087982,56.254612l-0.2739105,2.0680389c-0.0652161,0.492382,0.2304001,0.9386368,0.6596756,0.9954948
		c0.4290085,0.0568237,0.8306046-0.2970886,0.8958206-0.7894745l0.2739105-2.0680351
		c0.0652161-0.4924202-0.2304001-0.9386406-0.6594086-0.9954605C94.8756104,55.4083176,94.4740219,55.7621918,94.4087982,56.254612z
		"/>
	<path class="st0" d="M83.127449,56.4891167l-0.2556839,1.626873c-0.0330582-0.001709-1.3011627,0.0762215-1.962616,0.1512375
		c0,0,3.0060349,2.9074173,4.6943665,2.6631203l2.5369568-0.3854523c0.7393494-0.1245422,1.0438538-0.3676109,1.1773605-0.7075577
		l1.3330612-3.3941841c0.1145554-0.2810402,0.0293045-0.5943413-0.1767426-0.7963638
		c-0.0728302-0.0624313-0.1519089-0.1175995-0.2570648-0.1572151c-0.3215637-0.1114502-0.6796951,0.0112877-0.8618927,0.2974854
		l-1.4254379,1.9127312l-0.692215,0.0259132l-0.742691-1.7874222c-0.0884094-0.2654152-0.3652496-0.4143562-0.6400452-0.3592453
		l-2.3036041,0.4896431C83.3440933,56.1186142,83.1795883,56.280941,83.127449,56.4891167z"/>
	
		<ellipse transform="matrix(0.9993069 -0.037224 0.037224 0.9993069 -3.4162149 4.3784618)" class="st25" cx="115.8757095" cy="93.9318542" rx="2.7858412" ry="3.0131125"/>
	
		<ellipse transform="matrix(0.5407545 -0.8411804 0.8411804 0.5407545 -31.1507568 142.9118958)" class="st25" cx="115.3074493" cy="99.9847107" rx="1.3595411" ry="1.1858343"/>
	
		<ellipse transform="matrix(0.8451484 -0.5345318 0.5345318 0.8451484 -38.9500008 68.6598511)" class="st71" cx="99.0283356" cy="101.555603" rx="1.1858343" ry="1.3595411"/>
	
		<ellipse transform="matrix(0.7331457 -0.6800717 0.6800717 0.7331457 -42.5751457 86.4026947)" class="st72" cx="88.8099823" cy="97.4521942" rx="1.3595411" ry="1.1858343"/>
	
		<ellipse transform="matrix(0.8697481 -0.4934959 0.4934959 0.8697481 -28.2651691 68.0847778)" class="st25" cx="114.8465729" cy="87.5876541" rx="1.1790171" ry="1.4414788"/>
	<path class="st1" d="M49.3119049,70.9408188l-7.0175781-10.2331009c-1.1189384-1.6294785-1.5860481-3.6391411-1.3035927-5.5945663
		l1.1840477-8.2559967l0.5214767-3.6935081l0.8799171-6.0942307c0.260704-1.6403503,1.5425529-2.8352776,3.0742989-3.0851059
		L42.6310844,56.74263L49.3119049,70.9408188z"/>
	<line class="st4" x1="69.4957199" y1="57.6660385" x2="68.0726471" y2="58.6935158"/>
	<path class="st5" d="M66.4757919,16.1577835c-0.1521072,0.2064037-0.3259506,0.4019337-0.5106049,0.5866547
		c-0.2715836,0.2607059-0.5649109,0.4996643-0.8907928,0.706068c-0.912468,0.5757809-1.9987869,0.8799152-3.0742989,0.8473606
		c-1.1840515-0.0326214-2.3464203-0.4779835-3.2589569-1.2275467c-0.2172089-0.1629734-0.4236107-0.3585033-0.6083336-0.5649052
		c-0.4236145,0.9993935-0.8907242,2.042284-1.7598305,2.6832409c-0.6300163,0.456234-1.4122009,0.6517639-2.1943207,0.7169399
		c-0.575779,0.0434303-1.1841164,0.0108738-1.7164001-0.2064018c-0.1194801-0.0543041-0.2390251-0.1086063-0.3476295-0.1846561
		c0.2172775-0.4779835,0.4671097-0.9450912,0.760437-1.3905201c0.6300812-0.9885197,1.803257-1.9336128,2.7592239-2.6071243
		c1.977108-1.4122667,4.8667526-1.9445524,7.2240448-1.1406879c0.3150101,0.1086721,0.6083374,0.2390251,0.9016609,0.3802519
		c0.1411629,0.0869236,0.3475685,0.1846552,0.5865898,0.3150082C64.9114838,15.3647928,65.6827316,15.7558517,66.4757919,16.1577835
		z"/>
	<path class="st50" d="M53.8444939,19.8076859c0.4891548,1.6857452,0.348362,3.4882813,0.0718422,5.2216415
		c-0.1872635,1.1738377-0.4393501,2.351778-0.9581795,3.4212532c-0.704586,1.4523926-1.9012222,2.6605911-3.3467712,3.3791122
		s-3.1311684,0.9429703-4.7143669,0.627739"/>
	<ellipse class="st73" cx="26.4903355" cy="134.2490387" rx="10.3469276" ry="2.9211709"/>
	<path class="st69" d="M16.1434078,131.5638123c0-1.613327,4.6324768-2.9211731,10.3469276-2.9211731
		s10.3469257,1.3078461,10.3469257,2.9211731c0,1.6133118-4.6324768,2.9211731-10.3469257,2.9211731
		S16.1434078,133.177124,16.1434078,131.5638123"/>
	<g>
		<path class="st14" d="M113.7177887,75.905014c0,4.2804489-2.1613693,8.0548553-5.4508972,10.3004837
			c-0.2741318,0.1845245-0.558815,0.3584595-0.8486404,0.527153c-1.3021698,0.7432938-2.7518311,1.2546158-4.2962189,1.4865646
			c0.0422134,0.0790863,0.0738754,0.1370621,0.0738754,0.1370621l-1.7659988-0.0052795h-0.3637009
			c-0.0527725,0.0052795-0.1106873,0-0.1634521-0.0052719c-2.0980453-0.0579834-4.0697021-0.6378326-5.7880859-1.6130753
			c-0.2900848-0.163414-0.5693665-0.3373566-0.8434906-0.527153c-1.19664-0.8117981-2.2457886-1.8291931-3.094429-2.9942017
			c-0.1263809-0.1739349-0.2424698-0.347908-0.358551-0.527153c-0.600769-0.9225082-1.0805588-1.9240723-1.4179993-2.9942017
			c-0.0579147-0.1739655-0.1106873-0.3479004-0.1529007-0.5271454c-0.2635727-0.9541397-0.4110565-1.9557343-0.4321671-2.9942093
			c-0.0051498-0.0843277-0.0051498-0.1739655-0.0051498-0.2635727s0-0.1739655,0.0051498-0.2635727
			c0.0211105-1.033226,0.1634445-2.03479,0.4270248-2.9889297c0.0473557-0.179245,0.0949783-0.3532104,0.1528931-0.5271454
			c0.3374481-1.0701294,0.8169785-2.0716934,1.4179993-2.9942093c0.1158295-0.179245,0.2373199-0.35849,0.3637009-0.5271454
			c0.8486404-1.1702881,1.8923874-2.1824036,3.0838776-2.9942398c0.2741241-0.1897659,0.5588074-0.3637009,0.8486328-0.5271454
			c1.8133621-1.0384674,3.9168167-1.6288719,6.157196-1.6288719c0.073616,0,0.1474915,0,0.2213669,0.0052757
			c0-0.0052757,0-0.0052757,0-0.0052757h1.4074478l0.0422134,0.1159554
			c1.6131058,0.2161484,3.1260834,0.7380219,4.4807663,1.5129166c0.2898254,0.1634445,0.5693588,0.3373795,0.8434906,0.5271454
			C111.5564194,67.8449173,113.7177887,71.6245651,113.7177887,75.905014z"/>
		<g>
			<g>
				<path class="st15" d="M108.2617416,65.6097717H94.2606277c0.2741241-0.1897659,0.5588074-0.3637009,0.8486328-0.5271454
					h12.3089905C107.7080765,65.2460709,107.9876099,65.4200058,108.2617416,65.6097717z"/>
			</g>
			<g>
				<path class="st15" d="M109.1471863,68.6040115v0.5271454h-18.334137c0.1158295-0.179245,0.2373199-0.35849,0.3637009-0.5271454
					H109.1471863z"/>
			</g>
			<g>
				<path class="st15" d="M109.1471863,72.1253662v0.5271454H89.242157c0.0473557-0.179245,0.0949783-0.3532104,0.1528931-0.5271454
					H109.1471863z"/>
			</g>
			<g>
				<path class="st15" d="M109.1471863,75.6414413v0.5271454H88.8151321
					c-0.0051498-0.0843277-0.0051498-0.1739655-0.0051498-0.2635727s0-0.1739655,0.0051498-0.2635727H109.1471863z"/>
			</g>
			<g>
				<path class="st15" d="M109.1471863,79.162796v0.5271454H89.4001999
					c-0.0579147-0.1739655-0.1106873-0.3479004-0.1529007-0.5271454H109.1471863z"/>
			</g>
			<g>
				<path class="st15" d="M109.1471863,82.6841431v0.527153H91.1767502c-0.1263809-0.1739349-0.2424698-0.347908-0.358551-0.527153
					H109.1471863z"/>
			</g>
			<g>
				<path class="st15" d="M108.2668915,86.2054977c-0.2741318,0.1845245-0.558815,0.3584595-0.8486404,0.527153H95.1146698
					c-0.2900848-0.163414-0.5693665-0.3373566-0.8434906-0.527153H108.2668915z"/>
			</g>
		</g>
		<path class="st15" d="M101.4276123,88.3534393c-0.0527649,0.0052719-0.1106796,0.0052719-0.1634445,0.0052719
			c-0.0684662,0-0.1317902,0-0.2002563-0.0052719H101.4276123z"/>
		<path class="st15" d="M115.7333832,75.9040909c0,6.8764114-5.5726852,12.4601059-12.4491653,12.4601059
			c-0.1628418,0-0.3262177,0-0.4890594-0.0108719c-6.6478653-0.2607117-11.9601059-5.735733-11.9601059-12.449234
			c0-2.2486267,0.5972595-4.3669586,1.6512222-6.1919632c2.1508865-3.7369385,6.1810913-6.257206,10.7979431-6.257206
			c0.7601013,0,1.4989929,0.0651741,2.2161331,0.1955261c4.2906418,0.7713127,7.8211746,3.7369423,9.3748016,7.7019615
			C115.429451,72.764679,115.7333832,74.2963562,115.7333832,75.9040909z"/>
		<path class="st17" d="M115.7333832,75.9040909c0,6.8764114-5.5726852,12.4601059-12.4491653,12.4601059
			c-0.1628418,0-0.3262177,0-0.4890594-0.0108719L92.4862747,69.7121277
			c2.1508865-3.7369385,6.1810913-6.257206,10.7979431-6.257206c0.7601013,0,1.4989929,0.0651741,2.2161331,0.1955261
			c3.0308685,2.4985237,6.3115768,5.1925697,9.3748016,7.7019615
			C115.429451,72.764679,115.7333832,74.2963562,115.7333832,75.9040909z"/>
		<path class="st56" d="M93.5212479,71.5852356c1.6589737-3.7416077,5.4058685-6.3515701,9.762352-6.3515701
			c5.8948975,0,10.6736526,4.7787552,10.6736526,10.673645c0,5.8948975-4.7787552,10.6736526-10.6736526,10.6736526
			c-0.5198059,0-1.0309372-0.0371628-1.5308762-0.108963"/>
		<path class="st16" d="M101.7527237,86.4720001c-5.169632-0.7424927-9.1427689-5.1896057-9.1427689-10.5646896
			c0-1.5384064,0.3254623-3.0008011,0.911293-4.3220749"/>
		<path class="st15" d="M101.0639114,88.3534393h-0.1634445v-0.0052795
			C100.9532318,88.3534393,101.0111465,88.3587112,101.0639114,88.3534393z"/>
		<path class="st14" d="M107.0506439,78.4853058c0,1.592659-1.1076126,3.0869827-3.1852341,3.4278183v2.0973358h-1.2714691
			v-2.0383377c-1.1668167-0.0196762-2.3792419-0.3801498-3.0805817-0.8848343l0.4784393-1.3501511h0.5768509
			c0,0,0.0131226,0.1638489,0.0196838,0.3408279c0.6554184,0.3080292,1.4615631,0.5243225,2.3070755,0.5243225
			c1.4353256,0,2.3987656-0.8258286,2.3987656-1.9728088c0-1.1076508-0.7864685-1.7958298-2.2742767-2.3988037
			c-2.0580902-0.8061905-3.3295593-1.7368698-3.3295593-3.4933777c0-1.6713028,1.1929016-2.9428101,3.0476151-3.2443161v-2.0317764
			h1.2453918v1.953125c1.2124176,0.0393219,2.038414,0.3604736,2.6216583,0.7078629l-0.2228928,0.576767
			c0.0984039,0.2228241,0.2950592,0.7537079,0.2950592,0.7537079h-0.5768433
			c-0.4193954-0.2425003-1.2452316-0.688179-2.536377-0.688179c-1.5534134,0-2.1368256,0.9306793-2.1368256,1.7368698
			c0,1.048645,0.747261,1.5729752,2.4971695,2.2939529C106.0020752,75.6407852,107.0506439,76.689476,107.0506439,78.4853058z"/>
		<path class="st15" d="M103.1706314,84.0108566v-2.0363312c-1.1693802-0.0201645-2.3790817-0.3830719-3.0847397-0.8871155
			l0.4838791-1.3508377c0.7258224,0.4838867,1.774231,0.8669586,2.9032898,0.8669586
			c1.4314804,0,2.3992462-0.8266296,2.3992462-1.975853c0-1.1088943-0.7863083-1.7943878-2.2782745-2.3992462
			c-2.0564957-0.8064651-3.3266907-1.733902-3.3266907-3.4879761c0-1.6734238,1.1895447-2.9436111,3.044426-3.2460403v-2.0363312
			h1.2500229v1.9556885c1.2097015,0.0403214,2.0363388,0.3629074,2.6210251,0.705658l-0.5040436,1.3306732
			c-0.4233932-0.2419357-1.2500229-0.6854935-2.5403748-0.6854935c-1.5524521,0-2.137146,0.9274368-2.137146,1.733902
			c0,1.0484161,0.7459869,1.5726166,2.5000534,2.298439c2.0766602,0.8467941,3.1250687,1.8952026,3.1250687,3.6895981
			c0,1.5927734-1.1088943,3.0847397-3.1855545,3.4274902v2.096817H103.1706314z"/>
	</g>
	<g>
		<path class="st14" d="M137.0949097,106.1113281c0.1949005,2.2820587-0.7855377,4.3927383-2.4370575,5.7397461
			c-0.1377411,0.1108551-0.281601,0.2165451-0.4284363,0.3196793c-0.6603851,0.455574-1.4099731,0.7941818-2.2227783,0.9881592
			c0.0261078,0.0402451,0.0456238,0.0697098,0.0456238,0.0697098l-0.9417572,0.0775986l-0.1938934,0.0165634
			c-0.0278931,0.0052109-0.059021,0.0050354-0.0873871,0.0046234c-1.1211853,0.064621-2.1987457-0.1547394-3.1592789-0.5964355
			c-0.1620941-0.0739136-0.3189087-0.1539307-0.4736938-0.2426376c-0.6749344-0.3783112-1.2806015-0.8729477-1.786087-1.4554138
			c-0.0752945-0.0869751-0.1451111-0.1744385-0.2151566-0.2647171c-0.3622971-0.4644623-0.6636963-0.9765854-0.8923264-1.5317459
			c-0.0387955-0.0901108-0.0748444-0.1804428-0.1055145-0.2740784c-0.1839676-0.4966888-0.3082047-1.0239563-0.3667374-1.5766373
			c-0.0065842-0.0447235-0.0106659-0.092514-0.0147476-0.1402893c-0.0040817-0.0477676-0.0079193-0.0927505-0.0092545-0.1407547
			c-0.0357971-0.5518112-0.0055161-1.0922623,0.0915604-1.6129456c0.0170898-0.0977173,0.0345535-0.1926346,0.0575104-0.288002
			c0.1311798-0.5858917,0.3412323-1.1416931,0.6196518-1.660881c0.0535889-0.1008377,0.110199-0.2019272,0.169899-0.2975998
			c0.3991547-0.6625671,0.909523-1.2496872,1.5077896-1.7367554c0.1375046-0.1136475,0.2813568-0.2193451,0.4284363-0.3196793
			c0.9194794-0.6362152,2.0140228-1.0467529,3.2084503-1.1487656c0.0392456-0.0033493,0.0786285-0.0067139,0.1182556-0.0072632
			c-0.0002441-0.0028152-0.0002441-0.0028152-0.0002441-0.0028152l0.7503662-0.0640869l0.0277863,0.0598984
			c0.8698425,0.0417862,1.7002258,0.2511292,2.4577332,0.6025696c0.1619568,0.0739365,0.3189087,0.1539459,0.4736938,0.24263
			C135.5756073,101.9126205,136.8999939,103.8292694,137.0949097,106.1113281z"/>
		<g>
			<g>
				<path class="st15" d="M133.7173157,100.8710022l-7.4644775,0.6375122
					c0.1375046-0.1136475,0.2813568-0.2193451,0.4284363-0.3196793l6.5623474-0.560463
					C133.4055786,100.7023087,133.5625305,100.7823181,133.7173157,100.8710022z"/>
			</g>
			<g>
				<path class="st15" d="M134.3257141,102.4270172l0.0240021,0.281044l-9.7745667,0.8348083
					c0.0535889-0.1008377,0.110199-0.2019272,0.169899-0.2975998L134.3257141,102.4270172z"/>
			</g>
			<g>
				<path class="st15" d="M134.4860535,104.3043747l0.0240021,0.281044l-10.6120682,0.9063339
					c0.0170898-0.0977173,0.0345535-0.1926346,0.0575104-0.288002L134.4860535,104.3043747z"/>
			</g>
			<g>
				<path class="st15" d="M134.6461487,106.1789169l0.0240021,0.281044l-10.8397217,0.9257813
					c-0.0065842-0.0447235-0.0106659-0.092514-0.0147476-0.1402893c-0.0040817-0.0477676-0.0079193-0.0927505-0.0092545-0.1407547
					L134.6461487,106.1789169z"/>
			</g>
			<g>
				<path class="st15" d="M134.806488,108.0562744l0.0240021,0.281044l-10.5278091,0.8991394
					c-0.0387955-0.0901108-0.0748444-0.1804428-0.1055145-0.2740784L134.806488,108.0562744z"/>
			</g>
			<g>
				<path class="st15" d="M134.9668274,109.9336319l0.0240021,0.281044l-9.5806656,0.8182449
					c-0.0752945-0.0869751-0.1451111-0.1744385-0.2151566-0.2647171L134.9668274,109.9336319z"/>
			</g>
			<g>
				<path class="st15" d="M134.6578522,111.8510742c-0.1377411,0.1108551-0.281601,0.2165451-0.4284363,0.3196793
					l-6.5594711,0.5602188c-0.1620941-0.0739136-0.3189087-0.1539307-0.4736938-0.2426376L134.6578522,111.8510742z"/>
			</g>
		</g>
		<path class="st15" d="M131.1093903,113.3076248c-0.0278778,0.0052185-0.0587616,0.0078506-0.0868988,0.0102539
			c-0.036499,0.0031204-0.0702515,0.0060043-0.1069946,0.0063095L131.1093903,113.3076248z"/>
		<circle class="st15" cx="131.5321808" cy="106.5876541" r="6.6629491"/>
		<circle class="st63" cx="131.5321808" cy="106.5876541" r="5.7112126"/>
		<path class="st15" d="M130.9154968,113.3241882l-0.0871429,0.0074387l-0.0002441-0.0028152
			C130.8564911,113.3292236,130.8876038,113.3293991,130.9154968,113.3241882z"/>
		<path class="st14" d="M133.6578979,107.7905426c0.072525,0.8491058-0.4499359,1.6962128-1.5420685,1.9725266l0.0954895,1.1181641
			l-0.6778564,0.0578918l-0.0928192-1.0867081c-0.6229706,0.0426407-1.2857666-0.0943375-1.6826477-0.3314667l0.1935883-0.7416
			l0.3075409-0.026268c0,0,0.0144501,0.0867615,0.0260162,0.1808167c0.3634491,0.1343765,0.8030853,0.2129822,1.2538605,0.1744843
			c0.765213-0.0653534,1.2412567-0.5494995,1.1890259-1.1609955c-0.0504303-0.5905304-0.5010529-0.9216156-1.3217163-1.1753311
			c-1.1339417-0.3360977-1.854187-0.7743835-1.9341736-1.7108383c-0.0760956-0.8910294,0.5019836-1.6232376,1.4770813-1.8684311
			l-0.092514-1.0832062l0.6639557-0.0567093l0.0889282,1.0412827c0.6481781-0.0342407,1.1031647,0.0993652,1.4299316,0.2580109
			l-0.0925751,0.3176498c0.0626068,0.1143112,0.1916351,0.3883896,0.1916351,0.3883896l-0.3075409,0.026268
			c-0.2346344-0.1101913-0.6952057-0.3101959-1.3835754-0.2514038c-0.8281708,0.0707321-1.0968323,0.5934677-1.0601196,1.0232773
			c0.0477448,0.5590744,0.4700165,0.8045807,1.4357758,1.1092834
			C132.9693604,106.3217773,133.5761414,106.8331223,133.6578979,107.7905426z"/>
		<path class="st17" d="M131.8409271,110.9130783l-0.0927124-1.08564c-0.6243591,0.0424957-1.2858276-0.0959015-1.6849823-0.3324966
			l0.1964722-0.7422104c0.4089813,0.2249298,0.9853668,0.381424,1.5873108,0.3300095
			c0.7631683-0.0651779,1.2414856-0.5499496,1.1891632-1.1626358c-0.0504913-0.5911942-0.5009155-0.9208527-1.3238831-1.1753845
			c-1.1331024-0.336319-1.8525238-0.772934-1.9323883-1.7080917c-0.0761871-0.8921585,0.5001526-1.6235046,1.4752808-1.8692017
			l-0.0927124-1.08564l0.6664276-0.0569153l0.0890503,1.0426483c0.6467743-0.0335846,1.1021729,0.1007538,1.4294891,0.2568665
			l-0.2081299,0.7323761c-0.2367401-0.1097031-0.6976471-0.3085403-1.3855743-0.2497864
			c-0.8276672,0.0706863-1.0971527,0.5917587-1.0604401,1.0217133c0.0477448,0.5589447,0.4693146,0.804451,1.4375305,1.1115417
			c1.1456909,0.3569031,1.7523651,0.8681107,1.8340759,1.8247604c0.072525,0.8491669-0.4507294,1.695076-1.5422668,1.9723663
			l0.0954742,1.1178894L131.8409271,110.9130783z"/>
	</g>
	<g>
		<path class="st14" d="M93.5673523,108.9228973c0.7920761,2.1490479,0.4053726,4.4439697-0.8306351,6.1801224
			c-0.1034851,0.1433716-0.2142258,0.283371-0.3285217,0.4216995c-0.5162277,0.6141357-1.1494293,1.1391068-1.8818817,1.5413361
			c0.0358276,0.0318909,0.0624542,0.0551453,0.0624542,0.0551453l-0.887619,0.3241348l-0.1825943,0.0672989
			c-0.0255203,0.0124207-0.0555725,0.0204849-0.0830383,0.0275955c-1.0640717,0.3591232-2.1612701,0.4328461-3.2044601,0.2611923
			c-0.1758804-0.0283661-0.3482819-0.0640106-0.5210342-0.1085739c-0.7509995-0.186142-1.4660034-0.5028-2.1076508-0.9306717
			c-0.0956345-0.0639343-0.1861115-0.1297989-0.2775574-0.1983109c-0.4723282-0.3519897-0.8985443-0.7660522-1.2659836-1.2408752
			c-0.0612717-0.0766296-0.1199493-0.1541901-0.1743088-0.2363739c-0.3088913-0.4302597-0.5682755-0.9058304-0.7710342-1.4233017
			c-0.0181885-0.0413818-0.0347748-0.0863876-0.0513611-0.1313705c-0.0165787-0.0449905-0.0321884-0.0873489-0.0461884-0.1332855
			c-0.1805954-0.522644-0.2944641-1.0518341-0.3386917-1.5796432c-0.0093918-0.0987549-0.0176697-0.1949081-0.0207825-0.2929535
			c-0.0286026-0.5997086,0.0268173-1.1912918,0.1578598-1.7656631c0.0249863-0.1114273,0.0528183-0.2238998,0.0850601-0.3319626
			c0.2095108-0.7445908,0.5462494-1.4458694,0.9942245-2.0739365c0.1025162-0.1460037,0.2132568-0.2860107,0.3285217-0.4216995
			c0.7182541-0.856926,1.665062-1.5425797,2.7898712-1.9571457c0.0369568-0.0136261,0.0740509-0.0272903,0.112114-0.0383148
			c-0.0009766-0.0026474-0.0009766-0.0026474-0.0009766-0.0026474l0.7066193-0.260437l0.0426559,0.0503998
			c0.8498764-0.1899719,1.7060471-0.2079315,2.5295715-0.0695648c0.1757584,0.0284348,0.3482895,0.0640335,0.5210266,0.1085815
			C90.9907455,105.2761841,92.7752838,106.7738495,93.5673523,108.9228973z"/>
		<g>
			<g>
				<path class="st15" d="M88.9230118,104.7636719l-7.0294037,2.5908279
					c0.1025162-0.1460037,0.2132568-0.2860107,0.3285217-0.4216995l6.1798553-2.27771
					C88.5777435,104.6835251,88.7502747,104.7191238,88.9230118,104.7636719z"/>
			</g>
			<g>
				<path class="st15" d="M89.9216309,106.1031113l0.0975418,0.2646637l-9.2048492,3.3926239
					c0.0249863-0.1114273,0.0528183-0.2238998,0.0850601-0.3319626L89.9216309,106.1031113z"/>
			</g>
			<g>
				<path class="st15" d="M90.5732346,107.871048l0.0975494,0.2646561l-9.9935379,3.6833115
					c-0.0093918-0.0987549-0.0176697-0.1949081-0.0207825-0.2929535L90.5732346,107.871048z"/>
			</g>
			<g>
				<path class="st15" d="M91.2238617,109.6363297l0.0975494,0.2646637l-10.2079239,3.7623215
					c-0.0181885-0.0413818-0.0347748-0.0863876-0.0513611-0.1313705c-0.0165787-0.0449905-0.0321884-0.0873489-0.0461884-0.1332855
					L91.2238617,109.6363297z"/>
			</g>
			<g>
				<path class="st15" d="M91.875473,111.4042587l0.0975418,0.2646637l-9.9141846,3.654068
					c-0.0612717-0.0766296-0.1199493-0.1541901-0.1743088-0.2363739L91.875473,111.4042587z"/>
			</g>
			<g>
				<path class="st15" d="M92.5270767,113.1721954l0.0975418,0.2646637l-9.0222473,3.3253174
					c-0.0956345-0.0639343-0.1861115-0.1297989-0.2775574-0.1983109L92.5270767,113.1721954z"/>
			</g>
			<g>
				<path class="st15" d="M92.7367172,115.1030197c-0.1034851,0.1433716-0.2142258,0.283371-0.3285217,0.4216995
					l-6.1771393,2.2767029c-0.1758804-0.0283661-0.3482819-0.0640106-0.5210342-0.1085739L92.7367172,115.1030197z"/>
			</g>
		</g>
		<path class="st15" d="M89.7004547,117.4469833c-0.0255203,0.012413-0.0545959,0.0231323-0.0810852,0.0328979
			c-0.0343781,0.0126648-0.0661697,0.0243835-0.1015167,0.0344009L89.7004547,117.4469833z"/>
		<circle class="st15" cx="88.3291855" cy="110.8548355" r="6.6629491"/>
		<circle class="st63" cx="88.3291855" cy="110.8548355" r="5.7112126"/>
		<path class="st15" d="M89.5178528,117.5142822l-0.0820618,0.0302505l-0.0009766-0.002655
			C89.4622803,117.5347672,89.4923325,117.5266953,89.5178528,117.5142822z"/>
		<path class="st14" d="M90.6975174,111.4520798c0.2947083,0.7996063,0.0151367,1.7548065-0.9648895,2.3103714l0.3881073,1.0529938
			l-0.6383591,0.2352829l-0.377182-1.0233688c-0.5894547,0.2060318-1.2648697,0.2494049-1.7103729,0.1258011l-0.0096283-0.7663956
			l0.2896118-0.1067429c0,0,0.0369034,0.0798416,0.0729446,0.1674805c0.3860626,0.0333633,0.8308182-0.0072174,1.2553177-0.1636734
			c0.7206192-0.2655945,1.0515137-0.85849,0.8392715-1.4343414c-0.2049637-0.5561142-0.7271652-0.7560883-1.5857086-0.7835083
			c-1.1824722-0.0239182-1.993042-0.2558975-2.3180771-1.1377716c-0.3092651-0.8390961,0.0543594-1.6982117,0.9297485-2.1927872
			l-0.3759613-1.0200729l0.6252594-0.2304535l0.361412,0.9805908c0.6159897-0.2046127,1.0901108-0.1962204,1.4472198-0.1297379
			l-0.0051804,0.3308182c0.0906372,0.0936584,0.2876053,0.3238068,0.2876053,0.3238068l-0.2896118,0.1067429
			c-0.2554321-0.0441437-0.7525177-0.1150818-1.4007568,0.1238327c-0.7799072,0.2874527-0.9005966,0.8626633-0.7514191,1.2674255
			c0.194046,0.5264816,0.6662445,0.6514511,1.678215,0.6896133
			C89.6447067,110.2179871,90.3652039,110.5504608,90.6975174,111.4520798z"/>
		<path class="st17" d="M89.7719879,114.9442139l-0.3768158-1.0223618c-0.5908279,0.2062607-1.2653275,0.2479095-1.712883,0.1254272
			l-0.0070267-0.767746c0.453949,0.1086349,1.0511932,0.1069565,1.6180496-0.1019669
			c0.718689-0.2648926,1.0516052-0.8589859,0.8389511-1.4359665c-0.2052002-0.5567322-0.7268219-0.755394-1.5877991-0.7829819
			c-1.1817169-0.024353-1.9910507-0.2549438-2.3156281-1.1355972c-0.3096619-0.8401566,0.0525208-1.6979904,0.9278183-2.1930618
			l-0.3768082-1.0223618l0.6275864-0.231308l0.3618927,0.9818726c0.6148071-0.2036057,1.0895157-0.1946106,1.4464874-0.130722
			l-0.0068207,0.7613525c-0.2573471-0.0431213-0.7544403-0.112854-1.4022751,0.1259155
			c-0.7794266,0.2872772-0.9013596,0.8610992-0.752121,1.2659988c0.1940002,0.5263596,0.6655273,0.6515045,1.6804886,0.69133
			c1.1993027,0.0408707,1.9196701,0.37323,2.251709,1.2741241c0.2947388,0.799675,0.0140839,1.7539291-0.9651031,2.3102798
			l0.3880081,1.0527267L89.7719879,114.9442139z"/>
	</g>
	<g>
		<path class="st14" d="M76.7005539,110.5308838c0.1556473,1.1812363-0.3035583,2.3014221-1.1296768,3.0407486
			c-0.0689392,0.0608826-0.1411743,0.1192398-0.2150269,0.1763306c-0.3323212,0.2524719-0.7137756,0.4462891-1.1315308,0.566452
			c0.0145264,0.0202942,0.0253754,0.035141,0.0253754,0.035141l-0.4875412,0.0627594l-0.1003723,0.0132294
			c-0.0143661,0.0033722-0.0305405,0.0040207-0.0452957,0.0044861c-0.5810852,0.0602951-1.1462708-0.0280304-1.6559372-0.2346725
			c-0.0859985-0.0345459-0.1693954-0.0723953-0.2519455-0.1147995c-0.3597412-0.1805115-0.686264-0.4231262-0.9628143-0.7137604
			c-0.0412064-0.0434036-0.079567-0.0871887-0.1181183-0.1324387c-0.1993332-0.2327271-0.3681564-0.4916763-0.5001907-0.7747192
			c-0.0223083-0.0458984-0.0431976-0.09198-0.0613632-0.1399078c-0.1074295-0.2537231-0.1845551-0.5247574-0.2281418-0.8105698
			c-0.0044861-0.0230865-0.0077438-0.047821-0.0110016-0.0725479s-0.0063248-0.0480118-0.0081635-0.0729218
			c-0.0317459-0.2859039-0.0288849-0.5674667,0.0091553-0.8403549c0.0065536-0.0511932,0.0133667-0.1009293,0.0230255-0.1510391
			c0.0542068-0.307579,0.150116-0.6014099,0.2824326-0.8778458c0.025444-0.0536728,0.0524521-0.1075592,0.0811996-0.1586914
			c0.1916351-0.3538132,0.4428635-0.6710739,0.7421494-0.9384384c0.0687408-0.0623322,0.1409836-0.1206818,0.2150192-0.1763306
			c0.4626541-0.3525162,1.0216522-0.5919266,1.6399155-0.6734009c0.0203094-0.0026703,0.0406952-0.0053635,0.0612793-0.0065918
			c-0.0001907-0.0014572-0.0001907-0.0014572-0.0001907-0.0014572l0.3883972-0.051178l0.0158615,0.0304642
			c0.4530182,0.0009918,0.8895187,0.0899963,1.2915344,0.25457c0.0859222,0.0345688,0.1693878,0.072403,0.2519379,0.1147995
			C75.8110046,108.3852081,76.544899,109.3496475,76.7005539,110.5308838z"/>
		<g>
			<g>
				<path class="st15" d="M74.8205261,107.8881989l-3.8637543,0.5091248
					c0.0687408-0.0623322,0.1409836-0.1206818,0.2150192-0.1763306l3.3967972-0.4475937
					C74.6545105,107.8079681,74.7379761,107.8458023,74.8205261,107.8881989z"/>
			</g>
			<g>
				<path class="st15" d="M75.1737595,108.6822968l0.019165,0.1454697l-5.0595016,0.666687
					c0.025444-0.0536728,0.0524521-0.1075592,0.0811996-0.1586914L75.1737595,108.6822968z"/>
			</g>
			<g>
				<path class="st15" d="M75.3018036,109.6540527l0.0191727,0.1454697l-5.4930115,0.7238159
					c0.0065536-0.0511932,0.0133667-0.1009293,0.0230255-0.1510391L75.3018036,109.6540527z"/>
			</g>
			<g>
				<path class="st15" d="M75.429657,110.6243515l0.0191727,0.1454697l-5.6108551,0.7393417
					c-0.0044861-0.0230865-0.0077438-0.047821-0.0110016-0.0725479s-0.0063248-0.0480118-0.0081635-0.0729218L75.429657,110.6243515
					z"/>
			</g>
			<g>
				<path class="st15" d="M75.5577087,111.5961075l0.019165,0.1454697l-5.4493942,0.7180634
					c-0.0223083-0.0458984-0.0431976-0.09198-0.0613632-0.1399078L75.5577087,111.5961075z"/>
			</g>
			<g>
				<path class="st15" d="M75.6857529,112.5678635l0.0191727,0.1454697l-4.959137,0.6534653
					c-0.0412064-0.0434036-0.079567-0.0871887-0.1181183-0.1324387L75.6857529,112.5678635z"/>
			</g>
			<g>
				<path class="st15" d="M75.5708771,113.5716324c-0.0689392,0.0608826-0.1411743,0.1192398-0.2150269,0.1763306
					l-3.3953018,0.4473953c-0.0859985-0.0345459-0.1693954-0.0723953-0.2519455-0.1147995L75.5708771,113.5716324z"/>
			</g>
		</g>
		<path class="st15" d="M73.7616119,114.4130707c-0.0143738,0.0033798-0.0303574,0.0054855-0.0449142,0.0074005
			c-0.018898,0.0024948-0.0363693,0.0047913-0.0554581,0.0058289L73.7616119,114.4130707z"/>
		<circle class="st15" cx="73.8212051" cy="110.9109421" r="3.4660642"/>
		<circle class="st63" cx="73.8212051" cy="110.9109421" r="2.9709713"/>
		<path class="st15" d="M73.6612396,114.4263l-0.045105,0.0059433l-0.0001907-0.0014572
			C73.6306992,114.4303207,73.6468735,114.4296722,73.6612396,114.4263z"/>
		<path class="st14" d="M74.9545059,111.4853821c0.0579147,0.4395142-0.1934052,0.8921661-0.7543488,1.0617676l0.0762634,0.5787888
			l-0.3508759,0.0462341l-0.0741196-0.5625c-0.3227158,0.0369949-0.6704025-0.0183945-0.8822937-0.132164l0.0829315-0.3899841
			l0.1591873-0.0209808c0,0,0.0095825,0.0447464,0.0178299,0.0933456c0.19207,0.0611649,0.4223938,0.0915451,0.6557236,0.0607986
			c0.3960953-0.0521927,0.6319351-0.3151245,0.5902328-0.6316452c-0.0402832-0.3056717-0.282341-0.46698-0.7148438-0.579277
			c-0.5972672-0.1476364-0.981987-0.3582382-1.0458603-0.8429642c-0.0607681-0.4612122,0.2221832-0.8554764,0.723053-1.0061264
			l-0.0738831-0.5606918l0.3436813-0.0452805l0.071022,0.5389862c0.3360062-0.0332336,0.5756302,0.0253525,0.7492142,0.1000061
			l-0.040535,0.1672745c0.0352554,0.0579071,0.1088333,0.1972656,0.1088333,0.1972656l-0.1591873,0.0209732
			c-0.1245575-0.0516739-0.36866-0.1446304-0.724968-0.0976791c-0.4286804,0.056488-0.5558395,0.3345337-0.5265198,0.5570068
			c0.0381317,0.2893906,0.2634125,0.4069061,0.7725372,0.5422363
			C74.5617065,110.7385406,74.8892059,110.9898071,74.9545059,111.4853821z"/>
		<path class="st17" d="M74.0847015,113.1513138l-0.0740433-0.5619507c-0.3234406,0.0369568-0.6704636-0.0192032-0.8835297-0.132637
			l0.0844116-0.3903732c0.2178955,0.1071396,0.5211411,0.1747284,0.8327179,0.133667
			c0.3950348-0.0520477,0.6320419-0.315361,0.5902481-0.6324997c-0.0403214-0.3060074-0.2822342-0.4665909-0.7159576-0.5792542
			c-0.5968399-0.1477661-0.9810867-0.3575211-1.0448685-0.8415756c-0.0608521-0.4617996,0.2212296-0.8555756,0.7221069-1.006485
			l-0.0740509-0.5619431l0.3449631-0.0454559l0.0711136,0.5396957c0.3352966-0.0328674,0.5751419,0.0261002,0.7489624,0.0994186
			l-0.0907135,0.3855438c-0.1256332-0.0513687-0.3698807-0.1437149-0.7259674-0.0967941
			c-0.428421,0.0564575-0.5560455,0.3336487-0.5267181,0.5562057c0.0381241,0.2893219,0.2630463,0.4068527,0.7734909,0.5433655
			c0.6038742,0.1581726,0.9313126,0.4093704,0.9965668,0.9045486c0.0579147,0.4395447-0.19384,0.8915939-0.7544556,1.0616913
			l0.0762482,0.5786438L74.0847015,113.1513138z"/>
	</g>
	<g>
		<path class="st14" d="M82.3903198,80.9138489c0.1556473,1.1812363-0.3035507,2.3014145-1.1296768,3.040741
			c-0.0689392,0.0608902-0.1411743,0.1192398-0.2150269,0.1763306c-0.3323135,0.2524719-0.7137756,0.4462891-1.1315308,0.5664597
			c0.0145264,0.0202866,0.0253754,0.0351334,0.0253754,0.0351334l-0.4875412,0.062767l-0.1003647,0.0132217
			c-0.0143738,0.0033798-0.0305481,0.0040283-0.0453033,0.0044861c-0.5810852,0.0602951-1.1462708-0.0280228-1.6559372-0.2346725
			c-0.0859985-0.0345459-0.1693878-0.0723877-0.2519379-0.1147995c-0.3597488-0.1805115-0.6862717-0.4231186-0.962822-0.7137604
			c-0.0412064-0.0434036-0.079567-0.0871887-0.1181183-0.132431c-0.1993332-0.2327347-0.3681564-0.4916763-0.5001907-0.7747192
			c-0.0223083-0.0459061-0.0431976-0.0919876-0.0613632-0.1399155c-0.1074295-0.2537231-0.1845551-0.5247574-0.2281418-0.8105698
			c-0.0044861-0.0230789-0.0077438-0.047821-0.0110016-0.0725479s-0.0063248-0.0480042-0.0081635-0.0729218
			c-0.0317459-0.2858963-0.0288849-0.5674667,0.0091553-0.8403549c0.0065536-0.0511856,0.0133667-0.1009293,0.0230255-0.1510315
			c0.0542068-0.3075867,0.150116-0.6014175,0.2824326-0.8778458c0.025444-0.0536804,0.0524521-0.1075592,0.0811996-0.158699
			c0.1916351-0.3538132,0.4428635-0.6710739,0.7421494-0.9384308c0.0687485-0.0623398,0.1409836-0.1206894,0.2150192-0.1763306
			c0.4626541-0.3525162,1.0216522-0.5919342,1.6399155-0.6734009c0.0203171-0.0026779,0.0407028-0.0053635,0.0612793-0.0065918
			c-0.0001907-0.0014572-0.0001907-0.0014572-0.0001907-0.0014572l0.3883972-0.051178l0.0158691,0.0304642
			c0.4530106,0.0009918,0.8895111,0.0899887,1.2915268,0.25457c0.0859222,0.0345612,0.1693878,0.0723953,0.2519379,0.1147995
			C81.5007782,78.7681656,82.2346649,79.7326126,82.3903198,80.9138489z"/>
		<g>
			<g>
				<path class="st15" d="M80.5102921,78.2711639l-3.8637543,0.5091248
					c0.0687485-0.0623398,0.1409836-0.1206894,0.2150192-0.1763306l3.3967972-0.4475937
					C80.3442764,78.1909256,80.427742,78.2287598,80.5102921,78.2711639z"/>
			</g>
			<g>
				<path class="st15" d="M80.8635254,79.0652542l0.019165,0.1454773l-5.0595016,0.666687
					c0.025444-0.0536804,0.0524521-0.1075592,0.0811996-0.158699L80.8635254,79.0652542z"/>
			</g>
			<g>
				<path class="st15" d="M80.9915695,80.0370102l0.0191727,0.1454773l-5.4930115,0.7238083
					c0.0065536-0.0511856,0.0133667-0.1009293,0.0230255-0.1510315L80.9915695,80.0370102z"/>
			</g>
			<g>
				<path class="st15" d="M81.1194229,81.007309l0.0191727,0.1454773l-5.6108551,0.7393341
					c-0.0044861-0.0230789-0.0077438-0.047821-0.0110016-0.0725479s-0.0063248-0.0480042-0.0081635-0.0729218L81.1194229,81.007309z
					"/>
			</g>
			<g>
				<path class="st15" d="M81.2474747,81.9790649l0.019165,0.1454773l-5.4493942,0.7180634
					c-0.0223083-0.0459061-0.0431976-0.0919876-0.0613632-0.1399155L81.2474747,81.9790649z"/>
			</g>
			<g>
				<path class="st15" d="M81.3755188,82.9508209l0.0191727,0.1454773l-4.959137,0.6534576
					c-0.0412064-0.0434036-0.079567-0.0871887-0.1181183-0.132431L81.3755188,82.9508209z"/>
			</g>
			<g>
				<path class="st15" d="M81.260643,83.9545898c-0.0689392,0.0608902-0.1411743,0.1192398-0.2150269,0.1763306
					l-3.3953018,0.4473953c-0.0859985-0.0345459-0.1693878-0.0723877-0.2519379-0.1147995L81.260643,83.9545898z"/>
			</g>
		</g>
		<path class="st15" d="M79.4513779,84.7960358c-0.0143738,0.0033722-0.0303574,0.0054779-0.0449142,0.0074005
			c-0.018898,0.0024872-0.0363693,0.0047913-0.0554581,0.0058212L79.4513779,84.7960358z"/>
		<circle class="st15" cx="79.5109711" cy="81.2938995" r="3.4660642"/>
		<circle class="st63" cx="79.5109711" cy="81.2938995" r="2.9709713"/>
		<path class="st15" d="M79.3510056,84.8092575l-0.045105,0.0059433l-0.0001907-0.0014572
			C79.3204651,84.8132858,79.3366394,84.8126373,79.3510056,84.8092575z"/>
		<path class="st14" d="M80.6442719,81.8683472c0.0579147,0.4395065-0.1934052,0.8921585-0.7543488,1.0617676l0.0762634,0.5787811
			L79.6153107,83.55513l-0.0741196-0.5625c-0.3227158,0.0369949-0.6704025-0.0183868-0.8822937-0.1321564l0.0829315-0.3899918
			l0.1591873-0.0209732c0,0,0.0095825,0.0447388,0.0178299,0.093338c0.19207,0.0611725,0.4224014,0.0915451,0.6557236,0.0607986
			c0.3960953-0.0521927,0.6319351-0.3151245,0.5902328-0.6316452c-0.0402832-0.3056641-0.282341-0.46698-0.7148438-0.579277
			c-0.5972672-0.1476364-0.981987-0.3582306-1.0458603-0.8429565c-0.0607681-0.4612198,0.2221832-0.855484,0.723053-1.0061264
			l-0.0738831-0.5606918l0.3436813-0.0452881l0.071022,0.5389862c0.3360062-0.0332336,0.5756302,0.0253525,0.7492142,0.1000137
			l-0.040535,0.1672668c0.0352554,0.0579147,0.1088333,0.1972656,0.1088333,0.1972656l-0.1591873,0.0209732
			c-0.1245575-0.0516663-0.36866-0.1446304-0.724968-0.0976791c-0.4286804,0.056488-0.5558395,0.3345337-0.5265198,0.5570145
			c0.0381317,0.2893829,0.2634125,0.4069061,0.7725372,0.5422363
			C80.2514725,81.1214981,80.5789719,81.3727646,80.6442719,81.8683472z"/>
		<path class="st17" d="M79.7744675,83.5342712l-0.0740433-0.5619507c-0.3234406,0.0369644-0.6704636-0.0192032-0.8835297-0.132637
			l0.0844116-0.3903732c0.2178955,0.1071396,0.5211411,0.1747284,0.8327179,0.1336746
			c0.3950348-0.0520554,0.6320419-0.315361,0.5902481-0.6324997c-0.0403214-0.306015-0.2822342-0.4665909-0.7159576-0.5792542
			c-0.5968323-0.1477737-0.9810791-0.3575211-1.0448685-0.8415756c-0.0608521-0.4617996,0.2212296-0.8555756,0.7221069-1.006485
			l-0.0740509-0.5619507l0.3449631-0.0454559l0.0711136,0.5396957c0.3352966-0.0328598,0.5751419,0.0261002,0.7489624,0.0994263
			l-0.0907135,0.3855438c-0.1256332-0.0513687-0.3698807-0.1437149-0.7259674-0.0967941
			c-0.428421,0.0564499-0.5560455,0.3336487-0.5267181,0.5561981c0.0381241,0.2893219,0.2630463,0.4068604,0.7734909,0.5433731
			c0.6038742,0.158165,0.9313126,0.4093628,0.9965668,0.9045486c0.0579147,0.439537-0.19384,0.8915863-0.7544556,1.0616913
			l0.0762482,0.5786362L79.7744675,83.5342712z"/>
	</g>
	<g>
		<path class="st14" d="M128.6572113,76.787056c0.1556549,1.1812363-0.3035431,2.3014145-1.1296768,3.040741
			c-0.0689392,0.0608902-0.1411743,0.1192398-0.2150192,0.1763306c-0.3323212,0.2524719-0.7137756,0.4462891-1.1315308,0.5664597
			c0.0145264,0.0202866,0.0253677,0.0351334,0.0253677,0.0351334l-0.4875412,0.062767l-0.1003647,0.0132217
			c-0.0143661,0.0033722-0.0305405,0.0040283-0.0452957,0.0044861c-0.5810852,0.0602951-1.1462708-0.0280304-1.6559448-0.2346725
			c-0.0859909-0.0345459-0.1693878-0.0723877-0.2519379-0.1147995c-0.3597488-0.1805115-0.686264-0.4231186-0.962822-0.7137604
			c-0.0411987-0.0434036-0.0795593-0.0871887-0.1181107-0.132431c-0.1993332-0.2327347-0.3681564-0.4916763-0.5001907-0.7747192
			c-0.0223083-0.0459061-0.0431976-0.0919876-0.0613632-0.1399155c-0.1074371-0.2537231-0.1845551-0.5247574-0.2281418-0.8105698
			c-0.0044861-0.0230865-0.0077438-0.047821-0.0110092-0.0725479c-0.0032578-0.0247269-0.0063248-0.0480118-0.0081635-0.0729218
			c-0.0317459-0.2858963-0.0288849-0.5674667,0.0091553-0.8403549c0.0065536-0.0511856,0.0133667-0.1009293,0.0230255-0.1510315
			c0.0542068-0.3075867,0.1501236-0.6014175,0.2824326-0.8778458c0.0254517-0.0536804,0.0524597-0.1075592,0.0811996-0.158699
			c0.1916351-0.3538132,0.4428635-0.6710739,0.7421494-0.9384308c0.0687485-0.0623398,0.1409836-0.1206894,0.2150192-0.1763306
			c0.4626617-0.3525162,1.0216599-0.5919342,1.6399155-0.6734009c0.0203171-0.0026779,0.0407028-0.0053635,0.0612793-0.0065994
			c-0.0001907-0.0014496-0.0001907-0.0014496-0.0001907-0.0014496l0.3883972-0.0511856l0.0158691,0.0304718
			c0.4530182,0.0009842,0.8895187,0.0899887,1.2915344,0.25457c0.0859222,0.0345612,0.1693878,0.0723953,0.2519379,0.1147995
			C127.7676697,74.6413727,128.5015564,75.6058197,128.6572113,76.787056z"/>
		<g>
			<g>
				<path class="st15" d="M126.7771912,74.144371l-3.8637619,0.5091248
					c0.0687485-0.0623398,0.1409836-0.1206894,0.2150192-0.1763306l3.3968048-0.4475937
					C126.6111755,74.0641327,126.6946411,74.1019669,126.7771912,74.144371z"/>
			</g>
			<g>
				<path class="st15" d="M127.1304169,74.9384613l0.0191727,0.1454773l-5.0595093,0.666687
					c0.0254517-0.0536804,0.0524597-0.1075592,0.0811996-0.158699L127.1304169,74.9384613z"/>
			</g>
			<g>
				<path class="st15" d="M127.2584686,75.9102173l0.019165,0.1454773l-5.4930115,0.7238083
					c0.0065536-0.0511856,0.0133667-0.1009293,0.0230255-0.1510315L127.2584686,75.9102173z"/>
			</g>
			<g>
				<path class="st15" d="M127.386322,76.8805161l0.019165,0.1454773l-5.6108475,0.7393341
					c-0.0044861-0.0230865-0.0077438-0.047821-0.0110092-0.0725479c-0.0032578-0.0247269-0.0063248-0.0480118-0.0081635-0.0729218
					L127.386322,76.8805161z"/>
			</g>
			<g>
				<path class="st15" d="M127.5143661,77.852272l0.0191727,0.1454773l-5.4493942,0.7180634
					c-0.0223083-0.0459061-0.0431976-0.0919876-0.0613632-0.1399155L127.5143661,77.852272z"/>
			</g>
			<g>
				<path class="st15" d="M127.6424179,78.824028l0.019165,0.1454773l-4.959137,0.6534576
					c-0.0411987-0.0434036-0.0795593-0.0871887-0.1181107-0.132431L127.6424179,78.824028z"/>
			</g>
			<g>
				<path class="st15" d="M127.5275345,79.8277969c-0.0689392,0.0608902-0.1411743,0.1192398-0.2150192,0.1763306
					l-3.3953094,0.4473953c-0.0859909-0.0345459-0.1693878-0.0723877-0.2519379-0.1147995L127.5275345,79.8277969z"/>
			</g>
		</g>
		<path class="st15" d="M125.7182693,80.6692429c-0.0143661,0.0033722-0.0303497,0.0054779-0.0449142,0.0074005
			c-0.0188904,0.0024872-0.0363693,0.0047913-0.0554504,0.0058212L125.7182693,80.6692429z"/>
		<circle class="st15" cx="125.7778702" cy="77.1671066" r="3.4660642"/>
		<circle class="st63" cx="125.7778702" cy="77.1671066" r="2.9709713"/>
		<path class="st15" d="M125.6179047,80.6824646l-0.045105,0.0059433l-0.0001907-0.0014572
			C125.5873566,80.6864929,125.6035309,80.6858368,125.6179047,80.6824646z"/>
		<path class="st14" d="M126.911171,77.7415543c0.0579147,0.4395065-0.1934052,0.8921585-0.7543564,1.0617676l0.0762711,0.5787811
			l-0.3508759,0.0462341l-0.0741196-0.5625c-0.3227158,0.0369949-0.6704025-0.0183945-0.8823013-0.132164l0.0829391-0.3899841
			l0.1591873-0.0209732c0,0,0.0095749,0.0447388,0.0178223,0.093338c0.19207,0.0611725,0.4224014,0.0915451,0.6557312,0.0607986
			c0.3960953-0.0521927,0.6319351-0.3151245,0.5902252-0.6316452c-0.0402756-0.3056717-0.2823334-0.46698-0.7148361-0.579277
			c-0.5972748-0.1476364-0.981987-0.3582306-1.0458603-0.8429642c-0.0607758-0.4612122,0.2221832-0.8554764,0.723053-1.0061188
			l-0.0738831-0.5606918l0.3436737-0.0452881l0.071022,0.5389862c0.3360138-0.0332336,0.5756302,0.0253525,0.7492218,0.1000137
			l-0.0405426,0.1672668c0.0352631,0.0579147,0.1088333,0.1972656,0.1088333,0.1972656l-0.1591873,0.0209732
			c-0.1245575-0.0516663-0.36866-0.1446304-0.724968-0.0976791c-0.4286804,0.056488-0.5558319,0.3345337-0.5265198,0.5570068
			c0.0381317,0.2893906,0.2634125,0.4069061,0.7725372,0.542244
			C126.5183716,76.9947052,126.845871,77.2459717,126.911171,77.7415543z"/>
		<path class="st17" d="M126.0413666,79.4074783l-0.0740509-0.5619507c-0.3234329,0.0369568-0.6704636-0.0192032-0.883522-0.132637
			l0.0844116-0.3903732c0.2178879,0.1071396,0.5211411,0.1747284,0.8327179,0.1336746
			c0.3950348-0.0520554,0.6320343-0.315361,0.5902481-0.6324997c-0.0403214-0.306015-0.2822418-0.4665909-0.7159576-0.5792542
			c-0.5968399-0.1477737-0.9810867-0.3575211-1.0448685-0.8415756c-0.0608521-0.4617996,0.2212296-0.8555832,0.7220993-1.006485
			l-0.0740433-0.5619507l0.3449554-0.0454559l0.0711136,0.5396957c0.3353043-0.0328598,0.5751495,0.0261002,0.7489624,0.0994263
			l-0.0907059,0.3855438c-0.1256409-0.0513763-0.3698883-0.1437225-0.725975-0.0968018
			c-0.4284134,0.0564575-0.5560379,0.3336563-0.5267181,0.5562057c0.0381241,0.2893219,0.2630539,0.4068527,0.7734985,0.5433731
			c0.6038666,0.158165,0.9313126,0.4093628,0.9965591,0.904541c0.0579224,0.4395447-0.19384,0.8915939-0.7544479,1.0616913
			l0.0762405,0.5786438L126.0413666,79.4074783z"/>
	</g>
	<g>
		<path class="st14" d="M114.0846634,57.9002838c0.1556473,1.1812363-0.3035583,2.3014183-1.1296768,3.040741
			c-0.0689392,0.0608902-0.1411743,0.1192398-0.2150269,0.1763306c-0.3323212,0.2524719-0.7137756,0.4462929-1.1315308,0.5664597
			c0.0145264,0.0202866,0.0253754,0.0351372,0.0253754,0.0351372l-0.4875412,0.0627594l-0.1003723,0.0132256
			c-0.0143661,0.003376-0.0305405,0.0040245-0.0452957,0.0044899c-0.5810852,0.0602913-1.1462708-0.0280304-1.6559372-0.2346725
			c-0.0859985-0.0345497-0.1693954-0.0723915-0.2519455-0.1148033c-0.3597412-0.1805077-0.686264-0.4231186-0.9628143-0.7137566
			c-0.0412064-0.0434036-0.079567-0.0871925-0.1181183-0.1324348c-0.1993332-0.2327309-0.3681564-0.4916801-0.5001907-0.7747231
			c-0.0223083-0.0459023-0.0431976-0.09198-0.0613632-0.1399117c-0.1074295-0.2537193-0.1845551-0.5247574-0.2281418-0.8105659
			c-0.0044861-0.0230865-0.0077438-0.047821-0.0110016-0.0725517c-0.0032578-0.0247269-0.0063248-0.048008-0.0081635-0.0729218
			c-0.0317459-0.2858963-0.0288849-0.5674667,0.0091553-0.8403549c0.006546-0.0511856,0.0133667-0.1009254,0.0230255-0.1510315
			c0.0542068-0.3075867,0.150116-0.6014137,0.2824326-0.8778458c0.025444-0.0536766,0.0524521-0.1075592,0.0811996-0.158699
			c0.1916351-0.3538132,0.4428635-0.6710701,0.7421417-0.9384308c0.0687485-0.062336,0.1409912-0.1206894,0.2150269-0.1763344
			c0.4626541-0.3525162,1.0216522-0.5919304,1.6399155-0.6733971c0.0203094-0.0026779,0.0406952-0.0053635,0.0612793-0.0065956
			c-0.0001984-0.0014572-0.0001984-0.0014572-0.0001984-0.0014572l0.3884048-0.051178l0.0158615,0.0304642
			c0.4530182,0.0009918,0.8895187,0.0899925,1.2915344,0.25457c0.0859222,0.0345688,0.1693878,0.072403,0.2519379,0.1148033
			C113.1951141,55.7546043,113.9290085,56.7190437,114.0846634,57.9002838z"/>
		<g>
			<g>
				<path class="st15" d="M112.2046356,55.2575989l-3.8637619,0.5091248
					c0.0687485-0.062336,0.1409912-0.1206894,0.2150269-0.1763344l3.3967972-0.4475937
					C112.03862,55.1773643,112.1220856,55.2151985,112.2046356,55.2575989z"/>
			</g>
			<g>
				<path class="st15" d="M112.557869,56.051693l0.019165,0.1454735l-5.0595016,0.666687
					c0.025444-0.0536766,0.0524521-0.1075592,0.0811996-0.158699L112.557869,56.051693z"/>
			</g>
			<g>
				<path class="st15" d="M112.6859131,57.0234489l0.019165,0.1454697l-5.4930038,0.7238121
					c0.006546-0.0511856,0.0133667-0.1009254,0.0230255-0.1510315L112.6859131,57.0234489z"/>
			</g>
			<g>
				<path class="st15" d="M112.8137665,57.9937477l0.0191727,0.1454735l-5.6108551,0.7393379
					c-0.0044861-0.0230865-0.0077438-0.047821-0.0110016-0.0725517c-0.0032578-0.0247269-0.0063248-0.048008-0.0081635-0.0729218
					L112.8137665,57.9937477z"/>
			</g>
			<g>
				<path class="st15" d="M112.9418182,58.9655037l0.019165,0.1454735l-5.4493942,0.7180595
					c-0.0223083-0.0459023-0.0431976-0.09198-0.0613632-0.1399117L112.9418182,58.9655037z"/>
			</g>
			<g>
				<path class="st15" d="M113.0698624,59.9372597l0.0191727,0.1454697l-4.959137,0.6534653
					c-0.0412064-0.0434036-0.079567-0.0871925-0.1181183-0.1324348L113.0698624,59.9372597z"/>
			</g>
			<g>
				<path class="st15" d="M112.9549866,60.9410248c-0.0689392,0.0608902-0.1411743,0.1192398-0.2150269,0.1763306
					l-3.3953018,0.4473991c-0.0859985-0.0345497-0.1693954-0.0723915-0.2519455-0.1148033L112.9549866,60.9410248z"/>
			</g>
		</g>
		<path class="st15" d="M111.1457138,61.7824707c-0.0143661,0.0033722-0.0303497,0.0054779-0.0449066,0.0073967
			c-0.018898,0.002491-0.0363693,0.0047951-0.0554581,0.005825L111.1457138,61.7824707z"/>
		<circle class="st15" cx="111.2053146" cy="58.2803345" r="3.4660642"/>
		<circle class="st63" cx="111.2053146" cy="58.2803345" r="2.9709713"/>
		<path class="st15" d="M111.0453491,61.7956924l-0.045105,0.0059471l-0.0001907-0.0014572
			C111.0148087,61.7997208,111.030983,61.7990685,111.0453491,61.7956924z"/>
		<path class="st14" d="M112.3386154,58.8547821c0.0579147,0.4395103-0.1934052,0.8921623-0.7543488,1.0617638l0.0762634,0.5787849
			l-0.3508759,0.0462341l-0.0741196-0.5625c-0.3227158,0.0369987-0.6704025-0.0183907-0.8822937-0.1321602l0.0829315-0.3899879
			l0.1591873-0.020977c0,0,0.0095825,0.0447426,0.0178299,0.0933418c0.19207,0.0611687,0.4223938,0.0915451,0.6557236,0.0607986
			c0.3960953-0.0521927,0.6319351-0.3151207,0.5902328-0.6316452c-0.0402832-0.3056679-0.282341-0.46698-0.7148438-0.5792732
			c-0.5972672-0.1476402-0.981987-0.3582344-1.0458603-0.8429642c-0.0607758-0.4612122,0.2221832-0.8554764,0.723053-1.0061264
			l-0.0738831-0.560688l0.3436813-0.0452881l0.071022,0.5389862c0.3360062-0.0332336,0.5756302,0.0253525,0.7492142,0.1000099
			l-0.040535,0.1672707c0.0352554,0.0579109,0.1088333,0.1972656,0.1088333,0.1972656l-0.1591949,0.020977
			c-0.1245499-0.0516701-0.3686523-0.1446304-0.7249603-0.097683c-0.4286804,0.056488-0.5558395,0.3345337-0.5265198,0.5570107
			c0.0381317,0.2893867,0.2634125,0.4069061,0.7725372,0.5422363
			C111.945816,58.107933,112.2733154,58.3591995,112.3386154,58.8547821z"/>
		<path class="st17" d="M111.468811,60.5207062l-0.0740433-0.5619469c-0.3234406,0.0369568-0.6704636-0.0192032-0.8835297-0.1326408
			l0.0844116-0.3903732c0.2178955,0.1071396,0.5211411,0.1747284,0.8327179,0.1336746
			c0.3950348-0.0520554,0.6320419-0.3153648,0.5902481-0.6325035c-0.0403214-0.3060112-0.2822342-0.4665871-0.7159576-0.5792503
			c-0.5968399-0.1477737-0.9810867-0.3575249-1.0448685-0.8415794c-0.0608521-0.4617958,0.2212296-0.8555756,0.7221069-1.0064812
			l-0.0740509-0.5619507l0.3449631-0.0454521l0.0711136,0.5396919c0.3352966-0.0328598,0.5751419,0.0261002,0.7489624,0.0994263
			l-0.0907135,0.38554c-0.1256332-0.0513687-0.3698807-0.1437149-0.7259674-0.0967941
			c-0.428421,0.0564537-0.5560455,0.3336525-0.5267181,0.5562057c0.0381241,0.2893181,0.2630463,0.4068527,0.7734909,0.5433693
			c0.6038742,0.158165,0.9313126,0.4093628,0.9965668,0.9045448c0.0579147,0.4395447-0.19384,0.8915939-0.7544556,1.0616913
			l0.0762482,0.57864L111.468811,60.5207062z"/>
	</g>
	<text transform="matrix(-0.02367 -0.99972 0.99972 -0.02367 117.5003586 95.2705994)" class="st74 st75 st76">$</text>
	<text transform="matrix(-0.74395 -0.66824 0.66824 -0.74395 95.7705612 97.9747696)" class="st74 st75 st77">$</text>
	<path class="st68" d="M117.1053314,102.242691c0,0,0.9496078-1.3510742,1.1491165-4.1663513"/>
	<path class="st68" d="M118.3973999,102.5353088c0,0,0.9496078-1.3510818,1.1491165-4.1663589"/>
	<path class="st78" d="M91.6227493,99.5277023c0,0,4.6460342,2.0593262,5.9770584,6.2030869l7.7601395-1.7077332
		c0,0-4.3446732-6.4291077-9.1413956-7.7601395"/>
	<path class="st79" d="M94.9939499,95.8593445c0,0-3.9161835,1.172821-5.2718964,4.629776l-9.3359451,3.7009583
		c0,0,1.7158051-5.69767,6.5426636-7.5463715"/>
</g>
</svg>
