<?xml version="1.0" encoding="utf-8"?>
<!-- Generator: Adobe Illustrator 22.0.1, SVG Export Plug-In . SVG Version: 6.00 Build 0)  -->
<svg version="1.1" id="Layer_1" xmlns="http://www.w3.org/2000/svg" xmlns:xlink="http://www.w3.org/1999/xlink" x="0px" y="0px"
	 viewBox="0 0 156 156" style="enable-background:new 0 0 156 156;" xml:space="preserve">
<style type="text/css">
	.st0{fill:#FFD9B2;}
	.st1{fill:#F7AC76;}
	.st2{fill:none;stroke:#3643C3;stroke-width:0.5;stroke-linecap:round;stroke-linejoin:round;stroke-miterlimit:10;}
	.st3{fill:#233764;}
	.st4{fill:none;stroke:#F7AC76;stroke-width:0.5;stroke-linecap:round;stroke-linejoin:round;stroke-miterlimit:10;}
	.st5{fill:#161718;}
	.st6{fill:#FFFFFF;}
	.st7{fill:#F06449;}
	.st8{fill:#BE412D;}
	.st9{fill:#FE8E60;}
	.st10{fill:#7D4C47;}
	.st11{fill:#4456D6;}
	.st12{fill:#203881;}
	.st13{fill:#6582FC;}
	.st14{fill:#DDA103;}
	.st15{fill:#FBC32E;}
	.st16{fill:none;stroke:#DDA103;stroke-width:0.5;stroke-miterlimit:10;}
	.st17{fill:#FBE6BB;}
	.st18{fill:none;stroke:#BE412D;stroke-width:0.5;stroke-linecap:round;stroke-linejoin:round;stroke-miterlimit:10;}
	.st19{fill:none;stroke:#F06449;stroke-width:0.5;stroke-linecap:round;stroke-linejoin:round;stroke-miterlimit:10;}
	.st20{fill:#F34B4B;}
	.st21{fill:#FC7070;}
	.st22{fill:none;stroke:#FFFFFF;stroke-miterlimit:10;}
	.st23{fill:#FC9F9F;}
	.st24{fill:#408A6F;}
	.st25{fill:#64B48D;}
	.st26{fill:none;stroke:#FBE6BB;stroke-width:0.5;stroke-linecap:round;stroke-linejoin:round;stroke-miterlimit:10;}
	.st27{fill:none;stroke:#F7AC76;stroke-width:0.25;stroke-linecap:round;stroke-linejoin:round;stroke-miterlimit:10;}
	.st28{fill:#A0665A;}
	.st29{fill:#6C3F44;}
	.st30{fill:none;stroke:#6C3F44;stroke-width:0.5;stroke-linecap:round;stroke-linejoin:round;stroke-miterlimit:10;}
	.st31{fill:none;stroke:#7D4C47;stroke-width:0.5;stroke-linecap:round;stroke-linejoin:round;stroke-miterlimit:10;}
	.st32{fill:none;stroke:#F34B4B;stroke-width:0.5;stroke-linecap:round;stroke-linejoin:round;stroke-miterlimit:10;}
	.st33{fill:none;stroke:#FC7070;stroke-width:0.5;stroke-linecap:round;stroke-linejoin:round;stroke-miterlimit:10;}
	.st34{fill:#EAE8F3;}
	.st35{fill:#40304A;}
	.st36{fill:none;stroke:#43334E;stroke-linecap:round;stroke-linejoin:round;stroke-miterlimit:10;}
	.st37{fill:#32775B;}
	.st38{fill:none;stroke:#233764;stroke-width:0.5;stroke-linecap:round;stroke-linejoin:round;stroke-miterlimit:10;}
	.st39{fill:none;stroke:#408A6F;stroke-width:0.5;stroke-linecap:round;stroke-linejoin:round;stroke-miterlimit:10;}
	.st40{fill:#3643C3;}
	.st41{opacity:0.56;fill:url(#SVGID_1_);}
	.st42{opacity:0.52;fill:#FBC32E;}
	.st43{opacity:0.56;fill:url(#SVGID_2_);}
	.st44{fill:none;stroke:#EAE8F3;stroke-width:0.5;stroke-linecap:round;stroke-linejoin:round;stroke-miterlimit:10;}
	.st45{fill:#FEFFFD;}
	.st46{opacity:0.35;fill:#32775B;}
	.st47{fill:#43334E;}
	.st48{fill:none;stroke:#EAE8F3;stroke-width:0.25;stroke-linecap:round;stroke-linejoin:round;stroke-miterlimit:10;}
	.st49{fill:none;stroke:#FBC32E;stroke-width:0.5;stroke-linecap:round;stroke-linejoin:round;stroke-miterlimit:10;}
	.st50{fill:none;stroke:#161718;stroke-width:0.5;stroke-linecap:round;stroke-linejoin:round;stroke-miterlimit:10;}
	.st51{fill:none;stroke:#40304A;stroke-linecap:round;stroke-linejoin:round;stroke-miterlimit:10;}
	.st52{opacity:0.33;fill:#FBC32E;}
	.st53{fill:#A6A3AE;}
	.st54{fill:#5B4B68;}
	.st55{fill:#776688;}
	.st56{fill:none;stroke:#FBC32E;stroke-width:0.5;stroke-miterlimit:10;}
	.st57{fill:none;stroke:#EAE8F3;stroke-linecap:round;stroke-linejoin:round;stroke-miterlimit:10;}
	.st58{fill:none;stroke:#203881;stroke-width:2;stroke-linecap:round;stroke-linejoin:round;stroke-miterlimit:10;}
	.st59{fill:none;stroke:#40304A;stroke-width:2;stroke-linecap:round;stroke-linejoin:round;stroke-miterlimit:10;}
	.st60{fill:#FFD8B7;}
	.st61{fill:#F4E4D4;}
	.st62{fill:none;stroke:#4456D6;stroke-width:0.5;stroke-linecap:round;stroke-linejoin:round;stroke-miterlimit:10;}
	.st63{fill:none;stroke:#DDA103;stroke-width:0.25;stroke-miterlimit:10;}
	.st64{fill:none;stroke:#FFFFFF;stroke-width:0.5;stroke-linecap:round;stroke-linejoin:round;stroke-miterlimit:10;}
	.st65{fill:none;stroke:#64B48D;stroke-width:0.5;stroke-linecap:round;stroke-linejoin:round;stroke-miterlimit:10;}
	.st66{fill:none;stroke:#64B48D;stroke-linecap:round;stroke-linejoin:round;stroke-miterlimit:10;}
	.st67{opacity:0.48;fill:#64B48D;}
	.st68{fill:none;stroke:#64B48D;stroke-width:0.25;stroke-linecap:round;stroke-linejoin:round;stroke-miterlimit:10;}
	.st69{fill:none;stroke:#F06449;stroke-width:2;stroke-linecap:round;stroke-linejoin:round;stroke-miterlimit:10;}
	.st70{opacity:0.92;fill:#64B48D;}
	.st71{opacity:0.57;fill:#408A6F;}
	.st72{opacity:0.36;fill:#408A6F;}
	.st73{fill:none;stroke:#BE412D;stroke-width:2;stroke-linecap:round;stroke-linejoin:round;stroke-miterlimit:10;}
	.st74{opacity:0.65;fill:none;stroke:#408A6F;stroke-width:0.25;stroke-linecap:round;stroke-linejoin:round;stroke-miterlimit:10;}
	.st75{opacity:0.67;fill:none;stroke:#64B48D;stroke-width:0.25;stroke-linecap:round;stroke-linejoin:round;stroke-miterlimit:10;}
	.st76{opacity:0.98;fill:#64B48D;}
	.st77{fill:none;stroke:#408A6F;stroke-width:0.25;stroke-linecap:round;stroke-linejoin:round;stroke-miterlimit:10;}
	.st78{fill:none;stroke:#FFD9B2;stroke-width:0.5;stroke-linecap:round;stroke-linejoin:round;}
	
		.st79{fill:none;stroke:#FFD9B2;stroke-width:0.5;stroke-linecap:round;stroke-linejoin:round;stroke-dasharray:4.0333505,4.0333505;}
	.st80{fill:#E68B4A;}
	.st81{opacity:0.62;fill:#64B48D;}
	.st82{fill:none;stroke:#FBC32E;stroke-width:0.25;stroke-miterlimit:10;}
	.st83{fill:none;stroke:#4456D6;stroke-linecap:round;stroke-linejoin:round;stroke-miterlimit:10;}
	.st84{fill:none;stroke:#E68B4A;stroke-width:0.5;stroke-linecap:round;stroke-linejoin:round;stroke-miterlimit:10;}
	.st85{fill:none;stroke:#203881;stroke-width:0.5;stroke-linecap:round;stroke-linejoin:round;stroke-miterlimit:10;}
	.st86{opacity:0.29;fill:#EAE8F3;}
	.st87{fill:none;stroke:#A6A3AE;stroke-width:0.5;stroke-linecap:round;stroke-linejoin:round;stroke-miterlimit:10;}
	.st88{opacity:0.74;fill:#FFFFFF;}
	.st89{opacity:0.19;fill:#FFFFFF;}
	.st90{fill:none;stroke:#40304A;stroke-width:0.25;stroke-linecap:round;stroke-linejoin:round;stroke-miterlimit:10;}
	.st91{fill:none;stroke:#F34B4B;stroke-width:2;stroke-linecap:round;stroke-linejoin:round;stroke-miterlimit:10;}
	.st92{fill:none;stroke:#43334E;stroke-width:0.5;stroke-linecap:round;stroke-linejoin:round;stroke-miterlimit:10;}
	.st93{fill:none;stroke:#6582FC;stroke-miterlimit:10;}
	.st94{opacity:0.47;fill:#A6A3AE;}
	.st95{opacity:0.43;fill:#FFFFFF;}
	.st96{fill:none;stroke:#FBE6BB;stroke-linecap:round;stroke-linejoin:round;stroke-miterlimit:10;}
	.st97{fill:none;stroke:#5B4B68;stroke-width:0.5;stroke-linecap:round;stroke-linejoin:round;stroke-miterlimit:10;}
	.st98{fill:none;stroke:#40304A;stroke-width:0.5;stroke-linecap:round;stroke-linejoin:round;stroke-miterlimit:10;}
	.st99{fill:none;stroke:#DDA103;stroke-linecap:round;stroke-linejoin:round;stroke-miterlimit:10;}
	.st100{fill:none;stroke:#FBC32E;stroke-linecap:round;stroke-linejoin:round;stroke-miterlimit:10;}
	.st101{fill:none;stroke:#32775B;stroke-width:0.5;stroke-linecap:round;stroke-linejoin:round;stroke-miterlimit:10;}
	.st102{opacity:0.4;fill:#FBE6BB;}
	.st103{fill:none;stroke:#FBC32E;stroke-width:0.25;stroke-linecap:round;stroke-linejoin:round;stroke-miterlimit:10;}
	.st104{fill:none;stroke:#4456D6;stroke-miterlimit:10;}
	.st105{opacity:0.61;fill:#64B48D;}
	.st106{opacity:0.9;fill:#64B48D;}
	.st107{opacity:0.76;fill:#64B48D;}
	.st108{fill:none;stroke:#5B4B68;stroke-width:0.5;stroke-miterlimit:10;}
	.st109{opacity:0.66;fill:#A6A3AE;}
	.st110{fill:none;stroke:#43334E;stroke-miterlimit:10;}
	.st111{opacity:0.52;fill:#6582FC;}
	.st112{fill:none;stroke:#DDA103;stroke-width:0.5;stroke-linecap:round;stroke-linejoin:round;stroke-miterlimit:10;}
	.st113{fill:#46724E;}
	.st114{fill:#FE8B2E;}
	.st115{fill:none;stroke:#7D4C47;stroke-width:2;stroke-linecap:round;stroke-linejoin:round;stroke-miterlimit:10;}
	.st116{opacity:0.4;fill:#EAE8F3;}
	.st117{fill:none;stroke:#EAE8F3;stroke-width:0.5;stroke-linecap:round;stroke-miterlimit:10;}
	.st118{fill:none;stroke:#4456D6;stroke-width:0.25;stroke-linecap:round;stroke-linejoin:round;stroke-miterlimit:10;}
	.st119{opacity:0.5;fill:#EAE8F3;}
	.st120{opacity:0.46;fill:#A6A3AE;}
	.st121{fill:#E0916E;}
	.st122{fill:none;stroke:#A0665A;stroke-linecap:round;stroke-linejoin:round;stroke-miterlimit:10;}
	.st123{opacity:0.46;fill:#BE412D;}
	.st124{fill:none;stroke:#203881;stroke-linecap:round;stroke-linejoin:round;stroke-miterlimit:10;}
	.st125{fill:#DBDBE1;}
	.st126{fill:none;stroke:#6582FC;stroke-width:0.5;stroke-linecap:round;stroke-linejoin:round;stroke-miterlimit:10;}
	.st127{opacity:0.53;fill:#A6A3AE;}
	.st128{fill:none;stroke:#DDA103;stroke-miterlimit:10;}
	.st129{opacity:0.2;fill:#FFFFFF;}
	.st130{fill:#B4A1BF;}
	.st131{opacity:0.5;fill:#6582FC;}
	.st132{opacity:0.6;fill:none;stroke:#FFFFFF;stroke-linecap:round;stroke-linejoin:round;stroke-miterlimit:10;}
	.st133{opacity:0.6;fill:none;stroke:#FFFFFF;stroke-width:2;stroke-linecap:round;stroke-linejoin:round;stroke-miterlimit:10;}
	.st134{opacity:0.54;fill:#A6A3AE;}
	.st135{fill:#161718;stroke:#000000;stroke-width:0.25;stroke-miterlimit:10;}
</style>
<g id="_x33_4">
	<g>
		<path class="st14" d="M133.4813232,104.2401199v3.2180176c0,1.1780319-1.1132507,2.2626877-2.9809265,3.1246719h-0.0070038
			c-0.1508179,0.0718155-0.294632,0.1364822-0.4598236,0.2011032h-0.00737
			c-1.3285828,0.5531158-2.9735489,0.9984589-4.848587,1.2929916h-0.007019
			c-0.1508102,0.028717-0.3016281,0.0502472-0.459816,0.0718155h-0.0070114
			c-1.508522,0.2226715-3.1390991,0.3447723-4.855957,0.3591537h-0.4812164
			c-1.7094879-0.0143814-3.3400726-0.1364822-4.8485947-0.3591537h-0.0070114
			c-0.1581802-0.0215683-0.3089981-0.0430984-0.459816-0.0718155h-0.0073624
			c-1.8746948-0.2945328-3.5266647-0.7398758-4.8626251-1.2929916h-0.00737
			c-0.1581802-0.0718155-0.3089981-0.1364822-0.459816-0.2082901l-0.0070114-0.0071945
			c-1.846283-0.8547897-2.9521561-1.9322586-2.9521561-3.1102905v-3.2467346l2.9377747-1.1708527l0.4741974,0.1364822
			l1.5081711,0.4309692c1.0059128-0.3088684,2.1335373-0.560257,3.347435-0.7614059
			c0.1581879-0.028717,0.3089981-0.0502853,0.466835-0.0718155c1.508522-0.2226715,3.1461105-0.3519669,4.8629684-0.3591537
			h0.466835c1.7242279,0.0071869,3.3618164,0.1292877,4.8703384,0.3447723
			c0.1578293,0.0215759,0.3086472,0.050293,0.466835,0.0718613c1.2356415,0.2011032,2.3846588,0.4596863,3.404953,0.7757416
			l1.451004-0.4165878l0.4738464-0.1364822L133.4813232,104.2401199z"/>
		<path class="st15" d="M109.1738129,110.7839127c-0.1581802-0.0718155-0.3089981-0.1364822-0.459816-0.2082901
			l-0.0070114-0.0071945c-0.00737-1.7670135-0.00737-3.5771713-0.0143814-5.3657532l0.4741974,0.1364822
			C109.1668015,107.127739,109.1738129,108.9594193,109.1738129,110.7839127z"/>
		<path class="st15" d="M114.5109863,112.1487198c-0.1581802-0.0215683-0.3089981-0.0430984-0.459816-0.0718155h-0.0073624
			c-0.007019-2.2914124-0.0140305-4.7049637-0.0214005-7.0681915c0.1581879-0.028717,0.3089981-0.0502853,0.466835-0.0718079
			C114.4966049,107.2929382,114.503624,109.7424011,114.5109863,112.1487198z"/>
		<path class="st15" d="M119.8407898,112.5078735h-0.4741974c0-2.5571823-0.0070114-5.2795639-0.0143814-7.93013h0.466835
			C119.8334274,107.1636429,119.8407898,109.8573074,119.8407898,112.5078735z"/>
		<path class="st15" d="M125.1705933,112.0769043c-0.1508102,0.028717-0.3016281,0.0502472-0.459816,0.0718155h-0.0070114
			c0-2.3416977-0.0073624-4.8054962-0.0143814-7.2261963c0.1578293,0.0215225,0.3086472,0.0430984,0.466835,0.0718155
			C125.1562195,107.3145065,125.1635818,109.7136383,125.1705933,112.0769043z"/>
		<path class="st15" d="M130.4933929,110.5828094c-0.1508179,0.0718155-0.294632,0.1364822-0.4598236,0.2011032h-0.00737
			c-0.0070038-1.781395-0.0070038-3.6130753-0.0140228-5.4304199l0.4738464-0.1364822
			C130.4860229,106.9768753,130.4933929,108.7798462,130.4933929,110.5828094z"/>
		<ellipse class="st15" cx="119.617775" cy="104.4169312" rx="13.8600998" ry="5.0435767"/>
		<path class="st16" d="M131.4954529,104.4156189c0,0.2966919-0.1104736,0.5815353-0.3217163,0.860405
			c-1.2468872,1.6317978-5.9478073,2.8422775-11.5538712,2.8422775c-5.6109848,0-10.3120193-1.2104797-11.5538712-2.8422775
			c-0.2112503-0.2788696-0.3217239-0.5637131-0.3217239-0.860405c0-2.0471649,5.3142929-3.7026749,11.8755951-3.7026749
			C126.1761322,100.712944,131.4954529,102.368454,131.4954529,104.4156189z"/>
		<path class="st14" d="M127.2374878,104.6972504l-0.2149811,0.5346375l-1.9262924-0.0638275
			c-0.2087021,0.4848175-0.7545319,0.9841766-1.3466949,1.2604446l-1.1988831-0.243103
			c0.0070267-0.0001297,0.0068741-0.0084229,0.0139084-0.0085526l-0.0421829,0.0007782l0.1960373-0.4182281
			c0,0,0.4475861-0.1077957,0.6578674-0.1365891c0.0070343-0.0001297,0.0070343-0.0001297,0.0070343-0.0001297
			c0.214241-0.194664,0.3789597-0.4050217,0.4660416-0.6305313c0.2348404-0.6013565-0.3844299-1.0293884-1.4741898-1.0672607
			c-1.0474091-0.0386505-1.8287582,0.2660675-2.6464462,0.8782196c-1.1087952,0.8331833-2.19561,1.3342133-3.8547668,1.273735
			c-1.5818405-0.0536041-2.589592-0.5905457-2.5690231-1.3786316l-1.926445-0.0721207l0.208252-0.5179596l1.8488083,0.0569611
			c0.2366791-0.5019379,0.6802979-0.8335037,1.1043472-1.073555l0.649025,0.1455307
			c0.0331573-0.1084137,0.0666275-0.2002335,0.0736542-0.2003632c0.0139084-0.0085602,0.6231842-0.1110458,0.6231842-0.1110458
			l-0.1677628,0.4260101c-0.3060837,0.1632233-0.8620148,0.4968643-1.0696335,1.039711
			c-0.2620468,0.6516113,0.5230179,0.9273224,1.2822189,0.9547119c0.9913559,0.031395,1.6111603-0.2619858,2.595726-0.9767761
			c1.1436234-0.8420792,2.3094482-1.2451172,4.0039291-1.1853027c1.5115356,0.0549622,2.7364273,0.5629807,2.7176971,1.450531
			L127.2374878,104.6972504z"/>
		<path class="st17" d="M127.1933975,104.8083496l-1.9272079-0.0671539c-0.2128906,0.4902115-0.756752,0.9849319-1.350914,1.2639694
			l-1.1984558-0.2474594c0.5782318-0.2876511,1.1144104-0.7154236,1.3012009-1.1881409
			c0.2372665-0.6003876-0.3851929-1.0338287-1.4727249-1.0715866c-1.0497742-0.0364304-1.8297043,0.2707443-2.6483688,0.8762207
			c-1.1049805,0.8355026-2.1934814,1.3378754-3.8536224,1.2799454c-1.5839233-0.0548782-2.5895233-0.5962143-2.568428-1.3837051
			l-1.9285889-0.0671234l0.2071152-0.5241089l1.8523788,0.0644836c0.2383194-0.5060654,0.6808395-0.8414078,1.1022568-1.0751343
			l1.1756058,0.2551727c-0.2994537,0.1691132-0.8559189,0.501709-1.0695801,1.0425415
			c-0.2569122,0.6509552,0.5235214,0.9268036,1.2869949,0.9531555c0.9927826,0.0346527,1.6130524-0.261467,2.5906601-0.9723282
			c1.1460114-0.8431396,2.3114548-1.2477417,4.0100403-1.1889038c1.5084,0.0526352,2.737175,0.5667572,2.7174835,1.448555
			l1.9848862,0.0689163L127.1933975,104.8083496z"/>
	</g>
	<g>
		<path class="st14" d="M141.9464874,105.1432571l-1.1124268,3.0196228
			c-0.4072266,1.1054153-1.8267975,1.7383728-3.8773041,1.9015808l-0.0065765-0.0024261
			c-0.1663513,0.0152512-0.3236389,0.0262222-0.5009918,0.0297546l-0.0069122-0.0025482
			c-1.4378815,0.0597382-3.1353912-0.091011-4.9966431-0.4628143l-0.0065918-0.0024261
			c-0.1514435-0.0251846-0.3003998-0.0571213-0.4562836-0.0915604l-0.0065918-0.0024261
			c-1.4924927-0.3125305-3.0647507-0.7616272-4.6807404-1.341629l-0.4515457-0.1663513
			c-1.5991287-0.6044388-3.0869751-1.2826843-4.4255219-2.0131073l-0.0065842-0.0024185
			c-0.1409683-0.0749283-0.2750473-0.1472626-0.4066391-0.2263412l-0.0069122-0.0025482
			c-1.6573029-0.9244308-3.0534821-1.9133835-4.1158752-2.8942261l-0.0069122-0.0025406
			c-0.1236038-0.1220703-0.2427673-0.2348862-0.3594589-0.3544083l-0.004097-0.0091705
			c-1.4369736-1.4403305-2.1022034-2.8336563-1.6949692-3.939064l1.1223526-3.0465775l3.1614075-0.0831146l0.3977814,0.2919922
			l1.2662125,0.9257507c1.0506744,0.0579071,2.1956787,0.2118149,3.404274,0.4427032
			c0.1583633,0.0277328,0.3073349,0.0596313,0.4628754,0.0939865c1.4925003,0.3125305,3.0738297,0.757309,4.6873245,1.3440552
			l0.4380493,0.161377c1.615448,0.6027908,3.1098785,1.2834549,4.4509125,2.0071335
			c0.1406403,0.0747986,0.2722321,0.1538773,0.413208,0.2288055c1.0899506,0.6158524,2.0787354,1.2556915,2.9268799,1.9049606
			l1.5055542,0.1106873l0.491806,0.0357361L141.9464874,105.1432571z"/>
		<path class="st15" d="M116.8754349,102.8808517c-0.1236038-0.1220703-0.2427673-0.2348862-0.3594589-0.3544083
			l-0.004097-0.0091705c0.60392-1.6606216,1.2296677-3.3591843,1.8413773-5.0399246l0.3977814,0.2919846
			C118.1327438,99.4476547,117.5061417,101.1688385,116.8754349,102.8808517z"/>
		<path class="st15" d="M121.4117737,106.0065079c-0.1409683-0.0749283-0.2750473-0.1472626-0.4066391-0.2263412
			l-0.0069122-0.0025482c0.7855301-2.1525726,1.6132813-4.419754,2.4233017-6.6398315
			c0.1583557,0.0277328,0.3073349,0.0596313,0.4628754,0.0939941
			C123.0768585,101.4451065,122.2366943,103.7459869,121.4117737,106.0065079z"/>
		<path class="st15" d="M126.2888412,108.1859589l-0.4449615-0.1639252
			c0.8839874-2.3995285,1.8184967-4.9564972,2.7278519-7.4462051l0.4380493,0.161377
			C128.129364,103.1686554,127.2051086,105.6987991,126.2888412,108.1859589z"/>
		<path class="st15" d="M131.4390411,109.6240005c-0.1514435-0.0251846-0.3003998-0.0571213-0.4562836-0.0915604
			l-0.0065918-0.0024261c0.809494-2.1973343,1.6542816-4.5117874,2.4845123-6.785675
			c0.1406555,0.0747604,0.2747192,0.1471329,0.4132233,0.2287598
			C133.0718536,105.150238,132.2494202,107.404007,131.4390411,109.6240005z"/>
		<path class="st15" d="M136.9501801,110.0620346c-0.1663513,0.0152512-0.3236389,0.0262222-0.5009918,0.0297546
			l-0.0069122-0.0025482c0.6092224-1.673996,1.2424164-3.3927536,1.8640594-5.1004868l0.4918213,0.0357361
			C138.1897888,106.6758652,137.5734406,108.370224,136.9501801,110.0620346z"/>
		
			<ellipse transform="matrix(0.3456866 -0.93835 0.93835 0.3456866 -9.9942589 186.7007141)" class="st15" cx="128.8764954" cy="100.5167313" rx="5.0435767" ry="13.8600998"/>
		<path class="st16" d="M140.0223846,104.62146c-0.1025543,0.2783966-0.3046875,0.5074921-0.5993195,0.6961441
			c-1.7341003,1.1001587-6.5636597,0.6109695-11.8241119-1.326973c-5.2650604-1.9396439-9.2578354-4.7005844-9.8590393-6.6610641
			c-0.1018295-0.3347092-0.1070251-0.6401825-0.0044632-0.9185791c0.7076797-1.9209595,6.2666397-1.6373291,12.423439,0.6308212
			C136.3109589,99.3082275,140.7300568,102.7005005,140.0223846,104.62146z"/>
		<path class="st14" d="M135.9295654,103.4138031l-0.3865509,0.4273605l-1.7854767-0.7257919
			c-0.3634186,0.382782-1.0482178,0.662674-1.6993866,0.7172089l-1.0409393-0.6425552
			c0.0066528,0.0023117,0.0093689-0.0055313,0.0160217-0.0032196l-0.039856-0.0138474l0.3285217-0.3246841
			c0,0,0.4572601,0.0535812,0.6645355,0.0992508c0.0066376,0.0023117,0.0066376,0.0023117,0.0066376,0.0023117
			c0.2683258-0.1086044,0.4956055-0.2490463,0.6552734-0.4305573c0.4282532-0.4830933-0.0048828-1.0988159-1.0143585-1.5110703
			c-0.9694824-0.3983459-1.8079987-0.3825073-2.7868805-0.0907669c-1.3284607,0.3985291-2.5214767,0.4929657-4.0574417-0.1373291
			c-1.4657898-0.5971222-2.2257919-1.4493256-1.9340591-2.1817169l-1.782753-0.7336197l0.3744659-0.4140396l1.7151337,0.6925583
			c0.395607-0.3891754,0.9264984-0.5469437,1.4073792-0.6256104l0.5587082,0.3609161
			c0.0685959-0.0902634,0.1317368-0.164856,0.1383743-0.1625519c0.0160065-0.0032196,0.6231461,0.1112289,0.6231461,0.1112289
			l-0.3046799,0.3417587c-0.3436356,0.047348-0.980629,0.1682434-1.3631058,0.6058502
			c-0.4711456,0.5208511,0.1702118,1.0509567,0.8731384,1.3391037c0.9193878,0.3721542,1.6023941,0.3111191,2.7733612-0.019249
			c1.364212-0.3948288,2.5974884-0.370018,4.1668243,0.2718735c1.399353,0.5740891,2.3731079,1.4742203,2.0487213,2.3005753
			L135.9295654,103.4138031z"/>
		<path class="st17" d="M135.8497925,103.5028076l-1.7851868-0.7292175
			c-0.3692322,0.3863907-1.0505829,0.6626053-1.7045746,0.7190475l-1.0390167-0.646492
			c0.6420135-0.0700302,1.2930145-0.2860794,1.6316986-0.6650848c0.4301758-0.4813538-0.0040588-1.1032486-1.0115051-1.5146255
			c-0.9724426-0.3970795-1.8104858-0.3784561-2.7879791-0.0932999c-1.3256836,0.4020081-2.520752,0.4971313-4.0585175-0.1311111
			c-1.4673004-0.5990448-2.2237701-1.454628-1.9317551-2.1862717l-1.7864838-0.7296753l0.3755188-0.4202042l1.715889,0.7008591
			c0.3985672-0.3924866,0.9297333-0.5541763,1.4059601-0.6278229l1.0149307,0.6458359
			c-0.3394547,0.0551758-0.976593,0.1748962-1.3640442,0.6085281c-0.466095,0.5220108,0.1708679,1.0506439,0.8781586,1.3392868
			c0.9196014,0.3757172,1.6039963,0.3122711,2.767067-0.0168228c1.3668213-0.3949966,2.600296-0.3717804,4.1738129,0.270607
			c1.3972168,0.5708237,2.3725128,1.4780273,2.0492096,2.2986526l1.8386841,0.7508163L135.8497925,103.5028076z"/>
	</g>
	<path class="st27" d="M33.1329155,61.7410889c0.2231712-0.0634842,0.4537468-0.119072,0.6849403-0.0994873
		c0.2931938,0.0248375,0.5734711,0.1764107,0.7547607,0.4081726"/>
	<path class="st20" d="M107.0184937,67.9490662c0,0,7.5822525,6.08918,8.2448425,13.0162735h-2.1684799l2.7708359,1.7467194
		l-0.8432922,6.7464981l-1.9275436,1.7468338l-0.602356,2.8913116l-0.888382,3.7089767
		c0,0-9.5926132-14.7323151-9.7130814-15.0936203c-0.1204681-0.3612976-1.3251801-7.8907471-1.0240021-8.432869
		s0.963768-2.0422821,0.963768-2.0422821"/>
	<g>
		<path class="st14" d="M121.1782303,82.2424469c0.4274139,4.0163956-1.2237473,7.7737808-4.0861282,10.2093506
			c-0.2387924,0.2005081-0.4885406,0.3921432-0.7436523,0.5793686c-1.1476212,0.8274689-2.4568024,1.4519958-3.8827515,1.8238373
			c0.0475006,0.0699921,0.0830002,0.1212387,0.0830002,0.1212387l-1.6575851,0.1713791l-0.3412704,0.0363235
			c-0.0489807,0.0102158-0.1038513,0.0110474-0.1538925,0.0113678c-1.9744034,0.1550903-3.8823395-0.1921234-5.5921021-0.9356232
			c-0.2885056-0.1243668-0.5679245-0.2596893-0.8440933-0.410408c-1.2038803-0.6422348-2.2898941-1.4921112-3.2025146-2.5005188
			c-0.1359482-0.1505814-0.2622452-0.3022308-0.3890686-0.4588242c-0.6558228-0.8056183-1.2060165-1.6974869-1.6295013-2.6679077
			c-0.0717163-0.1574554-0.1385956-0.3153915-0.1960983-0.4793701c-0.3425903-0.8689575-0.5809937-1.7940445-0.7044907-2.7663422
			c-0.0132446-0.0786133-0.0221939-0.1627197-0.0311432-0.2468033c-0.0089493-0.0840759-0.0173721-0.1632385-0.021492-0.2478256
			c-0.0833588-0.9715958-0.0498123-1.9255905,0.1022339-2.8471909c0.0265427-0.1729126,0.0538559-0.3409042,0.0908279-0.5098953
			c0.2097778-1.0378113,0.5597153-2.0254669,1.0315475-2.951088c0.0907898-0.1797485,0.1868896-0.3600693,0.2886353-0.5309448
			c0.6794281-1.1828308,1.5577316-2.2367325,2.5946579-3.1174545c0.238266-0.2054367,0.4880219-0.3970642,0.7436523-0.5793686
			c1.5978088-1.1554794,3.5125427-1.9194946,5.6147232-2.1431961c0.0690765-0.0073547,0.1383896-0.0147247,0.2082367-0.0171509
			c-0.0005264-0.0049515-0.0005264-0.0049515-0.0005264-0.0049515l1.3206253-0.1405334l0.0511856,0.1045837
			c1.5351791,0.041748,3.0069427,0.3803558,4.3554306,0.9721832c0.288269,0.1244202,0.5679245,0.2597122,0.8440933,0.4104004
			C118.3453903,74.8953705,120.750824,78.2260437,121.1782303,82.2424469z"/>
		<g>
			<g>
				<path class="st15" d="M115.0307693,73.1270828l-13.1374207,1.3980331
					c0.238266-0.2054367,0.4880219-0.3970642,0.7436523-0.5793686l11.549675-1.2290649
					C114.4749451,72.8411026,114.7546005,72.9763947,115.0307693,73.1270828z"/>
			</g>
			<g>
				<path class="st15" d="M116.1605682,75.8482056l0.0526352,0.4946289l-17.2031479,1.8306808
					c0.0907898-0.1797485,0.1868896-0.3600693,0.2886353-0.5309448L116.1605682,75.8482056z"/>
			</g>
			<g>
				<path class="st15" d="M116.5121841,79.1523285l0.0526352,0.4946365l-18.6771393,1.9875336
					c0.0265427-0.1729126,0.0538559-0.3409042,0.0908279-0.5098953L116.5121841,79.1523285z"/>
			</g>
			<g>
				<path class="st15" d="M116.863266,82.4515076l0.0526352,0.4946289l-19.0778198,2.0301819
					c-0.0132446-0.0786133-0.0221939-0.1627197-0.0311432-0.2468033c-0.0089493-0.0840759-0.0173721-0.1632385-0.021492-0.2478256
					L116.863266,82.4515076z"/>
			</g>
			<g>
				<path class="st15" d="M117.2148743,85.7556381l0.0526352,0.4946289l-18.5288391,1.9717636
					c-0.0717163-0.1574554-0.1385956-0.3153915-0.1960983-0.4793701L117.2148743,85.7556381z"/>
			</g>
			<g>
				<path class="st15" d="M117.5664902,89.0597687l0.0526352,0.4946289l-16.8618851,1.7943649
					c-0.1359482-0.1505814-0.2622452-0.3022308-0.3890686-0.4588242L117.5664902,89.0597687z"/>
			</g>
			<g>
				<path class="st15" d="M117.0921021,92.4517975c-0.2387924,0.2005081-0.4885406,0.3921432-0.7436523,0.5793686
					l-11.5446014,1.2285233c-0.2885056-0.1243668-0.5679245-0.2596893-0.8440933-0.410408L117.0921021,92.4517975z"/>
			</g>
		</g>
		<path class="st15" d="M110.8892059,95.1501389c-0.0489883,0.0102234-0.1033325,0.0160065-0.1528397,0.0212708
			c-0.0642471,0.0068359-0.1236572,0.0131607-0.1884308,0.0150452L110.8892059,95.1501389z"/>
		<circle class="st15" cx="111.3879395" cy="83.2864609" r="11.7501593"/>
		<circle class="st16" cx="111.3879395" cy="83.2864609" r="10.0717659"/>
		<path class="st15" d="M110.5479355,95.1864548l-0.1533661,0.0163193l-0.0005264-0.0049515
			C110.4440842,95.1975098,110.4989548,95.1966782,110.5479355,95.1864548z"/>
		<path class="st14" d="M115.1800156,85.3292847c0.1590271,1.4944077-0.7310486,3.0071564-2.6464691,3.5344086l0.2094193,1.9679642
			l-1.1930313,0.1269531l-0.2035294-1.91259c-1.0968094,0.0980377-2.2704315-0.119133-2.9789047-0.5226517l0.3141098-1.3146439
			l0.5412674-0.0576019c0,0,0.0286713,0.1524353,0.0524979,0.3178406c0.6457443,0.2235794,1.4237595,0.3460464,2.2171173,0.2616196
			c1.3467789-0.1433182,2.1683273-1.0144119,2.0538025-2.0906296c-0.1106033-1.0393295-0.9172668-1.6065292-2.3735046-2.0237427
			c-2.0116348-0.5509567-3.2975998-1.2972641-3.4729843-2.9454193c-0.1668854-1.5682068,0.82547-2.8803864,2.5356674-3.3484879
			l-0.2028732-1.9064407l1.1685638-0.1243515l0.195015,1.8326416c1.1415634-0.0841675,1.9486694,0.134697,2.5306244,0.40242
			l-0.1515579,0.563446c0.1145859,0.1992416,0.3521194,0.677742,0.3521194,0.677742l-0.5412598,0.0576019
			c-0.4177399-0.1856613-1.2371292-0.5213928-2.4486313-0.3924637c-1.4575882,0.1551056-1.9120789,1.0866318-1.8315811,1.8430862
			c0.1047134,0.983963,0.8582306,1.401329,2.5721817,1.9030991
			C113.9121017,82.7649384,115.0007019,83.6442337,115.1800156,85.3292847z"/>
		<path class="st17" d="M112.0910873,90.9014053l-0.203331-1.9107208c-1.0992584,0.097847-2.2705765-0.1218872-2.9830322-0.5243759
			l0.3191528-1.3158188c0.7293625,0.3815536,1.7513504,0.6363144,2.8107529,0.5235748
			c1.3431778-0.1429367,2.1687012-1.0152054,2.0539551-2.0935287c-0.1107254-1.0404892-0.9169769-1.6051865-2.3773041-2.0237503
			c-2.0101624-0.5513763-3.2946014-1.2947769-3.4697495-2.9406433c-0.1670914-1.5701904,0.8222427-2.880806,2.5325012-3.3497849
			l-0.203331-1.9107208l1.1729126-0.1248169l0.195282,1.8350449c1.1390991-0.0829544,1.9469528,0.1371994,2.5298004,0.4004211
			l-0.3400803,1.2989197c-0.4214401-0.1847458-1.2413635-0.5184021-2.4521179-0.3895569
			c-1.4566879,0.155014-1.9127045,1.0836258-1.8321762,1.8403473c0.1046829,0.9837341,0.8569946,1.4011154,2.5753326,1.9070129
			c2.0331039,0.587204,3.1215286,1.4662552,3.3006973,3.1499557c0.1590424,1.4945221-0.7324677,3.0051727-2.6467972,3.5341415
			l0.2093658,1.9674683L112.0910873,90.9014053z"/>
	</g>
	<path class="st0" d="M48.8390388,73.6432877l-7.1545944-0.346199l-0.0746574-0.0475159l-2.5319176-1.6155548l-0.3122635-0.1968384
		l0.4480324-0.4073029L41.98312,68.497963c0.0203819,0.0067902,0.5770035,0.5634155,1.255806,1.2286301v0.0067902
		c1.0385437,1.0249939,2.3418732,2.3350754,2.3418732,2.3350754L48.8390388,73.6432877z"/>
	<path class="st1" d="M43.2389259,69.726593v0.0067902c0,0-0.8484993,1.8667068-1.6291389,3.5161896l-2.5319176-1.6155548
		c0.0339355-0.1900406,0.0814552-0.3937149,0.1357689-0.6041412L41.98312,68.497963
		C42.0035019,68.5047531,42.5601234,69.0613785,43.2389259,69.726593z"/>
	<path class="st24" d="M43.5647392,69.3871918l-3.4415283,3.6587448L22.9631348,60.5288391
		c-1.5001659-1.0996552-1.7717018-3.231102-0.6109371-4.6769485c0.6516628-0.8077774,1.6019611-1.2286301,2.5522995-1.2286301
		c0.7670479,0,1.5340977,0.2715378,2.1517887,0.8145714l2.6473408,2.2332382l12.4627819,10.5350075L43.5647392,69.3871918z"/>
	<path class="st25" d="M42.1664085,68.2060776c-1.3032875,1.9413681-2.3282814,3.4958496-2.3282814,3.4958496l-8.6139927-6.3671646
		c0,0-1.9481564-6.9237785-2.0635395-7.1545906c-0.0407276-0.0814514,0.2104263-0.2782898,0.5430317-0.5091019
		L42.1664085,68.2060776z"/>
	<path class="st0" d="M32.7834167,107.0727234c-0.0002975,0.0082855-0.1478043,0.4035339-0.3684998,0.9796906l-0.0002937,0.0082932
		c-0.5607224,1.4567566-1.5535545,4.0411148-1.5535545,4.0411148s-1.9525833,0.7148285-2.109417,0.6675491
		c-0.1485443-0.0470276-1.0573673-1.9397507-1.0573673-1.9397507l0.4335957-1.6364441l0.179636-0.5943222l0.697422-2.2527771
		l-0.4505634-0.232933C29.3433323,106.4498672,32.7179298,107.0369873,32.7834167,107.0727234z"/>
	<path class="st1" d="M32.7834167,107.0727234c-0.0002975,0.0082855-0.1478043,0.4035339-0.3684998,0.9796906l-0.0002937,0.0082932
		l-0.0083427-0.0002975c0,0-2.6335144,0.3903046-4.0987644,0.5384445l0.697422-2.2527771l-0.4505634-0.232933
		C29.3433323,106.4498672,32.7179298,107.0369873,32.7834167,107.0727234z"/>
	<path class="st11" d="M26.8032341,111.0245361l-0.4659729,2.405632c0.2889328,0.8172684,2.5527954,1.8130569,2.5527954,1.8130569
		l0.2413769-0.5576096l1.8665771,1.2641754c0.7223034,0.48526,1.547739,0.8021317,2.4098148,0.9298325l2.8421402,0.4013977
		c0.3508797,0.0522995,0.6651154-0.1929398,0.7085266-0.537735l0.1023178-0.8121414
		c0.0476151-0.3675003-0.1026802-0.7262497-0.398613-0.9405518l-1.2418022-0.9233704l-2.2072792-1.6519547l-0.9980621-2.1006088
		c-0.1483459-0.2877045-0.4185619-0.4735107-0.7210827-0.5321045c-0.1285439-0.0249023-0.261488-0.0270844-0.3990097-0.0066299
		c-0.3108177,0.0653534-0.5771198,0.2649307-0.7266045,0.549942l-0.3359013,0.6805725l-0.010313,0.0136719l-1.9640446-1.12603
		l0.0729561-0.7001266l-0.6259022,0.7185822C27.1396236,110.1792221,26.8896923,110.5781937,26.8032341,111.0245361z"/>
	<path class="st12" d="M29.3383026,114.2123489l-0.2066631,0.472641l1.8683567,1.2651367
		c0.7214737,0.4884949,1.5426025,0.8044891,2.4048576,0.9261703l2.8474693,0.4050903
		c0.3461151,0.049614,0.6615944-0.1927109,0.7038002-0.5367432l0.0128059-0.1021652
		c-0.1322212,0.1243668-0.3158035,0.1899338-0.5093727,0.1628952l-2.8508377-0.4057236
		c-0.8622589-0.1216812-1.6833038-0.4376602-2.4047756-0.9261551L29.3383026,114.2123489z"/>
	<path class="st12" d="M26.4383259,112.9077911l-0.1009178,0.5210037c0.2883224,0.8161087,2.5539017,1.8129654,2.5539017,1.8129654
		l0.2403297-0.5567703C29.1316395,114.6849899,27.473177,113.8127136,26.4383259,112.9077911z"/>
	<path class="st0" d="M49.9041862,113.137352c0,0-2.8982315,1.031601-3.0568428,1.034317
		c-0.1583138-0.0056305-1.6152191-1.5006866-1.6152191-1.5006866l-0.1151772-1.6893539l-0.0845337-0.2032242l-1.0107269-2.5471039
		l0.2793694-0.3488007c0,0,0.0496941,0.0101166,0.1407471,0.0299988c0.6880341,0.1246185,3.1311569,0.1613388,3.205822,0.1723404
		c0.0080452,0.0086441,0.1545143,0.34758,0.3867035,0.8563766C48.6755753,110.3822861,49.9041862,113.137352,49.9041862,113.137352z
		"/>
	<path class="st1" d="M48.0343285,108.9412155l-3.001915,1.8371887l-1.0107269-2.5471039l0.2793694-0.3488007
		c0,0,0.0496941,0.0101166,0.1407471,0.0299988c0.6880341,0.1246185,3.1311569,0.1613388,3.205822,0.1723404
		C47.6556702,108.093483,47.8021393,108.4324188,48.0343285,108.9412155z"/>
	<path class="st11" d="M44.4448395,113.1387634l0.3252144,2.4286652c0.5343933,0.682518,2.9975853,0.9046707,2.9975853,0.9046707
		l0.0510254-0.6054688l2.1721916,0.6031876c0.8393135,0.2296829,1.7226944,0.2668839,2.5805054,0.1131058l2.8218155-0.5255737
		c0.349247-0.0622864,0.5689087-0.3949051,0.5001373-0.7355499l-0.1619186-0.8023911
		c-0.0720215-0.3635025-0.3288383-0.6556168-0.6776466-0.7644043l-1.4713745-0.479332l-2.6187363-0.862114l-1.6156311-1.6728439
		c-0.2323227-0.2254028-0.5476723-0.3153763-0.8530922-0.2744751c-0.1297722,0.0173721-0.2564774,0.0576859-0.3803024,0.1209106
		c-0.2737694,0.161026-0.4625549,0.4350891-0.513382,0.7528839l-0.1014175,0.7521515l-0.0054207,0.016243l-2.2205353-0.4411774
		l-0.1540413-0.6868515l-0.3641739,0.8806152C44.4942017,112.2303085,44.3844948,112.6881409,44.4448395,113.1387634z"/>
	<path class="st12" d="M47.8638725,115.3521118l-0.0452118,0.5138626l2.1741867,0.6035309
		c0.8395576,0.2330093,1.7185783,0.2707596,2.5746384,0.1112137l2.8280449-0.5237732
		c0.3438721-0.0633163,0.5656433-0.3935623,0.4959717-0.7331085l-0.0204277-0.100914
		c-0.0856781,0.1600342-0.238781,0.2807007-0.4308701,0.3167801l-2.83144,0.5242462
		c-0.85606,0.1595459-1.7349968,0.121788-2.5745544-0.1112213L47.8638725,115.3521118z"/>
	<path class="st12" d="M44.6993217,115.0400925l0.0704346,0.5259857c0.5334435,0.6816254,2.9986038,0.9042282,2.9986038,0.9042282
		l0.0503006-0.604332C47.8186607,115.8659744,45.9686584,115.5679092,44.6993217,115.0400925z"/>
	<path class="st10" d="M40.8970528,87.9659805l-0.3394012,0.8688812l-0.3461952,0.8756409l-0.9570885,2.4233246l-1.6630745,4.22892
		l-0.631279,1.622345L32.9415207,108.20784l-5.4032707-1.4390564l4.6565666-13.3791885l0.5973473-1.724144l0.868885-2.504776
		l1.0860672-3.1156769l-1.988884-2.4097748l-5.5525894-6.7133179l2.8441792-1.6834564l1.9617062-1.1539688l0.271534,0.2986755
		l0.352993,0.4005127l0.0746574,0.0814514l2.5930252,2.8984985l3.8012695,4.2357101l0.9096146,1.0182037
		C41.2160721,84.3683395,41.5622673,86.2757721,40.8970528,87.9659805z"/>
	<path class="st28" d="M39.1050072,81.9993286c-0.7941856,0.991066-2.0703354,2.5726395-2.0703354,2.5726395
		s-6.8830547-8.6750565-6.7201481-8.7700958c0.0611095-0.0339355,1.0861073-0.4344482,2.3961887-0.9367523l2.5930252,2.8984985
		L39.1050072,81.9993286z"/>
	<path class="st29" d="M32.196991,93.3832779l4.7642746,4.6013718l2.2899933-5.8478622
		c-1.535717-0.86763-3.7346611-2.0463486-5.5855713-2.9747467L32.196991,93.3832779z"/>
	<path class="st10" d="M48.9248695,108.584259l-4.7651978,1.9074249L37.174778,95.4765625l-8.1658325-7.0934372l-4.1407547-2.335083
		c-2.1653366-1.2490082-4.2560959-4.5683594-4.1881504-8.6343689l-0.0407677-1.608757l9.822401-3.482254
		c0.1561108,0.2104263,0.3596191,0.3869171,0.5362797,0.5770035c0.0676136,0.0610733,0.128931,0.1289749,0.1832886,0.2036362
		c0.0947933,0.1357651,0.8279514,0.9231567,0.8279514,0.9842682c-0.0951233,0.2375641-0.1832886,0.4751282-0.2714539,0.7127304
		c-0.0407677,0.095047-0.0745754,0.1900482-0.1153431,0.2850876c-0.1153431,0.2986755-0.2376461,0.6041412-0.3463612,0.9096146
		c1.9074707,2.4640503,3.7198181,4.9891663,5.5119476,7.5075378l0.1087151,0.1561127l5.7154541,8.0980911
		c0.1355591,0.1832886,0.2376442,0.380127,0.2986298,0.5905533l0.4411545,1.1947021L48.9248695,108.584259z"/>
	<path class="st29" d="M30.8418427,73.6463318l-8.8244171,3.0885391l0.1182556,2.8138275
		c0.077013,1.8324509,0.8973236,3.5544128,2.2717609,4.7687912l4.6015034,4.0656357l-4.1407547-2.335083
		c-2.1653366-1.2490082-4.2560959-4.5683594-4.1881504-8.6343689l-0.0407677-1.608757l9.822401-3.482254
		c0.1561108,0.2104263,0.3596191,0.3869171,0.5362797,0.5770035L30.8418427,73.6463318z"/>
	<path class="st28" d="M37.4213982,84.2730484l-4.8260727,5.7632675l-2.9188766-2.6540985l-2.8425694-2.263031
		c-2.224371-1.7708664-3.732193-4.2873459-4.2445831-7.083992l-0.0945358-0.515976l9.2452698-2.721962
		c-0.0407257,0.0950012-0.0746574,0.1900406-0.1153831,0.2850876c-0.115427,0.2986679-0.237606,0.6041412-0.3461971,0.9095688
		c1.9074326,2.4640503,3.7198181,4.989212,5.5118637,7.5075836l0.1085892,0.156105L37.4213982,84.2730484z"/>
	<path class="st30" d="M24.3852253,75.9556732l0.0474186,0.9889297c0.1421528,2.9645081,1.6232967,5.7039337,4.0260029,7.4462051
		l10.9603634,7.4279785c0.6076584,0.4118195,1.0724182,1.0021896,1.3300667,1.6895523l5.5099144,14.699501"/>
	<line class="st31" x1="36.968811" y1="84.8186874" x2="33.427742" y2="80.8905869"/>
	<line class="st30" x1="40.3530464" y1="88.5728226" x2="36.968811" y2="84.8186874"/>
	<g>
		<ellipse class="st20" cx="65.4657135" cy="101.1475372" rx="4.8465195" ry="8.2023182"/>
		<path class="st21" d="M63.0277328,75.8130188c0.9898453-0.3855438,1.9979324-0.7815552,2.819603-1.4548187
			c0.8216782-0.6732635,1.4408722-1.6824265,1.3763809-2.7427444c-0.0260544-0.4283752-0.1608963-0.8438644-0.336792-1.235321
			c-0.539238-1.2000427-1.4621048-2.1958008-2.5043564-2.9986572c-2.0294495-1.5633011-4.5110626-2.7757187-7.0203094-3.3042526
			c0.7158241,3.1829147,1.4102898,6.3708115,2.5237312,9.4373398"/>
		<path class="st23" d="M62.6317596,72.0624084c0.2377701,0.7273102,1.1023483,2.6773224,0.5343208,3.3638077
			c-0.6006165,0.725853-2.505825,0.3214722-3.2550011,0.1121902c-1.1557426-0.3228455-3.1965218-0.9673996-3.2978745-2.3694153
			c-0.0335007-0.4635086,0.070282-0.9244614,0.1631203-1.3798065c0.5166969-2.5343094,0.7112541-5.1341095,0.5775146-7.7170944
			c1.3928413,0.8485947,2.5017281,2.1104507,3.3428574,3.5078201C61.5378265,68.977272,62.1250954,70.5121078,62.6317596,72.0624084
			z"/>
		<path class="st21" d="M114.1791534,87.5444031c0.0747452,0.1561127-0.9366684,0.997818-1.9548645,1.8327713
			c-1.0182037,0.8281174-2.0296097,1.6426849-1.9957199,1.7513199c0.0406876,0.1289291,0.3529892,3.6722946,1.3779831,6.6793823
			c-4.3851089,5.8309174-11.722908,10.1344986-20.404808,11.6278687c-2.1993027,0.380127-4.480072,0.5837555-6.8286972,0.5837555
			c-17.4316483,0-31.5914383-11.098381-31.5914383-24.7897949c0-6.7405319,3.4347763-12.8564987,9.0077095-17.3230209
			c0.7805557-0.6244812,1.5951653-1.2150421,2.4572563-1.7716599c5.4643021-3.5569534,12.4763718-5.6951523,20.1264725-5.6951523
			c3.3804169,0,6.6454926,0.4208527,9.7000961,1.1946945c4.961998,1.2489738,9.3945084,3.4415283,12.9447098,6.3128433
			c-0.3394012,2.2943573-0.9231644,6.4214783-0.6923904,6.4825439c0.3123016,0.0746613,5.5730133,2.9052887,5.5730133,2.9052887
			l-4.0457153,1.3915405l1.0588913,5.5865173l0.1764908,0.9164047l0.2919235-0.1968765l3.4278946-2.3146973
			C112.8079605,82.718132,114.0298386,87.2389374,114.1791534,87.5444031z"/>
		<path class="st23" d="M110.2294922,91.1292114c0.0271835,0.081459,0.1561127,1.459404,0.4887161,3.217514
			c-2.6608429,7.0187836-15.9993057,11.0848389-21.178566,12.4152603L64.2474976,66.1357422
			c5.464386-3.5569077,12.4764557-5.6951485,20.1264801-5.6951485c3.3805008,0,6.6454849,0.4208527,9.7000961,1.1946945
			l14.8385849,22.6787376l0.1764984,0.9164047l0.291832-0.1968765l2.844223,4.3443375
			C111.2070084,90.2060165,110.1956024,91.0205841,110.2294922,91.1292114z"/>
		<path class="st21" d="M83.820076,107.0144501c0,4.528595-2.4974136,8.2024994-5.5831375,8.2024994
			c-3.0746155,0-5.5720291-3.6739044-5.5720291-8.2024994c0-2.4642181,0.743721-4.6730347,1.9203415-6.1714554l1.143158,2.9412918
			c0,0,3.0080872,0.0444412,7.4811325-0.5216522C83.5979996,104.3837051,83.820076,105.6601944,83.820076,107.0144501z"/>
		<path class="st32" d="M83.822319,107.0121613c0,4.5300217-2.4983139,8.2023239-5.5801392,8.2023239
			s-5.5801392-3.6723022-5.5801392-8.2023239c0-0.4382629,0.0233841-0.8684998,0.0684204-1.2881546"/>
		<path class="st23" d="M103.9881287,111.5097122c-3.0523987,0.4440079-6.0493698-2.8192139-6.7153244-7.3034973
			c-0.2219391-1.5207825-0.1443024-2.9858704,0.1774979-4.2734604c2.5862961-0.9212189,5.1946793-2.0754929,7.7032013-3.5184937
			c1.5650864,1.2763443,2.77491,3.5073776,3.1633682,6.1714478
			C108.9829559,107.0698624,107.0405197,111.0656967,103.9881287,111.5097122z"/>
		<path class="st33" d="M107.08358,98.8097839c0.5949402,1.0885162,1.0305862,2.372467,1.2363663,3.775032
			c0.6576004,4.4820328-1.2811661,8.4781036-4.3303452,8.9254761c-3.0491867,0.4473724-6.0541229-2.8233719-6.7117233-7.305397
			c-0.095871-0.6534729-0.1365585-1.2966156-0.1266556-1.9199371"/>
		<path class="st20" d="M76.1631851,77.8705063c1.0622635,0.005249,2.2811356-0.1215668,3.2927475-0.4457169
			c1.0116196-0.3241501,1.958374-1.0351028,2.2881012-2.0449142c0.1332092-0.4079666,0.1605148-0.8439331,0.1408005-1.272644
			c-0.0604401-1.3142395-0.552742-2.579483-1.2269669-3.7092209c-1.3128433-2.1997757-3.3463898-3.895195-5.4857559-5.3089752
			c-0.5041122,3.2232361-0.8586807,6.0990372-0.9502258,9.3601685"/>
		<path class="st21" d="M77.1439133,74.4599304c-0.0461807,0.7637939,0.0411911,2.8950882-0.7393875,3.3247528
			c-0.8253555,0.4543076-2.4485931-0.6220016-3.0684204-1.09198c-0.956192-0.725029-2.6172409-2.0745239-2.1962128-3.4156647
			c0.1391983-0.4433746,0.4051361-0.8339233,0.6588287-1.2232819c1.4119797-2.1670227,2.5484314-4.5133667,3.3733902-6.9647217
			c0.9834671,1.3011246,1.5509644,2.8822174,1.8196487,4.4909286C77.260437,71.1886673,77.2425003,72.8319244,77.1439133,74.4599304
			z"/>
		<path class="st34" d="M94.253746,64.3252258l-0.011116,0.0887527c0,0.2109604-0.0555496,0.4108124-0.1333237,0.5883102
			c-0.3218002,0.743721-1.1985779,1.1432953-2.031044,0.8435822c-4.262352-1.5317535-8.6799774-1.7204971-13.2530136-0.466095
			c-0.7770538,0.2108231-1.5317535-0.210968-1.8425751-0.8880234c-0.0998611-0.2219391-0.1554108-0.4662323-0.1443024-0.7215042
			l0.0111084-0.0998611c0.0222244-0.7103882,0.5106812-1.3318977,1.2098236-1.4874458
			c5.2169037-1.1987076,10.2449265-0.9655228,15.1066971,0.5772018C93.842926,62.9711075,94.2759628,63.625946,94.253746,64.3252258
			z"/>
		<path class="st5" d="M94.1093063,65.0022888c-0.3218002,0.743721-1.1985779,1.1432953-2.031044,0.8435822
			c-0.0666656-0.0222244-0.1222153-0.0444412-0.1888809-0.0666656c-0.5327606-0.1886063-1.0655212-0.3551254-1.6093903-0.4994278
			c-0.1220779-0.0333328-0.2552643-0.066658-0.3773499-0.0887451c-0.199852-0.0555573-0.410675-0.0998611-0.6103973-0.1554108
			c-2.0979767-0.4551239-4.2290192-0.5883102-6.4044952-0.3884583h-0.011116
			c-0.6771927,0.0554123-1.3652267,0.1442947-2.0646439,0.2774887c-0.5772018,0.1109695-1.1653824,0.2330475-1.7536926,0.3995667
			c-0.0776367,0.011116-0.1554108,0.0333328-0.2330475,0.0555573c-0.7770538,0.2108231-1.5317535-0.210968-1.8425751-0.8880234
			c0.1887436-0.4440155,0.5772018-0.7880325,1.0766296-0.9102478c0.0111084,0,0.0333328-0.0111084,0.0444412-0.0111084
			c0.6327515-0.144165,1.2653732-0.2663803,1.897995-0.3662415c0.610527-0.0998573,1.2321701-0.1776314,1.8425751-0.2441559
			c1.0434341-0.0998611,2.086731-0.1443024,3.1189194-0.1220818c0.0888824-0.0111084,0.1666565-0.0111084,0.2554016,0h0.1887436
			c0.477211,0.0111122,0.9544144,0.0333328,1.4317627,0.0666618c0.0665207,0.0109749,0.1331863,0.0220871,0.2109604,0.0220871
			c0.1886063,0.0222206,0.3773499,0.0333328,0.5772018,0.0665283c0.0776367,0,0.1552734,0.0111084,0.2330475,0.0222206
			c0.8880234,0.0999947,1.7759094,0.2442932,2.6638031,0.4441452c0.2220688,0.0443077,0.4441452,0.0886154,0.6660843,0.144165
			c0.0111084,0.0111122,0.0333328,0.0111122,0.0555496,0.0111122c0.5881805,0.1442986,1.1653824,0.3108215,1.7535553,0.4994278
			c0.0555496,0.0111084,0.1111069,0.0222244,0.1666565,0.0444412
			C93.5987701,64.2920303,93.9318085,64.6138306,94.1093063,65.0022888z"/>
		<path class="st20" d="M59.482254,87.6246109c-0.388813,3.2424011-2.2959862,5.6778107-4.2547379,5.4431152l-0.3153839-0.0586548
			l-3.0736122-0.5722046l0.4767494-3.9832306v-0.0220337c-0.0293694-0.5281448-0.0073433-1.0856628,0.0587425-1.6578674
			c0.0659065-0.5722122,0.1833916-1.1223831,0.3374138-1.6285019l0.0073433-0.0220337l0.5281487-4.423439l3.3891754,0.6308594
			C58.5946655,81.5726624,59.871067,84.3896332,59.482254,87.6246109z"/>
		
			<ellipse transform="matrix(0.1191932 -0.992871 0.992871 0.1191932 -39.6727676 128.4151306)" class="st23" cx="52.5402527" cy="86.5677109" rx="5.9078183" ry="3.5800273"/>
		
			<ellipse transform="matrix(0.1191932 -0.992871 0.992871 0.1191932 -40.8643913 126.5497208)" class="st35" cx="50.8930702" cy="86.3066254" rx="1.2414951" ry="0.8872662"/>
		
			<ellipse transform="matrix(0.1191932 -0.992871 0.992871 0.1191932 -38.7609482 129.9651184)" class="st35" cx="53.8697624" cy="86.8287964" rx="1.2414951" ry="0.8872662"/>
	</g>
	<path class="st36" d="M63.2697563,79.6999741c0.0157204,0.6168976,0.4238243,1.1864777,0.9674263,1.4785614
		c0.543602,0.2920761,1.2007294,0.3280792,1.8012848,0.1861191c0.6005478-0.1419601,1.1504822-0.4502487,1.6490555-0.8138885"/>
	<path class="st36" d="M55.5636063,76.4652939c0.0157242,0.6168976,0.4238281,1.1864777,0.9674301,1.4785614
		c0.543602,0.2920761,1.2007294,0.3280716,1.801281,0.1861191c0.6005516-0.1419601,1.1504822-0.4502487,1.6490555-0.8138962"/>
	<path class="st36" d="M75.4651184,61.2123375c4.243042,2.9709053,7.4194946,7.2566795,9.8484268,11.8316078
		c3.9986496,7.5315323,6.1394501,16.0407562,6.1809082,24.5678558c0.0221329,4.5522461-0.6497726,9.3668823-3.4814072,12.9313354"/>
	<path class="st36" d="M88.6727982,80.8333206c-7.2565231-1.2782898-12.4874191-2.1997528-19.7439423-3.4780502
		C61.738903,76.088707,54.548954,74.8221436,47.359005,73.5555725c-4.3115768-0.7595139-8.5555916-1.3185806-12.3315697,1.5155106
		c-5.5047474,4.1316299-6.3320808,11.3437347-7.7973461,17.555687c-0.7333717,3.1091156-1.6038513,6.446579-4.0675735,8.4799194
		C20.6824284,103.1535416,17.2135105,103.3634644,14,103.480835"/>
	<path class="st37" d="M25.0696526,54.5446701l0.6217861-1.8940277c0.0957375-0.2916298-0.079483-0.6025391-0.3785381-0.6716728
		l-3.1011238-0.8386002"/>
	<path class="st0" d="M27.7077065,46.344429l0.236105,2.1968422c-0.2158413,1.0962601-0.6240482,1.0685654-1.8630753,1.2969818
		c-0.2065639,0.0383339-0.375906,0.0993805-0.5149212,0.1753044c-0.6962795,0.3777504-0.6335716,1.1159515-0.6335716,1.1159515
		l0.3951511,3.6767006l-4.9698772-0.6165466l-0.4704437-4.3772621c-0.2607613-0.1870575-0.3781719-0.6038437-0.5141869-0.8852921
		c-0.1844368-0.3816452-0.3592968-0.7679672-0.5218639-1.1594467c-0.3309193-0.7968826-0.6114731-1.6156158-0.8177109-2.4538383
		c-0.2556858-1.0391922-0.3961296-2.1101074-0.3785706-3.1812172c0.0062084-0.3787193-0.0302582-0.8878403,0.0951691-1.2485962
		c0.0615368-0.1769943,0.0957851-0.1608009,0.26824-0.1810074c0.2597847-0.0304413,0.520256-0.0559158,0.7803211-0.0838661
		c0.8366585-0.08992,1.673317-0.1798401,2.5099754-0.2697601c1.2499943-0.1343422,2.4999886-0.2686844,3.7499847-0.4030266
		c1.0537529,0.2002487,1.4331608,1.7138748,1.4331608,1.7138748l0.2250195,2.093708l1.4691124,1.4574966
		C28.6038399,46.147316,27.7077065,46.344429,27.7077065,46.344429z"/>
	<path class="st24" d="M26.1465874,54.6885757l-2.3859005-0.3440323l-3.1862564-0.4522476l-1.2849064-0.1798096
		l-0.0475445-1.7020454c-0.0064259-0.2229347,0.1927013-0.3973923,0.409277-0.355999l0.7194366,0.122879l4.2519131,0.7262573
		c0.0774632,0.0093536,0.1529922,0.0541954,0.2005043,0.1138344l0.4312115,0.671814L26.1465874,54.6885757z"/>
	
		<ellipse transform="matrix(0.9385824 -0.3450552 0.3450552 0.9385824 -14.3013525 10.0956326)" class="st1" cx="21.208868" cy="45.2216072" rx="0.99423" ry="1.4337156"/>
	<path class="st3" d="M27.5178661,41.1422768c-0.1561127,0.380127-0.4819241,0.6788025-0.868845,0.8009796
		c-0.4547844,0.1357689-0.9231606,0.0271378-1.3576031-0.1153831c-0.2036324-0.0611115-1.0928593-0.237606-1.1607647-0.4344444
		c0.1086311,0.2986755,0.1968784,0.6584167,0.0135899,0.9163666c-0.1900845,0.2783318-0.610939,0.3054695-0.9028187,0.1425629
		c-0.2918797-0.1697006-0.4751682-0.4683762-0.617691-0.7738457c0.0135479,1.0317917,0.0746593,2.0635834,0.1832485,3.0953331
		c-0.2307682,0.0950432-0.495512,0.0135918-0.7534599-0.006794c-0.3054676-0.0203438-0.4683743,0.1289749-0.6516228,0.3461952
		c-0.0746994,0.0882492-0.4412365,0.4005127-0.4412365,0.5226898c0,0.006794,0.0882473,2.5387115,0.0882473,2.5387115
		c-0.0475216,0.875679-1.1607647,1.615551-1.1607647,1.615551c-0.0543156,0.0271378-0.5905533-0.4887199-0.6448689-0.5362396
		c-0.2782917-0.2308121-0.4276485-0.5023041-0.6652126-0.7670479c-0.6312809-0.6855965-1.242218-1.3983307-1.7309361-2.2061043
		c-0.0475197-0.0814514-0.0950413-0.1629066-0.1425629-0.251152c-0.4887161-0.8688889-0.8077745-1.8395691-0.8349123-2.8373871
		c-0.0203838-0.7195282,0.0135899-1.5748215,0.4004698-2.2061043c0.3326473-0.5294838,0.9774761-0.9164047,1.5952072-0.7670479
		c0.0814533-0.251152,0.0407276-0.5430756,0.1561127-0.7806396c0.122179-0.257946,0.4073048-0.4072609,0.6855946-0.4412346
		c0.2782917-0.0407257,0.5634174,0.013588,0.8417072,0.0746994c0.5226898,0.1085892,1.0521336,0.2239723,1.5884132,0.2375641
		c0.0407276,0.006794,0.0746593,0.006794,0.1153851,0.006794c0.6652126,0.006794,1.3168755-0.1425629,1.9617462-0.2986755
		c0.6448689-0.1561089,1.2964916-0.3122635,1.9617443-0.3054695c0.6652126,0,1.3508091,0.1832924,1.8395252,0.6312828
		C27.5111122,39.7846718,27.7622643,40.5245438,27.5178661,41.1422768z"/>
	
		<ellipse transform="matrix(0.9385824 -0.3450552 0.3450552 0.9385824 -14.2192802 10.100091)" class="st0" cx="21.2624283" cy="44.9932861" rx="0.99423" ry="1.4337156"/>
	<path class="st4" d="M21.4485054,45.4295845c-0.2784443,0.0299263-0.5284271-0.1715355-0.5583534-0.4499817
		c-0.0299244-0.2784424,0.1715393-0.5284271,0.4499836-0.5583534"/>
	<path class="st4" d="M25.5640163,46.7444878c0,0,0.871067,0.8050423,1.7191372,0.599781"/>
	<path class="st3" d="M26.4448109,44.0304375c0.0046501,0.0432625-0.0086212,0.0838623-0.0340405,0.1146736
		c-0.0247097,0.0314026-0.0622177,0.0530663-0.1048279,0.0576477l-0.7101593,0.0763206
		c-0.0858612,0.0092316-0.1630783-0.0530052-0.1723061-0.1388779c-0.0046482-0.0432472,0.0086212-0.083847,0.0339699-0.1153183
		c0.024704-0.0313873,0.0622177-0.053051,0.1048222-0.0576324l0.7101593-0.0763245
		C26.3582973,43.8816986,26.4355145,43.9439354,26.4448109,44.0304375z"/>
	<circle class="st3" cx="26.0617046" cy="44.3299332" r="0.2009852"/>
	
		<ellipse transform="matrix(0.9942742 -0.1068591 0.1068591 0.9942742 -4.7600279 3.1849108)" class="st1" cx="27.3394279" cy="46.0098343" rx="0.3881293" ry="0.1598179"/>
	<path class="st1" d="M27.8883038,45.5043449l-0.5919113,0.0636139c-0.1612625,0.017334-0.3060417-0.0993462-0.3233738-0.2606087
		l-0.0953903-0.887558L27.8883038,45.5043449z"/>
	<path class="st38" d="M25.2673588,43.2925606c0,0,0.5981998-0.9157104,1.5016613-0.1613922"/>
	<path class="st1" d="M25.565815,50.0135574c-0.6962795,0.3777504-0.6335716,1.1159515-0.6335716,1.1159515l0.0339508,0.3158951
		l-1.7714176-2.1028099c-0.1336994-0.1587105,0.0405617-0.3885536,0.229475-0.3026657L25.565815,50.0135574z"/>
	<path class="st24" d="M31.5024261,73.3989258l-6.3875027,0.8417053l-3.360075,0.4479904l-1.3032875,0.1764984l-0.2986736-1.608757
		l-0.1018372-0.5498276l-1.5408497-8.342453l-0.6855965-3.7334061c-0.2850857-1.5340958-0.1153851-3.122509,0.4819221-4.5615654
		l0.9842701-2.355423l1.2829456,0.1764565l3.1835785,0.4548264l2.3893948,0.3461952l0.0950012,0.0882034
		c0.0543156,0.0611115,0.1154251,0.1222229,0.1764946,0.1832924c0.9910641,1.0181999,1.7649078,2.2061043,2.3079395,3.495842
		c0.0814533,0.1900444,0.1561127,0.380127,0.2240162,0.5769653c0.2307701,0.6448708,0.4004707,1.3032875,0.5158558,1.9753342
		l0.4073048,2.5047798l0.2511539,1.5408516l0.5905533,3.5705032l0.5091,3.0681915l0.0814533,0.5091019l0.0746593,0.4344406
		L31.5024261,73.3989258z"/>
	<path class="st37" d="M31.5024261,73.3989258l-6.3875027,0.8417053l-3.360075,0.4479904l-1.3032875,0.1764984l-0.2986736-1.608757
		l-0.1018372-0.5498276l-1.5408497-8.342453l5.3896828-3.1564407c0,0,0.5566235-1.1064491,1.0046139-1.9956779
		c0.1425629-0.2782898,0.5702114-0.1764946,0.5634155,0.1425629c-0.0339718,2.2603798-0.1561508,7.1749382-0.251152,10.7657814
		h0.006752c0,0,4.106781,1.3575974,6.0820751,2.0839233l0.0746593,0.4344406L31.5024261,73.3989258z"/>
	<path class="st25" d="M31.2241344,71.6951294l-5.5050678-1.5137558c0,0,0.0587444-9.723011,0.0926762-9.7501907
		c0.0135899-0.006794,1.0001831-0.7033234,2.9144077-1.9726791c0.0814533,0.1900444,0.1561127,0.380127,0.2240162,0.5769653
		c0.2307701,0.6448708,0.4004707,1.3032875,0.5158558,1.9753342l0.4073048,2.5047798l0.2511539,1.5408516l0.5905533,3.5705032
		L31.2241344,71.6951294z"/>
	<polygon class="st15" points="31.7779999,73.7631836 20.6400948,75.8038101 20.4232368,74.6448288 31.3802471,72.6386719 	"/>
	<path class="st1" d="M25.2889214,46.0444527l-0.5325165,0.7868309c-0.121048-0.0781555-0.2094975-0.2027817-0.2260303-0.356617
		c-0.0285015-0.2651978,0.1613789-0.4947929,0.4212685-0.5227242
		C25.0790615,45.9382477,25.1955452,45.9739342,25.2889214,46.0444527z"/>
	<g>
		<path class="st0" d="M39.1661186,75.8154602l-0.1153831,0.1900406c-0.1561546,0.2443619-0.4819641,0.3326035-0.7467079,0.1900864
			l-0.4411964-0.2444l0.0746574,0.0882492c0.1764984,0.1832886,0.2036324,0.4683685,0.0610695,0.6855927l-0.1017952,0.1697006
			c-0.1697006,0.2443619-0.5023041,0.3258514-0.7535019,0.1764984l-0.5769615-0.3326111l0.1900826,0.1697006
			c0.2036324,0.1900406,0.2443581,0.4955139,0.0950012,0.726326c-0.0814514,0.1153793-0.2036324,0.1900406-0.3190155,0.2239685
			c-0.1086311,0.0271835-0.2240181,0.0271835-0.3326073-0.0135422l-0.3394012-0.115387l-0.4208527,0.380127
			c-0.1764946,0.1629028-0.4412384,0.1900406-0.6448708,0.0542755l-0.8145676-0.4955139l-2.6948223-1.6494827l-0.4412384-0.2715378
			l-1.995676-0.1900406v-3.4551163l1.9278126,0.4683762l2.104269,0.515892l2.6608887,0.1629105
			c0.1289749,0.013588,0.2647438,0.0339279,0.3869209,0.0543137c0.2850838,0.0610657,0.5566216,0.1697006,0.8009796,0.3258133
			l0.1561546,0.1018372l2.1110611,1.3168716C39.24757,75.211319,39.3290253,75.5507126,39.1661186,75.8154602z"/>
		<polygon class="st1" points="31.2852459,76.0190887 30.8440075,75.747551 28.8483315,75.5575104 28.8483315,72.1023941 
			30.776144,72.5707703 		"/>
		<line class="st4" x1="37.856926" y1="75.9556732" x2="36.5461769" y2="75.0326767"/>
		<line class="st4" x1="36.5676346" y1="76.7357407" x2="35.4999084" y2="75.9463577"/>
		<path class="st24" d="M30.8440075,72.3196182l-1.1132431,4.018486l-8.6411285-2.3350754
			c-1.3847389-0.380127-2.3961868-1.5815735-2.5183678-3.0138779l-0.8745403-12.1476173
			c0.0679054-0.9706802,0.4265499-0.7292252,1.1528721-1.2926407c0.6108971-0.4819221,1.3983307-0.746666,2.240036-0.6923485
			c0,0,2.979948,0.9638863,2.8984966,2.0160179l-0.0407276,0.6720085l-0.0814934,1.4662323l-0.4751282,8.607193l6.8694649,2.4911957
			L30.8440075,72.3196182z"/>
		<path class="st25" d="M30.2602482,72.1091919c-0.8009796,1.9481506-1.4119167,3.4483185-1.4119167,3.4483185l-9.1162968-3.8555832
			l-1.2218342-9.1095467l5.355711-1.5815773l-0.4751282,8.607193L30.2602482,72.1091919z"/>
	</g>
	<path class="st36" d="M75.5262527,61.4210968c-0.0351868-0.0057106-0.0762711-0.0304832-0.1250076-0.0800896
		c-0.163063-0.1659813-0.238472-0.6069145-0.3010101-0.8275642c-0.3146667-1.1103058-0.3139954-2.3071556-0.0108948-3.4198647
		c0.1735611-0.6371231,0.4469528-1.2476234,0.8165436-1.7953491c0.2290955-0.3395271,0.5085754-0.6688957,0.8887482-0.8213196
		c0.0941391-0.0377464,0.1990204-0.0638847,0.2964478-0.0356941c0.1888504,0.0546341,0.265152,0.278553,0.2937546,0.4730568
		c0.0865784,0.5888863-0.0009384,1.1904068-0.1409378,1.7689247c-0.1752472,0.7241287-0.4319077,1.4255981-0.6879959,2.1252327
		c-0.2504883,0.68433-0.500946,1.3686714-0.7514954,2.0530548c-0.0491409,0.1342621-0.0794373,0.5582848-0.2788086,0.5376625
		c-0.1063004-0.010994-0.3291016-0.5430794-0.3979797-0.6430168c-0.3052979-0.4429855-0.6915207-0.8244514-1.0827637-1.1907997
		c-1.1321335-1.0600929-2.3823242-2.0539246-3.8575974-2.5325356c-0.3075333-0.0997696-0.6813965-0.1636696-0.9236755,0.0504112
		c-0.3029633,0.2677116-0.1834869,0.7675705,0.02285,1.1152534c0.6842804,1.1530151,1.9779663,1.7897263,3.2407532,2.2403297
		c1.027298,0.3665695,2.0832443,0.6528015,3.1550369,0.8552132"/>
	<path class="st0" d="M43.653141,72.1237259l-0.3850708,1.2710266c-0.0262184-0.005043-1.0477638-0.0837631-1.5844231-0.097374
		c0,0,2.0778313,2.6564178,3.4535141,2.6489639l2.0692101-0.025856c0.6043816-0.0172882,0.8746223-0.1775894,1.0190506-0.4342728
		l1.4420738-2.5628662c0.1227379-0.2117462,0.0894699-0.4714661-0.0526505-0.6557388
		c-0.0512276-0.0579605-0.1082611-0.110817-0.1878471-0.1541443c-0.2444572-0.1247635-0.5441513-0.0665436-0.7214966,0.1417999
		l-1.3511696,1.3693085l-0.5557747-0.0562439l-0.3945236-1.5102386c-0.041111-0.2218246-0.2456741-0.3715668-0.4712868-0.3580933
		l-1.8944054,0.1350174C43.8673668,71.8518753,43.7179298,71.9632492,43.653141,72.1237259z"/>
	<polygon class="st21" points="114.0861588,65.7682495 116.5448914,68.0747757 121.3628998,64.0845413 117.3103714,62.1033058 
		117.085228,65.7682495 114.0861588,64.5825958 113.3479004,65.7682495 	"/>
	<polygon class="st21" points="122.377182,73.1030884 132.3216248,76.3722839 128.7284546,72.9408264 	"/>
	<line class="st39" x1="23.3907833" y1="69.6179962" x2="22.6033955" y2="70.0324402"/>
	<line class="st30" x1="37.1772346" y1="95.4735184" x2="38.3769531" y2="94.5063705"/>
	<path class="st5" d="M21.1371574,39.3095055c-0.0543156,0.5158958-0.2443581,1.0181999-0.5158958,1.4594383
		c-0.3122635,0.5091019-0.746664,0.9570923-1.2761497,1.2286301c-0.5362377,0.2782898-1.1743126,0.373333-1.744524,0.2036324
		c0.4683743,0.4751663,0.7738438,1.1267891,0.7806377,1.7988396c0.0067959,0.6720047-0.3122635,1.3508072-0.8620911,1.7309341
		c-0.2375622,0.1629066-0.5226898,0.2647438-0.8145695,0.2986755c-0.4887161-0.8688889-0.8077745-1.8395691-0.8349123-2.8373871
		c-0.0203838-0.7195282,0.0135899-1.5748215,0.4004698-2.2061043c0.3326473-0.5294838,0.9774761-0.9164047,1.5952072-0.7670479
		c0.0814533-0.251152,0.0407276-0.5430756,0.1561127-0.7806396c0.122179-0.257946,0.4073048-0.4072609,0.6855946-0.4412346
		c0.2782917-0.0407257,0.5634174,0.013588,0.8417072,0.0746994C20.071434,39.1805305,20.6008778,39.2959137,21.1371574,39.3095055z"
		/>
</g>
</svg>
