<?xml version="1.0" encoding="utf-8"?>
<!-- Generator: Adobe Illustrator 22.0.1, SVG Export Plug-In . SVG Version: 6.00 Build 0)  -->
<svg version="1.1" id="Layer_1" xmlns="http://www.w3.org/2000/svg" xmlns:xlink="http://www.w3.org/1999/xlink" x="0px" y="0px"
	 viewBox="0 0 156 156" style="enable-background:new 0 0 156 156;" xml:space="preserve">
<style type="text/css">
	.st0{fill:#FFD9B2;}
	.st1{fill:#F7AC76;}
	.st2{fill:none;stroke:#3643C3;stroke-width:0.5;stroke-linecap:round;stroke-linejoin:round;stroke-miterlimit:10;}
	.st3{fill:#233764;}
	.st4{fill:none;stroke:#F7AC76;stroke-width:0.5;stroke-linecap:round;stroke-linejoin:round;stroke-miterlimit:10;}
	.st5{fill:#161718;}
	.st6{fill:#FFFFFF;}
	.st7{fill:#F06449;}
	.st8{fill:#BE412D;}
	.st9{fill:#FE8E60;}
	.st10{fill:#7D4C47;}
	.st11{fill:#4456D6;}
	.st12{fill:#203881;}
	.st13{fill:#6582FC;}
	.st14{fill:#DDA103;}
	.st15{fill:#FBC32E;}
	.st16{fill:none;stroke:#DDA103;stroke-width:0.5;stroke-miterlimit:10;}
	.st17{fill:#FBE6BB;}
	.st18{fill:none;stroke:#BE412D;stroke-width:0.5;stroke-linecap:round;stroke-linejoin:round;stroke-miterlimit:10;}
	.st19{fill:none;stroke:#F06449;stroke-width:0.5;stroke-linecap:round;stroke-linejoin:round;stroke-miterlimit:10;}
	.st20{fill:#F34B4B;}
	.st21{fill:#FC7070;}
	.st22{fill:none;stroke:#FFFFFF;stroke-miterlimit:10;}
	.st23{fill:#FC9F9F;}
	.st24{fill:#408A6F;}
	.st25{fill:#64B48D;}
	.st26{fill:none;stroke:#FBE6BB;stroke-width:0.5;stroke-linecap:round;stroke-linejoin:round;stroke-miterlimit:10;}
	.st27{fill:none;stroke:#F7AC76;stroke-width:0.25;stroke-linecap:round;stroke-linejoin:round;stroke-miterlimit:10;}
	.st28{fill:#A0665A;}
	.st29{fill:#6C3F44;}
	.st30{fill:none;stroke:#6C3F44;stroke-width:0.5;stroke-linecap:round;stroke-linejoin:round;stroke-miterlimit:10;}
	.st31{fill:none;stroke:#7D4C47;stroke-width:0.5;stroke-linecap:round;stroke-linejoin:round;stroke-miterlimit:10;}
	.st32{fill:none;stroke:#F34B4B;stroke-width:0.5;stroke-linecap:round;stroke-linejoin:round;stroke-miterlimit:10;}
	.st33{fill:none;stroke:#FC7070;stroke-width:0.5;stroke-linecap:round;stroke-linejoin:round;stroke-miterlimit:10;}
	.st34{fill:#EAE8F3;}
	.st35{fill:#40304A;}
	.st36{fill:none;stroke:#43334E;stroke-linecap:round;stroke-linejoin:round;stroke-miterlimit:10;}
	.st37{fill:#32775B;}
	.st38{fill:none;stroke:#233764;stroke-width:0.5;stroke-linecap:round;stroke-linejoin:round;stroke-miterlimit:10;}
	.st39{fill:none;stroke:#408A6F;stroke-width:0.5;stroke-linecap:round;stroke-linejoin:round;stroke-miterlimit:10;}
	.st40{fill:#3643C3;}
	.st41{opacity:0.56;fill:url(#SVGID_1_);}
	.st42{opacity:0.52;fill:#FBC32E;}
	.st43{opacity:0.56;fill:url(#SVGID_2_);}
	.st44{fill:none;stroke:#EAE8F3;stroke-width:0.5;stroke-linecap:round;stroke-linejoin:round;stroke-miterlimit:10;}
	.st45{fill:#FEFFFD;}
	.st46{opacity:0.35;fill:#32775B;}
	.st47{fill:#43334E;}
	.st48{fill:none;stroke:#EAE8F3;stroke-width:0.25;stroke-linecap:round;stroke-linejoin:round;stroke-miterlimit:10;}
	.st49{fill:none;stroke:#FBC32E;stroke-width:0.5;stroke-linecap:round;stroke-linejoin:round;stroke-miterlimit:10;}
	.st50{fill:none;stroke:#161718;stroke-width:0.5;stroke-linecap:round;stroke-linejoin:round;stroke-miterlimit:10;}
	.st51{fill:none;stroke:#40304A;stroke-linecap:round;stroke-linejoin:round;stroke-miterlimit:10;}
	.st52{opacity:0.33;fill:#FBC32E;}
	.st53{fill:#A6A3AE;}
	.st54{fill:#5B4B68;}
	.st55{fill:#776688;}
	.st56{fill:none;stroke:#FBC32E;stroke-width:0.5;stroke-miterlimit:10;}
	.st57{fill:none;stroke:#EAE8F3;stroke-linecap:round;stroke-linejoin:round;stroke-miterlimit:10;}
	.st58{fill:none;stroke:#203881;stroke-width:2;stroke-linecap:round;stroke-linejoin:round;stroke-miterlimit:10;}
	.st59{fill:none;stroke:#40304A;stroke-width:2;stroke-linecap:round;stroke-linejoin:round;stroke-miterlimit:10;}
	.st60{fill:#FFD8B7;}
	.st61{fill:#F4E4D4;}
	.st62{fill:none;stroke:#4456D6;stroke-width:0.5;stroke-linecap:round;stroke-linejoin:round;stroke-miterlimit:10;}
	.st63{fill:none;stroke:#DDA103;stroke-width:0.25;stroke-miterlimit:10;}
	.st64{fill:none;stroke:#FFFFFF;stroke-width:0.5;stroke-linecap:round;stroke-linejoin:round;stroke-miterlimit:10;}
	.st65{fill:none;stroke:#64B48D;stroke-width:0.5;stroke-linecap:round;stroke-linejoin:round;stroke-miterlimit:10;}
	.st66{fill:none;stroke:#64B48D;stroke-linecap:round;stroke-linejoin:round;stroke-miterlimit:10;}
	.st67{opacity:0.48;fill:#64B48D;}
	.st68{fill:none;stroke:#64B48D;stroke-width:0.25;stroke-linecap:round;stroke-linejoin:round;stroke-miterlimit:10;}
	.st69{fill:none;stroke:#F06449;stroke-width:2;stroke-linecap:round;stroke-linejoin:round;stroke-miterlimit:10;}
	.st70{opacity:0.92;fill:#64B48D;}
	.st71{opacity:0.57;fill:#408A6F;}
	.st72{opacity:0.36;fill:#408A6F;}
	.st73{fill:none;stroke:#BE412D;stroke-width:2;stroke-linecap:round;stroke-linejoin:round;stroke-miterlimit:10;}
	.st74{opacity:0.65;fill:none;stroke:#408A6F;stroke-width:0.25;stroke-linecap:round;stroke-linejoin:round;stroke-miterlimit:10;}
	.st75{opacity:0.67;fill:none;stroke:#64B48D;stroke-width:0.25;stroke-linecap:round;stroke-linejoin:round;stroke-miterlimit:10;}
	.st76{opacity:0.98;fill:#64B48D;}
	.st77{fill:none;stroke:#408A6F;stroke-width:0.25;stroke-linecap:round;stroke-linejoin:round;stroke-miterlimit:10;}
	.st78{fill:none;stroke:#FFD9B2;stroke-width:0.5;stroke-linecap:round;stroke-linejoin:round;}
	
		.st79{fill:none;stroke:#FFD9B2;stroke-width:0.5;stroke-linecap:round;stroke-linejoin:round;stroke-dasharray:4.0333505,4.0333505;}
	.st80{fill:#E68B4A;}
	.st81{opacity:0.62;fill:#64B48D;}
	.st82{fill:none;stroke:#FBC32E;stroke-width:0.25;stroke-miterlimit:10;}
	.st83{fill:none;stroke:#4456D6;stroke-linecap:round;stroke-linejoin:round;stroke-miterlimit:10;}
	.st84{fill:none;stroke:#E68B4A;stroke-width:0.5;stroke-linecap:round;stroke-linejoin:round;stroke-miterlimit:10;}
	.st85{fill:none;stroke:#203881;stroke-width:0.5;stroke-linecap:round;stroke-linejoin:round;stroke-miterlimit:10;}
	.st86{opacity:0.29;fill:#EAE8F3;}
	.st87{fill:none;stroke:#A6A3AE;stroke-width:0.5;stroke-linecap:round;stroke-linejoin:round;stroke-miterlimit:10;}
	.st88{opacity:0.74;fill:#FFFFFF;}
	.st89{opacity:0.19;fill:#FFFFFF;}
	.st90{fill:none;stroke:#40304A;stroke-width:0.25;stroke-linecap:round;stroke-linejoin:round;stroke-miterlimit:10;}
	.st91{fill:none;stroke:#F34B4B;stroke-width:2;stroke-linecap:round;stroke-linejoin:round;stroke-miterlimit:10;}
	.st92{fill:none;stroke:#43334E;stroke-width:0.5;stroke-linecap:round;stroke-linejoin:round;stroke-miterlimit:10;}
	.st93{font-family:'MyriadPro-Regular';}
	.st94{font-size:14.3867598px;}
	.st95{fill:none;stroke:#6582FC;stroke-miterlimit:10;}
	.st96{opacity:0.47;fill:#A6A3AE;}
	.st97{opacity:0.43;fill:#FFFFFF;}
	.st98{fill:none;stroke:#FBE6BB;stroke-linecap:round;stroke-linejoin:round;stroke-miterlimit:10;}
	.st99{fill:none;stroke:#5B4B68;stroke-width:0.5;stroke-linecap:round;stroke-linejoin:round;stroke-miterlimit:10;}
	.st100{fill:none;stroke:#40304A;stroke-width:0.5;stroke-linecap:round;stroke-linejoin:round;stroke-miterlimit:10;}
	.st101{fill:none;stroke:#DDA103;stroke-linecap:round;stroke-linejoin:round;stroke-miterlimit:10;}
	.st102{fill:none;stroke:#FBC32E;stroke-linecap:round;stroke-linejoin:round;stroke-miterlimit:10;}
	.st103{fill:none;stroke:#32775B;stroke-width:0.5;stroke-linecap:round;stroke-linejoin:round;stroke-miterlimit:10;}
	.st104{opacity:0.4;fill:#FBE6BB;}
	.st105{fill:none;stroke:#FBC32E;stroke-width:0.25;stroke-linecap:round;stroke-linejoin:round;stroke-miterlimit:10;}
	.st106{fill:none;stroke:#4456D6;stroke-miterlimit:10;}
	.st107{opacity:0.61;fill:#64B48D;}
	.st108{opacity:0.9;fill:#64B48D;}
	.st109{opacity:0.76;fill:#64B48D;}
	.st110{fill:none;stroke:#5B4B68;stroke-width:0.5;stroke-miterlimit:10;}
	.st111{opacity:0.66;fill:#A6A3AE;}
	.st112{fill:none;stroke:#43334E;stroke-miterlimit:10;}
	.st113{opacity:0.52;fill:#6582FC;}
	.st114{fill:none;stroke:#DDA103;stroke-width:0.5;stroke-linecap:round;stroke-linejoin:round;stroke-miterlimit:10;}
	.st115{fill:#46724E;}
	.st116{fill:#FE8B2E;}
	.st117{fill:none;stroke:#7D4C47;stroke-width:2;stroke-linecap:round;stroke-linejoin:round;stroke-miterlimit:10;}
	.st118{opacity:0.4;fill:#EAE8F3;}
	.st119{fill:none;stroke:#EAE8F3;stroke-width:0.5;stroke-linecap:round;stroke-miterlimit:10;}
	.st120{fill:none;stroke:#4456D6;stroke-width:0.25;stroke-linecap:round;stroke-linejoin:round;stroke-miterlimit:10;}
	.st121{opacity:0.5;fill:#EAE8F3;}
	.st122{opacity:0.46;fill:#A6A3AE;}
	.st123{fill:#E0916E;}
	.st124{fill:none;stroke:#A0665A;stroke-linecap:round;stroke-linejoin:round;stroke-miterlimit:10;}
	.st125{opacity:0.46;fill:#BE412D;}
	.st126{fill:none;stroke:#203881;stroke-linecap:round;stroke-linejoin:round;stroke-miterlimit:10;}
	.st127{fill:#DBDBE1;}
	.st128{fill:none;stroke:#6582FC;stroke-width:0.5;stroke-linecap:round;stroke-linejoin:round;stroke-miterlimit:10;}
	.st129{opacity:0.53;fill:#A6A3AE;}
	.st130{fill:none;stroke:#DDA103;stroke-miterlimit:10;}
	.st131{opacity:0.2;fill:#FFFFFF;}
	.st132{fill:#B4A1BF;}
	.st133{opacity:0.5;fill:#6582FC;}
	.st134{opacity:0.6;fill:none;stroke:#FFFFFF;stroke-linecap:round;stroke-linejoin:round;stroke-miterlimit:10;}
	.st135{opacity:0.6;fill:none;stroke:#FFFFFF;stroke-width:2;stroke-linecap:round;stroke-linejoin:round;stroke-miterlimit:10;}
	.st136{opacity:0.54;fill:#A6A3AE;}
	.st137{fill:#161718;stroke:#000000;stroke-width:0.25;stroke-miterlimit:10;}
</style>
<g id="_x32_4">
	<g>
		<path class="st10" d="M106.7318268,45.5796967l-3.2671661,0.8657112l-2.1131134,0.5678787
			c-4.3098679,1.8431244-8.0520248,5.2594376-9.718338,9.6439018c-0.4563446,1.2101326-0.7540665,2.4761162-1.1172333,3.7235184
			c-0.269989,0.9308815-0.5863495,1.8431244-0.9027023,2.746109c-0.1954498,0.5398674-0.4004364,1.0797958-0.5958862,1.6197205
			c-0.4377136,1.1635971-0.8845215,2.3457794-1.6940384,3.2859802c-1.4990463,1.7500534-4.2075958,2.3365173-6.3020782,1.3684235
			c-1.3776855-0.6423111-2.2621994-1.8524475-2.131752-3.3977356c-0.689064,0.7261124-1.4431305,1.3963165-2.2531052,1.9827728
			c-1.712677,1.247406-3.6767044,2.1503372-5.7620926,2.5040741c-3.0812683,0.521286-6.4043503-0.2047653-8.7874527-2.2154999
			c-3.2953529-2.7926407-4.3007774-7.3539162-5.5943718-11.4684486c-0.3163528-0.9867287-0.670433-1.9827766-1.3126869-2.7926369
			c-0.6422501-0.8005447-1.6290398-1.4056396-2.6621895-1.3125153c0.7354317-0.8750305,1.4054108-1.805912,2.0294838-2.7554245
			c1.759037-2.6250916,3.238987-5.4642639,4.9612083-8.1079292c0.0372696-0.0559082,0.0654526-0.1024399,0.1027222-0.1582909
			c2.8112755-4.2820244,6.3857079-8.126564,10.7610283-10.7795467c3.965332-2.3923683,8.6383667-3.7514744,13.2459488-3.462904
			c0.4845276,0.0372143,0.9590607,0.0838051,1.4431381,0.1489162c4.8221207,0.6702633,9.2528915,3.1650143,12.8368683,6.46031
			C101.4819946,37.3321152,104.2746353,41.3814163,106.7318268,45.5796967z"/>
		<path class="st28" d="M96.6039658,44.425415L80.2147598,58.996521L59.5083122,41.8375969
			c0.0372696-0.0559082,0.0654526-0.1024399,0.1027222-0.1582909c2.8112755-4.2820244,6.3857079-8.126564,10.7610283-10.7795467
			c3.965332-2.3923683,8.6383667-3.7514744,13.2459488-3.462904L96.6039658,44.425415z"/>
		<path class="st29" d="M89.6118927,63.1305695c-0.1954498,0.5399284-0.4002151,1.0798492-0.595665,1.6197205
			c-0.4375992,1.1636047-0.884407,2.3458405-1.6942673,3.2860336c-1.498703,1.750061-4.2075958,2.3365173-6.3020706,1.3683701
			c-1.3776855-0.6423111-2.2619781-1.8524475-2.131752-3.3976822c-2.1409531,2.2620316-4.9429169,3.9654999-8.0147476,4.4868469
			c-3.0812683,0.5212936-6.4045715-0.2048187-8.7875671-2.2154922c-3.2953529-2.7926407-4.3006592-7.3539772-5.5945969-11.4684486
			c-0.3164673-0.9867325-0.6703186-1.9827805-1.3125725-2.7926407c-0.6422539-0.800602-1.6290398-1.4056396-2.6623039-1.3125725
			c0.7354317-0.8750305,1.4056396-1.8059082,2.0293694-2.7553673c1.1822357,0.7446899,2.1595917,1.8524399,2.8763847,3.0718918
			c1.0984917,1.8896561,1.6848335,4.0120888,2.4016304,6.0786171c0.7074776,2.0572624,1.5917702,4.1331062,3.1278572,5.6783981
			c0.977356,0.9680939,2.1874313,1.6942062,3.4442062,2.2434006c1.9641495,0.8471298,4.1703262,1.3032532,6.24617,0.8098602
			c1.9549408-0.4654465,3.6397705-1.7407455,4.9430313-3.2766647c1.3031387-1.5266533,2.271286-3.3046646,3.2301254-5.0733032
			c0.0837479,2.0106773,0.0093155,3.3976784,1.880394,4.5240631c1.4521103,0.8750305,3.3231888,1.1077499,4.9057541,0.4654388
			C88.3738632,64.1545181,89.0347519,63.6890755,89.6118927,63.1305695z"/>
		<path class="st10" d="M113.0223541,41.1928902c-1.8718567-0.5260277-3.7570114-1.0047379-5.6530533-1.4355202
			c-1.1381226-0.2585831-2.2855911-0.5006523-3.4507751-0.5679817c0.2536926,0.3644638,0.4266663,0.7778969,0.5938034,1.189312
			c0.2874527,0.7075462,0.563385,1.4197693,0.8276749,2.1362877c0.0563431,0.1527672,0.1197205,0.3157158,0.2544174,0.4071999
			c0.1556396,0.1057167,0.3603134,0.0864906,0.5483093,0.0788689c0.6478882-0.0262756,1.2863846,0.1349792,1.923584,0.2550735
			c1.3619156,0.2566872,2.7510452,0.3279037,4.1351395,0.3985367"/>
		<path class="st0" d="M73.1106873,127.3380051c0.1957169,0.1696701,4.7765808,2.3883286,4.7765808,2.3883286
			s1.1223526-1.7357864,2.1664124-3.3671417c0.9396973-1.4355621,1.8271484-2.8058853,1.84021-2.832016
			c0-0.0913696-4.0587921-4.1762924-4.0587921-4.1762924l-0.9005127,0.6656113l-2.1272964,1.5791779l-1.8140945,2.0750427
			C72.9931946,123.6707153,72.9279556,127.1552734,73.1106873,127.3380051z"/>
		<path class="st1" d="M76.9345856,120.0164948l3.1190948,6.3426971c0.9396973-1.4355621,1.8271484-2.8058853,1.84021-2.832016
			c0-0.0913696-4.0587921-4.1762924-4.0587921-4.1762924L76.9345856,120.0164948z"/>
		<path class="st13" d="M71.521019,123.2949219l-2.484169,3.2141876c-0.181778,1.4255371,2.4273529,4.5884094,2.4273529,4.5884094
			l0.7732773-0.6455688l1.8207245,3.2639313c0.7074966,1.2572021,1.6932831,2.3420105,2.8744125,3.1740723l3.9086456,2.7141418
			c0.4804993,0.3391418,1.1286697,0.2104187,1.4501114-0.2677002l0.7572327-1.1261292
			c0.3446045-0.508606,0.3896484-1.1518555,0.1113434-1.6898804l-1.1498947-2.2933502l-2.0359497-4.0921631l0.0890427-3.854538
			c-0.0050507-0.5366211-0.2665482-1.0132675-0.6707458-1.3256607c-0.1717529-0.1327438-0.3669586-0.2351303-0.5858231-0.3074188
			c-0.508934-0.1350708-1.0520782-0.0381927-1.4859848,0.2723007l-1.0049438,0.7571106l-0.0254593,0.0125427l-2.0680771-3.1320801
			l0.6302109-0.9821854l-1.4626617,0.597084C72.649559,122.2942505,71.9819412,122.6985474,71.521019,123.2949219z"/>
		<path class="st12" d="M72.8967514,129.9055481l-0.6585007,0.545639l1.8226471,3.2666779
			c0.7038498,1.2613678,1.6839142,2.3416748,2.8698044,3.1649475l3.9137802,2.723587
			c0.4754562,0.331604,1.1232834,0.2081299,1.4423752-0.2697754l0.0951614-0.1416931
			c-0.2885284,0.0855103-0.6092453,0.0456696-0.8756714-0.1387482l-3.9182968-2.7270355
			c-1.1858902-0.8232727-2.1658401-1.9034882-2.8696976-3.164856L72.8967514,129.9055481z"/>
		<path class="st12" d="M69.5761032,125.8110657l-0.5380173,0.6961212
			c-0.1818161,1.4233704,2.4290619,4.5890961,2.4290619,4.5890961l0.7711029-0.6450958
			C72.2382507,130.4511871,70.433342,127.9227371,69.5761032,125.8110657z"/>
		<path class="st0" d="M96.1323471,130.8878784l-0.1696701,2.7667694c0,0,2.0751266,2.7928314,2.3361588,2.8189545
			c0.2610321,0.0261383,5.2463913-1.0309906,5.2463913-1.0309906s-1.083168-4.3328857-1.6313629-6.5515594
			c-0.1957092-0.7438965-0.3132019-1.2529068-0.3132019-1.2658844c0-0.0653229-6.1077957-2.0359344-6.1077957-2.0359344
			l0.5090027,4.18927L96.1323471,130.8878784z"/>
		<path class="st1" d="M95.4928665,125.5892334l0.5090027,4.18927c2.466629-0.3653717,5.8990173-0.8743744,5.8990173-0.8743744
			l0.0129776-0.0130768c-0.1957092-0.7438965-0.3132019-1.2529068-0.3132019-1.2658844
			C101.6006622,127.559845,95.4928665,125.5892334,95.4928665,125.5892334z"/>
		<path class="st13" d="M94.571579,134.2508087v4.0622711c0.7279205,1.23909,4.7264938,2.1461029,4.7264938,2.1461029
			l0.2170639-0.9836578l3.4365768,1.469101c1.3285904,0.5620728,2.7719574,0.8175812,4.2153244,0.7536469l4.752388-0.2427216
			c0.5875702-0.0254974,1.0217056-0.5237122,0.9836578-1.098587l-0.0895081-1.3540802
			c-0.0383606-0.6131592-0.3960876-1.1496582-0.9452972-1.4051666l-2.3122559-1.1113739l-4.1133499-1.9928131l-2.2866821-3.1042786
			c-0.3321457-0.4214935-0.8305283-0.6387177-1.3413849-0.6387177c-0.2170639,0-0.4341278,0.0383606-0.6515121,0.1150055
			c-0.4852753,0.204361-0.8557892,0.6131439-1.0092316,1.1241608l-0.3321457,1.2135925l-0.0124817,0.0254974l-3.551651-1.2135162
			l-0.1019821-1.1625214l-0.7921677,1.3668823C94.8525772,132.7689209,94.571579,133.4970703,94.571579,134.2508087z"/>
		<path class="st12" d="M99.7026291,138.6400299l-0.187355,0.8344116l3.4397736,1.470108
			c1.32827,0.5676117,2.7643509,0.8230438,4.2061081,0.7492523l4.7622223-0.2383881
			c0.5789719-0.0283813,1.0160522-0.5222321,0.9762802-1.0954895l-0.0113678-0.1703186
			c-0.1759949,0.2441101-0.4541168,0.4087067-0.7776947,0.425705l-4.7679062,0.2384338
			c-1.4417572,0.0737915-2.8777008-0.1816406-4.2059631-0.7492523L99.7026291,138.6400299z"/>
		<path class="st12" d="M94.5713806,137.431015v0.8797913c0.7265625,1.2373962,4.7282715,2.1455994,4.7282715,2.1455994
			l0.2156219-0.9819641C99.515274,139.4744415,96.5409851,138.5776062,94.5713806,137.431015z"/>
		<path class="st0" d="M108.4530716,22.6134796l-0.3607788,9.3582935c-0.0193863,0.5029964-0.1458664,1.0018139-0.3779373,1.4470158
			c-0.1686859,0.3072853-0.3778915,0.5882111-0.6268921,0.8346405c-0.0429688,0.0478859-0.195343,0.141098-0.3981018,0.2653809
			l-0.3820801,9.9107552l-5.6315384-0.2171059l0.3080139-7.9896088c-0.0563049-0.0352325-0.1298294-0.0628128-0.2029495-0.0904274
			c-0.6891632-0.3320923-1.2703934-0.8912048-1.6222992-1.6149521c-0.6211853-1.2377701-0.9152908-2.603344-0.8622055-3.9802799
			l0.1888123-4.8976555c0,0-0.0922546-2.3239021,2.3081284-3.3213539L108.4530716,22.6134796z"/>
		<path class="st1" d="M108.2812347,27.1600666l-0.1678925,4.3551846c-0.3048019-0.1632061-0.4990387-0.4977455-0.4849167-0.863966
			l0.1031265-2.6751194C107.7456741,27.6099453,107.9647827,27.2993221,108.2812347,27.1600666z"/>
		<path class="st3" d="M97.1233444,23.8493195c-0.036087,0.314455-0.035553,0.6343689-0.0190353,0.9509563
			c0.0600967,1.1518116,0.364563,2.3581486,1.1927643,3.1608696c0.0293274-1.3438339,0.6654053-2.6628628,1.6986847-3.5225563
			c0.0390244,0.4424725,0.2531357,0.7074146,0.6980667,0.6642723c0.9304886-0.0902328,1.7952728-0.6910763,2.2044449-1.5316277
			c-0.0895767,0.3733749-0.1770325,0.7776241-0.0265579,1.1308784c0.1151962,0.2704487,0.3581314,0.4704666,0.6251526,0.5934086
			c0.5282211,0.2432041,1.1499939,0.212204,1.7047424,0.0377846c0.4618835-0.1452198,0.8388443-0.457962,1.281662-0.6205635
			c0.4882584-0.179285,0.3562012,0.553297,0.3633118,0.8752651c0.0053558,0.2426834,0.0040512,2.9041576-0.0148392,2.9039555
			c0.0000458,0,1.2359924,0.0132675,1.2359924,0.0132675c0.0584564,0.2655697-0.0097122,0.549181-0.0198517,0.8121777
			l-0.0096893,0.251482c-0.0030899,0.0800362,0.0048294,0.171957,0.0017395,0.2519932
			c0.0021591,0.8358784-0.007637,1.6827564,0.0173416,2.5195141c0.7392883-0.7615204,1.4881287-1.4768314,2.0163727-2.4067974
			c0.3311081-0.5711746,0.5840149-1.1911354,0.7687683-1.8251858c0.2379532-0.8266201,0.292572-1.6489182,0.3708954-2.4931545
			c0.0906448-0.8666821,0.2938919-1.6831818,0.2820511-2.5652752c0.0026474-0.0685921-0.0056381-0.1490669-0.0025558-0.2291031
			c-0.0438919-0.9405651-0.3045731-1.900877-0.8704376-2.6669407c-0.5223007-0.7070789-1.5371323-1.4102974-2.479393-1.320694
			c-0.5285645,0.048317-1.0430603,0.3261814-1.6058884,0.3731785c-0.5861588,0.0575581-1.1916733,0.0227547-1.7830353-0.0802002
			c-1.1608582-0.1821404-2.2671204-0.5911827-3.3756638-0.9430103c-0.5540085-0.1816673-1.1203461-0.3408909-1.6831741-0.2938938
			c-0.7277756,0.0607624-1.4208527,0.7520523-1.9166031,1.2510166c-0.4323273,0.4351368-0.7796173,1.0014744-0.7789001,1.6148701
			c0.0007095,0.6133976,0.4452438,1.2476158,1.0563431,1.300684c-0.4128342,0.2923183-0.6860123,0.7527866-0.8248901,1.2391968
			C97.1793289,23.4766579,97.1448364,23.6620216,97.1233444,23.8493195z"/>
		<path class="st1" d="M100.9453659,37.3670769l0.0443115-1.1495171c0.0098495,0.2787247,3.0748062-0.6309052,3.4455261-0.8812637
			c0.1964417-0.0425415,0.2900391,0.2318497,0.108551,0.3182259
			C103.5780411,36.5425072,102.3892441,37.1278229,100.9453659,37.3670769z"/>
		<path class="st0" d="M107.7424088,27.6701355l-0.1030807,2.6738167c-0.0202637,0.5257359,0.3890839,0.9679165,0.9148178,0.988184
			c0.5257263,0.0202675,0.9679031-0.3890839,0.9881744-0.9148197l0.1030807-2.6738167
			c0.0101318-0.2628689-0.0873566-0.5039234-0.2524948-0.6830616c-0.1659012-0.178442-0.3994827-0.2942276-0.6623459-0.3043613
			C108.2048264,26.7358074,107.7626495,27.1451607,107.7424088,27.6701355z"/>
		<path class="st4" d="M101.6852341,29.6805382l-0.6293945,0.7211895c-0.1644974,0.1884918-0.1428604,0.4751568,0.0480728,0.6368179
			l0.5122528,0.4337292"/>
		<path class="st5" d="M101.3581314,32.341217c0.0522614-0.0292702,0.1045151-0.0585403,0.1669083-0.0862732
			c0.5170822-0.2240639,1.072464-0.0707855,1.548233,0.1870537c0.1774216,0.0905266,0.341156,0.2003632,0.4842606,0.306942
			c0.0044098,0.0059814,0.014801,0.0075569,0.0192032,0.0135384c0.0044098,0.0059814,0.0147934,0.0075569,0.0192032,0.0135384
			c0.1342926,0.0946159,0.2564774,0.1981544,0.3728256,0.3059883c0.0324249,0.0314827,0.0604324,0.0569839,0.0927505,0.0883179
			c0.0280075,0.0255013,0.0664139,0.0525742,0.0868683,0.0928688c0.008812,0.0119629,0.0116425,0.0283318,0.0040894,0.0431252
			c0.0028305,0.0163689-0.0089874,0.025074-0.0108185,0.0354233c-0.0269241,0.0382919-0.0759277,0.0469322-0.1163254,0.0672455
			c-0.0282288,0.0117874-0.0669479,0.0218582-0.0951309,0.0333939c-0.07901,0.0305252-0.1578827,0.0609436-0.2368927,0.0914726
			c-0.0953827,0.0333557-0.1906204,0.0666046-0.2813416,0.1059837c-0.1073456,0.0421677-0.2085648,0.0798225-0.3099289,0.117588
			c-0.1116028,0.0360794-0.2129669,0.0738449-0.3200531,0.1160545c-0.1013641,0.0377617-0.2025833,0.0754166-0.3038025,0.1130753
			c-0.0953827,0.0333557-0.1862106,0.0725861-0.2814865,0.1060905c-0.0789719,0.0302734-0.1578827,0.0609436-0.2368927,0.0914688
			c-0.0669022,0.0216064-0.1235657,0.0448952-0.1802292,0.0681839c-0.0385742,0.0099602-0.0669022,0.0216064-0.1012192,0.0376549
			c0,0,0,0-0.0059814,0.004406c-0.0223465,0.0072365-0.1294403,0.0494461-0.2350616,0.0811195
			c-0.1073456,0.0421715-0.2085648,0.0798264-0.2085648,0.0798264
			C100.9436111,34.3059387,100.3494415,32.9366646,101.3581314,32.341217z"/>
		<path class="st6" d="M101.4373093,34.3754768l-0.1465836-0.3990707c-0.0681763-0.1802292,0.0271835-0.3886681,0.2073059-0.4569969
			l2.0595016-0.7704697c0.0044098,0.0059814,0.014801,0.0075569,0.0192032,0.0135384
			c0.0044098,0.0059814,0.0147934,0.0075569,0.0192032,0.0135384c0.1342926,0.0946159,0.2564774,0.1981544,0.3728256,0.3059883
			c0.0324249,0.0314827,0.0604324,0.0569839,0.0927505,0.0883179c0.0280075,0.0255013,0.0664139,0.0525742,0.0868683,0.0928688
			c0.008812,0.0119629,0.0116425,0.0283318,0.0040894,0.0431252c0.0028305,0.0163689-0.0089874,0.025074-0.0108185,0.0354233
			c-0.0269241,0.0382919-0.0759277,0.0469322-0.1163254,0.0672455c-0.0282288,0.0117874-0.0669479,0.0218582-0.0951309,0.0333939
			c-0.07901,0.0305252-0.1578827,0.0609436-0.2368927,0.0914726c-0.0953827,0.0333557-0.1906204,0.0666046-0.2813416,0.1059837
			c-0.1073456,0.0421677-0.2085648,0.0798225-0.3099289,0.117588c-0.1116028,0.0360794-0.2129669,0.0738449-0.3200531,0.1160545
			c-0.1013641,0.0377617-0.2025833,0.0754166-0.3038025,0.1130753c-0.0953827,0.0333557-0.1862106,0.0725861-0.2814865,0.1060905
			c-0.0789719,0.0302734-0.1578827,0.0609436-0.2368927,0.0914688c-0.0669022,0.0216064-0.1235657,0.0448952-0.1802292,0.0681839
			c-0.0385742,0.0099602-0.0669022,0.0216064-0.1012192,0.0376549c0,0,0,0-0.0059814,0.004406
			C101.6500244,34.3015938,101.5429306,34.3438034,101.4373093,34.3754768z"/>
		<path class="st1" d="M109.0422211,27.7713528l-0.0294647,0.7643204l-0.7131577,0.2995567l0.0420609-1.0908852
			c0.0073624-0.1910801,0.1727066-0.3441429,0.3637848-0.3367767S109.0495834,27.5802727,109.0422211,27.7713528z"/>
		<path class="st1" d="M108.270752,29.5836105l0.7116089-0.2595139l-0.027626,0.7165012
			c-0.0073624,0.1910801-0.1727066,0.3441429-0.3637848,0.3367767s-0.3441391-0.1727047-0.3367767-0.3637848L108.270752,29.5836105z
			"/>
		<path class="st7" d="M117.5084152,56.5120277c-0.1022644,0.4189072-0.223175,0.828495-0.372261,1.2287674
			c-0.2513504,0.6516266-0.5586166,1.2846184-0.9399719,1.8710785c-0.4563446,0.7167397-1.0054169,1.3776855-1.6385803,1.9548264
			c-0.251358,0.2420349-0.6331635,0.4747581-0.9308777,0.2885704c-0.1118164-0.0651703-0.1859055-0.1675529-0.251358-0.2792549
			c-0.1581802-0.2420387-0.3258972-0.4840736-0.4840775-0.7261124c-1.3867722-2.0944786-2.7830963-4.188961-4.1703262-6.2834396
			c-0.7167892-1.0797958-1.4335861-2.1596489-2.150383-3.2487602c-0.2886276-0.4374886-0.5863495-0.8750305-0.7167969-1.3870049
			c-0.2604446-0.9867287,0.1954498-1.9455605,0.3540802-2.9043388c0.1395416-0.828495,0.6608887-1.5731888,1.5358582-1.7872734
			l0.2790833-0.0651703l0.4563522-0.0931206l0.3813477-0.1023827c0.1863632-0.0465317,0.3727188-0.0744858,0.54953-0.111702
			c0.5581665-0.055851,1.1076965-0.0372124,1.6194992,0.0838051c0.4840698,0.111702,0.9404221,0.2978325,1.4058609,0.5491867
			c0.1672668,0.111702,0.3349915,0.2327194,0.4931641,0.3537407c0.1581802,0.1303368,0.3072662,0.2699318,0.4468079,0.4189072
			c1.0517807,1.1263275,1.5826797,2.8019562,2.2153854,4.1516876c0.4936218,1.0240021,0.9681473,2.0572624,1.4244995,3.0998459
			c0.2140808,0.4840736,0.5958939,1.0612144,0.6886139,1.5825043
			C117.7784119,55.5346146,117.611145,56.0838013,117.5084152,56.5120277z"/>
		<path class="st8" d="M119.0815506,59.9283409c0.0745392,1.610405-1.3590469,2.9601898-3.1553574,2.9601898
			c-1.4431381,0-2.6440048-0.8657112-3.0349045-2.0386276c-1.3867722-2.0944786-2.7830963-4.188961-4.1703262-6.2834396
			l0.9590607-0.7912254c0-0.0393486,0.3340607-0.4127846,0.7198486-0.8309364
			c0.4540176-0.4920921,1.2765121-0.2304001,1.3602219,0.4338837l0.6753006,5.3586578l0.5027084-2.7554245l0.7258911-3.9562378
			l0.6331635,7.6332245l1.899025-0.0465317l2.8671875-0.0744858L119.0815506,59.9283409z"/>
		<path class="st6" d="M109.4509277,42.8764763l-8.1835175,29.8786201c-0.8134384,0.0215683-1.625824,0.000946-2.4373932-0.0619354
			c-3.3602829-0.2615967-6.5894852-1.2735519-9.6749039-3.0430069l8.3161774-30.3629761l3.1479416-0.3596649l0.2737503-0.3500595
			c-0.1110001,0.4052696-0.0192413,1.0891609,0.0548935,1.4388428c0.4810181,2.3949242,4.6374664,2.8533134,5.5220566,0.0886421
			c0.1087341,0.1466408,1.1537552,1.2191887,2.5105515,2.3557892l-0.0027084,0.0098915
			C109.1313858,42.6082802,109.2875595,42.7360764,109.4509277,42.8764763z"/>
		<path class="st34" d="M109.4509277,42.8764763l-8.1835175,29.8786201c-0.8134384,0.0215683-1.625824,0.000946-2.4373932-0.0619354
			c1.0139923-3.5473328-3.9424591-5.4680328-3.9424591-5.4680328c9.993103-6.9637985,11.5823746-27.1201897,11.5823746-27.1201897
			c0.1087341,0.1466408,1.1537552,1.2191887,2.5105515,2.3557892l-0.0027084,0.0098915
			C109.1313858,42.6082802,109.2875595,42.7360764,109.4509277,42.8764763z"/>
		<path class="st54" d="M105.91259,100.0118027c-0.4918747,0.9530334-1.10672,1.8445892-1.8650436,2.6131744l-0.0102615,0.0102539
			c-0.0410309,0.0512924-0.0718002,0.0820007-0.1230927,0.1332321l-3.2792435,3.269043l-0.1331024,0.1229706l-0.0307693,0.030777
			l-1.0145264,1.0042572l-3.7609787,3.730217l-3.0845947,3.0743332l-2.3160172,2.2852402l-4.9906693,4.9906693l-3.9864044,3.9556961
			l-4.3962173-5.2264099l-0.7276764-0.8710403l1.7216797-2.2750397l0.0205154-0.0204544l3.146019-4.1298904l7.6039047-9.9710846
			l1.5780792-2.0598145l0.7174225-0.9223251l0.0102539-0.0102615v-0.0101929l3.3305359-4.375824l-0.2356796-2.2237549
			l-0.994133-9.7149506l-1.10672-10.8523788l-0.1128311-1.0145187h13.0250244v0.0101929l0.440712,4.7960205l0.0819397,0.840271
			l0.3073578,3.4022675l1.2707138,13.6705856C107.1833038,96.2713928,106.7836227,98.2492142,105.91259,100.0118027z"/>
		<line class="st92" x1="96.0326309" y1="102.0487061" x2="79.414238" y2="120.9472427"/>
		<path class="st47" d="M97.3836899,107.0021591l3.2447739-0.970871l3.2831268-3.2574768
			c0.8174286-0.8175888,1.4945145-1.762886,2.0053711-2.7720413c-0.4341354-7.4219742-1.2646637-21.7166214-1.2646637-21.9465561
			l-5.9144363,12.4295502L97.3836899,107.0021591z"/>
		<path class="st47" d="M88.6965179,102.7270889l1.6063919,13.5716705l9.1500092-9.1045532
			c-0.3747177-2.435051-2.8551178-12.0617905-4.5352325-13.4978409c-0.2384949-0.2043304-0.5223007-0.391655-0.8343735-0.5562439
			l0.2269897,2.2250366L88.6965179,102.7270889z"/>
		<path class="st54" d="M104.8690262,71.5550232c-0.0093155,0.0744858-0.0371552,0.9123001-0.0930634,2.3086166
			c-0.0372772,0.9029312-0.0559082,2.0851669-0.1023865,3.4628448c-0.0093155,0.1303406-0.0093155,0.2606735-0.0093155,0.4002762
			c0,0.111702-0.0093155,0.2234039-0.0093155,0.3350983c-0.0279541,0.9402008-0.0557938,1.9642029-0.0744324,3.0719528
			c-0.0372696,1.2752991-0.0745468,2.634346-0.1118164,4.0772552c-0.0464783,1.5638733-0.0836334,3.2114944-0.1302185,4.9336548
			c-0.0186386,0.1768723-0.0186386,0.3537369-0.0279541,0.5398712c0,0.2048187-0.0093231,0.4282227-0.0093231,0.633049
			c-0.0372696,1.9734573-0.0837479,4.021347-0.1303329,6.0972519c0,0.1489105-0.0093231,0.2978897-0.0093231,0.4468002
			c-0.0464706,1.5825119-0.0651093,3.1743317-0.1116943,4.7661057c-0.0744324,2.8578033-0.1395416,5.7062912-0.2234039,8.4244461
			c-0.0093231,0.5306091-0.0279541,1.0519028-0.0372696,1.5731888c0,0.3258438,0,0.6702652-0.0279541,0.9867325
			c-0.1209106,5.0360947-0.2791977,8.983017-0.4281693,11.6174164c-0.0186386,0.4002762-0.0372772,0.7912292-0.0557938,1.1356506
			c0,0.0558472-0.0093231,0.111702-0.0093231,0.1675491c-0.0930634,1.5452957-0.1769257,2.3551559-0.1769257,2.3551559
			l-8.1172409-0.3537445l-0.7074814-0.0279541l-1.6569901-14.5030594l-1.1076965-9.6904984l-0.4374847-3.900383
			l-0.0838623-0.6516266l-0.7100601-8.6693954v-0.018631l-2.2127991-4.4373627
			c-0.2047653-0.3537369-0.4374847-0.7260513-0.633049-1.0984268c-0.474762-0.8750305-0.8657684-1.7686996-1.2100754-2.6902618
			c-0.3724899-1.023941-0.6703186-2.0758438-0.8657684-3.1463776c-0.2234039-1.1542816-0.3257828-2.3365173-0.3444214-3.5280151
			l0.0744324-1.0798492l0.3071442-4.7846832l6.7582016,0.4374924L104.8690262,71.5550232z"/>
		<path class="st55" d="M104.6642609,77.7267227c0.0002975,0.0002823,0.0004196,0.0004044,0.0007248,0.0006866
			c-0.031189,1.0303574-0.0636063,2.1658707-0.0844727,3.4064026c-0.0372696,1.2752991-0.0745468,2.634346-0.1118164,4.0772552
			c-0.0464783,1.5638733-0.0836334,3.2114944-0.1302185,4.9336548c-0.0186386,0.1768723-0.0186386,0.3537369-0.0279541,0.5398712
			c0,0.2048187-0.0093231,0.4282227-0.0093231,0.633049c-0.0372696,1.9734573-0.0837479,4.021347-0.1303329,6.0972519
			c0,0.1489105-0.0093231,0.2978897-0.0093231,0.4468002l-9.8673019,13.479126l-1.8264847-20.6634216l-2.9583817-7.383255
			c-0.9600754-2.2920151,0.646019-4.8419647,3.1278839-4.9660568L104.6642609,77.7267227z"/>
		<polygon class="st47" points="92.1438599,70.745163 91.9018173,75.0644531 85.0785141,75.0923538 85.3856583,70.3076706 		"/>
		<path class="st47" d="M103.7631378,77.9968567l-0.7539902-0.0789566l-3.6908722-0.3734131l-1.9323196-5.9799881
			c0,0,1.8281479-0.0411758,3.9745102-0.080162l3.3901825,0.9285431l-0.0026932,0.0098343l-0.8418732,4.7420807
			L103.7631378,77.9968567z"/>
		<path class="st15" d="M85.2224426,68.2108536c5.9849625,2.5956573,12.4463425,4.3278732,19.3497696,5.2584381l0.3814545-1.7634354
			c-6.9022217-1.3092117-13.0133591-2.9259338-18.950325-5.1903381L85.2224426,68.2108536z"/>
		<path class="st7" d="M97.8874283,55.2553062c0.0837479,2.7833786,0.4561234,5.8459511,1.2752991,9.1226692l-0.5771408,0.8377533
			l-5.985611,8.7968292l-0.0278397,0.0465317l-0.6703186,1.0053635l-7.2979507-3.5838623l-0.8379288-0.4095917l4.3379288-10.08144
			l1.4335938-12.8461342l0.9122467-8.0056l10.4445572-1.5638695c0,0-2.5692368,5.1571083-2.9788818,13.3488426v0.1023827
			C97.8689041,53.0584412,97.8502655,54.1382942,97.8874283,55.2553062z"/>
		<path class="st9" d="M99.1627274,64.3779755l-0.5771408,0.8377533l-5.985611,8.7968292l-5.9668579-3.1091614l3.6396637-10.174511
			l0.9588318-5.4735794l6.6837692-3.2301254c-0.0464783,1.0332603-0.0651169,2.1131134-0.0279541,3.2301254
			C97.9711761,58.0386848,98.3435516,61.1012573,99.1627274,64.3779755z"/>
		<path class="st8" d="M89.6939926,55.8893051l-1.0139771,5.2155647L84.6042938,71.484993l-0.8434296-0.4116211
			l4.3349915-10.0860214l1.445755-12.8430672l0.3415222-0.04459l3.3435974-1.3121643
			c0.8670273-0.3402557,1.66922,0.6172142,1.1823883,1.4112625L89.6939926,55.8893051z"/>
		<path class="st7" d="M112.7608414,45.7324219l-1.3217773,4.0679398l-0.7354355,2.243454l-0.2881699,0.8936081
			l-0.9217911,2.7926407l-0.7445221,2.271347l-2.5321884,7.7542496l-0.0745468,2.9695053l-0.1954498,8.1638336l-0.018631,0.726059
			l-0.0186386,0.9680939l-5.7807312-1.5824509L99.318985,65.5601501l-0.1022644-1.387001
			c0.7817917-0.4747543,1.47995-1.0518951,2.1040268-1.7127838c2.8485413-2.9788284,4.1889572-7.5773773,4.7939377-11.8221855
			c0.120903-0.809864,0.2140808-1.6104622,0.269989-2.3830528c0.4186249-4.5240631,0.0836334-8.1545143,0.0836334-8.1545143
			L112.7608414,45.7324219z"/>
		<path class="st9" d="M108.6669769,55.9534645l0.0838623,2.0479469l-2.5319672,7.7542496l-0.0745468,2.9695053
			l-0.1954498,8.1638336l-0.018631,0.726059l-5.0359802-1.7035294l0.1768112-9.8207703l1.0983734-0.4840164l-1.0983734-1.3218918
			l0.251358-1.8244858c2.8484344-2.9788284,4.1889572-7.5773773,4.7939377-11.8221855
			c0.1211319-0.809864,0.2140884-1.6104622,0.2699966-2.3830528l2.6530991-1.1636009L108.6669769,55.9534645z"/>
		<circle class="st15" cx="99.2260361" cy="64.2856979" r="0.9244192"/>
		<path class="st0" d="M84.6961899,79.6066437c-0.0517426,0.4214325-0.4339752,0.7311401-0.8653793,0.6767273l-0.3002014-0.0291061
			c-0.411499-0.0489578-0.7166977-0.4088135-0.6901398-0.8159409l0.035675-0.712738l-0.0602798,0.1428986
			c-0.1271286,0.3476715-0.4768829,0.5387802-0.836441,0.4934082l-0.2678146-0.0308685
			c-0.4087982-0.0587921-0.7015152-0.4258652-0.6749649-0.8329926l0.0854568-0.9328308l-0.1172409,0.3503876
			c-0.0974503,0.3557968-0.4706268,0.593605-0.8498535,0.5428467c-0.1932755-0.031662-0.3674774-0.1324921-0.4787827-0.2692642
			c-0.0942459-0.1214066-0.1704712-0.269783-0.172142-0.4190063l-0.0659103-0.4962006l-0.7241135-0.3045578
			c-0.3181076-0.1190338-0.4975281-0.4337997-0.4773178-0.778923l0.158638-1.3165359l-0.0034637-1.732872l0.0020599-0.3181763
			l0.0062027-3.1646576l-0.2420273-1.405014l-0.1883774-1.1353912l5.0801468,1.3914108l0.0590973,1.9180756l0.0806961,0.1708755
			l1.6975555,3.578125c0.0680923,0.1780548,0.1219406,0.3309402,0.1647263,0.5232697
			c0.0832138,0.3946457,0.1115494,0.7955322,0.0653305,1.1972733l-0.0308151,0.2678299L84.6961899,79.6066437z"/>
		<path class="st1" d="M83.1897125,70.5981979l-4.7957382,2.2247009l0.0062027-3.1646576l-0.2420273-1.405014
			c0.3507996-0.2332993,0.7672043-0.5124435,1.1655731-0.7645569c0.5522919-0.3481445,1.0586548-0.6450653,1.2285919-0.6835403
			l0.87677,1.2601852L83.1897125,70.5981979z"/>
		<line class="st4" x1="82.8698044" y1="78.7197647" x2="83.312645" y2="75.5759964"/>
		<line class="st4" x1="81.1002655" y1="77.7392044" x2="81.6812057" y2="75.6181335"/>
		<line class="st4" x1="79.4437256" y1="77.280159" x2="79.6255798" y2="75.913826"/>
		<line class="st4" x1="82.7465134" y1="58.0511589" x2="81.1261826" y2="56.8531647"/>
		<path class="st7" d="M93.0375824,47.203228l-4.7940598,6.1158867l-3.4721603,4.412365l-0.6422501,0.8191757l0.0093155,0.2327232
			l0.3070374,9.4856644l0.0093155,0.4281693l0.0186386,0.3910141l0.0465851,1.387001l-6.9443283,0.6702042l-0.521347-15.1546936
			c-0.0279541-0.7540092,0.2047653-1.4894409,0.6515732-2.1037979l9.1319885-12.2038231
			c0.9122391-1.0053635,2.1596985-1.5173378,3.4255676-1.5359726c0.0465927,0,0.1211395-0.0093193,0.1769257-0.0093193
			c0.5585098,0,1.1171265,0.1210213,1.6290436,0.3258438c0.5491867,0.2047653,1.0425797,0.5119705,1.498703,0.9308777
			c0.0372696,0.0185814,0.0559082,0.0465355,0.1024933,0.0837479c0.0744324,0.0838051,0.1209106,0.1396561,0.1954498,0.2234039
			C95.0110397,42.9304657,93.558815,46.6354065,93.0375824,47.203228z"/>
		<path class="st9" d="M84.4547806,68.6972122l0.0186386,0.3910141c-3.0625229,0.4747543-5.7155075,0.9029236-5.7155075,0.9029236
			l-0.5958862-9.0947151l6.6093369-3.1649551l-0.6422501,0.8191757l0.0093155,0.2327232l0.3070374,9.4856644L84.4547806,68.6972122z
			"/>
		<g>
			<path class="st34" d="M138.0431824,21.8866959c0,4.3648205-4.3647614,7.8967419-9.7429657,7.8967419
				c-2.1774139,0-4.1842117-0.5819283-5.8097153-1.5552559l-4.4650726,2.4081802c0,0,1.0034027-3.0703964,1.6756592-5.057106
				c-0.7224808-1.103775-1.1338425-2.3580227-1.1338425-3.6925602c0-4.3547134,4.3547134-7.8866959,9.7329712-7.8866959
				C133.678421,14,138.0431824,17.5319824,138.0431824,21.8866959z"/>
		</g>
		<text transform="matrix(-1 0 0 1 130.5388641 26.2796631)" class="st20 st93 st94">!</text>
		<path class="st7" d="M119.0815506,59.9283409c0.0745392,1.610405-1.3590469,2.9601898-3.1553574,2.9601898
			c-1.4431381,0-2.6440048-0.8657112-3.0349045-2.0386276c-0.0931778-0.2885704-0.1395416-0.6050377-0.1304474-0.9215622
			l0.1772614-3.9469223l0.4372635-9.7090683l0.1304474-2.8205948h4.8403015l0.7172546,16.0856323L119.0815506,59.9283409z"/>
		<path class="st8" d="M119.0815506,59.9283409c0.0745392,1.610405-1.3590469,2.9601898-3.1553574,2.9601898
			c-1.4431381,0-2.6440048-0.8657112-3.0349045-2.0386276c-0.0931778-0.2885704-0.1395416-0.6050377-0.1304474-0.9215622
			l0.1772614-3.9469223l0.7258911-3.9562378l0.6331635,7.6332245l1.899025-0.0465317l2.8671875-0.0744858L119.0815506,59.9283409z"
			/>
		<path class="st29" d="M123.6447754,44.60215c0.5230789,0.3653107,0.8467026,0.9821968,0.9088593,1.6171799
			c0.0621643,0.6349792-0.1234589,1.2814026-0.4625244,1.8218689c-0.1937408,0.3088341-0.4565125,0.5997086-0.806221,0.7027435
			c-0.5802841,0.1709671-1.2076645-0.2590065-1.4419785-0.8167229c0.0073242,0.9854965-0.2049332,1.972023-0.6169205,2.8672943
			c-0.3965378,0.8616829-1.0728836,1.6987877-2.0094528,1.8490105c-0.4583969,0.0735283-0.9439163-0.0249214-1.3812485,0.1308746
			c-0.4128342,0.147068-0.7190857,0.501133-0.9415894,0.8786964s-0.3807983,0.7908211-0.6128006,1.1626244
			c-0.4493179,0.7200623-1.1773911,1.2611122-1.99646,1.4836159c-0.7865982,0.2136841-1.5618591,0.058033-2.2733994,0.4556618
			c1.3234787-4.3358383,2.5531998-8.594799,3.3090439-13.0646744c2.020874,0.7878685,4.2725983,0.9725456,6.3948364,0.5244827"/>
		<path class="st10" d="M108.2935638,41.7562714c0.9002533,0.9806671,1.7269974,2.0453186,2.297554,3.2480736
			c0.5206299,1.097496,0.8173447,2.2867203,1.0627441,3.4763985c0.5613174,2.7211571,0.8694687,5.5434456,0.3571777,8.2742538
			c0.7597656-1.9387398,2.0351791-3.7762642,3.9083405-4.6857948c1.373436-0.6668854,3.0626144-0.8495293,4.0688171-1.9978371
			c0.5173492-0.5904198,0.774559-1.359539,0.9972076-2.1123161c0.2226563-0.7527771,0.4307098-1.5280495,0.8759384-2.1745949
			c0.4452209-0.6465454,1.1888428-1.1504288,1.9703064-1.07584c-2.4318008-1.1860199-5.0472946-1.9395523-7.6475296-2.6872902
			c-2.3570938-0.6778183-4.7432709-1.3604279-7.1944122-1.4454536"/>
		<path class="st30" d="M114.9677353,43.4421158c2.143219,0.9857941,4.1856766,2.1904869,6.0853043,3.5892563"/>
		<path class="st30" d="M109.962616,41.6095467c1.5495911,1.2331276,2.9724121,2.6470032,4.0666962,4.2975731
			c1.0942764,1.6505737,1.8520508,3.54842,2.0169601,5.5219002"/>
		<path class="st29" d="M73.4818649,60.7490959c-0.3160782,0.1667747-0.6847916,0.201931-1.0361328,0.2107201
			c-0.0614166,0.0087891-0.1228333,0.0087891-0.1755676,0.0087891c-0.6233749,0.0263138-1.2379608,0.0438919-1.8526535,0.052681
			h-0.0087891c-0.5971146,0.0175247-1.0711823-0.0263672-1.6419296-0.1493034h-0.0087891
			c-0.0263672-0.0087891-0.0614166-0.0087891-0.0877838-0.0175247c-0.2282944-0.0439453-0.4565964-0.0966263-0.6848984-0.1580963
			h-0.0086823c-0.544487-0.1228828-1.0712891-0.2809258-1.5893021-0.456543
			c-0.3862839-0.1229401-0.7638931-0.263401-1.1414948-0.4214973c-0.3862839-0.1580391-0.7638931-0.3336067-1.1327057-0.5268021
			c-0.0702057-0.0263138-0.1316185-0.06147-0.201931-0.1053619c-0.1052551-0.052681-0.2019348-0.1053581-0.3072929-0.1668282
			c-0.0614166-0.0351028-0.1229401-0.0702591-0.1843567-0.1053619c-0.1756706-0.1053581-0.3512344-0.2195091-0.518013-0.3424492
			c-0.0527344-0.02631-0.0966797-0.0614662-0.1405144-0.0965691c0,0-0.0087891-0.0087891-0.0175781-0.0087891
			c-0.1844635-0.1404648-0.3600273-0.2721901-0.5268021-0.430233c-0.0439453-0.0351028-0.0966797-0.0790482-0.1405182-0.1229362
			c-0.0087891,0-0.0087891,0-0.0087891,0l-0.0438385-0.0438919c-0.4653854-0.430233-0.8868294-0.9395103-1.2556458-1.5014687
			c-0.0087891-0.0087357-0.0175743-0.0263138-0.0350456-0.0438919c-0.0878906-0.140461-0.1756744-0.2721901-0.2458801-0.4214401
			l-0.0087891-0.0087891c-0.0615196-0.0965729-0.1229362-0.1931458-0.1668816-0.2985573
			c-0.1229401-0.2195129-0.2369804-0.4477577-0.3336601-0.6672668c-0.2195091-0.4916992-0.3950729-1.0097694-0.5092239-1.5190468
			c-0.114151-0.4829102-0.1844635-0.9658241-0.2020378-1.4399452c0.2898216,0.4390182,0.6059036,0.8604622,0.9571381,1.2468033
			c0.3512383,0.403862,0.7375259,0.7814674,1.1414948,1.1414413c0.4740715,0.4390182,0.9832954,0.8341484,1.5189934,1.2117004
			c0.228302,0.1756172,0.4653893,0.3424454,0.7024765,0.5004883c0.5618515,0.377552,1.1325989,0.7375221,1.7033463,1.0887604
			c0.0175781,0.0087891,0.0439453,0.0263138,0.0614166,0.0351028c1.0712891,0.6585312,2.1688385,1.2995377,3.2839661,1.8790207
			c0.4302368,0.2282982,0.8692551,0.4478073,1.3170624,0.6585274c0.1140442,0.052681,0.2195129,0.1053619,0.3335495,0.1492538
			C71.3043442,60.3451767,72.3668442,60.7227287,73.4818649,60.7490959z"/>
		<g>
			<path class="st14" d="M56.6901321,58.8373375c0.758728-2.4624443,2.6711464-4.2506638,4.9615898-4.9594383
				c0.1904068-0.05756,0.385006-0.1071587,0.5816422-0.152832c0.8808632-0.196785,1.8054543-0.2339745,2.7350121-0.0936623
				c-0.0102615-0.0529785-0.0181961-0.0919418-0.0181961-0.0919418l1.0149994,0.3160667l0.2092285,0.0644684
				c0.0312958,0.0063171,0.0636749,0.019619,0.0930939,0.0320091c1.1966782,0.4052391,2.2281494,1.0883026,3.0438309,1.9539299
				c0.1379166,0.1454277,0.267746,0.2949944,0.3917999,0.4527702c0.5445099,0.6791191,0.96772,1.4503708,1.2494202,2.2709999
				c0.0418701,0.1224632,0.0778198,0.2431221,0.1128311,0.3668137c0.1820831,0.637188,0.2805634,1.2984085,0.2850037,1.9738464
				c0.0024796,0.1103439,0.0020065,0.2197571-0.0054855,0.3303566c-0.0174942,0.5956154-0.1101837,1.1979523-0.2821198,1.7991028
				c-0.0119858,0.0494232-0.0278702,0.1009903-0.0437546,0.1525383c-0.0158844,0.0515518-0.030838,0.1000824-0.0496826,0.1507187
				c-0.1952896,0.5906487-0.4547043,1.1415939-0.7754593,1.6437683c-0.059021,0.0947189-0.1172485,0.1863632-0.1813965,0.2761536
				c-0.383812,0.555809-0.837204,1.0469894-1.3464813,1.4711533c-0.0984039,0.0825882-0.2000656,0.1641617-0.3026657,0.2387924
				c-0.6956406,0.5228119-1.4754868,0.9200516-2.3048325,1.1758804c-0.19133,0.0605774-0.3859329,0.1101761-0.5816422,0.152832
				c-1.2272568,0.2759781-2.5419731,0.2427826-3.8308182-0.154335c-0.042347-0.0130539-0.0848465-0.0261459-0.1264076-0.0422745
				c-0.0009346,0.0030365-0.0009346,0.0030365-0.0009346,0.0030365l-0.8096733-0.2494812l-0.0037308-0.0741882
				c-0.8896713-0.4102783-1.6675491-0.9786835-2.3095131-1.6645813c-0.1377602-0.145401-0.2677383-0.2950134-0.3917999-0.452774
				C56.5048218,63.8572426,55.9314003,61.2997818,56.6901321,58.8373375z"/>
			<g>
				<g>
					<path class="st15" d="M58.0039902,65.727066l8.0545197,2.4817657c-0.19133,0.0605774-0.3859329,0.1101761-0.5816422,0.152832
						l-7.0810776-2.1818237C58.2580299,66.0344391,58.1280518,65.8848267,58.0039902,65.727066z"/>
				</g>
				<g>
					<path class="st15" d="M58.0253563,63.847599l0.0934372-0.303257l10.5472145,3.2498169
						c-0.0984039,0.0825882-0.2000656,0.1641617-0.3026657,0.2387924L58.0253563,63.847599z"/>
				</g>
				<g>
					<path class="st15" d="M58.6495323,61.821846l0.093441-0.303257l11.4509125,3.5282631
						c-0.059021,0.0947189-0.1172485,0.1863632-0.1813965,0.2761536L58.6495323,61.821846z"/>
				</g>
				<g>
					<path class="st15" d="M59.2727737,59.7991257l0.093441-0.303257l11.6965675,3.6039581
						c-0.0119858,0.0494232-0.0278702,0.1009903-0.0437546,0.1525383c-0.0158844,0.0515518-0.030838,0.1000824-0.0496826,0.1507187
						L59.2727737,59.7991257z"/>
				</g>
				<g>
					<path class="st15" d="M59.8969498,57.7733727l0.093441-0.303257l11.3599968,3.5002518
						c0.0024796,0.1103439,0.0020065,0.2197571-0.0054855,0.3303566L59.8969498,57.7733727z"/>
				</g>
				<g>
					<path class="st15" d="M60.5211296,55.7476158l0.0934372-0.303257l10.337986,3.1853485
						c0.0418701,0.1224632,0.0778198,0.2431221,0.1128311,0.3668137L60.5211296,55.7476158z"/>
				</g>
				<g>
					<path class="st15" d="M61.651722,53.8778992c0.1904068-0.05756,0.385006-0.1071587,0.5816422-0.152832l7.0779686,2.1808701
						c0.1379166,0.1454277,0.267746,0.2949944,0.3917999,0.4527702L61.651722,53.8778992z"/>
				</g>
			</g>
			<path class="st15" d="M65.9669342,53.8545341c0.0312881,0.0063171,0.0646057,0.0165825,0.0949631,0.0259361
				c0.0393829,0.0121384,0.0758133,0.0233612,0.1142654,0.0385323L65.9669342,53.8545341z"/>
			<circle class="st15" cx="62.6930885" cy="60.6855278" r="7.4958906"/>
			<circle class="st16" cx="62.6930885" cy="60.6855278" r="6.4251766"/>
			<path class="st15" d="M66.1761627,53.9190025l0.0940247,0.0289726l-0.0009308,0.0030365
				C66.2398376,53.9386215,66.2074509,53.9253197,66.1761627,53.9190025z"/>
			<path class="st14" d="M64.4300613,62.9568634c-0.2821808,0.9157982-1.182663,1.5746994-2.4392319,1.4066315l-0.3718834,1.2069397
				l-0.7276077-0.2241898l0.360672-1.1705475c-0.6693878-0.2195091-1.3016701-0.6467743-1.6201477-1.0569954l0.2512894-0.3409386
				c-0.1148758-0.1017838-0.2356606-0.2054329-0.2356606-0.2054329l0.1164551-0.2695618l0.3879356,0.1195297
				c0.3327827,0.4079819,0.8639107,0.817337,1.5127449,1.0172539c0.8250351,0.2542114,1.5305824-0.0529938,1.7342758-0.7140808
				c0.1962128-0.6368027-0.1371956-1.1711502-0.8859177-1.7803688c-1.0388718-0.8314438-1.6082497-1.5912628-1.2980499-2.5980148
				c0.2971306-0.9643288,1.2069321-1.4808884,2.3283958-1.3279037l0.3606606-1.170517l0.7216873,0.2223663l-0.3457108,1.1219864
				c0.6839981,0.2373428,1.105217,0.5729866,1.3788757,0.8697739l-0.5265579,0.6744843l-0.382019-0.1177063l0.031456-0.2094231
				c-0.229126-0.1835175-0.5466919-0.3809509-0.9894142-0.5173645c-0.8916664-0.2747383-1.3895607,0.1562271-1.5334435,0.6231995
				c-0.1850014,0.6004143,0.1459236,1.0344124,1.0297699,1.7649498
				C64.3340378,61.1343307,64.7477341,61.9258652,64.4300613,62.9568634z"/>
			<path class="st17" d="M60.5019341,65.2250748l0.3609505-1.1714554c-0.6691437-0.2188797-1.3007317-0.6420784-1.6173363-1.0571251
				l0.517807-0.6913338c0.3317795,0.4070206,0.8670044,0.8132286,1.5165253,1.0133591
				c0.8235016,0.2537384,1.5267563-0.0502625,1.7304611-0.7113838c0.1965561-0.6379204-0.1342812-1.1716499-0.8853607-1.7840652
				c-1.0401077-0.8284683-1.6064262-1.5871506-1.2955055-2.5962257c0.2966194-0.9626846,1.2060852-1.4825401,2.3267593-1.3277359
				l0.3609505-1.1714554l0.7191124,0.2215729l-0.346653,1.1250648c0.6887627,0.2376213,1.1071281,0.5697212,1.3827324,0.8705368
				l-0.5258331,0.6761627c-0.2006836-0.2142296-0.5976028-0.6159248-1.3399124-0.8446465
				c-0.8930931-0.275177-1.3938446,0.1547165-1.5367928,0.61866c-0.1858368,0.6031265,0.1503944,1.0369186,1.0308151,1.7653847
				c1.0445557,0.8552399,1.4618492,1.6442032,1.1437798,2.6764755c-0.2823257,0.9162865-1.1847076,1.5780296-2.4401169,1.4071007
				l-0.3716698,1.2062531L60.5019341,65.2250748z"/>
		</g>
		<path class="st0" d="M119.3739166,44.86409l0.7998352-1.4509888c0.0306854,0.0129585,1.2567825,0.3742027,1.9081039,0.5301285
			c0,0-1.8458557-3.7808723-3.5264587-4.1289024l-2.5316467-0.5056114
			c-0.7419891-0.1357994-1.1133575-0.0103493-1.3562317,0.2653732l-2.4249878,2.752964
			c-0.2047424,0.2265129-0.2315674,0.5520744-0.1059799,0.8138199c0.0474625,0.0840263,0.1033325,0.1633301,0.1892014,0.2368622
			c0.2659073,0.2157059,0.6467209,0.2224579,0.9172058,0.014267l2.0042267-1.3201294l0.6635818,0.2129173l0.0893555,1.9452744
			c-0.0074158,0.2813492,0.2033234,0.51717,0.4821243,0.5593033l2.3466873,0.3270226
			C119.0419388,45.1402016,119.2532043,45.0430946,119.3739166,44.86409z"/>
		<g>
			<path class="st14" d="M68.5843201,130.6619415v4.4130554c0,1.615509-1.5266571,3.1029663-4.0879059,4.2850494h-0.0096207
				c-0.2068253,0.0984802-0.4040298,0.1871643-0.6305771,0.2757874h-0.0100975
				c-1.8219795,0.7585144-4.0778046,1.3692474-6.6491623,1.7731476h-0.0096169
				c-0.2068253,0.0393829-0.4136505,0.0689087-0.6305733,0.0984955h-0.0096207
				C54.4784203,141.8128357,52.2423134,141.9802856,49.887886,142h-0.6599159
				c-2.344326-0.0197144-4.5804329-0.1871643-6.6491585-0.4925232H42.569191
				c-0.2169228-0.0295868-0.423748-0.0591125-0.6305733-0.0984955h-0.0101013
				c-2.5708733-0.4039001-4.836319-1.0146332-6.668396-1.7731476h-0.0101013
				c-0.2169266-0.0984802-0.4237518-0.1871643-0.6305733-0.2856445l-0.0096207-0.0098724
				c-2.5319138-1.1722107-4.0484638-2.6498108-4.0484638-4.2653198v-4.4524384l4.0287418-1.6056519l0.6502953,0.1871643
				l2.0682411,0.5910187c1.3794708-0.4235687,2.9258423-0.7683258,4.590538-1.0441742
				c0.2169266-0.0393677,0.423748-0.0689545,0.6401939-0.0984802c2.0687218-0.3053589,4.3144493-0.482666,6.6688805-0.4925232
				h0.6401939c2.3645287,0.0098572,4.6102562,0.1773071,6.678978,0.4728088
				c0.2164459,0.0295868,0.4232674,0.0689545,0.6401939,0.0985413c1.6945152,0.2757874,3.2702293,0.6303864,4.6694183,1.0638275
				l1.9898415-0.5713043l0.6498146-0.1871643L68.5843201,130.6619415z"/>
			<path class="st15" d="M35.2500191,139.6358337c-0.2169266-0.0984802-0.4237518-0.1871643-0.6305733-0.2856445
				l-0.0096207-0.0098724c-0.0101013-2.4232025-0.0101013-4.9055786-0.019722-7.3583679l0.6502953,0.1871643
				C35.2403984,134.6219025,35.2500191,137.1338043,35.2500191,139.6358337z"/>
			<path class="st15" d="M42.569191,141.5074768c-0.2169228-0.0295868-0.423748-0.0591125-0.6305733-0.0984955h-0.0101013
				c-0.0096169-3.142334-0.0192375-6.4521942-0.0293388-9.6930237c0.2169266-0.0393677,0.423748-0.0689545,0.6401939-0.0984802
				C42.5494728,134.8484497,42.5590897,138.2075348,42.569191,141.5074768z"/>
			<path class="st15" d="M49.8782654,142h-0.6502953c0-3.5068207-0.0096169-7.2401733-0.0197182-10.8750458h0.6401939
				C49.8681641,134.6711426,49.8782654,138.3651276,49.8782654,142z"/>
			<path class="st15" d="M57.1873398,141.4089813c-0.2068253,0.0393829-0.4136505,0.0689087-0.6305733,0.0984955h-0.0096207
				c0-3.211319-0.0101013-6.5900726-0.019722-9.9097137c0.2164459,0.0295258,0.4232674,0.0590973,0.6401939,0.0984802
				C57.1676178,134.8780365,57.1777191,138.1681061,57.1873398,141.4089813z"/>
			<path class="st15" d="M64.4867935,139.3600464c-0.2068253,0.0984802-0.4040298,0.1871643-0.6305771,0.2757874h-0.0100975
				c-0.0096207-2.4429321-0.0096207-4.954834-0.0192413-7.447052l0.6498146-0.1871643
				C64.4766922,134.4150238,64.4867935,136.8875275,64.4867935,139.3600464z"/>
			<ellipse class="st15" cx="49.5724258" cy="130.9044189" rx="19.007164" ry="6.9165511"/>
			<path class="st16" d="M65.8609924,130.9026184c0,0.4068756-0.1515045,0.7975006-0.4412003,1.1799316
				c-1.7099266,2.2377625-8.1565704,3.8977661-15.8445015,3.8977661c-7.6946602,0-14.1414719-1.6600037-15.8444977-3.8977661
				c-0.2896996-0.382431-0.4412003-0.773056-0.4412003-1.1799316c0-2.8073883,7.2878036-5.0776978,16.2856979-5.0776978
				C58.566288,125.8249207,65.8609924,128.0952301,65.8609924,130.9026184z"/>
			<path class="st14" d="M60.0217857,131.2888336l-0.2948151,0.7331848l-2.6416397-0.0875397
				c-0.2862015,0.664856-1.0347328,1.3496704-1.8467979,1.7285309l-1.6441002-0.3333893
				c0.0096397-0.0001678,0.0094299-0.0115509,0.0190697-0.011734l-0.0578461,0.0010834l0.268837-0.5735474
				c0,0,0.6138077-0.1478271,0.9021759-0.1873169c0.0096436-0.0001678,0.0096436-0.0001678,0.0096436-0.0001678
				c0.2938004-0.2669678,0.5196915-0.5554352,0.6391106-0.8647003c0.322052-0.8246613-0.5271873-1.4116516-2.0216446-1.4635773
				c-1.4363747-0.053009-2.507885,0.3648682-3.6292191,1.2043457c-1.5205612,1.1425934-3.0109749,1.8296814-5.286274,1.7467499
				c-2.1692696-0.0735168-3.5512543-0.8098602-3.5230446-1.8905945l-2.6418533-0.0989227l0.2855911-0.7102966l2.5353775,0.0781097
				c0.3245773-0.6883392,0.9329376-1.1430206,1.5144539-1.472229l0.8900528,0.1995697
				c0.0454712-0.1486664,0.091362-0.2745819,0.1010017-0.274765c0.0190735-0.011734,0.8546066-0.1522827,0.8546066-0.1522827
				l-0.2300606,0.5842133c-0.4197464,0.2238312-1.1821289,0.6813812-1.4668541,1.425827
				c-0.3593559,0.8935852,0.7172508,1.2716827,1.7583809,1.3092499c1.3595047,0.043045,2.2094803-0.3592834,3.5596771-1.3395081
				c1.5683212-1.1548004,3.1670761-1.7075195,5.490818-1.625473c2.0728569,0.0753632,3.7526207,0.7720337,3.7269363,1.9891968
				L60.0217857,131.2888336z"/>
			<path class="st17" d="M59.9613266,131.4411926l-2.6428986-0.0920868
				c-0.2919426,0.6722565-1.0377731,1.3506927-1.8525887,1.7333527l-1.6435089-0.3393555
				c0.7929573-0.3944702,1.5282555-0.9811096,1.7844162-1.6293793c0.3253708-0.8233337-0.528244-1.4177399-2.0196381-1.4695282
				c-1.4396095-0.0499573-2.5091782,0.3712921-3.6318588,1.2016296c-1.5153236,1.145752-3.0080566,1.8347015-5.2847023,1.7552643
				c-2.172123-0.0752716-3.5511627-0.817627-3.5222359-1.8975677l-2.644783-0.092041l0.2840271-0.71875l2.5402718,0.0884399
				c0.3268242-0.6940002,0.9336777-1.1538696,1.5115891-1.474411l1.6121826,0.3499298
				c-0.410656,0.2319336-1.1737747,0.6880341-1.4667854,1.429718c-0.352314,0.8926849,0.7179451,1.2709808,1.7649307,1.3071136
				c1.3614693,0.0475159,2.2120781-0.3585663,3.5527344-1.3334198c1.5715866-1.1562347,3.1698341-1.7110901,5.4991951-1.6304169
				c2.0685616,0.0721893,3.7536545,0.7772369,3.7266502,1.986496l2.7219849,0.0945129L59.9613266,131.4411926z"/>
		</g>
		<g>
			<path class="st14" d="M52.718811,114.2915573l1.8225403,4.0191269c0.6671867,1.4713058-0.1088905,3.4564743-1.9533272,5.5908127
				l-0.0087624,0.0039673c-0.1476898,0.1751099-0.2906685,0.3373184-0.4603882,0.5115891l-0.009201,0.0041733
				c-1.3460808,1.4432602-3.1483192,2.9311066-5.3233376,4.3609085l-0.0087585,0.0039673
				c-0.1721001,0.1212769-0.3482704,0.2335815-0.5336151,0.3501129l-0.0087624,0.0039673
				c-1.7579498,1.1324768-3.7252998,2.2084503-5.8614197,3.198761l-0.6010056,0.2725372
				c-2.1432114,0.9502258-4.248867,1.7212219-6.2590408,2.2974701l-0.0087624,0.0039673
				c-0.2097778,0.0626526-0.4103317,0.1211853-0.6149559,0.1707306l-0.009201,0.0041656
				c-2.5081959,0.6938934-4.8236465,1.073288-6.8054447,1.1390991l-0.0091991,0.0041656
				c-0.2382336-0.0000916-0.4632206,0.0045471-0.692255,0.0002747l-0.0128326-0.0050049
				c-2.7900219-0.0219421-4.7814274-0.7413177-5.448616-2.212616l-1.8388042-4.0549927l3.0060062-3.126152l0.6695442-0.098114
				l2.1277046-0.3159027c1.0814037-0.9554596,2.3473644-1.9080734,3.7495403-2.8467941
				c0.1812973-0.1254501,0.3574448-0.2378082,0.5423756-0.3540802c1.7579479-1.1324692,3.72999-2.221405,5.8701801-3.2027359
				l0.5830498-0.2643967c2.1575356-0.9675446,4.2719498-1.7425003,6.2780533-2.3277359
				c0.2093391-0.0624466,0.4139671-0.1119995,0.623745-0.1746445c1.6571541-0.4486465,3.2386589-0.7764435,4.6919556-0.9595566
				l1.5762825-1.3420792l0.5145111-0.4388199L52.718811,114.2915573z"/>
			<path class="st15" d="M26.0661697,136.2310791c-0.2382336-0.0000916-0.4632206,0.0045471-0.692255,0.0002747
				l-0.0128326-0.0050049c-1.0099583-2.2027283-2.0351486-4.4635162-3.0568848-6.6933899l0.6695423-0.098114
				C23.9867153,131.6687012,25.0328579,133.9523926,26.0661697,136.2310791z"/>
			<path class="st15" d="M33.5049706,134.9129181c-0.2097778,0.0626526-0.4103317,0.1211853-0.6149559,0.1707306
				l-0.009201,0.0041656c-1.3065128-2.8578644-2.6822033-5.8683014-4.0298271-8.8156662
				c0.1812973-0.1254501,0.3574429-0.2378082,0.5423756-0.3540802
				C30.7369118,128.8564606,32.1329384,131.9117279,33.5049706,134.9129181z"/>
			<path class="st15" d="M40.3650169,132.342926l-0.5922432,0.2685547
				c-1.4482765-3.1937714-2.9988708-6.5899048-4.5092316-9.8961487l0.583046-0.2643967
				C37.3290863,125.6724396,38.8638573,129.0325165,40.3650169,132.342926z"/>
			<path class="st15" d="M46.7775764,128.7861023c-0.1721001,0.1212769-0.3482704,0.2335815-0.5336151,0.3501129
				l-0.0087624,0.0039673c-1.3262329-2.9246521-2.7308159-5.9976273-4.1105537-9.016983
				c0.2093124-0.0625,0.409893-0.1209793,0.6237183-0.1746979
				C44.0624046,122.8462677,45.4303627,125.8384857,46.7775764,128.7861023z"/>
			<path class="st15" d="M52.5792618,123.9054642c-0.1476898,0.1751099-0.2906685,0.3373184-0.4603882,0.5115891
				l-0.009201,0.0041733c-1.017662-2.2208939-2.0550461-4.5085678-3.093071-6.7743607l0.5145111-0.4388199
				C50.5278244,119.4060287,51.5581436,121.6536636,52.5792618,123.9054642z"/>
			
				<ellipse transform="matrix(0.9107363 -0.4129885 0.4129885 0.9107363 -47.3657265 25.5854759)" class="st15" cx="35.5041313" cy="122.3640823" rx="19.007164" ry="6.9165511"/>
			<path class="st16" d="M50.3379745,115.6354523c0.1680336,0.3705521,0.1913795,0.7888794,0.0854797,1.256813
				c-0.6331177,2.7442017-5.8187485,6.9184113-12.8204231,10.0934372
				c-7.0078087,3.1778107-13.5647163,4.3284454-16.0398941,2.9937592c-0.4217815-0.228653-0.7210827-0.5218506-0.8891144-0.892395
				c-1.1594219-2.5568008,4.5402355-7.6342239,12.7349434-11.3502502
				C41.597393,114.0236359,49.1785545,113.0786591,50.3379745,115.6354523z"/>
			<path class="st14" d="M45.1795044,118.3987198l0.0342941,0.7894897l-2.4419899,1.0112457
				c0.0139275,0.7237091-0.3849716,1.656517-0.9680824,2.336937l-1.635025,0.3753738
				c0.008709-0.0041428,0.0038147-0.0144196,0.0125237-0.0185623l-0.0522423,0.0248642l0.0079689-0.6333771
				c0,0,0.4979744-0.3881149,0.7442932-0.5431747c0.008709-0.0041428,0.008709-0.0041428,0.008709-0.0041428
				c0.1573219-0.3644714,0.2439194-0.7204742,0.2249527-1.0514526c-0.0472717-0.8840561-1.0631256-1.0679245-2.4456291-0.498024
				c-1.3300514,0.5449295-2.1333313,1.3680267-2.8078804,2.595665c-0.9129486,1.6685791-1.9865646,2.9098587-4.0930119,3.7740021
				c-2.005991,0.8289337-3.568716,0.7290649-3.9893608-0.266861l-2.4468803,1.0009766l-0.0332489-0.7648468l2.34132-0.9759445
				c0.0113316-0.7609329,0.3776035-1.4262848,0.7712536-1.9662628l0.8930283-0.1858215
				c-0.0199909-0.1541824-0.0301991-0.2878113-0.021492-0.291954c0.0125217-0.0185699,0.7154312-0.4916306,0.7154312-0.4916306
				l0.0317478,0.6270752c-0.2898369,0.3772049-0.7952061,1.1087646-0.7470703,1.9043427
				c0.0417614,0.9622269,1.1784191,0.8619537,2.142128,0.4661865c1.2559261-0.5222549,1.8638744-1.2396927,2.6887226-2.6900406
				c0.9514084-1.6994171,2.1791916-2.86306,4.3293877-3.748024c1.9189529-0.7874222,3.7364922-0.8466568,4.2157707,0.2724533
				L45.1795044,118.3987198z"/>
			<path class="st17" d="M45.1873627,118.5624466l-2.4450188,1.0076218c0.0117493,0.732811-0.3873138,1.6587067-0.9713631,2.3437195
				l-1.6369514,0.3696823c0.5592613-0.6867371,0.9866524-1.5246735,0.9522209-2.2208633
				c-0.043705-0.8842239-1.0666046-1.0730362-2.4462547-0.5042648c-1.3317413,0.5490341-2.1318626,1.3744049-2.8114128,2.5942688
				c-0.9068718,1.6693039-1.9818344,2.9132233-4.0880661,3.781105c-2.0093155,0.8285141-3.5718441,0.7219467-3.9914951-0.2735291
				l-2.4467163,1.0084305l-0.0381622-0.7718887l2.3500404-0.9685593c0.0110378-0.7670288,0.3738003-1.43647,0.7677517-1.9670639
				l1.6127892-0.3471146c-0.2782192,0.3808136-0.7848511,1.1113663-0.7454014,1.9078522
				c0.0478058,0.9585037,1.1787586,0.8610229,2.1472092,0.4615402c1.2595654-0.5189896,1.8665371-1.2401199,2.6849194-2.6816254
				c0.9537849-1.7020798,2.1802177-2.8674698,4.3349724-3.7559814c1.9137268-0.7885513,3.7395782-0.8423691,4.2143974,0.2701035
				l2.5180397-1.0380707L45.1873627,118.5624466z"/>
		</g>
		<g>
			<path class="st14" d="M42.0124397,82.8794785c1.1129227-3.611969,3.9180946-6.2349625,7.2777672-7.2746124
				c0.2792931-0.0844269,0.5647392-0.1571808,0.8531647-0.2241745c1.2920723-0.2886505,2.6482811-0.3432007,4.0117836-0.1373825
				c-0.0150604-0.077713-0.0266991-0.1348724-0.0266991-0.1348724l1.4888306,0.4636154l0.3069038,0.0945663
				c0.0458984,0.0092697,0.0933952,0.0287781,0.1365509,0.0469513c1.7553139,0.5944138,3.2682991,1.596344,4.464756,2.866066
				c0.2022972,0.2133179,0.3927345,0.4327087,0.5747032,0.6641388c0.7986908,0.9961472,1.4194717,2.1274338,1.8326721,3.3311462
				c0.0614204,0.1796341,0.1141472,0.3566208,0.1654968,0.5380554c0.2670898,0.934639,0.411541,1.9045334,0.4180565,2.8952789
				c0.0036354,0.1618576,0.0029373,0.3223495-0.0080452,0.4845734c-0.0256653,0.8736572-0.1616249,1.7571869-0.4138184,2.6389618
				c-0.0175819,0.0725021-0.0408897,0.14814-0.0641861,0.2237549c-0.0232964,0.0756073-0.0452309,0.1467972-0.0728722,0.2210693
				c-0.2864532,0.8663788-0.6669693,1.6745224-1.1374588,2.4111176c-0.0865707,0.1389389-0.1719856,0.2733612-0.2660789,0.4050751
				c-0.5629807,0.8152695-1.2280312,1.5357361-1.9750481,2.1579132c-0.1443405,0.1211395-0.2934647,0.240799-0.4439583,0.3502579
				c-1.0203857,0.7668762-2.1642799,1.349556-3.3807716,1.7248154c-0.2806549,0.0888596-0.5661011,0.1616135-0.8531647,0.2241745
				c-1.8001709,0.4048157-3.7286301,0.3561172-5.619133-0.226387c-0.0621185-0.0191345-0.1244545-0.0383453-0.185421-0.0620041
				c-0.0013695,0.0044556-0.0013695,0.0044556-0.0013695,0.0044556l-1.187645-0.3659439l-0.0054741-0.1088181
				c-1.3049889-0.6018066-2.4459953-1.4355545-3.3876419-2.4416504c-0.2020721-0.2132797-0.3927269-0.4327316-0.5747032-0.6641312
				C41.7406235,90.2427902,40.8995171,86.4914474,42.0124397,82.8794785z"/>
			<g>
				<g>
					<path class="st15" d="M43.9396362,92.9854889l11.8145523,3.6403046
						c-0.2806549,0.0888596-0.5661011,0.1616135-0.8531647,0.2241745l-10.3866844-3.2003479
						C44.3122673,93.4363403,44.1216125,93.2168884,43.9396362,92.9854889z"/>
				</g>
				<g>
					<path class="st15" d="M43.970974,90.2286453l0.1370621-0.4448242l15.4708824,4.7668991
						c-0.1443405,0.1211395-0.2934647,0.240799-0.4439583,0.3502579L43.970974,90.2286453z"/>
				</g>
				<g>
					<path class="st15" d="M44.8865318,87.257225l0.1370583-0.4448242l16.7964554,5.1753311
						c-0.0865707,0.1389389-0.1719856,0.2733612-0.2660789,0.4050751L44.8865318,87.257225z"/>
				</g>
				<g>
					<path class="st15" d="M45.8007164,84.2902527l0.1370583-0.4448242l17.1567879,5.2863617
						c-0.0175819,0.0725021-0.0408897,0.14814-0.0641861,0.2237549c-0.0232964,0.0756073-0.0452309,0.1467972-0.0728722,0.2210693
						L45.8007164,84.2902527z"/>
				</g>
				<g>
					<path class="st15" d="M46.7162743,81.3188324l0.1370583-0.4448242l16.6630936,5.1342468
						c0.0036354,0.1618576,0.0029373,0.3223495-0.0080452,0.4845734L46.7162743,81.3188324z"/>
				</g>
				<g>
					<path class="st15" d="M47.6318283,78.3474121l0.1370621-0.4448242l15.1639824,4.6723328
						c0.0614204,0.1796341,0.1141472,0.3566208,0.1654968,0.5380554L47.6318283,78.3474121z"/>
				</g>
				<g>
					<path class="st15" d="M49.2902069,75.604866c0.2792931-0.0844269,0.5647392-0.1571808,0.8531647-0.2241745
						l10.3821259,3.1989441c0.2022972,0.2133179,0.3927345,0.4327087,0.5747032,0.6641388L49.2902069,75.604866z"/>
				</g>
			</g>
			<path class="st15" d="M55.619854,75.5705948c0.0458984,0.0092697,0.0947685,0.0243225,0.1392937,0.0380478
				c0.0577774,0.0177994,0.1112061,0.0342636,0.1676102,0.0565186L55.619854,75.5705948z"/>
			<circle class="st15" cx="50.8177071" cy="85.5904465" r="10.9951372"/>
			<circle class="st16" cx="50.8177071" cy="85.5904465" r="9.4245901"/>
			<path class="st15" d="M55.9267578,75.6651611l0.1379204,0.0424957l-0.0013695,0.0044479
				C56.020153,75.6939316,55.9726563,75.6744232,55.9267578,75.6651611z"/>
			<path class="st14" d="M53.3655357,88.9220886c-0.4139023,1.3433151-1.7347527,2.3097992-3.5779152,2.0632858
				l-0.5454865,1.7703629l-1.0672684-0.3288422l0.5290413-1.7169952c-0.9818726-0.3219757-1.9093246-0.9487-2.3764687-1.5504227
				l0.3685913-0.5000916c-0.168499-0.1493073-0.3456726-0.3013382-0.3456726-0.3013382l0.1708221-0.395401l0.5690346,0.1753387
				c0.4881325,0.5984344,1.2672005,1.1988831,2.2189255,1.4921265c1.2101822,0.372879,2.2450905-0.0777359,2.5438728-1.0474319
				c0.2878075-0.9340744-0.2012367-1.717865-1.2994804-2.6114883c-1.5238419-1.219574-2.3590202-2.3340912-1.9040108-3.8108215
				c0.4358368-1.4144974,1.770359-2.1721954,3.4153442-1.9477997l0.5290222-1.7169342l1.0585823,0.3261719l-0.5070915,1.645752
				c1.0033035,0.3481369,1.6211548,0.8404694,2.0225677,1.2758026l-0.7723732,0.9893494l-0.5603485-0.1726608l0.0461349-0.3071823
				c-0.3360786-0.2691879-0.8018913-0.5587845-1.4512863-0.7588806c-1.3079185-0.4029922-2.0382423,0.2291565-2.2492943,0.9141235
				c-0.2713623,0.8806992,0.2140503,1.5173035,1.5104904,2.5888672
				C53.2246895,86.2487564,53.8315048,87.4097977,53.3655357,88.9220886z"/>
			<path class="st17" d="M47.6036797,92.2491531l0.5294495-1.7183228c-0.9815178-0.3210526-1.9079437-0.9418106-2.3723488-1.5506058
				l0.7595329-1.0140686c0.48666,0.5970306,1.27174,1.1928635,2.224472,1.4864197
				c1.2079277,0.3721924,2.2394791-0.0737305,2.5382767-1.0434723c0.2883148-0.9357147-0.1969643-1.718605-1.2986679-2.6169052
				c-1.52565-1.2152176-2.3563347-2.328064-1.9002762-3.8082047c0.4350929-1.4120865,1.7691154-2.1746216,3.4129448-1.9475479
				l0.5294533-1.7183151l1.0548096,0.3250046l-0.5084839,1.6502686c1.0102997,0.3485489,1.6239624,0.8356857,2.0282249,1.2769241
				l-0.7713013,0.9918137c-0.2943726-0.3142395-0.8765793-0.9034576-1.965416-1.238945
				c-1.3100052-0.4036407-2.0445213,0.2269363-2.2542038,0.9074631c-0.2725868,0.8846741,0.2206001,1.5209732,1.5120239,2.5895004
				c1.532177,1.2544861,2.144268,2.4117508,1.6777229,3.9259109c-0.4141235,1.3440323-1.7377548,2.3146896-3.579216,2.0639725
				l-0.5451736,1.7693634L47.6036797,92.2491531z"/>
		</g>
		<path class="st10" d="M73.2704849,60.5049057c-0.0500717,0.0446091-0.1029358,0.0834999-0.1587296,0.1157608
			c-0.653801,0.378067-2.2079086-0.458477-2.8259735-0.7408752c-0.1140366-0.0438919-0.2195053-0.0965729-0.3335495-0.1492538
			c-0.4478073-0.2107201-0.8868256-0.4302292-1.3170624-0.6585274c-1.1151276-0.579483-2.212677-1.2204895-3.2839661-1.8790207
			c-0.0174713-0.0087891-0.0438385-0.0263138-0.0614166-0.0351028c-0.5707474-0.3512383-1.1414948-0.7112083-1.7033463-1.0887604
			c-0.2370872-0.1580429-0.4741745-0.3248711-0.7024765-0.5004883c-0.5356979-0.377552-1.0449219-0.7726822-1.5189934-1.2117004
			c-0.4039688-0.3599739-0.7902565-0.7375793-1.1414948-1.1414413c-0.3512192-0.386322-0.6672859-0.8077431-0.9570961-1.2467384
			c-0.3609085-0.5466919,0.7070732-1.9711838,1.1185112-2.2420616c0.7876205-0.5185471,2.0056076-0.3683243,2.9267578-0.2873344
			c2.340786,0.2058067,4.5834923,1.0683403,6.6618996,2.1274071c2.6244507,1.3373146,4.2758789,3.4393959,4.1133728,6.5040627
			C74.0523834,58.7221031,73.8463058,59.9918747,73.2704849,60.5049057z"/>
		<line class="st92" x1="90.270195" y1="91.0726471" x2="92.1438599" y2="91.0726471"/>
	</g>
	<path class="st92" d="M95.4928665,72.7000122c0.169342,0.3196106,3.9600525,54.9838562,3.9600525,54.9838562"/>
</g>
</svg>
