<?xml version="1.0" encoding="utf-8"?>
<!-- Generator: Adobe Illustrator 22.0.1, SVG Export Plug-In . SVG Version: 6.00 Build 0)  -->
<svg version="1.1" id="Layer_1" xmlns="http://www.w3.org/2000/svg" xmlns:xlink="http://www.w3.org/1999/xlink" x="0px" y="0px"
	 viewBox="0 0 156 156" style="enable-background:new 0 0 156 156;" xml:space="preserve">
<style type="text/css">
	.st0{fill:#FFD9B2;}
	.st1{fill:#F7AC76;}
	.st2{fill:none;stroke:#3643C3;stroke-width:0.5;stroke-linecap:round;stroke-linejoin:round;stroke-miterlimit:10;}
	.st3{fill:#233764;}
	.st4{fill:none;stroke:#F7AC76;stroke-width:0.5;stroke-linecap:round;stroke-linejoin:round;stroke-miterlimit:10;}
	.st5{fill:#161718;}
	.st6{fill:#FFFFFF;}
	.st7{fill:#F06449;}
	.st8{fill:#BE412D;}
	.st9{fill:#FE8E60;}
	.st10{fill:#7D4C47;}
	.st11{fill:#4456D6;}
	.st12{fill:#203881;}
	.st13{fill:#6582FC;}
	.st14{fill:#DDA103;}
	.st15{fill:#FBC32E;}
	.st16{fill:none;stroke:#DDA103;stroke-width:0.5;stroke-miterlimit:10;}
	.st17{fill:#FBE6BB;}
	.st18{fill:none;stroke:#BE412D;stroke-width:0.5;stroke-linecap:round;stroke-linejoin:round;stroke-miterlimit:10;}
	.st19{fill:none;stroke:#F06449;stroke-width:0.5;stroke-linecap:round;stroke-linejoin:round;stroke-miterlimit:10;}
	.st20{fill:#F34B4B;}
	.st21{fill:#FC7070;}
	.st22{fill:none;stroke:#FFFFFF;stroke-miterlimit:10;}
	.st23{fill:#FC9F9F;}
	.st24{fill:#408A6F;}
	.st25{fill:#64B48D;}
	.st26{fill:none;stroke:#FBE6BB;stroke-width:0.5;stroke-linecap:round;stroke-linejoin:round;stroke-miterlimit:10;}
	.st27{fill:none;stroke:#F7AC76;stroke-width:0.25;stroke-linecap:round;stroke-linejoin:round;stroke-miterlimit:10;}
	.st28{fill:#A0665A;}
	.st29{fill:#6C3F44;}
	.st30{fill:none;stroke:#6C3F44;stroke-width:0.5;stroke-linecap:round;stroke-linejoin:round;stroke-miterlimit:10;}
	.st31{fill:none;stroke:#7D4C47;stroke-width:0.5;stroke-linecap:round;stroke-linejoin:round;stroke-miterlimit:10;}
	.st32{fill:none;stroke:#F34B4B;stroke-width:0.5;stroke-linecap:round;stroke-linejoin:round;stroke-miterlimit:10;}
	.st33{fill:none;stroke:#FC7070;stroke-width:0.5;stroke-linecap:round;stroke-linejoin:round;stroke-miterlimit:10;}
	.st34{fill:#EAE8F3;}
	.st35{fill:#40304A;}
	.st36{fill:none;stroke:#43334E;stroke-linecap:round;stroke-linejoin:round;stroke-miterlimit:10;}
	.st37{fill:#32775B;}
	.st38{fill:none;stroke:#233764;stroke-width:0.5;stroke-linecap:round;stroke-linejoin:round;stroke-miterlimit:10;}
	.st39{fill:none;stroke:#408A6F;stroke-width:0.5;stroke-linecap:round;stroke-linejoin:round;stroke-miterlimit:10;}
	.st40{fill:#3643C3;}
	.st41{opacity:0.56;fill:url(#SVGID_1_);}
	.st42{opacity:0.52;fill:#FBC32E;}
	.st43{opacity:0.56;fill:url(#SVGID_2_);}
	.st44{fill:none;stroke:#EAE8F3;stroke-width:0.5;stroke-linecap:round;stroke-linejoin:round;stroke-miterlimit:10;}
	.st45{fill:#FEFFFD;}
	.st46{opacity:0.35;fill:#32775B;}
	.st47{fill:#43334E;}
	.st48{fill:none;stroke:#EAE8F3;stroke-width:0.25;stroke-linecap:round;stroke-linejoin:round;stroke-miterlimit:10;}
	.st49{fill:none;stroke:#FBC32E;stroke-width:0.5;stroke-linecap:round;stroke-linejoin:round;stroke-miterlimit:10;}
	.st50{fill:none;stroke:#161718;stroke-width:0.5;stroke-linecap:round;stroke-linejoin:round;stroke-miterlimit:10;}
	.st51{fill:none;stroke:#40304A;stroke-linecap:round;stroke-linejoin:round;stroke-miterlimit:10;}
	.st52{opacity:0.33;fill:#FBC32E;}
	.st53{fill:#A6A3AE;}
	.st54{fill:#5B4B68;}
	.st55{fill:#776688;}
	.st56{fill:none;stroke:#FBC32E;stroke-width:0.5;stroke-miterlimit:10;}
	.st57{fill:none;stroke:#EAE8F3;stroke-linecap:round;stroke-linejoin:round;stroke-miterlimit:10;}
	.st58{fill:none;stroke:#203881;stroke-width:2;stroke-linecap:round;stroke-linejoin:round;stroke-miterlimit:10;}
	.st59{fill:none;stroke:#40304A;stroke-width:2;stroke-linecap:round;stroke-linejoin:round;stroke-miterlimit:10;}
	.st60{fill:#FFD8B7;}
	.st61{fill:#F4E4D4;}
	.st62{fill:none;stroke:#4456D6;stroke-width:0.5;stroke-linecap:round;stroke-linejoin:round;stroke-miterlimit:10;}
	.st63{fill:none;stroke:#DDA103;stroke-width:0.25;stroke-miterlimit:10;}
	.st64{fill:none;stroke:#FFFFFF;stroke-width:0.5;stroke-linecap:round;stroke-linejoin:round;stroke-miterlimit:10;}
	.st65{fill:none;stroke:#64B48D;stroke-width:0.5;stroke-linecap:round;stroke-linejoin:round;stroke-miterlimit:10;}
	.st66{fill:none;stroke:#64B48D;stroke-linecap:round;stroke-linejoin:round;stroke-miterlimit:10;}
	.st67{opacity:0.48;fill:#64B48D;}
	.st68{fill:none;stroke:#64B48D;stroke-width:0.25;stroke-linecap:round;stroke-linejoin:round;stroke-miterlimit:10;}
	.st69{fill:none;stroke:#F06449;stroke-width:2;stroke-linecap:round;stroke-linejoin:round;stroke-miterlimit:10;}
	.st70{opacity:0.92;fill:#64B48D;}
	.st71{opacity:0.57;fill:#408A6F;}
	.st72{opacity:0.36;fill:#408A6F;}
	.st73{fill:none;stroke:#BE412D;stroke-width:2;stroke-linecap:round;stroke-linejoin:round;stroke-miterlimit:10;}
	.st74{opacity:0.65;fill:none;stroke:#408A6F;stroke-width:0.25;stroke-linecap:round;stroke-linejoin:round;stroke-miterlimit:10;}
	.st75{opacity:0.67;fill:none;stroke:#64B48D;stroke-width:0.25;stroke-linecap:round;stroke-linejoin:round;stroke-miterlimit:10;}
	.st76{opacity:0.98;fill:#64B48D;}
	.st77{fill:none;stroke:#408A6F;stroke-width:0.25;stroke-linecap:round;stroke-linejoin:round;stroke-miterlimit:10;}
	.st78{fill:none;stroke:#FFD9B2;stroke-width:0.5;stroke-linecap:round;stroke-linejoin:round;}
	
		.st79{fill:none;stroke:#FFD9B2;stroke-width:0.5;stroke-linecap:round;stroke-linejoin:round;stroke-dasharray:4.0333505,4.0333505;}
	.st80{fill:#E68B4A;}
	.st81{opacity:0.62;fill:#64B48D;}
	.st82{fill:none;stroke:#FBC32E;stroke-width:0.25;stroke-miterlimit:10;}
	.st83{fill:none;stroke:#4456D6;stroke-linecap:round;stroke-linejoin:round;stroke-miterlimit:10;}
	.st84{fill:none;stroke:#E68B4A;stroke-width:0.5;stroke-linecap:round;stroke-linejoin:round;stroke-miterlimit:10;}
	.st85{fill:none;stroke:#203881;stroke-width:0.5;stroke-linecap:round;stroke-linejoin:round;stroke-miterlimit:10;}
	.st86{opacity:0.29;fill:#EAE8F3;}
	.st87{fill:none;stroke:#A6A3AE;stroke-width:0.5;stroke-linecap:round;stroke-linejoin:round;stroke-miterlimit:10;}
	.st88{opacity:0.74;fill:#FFFFFF;}
	.st89{opacity:0.19;fill:#FFFFFF;}
	.st90{fill:none;stroke:#40304A;stroke-width:0.25;stroke-linecap:round;stroke-linejoin:round;stroke-miterlimit:10;}
	.st91{fill:none;stroke:#F34B4B;stroke-width:2;stroke-linecap:round;stroke-linejoin:round;stroke-miterlimit:10;}
	.st92{fill:none;stroke:#43334E;stroke-width:0.5;stroke-linecap:round;stroke-linejoin:round;stroke-miterlimit:10;}
	.st93{fill:none;stroke:#6582FC;stroke-miterlimit:10;}
	.st94{opacity:0.47;fill:#A6A3AE;}
	.st95{opacity:0.43;fill:#FFFFFF;}
	.st96{fill:none;stroke:#FBE6BB;stroke-linecap:round;stroke-linejoin:round;stroke-miterlimit:10;}
	.st97{fill:none;stroke:#5B4B68;stroke-width:0.5;stroke-linecap:round;stroke-linejoin:round;stroke-miterlimit:10;}
	.st98{fill:none;stroke:#40304A;stroke-width:0.5;stroke-linecap:round;stroke-linejoin:round;stroke-miterlimit:10;}
	.st99{fill:none;stroke:#DDA103;stroke-linecap:round;stroke-linejoin:round;stroke-miterlimit:10;}
	.st100{fill:none;stroke:#FBC32E;stroke-linecap:round;stroke-linejoin:round;stroke-miterlimit:10;}
	.st101{fill:none;stroke:#32775B;stroke-width:0.5;stroke-linecap:round;stroke-linejoin:round;stroke-miterlimit:10;}
	.st102{opacity:0.4;fill:#FBE6BB;}
	.st103{fill:none;stroke:#FBC32E;stroke-width:0.25;stroke-linecap:round;stroke-linejoin:round;stroke-miterlimit:10;}
	.st104{fill:none;stroke:#4456D6;stroke-miterlimit:10;}
	.st105{opacity:0.61;fill:#64B48D;}
	.st106{opacity:0.9;fill:#64B48D;}
	.st107{opacity:0.76;fill:#64B48D;}
	.st108{fill:none;stroke:#5B4B68;stroke-width:0.5;stroke-miterlimit:10;}
	.st109{opacity:0.66;fill:#A6A3AE;}
	.st110{fill:none;stroke:#43334E;stroke-miterlimit:10;}
	.st111{opacity:0.52;fill:#6582FC;}
	.st112{fill:none;stroke:#DDA103;stroke-width:0.5;stroke-linecap:round;stroke-linejoin:round;stroke-miterlimit:10;}
	.st113{fill:#46724E;}
	.st114{fill:#FE8B2E;}
	.st115{fill:none;stroke:#7D4C47;stroke-width:2;stroke-linecap:round;stroke-linejoin:round;stroke-miterlimit:10;}
	.st116{opacity:0.4;fill:#EAE8F3;}
	.st117{fill:none;stroke:#EAE8F3;stroke-width:0.5;stroke-linecap:round;stroke-miterlimit:10;}
	.st118{fill:none;stroke:#4456D6;stroke-width:0.25;stroke-linecap:round;stroke-linejoin:round;stroke-miterlimit:10;}
	.st119{opacity:0.5;fill:#EAE8F3;}
	.st120{opacity:0.46;fill:#A6A3AE;}
	.st121{fill:#E0916E;}
	.st122{fill:none;stroke:#A0665A;stroke-linecap:round;stroke-linejoin:round;stroke-miterlimit:10;}
	.st123{opacity:0.46;fill:#BE412D;}
	.st124{fill:none;stroke:#203881;stroke-linecap:round;stroke-linejoin:round;stroke-miterlimit:10;}
	.st125{fill:#DBDBE1;}
	.st126{fill:none;stroke:#6582FC;stroke-width:0.5;stroke-linecap:round;stroke-linejoin:round;stroke-miterlimit:10;}
	.st127{opacity:0.53;fill:#A6A3AE;}
	.st128{fill:none;stroke:#DDA103;stroke-miterlimit:10;}
	.st129{opacity:0.2;fill:#FFFFFF;}
	.st130{fill:#B4A1BF;}
	.st131{opacity:0.5;fill:#6582FC;}
	.st132{opacity:0.6;fill:none;stroke:#FFFFFF;stroke-linecap:round;stroke-linejoin:round;stroke-miterlimit:10;}
	.st133{opacity:0.6;fill:none;stroke:#FFFFFF;stroke-width:2;stroke-linecap:round;stroke-linejoin:round;stroke-miterlimit:10;}
	.st134{opacity:0.54;fill:#A6A3AE;}
	.st135{fill:#161718;stroke:#000000;stroke-width:0.25;stroke-miterlimit:10;}
</style>
<g id="_x32_7">
	<path class="st53" d="M26.0927753,80.9225464l3.7324486-0.1080933l0.9240379,4.5391922l7.8652325-0.4620209v8.7784195
		l-3.8389473-2.6911621l-1.0693665,6.9490738l-3.7943592-0.7483521c0,0,7.3981075,17.9907913,9.1537762,17.7746048
		c1.7556725-0.2161789,14.4149818-16.0866699,14.4149818-16.0866699s-4.0506363-23.1903992-8.3087692-28.0545425
		c-4.2581367-4.8641357-13.2213001-2.2768326-15.4389896-1.2603912"/>
	<path class="st34" d="M84.141037,68.9886932v61.2004242H26.0927753v-21.3188553
		c2.3598576-0.6394424,4.0261822-1.0718002,4.0261822-1.0718002l-0.2071362-10.6188583l10.4386082,7.1963348
		c0,0-0.9635582-16.0048447-0.8646088-16.3201141c0.0901566-0.3242264,6.1248093,0.6935349,6.1248093,0.6935349
		l-2.7112389-6.0795135H32.5689697l6.0434494-8.8986053l-12.5196438,7.1513062V68.9886932
		c0-5.1248093,3.9540577-9.3309135,8.9798603-9.7362251v-11.933857h40.0889778v11.933857
		C80.1869736,59.6487656,84.141037,63.863884,84.141037,68.9886932z"/>
	<ellipse class="st53" cx="55.1167145" cy="130.1861572" rx="29.0235863" ry="5.3390036"/>
	<path class="st14" d="M69.0999451,117.1781387l0.6580658,3.9831009c0.2408981,1.4581223-0.9152069,3.0283051-3.0506592,4.4771576
		l-0.0086823,0.0014343c-0.1719894,0.1197281-0.3367538,0.2291794-0.5280151,0.3429489l-0.0091171,0.001503
		c-1.5313568,0.9563065-3.4763412,1.8439255-5.7369461,2.5919189l-0.0086823,0.0014343
		c-0.1808014,0.066391-0.3630753,0.1238708-0.5544548,0.1829224l-0.0086823,0.0014343
		c-1.82164,0.5840912-3.8149223,1.0686646-5.937027,1.437561l-0.595623,0.0984039
		c-2.1188698,0.3317719-4.1620903,0.5140991-6.0748024,0.5469666l-0.0086823,0.0014343
		c-0.2001991,0.0056458-0.3912773,0.0098419-0.5838242,0.0051422l-0.0091171,0.0014954
		c-2.3806305,0.0188141-4.5164375-0.1945953-6.2831306-0.6060181l-0.0091171,0.0015106
		c-0.2104759-0.0565491-0.4103737-0.1057434-0.6117325-0.1637878l-0.0101547-0.0074615
		c-2.4600372-0.6804657-4.0491714-1.7879639-4.2900772-3.2460785l-0.6639366-4.0186539l3.3968048-2.0499802l0.6148491,0.0719604
		l1.9548721,0.2250214c1.1819115-0.5880051,2.5262184-1.1297607,3.9875946-1.6269684
		c0.1899185-0.067894,0.3721809-0.1254349,0.5631371-0.1843491c1.82164-0.5841064,3.8221321-1.07901,5.9457092-1.439003
		l0.5778198-0.095459c2.1356354-0.3436966,4.1875381-0.5274429,6.0987778-0.5692139
		c0.1997681-0.0055771,0.3923149-0.0008774,0.5925179-0.0065231c1.570549-0.0037689,3.0456238,0.0813217,4.3731308,0.2638855
		l1.7107849-0.812355l0.5585938-0.265831L69.0999451,117.1781387z"/>
	<path class="st15" d="M40.3514481,130.2484894c-0.2104759-0.0565491-0.4103737-0.1057434-0.6117325-0.1637878l-0.0101547-0.0074615
		c-0.3704605-2.1856308-0.7406273-4.4261551-1.1150665-6.6385422l0.6148491,0.0719604
		C39.5950966,125.7244797,39.9783516,127.9902191,40.3514481,130.2484894z"/>
	<path class="st15" d="M47.2366371,130.8463593c-0.2001991,0.0056458-0.3912773,0.0098419-0.5838242,0.0051422l-0.0091171,0.0014954
		c-0.4772606-2.8347626-0.9795036-5.8207092-1.4718857-8.7442856c0.1899185-0.067894,0.3721809-0.1254349,0.5631332-0.1843567
		C46.2258568,124.839035,46.7354431,127.8694305,47.2366371,130.8463593z"/>
	<path class="st15" d="M53.9070625,130.2009888l-0.5869408,0.0969696c-0.5229301-3.1651611-1.0883217-6.5333557-1.6394653-9.8125992
		l0.5778198-0.095459C52.8050804,123.5876617,53.365036,126.9202423,53.9070625,130.2009888z"/>
	<path class="st15" d="M60.4159088,128.5776367c-0.1808014,0.066391-0.3630753,0.1238708-0.5544548,0.1829224l-0.0086823,0.0014343
		c-0.4788628-2.8984451-0.9918137-5.9465179-1.4955177-8.9413071c0.1997604-0.0056305,0.3908463-0.0097733,0.5925064-0.0065765
		C59.4242249,122.6859055,59.9239502,125.6539307,60.4159088,128.5776367z"/>
	<path class="st15" d="M66.6986694,125.6398315c-0.1719894,0.1197281-0.3367538,0.2291794-0.5280151,0.3429489l-0.0091171,0.001503
		c-0.3729706-2.2034912-0.7475357-4.4706573-1.1278534-6.7186508l0.5585938-0.2658234
		C65.9521561,121.1780853,66.3299713,123.4082031,66.6986694,125.6398315z"/>
	
		<ellipse transform="matrix(0.9866253 -0.1630048 0.1630048 0.9866253 -18.903223 10.0804825)" class="st15" cx="51.9764633" cy="120.2320099" rx="17.387928" ry="6.3273239"/>
	<path class="st16" d="M66.6778259,117.8014603c0.0606766,0.3672333-0.0178146,0.7423935-0.2222672,1.1307602
		c-1.2096405,2.2747345-6.780674,4.7343216-13.7195969,5.8807373c-6.9450035,1.1474152-13.011261,0.6104736-14.8820572-1.1553268
		c-0.3185043-0.3019714-0.5134926-0.6319504-0.5741653-0.999176c-0.4186325-2.5338821,5.8206024-5.6697464,13.9418678-7.0114975
		C59.3366432,114.3062363,66.2591934,115.2675781,66.6778259,117.8014603z"/>
	<path class="st14" d="M61.465107,119.0207825l-0.1567612,0.7057114l-2.3973312,0.3149109
		c-0.1591721,0.6427612-0.7326622,1.372467-1.4091148,1.8355103l-1.5336342-0.0557327
		c0.0086746-0.0015945,0.0067863-0.0118332,0.0154648-0.0134354l-0.0520554,0.0095901l0.1571198-0.5577545
		c0,0,0.5319633-0.2249451,0.7863503-0.3035889c0.0086784-0.0015945,0.0086784-0.0015945,0.0086784-0.0015945
		c0.2253685-0.2847672,0.3862381-0.5788116,0.4479027-0.8757477c0.1677017-0.7923508-0.6863289-1.1955109-2.0429306-1.0195389
		c-1.3043365,0.1663513-2.2091408,0.7033005-3.0960503,1.6281967c-1.202034,1.2580185-2.4447861,2.1004181-4.5107765,2.3648529
		c-1.9688873,0.2571259-3.3260345-0.2013931-3.461731-1.1810532l-2.3992157,0.3046722l0.1518478-0.6836929l2.3000107-0.3075638
		c0.1903114-0.6696701,0.6716003-1.170784,1.1473694-1.5546265l0.8331032,0.0474091
		c0.0188675-0.140976,0.0415115-0.261467,0.0501862-0.2630615c0.0154648-0.013443,0.7486382-0.2648849,0.7486382-0.2648849
		l-0.1205292,0.5615997c-0.3454742,0.2646179-0.9653549,0.791275-1.1113319,1.5056458
		c-0.1910934,0.8601151,0.8370056,1.0408325,1.7823029,0.919487c1.2334747-0.1638718,1.9406433-0.6537476,3.0131264-1.7398148
		c1.2433243-1.2761536,2.6039009-2.0134277,4.7134819-2.2858963c1.8821449-0.2410736,3.50214,0.1372452,3.6604614,1.2396469
		L61.465107,119.0207825z"/>
	<path class="st17" d="M61.4332581,119.1673126l-2.399147,0.3109894c-0.1632538,0.6502914-0.7352486,1.373848-1.4136238,1.8407288
		l-1.533989-0.0612183c0.6568794-0.4742813,1.2330627-1.1134033,1.3675995-1.7367096
		c0.1708946-0.7916489-0.6881905-1.2008514-2.0420074-1.0251923c-1.3068047,0.1695709-2.2093506,0.7092743-3.098835,1.6261215
		c-1.1968384,1.2601013-2.4414063,2.1045074-4.5080948,2.3722992c-1.9717255,0.2559738-3.3271103-0.2084274-3.4620361-1.1874542
		l-2.4008369,0.3113022l0.1491737-0.6910782l2.3059731-0.2989731c0.191494-0.6751251,0.6706467-1.180687,1.1444588-1.55616
		l1.5072937,0.0754318c-0.3360634,0.2705612-0.9568176,0.7960205-1.1106834,1.5091324
		c-0.1848717,0.8582611,0.8375244,1.0401001,1.7878952,0.9165878c1.2359123-0.1601257,1.9430962-0.6534882,3.0077667-1.7332764
		c1.2460556-1.2779465,2.6058502-2.0170746,4.7203026-2.2916031c1.8777962-0.243309,3.5038528,0.1417694,3.6598015,1.2372437
		l2.4708862-0.3205948L61.4332581,119.1673126z"/>
	<path class="st14" d="M73.8070526,90.9788818l2.391449,3.2525558c0.8754578,1.1906891,0.5563202,3.1142883-0.6908264,5.3734741
		l-0.0070877,0.0052109c-0.0990677,0.1846619-0.1963577,0.3568954-0.3153,0.5449753l-0.0074463,0.0054703
		c-0.9318085,1.5463943-2.2634659,3.2189636-3.9397583,4.9100876l-0.0070877,0.0052109
		c-0.1310959,0.1411057-0.2675323,0.2749405-0.4113846,0.4142914l-0.0070877,0.0052185
		c-1.3592377,1.3461151-2.9165802,2.681282-4.6411819,3.9716949l-0.4863739,0.357605
		c-1.738533,1.255867-3.4773521,2.3442154-5.1675453,3.2402039l-0.0070915,0.0052109
		c-0.1759109,0.0957489-0.3443413,0.1860733-0.5181198,0.2691269l-0.0074425,0.0054703
		c-2.1136971,1.0954742-4.1143608,1.8730011-5.8757019,2.3067627l-0.0074463,0.0054779
		c-0.2132454,0.0449677-0.4137383,0.0916824-0.619545,0.1311798l-0.0124321-0.0020523
		c-2.5013351,0.5080872-4.4197922,0.2408829-5.2952461-0.9497986l-2.412796-3.2815857l2.0992012-3.3666153l0.5807114-0.214447
		l1.8446312-0.6851959c0.787178-1.0597229,1.7400856-2.1518021,2.8175354-3.2572174
		c0.1385384-0.1465759,0.2749443-0.2804565,0.4184723-0.4195023c1.3592339-1.3461151,2.9183235-2.6937637,4.6482697-3.9769058
		l0.4718437-0.3469238c1.7480736-1.274086,3.4939842-2.3676453,5.178833-3.2708969
		c0.1755562-0.0954895,0.3493347-0.1785431,0.5252457-0.274292c1.3983612-0.715004,2.7518692-1.3075333,4.0179977-1.746315
		l1.1569901-1.4993591l0.3775024-0.4900818L73.8070526,90.9788818z"/>
	<path class="st15" d="M54.1016197,115.656929c-0.2132454,0.0449677-0.4137383,0.0916824-0.619545,0.1311798l-0.0124321-0.0020523
		c-1.3205948-1.7805099-2.665802-3.6100998-4.0020714-5.4126663l0.5807114-0.2144547
		C51.3774605,111.9667206,52.7457581,113.812851,54.1016197,115.656929z"/>
	<path class="st15" d="M60.5103302,113.0700912c-0.1759109,0.0957489-0.3443413,0.1860733-0.5181198,0.2691269l-0.0074425,0.0054703
		c-1.7099419-2.310791-3.5106544-4.7450409-5.2743187-7.1281586c0.1385384-0.1465759,0.2749443-0.2804565,0.4184723-0.4195099
		C56.8872452,108.1728745,58.7146416,110.6434174,60.5103302,113.0700912z"/>
	<path class="st15" d="M66.1642532,109.4722824l-0.4792862,0.3523941c-1.9003601-2.5846329-3.9305763-5.3310165-5.9077759-8.0045624
		l0.4718437-0.3469238C62.1852684,104.0761566,64.1944962,106.7932663,66.1642532,109.4722824z"/>
	<path class="st15" d="M71.2309952,105.0758667c-0.1310959,0.1411057-0.2675323,0.2749405-0.4113846,0.4142914l-0.0070877,0.0052185
		c-1.7402267-2.3668365-3.5786285-4.8516083-5.3846512-7.2930832c0.1755219-0.0955276,0.3439865-0.1858063,0.5252075-0.2743378
		C67.6773071,100.2730331,69.4676514,102.6924438,71.2309952,105.0758667z"/>
	<path class="st15" d="M75.5005875,99.6101227c-0.0990677,0.1846619-0.1963577,0.3568954-0.3153,0.5449753l-0.0074463,0.0054703
		c-1.330925-1.7953033-2.692131-3.6466446-4.0497742-5.4782867l0.3775101-0.4900818
		C72.8134155,95.9709625,74.1607208,97.7878036,75.5005875,99.6101227z"/>
	
		<ellipse transform="matrix(0.8056667 -0.592369 0.592369 0.8056667 -48.4562645 55.2154541)" class="st15" cx="59.9260902" cy="101.460228" rx="17.387928" ry="6.3273239"/>
	<path class="st16" d="M71.9302979,92.6320496c0.2204819,0.2998734,0.3205032,0.6698761,0.3142319,1.1087341
		c-0.0476151,2.5759201-3.8994293,7.2928619-9.5656738,11.4589844c-5.6712074,4.1697769-11.3222694,6.4398575-13.7901115,5.7134247
		c-0.4207573-0.1248703-0.7441025-0.3306808-0.9645844-0.6305542c-1.5213394-2.0691376,2.619709-7.6917114,9.251442-12.5677185
		C63.8022461,92.842659,70.4089584,90.562912,71.9302979,92.6320496z"/>
	<path class="st14" d="M67.8359146,96.0810013l0.1800232,0.7001343L66.0215302,98.14814
		c0.149353,0.6451111-0.0312424,1.5554657-0.4244537,2.2747574l-1.3924103,0.6452408
		c0.0070114-0.0053558,0.0006866-0.0136261,0.0076981-0.0189819l-0.0420532,0.032135l-0.1126709-0.5684052
		c0,0,0.3722916-0.4415741,0.5634308-0.6269455c0.0070114-0.0053558,0.0070114-0.0053558,0.0070114-0.0053558
		c0.0718765-0.3559723,0.0820465-0.6909943,0.0024643-0.9836426c-0.2095261-0.7823257-1.1535339-0.7547455-2.2831383,0.0168304
		c-1.0873756,0.7393112-1.6506615,1.6279602-2.0222092,2.854332c-0.5015182,1.6661224-1.2276649,2.9801941-2.9495735,4.1520691
		c-1.6386566,1.1213531-3.0562477,1.3275528-3.6211205,0.5157242l-2.0007248,1.3587265l-0.1744308-0.6782837l1.910984-1.3163528
		c-0.1337852-0.6832123,0.0681915-1.3480148,0.3183937-1.9057693l0.7641487-0.3352356
		c-0.0470581-0.1342163-0.0814705-0.2518921-0.0744591-0.2572479c0.0076942-0.0189819,0.547348-0.5753479,0.547348-0.5753479
		l0.1470261,0.5552521c-0.1880684,0.3924332-0.5020218,1.142807-0.3084602,1.8457718
		c0.2193832,0.8533401,1.2177696,0.5485916,2.0054741,0.012085c1.0253258-0.7049942,1.4337578-1.4621277,1.8977051-2.9162674
		c0.5301132-1.7009964,1.4089279-2.9747391,3.1660538-4.1735229c1.5686035-1.0677414,3.1841774-1.4645386,3.8248253-0.5535431
		L67.8359146,96.0810013z"/>
	<path class="st17" d="M67.8739166,96.2260513l-1.9978027,1.3643265c0.1491241,0.6536789-0.0329285,1.5578766-0.4261093,2.2814636
		l-1.3952103,0.6405029c0.3706665-0.7204437,0.5947113-1.5512619,0.4322052-2.1678772
		c-0.2063599-0.7831497-1.1576118-0.758667-2.2848778,0.0113678c-1.0881157,0.7433014-1.6481438,1.6333771-2.025631,2.8537445
		c-0.4959488,1.6656265-1.2228012,2.9823151-2.9438057,4.1574936c-1.6417122,1.1216125-3.0603981,1.3217697-3.6242905,0.5101547
		l-1.9991722,1.3653717l-0.1801567-0.6836472l1.9201851-1.311409c-0.1352005-0.6886063,0.0628586-1.3563995,0.3151054-1.9058151
		l1.3778572-0.6157379c-0.1769867,0.3934708-0.4922638,1.1431732-0.3063011,1.8485947
		c0.2240868,0.8488617,1.2178955,0.5476913,2.00914,0.006958c1.0291977-0.7027588,1.4360619-1.4630051,1.8958931-2.9080048
		c0.5317345-1.7038345,1.4090118-2.9788818,3.169548-4.1817093c1.5637131-1.0677567,3.1877441-1.4612808,3.8231506-0.5553818
		l2.0574036-1.4053955L67.8739166,96.2260513z"/>
	<path class="st86" d="M84.141037,68.9886932v61.2004242c0,2.9451599-12.9968033,5.331955-29.0285301,5.331955
		c-16.0229263,0-29.0197315-2.386795-29.0197315-5.331955v-21.3188553c2.3598576-0.6394424,4.0261822-1.0718002,4.0261822-1.0718002
		l-0.2071362-10.6188583l10.4386082,7.1963348c0,0-0.9635582-16.0048447-0.8646088-16.3201141
		c0.0901566-0.3242264,6.1248093,0.6935349,6.1248093,0.6935349l-2.7112389-6.0795135H32.5689697l6.0434494-8.8986053
		l-12.5196438,7.1513062V68.9886932c0-5.1248093,3.9540577-9.3309135,8.9798603-9.7362251v-11.933857h40.0889778v11.933857
		C80.1869736,59.6487656,84.141037,63.863884,84.141037,68.9886932z"/>
	<path class="st53" d="M84.141037,68.9886932v61.2004242c0-0.6845093-0.7023315-1.34198-1.9816513-1.9454651V70.8170166
		c-12.9422684,0.3332977-15.9956589-10.393692-15.9956589-10.393692
		c-20.6524849,2.5038872-30.6587906-4.4222565-30.6587906-4.4222565l-0.4323006-4.0079842v-4.6744728h40.0889778v11.933857
		C80.1869736,59.6487656,84.141037,63.863884,84.141037,68.9886932z"/>
	<path class="st14" d="M108.4292908,126.5166245v3.1583633c0,1.156189-1.092598,2.2207489-2.9256516,3.0667419h-0.0068817
		c-0.1480255,0.0704803-0.2891617,0.1339569-0.4512939,0.1973724h-0.0072327
		c-1.3039627,0.5428619-2.9184265,0.97995-4.7587051,1.2690277h-0.0068817
		c-0.1480255,0.028183-0.2960434,0.0493164-0.4512939,0.0704803h-0.0068893
		c-1.4805527,0.2185516-3.0809021,0.3383789-4.7659302,0.3524933h-0.47229
		c-1.677803-0.0141144-3.2781525-0.1339417-4.7587128-0.3524933h-0.0068817
		c-0.1552505-0.0211639-0.3032684-0.0422974-0.4512939-0.0704803h-0.007225
		c-1.8399429-0.2890778-3.4612885-0.7261658-4.7724762-1.2690277h-0.0072327
		c-0.1552505-0.0704803-0.3032684-0.1339417-0.4512939-0.204422l-0.0068817-0.0070648
		c-1.8120575-0.8389435-2.8974304-1.8964386-2.8974304-3.0526276v-3.1865463l2.883316-1.149147l0.4654083,0.1339569
		l1.4802094,0.4229736c0.9872665-0.3031387,2.0939865-0.5498734,3.2853775-0.7472916
		c0.1552505-0.028183,0.3032761-0.0493546,0.4581833-0.0704803c1.4805527-0.218544,3.0877838-0.3454361,4.7728195-0.3524933
		h0.4581757c1.6922607,0.0070572,3.2994919,0.1268921,4.7800522,0.3383789
		c0.1548996,0.0211716,0.3029251,0.0493546,0.4581757,0.0705261c1.212738,0.1973724,2.3404541,0.4511642,3.341835,0.7613602
		l1.4240952-0.4088593l0.465065-0.1339569L108.4292908,126.5166245z"/>
	<path class="st15" d="M84.5724182,132.9391022c-0.1552505-0.0704803-0.3032684-0.1339417-0.4512939-0.204422l-0.0068817-0.0070648
		c-0.007225-1.7342529-0.007225-3.510849-0.0141144-5.2662811l0.4654083,0.1339493
		C84.5655365,129.350708,84.5724182,131.1484375,84.5724182,132.9391022z"/>
	<path class="st15" d="M89.8106461,134.2786102c-0.1552505-0.0211639-0.3032684-0.0422974-0.4512939-0.0704803h-0.007225
		c-0.0068893-2.2489319-0.0137711-4.6177368-0.0210037-6.9371567c0.1552505-0.028183,0.3032761-0.0493546,0.4581833-0.0704803
		C89.7965317,129.5128479,89.8034134,131.9169006,89.8106461,134.2786102z"/>
	<path class="st15" d="M95.0416412,134.6311035h-0.4654007c0-2.5097656-0.0068893-5.1816864-0.0141144-7.7831116h0.4581757
		C95.0344162,129.3859558,95.0416412,132.0296783,95.0416412,134.6311035z"/>
	<path class="st15" d="M100.272644,134.2081299c-0.1480255,0.028183-0.2960434,0.0493164-0.4512939,0.0704803h-0.0068893
		c0-2.2982788-0.007225-4.7164001-0.0141068-7.0922318c0.1548996,0.0211258,0.3029251,0.0422974,0.4581757,0.0704803
		C100.2585297,129.5340118,100.2657547,131.8886719,100.272644,134.2081299z"/>
	<path class="st15" d="M105.4967575,132.7417297c-0.1480255,0.0704803-0.2891617,0.1339569-0.4512939,0.1973724h-0.0072327
		c-0.0068817-1.7483673-0.0068817-3.5460968-0.0137711-5.3297424l0.465065-0.1339569
		C105.4895248,129.202652,105.4967575,130.9721832,105.4967575,132.7417297z"/>
	<ellipse class="st15" cx="94.8227539" cy="126.6901627" rx="13.6031523" ry="4.9500751"/>
	<path class="st16" d="M106.4802475,126.6888733c0,0.2911911-0.108429,0.570755-0.3157578,0.8444595
		c-1.2237701,1.6015396-5.8375397,2.7895737-11.3396759,2.7895737c-5.5069656,0-10.1208496-1.1880341-11.3396835-2.7895737
		c-0.2073288-0.2737045-0.3157578-0.5532684-0.3157578-0.8444595c0-2.0092087,5.2157745-3.6340332,11.6554413-3.6340332
		C101.2595367,123.0548401,106.4802475,124.6796646,106.4802475,126.6888733z"/>
	<path class="st14" d="M102.3012161,126.9652863l-0.2109985,0.5247192l-1.8905792-0.062645
		c-0.204834,0.4758301-0.7405472,0.9659348-1.3217316,1.2370834l-1.1766586-0.2386017
		c0.0069046-0.0001221,0.006752-0.0082703,0.013649-0.0083923l-0.0413971,0.0007629l0.1923981-0.4104767
		c0,0,0.4392929-0.1057892,0.6456757-0.1340485c0.0069046-0.0001297,0.0069046-0.0001297,0.0069046-0.0001297
		c0.2102661-0.1910629,0.371933-0.3975143,0.4573975-0.6188431c0.2304916-0.5902023-0.3772964-1.0103073-1.4468613-1.0474701
		c-1.0279922-0.037941-1.7948532,0.2611313-2.597374,0.8619308c-1.0882416,0.8177414-2.1549149,1.3094864-3.7833099,1.2501297
		c-1.5525131-0.0526123-2.5415802-0.5796051-2.5213928-1.3530807l-1.8907394-0.0707855l0.2043991-0.5083542l1.8145294,0.0559082
		c0.2322998-0.4926376,0.6676941-0.8180542,1.0838699-1.0536575l0.637001,0.1428299
		c0.0325394-0.1063995,0.0653839-0.1965179,0.0722885-0.1966476c0.013649-0.0084,0.6116257-0.1089783,0.6116257-0.1089783
		l-0.16465,0.4181061c-0.3004074,0.1601944-0.8460312,0.4876556-1.0498047,1.0204391
		c-0.2571869,0.6395264,0.5133209,0.9101257,1.2584457,0.9370117c0.9729767,0.0308075,1.5812912-0.2571335,2.5476074-0.9586639
		c1.1224289-0.8264694,2.2666321-1.2220459,3.9297028-1.1633301c1.4835129,0.0539398,2.6856918,0.5525436,2.6673126,1.4236374
		L102.3012161,126.9652863z"/>
	<path class="st17" d="M102.2579422,127.0743256l-1.8914871-0.0659103
		c-0.2089386,0.4811249-0.7427139,0.9666672-1.3258667,1.2405319l-1.1762314-0.2428741
		c0.5675049-0.2823105,1.09375-0.7021561,1.2770767-1.1661072c0.2328644-0.5892563-0.3780518-1.0146637-1.4454269-1.0517197
		c-1.030304-0.035759-1.7957764,0.2657166-2.5992661,0.8599777c-1.0844955,0.8200073-2.1528244,1.3130722-3.7821884,1.256218
		c-1.5545578-0.0538712-2.5415115-0.5851669-2.5208054-1.3580551l-1.8928375-0.0658798l0.20327-0.5143967l1.8180389,0.0632935
		c0.233902-0.4966812,0.6682205-0.8258133,1.0818253-1.0552063l1.1538162,0.2504425
		c-0.2938995,0.1659775-0.8400574,0.4924088-1.0497589,1.0232162c-0.2521439,0.6388855,0.5138245,0.9096222,1.2631378,0.9354858
		c0.9743805,0.0340118,1.5831528-0.2566223,2.5426331-0.9543076c1.1247635-0.827507,2.2686081-1.2246094,3.9356995-1.1668625
		c1.4804382,0.0516586,2.6864395,0.5562515,2.6671066,1.4217072l1.9480896,0.0676346L102.2579422,127.0743256z"/>
	<path class="st14" d="M113.6427307,121.3858643v3.1583557c0,1.1562042-1.092598,2.2207489-2.9256516,3.0667496h-0.0068817
		c-0.1480255,0.0704803-0.2891617,0.1339493-0.4512939,0.1973801h-0.0072327
		c-1.3039627,0.5428619-2.9184189,0.97995-4.7587051,1.2690125h-0.0068817
		c-0.1480255,0.0281982-0.2960434,0.0493164-0.4512939,0.0704956h-0.0068817
		c-1.4805603,0.2185364-3.0809097,0.3383789-4.7659378,0.3524933h-0.47229
		c-1.677803-0.0141144-3.2781525-0.1339569-4.7587051-0.3524933H95.024086
		c-0.1552505-0.0211792-0.3032684-0.0422974-0.4512939-0.0704956h-0.007225
		c-1.8399353-0.2890625-3.4612885-0.7261505-4.7724762-1.2690125h-0.0072327
		c-0.1552505-0.070488-0.3032684-0.1339569-0.4512863-0.2044373l-0.0068893-0.0070572
		c-1.8120499-0.8389435-2.8974228-1.896431-2.8974228-3.0526352v-3.1865387l2.8833084-1.149147l0.4654083,0.1339569
		l1.4802094,0.4229736c0.9872665-0.3031387,2.0939865-0.5498734,3.2853851-0.7472916
		c0.1552505-0.028183,0.3032684-0.0493546,0.4581757-0.0704803c1.4805527-0.218544,3.0877914-0.3454361,4.7728195-0.3524933
		h0.4581757c1.6922607,0.0070572,3.2994919,0.1268921,4.7800522,0.3383789
		c0.1549072,0.0211716,0.3029251,0.0493546,0.4581757,0.0705261c1.212738,0.1973801,2.3404541,0.4511642,3.341835,0.7613602
		l1.4241028-0.4088593l0.4650574-0.1339569L113.6427307,121.3858643z"/>
	<path class="st15" d="M89.7858582,127.8083496c-0.1552505-0.070488-0.3032684-0.1339569-0.4512863-0.2044373l-0.0068893-0.0070572
		c-0.007225-1.7342529-0.007225-3.510849-0.0141144-5.2662811l0.4654083,0.1339493
		C89.7789764,124.2199554,89.7858582,126.0176773,89.7858582,127.8083496z"/>
	<path class="st15" d="M95.024086,129.1478577c-0.1552505-0.0211792-0.3032684-0.0422974-0.4512939-0.0704956h-0.007225
		c-0.0068817-2.2489243-0.0137711-4.6177368-0.0209961-6.937149c0.1552505-0.028183,0.3032684-0.0493546,0.4581757-0.0704803
		C95.0099716,124.3820877,95.016861,126.7861404,95.024086,129.1478577z"/>
	<path class="st15" d="M100.2550812,129.500351h-0.4654007c0-2.5097809-0.0068893-5.1816864-0.0141144-7.7831192h0.4581757
		C100.2478561,124.2551956,100.2550812,126.8989182,100.2550812,129.500351z"/>
	<path class="st15" d="M105.486084,129.0773621c-0.1480255,0.0281982-0.2960434,0.0493164-0.4512939,0.0704956h-0.0068817
		c0-2.2982941-0.0072327-4.7164154-0.0141144-7.0922394c0.1549072,0.0211258,0.3029251,0.0422974,0.4581757,0.0704803
		C105.4719696,124.4032593,105.4791946,126.7579117,105.486084,129.0773621z"/>
	<path class="st15" d="M110.7101974,127.6109695c-0.1480255,0.0704803-0.2891617,0.1339493-0.4512939,0.1973801h-0.0072327
		c-0.0068817-1.7483749-0.0068817-3.5460968-0.0137634-5.3297501l0.4650574-0.1339569
		C110.7029648,124.0718918,110.7101974,125.8414307,110.7101974,127.6109695z"/>
	<ellipse class="st15" cx="100.0362015" cy="121.5594025" rx="13.6031523" ry="4.9500751"/>
	<path class="st16" d="M111.6936874,121.5581131c0,0.2911911-0.1084213,0.570755-0.3157578,0.8444595
		c-1.2237701,1.6015396-5.8375397,2.7895737-11.3396759,2.7895737c-5.506958,0-10.1208496-1.1880341-11.3396759-2.7895737
		c-0.2073364-0.2737045-0.3157654-0.5532684-0.3157654-0.8444595c0-2.0092087,5.2157745-3.6340332,11.6554413-3.6340332
		C106.4729767,117.9240799,111.6936874,119.5489044,111.6936874,121.5581131z"/>
	<path class="st14" d="M107.5146561,121.8345261l-0.2109985,0.5247192l-1.8905792-0.062645
		c-0.2048264,0.4758301-0.7405472,0.9659348-1.3217239,1.2370834l-1.1766663-0.2385941
		c0.0069046-0.0001297,0.006752-0.0082703,0.013649-0.0084l-0.0413971,0.0007629l0.1924057-0.4104767
		c0,0,0.4392929-0.1057892,0.6456757-0.1340485c0.006897-0.0001297,0.006897-0.0001297,0.006897-0.0001297
		c0.2102661-0.1910629,0.3719406-0.3975143,0.4574051-0.6188431c0.230484-0.5902023-0.3773041-1.0103073-1.4468613-1.0474701
		c-1.0279922-0.037941-1.7948608,0.2611313-2.5973816,0.8619308c-1.0882416,0.8177414-2.1549149,1.3094788-3.7833099,1.2501297
		c-1.5525131-0.0526199-2.5415802-0.5796051-2.5213928-1.3530807l-1.8907318-0.0707855l0.2043915-0.5083542l1.8145294,0.0559082
		c0.2322998-0.4926376,0.6676941-0.8180542,1.0838776-1.0536575l0.6369934,0.1428299
		c0.032547-0.1063995,0.0653915-0.1965179,0.0722885-0.1966476c0.013649-0.0084,0.6116257-0.1089783,0.6116257-0.1089783
		l-0.16465,0.4181061c-0.3004074,0.1601944-0.8460312,0.4876556-1.0498047,1.0204391
		c-0.2571869,0.6395264,0.5133286,0.9101257,1.2584457,0.9370117c0.9729767,0.0308075,1.5812912-0.2571335,2.5476074-0.9586639
		c1.1224289-0.8264694,2.2666321-1.2220459,3.9297028-1.1633301c1.4835129,0.0539398,2.6856995,0.5525436,2.6673126,1.4236374
		L107.5146561,121.8345261z"/>
	<path class="st17" d="M107.4713898,121.9435654l-1.8914871-0.0659103
		c-0.2089386,0.4811249-0.7427216,0.9666672-1.3258743,1.2405319l-1.1762314-0.2428665
		c0.5675049-0.2823181,1.09375-0.7021637,1.2770767-1.1661148c0.2328644-0.5892563-0.3780518-1.0146637-1.4454269-1.0517197
		c-1.030304-0.035759-1.7957764,0.2657166-2.5992661,0.8599777c-1.0844955,0.8200073-2.1528244,1.3130722-3.7821808,1.256218
		c-1.5545578-0.0538712-2.5415192-0.5851669-2.520813-1.3580551l-1.8928375-0.0658798l0.2032776-0.5143967l1.8180313,0.0632935
		c0.2339096-0.4966812,0.6682205-0.8258133,1.0818253-1.0552063l1.1538162,0.2504425
		c-0.2938995,0.1659775-0.8400574,0.4924088-1.0497589,1.0232162c-0.2521439,0.6388855,0.5138245,0.9096222,1.2631378,0.9354858
		c0.9743805,0.0340118,1.5831528-0.2566223,2.5426407-0.9543076c1.1247559-0.827507,2.2686005-1.2246094,3.9356918-1.1668625
		c1.4804382,0.0516586,2.6864395,0.5562515,2.6671143,1.4217072l1.948082,0.0676346L107.4713898,121.9435654z"/>
	<path class="st14" d="M107.8738556,114.8592606v3.1583633c0,1.1561966-1.0926056,2.2207413-2.9256592,3.0667419h-0.0068817
		c-0.1480179,0.070488-0.2891541,0.1339569-0.4512939,0.1973801h-0.007225
		c-1.3039627,0.5428619-2.9184265,0.97995-4.7587051,1.2690201h-0.0068893
		c-0.1480179,0.028183-0.2960434,0.0493164-0.4512939,0.070488h-0.0068817
		c-1.4805527,0.218544-3.0809021,0.3383789-4.7659378,0.3524933h-0.47229
		c-1.677803-0.0141144-3.2781525-0.1339493-4.7587051-0.3524933h-0.0068817
		c-0.1552505-0.0211716-0.3032761-0.042305-0.4512939-0.070488h-0.0072327
		c-1.8399353-0.2890701-3.4612808-0.7261581-4.7724762-1.2690201h-0.007225
		c-0.1552505-0.0704803-0.3032761-0.1339493-0.4512939-0.2044296l-0.0068817-0.0070572
		c-1.8120575-0.8389511-2.8974304-1.8964386-2.8974304-3.0526352v-3.1865463l2.883316-1.1491394l0.4654007,0.1339493
		l1.480217,0.4229813c0.9872665-0.3031464,2.0939789-0.5498734,3.2853775-0.7472916
		c0.1552505-0.0281906,0.3032684-0.0493546,0.4581757-0.070488c1.4805603-0.218544,3.0877914-0.3454361,4.7728195-0.3524933
		h0.4581757c1.6922607,0.0070572,3.2994995,0.1268921,4.7800522,0.3383865
		c0.1549072,0.0211639,0.3029251,0.0493546,0.4581757,0.0705185c1.2127457,0.1973801,2.3404541,0.4511642,3.341835,0.7613678
		l1.4241028-0.4088669l0.465065-0.1339493L107.8738556,114.8592606z"/>
	<path class="st15" d="M84.016983,121.2817459c-0.1552505-0.0704803-0.3032761-0.1339493-0.4512939-0.2044296l-0.0068817-0.0070572
		c-0.0072327-1.7342606-0.0072327-3.5108566-0.0141144-5.2662811l0.4654007,0.1339493
		C84.0100937,117.6933517,84.016983,119.4910736,84.016983,121.2817459z"/>
	<path class="st15" d="M89.2552109,122.621254c-0.1552505-0.0211716-0.3032761-0.042305-0.4512939-0.070488h-0.0072327
		c-0.0068817-2.2489319-0.0137634-4.6177368-0.0209961-6.9371567c0.1552505-0.028183,0.3032684-0.0493546,0.4581757-0.0704803
		C89.2410965,117.855484,89.2479782,120.2595367,89.2552109,122.621254z"/>
	<path class="st15" d="M94.4862061,122.9737473h-0.4654083c0-2.5097733-0.0068817-5.1816864-0.0141144-7.7831116h0.4581757
		C94.4789734,117.7285919,94.4862061,120.3723221,94.4862061,122.9737473z"/>
	<path class="st15" d="M99.7172012,122.550766c-0.1480179,0.028183-0.2960434,0.0493164-0.4512939,0.070488h-0.0068817
		c0-2.2982864-0.0072327-4.7164154-0.0141144-7.0922394c0.1549072,0.0211258,0.3029251,0.0422974,0.4581757,0.0704803
		C99.7030869,117.8766556,99.7103195,120.231308,99.7172012,122.550766z"/>
	<path class="st15" d="M104.9413147,121.0843658c-0.1480179,0.070488-0.2891541,0.1339569-0.4512939,0.1973801h-0.007225
		c-0.0068893-1.7483673-0.0068893-3.5460968-0.0137711-5.3297501l0.465065-0.1339493
		C104.9340897,117.5452881,104.9413147,119.314827,104.9413147,121.0843658z"/>
	<ellipse class="st15" cx="94.2673187" cy="115.0327988" rx="13.6031523" ry="4.9500751"/>
	<path class="st16" d="M105.9248123,115.0315094c0,0.2911911-0.108429,0.570755-0.3157654,0.8444595
		c-1.2237701,1.6015396-5.837532,2.7895813-11.3396759,2.7895813c-5.506958,0-10.1208496-1.1880417-11.3396759-2.7895813
		c-0.2073364-0.2737045-0.3157578-0.5532684-0.3157578-0.8444595c0-2.0092087,5.2157745-3.6340332,11.6554337-3.6340332
		C100.7040939,111.3974762,105.9248123,113.0223007,105.9248123,115.0315094z"/>
	<path class="st14" d="M101.7457733,115.3079224l-0.2109909,0.5247269l-1.8905869-0.062645
		c-0.2048264,0.4758301-0.7405396,0.9659271-1.3217239,1.2370758l-1.1766586-0.2385941
		c0.006897-0.0001297,0.0067444-0.0082703,0.013649-0.0084l-0.0414047,0.0007706l0.1924057-0.4104843
		c0,0,0.4392929-0.1057892,0.6456757-0.1340485c0.006897-0.0001297,0.006897-0.0001297,0.006897-0.0001297
		c0.2102737-0.1910553,0.3719406-0.3975067,0.4574051-0.6188431c0.2304916-0.5902023-0.3773041-1.0102997-1.4468613-1.0474701
		c-1.0279922-0.0379333-1.7948532,0.2611389-2.5973816,0.8619308c-1.0882416,0.8177414-2.1549072,1.3094864-3.7833099,1.2501297
		c-1.5525131-0.0526123-2.5415802-0.5795975-2.5213928-1.3530731l-1.8907318-0.0707932l0.2043915-0.5083542l1.814537,0.0559082
		c0.2322922-0.49263,0.6676865-0.8180542,1.0838699-1.0536575l0.637001,0.1428375
		c0.0325394-0.1064072,0.0653839-0.1965256,0.0722809-0.1966553c0.013649-0.0083923,0.6116333-0.1089783,0.6116333-0.1089783
		l-0.16465,0.4181137c-0.3004074,0.1601868-0.8460388,0.487648-1.0498123,1.0204315
		c-0.2571793,0.6395264,0.5133286,0.9101334,1.2584534,0.9370117c0.9729767,0.0308151,1.5812912-0.2571259,2.5476074-0.9586639
		c1.1224213-0.8264694,2.2666321-1.2220383,3.9296951-1.1633301c1.4835205,0.0539398,2.6856995,0.5525436,2.6673203,1.423645
		L101.7457733,115.3079224z"/>
	<path class="st17" d="M101.702507,115.4169617l-1.8914871-0.0659027c-0.2089386,0.4811172-0.7427139,0.9666672-1.3258667,1.2405319
		l-1.176239-0.2428741c0.5675125-0.2823181,1.09375-0.7021561,1.2770844-1.1661148
		c0.2328568-0.5892563-0.3780594-1.0146637-1.4454269-1.0517197c-1.0303116-0.035759-1.795784,0.2657242-2.5992661,0.8599777
		c-1.0844955,0.8200073-2.1528244,1.3130722-3.7821884,1.256218c-1.5545578-0.0538635-2.5415192-0.5851669-2.520813-1.3580551
		l-1.8928299-0.0658798l0.20327-0.5143967l1.8180389,0.0632935c0.233902-0.4966812,0.6682205-0.8258057,1.0818176-1.0552063
		l1.1538162,0.2504425c-0.2938995,0.1659851-0.8400497,0.4924088-1.0497513,1.0232162
		c-0.2521515,0.6388855,0.5138168,0.9096222,1.2631302,0.9354858c0.9743881,0.0340118,1.5831528-0.2566147,2.5426407-0.9542999
		c1.1247635-0.827507,2.2686081-1.2246094,3.9356918-1.1668701c1.4804459,0.0516663,2.6864395,0.5562515,2.6671143,1.4217072
		l1.948082,0.0676422L101.702507,115.4169617z"/>
	<path class="st8" d="M77.2174301,47.384903v5.8594742c0,0.9060135-1.3040161,1.744278-3.5732193,2.4470329
		c-0.2710114,0.0847054-0.550293,0.1693611-0.8467407,0.2455902c-2.2013931,0.6011505-5.1141281,1.0922737-8.5010834,1.4140396
		c-0.2794876,0.0338516-0.558979,0.0592766-0.8467369,0.0846519c-2.6080246,0.2286377-5.470108,0.3725662-8.4760742,0.3895187
		c-0.2792816,0.0084763-0.558773,0.0084763-0.8467369,0.0084763h-0.0930252c-2.9551125,0-5.7832947-0.1100807-8.382637-0.3132896
		c-0.2879639-0.0169525-0.5674553-0.0423279-0.8467369-0.0677528c-3.2769814-0.279438-6.1642838-0.7112312-8.4504395-1.2446823
		c-0.2879639-0.0677528-0.5759315-0.1355057-0.8467369-0.2032623c-2.9214172-0.7705078-4.648798-1.718853-4.648798-2.7603226
		V47.384903H77.2174301z"/>
	<path class="st7" d="M77.2197952,47.3832817v5.858284c0,0.9062004-1.309021,1.7483749-3.5791016,2.453167
		c-0.2653732,0.0824051-0.5491943,0.164814-0.8420563,0.2380028c-2.2060547,0.6041679-5.1169586,1.0984459-8.5037537,1.4188004
		c-0.2746506,0.0366478-0.5583572,0.0549736-0.8420639,0.0824051c-2.6088715,0.2288399-5.4738464,0.3752747-8.4762611,0.3936005
		c-0.2838173,0.0091629-0.5584717,0.0091629-0.8513374,0.0091629h-0.0915146c-1.4738312,0-2.9199524-0.0274887-4.3204803-0.0824089
		l-4.1008072-10.3710136H77.2197952z"/>
	<path class="st7" d="M36.4724541,47.384903l-0.118454,8.8230591c-0.2879639-0.0677528-0.5759315-0.1355057-0.8467369-0.2032623
		l0.1184502-8.6197968H36.4724541z"/>
	<path class="st7" d="M45.7950592,47.384903l-0.1438828,10.1354942c-0.2879639-0.0169525-0.5674553-0.0423279-0.8467369-0.0677528
		l0.1438789-10.0677414H45.7950592z"/>
	<path class="st8" d="M55.1176605,47.384903l-0.1440849,10.4403076c-0.2792816,0.0084763-0.558773,0.0084763-0.8467369,0.0084763
		l0.1440849-10.4487839H55.1176605z"/>
	<path class="st8" d="M64.4402695,47.384903l-0.1438828,9.9661369c-0.2794876,0.0338516-0.558979,0.0592766-0.8467369,0.0846519
		l0.1438789-10.0507889H64.4402695z"/>
	<path class="st8" d="M73.7628708,47.384903l-0.11866,8.3065071c-0.2710114,0.0847054-0.550293,0.1693611-0.8467407,0.2455902
		l0.11866-8.5520973H73.7628708z"/>
	<path class="st7" d="M77.2197952,47.3924446c0,2.5355148-10.3801804,4.5859184-23.1860886,4.5859184
		c-2.3617058,0-4.6501122-0.0731888-6.8011894-0.201355c-9.483139-0.5766792-16.375845-2.3158913-16.375845-4.3845634
		c0-1.7941284,5.2176342-3.3594208,12.815073-4.1191292c3.1214142-0.3020859,6.6363754-0.4760056,10.3619614-0.4760056
		C66.8396149,42.7973099,77.2197952,44.8568726,77.2197952,47.3924446z"/>
	<path class="st9" d="M77.2197952,47.3924446c0,2.5355148-10.3801804,4.5859184-23.1860886,4.5859184
		c-2.3617058,0-4.6501122-0.0731888-6.8011894-0.201355l-3.5607719-8.5036926
		c3.1214142-0.3020859,6.6363754-0.4760056,10.3619614-0.4760056
		C66.8396149,42.7973099,77.2197952,44.8568726,77.2197952,47.3924446z"/>
	<polygon class="st8" points="65.6679993,48.8921242 43.3226471,48.8921242 44.7620621,45.6830025 64.2285843,45.6830025 	"/>
	<polygon class="st47" points="64.9483948,48.8921242 44.0422516,48.8921242 44.7620621,47.2917747 64.2285843,47.2917747 	"/>
	<polygon class="st0" points="95.6271515,109.1581726 100.1014862,110.3163834 100.8066177,108.5648117 102.3320618,104.8212662 
		96.9009857,104.3279572 96.4894485,105.9016571 	"/>
	<path class="st1" d="M96.4894485,105.9016571l0.0015488,0.0191422c0,0,2.3332443,1.4666061,4.3156204,2.6440125l1.525444-3.7435455
		l-5.431076-0.493309L96.4894485,105.9016571z"/>
	<path class="st12" d="M99.9731293,114.8393173l-9.2281189,0.7396622c-1.0471497,0.0870667-2.0757446-0.2897644-2.8246078-1.0409088
		l-1.1147385-1.1277084l0.2353287-0.9544449c0,0,1.0119858,0.1952591,1.343811,0.2956238l6.9790802-2.9232483l0.6376495-1.3227234
		l0.9145813,0.3697968l-0.2201385,1.4067307l2.7067719,1.0863953l0.3912811,2.3712082l0.4144363,0.1451721L99.9731293,114.8393173z"
		/>
	<path class="st21" d="M95.5149002,108.7430725c-0.2068634,0.1527557-0.3908615,0.3365631-0.623703,0.4349365
		c-0.3520355,0.1487274-0.7092438,0.2897186-1.0622864,0.4376144c-1.4441528,0.6049881-2.8883057,1.2099762-4.3324585,1.8149719
		c-0.8180618,0.3427048-1.6361237,0.6854095-2.4541855,1.0281143l1.1179962,1.1261063
		c0.7421799,0.747551,1.7762146,1.1298294,2.8261871,1.0448227l9.2221222-0.7466431l-0.1089554-3.5622025
		c-0.4442673-0.1394043-0.8991776-0.2641983-1.3024826-0.4953232c-0.40448-0.2317886-0.7913742-0.4942627-1.156189-0.7845154
		c-0.3274155-0.260498-0.6621475-0.5550079-1.0764771-0.6132813c-0.3027115-0.042572-0.6120377,0.0504456-0.8775787,0.2018814
		C95.6270218,108.6637039,95.5701447,108.7022781,95.5149002,108.7430725z"/>
	<path class="st24" d="M103.7652969,42.7332268l-6.196907,9.1627846c-0.6774673,1.0068779-1.8673706,1.5652351-3.0757141,1.4371262
		L84.496994,52.362854c-1.2633209-0.0824051-2.2243805-1.0801201-2.325058-2.2792435
		c-0.0183258-0.164814-0.0183258-0.3295708,0.0091629-0.4943314c0.1372147-1.2632027,1.2265549-2.2059975,2.4897537-2.1968346
		l3.4142838,0.0457573l1.1442032,0.0091629l2.956604,0.0365944l1.4829941,0.0183258l3.4599838-6.4716187l0.4394684-0.8238487
		l1.0709-1.9771576c-0.0091629-0.0091629,0-0.0183258,0-0.0183258l0.0274887-0.0274315
		c0.5675201-0.7689285,1.4096985-1.2082863,2.2884064-1.2723656c0.7597122-0.0640831,1.5469131,0.1372681,2.2059402,0.649868
		C104.6166382,38.6965027,105.0193405,41.3785095,103.7652969,42.7332268z"/>
	<path class="st14" d="M91.3394165,54.6882248c0,4.2358093-2.1388168,7.9708519-5.3940506,10.1930618
		c-0.2712631,0.1825943-0.5529785,0.3547211-0.8397827,0.5216522c-1.2885971,0.7355499-2.7231369,1.2415314-4.2514114,1.4710617
		c0.0417709,0.0782623,0.0731049,0.1356354,0.0731049,0.1356354l-1.7475891-0.0052261h-0.3599091
		c-0.0522156,0.0052261-0.1095276,0-0.1617432-0.0052185c-2.0761642-0.057373-4.0272598-0.6311798-5.7277222-1.5962524
		c-0.2870636-0.1617126-0.5634232-0.3338318-0.8346939-0.5216522c-1.1841583-0.8033295-2.2223663-1.8101158-3.0621567-2.9629784
		c-0.125061-0.1721191-0.2399368-0.3442726-0.3548126-0.5216484c-0.5944977-0.9128914-1.0692825-1.9040108-1.4032135-2.9629784
		c-0.057312-0.1721535-0.1095276-0.3442764-0.1512985-0.5216522c-0.2608261-0.9441872-0.4067764-1.9353409-0.4276657-2.9629784
		c-0.0050888-0.0834503-0.0050888-0.1721535-0.0050888-0.2608261s0-0.1721535,0.0050888-0.2608261
		c0.0208893-1.0224457,0.1617432-2.0135651,0.4225693-2.957756c0.0468674-0.1773758,0.0939865-0.3495293,0.1512985-0.5216484
		c0.333931-1.0589714,0.8084564-2.050087,1.4032135-2.9629784c0.114624-0.1773758,0.234848-0.3547516,0.3599091-0.5216522
		c0.8397903-1.1580849,1.8726501-2.1596451,3.051712-2.9630089c0.2712708-0.1877861,0.5529861-0.3599091,0.8397903-0.5216522
		c1.7944489-1.0276375,3.8759613-1.6118851,6.0929794-1.6118851c0.0728531,0,0.1459503,0,0.2190552,0.0052223
		c0-0.0052223,0-0.0052223,0-0.0052223h1.3927689l0.0417709,0.1147461c1.5962906,0.2138977,3.0934906,0.7303276,4.4340439,1.497139
		c0.2868042,0.1617432,0.5634232,0.3338661,0.8346939,0.5216522C89.2005997,46.7121849,91.3394165,50.4524155,91.3394165,54.6882248
		z"/>
	<g>
		<g>
			<path class="st15" d="M85.9402771,44.5003548H72.0851746c0.2712708-0.1877861,0.5529861-0.3599091,0.8397903-0.5216522
				h12.1806183C85.3923874,44.1404457,85.6690063,44.3125687,85.9402771,44.5003548z"/>
		</g>
		<g>
			<path class="st15" d="M86.8164825,47.4633636v0.5216522H68.6735535c0.114624-0.1773758,0.234848-0.3547516,0.3599091-0.5216522
				H86.8164825z"/>
		</g>
		<g>
			<path class="st15" d="M86.8164825,50.9479942v0.5216484H67.1190414c0.0468674-0.1773758,0.0939865-0.3495293,0.1512985-0.5216484
				H86.8164825z"/>
		</g>
		<g>
			<path class="st15" d="M86.8164825,54.4273987v0.5216522H66.6964722
				c-0.0050888-0.0834503-0.0050888-0.1721535-0.0050888-0.2608261s0-0.1721535,0.0050888-0.2608261H86.8164825z"/>
		</g>
		<g>
			<path class="st15" d="M86.8164825,57.9120293v0.5216522H67.2754364c-0.057312-0.1721535-0.1095276-0.3442764-0.1512985-0.5216522
				H86.8164825z"/>
		</g>
		<g>
			<path class="st15" d="M86.8164825,61.3966599v0.5216484h-17.78302c-0.125061-0.1721191-0.2399368-0.3442726-0.3548126-0.5216484
				H86.8164825z"/>
		</g>
		<g>
			<path class="st15" d="M85.9453659,64.8812866c-0.2712631,0.1825943-0.5529785,0.3547211-0.8397827,0.5216522H72.9303131
				c-0.2870636-0.1617126-0.5634232-0.3338318-0.8346939-0.5216522H85.9453659z"/>
		</g>
	</g>
	<path class="st15" d="M79.1774216,67.0068283c-0.0522156,0.0052185-0.1095276,0.0052185-0.1617432,0.0052185
		c-0.0677567,0-0.1304092,0-0.1981659-0.0052185H79.1774216z"/>
	<circle class="st15" cx="81.0140533" cy="54.6904984" r="12.3224792"/>
	<circle class="st16" cx="81.0140533" cy="54.6904984" r="10.562335"/>
	<path class="st15" d="M78.8175125,67.0068283h-0.1617432v-0.0052261
		C78.7079849,67.0068283,78.7652969,67.0120468,78.8175125,67.0068283z"/>
	<path class="st14" d="M84.741806,57.2416077c0,1.5760498-1.0960617,3.0547905-3.1520081,3.392067v2.0754662h-1.2582092v-2.0170784
		c-1.1546555-0.019474-2.3544312-0.3761864-3.0484619-0.8756065l0.4734573-1.3360748h0.5708313
		c0,0,0.0129852,0.1621437,0.0194778,0.3372765c0.6485748,0.3048134,1.4463196,0.518856,2.2830124,0.518856
		c1.4203568,0,2.3737488-0.8172188,2.3737488-1.9522362c0-1.0961037-0.7782593-1.7771034-2.2505569-2.3737869
		c-2.0366287-0.7977829-3.294838-1.7187538-3.294838-3.4569473c0-1.6538734,1.1804581-2.9121208,3.0158386-3.2104836v-2.0105858
		h1.232399v1.9327583c1.1997757,0.0389137,2.0171509,0.3567123,2.5943222,0.7004814l-0.2205734,0.5707512
		c0.0973816,0.2204971,0.2919846,0.7458458,0.2919846,0.7458458h-0.5708313
		c-0.4150238-0.2399712-1.2322388-0.6810036-2.5099258-0.6810036c-1.5372162,0-2.1145401,0.9209747-2.1145401,1.7187576
		c0,1.0377121,0.7394714,1.5565681,2.4711304,2.270031C83.7041779,54.4267502,84.741806,55.4645042,84.741806,57.2416077z"/>
	<path class="st17" d="M80.9022598,62.7095375v-2.0150986c-1.1571808-0.0199509-2.3542709-0.3790779-3.0525742-0.8778648
		l0.4788361-1.3367462c0.7182541,0.4788322,1.7557297,0.8579102,2.8730087,0.8579102
		c1.4165573,0,2.3742294-0.8180084,2.3742294-1.9552422c0-1.0973282-0.7781067-1.7756805-2.2545166-2.3742218
		c-2.0350494-0.7980614-3.2919922-1.7158279-3.2919922-3.4516029c0-1.6559715,1.1771393-2.9129143,3.0126724-3.2121849v-2.0150986
		h1.2369919v1.9352913c1.1970825,0.0399017,2.0150909,0.359127,2.593689,0.6983032l-0.4987869,1.3167953
		c-0.4189835-0.239418-1.2369919-0.6783485-2.5138855-0.6783485c-1.5362625,0-2.1148529,0.9177666-2.1148529,1.7158241
		c0,1.0374756,0.738205,1.5562134,2.4739761,2.2744675c2.0550003,0.8379593,3.0924759,1.8754349,3.0924759,3.6511154
		c0,1.5761642-1.0973282,3.0525742-3.1523285,3.3917503v2.0749512H80.9022598z"/>
	<path class="st25" d="M99.3349762,47.9233131l-3.0665512,3.8720207l-2.3341064,0.1830292
		c0,0-0.9427414-2.4256783-1.7483749-4.4944038l1.4829941,0.0183258l3.4599838-6.4716187
		c0.8879852,0.4668427,2.178566,1.1258774,2.2060547,1.1442032C99.3716278,42.1931381,98.0442886,45.3511505,99.3349762,47.9233131z
		"/>
	<path class="st37" d="M141.9993439,73.7706909c0,0-24.6958084,10.4359512-35.4312592-5.945816l16.992897-3.2453766
		l13.4761276,5.9274979"/>
	<polygon class="st0" points="116.825882,97.8718643 118.4454269,99.9479752 119.647789,101.4972992 122.9851761,98.8684235 
		121.4226456,96.2386017 120.1982803,94.1808243 119.5840149,94.8544617 	"/>
	<path class="st1" d="M116.825882,97.8718643l1.619545,2.0761108c0.8886185-1.1104126,2.9317093-3.672821,2.9772186-3.7093735
		l-1.8386307-1.38414L116.825882,97.8718643z"/>
	<path class="st12" d="M126.2199783,101.4733505l-4.5913544,7.165863c-0.5187073,0.8148804-1.3666382,1.3581543-2.3329544,1.4884872
		l-1.4454422,0.1886826l-0.5677032-0.7031097c0,0,0.7057877-0.6321106,0.9638138-0.8191681l1.7421646-6.7342148
		l-0.6134949-1.2024384l0.7793732-0.4637299l0.9072037,0.9435654l2.300705-1.3769455l1.9532166,1.032486l0.3367767-0.2225876
		L126.2199783,101.4733505z"/>
	<path class="st11" d="M121.2215042,95.0680466l-0.8414383,0.9038315l-3.4490662,3.656929l-2.2855225-2.2647858l-6.004837-5.9425049
		l-5.8905716-5.8177795c-0.8934326-0.8518982-1.4544754-1.9635239-1.6310043-3.1270828
		c-0.1039963-0.5505829-0.1039963-1.1116257-0.0312042-1.6622009h9.6720428
		c-0.4155884,0.7583694-0.6753082,1.2154846-0.6753082,1.2154846l0.7791672,0.9142303L121.2215042,95.0680466z"/>
	<polygon class="st12" points="116.9329071,99.6259842 114.6439819,97.3653564 120.6178513,94.3643265 120.3830185,95.9697495 	"/>
	<path class="st21" d="M119.1770706,101.3221817c-0.0131378,0.0861588-0.0196152,0.1738281-0.0259399,0.2607498
		c-0.0400925,0.5510635-0.0671768,1.0767059-0.2056351,1.6120224c-0.2143784,0.8288651-0.4287643,1.6577301-0.6431427,2.4865952
		c-0.3390274,1.3107758-0.6780548,2.6215591-1.0170822,3.9323425l1.4460831-0.1919632
		c0.9599762-0.1274338,1.8149185-0.6716614,2.3367004-1.4874649l4.5829086-7.1653519l-2.667923-1.9015732
		c-0.3780746,0.268158-0.7846756,0.6314926-1.2197037,0.7896118c-0.528389,0.1920547-1.0515366,0.3910751-1.5637054,0.6238403
		c-0.3924637,0.1783676-0.8116608,0.4059525-0.9643784,0.8090897
		C119.2068634,101.1650162,119.1891556,101.2429657,119.1770706,101.3221817z"/>
	<path class="st64" d="M118.7333984,104.1625671c0.2607803,0.0514984,0.5165558,0.1283035,0.7625732,0.2289886"/>
	<path class="st64" d="M118.2947464,106.0849762c0.387886,0.0594101,0.7728577,0.1378555,1.1530609,0.2349625"/>
	<polygon class="st11" points="116.4261703,100.919838 115.8157883,98.9362183 121.3445435,93.6700439 121.9549255,95.6536713 	"/>
	<path class="st12" d="M110.8637619,82.9441681l-2.2231216,8.4773483l-5.8905716-5.8177795
		c-0.8934326-0.8518982-1.4544754-1.9635239-1.6310043-3.1270828c0.1765289-0.5505829,0.3634567-1.1116257,0.5505142-1.6622009
		h9.0903244c-0.4155884,0.7583694-0.6753082,1.2154846-0.6753082,1.2154846L110.8637619,82.9441681z"/>
	<path class="st24" d="M111.0289917,65.2743759c-0.1282196,0.9474487-0.2622986,1.9090729-0.6351929,2.7942963
		c-0.3328247,0.7862015-1.1135254,2.0396881-2.0331268,1.8338165c-0.7519531-0.1647415-1.7348938-1.487175-2.1852951-2.0662003
		c-1.2070618-1.557373-1.9450836-3.4878845-2.00914-5.4594078c-0.0445938-1.3096161,0.1762924-2.6339607-0.0116959-3.9387932
		c-0.1626434-1.1632385-0.5743942-2.3610039-1.0447922-3.4377441c-0.3672867-0.8183441-0.7867813-1.6051064-1.232933-2.3828621
		c-0.3970795-0.6791649-0.993988-1.3762665-1.2590485-2.1139793c-0.5189133-1.4216461-0.7414551-3.1545906-0.8428497-4.6579819
		c-0.1629333-2.3465347,0.0639114-4.6083717,0.7424545-6.7837334c0.0867767-0.2806473,0.1869965-0.5623856,0.2940216-0.844635
		c0.1960144-0.5357285,0.4264145-1.0674057,0.6845779-1.5944824l1.5475769,0.9483376l1.2811966,0.7852592l0.8491745,0.5193405
		c1.312027,4.5378113,4.4683151,8.3720627,5.7733688,12.9104385
		C112.1900253,56.1448288,111.6361694,60.7860909,111.0289917,65.2743759z"/>
	<path class="st37" d="M102.1914978,50.1956177c2.145874,3.7176361,3.0055084,8.0409508,3.3998947,12.3153038
		c0.0732346,0.7936592,0.1324081,1.5936241,0.3347244,2.3645439c0.3804626,1.4497299,1.2783508,2.7579498,2.4943314,3.6342316
		c0.3671646,0.264595,0.8206177,0.4995728,1.2555313,0.3743668c0.4693527-0.1351242,0.7260971-0.6303558,0.8991013-1.0871048
		c1.3727188-3.624054,0.8147507-7.6809349-0.1071243-11.4450111c-0.7237473-2.9551239-1.6616058-5.8619728-2.8902588-8.6453133"/>
	<path class="st5" d="M102.002121,21.592535c-1.2947159,2.4233341-1.622963,5.22785-0.6453018,7.8321362
		c0.1848297,0.4923668,0.4167557,0.9759254,0.7667007,1.3685207c0.3012619,0.337986,0.6836243,0.5995617,1.0983276,0.7812614
		c0.8699951,0.381176,1.9026413,0.4009991,2.7656937,0.0043659c1.3025284-0.5986004,2.0464706-2.0198879,2.324585-3.4261417
		c0.3726044-1.8840065,0.0590744-3.8960705-0.8690948-5.577383"/>
	<path class="st3" d="M115.1308441,28.7994423c-0.1818314,0.3078156-0.4673691,0.5621281-0.7816467,0.7402306
		c-0.516037,0.292448-1.1263809,0.415308-1.7153854,0.3453026c0.4754181,0.117857,0.8197327,0.5681419,0.9161987,1.0483589
		c0.0964737,0.480217-0.0197067,0.9810886-0.2128525,1.4312096c-0.1733856,0.4040871-0.4120102,0.7850418-0.733696,1.0848198
		c-0.6154709,0.5735741-1.4774246,0.8022652-2.3141022,0.8903351c-0.3572311,0.0376015-0.7220993,0.0529022-1.0722885-0.0270653
		c-0.3576126-0.0816612-0.6878586-0.2607079-0.9785614-0.4844131c-0.7990341-0.614872-1.3003006-1.5588837-1.529213-2.5407867
		c-0.2147293-0.9210854-0.2352448-1.9179878-0.1159058-2.8543663c0.0780182-0.6121616-0.5211792-1.520422-0.0249863-2.0508003
		c0.0974426-0.1041527,1.1978989-0.7806473,1.298172-0.73102c0,0-6.1091232-3.1532402-6.2093201-3.202898
		c-0.9404984-0.4839916-0.7349701-2.3747921,0.1691284-2.7686863c1.3639679-0.5942459,2.9301529-0.6444492,4.3751373-0.2901077
		c0.6422348,0.1574898,1.2213516,0.4172001,1.8240204,0.6763783c0.5223465,0.224638,1.0324097,0.3075123,1.4728241,0.7187004
		c0.2120438-0.2066269,0.5227737-0.3393402,0.8073883-0.2577667c0.2846069,0.0815735,0.4866562,0.4322262,0.3461685,0.6928406
		c0.4747772-0.3136444,1.149437-0.2005119,1.5811386,0.1701908c0.431694,0.3707008,0.6448898,0.9459839,0.6933517,1.5129395
		c0.0962524,1.1259918-0.1764603,2.4994297-0.864563,3.4146385c0.1508713-0.2006607,1.9457092,0.1333961,2.223732,0.2632809
		c0.6306534,0.2946205,1.1437759,0.9792709,1.0338211,1.7009716
		C115.2912521,28.4665298,115.2249374,28.6401501,115.1308441,28.7994423z"/>
	<path class="st0" d="M107.92202,37.7335091l-4.0744476,0.0411148l-0.0644379-5.7971249
		c-0.0446091-0.0209084-0.0969772-0.0362129-0.1481094-0.0581741c-0.5135345-0.2129345-0.9512253-0.5985489-1.2384186-1.1106892
		c-0.2445602-0.4365444-0.4304123-0.8980579-0.5583649-1.3774834c-0.1282883-0.4794769-0.1995316-0.9704838-0.2010956-1.4706421
		l-0.0351944-3.5598755c0,0-0.0812149-0.896553,0.5404129-1.6934109c0.225235-0.2923603,0.5515747-0.5750961,1.0107193-0.7887516
		l5.5560684-0.0553493l0.0337296,3.3130283l0.0277939,3.0109539l0.0078583,0.4600468
		c0.0086517,0.3712292-0.0706253,0.7351227-0.2266846,1.0660648c-0.1044846,0.2227287-0.2422409,0.440258-0.4157715,0.6245937
		c-0.0398483,0.0345325-0.1405487,0.1073971-0.2868652,0.2070103l0.0279846,2.6274433L107.92202,37.7335091z"/>
	<path class="st0" d="M108.8774567,35.0258751c0,0-1.441864-0.3286781-5.0989304,0.6326942l-2.7154922,3.1528931
		l3.2601852,2.4620323l5.5118637-1.0587807c1.3765488-0.9519882,2.0078888-2.7990456,1.5914917-4.4200859"/>
	<path class="st1" d="M108.7706757,28.1871052c-0.1573792-0.1282158-0.257225-0.3155327-0.2639465-0.5287857l-0.0222626-1.9416962
		c0.0010605-0.2190189,0.101265-0.4151878,0.2584152-0.540472L108.7706757,28.1871052z"/>
	<path class="st1" d="M103.7953415,32.8107414l-0.0085373-0.8340034c0.0169907,0.2014923,2.2043686-0.5655556,2.4639816-0.7599583
		c0.1407547-0.0377522,0.2182312,0.1576462,0.089859,0.2266102
		C105.6726913,32.1205673,104.832489,32.5864487,103.7953415,32.8107414z"/>
	<path class="st4" d="M103.6954193,27.2828445l-0.4302979,0.5445042c-0.1124573,0.142313-0.0866623,0.3491402,0.0573196,0.4594612
		l0.3862839,0.2959862"/>
	<path class="st3" d="M108.8739548,25.7942162c-0.9983978-0.4576511-1.9967957-0.9153042-2.9951935-1.3729572
		c-0.7461472-0.3420258-1.4922943-0.6840515-2.2384415-1.0260754c-0.2885208-0.1322536-0.5770416-0.2645073-0.8655548-0.3967609
		c-0.1630936-0.0747566-0.4319229-0.1410294-0.568161-0.2591324c-0.2304993-0.1998119,0.0408325-0.7462196,0.1726913-0.9763432
		c0.1952133-0.3406849,0.4869995-0.6279545,0.8392181-0.8038635c0.2866135-0.1431427,0.6029739-0.2154846,0.9183731-0.2716866
		c1.0652466-0.1898212,2.1607895-0.2085552,3.2319031-0.0552635c0.4747086,0.0679359,0.9539108,0.1729374,1.3678131,0.4151173
		c0.4138947,0.2421799,0.7578583,0.6409569,0.8351669,1.1142273c0.0660095,0.404129-0.0649185,0.8148193-0.2360229,1.186842
		c-0.218132,0.4742603-0.5256958,0.9083233-0.5033112,1.4424858
		C108.8464508,25.1252689,108.8601151,25.4597473,108.8739548,25.7942162z"/>
	<path class="st0" d="M108.4780655,25.5368347l0.0198593,1.9399242c0.0038986,0.3814354,0.3159637,0.6871777,0.6973953,0.6832733
		s0.6871719-0.3159695,0.6832657-0.6974049l-0.0198517-1.9399242c-0.0019531-0.1907177-0.0810699-0.3618355-0.2069931-0.4857235
		c-0.126442-0.1233597-0.2996902-0.1989517-0.4904022-0.1969986
		C108.7799072,24.8438854,108.4741669,25.1559505,108.4780655,25.5368347z"/>
	<path class="st1" d="M109.5001526,25.4667702l-0.0084534,0.6489544l-0.5984268,0.2695255l0.0120621-0.9262295
		c0.0021133-0.1622391,0.1390457-0.2956486,0.3012848-0.2935352S109.5022736,25.3045311,109.5001526,25.4667702z"/>
	<path class="st1" d="M108.8849945,27.0206718l0.5979843-0.235527l-0.0079269,0.6083546
		c-0.0021133,0.1622391-0.1390457,0.2956486-0.3012848,0.2935352s-0.2956467-0.1390457-0.2935333-0.3012848L108.8849945,27.0206718z
		"/>
	<path class="st5" d="M104.2770309,30.318203c0.0177994,0.0025768,0.0371399,0.0037918,0.0564575,0.0050144
		c0.4943237,0.0300503,0.870224-0.45611,1.0449905-0.8743877l-0.0002518-0.0008812
		c0.033371-0.0805511,0.0590668-0.1579952,0.0769653-0.2294502c0.018898-0.074585,0.0284882-0.1418056,0.0290985-0.1970272
		c0.0006561-0.0381584-0.0355988-0.0659237-0.0725327-0.0555477l-1.7380829,0.4883041
		c-0.0246124,0.0069141-0.0419083,0.0297985-0.0413971,0.0552807
		C103.6356964,29.6736736,103.6937714,30.2486134,104.2770309,30.318203z"/>
	<path class="st45" d="M103.9920959,29.364769l0.0279236,0.0994053c0.0227356,0.0809135,0.1061096,0.1277161,0.186142,0.1052303
		l1.2490311-0.3509064c0.018898-0.074585,0.0284882-0.1418056,0.0290985-0.1970272
		c0.0006561-0.0381584-0.0355988-0.0659237-0.0725327-0.0555477L103.9920959,29.364769z"/>
	<path class="st3" d="M104.2770309,30.318203c0.0177994,0.0025768,0.0371399,0.0037918,0.0564575,0.0050144
		c0.4943237,0.0300503,0.870224-0.45611,1.0449905-0.8743877l-0.0002518-0.0008812
		c-0.2136765-0.0377197-0.4931564,0.048399-0.7314911,0.2472591C104.4285812,29.8779736,104.29702,30.1123371,104.2770309,30.318203
		z"/>
	<path class="st34" d="M103.5232162,50.5431061l3.1951904,8.0587234l0.72509,1.8184357l5.5423203-1.4603539l-1.5940933-19.6544838
		c-0.0372314-0.4590645-0.0840378-0.9174118-0.111702-1.3772507c-0.0470505-0.6989479,0.1568985-1.3894005-0.3541336-1.9929543
		c-0.0857773-0.1085663-0.1892776-0.1964798-0.3006744-0.2644768c-0.3054733-0.2062645-0.6886978-0.3003426-1.0494308-0.3576965
		c-0.2805023-0.0157967-0.5234909-0.0442123-0.8008881-0.0217133c-0.1904602,0.0250854-0.6157379-0.1137047-0.706192,0.0765495
		c-0.3122482,0.6606903-0.5042953,1.3790894-0.7966232,2.047802c-0.048912,0.1098518-0.1072769,0.2204704-0.1656418,0.3311462
		c-0.2841568,0.5332527-0.6764908,1.0367966-1.2111206,1.330471c-0.1754608,0.0912666-0.370842,0.174511-0.5724258,0.181221
		c-0.4502716,0.026886-0.8689194-0.266449-1.1023178-0.6519012c-0.2326126-0.375824-0.3081436-0.8317795-0.3446045-1.2813301
		c-0.0411072-0.5068741-0.0439301-1.0169144-0.0850372-1.5237846c0,0-0.0031052-0.0382957-0.0038834-0.0478706l-0.0077591-0.0956192
		l-0.0455399,0.032547l-0.0095749,0.0007744l-3.226181,1.2917747l0.3215714,1.2350731l0.0465698,0.2176857l0.6992874,2.6869965
		C101.5654221,41.1228714,98.3588104,50.1340523,103.5232162,50.5431061z"/>
	<path class="st53" d="M109.765152,56.9972572l-3.0467453,1.6045723l0.72509,1.8184357l5.5423203-1.4603539l-1.5940933-19.6544838
		c-0.0372314-0.4590645-0.0840378-0.9174118-0.111702-1.3772507c-0.0470505-0.6989479,0.1568985-1.3894005-0.3541336-1.9929543
		c-0.0857773-0.1085663-0.1892776-0.1964798-0.3006744-0.2644768c-0.3054733-0.2062645-0.6886978-0.3003426-1.0494308-0.3576965
		c-0.2805023-0.0157967-0.5234909-0.0442123-0.8008881-0.0217133c-0.1904602,0.0250854-0.6157379-0.1137047-0.706192,0.0765495
		c-0.3122482,0.6606903-0.5042953,1.3790894-0.7966232,2.047802c-0.048912,0.1098518-0.1072769,0.2204704-0.1656418,0.3311462
		l0.0707779,0.0423813L109.765152,56.9972572z"/>
	<line class="st87" x1="103.5276794" y1="50.5411568" x2="104.5508728" y2="50.3498611"/>
	<path class="st11" d="M123.5685959,64.6281433c-0.2054214,1.2237091-0.7501678,2.3670044-1.589859,3.29599l-2.7510834,3.2959976
		l-10.227478,12.1835251l-5.4665222,18.8917007l-1.2058258,4.153511l-4.680481-0.5895615l-2.0544586-0.2590103l0.2768402-1.4380798
		l3.4568787-18.1145935l0.6699219-3.5193024l0.2947235-1.5899124c0.0535355-0.3037186,0.1161194-0.5984955,0.1965866-0.9200439
		l-0.0089417-0.0178833c0.2143707-0.8306885,0.4822693-1.6524429,0.821701-2.4384842l5.7612457-12.8981476l0.1251755-0.3036652
		l0.9288788-2.0634003l-0.8753433-2.3580666l-0.3841324-0.9915199l3.6712418-0.9735832v-0.0089417l9.1911926-2.4206543
		l0.5448532,1.9293938l1.3398361,1.2683601c1.1880569,1.1344147,1.893631,2.6529045,2.0365753,4.2606964
		C123.6758881,63.5383797,123.6580048,64.0832291,123.5685959,64.6281433z"/>
	<path class="st13" d="M116.8839035,71.806366l-8.4957809,11.0347519l-1.1932755,3.7564697l-7.2008362-4.0735931
		l0.2929764-1.5835571c0.054863-0.3020859,0.1188889-0.6041107,0.201355-0.9245224l-0.0091629-0.0182724
		c0.2105179-0.8238449,0.4851685-1.6476974,0.8237381-2.4348907l5.7576599-12.8974228l0.1281662-0.3020859
		c1.6568604-0.5950089,2.9658813-1.0801239,2.9658813-1.0801239L116.8839035,71.806366z"/>
	<line class="st2" x1="103.671051" y1="84.6041412" x2="99.7243881" y2="101.4972992"/>
	<path class="st62" d="M113.6259308,67.6789398c-0.249939,1.0713882-0.7195206,2.094574-1.396553,2.999939l-7.715477,10.3175659
		l-0.8428497,3.6076965"/>
	<path class="st2" d="M112.0880661,58.9539108c0-0.0206909,0.7155304,2.3100243,1.3949661,4.5278511
		c0.4230576,1.3809471,0.4622269,2.8284035,0.1428986,4.1971779"/>
	<path class="st12" d="M103.5336533,102.2953568l-1.2058258,4.153511l-4.680481-0.5895615l-1.7776184-1.6970901
		C95.8697281,104.1622162,100.5324402,103.0099258,103.5336533,102.2953568z"/>
	<path class="st12" d="M123.6345978,62.9934845c0.0440903,0.543602,0.0196152,1.0859146-0.0727158,1.6337814
		c-0.201561,1.2269669-0.7515335,2.3728104-1.5789261,3.3017426l-2.7566605,3.2878113
		c-6.5303726-2.4251556-8.130127-10.1749001-8.130127-10.1749001s-0.4934616-2.8805504-0.5633087-3.0664215l-0.0005493-0.0068016
		l9.1805115-2.4271622l0.5464783,1.932354l1.3412857,1.2728729
		C122.7938766,59.8811378,123.5050888,61.3966064,123.6345978,62.9934845z"/>
	<path class="st24" d="M107.4922562,42.0284843c0.0232697,0.2869148,0.0473175,0.5834045,0.0896149,0.8687744
		c0.002327,0.0287209,0.0046616,0.0574417,0.0165558,0.0853271c0.2626648,1.9330368,0.8582306,3.9352608,1.2700806,5.808075
		c0.3753662,1.7794609,0.7882538,3.5462456,1.2202835,5.3114777c0.1169281,0.4911461,0.2320709,0.9631653,0.3577881,1.4439049
		c0.1421661,0.5661354,0.2843246,1.1322098,0.4354019,1.6879845c0.0007782,0.0095711,0.0007782,0.0095711,0.0015488,0.0190887
		c0.0575714,0.2360077,0.1256104,0.4808044,0.192749,0.7160378c0.4258347,1.6887589,0.889061,3.3647919,1.3817902,5.0481262
		c1.2401428,4.2508469,5.4843521,6.7273636,9.8219223,8.0988541c1.8085098,0.5753555,3.6403351,0.9659042,5.2678604,1.2093201
		c2.1834869,0.333168,4.413208,0.2871246,6.629303,0.3095169c2.6687164,0.024231,5.316452,0.1464691,7.8228455,1.13694
		c-1.2195892-1.9805222-2.8471527-3.6488419-4.4906464-5.2772751c-1.4980621-1.4958496-3.1180115-2.9529648-4.8700714-4.1394119
		c-1.5166016-1.0129929-3.0981598-1.8763466-4.5387878-3.0206566c-2.9018478-2.3061638-5.3931122-5.1270485-7.2969513-8.3036499
		c-1.7601089-2.9475212-3.0240021-6.1856613-3.7289505-9.5364761c-0.3501282-1.7044754-0.3370209-4.391552-0.911911-6.0200386
		c-0.385643-1.0758667-2.0134277-1.2037392-2.9184265-2.0352898c-0.3538513-0.3275032-0.4849091-0.519062-0.9558716-0.509716
		c-0.2981033,0.0049057-0.5865097,0.0090218-0.8853836,0.0044136c-1.125145,0.0142212-2.250412,0.0284538-3.3764496,0.0331688
		C107.6138,37.1183815,107.3138428,39.8287239,107.4922562,42.0284843z"/>
	<path class="st37" d="M107.5984268,42.9825859c0.2626648,1.9330368,0.8582306,3.9352608,1.2700806,5.808075
		c0.3753662,1.7794609,0.7882538,3.5462456,1.2202835,5.3114777c0.1169281,0.4911461,0.2320709,0.9631653,0.3577881,1.4439049
		c0.1421661,0.5661354,0.2843246,1.1322098,0.4354019,1.6879845c0.6663513-5.5205498,3.401268-11.5355263,4.6163406-13.9961472
		c0.213562-0.4324799-0.196312-0.9052353-0.6573639-0.7635498l-2.3925629,0.7352486L107.5984268,42.9825859z"/>
	<path class="st24" d="M103.7760391,35.6611328l0.0072556,0.0895081c0.0006561,0.008091,0.0006561,0.008091,0.0013199,0.0162354
		l0.0026398,0.0325661c-0.2322235,0.5673637-0.7406311,1.7711716-0.7406311,1.7711716l-0.8495865,2.0420609l-0.6308212,1.5084648
		l-0.4959183-1.8755646l-0.20504-0.8102875l-0.0503769-0.2169876l-0.3128815-1.2354393l3.2190247-1.2926826L103.7760391,35.6611328z
		"/>
	<line class="st2" x1="109.0040283" y1="83.3999939" x2="107.7722168" y2="82.6713181"/>
	<line class="st39" x1="93.6713791" y1="47.5033302" x2="94.1930771" y2="48.3467636"/>
	<path class="st0" d="M86.223526,59.6864166l0.2918701,0.2747688c0.1876068,0.1773376,0.4784622,0.2018738,0.6986847,0.0684891
		l0.2660294-0.2814713l-0.067276,0.1209793c-0.2088547,0.3923531,0.0227203,0.8742027,0.4632645,0.9636307l2.7464447,0.5089188
		l0.0884857,0.0216751c0.2445374,0.0475616,0.4782104-0.0387878,0.6371155-0.2153206l0.3875351-0.4453926l1.3358688-1.5716896
		l0.6403351-0.1770935l3.0896606-0.8378296l0.3771591-0.0979881l2.044342-0.5508575l-2.033165-4.1769524L96.125,53.8098831
		l-0.1850357,0.0919838l-2.997963,1.4946709l-0.0087967,0.0103493l-0.1110001,0.0571861l-1.213295,0.5893402l-0.7935257-0.0511627
		c-0.1555023-0.0162392-0.2996445-0.014183-0.432785,0.0062523c-0.5378647,0.0147133-1.0768814,0.1354637-1.5675278,0.377449
		l-0.4450989,0.2093811l-1.9208755,0.1750107c-0.184761-0.0235023-0.3507614,0.0669937-0.4443207,0.2189522
		c-0.0248413,0.0501976-0.0408859,0.0899887-0.0473557,0.1290016c-0.0402603,0.2150917,0.0827713,0.4265175,0.2817688,0.5066261
		c0.6362915,0.246891,1.4202423,0.2988281,1.4677277,0.4104996c0.0356979,0.0837173-0.6001282,0.4337234-1.3076324,0.7317848
		c-0.0463104,0.0230293-0.0830536,0.0452843-0.1189041,0.0770416C86.0257416,59.0285492,85.973053,59.4468384,86.223526,59.6864166z
		"/>
	<path class="st1" d="M92.8222046,55.4640732c0.0411301,0.1506729,0.4731598,1.9159012,0.889679,3.4898376l3.0896606-0.8378296
		l0.3771591-0.0979881c-0.1411972-1.3844948-0.4377441-3.4976425-0.554306-3.7481422
		c-0.0356979-0.0837135-0.2225342-0.2514801-0.4993973-0.4600677l-0.1850357,0.0919838l-2.997963,1.4946709l-0.0087967,0.0103493
		L92.8222046,55.4640732z"/>
	<path class="st24" d="M115.6284714,39.7948914l-5.6753159,11.5610313c-0.5858459,1.1991234-1.59272,2.1419716-2.810112,2.6637344
		L94.803978,59.3195839l-2.2700806-4.6591606l0.9335785-0.5034943l0.2014618-0.1006775l0.0365372-0.0183258l10.1146851-5.3731689
		l1.7941895-3.2861214l1.8215637-3.3227692l0.9336853-1.7117233l2.3707581-4.3388062
		c0.961174-1.2266121,2.7277603-1.455452,3.9727478-0.4943314l0.4118729,0.311245
		C116.3606949,36.783371,116.5895309,38.5683403,115.6284714,39.7948914z"/>
	<polygon class="st25" points="110.5298386,47.7036362 107.4359131,51.6580086 95.5910645,57.4339409 93.6689377,54.0562515 
		93.7054749,54.0379257 103.8201599,48.6647568 105.6143494,45.3786354 	"/>
	<line class="st2" x1="108.1151428" y1="62.2912216" x2="110.151825" y2="61.7746468"/>
	<polygon class="st1" points="103.7337494,35.690567 103.7839432,35.7154045 103.7792892,35.65802 	"/>
	<path class="st21" d="M71.960228,136.7806549c0,0.0371399,0,0.052002,0,0.052002h-0.0148697
		C71.960228,136.8177948,71.960228,136.8029175,71.960228,136.7806549z"/>
	<line class="st39" x1="103.8201599" y1="48.6647568" x2="104.9334106" y2="49.5389862"/>
	<path class="st64" d="M93.0986481,109.9982834c0.167923,0.2801743,0.3604355,0.5456085,0.5745926,0.7922516"/>
	<path class="st64" d="M91.1215897,110.9376297c0.1870041,0.2699356,0.3529282,0.5544739,0.4957657,0.8501663"/>
	<polygon class="st11" points="94.6067047,105.8552856 95.80896,104.1635666 103.3525085,105.3445282 102.1502457,107.0362396 	"/>
	<path class="st50" d="M103.5441437,19.2371864c0.0717239,1.2750587,0.783577,2.4740543,1.7993011,3.2481518
		s2.3095779,1.1405067,3.5866547,1.1415958c1.2770691,0.001091,2.5382843-0.3473587,3.6956406-0.8872223"/>
	<path class="st50" d="M110.0542831,34.2347717c-0.1579132-0.293148-0.2001343-0.6347427-0.2052155-0.9676781
		c-0.015564-1.0193291,0.2999268-2.0410957,0.8874741-2.8741989c0.5875473-0.8331051,1.4441376-1.4732666,2.4095459-1.8007565
		c0.6063004-0.2056694,1.2935791-0.2842045,1.8735199-0.0129662"/>
	<path class="st34" d="M23.0632,101.3868256c0,0,6.2543335,2.249527,6.0685596,2.2831802
		c-0.1857719,0.0336533-10.8986359,1.9184723-10.8986359,1.9184723L23.0632,101.3868256z"/>
	<polygon class="st34" points="26.0927753,92.8392029 20.6033268,98.2074509 14,89.432106 22.5114384,87.0577469 
		19.3011723,92.9263611 	"/>
	<path class="st88" d="M35.3361778,62.3354378c1.0040321-0.4645691,2.2191391-0.6546974,3.1750031,0.0360184
		c0.3128586,0.2260742,0.5773697,0.5345345,0.6932678,0.9027138c0.25243,0.8019104-0.2613144,1.6700897-0.9420471,2.1634293
		c-0.6807289,0.4933395-1.5103645,0.7263641-2.2689934,1.0886612c-2.4854698,1.1869965-4.0778484,3.6969604-5.0944481,6.2568512
		c0.0669041-0.1684723-0.4117622-1.1227417-0.4666061-1.3547745c-0.1238022-0.5237732-0.1896229-1.0610275-0.1999226-1.5990295
		c-0.0200443-1.0470352,0.1708641-2.0994263,0.5633621-3.0706177C31.662859,64.6132431,33.2583427,63.2968674,35.3361778,62.3354378
		z"/>
</g>
</svg>
