<?xml version="1.0" encoding="utf-8"?>
<!-- Generator: Adobe Illustrator 22.0.1, SVG Export Plug-In . SVG Version: 6.00 Build 0)  -->
<svg version="1.1" id="Layer_1" xmlns="http://www.w3.org/2000/svg" xmlns:xlink="http://www.w3.org/1999/xlink" x="0px" y="0px"
	 viewBox="0 0 156 156" style="enable-background:new 0 0 156 156;" xml:space="preserve">
<style type="text/css">
	.st0{fill:#FFD9B2;}
	.st1{fill:#F7AC76;}
	.st2{fill:none;stroke:#3643C3;stroke-width:0.5;stroke-linecap:round;stroke-linejoin:round;stroke-miterlimit:10;}
	.st3{fill:#233764;}
	.st4{fill:none;stroke:#F7AC76;stroke-width:0.5;stroke-linecap:round;stroke-linejoin:round;stroke-miterlimit:10;}
	.st5{fill:#161718;}
	.st6{fill:#FFFFFF;}
	.st7{fill:#F06449;}
	.st8{fill:#BE412D;}
	.st9{fill:#FE8E60;}
	.st10{fill:#7D4C47;}
	.st11{fill:#4456D6;}
	.st12{fill:#203881;}
	.st13{fill:#6582FC;}
	.st14{fill:#DDA103;}
	.st15{fill:#FBC32E;}
	.st16{fill:none;stroke:#DDA103;stroke-width:0.5;stroke-miterlimit:10;}
	.st17{fill:#FBE6BB;}
	.st18{fill:none;stroke:#BE412D;stroke-width:0.5;stroke-linecap:round;stroke-linejoin:round;stroke-miterlimit:10;}
	.st19{fill:none;stroke:#F06449;stroke-width:0.5;stroke-linecap:round;stroke-linejoin:round;stroke-miterlimit:10;}
	.st20{fill:#F34B4B;}
	.st21{fill:#FC7070;}
	.st22{fill:none;stroke:#FFFFFF;stroke-miterlimit:10;}
	.st23{fill:#FC9F9F;}
	.st24{fill:#408A6F;}
	.st25{fill:#64B48D;}
	.st26{fill:none;stroke:#FBE6BB;stroke-width:0.5;stroke-linecap:round;stroke-linejoin:round;stroke-miterlimit:10;}
	.st27{fill:none;stroke:#F7AC76;stroke-width:0.25;stroke-linecap:round;stroke-linejoin:round;stroke-miterlimit:10;}
	.st28{fill:#A0665A;}
	.st29{fill:#6C3F44;}
	.st30{fill:none;stroke:#6C3F44;stroke-width:0.5;stroke-linecap:round;stroke-linejoin:round;stroke-miterlimit:10;}
	.st31{fill:none;stroke:#7D4C47;stroke-width:0.5;stroke-linecap:round;stroke-linejoin:round;stroke-miterlimit:10;}
	.st32{fill:none;stroke:#F34B4B;stroke-width:0.5;stroke-linecap:round;stroke-linejoin:round;stroke-miterlimit:10;}
	.st33{fill:none;stroke:#FC7070;stroke-width:0.5;stroke-linecap:round;stroke-linejoin:round;stroke-miterlimit:10;}
	.st34{fill:#EAE8F3;}
	.st35{fill:#40304A;}
	.st36{fill:none;stroke:#43334E;stroke-linecap:round;stroke-linejoin:round;stroke-miterlimit:10;}
	.st37{fill:#32775B;}
	.st38{fill:none;stroke:#233764;stroke-width:0.5;stroke-linecap:round;stroke-linejoin:round;stroke-miterlimit:10;}
	.st39{fill:none;stroke:#408A6F;stroke-width:0.5;stroke-linecap:round;stroke-linejoin:round;stroke-miterlimit:10;}
	.st40{fill:#3643C3;}
	.st41{opacity:0.56;fill:url(#SVGID_1_);}
	.st42{opacity:0.52;fill:#FBC32E;}
	.st43{opacity:0.56;fill:url(#SVGID_2_);}
	.st44{fill:none;stroke:#EAE8F3;stroke-width:0.5;stroke-linecap:round;stroke-linejoin:round;stroke-miterlimit:10;}
	.st45{fill:#FEFFFD;}
	.st46{opacity:0.35;fill:#32775B;}
	.st47{fill:#43334E;}
	.st48{fill:none;stroke:#EAE8F3;stroke-width:0.25;stroke-linecap:round;stroke-linejoin:round;stroke-miterlimit:10;}
	.st49{fill:none;stroke:#FBC32E;stroke-width:0.5;stroke-linecap:round;stroke-linejoin:round;stroke-miterlimit:10;}
	.st50{fill:none;stroke:#161718;stroke-width:0.5;stroke-linecap:round;stroke-linejoin:round;stroke-miterlimit:10;}
	.st51{fill:none;stroke:#40304A;stroke-linecap:round;stroke-linejoin:round;stroke-miterlimit:10;}
	.st52{opacity:0.33;fill:#FBC32E;}
	.st53{fill:#A6A3AE;}
	.st54{fill:#5B4B68;}
	.st55{fill:#776688;}
	.st56{fill:none;stroke:#FBC32E;stroke-width:0.5;stroke-miterlimit:10;}
	.st57{fill:none;stroke:#EAE8F3;stroke-linecap:round;stroke-linejoin:round;stroke-miterlimit:10;}
	.st58{fill:none;stroke:#203881;stroke-width:2;stroke-linecap:round;stroke-linejoin:round;stroke-miterlimit:10;}
	.st59{fill:none;stroke:#40304A;stroke-width:2;stroke-linecap:round;stroke-linejoin:round;stroke-miterlimit:10;}
	.st60{fill:#FFD8B7;}
	.st61{fill:#F4E4D4;}
	.st62{fill:none;stroke:#4456D6;stroke-width:0.5;stroke-linecap:round;stroke-linejoin:round;stroke-miterlimit:10;}
	.st63{fill:none;stroke:#DDA103;stroke-width:0.25;stroke-miterlimit:10;}
	.st64{fill:none;stroke:#FFFFFF;stroke-width:0.5;stroke-linecap:round;stroke-linejoin:round;stroke-miterlimit:10;}
	.st65{fill:none;stroke:#64B48D;stroke-width:0.5;stroke-linecap:round;stroke-linejoin:round;stroke-miterlimit:10;}
	.st66{fill:none;stroke:#64B48D;stroke-linecap:round;stroke-linejoin:round;stroke-miterlimit:10;}
	.st67{opacity:0.48;fill:#64B48D;}
	.st68{fill:none;stroke:#64B48D;stroke-width:0.25;stroke-linecap:round;stroke-linejoin:round;stroke-miterlimit:10;}
	.st69{fill:none;stroke:#F06449;stroke-width:2;stroke-linecap:round;stroke-linejoin:round;stroke-miterlimit:10;}
	.st70{opacity:0.92;fill:#64B48D;}
	.st71{opacity:0.57;fill:#408A6F;}
	.st72{opacity:0.36;fill:#408A6F;}
	.st73{fill:none;stroke:#BE412D;stroke-width:2;stroke-linecap:round;stroke-linejoin:round;stroke-miterlimit:10;}
	.st74{opacity:0.65;fill:none;stroke:#408A6F;stroke-width:0.25;stroke-linecap:round;stroke-linejoin:round;stroke-miterlimit:10;}
	.st75{opacity:0.67;fill:none;stroke:#64B48D;stroke-width:0.25;stroke-linecap:round;stroke-linejoin:round;stroke-miterlimit:10;}
	.st76{opacity:0.98;fill:#64B48D;}
	.st77{fill:none;stroke:#408A6F;stroke-width:0.25;stroke-linecap:round;stroke-linejoin:round;stroke-miterlimit:10;}
	.st78{fill:none;stroke:#FFD9B2;stroke-width:0.5;stroke-linecap:round;stroke-linejoin:round;}
	
		.st79{fill:none;stroke:#FFD9B2;stroke-width:0.5;stroke-linecap:round;stroke-linejoin:round;stroke-dasharray:4.0333505,4.0333505;}
	.st80{fill:#E68B4A;}
	.st81{opacity:0.62;fill:#64B48D;}
	.st82{fill:none;stroke:#FBC32E;stroke-width:0.25;stroke-miterlimit:10;}
	.st83{fill:none;stroke:#4456D6;stroke-linecap:round;stroke-linejoin:round;stroke-miterlimit:10;}
	.st84{fill:none;stroke:#E68B4A;stroke-width:0.5;stroke-linecap:round;stroke-linejoin:round;stroke-miterlimit:10;}
	.st85{fill:none;stroke:#203881;stroke-width:0.5;stroke-linecap:round;stroke-linejoin:round;stroke-miterlimit:10;}
	.st86{opacity:0.29;fill:#EAE8F3;}
	.st87{fill:none;stroke:#A6A3AE;stroke-width:0.5;stroke-linecap:round;stroke-linejoin:round;stroke-miterlimit:10;}
	.st88{opacity:0.74;fill:#FFFFFF;}
	.st89{opacity:0.19;fill:#FFFFFF;}
	.st90{fill:none;stroke:#40304A;stroke-width:0.25;stroke-linecap:round;stroke-linejoin:round;stroke-miterlimit:10;}
	.st91{fill:none;stroke:#F34B4B;stroke-width:2;stroke-linecap:round;stroke-linejoin:round;stroke-miterlimit:10;}
	.st92{fill:none;stroke:#43334E;stroke-width:0.5;stroke-linecap:round;stroke-linejoin:round;stroke-miterlimit:10;}
	.st93{fill:none;stroke:#6582FC;stroke-miterlimit:10;}
	.st94{opacity:0.47;fill:#A6A3AE;}
	.st95{opacity:0.43;fill:#FFFFFF;}
	.st96{fill:none;stroke:#FBE6BB;stroke-linecap:round;stroke-linejoin:round;stroke-miterlimit:10;}
	.st97{fill:none;stroke:#5B4B68;stroke-width:0.5;stroke-linecap:round;stroke-linejoin:round;stroke-miterlimit:10;}
	.st98{fill:none;stroke:#40304A;stroke-width:0.5;stroke-linecap:round;stroke-linejoin:round;stroke-miterlimit:10;}
	.st99{fill:none;stroke:#DDA103;stroke-linecap:round;stroke-linejoin:round;stroke-miterlimit:10;}
	.st100{fill:none;stroke:#FBC32E;stroke-linecap:round;stroke-linejoin:round;stroke-miterlimit:10;}
	.st101{fill:none;stroke:#32775B;stroke-width:0.5;stroke-linecap:round;stroke-linejoin:round;stroke-miterlimit:10;}
	.st102{opacity:0.4;fill:#FBE6BB;}
	.st103{fill:none;stroke:#FBC32E;stroke-width:0.25;stroke-linecap:round;stroke-linejoin:round;stroke-miterlimit:10;}
	.st104{fill:none;stroke:#4456D6;stroke-miterlimit:10;}
	.st105{opacity:0.61;fill:#64B48D;}
	.st106{opacity:0.9;fill:#64B48D;}
	.st107{opacity:0.76;fill:#64B48D;}
	.st108{fill:none;stroke:#5B4B68;stroke-width:0.5;stroke-miterlimit:10;}
	.st109{opacity:0.66;fill:#A6A3AE;}
	.st110{fill:none;stroke:#43334E;stroke-miterlimit:10;}
	.st111{opacity:0.52;fill:#6582FC;}
	.st112{fill:none;stroke:#DDA103;stroke-width:0.5;stroke-linecap:round;stroke-linejoin:round;stroke-miterlimit:10;}
	.st113{fill:#46724E;}
	.st114{fill:#FE8B2E;}
	.st115{fill:none;stroke:#7D4C47;stroke-width:2;stroke-linecap:round;stroke-linejoin:round;stroke-miterlimit:10;}
	.st116{opacity:0.4;fill:#EAE8F3;}
	.st117{fill:none;stroke:#EAE8F3;stroke-width:0.5;stroke-linecap:round;stroke-miterlimit:10;}
	.st118{fill:none;stroke:#4456D6;stroke-width:0.25;stroke-linecap:round;stroke-linejoin:round;stroke-miterlimit:10;}
	.st119{opacity:0.5;fill:#EAE8F3;}
	.st120{opacity:0.46;fill:#A6A3AE;}
	.st121{fill:#E0916E;}
	.st122{fill:none;stroke:#A0665A;stroke-linecap:round;stroke-linejoin:round;stroke-miterlimit:10;}
	.st123{opacity:0.46;fill:#BE412D;}
	.st124{fill:none;stroke:#203881;stroke-linecap:round;stroke-linejoin:round;stroke-miterlimit:10;}
	.st125{fill:#DBDBE1;}
	.st126{fill:none;stroke:#6582FC;stroke-width:0.5;stroke-linecap:round;stroke-linejoin:round;stroke-miterlimit:10;}
	.st127{opacity:0.53;fill:#A6A3AE;}
	.st128{fill:none;stroke:#DDA103;stroke-miterlimit:10;}
	.st129{opacity:0.2;fill:#FFFFFF;}
	.st130{fill:#B4A1BF;}
	.st131{opacity:0.5;fill:#6582FC;}
	.st132{opacity:0.6;fill:none;stroke:#FFFFFF;stroke-linecap:round;stroke-linejoin:round;stroke-miterlimit:10;}
	.st133{opacity:0.6;fill:none;stroke:#FFFFFF;stroke-width:2;stroke-linecap:round;stroke-linejoin:round;stroke-miterlimit:10;}
	.st134{opacity:0.54;fill:#A6A3AE;}
	.st135{fill:#161718;stroke:#000000;stroke-width:0.25;stroke-miterlimit:10;}
</style>
<g id="_x37_">
	<polygon class="st37" points="125.5090256,118.8779984 123.3884125,120.9988174 94.8034134,110.6755753 98.3270264,107.1023941 
		51.1585274,53.3819695 28.5316391,65.8012543 14,37.298851 14,37.298851 25.255825,51.8058624 26.0479851,55.9071274 
		30.3387775,60.8995705 53.8819275,43.3888245 109.3020096,99.0319748 114.278183,96.0942688 121.4160767,115.6019821 	"/>
	<polygon class="st24" points="96.9240265,108.5464935 100.4476395,104.9734192 97.4027023,101.4993668 53.2876053,51.2529945 
		30.652256,63.6804848 14,37.298851 32.4678535,58.778801 56.0025406,41.268055 111.423027,96.9112091 116.3988037,93.9735031 
		125.5090256,118.8779984 	"/>
	<path class="st0" d="M82.5076752,38.8234863l-6.6359711,8.3932381c-0.4889526,0.6143417-1.3918381,0.7991142-2.1402206,0.4316521
		l-3.5711975-1.7682228l1.6831436-3.6051712l0.6825409,0.3900261l2.0965576,1.1939392l4.0950012-4.7933464l0.0215149-0.0313301
		l0.0920105-0.1950455l-0.5347748-3.7927704c-0.0321045-0.2265739,0.1244049-0.4373398,0.3426208-0.4939003
		c0.2108154-0.0580139,0.4255447,0.0197372,0.549057,0.1719208c0.0255203,0.0263557,0.0482712,0.066349,0.0590057,0.089798
		l0.5331879,1.1493149l2.2390747-2.4158669c0.2552185-0.2837219,0.7231903-0.2840424,1.01371-0.0066414
		c0.012085,0.0166016,0.0315781,0.0346146,0.043663,0.0512161c0.148941,0.1785202,0.1796112,0.4119263,0.1057434,0.6318359
		l-0.651207,1.5558281l-0.0191422,2.6322632L82.5076752,38.8234863z"/>
	<path class="st1" d="M82.5076752,38.8234863l-6.6359711,8.3932381c-0.4889526,0.6143417-1.3918381,0.7991142-2.1402206,0.4316521
		l-3.5711975-1.7682228l1.6831436-3.6051712l0.6825409,0.3900261l-0.1167908,3.1672401l1.0433502,0.5106812
		c0.781189,0.3823624,1.726799,0.2182426,2.2791138-0.3955612l6.7803497-7.5351448L82.5076752,38.8234863z"/>
	<path class="st21" d="M72.6398163,42.3488884c-0.2640686,0.7013969-0.5693893,1.5183372-0.8664474,2.3105469
		c-0.2805939,0.7674255-0.5611343,1.510128-0.7839508,2.1207657c-1.0810089-0.5611305-2.2527771-1.1470375-3.2347641-1.6669197
		c-1.1223068-0.5776482-1.9970169-1.0480156-2.2445679-1.2377968c-0.4043427-0.2805405,0.3218384,0.9819908-0.0825043,0.6849289
		c-0.4703674-0.3465691-0.916008-0.7179184-1.3038254-1.114048c-1.2543182-1.2707901-2.1620178-3.1109657-0.5281372-4.3982735
		l0.1402664-0.0990219l0.1980934-0.1567879l0.1732597-0.132061c0.2971115-0.2558098,0.6766663-0.4208603,1.064537-0.5033569
		c0.1402664-0.0329933,0.2805405-0.0577698,0.4373322-0.0742912c0.0165176,0.0082588,0.0247803,0.0082588,0.0412445,0.0082588
		c0.1238022,0,0.2476044-0.0082588,0.3630905,0.0082626c0.4043427,0.0330391,0.7839508,0.1320572,1.1387787,0.3300972
		c0.2723312,0.1402702,0.5198822,0.3218422,0.7344437,0.5528717c0,0,0.3630829,0.2640686,0.907692,0.6601486
		c0.6684113,0.4868889,1.6091537,1.163559,2.4921188,1.7824554c0.2640686,0.1815186,0.5198822,0.3630905,0.7674332,0.5280914
		c0.1072769,0.0742874,0.2062988,0.1403198,0.3135757,0.2145576C72.4582443,42.2250862,72.549057,42.2911186,72.6398163,42.3488884z
		"/>
	<path class="st20" d="M71.7733688,44.6594353c-0.2805939,0.7674255-0.5611343,1.510128-0.7839508,2.1207657
		c-1.0810089-0.5611305-2.2527771-1.1470375-3.2347641-1.6669197l0.9159546-1.3945847l-0.1758423-1.4381409
		c-0.0512085-0.4187965,0.4639435-0.6579056,0.7507477-0.348465L71.7733688,44.6594353z"/>
	<line class="st4" x1="82.5311356" y1="35.7799606" x2="81.6179047" y2="36.8378143"/>
	<path class="st0" d="M108.8080063,73.7050552l-2.3503571-0.3057709l-0.1233444-0.0168457
		c0,0-3.5362473-1.2917938-3.5520706-1.3273087c-0.0019608-0.0504074,0.9276733-1.7609711,1.2572937-2.3800659
		c0.0739517-0.140007,0.1213226-0.2212296,0.1213226-0.2212296s4.3082657,0.7277451,4.3881378,0.73909
		C108.621315,70.1973419,108.8720398,73.6808929,108.8080063,73.7050552z"/>
	<path class="st1" d="M106.4576492,73.3992844l-0.1233444-0.0168457c0,0-3.5362473-1.2917938-3.5520706-1.3273087
		c-0.0019608-0.0504074,0.9276733-1.7609711,1.2572937-2.3800659l2.0177002,0.1021194
		C106.0572281,69.7771835,106.3076706,71.7667465,106.4576492,73.3992844z"/>
	<polygon class="st0" points="82.3194275,95.8302155 79.054306,96.1301727 78.0021439,93.9408112 77.996376,93.2336807 
		77.9606628,90.2686539 81.4054947,90.1349335 81.7391129,92.2222824 	"/>
	<path class="st1" d="M81.7391129,92.2222824c0,0-2.2416534,0.6355591-3.7427368,1.0113983l-0.0357132-2.9650269
		l3.4448318-0.1337204L81.7391129,92.2222824z"/>
	<path class="st11" d="M106.1676483,69.1595917l-0.8251953,4.6046219l-0.0082626,0.0742416l-27.7926941-6.8078918
		l-0.8582382-0.2145615l-7.657814-1.8731689l1.3368149-4.8191795l0.1320114-0.4786301l0.4125977-1.4770889
		c0-0.0082588,0-0.0082588,0-0.0165176l0.5034103-1.8071899l0.0412521,0.0082626l11.3877335,4.2002831l10.5873108,3.911438
		L106.1676483,69.1595917z"/>
	<path class="st13" d="M93.4265747,64.4642105l-2.7396622,3.523613l-14.5011902-5.1383286l-5.691452-3.2044716l0.4125977-1.4770889
		c0-0.0082588,0-0.0082588,0-0.0165176l0.5034103-1.8071899l0.0412521,0.0082626l11.3877335,4.2002831L93.4265747,64.4642105z"/>
	<path class="st12" d="M105.3459854,73.7672348l-0.0116272,0.0726547l-28.6520844-7.0220413l-0.1442947-0.1394043
		c0,0-0.2862015-1.0740433-0.4884033-1.8850479c-0.0937347-0.3759689,0.263588-0.7055206,0.6300964-0.5797958
		C81.2275238,65.7736664,103.0942078,72.9166718,105.3459854,73.7672348z"/>
	<path class="st35" d="M77.4060974,96.3759995l7.8460846,0.5776443l0.0260315-0.3535309
		c0.4446259,0.2618713,0.8886032,0.5250092,1.3186264,0.8100739c0.178894,0.1186295,0.3601837,0.2425995,0.4873734,0.4154587
		c0.213295,0.2899628,0.174118,0.6980438-0.0691528,0.9620667c-0.2081833,0.2261505-0.5355301,0.2897949-0.8404465,0.3291473
		c-1.2510452,0.161087-2.5715714,0.107254-3.7010574-0.4542542c-0.3721695-0.1850357-0.7194443-0.4229889-1.1097183-0.5656967
		c-0.6354752-0.2323914-1.3392181-0.1950607-2.0033798-0.0661621c-0.3985977,0.077301-0.8000641,0.1869659-1.2041321,0.1472473
		c-0.4039917-0.0397873-0.822525-0.2723923-0.9368362-0.6619873c-0.0550919-0.1877136-0.0340729-0.3898392,0.0116043-0.580101
		C77.2763214,96.7479095,77.3395767,96.5613861,77.4060974,96.3759995z"/>
	<path class="st7" d="M79.6833572,93.5758438c0.1352692,0.3971405,0.2705383,0.794281,0.4058075,1.1914215
		c-0.3699112,0.2134781-0.8381958,0.2474289-1.2350311,0.0895462c-0.4317093-0.1717606-0.7087631-0.4798279-0.8551483-0.9176865
		c0.0056076,0.0891037-0.0055542,0.1783676-0.0191727,0.2666016c-0.0662918,0.4294662-0.2239456,0.8057938-0.3565521,1.2141724
		c-0.1157074,0.3563309-0.2722321,0.7171021-0.3602295,1.0829697c-0.0457611,0.190239-0.0667114,0.3923874-0.0116272,0.5801392
		c0.114296,0.3895798,0.5327682,0.6221924,0.936821,0.6619644c0.4040451,0.0397797,0.8055344-0.0698929,1.2041016-0.1472244
		c0.6641617-0.1288681,1.3679581-0.1661835,2.0033569,0.0661469c0.3903198,0.1427231,0.7376175,0.3806686,1.1097565,0.5656891
		c1.1294785,0.5615463,2.4500275,0.6153641,3.7010651,0.4542313c0.3048782-0.0392685,0.632225-0.1029739,0.840477-0.329071
		c0.2432251-0.2640686,0.2824478-0.6721573,0.0691071-0.9620895c-0.1272125-0.1728745-0.3084488-0.2968826-0.4873505-0.4154739
		c-0.5585709-0.3702545-1.1299133-0.7212296-1.712677-1.0521011c-0.7238159-0.4109573-1.4808655-0.8029099-2.0407562-1.4187927
		c-0.2695389-0.2964859-0.4844894-0.6368484-0.6743469-0.9884338c-0.1525269-0.2824631-0.177803-0.8110504-0.5990524-0.6890717
		C80.9531555,93.0166397,80.3359909,93.3734207,79.6833572,93.5758438z"/>
	<path class="st18" d="M80.0966873,94.7669525c0.1640396,0.3163834,0.3879318,0.6016083,0.656311,0.8360901"/>
	<path class="st35" d="M108.3649673,74.8495636l3.494873-7.0484543l-0.3175888-0.1574707
		c0.4102478-0.3129883,0.821434-0.6248932,1.2476578-0.9156036c0.1773529-0.1209183,0.3605576-0.2420502,0.5686264-0.294632
		c0.348999-0.08815,0.7121506,0.1020889,0.8648987,0.4269791c0.1308975,0.2781143,0.0663528,0.6052856-0.0122375,0.9025192
		c-0.3227615,1.2193756-0.8707809,2.4220276-1.8168945,3.2562332c-0.3117599,0.2748642-0.663147,0.5067139-0.9425354,0.8143234
		c-0.4549484,0.5008469-0.6858597,1.1666718-0.8170395,1.8303909c-0.0787811,0.3983078-0.1286697,0.8114777-0.317894,1.1707077
		c-0.1892471,0.3591309-0.5625534,0.6589966-0.9664917,0.6178818c-0.1946182-0.0197906-0.3738785-0.115509-0.5328598-0.2295837
		C108.6604385,75.1100464,108.5115585,74.981102,108.3649673,74.8495636z"/>
	<path class="st7" d="M106.6307983,71.6842117c0.4188232,0.0245438,0.8376541,0.0490875,1.2564774,0.0736313
		c0.0581589,0.4231186-0.087059,0.869606-0.3829803,1.1775589c-0.3219299,0.3350143-0.7117538,0.4753876-1.1724854,0.4457703
		c0.0846329,0.0284271,0.1630936,0.0724411,0.2396698,0.1183319c0.3727264,0.2234116,0.6617737,0.5113907,0.9899521,0.7882538
		c0.2863541,0.2415771,0.5614243,0.522644,0.8670578,0.7421646c0.1589203,0.1141357,0.3382263,0.2098007,0.5328827,0.2296143
		c0.4039154,0.0411148,0.7772141-0.2586823,0.9664764-0.6178741s0.2391586-0.7723846,0.317894-1.1706772
		c0.1312027-0.6637039,0.3621445-1.3295746,0.8170242-1.8303833c0.2794189-0.3076401,0.6307983-0.539505,0.9425354-0.8143539
		c0.9461441-0.8341827,1.4941635-2.0368576,1.8168793-3.2562485c0.0786438-0.2971649,0.1431427-0.6243591,0.0123138-0.9025192
		c-0.1528091-0.3248672-0.5159454-0.5151443-0.8649292-0.4269409c-0.2080917,0.052597-0.3913116,0.1736603-0.5686264,0.2946091
		c-0.5536194,0.3776169-1.0942001,0.7743454-1.6204681,1.1892242c-0.6536484,0.5153046-1.3022385,1.0685577-2.0838318,1.3547363
		c-0.3762665,0.1377792-0.7725677,0.2084503-1.1697922,0.2516403c-0.3191376,0.0346985-0.8181992-0.141304-0.864151,0.2948456
		C106.5919342,70.2972717,106.6895294,71.0034332,106.6307983,71.6842117z"/>
	<path class="st18" d="M107.8898239,71.7507629c0.3548889-0.0325623,0.7035065-0.1323166,1.021904-0.2924042"/>
	<path class="st11" d="M82.4019318,92.1578827l-5.083252,0.4703674l-1.122261-5.9249268l-2.3683167-12.5512924l-8.0951996-4.6128311
		c-1.9227257-0.9242706-4.3322906-3.3585663-4.9594498-6.6428909c-0.0660324-0.3712997-0.2558098-2.3352776-0.2805901-2.7314072
		l-0.8086777-1.9226761l10.1911812-3.4988861c0.2145615,0.2393417,0.4951553,0.4291191,0.7179718,0.6684113
		c0.0082092,0.0082588,0.0082092,0.0082588,0.0164719,0.0165176c0.0577698,0.0660324,0.3548279,0.3548317,0.585907,0.5776482
		c0.1485291,0.1485329,0.2723312,0.2723312,0.2723312,0.2970619c-0.0082626,0.0165176-0.0165176,0.0330391-0.0165176,0.049511
		c-0.0907593,0.3053169-0.181572,0.6106377-0.2805939,0.9242172c-0.0907593,0.2888489-0.1815186,0.5859108-0.2640686,0.8747101
		c0,0.0082588,0,0.0082588,0,0.0165176c0.7097092,0.7922096,2.0795135,2.5993958,3.5566025,4.5963631
		c0.5363998,0.7427025,1.0975342,1.5018692,1.6256714,2.2445221c0.5033569,0.6931839,0.9985046,1.3781128,1.4523544,2.0217438
		c0.2970657,0.4208603,0.577652,0.8169403,0.8416748,1.1882858c0.4538956,0.6436844,0.8499756,1.2048111,1.1470337,1.6256714
		c0.3713531,0.5280914,0.6106415,1.1305161,0.7179184,1.7658844c0.0165253,0.0413055,0.0165253,0.0908127,0.0247803,0.1320648
		l0.8829727,8.5077972L82.4019318,92.1578827z"/>
	<path class="st12" d="M76.3366928,86.7363129c0,0-0.0495148-0.0165176-0.140274-0.0329895l-2.3683167-12.5512924
		l-8.0951996-4.6128311c-1.9227257-0.9242706-4.3322906-3.3585663-4.9594498-6.6428909
		c-0.0660324-0.3712997-0.2558098-2.3352776-0.2805901-2.7314072l-0.8086777-1.9226761l10.1911812-3.4988861
		c0.2145615,0.2393417,0.4951553,0.4291191,0.7179718,0.6684113v0.0165176l-3.1357956,1.378067v1.1965485h-3.2677536
		l-2.4260902,1.7164307l0.7168694,3.0304451c0.3549614,1.5005379,1.2858391,2.8012657,2.591629,3.6213264l9.9194183,6.2295685
		L76.3366928,86.7363129z"/>
	<g>
		<g>
			<g>
				<path class="st5" d="M64.0689545,26.7641792c0,0,5.6831055,8.9803467-0.3777847,12.3596611
					s-2.2298546-4.6558609-2.2298546-4.6558609l-0.407341-3.6251583"/>
				<polygon class="st21" points="66.9309006,41.9036179 65.5859146,42.5273323 64.4833298,43.0421829 63.1880035,38.759552 
					65.0535583,38.2306061 65.2631912,38.6414604 				"/>
				<polygon class="st21" points="66.9309006,41.9036179 65.5859146,42.5273323 64.5668106,39.7449265 65.3520584,38.8152924 				
					"/>
				<path class="st3" d="M64.4340668,27.5237503l-0.469696,0.2796631l-0.3461227,0.2146072l-4.6591949,2.7947807
					l1.3630295,0.6505375c-0.0862694,0.9395046-0.1662674,1.8760471-0.2462273,2.8125706
					c-0.0590248,0.7500076-0.1024094,1.5004501-0.0708809,2.2468185c0.0124931,0.3247375-0.0181084,0.7387009,0.1009445,1.0446663
					c0.1044235,0.2743797,0.3149452,0.5455475,0.4412422,0.8174171c0.6475105,1.3442535,1.108326,2.7829285,1.3685722,4.2532234
					c0.1105499,0.6020737,0.1798019,1.2309837,0.0254631,1.8254013c-0.1254578,0.4580269-0.3776283,0.8749809-0.687397,1.2341003
					c-1.0880013,1.2818375-2.8209,1.886982-4.496788,1.9198914c-1.1797295,0.0253258-2.3864021-0.2059097-3.3657532-0.8578987
					s-1.6993256-1.7550087-1.6998024-2.9309387c-0.0044594-0.8204079,0.3270912-1.6124763,0.7128754-2.3374939
					c0.7226067-1.3734283,1.6674423-2.6656075,2.0010948-4.1812401c0.3731689-1.6953926-0.0513268-3.4199715-0.255619-5.1007881
					c-0.0606232-0.4946022-0.1086121-0.9950256-0.1035194-1.4970264c-0.0027771-0.3369446,0.0163345-0.676363,0.0666237-1.0149231
					c0.0994492-0.7457066,0.5267334-1.6129761,0.9010239-2.2634506c0.7688751-1.3565445,2.3068008-2.447649,3.8961525-2.6171436
					c0.2127266-0.0219231,0.4186935-0.0253639,0.6276016-0.0224762c0.1056633,0.0124245,0.2522202,0.0135002,0.4265823,0.0247402
					c0.4081001,0.0179844,0.9627151,0.0370617,1.5329704,0.0565701c1.1560287,0.0394993,2.3465996,0.0706463,2.3465996,0.0706463
					C65.8014526,25.4202652,64.4340668,27.5237503,64.4340668,27.5237503z"/>
				<g>
					<path class="st0" d="M64.6020737,29.3010101l0.1775665,3.2509499c0.028717,0.4566727-0.0098877,0.9109039-0.0959091,1.3536835
						c-0.0899506,0.443676-0.2314301,0.8769531-0.4315109,1.2879028c-0.2277298,0.4840927-0.604084,0.8641205-1.0605545,1.0887451
						c-0.0479355,0.024334-0.0934715,0.0392036-0.132946,0.0615501l0.0009689,0.0042381l0.0361748,0.6642952l0.246563,4.624836
						l-3.7169189,0.2039032l-0.2308655-4.1651878l-0.1293373-2.3978653
						c-0.1394539-0.0839272-0.2372627-0.1417084-0.2757454-0.1730347c-0.1694756-0.1572075-0.3067322-0.3485298-0.4144363-0.546608
						c-0.1648216-0.2919121-0.2572517-0.6182098-0.2724533-0.9577065l-0.0200043-0.4185371l-0.1517792-2.7490788
						l-0.1664581-3.0263844l5.0721436-0.2777138c0.4348488,0.1678696,0.7479134,0.4080563,0.9703865,0.6600933
						C64.6196747,28.4819145,64.6020737,29.3010101,64.6020737,29.3010101z"/>
				</g>
				<path class="st1" d="M58.2844658,33.1808586c0.1359787-0.1262817,0.2159843-0.3030777,0.2094955-0.4980202l-0.0946159-1.7726822
					c-0.0139351-0.1997433-0.1169548-0.3727722-0.2677307-0.477766L58.2844658,33.1808586z"/>
				<path class="st1" d="M63.0557938,36.3427696l0.0009689,0.0042381l0.036171,0.6642952
					c-0.6544571-0.1933441-1.2168808-0.5101662-1.7032433-0.9423561c-0.1242104-0.0562553-0.0636253-0.2393074,0.0675774-0.2114525
					C61.6090698,35.9564285,62.4381104,36.2122993,63.0557938,36.3427696z"/>
				<path class="st4" d="M62.860981,32.0555382l0.4247742,0.4712715c0.1110229,0.1231728,0.0997238,0.313385-0.0250931,0.4225502
					l-0.3348808,0.292881"/>
				<path class="st3" d="M58.0486145,31.0039959c0.883728-0.4765987,1.7674561-0.9531956,2.6511841-1.4297924
					c0.6604538-0.356184,1.3209038-0.712368,1.9813538-1.0685501c0.2553825-0.1377277,0.5107651-0.2754555,0.7661438-0.4131832
					c0.1443596-0.0778542,0.385685-0.1542225,0.5029831-0.2700291c0.1984558-0.1959267-0.0814171-0.6783428-0.215332-0.8804741
					c-0.1982536-0.2992439-0.4814453-0.5440445-0.8131752-0.6836777c-0.2699432-0.1136208-0.5628281-0.1608925-0.8538857-0.1934967
					c-0.983036-0.1101227-1.9835854-0.0623722-2.951664,0.1408672c-0.4290428,0.0900726-0.8600006,0.2142258-1.2232552,0.4596577
					s-0.6534424,0.6295853-0.6959572,1.0659142c-0.0363045,0.3725853,0.1074448,0.7395,0.2855606,1.0687599
					c0.227066,0.4197464,0.5333366,0.7975273,0.5445328,1.2861576
					C58.0341148,30.3921013,58.0414467,30.6980457,58.0486145,31.0039959z"/>
				<path class="st0" d="M58.3945427,30.74576l0.0967026,1.7709255c0.0190163,0.3482018-0.2475777,0.6455956-0.5957832,0.664608
					c-0.3481979,0.0190163-0.6455879-0.2475815-0.6646042-0.595787l-0.0967026-1.7709217
					c-0.0095062-0.1741028,0.0525436-0.3348923,0.1600838-0.4553661c0.1080551-0.1200199,0.2616234-0.1992359,0.4357262-0.2087421
					C58.078167,30.1314621,58.3755569,30.3980579,58.3945427,30.74576z"/>
				<g>
					<path class="st1" d="M57.45504,30.7412643l0.0461235,0.5915279l0.5618896,0.2104626l-0.0658302-0.844265
						c-0.0115318-0.1478806-0.1443481-0.2614841-0.2922287-0.2499523
						C57.5571136,30.4605675,57.443512,30.5933838,57.45504,30.7412643z"/>
					<path class="st1" d="M58.1082115,32.1224442l-0.5594711-0.179472l0.0432358,0.5545177
						c0.0115318,0.1478806,0.1443481,0.2614861,0.2922287,0.2499542s0.2614861-0.1443481,0.2499542-0.2922287L58.1082115,32.1224442
						z"/>
				</g>
				<g>
					<path class="st5" d="M62.8059845,34.0271072c-0.0128403-0.010273-0.0275192-0.0201874-0.0421829-0.030098
						c-0.3757324-0.2525864-0.8971519-0.0434341-1.2285995,0.2053452l-0.0002098,0.0008087
						c-0.0636063,0.0480423-0.1197205,0.097187-0.1669159,0.1452255c-0.0494308,0.0500374-0.0881195,0.0985832-0.1141701,0.1418304
						c-0.0181885,0.0297737-0.0024681,0.0684471,0.0314522,0.0773697l1.5961456,0.4199333
						c0.0226021,0.0059433,0.046833-0.0040855,0.0582314-0.0244064
						C63.0130577,34.8321266,63.2335091,34.3520432,62.8059845,34.0271072z"/>
					<path class="st45" d="M62.5890884,34.9105873l0.0240173-0.0912857c0.0195465-0.0743065-0.024498-0.149807-0.0979996-0.1691437
						l-1.1470299-0.3017693c-0.0494308,0.0500374-0.0881195,0.0985832-0.1141701,0.1418304
						c-0.0181885,0.0297737-0.0024681,0.0684471,0.0314522,0.0773697L62.5890884,34.9105873z"/>
				</g>
				<path class="st21" d="M70.593338,55.4282684l-3.4823685,0.3465691l-0.5693893,0.7592201l-2.1867905,0.3630905
					l-4.7366371,2.3270645l-0.5033569,0.247551l-3.185257-12.2954826l-0.0412521-0.3630905l-0.6766663-6.4117622
					l4.2497444-1.4936562c0,0-0.049511,0.9985085,1.8319664,2.0877762c2.0382156,1.1882896,1.8979454-2.2363052,1.8979454-2.2363052
					l0.973732,0.6931877l3.6226349,2.5993958l1.1965485,0.8581886c0.0990219,0.0990219,0.1815186,0.19804,0.2640686,0.2970619
					c1.9804459,2.3765755,0.4785767,4.3735428,0.0577164,4.8521729c-0.065979,0.0660286-0.0990143,0.1072807-0.0990143,0.1072807
					l0.2145538,1.3698082l0.4373856,2.690155l0.4621048,1.9970169L70.593338,55.4282684z"/>
				<path class="st20" d="M59.6181526,59.2242126l-0.5033569,0.247551l-3.185257-12.2954826l-0.0412521-0.3630905
					l0.5693893-0.247551c0,0,1.0249405-0.8012466,1.952301-1.5152168c0.3647423-0.2808113,0.8568344,0.1296616,0.6456566,0.5386772
					c-0.7647095,1.4811325-1.7892761,3.4356194-1.7892761,3.4356194S59.0157738,56.4597664,59.6181526,59.2242126z"/>
				<path class="st23" d="M70.3210068,54.2235107L59.684185,57.7306061c0,0-1.9227295-9.1019669-1.9227295-9.341259
					c0.0165215-0.0990181,8.037426-3.6556244,11.486805-5.1822701c1.9804459,2.3765755,0.4785767,4.3735428,0.0577164,4.8521729
					c-0.065979,0.0660286-0.0990143,0.1072807-0.0990143,0.1072807l0.2145538,1.3698082l0.4373856,2.690155L70.3210068,54.2235107z"
					/>
				<line class="st33" x1="69.2035675" y1="48.1693649" x2="67.9026108" y2="48.3913765"/>
			</g>
		</g>
	</g>
	<path class="st0" d="M56.8641434,47.095047l-0.9351883,1.5233498l-2.5521774,4.1479797l-0.9292297-0.3977699l-2.8549652-1.233429
		l0.2194977-0.4111137c0,0,0,0,0.0051765-0.0027275l1.2167053-2.2558632l1.2016907-2.2341537l0.5084496-0.9413185
		L56.8641434,47.095047z"/>
	<path class="st0" d="M53.3011246,50.9913406c0.1176529,0.2611542,0.1703987,0.549633,0.1445961,0.8519249
		c-0.0110626,0.1295586-0.0193176,0.2645187-0.0298538,0.4075623c-0.0124321,0.1646385-0.0271835,0.3374252-0.0390892,0.5155487
		c-0.3184853,3.749157-1.1630173,10.1881332-1.2215614,10.6039124l-0.0018616,0.0215797l0.6882057,1.1570511l1.3502541,1.0973358
		c0.09235,0.0751343,0.1438408,0.185524,0.1529884,0.2906876c-0.0003777,0.0620804-0.0035744,0.1187286-0.0199471,0.1754761
		c-0.0866547,0.2243423-0.346714,0.3199692-0.5568275,0.196846l-1.3167038-0.7575455l-0.0061874,2.0586929
		c-0.0021439,0.3723755-0.3457031,0.6356812-0.7025757,0.53479l-1.6861153-0.4806366l-0.1252251-0.0371933
		c-0.2264709-0.0664291-0.3971977-0.2652893-0.4192581-0.5080261l-0.3016357-2.6185303l0.2758446-1.5337791
		c0,0,0.0323067-7.743824,0.0318413-11.4214096c-0.0026054-0.1429672,0.0239716-0.2807274,0.0745697-0.41045l0.2194977-0.4111137
		c0,0,0,0,0.0051765-0.0027275c0.442749-0.5767365,1.2990685-0.944931,2.0037231-0.8483353l0.0503693,0.0078545
		C52.5228004,49.9642067,53.058197,50.404232,53.3011246,50.9913406z"/>
	<path class="st1" d="M55.9289551,48.6183968l-2.5521774,4.1479797c-0.3184853,3.749157-1.1630173,10.1881332-1.2215614,10.6039124
		l0.2923317-11.0016823l0.8535767-1.3772659l0.3087578-0.4924965l-2.5759201-2.033371l1.2016907-2.2341537L55.9289551,48.6183968z"
		/>
	<path class="st21" d="M58.7929535,44.189064l-2.5498352,4.8191833l-0.9902496,1.8814278l-1.5018692-0.8581886l-3.2017746-1.8484383
		l0.3053207-0.5693893l2.2610359-4.2910423l0.9819908-1.8401794c0.6601982-1.2708359,2.2280464-1.708168,3.4906235-0.981987
		l0.1402702,0.0742378C58.9909935,41.300869,59.4613647,42.9265366,58.7929535,44.189064z"/>
	<path class="st47" d="M142,128.3346558c0,0.3713989-0.3715057,0.7179108-1.0564728,1.0314941
		c-0.9819489,0.4620667-2.5993042,0.866394-4.6538391,1.1800842c-0.1732635,0.0247803-0.3465118,0.0494537-0.528244,0.074234
		c-0.2804413,0.0411987-0.5693359,0.0742493-0.8662872,0.1072845c-0.0249939,0.008255-0.0495605,0.008255-0.0826111,0.0165253
		c-0.4291229,0.0494537-0.8747559,0.0990143-1.3284607,0.140213h-0.0249786
		c-0.2969513,0.0247803-0.5939178,0.0578156-0.8993378,0.0743408c-0.4125977,0.0330353-0.8336487,0.074234-1.2627716,0.0907593
		c-0.2719879,0.0164185-0.5528259,0.0329437-0.8332672,0.0411987c-0.140213,0.0165253-0.280426,0.0165253-0.421051,0.0247803
		c-1.221283,0.0578156-2.4917145,0.0907593-3.8040543,0.0907593c-0.1156464,0-0.2393417,0-0.3549881-0.0081635
		c-0.131752,0.0081635-0.2719727,0.0081635-0.4041367,0c-0.1732559,0-0.3465195,0-0.5117188-0.008255
		c-1.09758-0.008255-2.1617126-0.0495605-3.1932144-0.1073761c-0.0991211-0.0082703-0.1982422-0.0082703-0.2888947-0.0165253
		c-0.4786835-0.0246735-0.9573593-0.057724-1.4110641-0.0989227c-0.1817169-0.008255-0.3549805-0.0247803-0.5282364-0.0412903
		c-0.3134766-0.0247803-0.6273651-0.0578308-0.9243164-0.0825043c-3.2182007-0.3301086-5.7433548-0.8417206-7.0802765-1.4771423
		c-0.6849747-0.3218384-1.056076-0.6683502-1.056076-1.0314941c0-1.0480194,3.1025543-1.9722366,7.7322083-2.4590759
		c0.2389374-0.0247803,0.4867401-0.0494614,0.7341385-0.0742416c0.2312851-0.0247803,0.4621582-0.0495605,0.7014999-0.0660782
		c0.4210587-0.0413055,0.8582382-0.0742416,1.3038788-0.0907593c0.0660782-0.0082626,0.132164-0.0164261,0.1982422-0.0164261
		c0.8662949-0.0578156,1.7821579-0.1073761,2.7229919-0.1238937c0.5693436-0.0165253,1.1471405-0.0246811,1.7410583-0.0246811
		c0.132164-0.0082626,0.263916-0.0082626,0.39608-0.0082626h0.2228241c0.1732559,0,0.3384552,0,0.5117188,0.0082626
		c0.0330353,0,0.0660782,0,0.0906601-0.0082626c0.0580215,0,0.1071777,0,0.1651993,0.0082626h0.2393417
		c0.1152344,0,0.2393341,0,0.3545761,0.0081558c0.0825958-0.0081558,0.1571426-0.0081558,0.2393341,0c0,0,0,0,0.0084686,0
		c0.4536972,0.0082626,0.9077988,0.0165253,1.3365097,0.0247803c0.0991211,0.0082626,0.1901855,0.0082626,0.280838,0.0082626
		c0.0245819,0.0165176,0.0576324,0.0165176,0.0826111,0.0165176h0.0410919
		c0.9488983,0.0330429,1.8567047,0.0908585,2.7395172,0.1650009c0.4125977,0.0247803,0.8086853,0.0495605,1.2132263,0.0991211
		c0.1732483,0.0082626,0.3465118,0.0247803,0.5117188,0.0494614c0.3960724,0.0412979,0.7836914,0.0824966,1.1551971,0.1320572
		c0.0495605,0.0082626,0.0906525,0.0082626,0.140213,0.0165176c0.3219452,0.0413055,0.6273651,0.0825043,0.9243164,0.123703
		c0.123703,0.0165176,0.247406,0.0412979,0.371109,0.0578156C139.9204865,126.7007751,142,127.4765167,142,128.3346558z"/>
	<path class="st5" d="M140.9415436,129.3661194c-1.0645447,0.5033569-2.8717194,0.9324341-5.1822662,1.2542725
		c-0.717926,0.0990143-1.4770966,0.1898193-2.2775574,0.2640686h-0.0247345
		c-0.2971191,0.0247803-0.5941772,0.0577698-0.8994904,0.0742798c-0.4125977,0.0329895-0.8334656,0.0742493-1.2625275,0.0907593
		c-1.5926819,0.0990295-3.2925873,0.1567993-5.0584717,0.1567993c-0.4291229,0-0.8582458,0-1.2708435-0.0165253
		c-1.0974731-0.008255-2.1620178-0.0495148-3.193512-0.1072845c-0.7674332-0.0329895-1.5183411-0.0907593-2.2280502-0.1567841
		c-3.6556244-0.3135834-6.5438232-0.8664398-8.0043869-1.5595856c1.3863297-0.651947,4.0351868-1.1800842,7.4102707-1.4936066
		c0.7014008-0.074295,1.4440994-0.1320648,2.2032623-0.1733093c0.8664551-0.0577698,1.7824631-0.1072845,2.7231522-0.1238022
		c0.7674789-0.0247269,1.5513763-0.0329895,2.3601074-0.0329895c0.1732559,0,0.3383026,0,0.5116196,0.0082626
		c0.0907593-0.0082626,0.1732559-0.0082626,0.255806,0c0.1897812,0,0.39608,0,0.5941162,0.008255
		c0.08255-0.008255,0.1567917-0.008255,0.2393417,0c0,0,0,0,0.0082092,0
		c0.4538956,0.0082092,0.907753,0.0164719,1.3368759,0.0247345c0.0990143,0.008255,0.1897736,0.008255,0.2805328,0.008255
		c0.0247803,0.0082626,0.0577698,0.0082626,0.0825043,0.0082626h0.0412903
		c0.9489594,0.0412521,1.8567047,0.0990219,2.7396698,0.1732559c0.4125977,0.0247803,0.8086853,0.0495148,1.213028,0.0990753
		c0.1733093,0.0082092,0.3465576,0.0247269,0.5116119,0.0495071c0.7922058,0.0824966,1.5348511,0.1732559,2.2197876,0.2722855
		C138.3338928,128.4996185,139.959549,128.904007,140.9415436,129.3661194z"/>
	<g>
		<path class="st14" d="M134.2398224,127.4028625v0.2776489c-0.0185242,1.0366058-0.2406464,2.0176849-0.629364,2.9247437
			c-0.0370026,0.0925446-0.083313,0.1850739-0.1295776,0.2776642h-0.0277405
			c-0.2961884,0.0277252-0.5923615,0.0555267-0.8978119,0.0740509c-0.4072418,0.0370026-0.8329468,0.0740051-1.258728,0.0925293
			c-1.5919495,0.1018066-3.2949219,0.1573334-5.0627441,0.1573334c-0.4257126,0-0.8514862,0-1.2679901-0.0184784
			c-1.1013947-0.0092621-2.165741-0.0463257-3.1930771-0.1018524c-0.768219-0.0370026-1.5179062-0.0925293-2.2305908-0.1573181
			c-0.0092621-0.0185394-0.0185318-0.0278015-0.0277328-0.0462646c-0.0463257-0.0925903-0.0925903-0.1851196-0.1295929-0.2776642
			c-0.38871-0.9070587-0.6108932-1.8881378-0.629364-2.9247437v-0.2776489
			c0.0092621-0.5460968,0.0740051-1.0828705,0.1943283-1.6011734c0.1018524-0.4535599,0.2499161-0.8978043,0.4350357-1.3235168
			c0.0370026-0.0925903,0.0832672-0.1851196,0.1203232-0.27771c0.5645676-1.1661911,1.4067917-2.1750031,2.4434509-2.9246902
			c0.1387939-0.101799,0.2683868-0.1943893,0.4164505-0.2776566c1.193985-0.7682114,2.6100311-1.2032471,4.137207-1.2032471
			h2.1472626v0.3054428c0.7126312,0.2036514,1.3790436,0.5090408,1.9898834,0.8978043
			c0.138855,0.0832672,0.2776489,0.1758575,0.4072418,0.2776566c1.0366058,0.7496872,1.8788757,1.7584991,2.4434509,2.9246902
			c0.0370026,0.0925903,0.083313,0.1851196,0.1203156,0.27771c0.1851196,0.4349747,0.342453,0.8977509,0.4442444,1.3697815
			C134.1657715,126.3477249,134.2305603,126.8752975,134.2398224,127.4028625z"/>
		<g>
			<g>
				<path class="st15" d="M131.0492249,121.2765045h-9.1003265c0.1344376-0.1008301,0.2717514-0.1932678,0.4118042-0.280098
					h8.2767944C130.7775421,121.0832367,130.9147797,121.1756744,131.0492249,121.2765045z"/>
			</g>
			<g>
				<path class="st15" d="M133.6121521,124.4780045h-14.2261047c0.0391846-0.0952377,0.0812378-0.1876602,0.1232224-0.280098
					h13.9767838C133.5309143,124.2903442,133.5728912,124.3827667,133.6121521,124.4780045z"/>
			</g>
			<g>
				<path class="st15" d="M134.2423553,127.5394516c0,0.0476151,0,0.0952454-0.0027924,0.1400528h-15.4809341
					c-0.0028-0.0448074-0.0028-0.0924377-0.0028-0.1400528c0-0.0476074,0-0.0952377,0.0028-0.1400452h15.4809341
					C134.2423553,127.4470139,134.2423553,127.4918442,134.2423553,127.5394516z"/>
			</g>
			<g>
				<path class="st15" d="M133.6104584,130.6052551c-0.0370026,0.0925446-0.083313,0.1850739-0.1295776,0.2776642h-13.9664154
					c-0.0463257-0.0925903-0.0925903-0.1851196-0.1295929-0.2776642H133.6104584z"/>
			</g>
		</g>
		<path class="st15" d="M136.3963623,127.5417175c0,1.1013947-0.2313843,2.1380005-0.6386261,3.082016
			c-0.7126923,0.0925903-1.4716492,0.1851196-2.2768555,0.2591858h-0.0277405
			c-0.2961884,0.0277252-0.5923615,0.0555267-0.8978119,0.0740509c-0.4072418,0.0370026-0.8329468,0.0740051-1.258728,0.0925293
			c-1.5919495,0.1018066-3.2949219,0.1573334-5.0627441,0.1573334c-0.4257126,0-0.8514862,0-1.2679901-0.0184784
			c-1.1013947-0.0092621-2.165741-0.0463257-3.1930771-0.1018524c-0.037056-0.0740051-0.0740585-0.1387939-0.1111145-0.2035828
			c-0.0370026-0.0925903-0.0832672-0.1851196-0.1202698-0.2776642c-0.3887711-0.8977966-0.6108932-1.8881378-0.6294174-2.9247437
			v-0.2776489c0.0092621-0.6108322,0.0925827-1.2031937,0.2406464-1.7770309
			c0.1018524-0.3979721,0.2313843-0.7774811,0.379509-1.1476593c0.0462646-0.0925903,0.0925293-0.1851196,0.1295319-0.27771
			c0.564621-1.1661911,1.4068375-2.1750031,2.4434433-2.9246902c0.1295929-0.101799,0.2684479-0.1943893,0.4072418-0.2776566
			c1.193985-0.7589493,2.6100388-1.2032471,4.137207-1.2032471c3.7947083,0,6.9508362,2.7303619,7.6172028,6.3307419
			C136.3500977,126.5883789,136.3963623,127.0604172,136.3963623,127.5417175z"/>
		<path class="st14" d="M133.8418427,127.5417175c0,0.0462646,0,0.0925293-0.0092621,0.1387939
			c-0.0185242,1.0921326-0.3887024,2.1009979-0.9996033,2.9247437c-0.0555267,0.0925446-0.1295319,0.1850739-0.2128448,0.2776642
			c-0.0185394,0.0277252-0.0370026,0.0555267-0.0648041,0.0740509c-0.4072418,0.0370026-0.8329468,0.0740051-1.258728,0.0925293
			c-1.5919495,0.1018066-3.2949219,0.1573334-5.0627441,0.1573334c-0.4257126,0-0.8514862,0-1.2679901-0.0184784
			c-0.1110611-0.1018524-0.2035904-0.2036438-0.2776489-0.3054352c-0.0832672-0.0833282-0.1573257-0.1758575-0.2221222-0.2776642
			c-0.6108322-0.8237457-0.9810715-1.8326111-0.9996033-2.9247437c-0.0092621-0.0462646-0.0092621-0.0925293-0.0092621-0.1387939
			c0-0.0463257,0-0.0925903,0.0092621-0.138855c0.0092621-0.6756287,0.1573868-1.3142548,0.4072418-1.8973541
			c0.1481171-0.3702393,0.3517075-0.7126846,0.5923615-1.0273361c0.0647964-0.0925903,0.138855-0.1943893,0.2221222-0.27771
			c0.8237457-0.9995499,2.0176773-1.6659698,3.368988-1.8232956c0.1943817-0.0185242,0.3979797-0.037056,0.5923615-0.037056
			c1.5919037,0,3.0264893,0.7219543,3.9705658,1.8603516c0.083313,0.0925903,0.1573181,0.1851196,0.2128448,0.27771
			c0.3054504,0.3979721,0.5368347,0.8422165,0.7034302,1.3235168c0.1851196,0.4997711,0.286911,1.0366058,0.2961731,1.6011734
			C133.8418427,127.4491272,133.8418427,127.4953918,133.8418427,127.5417175z"/>
		<path class="st17" d="M132.6663971,127.5417175c0,0.0462646,0,0.0925293-0.0092621,0.1387939
			c-0.0184784,1.0921326-0.3887177,2.1009979-0.9995575,2.9247437c-0.0647888,0.1018066-0.138855,0.1943359-0.2221222,0.2776642
			c-0.0370483,0.0555267-0.083313,0.1110535-0.138855,0.1665802c-1.5919495,0.1018066-3.2949219,0.1573334-5.0627441,0.1573334
			c-0.4257126,0-0.8514862,0-1.2679901-0.0184784c-0.1110611-0.1018524-0.2035904-0.2036438-0.2776489-0.3054352
			c-0.0832672-0.0833282-0.1573257-0.1758575-0.2221222-0.2776642c-0.6108322-0.8237457-0.9810715-1.8326111-0.9996033-2.9247437
			c-0.0092621-0.0462646-0.0092621-0.0925293-0.0092621-0.1387939c0-0.0463257,0-0.0925903,0.0092621-0.138855
			c0.0092621-0.6756287,0.1573868-1.3142548,0.4072418-1.8973541c0.1481171-0.3702393,0.3517075-0.7126846,0.5923615-1.0273361
			c0.0647964-0.0925903,0.138855-0.1943893,0.2221222-0.27771c0.8237457-0.9995499,2.0176773-1.6659698,3.368988-1.8232956
			c1.3513184,0.1573257,2.5545044,0.8237457,3.3782501,1.8232956c0.0832672,0.0833206,0.1573334,0.1851196,0.2221222,0.27771
			c0.2776489,0.3701782,0.5090485,0.7866898,0.6663666,1.2216644c0.2036438,0.527565,0.3239746,1.1014023,0.3331909,1.7030258
			C132.6663971,127.4491272,132.6663971,127.4953918,132.6663971,127.5417175z"/>
		<g>
			<path class="st14" d="M129.7215729,128.5954285c0,0.6806183-0.4733429,1.3192291-1.3612366,1.4648895v0.8963165h-0.5433655
				v-0.8710938c-0.4986496-0.0084229-1.0167847-0.1624603-1.3165054-0.3781433l0.2044601-0.5769958h0.246521
				c0,0,0.0056076,0.0700226,0.0084152,0.1456451c0.2800903,0.1316376,0.6246033,0.2240753,0.985939,0.2240753
				c0.6134033,0,1.0251312-0.3529205,1.0251312-0.8430939c0-0.4733582-0.3361053-0.7674561-0.9719238-1.0251389
				c-0.8795395-0.3445282-1.4229126-0.7422638-1.4229126-1.4929199c0-0.714241,0.5097961-1.2576294,1.3024216-1.3864746v-0.8682938
				h0.5322189v0.8346786c0.5181427,0.0168076,0.8711395,0.1540527,1.1203918,0.3025131l-0.0952606,0.2464828
				c0.0420532,0.0952225,0.1260986,0.3221054,0.1260986,0.3221054h-0.246521
				c-0.1792297-0.1036377-0.5321503-0.2940979-1.0839386-0.2940979c-0.6638565,0-0.9131851,0.397728-0.9131851,0.7422562
				c0,0.4481506,0.3193512,0.672226,1.0671768,0.9803391C129.2734528,127.3797989,129.7215729,127.8279648,129.7215729,128.5954285z
				"/>
		</g>
		<g>
			<path class="st15" d="M129.6491089,127.6805115c-0.0832672-0.1017914-0.1850586-0.1943283-0.3053894-0.2776489
				c-0.1851196-0.138855-0.425766-0.2683868-0.712677-0.3794479c-0.7496948-0.3147125-1.0643997-0.5368347-1.0643997-0.9903412
				c0-0.1943817,0.0833206-0.4072418,0.2684402-0.5460968c0,0,0,0,0.0092697,0
				c0.1203232-0.1017914,0.2869186-0.1758499,0.5090408-0.1851196c0.0369873-0.0092621,0.0740509-0.0092621,0.1203156-0.0092621
				c0.4627686,0,0.7866974,0.138855,0.9903412,0.2313843c0.0370026,0.0277939,0.0740051,0.0463257,0.1017914,0.0647964
				l0.0185394-0.0555267l0.1943207-0.5090408c-0.2499084-0.1480637-0.6015625-0.2869186-1.119873-0.3054428v-0.8329544h-0.5368347
				v0.8700104c-0.5182953,0.0832672-0.916275,0.3424454-1.1199188,0.7218933
				c-0.1203232,0.1943893-0.1758575,0.4165039-0.1758575,0.66642c0,0.592308,0.3331833,0.9625473,0.9162827,1.258728
				c0.1481171,0.0833206,0.3147049,0.1573257,0.4998245,0.2313843c0.0370026,0.0185318,0.0647888,0.0277405,0.1017914,0.0462646
				c0.5738373,0.240654,0.8700256,0.5275726,0.8700256,0.971817c0,0.4905548-0.4072418,0.851532-1.0180817,0.851532
				c-0.0463257,0-0.0925903,0-0.1295929-0.0092621c-0.4350281-0.0185242-0.8330078-0.1758575-1.1106567-0.3609772
				l-0.2128601,0.5738373c0.3053894,0.2128601,0.8236923,0.3702393,1.3235168,0.3795013v0.8700104h0.5367737v-0.8978119
				c0.8885498-0.148056,1.3605804-0.7866821,1.3605804-1.4623718
				C129.9638214,128.2266083,129.86203,127.9304276,129.6491089,127.6805115z"/>
		</g>
	</g>
	<path class="st13" d="M81.1558762,80.250267l-3.7051392,4.7696228l-0.4868851-12.9225922l-10.8854446-6.4032135
		c-0.4044418-0.2379074-0.7375107-0.5801468-0.9643326-0.9909058L64.629631,63.825901
		c-0.7628746-1.3814926-0.1390533-3.118885,1.3283615-3.6995773l2.4124832-0.9546776
		c1.6677704,1.1948357,9.2783051,8.7666626,10.0126953,9.0472031c0.4538956,0.6436844,0.8499756,1.2048111,1.1470337,1.6256714
		c0.3713531,0.5280914,0.6106415,1.1305161,0.7179184,1.7658844c0.0165253,0.0413055,0.0165253,0.0908127,0.0247803,0.1320648
		L81.1558762,80.250267z"/>
	<line class="st85" x1="76.1273193" y1="64.3894348" x2="69.232338" y2="58.3698158"/>
	<polygon class="st23" points="56.2431183,49.0082474 55.2528687,50.8896751 53.7509995,50.0314865 	"/>
	<path class="st23" d="M72.367485,42.1673164l-0.734436,1.6421394l-1.3120422-1.4688301l0.9654694-0.9159584
		c0.2640686,0.1815186,0.5198822,0.3630905,0.7674332,0.5280914C72.1611862,42.0270462,72.2602081,42.0930786,72.367485,42.1673164z
		"/>
	<g>
		<path class="st14" d="M109.7510452,87.5891495c0.6992645,2.6387558-0.0165558,5.318634-1.677597,7.2403717
			c-0.1388397,0.1585312-0.2859268,0.3122635-0.4370346,0.4636002c-0.6813202,0.6709442-1.4914627,1.2229767-2.4056244,1.6182556
			c0.0389404,0.0418549,0.0679245,0.0724258,0.0679245,0.0724258l-1.0895386,0.2852402l-0.2242126,0.0594177
			c-0.031662,0.0118713-0.0682297,0.0180817-0.1016235,0.0234451c-1.3028412,0.3069992-2.6130295,0.271637-3.8316727-0.048851
			c-0.2055206-0.0533524-0.406105-0.1149597-0.606102-0.1871796c-0.8703003-0.3049622-1.6832733-0.7607574-2.3967438-1.3403168
			c-0.1063232-0.0865784-0.2063065-0.1748581-0.3071518-0.2663956c-0.5210571-0.4705582-0.9804459-1.0096054-1.3632889-1.6141815
			c-0.0641174-0.0977859-0.125061-0.1963882-0.1803665-0.2999878c-0.3183594-0.5451431-0.5728989-1.1384964-0.7555542-1.7752304
			c-0.0169525-0.0511475-0.0315933-0.1063995-0.0462341-0.161644c-0.0146408-0.0552368-0.0284195-0.1072464-0.0398865-0.1633224
			c-0.155777-0.6403961-0.2316437-1.2810822-0.225029-1.9123306c-0.0000839-0.1182404,0.0008545-0.2332611,0.0081406-0.3499527
			c0.0332031-0.7148209,0.1652069-1.4105911,0.3850098-2.0774689c0.0421219-0.1294174,0.087738-0.2597656,0.138092-0.3843842
			c0.3319778-0.8600769,0.8100739-1.6545258,1.4119644-2.3496323c0.1379929-0.1617661,0.2850723-0.3154984,0.4370422-0.4636078
			c0.9482346-0.936409,2.1484909-1.6439972,3.5296097-2.0099869c0.0453796-0.0120316,0.0909195-0.0240936,0.1373215-0.0329132
			c-0.0008621-0.0032501-0.0008621-0.0032501-0.0008621-0.0032501l0.8676453-0.2299271l0.0449677,0.0645905
			c1.0297394-0.1302719,2.0476913-0.0557175,3.0093918,0.200676c0.2053757,0.0534134,0.4061127,0.114975,0.606102,0.1871796
			C107.1019287,82.9734497,109.0517883,84.9503937,109.7510452,87.5891495z"/>
		<g>
			<g>
				<path class="st15" d="M104.7057343,82.1337891l-8.631218,2.2872391
					c0.1379929-0.1617661,0.2850723-0.3154984,0.4370422-0.4636078l7.5880737-2.0108109
					C104.3050079,82.0000229,104.5057449,82.0615845,104.7057343,82.1337891z"/>
			</g>
			<g>
				<path class="st15" d="M105.7407227,83.8349838l0.0861206,0.3249741l-11.3023834,2.9950867
					c0.0421219-0.1294174,0.087738-0.2597656,0.138092-0.3843842L105.7407227,83.8349838z"/>
			</g>
			<g>
				<path class="st15" d="M106.315979,86.0057831l0.086113,0.3249664l-12.2707825,3.2517166
					c-0.0000839-0.1182404,0.0008545-0.2332611,0.0081406-0.3499527L106.315979,86.0057831z"/>
			</g>
			<g>
				<path class="st15" d="M106.8903656,88.1733246l0.0861206,0.3249664l-12.5340271,3.3214722
					c-0.0169525-0.0511475-0.0315933-0.1063995-0.0462341-0.161644c-0.0146408-0.0552368-0.0284195-0.1072464-0.0398865-0.1633224
					L106.8903656,88.1733246z"/>
			</g>
			<g>
				<path class="st15" d="M107.4656219,90.3441162l0.086113,0.3249741l-12.1733551,3.2258911
					c-0.0641174-0.0977859-0.125061-0.1963882-0.1803665-0.2999878L107.4656219,90.3441162z"/>
			</g>
			<g>
				<path class="st15" d="M108.0408707,92.5149155l0.0861206,0.3249664l-11.0781708,2.9356766
					c-0.1063232-0.0865784-0.2063065-0.1748581-0.3071518-0.2663956L108.0408707,92.5149155z"/>
			</g>
			<g>
				<path class="st15" d="M108.0734482,94.8295212c-0.1388397,0.1585312-0.2859268,0.3122635-0.4370346,0.4636002
					l-7.5847473,2.0099335c-0.2055206-0.0533524-0.406105-0.1149597-0.606102-0.1871796L108.0734482,94.8295212z"/>
			</g>
		</g>
		<path class="st15" d="M104.2081604,97.2709198c-0.0316696,0.011879-0.0673676,0.0213394-0.0998993,0.029953
			c-0.0422058,0.0111847-0.0812454,0.0215302-0.1243134,0.0294647L104.2081604,97.2709198z"/>
		<circle class="st15" cx="103.3190994" cy="89.295105" r="7.9414105"/>
		<circle class="st16" cx="103.3190994" cy="89.295105" r="6.8070588"/>
		<path class="st15" d="M103.9839478,97.3303375l-0.1007614,0.0267029l-0.0008621-0.0032578
			C103.9157181,97.3484192,103.9522858,97.3422089,103.9839478,97.3303375z"/>
		<path class="st14" d="M106.0625,90.2689667c0.2601776,0.9818192-0.1785126,2.0839615-1.4036179,2.6334763l0.3426208,1.2929382
			l-0.7838135,0.2077103l-0.3329849-1.2565689c-0.7225189,0.1784821-1.5288315,0.1543274-2.0436249-0.0422211l0.074379-0.9104843
			l0.3556061-0.0942307c0,0,0.0348587,0.0988617,0.0678101,0.2068939c0.454361,0.0828171,0.9866638,0.084465,1.5078964-0.0536652
			c0.8848267-0.2344742,1.3438492-0.9009552,1.1564713-1.6080322c-0.1809464-0.6828308-0.7781982-0.9785919-1.7938843-1.107254
			c-1.400444-0.1607742-2.3363037-0.5268021-2.6232452-1.6096268c-0.2730255-1.030304,0.2546387-2.0090179,1.3487625-2.497879
			l-0.3319168-1.2525177l0.7677383-0.2034454l0.3190689,1.2040329c0.7538376-0.1738205,1.3154984-0.1107788,1.7318039,0.0080948
			l-0.04319,0.3919678c0.0970688,0.1212845,0.3050232,0.4164352,0.3050232,0.4164352l-0.3556061,0.0942383
			c-0.2981567-0.080986-0.8800659-0.2208176-1.6760178-0.0098953c-0.9576263,0.2537689-1.1652374,0.9228058-1.0335388,1.4197922
			c0.1713104,0.6464615,0.7176285,0.8476105,1.9141693,1.0062103
			C104.9514084,88.6867065,105.7691269,89.1618958,106.0625,90.2689667z"/>
		<path class="st17" d="M104.5732651,94.3091278l-0.3326569-1.2553329c-0.7241821,0.1786041-1.5292053,0.152504-2.0465622-0.0429459
			l0.0776215-0.9117966c0.5264893,0.1797256,1.2353821,0.244606,1.9314041,0.0601654
			c0.8824615-0.2338486,1.344017-0.901535,1.1562805-1.6099854c-0.1811523-0.6836014-0.7778702-0.9777374-1.7964249-1.1068726
			c-1.3995056-0.1612091-2.3340454-0.525444-2.6205902-1.6067734c-0.2733765-1.0316086,0.2524414-2.0089645,1.3465042-2.4984131
			l-0.3326569-1.2553329l0.7705994-0.2042007l0.3194809,1.2056122c0.752327-0.17276,1.314621-0.1089325,1.7310486,0.0068436
			l-0.093338,0.9026566c-0.3005371-0.0799866-0.8825836-0.2183838-1.6780472-0.0075912
			c-0.9570313,0.2536163-1.1659698,0.9208603-1.0342178,1.4180222c0.1712646,0.6463089,0.716774,0.8476028,1.9166718,1.0084991
			c1.4185257,0.1827774,2.2360992,0.657814,2.5292358,1.7639999c0.2602005,0.9818878-0.1796646,2.0827866-1.403862,2.6333313
			l0.3425369,1.2926178L104.5732651,94.3091278z"/>
	</g>
	<g>
		<path class="st14" d="M135.3734283,127.7322769c-0.0080566,1.0644302-0.2062988,2.0795212-0.5608826,3.012001
			c-0.4291229,0.0494537-0.8747559,0.0990143-1.3284607,0.140213h-0.0249786
			c-0.2969513,0.0247803-0.5939178,0.0578156-0.8993378,0.0743408c-0.4125977,0.0330353-0.8336487,0.074234-1.2627716,0.0907593
			c-0.2719879,0.0164185-0.5528259,0.0329437-0.8332672,0.0411987c-0.140213,0.0165253-0.280426,0.0165253-0.421051,0.0247803
			c-1.221283,0.0578156-2.4917145,0.0907593-3.8040543,0.0907593c-0.1156464,0-0.2393417,0-0.3549881-0.0081635
			c-0.131752,0.0081635-0.2719727,0.0081635-0.4041367,0c-0.1732559,0-0.3465195,0-0.5117188-0.008255
			c-1.09758-0.008255-2.1617126-0.0495605-3.1932144-0.1073761c-0.0991211-0.0082703-0.1982422-0.0082703-0.2888947-0.0165253
			c-0.4786835-0.0246735-0.9573593-0.057724-1.4110641-0.0989227c-0.1817169-0.008255-0.3549805-0.0247803-0.5282364-0.0412903
			c-0.3134766-0.0247803-0.6273651-0.0578308-0.9243164-0.0825043c-0.0741425-0.1981354-0.1482849-0.3879242-0.2063065-0.585968
			c-0.0410995-0.1236877-0.0741348-0.2474976-0.1071777-0.3712921c-0.1732559-0.668457-0.272377-1.3616028-0.2804337-2.0877762
			c-0.0084686-0.057724-0.0084686-0.123703-0.0084686-0.1815186c0-0.0660858,0-0.1238022,0.0084686-0.1815186
			c0.0080566-0.5363998,0.0741348-1.056282,0.1897736-1.559639c0.0326385-0.1733627,0.0741425-0.3466187,0.123703-0.5198822
			c0.0330353-0.1320572,0.0660782-0.2475967,0.1071777-0.3712997c0.2393417-0.7426987,0.5777969-1.4358368,0.9984589-2.0795135
			c0.0826035-0.1238022,0.1651993-0.2476044,0.2558594-0.3631439c0.5943222-0.8086777,1.3284607-1.5100784,2.162117-2.0711517
			c0.1897812-0.132164,0.39608-0.255867,0.5939178-0.3631439c1.2708359-0.7179184,2.7399216-1.1139984,4.2992554-1.1057358
			h0.1486816l0.9819336,0.008255l0.0330429,0.0824051c1.1221619,0.1568375,2.1701813,0.5282364,3.1110229,1.0727921
			c0.2062988,0.1155472,0.3960724,0.2393417,0.5858459,0.3712997c1.2132263,0.8334656,2.2032166,1.9723434,2.8551636,3.3090591
			c0.0165253,0.0330429,0.0415039,0.0660782,0.0495605,0.0991211c0.3134766,0.6354218,0.544754,1.3202972,0.6849823,2.0382156
			C135.3158112,126.5521927,135.3734283,127.1298981,135.3734283,127.7322769z"/>
		<g>
			<g>
				<path class="st15" d="M131.6199493,120.5342026l-9.7533264-0.0646515
					c0.1918411-0.130928,0.3909531-0.2507782,0.593605-0.3632965l8.5745621,0.0568314
					C131.2359314,120.2782898,131.4298553,120.4007416,131.6199493,120.5342026z"/>
			</g>
			<g>
				<path class="st15" d="M132.2229309,122.6241074l-0.0024414,0.367218l-12.7717438-0.0846634
					c0.0815201-0.1243286,0.1669769-0.2486267,0.2557983-0.3655396L132.2229309,122.6241074z"/>
			</g>
			<g>
				<path class="st15" d="M132.206665,125.0771179l-0.0024261,0.367218l-13.8660507-0.0919189
					c0.0338211-0.1246414,0.0677948-0.2456131,0.1089401-0.3665085L132.206665,125.0771179z"/>
			</g>
			<g>
				<path class="st15" d="M132.1904297,127.5264511l-0.0024261,0.367218l-14.1635208-0.0938873
					c-0.0031967-0.0587692-0.0027771-0.1212082-0.0023651-0.1836319s0.0008011-0.1211853,0.0047989-0.1835861
					L132.1904297,127.5264511z"/>
			</g>
			<g>
				<path class="st15" d="M132.1741791,129.9794617l-0.0024414,0.367218l-13.7559509-0.0911865
					c-0.0395432-0.12146-0.0754929-0.2428589-0.1040726-0.3679199L132.1741791,129.9794617z"/>
			</g>
		</g>
		<path class="st15" d="M136.7764282,127.7405319c-0.0080566,0.982048-0.1732635,1.9309464-0.4867401,2.8057022
			c-0.1732635,0.0247803-0.3465118,0.0494537-0.528244,0.074234c-0.2804413,0.0411987-0.5693359,0.0742493-0.8662872,0.1072845
			c-0.0249939,0.008255-0.0495605,0.008255-0.0826111,0.0165253c-0.4291229,0.0494537-0.8747559,0.0990143-1.3284607,0.140213
			h-0.0249786c-0.2969513,0.0247803-0.5939178,0.0578156-0.8993378,0.0743408
			c-0.4125977,0.0330353-0.8336487,0.074234-1.2627716,0.0907593c-0.2719879,0.0164185-0.5528259,0.0329437-0.8332672,0.0411987
			c-0.140213,0.0165253-0.280426,0.0165253-0.421051,0.0247803c-1.221283,0.0578156-2.4917145,0.0907593-3.8040543,0.0907593
			c-0.1156464,0-0.2393417,0-0.3549881-0.0081635c-0.131752,0.0081635-0.2719727,0.0081635-0.4041367,0
			c-0.1732559,0-0.3465195,0-0.5117188-0.008255c-1.09758-0.008255-2.1617126-0.0495605-3.1932144-0.1073761
			c-0.0991211-0.0082703-0.1982422-0.0082703-0.2888947-0.0165253c-0.4786835-0.0246735-0.9573593-0.057724-1.4110641-0.0989227
			c-0.0910568-0.2310791-0.1817169-0.4621582-0.2477951-0.7014923c-0.0410995-0.123703-0.0826035-0.2474976-0.1071854-0.3713074
			c-0.1817169-0.668457-0.2804337-1.3698578-0.2888947-2.0877762v-0.1815186c0-0.0578156,0-0.1237946,0.008461-0.1815186
			c0.0080566-0.5858612,0.0821991-1.1552963,0.2143555-1.7082138c0.0249786-0.123703,0.0580215-0.2476044,0.0991211-0.3712997
			c0.0245819-0.1238022,0.0660782-0.2476044,0.1071777-0.3712997c0.2393417-0.7428055,0.5778046-1.4440994,1.0069199-2.0795212
			c0.0741425-0.1237946,0.1648026-0.2475967,0.2558594-0.3631363c0.5858612-0.8086777,1.3199997-1.5100784,2.153656-2.0712585
			c0.1897812-0.1320572,0.39608-0.2557602,0.5939178-0.3630371c1.196701-0.6766205,2.566658-1.0645447,4.0188141-1.1057434h0.272377
			c4.2662201,0.0329437,7.7817841,3.1191788,8.4828796,7.170929
			C136.735321,126.6842575,136.7764282,127.2041321,136.7764282,127.7405319z"/>
		<path class="st16" d="M121.485672,131.0660095c-0.132164-0.2557526-0.2478027-0.5197754-0.3549805-0.79216
			c-0.0410995-0.123703-0.0826035-0.2476044-0.123703-0.3712921c-0.2062988-0.660202-0.3219376-1.3616028-0.3384628-2.0877838
			v-0.3630371c0.0249863-0.6271591,0.1156464-1.229538,0.2889023-1.8072357
			c0.0165176-0.0907669,0.0495605-0.1815262,0.0826035-0.2722855c0.0330353-0.1237946,0.0825958-0.2475967,0.1236954-0.3712997
			c0.2969589-0.7592163,0.7095566-1.4606171,1.229744-2.0795135c0.0987167-0.1238022,0.2143555-0.2475967,0.3215332-0.3631439
			c0.9323807-0.9737778,2.1290817-1.699852,3.4659958-2.0547333c0.0080643,0,0.0080643,0,0.0165253,0
			c0.0080566,0,0.0080566,0,0.0165176,0c0.0080566,0,0.0080566,0,0.0165176,0c0.0080643,0,0.0080643,0,0.0165253,0
			c0.0080566,0,0.0080566,0,0.0165176,0c0.0080566,0,0.0080566,0,0.0165176,0
			c0.5774002-0.1733627,1.2378006-0.2557602,1.872818-0.2557602c0.6769257,0,1.2873535,0.0989227,1.90625,0.2805405h0.0495605
			c1.8486481,0.5116196,3.3999176,1.7163773,4.3653412,3.317215c0.0165253,0.0330429,0.0415039,0.0660782,0.0495605,0.0991211
			c0.3715057,0.6271591,0.6519318,1.3202972,0.8251953,2.0547333c0.123703,0.5610809,0.1897888,1.1386795,0.1897888,1.7329025
			c-0.0080719,1.0644302-0.2393494,2.0795212-0.6434784,2.9954758"/>
		<path class="st14" d="M130.7195892,129.4982147c0,0.1567383-0.01651,0.3135834-0.0580139,0.4703217
			c-0.0245819,0.1237946-0.0576172,0.2475891-0.1071777,0.3713989c-0.1071777,0.2805328-0.2804413,0.5445557-0.5117188,0.7756348
			c-1.221283,0.0578156-2.4917145,0.0907593-3.8040543,0.0907593c-0.1156464,0-0.2393417,0-0.3549881-0.0081635
			c-0.131752,0.0081635-0.2719727,0.0081635-0.4041367,0l0.3134842-0.8582306h0.404541c0,0,0.0080566,0.1154327,0.0080566,0.2393341
			c0.4541016,0.2144623,1.0149765,0.3713074,1.6092987,0.3713074c0.0330429,0,0.0741348,0,0.1071777-0.0082703
			c0,0,0.008461,0,0.0165176,0c0.5858688-0.01651,1.0564804-0.2475891,1.3119431-0.6106415
			c0.0825958-0.1155396,0.1486816-0.2393341,0.1817169-0.3712921c0.0411072-0.1156464,0.0576172-0.2393341,0.0576172-0.3713989
			c0.0084686-0.7674866-0.5363007-1.2543182-1.5677948-1.6834412c-0.0330429-0.0164185-0.0495605-0.0246811-0.0826035-0.0411987
			h-0.0165176c-0.2889023-0.1155396-0.5608749-0.2393417-0.8002167-0.3713989
			c-0.8832169-0.4868393-1.4029999-1.0809555-1.4029999-2.0134354c0-0.0082626,0-0.0082626,0-0.0165253v-0.0577164
			c0-0.1239014,0.0165176-0.2475967,0.0415039-0.3713989c0.1813202-0.9489975,0.965416-1.6421356,2.0960388-1.8236618v-0.6188965
			l0.0080566-0.7922592h0.3960724l0.4702301,0.0082626l-0.0080566,0.79216v0.5611725
			c0.8417053,0.0330429,1.4191132,0.2640228,1.8236542,0.5116196l-0.1567383,0.39608
			c0.0660706,0.1568451,0.1978302,0.528244,0.1978302,0.528244h-0.404129
			c-0.2558594-0.1485825-0.7180328-0.4125977-1.4360504-0.4786835c-0.01651-0.008255-0.0330353-0.008255-0.0410919,0
			c-0.0906677-0.008255-0.1817169-0.0165176-0.2804413-0.0165176c-0.9162598-0.0082626-1.3534393,0.4621582-1.4606171,0.9407425
			c-0.0330429,0.0907593-0.0415039,0.1733551-0.0415039,0.2640152c0,0.0412979,0,0.0743408,0.008461,0.1073837
			c0,0.0246735,0,0.0411987,0.0080643,0.0577164c0.0741348,0.6188965,0.6023788,0.9737778,1.7164764,1.4440994
			c0.4375763,0.1815186,0.80867,0.3712997,1.11409,0.5941162c0.1648102,0.1155396,0.3134918,0.2393417,0.4371796,0.3713989
			C130.521347,128.309967,130.7276611,128.8297577,130.7195892,129.4982147z"/>
		<path class="st17" d="M130.504837,127.8891144c-0.1152344-0.132164-0.263916-0.2558594-0.4291229-0.3796616
			c-0.3050232-0.2145615-0.6765137-0.4125977-1.1136932-0.5941162c-1.1225662-0.4703217-1.6503983-0.8169403-1.7164764-1.4358368
			c-0.0084686-0.0165253-0.0084686-0.0413055-0.0084686-0.065979c-0.0080566-0.0330429-0.0080566-0.0660858-0.0080566-0.1073837
			c0-0.0906601,0.0080566-0.1732559,0.0330429-0.2640152c0.1071777-0.462059,0.5032578-0.8994446,1.3449783-0.9242249
			c0.0080566-0.008255,0.0245819-0.008255,0.0410919,0c0.0165253-0.008255,0.0495605-0.008255,0.0745392-0.008255
			c0.8993378,0,1.4771423,0.3135757,1.7656403,0.4869385l0.3634491-0.924324
			c-0.4125977-0.2393341-0.9823456-0.470314-1.8240662-0.5033569v-0.5694351l0.0084686-0.79216h-0.404541l-0.4702301-0.0082626
			l-0.0084534,0.8004227v0.6188965c-1.1302185,0.1733627-1.9058533,0.8665009-2.0956345,1.8154984
			c-0.0165253,0.1238022-0.0330429,0.2474976-0.0415039,0.3713989v0.065979c0,0.9324799,0.5197754,1.5348587,1.4110565,2.021698
			h0.1071777c0.1652069,0.1320572,0.3880234,0.2558594,0.5697403,0.3796616h0.1071777
			c0.0330505,0.008255,0.0660858,0.0247803,0.1071777,0.0411987c1.0399628,0.4208603,1.5843201,0.907692,1.5762634,1.6751785
			c0,0.1320648-0.0249786,0.2557526-0.0660706,0.3713989c-0.0330505,0.131958-0.0906677,0.2640228-0.1817322,0.3712921
			c-0.2719727,0.3878326-0.7836914,0.6354218-1.4356384,0.6271667c-0.0906525,0-0.1817169-0.008255-0.272377-0.0165253
			c-0.0080566,0-0.0165176,0-0.0165176,0c-0.6765137-0.0578156-1.2873611-0.3053131-1.7245331-0.6023712l-0.3138885,0.8582306
			c0.1156464,0.0081635,0.2393417,0.0081635,0.3549881,0.0081635c1.3123398,0,2.5827713-0.0329437,3.8040543-0.0907593
			c0.140625-0.008255,0.280838-0.008255,0.421051-0.0247803c0.2228241-0.2228241,0.3795624-0.4785767,0.4867401-0.7508545
			c0.0495605-0.1238098,0.0826111-0.2476044,0.1156464-0.3713989c0.0330353-0.1567383,0.0495605-0.3135834,0.0495605-0.4703217
			C131.1237335,128.8380127,130.9174347,128.3181305,130.504837,127.8891144z"/>
	</g>
	<polygon class="st37" points="106.6035919,99.8489685 100.4476395,104.9734192 97.4027023,101.4993668 	"/>
</g>
</svg>
