<?xml version="1.0" encoding="utf-8"?>
<!-- Generator: Adobe Illustrator 22.0.1, SVG Export Plug-In . SVG Version: 6.00 Build 0)  -->
<svg version="1.1" id="Layer_1" xmlns="http://www.w3.org/2000/svg" xmlns:xlink="http://www.w3.org/1999/xlink" x="0px" y="0px"
	 viewBox="0 0 156 156" style="enable-background:new 0 0 156 156;" xml:space="preserve">
<style type="text/css">
	.st0{fill:#FFD9B2;}
	.st1{fill:#F7AC76;}
	.st2{fill:none;stroke:#3643C3;stroke-width:0.5;stroke-linecap:round;stroke-linejoin:round;stroke-miterlimit:10;}
	.st3{fill:#233764;}
	.st4{fill:none;stroke:#F7AC76;stroke-width:0.5;stroke-linecap:round;stroke-linejoin:round;stroke-miterlimit:10;}
	.st5{fill:#161718;}
	.st6{fill:#FFFFFF;}
	.st7{fill:#F06449;}
	.st8{fill:#BE412D;}
	.st9{fill:#FE8E60;}
	.st10{fill:#7D4C47;}
	.st11{fill:#4456D6;}
	.st12{fill:#203881;}
	.st13{fill:#6582FC;}
	.st14{fill:#DDA103;}
	.st15{fill:#FBC32E;}
	.st16{fill:none;stroke:#DDA103;stroke-width:0.5;stroke-miterlimit:10;}
	.st17{fill:#FBE6BB;}
	.st18{fill:none;stroke:#BE412D;stroke-width:0.5;stroke-linecap:round;stroke-linejoin:round;stroke-miterlimit:10;}
	.st19{fill:none;stroke:#F06449;stroke-width:0.5;stroke-linecap:round;stroke-linejoin:round;stroke-miterlimit:10;}
	.st20{fill:#F34B4B;}
	.st21{fill:#FC7070;}
	.st22{fill:none;stroke:#FFFFFF;stroke-miterlimit:10;}
	.st23{fill:#FC9F9F;}
	.st24{fill:#408A6F;}
	.st25{fill:#64B48D;}
	.st26{fill:none;stroke:#FBE6BB;stroke-width:0.5;stroke-linecap:round;stroke-linejoin:round;stroke-miterlimit:10;}
	.st27{fill:none;stroke:#F7AC76;stroke-width:0.25;stroke-linecap:round;stroke-linejoin:round;stroke-miterlimit:10;}
	.st28{fill:#A0665A;}
	.st29{fill:#6C3F44;}
	.st30{fill:none;stroke:#6C3F44;stroke-width:0.5;stroke-linecap:round;stroke-linejoin:round;stroke-miterlimit:10;}
	.st31{fill:none;stroke:#7D4C47;stroke-width:0.5;stroke-linecap:round;stroke-linejoin:round;stroke-miterlimit:10;}
	.st32{fill:none;stroke:#F34B4B;stroke-width:0.5;stroke-linecap:round;stroke-linejoin:round;stroke-miterlimit:10;}
	.st33{fill:none;stroke:#FC7070;stroke-width:0.5;stroke-linecap:round;stroke-linejoin:round;stroke-miterlimit:10;}
	.st34{fill:#EAE8F3;}
	.st35{fill:#40304A;}
	.st36{fill:none;stroke:#43334E;stroke-linecap:round;stroke-linejoin:round;stroke-miterlimit:10;}
	.st37{fill:#32775B;}
	.st38{fill:none;stroke:#233764;stroke-width:0.5;stroke-linecap:round;stroke-linejoin:round;stroke-miterlimit:10;}
	.st39{fill:none;stroke:#408A6F;stroke-width:0.5;stroke-linecap:round;stroke-linejoin:round;stroke-miterlimit:10;}
	.st40{fill:#3643C3;}
	.st41{opacity:0.56;fill:url(#SVGID_1_);}
	.st42{opacity:0.52;fill:#FBC32E;}
	.st43{opacity:0.56;fill:url(#SVGID_2_);}
	.st44{fill:none;stroke:#EAE8F3;stroke-width:0.5;stroke-linecap:round;stroke-linejoin:round;stroke-miterlimit:10;}
	.st45{fill:#FEFFFD;}
	.st46{opacity:0.35;fill:#32775B;}
	.st47{fill:#43334E;}
	.st48{fill:none;stroke:#EAE8F3;stroke-width:0.25;stroke-linecap:round;stroke-linejoin:round;stroke-miterlimit:10;}
	.st49{fill:none;stroke:#FBC32E;stroke-width:0.5;stroke-linecap:round;stroke-linejoin:round;stroke-miterlimit:10;}
	.st50{fill:none;stroke:#161718;stroke-width:0.5;stroke-linecap:round;stroke-linejoin:round;stroke-miterlimit:10;}
	.st51{fill:none;stroke:#40304A;stroke-linecap:round;stroke-linejoin:round;stroke-miterlimit:10;}
	.st52{opacity:0.33;fill:#FBC32E;}
	.st53{fill:#A6A3AE;}
	.st54{fill:#5B4B68;}
	.st55{fill:#776688;}
	.st56{fill:none;stroke:#FBC32E;stroke-width:0.5;stroke-miterlimit:10;}
	.st57{fill:none;stroke:#EAE8F3;stroke-linecap:round;stroke-linejoin:round;stroke-miterlimit:10;}
	.st58{fill:none;stroke:#203881;stroke-width:2;stroke-linecap:round;stroke-linejoin:round;stroke-miterlimit:10;}
	.st59{fill:none;stroke:#40304A;stroke-width:2;stroke-linecap:round;stroke-linejoin:round;stroke-miterlimit:10;}
	.st60{fill:#FFD8B7;}
	.st61{fill:#F4E4D4;}
	.st62{fill:none;stroke:#4456D6;stroke-width:0.5;stroke-linecap:round;stroke-linejoin:round;stroke-miterlimit:10;}
	.st63{fill:none;stroke:#DDA103;stroke-width:0.25;stroke-miterlimit:10;}
	.st64{fill:none;stroke:#FFFFFF;stroke-width:0.5;stroke-linecap:round;stroke-linejoin:round;stroke-miterlimit:10;}
	.st65{fill:none;stroke:#64B48D;stroke-width:0.5;stroke-linecap:round;stroke-linejoin:round;stroke-miterlimit:10;}
	.st66{fill:none;stroke:#64B48D;stroke-linecap:round;stroke-linejoin:round;stroke-miterlimit:10;}
	.st67{opacity:0.48;fill:#64B48D;}
	.st68{fill:none;stroke:#64B48D;stroke-width:0.25;stroke-linecap:round;stroke-linejoin:round;stroke-miterlimit:10;}
	.st69{fill:none;stroke:#F06449;stroke-width:2;stroke-linecap:round;stroke-linejoin:round;stroke-miterlimit:10;}
	.st70{opacity:0.92;fill:#64B48D;}
	.st71{opacity:0.57;fill:#408A6F;}
	.st72{opacity:0.36;fill:#408A6F;}
	.st73{fill:none;stroke:#BE412D;stroke-width:2;stroke-linecap:round;stroke-linejoin:round;stroke-miterlimit:10;}
	.st74{opacity:0.65;fill:none;stroke:#408A6F;stroke-width:0.25;stroke-linecap:round;stroke-linejoin:round;stroke-miterlimit:10;}
	.st75{opacity:0.67;fill:none;stroke:#64B48D;stroke-width:0.25;stroke-linecap:round;stroke-linejoin:round;stroke-miterlimit:10;}
	.st76{opacity:0.98;fill:#64B48D;}
	.st77{fill:none;stroke:#408A6F;stroke-width:0.25;stroke-linecap:round;stroke-linejoin:round;stroke-miterlimit:10;}
	.st78{fill:none;stroke:#FFD9B2;stroke-width:0.5;stroke-linecap:round;stroke-linejoin:round;}
	
		.st79{fill:none;stroke:#FFD9B2;stroke-width:0.5;stroke-linecap:round;stroke-linejoin:round;stroke-dasharray:4.0333505,4.0333505;}
	.st80{fill:#E68B4A;}
	.st81{opacity:0.62;fill:#64B48D;}
	.st82{fill:none;stroke:#FBC32E;stroke-width:0.25;stroke-miterlimit:10;}
	.st83{fill:none;stroke:#4456D6;stroke-linecap:round;stroke-linejoin:round;stroke-miterlimit:10;}
	.st84{fill:none;stroke:#E68B4A;stroke-width:0.5;stroke-linecap:round;stroke-linejoin:round;stroke-miterlimit:10;}
	.st85{fill:none;stroke:#203881;stroke-width:0.5;stroke-linecap:round;stroke-linejoin:round;stroke-miterlimit:10;}
	.st86{opacity:0.29;fill:#EAE8F3;}
	.st87{fill:none;stroke:#A6A3AE;stroke-width:0.5;stroke-linecap:round;stroke-linejoin:round;stroke-miterlimit:10;}
	.st88{opacity:0.74;fill:#FFFFFF;}
	.st89{opacity:0.19;fill:#FFFFFF;}
	.st90{fill:none;stroke:#40304A;stroke-width:0.25;stroke-linecap:round;stroke-linejoin:round;stroke-miterlimit:10;}
	.st91{fill:none;stroke:#F34B4B;stroke-width:2;stroke-linecap:round;stroke-linejoin:round;stroke-miterlimit:10;}
	.st92{fill:none;stroke:#43334E;stroke-width:0.5;stroke-linecap:round;stroke-linejoin:round;stroke-miterlimit:10;}
	.st93{fill:none;stroke:#6582FC;stroke-miterlimit:10;}
	.st94{opacity:0.47;fill:#A6A3AE;}
	.st95{opacity:0.43;fill:#FFFFFF;}
	.st96{fill:none;stroke:#FBE6BB;stroke-linecap:round;stroke-linejoin:round;stroke-miterlimit:10;}
	.st97{fill:none;stroke:#5B4B68;stroke-width:0.5;stroke-linecap:round;stroke-linejoin:round;stroke-miterlimit:10;}
	.st98{fill:none;stroke:#40304A;stroke-width:0.5;stroke-linecap:round;stroke-linejoin:round;stroke-miterlimit:10;}
	.st99{fill:none;stroke:#DDA103;stroke-linecap:round;stroke-linejoin:round;stroke-miterlimit:10;}
	.st100{fill:none;stroke:#FBC32E;stroke-linecap:round;stroke-linejoin:round;stroke-miterlimit:10;}
	.st101{fill:none;stroke:#32775B;stroke-width:0.5;stroke-linecap:round;stroke-linejoin:round;stroke-miterlimit:10;}
	.st102{opacity:0.4;fill:#FBE6BB;}
	.st103{fill:none;stroke:#FBC32E;stroke-width:0.25;stroke-linecap:round;stroke-linejoin:round;stroke-miterlimit:10;}
	.st104{fill:none;stroke:#4456D6;stroke-miterlimit:10;}
	.st105{opacity:0.61;fill:#64B48D;}
	.st106{opacity:0.9;fill:#64B48D;}
	.st107{opacity:0.76;fill:#64B48D;}
	.st108{fill:none;stroke:#5B4B68;stroke-width:0.5;stroke-miterlimit:10;}
	.st109{opacity:0.66;fill:#A6A3AE;}
	.st110{fill:none;stroke:#43334E;stroke-miterlimit:10;}
	.st111{opacity:0.52;fill:#6582FC;}
	.st112{fill:none;stroke:#DDA103;stroke-width:0.5;stroke-linecap:round;stroke-linejoin:round;stroke-miterlimit:10;}
	.st113{fill:#46724E;}
	.st114{fill:#FE8B2E;}
	.st115{fill:none;stroke:#7D4C47;stroke-width:2;stroke-linecap:round;stroke-linejoin:round;stroke-miterlimit:10;}
	.st116{opacity:0.4;fill:#EAE8F3;}
	.st117{fill:none;stroke:#EAE8F3;stroke-width:0.5;stroke-linecap:round;stroke-miterlimit:10;}
	.st118{fill:none;stroke:#4456D6;stroke-width:0.25;stroke-linecap:round;stroke-linejoin:round;stroke-miterlimit:10;}
	.st119{opacity:0.5;fill:#EAE8F3;}
	.st120{opacity:0.46;fill:#A6A3AE;}
	.st121{fill:#E0916E;}
	.st122{fill:none;stroke:#A0665A;stroke-linecap:round;stroke-linejoin:round;stroke-miterlimit:10;}
	.st123{opacity:0.46;fill:#BE412D;}
	.st124{fill:none;stroke:#203881;stroke-linecap:round;stroke-linejoin:round;stroke-miterlimit:10;}
	.st125{fill:#DBDBE1;}
	.st126{fill:none;stroke:#6582FC;stroke-width:0.5;stroke-linecap:round;stroke-linejoin:round;stroke-miterlimit:10;}
	.st127{opacity:0.53;fill:#A6A3AE;}
	.st128{fill:none;stroke:#DDA103;stroke-miterlimit:10;}
	.st129{opacity:0.2;fill:#FFFFFF;}
	.st130{fill:#B4A1BF;}
	.st131{opacity:0.5;fill:#6582FC;}
	.st132{opacity:0.6;fill:none;stroke:#FFFFFF;stroke-linecap:round;stroke-linejoin:round;stroke-miterlimit:10;}
	.st133{opacity:0.6;fill:none;stroke:#FFFFFF;stroke-width:2;stroke-linecap:round;stroke-linejoin:round;stroke-miterlimit:10;}
	.st134{opacity:0.54;fill:#A6A3AE;}
	.st135{fill:#161718;stroke:#000000;stroke-width:0.25;stroke-miterlimit:10;}
</style>
<g id="_x31_8">
	<g>
		<g>
			<path class="st0" d="M74.3449402,15.3634186l-1.1067734,2.2469139l0.6656876,4.0361347l-1.9306259,2.737875l-0.2247086,0.3162346
				l-0.0249939,0.0332699l-3.4868088,4.9015903l-2.6297379-2.3883705l-0.5076218-0.4576931l-0.5409393-0.4826813l1.4978714-1.88908
				l0.4577408-0.723999l0.2247086-0.3411732l0.0666428-0.1081886l0.0082245-0.0249901l0.7156677-1.1317616l0.0416565-0.05826
				l0.1580658-0.266304l-0.208046-5.6255398c-0.0083313-0.3412237,0.2330322-0.6407986,0.5492706-0.6990585
				c0.2912445-0.058259,0.5659256,0.0665894,0.7156677,0.3079052c0.0416489,0.0415993,0.0666351,0.0998583,0.0832977,0.1414576
				l0.565834,1.7309618l3.4037094-3.3454056c0.4077682-0.3994331,1.0484619-0.3495045,1.3980179,0.0749187
				c0.0083313,0.0332699,0.0499802,0.0665894,0.0583115,0.0831985
				C74.4697876,14.7143393,74.4864426,15.0555134,74.3449402,15.3634186z"/>
			<polygon class="st1" points="71.723526,24.7338467 68.2367172,29.635437 65.6069794,27.2470665 66.5140305,23.6936131 
				66.6138916,23.3191185 66.738739,23.3524399 			"/>
			<path class="st110" d="M89.5268173,134.2328491c-2.4147873-0.921936-4.1023483-3.3775787-4.313797-5.9537048
				s0.9652328-5.1782608,2.8950119-6.8978806c1.9297714-1.7196198,4.544754-2.5832138,7.1295319-2.5895081
				c1.8276901-0.0044479,3.6853485,0.414711,5.2227325,1.4030991c0.583847,0.3753586,1.1270142,0.8410492,1.4755936,1.4412689
				c0.348587,0.6002121,0.4819489,1.3506241,0.2386856,2.0006943c-0.2149887,0.5744858-0.6945953,1.0132294-1.2162476,1.3359299
				c-1.2148056,0.7514877-2.707077,0.97155-4.1270828,0.8163528c-1.4200058-0.1551895-2.7796936-0.6632385-4.0679779-1.2803421
				c-2.166069-1.0375748-4.2222366-2.4398575-5.5965195-4.4095764c-2.2672348-3.2495575-2.0934296-7.8123779,1.2156143-10.238739
				c1.2264252-0.8992844,2.6519547-1.4838867,4.0806808-2.0050125c1.0938263-0.3989792,2.2106323-0.7686157,3.3689804-0.8864441
				c1.5004959-0.152626,3.0167389,0.1242371,4.4582214,0.5679932c1.2126083,0.3733063,2.5011063,0.9403915,3.3063812,1.9628983
				c0.8936462,1.1347046,0.2298203,2.3069611-0.7868271,3.1475143c-1.0706711,0.8852158-2.5123901,1.1600494-3.895134,1.2940674
				c-4.7939072,0.4646301-12.7457886,0.3855362-12.8983002-6.1661148c-0.0631332-2.7120895,1.4494095-5.270752,3.4666748-7.0845947
				c2.3387375-2.10289,5.4026031-3.3835907,8.54216-3.5706406c0.7429504-0.0442581,1.5209503-0.0217667,2.1815948,0.3209915
				c0.6606445,0.3427505,1.1641312,1.0863037,1.0136185,1.8151932c-0.0912094,0.4417191-0.3976364,0.8060379-0.7199173,1.121582
				c-1.8730469,1.8339081-4.5224838,2.6314316-7.1081467,3.0625458c-3.0347366,0.5059891-6.380188,0.5295181-8.9184341-1.2091522
				c-1.8610306-1.2747879-3.0566254-3.3883362-3.4769363-5.6046143c-0.4203186-2.2162704-0.1150284-4.525856,0.5851212-6.6702271"/>
			<path class="st47" d="M107.3002167,136.7253876v1.802002c0,1.9146271-6.3383102,3.4726105-14.1532516,3.4726105
				c-7.8086853,0-14.1470718-1.5579834-14.1470718-3.4726105v-1.802002h2.0460434
				c2.4839935-1.00737,6.976532-1.6768646,12.1010284-1.6768646c5.1306839,0,9.6231384,0.6694946,12.1009521,1.6768646H107.3002167z
				"/>
			<g>
				<path class="st0" d="M106.9363556,57.2538872l-3.088707,1.6750488l-0.1627808,0.0869446
					c0,0-5.369873,1.5211868-5.4197388,1.4922905c-0.0461502-0.0588455-0.415947-2.9211998-0.5579834-3.95121
					c-0.0328369-0.2324181-0.0465088-0.3711395-0.0465088-0.3711395s5.8070145-2.8695145,5.9128036-2.9252853
					C103.6641541,53.2029915,106.9922791,57.16922,106.9363556,57.2538872z"/>
				<path class="st1" d="M103.8476486,58.928936l-0.1627808,0.0869446c0,0-5.369873,1.5211868-5.4197388,1.4922905
					c-0.0461502-0.0588455-0.415947-2.9211998-0.5579834-3.95121l2.5121918-1.6305923
					C100.2193375,54.9263687,102.2489395,57.0984116,103.8476486,58.928936z"/>
				<polygon class="st11" points="102.882843,60.4347 63.5868149,76.4043655 63.7782021,73.1838074 64.3194504,64.0214767 
					68.1223984,62.9562492 97.7816391,54.6510468 99.8202515,54.0851631 101.5431366,57.6635551 102.8328629,60.3348427 				"/>
				<path class="st12" d="M102.882843,60.4347L63.5868149,76.4043655l0.1913872-3.2205582l3.6452904-7.9390411l5.5754013,0.2746353
					c0,0,22.2695236-7.8392372,28.5442429-7.8558464l1.2897263,2.6712875L102.882843,60.4347z"/>
				<path class="st13" d="M99.7182922,57.1725121c-6.0104141,1.1816902-26.8941269,7.6394615-26.8941269,7.6394615
					l-4.704071-1.8558083l29.6592407-8.3052025L99.7182922,57.1725121z"/>
				<path class="st40" d="M60.0995522,73.7711411c6.8180199-2.0779953,39.2889061-12.4992638,42.7326088-13.4343033
					l0.0491638,0.0973701l-40.515728,16.4626427"/>
				<g>
					<path class="st14" d="M120.0351334,63.3971863l2.6730881,7.8750153
						c0.9785538,2.8828583-0.8447495,6.4619217-4.6992416,10.1227417l-0.0171661,0.0058212
						c-0.3094254,0.3010178-0.6076126,0.5787277-0.9581985,0.8740921l-0.0180283,0.0061188
						c-2.791832,2.4571686-6.4473877,4.9134216-10.7912674,7.1917191l-0.0171661,0.0058212
						c-0.3452225,0.1955566-0.6964111,0.3735123-1.0655975,0.5576935l-0.0171661,0.0058289
						c-3.5066299,1.7979965-7.3955002,3.4512558-11.5849915,4.9125824l-1.1776047,0.3997192
						c-4.1953659,1.3848267-8.2870789,2.4404907-12.1636505,3.1486435l-0.0171661,0.0058212
						c-0.405014,0.0786133-0.7919769,0.1512146-1.1848984,0.2062149l-0.0180283,0.0061188
						c-4.8323364,0.8364716-9.2449188,1.1188583-12.9736862,0.8750381l-0.0180206,0.0061188
						c-0.4467545-0.0443497-0.869545-0.0773163-1.2982712-0.1277771l-0.02314-0.0117722
						c-5.228199-0.5581741-8.8294716-2.2762985-9.8080254-5.1591568l-2.6969414-7.9452896l6.2166443-5.3055649l1.2738075-0.0599136
						l4.0487328-0.1981277c2.2050781-1.5914307,4.7557297-3.1432953,7.5592651-4.6438828
						c0.3632431-0.2016678,0.7144012-0.3797379,1.082756-0.5635223c3.5066376-1.7979889,7.4067001-3.474678,11.6021652-4.9184036
						l1.1424179-0.3877792c4.2254333-1.4146576,8.3343201-2.4761429,12.2049179-3.201889
						c0.4041519-0.0783234,0.797081-0.1333237,1.2021027-0.211937c3.1908798-0.5342712,6.2175064-0.8559265,8.9768753-0.9300003
						l3.2047958-2.2247543l1.0462112-0.7275963L120.0351334,63.3971863z"/>
					<path class="st15" d="M65.9863434,99.6022949c-0.4467545-0.0443497-0.869545-0.0773163-1.2982712-0.1277771l-0.02314-0.0117722
						c-1.4858208-4.3180618-2.9894485-8.7478104-4.4923286-13.1189499l1.2738075-0.059906
						C62.9321251,90.6608582,64.4708023,95.1374588,65.9863434,99.6022949z"/>
					<path class="st15" d="M80.1809769,98.5088043c-0.405014,0.0786133-0.7919769,0.1512146-1.1848984,0.2062149
						l-0.0180283,0.0061188c-1.9205551-5.6016312-3.9425735-11.5021744-5.923645-17.2792587
						c0.3632431-0.2016754,0.7144012-0.3797379,1.0827637-0.5635223
						C76.1122665,86.6378479,78.1641083,92.6262589,80.1809769,98.5088043z"/>
					<path class="st15" d="M93.5222321,94.9604416l-1.1604385,0.393898
						c-2.1241608-6.257843-4.40271-12.9141312-6.6224594-19.3943863l1.1424103-0.3877792
						C89.064949,81.8883514,91.3205032,88.4740677,93.5222321,94.9604416z"/>
					<path class="st15" d="M106.2071533,89.4785156c-0.3452225,0.1955566-0.6964111,0.3735123-1.0655975,0.5576935
						l-0.0171661,0.0058289c-1.9451599-5.7305222-4.0097733-11.7537308-6.0377274-17.6717606
						c0.4041214-0.0784225,0.7911148-0.1509171,1.2020645-0.2120361
						C102.216011,77.8360825,104.2269058,83.7010345,106.2071533,89.4785156z"/>
					<path class="st15" d="M117.9918137,81.4007645c-0.3094254,0.3010178-0.6076126,0.5787277-0.9581985,0.8740921
						l-0.0180283,0.0061188c-1.4969025-4.3535461-3.0184174-8.8359756-4.5451813-13.2774887l1.0462112-0.7276001
						C114.9784698,72.5825729,116.4941559,76.9886093,117.9918137,81.4007645z"/>
					<path class="st15" d="M90.4414902,87.6888123c-18.7323227,6.3579102-35.7921448,5.9834213-38.1058502-0.8321915
						c-2.3133011-6.8155594,11.0016823-17.4925232,29.7344131-23.850441c0.6241379-0.208046,1.2482758-0.4160919,1.863884-0.6074791
						c3.0373993-0.9736938,6.0248184-1.7559547,8.8879013-2.3634338
						c14.1138458-2.9958496,25.4979019-1.6810303,27.3536606,3.7947693
						C122.4892044,70.6456451,109.1742172,81.3309402,90.4414902,87.6888123z"/>
					<path class="st16" d="M115.3211899,65.4762497c0.2464447,0.7260513,0.2127075,1.5148849-0.0726089,2.3728027
						c-1.6958618,5.029007-12.1942825,11.8961334-25.9132614,16.5528946
						c-13.7309952,4.6608353-26.2407227,5.603569-30.6352081,2.6418686
						c-0.7486153-0.5069656-1.2555733-1.1122665-1.5020218-1.8383179
						C55.4975853,80.1957474,67.1273651,71.7300415,83.18396,66.279808
						C99.2282333,60.8337555,113.6206818,60.4665031,115.3211899,65.4762497z"/>
					<path class="st14" d="M105.13517,69.7024002l-0.0819931,1.486908l-4.766983,1.4439087
						c-0.1079941,1.3597794-1.0289383,3.035202-2.2485733,4.2031631l-3.1358032,0.4009628
						c0.0170975-0.0061569,0.0098267-0.0263367,0.0269241-0.0324936l-0.1025772,0.0369492l0.1323242-1.1863174
						c0,0,1.0057907-0.635582,1.4964676-0.8807144c0.0170975-0.0061569,0.0170975-0.0061569,0.0170975-0.0061569
						c0.3625793-0.6543503,0.59095-1.3059464,0.6167221-1.9301453c0.0751724-1.666687-1.7958374-2.1997528-4.4941254-1.3871994
						c-2.5952911,0.7754517-4.2542648,2.1701965-5.7467804,4.347435c-2.0213089,2.9599838-4.2647476,5.0888672-8.3752136,6.3190689
						c-3.9155502,1.1827927-6.8276978,0.7059097-7.4319916-1.2397461l-4.7742538,1.4237289l0.0793839-1.4405212l4.5716553-1.3963394
						c0.162262-1.4249268,0.9724503-2.6048203,1.8107529-3.5445099l1.7091751-0.182991
						c-0.0089188-0.2928467-0.0032959-0.5453415,0.0138016-0.551506c0.0269241-0.0324936,1.432785-0.7893829,1.432785-0.7893829
						L75.827301,75.978363c-0.6134491,0.6536789-1.6967697,1.9319611-1.7539291,3.4328613
						c-0.0999985,1.8122559,2.0502167,1.8348465,3.9308472,1.2712402c2.4520874-0.7466583,3.7251511-1.979454,5.5408096-4.5465088
						c2.0991516-3.0106812,4.6173172-4.9653931,8.8136826-6.2265472c3.7446289-1.1210785,7.1641312-0.89534,7.8555603,1.2921982
						L105.13517,69.7024002z"/>
					<path class="st17" d="M105.1195679,70.0108871l-4.7719955,1.4365387
						c-0.1137619,1.3764572-1.0337372,3.0388794-2.2559814,4.2152863l-3.1383667,0.3899384
						c1.1760864-1.1842422,2.1328735-2.6764526,2.1973114-3.9884415c0.0819016-1.6663208-1.8013992-2.2099762-4.494133-1.3990021
						c-2.5992203,0.7828445-4.2526855,2.1824112-5.7531433,4.344162c-2.0100479,2.9624634-4.2565002,5.0960464-8.3672562,6.3333054
						c-3.9217072,1.1813965-6.8322449,0.6919785-7.434761-1.252655l-4.7753296,1.4377365l0.0714798-1.454628l4.5866394-1.3808899
						c0.1628418-1.4363937,0.9672089-2.6246109,1.8043289-3.5466461l3.0888748-0.3520889
						c-0.5923309,0.6626053-1.6778259,1.9387512-1.7514496,3.4397507c-0.0879745,1.8063965,2.0510254,1.8331604,3.9412384,1.2634659
						c2.4583054-0.7398682,3.7302246-1.9797592,5.5321121-4.5314178c2.1041031-3.0152512,4.6200638-4.9734726,8.8256378-6.240448
						c3.7350464-1.1241608,7.1691284-0.8867188,7.8534164,1.2875443l4.9145813-1.4801102L105.1195679,70.0108871z"/>
				</g>
				<g>
					<path class="st12" d="M107.398735,59.0135269l-1.9269562-11.5027161l-0.5182953,0.0868263
						c0.220787-0.7324142,0.4436417-1.4643402,0.7029724-2.1838684c0.1079483-0.2993507,0.2227325-0.6040268,0.4269562-0.8479881
						c0.3425903-0.4091301,0.9440765-0.4961929,1.4098434-0.2386856c0.3988876,0.2202988,0.6056519,0.6693535,0.7695389,1.0946426
						c0.6718903,1.74506,1.0586853,3.6657524,0.6471863,5.48983c-0.1356201,0.6010399-0.3562088,1.1848412-0.4244919,1.797081
						c-0.1112366,0.9968987,0.1899796,1.9972649,0.6091385,2.9084473c0.2514877,0.5468559,0.5505829,1.0864677,0.6354599,1.6823578
						c0.0847473,0.5958061-0.1030655,1.2803497-0.6239624,1.5819588c-0.2509537,0.1453476-0.5494385,0.1861458-0.8395081,0.1872711
						C107.9799728,59.0696487,107.6891022,59.0441399,107.398735,59.0135269z"/>
					<path class="st24" d="M102.5653381,56.7184982c0.5243759-0.3344498,1.0487595-0.6689034,1.573143-1.0033531
						c0.4375076,0.4576683,0.651062,1.1201324,0.5632172,1.7471581c-0.0955658,0.6821213-0.4418106,1.1894493-1.0209198,1.5542221
						c0.1263428-0.039402,0.2588272-0.0547142,0.390686-0.066124c0.6418152-0.0555458,1.239212,0.0391846,1.87397,0.0865593
						c0.5538635,0.0413399,1.1284637,0.1399117,1.6863174,0.1379929c0.290062-0.0009956,0.5885468-0.0418968,0.8395691-0.1872444
						c0.5208664-0.3015938,0.708725-0.9860497,0.6239395-1.5819321c-0.0847931-0.5958786-0.3839035-1.1355209-0.6354218-1.6823311
						c-0.4191284-0.9111824-0.7203369-1.9116364-0.6091614-2.9084129c0.0682983-0.6123047,0.2888641-1.1961288,0.4244614-1.797123
						c0.4115677-1.8240814,0.0247421-3.7448082-0.6472092-5.4898376c-0.1637573-0.4252586-0.3706055-0.8742981-0.7694473-1.0947075
						c-0.4658203-0.2574272-1.0673218-0.1704254-1.4098511,0.2387657c-0.2042389,0.243988-0.3191071,0.5486069-0.4269791,0.84795
						c-0.3368225,0.9346161-0.6413956,1.8808556-0.9129868,2.8364677c-0.337326,1.1869049-0.6356125,2.4149933-1.3257065,3.4378815
						c-0.332222,0.4924316-0.7468109,0.9216805-1.1863861,1.3187218c-0.3531647,0.3189888-1.1055222,0.5412483-0.7817307,1.1050301
						C101.3134995,55.086422,102.0443268,55.8497849,102.5653381,56.7184982z"/>
				</g>
			</g>
			<path class="st21" d="M93.6121674,59.8022804l-0.790329,0.2329865c-2.8630829,0.6074791-5.850502,1.38974-8.8879013,2.3634338
				l-11.1097717-4.2607918l5.1511917,0.4160919l14.2804489,1.1400948L93.6121674,59.8022804z"/>
			<path class="st20" d="M93.6121674,59.8022804l-0.790329,0.2329865c-2.8630829,0.6074791-5.850502,1.38974-8.8879013,2.3634338
				l-11.1097717-4.2607918l5.1511917,0.4160919l7.897644,2.7878075c0,0,3.4287033-0.898777,6.3828049-1.6477127
				L93.6121674,59.8022804z"/>
			<path class="st7" d="M70.8164749,27.3219852L55.1297798,48.5676804c-1.3814583,1.86409-4.0278549,2.1803246-5.8169746,0.7323265
				c-1.0070152-0.8238564-1.5229683-2.0055466-1.514637-3.1872864c0.0083313-0.9569855,0.349453-1.9056892,1.0319023-2.6712875
				l0.4827347-0.5659294l2.3134003-2.7046089l13.1901321-15.4203873l1.4813232-1.7309628l3.8364639,3.6533108L70.8164749,27.3219852
				z"/>
			<path class="st8" d="M70.8164749,27.3219852L55.1297798,48.5676804c-1.3814583,1.86409-4.0278549,2.1803246-5.8169746,0.7323265
				c-1.0070152-0.8238564-1.5229683-2.0055466-1.514637-3.1872864c0.0083313-0.9569855,0.349453-1.9056892,1.0319023-2.6712875
				l0.4827347-0.5659294l0.6573563-0.5408936l4.7490311,1.6948242c1.2339363,0.440361,2.6097412,0.0145454,3.3785515-1.0463219
				c2.7877045-3.8467026,9.3229179-12.8344936,12.0363808-16.310257L70.8164749,27.3219852z"/>
			<path class="st0" d="M110.2755127,90.645462c0,0-2.3175125,3.0435333-2.4808578,3.154129
				c-0.1687012,0.1016998-2.7018204-0.4654922-2.7018204-0.4654922l-1.2677536-1.6811447l-0.2261124-0.154213l-2.7832336-1.966011
				l0.0539703-0.5530853c0,0,0.0586319-0.0232239,0.1669693-0.0643768c0.8012314-0.3376923,3.3706207-1.9593887,3.4558563-1.9986572
				c0.0142441,0.0035324,0.3970718,0.2570114,0.9845886,0.6291504
				C107.1240692,88.6109085,110.2755127,90.645462,110.2755127,90.645462z"/>
			<path class="st1" d="M105.4771194,87.5457611l-1.8781509,3.95298l-2.7832336-1.966011l0.0539703-0.5530853
				c0,0,0.0586319-0.0232239,0.1669693-0.0643768c0.8012314-0.3376923,3.3706207-1.9593887,3.4558563-1.9986572
				C104.5067749,86.9201431,104.8896027,87.1736221,105.4771194,87.5457611z"/>
			<path class="st24" d="M104.5907288,94.3561935l1.9888153,2.3084183c1.0202866,0.3477402,3.736557-1.0944748,3.736557-1.0944748
				l-0.3582306-0.6652374l2.6720963-0.8476639c1.0301666-0.3310471,1.9754639-0.8925018,2.7643585-1.6354828l2.5817413-2.4646072
				c0.3214111-0.3021545,0.3241882-0.7978134,0.0211258-1.1058578l-0.7138062-0.7256546
				c-0.3219833-0.3296432-0.7879257-0.4593811-1.2251129-0.3356857l-1.8580627,0.5004959l-3.3130798,0.8813858l-2.8192139-0.6445007
				c-0.3951035-0.0769119-0.7846603,0.0436478-1.0749588,0.2937546c-0.1233521,0.1062698-0.2279205,0.2343445-0.3139191,0.3843231
				c-0.1757126,0.353714-0.1861267,0.7674026-0.02314,1.1329117l0.4054108,0.8522491l0.005394,0.0205917l-2.6123657,1.0492401
				l-0.6271057-0.6106796l0.2190475,1.164566C104.02491,93.3765335,104.2217178,93.927887,104.5907288,94.3561935z"/>
			<path class="st12" d="M109.6553726,94.3383255l0.3020401,0.5658875l2.674408-0.8486557
				c1.032692-0.3277435,1.9738083-0.8856735,2.7569733-1.6334686l2.589447-2.4669571
				c0.3151169-0.2995834,0.3217087-0.7942047,0.0184479-1.1004868l-0.0898361-0.0912247
				c0.0194931,0.224884-0.0579681,0.4545746-0.2335129,0.6226654l-2.5926666,2.4697571
				c-0.7831573,0.7477951-1.7241974,1.3056564-2.7568893,1.6334L109.6553726,94.3383255z"/>
			<path class="st12" d="M106.1475906,96.1634598l0.4307327,0.4999542c1.0186768,0.3474426,3.7373123-1.0956268,3.7373123-1.0956268
				l-0.358223-0.6635742C109.9574127,94.904213,107.8281784,95.8507385,106.1475906,96.1634598z"/>
			<path class="st11" d="M106.1616058,86.5653763l-3.6615372,5.2261581l-17.475914-10.8933487l-13.3235168-1.8391495
				l-5.4173431-0.3162308l-2.7379265-0.1580658c-3.1040382,0.1747208-7.1483498,0.1997147-9.8448296-4.0777359l-2.2799797-5.0846481
				l10.8765297-8.0805473c0.4160957,0.1581154,0.865509,0.1831055,1.281601,0.3245621
				c0.1913872,0.0748711,1.4896469,0.3994331,1.5310898,0.4660225c0.0585175,0.3079071,0.1332855,0.6158104,0.1999207,0.9237175
				c0.0247879,0.1248474,0.0499802,0.2496452,0.0747681,0.3744926c0.0247879,0.0998573,0.0418549,0.1997185,0.0666428,0.2995758
				c0.0581055,0.2912979,0.1247482,0.5908661,0.1913834,0.8821182c0.191391,0.0665894,0.3827744,0.1331711,0.5741577,0.1997147
				c3.4620285,1.2233353,6.8822021,2.5464859,10.2690582,3.8780136l0.2165756,0.0915298l11.4506912,4.5437546
				c0.2665634,0.0998611,0.5079269,0.2413177,0.7159729,0.4160995l1.2730637,0.9403687l5.4177475,4.0194244L106.1616058,86.5653763z
				"/>
			<path class="st12" d="M66.2832947,78.7428055l-2.7379265-0.1580658
				c-3.1040382,0.1747208-7.1483498,0.1997147-9.8448296-4.0777359l-2.2799797-5.0846481l10.8765297-8.0805473
				c0.4160957,0.1581154,0.865509,0.1831055,1.281601,0.3245621c0.1913872,0.0748711,1.4896469,0.3994331,1.5310898,0.4660225
				c0.0585175,0.3079071,0.1332855,0.6158104,0.1999207,0.9237175c0.0247879,0.1248474,0.0499802,0.2496452,0.0747681,0.3744926
				c0.0247879,0.0998573,0.0418549,0.1997185,0.0666428,0.2995758c-1.164978,0.6324692-12.0667076,6.5992355-12.0667076,6.7490158
				c0,0.0845261,0.9313087,1.7718658,1.798233,3.3242416c0.9030685,1.6171036,2.4528999,2.7661819,4.2635994,3.1559677
				C61.3093948,77.3604813,63.852047,77.9674911,66.2832947,78.7428055z"/>
			<path class="st13" d="M95.5573654,78.7011719l-2.571434,5.3592834l-7.5146637-4.5520859l-21.3080902-2.0908661
				c-3.410099-0.3346176-5.3265495-2.3469162-7.5197334-4.9795303l-0.8510628-2.0642319l10.422081-5.5617676
				c3.4619217,1.2232895,6.8821945,2.5464935,10.2691498,3.8779678l0.2163773,0.0915298l11.4508896,4.5437546
				c0.2663574,0.0998611,0.5076218,0.2413177,0.7156754,0.4160919l1.2732697,0.9403763L95.5573654,78.7011719z"/>
			<path class="st8" d="M48.6360588,42.5603905l0.021389-2.4787903c0.0032959-0.3816681-0.3217163-0.6838531-0.7021332-0.6528206
				l-3.990799,0.177597"/>
			<path class="st0" d="M48.6647148,31.8487778l1.1093636,2.5135765c0.1582794,1.3803215-0.3358078,1.501667-1.7175026,2.2402077
				c-0.2302513,0.1234245-0.4078293,0.2597008-0.5438576,0.402153c-0.6822701,0.710495-0.3291931,1.561409-0.3291931,1.561409
				l1.8566666,4.2067947l-6.1209755,1.1464081l-2.2104378-5.0083618c-0.3795815-0.1231422-0.6760826-0.5725937-0.9435158-0.8546791
				c-0.3626442-0.3825035-0.7157059-0.7741699-1.0561523-1.1765862c-0.6930046-0.819149-1.3345871-1.6832047-1.8954887-2.5984154
				c-0.6953773-1.1346359-1.266201-2.3503819-1.6499023-3.6260262c-0.1356659-0.4510365-0.3711395-1.0404568-0.3587799-1.5152359
				c0.0060654-0.232933,0.0527573-0.2266846,0.2494431-0.315752c0.2962914-0.1341705,0.5952682-0.2627201,0.8928261-0.3940487
				c0.9572868-0.4224968,1.9145737-0.8449936,2.8718567-1.2674904c1.4302139-0.6312237,2.8604279-1.2624493,4.2906456-1.8936729
				c1.3240738-0.1607037,2.3452034,1.4893036,2.3452034,1.4893036l1.0572853,2.3955746l2.2909737,1.1719799
				C49.6519775,31.2768173,48.6647148,31.8487778,48.6647148,31.8487778z"/>
			<path class="st7" d="M49.9663162,42.3241806l-2.9566536,0.4934425l-3.945755,0.6674805l-1.5902176,0.272213l-0.6991043-1.9985695
				c-0.0918045-0.2616959,0.078228-0.5435905,0.3504562-0.5763359l0.8987656-0.1261139l5.3117867-0.7452888
				c0.0953102-0.0181732,0.2017288,0.0064316,0.2805405,0.0591431l0.764595,0.6330986L49.9663162,42.3241806z"/>
			
				<ellipse transform="matrix(0.789458 -0.6138045 0.6138045 0.789458 -11.7032433 31.8264561)" class="st1" cx="40.5410843" cy="32.9727821" rx="1.2363229" ry="1.7828221"/>
			<path class="st3" d="M46.3918228,25.7241497c-0.0666428,0.2579765-0.1913872,0.4993439-0.3412247,0.7073898
				c-0.4410858,0.5991497-1.1067734,0.990303-1.7725639,1.3314781c-0.9985809,0.5076218-2.0304871,0.932045-3.0957069,1.2732697
				c0.141407,0.4826317,0.3244629,0.9486542,0.5076218,1.4146767c0.0498772,0.1248474,0.6158066,1.3564682,0.5741577,1.3897877
				c-0.232933,0.1997185-0.582489,0.1997185-0.8903923,0.2745857c-0.3744469,0.0915794-0.5077248,0.3328934-0.6408005,0.6574593
				c-0.0333214,0.0665398-0.1331787,0.2413139-0.2163773,0.4077644c-0.0748672,0.1581154-0.1330757,0.3079033-0.1165199,0.3744926
				c0.0083313,0.0083313,1.0652237,2.9791908,1.0652237,2.9791908c0.2745857,1.0568924-0.7656479,2.3467712-0.7656479,2.3467712
				c-0.0498772,0.0582619-0.8820648-0.3495026-0.9652634-0.3911018c-0.4160919-0.1664467-0.6991081-0.4327545-1.0735512-0.6574593
				c-1.006916-0.5742111-2.0056-1.1816902-2.8876648-1.9556198c-0.0832977-0.0831985-0.1747246-0.1581154-0.2663574-0.2496452
				c-0.5491676-0.5076218-1.0319023-1.0818329-1.4230042-1.7226334c-0.2580261-0.4160919-0.4744034-0.8571739-0.6324692-1.3231964
				c-0.3412247-0.9569855-0.6491318-2.2468643-0.1830597-3.2205582c0.2330399-0.5076218,0.8155289-0.8904457,1.3481407-0.7323284
				c0.0998573-0.9653149,0.6740189-1.8224907,1.3981171-2.4549103c0.7322273-0.6407986,1.6060638-1.0735531,2.4882278-1.4646549
				c0.1497383-0.0665894,0.2911453-0.1248493,0.4409828-0.1831074c1.4813156-0.6324711,3.029171-1.1400928,4.6269035-1.1733608
				c0.6075821-0.0166607,1.2317238,0.0415993,1.7893219,0.2829151c0.3494568,0.1498375,0.6740189,0.3744926,0.8820648,0.6990585
				C46.5082397,24.7421761,46.5332298,25.2497978,46.3918228,25.7241497z"/>
			<path class="st24" d="M42.2641068,31.8407516c-0.232933,0.1997185-0.582489,0.1997185-0.8903923,0.2745857
				c-0.3744469,0.0915794-0.5077248,0.3328934-0.6408005,0.6574593c-0.0333214,0.0665398-0.1331787,0.2413139-0.2163773,0.4077644
				c-1.1899719-1.0485649-2.330162-2.0638084-2.330162-2.0638084l2.9959526-2.0804653
				c0.141407,0.4826317,0.3244629,0.9486542,0.5076218,1.4146767
				C41.7398262,30.5758114,42.3057556,31.8074322,42.2641068,31.8407516z"/>
			
				<ellipse transform="matrix(0.789458 -0.6138045 0.6138045 0.789458 -11.5295849 31.7512684)" class="st0" cx="40.5183144" cy="32.6820488" rx="1.2363229" ry="1.7828221"/>
			<path class="st4" d="M40.9035416,33.1286888c-0.3185883,0.1406097-0.6908417-0.0036736-0.8314514-0.3222618
				c-0.1406097-0.3185921,0.0036697-0.6908455,0.3222618-0.8314533"/>
			<path class="st4" d="M46.2760239,33.1323128c0,0,1.3360367,0.6248283,2.2632828,0.0613708"/>
			<path class="st3" d="M46.2945976,29.5841713c0.0218506,0.0495033,0.0214615,0.1026173,0.0029793,0.1487179
				c-0.0174179,0.0465355-0.0536728,0.0863686-0.1024284,0.1078854l-0.8125458,0.3586178
				c-0.0982437,0.0433578-0.2132263-0.0012169-0.2565918-0.0994663c-0.0218391-0.0494862-0.02145-0.1025982-0.0033035-0.1494579
				c0.0174141-0.0465126,0.0536804-0.0863495,0.1024284-0.1078644l0.8125458-0.3586159
				C46.1359329,29.4406242,46.2509193,29.485199,46.2945976,29.5841713z"/>
			<circle class="st3" cx="45.9538116" cy="30.0836849" r="0.2499247"/>
			
				<ellipse transform="matrix(0.9148594 -0.4037725 0.4037725 0.9148594 -8.6603203 22.1119919)" class="st1" cx="48.1020317" cy="31.5914402" rx="0.4826379" ry="0.1987333"/>
			<path class="st1" d="M48.5614204,30.7852726l-0.6772499,0.2989044c-0.1845131,0.0814342-0.4001083-0.0021267-0.4815445-0.1866398
				l-0.4482002-1.0155239L48.5614204,30.7852726z"/>
			<path class="st38" d="M44.6209373,29.1546249c0,0,0.3629074-1.3108101,1.7181664-0.7583122"/>
			<path class="st1" d="M47.5127182,37.004715c-0.6822701,0.710495-0.3291931,1.561409-0.3291931,1.561409l0.1595192,0.3614388
				l-2.8928337-1.8223572c-0.2183418-0.1375427-0.0986824-0.4756622,0.1575699-0.4452515L47.5127182,37.004715z"/>
			<path class="st7" d="M63.3757057,62.4701004l-7.2483139,3.4119949l-1.2232895,0.5742111l-2.588089,1.2232895
				l-1.4813156,0.6990585l-0.9570351-1.7892227l-0.3244629-0.6158066l-4.9764595-9.3038406l-1.3482399-2.5132217
				l-0.8737335-1.6477127c-0.9237137-1.7143021-1.3231468-3.6616402-1.1567497-5.5923195l0.2745819-3.1622963l1.5895081-0.2746353
				l3.9445534-0.6574097l2.962635-0.4910126l0.1414032,0.0665894c0.0916328,0.0499268,0.1830597,0.0998573,0.28302,0.1497879
				c1.5560799,0.8321838,2.9209824,1.9473381,4.052639,3.2704849c0.1665001,0.1914368,0.3246689,0.3911552,0.4827347,0.5992012
				c0.141407,0.1830559,0.2745857,0.3661652,0.3994331,0.5575485c0.3577843,0.5076218,0.6741219,1.0402336,0.9570351,1.5895081
				l1.4313354,2.8127937l0.8737373,1.7309113l1.8391991,3.5867195l0.2163773,0.4160957l1.7559013,3.4452629l0.2912445,0.5742111
				l0.2496986,0.4826813L63.3757057,62.4701004z"/>
			<path class="st8" d="M56.6434441,65.2412949c0,0-0.7157669,0.5076218-1.7393417,1.2150116l-2.588089,1.2232895
				l-1.4813156,0.6990585l-0.9570351-1.7892227l-0.3244629-0.6158066l-4.9764595-9.3038406l-1.3482399-2.5132217
				c-0.0997543-1.406395-0.1997147-2.7794724-0.1997147-2.7794724L56.6434441,65.2412949z"/>
			<path class="st9" d="M60.4298325,56.6947212c-2.3467216,0.8321877-4.0194244,1.4397202-4.0194244,1.4397202l-5.4508629-8.9543381
				l4.3689804-2.2053146c0.3577843,0.5076218,0.6741219,1.0402336,0.9570351,1.5895081l1.4313354,2.8127937l0.8737373,1.7309113
				L60.4298325,56.6947212z"/>
			<polygon class="st34" points="63.8417397,62.7964058 51.4165802,69.4202957 50.6985321,68.1240845 62.9458237,61.6143379 			"/>
			<path class="st1" d="M45.6857376,32.4068298l-0.3337631,1.1333122c-0.1729279-0.0468826-0.3247833-0.1611328-0.4024696-0.3371468
				c-0.1339188-0.3034325,0.0043373-0.6471558,0.3016968-0.7783966
				C45.3969917,32.3602562,45.5484734,32.3585434,45.6857376,32.4068298z"/>
			<line class="st39" x1="52.3394318" y1="61.0527649" x2="51.563076" y2="61.8411331"/>
			<line class="st2" x1="85.0193939" y1="80.8962402" x2="85.6117554" y2="79.0738602"/>
			<ellipse class="st55" cx="93.1500092" cy="136.7251282" rx="14.1479273" ry="3.4758482"/>
			<ellipse class="st54" cx="93.1500092" cy="135.048584" rx="11.0997505" ry="3.1744771"/>
			<ellipse class="st47" cx="93.1500473" cy="133.451416" rx="9.5349932" ry="2.7269638"/>
			<path class="st20" d="M117.5354385,81.8332214c-2.9709625,2.8793793-2.8065643,3.1655655-6.9008636,5.1212387
				L72.1979294,59.0032806l1.5977325-0.6490784l2.9626389,1.6227722l0.0831985,0.0415993l39.6203842,21.6617851l0.0831985,0.0499344
				L117.5354385,81.8332214z"/>
			<polygon class="st21" points="98.7695923,72.0103607 97.0220184,75.6470108 76.2755661,61.3417206 76.7583008,59.9769745 
				76.8414993,60.0185738 			"/>
			<g>
				<path class="st0" d="M76.2682037,55.1674232l0.0060959,0.2763977c-0.0003357,0.3605995-0.2829208,0.6709709-0.6557846,0.6985588
					l-0.6259766,0.0387573l0.1372757,0.0426025c0.3076019,0.0741577,0.5266647,0.354908,0.522438,0.6779747l0.0067368,0.2459831
					c-0.014534,0.3696594-0.3087616,0.6774902-0.6719894,0.6888542l-0.827301,0.037056l0.3127594,0.050827
					c0.3405609,0.0630913,0.5875092,0.3561287,0.5852432,0.6979828c-0.008255,0.1754341-0.0864334,0.3354034-0.1847153,0.4481277
					c-0.095726,0.1011276-0.2166977,0.1782761-0.3577805,0.2081833l-0.432991,0.1059608l-0.1870728,0.6799316
					c-0.0761185,0.2888069-0.3355408,0.4942741-0.6398163,0.4880829l-1.1853409,0.0251274L68.1417389,60.65028l-0.644165,0.010334
					l-2.2194138,1.1351128l-2.3101845-3.6224823l2.334362-0.797924l2.5511398-0.8660851l2.8987045-1.608345
					c0.14431-0.0719872,0.3002548-0.1414375,0.4419785-0.2017593c0.3397293-0.1265869,0.697052-0.194252,1.0576248-0.1939621
					l0.2318115,0.0023613l3.0938187-0.0308456C75.9496536,54.4795532,76.2619858,54.7809334,76.2682037,55.1674232z"/>
				<polygon class="st1" points="68.1417389,60.65028 67.4975739,60.660614 65.2781601,61.7957268 62.9679756,58.1732445 
					65.3023376,57.3753204 				"/>
				<line class="st4" x1="74.9893494" y1="56.1897888" x2="72.997963" y2="56.0984879"/>
				<line class="st4" x1="74.1591797" y1="57.8697014" x2="72.5119247" y2="57.7559891"/>
				<path class="st7" d="M66.7211075,62.0207367l-10.6187057,3.328743
					c-1.7059212,0.5326157-3.5700111-0.0499268-4.6517906-1.4729843L42.4129753,51.726593
					c-0.582489-1.0652237-0.0416489-1.0485611,0.3412247-2.130394c0.3162346-0.9071045,0.9653664-1.7143021,1.88908-2.2219238
					c0,0,3.7613983-0.9820251,4.3855362,0.1747246l0.4077644,0.7323303l0.7240982,1.3065376l0.1663971,0.2912445
					l5.2594757,9.3371582l8.8627052-1.9806061l0.0249939-0.0083313l0.7323227-0.1581154L66.7211075,62.0207367z"/>
				<path class="st9" d="M65.9638901,61.4465256l-12.0167198,2.7462082l-9.6117935-11.6422844l5.8253021-2.9625816
					l0.1663971,0.2912445l5.2594757,9.3371582l8.8627052-1.9806061l0.0249939-0.0083313
					C65.2149048,59.3743896,65.9638901,61.4465256,65.9638901,61.4465256z"/>
			</g>
			<line class="st4" x1="73.2381668" y1="17.6103325" x2="71.723526" y2="19.0945396"/>
		</g>
		<path class="st5" d="M39.3847733,26.7893734c-0.1415062,0.6990089-0.5159492,1.3481388-0.9903526,1.8890285
			c-0.5325089,0.6075306-1.2399521,1.0984936-2.0388184,1.2150116c0.2330399,0.7156677,0.4744034,1.4479961,0.4327545,2.1969833
			c-0.0416489,0.7489395-0.4244232,1.5311966-1.1152039,1.830822c-0.4160919,0.1747246-0.8903923,0.1663971-1.3313751,0.0582581
			c-0.091629-0.0166588-0.1748276-0.0416489-0.2580261-0.0749207c-0.2580261-0.4160919-0.4744034-0.8571739-0.6324692-1.3231964
			c-0.3412247-0.9569855-0.6491318-2.2468643-0.1830597-3.2205582c0.2330399-0.5076218,0.8155289-0.8904457,1.3481407-0.7323284
			c0.0998573-0.9653149,0.6740189-1.8224907,1.3981171-2.4549103c0.7322273-0.6407986,1.6060638-1.0735531,2.4882278-1.4646549
			c0.1497383-0.0665894,0.2911453-0.1248493,0.4409828-0.1831074c0.0498772,0.0582581,0.0915298,0.116518,0.1248474,0.1747761
			C39.4429817,25.3163872,39.5346146,26.0819855,39.3847733,26.7893734z"/>
	</g>
	<line class="st19" x1="55.5865517" y1="59.2162704" x2="55.1496353" y2="60.4738731"/>
	<path class="st2" d="M58.0317345,67.8119888l0.3715057,1.2658691c0.7311745,2.4913864,2.8321419,4.3386765,5.3966179,4.7450027
		l21.3629913,3.3848648c0.5155029,0.0816727,1.0084991,0.2692566,1.4479065,0.5509186l16.535675,10.599205"/>
</g>
</svg>
