<?xml version="1.0" encoding="utf-8"?>
<!-- Generator: Adobe Illustrator 22.0.1, SVG Export Plug-In . SVG Version: 6.00 Build 0)  -->
<svg version="1.1" id="Layer_1" xmlns="http://www.w3.org/2000/svg" xmlns:xlink="http://www.w3.org/1999/xlink" x="0px" y="0px"
	 viewBox="0 0 156 156" style="enable-background:new 0 0 156 156;" xml:space="preserve">
<style type="text/css">
	.st0{fill:#FFD9B2;}
	.st1{fill:#F7AC76;}
	.st2{fill:none;stroke:#3643C3;stroke-width:0.5;stroke-linecap:round;stroke-linejoin:round;stroke-miterlimit:10;}
	.st3{fill:#233764;}
	.st4{fill:none;stroke:#F7AC76;stroke-width:0.5;stroke-linecap:round;stroke-linejoin:round;stroke-miterlimit:10;}
	.st5{fill:#161718;}
	.st6{fill:#FFFFFF;}
	.st7{fill:#F06449;}
	.st8{fill:#BE412D;}
	.st9{fill:#FE8E60;}
	.st10{fill:#7D4C47;}
	.st11{fill:#4456D6;}
	.st12{fill:#203881;}
	.st13{fill:#6582FC;}
	.st14{fill:#DDA103;}
	.st15{fill:#FBC32E;}
	.st16{fill:none;stroke:#DDA103;stroke-width:0.5;stroke-miterlimit:10;}
	.st17{fill:#FBE6BB;}
	.st18{fill:none;stroke:#BE412D;stroke-width:0.5;stroke-linecap:round;stroke-linejoin:round;stroke-miterlimit:10;}
	.st19{fill:none;stroke:#F06449;stroke-width:0.5;stroke-linecap:round;stroke-linejoin:round;stroke-miterlimit:10;}
	.st20{fill:#F34B4B;}
	.st21{fill:#FC7070;}
	.st22{fill:none;stroke:#FFFFFF;stroke-miterlimit:10;}
	.st23{fill:#FC9F9F;}
	.st24{fill:#408A6F;}
	.st25{fill:#64B48D;}
	.st26{fill:none;stroke:#FBE6BB;stroke-width:0.5;stroke-linecap:round;stroke-linejoin:round;stroke-miterlimit:10;}
	.st27{fill:none;stroke:#F7AC76;stroke-width:0.25;stroke-linecap:round;stroke-linejoin:round;stroke-miterlimit:10;}
	.st28{fill:#A0665A;}
	.st29{fill:#6C3F44;}
	.st30{fill:none;stroke:#6C3F44;stroke-width:0.5;stroke-linecap:round;stroke-linejoin:round;stroke-miterlimit:10;}
	.st31{fill:none;stroke:#7D4C47;stroke-width:0.5;stroke-linecap:round;stroke-linejoin:round;stroke-miterlimit:10;}
	.st32{fill:none;stroke:#F34B4B;stroke-width:0.5;stroke-linecap:round;stroke-linejoin:round;stroke-miterlimit:10;}
	.st33{fill:none;stroke:#FC7070;stroke-width:0.5;stroke-linecap:round;stroke-linejoin:round;stroke-miterlimit:10;}
	.st34{fill:#EAE8F3;}
	.st35{fill:#40304A;}
	.st36{fill:none;stroke:#43334E;stroke-linecap:round;stroke-linejoin:round;stroke-miterlimit:10;}
	.st37{fill:#32775B;}
	.st38{fill:none;stroke:#233764;stroke-width:0.5;stroke-linecap:round;stroke-linejoin:round;stroke-miterlimit:10;}
	.st39{fill:none;stroke:#408A6F;stroke-width:0.5;stroke-linecap:round;stroke-linejoin:round;stroke-miterlimit:10;}
	.st40{fill:#3643C3;}
	.st41{opacity:0.56;fill:url(#SVGID_1_);}
	.st42{opacity:0.52;fill:#FBC32E;}
	.st43{opacity:0.56;fill:url(#SVGID_2_);}
	.st44{fill:none;stroke:#EAE8F3;stroke-width:0.5;stroke-linecap:round;stroke-linejoin:round;stroke-miterlimit:10;}
	.st45{fill:#FEFFFD;}
	.st46{opacity:0.35;fill:#32775B;}
	.st47{fill:#43334E;}
	.st48{fill:none;stroke:#EAE8F3;stroke-width:0.25;stroke-linecap:round;stroke-linejoin:round;stroke-miterlimit:10;}
	.st49{fill:none;stroke:#FBC32E;stroke-width:0.5;stroke-linecap:round;stroke-linejoin:round;stroke-miterlimit:10;}
	.st50{fill:none;stroke:#161718;stroke-width:0.5;stroke-linecap:round;stroke-linejoin:round;stroke-miterlimit:10;}
	.st51{fill:none;stroke:#40304A;stroke-linecap:round;stroke-linejoin:round;stroke-miterlimit:10;}
	.st52{opacity:0.33;fill:#FBC32E;}
	.st53{fill:#A6A3AE;}
	.st54{fill:#5B4B68;}
	.st55{fill:#776688;}
	.st56{fill:none;stroke:#FBC32E;stroke-width:0.5;stroke-miterlimit:10;}
	.st57{fill:none;stroke:#EAE8F3;stroke-linecap:round;stroke-linejoin:round;stroke-miterlimit:10;}
	.st58{fill:none;stroke:#203881;stroke-width:2;stroke-linecap:round;stroke-linejoin:round;stroke-miterlimit:10;}
	.st59{fill:none;stroke:#40304A;stroke-width:2;stroke-linecap:round;stroke-linejoin:round;stroke-miterlimit:10;}
	.st60{fill:#FFD8B7;}
	.st61{fill:#F4E4D4;}
	.st62{fill:none;stroke:#4456D6;stroke-width:0.5;stroke-linecap:round;stroke-linejoin:round;stroke-miterlimit:10;}
	.st63{fill:none;stroke:#DDA103;stroke-width:0.25;stroke-miterlimit:10;}
	.st64{fill:none;stroke:#FFFFFF;stroke-width:0.5;stroke-linecap:round;stroke-linejoin:round;stroke-miterlimit:10;}
	.st65{fill:none;stroke:#64B48D;stroke-width:0.5;stroke-linecap:round;stroke-linejoin:round;stroke-miterlimit:10;}
	.st66{fill:none;stroke:#64B48D;stroke-linecap:round;stroke-linejoin:round;stroke-miterlimit:10;}
	.st67{opacity:0.48;fill:#64B48D;}
	.st68{fill:none;stroke:#64B48D;stroke-width:0.25;stroke-linecap:round;stroke-linejoin:round;stroke-miterlimit:10;}
	.st69{fill:none;stroke:#F06449;stroke-width:2;stroke-linecap:round;stroke-linejoin:round;stroke-miterlimit:10;}
	.st70{opacity:0.92;fill:#64B48D;}
	.st71{opacity:0.57;fill:#408A6F;}
	.st72{opacity:0.36;fill:#408A6F;}
	.st73{fill:none;stroke:#BE412D;stroke-width:2;stroke-linecap:round;stroke-linejoin:round;stroke-miterlimit:10;}
	.st74{opacity:0.65;fill:none;stroke:#408A6F;stroke-width:0.25;stroke-linecap:round;stroke-linejoin:round;stroke-miterlimit:10;}
	.st75{opacity:0.67;fill:none;stroke:#64B48D;stroke-width:0.25;stroke-linecap:round;stroke-linejoin:round;stroke-miterlimit:10;}
	.st76{opacity:0.98;fill:#64B48D;}
	.st77{fill:none;stroke:#408A6F;stroke-width:0.25;stroke-linecap:round;stroke-linejoin:round;stroke-miterlimit:10;}
	.st78{fill:none;stroke:#FFD9B2;stroke-width:0.5;stroke-linecap:round;stroke-linejoin:round;}
	
		.st79{fill:none;stroke:#FFD9B2;stroke-width:0.5;stroke-linecap:round;stroke-linejoin:round;stroke-dasharray:4.0333505,4.0333505;}
	.st80{fill:#E68B4A;}
	.st81{opacity:0.62;fill:#64B48D;}
	.st82{fill:none;stroke:#FBC32E;stroke-width:0.25;stroke-miterlimit:10;}
	.st83{fill:none;stroke:#4456D6;stroke-linecap:round;stroke-linejoin:round;stroke-miterlimit:10;}
	.st84{fill:none;stroke:#E68B4A;stroke-width:0.5;stroke-linecap:round;stroke-linejoin:round;stroke-miterlimit:10;}
	.st85{fill:none;stroke:#203881;stroke-width:0.5;stroke-linecap:round;stroke-linejoin:round;stroke-miterlimit:10;}
	.st86{opacity:0.29;fill:#EAE8F3;}
	.st87{fill:none;stroke:#A6A3AE;stroke-width:0.5;stroke-linecap:round;stroke-linejoin:round;stroke-miterlimit:10;}
	.st88{opacity:0.74;fill:#FFFFFF;}
	.st89{opacity:0.19;fill:#FFFFFF;}
	.st90{fill:none;stroke:#40304A;stroke-width:0.25;stroke-linecap:round;stroke-linejoin:round;stroke-miterlimit:10;}
	.st91{fill:none;stroke:#F34B4B;stroke-width:2;stroke-linecap:round;stroke-linejoin:round;stroke-miterlimit:10;}
	.st92{fill:none;stroke:#43334E;stroke-width:0.5;stroke-linecap:round;stroke-linejoin:round;stroke-miterlimit:10;}
	.st93{fill:none;stroke:#6582FC;stroke-miterlimit:10;}
	.st94{opacity:0.47;fill:#A6A3AE;}
	.st95{opacity:0.43;fill:#FFFFFF;}
	.st96{fill:none;stroke:#FBE6BB;stroke-linecap:round;stroke-linejoin:round;stroke-miterlimit:10;}
	.st97{fill:none;stroke:#5B4B68;stroke-width:0.5;stroke-linecap:round;stroke-linejoin:round;stroke-miterlimit:10;}
	.st98{fill:none;stroke:#40304A;stroke-width:0.5;stroke-linecap:round;stroke-linejoin:round;stroke-miterlimit:10;}
	.st99{fill:none;stroke:#DDA103;stroke-linecap:round;stroke-linejoin:round;stroke-miterlimit:10;}
	.st100{fill:none;stroke:#FBC32E;stroke-linecap:round;stroke-linejoin:round;stroke-miterlimit:10;}
	.st101{fill:none;stroke:#32775B;stroke-width:0.5;stroke-linecap:round;stroke-linejoin:round;stroke-miterlimit:10;}
	.st102{opacity:0.4;fill:#FBE6BB;}
	.st103{fill:none;stroke:#FBC32E;stroke-width:0.25;stroke-linecap:round;stroke-linejoin:round;stroke-miterlimit:10;}
	.st104{fill:none;stroke:#4456D6;stroke-miterlimit:10;}
	.st105{opacity:0.61;fill:#64B48D;}
	.st106{opacity:0.9;fill:#64B48D;}
	.st107{opacity:0.76;fill:#64B48D;}
	.st108{fill:none;stroke:#5B4B68;stroke-width:0.5;stroke-miterlimit:10;}
	.st109{opacity:0.66;fill:#A6A3AE;}
	.st110{fill:none;stroke:#43334E;stroke-miterlimit:10;}
	.st111{opacity:0.52;fill:#6582FC;}
	.st112{fill:none;stroke:#DDA103;stroke-width:0.5;stroke-linecap:round;stroke-linejoin:round;stroke-miterlimit:10;}
	.st113{fill:#46724E;}
	.st114{fill:#FE8B2E;}
	.st115{fill:none;stroke:#7D4C47;stroke-width:2;stroke-linecap:round;stroke-linejoin:round;stroke-miterlimit:10;}
	.st116{opacity:0.48;fill:#FFFFFF;}
	.st117{font-family:'MyriadPro-Regular';}
	.st118{font-size:7.8492498px;}
	.st119{opacity:0.4;fill:#EAE8F3;}
	.st120{fill:none;stroke:#EAE8F3;stroke-width:0.5;stroke-linecap:round;stroke-miterlimit:10;}
	.st121{font-size:13.82337px;}
	.st122{fill:none;stroke:#4456D6;stroke-width:0.25;stroke-linecap:round;stroke-linejoin:round;stroke-miterlimit:10;}
	.st123{opacity:0.5;fill:#EAE8F3;}
	.st124{opacity:0.46;fill:#A6A3AE;}
	.st125{fill:#E0916E;}
	.st126{fill:none;stroke:#A0665A;stroke-linecap:round;stroke-linejoin:round;stroke-miterlimit:10;}
	.st127{opacity:0.46;fill:#BE412D;}
	.st128{fill:none;stroke:#203881;stroke-linecap:round;stroke-linejoin:round;stroke-miterlimit:10;}
	.st129{fill:#DBDBE1;}
	.st130{fill:none;stroke:#6582FC;stroke-width:0.5;stroke-linecap:round;stroke-linejoin:round;stroke-miterlimit:10;}
	.st131{opacity:0.53;fill:#A6A3AE;}
	.st132{fill:none;stroke:#DDA103;stroke-miterlimit:10;}
	.st133{opacity:0.2;fill:#FFFFFF;}
	.st134{fill:#B4A1BF;}
	.st135{opacity:0.5;fill:#6582FC;}
	.st136{opacity:0.6;fill:none;stroke:#FFFFFF;stroke-linecap:round;stroke-linejoin:round;stroke-miterlimit:10;}
	.st137{opacity:0.6;fill:none;stroke:#FFFFFF;stroke-width:2;stroke-linecap:round;stroke-linejoin:round;stroke-miterlimit:10;}
	.st138{opacity:0.54;fill:#A6A3AE;}
	.st139{fill:#161718;stroke:#000000;stroke-width:0.25;stroke-miterlimit:10;}
</style>
<g id="_x31_5">
	<g>
		<path class="st14" d="M133.3317871,122.6874313v5.0171051c0,1.836647-1.735611,3.5276871-4.6474457,4.8715744h-0.0109406
			c-0.2351227,0.111969-0.4593201,0.2127838-0.7168808,0.3135376h-0.0114822
			c-2.0713654,0.8623505-4.6359711,1.5566711-7.559288,2.0158691h-0.0109329
			c-0.2351379,0.0447693-0.4702682,0.0783386-0.7168884,0.1119537h-0.0109329
			c-2.3518906,0.347168-4.8940735,0.5375366-7.5707703,0.5599518h-0.7502441
			c-2.6652145-0.0224152-5.2073975-0.2127838-7.559288-0.5599518h-0.0109329
			c-0.2466202-0.0336151-0.4817505-0.0671844-0.7168884-0.1119537h-0.0114822
			c-2.9227676-0.459198-5.4983063-1.1535187-7.5811539-2.0158691h-0.0114899
			c-0.2466125-0.1119537-0.4817505-0.2127838-0.7168808-0.3247375l-0.0109406-0.0112152
			c-2.8784714-1.3326721-4.6026077-3.0125122-4.6026077-4.8491592v-5.0618744l4.5801926-1.8254318l0.7393036,0.2127838
			l2.3513412,0.6719055c1.5682907-0.4815445,3.3263245-0.8734818,5.2188797-1.187088
			c0.2466202-0.0447693,0.4817505-0.0783997,0.7278214-0.1119614c2.3518906-0.3471603,4.9050064-0.5487366,7.5817108-0.5599442
			h0.7278214c2.688179,0.0112076,5.2413025,0.2015762,7.5931854,0.537529
			c0.2460709,0.0336304,0.4812088,0.0783997,0.7278214,0.11203c1.9264603,0.31353,3.7178497,0.7166824,5.3085632,1.2094345
			l2.262207-0.6494904l0.7387619-0.2127838L133.3317871,122.6874313z"/>
		<path class="st15" d="M95.4347458,132.8896484c-0.2466125-0.1119537-0.4817505-0.2127838-0.7168808-0.3247375
			l-0.0109406-0.0112152c-0.0114822-2.7548981-0.0114822-5.5770493-0.0224152-8.3655777l0.7393036,0.2127838
			C95.4238129,127.1894302,95.4347458,130.0451508,95.4347458,132.8896484z"/>
		<path class="st15" d="M103.7557602,135.0174713c-0.2466202-0.0336151-0.4817505-0.0671844-0.7168884-0.1119537h-0.0114822
			c-0.0109329-3.572464-0.0218735-7.3353653-0.0333557-11.0197906c0.2466202-0.0447693,0.4817505-0.0783997,0.7278214-0.1119614
			C103.7333374,127.4469833,103.744278,131.2658539,103.7557602,135.0174713z"/>
		<path class="st15" d="M112.0652847,135.5774231h-0.7393036c0-3.9868164-0.0109329-8.2311935-0.0224152-12.3636017h0.7278214
			C112.0538025,127.2454071,112.0652847,131.4450073,112.0652847,135.5774231z"/>
		<path class="st15" d="M120.3748169,134.9055176c-0.2351379,0.0447693-0.4702682,0.0783386-0.7168884,0.1119537h-0.0109329
			c0-3.6508636-0.0114822-7.4920883-0.0224228-11.2661285c0.2460709,0.0335617,0.4812088,0.0671921,0.7278214,0.1119614
			C120.3523941,127.4806137,120.3638763,131.2210236,120.3748169,134.9055176z"/>
		<path class="st15" d="M128.6734009,132.5761108c-0.2351227,0.111969-0.4593201,0.2127838-0.7168808,0.3135376h-0.0114822
			c-0.0109329-2.7773132-0.0109329-5.6330261-0.0218735-8.4663925l0.7387619-0.2127838
			C128.6619263,126.9542236,128.6734009,129.7651672,128.6734009,132.5761108z"/>
		<ellipse class="st15" cx="111.7175827" cy="122.9631042" rx="21.6088352" ry="7.8632779"/>
		<path class="st16" d="M130.2357025,122.9610519c0,0.4625626-0.1722412,0.9066544-0.5015869,1.3414307
			c-1.9439774,2.544075-9.2730331,4.4312973-18.0132675,4.4312973c-8.7479019,0-16.0771408-1.8872223-18.0132751-4.4312973
			c-0.3293533-0.4347763-0.5015869-0.8788681-0.5015869-1.3414307c0-3.1916656,8.285347-5.772728,18.5148621-5.772728
			C121.9425125,117.188324,130.2357025,119.7693863,130.2357025,122.9610519z"/>
		<path class="st14" d="M123.5972366,123.4001389l-0.3351669,0.8335266l-3.0032272-0.0995102
			c-0.3253708,0.7558594-1.1763611,1.5344009-2.0995789,1.9651184l-1.8691483-0.3790054
			c0.0109634-0.000206,0.0107269-0.0131378,0.0216827-0.0133438l-0.0657654,0.0012207l0.3056335-0.6520538
			c0,0,0.6978302-0.1680527,1.0256653-0.212944c0.0109634-0.000206,0.0109634-0.000206,0.0109634-0.000206
			c0.3340149-0.3034973,0.5908279-0.6314545,0.726593-0.9830399c0.3661346-0.9375534-0.59935-1.6048889-2.2983627-1.6639252
			c-1.6329803-0.0602646-2.8511581,0.4148178-4.1259842,1.369194c-1.7286911,1.298996-3.423111,2.0801315-6.0098495,1.9858475
			c-2.4661942-0.08358-4.0373459-0.9207077-4.0052719-2.1493835l-3.0034637-0.1124496l0.3246841-0.8075333l2.8824081,0.0888062
			c0.3690109-0.782547,1.0606384-1.2994843,1.721756-1.6737442l1.011879,0.2268906
			c0.0516968-0.1690216,0.1038666-0.3121796,0.11483-0.3123779c0.0216827-0.0133438,0.9715805-0.1731186,0.9715805-0.1731186
			l-0.2615509,0.6641769c-0.4771957,0.2544632-1.3439407,0.7746429-1.6676331,1.6209793
			c-0.4085464,1.0158997,0.8154221,1.445755,1.9990616,1.4884567c1.5455933,0.0489426,2.5119095-0.4084549,4.0469208-1.5228577
			c1.7829895-1.3128586,3.6005859-1.9412308,6.2423935-1.8479614c2.3565903,0.0856857,4.2662735,0.8777161,4.2370758,2.2614746
			L123.5972366,123.4001389z"/>
		<path class="st17" d="M123.5285034,123.573349l-3.0046539-0.1046982c-0.3319092,0.764267-1.1798248,1.5355682-2.1061707,1.9706039
			l-1.8684692-0.3858032c0.9014969-0.4484634,1.737442-1.115387,2.0286636-1.8523941
			c0.3699036-0.9360352-0.6005478-1.6118011-2.2960815-1.6706696c-1.6366653-0.0568008-2.8526306,0.4221039-4.1289825,1.3660889
			c-1.7227402,1.302597-3.4197922,2.0858307-6.0080643,1.9955215c-2.4694366-0.0855637-4.0372391-0.9295425-4.0043488-2.1572876
			l-3.0067978-0.1046524l0.3228989-0.817131l2.8879852,0.1005478c0.3715591-0.7889938,1.0614777-1.3118134,1.7184906-1.6762161
			l1.8328552,0.3978271c-0.4668655,0.2636719-1.3344421,0.7822037-1.6675568,1.6254044
			c-0.4005356,1.0148773,0.8162155,1.4449463,2.0065155,1.4860306c1.547821,0.0540314,2.5148621-0.4076462,4.0390244-1.5159225
			c1.7866974-1.3145142,3.603714-1.9453201,6.251915-1.8535919c2.3517075,0.0820694,4.2674484,0.8836212,4.2367477,2.2584
			l3.0945663,0.1074524L123.5285034,123.573349z"/>
	</g>
	<g>
		<path class="st14" d="M129.079895,114.3757553v5.0171051c0,1.8366394-1.7356262,3.5276947-4.6474609,4.871582h-0.0109329
			c-0.2351379,0.1119614-0.4593353,0.2127838-0.7168884,0.31353h-0.0114822
			c-2.0713654,0.8623428-4.6359711,1.5566711-7.559288,2.0158691h-0.0109329
			c-0.2351379,0.0447693-0.4702682,0.078331-0.7168884,0.1119614h-0.0109329
			c-2.3518906,0.3471603-4.8940735,0.537529-7.5707703,0.5599442h-0.7502441
			c-2.6652145-0.0224152-5.2073975-0.2127838-7.5592804-0.5599442h-0.0109406
			c-0.2466125-0.0336304-0.4817505-0.0671921-0.7168808-0.1119614h-0.0114899
			c-2.9227676-0.459198-5.4983063-1.1535263-7.5811539-2.0158691h-0.0114822
			c-0.2466202-0.1119614-0.4817581-0.2127762-0.7168884-0.3247452l-0.0109329-0.0112076
			c-2.878479-1.3326797-4.6026154-3.0125198-4.6026154-4.8491592v-5.0618744l4.5801926-1.8254318l0.7393036,0.2127762
			l2.3513412,0.6719131c1.5682907-0.4815445,3.3263245-0.8734818,5.2188797-1.187088
			c0.2466202-0.0447693,0.4817505-0.0783997,0.7278214-0.1119614c2.3518906-0.3471603,4.9050064-0.5487366,7.5817108-0.5599442
			h0.7278214c2.688179,0.0112076,5.2413025,0.2015686,7.5931854,0.537529
			c0.2460709,0.0336227,0.4812088,0.0783997,0.7278214,0.11203c1.9264603,0.31353,3.7178574,0.7166748,5.3085632,1.2094345
			l2.262207-0.6494904l0.7387619-0.2127838L129.079895,114.3757553z"/>
		<path class="st15" d="M91.1828461,124.5779724c-0.2466202-0.1119614-0.4817581-0.2127762-0.7168884-0.3247452
			l-0.0109329-0.0112076c-0.0114899-2.7548981-0.0114899-5.5770493-0.0224228-8.3655777l0.7393036,0.2127838
			C91.1719055,118.8777542,91.1828461,121.7334671,91.1828461,124.5779724z"/>
		<path class="st15" d="M99.5038528,126.7058029c-0.2466125-0.0336304-0.4817505-0.0671921-0.7168808-0.1119614h-0.0114899
			c-0.0109329-3.572464-0.0218735-7.3353653-0.0333557-11.0197906c0.2466202-0.0447693,0.4817505-0.0783997,0.7278214-0.1119614
			C99.4814377,119.1353073,99.4923706,122.9541855,99.5038528,126.7058029z"/>
		<path class="st15" d="M107.813385,127.2657471h-0.7393112c0-3.9868164-0.0109329-8.2311935-0.0224152-12.3636093h0.7278214
			C107.8018951,118.9337311,107.813385,123.1333389,107.813385,127.2657471z"/>
		<path class="st15" d="M116.1229095,126.5938416c-0.2351379,0.0447693-0.4702682,0.078331-0.7168884,0.1119614h-0.0109329
			c0-3.6508713-0.0114822-7.4920959-0.0224228-11.2661362c0.2460709,0.0335617,0.4812088,0.0671921,0.7278214,0.1119614
			C116.1004868,119.1689377,116.111969,122.9093399,116.1229095,126.5938416z"/>
		<path class="st15" d="M124.4215012,124.2644424c-0.2351379,0.1119614-0.4593353,0.2127838-0.7168884,0.31353h-0.0114822
			c-0.0109329-2.7773132-0.0109329-5.6330261-0.0218735-8.4663925l0.7387619-0.2127838
			C124.4100189,118.6425476,124.4215012,121.4534912,124.4215012,124.2644424z"/>
		<ellipse class="st15" cx="107.4656754" cy="114.6514206" rx="21.6088352" ry="7.8632779"/>
		<path class="st16" d="M125.9837952,114.6493759c0,0.4625549-0.1722336,0.9066544-0.5015869,1.3414307
			c-1.9439774,2.544075-9.2730255,4.4312973-18.0132675,4.4312973c-8.7479019,0-16.0771408-1.8872223-18.0132675-4.4312973
			c-0.329361-0.4347763-0.5015945-0.8788757-0.5015945-1.3414307c0-3.1916656,8.285347-5.772728,18.5148621-5.772728
			C117.6906052,108.8766479,125.9837952,111.4577103,125.9837952,114.6493759z"/>
		<path class="st14" d="M119.3453293,115.0884628l-0.3351669,0.8335266l-3.0032272-0.0995102
			c-0.3253708,0.7558594-1.1763611,1.5344009-2.0995789,1.9651184l-1.8691483-0.3790054
			c0.0109634-0.000206,0.0107269-0.0131454,0.0216827-0.0133438l-0.0657654,0.0012131l0.3056335-0.6520462
			c0,0,0.6978302-0.1680527,1.0256729-0.212944c0.0109558-0.000206,0.0109558-0.000206,0.0109558-0.000206
			c0.3340225-0.3034973,0.5908279-0.6314545,0.726593-0.9830475c0.3661346-0.9375458-0.59935-1.6048813-2.2983627-1.6639252
			c-1.6329803-0.060257-2.8511581,0.4148178-4.1259842,1.369194c-1.7286911,1.298996-3.423111,2.0801392-6.0098495,1.9858551
			c-2.4661942-0.08358-4.0373459-0.9207077-4.0052719-2.1493835l-3.0034637-0.1124496l0.3246841-0.8075333l2.8824158,0.0888062
			c0.3690033-0.782547,1.0606308-1.2994843,1.7217484-1.6737442l1.011879,0.2268906
			c0.0516968-0.1690216,0.1038666-0.3121796,0.11483-0.3123779c0.0216827-0.0133438,0.9715805-0.1731262,0.9715805-0.1731262
			l-0.2615509,0.6641769c-0.4771957,0.2544708-1.3439407,0.7746506-1.6676331,1.6209869
			c-0.4085464,1.0158997,0.8154297,1.445755,1.9990692,1.4884567c1.5455856,0.0489426,2.5119019-0.4084549,4.0469131-1.5228577
			c1.7829895-1.3128586,3.6005859-1.9412308,6.2423935-1.8479691c2.3565903,0.0856857,4.2662735,0.8777237,4.2370758,2.2614746
			L119.3453293,115.0884628z"/>
		<path class="st17" d="M119.2765961,115.2616653l-3.0046539-0.1046906
			c-0.3319016,0.764267-1.1798172,1.5355682-2.1061707,1.9706039l-1.8684692-0.3858032
			c0.9014969-0.4484634,1.737442-1.115387,2.0286636-1.8523941c0.3699112-0.9360352-0.6005478-1.6118011-2.2960815-1.6706696
			c-1.6366577-0.0568085-2.8526306,0.4221039-4.1289825,1.3660889c-1.7227402,1.302597-3.4197922,2.0858307-6.0080643,1.9955215
			c-2.4694366-0.0855713-4.0372391-0.9295425-4.0043488-2.1572876l-3.0067978-0.1046524l0.3228989-0.817131l2.8879852,0.1005402
			c0.3715591-0.7889862,1.0614777-1.3118057,1.7184906-1.6762085l1.8328552,0.3978271
			c-0.4668655,0.2636719-1.3344345,0.7822037-1.6675568,1.6254044c-0.4005356,1.0148773,0.8162155,1.4449463,2.0065155,1.4860306
			c1.547821,0.0540237,2.5148621-0.4076462,4.0390244-1.5159302c1.7866974-1.3145065,3.603714-1.9453125,6.251915-1.8535843
			c2.3517075,0.0820694,4.2674484,0.8836212,4.2367477,2.2584l3.0945663,0.1074524L119.2765961,115.2616653z"/>
	</g>
	<g>
		<path class="st14" d="M133.5517426,107.309433v5.0171051c0,1.8366394-1.7356262,3.5276947-4.6474457,4.8715744h-0.0109406
			c-0.2351379,0.111969-0.4593353,0.2127838-0.7168884,0.3135376h-0.0114899
			c-2.0713577,0.8623428-4.6359634,1.5566711-7.5592804,2.0158615h-0.0109329
			c-0.2351379,0.0447769-0.4702682,0.0783386-0.7168884,0.111969h-0.0109329
			c-2.3518906,0.3471603-4.8940735,0.5375214-7.5707703,0.5599442h-0.7502441
			c-2.6652145-0.0224228-5.2073975-0.2127838-7.559288-0.5599442h-0.0109329
			c-0.2466202-0.0336304-0.4817505-0.0671921-0.7168884-0.111969h-0.0114822
			c-2.9227676-0.4591904-5.4983063-1.1535187-7.5811615-2.0158615h-0.0114822
			c-0.2466125-0.1119614-0.4817505-0.2127838-0.7168808-0.3247452l-0.0109406-0.0112076
			c-2.878479-1.3326797-4.6026077-3.0125198-4.6026077-4.8491592v-5.061882l4.5801926-1.8254318l0.7393036,0.2127838
			l2.3513412,0.6719131c1.5682907-0.4815521,3.3263245-0.8734818,5.2188797-1.187088
			c0.2466202-0.0447693,0.4817505-0.0783997,0.7278214-0.1119614c2.3518906-0.347168,4.9050064-0.5487366,7.5817032-0.5599442
			h0.7278214c2.6881866,0.0112076,5.2413025,0.2015686,7.5931931,0.5375214
			c0.2460709,0.0336304,0.4812012,0.0783997,0.7278214,0.11203c1.9264603,0.3135376,3.7178497,0.7166824,5.3085632,1.2094421
			l2.262207-0.6494904l0.7387543-0.2127838L133.5517426,107.309433z"/>
		<path class="st15" d="M95.6546936,117.5116501c-0.2466125-0.1119614-0.4817505-0.2127838-0.7168808-0.3247452
			l-0.0109406-0.0112076c-0.0114822-2.7548981-0.0114822-5.5770493-0.0224152-8.3655777l0.7393036,0.2127838
			C95.6437607,111.8114243,95.6546936,114.6671448,95.6546936,117.5116501z"/>
		<path class="st15" d="M103.975708,119.6394806c-0.2466202-0.0336304-0.4817505-0.0671921-0.7168884-0.111969h-0.0114822
			c-0.0109329-3.572464-0.0218735-7.3353577-0.0333557-11.019783c0.2466202-0.0447769,0.4817505-0.0783997,0.7278214-0.1119614
			C103.9532852,112.068985,103.9642258,115.8878555,103.975708,119.6394806z"/>
		<path class="st15" d="M112.2852325,120.1994247h-0.7393036c0-3.986824-0.0109329-8.2311935-0.0224228-12.3636093h0.7278214
			C112.2737503,111.8674088,112.2852325,116.067009,112.2852325,120.1994247z"/>
		<path class="st15" d="M120.5947647,119.5275116c-0.2351379,0.0447769-0.4702682,0.0783386-0.7168884,0.111969h-0.0109329
			c0-3.6508713-0.0114899-7.4920959-0.0224228-11.2661362c0.2460709,0.0335617,0.4812012,0.0671921,0.7278214,0.1119614
			C120.5723419,112.1026077,120.5838242,115.8430176,120.5947647,119.5275116z"/>
		<path class="st15" d="M128.8933563,117.1981125c-0.2351379,0.111969-0.4593353,0.2127838-0.7168884,0.3135376h-0.0114899
			c-0.0109253-2.7773132-0.0109253-5.6330338-0.0218658-8.4664001l0.7387543-0.2127762
			C128.8818665,111.5762253,128.8933563,114.3871689,128.8933563,117.1981125z"/>
		<ellipse class="st15" cx="111.9375305" cy="107.5850983" rx="21.6088352" ry="7.8632779"/>
		<path class="st16" d="M130.455658,107.5830536c0,0.4625549-0.1722412,0.9066544-0.5016022,1.3414307
			c-1.9439697,2.544075-9.2730255,4.4312973-18.0132675,4.4312973c-8.7478943,0-16.0771332-1.8872223-18.0132675-4.4312973
			c-0.3293533-0.4347763-0.5015869-0.8788757-0.5015869-1.3414307c0-3.1916733,8.2853394-5.772728,18.5148544-5.772728
			C122.1624603,101.8103256,130.455658,104.3913803,130.455658,107.5830536z"/>
		<path class="st14" d="M123.8171844,108.0221329l-0.3351669,0.8335342l-3.0032272-0.0995102
			c-0.3253708,0.7558594-1.1763611,1.5343933-2.0995865,1.9651184l-1.8691406-0.3790131
			c0.0109634-0.0001984,0.0107193-0.0131378,0.0216827-0.0133362l-0.0657654,0.0012131l0.3056335-0.6520538
			c0,0,0.6978226-0.168045,1.0256653-0.212944c0.0109634-0.0001984,0.0109634-0.0001984,0.0109634-0.0001984
			c0.3340149-0.3035049,0.5908279-0.6314545,0.726593-0.9830475c0.3661346-0.9375458-0.59935-1.6048813-2.2983627-1.6639252
			c-1.632988-0.0602646-2.8511658,0.4148178-4.1259842,1.369194c-1.7286911,1.298996-3.423111,2.0801315-6.0098495,1.9858475
			c-2.4661942-0.0835724-4.0373459-0.9207001-4.0052719-2.1493759l-3.0034714-0.1124496l0.3246841-0.8075333l2.8824158,0.0888062
			c0.3690033-0.7825546,1.0606384-1.2994843,1.7217484-1.6737442l1.0118866,0.2268906
			c0.0516968-0.1690292,0.1038666-0.3121796,0.11483-0.3123856c0.0216827-0.0133362,0.9715805-0.1731186,0.9715805-0.1731186
			l-0.2615509,0.6641769c-0.4772034,0.2544708-1.3439407,0.7746506-1.6676407,1.6209869
			c-0.4085388,1.015892,0.8154297,1.445755,1.9990692,1.4884567c1.5455933,0.0489426,2.5119095-0.4084549,4.0469208-1.5228577
			c1.7829895-1.3128662,3.6005859-1.9412308,6.2423935-1.8479691c2.3565826,0.0856857,4.2662735,0.8777237,4.2370758,2.2614746
			L123.8171844,108.0221329z"/>
		<path class="st17" d="M123.7484512,108.195343l-3.0046616-0.1046906c-0.3319016,0.764267-1.1798172,1.5355682-2.106163,1.9706039
			l-1.8684692-0.3858032c0.9014969-0.4484711,1.737442-1.1153946,2.0286636-1.8523941
			c0.3699036-0.9360428-0.6005478-1.6118088-2.2960815-1.6706772c-1.6366653-0.0568008-2.8526306,0.4221039-4.1289825,1.3660965
			c-1.7227402,1.302597-3.4197922,2.0858307-6.0080643,1.9955215c-2.4694443-0.0855713-4.0372391-0.9295425-4.0043564-2.1572876
			l-3.0067902-0.10466l0.3228989-0.8171234l2.8879776,0.1005402c0.3715591-0.7889862,1.0614777-1.3118134,1.7184982-1.6762085
			l1.8328552,0.3978271c-0.4668655,0.2636642-1.3344421,0.7822037-1.6675568,1.6253967
			c-0.4005356,1.0148849,0.8162155,1.4449539,2.0065155,1.4860306c1.547821,0.0540314,2.5148621-0.4076385,4.0390167-1.5159225
			c1.786705-1.3145065,3.6037216-1.9453125,6.2519226-1.8535843c2.3517075,0.0820618,4.2674484,0.8836136,4.2367477,2.2584
			l3.0945663,0.1074448L123.7484512,108.195343z"/>
	</g>
	<g>
		<path class="st14" d="M128.1129608,99.7710571v5.0171051c0,1.8366394-1.735611,3.5276947-4.6474457,4.871582h-0.0109329
			c-0.2351379,0.1119614-0.4593353,0.2127838-0.7168884,0.31353h-0.0114822
			c-2.0713654,0.8623428-4.6359711,1.5566711-7.559288,2.0158691h-0.0109329
			c-0.2351379,0.0447693-0.4702682,0.078331-0.7168884,0.1119614h-0.0109329
			c-2.3518906,0.3471603-4.8940735,0.537529-7.5707703,0.5599442h-0.7502441
			c-2.6652145-0.0224152-5.2073975-0.2127838-7.559288-0.5599442h-0.0109329
			c-0.2466202-0.0336304-0.4817505-0.0671921-0.7168884-0.1119614h-0.0114822
			c-2.9227676-0.459198-5.4983063-1.1535263-7.5811615-2.0158691h-0.0114822
			c-0.2466125-0.1119614-0.4817505-0.2127838-0.7168808-0.3247452l-0.0109406-0.0112076
			c-2.878479-1.3326797-4.6026077-3.0125198-4.6026077-4.8491592v-5.0618744l4.5801926-1.8254318l0.7393036,0.2127762
			l2.3513412,0.6719131c1.5682907-0.4815445,3.3263245-0.8734818,5.2188797-1.187088
			c0.2466202-0.0447693,0.4817505-0.0783997,0.7278214-0.1119614c2.3518906-0.3471603,4.9050064-0.5487366,7.5817032-0.5599442
			h0.727829c2.688179,0.0112076,5.2412949,0.2015686,7.5931854,0.537529c0.2460709,0.0336227,0.4812012,0.0783997,0.7278214,0.11203
			c1.9264603,0.31353,3.7178497,0.7166748,5.3085632,1.2094345l2.262207-0.6494904l0.7387543-0.2127838L128.1129608,99.7710571z"/>
		<path class="st15" d="M90.2159195,109.9732742c-0.2466125-0.1119614-0.4817505-0.2127838-0.7168808-0.3247452
			l-0.0109406-0.0112076c-0.0114822-2.7548981-0.0114822-5.5770493-0.0224152-8.3655777l0.7393036,0.2127838
			C90.2049866,104.273056,90.2159195,107.1287689,90.2159195,109.9732742z"/>
		<path class="st15" d="M98.5369339,112.1011047c-0.2466202-0.0336304-0.4817505-0.0671921-0.7168884-0.1119614h-0.0114822
			c-0.0109329-3.5724716-0.0218735-7.3353653-0.0333557-11.0197906c0.2466202-0.0447693,0.4817505-0.0783997,0.7278214-0.1119614
			C98.5145111,104.5306091,98.5254517,108.3494873,98.5369339,112.1011047z"/>
		<path class="st15" d="M106.8464584,112.6610489h-0.7393036c0-3.9868164-0.0109329-8.2311935-0.0224228-12.3636093h0.727829
			C106.8349762,104.3290329,106.8464584,108.5286407,106.8464584,112.6610489z"/>
		<path class="st15" d="M115.1559906,111.9891434c-0.2351379,0.0447693-0.4702682,0.078331-0.7168884,0.1119614h-0.0109329
			c0-3.6508713-0.0114899-7.4920959-0.0224228-11.2661362c0.2460709,0.0335617,0.4812012,0.0671921,0.7278214,0.1119614
			C115.1335678,104.5642395,115.14505,108.3046417,115.1559906,111.9891434z"/>
		<path class="st15" d="M123.4545822,109.6597443c-0.2351379,0.1119614-0.4593353,0.2127838-0.7168884,0.31353h-0.0114822
			c-0.0109406-2.7773132-0.0109406-5.6330338-0.0218735-8.4663925l0.7387543-0.2127838
			C123.4430923,104.0378494,123.4545822,106.848793,123.4545822,109.6597443z"/>
		<ellipse class="st15" cx="106.4987564" cy="100.0467224" rx="21.6088352" ry="7.8632779"/>
		<path class="st16" d="M125.0168762,100.0446777c0,0.4625549-0.1722336,0.9066544-0.5015869,1.3414307
			c-1.9439774,2.544075-9.2730331,4.4312973-18.0132751,4.4312973c-8.7478943,0-16.0771332-1.8872223-18.0132675-4.4312973
			c-0.3293533-0.4347763-0.5015869-0.8788757-0.5015869-1.3414307c0-3.1916656,8.285347-5.772728,18.5148544-5.772728
			C116.7236862,94.2719498,125.0168762,96.8530121,125.0168762,100.0446777z"/>
		<path class="st14" d="M118.3784103,100.4837646l-0.3351669,0.8335266l-3.0032272-0.0995102
			c-0.3253708,0.7558594-1.1763611,1.5344009-2.0995789,1.9651184l-1.8691483-0.3790131
			c0.0109634-0.0001984,0.0107193-0.0131378,0.0216827-0.0133362l-0.0657654,0.0012131l0.3056335-0.6520538
			c0,0,0.6978226-0.168045,1.0256653-0.2129364c0.0109634-0.000206,0.0109634-0.000206,0.0109634-0.000206
			c0.3340149-0.3035049,0.5908279-0.6314545,0.726593-0.9830475c0.3661346-0.9375458-0.59935-1.6048813-2.2983627-1.6639252
			c-1.632988-0.060257-2.8511658,0.4148178-4.1259842,1.369194c-1.7286911,1.298996-3.423111,2.0801392-6.0098495,1.9858475
			c-2.4661942-0.0835724-4.0373459-0.9207001-4.0052719-2.1493759l-3.0034714-0.1124496l0.3246841-0.8075333l2.8824158,0.0888062
			c0.3690109-0.782547,1.0606384-1.2994843,1.721756-1.6737442l1.011879,0.2268906
			c0.0516968-0.1690216,0.1038666-0.3121796,0.11483-0.3123779c0.0216827-0.0133438,0.9715805-0.1731262,0.9715805-0.1731262
			l-0.2615509,0.6641769c-0.4772034,0.2544708-1.3439407,0.7746506-1.6676407,1.6209869
			c-0.4085388,1.0158997,0.8154297,1.445755,1.9990692,1.4884567c1.5455933,0.0489426,2.5119095-0.4084549,4.0469208-1.5228577
			c1.7829895-1.3128586,3.6005859-1.9412308,6.2423935-1.8479691c2.3565903,0.0856857,4.2662735,0.8777237,4.2370758,2.2614746
			L118.3784103,100.4837646z"/>
		<path class="st17" d="M118.3096771,100.6569672l-3.0046616-0.1046906c-0.3319016,0.764267-1.1798172,1.5355682-2.106163,1.9706039
			l-1.8684692-0.3858032c0.9014969-0.4484634,1.737442-1.115387,2.0286636-1.8523941
			c0.3699036-0.9360428-0.6005478-1.6118011-2.2960815-1.6706696c-1.6366653-0.0568085-2.8526306,0.4221039-4.1289825,1.3660889
			c-1.7227402,1.302597-3.4197922,2.0858307-6.0080643,1.9955215c-2.4694443-0.0855713-4.0372391-0.9295425-4.0043488-2.1572876
			l-3.0067978-0.1046524l0.3228989-0.817131l2.8879776,0.1005402c0.3715668-0.7889862,1.0614853-1.3118057,1.7184982-1.6762085
			l1.8328552,0.3978271c-0.4668655,0.2636642-1.3344421,0.7822037-1.6675568,1.6254044
			c-0.4005356,1.0148773,0.8162155,1.4449463,2.0065155,1.4860306c1.547821,0.0540237,2.5148621-0.4076462,4.0390244-1.5159302
			c1.7866974-1.3145065,3.603714-1.9453125,6.251915-1.8535843c2.3517075,0.0820694,4.2674484,0.8836136,4.2367477,2.2584
			l3.0945663,0.1074524L118.3096771,100.6569672z"/>
	</g>
	<path class="st0" d="M71.2786026,70.8875198v8.2502594l-3.9981003,0.6515884
		c-0.0441513,0.011055-0.0662613,0.02211-0.0662613,0.02211l-1.3364105,0.5080719l-3.600441,1.3695068l-2.4519081,0.9166412
		l-1.7891998,0.9277649c-0.4859581,0.2319565-1.0271263,0.1325302-1.380558-0.2539978l-0.8283348-0.8615036l-0.7068634,0.1656952
		c-0.2429466,0.0662613-0.4859619,0.0552063-0.7178497-0.02211c-0.2430153-0.0883789-0.4749718-0.2761154-0.6295433-0.5301132
		c-0.2871704-0.5080719-0.1435852-1.1596603,0.3092079-1.513092l0.4418068-0.3423767l-1.2701416,0.6184921
		c-0.5742683,0.2539978-1.2590866,0.0330963-1.5461884-0.5191269l-0.2098465-0.3644867
		c-0.2540703-0.4859619-0.1656952-1.0712814,0.2650566-1.4578094l0.1877365-0.1656952l-1.0050163,0.4527893
		c-0.5632782,0.2540741-1.2480316,0.011055-1.5241432-0.5301132l-0.2098465-0.441803
		c-0.3092804-0.5632095-0.0773201-1.2921829,0.4970131-1.5903397l4.6939049-2.396698l0.353363-0.1877365
		c0.5522232-0.2650604,1.1265564-0.4527969,1.7560997-0.5301208c0.2761116-0.04422,0.5411682-0.055275,0.8062248-0.0662613
		l5.6768799,0.1325302l2.1647377-0.5853882L71.2786026,70.8875198z"/>
	<path class="st1" d="M71.2786026,70.8875198v8.2502594l-3.9981003,0.6515884
		c-0.0441513,0.011055-0.0662613,0.02211-0.0662613,0.02211l-1.3364105,0.5080719
		c-0.3534241-3.2691879-0.7178497-7.7753525-0.7178497-7.7753525L71.2786026,70.8875198z"/>
	<path class="st13" d="M69.6272964,101.9446487v29.5149918c0,0.4740601-0.2814331,0.8741455-0.6963425,1.0667725
		l-15.4094391,4.0597687l-3.7929916-3.9707794H39.2529945c-0.6370201,0-1.1409187-0.5187378-1.1409187-1.1557617v-11.0235596
		L23.5027981,105.115448l15.0686817-4.3115387l0.1333008,0.1479492c0.1629639-0.1036377,0.3407555-0.1479492,0.548214-0.1479492
		H68.47155c0.4297409,0,0.8001633,0.2221069,0.9927826,0.5628662
		C69.5679703,101.5299149,69.6272964,101.7371902,69.6272964,101.9446487z"/>
	<g>
		<path class="st34" d="M54.5220261,103.1844711H36.2239647l-0.0924454-0.0231094
			c-1.3968315-5.0218048-3.4171104-17.4436417,6.2338905-29.5422058l18.8177872,3.8789215
			C61.183197,77.4980774,50.0423546,87.1492157,54.5220261,103.1844711z"/>
		<path class="st67" d="M54.5220261,103.1844711H36.2239647l-0.0924454-0.0231094
			c-1.3968315-5.0218048-3.4171104-17.4436417,6.2338905-29.5422058l18.8177872,3.8789215
			C61.183197,77.4980774,50.0423546,87.1492157,54.5220261,103.1844711z"/>
		<path class="st68" d="M52.7905693,103.163826c-3.1541443-12.0341034,2.0529861-20.7261276,5.1938095-24.6311111
			l-14.9415169-3.0743179c-8.8510857,11.7669144-6.3785515,23.7470474-5.123848,27.8625336"/>
		
			<ellipse transform="matrix(0.1643054 -0.9864095 0.9864095 0.1643054 -51.7066956 120.1432724)" class="st25" cx="45.0520172" cy="90.5875549" rx="4.6145272" ry="4.2664652"/>
		
			<ellipse transform="matrix(0.9032499 -0.429115 0.429115 0.9032499 -38.5374756 28.8604603)" class="st25" cx="44.7335358" cy="99.8927002" rx="1.8160838" ry="2.0821126"/>
		
			<ellipse transform="matrix(0.6003397 -0.7997451 0.7997451 0.6003397 -45.7754135 70.703949)" class="st25" cx="47.8537941" cy="81.1517029" rx="2.2075987" ry="1.8056432"/>
		<text transform="matrix(0.15091 -0.98855 -0.98855 -0.15091 42.4062462 92.332901)" class="st116 st117 st118">$</text>
		<path class="st68" d="M41.5617676,102.9715652c0,0-1.1786919-2.2376556-0.9321327-6.5529785"/>
		<path class="st68" d="M39.5420074,103.1637955c0,0-1.1786919-2.237648-0.9321327-6.5529785"/>
	</g>
	<path class="st40" d="M69.6272964,101.9446487v29.5149918c0,0.4740601-0.2814331,0.8741455-0.6963425,1.0667725
		l-15.8738823,4.3686981l-3.3285484-4.2797089H39.2529945c-0.6370201,0-1.1409187-0.5187378-1.1409187-1.1557617v-8.7863998
		l15.4503593-17.2908936l15.9018974-4.0155716C69.5679703,101.5299149,69.6272964,101.7371902,69.6272964,101.9446487z"/>
	<path class="st25" d="M46.8431969,108.4299698c-1.6042099,0.0000153-2.9276505,1.2031479-3.1103554,2.7538605l3.1905823-0.1157761
		c0.2896271-0.4768295,0.7352295-1.2878799,1.1407433-2.3929825
		C47.6853828,108.5190659,47.2754288,108.4299698,46.8431969,108.4299698z"/>
	<path class="st25" d="M34.5710831,108.5593033c-0.3030052,1.1898575-0.6995964,2.1968307-1.0738869,3.0034103l3.3108788-0.1203461
		C36.7635155,110.0744247,35.8321686,108.929184,34.5710831,108.5593033z"/>
	<path class="st11" d="M53.9761429,106.2552185v29.5075989c0,0.6349335-0.519516,1.1544495-1.1544456,1.1544495H23.6027031
		c-0.6349297,0-1.1544437-0.519516-1.1544437-1.1544495v-29.5075989c0-0.6234436,0.5195141-1.1428909,1.1544437-1.1428909
		h29.2189941C53.4566269,105.1123276,53.9761429,105.6317749,53.9761429,106.2552185z"/>
	<path class="st13" d="M53.9761429,106.2552185v6.106987c-6.1878052,6.3032913-16.8202705,16.9934616-24.3934231,24.5550613
		h-5.9800167c-0.6349297,0-1.1544437-0.519516-1.1544437-1.1544495v-18.6327515
		c3.4286671-3.6826782,7.3769188-7.9194717,11.1981297-12.0177383h19.1753082
		C53.4566269,105.1123276,53.9761429,105.6317749,53.9761429,106.2552185z"/>
	<rect x="24.9450169" y="112.5470047" class="st6" width="26.5291176" height="19.5331154"/>
	<rect x="24.9450169" y="130.3023682" class="st34" width="26.5291176" height="1.7777492"/>
	<circle class="st53" cx="29.1119385" cy="108.5954208" r="1.7896372"/>
	<circle class="st34" cx="28.510231" cy="108.5954208" r="1.7896372"/>
	<circle class="st14" cx="35.6332207" cy="108.5954208" r="1.7896372"/>
	<circle class="st15" cx="35.0315132" cy="108.5954208" r="1.7896372"/>
	<path class="st20" d="M55.0553627,108.383194v1.1259995c0,0.1185608-0.0889854,0.2074585-0.207634,0.2074585h-3.0224915
		c-0.1184692,0-0.2074585-0.0888977-0.2074585-0.2074585v-1.1259995c0-0.1037216,0.0889893-0.1926193,0.2074585-0.1926193h3.0224915
		C54.9663773,108.1905746,55.0553627,108.2794724,55.0553627,108.383194z"/>
	<rect x="56.873764" y="121.4691391" class="st6" width="1.2039274" height="8.4274912"/>
	<rect x="59.8785706" y="121.4691391" class="st6" width="1.2039274" height="8.4274912"/>
	<circle class="st35" cx="66.4671555" cy="128.238739" r="1.0925597"/>
	<path class="st25" d="M36.6856308,120.1086731l-1.1544456-0.0462265c0,0-1.9047203-2.793663-2.273941-7.5154419h1.9740562
		C35.5542984,116.3451691,36.3626328,119.1157303,36.6856308,120.1086731z"/>
	<path class="st25" d="M37.3665733,120.1433411c0.6465569-2.793808-0.6459923-3.798172-1.2581673-7.5963364h2.285778
		c0.322998,3.9712219,1.1775589,6.8228073,1.4774437,7.700058L37.3665733,120.1433411z"/>
	<path class="st25" d="M43.0700264,120.374176l-2.493782-0.1040039c0-0.0115585,0-0.0231094-0.011837-0.0460815
		c-0.0231133-0.0462265-1.1313324-3.0708618-1.5349388-7.6770859h1.8122749
		C40.9223518,116.806839,42.2154655,119.7391739,43.0700264,120.374176z"/>
	<path class="st25" d="M46.2560234,120.5242538l-2.5168953-0.1154175c0-0.0577774,0-0.1155548-0.0231094-0.1847458
		c-0.0231133-0.0462265-1.1313324-3.0708618-1.5355034-7.6770859h2.0552292
		C44.593689,117.1416702,46.2560234,120.5242538,46.2560234,120.5242538z"/>
	<path class="st25" d="M46.8445206,120.5356674c0.0462227-0.0807419,0.0462227-0.2077179,0.011837-0.3115768
		c-0.0231133-0.0462265-1.12006-3.0708618-1.5236664-7.6770859h1.8353882
		c0.2767715,3.5326691,2.6668358,4.4445801,2.7705536,8.1273346L46.8445206,120.5356674z"/>
	<polygon class="st119" points="41.2312355,112.5466995 29.7037735,132.0751343 24.9476585,132.0751343 24.9476585,127.3781738 
		33.7042198,112.5466995 	"/>
	<polygon class="st119" points="51.4696503,112.5466995 51.4696503,113.0949097 40.2681122,132.0751343 36.9788399,132.0751343 
		48.5063019,112.5466995 	"/>
	<line class="st120" x1="36.2239418" y1="103.1882095" x2="54.5049629" y2="103.1882095"/>
	<path class="st0" d="M68.4209976,135.4164581l-0.0455322-4.2867279l0.1933517-0.7277222l1.2507324-4.7415161l-7.4591599-0.7731934
		l-0.8186493,3.7750397l-0.5799103,2.7175903l-0.4660912,6.1968994
		C60.495739,137.576828,68.2050171,135.5756683,68.4209976,135.4164581z"/>
	<path class="st1" d="M61.5417404,128.6623383c0,0,5.2759628,1.3871765,7.0270767,1.7396698l1.2507324-4.7415161
		l-7.4591599-0.7731934L61.5417404,128.6623383z"/>
	<path class="st8" d="M47.8407326,139.4416199V142l21.7634315-0.7845764l0.1590652-1.4213104l0.2956467-2.5356293
		c0.1819687-1.6032867-0.125061-3.2292633-0.88694-4.650589l-0.7958832-1.4781647l-1.000618,1.0688477
		c-0.4889908,0.5230713-1.1824417,0.7959442-1.8989334,0.7504883l-1.3302689-0.0909882
		c-0.8186455-0.045517-1.5691414-0.5230713-1.9557037-1.2621155l-0.8983192-1.6942749l-3.9683189,3.8546448l-6.594986,1.8647919
		C49.0233192,136.1100464,47.8407326,137.6678162,47.8407326,139.4416199z"/>
	<polygon class="st47" points="47.8401451,139.7941132 47.8401451,142 69.6035767,141.2154236 69.7626419,139.7941132 	"/>
	<path class="st0" d="M89.3427353,134.64328l-0.0453873-4.2867279l0.2274933-0.8527985l1.2052078-4.548233l0.0113831-0.068222
		l-0.1933517-0.0227585l-7.2658081-0.7390442l-0.8527908,3.9227829l-0.5571518,2.5697632l-0.4662323,6.1855927
		C81.4060974,136.8036346,89.1267624,134.813797,89.3427353,134.64328z"/>
	<polygon class="st1" points="82.4294815,128.0482788 89.5248413,129.5037537 90.7300491,124.9555206 90.5480804,124.8645401 
		83.2822723,124.1254959 	"/>
	<path class="st7" d="M68.7621689,138.6684265v2.5697632l21.7631531-0.7959595l0.1592026-1.4099274l0.2842636-2.535614
		c0.1933517-1.603302-0.125061-3.2292786-0.886795-4.6619873l-0.7846451-1.4781494l-1.000618,1.0688324
		c-0.4888535,0.5230713-1.182579,0.8073273-1.8987961,0.7618103l-1.3305435-0.0909119
		c-0.8300323-0.0569153-1.5690079-0.5344543-1.9557037-1.2621918l-0.8981857-1.6941986l-3.9796982,3.8546295l-6.5836029,1.8647919
		C69.9446106,135.3482361,68.7621689,136.9060059,68.7621689,138.6684265z"/>
	<path class="st0" d="M100.5990601,42.8827019c0,0,5.8638916-2.2245636,10.5748978-1.8131218l3.6913071,2.8393478
		c0,0-3.3667603,5.613533-4.3682327,6.1497078s-6.3149872,0.2875328-7.3676071-0.0621223
		c-1.0526199-0.349659-3.2120056-2.8951645-3.1807404-3.0993233"/>
	<path class="st21" d="M100.4580917,51.0516853c-0.0993652,0.3865318-0.2318954,0.7620049-0.4086456,1.1375465l-1.7118759,3.4679832
		l0.397583,1.8222961l-6.4278946,12.8778954c-0.8614349,2.1757355-2.6837997,3.8213501-4.9257965,4.4729996l-19.5155716,6.0523529
		l-2.9489212-9.0785294l2.1536865-0.8945999l15.2965775-6.3395157l6.4610596-16.42313l0.397583-1.01614
		c0.1767502-0.3865318,0.397583-0.7510185,0.6516495-1.0602303c0.6515884-0.8725548,1.5351334-1.5241432,2.5070572-1.9107399
		c1.4910431-0.6184883,3.213974-0.6405296,4.7601624,0.0883751c0.3313904,0.1546402,0.6295471,0.2982216,0.8836136,0.5080719
		c0.1325302,0.0773201,0.2539978,0.1656265,0.386528,0.2871666c1.1155014,0.8945999,1.8223648,2.1426315,2.0984802,3.5121346
		c0,0.011055,0,0.011055,0,0.011055C100.6789932,49.3618469,100.6569519,50.2233505,100.4580917,51.0516853z"/>
	<path class="st23" d="M95.5653915,59.2245598l-6.5383072,12.8447304l-20.1893387,5.8756714l-1.7670898-7.0353317
		l15.2965775-6.3395157l6.4610596-16.42313c1.9106674,0.7951698,6.019249,2.4959946,6.019249,2.4959946L95.5653915,59.2245598z"/>
	<path class="st0" d="M107.6053467,19.448307l2.0694656,12.0700035c0.1133728,0.6612473,0.0791168,1.3361855-0.08992,1.9650879
		c-0.1326141,0.4380341-0.3269424,0.8520775-0.5738373,1.2289391c-0.0557785,0.0787811-0.2138443,0.2328377-0.4408493,0.4563103
		l2.1905212,12.7760544l-7.2621384,1.2451324l-1.7658691-10.2992744c-0.097435-0.0294838-0.1928024-0.0477066-0.2881775-0.0659981
		c-0.9750824-0.2365646-1.8674316-0.7988243-2.5162582-1.6220322c-1.1300583-1.4098358-1.8781204-3.0812645-2.1836395-4.8632164
		l-1.083725-6.3207169c0,0-0.7483521-2.9519844,2.0597382-4.8755093L107.6053467,19.448307z"/>
	<path class="st1" d="M108.6134338,25.3130779l0.9635925,5.6200886c-0.4343033-0.1264286-0.7734528-0.5020809-0.8544769-0.9746647
		l-0.5918732-3.4520702C108.0496445,26.0338478,108.2460556,25.5769596,108.6134338,25.3130779z"/>
	<path class="st3" d="M113.0126114,22.911356c-0.0628891,0.6758461-0.1482697,1.3509789-0.2050629,2.0424786
		c-0.1107254,1.348093-0.384285,2.7348442-1.1322784,3.8958054c-0.6695251,1.0390282-1.3045273,2.1242085-1.9510117,3.1747246
		c-0.230835-1.0505161-0.4386978-2.1356964-0.6695328-3.209322c-0.2077866-0.9812489-0.6003342-1.8470821-0.750412-2.8745556
		c0,0.4617348-2.2049637-0.0577087-2.3666-0.1039314c-0.4040985-0.1038609-0.8081284-0.219347-1.1660004-0.4502506
		c-0.7157516-0.4501801-1.039032-1.3275681-1.3160858-2.1010265c-0.4502487,0.3924713-0.9350967,0.7503471-1.4430542,1.0736256
		c-0.8081284,0.5195141-1.8124847,0.9581375-2.7129135,0.6002617c-0.2193527-0.0923042-0.4155884-0.2308311-0.5656738-0.4155827
		c-0.3001633-0.3924713-0.2886047-0.9350967-0.265564-1.4199448c-0.1154175,0.8427219-0.5772247,1.6392918-1.2583084,2.1588058
		c-0.6927109,0.5079594-1.5815811,0.7273064-2.4243774,0.5887794c-0.6695251-0.1039314-1.2814178-0.4155846-1.8355255-0.8081264
		c-1.2814178-0.923542-2.2050323-2.285778-2.7475815-3.7635002c-0.2424622-0.6580429-0.4155884-1.3622379-0.3463211-2.0548763
		c0.0345917-0.2886105,0.1385269-0.6118889,0.4040222-0.7273045c0.2193527-0.1039314,0.484848-0.0231113,0.7157516,0.0461521
		c0.7619781,0.2540131,1.5815887,0.4732914,2.3551178,0.3001671c0.4732895-0.1154881,0.9004288-0.3809872,1.3160095-0.6695976
		c0.6696014-0.484848,1.3160858-1.0620708,2.1126556-1.2352657c0.4618073-0.0923042,0.9350967-0.0577068,1.396904,0.0462227
		c0.6002655,0.1269722,1.1774826,0.3347645,1.720108,0.6233749c-0.4386902-0.5887775-0.9004974-1.2237072-0.9697647-1.9625692
		c-0.0923004-0.9812498,0.5887833-1.5700283,1.5007629-1.6508474c2.75914-0.2424593,5.1142578,2.5282364,7.8733215,2.2627373
		c0.646492-0.0577087,1.2814941-0.2886114,1.9279785-0.2309036c1.6854401,0.1500835,2.3781509,1.7893753,2.6783218,3.2439861
		c0.0807419,0.4040241,0.1385269,0.8196716,0.1731186,1.2352486
		C113.1283722,21.3400192,113.0856705,22.1261692,113.0126114,22.911356z"/>
	<path class="st1" d="M101.9854889,40.3631668l-0.2543335-1.4833755c0.088028,0.3540993,3.7650375-1.6396027,4.171814-2.0603752
		c0.2399368-0.1076126,0.4339905,0.2182846,0.2250595,0.3779526
		C105.1322021,38.595314,103.7689133,39.6662102,101.9854889,40.3631668z"/>
	<path class="st0" d="M108.0617599,26.1117744l0.5915833,3.4503899c0.1163254,0.6784286,0.7599487,1.1336498,1.4383698,1.0173302
		c0.6784134-0.1163177,1.1336365-0.7599411,1.0173187-1.4383698l-0.5915909-3.4503899
		c-0.0581589-0.3392143-0.2481766-0.6213837-0.5080261-0.8059959c-0.260643-0.1835155-0.5909576-0.2685146-0.9301605-0.2103558
		C108.4008255,24.7907028,107.94561,25.4343262,108.0617599,26.1117744z"/>
	<path class="st4" d="M100.852562,30.3241577l-0.6104813,1.0934391c-0.1595535,0.2857838-0.0542831,0.6468601,0.2338562,0.8021221
		l0.7730484,0.4165611"/>
	<path class="st21" d="M125.3302689,77.1276779l-20.0788498,3.5894547l-3.4900208,0.6295471l-0.3313904-1.7782135
		l-0.5411682-2.81633l-0.1214752-0.6295395l-1.0713501-5.6878662l-0.7289047-3.8214111L97.33255,58.0427895l-1.3253479-6.924839
		l-0.9498138-4.9258614l-0.4748993-2.4739532l3.9428177-0.5411682l1.9217911-0.2540665c0,0,0.4749069,1.3142929,1.4468307,2.5071144
		c0.6958008,0.8393936,1.6124496,1.6345634,2.7942123,1.8554649c0.5853882,0.1214752,1.2038803,0.0994301,1.910675-0.0993614
		c3.1034927-0.9498749,4.0644226-2.6285896,4.329483-4.3625832c0.0773163-0.5411682,0.0993652-1.0933914,0.0773163-1.6346283
		c0-0.0220413,0.010994-0.0441513,0-0.0772514l0.0331039-0.0994301l9.1448593-0.3644867l0.4638443,4.1637878l0.0993652,0.7841835
		l0.8615036,5.9308777l0.4970093,3.4016533l2.0211639,13.8829155L125.3302689,77.1276779z"/>
	<path class="st20" d="M105.2514191,80.7171326l10.1388245-13.2313309
		c-0.0084229-0.0808411-1.4279709-9.9318199-2.1443634-14.8277664c-0.1359558-0.9291534,0.9415054-1.5398102,1.6692352-0.9463272
		l1.7231598,1.4052887l5.4670258,1.811245l2.0211639,13.8829155l1.203804,8.3165207L105.2514191,80.7171326z"/>
	<path class="st23" d="M114.1311569,67.0551224l-7.0751572,9.3347778c0,0-2.6439667,0.5279312-6.16716,0.362236
		l-0.1214752-0.6295395l-1.0713501-5.6878662l-0.7289047-3.8214111L97.33255,58.0427895l-1.3253479-6.924839l16.6811066,7.1233978
		L114.1311569,67.0551224z"/>
	<path class="st17" d="M110.8699417,42.4931946l0.1660385,0.2533722c0.0789185-0.5404854,0.0941696-1.0945892,0.0757828-1.6306572
		C110.9811783,41.6407928,110.8723679,42.1496048,110.8699417,42.4931946z"/>
	<path class="st17" d="M111.1097183,41.1039925c0.007843-0.0258064,0.0156708-0.0516815,0.0235062-0.0775566l-0.0238342,0.0040855
		C111.1134796,41.0543556,111.1056442,41.0802307,111.1097183,41.1039925z"/>
	<path class="st20" d="M106.4447784,47.6811638c-1.1789551,0.202137-4.6904526,0.2516479-6.4117584-4.754631l1.0799637-0.2265358
		c1.7376938,5.0566597,5.2625732,3.9449425,5.418541,3.8967667c3.8514786-1.1659393,4.118721-3.3843765,4.0627899-5.5569611
		l1.1859283-0.0632553c0.0647278,2.5160484-0.5981598,5.3015862-4.9371872,6.6148987
		C106.8367004,47.5935669,106.6916046,47.6388435,106.4447784,47.6811638z"/>
	<path class="st5" d="M101.1122513,33.9070358c0.0582809-0.0523796,0.1165619-0.1047554,0.1882248-0.1580887
		c0.5955582-0.4346123,1.348465-0.3986206,2.0298233-0.206295c0.2524643,0.0645447,0.4930191,0.1576691,0.7063065,0.2525635
		c0.0073395,0.0063667,0.0210571,0.0053902,0.0283966,0.0117569c0.0073471,0.0063667,0.0210571,0.005394,0.0283966,0.0117607
		c0.1986008,0.0821571,0.3843155,0.179184,0.5638123,0.283371c0.0504227,0.0308647,0.0935059,0.0553589,0.1437531,0.0860634
		c0.0430832,0.0244942,0.099884,0.0480118,0.1375732,0.0935631c0.0146866,0.0127335,0.0230026,0.0328102,0.0176163,0.0538673
		c0.008316,0.0200768-0.0042648,0.034584-0.003624,0.048317c-0.0233612,0.0566177-0.0834198,0.0817299-0.1291428,0.1192665
		c-0.0326385,0.023159-0.0791626,0.047142-0.1118164,0.0699654c-0.0920715,0.061676-0.1839905,0.1231689-0.276062,0.1848412
		c-0.1121521,0.0699921-0.224144,0.1398048-0.3286209,0.2161407c-0.1248779,0.0846786-0.2432404,0.1618347-0.361763,0.2391701
		c-0.1320724,0.0781288-0.2505875,0.1554642-0.3751373,0.2401199c-0.1185226,0.0773354-0.2368851,0.1544914-0.3552475,0.2316475
		c-0.1121445,0.0699921-0.2167969,0.1461716-0.3287735,0.21632c-0.0920944,0.0613365-0.1839828,0.1231651-0.2760544,0.1848373
		c-0.0791855,0.0468102-0.1448135,0.0928192-0.210434,0.1388321c-0.0463715,0.0237999-0.0791855,0.0468063-0.1183624,0.0771561
		c0,0,0,0-0.0063705,0.0073433c-0.0264435,0.0156593-0.1509933,0.1003151-0.2767029,0.1711044
		c-0.1248856,0.0846786-0.243248,0.1618347-0.243248,0.1618347
		C101.1479416,36.5338135,99.9959946,34.9569664,101.1122513,33.9070358z"/>
	<path class="st6" d="M101.7980423,36.4806595l-0.301796-0.4672127c-0.1388245-0.2104378-0.0770264-0.5038795,0.1332245-0.6428642
		l2.407135-1.575367c0.0073395,0.0063667,0.0210571,0.0053902,0.0283966,0.0117569
		c0.0073471,0.0063667,0.0210571,0.005394,0.0283966,0.0117607c0.1986008,0.0821571,0.3843155,0.179184,0.5638123,0.283371
		c0.0504227,0.0308647,0.0935059,0.0553589,0.1437531,0.0860634c0.0430832,0.0244942,0.099884,0.0480118,0.1375732,0.0935631
		c0.0146866,0.0127335,0.0230026,0.0328102,0.0176163,0.0538673c0.008316,0.0200768-0.0042648,0.034584-0.003624,0.048317
		c-0.0233612,0.0566177-0.0834198,0.0817299-0.1291428,0.1192665c-0.0326385,0.023159-0.0791626,0.047142-0.1118164,0.0699654
		c-0.0920715,0.061676-0.1839905,0.1231689-0.276062,0.1848412c-0.1121521,0.0699921-0.224144,0.1398048-0.3286209,0.2161407
		c-0.1248779,0.0846786-0.2432404,0.1618347-0.361763,0.2391701c-0.1320724,0.0781288-0.2505875,0.1554642-0.3751373,0.2401199
		c-0.1185226,0.0773354-0.2368851,0.1544914-0.3552475,0.2316475c-0.1121445,0.0699921-0.2167969,0.1461716-0.3287735,0.21632
		c-0.0920944,0.0613365-0.1839828,0.1231651-0.2760544,0.1848373c-0.0791855,0.0468102-0.1448135,0.0928192-0.210434,0.1388321
		c-0.0463715,0.0237999-0.0791855,0.0468063-0.1183624,0.0771561c0,0,0,0-0.0063705,0.0073433
		C102.0483017,36.3252144,101.9237518,36.4098701,101.7980423,36.4806595z"/>
	<path class="st1" d="M109.7529068,25.8896065l0.1691055,0.9863071l-0.8317719,0.5764122l-0.2413635-1.4077187
		c-0.0422745-0.2465763,0.1279373-0.4872379,0.3745117-0.5295143
		C109.4699707,25.4728165,109.7106323,25.6430302,109.7529068,25.8896065z"/>
	<path class="st1" d="M109.2558212,28.4180622l0.8406372-0.5247383l0.1585236,0.9245987
		c0.0422745,0.2465763-0.1279373,0.4872379-0.3745117,0.5295143c-0.246582,0.0422783-0.4872437-0.1279373-0.5295181-0.3745136
		L109.2558212,28.4180622z"/>
	<path class="st54" d="M114.5840149,90.3921051c-0.6516495,0-10.5364685,1.7118835-17.9031219,3.0151215
		c-0.7068558,0.1325302-1.4136581,0.2429504-2.0874176,0.3644867c-3.4237595,0.6074371-5.9087677,1.0602264-5.9087677,1.0602264
		l-7.7863464,14.0927658l-10.9671555,19.8579483l-0.7510147-0.022049h-0.3865967l-9.8185577-0.1325226l12.6901627-32.0510941
		l1.3584442-3.4458694l0.5080032-1.2701416c0.7179184-1.3695068,1.3916168-2.5291672,2.0763702-3.4789734
		c1.1155014-1.546257,2.2862167-2.6285934,3.8324661-3.3133392c0.2209015-0.0994339,0.4527969-0.1987991,0.6847534-0.2650604
		c0.2761154-0.0994263,0.5411682-0.1878052,0.8283386-0.2761078c0.5190582-0.1435852,1.0712814-0.2651291,1.7008209-0.3313904
		l11.928093-1.7008286l3.0040665-0.419693l4.0312576-0.5743332v-0.1545715l-0.2651215-1.8775787h0.1435776l10.1940994-0.3423767
		l0.1877365,0.4417419l0.3092117,0.7620697l0.0994339,0.3865967l0.397583,1.7339935l0.0662613,0.2650528L114.5840149,90.3921051z"/>
	<path class="st55" d="M100.14888,83.6549377l-16.4120789,2.9709625l-3.2470779,3.5563583l-4.0202026,12.7674103
		c0,0-2.9820251-3.8214111-4.8043213-6.3726807l1.3584442-3.4458694l0.5080032-1.2701416
		c0.7179184-1.3695068,1.3916168-2.5291672,2.0763702-3.4789734c1.1155014-1.546257,2.2862167-2.6285934,3.8324661-3.3133392
		c0.2209015-0.0994339,0.4527969-0.1987991,0.6847534-0.2650604c0.2761154-0.0994263,0.5411682-0.1878052,0.8283386-0.2761078
		c0.5190582-0.1435852,1.0712814-0.2651291,1.7008209-0.3313904l11.928093-1.7008286l3.0040665-0.419693
		C99.0223236,82.9701843,100.14888,83.6549377,100.14888,83.6549377z"/>
	<path class="st47" d="M69.1722336,128.7668762l0.7609634,0.012085l18.7462158-33.9533005
		c0,0,2.4882202-0.446907,5.918541-1.0508423c0.6643143-0.1207581,1.3648987-0.2415924,2.0775757-0.3623505
		c-0.3140564-0.6643143-0.5798264-1.1112213-0.7609634-1.3166122l-15.400383,2.850563L69.1722336,128.7668762z"/>
	<path class="st54" d="M126.4788742,88.3157425c0,0.4969482-0.0109863,0.9719162-0.1214752,1.4909744
		c-0.1987915,1.3253479-0.6626434,2.6175385-1.4357681,3.7771912c-0.5963745,0.8725586-1.2811279,1.6456833-2.0874176,2.2751617
		c-1.2480316,0.9829712-2.7169037,1.6787796-4.318367,1.96595l-25.1704025,2.4960632l-2.5291595,28.4615707l-0.8724899-0.0993652
		l-0.4528656-0.0331573l-7.9961853-0.6737061l-0.0883789-2.5843658l-0.5080032-16.4673538l-0.011055-0.3644867l-0.2871628-9.1889496
		l-0.1214752-3.7993011c0.02211-2.7059097,1.2480316-5.179863,3.1918716-6.8255463
		c0.2429428-0.1987915,0.4859543-0.397583,0.7620697-0.5632095c1.1044464-0.7731247,2.3855743-1.3033066,3.7550812-1.4799881
		l11.2101746-1.6125183l1.5241394-0.2208405l8.2833557-1.2149277l3.0482864-0.4307556l-0.02211-0.828331l-0.4638443-2.8273849
		l-0.0773239-0.4417419l6.9358978-1.1155014l6.7040024-0.8835449l0.1546402,6.1296692l0.6958084,2.6507034
		C126.379509,86.7032242,126.4788742,87.5094452,126.4788742,88.3157425z"/>
	<path class="st47" d="M126.4788742,88.3157425c0,0.4969482-0.0109863,0.9719162-0.1214752,1.4909744
		c-0.1987915,1.3253479-0.6626434,2.6175385-1.4357681,3.7771912c-0.5963745,0.8725586-1.2811279,1.6456833-2.0874176,2.2751617
		c-1.2480316,0.9829712-2.7169037,1.6787796-4.318367,1.96595l-25.1704025,2.4960632c0,0,16.1911621-3.7999344,24.9204865-5.9088974
		c3.1834259-0.769104,5.4526901-3.5718842,5.5507355-6.8454361c0.0616837-2.0593872,0.121994-3.9118118,0.121994-3.9118118
		l-0.4417419-4.0864716h-22.0669098l0.0662613-0.0993652l10.1940994-0.3423767l6.9358978-1.1155014l6.7040024-0.8835449
		l0.1546402,6.1296692l0.6958084,2.6507034C126.379509,86.7032242,126.4788742,87.5094452,126.4788742,88.3157425z"/>
	<path class="st55" d="M109.2164154,95.4062729L91.6777802,98.841095l-1.7229309,20.9292908l-9.067543-11.2101669
		l-0.2871628-9.1889496l-0.1214752-3.7993011c0.02211-2.7059097,1.2480316-5.179863,3.1918716-6.8255463
		c0.2429428-0.1987915,0.4859543-0.397583,0.7620697-0.5632095c1.1044464-0.7731247,2.3855743-1.3033066,3.7550812-1.4799881
		l11.2101746-1.6125183l1.5241394-0.2208405L109.2164154,95.4062729z"/>
	<path class="st92" d="M109.2186127,83.6575928l-9.8241882,1.4213257l-11.2001266,1.6146011
		c-4.4116516,0.6367493-7.6977615,4.4231644-7.7091446,8.8804092"/>
	<path class="st53" d="M116.2362289,77.1474533c0.0797653-0.0132904,0.1725006-0.0132904,0.2655563-0.0132904h-0.2522583
		L116.2362289,77.1474533z"/>
	<polygon class="st47" points="68.7621689,139.0323029 68.7621689,141.2381897 90.525322,140.4422302 90.6845245,139.0323029 	"/>
	<g>
		<path class="st52" d="M90.4889145,87.6189423c-0.0312042-0.0095215-0.0518646,0.0021591-0.0775528,0.0302887l0.066925-0.0515137
			L90.4889145,87.6189423z"/>
		<path class="st0" d="M115.3883362,83.2996902l-7.0351639,5.3016663l-2.8521805,3.7660904l-1.4264603,1.8829269
			l-0.947998,1.5473938c-0.2475204,0.3977509-0.6986389,0.5851517-1.1255112,0.4633713l-0.991066-0.2778931l-0.4567642,0.4799576
			c-0.1373672,0.1622696-0.3312073,0.2634735-0.5271835,0.3145447c-0.2302475,0.0486679-0.4836349,0.013649-0.7022629-0.1047211
			c-0.4384155-0.2619247-0.6146317-0.8169403-0.42453-1.3007736l0.1715164-0.4672089l-0.6802063,1.0723724
			c-0.3119888,0.4684296-0.9143982,0.6277237-1.3781433,0.3426285l-0.3045044-0.1921387
			c-0.3988419-0.2449341-0.5871429-0.7436981-0.4354172-1.2194061l0.0671463-0.2169418l-0.5616226,0.815979
			c-0.3073654,0.4580383-0.9109955,0.5922852-1.3650818,0.3113251l-0.3394852-0.2194519
			c-0.4791794-0.3040314-0.6119308-0.9632721-0.3112946-1.461113l2.4366837-4.0550079l0.1844864-0.3018494
			c0.2875748-0.4665298,0.6499786-0.88871,1.0642319-1.2394257c0.1858826-0.1660614,0.3828583-0.3027496,0.5894852-0.4352951
			l4.268898-2.5803528l3.0680542-2.6901398l2.2262573-1.9575043L115.3883362,83.2996902z"/>
		<polygon class="st1" points="115.3883362,83.2996902 108.3531723,88.6013565 105.5009918,92.3674469 107.5811386,87.7807388 
			105.3739624,82.8362274 107.6002197,80.8787231 		"/>
		<path class="st21" d="M128.7319946,67.2428589c0.0883636,2.0211563-0.6184998,4.0091476-1.987999,5.5001297
			l-15.6169052,17.0416183l-6.4278946-7.7531738l0.2540054-0.3092804l0.2871628-0.3534317l0.0441589-0.0773163l0.0994263-0.1214752
			l0.1435852-0.1987915l10.5806274-12.8226242l-0.1767502-2.9488525l-0.2871704-4.80439l-0.0772476-1.1707115l-0.04422-0.7951698
			l-0.1104202-1.7339935l-0.033165-0.4970131l-0.4749069-8.6036263c-0.0662613-1.0492363,0.1104889-2.0763664,0.4859619-3.0151863
			c0.8945999-2.1094666,2.8384399-3.7109299,5.179863-3.9980965c0.0441513-0.011055,0.0883713-0.0220413,0.1656952-0.0220413
			c1.5904083-0.1435852,3.0703278,0.3313217,4.2189941,1.247963c0.0441589,0.04422,0.1325302,0.0994301,0.1766815,0.1435852
			c1.2590866,1.0824051,2.0874252,2.6728096,2.2089005,4.5282745l0.5301132,9.0564842
			C127.870491,55.5357399,128.5110931,62.7809143,128.7319946,67.2428589z"/>
		<path class="st23" d="M126.4788742,69.09832l-15.2081985,17.892067l-6.3174744-5.2682343l0.2871628-0.3534317l0.0441589-0.0773163
			l0.0994263-0.1214752l0.1435852-0.1987915l10.5806274-12.8226242l-0.1767502-2.9488525l-0.2871704-4.80439l-0.0772476-1.1707115
			c2.9156876,1.2038765,11.3536835,4.7049561,11.4088974,4.727066C127.0421524,63.973671,126.4788742,69.09832,126.4788742,69.09832
			z"/>
		<line class="st4" x1="96.340683" y1="94.6966629" x2="98.4830704" y2="90.9252625"/>
		<line class="st4" x1="98.9472504" y1="95.1029892" x2="100.1059952" y2="92.324379"/>
		<line class="st4" x1="101.0089645" y1="95.9802551" x2="101.9508667" y2="94.3499451"/>
	</g>
	<path class="st0" d="M55.8565521,73.0942688l-4.216507,1.9007721c-0.6746216,0.3041153-0.9116364,1.1432648-0.4957962,1.7553787
		c0.3478508,0.5120239,1.0298996,0.6723099,1.569397,0.3688126l8.9185638-2.1083069
		c0.0708199-0.4472198,0.0307884-0.9655838-0.1904297-1.3606567s-0.689106-0.6746063-1.1296577-0.570015"/>
	<line class="st33" x1="116.1081619" y1="68.1485138" x2="119.3323975" y2="68.9562454"/>
	<line class="st33" x1="82.3672333" y1="64.5701141" x2="83.7370834" y2="66.5514603"/>
	<path class="st34" d="M86.5051956,33.7133484l-4.5261993-1.8100338c-1.4366989,1.1047115-3.2923355,1.8711185-5.3781281,2.1157856
		c-5.1279602,0.5770645-9.6770554-2.3202343-10.154953-6.4902153c-0.4679871-4.1568565,3.3097534-8.000042,8.4508438-8.5870094
		c5.1279602-0.5770607,9.6770477,2.3202362,10.1451035,6.4771729c0.1474838,1.2795582-0.1066818,2.5145683-0.6845551,3.6461334
		C85.2215958,30.8878269,86.5051956,33.7133484,86.5051956,33.7133484z"/>
	<text transform="matrix(0.99599 0.08951 -0.08951 0.99599 73.5908356 30.7506599)" class="st20 st117 st121">!</text>
	<line class="st122" x1="24.5569153" y1="105.1123276" x2="52.4375076" y2="105.1123276"/>
	<path class="st5" d="M113.0606155,20.5261383c-0.0808182,0.0461521-0.1500778,0.0808182-0.2309036,0.1154156
		c-1.6623993,0.692709-3.60186,0.5195141-5.2295914-0.2539444c-1.6278076-0.7619724-2.9438248-2.0779858-3.9366989-3.5672646
		c-0.0577087,0.8773899-0.1500854,1.8240414-0.750351,2.4589729c-0.5541763,0.6003342-1.4314957,0.7734585-2.2511749,0.8312359
		c-1.4315033,0.0807495-2.8976669-0.1154861-4.2022018-0.7157497c-0.6580429-0.3001671-1.2814102-0.7042637-1.8124847-1.2006664
		c0.6696014-0.484848,1.3160858-1.0620708,2.1126556-1.2352657c0.4618073-0.0923042,0.9350967-0.0577068,1.396904,0.0462227
		c0.6002655,0.1269722,1.1774826,0.3347645,1.720108,0.6233749c-0.4386902-0.5887775-0.9004974-1.2237072-0.9697647-1.9625692
		c-0.0923004-0.9812498,0.5887833-1.5700283,1.5007629-1.6508474c2.75914-0.2424593,5.1142578,2.5282364,7.8733215,2.2627373
		c0.646492-0.0577087,1.2814941-0.2886114,1.9279785-0.2309036c1.6854401,0.1500835,2.3781509,1.7893753,2.6783218,3.2439861
		C112.9682465,19.6949005,113.0260239,20.1105537,113.0606155,20.5261383z"/>
	<line class="st92" x1="93.3454437" y1="100.3210831" x2="92.554184" y2="99.4928665"/>
	<path class="st25" d="M35.5199127,132.0801239H33.187912c-0.5078888-0.3000336-0.9582825-0.6117554-1.3511753-0.9119263
		c-0.3111591-0.2309723-0.5884972-0.4502411-0.8539963-0.6695251c-0.0806084-0.0577698-0.1617794-0.1271057-0.2423878-0.1963043
		c-1.3737221-1.1428833-2.1933327-1.9626465-3.5095577-1.720108l0.5428371-0.9465866
		c1.8235493-0.3579407,2.3545494,0.7733841,4.1786613,2.2742233c0.1617813,0.1269684,0.3235588,0.2655029,0.5078888,0.3924713
		c0.3117218,0.2309723,0.6465569,0.4733582,1.0394516,0.7157593
		C34.0650177,131.3645172,34.7346878,131.7338715,35.5199127,132.0801239z"/>
	<path class="st25" d="M34.7346878,131.5028992l-1.1662827,0.5772247h-3.7519474
		c-0.0462227-0.0114136-0.0918808-0.0229797-0.1499424-0.0345306c-1.7429409-0.4040222-2.8398895-0.7735291-3.9131622,0.0345306
		l0.0687714-1.0966644c1.4661674-1.1313477,2.4475574-0.3578186,4.7451744,0.1731873
		c0.2074394,0.034668,0.4154415,0.0923004,0.6347179,0.1269684c0.3810577,0.057785,0.7852268,0.127121,1.2468929,0.1732025
		C33.118576,131.5144501,33.880127,131.549118,34.7346878,131.5028992z"/>
	<path class="st24" d="M41.3532295,130.9828339c-5.3226814,1.1035767-7.5910149-0.7676086-9.2272682,0.9168549l-0.1079292-1.0861969
		c1.9103088-2.0048981,3.3959274,0.3425598,9.2272682-0.9168549L41.3532295,130.9828339z"/>
	<path class="st24" d="M38.6913567,131.0338593c-5.1600609-1.709549-6.1868057-4.4649963-8.4465637-3.8260498l0.4503918-0.9943008
		c2.6574116-0.7791061,2.7681599,1.9967422,8.4465618,3.8260422L38.6913567,131.0338593z"/>
	<path class="st25" d="M43.7740784,132.0801239h-1.5698853c-0.0236778,0.0231018-0.0349503,0.0462189-0.0462227,0.0693359
		l-0.0693359-0.0693359c-0.7277298-0.6348724-1.2931137-1.2466125-1.7778893-1.7777557
		c-0.0693359-0.0691986-0.1386681-0.1385193-0.196167-0.2078552c-0.1042824-0.1154175-0.2080002-0.230835-0.3004494-0.323288
		c-0.0231094-0.0345154-0.0462227-0.0576324-0.0806084-0.0807495c-0.2886086-0.3115845-0.5541077-0.5886383-0.8314476-0.7964935
		c-0.496048-0.4155884-1.0157738-0.6349945-1.6967163-0.6003418l0.6696663-0.8658295
		c0.6116104-0.034668,1.0501633,0.0691986,1.443058,0.2886124c0.3229942,0.1731949,0.5997696,0.4386978,0.888382,0.7619705
		c0.4272766,0.484787,0.8889427,1.1082306,1.5586128,1.8239746c0.2773361,0.28862,0.5772209,0.6003418,0.9470024,0.911911
		c0.2536659,0.2425385,0.5422745,0.4735107,0.8658371,0.7158966
		C43.6354103,131.9763947,43.7047462,132.0224762,43.7740784,132.0801239z"/>
	<path class="st25" d="M45.7825203,126.2849274c-0.3461075,1.6854401-0.8539963,2.9784088-1.3506126,4.0174408
		c-0.2998848,0.6233063-0.5884933,1.1544495-0.8539925,1.6278076c-0.0231133,0.0462189-0.0462227,0.1038666-0.0811729,0.1499481
		h-1.2925491c0.1381035-0.2655029,0.3229942-0.5425568,0.507885-0.8658447
		c0.1612167-0.2770538,0.3342705-0.5772095,0.519165-0.911911c0.5428352-1.0274658,1.12006-2.3780823,1.5123901-4.3522797
		L45.7825203,126.2849274z"/>
	<path class="st24" d="M48.2875748,126.2849274c-0.3461075,1.6854401-0.8539963,2.9784088-1.3506088,4.0174408
		c-0.322998,0.6810913-0.6578331,1.2583008-0.9351692,1.7777557h-1.2925491
		c0.2767715-0.4963379,0.6459923-1.0504456,1.02705-1.7777557c0.5428352-1.0274658,1.12006-2.3780823,1.5123901-4.3522797
		L48.2875748,126.2849274z"/>
	<path class="st25" d="M40.8067932,126.2849274c-0.1730537,0.8196106-0.3804932,1.5469131-0.6003304,2.1934662
		c-0.1499443,0.4385529-0.311161,0.8427277-0.4729424,1.2120819c-0.011837,0.034668-0.0231094,0.0693359-0.0462227,0.1038666
		c-0.0693321,0.1733398-0.1499405,0.3463898-0.2311134,0.5080261c-0.1155548,0.2425232-0.2423897,0.4849243-0.3579445,0.7041931
		c-0.196167,0.3926086-0.3923302,0.7504272-0.5772247,1.0735626H37.228466
		c0.1499443-0.2770538,0.3461075-0.5886383,0.5541115-0.9350281c0.1499443-0.253952,0.3117218-0.5310059,0.4729385-0.8427277
		c0.0462227-0.0923004,0.1042862-0.1963043,0.1505089-0.3001709c0.1730537-0.3346863,0.3348312-0.7041931,0.496048-1.1082153
		c0.1499443-0.3579407,0.2886124-0.750412,0.416008-1.1775589c0.1730537-0.5311356,0.3229942-1.1083603,0.4498253-1.7663345
		L40.8067932,126.2849274z"/>
</g>
</svg>
