<?xml version="1.0" encoding="utf-8"?>
<!-- Generator: Adobe Illustrator 22.0.1, SVG Export Plug-In . SVG Version: 6.00 Build 0)  -->
<svg version="1.1" id="Layer_1" xmlns="http://www.w3.org/2000/svg" xmlns:xlink="http://www.w3.org/1999/xlink" x="0px" y="0px"
	 viewBox="0 0 156 156" style="enable-background:new 0 0 156 156;" xml:space="preserve">
<style type="text/css">
	.st0{fill:#FFD9B2;}
	.st1{fill:#F7AC76;}
	.st2{fill:none;stroke:#3643C3;stroke-width:0.5;stroke-linecap:round;stroke-linejoin:round;stroke-miterlimit:10;}
	.st3{fill:#233764;}
	.st4{fill:none;stroke:#F7AC76;stroke-width:0.5;stroke-linecap:round;stroke-linejoin:round;stroke-miterlimit:10;}
	.st5{fill:#161718;}
	.st6{fill:#FFFFFF;}
	.st7{fill:#F06449;}
	.st8{fill:#BE412D;}
	.st9{fill:#FE8E60;}
	.st10{fill:#7D4C47;}
	.st11{fill:#4456D6;}
	.st12{fill:#203881;}
	.st13{fill:#6582FC;}
	.st14{fill:#DDA103;}
	.st15{fill:#FBC32E;}
	.st16{fill:none;stroke:#DDA103;stroke-width:0.5;stroke-miterlimit:10;}
	.st17{fill:#FBE6BB;}
	.st18{fill:none;stroke:#BE412D;stroke-width:0.5;stroke-linecap:round;stroke-linejoin:round;stroke-miterlimit:10;}
	.st19{fill:none;stroke:#F06449;stroke-width:0.5;stroke-linecap:round;stroke-linejoin:round;stroke-miterlimit:10;}
	.st20{fill:#F34B4B;}
	.st21{fill:#FC7070;}
	.st22{fill:none;stroke:#FFFFFF;stroke-miterlimit:10;}
	.st23{fill:#FC9F9F;}
	.st24{fill:#408A6F;}
	.st25{fill:#64B48D;}
	.st26{fill:none;stroke:#FBE6BB;stroke-width:0.5;stroke-linecap:round;stroke-linejoin:round;stroke-miterlimit:10;}
	.st27{fill:none;stroke:#F7AC76;stroke-width:0.25;stroke-linecap:round;stroke-linejoin:round;stroke-miterlimit:10;}
	.st28{fill:#A0665A;}
	.st29{fill:#6C3F44;}
	.st30{fill:none;stroke:#6C3F44;stroke-width:0.5;stroke-linecap:round;stroke-linejoin:round;stroke-miterlimit:10;}
	.st31{fill:none;stroke:#7D4C47;stroke-width:0.5;stroke-linecap:round;stroke-linejoin:round;stroke-miterlimit:10;}
	.st32{fill:none;stroke:#F34B4B;stroke-width:0.5;stroke-linecap:round;stroke-linejoin:round;stroke-miterlimit:10;}
	.st33{fill:none;stroke:#FC7070;stroke-width:0.5;stroke-linecap:round;stroke-linejoin:round;stroke-miterlimit:10;}
	.st34{fill:#EAE8F3;}
	.st35{fill:#40304A;}
	.st36{fill:none;stroke:#43334E;stroke-linecap:round;stroke-linejoin:round;stroke-miterlimit:10;}
	.st37{fill:#32775B;}
	.st38{fill:none;stroke:#233764;stroke-width:0.5;stroke-linecap:round;stroke-linejoin:round;stroke-miterlimit:10;}
	.st39{fill:none;stroke:#408A6F;stroke-width:0.5;stroke-linecap:round;stroke-linejoin:round;stroke-miterlimit:10;}
	.st40{fill:#3643C3;}
	.st41{opacity:0.56;fill:url(#SVGID_1_);}
	.st42{opacity:0.52;fill:#FBC32E;}
	.st43{opacity:0.56;fill:url(#SVGID_2_);}
	.st44{fill:none;stroke:#EAE8F3;stroke-width:0.5;stroke-linecap:round;stroke-linejoin:round;stroke-miterlimit:10;}
	.st45{fill:#FEFFFD;}
	.st46{opacity:0.35;fill:#32775B;}
	.st47{fill:#43334E;}
	.st48{fill:none;stroke:#EAE8F3;stroke-width:0.25;stroke-linecap:round;stroke-linejoin:round;stroke-miterlimit:10;}
	.st49{fill:none;stroke:#FBC32E;stroke-width:0.5;stroke-linecap:round;stroke-linejoin:round;stroke-miterlimit:10;}
	.st50{fill:none;stroke:#161718;stroke-width:0.5;stroke-linecap:round;stroke-linejoin:round;stroke-miterlimit:10;}
	.st51{fill:none;stroke:#40304A;stroke-linecap:round;stroke-linejoin:round;stroke-miterlimit:10;}
	.st52{opacity:0.33;fill:#FBC32E;}
	.st53{fill:#A6A3AE;}
	.st54{fill:#5B4B68;}
	.st55{fill:#776688;}
	.st56{fill:none;stroke:#FBC32E;stroke-width:0.5;stroke-miterlimit:10;}
	.st57{fill:none;stroke:#EAE8F3;stroke-linecap:round;stroke-linejoin:round;stroke-miterlimit:10;}
	.st58{fill:none;stroke:#203881;stroke-width:2;stroke-linecap:round;stroke-linejoin:round;stroke-miterlimit:10;}
	.st59{fill:none;stroke:#40304A;stroke-width:2;stroke-linecap:round;stroke-linejoin:round;stroke-miterlimit:10;}
	.st60{fill:#FFD8B7;}
	.st61{fill:#F4E4D4;}
	.st62{fill:none;stroke:#4456D6;stroke-width:0.5;stroke-linecap:round;stroke-linejoin:round;stroke-miterlimit:10;}
	.st63{fill:none;stroke:#DDA103;stroke-width:0.25;stroke-miterlimit:10;}
	.st64{fill:none;stroke:#FFFFFF;stroke-width:0.5;stroke-linecap:round;stroke-linejoin:round;stroke-miterlimit:10;}
	.st65{fill:none;stroke:#64B48D;stroke-width:0.5;stroke-linecap:round;stroke-linejoin:round;stroke-miterlimit:10;}
	.st66{fill:none;stroke:#64B48D;stroke-linecap:round;stroke-linejoin:round;stroke-miterlimit:10;}
	.st67{opacity:0.48;fill:#64B48D;}
	.st68{fill:none;stroke:#64B48D;stroke-width:0.25;stroke-linecap:round;stroke-linejoin:round;stroke-miterlimit:10;}
	.st69{fill:none;stroke:#F06449;stroke-width:2;stroke-linecap:round;stroke-linejoin:round;stroke-miterlimit:10;}
	.st70{opacity:0.92;fill:#64B48D;}
	.st71{opacity:0.57;fill:#408A6F;}
	.st72{opacity:0.36;fill:#408A6F;}
	.st73{fill:none;stroke:#BE412D;stroke-width:2;stroke-linecap:round;stroke-linejoin:round;stroke-miterlimit:10;}
	.st74{opacity:0.65;fill:none;stroke:#408A6F;stroke-width:0.25;stroke-linecap:round;stroke-linejoin:round;stroke-miterlimit:10;}
	.st75{opacity:0.67;fill:none;stroke:#64B48D;stroke-width:0.25;stroke-linecap:round;stroke-linejoin:round;stroke-miterlimit:10;}
	.st76{opacity:0.98;fill:#64B48D;}
	.st77{fill:none;stroke:#408A6F;stroke-width:0.25;stroke-linecap:round;stroke-linejoin:round;stroke-miterlimit:10;}
	.st78{fill:none;stroke:#FFD9B2;stroke-width:0.5;stroke-linecap:round;stroke-linejoin:round;}
	
		.st79{fill:none;stroke:#FFD9B2;stroke-width:0.5;stroke-linecap:round;stroke-linejoin:round;stroke-dasharray:4.0333505,4.0333505;}
	.st80{fill:#E68B4A;}
	.st81{opacity:0.62;fill:#64B48D;}
	.st82{fill:none;stroke:#FBC32E;stroke-width:0.25;stroke-miterlimit:10;}
	.st83{fill:none;stroke:#4456D6;stroke-linecap:round;stroke-linejoin:round;stroke-miterlimit:10;}
	.st84{fill:none;stroke:#E68B4A;stroke-width:0.5;stroke-linecap:round;stroke-linejoin:round;stroke-miterlimit:10;}
	.st85{fill:none;stroke:#203881;stroke-width:0.5;stroke-linecap:round;stroke-linejoin:round;stroke-miterlimit:10;}
	.st86{opacity:0.29;fill:#EAE8F3;}
	.st87{fill:none;stroke:#A6A3AE;stroke-width:0.5;stroke-linecap:round;stroke-linejoin:round;stroke-miterlimit:10;}
	.st88{opacity:0.74;fill:#FFFFFF;}
	.st89{opacity:0.19;fill:#FFFFFF;}
	.st90{fill:none;stroke:#40304A;stroke-width:0.25;stroke-linecap:round;stroke-linejoin:round;stroke-miterlimit:10;}
	.st91{fill:none;stroke:#F34B4B;stroke-width:2;stroke-linecap:round;stroke-linejoin:round;stroke-miterlimit:10;}
	.st92{fill:none;stroke:#43334E;stroke-width:0.5;stroke-linecap:round;stroke-linejoin:round;stroke-miterlimit:10;}
	.st93{fill:none;stroke:#6582FC;stroke-miterlimit:10;}
	.st94{opacity:0.47;fill:#A6A3AE;}
	.st95{opacity:0.43;fill:#FFFFFF;}
	.st96{fill:none;stroke:#FBE6BB;stroke-linecap:round;stroke-linejoin:round;stroke-miterlimit:10;}
	.st97{fill:none;stroke:#5B4B68;stroke-width:0.5;stroke-linecap:round;stroke-linejoin:round;stroke-miterlimit:10;}
	.st98{fill:none;stroke:#40304A;stroke-width:0.5;stroke-linecap:round;stroke-linejoin:round;stroke-miterlimit:10;}
	.st99{fill:none;stroke:#DDA103;stroke-linecap:round;stroke-linejoin:round;stroke-miterlimit:10;}
	.st100{fill:none;stroke:#FBC32E;stroke-linecap:round;stroke-linejoin:round;stroke-miterlimit:10;}
	.st101{fill:none;stroke:#32775B;stroke-width:0.5;stroke-linecap:round;stroke-linejoin:round;stroke-miterlimit:10;}
	.st102{opacity:0.4;fill:#FBE6BB;}
	.st103{fill:none;stroke:#FBC32E;stroke-width:0.25;stroke-linecap:round;stroke-linejoin:round;stroke-miterlimit:10;}
	.st104{fill:none;stroke:#4456D6;stroke-miterlimit:10;}
	.st105{opacity:0.61;fill:#64B48D;}
	.st106{opacity:0.9;fill:#64B48D;}
	.st107{opacity:0.76;fill:#64B48D;}
	.st108{fill:none;stroke:#5B4B68;stroke-width:0.5;stroke-miterlimit:10;}
	.st109{opacity:0.66;fill:#A6A3AE;}
	.st110{fill:none;stroke:#43334E;stroke-miterlimit:10;}
	.st111{opacity:0.52;fill:#6582FC;}
	.st112{fill:none;stroke:#DDA103;stroke-width:0.5;stroke-linecap:round;stroke-linejoin:round;stroke-miterlimit:10;}
	.st113{fill:#46724E;}
	.st114{fill:#FE8B2E;}
	.st115{fill:none;stroke:#7D4C47;stroke-width:2;stroke-linecap:round;stroke-linejoin:round;stroke-miterlimit:10;}
	.st116{opacity:0.4;fill:#EAE8F3;}
	.st117{fill:none;stroke:#EAE8F3;stroke-width:0.5;stroke-linecap:round;stroke-miterlimit:10;}
	.st118{fill:none;stroke:#4456D6;stroke-width:0.25;stroke-linecap:round;stroke-linejoin:round;stroke-miterlimit:10;}
	.st119{opacity:0.5;fill:#EAE8F3;}
	.st120{opacity:0.46;fill:#A6A3AE;}
	.st121{fill:#E0916E;}
	.st122{fill:none;stroke:#A0665A;stroke-linecap:round;stroke-linejoin:round;stroke-miterlimit:10;}
	.st123{opacity:0.46;fill:#BE412D;}
	.st124{fill:none;stroke:#203881;stroke-linecap:round;stroke-linejoin:round;stroke-miterlimit:10;}
	.st125{fill:#DBDBE1;}
	.st126{fill:none;stroke:#6582FC;stroke-width:0.5;stroke-linecap:round;stroke-linejoin:round;stroke-miterlimit:10;}
	.st127{opacity:0.53;fill:#A6A3AE;}
	.st128{fill:none;stroke:#DDA103;stroke-miterlimit:10;}
	.st129{opacity:0.2;fill:#FFFFFF;}
	.st130{fill:#B4A1BF;}
	.st131{opacity:0.5;fill:#6582FC;}
	.st132{opacity:0.6;fill:none;stroke:#FFFFFF;stroke-linecap:round;stroke-linejoin:round;stroke-miterlimit:10;}
	.st133{opacity:0.6;fill:none;stroke:#FFFFFF;stroke-width:2;stroke-linecap:round;stroke-linejoin:round;stroke-miterlimit:10;}
	.st134{opacity:0.54;fill:#A6A3AE;}
	.st135{fill:#161718;stroke:#000000;stroke-width:0.25;stroke-miterlimit:10;}
</style>
<g id="_x31_3">
	<g>
		<g>
			<path class="st3" d="M86.8626556,34.3109093c-0.6413956-0.3147964-1.1352463-0.4483109-1.5894318-1.077549
				c-0.411438-0.5700073-0.6395645-1.27808-0.6000595-1.9828358c0.0586777-1.0467548,0.8041992-2.2187004,1.8961487-2.3856449
				c0.6934052-0.1060123,1.4339218,0.190321,1.8627701,0.7454205c-0.0053558-0.5743542,0.2777176-1.1301899,0.6985779-1.5210667
				c0.4208679-0.3908787,0.9685822-0.6270027,1.5312958-0.7421989c1.02771-0.2103901,2.1992188,0.013361,2.8983765,0.795435
				c0.4008789,0.4484119,0.6141663,1.036459,0.7268219,1.6272907c0.1101608,0.5777588,0.1188736,1.1836109-0.0033951,1.760273
				c-0.0627975,0.2961845-0.1579895,0.5870705-0.2968445,0.8566971c-0.0797348,0.1548309-0.5684662,0.6470108-0.5604477,0.7760963
				c0.0251312,0.4047203,1.3878021,0.7705688,1.7088242,0.8452301c0.6820831,0.1586418,1.4001617,0.1675262,2.0836105,0.0116272
				c-0.1428528,0.6221924-0.6375351,1.1028671-1.1640549,1.4638443c-1.9053879,1.3063164-4.5491028,1.4417343-6.5779877,0.336937"/>
			<path class="st0" d="M87.32621,109.9391479c0,0-0.383316,0.2581711-0.9857101,0.6649399
				c-0.7353668,0.4928513-1.7914581,1.2126083-2.855423,1.9244766c-0.852684,0.5789032-1.6975861,1.1500168-2.3781815,1.6115494
				c-0.8214111,0.5554504-1.3925247,0.9466019-1.4081345,0.9622116l-4.333992-2.8710327l3.9037323-5.4682922l1.1968994-1.6819687
				l2.3469086,1.6663055l2.612915,1.8462677L87.32621,109.9391479z"/>
			<path class="st1" d="M86.3404999,110.6040878c-0.7353668,0.4928513-1.7914581,1.2126083-2.855423,1.9244766
				c-0.2034073-0.125145-0.4067612-0.2581711-0.6180038-0.3754883c-0.6571503-0.3677063-1.3846893-0.6023865-2.1356735-0.6962585
				c0.4145966,0.8214111,0.5554047,1.7758408,0.3754959,2.6832962c-0.8214111,0.5554504-1.3925247,0.9466019-1.4081345,0.9622116
				l-4.333992-2.8710327l3.9037323-5.4682922c0.4224243-0.1877441,0.8683472-0.3207245,1.3220901-0.3676605
				c0.7509842-0.0782623,1.5098419,0.0703812,2.2217178,0.3519974c0.3285522,0.1251984,0.6414948,0.281662,0.9387741,0.4537506
				c0.6336594,0.3677063,1.2125549,0.8292389,1.6741409,1.3925171c0.125145,0.1486435,0.2346802,0.2972794,0.33638,0.4615326
				C86.0588837,109.5245514,86.262291,110.0565109,86.3404999,110.6040878z"/>
			<path class="st35" d="M80.4106293,113.7176819c-0.4302521,2.284317-3.2778473,2.7615051-5.1945038,3.0431747
				c-0.4928055,0.0703812-0.9934921,0.1173172-1.4863434,0.219017c-1.1030731,0.2268524-2.1122284,0.7275391-3.0901108,1.2751617
				c-0.3754883,0.2190628-0.7353668,0.5554504-1.1499557,0.6962585c-0.3989868,0.1408081-0.8762283,0.1486359-1.2829895,0.1095352
				h-0.0234909c-0.4380875-0.0391541-0.8761749-0.1173706-1.2516708-0.3286057
				c-1.0795822-0.5867233-1.1891174-2.0652924-1.1891174-3.1761475c0-1.9635849,0.586731-3.8176422,2.182663-5.0458603
				c0.9465561-0.7275391,2.0574112-1.1968994,3.1683121-1.6271591c0.758812-0.2894516,1.5255051-0.5711136,2.3234177-0.7431946
				c1.5098419-0.3207703,3.1136017-0.2503433,4.5921173,0.2268448c0.0234909,0,0.046936,0.0078354,0.0704269,0.0156631
				l0.2659531,0.8605194c0.633667,0.5788956,1.2203979,1.2203903,1.6193771,1.979248
				C80.3715286,111.9887772,80.5671005,112.8727798,80.4106293,113.7176819z"/>
			<path class="st7" d="M80.4106293,113.7176819c-0.4302521,2.284317-3.2778473,2.7615051-5.1945038,3.0431747
				c-0.4928055,0.0703812-0.9934921,0.1173172-1.4863434,0.219017c-1.1030731,0.2268524-2.1122284,0.7275391-3.0901108,1.2751617
				c-0.3754883,0.2190628-0.7353668,0.5554504-1.1499557,0.6962585c-0.3989868,0.1408081-0.8762283,0.1486359-1.2829895,0.1095352
				c-0.0234909-0.0078354-0.046936-0.0156631-0.0704269-0.0313263c-1.0795822-0.5945587-1.1812897-2.0730743-1.1890717-3.1839752
				c0-1.9635925,0.586731-3.8176422,2.1826096-5.0458679c0.9466019-0.7275314,2.057457-1.1968994,3.1683197-1.6271515
				c0.7588577-0.2894516,1.5254974-0.5632858,2.3234634-0.7353668c1.1108551-0.2425156,2.2686462-0.2660065,3.3873367-0.0704346
				c0.0234909,0,0.046936,0.0078354,0.0704269,0.0156631l0.2659531,0.8605194
				c0.633667,0.5788956,1.2203979,1.2203903,1.6193771,1.979248
				C80.3715286,111.9887772,80.5671005,112.8727798,80.4106293,113.7176819z"/>
			<path class="st18" d="M78.6892853,109.386116c-0.544693,0.1470795-1.0650482,0.3839188-1.5336914,0.698082"/>
			<polygon class="st11" points="114.8361359,86.1726379 108.0415802,96.9646149 102.2134094,99.5618668 88.1476212,105.8202972 
				68.237999,98.0911331 66.3057327,94.1170197 64.0166702,90.9640121 73.6202469,92.0908356 73.6280746,90.0725327 
				95.211792,88.2731934 95.6264343,91.0269165 			"/>
			<polygon class="st12" points="109.9973373,88.7778625 102.2134094,99.7457657 88.1476212,106.0041885 68.237999,98.275032 
				66.3057327,94.3009186 66.0866623,92.118309 86.5830154,100.1838531 			"/>
			<polygon class="st21" points="89.8641357,73.461937 91.2623978,72.5585251 91.463356,74.6951752 			"/>
			<polygon class="st21" points="92.1085739,70.7660522 92.9617462,71.4615555 91.2623978,72.5585251 91.0975037,70.8377762 			"/>
			<path class="st21" d="M104.8134079,67.6686554l-2.4951096,8.7902832l-0.6021576,2.1151276l-7.6001434-6.1732559
				l-1.1542511-0.9392548l1.3695602-0.8819275l-0.0647659,0.0287094l-2.1579666,0.1577148l-1.1041946-0.8962326l0.0931244,0.9679565
				L90.423584,70.88797l-0.3297882,0.021492l-0.1074829-0.2150879l-0.4946747-0.8747482l-1.9360123-3.5275726
				c-1.2620773-2.2943687-0.5520935-5.1264801,1.5701675-6.5747681c0.1361847-0.0932121,0.2653656-0.1720695,0.4085541-0.2509727
				l0.2079544-0.6022453c2.430687-1.3335876,5.0693283-0.5233879,6.4098282,1.9143486L104.8134079,67.6686554z"/>
			<path class="st20" d="M102.3182983,76.4589386l-0.6021576,2.1151276l-7.6001434-6.1732559l1.1041946-3.9004211
				l0.0505676-0.1702423c0.378952-1.2757339,2.1194-1.438858,2.7287979-0.2557526L102.3182983,76.4589386z"/>
			<path class="st5" d="M80.2316742,35.0723267c-1.3906631-0.20327-2.9504852-0.3665276-4.0713959,0.4813423
				c-1.7007523,1.286499-1.5137024,3.6010399-1.5843277,5.5171318c-0.0853882,2.3167572,0.5456543,4.8500595,1.0605087,7.1099091
				c0.5935211,2.6051407,1.3917999,5.163681,2.3868256,7.6434212c2.0861816,0.1593552,4.1723557,0.3187103,6.2585373,0.4780617
				c-0.724678-5.4829636-2.1062546-10.8788109-4.1057663-16.0353622"/>
			<path class="st3" d="M84.1195221,43.9619331c0.6375961-0.5403442,1.4376373-0.8161392,2.2172623-1.3664894
				c-1.4113617-0.5771446-2.8360901-1.1606102-4.2519226-1.7395134c-1.2432404-0.5083313-3.0347519-1.6893158-4.3859863-1.7878113
				l-0.5938644-0.2470894l-0.8699951-0.3559151c0,0-2.8620224-3.1960258,0.3269958-4.5073471
				c0.8733749-0.3591309,1.9120407-0.256115,2.7995148-0.5954704c1.396759-0.5340958,2.7681732-1.0911942,4.2784119-1.1982269
				c1.7412491-0.1234055,3.6293793,0.4244652,4.6822433,1.8168259c-0.6604156-0.7384529,0.1157455-2.043684,1.1024094-2.1336918
				c1.6306229-0.148695,2.6573105,1.6307926,3.3023071,2.8658924c0.9860382,1.8881416,1.5324326,4.172226,2.1237411,6.210125
				c1.2291412,4.2361336,2.1196442,8.5599861,3.0083389,12.8773575c-4.7616272,1.2478142-9.662056,1.965229-14.5815506,2.1347122
				c-0.2056351,0.0070839-0.4758301-3.1050034-0.4939346-3.4080467c-0.0713806-1.1951752,0.042038-2.3416138,0.129364-3.5225182
				C83.033905,47.3678131,82.6972885,45.1672363,84.1195221,43.9619331z"/>
			<path class="st0" d="M88.0691605,61.4089699l-6.3387451,0.620182l-0.891655-9.0179596
				c-0.0723114-0.0264664-0.1559525-0.043148-0.2385635-0.0703621c-0.8286896-0.261467-1.5628586-0.802166-2.0799637-1.560421
				c-0.4403839-0.6463661-0.792778-1.3396225-1.0574646-2.0686722c-0.2651978-0.7290878-0.443161-1.4839134-0.5138626-2.2625046
				l-0.5407257-5.5383072c0,0-0.248848-1.3849449,0.6103287-2.7105942c0.3108063-0.485981,0.7803497-0.9707756,1.4661255-1.3661346
				l8.6438522-0.844593l0.5047455,5.1541405l0.454277,4.6845932l0.0750427,0.7152672
				c0.0641403,0.5768623-0.0096359,1.1543083-0.2074509,1.6909218c-0.1322937,0.3610764-0.3171082,0.7185936-0.562149,1.0293121
				c-0.0573273,0.0592117-0.2041931,0.1864166-0.4184265,0.3614998l0.4022217,4.0873947L88.0691605,61.4089699z"/>
			<path class="st1" d="M88.0875092,46.4283371c-0.2625427-0.1781654-0.4435959-0.4562111-0.4831696-0.7873497l-0.2997055-3.0203972
				c-0.0282364-0.3411789,0.1010056-0.6603127,0.328598-0.8768463L88.0875092,46.4283371z"/>
			<path class="st1" d="M80.9715118,54.3069763l-0.1271362-1.2974701c0.0539551,0.3114281,3.3552399-1.18153,3.7329483-1.5196724
				c0.2140121-0.0779953,0.3613281,0.215683,0.1708527,0.3405914
				C83.8005371,52.9760437,82.5558472,53.8161583,80.9715118,54.3069763z"/>
			<path class="st4" d="M80.0613632,45.7130775l-0.5956955,0.9065895c-0.1556931,0.2369461-0.0872879,0.5554771,0.1519623,0.7076073
				l0.6418915,0.4081535"/>
			<path class="st3" d="M87.9217072,42.6882477c-1.6170883-0.5763321-3.234169-1.1526642-4.8512497-1.7289963
				c-1.2085266-0.4307213-2.4170456-0.8614426-3.6255722-1.2921638c-0.4673004-0.1665497-0.9346085-0.3330994-1.4019165-0.499649
				c-0.2641525-0.0941429-0.691803-0.1606407-0.9200592-0.325943c-0.3861847-0.2796669-0.0382843-1.1675224,0.1356277-1.5438461
				c0.2574692-0.5571289,0.6725998-1.0442696,1.1970291-1.3662605c0.4267502-0.2620087,0.9094772-0.4178352,1.3929138-0.5484009
				c1.6327972-0.440979,3.3361206-0.6196899,5.0248871-0.5272102c0.7484436,0.0409889,1.5089569,0.1390762,2.1864929,0.4596786
				c0.6775436,0.3206024,1.2675629,0.8945885,1.4525375,1.6209717c0.157959,0.6202621,0.0101471,1.2776222-0.2054977,1.8802567
				c-0.2749176,0.7682533-0.6945801,1.4861145-0.5868149,2.3148117
				C87.7875671,41.6503792,87.8544998,42.1693306,87.9217072,42.6882477z"/>
			<path class="st0" d="M87.2701263,42.3415184l0.2957153,3.0179634c0.0581512,0.593399,0.5858002,1.0268784,1.1791992,0.9687347
				c0.5933914-0.0581474,1.0268707-0.5858002,0.9687271-1.179203l-0.295723-3.0179634
				c-0.029068-0.2967033-0.1756287-0.5523491-0.3886032-0.7280693c-0.2137299-0.1748238-0.4938049-0.2688828-0.7905045-0.2398109
				C87.6455383,41.2213173,87.2120667,41.74897,87.2701263,42.3415184z"/>
			<path class="st1" d="M88.852066,42.0929031l0.0754242,1.0116463l-0.8950348,0.5013657l-0.1076431-1.4438858
				c-0.0188522-0.2529144,0.1761551-0.4793396,0.4290619-0.4981918
				C88.6067886,41.6449814,88.8332138,41.8399887,88.852066,42.0929031z"/>
			<path class="st1" d="M88.1063004,44.5964661l0.8989868-0.4483643l0.070694,0.9483528
				c0.0188599,0.2529144-0.1761475,0.4793396-0.4290619,0.4981918c-0.2529144,0.018856-0.4793396-0.1761513-0.4981918-0.4290657
				L88.1063004,44.5964661z"/>
			<g>
				<path class="st5" d="M80.5938568,49.0268974c0.0172882-0.0221672,0.0377884-0.0444679,0.0582581-0.0667496
					c0.525032-0.5688248,1.4751053-0.4272537,2.1248627-0.1445961l0.000679,0.0012627
					c0.1248016,0.0547409,0.237587,0.1142883,0.3350983,0.1755142c0.1020279,0.0636749,0.185585,0.1291161,0.2460327,0.1907387
					c0.042038,0.0423317,0.0311966,0.1128807-0.021698,0.1411438l-2.4888153,1.3300972
					c-0.0352402,0.0188332-0.0795135,0.0117378-0.106514-0.0175552
					C80.5679626,50.4478874,80.0112991,49.7365608,80.5938568,49.0268974z"/>
				<path class="st45" d="M81.3042297,50.4106331l-0.0760727-0.1423416
					c-0.0619202-0.1158638-0.0185318-0.2588768,0.096077-0.3201256l1.7885208-0.9558372
					c0.1020279,0.0636749,0.185585,0.1291161,0.2460327,0.1907387c0.042038,0.0423317,0.0311966,0.1128807-0.021698,0.1411438
					L81.3042297,50.4106331z"/>
			</g>
			<path class="st21" d="M95.2431107,86.6577988l0.1173172,1.4550781l-4.678154,0.1408539l-15.5365295,0.4771957
				l-0.7119217,0.0234451l-1.0717468,0.0234909l-1.1890717-16.7882462c-0.0234909-0.1095276-0.0391541-0.219017-0.0547638-0.3442078
				c0-0.0469437-0.0078354-0.0938797-0.0156631-0.1408157c0-0.0625916-0.0156631-0.1408081-0.0234451-0.2033997
				c-0.0391541-0.2034073-0.046936-0.3989868-0.0625992-0.6101761c-0.164299-1.3534164-0.3129349-2.7224426-0.4928513-4.0992584
				c-0.2268524-2.0418472,0.970047-4.5373955,0.5241318-6.5478745c0.0391006-0.0234909,5.7577362-1.3612442,9.3328705-1.8932076
				c0.0625916,1.1421814,0.8214493,2.213932,1.8775406,2.6755104c1.0717545,0.453701,2.3703537,0.2737885,3.254364-0.4694099
				c0.6180496-0.5084686,0.7979584-1.1656227,1.2126083-1.768013c0.1329727-0.2034035,0.1642532-0.1799126,0.4067612-0.1799126
				c0.211235,0,0.3989868,0.0078316,0.6102219,0.0156593c0.3128891,0,0.6258316,0.0078316,0.9387741,0.0078316
				c0.3989334,0,1.0347672-0.079834,1.4180908-0.0876656l0.3968048,1.3471642l2.5268707,5.2414398l1.3299255,1.3377075
				c3.324791,4.7876892,0.1642532,7.9794998-0.7666855,8.7618027v0.0078278
				c-0.0078354,0.0234451-0.0234451,0.0234451-0.0234451,0.0391083c-0.1095352,0.1016998-0.1877441,0.1329803-0.1877441,0.1329803
				l0.1799164,2.3469086l0.6101685,8.0107727l0.0782547,1.0639648V86.6577988z"/>
			<path class="st20" d="M90.6822739,88.2537308l-15.5365295,0.4771957l-0.7119217,0.0234451l-1.0717468,0.0234909
				l-1.1890717-16.7882462c-0.0234909-0.1095276-0.0391541-0.219017-0.0547638-0.3442078l4.1149216-0.0625534l1.2478027-2.6771164
				c0.3163223-0.6786652,1.333786-0.4531937,1.333786,0.2955704v17.5190887L90.6822739,88.2537308z"/>
			<polygon class="st34" points="73.5333405,91.1427689 95.5364456,90.4292603 95.3383789,87.8445358 73.4523926,88.6465302 			"/>
			<path class="st21" d="M77.3015366,66.0704117l-1.2104111,20.2583694l-6.9285431,3.2971802l-0.2079544-3.9506836
				l-0.1113663-2.109024l-0.7129211-17.4809723c-0.0594177-1.1659012,0.1559677-2.2723808,0.5792618-3.2155075
				c0.3638687-0.8317184,0.8837051-1.5520248,1.5223312-2.0718613c0.7054901-0.5866432,1.5520248-0.920826,2.4729004-0.928257
				C75.3856354,59.8696556,77.4649277,62.7286758,77.3015366,66.0704117z"/>
			<path class="st11" d="M118.7659683,97.6172638l-6.5530243,2.9539871l-11.6153412,5.2340088l-0.6452255,0.2939835
				l-12.2749176,5.5351334l-3.6350021-6.8328781l3.5919418-2.2155151l2.1726685-1.3407593l10.0735397-6.2234497l0.6739273-0.4230423
				l0.502037-0.3083038l12.0095444-7.406456c0.9175949-0.5736237,1.9430161-0.8389053,2.9610825-0.8389053
				c2.1292572,0,4.2375107,1.1830444,5.3630524,3.3053513C123.0535431,92.4764709,121.8205185,96.2406616,118.7659683,97.6172638z"
				/>
			<path class="st12" d="M112.212944,100.5712509l-11.6153412,5.2340088l-0.6452255,0.2939835
				c-0.0430603-0.0573654-0.0717697-0.1147385-0.1074753-0.1720657c-0.7744064-1.3551178-1.0754852-2.9468536-1.0754852-4.5098877
				c-0.0073471-1.5558472,0.272377-3.1045227,0.6021576-4.6317139c0.1291885-0.6022873,0.2653732-1.2045746,0.5090332-1.7638016
				c0.0500641-0.1362305,0.1218338-0.2724609,0.1936035-0.4086914l0.4803238-0.0143509l8.3745499-0.200737
				c0.7383423,0.4803696,1.2760849,1.2260666,1.7207031,1.9932022
				C111.4098358,97.6818161,111.983284,99.1014328,112.212944,100.5712509z"/>
			<polygon class="st12" points="100.5940399,105.808609 87.6782608,111.636734 84.0405273,104.799408 87.6313248,102.5854797 			
				"/>
			<polygon class="st0" points="99.3658676,112.2078476 95.164856,114.2183685 94.6720505,113.9758606 92.7397385,113.0292511 
				89.8921432,111.636734 92.2077713,108.4762421 97.8559799,108.4762421 			"/>
			<path class="st1" d="M99.3658676,112.2078476l-4.2010117,2.0105209l-0.4928055-0.2425079
				c-0.0391541-1.5020599,0.3676605-3.0119019,1.1734543-4.287056c-0.3129425-0.1642532-0.6806488-0.3285522-1.0013733-0.1877441
				c-0.164299,0.0625992-0.289444,0.2034073-0.4068146,0.33638c-0.7744675,0.9387741-1.2907715,2.0496368-1.6975784,3.1918106
				l-2.8475952-1.3925171l2.3156281-3.1604919h5.6482086L99.3658676,112.2078476z"/>
			<path class="st35" d="M108.9960175,116.1271896c-0.4068146,0.7118759-1.0874176,1.3220444-1.8697205,1.5411148
				c-0.2034073,0.0547638-0.4224701,0.0860443-0.6414948,0.0860443c-0.6179962-0.0078354-1.1969452-0.2659607-1.7758408-0.5006866
				c-1.6819229-0.680603-3.4421082-1.1968994-5.2336121-1.533287c-0.8605118-0.164299-1.7288589-0.289444-2.5737534-0.5163422
				c-0.5710678-0.1564255-1.5333328-0.3128967-1.7367401-0.9856644c-0.2502975-0.8136215-0.2111893-1.885376,0.1016998-2.683342
				c0.3755417-0.9778748,1.1891174-1.7836227,2.1748276-2.1435013c-1.0013733-0.6101685-2.2217636-0.6962128-3.3952179-0.7744751
				c0.6884308-0.7040405,1.4237976-1.3690262,2.1982727-1.9714127c0.0156631-0.0156174,0.0391541-0.0312805,0.0547638-0.046936
				c0.9544373-0.7509842,2.0183563-0.5319672,3.0353394,0.0313187c0.7197113,0.3989792,1.3611984,0.923111,2.0887375,1.2985992
				c1.0248184,0.5319672,2.1826553,0.75103,3.3013458,1.0561371c1.9948578,0.5475769,4.1618576,1.7914581,4.7094803,3.9349594
				C109.7078857,113.9914703,109.5514221,115.1649246,108.9960175,116.1271896z"/>
			<path class="st7" d="M108.0650711,116.6043854c-0.234726,0.4067612-0.5554504,0.7823029-0.9387741,1.0639191
				c-0.2034073,0.0547638-0.4224701,0.0860443-0.6414948,0.0860443c-0.6179962-0.0078354-1.1969452-0.2659607-1.7758408-0.5006866
				c-1.6819229-0.680603-3.4421082-1.1968994-5.2336121-1.533287c-0.8605118-0.164299-1.7288589-0.289444-2.5737534-0.5163422
				c-0.5710678-0.1564255-1.5333328-0.3128967-1.7367401-0.9856644c-0.2502975-0.8136215-0.2111893-1.885376,0.1016998-2.683342
				c0.3755417-0.9778748,1.1891174-1.7836227,2.1748276-2.1435013c-1.0013733-0.6101685-2.2217636-0.6962128-3.3952179-0.7744751
				c0.6884308-0.7040405,1.4237976-1.3690262,2.1982727-1.9714127c0.7040939-0.1564255,1.4394608,0.0704269,2.1591644,0.4615784
				c0.7119217,0.3989792,1.3534164,0.923111,2.0809479,1.2985992c1.0326462,0.5320053,2.1904449,0.75103,3.3091278,1.0561371
				c1.9948654,0.5476227,4.1540298,1.7914581,4.7094803,3.9349594
				C108.776947,114.4686661,108.612648,115.6499481,108.0650711,116.6043854z"/>
			<path class="st11" d="M94.7008743,107.6713257l-3.2749252,7.0176544l-2.242691-0.8762741l-0.0222549-0.007431
				l-29.4964104-11.5549774c-3.1114807-1.2178879-4.537323-4.9234924-3.0372391-8.1315689
				c0.8540154-1.8119659,2.413475-3.0075531,4.1437645-3.4159775c0.029686-0.007431,0.0593758-0.0148697,0.0891075-0.0223007
				c0.4084282-0.0891113,0.8317184-0.1336594,1.2475777-0.1336594c0.920826,0,1.8490868,0.2227707,2.710495,0.6980515
				L94.7008743,107.6713257z"/>
			<path class="st13" d="M92.0571976,107.6713257l-2.8739395,6.1413803l-0.0222549-0.007431l-29.4964104-11.5549774
				c-3.1114807-1.2178879-4.537323-4.9234924-3.0372391-8.1315689c0.8540154-1.8119659,2.413475-3.0075531,4.1437645-3.4159775
				c0.475235,0.1113663,0.9505157,0.2895813,1.3961067,0.5420914L92.0571976,107.6713257z"/>
			<line class="st124" x1="73.6213455" y1="92.2780838" x2="73.8130188" y2="93.7764816"/>
			<line class="st124" x1="95.6263046" y1="91.2071533" x2="95.5695648" y2="93.0272827"/>
			<path class="st18" d="M97.5094147,109.3962021c0.4843597,0.028389,0.9608994,0.1813202,1.3713303,0.4400711"/>
			<path class="st50" d="M88.4623566,34.2302284c-0.0715332,1.1519051,0.5732651,2.2327118,1.3486328,3.0875778
				c0.7753754,0.854866,1.7027664,1.5713577,2.4022064,2.4893837c0.8148346,1.0694695,1.289032,2.3945198,1.3377686,3.7381516
				c0.0658646,1.8155632-0.616806,3.5612488-1.0588837,5.3234024c-0.44207,1.7621498-0.6124954,3.7534714,0.3671875,5.2834511"/>
			<g>
				<path class="st14" d="M25.7694016,120.7735901c0,0,9.4167099-4.7060394,9.4638481-4.564621
					c0.047142,0.1414185,2.21558,0.377121,2.21558,0.377121l-1.7441788,5.0911179l1.9798775-2.7356796l0.8013802,2.7356796
					l4.6668587-4.006897l6.5524559-1.2727814l2.4512787,2.2155762v-4.4782944l1.5084763,6.3167572l3.3729935-2.5455627
					l1.889431,2.066246c0,0,1.2900352-11.5885162,0.9600525-11.4942398
					c-0.3299789,0.0942841-11.2664528-0.653923-12.2563934-0.7747955
					c-0.9899368-0.1208649-13.0577698-0.7336807-13.0577698-0.7336807s-7.3488388,6.1281967-7.6341782,6.5053177"/>
				<g>
					<path class="st15" d="M62.2087288,108.0789337v7.8445358c0,1.4930038-1.2062492,2.8847504-3.2813263,4.0487823
						l-1.1639328-4.8753967h-0.0084419l-0.7001686,0.2783661l-3.3571129,1.3158569l-0.3036461-2.3702316l-3.2221222-1.7798157
						h-0.0084419l-1.6954422-0.9362717v4.0741119c0,0-9.6495819,2.1593552-9.8688965,2.2690125
						c-0.1517754,0.0674438,0.0504532-1.3917923,0.193985-2.3365097c0.0674438-0.4470215,0.1264458-0.776001,0.1264458-0.776001
						l0.3543053-1.5857849l0.362751-1.6448288c0,0-4.2765999-1.2146454-4.3861542-1.3327484
						c-0.0506592-0.0506058-1.1303635,1.0375443-2.3113861,2.2690201c-0.6915207,0.7170029-1.4170208,1.47612-1.9820995,2.0750198
						c-0.6410675,0.6747894-1.0881462,1.1471481-1.0881462,1.1471481s-2.3196239,2.7751465-3.8717365,4.7151871
						c-0.0757828,0.1012115-0.1517715,0.2024307-0.2277603,0.2952042c-0.1602154-0.0674973-0.3204308-0.1349411-0.4722042-0.2108765
						c-2.7667007-1.282135-4.4114838-2.8847504-4.4114838-4.6392441v-7.8445358h0.0084438l4.3777103,1.2483673l0.6915226,0.2108688
						l2.260725,0.6410675c1.4930096-0.463913,3.1715641-0.8434982,4.9850063-1.1387024
						c0.2277603-0.04216,0.4639664-0.0759354,0.7001686-0.1012115c2.2436333-0.3289795,4.6814613-0.5229645,7.2456284-0.539856
						h0.6916237c2.56427,0.0168915,5.0104408,0.2024307,7.2541771,0.5229645
						c0.2362022,0.0337219,0.4639664,0.0590515,0.7000656,0.1012192c1.8473167,0.2952042,3.5512009,0.6832352,5.0694389,1.1555862
						l2.1677475-0.6157379l0.7001686-0.2108688l4.453701-1.2736969H62.2087288z"/>
					<g>
						<g>
							<path class="st17" d="M25.9971619,120.4783859c-0.0757828,0.1012115-0.1517715,0.2024307-0.2277603,0.2952042
								c-0.1602154-0.0674973-0.3204308-0.1349411-0.4722042-0.2108765
								c-0.0084419-3.6101532-0.0253296-7.4481125-0.0253296-11.2354126l0.6915226,0.2108688
								C25.9720383,113.1230469,25.9889259,116.8429031,25.9971619,120.4783859z"/>
						</g>
						<g>
							<path class="st17" d="M57.7550278,115.0968552l-0.7001686,0.2783661
								c-0.0084457-1.9232025-0.0084457-3.880127-0.0168877-5.8117218l0.7001686-0.2108688
								C57.7465858,111.2420578,57.7465858,113.1652069,57.7550278,115.0968552z"/>
						</g>
					</g>
					<path class="st17" d="M62.2002831,108.1632614c0,2.5473862-3.483757,4.7995148-8.8061829,6.1575851l-3.2221222-1.7798157
						h-0.0084419l-1.6954422-0.9362717v3.6439209c-2.1678505,0.2783661-4.4959145,0.430191-6.9250946,0.430191
						c-0.9363747,0-1.8473167-0.0253296-2.7498169-0.0674973c0.0674438-0.4470215,0.1264458-0.776001,0.1264458-0.776001
						l0.3543053-1.5857849l0.362751-1.6448288c0,0-4.2765999-1.2146454-4.3861542-1.3327484
						c-0.0506592-0.0506058-1.1303635,1.0375443-2.3113861,2.2690201c-0.6915207,0.7170029-1.4170208,1.47612-1.9820995,2.0750198
						c-6.0311432-1.3158569-10.071331-3.7114105-10.071331-6.4527893c0-0.0252762,0-0.0590439,0.0084438-0.0843277
						c0.118-4.1078339,9.3205013-7.431221,20.6488419-7.431221c11.3365784,0,20.5307388,3.3233871,20.6488419,7.431221
						C62.2002831,108.1042175,62.2002831,108.1379852,62.2002831,108.1632614z"/>
					<path class="st16" d="M32.1388626,112.9482117c-3.9546757-0.7467194-6.8956432-1.9727783-8.0479946-3.4109116
						c-0.0274582-0.0276794-0.0459137-0.0461349-0.0643692-0.073761c-0.3227482-0.4240875-0.4886227-0.848114-0.4886227-1.299881
						c0-3.1067352,8.0572224-5.6234512,18.0135727-5.6234512c9.9470062,0,18.0134583,2.516716,18.0134583,5.6234512
						c0,0.451767-0.1659889,0.8757935-0.4885101,1.299881c-0.0184555,0.0183945-0.036911,0.0460815-0.0553665,0.064537
						c-1.1523514,1.4473572-4.0930939,2.6641922-8.0479965,3.4201355h-0.0092278l-1.8529892-1.0232697v1.3367386
						c-2.2954712,0.3318634-4.8583221,0.5162506-7.5593681,0.5162506c-0.8390579,0-1.677887-0.0184555-2.4891434-0.0553131"/>
					<g>
						<path class="st14" d="M53.8668518,108.5518646l-0.3580475,0.8448944l-3.0651207-0.1584244
							c-0.3465767,0.7657623-1.2303658,1.5447388-2.1813354,1.9671478l-1.9016724-0.4224091
							c0.0112,0,0.0112-0.0132141,0.0223961-0.0132141h-0.0671844l0.3244553-0.6601181c0,0,0.7158241-0.1584244,1.0514755-0.1980667
							c0.0112,0,0.0112,0,0.0112,0c0.3468475-0.3036346,0.6153183-0.6336899,0.7606125-0.990181
							c0.3916397-0.9505386-0.5817261-1.6502991-2.3157082-1.7427292c-1.6665192-0.0924225-2.9195518,0.3697052-4.2394943,1.3202438
							c-1.7899704,1.2938843-3.5351448,2.0595703-6.1750336,1.91436c-2.5169907-0.1319885-4.1056747-1.0166092-4.0496864-2.2707748
							l-3.0651226-0.1716385l0.3468513-0.8185425l2.9419479,0.1452103c0.3916416-0.7921906,1.1077366-1.3070221,1.7899685-1.6767349
							l1.0290794,0.2508545c0.0559883-0.1716385,0.1119766-0.3168488,0.1231728-0.3168488
							c0.0223961-0.0132141,0.995491-0.1584244,0.995491-0.1584244l-0.2796669,0.6733398
							c-0.4921455,0.2508469-1.3871269,0.7656784-1.7337074,1.6238708c-0.4364281,1.029747,0.8054047,1.4918747,2.0133743,1.557869
							c1.5774879,0.079216,2.5729752-0.3696213,4.1616592-1.4786606c1.8456841-1.3070221,3.7137604-1.91436,6.4099083-1.7691574
							c2.405014,0.1320724,4.3402748,0.9770432,4.2842903,2.3896332L53.8668518,108.5518646z"/>
					</g>
					<g>
						<path class="st15" d="M53.7933846,108.7274551l-3.0664864-0.1637421
							c-0.353405,0.7742233-1.2339134,1.5458679-2.1881638,1.9726257l-1.9008484-0.4293365
							c0.9291229-0.4409409,1.7954292-1.1062164,2.1067734-1.853363c0.3954659-0.9489288-0.5828171-1.6573944-2.3132477-1.7495804
							c-1.6703453-0.0889587-2.9211922,0.377121-4.2425003,1.3170166c-1.7839584,1.2976761-3.531868,2.0654526-6.1733932,1.9242783
							c-2.5202675-0.1340866-4.105402-1.0256348-4.0485954-2.2788315l-3.0686703-0.1637421l0.345211-0.8283768l2.9474125,0.1572952
							c0.394371-0.7987213,1.1088295-1.3195953,1.7866898-1.679306l1.864254,0.4409409
							c-0.4817696,0.260437-1.3775711,0.7735748-1.7337074,1.6283798c-0.4282379,1.0288544,0.806221,1.4910736,2.021019,1.5555344
							c1.5796738,0.0844498,2.5759811-0.3687363,4.1534691-1.4717331c1.8495026-1.3086319,3.7170334-1.9184723,6.4197388-1.7747116
							c2.4000969,0.1282806,4.3413696,0.9830856,4.2840157,2.3864822l3.1582527,0.1682587L53.7933846,108.7274551z"/>
					</g>
				</g>
				<path class="st15" d="M31.0727005,118.9895935l-8.0263271,8.8901978c0,0,5.5926533,1.1630249,8.4107666,0.7649689
					l1.6760807-2.315918l0.6784172,2.315918v-3.0026398l0.9741974-5.5242767L31.0727005,118.9895935z"/>
				<polygon class="st15" points="35.4359436,124.4300537 38.742588,127.1894608 42.6003418,122.2485809 39.6086159,123.4104385 
					37.0630226,122.7018661 38.3751831,125.2737045 				"/>
				<path class="st15" d="M45.251873,120.4731903c-0.0671272,0.1007004-0.7048569,4.4976807-0.7048569,4.4976807
					l5.0011482-1.8796234l-3.2222176-0.7048645L45.251873,120.4731903z"/>
			</g>
			<path class="st125" d="M106.350914,65.3355408l-1.5520706-0.4604111
				C105.8904953,64.5929337,106.350914,65.3355408,106.350914,65.3355408z"/>
			<g>
				<path class="st34" d="M91.862587,61.4219818l11.5326767,3.4531479
					c-0.7722931,0.1930847-1.8639526,0.9208221-3.3268661,2.7995987c-2.3243637,2.9927292-2.7996445,7.9013596-2.406044,13.6194458
					H82.8993073c-0.0965424-1.7377167-0.1485367-3.6090622-0.133667-5.6215439
					C82.8993073,59.0085068,91.862587,61.4219818,91.862587,61.4219818z"/>
				<path class="st6" d="M106.2789536,108.2449799c0,0-5.150032,1.2318497-6.0732574-7.3079987
					s1.8402481-22.0844803,1.6343842-24.0058823c-0.205864-1.9214096,0.6319885-13.1753578-9.9772491-15.5084915h12.7221146
					c0,0,6.3761902-0.488987,9.1020203,7.9601059c0,0,2.3577881,4.9407654,1.4657059,14.9595413
					c-0.3860397,4.3355637-0.6478577,8.6824265-0.8126984,13.0318832c-0.048027,1.2672653-0.0875854,2.5348816-0.1162796,3.8027344
					c-0.0267181,1.1806259,0.0955276,2.3854294-0.6362152,3.3971786c-0.4067535,0.5624084-0.9451065,1.0138397-1.4776001,1.459053
					c-1.2654877,1.058075-2.7530441,1.8690262-4.4071045,2.0923309"/>
				<line class="st39" x1="99.897934" y1="64.3127213" x2="108.5136948" y2="64.3127213"/>
				<line class="st39" x1="101.6133881" y1="67.225914" x2="110.2291489" y2="67.225914"/>
				<path class="st34" d="M113.6869659,92.6139526c0,0-5.8674927-0.2680893-2.7416687,8.3469772
					c0,0,1.8210068,6.8287964-4.6663437,7.28405l18.6653671-0.0000076c-0.150589-1.2321396-0.301178-2.4642868-0.4517746-3.6964264
					c-0.2514267-2.0571899-0.5028534-4.1143799-0.7542801-6.1715622c-0.0717621-0.5871658-0.1471252-1.0820541-0.476799-1.5972214
					c-0.3781967-0.5910034-0.9140396-1.0692291-1.4735794-1.48423c-1.9617615-1.4550018-4.3350449-2.3487167-6.7692566-2.549118"/>
				<path class="st6" d="M124.1563721,118.5868454H142c0,0-5.9403992-1.453949-5.4305115-10.4440002
					c0.5160675-9.0990295,0.1643219-13.3104782-6.9428101-15.5288925h-15.9397125c0,0,8.6423035,0.9225311,8.2386703,9.5406342
					C121.539505,110.3988342,120.0601196,112.1087341,124.1563721,118.5868454z"/>
				<path class="st44" d="M96.9527817,61.4226074h7.632164c0,0,6.3761902-0.488987,9.1020203,7.9601059
					c0,0,2.3577881,4.9407654,1.4657059,14.9595413c-0.054306,0.6099167-0.1061554,1.220047-0.1556168,1.8303833"/>
				<path class="st44" d="M100.3697739,90.1128693c0.4393082-4.8364792,1.1605072-9.3848953,1.4006805-11.7393417"/>
				<path class="st44" d="M121.4524078,108.244957c-0.2952118,3.6603317-0.1301041,5.8598785,2.7039642,10.3418884H142
					c0,0-5.9403992-1.453949-5.4305115-10.4440002c0.5160675-9.0990295,0.1643219-13.3104782-6.9428101-15.5288925h-7.5027847"/>
			</g>
			<path class="st0" d="M88.5387726,72.6076736c0,0.3442154-0.1955795,0.6805954-0.5554504,0.8214035
				c-0.3128967,0.1251526-0.6649399,0.0625992-0.9152832-0.164299c-0.4615784-0.4145966-1.1656265-1.0482559-1.2516632-1.0795822
				c-0.0782623-0.0312729-0.2816696,0.7275391-0.4459229,1.3611984c-0.117363,0.4615784-0.5867233,0.7432022-1.0561371,0.6180496
				l-0.8370667-0.211235l0.2659988,1.5411606v0.0234451c0.0625992,0.3754883-0.0234451,0.7744751-0.2346802,1.0952454
				l-9.1998901,13.9406433c-0.6962585,1.0639191-1.9948654,1.5020065-3.1604843,1.1734543
				c-0.2738342-0.0782623-0.5397949-0.2034073-0.7901382-0.3677063c-1.3925171-0.923111-1.6897964-2.8475952-0.6414948-4.1540298
				L78.783432,75.940239l-0.5789032-5.2961578l3.3091736-2.9727402l4.05233,0.7431488l2.7928238,3.661171
				C88.4840012,72.2399597,88.5387726,72.4277115,88.5387726,72.6076736z"/>
			<path class="st1" d="M83.5085678,76.61306l-9.1998901,13.9406433c-0.6962585,1.0639191-1.9948654,1.5020065-3.1604843,1.1734543
				l12.5950546-16.209343C83.8058472,75.8933029,83.7198029,76.2922897,83.5085678,76.61306z"/>
			<path class="st0" d="M112.3879852,73.3400116l1.8050919-0.3234024c0.0102386,0.035408,0.5540543,1.3414764,0.8738708,2.0102081
				c0,0,1.9648056-4.2220917,1.0928802-5.9097672l-1.3295059-2.5293121
				c-0.4003067-0.7326584-0.766983-0.9645767-1.1733322-0.9812775l-4.0572052-0.1667252
				c-0.3374557-0.0182037-0.6361008,0.1856079-0.7736588,0.4760056c-0.0391769,0.0993729-0.068428,0.2026825-0.0718231,0.3277588
				c-0.0001755,0.3789749,0.259407,0.7111435,0.6269302,0.7986526l2.5318909,0.8034363l0.2793503,0.7189865l-1.6104507,1.4324799
				c-0.2471085,0.1896896-0.3030243,0.5352478-0.1449585,0.8043518l1.3541718,2.2457962
				C111.9192047,73.2469635,112.1499329,73.3609543,112.3879852,73.3400116z"/>
			<line class="st126" x1="103.0868759" y1="77.0420074" x2="114.0484314" y2="77.0420074"/>
			<line class="st126" x1="103.0868759" y1="79.6217728" x2="112.5686264" y2="79.6217728"/>
			<line class="st126" x1="102.820961" y1="82.2015457" x2="109.8766632" y2="82.2015457"/>
			<line class="st19" x1="123.8853149" y1="100.0057144" x2="134.8468628" y2="100.0057144"/>
			<line class="st19" x1="123.8853149" y1="102.5854797" x2="133.3670654" y2="102.5854797"/>
			<line class="st19" x1="123.6194077" y1="105.1652451" x2="130.6751099" y2="105.1652451"/>
			<path class="st44" d="M106.2789536,108.2449799c0,0-3.4353867,0.4612885-4.9995956-3.0797348"/>
			<path class="st23" d="M76.1430664,64.3104324l-1.0916138,14.3323288l-6.0968246,7.0325165l-0.1113663-2.109024
				l-0.7129211-17.4809723c-0.0594177-1.1659012,0.1559677-2.2723808,0.5792618-3.2155075
				c0.3638687-0.8317184,0.8837051-1.5520248,1.5223312-2.0718613L76.1430664,64.3104324z"/>
		</g>
		<path class="st50" d="M80.2595215,33.0197868c0.3712387,0.9873543,1.0352859,1.2745514,1.9419632,1.8136444
			c0.9066696,0.5390968,1.9987488,0.7594032,3.0435104,0.6139793c0.5515823-0.0767784,1.1000977-0.258667,1.5354614-0.605938
			c0.5447464-0.4345245,0.8728104-1.1015472,0.9914246-1.7881966s0.0427475-1.3941956-0.1106262-2.0739269
			c0.3430481,0.4455051,0.7469711,0.8700714,1.267662,1.0822887c0.5199661,0.2119217,1.1098862,0.1905403,1.6562653,0.0611458
			c0.8581009-0.2032166,1.6640167-0.679718,2.1870956-1.3896694c0.5230713-0.7099533,0.7386017-1.6590786,0.4914017-2.505558"/>
	</g>
	<g>
		<polygon class="st24" points="41.2438622,106.0645599 38.6636772,104.7603683 31.7954845,101.2986603 34.0359154,99.6048965 
			25.9659977,90.3226776 14.0011435,76.562912 18.4330425,75.2525101 20.2865391,71.82061 23.7906876,76.9904327 
			37.2952271,96.9058762 38.9319725,95.6658249 39.1013412,95.5368271 		"/>
		<polygon class="st37" points="20.2859631,71.8219528 18.8754883,71.4911575 17.8963985,74.5802841 14.1840734,75.0300751 
			14,76.5637054 18.4352665,75.2522202 		"/>
		<polygon class="st37" points="39.1013832,95.5390854 37.8789711,94.4183044 36.7628403,96.1188431 37.2941666,96.9023438 		"/>
		<polygon class="st37" points="31.794632,101.2974319 31.2374153,99.6528168 33.3682404,98.8423767 34.0340042,99.6081848 		"/>
	</g>
	<path class="st25" d="M31.7954845,101.2986603l2.2404308-1.6937637l-8.0699177-9.2822189
		c-0.7353249-4.5130157-1.4947109-9.1667175-2.1753101-13.3322449l13.5045395,19.9154434l1.6367455-1.2400513l-0.2682953,9.0945435
		L31.7954845,101.2986603z"/>
</g>
</svg>
