<?xml version="1.0" encoding="utf-8"?>
<!-- Generator: Adobe Illustrator 22.0.1, SVG Export Plug-In . SVG Version: 6.00 Build 0)  -->
<svg version="1.1" id="Layer_1" xmlns="http://www.w3.org/2000/svg" xmlns:xlink="http://www.w3.org/1999/xlink" x="0px" y="0px"
	 viewBox="0 0 156 156" style="enable-background:new 0 0 156 156;" xml:space="preserve">
<style type="text/css">
	.st0{fill:#FFD9B2;}
	.st1{fill:#F7AC76;}
	.st2{fill:none;stroke:#3643C3;stroke-width:0.5;stroke-linecap:round;stroke-linejoin:round;stroke-miterlimit:10;}
	.st3{fill:#233764;}
	.st4{fill:none;stroke:#F7AC76;stroke-width:0.5;stroke-linecap:round;stroke-linejoin:round;stroke-miterlimit:10;}
	.st5{fill:#161718;}
	.st6{fill:#FFFFFF;}
	.st7{fill:#F06449;}
	.st8{fill:#BE412D;}
	.st9{fill:#FE8E60;}
	.st10{fill:#7D4C47;}
	.st11{fill:#4456D6;}
	.st12{fill:#203881;}
	.st13{fill:#6582FC;}
	.st14{fill:#DDA103;}
	.st15{fill:#FBC32E;}
	.st16{fill:none;stroke:#DDA103;stroke-width:0.5;stroke-miterlimit:10;}
	.st17{fill:#FBE6BB;}
	.st18{fill:none;stroke:#BE412D;stroke-width:0.5;stroke-linecap:round;stroke-linejoin:round;stroke-miterlimit:10;}
	.st19{fill:none;stroke:#F06449;stroke-width:0.5;stroke-linecap:round;stroke-linejoin:round;stroke-miterlimit:10;}
	.st20{fill:#F34B4B;}
	.st21{fill:#FC7070;}
	.st22{fill:none;stroke:#FFFFFF;stroke-miterlimit:10;}
	.st23{fill:#FC9F9F;}
	.st24{fill:#408A6F;}
	.st25{fill:#64B48D;}
	.st26{fill:none;stroke:#FBE6BB;stroke-width:0.5;stroke-linecap:round;stroke-linejoin:round;stroke-miterlimit:10;}
	.st27{fill:none;stroke:#F7AC76;stroke-width:0.25;stroke-linecap:round;stroke-linejoin:round;stroke-miterlimit:10;}
	.st28{fill:#A0665A;}
	.st29{fill:#6C3F44;}
	.st30{fill:none;stroke:#6C3F44;stroke-width:0.5;stroke-linecap:round;stroke-linejoin:round;stroke-miterlimit:10;}
	.st31{fill:none;stroke:#7D4C47;stroke-width:0.5;stroke-linecap:round;stroke-linejoin:round;stroke-miterlimit:10;}
	.st32{fill:none;stroke:#F34B4B;stroke-width:0.5;stroke-linecap:round;stroke-linejoin:round;stroke-miterlimit:10;}
	.st33{fill:none;stroke:#FC7070;stroke-width:0.5;stroke-linecap:round;stroke-linejoin:round;stroke-miterlimit:10;}
	.st34{fill:#EAE8F3;}
	.st35{fill:#40304A;}
	.st36{fill:none;stroke:#43334E;stroke-linecap:round;stroke-linejoin:round;stroke-miterlimit:10;}
	.st37{fill:#32775B;}
	.st38{fill:none;stroke:#233764;stroke-width:0.5;stroke-linecap:round;stroke-linejoin:round;stroke-miterlimit:10;}
	.st39{fill:none;stroke:#408A6F;stroke-width:0.5;stroke-linecap:round;stroke-linejoin:round;stroke-miterlimit:10;}
	.st40{fill:#3643C3;}
	.st41{opacity:0.56;fill:url(#SVGID_1_);}
	.st42{opacity:0.52;fill:#FBC32E;}
	.st43{opacity:0.56;fill:url(#SVGID_2_);}
	.st44{fill:none;stroke:#EAE8F3;stroke-width:0.5;stroke-linecap:round;stroke-linejoin:round;stroke-miterlimit:10;}
	.st45{fill:#FEFFFD;}
	.st46{opacity:0.35;fill:#32775B;}
	.st47{fill:#43334E;}
	.st48{fill:none;stroke:#EAE8F3;stroke-width:0.25;stroke-linecap:round;stroke-linejoin:round;stroke-miterlimit:10;}
	.st49{fill:none;stroke:#FBC32E;stroke-width:0.5;stroke-linecap:round;stroke-linejoin:round;stroke-miterlimit:10;}
	.st50{fill:none;stroke:#161718;stroke-width:0.5;stroke-linecap:round;stroke-linejoin:round;stroke-miterlimit:10;}
	.st51{fill:none;stroke:#40304A;stroke-linecap:round;stroke-linejoin:round;stroke-miterlimit:10;}
	.st52{opacity:0.33;fill:#FBC32E;}
	.st53{fill:#A6A3AE;}
	.st54{fill:#5B4B68;}
	.st55{fill:#776688;}
	.st56{fill:none;stroke:#FBC32E;stroke-width:0.5;stroke-miterlimit:10;}
	.st57{fill:none;stroke:#EAE8F3;stroke-linecap:round;stroke-linejoin:round;stroke-miterlimit:10;}
	.st58{fill:none;stroke:#203881;stroke-width:2;stroke-linecap:round;stroke-linejoin:round;stroke-miterlimit:10;}
	.st59{fill:none;stroke:#40304A;stroke-width:2;stroke-linecap:round;stroke-linejoin:round;stroke-miterlimit:10;}
	.st60{fill:#FFD8B7;}
	.st61{fill:#F4E4D4;}
	.st62{fill:none;stroke:#4456D6;stroke-width:0.5;stroke-linecap:round;stroke-linejoin:round;stroke-miterlimit:10;}
	.st63{fill:none;stroke:#DDA103;stroke-width:0.25;stroke-miterlimit:10;}
	.st64{fill:none;stroke:#FFFFFF;stroke-width:0.5;stroke-linecap:round;stroke-linejoin:round;stroke-miterlimit:10;}
	.st65{fill:none;stroke:#64B48D;stroke-width:0.5;stroke-linecap:round;stroke-linejoin:round;stroke-miterlimit:10;}
	.st66{fill:none;stroke:#64B48D;stroke-linecap:round;stroke-linejoin:round;stroke-miterlimit:10;}
	.st67{opacity:0.48;fill:#64B48D;}
	.st68{fill:none;stroke:#64B48D;stroke-width:0.25;stroke-linecap:round;stroke-linejoin:round;stroke-miterlimit:10;}
	.st69{fill:none;stroke:#F06449;stroke-width:2;stroke-linecap:round;stroke-linejoin:round;stroke-miterlimit:10;}
	.st70{opacity:0.92;fill:#64B48D;}
	.st71{opacity:0.57;fill:#408A6F;}
	.st72{opacity:0.36;fill:#408A6F;}
	.st73{fill:none;stroke:#BE412D;stroke-width:2;stroke-linecap:round;stroke-linejoin:round;stroke-miterlimit:10;}
	.st74{opacity:0.65;fill:none;stroke:#408A6F;stroke-width:0.25;stroke-linecap:round;stroke-linejoin:round;stroke-miterlimit:10;}
	.st75{opacity:0.67;fill:none;stroke:#64B48D;stroke-width:0.25;stroke-linecap:round;stroke-linejoin:round;stroke-miterlimit:10;}
	.st76{opacity:0.98;fill:#64B48D;}
	.st77{fill:none;stroke:#408A6F;stroke-width:0.25;stroke-linecap:round;stroke-linejoin:round;stroke-miterlimit:10;}
	.st78{fill:none;stroke:#FFD9B2;stroke-width:0.5;stroke-linecap:round;stroke-linejoin:round;}
	
		.st79{fill:none;stroke:#FFD9B2;stroke-width:0.5;stroke-linecap:round;stroke-linejoin:round;stroke-dasharray:4.0333505,4.0333505;}
	.st80{fill:#E68B4A;}
	.st81{opacity:0.62;fill:#64B48D;}
	.st82{fill:none;stroke:#FBC32E;stroke-width:0.25;stroke-miterlimit:10;}
	.st83{fill:none;stroke:#4456D6;stroke-linecap:round;stroke-linejoin:round;stroke-miterlimit:10;}
	.st84{fill:none;stroke:#E68B4A;stroke-width:0.5;stroke-linecap:round;stroke-linejoin:round;stroke-miterlimit:10;}
	.st85{fill:none;stroke:#203881;stroke-width:0.5;stroke-linecap:round;stroke-linejoin:round;stroke-miterlimit:10;}
	.st86{opacity:0.29;fill:#EAE8F3;}
	.st87{fill:none;stroke:#A6A3AE;stroke-width:0.5;stroke-linecap:round;stroke-linejoin:round;stroke-miterlimit:10;}
	.st88{opacity:0.74;fill:#FFFFFF;}
	.st89{opacity:0.19;fill:#FFFFFF;}
	.st90{fill:none;stroke:#40304A;stroke-width:0.25;stroke-linecap:round;stroke-linejoin:round;stroke-miterlimit:10;}
	.st91{fill:none;stroke:#F34B4B;stroke-width:2;stroke-linecap:round;stroke-linejoin:round;stroke-miterlimit:10;}
	.st92{fill:none;stroke:#43334E;stroke-width:0.5;stroke-linecap:round;stroke-linejoin:round;stroke-miterlimit:10;}
	.st93{fill:none;stroke:#6582FC;stroke-miterlimit:10;}
	.st94{opacity:0.47;fill:#A6A3AE;}
	.st95{opacity:0.43;fill:#FFFFFF;}
	.st96{fill:none;stroke:#FBE6BB;stroke-linecap:round;stroke-linejoin:round;stroke-miterlimit:10;}
	.st97{fill:none;stroke:#5B4B68;stroke-width:0.5;stroke-linecap:round;stroke-linejoin:round;stroke-miterlimit:10;}
	.st98{fill:none;stroke:#40304A;stroke-width:0.5;stroke-linecap:round;stroke-linejoin:round;stroke-miterlimit:10;}
	.st99{fill:none;stroke:#DDA103;stroke-linecap:round;stroke-linejoin:round;stroke-miterlimit:10;}
	.st100{fill:none;stroke:#FBC32E;stroke-linecap:round;stroke-linejoin:round;stroke-miterlimit:10;}
	.st101{fill:none;stroke:#32775B;stroke-width:0.5;stroke-linecap:round;stroke-linejoin:round;stroke-miterlimit:10;}
	.st102{opacity:0.4;fill:#FBE6BB;}
	.st103{fill:none;stroke:#FBC32E;stroke-width:0.25;stroke-linecap:round;stroke-linejoin:round;stroke-miterlimit:10;}
	.st104{fill:none;stroke:#4456D6;stroke-miterlimit:10;}
	.st105{opacity:0.61;fill:#64B48D;}
	.st106{opacity:0.9;fill:#64B48D;}
	.st107{opacity:0.76;fill:#64B48D;}
	.st108{fill:none;stroke:#5B4B68;stroke-width:0.5;stroke-miterlimit:10;}
	.st109{opacity:0.66;fill:#A6A3AE;}
	.st110{fill:none;stroke:#43334E;stroke-miterlimit:10;}
	.st111{opacity:0.52;fill:#6582FC;}
	.st112{fill:none;stroke:#DDA103;stroke-width:0.5;stroke-linecap:round;stroke-linejoin:round;stroke-miterlimit:10;}
	.st113{fill:#46724E;}
	.st114{fill:#FE8B2E;}
	.st115{fill:none;stroke:#7D4C47;stroke-width:2;stroke-linecap:round;stroke-linejoin:round;stroke-miterlimit:10;}
	.st116{opacity:0.4;fill:#EAE8F3;}
	.st117{fill:none;stroke:#EAE8F3;stroke-width:0.5;stroke-linecap:round;stroke-miterlimit:10;}
	.st118{fill:none;stroke:#4456D6;stroke-width:0.25;stroke-linecap:round;stroke-linejoin:round;stroke-miterlimit:10;}
	.st119{opacity:0.5;fill:#EAE8F3;}
	.st120{opacity:0.46;fill:#A6A3AE;}
	.st121{fill:#E0916E;}
	.st122{fill:none;stroke:#A0665A;stroke-linecap:round;stroke-linejoin:round;stroke-miterlimit:10;}
	.st123{opacity:0.46;fill:#BE412D;}
	.st124{fill:none;stroke:#203881;stroke-linecap:round;stroke-linejoin:round;stroke-miterlimit:10;}
	.st125{fill:#DBDBE1;}
	.st126{fill:none;stroke:#6582FC;stroke-width:0.5;stroke-linecap:round;stroke-linejoin:round;stroke-miterlimit:10;}
	.st127{opacity:0.53;fill:#A6A3AE;}
	.st128{fill:none;stroke:#DDA103;stroke-miterlimit:10;}
	.st129{opacity:0.2;fill:#FFFFFF;}
	.st130{fill:#B4A1BF;}
	.st131{opacity:0.5;fill:#6582FC;}
	.st132{opacity:0.6;fill:none;stroke:#FFFFFF;stroke-linecap:round;stroke-linejoin:round;stroke-miterlimit:10;}
	.st133{opacity:0.6;fill:none;stroke:#FFFFFF;stroke-width:2;stroke-linecap:round;stroke-linejoin:round;stroke-miterlimit:10;}
	.st134{opacity:0.54;fill:#A6A3AE;}
	.st135{fill:#161718;stroke:#000000;stroke-width:0.25;stroke-miterlimit:10;}
</style>
<g id="_x32_6">
	<path class="st20" d="M119.1000748,105.9912491c0,0-2.6690063,2.2249222-4.61586-1.7077255
		c-1.9468613-3.9326477,0.2837296-3.0822678,0.2837296-3.0822678"/>
	<path class="st20" d="M102.2801895,106.9206009c0,0,5.5847168,2.658371,6.9864502-1.4300308
		c1.4017334-4.0883942-3.2948837-6.4246216-3.5748291-6.4246216"/>
	<path class="st0" d="M87.2348251,81.3097458l-0.9049606,1.4787979l0.2133865,2.825119l-1.5008926,1.7657318l-0.1765594,0.2060242
		l-2.7221527,3.1856079l-1.9863968-2.1556396l-0.3458099-0.3678513l1.1477127-1.2065887l0.588562-0.7651215l0.00737-0.0147324
		l0.5665131-0.7357101l0.0294113-0.0367813l0.1251068-0.1765671l0.2059708-3.8919144
		c0.0147324-0.2354279,0.1986618-0.4267273,0.4193649-0.4488144c0.2060242-0.022049,0.3899536,0.0809631,0.4782333,0.2575226
		c0.022049,0.0294113,0.0367737,0.073555,0.0441437,0.1030121l0.2868881,1.2286301l2.5529556-2.0968094
		c0.3016281-0.2501221,0.7430801-0.1765671,0.9564209,0.1397858c0.0073624,0.0220947,0.0294113,0.044136,0.0367813,0.0588684
		C87.3598785,80.8683395,87.3525162,81.1037674,87.2348251,81.3097458z"/>
	<path class="st1" d="M85.0423584,87.3793945l-0.1765594,0.2060242l-2.7221527,3.1856079l-1.9863968-2.1556396l1.3904648-2.3395615
		l0.00737-0.0147324C81.5550842,86.2610931,83.4311447,86.8570175,85.0423584,87.3793945z"/>
	<path class="st0" d="M46.8072853,118.8900757c0,0-0.0588684,0.117691-0.1471519,0.3163452
		c-0.1397858,0.3089905-0.3678551,0.8092728-0.5959282,1.3095551c-0.389904,0.860817-0.7945824,1.7436829-0.8166313,1.7436829
		c-0.0073624,0-0.3089867,0.0294113-0.7504425,0.0956039c-0.2574844,0.0368195-0.5664711,0.0809631-0.8975525,0.1250992
		c-0.1839256,0.022049-0.3678551,0.0441437-0.5591507,0.073555c-1.1771698,0.1545181-2.3984375,0.3163528-2.3984375,0.3163528
		s-0.2869377-2.9281311-0.2501602-3.0752792c0.0294571-0.1471558,1.7583694-1.1550827,1.7583694-1.1550827l1.5818024,0.2795792
		l0.1692009-0.00737h0.4708672L46.8072853,118.8900757z"/>
	<path class="st1" d="M46.6601334,119.2064209c-0.1397858,0.3089905-0.3678551,0.8092728-0.5959282,1.3095551
		c-0.389904,0.860817-0.7945824,1.7436829-0.8166313,1.7436829c-0.0073624,0-0.3089867,0.0294113-0.7504425,0.0956039
		c-0.2574844,0.0368195-0.5664711,0.0809631-0.8975525,0.1250992l0.7724915-3.5682449L46.6601334,119.2064209z"/>
	<path class="st21" d="M41.901207,117.8053207l-2.327137-0.2606201c-0.7565308,0.3375092-1.5326614,2.5699615-1.5326614,2.5699615
		l0.5495796,0.1874619l-1.0620728,1.8744354c-0.4072304,0.7250519-0.6462021,1.5355148-0.7021751,2.3664703l-0.1658516,2.7380447
		c-0.0230904,0.3382416,0.2344742,0.6189041,0.5662384,0.6339874l0.7814522,0.0355988
		c0.353714,0.0173569,0.6840096-0.1531525,0.8656158-0.4513855l0.7850113-1.2533112l1.4055099-2.2285385l1.9250336-1.1108093
		c0.2627716-0.1632309,0.4191856-0.4347992,0.4519615-0.7274475c0.0139236-0.1243515,0.0058746-0.2511673-0.024086-0.3806076
		c-0.0859337-0.2911148-0.2963486-0.5295944-0.5792427-0.6502762l-0.6739159-0.2681351l-0.0138054-0.0087814l0.9230385-1.9567719
		l0.6725121,0.0161591l-0.7322159-0.5414963C42.7320976,118.0613708,42.3329926,117.8536758,41.901207,117.8053207z"/>
	<path class="st12" d="M39.0575829,120.4631348l-0.4659843-0.1608658l-1.062851,1.8762131
		c-0.4103813,0.7245026-0.6488419,1.5307922-0.6990662,2.3614655l-0.1689606,2.7434006
		c-0.0208893,0.3334961,0.2339821,0.6155624,0.5649338,0.6295624l0.0982971,0.0044174
		c-0.1285515-0.1164856-0.204998-0.2863693-0.1939812-0.4728317l0.1693039-2.7466583
		c0.0502243-0.8306732,0.2886772-1.6368866,0.6990585-2.3613892L39.0575829,120.4631348z"/>
	<path class="st12" d="M40.0793915,117.601181l-0.5040054-0.0564423c-0.7554741,0.3368378-1.5324821,2.5710068-1.5324821,2.5710068
		l0.5486946,0.1865234C38.5915985,120.302269,39.2961845,118.6559372,40.0793915,117.601181z"/>
	<path class="st0" d="M78.9225159,138.6222076c0,0-2.6561661,1.258194-2.807373,1.278244
		c-0.1444321,0.0203247-1.6803741-1.2696228-1.6803741-1.2696228l-0.2789459-1.5775299l-0.2167053-0.6046753l-0.0242844-0.0626678
		l-0.7912903-2.1418304l-0.0304413-0.0766296c0,0,0.0477066,0.0023041,0.1359634,0.0134125
		c0.6667862,0.0527039,3.5513611,0.2876434,3.5568619,0.3152161c0.0064926,0.0071564,0.1370621,0.2730103,0.3503265,0.6657867
		c0.0187759,0.0350494,0.0375977,0.0700989,0.0560837,0.111969l-0.0003281,0.0068207
		C77.8103256,136.4785156,78.9225159,138.6222076,78.9225159,138.6222076z"/>
	<path class="st1" d="M77.192337,135.27388l-0.0003281,0.0068207c0,0-1.9999924,0.6820374-3.2771759,1.1052551l-0.7912903-2.1418304
		c0.0350494-0.0188141,0.0704269-0.0444031,0.1055222-0.0632172c0.6667862,0.0527039,3.5513611,0.2876434,3.5568619,0.3152161
		c0.0064926,0.0071564,0.1370621,0.2730103,0.3503265,0.6657867C77.1550293,135.1969604,77.173851,135.2320099,77.192337,135.27388z
		"/>
	<path class="st21" d="M73.7310867,139.1494141l0.542366,2.2780151c0.5736313,0.5976563,2.9370193,0.5724182,2.9370193,0.5724182
		l-0.0096054-0.5805969l2.1232758,0.3650055c0.8200836,0.1378174,1.6635971,0.0883789,2.4644623-0.1401825l2.6325912-0.7706146
		c0.3260956-0.0927429,0.5030212-0.4300995,0.4049301-0.7473907l-0.2309799-0.7473755
		c-0.1033783-0.3387146-0.3756104-0.5918121-0.7177048-0.6617737l-1.4450302-0.3144989l-2.5727158-0.5683289l-1.6967697-1.4354858
		c-0.2425385-0.1920166-0.5510178-0.2472992-0.8374863-0.1790924c-0.121727,0.0289917-0.238327,0.079483-0.3499985,0.151474
		c-0.2448425,0.1793976-0.3980408,0.4580994-0.4158554,0.765152l-0.024231,0.7248993l-0.0035934,0.0159607l-2.1536865-0.2063141
		l-0.2124023-0.6382904l-0.2617264,0.8722687C73.6908112,138.280899,73.6304474,138.7267456,73.7310867,139.1494141z"/>
	<path class="st12" d="M77.194458,140.925705l0.00634,0.4929199l2.125206,0.3651428
		c0.8206329,0.1409607,1.6600494,0.0924683,2.4587021-0.1414185l2.6386871-0.7695007
		c0.3208847-0.0932159,0.5000458-0.4284973,0.401207-0.7446594l-0.0291138-0.0939941
		c-0.0661011,0.1603851-0.2000885,0.2898254-0.3792725,0.3425598l-2.6418686,0.7702789
		c-0.798645,0.2338715-1.6379852,0.2823486-2.4586258,0.1413879L77.194458,140.925705z"/>
	<path class="st12" d="M74.155571,140.9328156l0.1174698,0.4933624c0.5726395,0.5968781,2.9379425,0.5718994,2.9379425,0.5718994
		l-0.0101852-0.5794525C77.200798,141.4186249,75.4131546,141.3128204,74.155571,140.9328156z"/>
	<g>
		<path class="st0" d="M64.9757843,73.4299164l-0.6111069,4.9899902c-0.0328445,0.2682114-0.0085831,0.5433807,0.0762253,0.7991943
			c0.0630417,0.1772919,0.1498184,0.3440933,0.260643,0.4960327c0.0186615,0.0290527,0.0914154,0.0915146,0.1882095,0.1747513
			l-0.6471863,5.2845764l3.0028305,0.3677444l0.5217285-4.2601852c0.0328522-0.0138474,0.0741806-0.0221558,0.1152954-0.0305252
			c0.3936691-0.11689,0.7495956-0.3633423,0.9981232-0.7166977c0.4352875-0.6026535,0.7082062-1.3010712,0.7981262-2.0352783
			l0.3198166-2.6115112c0,0,0.2481155-1.2235489-0.9383621-1.9578934L64.9757843,73.4299164z"/>
	</g>
	<path class="st1" d="M64.677063,75.8539352l-0.2844009,2.322258c0.1755066-0.0603561,0.3071136-0.2209854,0.3310318-0.4162598
		l0.1746902-1.4264145C64.9222946,76.1382446,64.8328171,75.9548569,64.677063,75.8539352z"/>
	<path class="st3" d="M71.6302948,74.7177277c-0.0147247,0.0294571-0.0294113,0.0662308-0.0441437,0.1030121
		c-0.3457642,0.8166275-0.9122772,1.5670776-1.7142258,1.9349289c0.0294571-0.3089828-0.066185-0.6253357-0.1986084-0.9049149
		c-0.1103745-0.2575226-0.2943039-0.4782333-0.544426-0.6032867c-0.2427979-0.125061-0.515007-0.1692047-0.6842499-0.4046326
		c-0.125061-0.1765671-0.1544724-0.4046402-0.1692047-0.6253891c-0.044136,0.2427979-0.1471481,0.4855957-0.3237152,0.6548004
		c-0.1691971,0.1765594-0.4193649,0.2869339-0.6694794,0.2648468c-0.2427979-0.0146866-0.463501-0.1544724-0.6253891-0.3457642
		c-0.1544647-0.1912994-0.2501144-0.4193649-0.3016205-0.6621628c-0.2354355,0.4267273-0.5076447,0.8313599-0.8019485,1.2213135
		c-0.2574844,0.3457642-0.588562,0.654747-0.7945404,1.0373383c-0.1103745,0.2133408-0.1177368,0.5297318-0.1545181,0.7651215
		c-0.0809174,0.4929657-0.1618805,0.985878-0.2501602,1.4714355c-0.3237152-0.4708252-0.6547508-0.9049149-0.8607712-1.4493408
		c-0.125061-0.3310776-0.1839294-0.6694794-0.2354355-1.0226517c-0.051506-0.3825455-0.1618347-0.7577667-0.1986122-1.1477127
		c-0.0073662-0.1176987-0.0220947-0.2354355-0.0294571-0.3604965c-0.0294151-0.6694794,0.0220909-1.3463669,0.1692009-2.0084839
		c0.1030083-0.4782333,0.2795715-0.9785156,0.6842537-1.2433624c0.1103287-0.0736008,0.2353859-0.1177368,0.3604927-0.1324234
		c0.3016205-0.0147247,0.5664673,0.2059784,0.7872162,0.4046326c-0.1030045-0.2060165-0.0882797-0.4708633,0.051506-0.6621628
		c0.1324234-0.1912918,0.3825455-0.2942581,0.610611-0.2574768c0.2869415,0.0367737,0.5076447,0.2648468,0.7872238,0.3531265
		c0.2427979,0.0809174,0.5002823,0.0441437,0.7578049-0.022049c0.125061-0.0294571,0.2501221-0.0662308,0.3678589-0.0956421
		c0.3604965-0.0882874,0.7430344-0.1324234,1.1108932-0.0662384c0.8902283,0.1618805,1.2139435,1.1256638,2.0747223,1.3831482
		c0.2133865,0.0662308,0.4488144,0.1030121,0.6400681,0.2280731c0.2280655,0.1545105,0.3531723,0.4193573,0.4119949,0.6842041
		C71.9466476,73.7171631,71.8215866,74.2395401,71.6302948,74.7177277z"/>
	<path class="st1" d="M67.6893768,81.8916473l0.0750656-0.6129379c-0.0291138,0.1468506-1.5752869-0.5979309-1.7502747-0.7623749
		c-0.1004486-0.0393906-0.1735687,0.0979919-0.0848007,0.1593246
		C66.3649826,81.2289963,66.9447632,81.6410828,67.6893768,81.8916473z"/>
	<path class="st0" d="M64.9188614,76.1704178l-0.1745987,1.4257278c-0.0343323,0.2803268-0.2891617,0.4795532-0.5694885,0.4452209
		s-0.4795456-0.2891617-0.4452171-0.5694885l0.1746025-1.4257278c0.0171661-0.1401596,0.0894928-0.2595444,0.1923599-0.3403091
		c0.1032104-0.0803375,0.2369156-0.1216736,0.3770752-0.1045074C64.7539215,75.6356659,64.9531479,75.8904953,64.9188614,76.1704178
		z"/>
	<path class="st4" d="M67.9562759,77.7550354l0.271698,0.4361267c0.0710144,0.1139832,0.0349731,0.2640381-0.0800629,0.3333359
		l-0.3086395,0.1859207"/>
	<path class="st5" d="M67.3843155,80.1868744c-0.0311813-0.0078354-0.0623627-0.0156708-0.0969315-0.0278397
		c-0.2843933-0.1031342-0.4446487-0.3676453-0.5353088-0.6436234c-0.0358734-0.1007233-0.0592957-0.2039413-0.0758667-0.2982788
		c0.0004807-0.0039597-0.0029907-0.0084-0.0025024-0.0123596c0.0004807-0.0039597-0.0029907-0.0084-0.0025024-0.0123596
		c-0.0175476-0.0864258-0.0270691-0.1718597-0.0327377-0.2568283c-0.0010452-0.0242386-0.0025864-0.0445175-0.0036469-0.0686569
		c-0.0015335-0.0202713-0.0065384-0.0449905,0.0003281-0.0682602c0.0009689-0.0079117,0.0058975-0.0153503,0.0142975-0.0183334
		c0.0049286-0.007431,0.0127487-0.0064774,0.0172729-0.0098419c0.0246277-0.0050201,0.046936,0.0096664,0.0701904,0.0166321
		c0.015358,0.0057983,0.0341797,0.0161362,0.0494308,0.0220261c0.0420914,0.0172043,0.0840836,0.0344009,0.1261673,0.0516129
		c0.0495224,0.0221329,0.0989456,0.0442581,0.1488647,0.0623245c0.0574341,0.0231094,0.110817,0.0457153,0.164299,0.0683365
		c0.0568542,0.0270462,0.1103287,0.0496674,0.1676788,0.07267c0.0534821,0.0226135,0.1068649,0.0452271,0.1602478,0.0678329
		c0.0495148,0.0221329,0.0994263,0.0402985,0.1489563,0.0623398c0.0419769,0.0172958,0.0840759,0.0344009,0.1261673,0.0516129
		c0.0340729,0.0162277,0.0647736,0.0280228,0.0954666,0.0398178c0.0187302,0.0103226,0.0340805,0.0162201,0.0533829,0.0226059
		c0,0,0,0,0.0039597,0.0004807c0.0113907,0.0054169,0.0687408,0.0284119,0.1216431,0.0549774
		c0.0574341,0.0231094,0.110817,0.0457153,0.110817,0.0457153C68.2702179,79.5728607,67.9974518,80.3262482,67.3843155,80.1868744z"
		/>
	<path class="st6" d="M68.1031723,79.3637619l-0.0898819,0.2097778c-0.0398102,0.0954666-0.1538544,0.1416702-0.2493362,0.1019516
		l-1.0877457-0.4583588c0.0004807-0.0039597-0.0029907-0.0084-0.0025024-0.0123596
		c0.0004807-0.0039597-0.0029907-0.0084-0.0025024-0.0123596c-0.0175476-0.0864258-0.0270691-0.1718597-0.0327377-0.2568283
		c-0.0010452-0.0242386-0.0025864-0.0445175-0.0036469-0.0686569c-0.0015335-0.0202713-0.0065384-0.0449905,0.0003281-0.0682602
		c0.0009689-0.0079117,0.0058975-0.0153503,0.0142975-0.0183334c0.0049286-0.007431,0.0127487-0.0064774,0.0172729-0.0098419
		c0.0246277-0.0050201,0.046936,0.0096664,0.0701904,0.0166321c0.015358,0.0057983,0.0341797,0.0161362,0.0494308,0.0220261
		c0.0420914,0.0172043,0.0840836,0.0344009,0.1261673,0.0516129c0.0495224,0.0221329,0.0989456,0.0442581,0.1488647,0.0623245
		c0.0574341,0.0231094,0.110817,0.0457153,0.164299,0.0683365c0.0568542,0.0270462,0.1103287,0.0496674,0.1676788,0.07267
		c0.0534821,0.0226135,0.1068649,0.0452271,0.1602478,0.0678329c0.0495148,0.0221329,0.0994263,0.0402985,0.1489563,0.0623398
		c0.0419769,0.0172958,0.0840759,0.0344009,0.1261673,0.0516129c0.0340729,0.0162277,0.0647736,0.0280228,0.0954666,0.0398178
		c0.0187302,0.0103226,0.0340805,0.0162201,0.0533829,0.0226059c0,0,0,0,0.0039597,0.0004807
		C67.9929199,79.3142014,68.0502701,79.3371964,68.1031723,79.3637619z"/>
	<path class="st3" d="M66.7510757,79.5172882c0.0922623,0.2725372,0.2538986,0.5370255,0.5376358,0.6412048
		c0.0327377,0.011734,0.0655823,0.0223694,0.0968094,0.0284042c0.0684586-0.1900253-0.006485-0.4240646-0.1961365-0.5674286
		C67.0541,79.5180283,66.891716,79.4849167,66.7510757,79.5172882z"/>
	<path class="st1" d="M64.221405,76.1126251l-0.0499115,0.407547l0.3522263,0.2198792l0.0712357-0.5816803
		c0.0124817-0.1018829-0.0620117-0.1971741-0.1639023-0.2096481C64.3291702,75.9362488,64.2338791,76.0107346,64.221405,76.1126251z
		"/>
	<path class="st1" d="M64.4748535,77.1390991l-0.3548431-0.1985245l-0.0467911,0.3820496
		c-0.0124741,0.1018829,0.0620193,0.1971664,0.1639023,0.2096481c0.1018906,0.0124741,0.1971741-0.0620193,0.2096481-0.1639023
		L64.4748535,77.1390991z"/>
	<path class="st24" d="M84.2919617,88.6595306c-0.4487762,0.6106567-1.1477127,1.4640656-1.964386,2.3910751
		c-1.3831024,1.5670776-3.1194229,3.3548584-4.5761261,4.6276703c-0.8166351,0.713623-1.9938049,0.8166351-2.9281311,0.2574844
		c-1.9275665-1.1477127-5.0102158-3.0385056-5.5546799-3.6417999c-0.3236771-0.3457642-0.662117-0.6989365-0.9858398-1.0667953
		c-0.3678513-0.4119949-0.7283478-0.8460388-1.0152893-1.2948151c-0.9490509-1.4714279-1.4493332-3.4505081,0.3310852-4.5099335
		l0.1471481-0.0809631l0.2059784-0.125061l0.1912918-0.1103287c0.3384476-0.2060242,0.7209854-0.3163986,1.0962067-0.3458099
		c0.1471558-0.0147324,0.2869415-0.0147324,0.4340973,0c0.1250534,0.0147247,0.2501144,0.0294113,0.3752213,0.0662308
		c0.3678513,0.0882874,0.713623,0.2574844,1.0152435,0.5076447c0.2280655,0.1765671,0.4267273,0.3972702,0.5812454,0.662117
		c0,0,3.7668533,4.1714935,4.6717682,4.8336563c1.647995-1.5744476,3.1782913-2.5970535,4.5320282-4.0170212
		c0.198616-0.2059784,0.3825378-0.4193192,0.5738373-0.6400681C82.5188675,86.8643875,83.2251663,87.9164505,84.2919617,88.6595306z
		"/>
	<path class="st25" d="M83.0706482,88.7772675l-6.1669922,4.7873001c-0.4009476,0.3112411-0.9722748,0.2620621-1.311554-0.1154556
		c-1.5285645-1.700798-5.4479675-6.0664673-5.4479675-6.1138611l-0.3531265-0.6474304
		c0.1986618-0.4781876,0.5738831-0.8755035,0.9932404-1.1844864c0.0882874-0.0662384,0.1839294-0.125061,0.2795334-0.1692047
		c0.2280655,0.1765671,0.4267273,0.3972702,0.5812454,0.662117c0,0,3.7668533,4.1714935,4.6717682,4.8336563
		c1.647995-1.5744476,3.1782913-2.5970535,4.5320282-4.0170212L83.0706482,88.7772675z"/>
	<path class="st37" d="M82.3275757,91.0506058c-1.3831024,1.5670776-3.1194229,3.3548584-4.5761261,4.6276703
		c-0.8166351,0.713623-1.9938049,0.8166351-2.9281311,0.2574844c-1.9275665-1.1477127-5.0102158-3.0385056-5.5546799-3.6417999
		c-0.3236771-0.3457642-0.662117-0.6989365-0.9858398-1.0667953l0.1912994-0.0367737l1.2734146-1.7533722
		c0.4414597-0.6078415,1.3944321-0.4044037,1.549202,0.330719l0.6572952,3.1221542l3.5108795,2.3300171
		c0.3355637,0.222702,0.7739563,0.2143478,1.1007996-0.0209579L82.3275757,91.0506058z"/>
	<path class="st24" d="M71.1888885,85.4224167v0.0073166c-0.051506,0-0.3237228-0.0882797-0.3458099,0.0294571
		c0,0-0.0809174,0.4487762-0.198616,1.1992188c-0.1177368,0.6547928-0.2722549,1.5449829-0.4340897,2.5529099
		c-0.0956497,0.5812454-0.1912918,1.1918564-0.3089905,1.8172379c-0.1250992,0.7724915-0.2575226,1.5817566-0.3825836,2.3763428
		v0.0073624c-0.2280731,1.3242798-0.4414139,2.6191483-0.6253433,3.7079926
		c-0.1177368,0.6915741-0.1912918,1.1550751-0.2501602,1.4861526c-0.0073624,0.058876-0.022049,0.1176987-0.0294113,0.1692047
		c-0.0662384,0.4046326-0.1030121,0.6032867-0.1471558,0.860817c-3.3474884,0.9416885-6.6803017,1.0005646-9.8144531-0.7578049
		c-0.1324234-0.080925-0.2648468-0.1545181-0.389904-0.2354355c-0.1471519-0.0882874-0.2869415-0.1765671-0.4267273-0.2648468
		l0.2648468-4.995491l0.0809631-1.5818024l0.1397858-2.6044159v-0.044136l0.2059784-4.0391159l0.0662346-1.3610535
		l0.3310356-0.073555l0.4488182-0.1030121l4.9513474-1.1109314l0.1912918-0.0367813
		c-0.0367737,0.2207108-0.0073624,0.4193649,0.0441437,0.610611c0.3899002,1.2433624,2.6044159,1.4493866,2.9281311-0.0809174
		c0.0147247-0.051506,0.7062988,0.4046326,1.4935226,0.9343719v0.0073624
		c0.7357101,0.4929199,1.5449829,1.059433,1.9422531,1.3316422c0.1324692,0.0956497,0.2207489,0.1618423,0.2427979,0.1765671
		C71.1815186,85.4150467,71.1888885,85.4224167,71.1888885,85.4224167z"/>
	<path class="st37" d="M61.5105667,88.2513199l-3.1925316,10.2137833c-0.2859459-0.0514297-0.1964455-0.0353317-0.4823914-0.0867615
		l0.2648468-4.995491l0.0809631-1.5818024l0.1397858-2.6044159l0.8901863-0.3090286l1.7339401-1.0744781
		C61.2457848,87.6269608,61.6160049,87.9139862,61.5105667,88.2513199z"/>
	<path class="st25" d="M71.1888885,85.4224167v0.0073166c-0.051506,0-0.3237228-0.0882797-0.3458099,0.0294571
		c0,0-0.0809174,0.4487762-0.198616,1.1992188c-0.1177368,0.6547928-0.2722549,1.5449829-0.4340897,2.5529099
		c-0.0956497,0.5812454-0.1912918,1.1918564-0.3089905,1.8172379c-0.1250992,0.7724915-0.2575226,1.5817566-0.3825836,2.3763428
		v0.0073624c-0.2280731,1.3242798-0.4414139,2.6191483-0.6253433,3.7079926
		c-0.1177368,0.6915741-0.1912918,1.1550751-0.2501602,1.4861526c-0.0073624,0.058876-0.022049,0.1176987-0.0294113,0.1692047
		l-9.4024582-1.6921387l2.5972862-7.7661514l9.115284-4.0862045c0.1324692,0.0956497,0.2207489,0.1618423,0.2427979,0.1765671
		C71.1815186,85.4150467,71.1888885,85.4224167,71.1888885,85.4224167z"/>
	<path class="st11" d="M67.4403458,107.6766281l-0.7765732,2.0967636l-0.9396286,2.5160904l-2.3685875,6.3679199
		l-0.0077705,0.0232697l-0.4427032,1.1804047c-0.6057472,1.6152878-2.1744423,2.7024612-3.9139595,2.6791916l-11.7261543,0.031044
		l-3.0985222,0.0543671l0.2330093-4.869133l2.3839455-0.1630478l5.1952362-0.3650131l5.0090523-0.349472
		c0,0,0.2561417-0.9163513,0.6290703-2.2753525c0.2172737-0.7843475,0.4736023-1.7006989,0.7375183-2.6714172
		c0.0777321-0.2795563,0.1632385-0.5591125,0.2332001-0.8386688c0.0386772-0.1242752,0.0775414-0.256279,0.1086349-0.3882828
		c0.7610283-2.7568817,1.5298271-5.5680695,1.7472916-6.4067383c0.0233192-0.1398239,0.0464516-0.225235,0.0464516-0.2407379
		l0.8156281,0.4271088l2.1431618,1.1104965L67.4403458,107.6766281z"/>
	<path class="st12" d="M65.724144,112.2894821l-2.3685875,6.3679199l-14.9420929,0.2538605
		c-0.3750496,0.0063705-0.7310219-0.1636658-0.9610481-0.4599609c-0.1775284-0.2286682-0.4089508-0.5259018-0.669014-0.8578033
		l5.1952362-0.3650131l5.0090523-0.349472c0,0,0.2561417-0.9163513,0.6290703-2.2753525
		c0.2172737-0.7843475,0.4736023-1.7006989,0.7375183-2.6714172c0.0777321-0.2795563,0.1632385-0.5591125,0.2332001-0.8386688
		C60.9558754,111.3731308,64.7067871,112.0953369,65.724144,112.2894821z"/>
	<path class="st11" d="M77.8323669,134.6784821l-5.1132278,1.508255l-1.125618-3.7153931l-4.2156372-13.8314362l-7.813282-8.7182007
		l-0.838726-0.9343719l-1.2654533-1.4125595c-0.6327057-0.6621628-1.059433-1.4935226-1.2359962-2.3910751
		c-0.0882835-0.3972702-0.1103287-0.7945862-0.0956459-1.1992188c0.0588684-1.177124,1.4420166-4.0979385,1.4420166-4.0979385
		l0.1765633-0.978508l7.8942032,1.0667953v0.0073624l2.508812,0.6400681l-0.1839218,0.7430801l-0.4414597,1.7362747
		l0.1397858,0.2869415l5.2236023,10.7782364c0.2795792,0.5664749,0.5002823,1.1623993,0.6694794,1.7656937v0.0147247
		c0.0662384,0.2280731,0.1177444,0.4487762,0.1618805,0.6694794l0.8019104,3.6270676l2.5234909,11.366806l0.4635086,2.089447
		L77.8323669,134.6784821z"/>
	<path class="st13" d="M74.5225983,120.2415924l-4.2245178,3.8673248l-1.4600525-6.5620117l-0.6910706-0.7455292v-9.4664383
		l-0.7066116-2.4384537l-6.3525124-0.1941452c0,0-0.0231323-0.582428-0.0464516-1.3046341
		c0.0309067-0.0077744,0.0699615-0.0077744,0.1008644-0.0077744h6.5233345l5.226326,10.7788467
		c0.2794647,0.5669327,0.4969254,1.1570892,0.6677475,1.7628403v0.0155487
		c0.0621872,0.2251892,0.1166,0.4503784,0.1630554,0.6678391L74.5225983,120.2415924z"/>
	<polyline class="st2" points="65.724144,108.653595 70.6582947,116.8806381 74.5225983,134.8099976 	"/>
	<path class="st12" d="M58.1524582,100.0130005l-0.8118515,4.7896194l1.3824425,4.1852493l-1.263607-1.4133606
		c-0.6306725-0.6588516-1.0616875-1.4924011-1.2369614-2.3888016c-0.0831413-0.4001236-0.1117592-0.7976608-0.0923424-1.1997147
		c0.0569344-1.1788254,1.4409218-4.0967026,1.4409218-4.0967026l0.1771889-0.9818039l7.8915977,1.0709686l-0.0003281,0.0068207
		l2.5101929,0.6334763C68.1497116,100.6187515,61.8419838,101.4000702,58.1524582,100.0130005z"/>
	<line class="st2" x1="56.9868355" y1="116.8806381" x2="58.1723061" y2="117.8679733"/>
	<line class="st2" x1="67.3745651" y1="118.6374283" x2="68.2626419" y2="118.0721436"/>
	<g>
		<path class="st29" d="M67.6264343,106.6605377v9.8761139c0,0.7701721-0.5570297,1.3942261-1.2444534,1.3942261H52.3793144
			c-0.6874695,0-1.2444572-0.624054-1.2444572-1.3942261v-9.8761139c0-0.7682114,0.5569878-1.3942261,1.2444572-1.3942261
			h14.0026665C67.0694046,105.2663116,67.6264343,105.8923264,67.6264343,106.6605377z"/>
		<path class="st62" d="M58.6379433,105.5550919h-4.3606796v-0.6628647c0-0.9808273,0.7951164-1.7759399,1.7759399-1.7759399
			h0.8087997c0.9808235,0,1.7759399,0.7951126,1.7759399,1.7759399V105.5550919z"/>
		<rect x="53.7994957" y="104.852211" class="st10" width="0.9555367" height="0.6267706"/>
		<rect x="58.1601753" y="104.852211" class="st10" width="0.9555367" height="0.6267706"/>
		<path class="st10" d="M64.0248108,106.6594162v9.8760223c0,0.7734909-0.5593414,1.3940125-1.2454224,1.3940125h-14.001236
			c-0.6860809,0-1.2454453-0.6205215-1.2454453-1.3940125v-9.8760223c0-0.7691116,0.5593643-1.3940048,1.2454453-1.3940048
			h14.001236C63.4654694,105.2654114,64.0248108,105.8903046,64.0248108,106.6594162z"/>
		<path class="st28" d="M64.0248108,106.6594162v8.4863892l-2.0451241,0.2010269l-1.4420738-10.0814209h2.2417755
			C63.4654694,105.2654114,64.0248108,105.8903046,64.0248108,106.6594162z"/>
		<polygon class="st28" points="59.7248154,117.0292435 53.1349564,116.7539368 52.1866913,105.4970016 52.8989906,105.2654114 
			59.5937233,105.2654114 		"/>
		<path class="st28" d="M50.333847,114.7962189c0,0.0961227-1.9053078,0.1879044-2.8011398,0.2228699v-8.3596725
			c0-0.7691116,0.5593643-1.3940048,1.2454453-1.3940048h1.5906334
			C50.3644142,108.9667282,50.3119774,114.7131882,50.333847,114.7962189z"/>
		<path class="st29" d="M49.3838196,105.4774094c-0.0616684,1.2382126-0.8179207,2.2631454-1.8508224,2.569252v-1.1750183
			c0-0.7682114,0.5569916-1.3942337,1.2444572-1.3942337H49.3838196z"/>
		<path class="st29" d="M64.0245743,106.9091797v1.2698135c-1.3449402,0-2.4190903-1.178978-2.4931068-2.6640396h1.2486534
			C63.4675446,105.5149536,64.0245743,106.1409683,64.0245743,106.9091797z"/>
		<path class="st29" d="M49.5345383,117.9308777h-0.6045837c-0.6874695,0-1.2444572-0.624054-1.2444572-1.3942261v-0.9046478
			C48.7862701,115.8355408,49.3970451,116.7933731,49.5345383,117.9308777z"/>
		<path class="st29" d="M63.7983932,115.4972458l-0.009861,1.0394058c0,0.7701721-0.5570335,1.3942261-1.2444572,1.3942261
			h-1.255043C61.4547119,116.5504761,62.5204544,115.4972458,63.7983932,115.4972458z"/>
		<path class="st15" d="M64.0245743,106.6605377v1.2698135c-1.3449402,0-2.4448433-1.178978-2.5188637-2.6640396h1.2744102
			C63.4675446,105.2663116,64.0245743,105.8923264,64.0245743,106.6605377z"/>
		<path class="st15" d="M64.0245743,115.4860382v1.0506134c0,0.7701721-0.5570297,1.3942261-1.2444534,1.3942261h-1.255043
			C61.6907578,116.5504761,62.7466393,115.4860382,64.0245743,115.4860382z"/>
		<path class="st15" d="M49.4014053,105.2663116c-0.0616684,1.238205-0.8355064,2.2631454-1.8684082,2.569252v-1.1750259
			c0-0.7682114,0.5569916-1.3942261,1.2444572-1.3942261H49.4014053z"/>
		<path class="st15" d="M49.3820419,117.9308777h-0.6045876c-0.6874657,0-1.2444572-0.624054-1.2444572-1.3942261v-0.9558258
			C48.5042305,115.8691559,49.244545,116.7933731,49.3820419,117.9308777z"/>
		<path class="st17" d="M51.5850525,118.3011246L51.5850525,118.3011246c-0.3311424,0-0.5995865-0.2684479-0.5995865-0.5995865
			v-12.2058868c0-0.3311462,0.2684441-0.5995865,0.5995865-0.5995865l0,0c0.3311424,0,0.5995865,0.2684402,0.5995865,0.5995865
			v12.2058868C52.184639,118.0326767,51.9161949,118.3011246,51.5850525,118.3011246z"/>
		<path class="st17" d="M59.9364471,118.3011246L59.9364471,118.3011246c-0.3311424,0-0.5995865-0.2684479-0.5995865-0.5995865
			v-12.2058868c0-0.3311462,0.2684441-0.5995865,0.5995865-0.5995865l0,0c0.3311424,0,0.5995865,0.2684402,0.5995865,0.5995865
			v12.2058868C60.5360336,118.0326767,60.2675896,118.3011246,59.9364471,118.3011246z"/>
		<path class="st15" d="M57.3832855,103.4346085h-1.9828644c-0.1854095,0-0.3357086-0.1503067-0.3357124-0.3357086l0,0
			c0-0.1854095,0.1503029-0.3357162,0.3357124-0.3357162h1.9828644c0.1854057,0,0.3357086,0.1503067,0.3357086,0.3357162l0,0
			C57.7189941,103.2843018,57.5686913,103.4346085,57.3832855,103.4346085z"/>
		<g>
			<circle class="st35" cx="59.9045219" cy="115.9395752" r="0.2820539"/>
			<circle class="st35" cx="59.9045219" cy="113.0718918" r="0.2820539"/>
			<circle class="st35" cx="59.9045219" cy="110.2042084" r="0.2820539"/>
			<circle class="st35" cx="59.9045219" cy="107.3365173" r="0.2820539"/>
		</g>
		<g>
			<circle class="st35" cx="51.5850525" cy="115.9395752" r="0.2820539"/>
			<circle class="st35" cx="51.5850525" cy="113.0718918" r="0.2820539"/>
			<circle class="st35" cx="51.5850525" cy="110.2042084" r="0.2820539"/>
			<circle class="st35" cx="51.5850525" cy="107.3365173" r="0.2820539"/>
		</g>
	</g>
	<path class="st34" d="M57.7499313,98.9078827c3.3442688,1.0044708,6.6688232,1.5657349,10.3985367,1.7080078l0.3242493-0.9798126
		c-3.645462-0.2634659-7.1872025-0.8292389-10.6082306-1.7472229L57.7499313,98.9078827z"/>
	<line class="st62" x1="67.5224609" y1="103.1013031" x2="67.032341" y2="102.1260452"/>
	<path class="st0" d="M52.8560333,96.8628616l1.3220406,3.256813l0.1884308,1.853569l0.0943756,0.9268265l-0.0009232,0.7135849
		c0.0011063,0.1842422,0.118679,0.3427658,0.2942276,0.3941193l0.4065323,0.1208267l0.0566559,0.256218
		c0.0131836,0.0829697,0.0592575,0.1579056,0.1168518,0.2167664c0.0701103,0.0654068,0.1663017,0.1081848,0.2682495,0.1160202
		c0.2097168,0.0076065,0.3906937-0.1376648,0.4281807-0.3379898l0.0404243-0.1908646l0.0074844,0.4995117
		c0.0084724,0.2213745,0.1850243,0.4030685,0.4085846,0.4084625l0.1478577,0.001915
		c0.1922188,0.0047226,0.3653297-0.1194,0.4145012-0.3088226l0.02314-0.0859451l0.0211105,0.3895264
		c0.0090904,0.2169571,0.191452,0.3906479,0.4107437,0.39534l0.1659698,0.0004044
		c0.2330322,0.0024567,0.4212036-0.1865082,0.423027-0.4151459l0.0190659-1.8597794l0.0003357-0.1391068
		c-0.0003395-0.2155151-0.036396-0.432457-0.1059532-0.6369324c-0.0293503-0.0946198-0.0688896-0.1819305-0.1126976-0.2699432
		l-0.9390755-1.7662354l-0.4952698-1.5449905l-0.3582077-1.1228943L52.8560333,96.8628616z"/>
	<polygon class="st1" points="52.8560333,96.8628616 54.1780739,100.1196747 54.3665047,101.9732437 54.6076851,99.7190933 
		56.4599037,98.8570099 56.101696,97.7341156 	"/>
	<path class="st24" d="M61.6687355,86.6436768c-0.0662346,0.3899536-0.2280731,0.7651291-0.4782333,1.0962143l-1.9496193,2.6412354
		l-0.1839294,0.2501144l-0.8754997,1.1698074l-0.7504463,1.0152893l-1.0815239,1.4493332l0.0147285,0.1765671l0.4267273,3.6417999
		l0.0147285,0.1324234v0.0073624l0.022049,0.1839294l0.0441437,0.3237152l-3.9140091,1.184494l-1.3169136-6.4154129
		c-0.1545181-0.7798615,0.022049-1.6038513,0.4855499-2.2512894c1.037384-1.4199219,2.8251648-3.6638412,2.8251648-3.6638412
		l2.1335487-2.8840332c0.4340897-0.5811996,1.0667953-0.9270096,1.7363205-1.0152969
		c0.0294113-0.0073166,0.0661888,0,0.1029663-0.0073166c0.5959244-0.051506,1.2139473,0.1029663,1.7436829,0.4855499
		c0.0146866,0.0147324,0.0294151,0.0367813,0.0514603,0.051506c0.0368233,0.0294113,0.0809631,0.0661926,0.1177406,0.1030121
		C61.5142174,84.914772,61.8011551,85.7975922,61.6687355,86.6436768z"/>
	<path class="st25" d="M59.2408829,90.3811264l-0.1839294,0.2501144l-0.8754997,1.1698074l-0.7504463,1.0152893
		l-1.0815239,1.4493332l0.0147285,0.1765671l0.4267273,3.6417999c-1.6553574,0.3604889-3.1562424,0.6915741-3.1562424,0.6915741
		l-1.1329842-5.3192062L59.2408829,90.3811264z"/>
	<line class="st39" x1="56.348175" y1="94.2652283" x2="55.0092506" y2="93.63974"/>
	<line class="st4" x1="57.0711746" y1="104.7053223" x2="57.1322517" y2="103.002182"/>
	<line class="st4" x1="56.0717316" y1="104.2805099" x2="56.2635841" y2="103.1156769"/>
	<line class="st4" x1="55.1617088" y1="104.1278305" x2="55.1825867" y2="103.3882065"/>
	<path class="st5" d="M67.2380981,71.0759735c0.0073242,0.2207031-0.0220947,0.4340515-0.0882797,0.6474304
		c-0.1692429,0.5149689-0.6106567,0.9637909-1.1477127,1.0226135c-0.2427979,0.0294571-0.4855957-0.0146866-0.7283936-0.0588226
		c0.1766052,0.191246,0.1471481,0.5002747,0.044136,0.7357101c-0.1839294,0.4340515-0.5591049,0.7724915-0.9784698,0.9711075
		c-0.4046745,0.1912918-0.860817,0.2575226-1.3095894,0.2501602c-0.0294151-0.6694794,0.0220909-1.3463669,0.1692009-2.0084839
		c0.1030083-0.4782333,0.2795715-0.9785156,0.6842537-1.2433624c0.1103287-0.0736008,0.2353859-0.1177368,0.3604927-0.1324234
		c0.3016205-0.0147247,0.5664673,0.2059784,0.7872162,0.4046326c-0.1030045-0.2060165-0.0882797-0.4708633,0.051506-0.6621628
		c0.1324234-0.1912918,0.3825455-0.2942581,0.610611-0.2574768c0.2869415,0.0367737,0.5076447,0.2648468,0.7872238,0.3531265
		C66.7230911,71.1789398,66.9805756,71.1421661,67.2380981,71.0759735z"/>
	<line class="st4" x1="86.3298645" y1="82.7885437" x2="85.1924438" y2="83.7773972"/>
	<path class="st0" d="M107.8249817,131.0374146c0,0,0,0,0,0.0062256c0.0062256,0.0310974,0.02491,0.1555328,0.0435562,0.3359222
		c0.0497742,0.5474701,0.1368866,1.5677643,0.1368866,1.6424103c0.0248642,0.3172913,0.049736,0.6594391-0.0808792,0.9518585
		c-0.0186844,0.0684204-0.0560074,0.1368561-0.1119766,0.1804047c-0.0622406,0.0559998-0.1555328,0.0808716-0.2488632,0.0995636
		c-0.0186844,0.0061798-0.0497818,0.0124054-0.0746536,0.0124054l-0.130661,1.2256012l-0.4665909-0.3421631l-2.3018494,3.7886963
		l-0.0435104-1.6361847c-0.2675476,0.4603577-0.5847931,0.9020844-0.9891891,1.250473
		c-0.4043884,0.3608398-0.8896255,0.6469879-1.4059982,0.8398438c-0.3421555,0.1120148-0.7029953,0.1804352-1.0576096,0.1368866
		c0.3981705-0.3359375,0.7403259-0.7403259,1.0016403-1.2006836c0.1119766-0.2115479,0.1990509-0.4479523,0.3234787-0.6532288
		c0.1555328-0.2675323,0.2799606-0.5599213,0.3919373-0.8398743c0.2488632-0.5847931,0.4106216-1.194458,0.6221237-1.7854767
		c0.2612762-0.6967773,0.5972443-1.3624573,0.8709793-2.0592194c0.0435562-0.1057587,0.0871048-0.2239532,0.1244354-0.3297119
		c0-0.0062256,0-0.0062256,0-0.0124512v-0.149292l0.0061874-2.4884796l0.0062256-2.5818176h3.7576294l-0.1493454,1.4371033
		L107.8249817,131.0374146z"/>
	<path class="st1" d="M107.8249817,131.0436401c0.0062256,0.0310974,0.02491,0.1555328,0.0435562,0.3359222l-3.4403,1.1198578
		l0.0061874-2.4884796c1.5117798-0.5225983,3.5958633-1.1447144,3.5958633-1.1447144h0.0186462l-0.2239532,2.1711884
		C107.8249817,131.0374146,107.8249817,131.0374146,107.8249817,131.0436401z"/>
	<path class="st5" d="M107.7691498,135.34758c-0.2243271,1.9327087-0.3334351,4.096817-0.4493561,5.9509735
		c-0.2288666-0.0205383-0.6968613,0.0205231-0.9257278,0c0.0579224-2.1272888,0.0694351-4.3660431-0.0844727-6.4885559"/>
	<path class="st5" d="M105.2801361,135.2875671c0.1963425-0.2057037,0.4227066-0.3826904,0.6696777-0.5236359
		c0.1348343-0.0769501,0.2850876-0.1449585,0.4394836-0.1287384c0.2196732,0.023056,0.3912277,0.2167664,0.4559631,0.427948
		c0.0925217,0.3018188,0.0075684,0.6326599-0.1383057,0.9126129c-0.1458664,0.279953-0.3495789,0.525177-0.5167084,0.792984
		c-0.2461319,0.3943939-0.4206543,0.8263397-0.5318069,1.2722626c-0.120491,0.4834137-0.3075562,0.9463654-0.4127731,1.4368286
		c-0.1109314,0.5171051-0.2134552,1.0927887-0.6309738,1.4174194c-0.2538681,0.1973877-0.5833893,0.2646484-0.9019394,0.30867
		c-0.9985657,0.1380005-2.0376816,0.1178436-3.0358582-0.0136871c-0.1771927-0.0233612-0.3669739-0.0571442-0.4925919-0.1842804
		c-0.209343-0.2118683-0.1305771-0.5886993,0.076973-0.8023071c0.20755-0.213623,0.5023346-0.3119965,0.7768097-0.4276276
		c0.9765244-0.411377,1.802597-1.1138306,2.5413132-1.8735199c0.7387238-0.7596741,1.4071808-1.5868378,2.1704559-2.3218384"/>
	<path class="st20" d="M101.3289185,139.2169342c-0.0161133,0.009552-0.0323563,0.0189056-0.0487442,0.0280609
		c-0.3861847,0.215683-0.9142838,0.3807831-1.1510773,0.778717c-0.148735,0.249939-0.3641281,0.7634735,0.0523224,0.8695679
		c0.9204407,0.2343292,1.8937454,0.2584076,2.8246536,0.0698853c0.2957153-0.0598907,0.6020203-0.1493073,0.8133392-0.3646698
		c0.1649399-0.1681061,0.2536392-0.3945618,0.3381653-0.6143646c0.192688-0.5010986,0.385376-1.002182,0.578064-1.5032654
		c0.1939926-0.5045013,0.3422852-1.0032196,0.5915527-1.4868774c0.1271439-0.2467041,0.2611084-0.4940948,0.4506378-0.6968384
		c0.3582458-0.3832245,0.8767624-0.5687714,1.3827667-0.7071228c0.2160416-0.0590668,0.436615-0.1131439,0.6320496-0.2225342
		c0.7748642-0.4337463,0.4723587-1.6699219,0.2625961-2.3484497c-0.098732-0.3193817-0.6661224-0.1836243-0.9184647-0.161438
		c-0.3880157,0.0341187-0.7734833,0.1048431-1.144989,0.2229004c-0.8228149,0.2614746-1.4942093,0.7342377-1.9695663,1.454071
		c-0.466423,0.7063141-0.7425919,1.5108337-1.0551529,2.2913666c-0.189064,0.4721375-0.3940964,0.9399109-0.6608047,1.3741302
		C102.0587921,138.6029816,101.7386322,138.973938,101.3289185,139.2169342z"/>
	<path class="st5" d="M107.664917,136.0287476c0.224617-0.4274597,0.4261856-0.8670349,0.6035233-1.3161774
		c-0.3087845-0.0088043-0.6207047-0.0173492-0.9236374,0.0431519c-0.5406342,0.1079865-1.0226059,0.434494-1.3812103,0.8532562
		c-0.3585968,0.4187469-0.6016388,0.9257965-0.7763672,1.4487c-0.1956177,0.585434-0.3120499,1.2011414-0.5872955,1.7536316
		c0.2310257-0.0691986,0.3909149-0.2712402,0.4840698-0.4936829c0.1433945-0.3424225,0.2501678-0.6994019,0.397171-1.0402832
		s0.3393402-0.6710815,0.621521-0.9122925c0.1342392-0.1147614,0.3202438-0.2108917,0.4817352-0.139389
		c0.1044006,0.0462189,0.1699524,0.1526184,0.2065048,0.260788c0.0365448,0.1081543,0.0505524,0.2229614,0.0875778,0.3309479"/>
	<path class="st60" d="M107.628624,86.1856689c0.0221481,0.059166,3.7646561,3.3405991,4.5066833,3.2222672
		c0.7396164-0.1158829,3.6340408-2.2065277,3.7326279-2.302681c0.0960693-0.0986099,0.8209991-1.3091202,0.8209991-1.3091202
		l-0.1307373-0.579361l-0.3377838-1.4792328l-1.3953323-0.2218933h-6.7774124c0,0-0.0443039,0.2712021-0.1059341,0.6410141
		c-0.0641632,0.3895187-0.1455383,0.8899994-0.2121124,1.2943268
		C107.6679916,85.8553009,107.6211624,86.1659393,107.628624,86.1856689z"/>
	<path class="st21" d="M118.0276489,86.8340988c-0.1093597,0.2376556-0.2494507,0.5069427-0.4105682,0.7958298
		c-0.5884094,1.0545731-1.4531326,2.3656311-2.099144,3.3132401c-0.5055237,0.7415848-0.8767929,1.2605896-0.8767929,1.2605896
		l-1.1421814-3.5467529l3.5784912-4.9270935C117.0774536,83.7299118,118.8491745,85.0499878,118.0276489,86.8340988z"/>
	<path class="st20" d="M117.611618,87.6299286c-0.5884094,1.0545731-1.453125,2.3656311-2.099144,3.3132401
		c-0.1132431,0.0210876-0.2070389,0.02034-0.2739716-0.0086594c-0.5035782-0.2199631-0.9997559-2.8812485-0.9997559-2.8812485
		l2.4653854-2.510994c0.2814484-0.2866516,0.7797089-0.0988541,0.7878647,0.2964935
		C117.5028458,86.3645248,117.5340424,87.0123291,117.611618,87.6299286z"/>
	<path class="st60" d="M108.5722809,76.6190948c-0.0251999,0.2402878,0.1556168,0.4550934,0.4008102,0.4808121l0.1642609,0.0172272
		l-0.1026154,0.9783249c-0.0936127,0.8925095,0.5267792,1.7136459,1.4367371,1.9008102l0.3712387,0.0761108l-0.3250656,3.0992508
		l4.1364441,0.4338608l0.2037735-3.6449356l0.8203278-2.5738297c0.1858597-0.7564087,0.1515808-1.3747787,0.0173187-1.8672943
		c-0.3107605-1.1257858-1.1523361-1.6106949-1.1523361-1.6106949l-5.1353531-0.0800171l-0.2180099,2.3866272l-0.215065,0.0171127
		C108.7619324,76.2522812,108.5938797,76.4131241,108.5722809,76.6190948z"/>
	<path class="st1" d="M110.7358017,77.8071823l-0.1359558-0.0142593c-0.1704178-0.0178757-0.2940826-0.170517-0.276207-0.3409348
		l0.1327591-1.2657166c0.0178757-0.1704254,0.170517-0.2940826,0.3409348-0.276207l0.1359558,0.0142593
		c0.1704178,0.0178757,0.2940826,0.170517,0.276207,0.3409348l-0.1327591,1.2657242
		C111.0588608,77.7014008,110.9062195,77.825058,110.7358017,77.8071823z"/>
	<path class="st3" d="M116.1480331,78.707901c-0.3620377,0.5031967-0.6507645,0.8178558-0.6507645,0.8178558
		s-1.4039993-0.0520859-2.7823944-0.291832c-0.4616165-0.0781479-0.8291931-0.3724213-1.1123123-0.7351532
		c-0.4153442-0.5193253-0.6623001-1.1697083-0.7602692-1.4832535c-0.0411911-0.1172867-0.0579529-0.1844864-0.0579605-0.1845245
		c-0.0036469-0.0146027-0.1942749-0.1026154-0.224205-0.1186447c-0.1176529-0.0630188-0.2601089-0.0856476-0.3886566-0.1208038
		c-0.0318222-0.0087051-0.0653381-0.0183945-0.0879745-0.0423965c-0.0296478-0.0314407-0.0329514-0.0787354-0.0342331-0.1219406
		c-0.0204849-0.6907578,0.057373-1.3843689,0.2305069-2.0533981c-0.1234283,0.2741318-0.2468491,0.5482559-0.3702698,0.8223877
		c-0.3218918-0.0677185-0.6425171-0.1415024-0.9616318-0.2213058c0.0627899-0.6729584,0.2739487-1.3271179,0.5457382-1.9413376
		c0.260437-0.5885391,0.5737076-1.1736526,1.0444412-1.6224213c0.1123276-0.107132,0.2417068-0.2065582,0.3757401-0.2936249
		c0.5419464-0.3475571,1.2183304-0.5026093,1.8122253-0.2678223c0.2396469,0.0964966,0.475296,0.1747131,0.692337,0.3164291
		c0.2341309,0.1494598,0.4462433,0.3382111,0.7023163,0.4483337c0.5678787,0.2558289,1.2600784,0.1202621,1.793335,0.4794998
		c0.0392914,0.0219803,0.0721207,0.049202,0.1049805,0.0764236c0.103714,0.0881882,0.1808548,0.2033615,0.2715912,0.302063
		c0.1242142,0.1200714,0.2697601,0.2067032,0.3939362,0.326767c0.0913544,0.0928497,0.1743851,0.2086029,0.2025757,0.3364639
		c0.0356827,0.1702423,0.0982437,0.2541199,0.2017059,0.4017792
		C118.2853546,75.2270432,117.0054398,77.5073166,116.1480331,78.707901z"/>
	<path class="st0" d="M116.6155319,136.1201477c-0.0124512,0.5785675-0.0062256,1.157135-0.0435562,1.7419281
		c0,0.0310974,0,0.0559692-0.012413,0.0871124c-0.0933304,0.2550507-0.5661469,0.0995178-0.7403259,0.0684204
		c-0.3235092-0.0559998-0.6408005-0.1182098-0.9580841-0.1804352c-0.0808792-0.0124207-0.1679459-0.0248718-0.2488251-0.0435181
		l-1.9596939,0.2736969l0.037323-0.2736969c-0.21772,0.1430817-0.4043884,0.3172455-0.5972443,0.4852295
		c-0.1555328,0.1182098-0.3918991,0.3172913-0.6034393,0.2239532c-0.0871048-0.0497437-0.130661-0.149292-0.0995178-0.2364044
		c0.0186386-0.0435486,0.037323-0.074646,0.0684204-0.111969c0.0808792-0.1119843,0.1368484-0.2426453,0.1928558-0.3670349
		c0.3297043-0.6967773,0.6905441-1.399765,0.9953766-2.1089935c0.0186844-0.0435486,0.0435486-0.0871124,0.0560074-0.130661
		c0.143074-0.3732605,0.2550507-0.7527466,0.3421555-1.1509094c0.0310974-0.1244202,0.0497818-0.24263,0.0746536-0.3670654
		l0.130661-1.0886993l0.0995178-0.8523102l-0.4043503-2.0405273l-0.3422012-1.735733h3.3283615l0.0310974,0.3857117
		l0.0062332,0.0870972l0.1866226,2.3391724l0.031105,0.3732605l0.0186768,0.5723724
		c0.0373306,0.2239532,0.0559692,0.4416809,0.0870667,0.6594543
		C116.4102249,133.868042,116.6466293,134.9629822,116.6155319,136.1201477z"/>
	<path class="st1" d="M113.2498856,132.9411011l0.0995178-0.8523102l-0.4043503-2.0405273
		c1.2504272-0.5599213,2.9923935-1.2566986,2.9923935-1.2566986s0.012413,0,0.0310974-0.0062256l0.1866226,2.3391724
		C115.8814392,131.3298187,114.4132462,132.2319031,113.2498856,132.9411011z"/>
	<path class="st11" d="M116.7683334,107.2573013l-0.0233154,0.5979309c0,0,0,0-0.0077744,0l-0.1785965,4.0381927
		l0.0542221,19.1270218l-0.4191895,0.0699005l-2.38414,0.3494263l-1.1415405,0.1708679l-1.8327942-18.5834045l-2.4150391,18.3193512
		l-4.4497528,0.2640533v-13.3803482c0,0,0.1552734-4.8535843,0.5513382-9.513031
		c0.0542221-0.6678925,0.1164093-1.3357315,0.1863708-1.9958038c0.1008606-1.0406265,0.225235-2.0501633,0.357193-2.9742889
		c0.131958-0.9551697,0.2796478-1.8172073,0.4426956-2.5471878c0.0621872-0.2717819,0.1241837-0.5202866,0.1863708-0.7532501
		c0.0775452-0.2795563,0.1708221-0.5280685,0.248558-0.7455292l1.7859726-0.1863708l7.1988525-0.7532501l0.7223511,1.8792953
		C116.985611,102.6288986,117.3818588,105.0052185,116.7683334,107.2573013z"/>
	<path class="st12" d="M116.7683334,107.2573013l-0.0233154,0.5979309c0,0,0,0-0.0077744,0
		c-0.3105545,0.0388184-0.605751-0.0077744-0.8698578-0.1708298c-2.1278-1.3124084-11.1592636-0.962944-11.1592636-0.962944
		c0.1008606-1.0406265,0.225235-2.0501633,0.357193-2.9742889c0.131958-0.9551697,0.2796478-1.8172073,0.4426956-2.5471878
		c0.0621872-0.2717819,0.1241837-0.5202866,0.1863708-0.7532501c0.0775452-0.2795563,0.1708221-0.5280685,0.248558-0.7455292
		l1.7859726-0.1863708l7.1988525-0.7532501l0.7223511,1.8792953
		C116.985611,102.6288986,117.3818588,105.0052185,116.7683334,107.2573013z"/>
	<path class="st13" d="M104.6117325,107.6928787c-0.0315475,0.3417664-0.0626831,0.6841125-0.0909882,1.0258789
		c-0.3963318,4.6607666-0.5500946,9.5108109-0.5500946,9.5108109v11.9476318
		c1.2657089-0.0295563,2.2476044-0.0414124,2.3362885,0.0177155c0.2009888,0,1.4685898-14.1338196,2.192131-22.502037H104.6117325z"
		/>
	<path class="st12" d="M116.7699661,107.2578659l-0.2129211,4.6370773l0.059166,19.1280365l-0.4199524,0.0650482
		l-0.3253021-23.4043198l0.354866-3.1761703l-1.9873199-4.5069733l-8.5466919,0.4495239
		c0.0828171-0.2838974,0.1715088-0.5323334,0.2543259-0.7452545l1.7803192-0.1892776l7.2040558-0.7570572l0.721611,1.8808594
		C116.9829178,102.6266785,117.3791885,105.0043869,116.7699661,107.2578659z"/>
	<path class="st21" d="M119.1016846,105.9918976h-5.4931412l-1.0041122-4.7917252l0.2510071,4.8434143l-8.623642,0.716156
		l-1.9491425,0.1624527c0.9745483-3.3667603,1.9639282-11.3111496,2.584137-16.9741364c0-0.0073471,0-0.0073471,0-0.01474
		c0.0590363-0.5463562,0.1181107-1.0779724,0.1697998-1.5800247c0.2879562-2.7613297,0.4651489-4.6736145,0.4651489-4.6736145
		l2.5472336-0.1624069c2.318306,4.2084579,4.9910431,0.2805634,4.9910431,0.2140961
		c0-0.0442963,1.3659286,0.1624527,2.42173,0.3322525c0.6718597,0.1107712,1.2256012,0.1993637,1.2256012,0.1993637
		c1.4249649,1.4766541,0.2362671,4.7474289-1.1222229,8.4242783
		C114.1991959,96.3641052,119.1016846,105.9918976,119.1016846,105.9918976z"/>
	<path class="st20" d="M119.1016846,105.9918976h-1.0484085c-6.3643646-8.7491837-2.8130188-15.0544662-2.8130188-15.0544662
		c-3.7654877,0.0516891-7.8041077-2.7244186-7.8041077-2.7244186l8.0255966-4.1493912
		c0.6718597,0.1107712,1.2256012,0.1993637,1.2256012,0.1993637c1.4249649,1.4766541,0.2362671,4.7474289-1.1222229,8.4242783
		C114.1991959,96.3641052,119.1016846,105.9918976,119.1016846,105.9918976z"/>
	<path class="st20" d="M108.4495773,86.7625809c0,0-1.7192307,2.0513611-3.5827866,3.1707382
		c0.0590363-0.5463562,0.1181107-1.0779724,0.1697998-1.5800247L108.4495773,86.7625809z"/>
	<path class="st5" d="M111.2027588,139.1912079c0.0097046,0.0820618,0.025589,0.1632385,0.0458908,0.2417908
		c0.0705948,0.2726898,0.2038498,0.5259552,0.4156418,0.7306976c0.4482956,0.4332886,1.1189728,0.3212128,1.6890488,0.3212128
		h1.100441c0.292099,0.0317688,0.5886078,0.0467682,0.8789444,0.0035248
		c0.0273514-0.0035248,0.0547104-0.0079498,0.0820694-0.0132446c0.3150406-0.0591278,0.6239014-0.2038422,0.8304062-0.450058
		c0.46418-0.555069,0.3768082-1.3845825,0.3459244-2.0526276c-0.0291214-0.6539001-0.1006012-1.3051758-0.2126694-1.9493866
		c-0.0353012-0.2038269-0.0750122-0.4067993-0.1182556-0.6088867c-0.0997162-0.4641876-0.2497406-0.9663086-0.6450882-1.2283936
		c-0.4465256-0.296524-1.0722046-0.1729889-1.5010834,0.1500092c-0.4279938,0.3220978-0.7042084,0.8021545-0.9689484,1.2680969
		c-0.293869,0.5197906-0.5886078,1.038681-0.8824692,1.5575867c-0.1659088,0.2929535-0.334465,0.5894775-0.5674286,0.8330383
		c-0.1156082,0.1209106-0.2462158,0.2285767-0.3494644,0.3609467c-0.012352,0.0158691-0.024704,0.0326385-0.0353012,0.0493927
		C111.155983,138.6396637,111.1683426,138.915863,111.2027588,139.1912079z"/>
	<polyline class="st5" points="115.2226639,140.3862762 115.0023575,141.4768372 114.1376801,141.4768372 113.9173737,139.3289337 	
		"/>
	<path class="st20" d="M111.3104172,138.3917084c0.2232666-0.0290985,0.4465332-0.1676636,0.5956726-0.3044434
		c0.2656174-0.2444458,0.4659424-0.5506592,0.6415558-0.8630524c0.2294464-0.4068146,0.425354-0.8357086,0.7086258-1.2054596
		c0.2479706-0.3229675,0.5621338-0.5983124,0.927475-0.7774506c0.306221-0.1500244,0.7359772-0.2823944,1.0810318-0.212677
		c0.2806244,0.0573578,0.5691833,0.267395,0.7580338,0.477417c0.1376724,0.1535492,0.2497406,0.3273926,0.3556442,0.5038757
		c-0.0353012-0.2038269-0.0750122-0.4067993-0.1182556-0.6088867c-0.0997162-0.4641876-0.2497406-0.9663086-0.6450882-1.2283936
		c-0.4465256-0.296524-1.0722046-0.1729889-1.5010834,0.1500092c-0.4279938,0.3220978-0.7042084,0.8021545-0.9689484,1.2680969
		c-0.293869,0.5197906-0.5886078,1.038681-0.8824692,1.5575867c-0.1659088,0.2929535-0.334465,0.5894775-0.5674286,0.8330383
		c-0.1156082,0.1209106-0.2462158,0.2285767-0.3494644,0.3609467
		C111.3333664,138.3581848,111.3210144,138.3749542,111.3104172,138.3917084z"/>
	<path class="st3" d="M116.4779892,89.946228c-0.1304321-0.5614395-0.2608643-1.122879-0.3912964-1.6843109
		c0.051712,0.5012283,0.064476,1.0064697,0.0381317,1.5096664c-2.936615-0.2364655-5.8500137-0.7603836-8.6850204-1.5618439
		c1.0491257-1.9999313,1.9122238-4.0974045,2.5745316-6.2565155c0.2164536-0.7056503,0.4115677-1.4217758,0.5136108-2.1540146
		c0.0869827-0.6241531-0.0352936-1.2581253,0.0397797-1.8669205c0.0398254-0.3229065,0.1424942-0.6213989,0.2745667-0.9167709
		c0.0779724-0.1762161,0.1682968-0.3570175,0.2580109-0.5319672l2.0902786-2.6353989l1.171875-1.47686
		c0.2497406-0.1700363,0.5112991-0.3388672,0.8081741-0.3909912c0.2485657-0.0452957,0.4990387,0.0047531,0.7433701,0.1136475
		c0.2455368,0.0971146,0.4725037,0.2577286,0.6741104,0.4334717c0.593071,0.5260925,1.0505981,1.2104263,1.3105927,1.9632263
		c0.2553711,0.740448,0.5188751,1.6304245,0.4768143,2.4344025c-0.0278625,0.516777-0.1915665,1.0144501-0.2023315,1.5281677
		c-0.0101547,0.4850235-0.1102676,0.9540939-0.1770096,1.4370041c-0.1470032,1.063652-0.2137299,2.1395035-0.1812592,3.2131042
		c0.0641937,2.1227264,0.525177,4.2498856,1.5256271,6.134201C118.4026337,89.5339966,117.4458847,89.7708664,116.4779892,89.946228
		z"/>
	<path class="st0" d="M110.6215744,77.6708145l-0.1359558-0.0142593c-0.1704178-0.0178757-0.294075-0.170517-0.276207-0.3409348
		l0.1327591-1.2657166c0.0178757-0.1704254,0.170517-0.2940826,0.3409348-0.276207l0.1359558,0.0142593
		c0.1704254,0.0178757,0.2940826,0.170517,0.276207,0.3409348l-0.1327515,1.2657166
		C110.9446411,77.565033,110.7919998,77.6886902,110.6215744,77.6708145z"/>
	<path class="st1" d="M110.8130569,76.1910782l-0.0517883,0.3570862l-0.360405,0.1043701l0.0739212-0.5096588
		c0.0129471-0.0892715,0.1006088-0.1526947,0.1928711-0.1395493
		C110.7599258,76.0164719,110.8260117,76.1018066,110.8130569,76.1910782z"/>
	<path class="st1" d="M110.3501511,77.0021744l0.3576889-0.0856628l-0.0485535,0.3347473
		c-0.0129471,0.0892715-0.1006088,0.1526947-0.1928711,0.1395493c-0.0922699-0.0131454-0.1583557-0.0984802-0.1454086-0.1877518
		L110.3501511,77.0021744z"/>
	<path class="st12" d="M113.8126297,131.4370117l-1.1415253,0.1715088l-1.8335266-18.5838547v-2.9573288l0,0
		c0.7941055-0.1180038,1.5203705,0.4655914,1.5761032,1.2664795L113.8126297,131.4370117z"/>
	<path class="st60" d="M96.8535156,92.532341c-0.0413284,0.0105133-0.0862808,0.013504-0.1312256,0.0164719
		c-0.7210999,0.0532761-1.3976212-0.4295502-1.5686874-1.1545105l-0.525032-2.2480545l-1.2794037-5.4296799l-1.7631454-1.5992737
		c-0.2179642-0.1645355-0.3920059-0.3826141-0.4945145-0.6256638l-0.8959579-1.9961548
		c-0.0413971-0.0961075-0.0660706-0.1863251-0.0756454-0.2837753l0.0019608-0.0055847
		c-0.0293732-0.2548752,0.0367508-0.5137863,0.1993561-0.7261505l1.8420181,1.8026199l-0.2152405-1.0979691
		c-0.0424423-0.1466064-0.0061035-0.3031311,0.0761795-0.4120941c0.0383377-0.0555038,0.0839081-0.095871,0.1498489-0.122818
		l0.0452652-0.0216827c0.2033463-0.0788727,0.4340591-0.0038834,0.5486679,0.1869812l1.1173325,1.8483887l1.1034241,1.1223297
		c0.5314941,0.5383759,0.8069305,1.2875748,0.747345,2.0441666l1.9173965,5.2028809l0.5777588,1.5643005
		C98.5251007,91.4718781,97.7595825,92.3811646,96.8535156,92.532341z"/>
	<path class="st1" d="M96.8535156,92.532341c-0.0413284,0.0105133-0.0862808,0.013504-0.1312256,0.0164719
		c-0.7210999,0.0532761-1.3976212-0.4295502-1.5686874-1.1545105l-0.525032-2.2480545l-1.2794037-5.4296799l2.2855301,5.7777863
		c0,0,2.0050049-0.4225311,2.0187607-0.461586l0.5777588,1.5643005
		C98.5251007,91.4718781,97.7595825,92.3811646,96.8535156,92.532341z"/>
	<path class="st21" d="M107.8972321,86.3700485l-0.0117874,0.0334702c-0.1234894,0.3327789-0.34935,0.6357422-0.6582413,0.8718262
		l-3.056633,2.322197l-5.4517975,4.137352c-0.896225,0.6751251-2.2047272,0.5089493-2.9211807-0.37677
		c-0.1960373-0.244606-0.3277817-0.5293045-0.3978119-0.8110962c-0.0085907-0.0468903-0.0171432-0.0938034-0.0256882-0.1407089
		c-0.0816727-0.4802933,0.0259476-0.9816666,0.3042068-1.3978653c0.1134109-0.1795197,0.2658844-0.3453217,0.4498215-0.493721
		l8.5044937-6.4483795c0.2597122-0.20327,0.5647812-0.3215561,0.8688889-0.3837662
		c0.3132629-0.0526733,0.6292267-0.0417328,0.9327393,0.0401001l0.1247101,0.0376511
		c0.1526031,0.0474777,0.2992783,0.1116867,0.4381256,0.1982193c0.1850967,0.1153717,0.3456268,0.2471619,0.4943695,0.4124222
		c0.0239639,0.0209579,0.0403671,0.0455627,0.0623627,0.0721054c0.009201,0.0095215,0.0220184,0.0265884,0.031189,0.0360947
		C108.0187683,85.0458221,108.1133728,85.7564087,107.8972321,86.3700485z"/>
	<path class="st23" d="M107.4057693,85.3441238l-0.0098267,0.0278854c-0.1254501,0.338356-0.3513107,0.6413193-0.6602097,0.8774033
		l-3.0566177,2.3221664l-5.4518051,4.1373825c-0.8696747,0.6530914-2.1243515,0.5121918-2.8532181-0.3026428
		c-0.0816727-0.4802933,0.0259476-0.9816666,0.3042068-1.3978653c0.1134109-0.1795197,0.2658844-0.3453217,0.4498215-0.493721
		l8.5044937-6.4483795c0.2597122-0.20327,0.5647812-0.3215561,0.8688889-0.3837662
		c0.3132629-0.0526733,0.6292267-0.0417328,0.9327393,0.0401001l0.1247101,0.0376511
		c0.1526031,0.0474777,0.2992783,0.1116867,0.4381256,0.1982193c0.1850967,0.1153717,0.3456268,0.2471619,0.4943695,0.4124222
		C107.5457687,84.6973801,107.5158081,85.0317154,107.4057693,85.3441238z"/>
	<path class="st89" d="M71.749115,37.9542809c0.1335526,0.1026764,0.2576523,0.2174988,0.3697357,0.3434944
		c0.3835449,0.4311218,0.6220627,0.9926834,0.6483994,1.5691185c-0.0067749-0.148407-0.4468079-0.4284325-0.5541687-0.5074883
		c-0.2219543-0.1634331-0.4648895-0.3020096-0.7283249-0.3861809c-0.4477844-0.1430817-0.8846207-0.320549-1.3053894-0.5301628
		c-0.2326965-0.1159248-0.4901199-0.2862053-0.5024567-0.5458832c-0.0098953-0.2083817,0.1580658-0.3942833,0.3547974-0.4636803
		c0.1967392-0.0694008,0.4140549-0.0446358,0.6172867,0.0024834C71.0468369,37.5282211,71.4256897,37.7056236,71.749115,37.9542809z
		"/>
	<path class="st23" d="M107.5173569,89.9480591l-3.2855606,16.8116837l-1.9491425,0.1624527
		c0.9745483-3.3667603,1.9639282-11.3111496,2.584137-16.9741364H107.5173569z"/>
	<path class="st50" d="M110.1472702,72.1420441c0.625679,1.0809402,1.7584991,1.8534546,2.9932632,2.0412369
		c1.2347565,0.1877747,2.5460205-0.2130508,3.4647522-1.0591125"/>
	<path class="st50" d="M118.2027283,76.9908676c-0.9091873,0.5861282-1.481369,1.563942-1.9709854,2.5285416
		c-0.5988312,1.1797562-1.138298,2.4782181-0.9484863,3.7875671c0.0624695,0.4309006,0.2027817,0.8468857,0.3655701,1.2507172
		c0.5515594,1.3682404,1.4701004,2.7078705,2.8613205,3.1985855"/>
	<g>
		<path class="st11" d="M85.6453705,51.1863785c0,0.0077744,0,0.0077744,0,0.0155487
			c0.0077667,0.2485085-0.0464554,0.5358391-0.2561417,0.6600685c-0.1710129,0.1009598-0.4038391,0.0621376-0.574852-0.0543671
			c-0.1630478-0.1164551-0.2872314-0.2795525-0.4038315-0.4426041c-0.6055603-0.8387146-1.2812729-1.6152878-2.034523-2.3219948
			c-0.714386-0.6756172-1.3823242-1.4133263-2.151123-2.0346222c-0.9163055-0.7299805-1.9336624-1.2968636-2.8810654-1.9802551
			c-0.4271469-0.3106003-0.8541107-0.6212463-1.2734909-0.9318962c-0.8776321-0.6522942-1.7317505-1.3356857-2.5238647-2.0967102
			c-2.9277039-2.8267403-5.3429337-6.9814415-5.7932129-11.0584545c-0.0544128-0.4892445-0.0699615-0.9862156-0.0544128-1.475462
			c0.030899-0.8697586,0.1630478-1.7317924,0.357193-2.5782318c0.4582443-1.9336605,1.3512268-3.8440495,2.8421936-5.1331406
			c0.1088257-0.1087322,0.225235-0.2019176,0.3496094-0.2951031l2.4772263,4.9467716l0.1630478,0.3183746l7.5793686,15.1121483
			l0.7532501,1.5065536c0,0.0077744,0,0.0077744,0.0077744,0.0077744l1.8172531,3.6265869
			c0.2250443,0.7222061,0.6133347,1.3822746,0.9472046,2.0579376
			C85.3270416,49.7109184,85.6220474,50.4331245,85.6453705,51.1863785z"/>
		<path class="st34" d="M86.7326813,50.6505432c-0.2019119,0.3184204-0.5126572,0.6290207-0.8931732,0.5979767h-0.0077667
			c-0.3105545-0.0310478-0.5435638-0.2795563-0.7532578-0.5125198c-2.2753067-2.5627327-4.6516724-5.0477295-7.1133499-7.4395905
			c-0.1243744-0.1320038-0.2563324-0.2562828-0.3882828-0.3805122c-1.8561172-1.7938843-3.7820053-3.5800438-5.0788269-5.8088074
			c-0.7843475-1.3512306-1.3045883-2.8266907-1.7550659-4.317749c-0.4271545-1.3978233-0.830986-2.7723732-0.9862595-4.232336
			c-0.0077744-0.0776386-0.0155487-0.1552773-0.0233231-0.2329636c-0.1086349-1.2735443-0.0621872-2.5704575,0.1941452-3.8207302
			c0.1863708-0.9241257,0.4893417-1.8172035,0.9164886-2.6558704c1.0093994-1.9725266,2.7877808-3.6033134,4.9311371-4.1701965
			l2.3685837,7.1599884l3.6654053,11.0817242c0.947403,1.514328,1.8094788,3.0829773,2.5938263,4.6827164
			c0.8076706,1.6541061,1.5220566,3.3470306,2.151123,5.0710526c0.2950134,0.8076172,0.5668869,1.6307831,0.6522064,2.4850426
			C87.2917938,49.011982,87.1751938,49.9127884,86.7326813,50.6505432z"/>
		<path class="st11" d="M88.1383286,48.6780624c-0.0155487,0.1475487-0.0390549,0.2951012-0.1166,0.4115601
			c-0.0466385,0.0621376-0.1086349,0.1165047-0.1708221,0.1630974c-0.3649673,0.3028755-0.737709,0.6057472-1.1026764,0.908577
			c-0.0699615,0.0543671-0.1554642,0.1087303-0.225235,0.069912c-0.0388641-0.0155449-0.0621872-0.0621376-0.0855103-0.1009598
			c-0.939621-1.8094292-2.0500717-3.5256271-3.1527405-5.2418709c-0.4427032-0.6911621-0.8931732-1.4211464-1.4833832-2.0035744
			c-0.2794571-0.2795563-0.5513306-0.5591125-0.8232117-0.8464394c-0.2872314-0.3106499-0.5746536-0.6290245-0.8618927-0.9396706
			c-1.1182175-1.2425003-2.1744385-2.5549126-3.0441055-3.9916039c-1.8405685-3.0286102-2.9898834-6.7173347-3.3159866-10.3284225
			c-0.0699615-0.8619862-0.1010513-1.7239723-0.0855026-2.562685c0.0466385-1.9336605,0.473793-4.1158314,1.4909592-5.8786697
			c0.605751-1.0639038,1.4289627-1.9802551,2.508316-2.5937786c1.1028671-0.6290226,2.3841324-0.9318504,3.6498642-0.8619852
			c0.1632385,0.0077734,0.3340607,0.0310936,0.473793,0.1087313l2.7413254,7.0124855l1.6928787,4.3332481
			c0.1241837,3.92169,0.45047,7.8356514,0.962944,11.7340202c0.0544128,0.4271545,0.1166,0.8542595,0.1863708,1.2813683
			c0.2330093,1.5376015,0.5204315,3.0597,0.737709,4.5973015c0.093277,0.6523438-0.1086426,1.2114563-0.0930939,1.8637962
			c0.0077744,0.2485123,0.0233231,0.4892464,0.0388641,0.7299843C88.1227798,47.256916,88.2080994,47.9636269,88.1383286,48.6780624
			z"/>
		<path class="st11" d="M102.7688599,32.8980751c-0.3105545,1.2580452-0.7765732,2.4850426-1.3667755,3.6576767
			c-0.3649673,0.7299843-0.8776321,1.3279114-1.3823242,1.9802551c-0.5202484,0.6600685-1.0249405,1.327961-1.5220566,2.0035744
			c-0.9940338,1.3434563-1.9258881,2.7335091-2.7180099,4.2090187c-0.4038315,0.7532539-0.7687988,1.5221024-1.0795441,2.3141747
			c-0.1550827,0.3882866-0.3027802,0.7765732-0.4425125,1.1726341c-0.1863632,0.512516-0.3727341,1.032856-0.5979767,1.5298767
			c-0.0853119,0.1785965-0.1708221,0.3649635-0.318512,0.4891968c-0.1475067,0.1320496-0.3727417,0.1941414-0.5433731,0.100956
			c-0.2641068-0.1475487-0.248558-0.5202904-0.2021103-0.8153915c0.0079651-0.031044,0.0079651-0.0621376,0.0155487-0.0931854
			c0.2796478-1.5376015,0.699028-3.0441551,1.2581406-4.4963455c1.2657242-3.2693939,2.4539032-6.5698318,3.6731796-9.8624992
			c0.0310898-0.0854111,0.0621872-0.1630974,0.093277-0.2485085c1.1182251-2.9975643,2.2442169-6.3057766,1.1879959-9.3266602
			l-0.6910706-2.236536l-1.9803009-6.4145088l-0.0697708-0.2174168v-0.0077724
			c0.0930939,0.0465927,0.1785965,0.0854111,0.263916,0.1397762c3.8595505,1.964756,6.3058701,5.9019909,6.8183365,10.1653748
			C103.4057007,28.9452915,103.2580109,30.9566383,102.7688599,32.8980751z"/>
		<path class="st13" d="M102.7688599,32.8980751l-2.3297195,0.9784889l-2.8966064,1.2114525l-0.4504776,0.1941452
			l-5.3815994,2.2520828l-0.0466385,0.0232735l-2.6713715,1.1182671l-1.6153336,0.6756172l-1.8870239,0.7921181
			l-1.0871277,0.4581528l-2.9354706,1.2347755l-0.4893417,0.2019157l-3.0130157,1.2580452l-1.8947906,0.7998466
			c-0.8776321-0.6522942-1.7317505-1.3356857-2.5238647-2.0967102c-2.9277039-2.8267403-5.3429337-6.9814415-5.7932129-11.0584545
			c-0.0544128-0.4892445-0.0699615-0.9862156-0.0544128-1.475462l2.0578461-0.9086246l3.9994659-1.7783375l0.131958-0.0543671
			l4.2556076-1.8870678l3.5954514-1.5919666l2.7957382-1.2425003l2.9354706-1.2969131l3.0596542-1.3512306l0.4193802-0.1863708
			l3.1762619-1.4055958l2.0267487-0.9008522l0.1399231-0.0620918l0.0542221-0.0233212
			c3.8595505,1.964756,6.3058701,5.9019909,6.8183365,10.1653748
			C103.4057007,28.9452915,103.2580109,30.9566383,102.7688599,32.8980751z"/>
		<path class="st6" d="M84.4029617,40.6016731l-2.9354706,1.2347755l-0.4893417,0.2019157l-3.0130157,1.2580452
			c-0.1243744-0.1320038-0.2563324-0.2562828-0.3882828-0.3805122c-1.8561172-1.7938843-3.7820053-3.5800438-5.0788269-5.8088074
			c-0.7843475-1.3512306-1.3045883-2.8266907-1.7550659-4.317749c-0.4271545-1.3978233-0.830986-2.7723732-0.9862595-4.232336
			l3.9994659-1.7783375l0.131958-0.0543671l4.2556076-1.8870678l3.6654053,11.0817242
			C82.7565384,37.4332848,83.6186142,39.0019341,84.4029617,40.6016731z"/>
		<path class="st13" d="M87.3771133,39.3514023l-1.8870239,0.7921181l-1.0871277,0.4581528l-2.9354706,1.2347755
			l-0.4893417,0.2019157c-0.2872314-0.3106499-0.5746536-0.6290245-0.8618927-0.9396706
			c-1.1182175-1.2425003-2.1744385-2.5549126-3.0441055-3.9916039c-1.8405685-3.0286102-2.9898834-6.7173347-3.3159866-10.3284225
			l0.131958-0.0543671l4.2556076-1.8870678l3.5954514-1.5919666l2.7957382-1.2425003l1.6928787,4.3332481
			c0.1241837,3.92169,0.45047,7.8356514,0.962944,11.7340202C87.2451553,38.4971886,87.3073425,38.9242935,87.3771133,39.3514023z"
			/>
		<path class="st34" d="M101.1923904,28.5647774c0.0077744,0.7067089-0.0619965,1.4055977-0.1474991,2.0967598
			c-0.1397324,1.1027203-0.3107452,2.1666222-0.605751,3.2150269c-0.0697708,0.2640076-0.1475067,0.5202904-0.2407837,0.7843475
			c-0.4349289,1.2658195-0.9938507,2.4927711-1.67733,3.6421318c-0.8852158,1.5065575-1.7706146,2.9897919-2.6946945,4.4730759
			c-0.7532501,1.2114525-1.3900909,2.4617233-1.887207,3.7819099c-0.1397324,0.3727417-0.2716904,0.7532539-0.3882904,1.1493149
			c-0.131958,0.4271049-0.2483673,0.8697586-0.4502792,1.2735939c-0.0777359,0.1475487-0.1630554,0.2951012-0.2951965,0.3882866
			c-0.2483673,0.1708221-0.6055603,0.1242294-0.8385696-0.069912c-0.2407837-0.1863708-0.3573837-0.4892464-0.4038391-0.7843475
			c-0.0388641-0.295105-0.0077744-0.5979309,0.0077744-0.9008064c0.0775452-1.1493149,0.0310974-2.3297234,0.4038315-3.4169426
			l-0.2640991-6.6629715l-0.699028-17.426321l-0.0620041-0.9396725l-0.2718735-4.1158314
			c0.8465347,0.0154991,1.8172531,0.0543661,2.6482391,0.2329626c0.7610245,0.155324,1.4209976,0.481472,2.0811615,0.8930788
			c0.3029709,0.1941433,0.605751,0.3960133,0.8854065,0.6212502c0.8618851,0.6756153,1.6229172,1.4910088,2.2286682,2.3995857
			c0.3416443,0.5047932,0.6212921,1.0639038,0.8929825,1.6075153c0.3729324,0.7377548,0.6912537,1.4910088,0.962944,2.2675819
			c0.2874222,0.7843475,0.3882828,1.6152878,0.4971161,2.4306793c0.0466385,0.4038353,0.1008606,0.8076687,0.1474991,1.2037277
			C101.0993042,27.3300514,101.1768494,27.9435272,101.1923904,28.5647774z"/>
		<path class="st6" d="M101.1923904,28.5647774c0.0077744,0.7067089-0.0619965,1.4055977-0.1474991,2.0967598
			c-0.1397324,1.1027203-0.3107452,2.1666222-0.605751,3.2150269l-2.8966064,1.2114525l-0.4504776,0.1941452l-5.3815994,2.2520828
			l-0.699028-17.426321l-0.0620041-0.9396725l3.1762619-1.4055958l2.0267487-0.9008522l0.1399231-0.0620918
			c0.8618851,0.6756153,1.6229172,1.4910088,2.2286682,2.3995857c0.3416443,0.5047932,0.6212921,1.0639038,0.8929825,1.6075153
			c0.3729324,0.7377548,0.6912537,1.4910088,0.962944,2.2675819c0.2874222,0.7843475,0.3882828,1.6152878,0.4971161,2.4306793
			c0.0466385,0.4038353,0.1008606,0.8076687,0.1474991,1.2037277
			C101.0993042,27.3300514,101.1768494,27.9435272,101.1923904,28.5647774z"/>
		<path class="st11" d="M97.5061646,34.1116638c-0.1678009,0.532959-0.3608704,1.0579567-0.5782623,1.5725479
			c-0.8347321,1.9758682-2.3802567,3.5437889-3.1318512,5.5056953c-0.632782,1.6484947-1.0265579,3.377121-1.3385544,5.1110153
			c-0.0066147,0.0398598-0.0145569,0.0795288-0.0211716,0.1193886c-0.1588974,0.8896179-0.2965469,1.7826424-0.4342041,2.6757317
			c-0.0661926,0.426548-0.0261688,0.7056961-0.494072,0.8269806c-0.2587967,0.0663376-0.5371094,0.0430145-0.7981796-0.0460052
			c-0.1122894-0.0380402-0.2191238-0.0902977-0.3183517-0.1513634c-0.4500351-0.2803001-0.7535858-0.7471924-0.9660492-1.2348404
			c-0.5826569-1.3334694-0.5693817-2.8418465-0.5382538-4.2984734c0.0718765-3.3818512,0.1859436-6.7675896,0.0539551-10.1479301
			l-1.609314-14.5986233l-0.5481262-4.9807024c0.6254883-0.1598177,1.2860794-0.1825972,1.9208603-0.0662842
			c0.3538666,0.0644741,0.6967316,0.1723309,1.0395889,0.2801886c1.7144394,0.5381107,3.0473557,1.7051144,4.2825165,2.9745636
			c2.9135818,2.9801922,4.3527527,7.4251289,4.2820053,11.5608597
			C98.2802963,30.8745785,98.0046997,32.5282784,97.5061646,34.1116638z"/>
		<path class="st34" d="M92.0909653,32.789341c-0.0466385,1.5997429-0.2174606,3.1839828-0.4271469,4.768177
			c-0.2716904,2.0812111-0.6288834,4.1546516-0.9007568,6.2359085c-0.1552811,1.1803627-0.3185196,2.3529968-0.3727417,3.5334053
			c-0.0310974,0.7144318-0.0233231,1.421093,0.0466385,2.1355782l-2.6249161-0.3805161
			c-0.3416519-1.9880257-0.6988449-3.9916-1.2968216-5.9252625c-0.2874222-0.9318962-0.6290665-1.8482475-0.9473953-2.7723732
			c-0.0310974-0.0776863-0.0544128-0.1630974-0.0777359-0.2407379c-0.714386-2.0889854-1.3279114-4.2167892-1.8870239-6.3446426
			c-0.3494186-1.320137-0.7066116-2.6170502-0.9473953-3.9605083c-0.248558-1.390049-0.473793-2.7801476-0.6834793-4.1701965
			c-0.0699615-0.4736996-0.131958-0.9473991-0.1630554-1.4211445c-0.0233154-0.3339214-0.0466385-0.6678429-0.0699539-1.0017624
			c-0.131958-2.0268478-0.2483673-4.045969-0.1863708-6.0805874c0-0.1708241,0.0077667-0.3416958,0.0233154-0.5125179
			c0.0233231-0.4659729,0.0699615-0.9396725,0.1399231-1.3978243c0.0075836-0.0932322,0.0231323-0.1941433,0.0853119-0.2640562
			c0.0388718-0.0621386,0.1088333-0.0931845,0.1708298-0.1320038c0.5668793-0.3028755,1.2114944-0.6290236,1.8327942-0.7455282
			c0.5124741-0.1009588,1.0404892-0.1397772,1.5609207-0.0931854c0.4427032,0.0310459,0.846344,0.1863708,1.2501755,0.3882875
			c0.7688065,0.3882866,1.4522858,0.962944,1.9414368,1.6773777c0.0077744,0.0077744,0.0155487,0.0155468,0.0155487,0.0233212
			c0.7301254,1.0483551,1.4211884,2.0967579,1.9569778,3.2460728c0.0855103,0.1785965,0.1708298,0.365015,0.248558,0.551384
			c0.8308029,2.0346203,1.2579498,4.2245655,1.4287796,6.4145088C92.37043,28.4949131,92.1531525,30.6227169,92.0909653,32.789341z"
			/>
		
			<ellipse transform="matrix(0.9786181 -0.2056856 0.2056856 0.9786181 -8.5058384 19.4305477)" class="st54" cx="89.2043381" cy="50.6267471" rx="4.5789104" ry="1.7835498"/>
		<path class="st47" d="M93.0228195,49.8273773c0.1088257,0.5358353-1.1804047,1.5919647-3.548996,2.0889854
			c-0.5202408,0.1087303-1.0327148,0.1786423-1.5296402,0.2019157c-1.5455627,0.0776367-2.4696426-0.2951012-2.5549545-0.6911621
			c-0.0233231-0.1242332,0.0231323-0.2795563,0.1397247-0.4426537c0.4038391-0.5513382,1.5920181-1.2658195,3.4013062-1.6463318
			c0.5280151-0.1164589,1.0406799-0.1785965,1.5377884-0.2019196c0.9472122-0.0465889,1.6540146,0.0699158,2.0889435,0.2640572
			C92.8286743,49.5245018,92.9919128,49.6720505,93.0228195,49.8273773z"/>
		<path class="st5" d="M92.5569916,49.4002686c-0.4038391,0.551384-1.5920181,1.2658195-3.4014969,1.6463318
			c-0.5202408,0.1087341-1.0406723,0.1786003-1.5298233,0.2019196c-0.9551697,0.0465927-1.6695633-0.0776405-2.0967178-0.2640572
			c0.4038391-0.5513382,1.5920181-1.2658195,3.4013062-1.6463318c0.5280151-0.1164589,1.0406799-0.1785965,1.5377884-0.2019196
			C91.4152603,49.0896225,92.1220627,49.2061272,92.5569916,49.4002686z"/>
		<path class="st6" d="M92.0909653,32.789341c-0.0466385,1.5997429-0.2174606,3.1839828-0.4271469,4.768177l-2.6713715,1.1182671
			l-1.6153336,0.6756172l-1.8870239,0.7921181c-0.714386-2.0889854-1.3279114-4.2167892-1.8870239-6.3446426
			c-0.3494186-1.320137-0.7066116-2.6170502-0.9473953-3.9605083c-0.248558-1.390049-0.473793-2.7801476-0.6834793-4.1701965
			c-0.0699615-0.4736996-0.131958-0.9473991-0.1630554-1.4211445c-0.0233154-0.3339214-0.0466385-0.6678429-0.0699539-1.0017624
			l2.7957382-1.2425003l2.9354706-1.2969131l3.0596542-1.3512306c0.0855103,0.1785965,0.1708298,0.365015,0.248558,0.551384
			c0.8308029,2.0346203,1.2579498,4.2245655,1.4287796,6.4145088C92.37043,28.4949131,92.1531525,30.6227169,92.0909653,32.789341z"
			/>
	</g>
	<path class="st90" d="M70.049263,37.8497772c11.6927338,0.5572777,23.5346603-2.5914536,33.4064026-8.8826599"/>
	<path class="st90" d="M99.1498489,31.4480553c0.1904831,7.4225807-0.0938797,14.6054306-2.5180511,21.6235771
		c-1.0582123,3.0636101-2.5917435,6.0704079-5.0749893,8.1534386"/>
	<path class="st90" d="M76.534729,37.9128685c0.830658,9.1500244,5.0665359,17.5502892,11.9298401,23.6583138"/>
	<path class="st90" d="M89.8277512,76.8211899c-0.567482,0.0307846-1.258934-4.2100449-1.5443954-9.4721527
		s-0.056839-9.5528412,0.510643-9.5836258"/>
	<g>
		<path class="st14" d="M96.7851257,66.4295654c0.335556,2.9016495-0.8337173,5.6296921-2.8875961,7.4098434
			c-0.1713638,0.1465759-0.350708,0.2867966-0.5339508,0.4238739c-0.8244553,0.6059494-1.7670746,1.0662079-2.7957993,1.3445053
			c0.0348129,0.0503006,0.0608215,0.0871277,0.0608215,0.0871277l-1.1975632,0.1348648l-0.2465439,0.028511
			c-0.0353546,0.0077133-0.0750275,0.0086746-0.1112137,0.0092316c-1.4267731,0.1251678-2.8087845-0.1133347-4.0501022-0.6397324
			c-0.2094574-0.0880356-0.4124069-0.1840515-0.6131134-0.2912216c-0.8748245-0.4564972-1.6657791-1.0639267-2.3323898-1.7871399
			c-0.0993042-0.1080017-0.1916351-0.216835-0.2843781-0.3292389c-0.4795685-0.5782623-0.8833237-1.2195969-1.1959686-1.9185638
			c-0.0528946-0.1133881-0.1023026-0.2271652-0.1449661-0.3453598c-0.2534714-0.6261368-0.4319687-1.293541-0.5276871-1.995842
			c-0.0101013-0.0567627-0.017128-0.1175308-0.024147-0.1782684c-0.0070267-0.0607452-0.0136414-0.1179352-0.0171738-0.1790771
			c-0.0666885-0.7020645-0.0487137-1.3921661,0.0551605-2.0596237c0.0180511-0.1252213,0.0366974-0.2468796,0.0623169-0.3693314
			c0.1448593-0.7518768,0.3914108-1.4684143,0.7265167-2.1408844c0.0644684-0.1305885,0.1327744-0.2616196,0.2052231-0.3858566
			c0.4835358-0.859848,1.1117325-1.6277657,1.8557892-2.2714958c0.1709442-0.1501312,0.350296-0.2903557,0.5339508-0.4238739
			c1.1478424-0.8461151,2.5274506-1.4112358,4.0461731-1.5868645c0.0499039-0.0057716,0.0999756-0.0115623,0.1504669-0.0137787
			c-0.000412-0.0035744-0.000412-0.0035744-0.000412-0.0035744l0.9540863-0.1103363l0.0377045,0.0752983
			c1.1104431,0.0200691,2.1769791,0.2552299,3.156044,0.6743202c0.2092819,0.0880775,0.4124069,0.1840744,0.6131134,0.2912254
			C94.688118,61.1351891,96.4495697,63.5279198,96.7851257,66.4295654z"/>
		<g>
			<g>
				<path class="st15" d="M92.2794876,59.8783035l-9.491127,1.0975838c0.1709442-0.1501312,0.350296-0.2903557,0.5339508-0.4238739
					l8.3440628-0.9649353C91.8756561,59.6751556,92.0787811,59.7711525,92.2794876,59.8783035z"/>
			</g>
			<g>
				<path class="st15" d="M93.1144409,61.8386345l0.0413284,0.3573456l-12.428421,1.4372597
					c0.0644684-0.1305885,0.1327744-0.2616196,0.2052231-0.3858566L93.1144409,61.8386345z"/>
			</g>
			<g>
				<path class="st15" d="M93.3904877,64.2257004l0.0413284,0.3573456l-13.4933014,1.5604095
					c0.0180511-0.1252213,0.0366974-0.2468796,0.0623169-0.3693314L93.3904877,64.2257004z"/>
			</g>
			<g>
				<path class="st15" d="M93.6661224,66.6091919l0.0413284,0.3573456L79.924675,68.5604248
					c-0.0101013-0.0567627-0.017128-0.1175308-0.024147-0.1782684c-0.0070267-0.0607452-0.0136414-0.1179352-0.0171738-0.1790771
					L93.6661224,66.6091919z"/>
			</g>
			<g>
				<path class="st15" d="M93.9421692,68.9962616l0.0413284,0.3573456l-13.3861694,1.5480194
					c-0.0528946-0.1133881-0.1023026-0.2271652-0.1449661-0.3453598L93.9421692,68.9962616z"/>
			</g>
			<g>
				<path class="st15" d="M94.2182236,71.3833313l0.0413208,0.3573456l-12.1818695,1.4087524
					c-0.0993042-0.1080017-0.1916351-0.216835-0.2843781-0.3292389L94.2182236,71.3833313z"/>
			</g>
			<g>
				<path class="st15" d="M93.8975296,73.8394089c-0.1713638,0.1465759-0.350708,0.2867966-0.5339508,0.4238739
					l-8.3404007,0.9645081c-0.2094574-0.0880356-0.4124069-0.1840515-0.6131134-0.2912216L93.8975296,73.8394089z"/>
			</g>
		</g>
		<path class="st15" d="M89.4296799,75.8316116c-0.0353546,0.0077133-0.0746155,0.0122528-0.1103897,0.0163879
			c-0.0464096,0.0053635-0.0893326,0.0103302-0.1361618,0.0121231L89.4296799,75.8316116z"/>
		<circle class="st15" cx="89.7121353" cy="67.2490845" r="8.4974995"/>
		<circle class="st63" cx="89.7121353" cy="67.2490845" r="7.2837162"/>
		<path class="st15" d="M89.1831284,75.8601227l-0.1107941,0.0128098l-0.0004196-0.0035782
			C89.1081009,75.8687973,89.1477737,75.867836,89.1831284,75.8601227z"/>
		<path class="st14" d="M92.4678497,68.7013626c0.124855,1.0796356-0.5088348,2.1794434-1.8905029,2.5733566l0.1644211,1.4217529
			l-0.861908,0.0996704l-0.1597977-1.381752c-0.792511,0.078125-1.6426468-0.0711823-2.1576385-0.3583221l0.218483-0.9527512
			l0.391037-0.0452271c0,0,0.0217438,0.1100464,0.040062,0.2294998c0.4684448,0.1574326,1.0318756,0.24086,1.6050339,0.1745758
			c0.9729843-0.1125183,1.561348-0.7478638,1.4714279-1.525383c-0.0868301-0.7508621-0.673912-1.1557083-1.7297363-1.4478226
			c-1.4583511-0.3851624-2.393219-0.9163818-2.5309143-2.1070938c-0.1310196-1.1329498,0.5779495-2.088398,1.8115997-2.438179
			l-0.1592789-1.3773079l0.8442307-0.0976295l0.1531143,1.3239937c0.8249588-0.0683861,1.4100647,0.0845604,1.8326721,0.2743301
			l-0.1058884,0.4084549c0.0841827,0.1433296,0.2591095,0.487793,0.2591095,0.487793l-0.391037,0.0452232
			c-0.3033142-0.1315117-0.8980713-0.3688927-1.7733231-0.2676735c-1.0530319,0.1217766-1.3755569,0.7984047-1.312355,1.3449059
			c0.0822067,0.7108612,0.6298676,1.0077133,1.8726196,1.3592758C91.53405,66.8553009,92.3270721,67.4839935,92.4678497,68.7013626z
			"/>
		<path class="st17" d="M90.270813,72.7512054l-0.1596298-1.380394c-0.7942886,0.0780029-1.6427765-0.0731812-2.1606445-0.3595428
			l0.2221222-0.9536438c0.529953,0.2711182,1.2706833,0.4486084,2.0360565,0.3600998
			c0.9703751-0.1122208,1.5616074-0.7484436,1.4715195-1.5274811c-0.0869293-0.7517014-0.6736984-1.154747-1.7324905-1.4478073
			c-1.4572906-0.3854828-2.3910294-0.9146042-2.5285416-2.1036606c-0.1311798-1.1343842,0.5756149-2.0886765,1.8093033-2.4390945
			l-0.1596375-1.3803978l0.847374-0.0979919l0.1533127,1.3257256c0.8231964-0.0674973,1.408844,0.08638,1.8320694,0.2728882
			l-0.2373657,0.941555c-0.3059845-0.1308136-0.9011154-0.3666954-1.7758255-0.2655411
			c-1.0523758,0.1217003-1.37603,0.7962303-1.3128052,1.3429222c0.0821838,0.710701,0.6289749,1.007576,1.8749237,1.3620911
			c1.4741211,0.411232,2.2670059,1.0397415,2.4076691,2.256134c0.1248627,1.0797195-0.5098801,2.1780243-1.8907394,2.5731659
			l0.1643753,1.421402L90.270813,72.7512054z"/>
	</g>
	<path class="st90" d="M88.7939987,57.7654114c0.567482-0.0307846,1.2589264,4.2100372,1.5443954,9.4721451
		c0.2854614,5.2621078,0.056839,9.5528488-0.510643,9.5836334"/>
	<path class="st90" d="M87.8587875,56.7159042c-0.3765182-0.3568611-0.7608109-0.7056122-1.1767349-1.0150261
		c-0.5150146-0.3831215-1.3281555-0.9196472-1.7781982-0.1529427c-0.140213,0.2388763-0.1336823,0.540226-0.055275,0.8058929
		c0.2033615,0.6890755,0.9036789,1.2732315,1.5988388,1.4276505c0.9001083,0.1999435,1.8001785,0.3690033,2.7306747,0.3486214
		c-0.3553696-0.3507957-0.6488342-0.7429962-0.9976273-1.1067696
		C88.0735016,56.9206772,87.9664612,56.8179588,87.8587875,56.7159042z"/>
	<path class="st90" d="M89.7058716,55.1678391c0.1897507-0.5013466,0.4544296-1.0104752,0.9153366-1.2841797
		c0.2280884-0.1354446,0.5146103-0.2033005,0.7608032-0.1044998c0.1951523,0.0783157,0.341095,0.2533531,0.4178543,0.4491234
		c0.076767,0.1957703,0.090538,0.4110947,0.0776749,0.6209831c-0.0418091,0.6825104-0.3568268,1.3279381-0.7904739,1.8566437
		c-0.220726,0.2691193-0.4722061,0.5115051-0.7390442,0.7344818c-0.2469635,0.2063713-0.5778809,0.5395088-0.8827362,0.6502304
		c-0.4960403,0.1801529-0.1666489-1.4343147-0.1168671-1.6809464
		C89.4337387,55.9869843,89.5532227,55.5711479,89.7058716,55.1678391z"/>
	<path class="st90" d="M89.2381668,58.2042885c0.3755112-0.0052795,0.7069626,0.2541008,0.9327545,0.5541878
		c0.2257996,0.3000908,0.3795547,0.6495934,0.6080093,0.9476624c0.3664551,0.4781189,0.9248123,0.8047218,1.5211868,0.8897858
		c1.0158005,0.1448898,1.9936371-0.381546,2.8848572-0.890049"/>
</g>
</svg>
