<?xml version="1.0" encoding="utf-8"?>
<!-- Generator: Adobe Illustrator 22.0.1, SVG Export Plug-In . SVG Version: 6.00 Build 0)  -->
<svg version="1.1" id="Layer_1" xmlns="http://www.w3.org/2000/svg" xmlns:xlink="http://www.w3.org/1999/xlink" x="0px" y="0px"
	 viewBox="0 0 156 156" style="enable-background:new 0 0 156 156;" xml:space="preserve">
<style type="text/css">
	.st0{fill:#FFD9B2;}
	.st1{fill:#F7AC76;}
	.st2{fill:none;stroke:#3643C3;stroke-width:0.5;stroke-linecap:round;stroke-linejoin:round;stroke-miterlimit:10;}
	.st3{fill:#233764;}
	.st4{fill:none;stroke:#F7AC76;stroke-width:0.5;stroke-linecap:round;stroke-linejoin:round;stroke-miterlimit:10;}
	.st5{fill:#161718;}
	.st6{fill:#FFFFFF;}
	.st7{fill:#F06449;}
	.st8{fill:#BE412D;}
	.st9{fill:#FE8E60;}
	.st10{fill:#7D4C47;}
	.st11{fill:#4456D6;}
	.st12{fill:#203881;}
	.st13{fill:#6582FC;}
	.st14{fill:#DDA103;}
	.st15{fill:#FBC32E;}
	.st16{fill:none;stroke:#DDA103;stroke-width:0.5;stroke-miterlimit:10;}
	.st17{fill:#FBE6BB;}
	.st18{fill:none;stroke:#BE412D;stroke-width:0.5;stroke-linecap:round;stroke-linejoin:round;stroke-miterlimit:10;}
	.st19{fill:none;stroke:#F06449;stroke-width:0.5;stroke-linecap:round;stroke-linejoin:round;stroke-miterlimit:10;}
	.st20{fill:#F34B4B;}
	.st21{fill:#FC7070;}
	.st22{fill:none;stroke:#FFFFFF;stroke-miterlimit:10;}
	.st23{fill:#FC9F9F;}
	.st24{fill:#408A6F;}
	.st25{fill:#64B48D;}
	.st26{fill:none;stroke:#FBE6BB;stroke-width:0.5;stroke-linecap:round;stroke-linejoin:round;stroke-miterlimit:10;}
	.st27{fill:none;stroke:#F7AC76;stroke-width:0.25;stroke-linecap:round;stroke-linejoin:round;stroke-miterlimit:10;}
	.st28{fill:#A0665A;}
	.st29{fill:#6C3F44;}
	.st30{fill:none;stroke:#6C3F44;stroke-width:0.5;stroke-linecap:round;stroke-linejoin:round;stroke-miterlimit:10;}
	.st31{fill:none;stroke:#7D4C47;stroke-width:0.5;stroke-linecap:round;stroke-linejoin:round;stroke-miterlimit:10;}
	.st32{fill:none;stroke:#F34B4B;stroke-width:0.5;stroke-linecap:round;stroke-linejoin:round;stroke-miterlimit:10;}
	.st33{fill:none;stroke:#FC7070;stroke-width:0.5;stroke-linecap:round;stroke-linejoin:round;stroke-miterlimit:10;}
	.st34{fill:#EAE8F3;}
	.st35{fill:#40304A;}
	.st36{fill:none;stroke:#43334E;stroke-linecap:round;stroke-linejoin:round;stroke-miterlimit:10;}
	.st37{fill:#32775B;}
	.st38{fill:none;stroke:#233764;stroke-width:0.5;stroke-linecap:round;stroke-linejoin:round;stroke-miterlimit:10;}
	.st39{fill:none;stroke:#408A6F;stroke-width:0.5;stroke-linecap:round;stroke-linejoin:round;stroke-miterlimit:10;}
	.st40{fill:#3643C3;}
	.st41{opacity:0.56;fill:url(#SVGID_1_);}
	.st42{opacity:0.52;fill:#FBC32E;}
	.st43{opacity:0.56;fill:url(#SVGID_2_);}
	.st44{fill:none;stroke:#EAE8F3;stroke-width:0.5;stroke-linecap:round;stroke-linejoin:round;stroke-miterlimit:10;}
	.st45{fill:#FEFFFD;}
	.st46{opacity:0.35;fill:#32775B;}
	.st47{fill:#43334E;}
	.st48{fill:none;stroke:#EAE8F3;stroke-width:0.25;stroke-linecap:round;stroke-linejoin:round;stroke-miterlimit:10;}
	.st49{fill:none;stroke:#FBC32E;stroke-width:0.5;stroke-linecap:round;stroke-linejoin:round;stroke-miterlimit:10;}
	.st50{fill:none;stroke:#161718;stroke-width:0.5;stroke-linecap:round;stroke-linejoin:round;stroke-miterlimit:10;}
	.st51{fill:none;stroke:#40304A;stroke-linecap:round;stroke-linejoin:round;stroke-miterlimit:10;}
	.st52{opacity:0.33;fill:#FBC32E;}
	.st53{fill:#A6A3AE;}
	.st54{fill:#5B4B68;}
	.st55{fill:#776688;}
	.st56{fill:none;stroke:#FBC32E;stroke-width:0.5;stroke-miterlimit:10;}
	.st57{fill:none;stroke:#EAE8F3;stroke-linecap:round;stroke-linejoin:round;stroke-miterlimit:10;}
	.st58{fill:none;stroke:#203881;stroke-width:2;stroke-linecap:round;stroke-linejoin:round;stroke-miterlimit:10;}
	.st59{fill:none;stroke:#40304A;stroke-width:2;stroke-linecap:round;stroke-linejoin:round;stroke-miterlimit:10;}
	.st60{fill:#FFD8B7;}
	.st61{fill:#F4E4D4;}
	.st62{fill:none;stroke:#4456D6;stroke-width:0.5;stroke-linecap:round;stroke-linejoin:round;stroke-miterlimit:10;}
	.st63{fill:none;stroke:#DDA103;stroke-width:0.25;stroke-miterlimit:10;}
	.st64{fill:none;stroke:#FFFFFF;stroke-width:0.5;stroke-linecap:round;stroke-linejoin:round;stroke-miterlimit:10;}
	.st65{fill:none;stroke:#64B48D;stroke-width:0.5;stroke-linecap:round;stroke-linejoin:round;stroke-miterlimit:10;}
	.st66{fill:none;stroke:#64B48D;stroke-linecap:round;stroke-linejoin:round;stroke-miterlimit:10;}
	.st67{opacity:0.48;fill:#64B48D;}
	.st68{fill:none;stroke:#64B48D;stroke-width:0.25;stroke-linecap:round;stroke-linejoin:round;stroke-miterlimit:10;}
	.st69{fill:none;stroke:#F06449;stroke-width:2;stroke-linecap:round;stroke-linejoin:round;stroke-miterlimit:10;}
	.st70{opacity:0.92;fill:#64B48D;}
	.st71{opacity:0.57;fill:#408A6F;}
	.st72{opacity:0.36;fill:#408A6F;}
	.st73{fill:none;stroke:#BE412D;stroke-width:2;stroke-linecap:round;stroke-linejoin:round;stroke-miterlimit:10;}
	.st74{opacity:0.65;fill:none;stroke:#408A6F;stroke-width:0.25;stroke-linecap:round;stroke-linejoin:round;stroke-miterlimit:10;}
	.st75{opacity:0.67;fill:none;stroke:#64B48D;stroke-width:0.25;stroke-linecap:round;stroke-linejoin:round;stroke-miterlimit:10;}
	.st76{opacity:0.98;fill:#64B48D;}
	.st77{fill:none;stroke:#408A6F;stroke-width:0.25;stroke-linecap:round;stroke-linejoin:round;stroke-miterlimit:10;}
	.st78{fill:none;stroke:#FFD9B2;stroke-width:0.5;stroke-linecap:round;stroke-linejoin:round;}
	
		.st79{fill:none;stroke:#FFD9B2;stroke-width:0.5;stroke-linecap:round;stroke-linejoin:round;stroke-dasharray:4.0333505,4.0333505;}
	.st80{fill:#E68B4A;}
	.st81{opacity:0.62;fill:#64B48D;}
	.st82{fill:none;stroke:#FBC32E;stroke-width:0.25;stroke-miterlimit:10;}
	.st83{fill:none;stroke:#4456D6;stroke-linecap:round;stroke-linejoin:round;stroke-miterlimit:10;}
	.st84{fill:none;stroke:#E68B4A;stroke-width:0.5;stroke-linecap:round;stroke-linejoin:round;stroke-miterlimit:10;}
	.st85{fill:none;stroke:#203881;stroke-width:0.5;stroke-linecap:round;stroke-linejoin:round;stroke-miterlimit:10;}
	.st86{opacity:0.29;fill:#EAE8F3;}
	.st87{fill:none;stroke:#A6A3AE;stroke-width:0.5;stroke-linecap:round;stroke-linejoin:round;stroke-miterlimit:10;}
	.st88{opacity:0.74;fill:#FFFFFF;}
	.st89{opacity:0.19;fill:#FFFFFF;}
	.st90{fill:none;stroke:#40304A;stroke-width:0.25;stroke-linecap:round;stroke-linejoin:round;stroke-miterlimit:10;}
	.st91{fill:none;stroke:#F34B4B;stroke-width:2;stroke-linecap:round;stroke-linejoin:round;stroke-miterlimit:10;}
	.st92{fill:none;stroke:#43334E;stroke-width:0.5;stroke-linecap:round;stroke-linejoin:round;stroke-miterlimit:10;}
	.st93{fill:none;stroke:#6582FC;stroke-miterlimit:10;}
	.st94{opacity:0.47;fill:#A6A3AE;}
	.st95{opacity:0.43;fill:#FFFFFF;}
	.st96{fill:none;stroke:#FBE6BB;stroke-linecap:round;stroke-linejoin:round;stroke-miterlimit:10;}
	.st97{fill:none;stroke:#5B4B68;stroke-width:0.5;stroke-linecap:round;stroke-linejoin:round;stroke-miterlimit:10;}
	.st98{fill:none;stroke:#40304A;stroke-width:0.5;stroke-linecap:round;stroke-linejoin:round;stroke-miterlimit:10;}
	.st99{fill:none;stroke:#DDA103;stroke-linecap:round;stroke-linejoin:round;stroke-miterlimit:10;}
	.st100{fill:none;stroke:#FBC32E;stroke-linecap:round;stroke-linejoin:round;stroke-miterlimit:10;}
	.st101{fill:none;stroke:#32775B;stroke-width:0.5;stroke-linecap:round;stroke-linejoin:round;stroke-miterlimit:10;}
	.st102{opacity:0.4;fill:#FBE6BB;}
	.st103{fill:none;stroke:#FBC32E;stroke-width:0.25;stroke-linecap:round;stroke-linejoin:round;stroke-miterlimit:10;}
	.st104{fill:none;stroke:#4456D6;stroke-miterlimit:10;}
	.st105{opacity:0.61;fill:#64B48D;}
	.st106{opacity:0.9;fill:#64B48D;}
	.st107{opacity:0.76;fill:#64B48D;}
	.st108{fill:none;stroke:#5B4B68;stroke-width:0.5;stroke-miterlimit:10;}
	.st109{opacity:0.66;fill:#A6A3AE;}
	.st110{fill:none;stroke:#43334E;stroke-miterlimit:10;}
	.st111{opacity:0.52;fill:#6582FC;}
	.st112{fill:none;stroke:#DDA103;stroke-width:0.5;stroke-linecap:round;stroke-linejoin:round;stroke-miterlimit:10;}
	.st113{fill:#46724E;}
	.st114{fill:#FE8B2E;}
	.st115{fill:none;stroke:#7D4C47;stroke-width:2;stroke-linecap:round;stroke-linejoin:round;stroke-miterlimit:10;}
	.st116{opacity:0.4;fill:#EAE8F3;}
	.st117{fill:none;stroke:#EAE8F3;stroke-width:0.5;stroke-linecap:round;stroke-miterlimit:10;}
	.st118{fill:none;stroke:#4456D6;stroke-width:0.25;stroke-linecap:round;stroke-linejoin:round;stroke-miterlimit:10;}
	.st119{opacity:0.5;fill:#EAE8F3;}
	.st120{opacity:0.46;fill:#A6A3AE;}
	.st121{fill:#E0916E;}
	.st122{fill:none;stroke:#A0665A;stroke-linecap:round;stroke-linejoin:round;stroke-miterlimit:10;}
	.st123{opacity:0.46;fill:#BE412D;}
	.st124{fill:none;stroke:#203881;stroke-linecap:round;stroke-linejoin:round;stroke-miterlimit:10;}
	.st125{fill:#DBDBE1;}
	.st126{fill:none;stroke:#6582FC;stroke-width:0.5;stroke-linecap:round;stroke-linejoin:round;stroke-miterlimit:10;}
	.st127{opacity:0.53;fill:#A6A3AE;}
	.st128{fill:none;stroke:#DDA103;stroke-miterlimit:10;}
	.st129{opacity:0.2;fill:#FFFFFF;}
	.st130{fill:#B4A1BF;}
	.st131{opacity:0.5;fill:#6582FC;}
	.st132{opacity:0.6;fill:none;stroke:#FFFFFF;stroke-linecap:round;stroke-linejoin:round;stroke-miterlimit:10;}
	.st133{opacity:0.6;fill:none;stroke:#FFFFFF;stroke-width:2;stroke-linecap:round;stroke-linejoin:round;stroke-miterlimit:10;}
	.st134{opacity:0.54;fill:#A6A3AE;}
	.st135{fill:#161718;stroke:#000000;stroke-width:0.25;stroke-miterlimit:10;}
</style>
<g id="_x32_1">
	<path class="st54" d="M106.8248138,131.0608215c3.2214737,0.8358765,5.1448441,1.8908386,5.1448441,3.0431671
		c0,1.8583832-5.0069504,3.4732819-12.3509445,4.28479C96.997551,140.4662323,87.9409866,142,77.1722412,142
		c-11.0528412,0-20.3039665-1.6148987-22.6493378-3.781662c-0.3732643-0.3408203-0.5761414-0.697876-0.5761414-1.0711975
		c0-0.7790222,0.8764954-1.5093994,2.4345284-2.1667175c-6.516243-0.1784973-12.1155777-0.8196259-15.6294746-1.7203979
		c-2.459095-0.6248779-3.8871574-1.3795624-3.8871574-2.1910706c0-1.2172699,3.2135429-2.304657,8.277153-3.0269165
		c1.3880463-0.2028809,2.9135857-0.3733139,4.5528488-0.5112534c3.1243896-0.2678146,6.6624603-0.4220047,10.3954773-0.4220047
		c4.8769798,0,9.396946,0.2596893,13.1299629,0.697937c-0.3486938-0.3246231-0.5273972-0.6654434-0.5273972-1.0225067
		c0-0.681694,0.6815338-1.3308868,1.8988037-1.9151993c0.6898575-0.3327026,1.5584259-0.6573257,2.5728149-0.94133
		c4.2196045-1.2091446,11.0524521-1.9882126,18.7538605-1.9882126c3.5626373,0,6.9382401,0.1704407,9.9572296,0.4706955
		c1.2497559,0.1217422,2.4345245,0.267807,3.5380707,0.4381943c5.8917618,0.8683243,9.7218628,2.3128281,9.7218628,3.9358521
		C119.1353455,128.6425476,114.152565,130.2493134,106.8248138,131.0608215z"/>
	<path class="st47" d="M101.8341141,129.7299805l-47.3112106,8.4883575
		c-0.3732643-0.3408203-0.5761414-0.697876-0.5761414-1.0711975c0-0.7790222,0.8764954-1.5093994,2.4345284-2.1667175
		c-6.516243-0.1784973-12.1155777-0.8196259-15.6294746-1.7203979l4.3899956-5.2179871
		c1.3880463-0.2028809,2.9135857-0.3733139,4.5528488-0.5112534c3.1243896-0.2678146,6.6624603-0.4220047,10.3954773-0.4220047
		c4.8769798,0,9.396946,0.2596893,13.1299629,0.697937c-0.3486938-0.3246231-0.5273972-0.6654434-0.5273972-1.0225067
		c0-0.681694,0.6815338-1.3308868,1.8988037-1.9151993L101.8341141,129.7299805z"/>
	<g>
		<g>
			<path class="st0" d="M88.5919418,26.1327534L83.317131,37.2098236c-0.3895035,0.8115082-1.3064194,1.2253838-2.1747894,0.9738197
				l-4.1467972-1.2172661l1.030632-4.495739l0.8033905,0.2921295l2.4669189,0.8926392l3.3353882-6.3946438l0.016243-0.0406151
				l0.0567627-0.2434425l-1.3552551-4.2117329c-0.081131-0.2515659,0.0406189-0.5274525,0.2597427-0.6410751
				c0.2109985-0.1136227,0.4543915-0.0730572,0.6167526,0.0730076c0.0324936,0.0243702,0.0648804,0.0649357,0.081131,0.089304
				l0.8033829,1.192894l1.8664169-3.2622814c0.2109985-0.3813858,0.7061081-0.4868851,1.0712433-0.2353191
				c0.016243,0.0162449,0.0406189,0.0324421,0.0568619,0.0486889c0.1947556,0.170433,0.2757874,0.4301224,0.2433929,0.6978855
				l-0.365242,1.9232712l0.5276031,3.0107174L88.5919418,26.1327534z"/>
			<path class="st1" d="M88.5919418,26.1327534L83.317131,37.2098236c-0.3895035,0.8115082-1.3064194,1.2253838-2.1747894,0.9738197
				l-4.1467972-1.2172661l1.030632-4.495739l0.8033905,0.2921295l0.5356216,3.6436691l1.210289,0.3488731
				c0.9061737,0.2612076,1.8725967-0.1386757,2.3292618-0.9638062L88.51091,25.6620655L88.5919418,26.1327534z"/>
			<g>
				<g>
					<path class="st0" d="M58.5632286,18.9382973l2.3967552,5.1797485c0.1288223,0.2784042,0.316906,0.5293541,0.551815,0.7253933
						c0.1669273,0.1333122,0.3504677,0.2423,0.5483055,0.3225517c0.0354004,0.0168648,0.1429634,0.0335789,0.2861595,0.0559578
						l2.5382423,5.4855366l3.1170197-1.442297l-2.0462189-4.4221916c0.023407-0.0330181,0.0583038-0.0657692,0.0929642-0.0984459
						c0.3098297-0.3483677,0.5057144-0.7991371,0.5340118-1.288763c0.0592728-0.8419037-0.0954056-1.6790257-0.4480591-2.4411507
						l-1.2543335-2.7108192c0,0-0.4928894-1.3288898-2.0769997-1.327282L58.5632286,18.9382973z"/>
				</g>
				<path class="st1" d="M59.7257195,21.4556065l1.115406,2.4105644c0.1331978-0.1632595,0.1640358-0.3969822,0.0702438-0.5996819
					l-0.6851234-1.4806595C60.1324501,21.583128,59.9363785,21.4597588,59.7257195,21.4556065z"/>
				<path class="st3" d="M65.3016739,16.7273426c-0.1216507,0.6248779-0.2840118,1.2578297-0.2516174,1.8989525
					c-0.1135254-0.2515659-0.3570175-0.421999-0.6005096-0.5599422c-0.1866302-0.1055012-0.3813858-0.202877-0.6005058-0.2434425
					c-0.5761414-0.1217461-0.9169083,0.2921314-1.2335091,0.7141323c-0.44627,0.6005077-0.9087868,1.0468273-1.6959267,1.0387039
					c-0.3976326,0-0.8033867-0.1623116-1.0550003-0.4625645c0,0,0.0243683,0.0405655,0.0730057,0.1136227
					c0.4220009,0.6978855,0.4543953,1.5824528,0.3652382,2.4101582c-0.0243683,0.1866798-0.1704826,0.3083763-0.1379929,0.4869347
					c0.0323944,0.2190742,0.1866341,0.4300747,0.267765,0.6248283c0.2191238,0.5275002,0.4301224,1.0550003,0.6411209,1.5743294
					c-0.5923843-0.2596397-1.1766472-0.4787636-1.696125-0.8845177c-0.3245239-0.2434425-0.5842628-0.5356236-0.8438988-0.8439503
					c-0.2758865-0.3408699-0.6086349-0.6330013-0.8763962-0.9900665c-0.0812302-0.1055012-0.1623611-0.2110004-0.2434921-0.3326969
					c-0.4301224-0.6248779-0.7871399-1.3065681-1.0387535-2.0368958c-0.1541405-0.4301243-0.3245239-1.0062637-0.0973778-1.4445095
					c0.0973778-0.1866322,0.2758865-0.3326969,0.4706383-0.3895092h0.0081253
					c0.1055984-0.0405655,0.21912-0.0486889,0.3246231-0.0162468c-0.0486412-0.3083763-0.0486412-0.6167545-0.0080261-0.9251308
					c0.0161476-0.0973778,0.0323944-0.1947556,0.0810318-0.2840099c0.0649834-0.1217461,0.1866341-0.2109995,0.3084793-0.2840071
					c0.6167526-0.3408699,1.3470306-0.3408699,2.0530396-0.3976316c0.7303772-0.0568113,1.4526329-0.1948042,2.1586418-0.3895578
					c0.3976326-0.1136236,0.8033867-0.2515659,1.1441574-0.486886c0.2191238-0.1541882,0.4138756-0.3408194,0.6492462-0.4625664
					c0.3813858-0.202877,0.7790184-0.1866312,1.1766472-0.0649338c0.2434921,0.0730572,0.4057541,0.2191229,0.5276031,0.4219999
					c0.0486374,0.0892544,0.0972748,0.1947546,0.1297684,0.3083773
					C65.5045547,15.4289484,65.4234238,16.0943909,65.3016739,16.7273426z"/>
				<path class="st24" d="M61.0737419,24.3230553c-0.5923843-0.2596397-1.1766472-0.4787636-1.696125-0.8845177
					c-0.3245239-0.2434425-0.5842628-0.5356236-0.8438988-0.8439503c-0.2758865-0.3408699-0.6086349-0.6330013-0.8763962-0.9900665
					c-0.0812302-0.1055012-0.1623611-0.2110004-0.2434921-0.3326969c-0.4301224-0.6248779-0.7871399-1.3065681-1.0387535-2.0368958
					c-0.1541405-0.4301243-0.3245239-1.0062637-0.0973778-1.4445095c0.0973778-0.1866322,0.2758865-0.3326969,0.4706383-0.3895092
					h0.0081253l0.3246231-0.0162468l2.7835197,1.7285194c0,0,0.0243683,0.0405655,0.0730057,0.1136227
					c0.4220009,0.6978855,0.4543953,1.5824528,0.3652382,2.4101582c-0.0243683,0.1866798-0.1704826,0.3083763-0.1379929,0.4869347
					c0.0323944,0.2190742,0.1866341,0.4300747,0.267765,0.6248283
					C60.6517448,23.276226,60.8627434,23.8037262,61.0737419,24.3230553z"/>
				<path class="st1" d="M66.2451401,25.4776573l-0.2944031-0.6362476c0.0597916,0.1590977-1.8775711,0.3659019-2.1448059,0.3119736
					c-0.1204758,0.0221195-0.1088028,0.1984158,0.0135345,0.2044582
					C64.5708771,25.6309757,65.3768234,25.6815491,66.2451401,25.4776573z"/>
				<path class="st0" d="M60.1483955,21.6162224l0.6847954,1.4799404c0.1346436,0.2909908,0.0080299,0.6356907-0.282959,0.7703362
					c-0.2909851,0.1346436-0.6356888,0.008028-0.7703323-0.2829628l-0.6847916-1.4799385
					c-0.0673256-0.1454945-0.0689926-0.3039513-0.0180893-0.4434338c0.0514908-0.1392708,0.1557426-0.2591591,0.301239-0.3264828
					C59.6692429,21.1990376,60.0139465,21.3256531,60.1483955,21.6162224z"/>
				<path class="st4" d="M64.0270309,21.3271904l0.5231171,0.2581444c0.1367264,0.0674706,0.1917496,0.2338009,0.1222458,0.3694992
					l-0.1864853,0.3640709"/>
			</g>
			<path class="st5" d="M64.774147,22.8799191c-0.0364609-0.0017796-0.0729141-0.0035572-0.1144867-0.0017471
				c-0.3429565,0.0181656-0.6043396,0.2525997-0.7938995,0.5224648c-0.0722122,0.0975666-0.1317177,0.2019539-0.1808548,0.2989616
				c-0.000782,0.0044594-0.0060196,0.0081387-0.0068016,0.0125999c-0.0007782,0.0044594-0.0060196,0.0081387-0.0067978,0.012598
				c-0.0475769,0.088089-0.0861244,0.1777554-0.1203194,0.2681828c-0.00914,0.0259781-0.017498,0.0474987-0.026619,0.0733681
				c-0.008358,0.0215187-0.0219574,0.0467186-0.0221786,0.0742569c-0.0015564,0.0089188,0.0013428,0.0186195,0.0094833,0.0246391
				c0.0028992,0.0096989,0.0117111,0.01124,0.0155182,0.0163898c0.0250893,0.0135784,0.0541687,0.0049877,0.0817261,0.0050983
				c0.0186005-0.0012321,0.0424576-0.0062523,0.0609703-0.0076122c0.0513954-0.0048008,0.102684-0.0096207,0.1540833-0.0144215
				c0.0610962-0.0077019,0.1220818-0.0154228,0.1822701-0.0185738c0.070015-0.0061417,0.1354675-0.0130825,0.2010193-0.0200024
				c0.0706863-0.010622,0.1362457-0.0175419,0.206131-0.0235939c0.0655594-0.0069218,0.1310043-0.0138626,0.1964569-0.0208035
				c0.0610962-0.0077,0.1212997-0.0109615,0.1823807-0.0185528c0.0513077-0.0049286,0.102684-0.0096226,0.1540833-0.0144234
				c0.042366-0.0063801,0.0796051-0.0090599,0.1168442-0.0117416c0.0237503-0.0050392,0.042366-0.0063782,0.0654449-0.0069389
				c0,0,0,0,0.0044632,0.0007801c0.0141602-0.002121,0.0840454-0.008173,0.1502762-0.0195732
				c0.070015-0.0061417,0.1354599-0.0130825,0.1354599-0.0130825C65.5338058,23.8392754,65.4861603,22.9308834,64.774147,22.8799191
				z"/>
			<path class="st6" d="M65.2833405,24.0112743l-0.0283966-0.2575283c-0.0117416-0.1168461-0.120369-0.20467-0.2371902-0.193037
				l-1.3328476,0.1388893c-0.000782,0.0044594-0.0060196,0.0081387-0.0068016,0.0125999
				c-0.0007782,0.0044594-0.0060196,0.0081387-0.0067978,0.012598c-0.0475769,0.088089-0.0861244,0.1777554-0.1203194,0.2681828
				c-0.00914,0.0259781-0.017498,0.0474987-0.026619,0.0733681c-0.008358,0.0215187-0.0219574,0.0467186-0.0221786,0.0742569
				c-0.0015564,0.0089188,0.0013428,0.0186195,0.0094833,0.0246391c0.0028992,0.0096989,0.0117111,0.01124,0.0155182,0.0163898
				c0.0250893,0.0135784,0.0541687,0.0049877,0.0817261,0.0050983c0.0186005-0.0012321,0.0424576-0.0062523,0.0609703-0.0076122
				c0.0513954-0.0048008,0.102684-0.0096207,0.1540833-0.0144215c0.0610962-0.0077019,0.1220818-0.0154228,0.1822701-0.0185738
				c0.070015-0.0061417,0.1354675-0.0130825,0.2010193-0.0200024c0.0706863-0.010622,0.1362457-0.0175419,0.206131-0.0235939
				c0.0655594-0.0069218,0.1310043-0.0138626,0.1964569-0.0208035c0.0610962-0.0077,0.1212997-0.0109615,0.1823807-0.0185528
				c0.0513077-0.0049286,0.102684-0.0096226,0.1540833-0.0144234c0.042366-0.0063801,0.0796051-0.0090599,0.1168442-0.0117416
				c0.0237503-0.0050392,0.042366-0.0063782,0.0654449-0.0069389c0,0,0,0,0.0044632,0.0007801
				C65.1472244,24.0287266,65.2171097,24.0226746,65.2833405,24.0112743z"/>
			<path class="st1" d="M59.4409447,21.9778671l0.1957474,0.4230442l0.4713936,0.0013313l-0.2793846-0.6037979
				c-0.0489388-0.1057606-0.1778297-0.1531048-0.2835884-0.104166
				C59.4393501,21.7432156,59.3920059,21.8721046,59.4409447,21.9778671z"/>
			<path class="st1" d="M60.2997551,22.8164654l-0.4611397,0.020834l0.183506,0.3965778
				c0.0489349,0.1057625,0.1778259,0.1531048,0.2835884,0.1041679c0.1057587-0.0489368,0.1531029-0.1778278,0.1041679-0.2835884
				L60.2997551,22.8164654z"/>
			<path class="st21" d="M71.712616,36.5200577c-0.5681152-0.2921295-1.1198883-0.6086311-1.6067734-0.9738197
				c-1.5987473-1.1685753-2.9376602-3.0674782-1.4769058-4.9096184l0.1216507-0.1460667l0.1785049-0.2191238l0.1542435-0.1947536
				c0.2677612-0.3570652,0.6328964-0.6248779,1.0225067-0.8115082c0.1461182-0.0730591,0.2921295-0.1298199,0.4543915-0.1785088
				c0.0162506,0,0.0243683,0,0.0406189-0.0081234c0.1297684-0.0243683,0.2597351-0.0568104,0.3895035-0.0649338
				c0.43013-0.0568123,0.8521271-0.0243702,1.2741241,0.1217461c0.3164063,0.0973759,0.6167603,0.2434425,0.8926468,0.4625168
				c0,0,0.4381409,0.2191219,1.0955124,0.5518684c1.0468826,0.5193291,2.6455307,1.314642,3.927681,1.9070263
				c0.2516098,0.1136246,0.4868851,0.2191238,0.7060089,0.3165016c-0.2677689,1.7041473-0.6086349,3.9114799-0.8277588,5.4371185
				c-2.6941681-0.827755-5.8265762-1.7934532-6.4027176-2.0855827C71.168869,35.4894257,72.199501,36.7716255,71.712616,36.5200577z
				"/>
			<path class="st23" d="M78.1803207,32.0567589l-0.7952652,4.7716789l-5.0232925-2.2965851l-0.3001556-2.3614693
				l2.1910324-2.0206509C75.2995224,30.6690617,76.8981705,31.4643745,78.1803207,32.0567589z"/>
			<path class="st21" d="M75.3157654,45.3574028c-0.0568619,0.0405655-0.1137238,0.081131-0.1704865,0.113575
				c-2.2559204,1.6555099-4.6823196,2.8078384-7.3522186,3.1080933c-0.949501,0.1136246-1.9476395,0.1136246-2.9782715-0.0243187
				c-0.0730057,0-0.1542358-0.0162468-0.2272491-0.0243721c-0.1703796-0.0324402-0.3327408-0.0568085-0.5031281-0.0892525
				c-0.1947556-0.032444-0.3732643-0.0730591-0.5598946-0.1136246l-4.544529-11.3043137l-0.4543953-1.1280098l0.3327484-1.395771
				l0.6572685-2.7185841l4.447155-2.9538555l0.1785088-0.1217461c0.0567627,0.2515659,0.1703796,0.4463196,0.3001556,0.6330013
				c0.9171066,1.1604519,3.3516312,0.4787617,3.0756454-1.2740746c-0.0081177-0.0486889,0.5842667,0.0648842,1.3471375,0.2434425
				c0.1947556,0.0486889,0.3976288,0.0892544,0.6086273,0.1460648h0.0081253
				c0.9738693,0.235321,2.0692902,0.5031319,2.5968857,0.6248779c0.1785126,0.0568123,0.3001556,0.0892544,0.3326492,0.0892544
				c0.0162506,0.0081234,0.0243683,0.0162468,0.0243683,0.0162468l0.0081253,0.0080719
				c-0.0568619,0.0081234-0.3813858,0.0324936-0.3570175,0.1623135c0,0,0.0972748,0.5112534,0.2757874,1.3552551
				c0.0568619,0.2921314,0.1218414,0.6329517,0.1947556,0.9981403c0.1137238,0.5599442,0.2353668,1.2010155,0.3733597,1.8827057
				c0.1379929,0.6573219,0.2840118,1.3389626,0.4138794,2.053093c0.1785049,0.876442,0.3652344,1.7853279,0.5599899,2.6698952
				v0.0161972c0.0323944,0.1460648,0.0567627,0.2840576,0.0810318,0.4301224
				c0.2597427,1.2821999,0.5113525,2.5400276,0.7304764,3.6193008c0.0081253,0.0406151,0.0161514,0.0893021,0.0242691,0.1298676
				c0.1054993,0.5193787,0.1867294,0.9332047,0.2515182,1.2578278c0.0324936,0.1623116,0.0568619,0.3083801,0.0812302,0.4301262
				c0.0243683,0.0567627,0.0324936,0.129818,0.0406189,0.1866302C75.2101669,44.838028,75.2507782,45.0652237,75.3157654,45.3574028
				z"/>
			<path class="st20" d="M64.8147888,48.5547523c-0.0730057,0-0.1542358-0.0162468-0.2272491-0.0243721
				c-0.1703796-0.0324402-0.3327408-0.0568085-0.5031281-0.0892525c-0.1947556-0.032444-0.3732643-0.0730591-0.5598946-0.1136246
				l-4.544529-11.3043137l1.128109,0.1785583c0.0257835-0.0294952,0.7283707-0.3634987,1.4875793-0.7192802
				c0.6609154-0.3097229,1.3521271,0.3667679,1.0570221,1.0343323l-1.2705765,2.8741722
				C61.382122,40.3909721,63.6542854,45.8037224,64.8147888,48.5547523z"/>
			<path class="st23" d="M74.9910431,43.7668266l-10.2898788,3.3921051l-2.2641411-6.0944405l10.1194954-9.3566742
				c0.1137238,0.5599442,0.2353668,1.2010155,0.3733597,1.8827057c0.1379929,0.6573219,0.2840118,1.3389626,0.4138794,2.053093
				c0.1785049,0.876442,0.3652344,1.7853279,0.5599899,2.6698952v0.0161972
				c0.0323944,0.1460648,0.0567627,0.2840576,0.0810318,0.4301224c0.2597427,1.2821999,0.5113525,2.5400276,0.7304764,3.6193008
				c0.0081253,0.0406151,0.0161514,0.0893021,0.0242691,0.1298676
				C74.8450241,43.0283775,74.9262543,43.4422035,74.9910431,43.7668266z"/>
			<path class="st0" d="M60.4203072,38.3910027l-1.1149864,1.3887329l-3.0417175,3.7808876l-0.8750114-0.4703941
				l-2.6870041-1.4562035l0.2682228-0.3778038c0,0,0,0,0.0054779-0.0021629l1.4840012-2.0719566l1.4664345-2.0523186
				l0.6199799-0.8645096L60.4203072,38.3910027z"/>
			<path class="st0" d="M56.4046745,41.8354149c0.0851097,0.263607,0.1023827,0.5477028,0.0399094,0.8379593
				c-0.0267754,0.1243935-0.0514259,0.2542801-0.0793228,0.3917809c-0.0324135,0.1582298-0.0681267,0.3241348-0.1016579,0.4954681
				c-0.7732735,3.5999832-2.3970413,9.7554398-2.5058784,10.1525383l-0.0044785,0.0207214l0.5429764,1.1832581l1.2081985,1.1862488
				c0.0826225,0.0812111,0.1203461,0.1928062,0.1166267,0.2954407c-0.0079384,0.0600662-0.0180206,0.1146088-0.0412025,0.1680298
				c-0.1134529,0.2092171-0.3835487,0.2778931-0.5773621,0.1394119l-1.2162514-0.8542557l-0.2569618,1.9922791
				c-0.0474968,0.3602638-0.4210091,0.5835915-0.7633743,0.4531479l-1.617115-0.6201286l-0.119915-0.0475006
				c-0.2169762-0.0851059-0.3624191-0.2932854-0.3547707-0.5302849l0.0192528-2.5624847l0.4609985-1.4593811
				c0,0,0.975544-7.4931679,1.42313-11.0531654c0.0148277-0.1386337,0.0580215-0.2695465,0.1241112-0.3904724l0.2682228-0.3778038
				c0,0,0,0,0.0054779-0.0021629c0.5102692-0.5176239,1.4061394-0.7953873,2.0946617-0.6371613l0.049099,0.0122299
				C55.7563095,40.7696457,56.2347794,41.2447701,56.4046745,41.8354149z"/>
			<path class="st1" d="M59.3053207,39.7797356l-3.0417175,3.7808876
				c-0.7732735,3.5999832-2.3970413,9.7554398-2.5058784,10.1525383l1.630867-10.6229324l1.0160828-1.2548141l0.3668442-0.4483871
				l-2.3122292-2.2049255l1.4664345-2.0523186L59.3053207,39.7797356z"/>
			<path class="st21" d="M62.693325,35.7546501l-4.3392563,6.1649475l-4.3422813-3.0540848l0.3737564-0.5270004l2.7704773-3.9394112
				l1.1950417-1.6985855c0.8179359-1.1639328,2.4271011-1.4450169,3.5965118-0.6292419l0.1241302,0.0901451
				C63.2356873,32.9793777,63.5112801,34.5906715,62.693325,35.7546501z"/>
			<path class="st15" d="M111.0059128,110.261879c0,1.6148911-0.1055984,3.1810989-0.300354,4.6743011
				c-1.1116638,8.4964752-5.1854553,14.7937851-10.0301361,14.7937851H52.5691452V90.7937851h48.1062775
				C106.3722305,90.7937851,111.0059128,99.5175018,111.0059128,110.261879z"/>
			<path class="st14" d="M107.5244675,120.4343262c1.0473404-1.6686401,2.1593246-3.5504532,3.1810913-5.4981461
				c-1.1116638,8.4964752-5.1854553,14.7937851-10.0301361,14.7937851H52.5691452v-1.0873871l2.7185364,0.4138184
				c0.1165695-0.0674438,27.4238358-1.3308258,40.755043-1.9438934
				C100.7335587,126.8967819,105.0280914,124.4115829,107.5244675,120.4343262z"/>
			<path class="st17" d="M76.7521515,90.7937851c-4.7555313,10.4197464-16.3276558,35.803772-16.4006615,35.9660797
				c-0.0892563,0.2028809-5.8348007-1.0062561-5.8348007-1.0062561s-0.8033867-3.1486588-1.9475441-7.7174606v-27.242363H76.7521515
				z"/>
			<path class="st99" d="M73.5043793,97.8804016c1.4739685,3.365303,2.3594055,7.6796951,2.3594055,12.3837585
				c0,10.7521362-4.625946,18.9745331-10.3323441,18.9745331"/>
			<path class="st100" d="M65.5314407,90.7957001c3.2098465,0,6.0778351,2.7578964,7.9729385,7.0847015"/>
			<path class="st99" d="M86.1569443,90.7957001c5.706398,0,10.3323441,8.7163239,10.3323441,19.4684601
				s-4.8944244,18.9745331-10.6008224,18.9745331"/>
			<ellipse class="st14" cx="52.5737762" cy="110.2641602" rx="10.332346" ry="19.4684639"/>
			<path class="st17" d="M61.4900589,110.2662659c0,9.0647736-3.3993073,16.553688-7.7965126,17.6492767
				c-0.3678703,0.0975189-0.7353706,0.1425781-1.1182632,0.1425781c-4.9224434,0-8.9145889-7.969223-8.9145889-17.7918549
				c0-9.8301849,3.9921455-17.7993622,8.9145889-17.7993622c0.3828926,0,0.7503929,0.0450211,1.1182632,0.1425781
				C58.0907516,93.7050705,61.4900589,101.193985,61.4900589,110.2662659z"/>
			<path class="st15" d="M61.4900589,110.2662659c0,9.0647736-3.3993073,16.553688-7.7965126,17.6492767
				c-4.3973885-1.0955887-7.7966957-8.5845032-7.7966957-17.6492767c0-9.0722809,3.3993073-16.5611954,7.7966957-17.6567841
				C58.0907516,93.7050705,61.4900589,101.193985,61.4900589,110.2662659z"/>
			<path class="st0" d="M111.7096176,73.4787445l-2.4191742-0.8099136l-0.1267853-0.0433426
				c0,0-3.4674683-2.097084-3.4768295-2.1378708c0.0083771-0.0536499,1.3446808-1.6678085,1.8210983-2.2534256
				c0.1071167-0.1325531,0.1739807-0.2085266,0.1739807-0.2085266s4.399765,1.6612473,4.4817734,1.6897812
				C112.2391663,69.7350998,111.7822647,73.4664917,111.7096176,73.4787445z"/>
			<path class="st1" d="M109.2904434,72.6688309l-0.1267853-0.0433426c0,0-3.4674683-2.097084-3.4768295-2.1378708
				c0.0083771-0.0536499,1.3446808-1.6678085,1.8210983-2.2534256l2.1100082,0.5258942
				C109.6179352,68.7600861,109.4702606,70.913414,109.2904434,72.6688309z"/>
			<polygon class="st0" points="79.1475677,91.3601761 75.6366882,91.0005341 74.9789581,88.4700623 75.1193619,87.7219772 
				75.6959381,84.5828094 79.3621902,85.1552811 79.2821198,87.4291229 			"/>
			<path class="st1" d="M79.2821198,87.4291229c0,0-2.4993896,0.206871-4.1627579,0.2928543l0.5765762-3.1391678
				l3.6662521,0.5724716L79.2821198,87.4291229z"/>
			<path class="st11" d="M109.8616638,68.1283417l-1.8177795,4.6986237l-0.032486,0.0730591l-27.9403-12.9517059
				l-0.8682709-0.3976288l-7.70121-3.5706596l2.4102554-4.8122444l0.0810318-0.1623116l0.9008636-1.7934036
				c0-0.0081215,0-0.0081215,0.0081177-0.0162468l0.2677612-0.5275002l0.6410294-1.2821465l0.0406113,0.0243187l0.9170151,0.5599442
				l10.2412338,6.2323837l21.4401093,13.0653191L109.8616638,68.1283417z"/>
			<path class="st13" d="M92.0775223,57.2946053c-0.0406189,0.0811806-0.0731125,0.1704369-0.1137238,0.2515678
				c-0.4949112,1.079319-0.9900208,2.1667633-1.4849319,3.2460327L83.921814,57.107975l-8.4964752-8.5532875l1.338913-0.5843124
				l10.241333,6.2323837L92.0775223,57.2946053z"/>
			<path class="st12" d="M108.0400391,72.8271561l-0.0273361,0.0743332L79.204216,59.5484085l-0.1235199-0.1771393
				c0,0-0.0797806-1.193737-0.1253281-2.0922432c-0.0211105-0.4165268,0.4245834-0.6905823,0.7856522-0.4818535
				C84.2213974,59.3871956,105.8378525,71.4622345,108.0400391,72.8271561z"/>
			<path class="st35" d="M73.8448639,90.9187088l8.1676331,2.2356873l0.1007309-0.3680191
				c0.4153824,0.3687057,0.8298111,0.7386322,1.2249527,1.1288147c0.1643753,0.1623688,0.3301773,0.3308716,0.4287109,0.5398026
				c0.1652069,0.3504562,0.0392761,0.7733688-0.2723694,1.0018387c-0.2667465,0.1957321-0.6256866,0.195137-0.9559021,0.1735229
				c-1.3547745-0.0890427-2.7384033-0.4194946-3.8150711-1.2465744c-0.3547592-0.2725525-0.6722641-0.5958328-1.054924-0.8274231
				c-0.6230621-0.377121-1.374115-0.48349-2.1023331-0.4849472c-0.4370193-0.0009308-0.8837814,0.031723-1.3023453-0.0939484
				c-0.4184723-0.1257248-0.8123474-0.4581146-0.8523636-0.8933105c-0.0193024-0.2096786,0.0447693-0.418808,0.132431-0.6103134
				C73.6307373,91.2846451,73.7361984,91.1007309,73.8448639,90.9187088z"/>
			<path class="st24" d="M76.8303299,88.4328918c0.0605927,0.4475021,0.1211853,0.8949966,0.1817856,1.3424988
				c-0.4349442,0.1488419-0.9365921,0.087677-1.3230362-0.1613007c-0.4204025-0.2708588-0.6492157-0.6536484-0.7131119-1.1464615
				c-0.0125351,0.0952759-0.0428238,0.1872482-0.0754852,0.2776184c-0.1589966,0.439888-0.4034882,0.8047104-0.6281586,1.20858
				c-0.1960373,0.3524017-0.4361115,0.7010345-0.6048584,1.0692444c-0.0877457,0.191452-0.1517563,0.4006271-0.1324692,0.6103439
				c0.0400085,0.435173,0.4338226,0.7675705,0.8523483,0.8932877c0.4185333,0.1257248,0.8653183,0.093071,1.3023224,0.0939636
				c0.7282104,0.0014801,1.4793091,0.1078796,2.1023102,0.4849243c0.3826981,0.2316132,0.7002258,0.5548935,1.0549622,0.8274155
				c1.0766525,0.8271332,2.4603119,1.1575699,3.8150864,1.2465668c0.3301544,0.0216827,0.6891098,0.0222168,0.9559174-0.1734467
				c0.3116074-0.2285309,0.4375839-0.6514359,0.272316-1.0018692c-0.0985413-0.2089539-0.2642822-0.3774872-0.4286804-0.5398102
				c-0.5132675-0.5067978-1.0440216-0.9958878-1.591011-1.4661026c-0.6793747-0.5840225-1.397789-1.1548615-1.8615646-1.9213791
				c-0.2232742-0.3690033-0.3797989-0.7730408-0.5074844-1.1837234c-0.1025848-0.3299561-0.0197678-0.8935013-0.4899826-0.8519363
				C78.2873917,88.1053162,77.5615997,88.3542938,76.8303299,88.4328918z"/>
			<path class="st101" d="M77.0201187,89.7766113c0.1077194,0.3681641,0.2851105,0.7158127,0.5199966,1.0190887"/>
			<path class="st35" d="M111.0045471,74.5958252l5.1517105-6.7207489l-0.3028259-0.2321243
				c0.4981689-0.2455978,0.9971008-0.4898529,1.507515-0.7086029c0.2123871-0.0909729,0.4309845-0.1809616,0.6616516-0.1933899
				c0.3868866-0.0207977,0.7310486,0.2553711,0.8250656,0.6301804c0.0806427,0.3208771-0.0553207,0.6530762-0.1999054,0.950737
				c-0.593544,1.221077-1.4215469,2.3778152-2.5936966,3.0629196c-0.3862381,0.2257309-0.8054123,0.3978119-1.1642456,0.6648331
				c-0.5843048,0.434761-0.9661484,1.0901871-1.242218,1.7640533c-0.1657257,0.4043808-0.3040237,0.830452-0.5783081,1.1706772
				c-0.2742996,0.340126-0.7307281,0.5795059-1.1488571,0.4523926c-0.2014694-0.0612259-0.3709793-0.1994629-0.5152588-0.35289
				C111.2626724,74.9321747,111.1321335,74.7651291,111.0045471,74.5958252z"/>
			<path class="st24" d="M109.8286591,70.8931808c0.437294,0.1127014,0.874588,0.2253952,1.311882,0.3380966
				c-0.0262375,0.4589539-0.2721176,0.9004669-0.6484909,1.1644287c-0.4094391,0.2871552-0.8502655,0.35466-1.3307648,0.2279282
				c0.0834961,0.047554,0.1572571,0.1102982,0.2286301,0.1746368c0.3474045,0.3131943,0.5930328,0.6772461,0.882309,1.037674
				c0.2524109,0.3144989,0.4847107,0.6683502,0.7620544,0.9635391c0.1442108,0.1534882,0.3137817,0.2916794,0.5152817,0.3529358
				c0.4181061,0.1271057,0.8745041-0.1122055,1.1488266-0.4523849s0.4126282-0.7662735,0.5783157-1.1706543
				c0.2760925-0.6738434,0.6579742-1.3293076,1.2421875-1.7640381c0.3588715-0.2670517,0.7780533-0.4391556,1.1642609-0.6648712
				c1.1721725-0.6850739,2.0001831-1.8418427,2.5936813-3.0629425c0.1446381-0.2975769,0.2805481-0.6298141,0.1999893-0.9507217
				c-0.0940933-0.374794-0.4382248-0.651001-0.825119-0.6301422c-0.23069,0.0124359-0.449295,0.1023483-0.6616364,0.1933594
				c-0.6629791,0.2841568-1.3161621,0.5911942-1.9579773,0.9203796c-0.7971649,0.4088516-1.5968475,0.8588409-2.4816895,0.9991913
				c-0.4259644,0.0675583-0.8591995,0.0601044-1.2877121,0.0234299c-0.3442764-0.0294724-0.834938-0.3187637-0.9738312,0.1323853
				C110.0749588,69.4202042,110.0317383,70.1862946,109.8286591,70.8931808z"/>
			<path class="st101" d="M111.1446991,71.2243271c0.3815918,0.0391312,0.7704773,0.0059967,1.1399536-0.0971298"/>
			<path class="st11" d="M81.9763184,65.344841c0.008316,0.0486908,0,0.1054993,0,0.1541901l-1.5580368,17.2283173
				l-0.284111,3.1730347l-0.1462097,1.5986481l-4.7957535-0.4950104l-0.6652908-0.0649338l0.1378937-20.2309113
				c-0.8198318-0.9738235-1.647583-1.9395218-2.4670181-2.90522c-0.6332016-0.7465744-1.2743225-1.4850235-1.9071274-2.2397232
				c-0.7952652-0.949501-1.7854767-1.7528877-2.7023849-2.5887146c-0.3732681-0.3408699-0.7548523-0.6898117-1.0956192-1.063076
				c-0.8923416-0.9900665-1.5255432-2.191082-1.8988037-3.4651566c-0.1866302-0.6248779-0.3082809-1.2740784-0.3732605-1.923275
				c-0.0570602-0.5193748,0.0974731-1.2497559-0.0324936-1.7285156c-0.0079269-0.0162468-0.7790184-2.75103-0.7790184-2.75103
				c0.413681,0.0081253,0.8194313,0,1.2251854-0.0243187c3.684288-0.1541901,7.2306747-1.2497559,10.6795883-2.9782715
				c0.1787033,0.3083763,0.5598907,2.2965813,0.5598907,2.3209534c-0.0079193,0.0161934-0.0241699,0.0324402-0.0241699,0.048687
				c-0.1624603,0.3083763-0.3249207,0.6086311-0.4869843,0.9170074c-0.1541367,0.2921333-0.3245239,0.5842628-0.4707336,0.8845177
				c0.5844574,0.9900665,1.6555099,3.1811028,2.7998581,5.5994339c0.4220047,0.8926392,0.8519287,1.8096466,1.2660065,2.7022896
				c0.1541367,0.3327446,0.2999573,0.6573181,0.446167,0.9819412c0.2270508,0.4950104,0.4461746,0.981945,0.6652985,1.4525833
				c0.6248779,1.3795776,1.1605988,2.5806427,1.5096893,3.3921509
				C81.8625946,63.9733925,81.9925613,64.6631546,81.9763184,65.344841z"/>
			<path class="st12" d="M75.4275818,66.456604l-0.2353745,20.5474167l-0.6652908-0.0649338l0.1378937-20.2309113
				c-0.8198318-0.9738235-1.647583-1.9395218-2.4670181-2.90522c-0.6332016-0.7465744-1.2743225-1.4850235-1.9071274-2.2397232
				c-0.7952652-0.949501-1.7854767-1.7528877-2.7023849-2.5887146c-0.3732681-0.3408699-0.7548523-0.6898117-1.0956192-1.063076
				c-0.8923416-0.9900665-1.5255432-2.191082-1.8988037-3.4651566c-0.1866302-0.6248779-0.3082809-1.2740784-0.3732605-1.923275
				c-0.0570602-0.5193748,0.0974731-1.2497559-0.0324936-1.7285156c-0.0079269-0.0162468-0.7790184-2.75103-0.7790184-2.75103
				c0.413681,0.0081253,0.8194313,0,1.2251854-0.0243187l0.3407745,0.6897621l5.598175,0.2661896l-5.289505,2.0872078
				l0.1703873,3.6111755L75.4275818,66.456604z"/>
			<path class="st13" d="M81.9763184,65.344841c0.008316,0.0486908,0,0.1054993,0,0.1541901l-1.5580368,17.2283173
				l-0.284111,3.1730347l-3.538063-0.1785583l0.3859406-17.6192398c0.0230789-1.053421-0.3755798-2.0724182-1.1073685-2.830513
				l-7.2070313-7.4661293c-1.444313-1.7447624-2.0208511-4.0575447-1.5417862-6.2729988l5.1527634-0.1947517
				c0,0,8.9511642,11.1907387,9.3002548,12.0022469C81.8625946,63.9733925,81.9925613,64.6631546,81.9763184,65.344841z"/>
			<path class="st5" d="M54.5188713,121.4321289c0,1.3431931-0.7353745,2.4237595-1.6433182,2.4237595
				c-0.8703918,0-1.575901-0.9679871-1.6435051-2.2136688c-0.007328-0.0675125-0.007328-0.1425781-0.007328-0.2100906
				c0-1.3357162,0.7353745-2.4162903,1.6508331-2.4162903c0.5177269,0,0.9755478,0.3451996,1.275631,0.8929749
				C54.3838501,120.3290329,54.5188713,120.8543167,54.5188713,121.4321289z"/>
			<path class="st47" d="M51.4029732,122.3912125c-0.0919075,0.9154968,0.5810471,1.6712265,0.7882004,2.5220795
				c0.2160683,0.8874741-0.1426315,1.9589157-0.7146187,2.6460953c-0.3170204,0.380867-0.7216797,0.6905975-0.9833336,1.1114349
				c-0.3967361,0.638092-0.4091034,1.452179-0.2323265,2.1824646c0.0597038,0.2466431,0.1427002,0.4947815,0.3037643,0.6908722
				c0.161068,0.1960907,0.4142113,0.3322754,0.6653137,0.2956238c0.3098984-0.0452271,0.5284538-0.3287964,0.6582603-0.6138153
				c0.4227867-0.928299,0.2508659-2.0011902,0.2135925-3.0205536c0.1175499,0.5293274,0.6308784,0.9622192,1.1718788,0.9257202
				c0.5410004-0.0365143,1.0062103-0.5949402,0.8883514-1.1242065c-0.0400734-0.1799698-0.1358299-0.341629-0.2243538-0.5033569
				c-0.3139763-0.573616-0.5568314-1.2174683-0.4919052-1.8681641c0.0746803-0.7485046,0.5409164-1.3956223,0.7664642-2.1132355
				c0.2926369-0.9310532,0.1544228-1.9881439-0.3677597-2.8126602"/>
			<path class="st47" d="M54.5188713,121.4321289c0,1.3431931-0.7353745,2.4237595-1.6433182,2.4237595
				c-0.8703918,0-1.575901-0.9679871-1.6435051-2.2136688c0.0227203-0.0675125,0.0525818-0.1275558,0.0901375-0.1875992
				c0.1275063-0.2025757,0.3376389-0.3526611,0.5703049-0.3901749c0.2476883-0.0375519,0.5028877,0.0599976,0.7579079,0.0599976
				c0.525238,0.007515,0.9905701-0.3751984,1.2380753-0.8404388c0.0676003-0.1350632,0.1352043-0.2926178,0.2627106-0.3751907
				C54.3838501,120.3290329,54.5188713,120.8543167,54.5188713,121.4321289z"/>
			<circle class="st14" cx="86.7717361" cy="109.9073868" r="6.1084929"/>
			<circle class="st6" cx="86.7717361" cy="109.0807037" r="6.1084929"/>
			<path class="st47" d="M87.7042618,107.6825104c-0.9551849-0.0104904-1.9710159,0.0922165-2.8906784,0.363472
				c-0.4154587,0.1225433-0.8147202,0.3000107-1.1845016,0.5255508c-0.1936798,0.1181335-0.379364,0.2494354-0.5549774,0.3930664
				c-0.084549,0.0691452-0.3140869,0.3637009-0.4099121,0.3764725c1.0752563-0.1433258,2.1888733,0.0128632,3.1832123,0.4464569
				c0.6487808,0.2829132,1.2426071,0.6786652,1.8844757,0.9769363c0.641861,0.2982712,1.3630295,0.4989014,2.0562592,0.3561325
				c0.2848282-0.0586548,0.5652618-0.1800003,0.7630692-0.3931656c0.3334122-0.3592911,0.3710327-0.9056854,0.2884598-1.3888321
				C90.5986328,107.9282455,88.9070129,107.6957092,87.7042618,107.6825104z"/>
			<polygon class="st8" points="61.7878761,78.9700928 60.635498,90.7937851 50.1508636,85.7624207 54.508564,83.1006927 
				49.2500038,76.1460571 43.9346771,78.5399704 41.9951591,74.9044266 38.497509,68.3230972 38.7653694,68.5746613 
				43.2774086,72.7945175 45.2818108,74.6691055 52.4068832,71.2931976 57.3650932,81.7616882 			"/>
			<path class="st47" d="M64.1405106,97.7566299l-3.9196014-6.1431274l-0.3895111,1.2659531v-1.9638367l-0.0243187-0.1216965
				h2.6941681c-0.1054535,0.3408203-0.1703873,0.5680161-0.1703873,0.5680161l0.5761414,0.5761871l-1.4201431,0.0243225
				L64.1405106,97.7566299z"/>
			<path class="st85" d="M75.8512878,47.4104958c0,0-8.1489105,2.7564354-11.5540924,2.5947838"/>
			<line class="st4" x1="87.9833069" y1="22.6513481" x2="87.2371674" y2="24.0647316"/>
			<polygon class="st7" points="61.7878761,78.9700928 60.635498,90.7937851 50.1508636,85.7624207 54.508564,83.1006927 
				49.2500038,76.1460571 43.9346771,78.5399704 41.9951591,74.9044266 43.2774086,72.7945175 45.2818108,74.6691055 
				52.4068832,71.2931976 57.3650932,81.7616882 			"/>
			<polygon class="st8" points="50.1508636,85.7624207 54.508564,83.1006927 49.2500038,76.1460571 49.8748817,75.6916122 
				55.0361633,83.4496384 52.285038,85.6731644 60.635498,90.7937851 			"/>
		</g>
		<ellipse class="st55" cx="78.6292572" cy="138.2561798" rx="5.7576365" ry="1.5702646"/>
		<ellipse class="st55" cx="91.6280975" cy="137.1651459" rx="4.0004358" ry="1.091028"/>
		<ellipse class="st55" cx="95.1879959" cy="133.6052551" rx="1.8238617" ry="0.4974169"/>
	</g>
	<path class="st96" d="M93.651825,85.8454437c6.4165878-0.3454895,12.6642151-3.2089767,17.1146851-7.8442001"/>
	<path class="st96" d="M105.8269653,86.6345901c4.4666367-1.8944626,8.2435532-5.370369,10.5016022-9.6646729"/>
	<path class="st2" d="M67.39431,50.2294769v1.841404c0,1.4773979,0.596077,2.8923073,1.6532516,3.9243393l8.3262711,8.1282616
		c0.7932205,0.7743607,1.2071609,1.8575058,1.1325378,2.9635162l-1.2655945,18.7584457"/>
	<line class="st85" x1="74.6648102" y1="66.7081757" x2="76.0912781" y2="66.2699509"/>
</g>
</svg>
