<?xml version="1.0" encoding="utf-8"?>
<!-- Generator: Adobe Illustrator 22.0.1, SVG Export Plug-In . SVG Version: 6.00 Build 0)  -->
<svg version="1.1" id="Layer_1" xmlns="http://www.w3.org/2000/svg" xmlns:xlink="http://www.w3.org/1999/xlink" x="0px" y="0px"
	 viewBox="0 0 156 156" style="enable-background:new 0 0 156 156;" xml:space="preserve">
<style type="text/css">
	.st0{fill:#FFD9B2;}
	.st1{fill:#F7AC76;}
	.st2{fill:none;stroke:#3643C3;stroke-width:0.5;stroke-linecap:round;stroke-linejoin:round;stroke-miterlimit:10;}
	.st3{fill:#233764;}
	.st4{fill:none;stroke:#F7AC76;stroke-width:0.5;stroke-linecap:round;stroke-linejoin:round;stroke-miterlimit:10;}
	.st5{fill:#161718;}
	.st6{fill:#FFFFFF;}
	.st7{fill:#F06449;}
	.st8{fill:#BE412D;}
	.st9{fill:#FE8E60;}
	.st10{fill:#7D4C47;}
	.st11{fill:#4456D6;}
	.st12{fill:#203881;}
	.st13{fill:#6582FC;}
	.st14{fill:#DDA103;}
	.st15{fill:#FBC32E;}
	.st16{fill:none;stroke:#DDA103;stroke-width:0.5;stroke-miterlimit:10;}
	.st17{fill:#FBE6BB;}
	.st18{fill:none;stroke:#BE412D;stroke-width:0.5;stroke-linecap:round;stroke-linejoin:round;stroke-miterlimit:10;}
	.st19{fill:none;stroke:#F06449;stroke-width:0.5;stroke-linecap:round;stroke-linejoin:round;stroke-miterlimit:10;}
	.st20{fill:#F34B4B;}
	.st21{fill:#FC7070;}
	.st22{fill:none;stroke:#FFFFFF;stroke-miterlimit:10;}
	.st23{fill:#FC9F9F;}
	.st24{fill:#408A6F;}
	.st25{fill:#64B48D;}
	.st26{fill:none;stroke:#FBE6BB;stroke-width:0.5;stroke-linecap:round;stroke-linejoin:round;stroke-miterlimit:10;}
	.st27{fill:none;stroke:#F7AC76;stroke-width:0.25;stroke-linecap:round;stroke-linejoin:round;stroke-miterlimit:10;}
	.st28{fill:#A0665A;}
	.st29{fill:#6C3F44;}
	.st30{fill:none;stroke:#6C3F44;stroke-width:0.5;stroke-linecap:round;stroke-linejoin:round;stroke-miterlimit:10;}
	.st31{fill:none;stroke:#7D4C47;stroke-width:0.5;stroke-linecap:round;stroke-linejoin:round;stroke-miterlimit:10;}
	.st32{fill:none;stroke:#F34B4B;stroke-width:0.5;stroke-linecap:round;stroke-linejoin:round;stroke-miterlimit:10;}
	.st33{fill:none;stroke:#FC7070;stroke-width:0.5;stroke-linecap:round;stroke-linejoin:round;stroke-miterlimit:10;}
	.st34{fill:#EAE8F3;}
	.st35{fill:#40304A;}
	.st36{fill:none;stroke:#43334E;stroke-linecap:round;stroke-linejoin:round;stroke-miterlimit:10;}
	.st37{fill:#32775B;}
	.st38{fill:none;stroke:#233764;stroke-width:0.5;stroke-linecap:round;stroke-linejoin:round;stroke-miterlimit:10;}
	.st39{fill:none;stroke:#408A6F;stroke-width:0.5;stroke-linecap:round;stroke-linejoin:round;stroke-miterlimit:10;}
	.st40{fill:#3643C3;}
	.st41{opacity:0.56;fill:url(#SVGID_1_);}
	.st42{opacity:0.52;fill:#FBC32E;}
	.st43{opacity:0.56;fill:url(#SVGID_2_);}
	.st44{fill:none;stroke:#EAE8F3;stroke-width:0.5;stroke-linecap:round;stroke-linejoin:round;stroke-miterlimit:10;}
	.st45{fill:#FEFFFD;}
	.st46{opacity:0.35;fill:#32775B;}
	.st47{fill:#43334E;}
	.st48{fill:none;stroke:#EAE8F3;stroke-width:0.25;stroke-linecap:round;stroke-linejoin:round;stroke-miterlimit:10;}
	.st49{fill:none;stroke:#FBC32E;stroke-width:0.5;stroke-linecap:round;stroke-linejoin:round;stroke-miterlimit:10;}
	.st50{fill:none;stroke:#161718;stroke-width:0.5;stroke-linecap:round;stroke-linejoin:round;stroke-miterlimit:10;}
	.st51{fill:none;stroke:#40304A;stroke-linecap:round;stroke-linejoin:round;stroke-miterlimit:10;}
	.st52{opacity:0.33;fill:#FBC32E;}
	.st53{fill:#A6A3AE;}
	.st54{fill:#5B4B68;}
	.st55{fill:#776688;}
	.st56{fill:none;stroke:#FBC32E;stroke-width:0.5;stroke-miterlimit:10;}
	.st57{fill:none;stroke:#EAE8F3;stroke-linecap:round;stroke-linejoin:round;stroke-miterlimit:10;}
	.st58{fill:none;stroke:#203881;stroke-width:2;stroke-linecap:round;stroke-linejoin:round;stroke-miterlimit:10;}
	.st59{fill:none;stroke:#40304A;stroke-width:2;stroke-linecap:round;stroke-linejoin:round;stroke-miterlimit:10;}
	.st60{fill:#FFD8B7;}
	.st61{fill:#F4E4D4;}
	.st62{fill:none;stroke:#4456D6;stroke-width:0.5;stroke-linecap:round;stroke-linejoin:round;stroke-miterlimit:10;}
	.st63{fill:none;stroke:#DDA103;stroke-width:0.25;stroke-miterlimit:10;}
	.st64{fill:none;stroke:#FFFFFF;stroke-width:0.5;stroke-linecap:round;stroke-linejoin:round;stroke-miterlimit:10;}
	.st65{fill:none;stroke:#64B48D;stroke-width:0.5;stroke-linecap:round;stroke-linejoin:round;stroke-miterlimit:10;}
	.st66{fill:none;stroke:#64B48D;stroke-linecap:round;stroke-linejoin:round;stroke-miterlimit:10;}
	.st67{opacity:0.48;fill:#64B48D;}
	.st68{fill:none;stroke:#64B48D;stroke-width:0.25;stroke-linecap:round;stroke-linejoin:round;stroke-miterlimit:10;}
	.st69{fill:none;stroke:#F06449;stroke-width:2;stroke-linecap:round;stroke-linejoin:round;stroke-miterlimit:10;}
	.st70{opacity:0.92;fill:#64B48D;}
	.st71{opacity:0.57;fill:#408A6F;}
	.st72{opacity:0.36;fill:#408A6F;}
	.st73{fill:none;stroke:#BE412D;stroke-width:2;stroke-linecap:round;stroke-linejoin:round;stroke-miterlimit:10;}
	.st74{opacity:0.65;fill:none;stroke:#408A6F;stroke-width:0.25;stroke-linecap:round;stroke-linejoin:round;stroke-miterlimit:10;}
	.st75{opacity:0.67;fill:none;stroke:#64B48D;stroke-width:0.25;stroke-linecap:round;stroke-linejoin:round;stroke-miterlimit:10;}
	.st76{opacity:0.98;fill:#64B48D;}
	.st77{fill:none;stroke:#408A6F;stroke-width:0.25;stroke-linecap:round;stroke-linejoin:round;stroke-miterlimit:10;}
	.st78{fill:none;stroke:#FFD9B2;stroke-width:0.5;stroke-linecap:round;stroke-linejoin:round;}
	
		.st79{fill:none;stroke:#FFD9B2;stroke-width:0.5;stroke-linecap:round;stroke-linejoin:round;stroke-dasharray:4.0333505,4.0333505;}
	.st80{fill:#E68B4A;}
	.st81{opacity:0.62;fill:#64B48D;}
	.st82{fill:none;stroke:#FBC32E;stroke-width:0.25;stroke-miterlimit:10;}
	.st83{fill:none;stroke:#4456D6;stroke-linecap:round;stroke-linejoin:round;stroke-miterlimit:10;}
	.st84{fill:none;stroke:#E68B4A;stroke-width:0.5;stroke-linecap:round;stroke-linejoin:round;stroke-miterlimit:10;}
	.st85{fill:none;stroke:#203881;stroke-width:0.5;stroke-linecap:round;stroke-linejoin:round;stroke-miterlimit:10;}
	.st86{opacity:0.29;fill:#EAE8F3;}
	.st87{fill:none;stroke:#A6A3AE;stroke-width:0.5;stroke-linecap:round;stroke-linejoin:round;stroke-miterlimit:10;}
	.st88{opacity:0.74;fill:#FFFFFF;}
	.st89{opacity:0.19;fill:#FFFFFF;}
	.st90{fill:none;stroke:#40304A;stroke-width:0.25;stroke-linecap:round;stroke-linejoin:round;stroke-miterlimit:10;}
	.st91{fill:none;stroke:#F34B4B;stroke-width:2;stroke-linecap:round;stroke-linejoin:round;stroke-miterlimit:10;}
	.st92{fill:none;stroke:#43334E;stroke-width:0.5;stroke-linecap:round;stroke-linejoin:round;stroke-miterlimit:10;}
	.st93{fill:none;stroke:#6582FC;stroke-miterlimit:10;}
	.st94{opacity:0.47;fill:#A6A3AE;}
	.st95{opacity:0.43;fill:#FFFFFF;}
	.st96{fill:none;stroke:#FBE6BB;stroke-linecap:round;stroke-linejoin:round;stroke-miterlimit:10;}
	.st97{fill:none;stroke:#5B4B68;stroke-width:0.5;stroke-linecap:round;stroke-linejoin:round;stroke-miterlimit:10;}
	.st98{fill:none;stroke:#40304A;stroke-width:0.5;stroke-linecap:round;stroke-linejoin:round;stroke-miterlimit:10;}
	.st99{fill:none;stroke:#DDA103;stroke-linecap:round;stroke-linejoin:round;stroke-miterlimit:10;}
	.st100{fill:none;stroke:#FBC32E;stroke-linecap:round;stroke-linejoin:round;stroke-miterlimit:10;}
	.st101{fill:none;stroke:#32775B;stroke-width:0.5;stroke-linecap:round;stroke-linejoin:round;stroke-miterlimit:10;}
	.st102{opacity:0.4;fill:#FBE6BB;}
	.st103{fill:none;stroke:#FBC32E;stroke-width:0.25;stroke-linecap:round;stroke-linejoin:round;stroke-miterlimit:10;}
	.st104{fill:none;stroke:#4456D6;stroke-miterlimit:10;}
	.st105{opacity:0.61;fill:#64B48D;}
	.st106{opacity:0.9;fill:#64B48D;}
	.st107{opacity:0.76;fill:#64B48D;}
	.st108{fill:none;stroke:#5B4B68;stroke-width:0.5;stroke-miterlimit:10;}
	.st109{opacity:0.66;fill:#A6A3AE;}
	.st110{fill:none;stroke:#43334E;stroke-miterlimit:10;}
	.st111{opacity:0.52;fill:#6582FC;}
	.st112{fill:none;stroke:#DDA103;stroke-width:0.5;stroke-linecap:round;stroke-linejoin:round;stroke-miterlimit:10;}
	.st113{fill:#46724E;}
	.st114{fill:#FE8B2E;}
	.st115{fill:none;stroke:#7D4C47;stroke-width:2;stroke-linecap:round;stroke-linejoin:round;stroke-miterlimit:10;}
	.st116{opacity:0.4;fill:#EAE8F3;}
	.st117{fill:none;stroke:#EAE8F3;stroke-width:0.5;stroke-linecap:round;stroke-miterlimit:10;}
	.st118{fill:none;stroke:#4456D6;stroke-width:0.25;stroke-linecap:round;stroke-linejoin:round;stroke-miterlimit:10;}
	.st119{opacity:0.5;fill:#EAE8F3;}
	.st120{opacity:0.46;fill:#A6A3AE;}
	.st121{fill:#E0916E;}
	.st122{fill:none;stroke:#A0665A;stroke-linecap:round;stroke-linejoin:round;stroke-miterlimit:10;}
	.st123{opacity:0.46;fill:#BE412D;}
	.st124{fill:none;stroke:#203881;stroke-linecap:round;stroke-linejoin:round;stroke-miterlimit:10;}
	.st125{fill:#DBDBE1;}
	.st126{fill:none;stroke:#6582FC;stroke-width:0.5;stroke-linecap:round;stroke-linejoin:round;stroke-miterlimit:10;}
	.st127{opacity:0.53;fill:#A6A3AE;}
	.st128{fill:none;stroke:#DDA103;stroke-miterlimit:10;}
	.st129{opacity:0.2;fill:#FFFFFF;}
	.st130{font-family:'Poppins-Regular';}
	.st131{font-size:11.0504704px;}
	.st132{fill:#B4A1BF;}
	.st133{opacity:0.5;fill:#6582FC;}
	.st134{opacity:0.6;fill:none;stroke:#FFFFFF;stroke-linecap:round;stroke-linejoin:round;stroke-miterlimit:10;}
	.st135{opacity:0.6;fill:none;stroke:#FFFFFF;stroke-width:2;stroke-linecap:round;stroke-linejoin:round;stroke-miterlimit:10;}
	.st136{opacity:0.54;fill:#A6A3AE;}
	.st137{fill:#161718;stroke:#000000;stroke-width:0.25;stroke-miterlimit:10;}
</style>
<g id="_x38_">
	<rect x="47.4920731" y="57.1206169" class="st34" width="69.7665253" height="62.9246674"/>
	<rect x="47.4920731" y="57.1206169" class="st53" width="69.7665253" height="2.3699985"/>
	<rect x="47.4920731" y="86.6401062" class="st53" width="27.5011425" height="4.6249781"/>
	<rect x="80.2793121" y="57.118679" class="st53" width="25.0887108" height="62.9230118"/>
	<rect x="74.4775467" y="57.118679" class="st6" width="25.0887108" height="62.9230118"/>
	<polygon class="st55" points="40.616066,89.1741257 74.4775467,89.1741257 74.4775467,80.5889053 46.4597855,80.5889053 	"/>
	<polygon class="st55" points="119.2695007,57.118679 42.516964,57.118679 50.5544701,33.2384262 127.3070068,33.2384262 	"/>
	<line class="st97" x1="43.0404358" y1="55.563385" x2="119.7725601" y2="55.563385"/>
	<path class="st93" d="M63.6904144,45.4788208c1.384697-1.5425491,3.0246506-2.7775269,4.894722-3.188385
		c2.2416-0.4924774,5.0034561,0.4020271,7.6868057,1.9281197"/>
	<rect x="117.2564774" y="57.118679" class="st53" width="14.7839088" height="62.9230118"/>
	<polygon class="st47" points="127.3070068,33.2384262 135.0593109,56.8119164 132.04039,57.118679 125.8711472,37.5045052 	"/>
	<rect x="132.04039" y="67.9671555" class="st34" width="8.3188238" height="52.0745392"/>
	<polygon class="st54" points="140.3592072,67.9671555 142,67.9671555 132.04039,59.4881058 132.04039,67.9671555 	"/>
	<polygon class="st34" points="102.3520584,57.1206169 69.2902527,57.1206169 85.8548889,41.5779305 	"/>
	<polygon class="st6" points="99.5551682,57.1206169 72.1043243,57.1206169 85.8548889,44.2158623 	"/>
	<rect x="79.5411377" y="62.9864693" class="st55" width="16.0715904" height="12.5827408"/>
	<rect x="91.2303696" y="61.6964951" class="st6" width="0.9000474" height="15.4373579"/>
	<rect x="83.7711258" y="61.6964951" class="st6" width="0.9000474" height="15.4373579"/>
	<polyline class="st34" points="72.1720886,45.6134262 74.1926346,44.0943985 74.1926346,36.7865219 71.8755035,36.7865219 
		70.9842987,45.1785507 	"/>
	<rect x="66.404274" y="37.0334473" class="st6" width="5.7678113" height="8.579978"/>
	<rect x="67.5030441" y="35.3117104" class="st53" width="7.4608502" height="1.7217346"/>
	<rect x="64.8547134" y="35.3117104" class="st34" width="7.4608502" height="1.7217346"/>
	<rect x="109.1079102" y="62.9864693" class="st6" width="4.9513302" height="14.1473808"/>
	<rect x="109.1079102" y="89.733078" class="st6" width="4.9513302" height="14.1473808"/>
	<rect x="45.2165871" y="117.0815506" class="st54" width="29.2609577" height="2.9601424"/>
	<rect x="45.2165871" y="100.9570618" class="st54" width="29.2609577" height="1.7352425"/>
	<rect x="49.081913" y="101.8246841" class="st54" width="1.1722674" height="16.2278061"/>
	<rect x="53.7088966" y="101.8246841" class="st54" width="1.1722674" height="16.2278061"/>
	<rect x="58.3358765" y="101.8246841" class="st54" width="1.1722674" height="16.2278061"/>
	<rect x="62.9628563" y="101.8246841" class="st54" width="1.1722674" height="16.2278061"/>
	<rect x="67.5898361" y="101.8246841" class="st54" width="1.1722674" height="16.2278061"/>
	<rect x="72.2168198" y="101.8246841" class="st54" width="1.1722674" height="16.2278061"/>
	<rect x="79.865921" y="88.5801849" class="st34" width="15.4213285" height="31.4615059"/>
	<rect x="80.8987656" y="89.6957321" class="st54" width="13.3556356" height="29.2304153"/>
	<polygon class="st54" points="132.04039,57.118679 119.2695007,57.118679 125.8711472,37.5045052 	"/>
	
		<rect x="34.630352" y="88.4674606" transform="matrix(-1 -4.934065e-11 4.934065e-11 -1 69.9242935 194.3496552)" class="st6" width="0.6635867" height="17.4147263"/>
	<path class="st0" d="M45.5888939,69.3320236l1.7182579,3.7438507l1.9499817-0.5369873
		c0.0223389-0.0041809,0.0346756-0.0037689,0.0346756-0.0037689l0.7122574-0.0477753l1.9190521-0.1283875l1.3035469-0.094696
		l1.0051384,0.048378c0.2688293,0.0040512,0.4936981-0.1537781,0.5735779-0.4027863l0.1964645-0.5634537l0.3552742-0.0720291
		c0.1240463-0.0205231,0.2320175-0.0761566,0.3211441-0.1595383c0.0918732-0.0907135,0.1580315-0.2242126,0.1752739-0.371666
		c0.024498-0.2903671-0.1763611-0.5561447-0.4554405-0.6222229l-0.2717934-0.0633545l0.7051849,0.0161362
		c0.3134956-0.0043411,0.5782509-0.2472076,0.5935211-0.5575943l0.0193138-0.2090988
		c0.0140839-0.2734375-0.1479225-0.5206451-0.4238892-0.6063309l-0.1197014-0.0360947l0.5503616-0.0038376
		c0.3085251-0.0020218,0.5686417-0.2549057,0.5812302-0.5579834l0.0032158-0.244194
		c0.0230446-0.3199921-0.2340355-0.602478-0.5567551-0.6181641l-2.6291809-0.1100006l-0.1994514-0.0115967
		c-0.3057938-0.0052719-0.6055183,0.0291519-0.907299,0.1251755c-0.1345062,0.0374374-0.2570877,0.0876236-0.3796539,0.1378403
		l-2.5484848,1.2424469l-1.104248,0.1852036L45.5888939,69.3320236z"/>
	<g>
		<path class="st0" d="M29.0105553,40.6592484l-0.6307831,6.5796356c-0.0339031,0.3536453,0.0074902,0.7144737,0.1277943,1.0477715
			c0.0889912,0.2308464,0.2088051,0.4470787,0.3597107,0.6429405c0.0255375,0.0375481,0.1233177,0.1171227,0.2534084,0.2231865
			l-0.6680202,6.9680634l3.9594288,0.3795853l0.5385284-5.6173401c0.0427055-0.0193329,0.0967369-0.0316849,0.150486-0.0440979
			c0.5133705-0.167244,0.9726639-0.5034637,1.2871056-0.9764709c0.5512886-0.8071327,0.8858643-1.73452,0.9786758-2.7026176
			l0.3301163-3.4434471c0,0,0.2838287-1.6167297-1.300972-2.5409126L29.0105553,40.6592484z"/>
		<path class="st1" d="M28.7016907,43.8555412l-0.2935562,3.0620461c0.22859-0.085392,0.3960171-0.3010521,0.4207001-0.5585365
			l0.1803131-1.880825C29.0338326,44.2207451,28.909893,43.9828033,28.7016907,43.8555412z"/>
		<path class="st3" d="M28.5838528,46.052433c0.0557709-0.3983345,0.1146488-0.7893486,0.1907558-1.1848717
			c0.005188-0.0269585,0.0107651-0.0548515,0.0267067-0.0772057c0.0618477-0.0867271,0.4745235-0.0408363,0.5746002-0.0454979
			c0.2134686-0.7548866,0.391922-1.5196724,0.5345974-2.2910805c0.0917988,0.419384,0.5722523,0.7084618,0.9857807,0.5931206
			s0.6750069-0.6113548,0.5364933-1.0177078c1.2535305,0.6599083,2.6684971,1.0104256,4.0851154,1.0119743
			c0.053894,0.4790306,0.0586853,0.9480133,0.0578423,1.4266319c-0.0001488,0.0862389,0.0531845,0.4769707-0.0011215,0.5325508
			c0.5306244-0.5430336,0.8858528-1.1905098,1.2931252-1.8163948c0.1463661-0.2249336,0.2522812-0.4958382,0.1995354-0.7589684
			c-0.0726547-0.3624268-0.4800911-0.6196022-0.8385239-0.5292816c0.3513603-0.209343,0.7146149-0.4416466,0.9068756-0.802639
			c0.1922607-0.3609886,0.1372871-0.88657-0.2211151-1.0836143c-0.151268-0.0831642-0.3301353-0.0965424-0.502697-0.1010933
			c-0.2075768-0.0054779-0.4154167-0.0007858-0.6225319,0.0140495c0.2151642-0.2725029,0.44207-0.5812683,0.4150887-0.9274254
			c-0.0115242-0.1478615-0.0704155-0.2894707-0.1534195-0.4123802c-0.3591728-0.5318565-1.0839767-0.6582336-1.7257576-0.6581039
			c-0.7026558,0.0001411-1.3289871,0.1806602-2.0036049,0.2828751c-0.6963291,0.1055031-1.4083767,0.0516548-2.1087818,0.108799
			c-0.3116322,0.025425-0.6345406,0.0623817-0.9011974,0.225647c-0.2666588,0.163269-0.4596329,0.4889832-0.3719807,0.7891159
			c-0.1749077-0.1565666-0.4224987-0.3407059-0.6623688-0.3708115c-0.3338528-0.0419044-0.6582432,0.1716042-0.8459625,0.4508476
			c-0.460762,0.6854172-0.5010643,1.6839752-0.5630264,2.4794731c-0.0710201,0.911808-0.0705833,1.8292007,0.0020523,2.7408943
			c0.033186,0.4165459,0.0526352,0.8611603,0.2895794,1.2074852c0.1558914,0.2278595,0.3256893,0.4474106,0.4881878,0.6706047
			c0.243721,0.3347511,0.4874401,0.6695023,0.731163,1.0042572C28.4474583,47.0265999,28.5156555,46.5395164,28.5838528,46.052433z"
			/>
		<path class="st1" d="M32.8694954,51.6870308l0.0774841-0.8082008c-0.0331917,0.1940193-2.091114-0.7314453-2.326786-0.9415436
			c-0.1333847-0.0482941-0.2247429,0.1347961-0.1059551,0.2123375
			C31.1059017,50.8618507,31.8821659,51.3834305,32.8694954,51.6870308z"/>
		<path class="st0" d="M29.0304337,44.2631531l-0.1802235,1.8799095c-0.0354366,0.3696327-0.3634834,0.6402817-0.7331142,0.604847
			c-0.3696289-0.0354347-0.6402779-0.3634834-0.6048412-0.7331161l0.1802254-1.8799095
			c0.0177174-0.1848183,0.1086559-0.344223,0.2410641-0.4539337c0.1328793-0.1091576,0.3071804-0.1680984,0.4919949-0.1503792
			C28.7951698,43.5660057,29.0658207,43.8940506,29.0304337,44.2631531z"/>
		<path class="st4" d="M33.0773621,46.2409172l0.3721695,0.5638275c0.097271,0.1473618,0.0550842,0.3458252-0.0937157,0.4408798
			l-0.3992233,0.2550316"/>
		<path class="st5" d="M33.0159302,48.2200394c-0.0249901-0.0208702-0.0499802-0.0417442-0.0805359-0.062809
			c-0.2538376-0.1715012-0.5659294-0.1452255-0.8459549-0.0551071c-0.1038589,0.0306015-0.202343,0.0728874-0.2894783,0.1155014
			c-0.0029545,0.0027542-0.0086613,0.0025558-0.0116158,0.0053101c-0.0029526,0.0027542-0.0086594,0.0025558-0.0116138,0.0053101
			c-0.0812283,0.0371056-0.1568813,0.0801888-0.229847,0.126152c-0.0204735,0.0135727-0.0379944,0.0243912-0.0583973,0.037899
			c-0.0175209,0.0108185-0.0407505,0.0214386-0.0557156,0.0409203c-0.0059052,0.0055084-0.009058,0.0139732-0.0065022,0.0226326
			c-0.0031528,0.008461,0.0022888,0.0142975,0.0022297,0.0200081c0.0105534,0.023159,0.0358677,0.0326805,0.0554218,0.0475807
			c0.0138988,0.0091248,0.033577,0.018383,0.0474815,0.0273705c0.0391598,0.0242233,0.0782528,0.0483742,0.1174107,0.0725937
			c0.0476227,0.0273781,0.0951767,0.0546799,0.1397076,0.0848045c0.0531292,0.0332794,0.1034393,0.0635376,0.1538162,0.0938644
			c0.0560169,0.0304565,0.1063919,0.0607834,0.1593857,0.094059c0.0503731,0.0303307,0.1006851,0.060585,0.1509933,0.0908432
			c0.0476227,0.0273743,0.0922241,0.0574303,0.1397743,0.0848732c0.0391617,0.0240822,0.0782509,0.0483742,0.1174088,0.0725937
			c0.0335846,0.0182457,0.0615273,0.0363617,0.0894699,0.0544815c0.0196114,0.0091858,0.0335846,0.0182419,0.0503082,0.0302544
			c0,0,0,0,0.0027542,0.0029526c0.011219,0.0061073,0.064209,0.0393829,0.1174736,0.0668869
			c0.0531311,0.0332794,0.1034393,0.0635376,0.1034393,0.0635376
			C33.0406456,49.3112984,33.4952393,48.6392059,33.0159302,48.2200394z"/>
		<path class="st6" d="M32.7699051,49.299015l0.1182823-0.1985474c0.0544777-0.0894661,0.0243988-0.2103844-0.0649948-0.2649307
			l-1.0232315-0.6179123c-0.0029545,0.0027542-0.0086613,0.0025558-0.0116158,0.0053101
			c-0.0029526,0.0027542-0.0086594,0.0025558-0.0116138,0.0053101c-0.0812283,0.0371056-0.1568813,0.0801888-0.229847,0.126152
			c-0.0204735,0.0135727-0.0379944,0.0243912-0.0583973,0.037899c-0.0175209,0.0108185-0.0407505,0.0214386-0.0557156,0.0409203
			c-0.0059052,0.0055084-0.009058,0.0139732-0.0065022,0.0226326c-0.0031528,0.008461,0.0022888,0.0142975,0.0022297,0.0200081
			c0.0105534,0.023159,0.0358677,0.0326805,0.0554218,0.0475807c0.0138988,0.0091248,0.033577,0.018383,0.0474815,0.0273705
			c0.0391598,0.0242233,0.0782528,0.0483742,0.1174107,0.0725937c0.0476227,0.0273781,0.0951767,0.0546799,0.1397076,0.0848045
			c0.0531292,0.0332794,0.1034393,0.0635376,0.1538162,0.0938644c0.0560169,0.0304565,0.1063919,0.0607834,0.1593857,0.094059
			c0.0503731,0.0303307,0.1006851,0.060585,0.1509933,0.0908432c0.0476227,0.0273743,0.0922241,0.0574303,0.1397743,0.0848732
			c0.0391617,0.0240822,0.0782509,0.0483742,0.1174088,0.0725937c0.0335846,0.0182457,0.0615273,0.0363617,0.0894699,0.0544815
			c0.0196114,0.0091858,0.0335846,0.0182419,0.0503082,0.0302544c0,0,0,0,0.0027542,0.0029526
			C32.6636505,49.2382355,32.7166405,49.2715111,32.7699051,49.299015z"/>
		<path class="st1" d="M28.111742,44.2112885l-0.0515175,0.5373764l0.4705391,0.276825l0.0735302-0.766983
			c0.0128784-0.134346-0.0883217-0.2570076-0.2226658-0.269886C28.247282,43.9757423,28.1246204,44.0769424,28.111742,44.2112885z"
			/>
		<path class="st1" d="M28.48032,45.5516586L28.007082,45.30299l-0.048296,0.5037575
			c-0.0128784,0.134346,0.0883217,0.2570076,0.2226658,0.269886c0.1343441,0.0128822,0.2570076-0.0883179,0.269886-0.2226639
			L28.48032,45.5516586z"/>
		<path class="st5" d="M43.2246399,120.5520325l-8.3392448,0.4267426c-0.4121513,0.0210953-0.7633629-0.2959213-0.7844543-0.7080765
			l-0.0311737-0.6091995l9.8060112-1.0065231l0.0569382,1.1126022
			C43.9538078,120.1797256,43.6367912,120.5309372,43.2246399,120.5520325z"/>
		<path class="st5" d="M17.6660194,116.8560715l0.0967999,1.8916016c-0.281105,0.3157196-0.5500736,0.6491394-0.8453674,0.9511566
			c-0.2930183,0.2996979-0.8145084,0.2372589-1.0730124,0.5824203c-0.1019239,0.1360931-0.133028,0.3116455-0.1490803,0.4809113
			c-0.0455179,0.4799957-0.0463896,1.0829391,0.2494764,1.4896088c0.2441273,0.335556,0.6493607,0.5294342,1.0638294,0.5082245
			c0.0012341-0.000061,3.8374825-0.196373,3.8374825-0.196373c0.385952-0.0197525,0.725666-0.2609253,0.8715935-0.6187744
			l0.1620808-0.3974533l0.2508869-0.0551224c0.2833481-0.0622559,0.5059013-0.2814636,0.5724411-0.5638351l0.1137333-0.4826355
			l-0.2258663-4.4137344"/>
		<path class="st24" d="M32.2856483,59.0993843l0.0586777,1.1807022c0.0417099,0.9296417,0.083622,1.8591805,0.1255341,2.7803345
			c0.0335312,0.7537079,0.0838242,0.6280746,0.6865463,0.8793449c0.8206673,0.3516541,0.7538109,1.5408478,0.7286644,2.2777939
			c-0.050293,1.2309952,0.2428894,2.5374374,0.5193062,3.7516785c0.259449,1.1556549,0.7033119,2.3364639,1.4990387,3.24086
			c0.7116928,0.8206635,1.7081871,1.406929,2.7885094,1.5324631c0.3768044,0.0419083,0.7619896,0.0251465,1.1389961,0.0083771
			c1.8674583-0.1004868,3.6678543-0.401947,5.5101662-0.711792c0.3267136-0.0585785,4.7316132-0.8206711,4.7399979-0.7285614
			c-0.2345085-1.7251587-0.309948-3.5339432-0.3183327-5.2674866c-0.4604225,0.0503006-0.9126701,0.1089783-1.3732986,0.1424026
			c-2.5039139,0.259552-5.0245934,0.3935699-7.5452728,0.4103317c-0.050293,0-0.1089706,0-0.1422958-0.0334244
			c-0.0419121-0.0335312-0.0586777-0.0922089-0.0670624-0.1424026c-0.175827-1.0467911-0.1925926-2.1187286-0.309948-3.1738968
			c-0.1674461-1.4822731-0.3013611-2.9644432-0.4690094-4.4467163c-0.2093582-1.9512825,0.1173553-3.952652-2.0349045-4.9492493
			c-0.2345047-0.1088715-0.485569-0.1843147-0.745224-0.2261238c-0.2428894-0.0501938-0.4941597-0.0669594-0.7536087-0.0585747
			l-0.2847977,0.0167618l-0.5276909,0.0166626c-0.3516541,0.0167656-0.6865463,0.083725-1.0048752,0.2010803
			C33.1564064,56.2855186,32.2269707,57.5919647,32.2856483,59.0993843z"/>
		<path class="st25" d="M38.5412445,58.9905128l-1.6916313,12.3521233l2.4452362,2.4285736l9.0526924-1.0384064
			c0,0,0.0167656-1.9680481,0.0419121-4.5473022c-2.5039139,0.259552-5.0245934,0.3935699-7.5452728,0.4103317
			c-0.050293,0-0.1089706,0-0.1422958-0.0334244c-0.0419121-0.0335312-0.0586777-0.0922089-0.0670624-0.1424026
			c-0.175827-1.0467911-0.1925926-2.1187286-0.309948-3.1738968c-0.1674461-1.4822731-0.3013611-2.9644432-0.4690094-4.4467163
			c-0.2093582-1.9512825,0.1173553-3.952652-2.0349045-4.9492493c-0.2345047-0.1088715-0.485569-0.1843147-0.745224-0.2261238
			l-0.2261238,3.7350159L38.5412445,58.9905128z"/>
		<path class="st37" d="M32.3412361,60.2811241l0.1609192,3.5338707l0.4634361-0.0193291l2.3108902-0.1029739
			c-0.3540573,0.8882484-0.5665245,1.6092186-0.5665245,2.5811501c0,0.9913025,0,1.8345261,0.2639313,2.7936172
			c0.083683,0.3025131,0.4119682,1.525528,0.8174973,3.0446243l0.8496284-6.881012l1.378231-4.6960297
			c0.1134148-0.3864441-0.3336296-0.6924782-0.6528587-0.4469223l-1.2467155,0.958992L32.3412361,60.2811241z"/>
		<path class="st15" d="M17.627779,116.1088181l0.0967999,1.8916016l-1.740839,1.9552002
			c-0.216135,0.2427444-0.3280001,0.5608368-0.311389,0.885437l0,0c0.0349007,0.6820068,0.6160688,1.2065887,1.2980738,1.1716919
			l3.8374825-0.1963806c0.3859539-0.0197525,0.725666-0.2609253,0.8715954-0.6187744l0.1620808-0.3974533l0.2508869-0.0551224
			c0.2833462-0.0622559,0.5058994-0.2814636,0.5724411-0.5638351l0.1137314-0.4826355l-0.2258663-4.4137344"/>
		<path class="st15" d="M37.4332428,115.6242828l4.4409943,2.0492096l1.0159569,0.0291672
			c0.562561,0.0161514,1.0049591,0.4862595,0.9869461,1.0487671l0,0c-0.016922,0.5284729-0.4361115,0.9557495-0.9641647,0.9827728
			l-8.3323975,0.4263992c-0.2712936,0.0138855-0.5024719-0.1947861-0.5163536-0.4660797l-0.0149765-0.2926559l-0.4519615-0.6989365
			c-0.3026123-0.4679871-0.329628-1.062706-0.070694-1.5562057l0.4319725-0.8232651L37.4332428,115.6242828z"/>
		<path class="st24" d="M21.4577084,75.6302872c0.0584736,0.0251465,0.2929783,0.083725,0.6949291,0.1339111
			c0.3851871,0.0586777,0.9044933,0.1173553,1.5409489,0.1759338c3.106842,0.3014603,8.6924496,0.5275879,11.7657604-0.5694962
			c-0.0500908-0.2177429-0.0500908-0.6866531-0.0249443-1.3314896c0-0.1424026,0.0081787-0.2930832,0.0167656-0.4437637
			c0.0081787-0.2177429,0.0249443-0.4438629,0.0417061-0.6867523c0.1173553-1.8506927,0.3518639-4.471962,0.6280746-7.109787
			c0.1925926-1.8842239,0.4019508-3.760067,0.5945473-5.3763542c0.3267097-2.6127853,0.57798-4.5053902,0.6448364-4.5053902
			c0.0335312-0.1506805,0.3937721-0.0585747,0.4606285-0.0585747v-0.0083809c0,0-0.0167656-0.0083847-0.0333252-0.0167656
			c-0.1005898-0.0669594-1.3232079-0.8122864-2.5376472-1.5240822c-0.1506805-0.0922089-0.3013611-0.1842117-0.4520416-0.2680359
			v-0.0083847c-1.0887032-0.6364555-2.0349045-1.1639404-2.0516701-1.0886993
			c-0.3350945,2.3197021-4.1035385,1.8926048-3.9444752-0.4437637l-0.2512722,0.0669594l-7.7711906,2.2526436l0.4019508,1.4236946
			c-0.1590614,1.6330566-0.268034,3.2576256-0.351656,4.8403816c-0.0085869,0.1256371-0.0167637,0.2427864-0.0167637,0.3685265
			C20.5949249,66.4185333,20.7541924,71.1667099,21.4577084,75.6302872z"/>
		<path class="st37" d="M21.4564762,75.6266251c0.057909,0.0321732,0.2961483,0.0836792,0.6951523,0.1415863
			c0.2149105,0.0322418,0.471632,0.0644836,0.7657642,0.0967178c0.3634663,0.0398331,0.6514263-0.3082581,0.5416336-0.6570282
			l-1.9782333-6.2841339c-0.0324879-0.1032028-0.0311432-0.2140808,0.0038395-0.3164673l0.3704605-1.0842514
			c0.0088863-0.0260086,0.0198708-0.0512466,0.0328445-0.0754776l3.2325516-6.0368958
			c0.2209911-0.4127045-0.1870995-0.8790588-0.6254768-0.7147751l-1.9656143,0.7366219
			c-0.0582123,0.0218163-0.1199398,0.0327492-0.1821041,0.0322571l-1.0408802-0.0082359
			c-0.2748013-0.0021744-0.5034733,0.2165909-0.5141926,0.4911919
			C20.6052608,66.7371826,20.7782154,71.3142471,21.4564762,75.6266251z"/>
		<path class="st7" d="M16.4832058,117.3009186l6.3729496-0.3266068l0.7787552-1.2059555l0.2261219-0.3516617
			c0.1089725-0.175827,0.2009754-0.3601379,0.2680359-0.5527344c0.3348904-0.7956161,0.3181267-1.6999054-0.0335293-2.4955292
			l-0.5025425-1.2143402l0.8122845-3.9861832l0.7370472-3.6092758l1.7251587-8.4496613l0.611311-3.0064621l0.0081768-0.0501862
			l0.3434792-1.6246719l0.1925926-0.9964981l0.4103336,2.2526398l3.4922314,19.50383l-0.2428894,1.2226181
			c-0.2261219,1.1641464,0.2007713,2.361618,1.1052647,3.1236115l1.0384064,0.8793411l1.1974716-0.1339188l4.8320007-0.5611115
			l-0.1925926-1.800499l-0.3768044-3.5590897l-0.0167656-0.1422958l-1.3900642-13.1393661l-0.1674461-1.5408478
			l-0.7787552-7.2438049l-0.3602409-3.416687l-0.3348923-3.1319885l-0.2848015-2.6128922l-0.3265076-3.0481567l-0.0083809-0.1173553
			l-0.0419121-0.4521484l-0.083828-0.7453232l-14.0437527,0.7201767l-0.4101295,0.7034149
			c-1.1306152,1.9009857-1.800602,4.0448608-1.9596634,6.2556992l-0.2596531,3.5339355l-0.5444546,7.3023834l-0.2343006,3.01474
			L16.4832058,117.3009186z"/>
		<path class="st8" d="M18.2790127,93.2817383c0.8406563-3.9906693,2.0322933-10.4662628,2.0322933-10.4662628l1.9427719-4.8358002
			c0.3750496-0.9335403,1.2230015-1.5933914,2.2200756-1.7276001l11.0145893-1.4825516l-14.0412254,0.7205048l-0.4064579,0.7020721
			c-1.1269665,1.9029541-1.8012962,4.0460892-1.9583759,6.2538986l-0.258625,3.5380325L18.2790127,93.2817383z"/>
		<path class="st8" d="M35.0275726,116.2773056l-1.1984558,0.1360016l-1.0404968-0.8804398
			c-0.9054832-0.7655106-1.3287373-1.9599304-1.1065159-3.1250763l0.2313709-1.2166901l-3.8857021-21.7552948l1.3264313-3.4534683
			c0.1146317-0.2984543,0.5517578-0.2467651,0.5936127,0.0701981l3.2788067,24.8299408
			C33.2266235,110.8824768,32.5823555,114.1134262,35.0275726,116.2773056z"/>
		<path class="st52" d="M30.8343296,82.7323532c0.0176716,0,0.026535,0.0088654,0.0353985,0.0265884l-0.026535-0.0354538
			L30.8343296,82.7323532z"/>
		<path class="st0" d="M17.1111298,73.796608l2.8073235,3.6709595l0.8825474,2.2851105l0.4414864,1.1425476l0.2466011,0.9052277
			c0.0653782,0.2332611,0.2695122,0.3934631,0.5099621,0.3976288l0.5574818,0.0120621l0.1608067,0.3052444
			c0.0455303,0.1006393,0.1299725,0.1796646,0.2234497,0.2343063c0.1116161,0.058609,0.2484512,0.0794525,0.3804531,0.0539856
			c0.2685852-0.0631714,0.4476433-0.3102264,0.4256248-0.5772781l-0.0150089-0.256073l0.1829319,0.6308365
			c0.0876102,0.2777863,0.3745823,0.4468918,0.659956,0.3761063l0.1881638-0.048912
			c0.2453957-0.0607452,0.4218197-0.2782593,0.4184055-0.5355377l-0.0004959-0.1170273l0.1620178,0.4866333
			c0.0868607,0.2719727,0.3784237,0.4289093,0.6581421,0.3587189l0.2106075-0.0571213
			c0.2963657-0.0777893,0.4693775-0.3827515,0.3922977-0.6733322l-0.6215706-2.3650284l-0.0478764-0.1765137
			c-0.075264-0.2731857-0.1963081-0.5357666-0.3555164-0.7709198c-0.0700722-0.1097946-0.1505299-0.2067871-0.2366428-0.3031845
			l-1.8041229-1.9137192l-1.1645088-1.787262l-0.8441334-1.2995682L17.1111298,73.796608z"/>
		<polygon class="st1" points="17.1111298,73.796608 19.9184532,77.4675674 20.8010006,79.7526779 20.4482365,77.1791992 
			22.3736458,75.0740662 21.5295124,73.774498 		"/>
		<path class="st24" d="M14.4016991,69.9493027l3.8942547,7.6856155l4.5573502-2.8579636l-0.1738071-0.4055252l-0.012888-0.0450668
			l-0.0322151-0.07724l-0.045023-0.11586l-1.950388-4.8469315l0.5600033-1.4290085l0.9076195-2.3237l0.7015972-1.789463
			l0.0965672-0.238163l1.6092167-4.1710739c0.199501-0.5084991,0.2703762-1.0427704,0.225275-1.5577087
			c-0.128706-1.1779594-0.8818474-2.259346-2.0533218-2.7485542c-0.019331-0.012886-0.0451031-0.0257339-0.083683-0.03862
			c-0.7981644-0.3089561-1.6414318-0.2961082-2.3816872-0.0193291c-0.0321369,0.012886-0.0836029,0.0322151-0.1158199,0.045063
			c-0.8239365,0.3411713-1.5062809,1.0041466-1.8602619,1.89888l-1.7057858,4.383503c0,0-1.4805088,3.4759216-2.297925,5.6387024
			C13.8739109,67.9216766,13.9252987,69.0095062,14.4016991,69.9493027z"/>
		<line class="st4" x1="25.1794529" y1="82.2781525" x2="24.6655445" y2="80.0971603"/>
		<line class="st4" x1="23.7645454" y1="82.0864639" x2="23.6033859" y2="80.5427094"/>
		<line class="st4" x1="22.5575161" y1="82.2088242" x2="22.3271847" y2="81.2636414"/>
	</g>
	<path class="st25" d="M22.9481583,68.9559784c0,0,1.6078033,4.6895981,1.976429,4.8152313
		c0.9042892,0.3181305,2.6378307-0.1675491,3.5674706-0.2512665c2.3364677-0.1925964,4.6643486-0.4103394,7.0008163-0.6113129
		c0.1173553-1.8506927,0.3518639-4.471962,0.6280746-7.109787c0.1925926-1.8842239,0.4019508-3.760067,0.5945473-5.3763542
		c0.3267097-2.6127853,0.57798-4.5053902,0.6448364-4.5053902c0.0335312-0.1506805,0.3937721-0.0585747,0.4606285-0.0585747
		v-0.0083809c0,0-0.0167656-0.0083847-0.0333252-0.0167656c-0.1005898-0.0669594-1.3232079-0.8122864-2.5376472-1.5240822
		l-8.6253891,3.416687v4.162014L22.9481583,68.9559784z"/>
	<path class="st9" d="M31.6994877,85.6291809l3.3243771,26.8565063c0,0,2.2696114-1.214241,4.2458382-2.2694092
		l-1.3900642-13.1393661l-0.1674461-1.5408478l-0.7787552-7.2438049l-0.3602409-3.416687l-0.3348923-3.1319885
		L31.6994877,85.6291809z"/>
	<path class="st9" d="M20.2097378,115.2826767l3.9193306-0.4187164c0.3348904-0.7956161,0.3181267-1.6999054-0.0335293-2.4955292
		l-0.5025425-1.2143402l0.8122845-3.9861832l0.7370472-3.6092758l1.7251587-8.4496613l0.611311-3.0064621l0.0081768-0.0501862
		l0.0253525-0.6113129c0,0-6.2474155,3.3831558-6.2474155,3.7014847
		C21.2649117,95.4606247,20.2097378,115.2826767,20.2097378,115.2826767z"/>
	<line class="st101" x1="20.6389828" y1="69.2863312" x2="18.9514809" y2="69.0834503"/>
	<line class="st39" x1="40.6997833" y1="68.5628891" x2="39.2697029" y2="70.0970917"/>
	<path class="st18" d="M29.682827,85.717598c0.1305885-3.139679,0.0868969-6.2865982-0.1308041-9.4214401"/>
	<path class="st18" d="M27.3891392,75.8957291c-0.0560322,2.7925339,0.0577126,5.5884628,0.3403988,8.367218
		c0.0291214,0.2862625,0.0666199,0.5891495,0.2449284,0.8149796c0.1783085,0.2258377,0.5492401,0.3241043,0.7551346,0.1231003"/>
	<path class="st93" d="M76.2719421,44.2185555c4.9798965,2.8321953,9.6894073,7.8396988,10.3013077,10.1941185"/>
	<path class="st93" d="M58.478466,54.7607155c0,0,1.8565407-5.5439682,5.2119484-9.2818947"/>
	<g>
		<path class="st40" d="M52.0841713,71.7517014l0.7790146,0.7972031l32.4327431-0.6052628l4.0030441-17.4877892
			l-0.7790146-0.7972031c0,0-0.6262512,0.5590897-0.9119492,0.8273697l-30.7337151,0.5743713l-3.6723671,16.0214958
			c-0.0160713-0.0410004-0.0207481-0.0660095-0.0207481-0.0660095
			C53.1646843,71.0175858,52.0841713,71.7517014,52.0841713,71.7517014z"/>
		<polygon class="st11" points="52.0834007,71.7476425 84.5112228,71.1411362 88.5186386,53.6560364 56.0908165,54.2625389 		"/>
		<polygon class="st13" points="53.1541023,70.8865433 54.3263016,70.8674393 77.207634,70.4328995 83.8283386,70.3098984 
			87.4425735,54.5159492 84.9479599,54.5611801 67.55616,54.8875732 56.7763901,55.0917549 		"/>
		<path class="st129" d="M54.3263016,70.8674393l22.8813324-0.4345398
			c2.1756516-4.4446564,5.4802475-11.2053299,7.7403259-15.8717194L67.55616,54.8875732L54.3263016,70.8674393z"/>
		<text transform="matrix(0.7539703 0.0403876 -0.15184 0.98841 60.3358688 66.1125946)" class="st6 st130 st131">SALE</text>
	</g>
	<path class="st0" d="M52.6824341,67.2673492l2.6016617-0.774559c0.3232307-0.1081696,0.6658363,0.1014404,0.7166824,0.4384766
		c0.0425301,0.281929-0.1379623,0.5494537-0.4153099,0.6155777l-3.6750793,2.0766068
		c-0.163826-0.1290741-0.3124161-0.316864-0.361187-0.5196457c-0.0487671-0.2027817,0.0220108-0.4436417,0.2036896-0.5460663"/>
	<rect x="87.2024002" y="89.1741257" class="st34" width="0.7483691" height="30.6432495"/>
	<path class="st34" d="M89.8435669,103.480957v2.2274933c0,0.2512741-0.2093582,0.4690094-0.4690094,0.4690094
		c-0.2510681,0-0.4604263-0.2177353-0.4604263-0.4690094v-2.2274933c0-0.2596588,0.2093582-0.469017,0.4604263-0.469017
		C89.6342087,103.01194,89.8435669,103.2212982,89.8435669,103.480957z"/>
	<polygon class="st54" points="105.3680191,57.118679 101.0124512,41.1999741 85.8548889,41.5779305 102.3520584,57.1206169 	"/>
	<line class="st97" x1="41.8136177" y1="87.4147644" x2="73.9527893" y2="87.4147644"/>
</g>
</svg>
