<?xml version="1.0" encoding="utf-8"?>
<!-- Generator: Adobe Illustrator 22.0.1, SVG Export Plug-In . SVG Version: 6.00 Build 0)  -->
<svg version="1.1" id="Layer_1" xmlns="http://www.w3.org/2000/svg" xmlns:xlink="http://www.w3.org/1999/xlink" x="0px" y="0px"
	 viewBox="0 0 156 156" style="enable-background:new 0 0 156 156;" xml:space="preserve">
<style type="text/css">
	.st0{fill:#FFD9B2;}
	.st1{fill:#F7AC76;}
	.st2{fill:none;stroke:#3643C3;stroke-width:0.5;stroke-linecap:round;stroke-linejoin:round;stroke-miterlimit:10;}
	.st3{fill:#233764;}
	.st4{fill:none;stroke:#F7AC76;stroke-width:0.5;stroke-linecap:round;stroke-linejoin:round;stroke-miterlimit:10;}
	.st5{fill:#161718;}
	.st6{fill:#FFFFFF;}
	.st7{fill:#F06449;}
	.st8{fill:#BE412D;}
	.st9{fill:#FE8E60;}
	.st10{fill:#7D4C47;}
	.st11{fill:#4456D6;}
	.st12{fill:#203881;}
	.st13{fill:#6582FC;}
	.st14{fill:#DDA103;}
	.st15{fill:#FBC32E;}
	.st16{fill:none;stroke:#DDA103;stroke-width:0.5;stroke-miterlimit:10;}
	.st17{fill:#FBE6BB;}
	.st18{fill:none;stroke:#BE412D;stroke-width:0.5;stroke-linecap:round;stroke-linejoin:round;stroke-miterlimit:10;}
	.st19{fill:none;stroke:#F06449;stroke-width:0.5;stroke-linecap:round;stroke-linejoin:round;stroke-miterlimit:10;}
	.st20{fill:#F34B4B;}
	.st21{fill:#FC7070;}
	.st22{fill:none;stroke:#FFFFFF;stroke-miterlimit:10;}
	.st23{fill:#FC9F9F;}
	.st24{fill:#408A6F;}
	.st25{fill:#64B48D;}
	.st26{fill:none;stroke:#FBE6BB;stroke-width:0.5;stroke-linecap:round;stroke-linejoin:round;stroke-miterlimit:10;}
	.st27{fill:none;stroke:#F7AC76;stroke-width:0.25;stroke-linecap:round;stroke-linejoin:round;stroke-miterlimit:10;}
	.st28{fill:#A0665A;}
	.st29{fill:#6C3F44;}
	.st30{fill:none;stroke:#6C3F44;stroke-width:0.5;stroke-linecap:round;stroke-linejoin:round;stroke-miterlimit:10;}
	.st31{fill:none;stroke:#7D4C47;stroke-width:0.5;stroke-linecap:round;stroke-linejoin:round;stroke-miterlimit:10;}
	.st32{fill:none;stroke:#F34B4B;stroke-width:0.5;stroke-linecap:round;stroke-linejoin:round;stroke-miterlimit:10;}
	.st33{fill:none;stroke:#FC7070;stroke-width:0.5;stroke-linecap:round;stroke-linejoin:round;stroke-miterlimit:10;}
	.st34{fill:#EAE8F3;}
	.st35{fill:#40304A;}
	.st36{fill:none;stroke:#43334E;stroke-linecap:round;stroke-linejoin:round;stroke-miterlimit:10;}
	.st37{fill:#32775B;}
	.st38{fill:none;stroke:#233764;stroke-width:0.5;stroke-linecap:round;stroke-linejoin:round;stroke-miterlimit:10;}
	.st39{fill:none;stroke:#408A6F;stroke-width:0.5;stroke-linecap:round;stroke-linejoin:round;stroke-miterlimit:10;}
	.st40{fill:#3643C3;}
	.st41{opacity:0.56;fill:url(#SVGID_1_);}
	.st42{opacity:0.52;fill:#FBC32E;}
	.st43{opacity:0.56;fill:url(#SVGID_2_);}
	.st44{fill:none;stroke:#EAE8F3;stroke-width:0.5;stroke-linecap:round;stroke-linejoin:round;stroke-miterlimit:10;}
	.st45{fill:#FEFFFD;}
	.st46{opacity:0.35;fill:#32775B;}
	.st47{fill:#43334E;}
	.st48{fill:none;stroke:#EAE8F3;stroke-width:0.25;stroke-linecap:round;stroke-linejoin:round;stroke-miterlimit:10;}
	.st49{fill:none;stroke:#FBC32E;stroke-width:0.5;stroke-linecap:round;stroke-linejoin:round;stroke-miterlimit:10;}
	.st50{fill:none;stroke:#161718;stroke-width:0.5;stroke-linecap:round;stroke-linejoin:round;stroke-miterlimit:10;}
	.st51{fill:none;stroke:#40304A;stroke-linecap:round;stroke-linejoin:round;stroke-miterlimit:10;}
	.st52{opacity:0.33;fill:#FBC32E;}
	.st53{fill:#A6A3AE;}
	.st54{fill:#5B4B68;}
	.st55{fill:#776688;}
	.st56{fill:none;stroke:#FBC32E;stroke-width:0.5;stroke-miterlimit:10;}
	.st57{fill:none;stroke:#EAE8F3;stroke-linecap:round;stroke-linejoin:round;stroke-miterlimit:10;}
	.st58{fill:none;stroke:#203881;stroke-width:2;stroke-linecap:round;stroke-linejoin:round;stroke-miterlimit:10;}
	.st59{fill:none;stroke:#40304A;stroke-width:2;stroke-linecap:round;stroke-linejoin:round;stroke-miterlimit:10;}
	.st60{fill:#FFD8B7;}
	.st61{fill:#F4E4D4;}
	.st62{fill:none;stroke:#4456D6;stroke-width:0.5;stroke-linecap:round;stroke-linejoin:round;stroke-miterlimit:10;}
	.st63{fill:none;stroke:#DDA103;stroke-width:0.25;stroke-miterlimit:10;}
	.st64{fill:none;stroke:#FFFFFF;stroke-width:0.5;stroke-linecap:round;stroke-linejoin:round;stroke-miterlimit:10;}
	.st65{fill:none;stroke:#64B48D;stroke-width:0.5;stroke-linecap:round;stroke-linejoin:round;stroke-miterlimit:10;}
	.st66{fill:none;stroke:#64B48D;stroke-linecap:round;stroke-linejoin:round;stroke-miterlimit:10;}
	.st67{opacity:0.48;fill:#64B48D;}
	.st68{fill:none;stroke:#64B48D;stroke-width:0.25;stroke-linecap:round;stroke-linejoin:round;stroke-miterlimit:10;}
	.st69{fill:none;stroke:#F06449;stroke-width:2;stroke-linecap:round;stroke-linejoin:round;stroke-miterlimit:10;}
	.st70{opacity:0.92;fill:#64B48D;}
	.st71{opacity:0.57;fill:#408A6F;}
	.st72{opacity:0.36;fill:#408A6F;}
	.st73{fill:none;stroke:#BE412D;stroke-width:2;stroke-linecap:round;stroke-linejoin:round;stroke-miterlimit:10;}
	.st74{opacity:0.65;fill:none;stroke:#408A6F;stroke-width:0.25;stroke-linecap:round;stroke-linejoin:round;stroke-miterlimit:10;}
	.st75{opacity:0.67;fill:none;stroke:#64B48D;stroke-width:0.25;stroke-linecap:round;stroke-linejoin:round;stroke-miterlimit:10;}
	.st76{opacity:0.98;fill:#64B48D;}
	.st77{fill:none;stroke:#408A6F;stroke-width:0.25;stroke-linecap:round;stroke-linejoin:round;stroke-miterlimit:10;}
	.st78{fill:none;stroke:#FFD9B2;stroke-width:0.5;stroke-linecap:round;stroke-linejoin:round;}
	
		.st79{fill:none;stroke:#FFD9B2;stroke-width:0.5;stroke-linecap:round;stroke-linejoin:round;stroke-dasharray:4.0333505,4.0333505;}
	.st80{fill:#E68B4A;}
	.st81{opacity:0.62;fill:#64B48D;}
	.st82{fill:none;stroke:#FBC32E;stroke-width:0.25;stroke-miterlimit:10;}
	.st83{fill:none;stroke:#4456D6;stroke-linecap:round;stroke-linejoin:round;stroke-miterlimit:10;}
	.st84{fill:none;stroke:#E68B4A;stroke-width:0.5;stroke-linecap:round;stroke-linejoin:round;stroke-miterlimit:10;}
	.st85{fill:none;stroke:#203881;stroke-width:0.5;stroke-linecap:round;stroke-linejoin:round;stroke-miterlimit:10;}
	.st86{opacity:0.29;fill:#EAE8F3;}
	.st87{fill:none;stroke:#A6A3AE;stroke-width:0.5;stroke-linecap:round;stroke-linejoin:round;stroke-miterlimit:10;}
	.st88{opacity:0.74;fill:#FFFFFF;}
	.st89{opacity:0.19;fill:#FFFFFF;}
	.st90{fill:none;stroke:#40304A;stroke-width:0.25;stroke-linecap:round;stroke-linejoin:round;stroke-miterlimit:10;}
	.st91{fill:none;stroke:#F34B4B;stroke-width:2;stroke-linecap:round;stroke-linejoin:round;stroke-miterlimit:10;}
	.st92{fill:none;stroke:#43334E;stroke-width:0.5;stroke-linecap:round;stroke-linejoin:round;stroke-miterlimit:10;}
	.st93{fill:none;stroke:#6582FC;stroke-miterlimit:10;}
	.st94{opacity:0.47;fill:#A6A3AE;}
	.st95{opacity:0.43;fill:#FFFFFF;}
	.st96{fill:none;stroke:#FBE6BB;stroke-linecap:round;stroke-linejoin:round;stroke-miterlimit:10;}
	.st97{fill:none;stroke:#5B4B68;stroke-width:0.5;stroke-linecap:round;stroke-linejoin:round;stroke-miterlimit:10;}
	.st98{fill:none;stroke:#40304A;stroke-width:0.5;stroke-linecap:round;stroke-linejoin:round;stroke-miterlimit:10;}
	.st99{fill:none;stroke:#DDA103;stroke-linecap:round;stroke-linejoin:round;stroke-miterlimit:10;}
	.st100{fill:none;stroke:#FBC32E;stroke-linecap:round;stroke-linejoin:round;stroke-miterlimit:10;}
	.st101{fill:none;stroke:#32775B;stroke-width:0.5;stroke-linecap:round;stroke-linejoin:round;stroke-miterlimit:10;}
	.st102{opacity:0.4;fill:#FBE6BB;}
	.st103{fill:none;stroke:#FBC32E;stroke-width:0.25;stroke-linecap:round;stroke-linejoin:round;stroke-miterlimit:10;}
	.st104{fill:none;stroke:#4456D6;stroke-miterlimit:10;}
	.st105{opacity:0.61;fill:#64B48D;}
	.st106{opacity:0.9;fill:#64B48D;}
	.st107{opacity:0.76;fill:#64B48D;}
	.st108{fill:none;stroke:#5B4B68;stroke-width:0.5;stroke-miterlimit:10;}
	.st109{opacity:0.66;fill:#A6A3AE;}
	.st110{fill:none;stroke:#43334E;stroke-miterlimit:10;}
	.st111{opacity:0.52;fill:#6582FC;}
	.st112{fill:none;stroke:#DDA103;stroke-width:0.5;stroke-linecap:round;stroke-linejoin:round;stroke-miterlimit:10;}
	.st113{fill:#46724E;}
	.st114{fill:#FE8B2E;}
	.st115{fill:none;stroke:#7D4C47;stroke-width:2;stroke-linecap:round;stroke-linejoin:round;stroke-miterlimit:10;}
	.st116{opacity:0.4;fill:#EAE8F3;}
	.st117{fill:none;stroke:#EAE8F3;stroke-width:0.5;stroke-linecap:round;stroke-miterlimit:10;}
	.st118{fill:none;stroke:#4456D6;stroke-width:0.25;stroke-linecap:round;stroke-linejoin:round;stroke-miterlimit:10;}
	.st119{opacity:0.5;fill:#EAE8F3;}
	.st120{opacity:0.46;fill:#A6A3AE;}
	.st121{fill:#E0916E;}
	.st122{fill:none;stroke:#A0665A;stroke-linecap:round;stroke-linejoin:round;stroke-miterlimit:10;}
	.st123{opacity:0.46;fill:#BE412D;}
	.st124{fill:none;stroke:#203881;stroke-linecap:round;stroke-linejoin:round;stroke-miterlimit:10;}
	.st125{fill:#DBDBE1;}
	.st126{fill:none;stroke:#6582FC;stroke-width:0.5;stroke-linecap:round;stroke-linejoin:round;stroke-miterlimit:10;}
	.st127{opacity:0.53;fill:#A6A3AE;}
	.st128{fill:none;stroke:#DDA103;stroke-miterlimit:10;}
	.st129{opacity:0.2;fill:#FFFFFF;}
	.st130{fill:#B4A1BF;}
	.st131{opacity:0.5;fill:#6582FC;}
	.st132{opacity:0.6;fill:none;stroke:#FFFFFF;stroke-linecap:round;stroke-linejoin:round;stroke-miterlimit:10;}
	.st133{opacity:0.6;fill:none;stroke:#FFFFFF;stroke-width:2;stroke-linecap:round;stroke-linejoin:round;stroke-miterlimit:10;}
	.st134{opacity:0.54;fill:#A6A3AE;}
	.st135{fill:#161718;stroke:#000000;stroke-width:0.25;stroke-miterlimit:10;}
</style>
<g id="_x36_">
	<g>
		<rect x="23.4731102" y="98.2483139" class="st34" width="97.5952225" height="28.525629"/>
		<rect x="23.4731102" y="98.2483139" class="st53" width="97.5952225" height="1.6955746"/>
		<rect x="24.2195244" y="62.9084282" class="st34" width="95.5796127" height="27.2354145"/>
		<rect x="24.2195244" y="62.9084282" class="st53" width="95.5796127" height="4.3082213"/>
		<polygon class="st55" points="126.9076614,62.9018669 18.204443,62.9018669 34.2800789,50.5903244 59.2150307,31.4887676 
			84.971489,31.4887676 94.1115799,38.3308258 		"/>
		<path class="st130" d="M115.927063,62.9018669H46.0197296L34.2800789,50.5903244l24.9349518-19.1015568H84.971489
			l9.1400909,6.8420582C102.1285782,47.3773041,110.041748,56.2781944,115.927063,62.9018669z"/>
		<polygon class="st55" points="130.1867523,98.2501526 14,98.2501526 19.8444042,90.1426239 124.3423538,90.1426239 		"/>
		<rect x="97.7146835" y="124.7574158" class="st55" width="29.6995087" height="9.4998951"/>
		<rect x="17.924572" y="124.7574158" class="st55" width="43.7781258" height="9.4998951"/>
		<rect x="61.7026978" y="126.7708435" class="st6" width="36.0119858" height="2.2834511"/>
		<rect x="61.7026978" y="129.0542908" class="st34" width="36.0119858" height="2.2834511"/>
		<rect x="61.7026978" y="131.3377533" class="st53" width="36.0119858" height="2.2834511"/>
		<rect x="32.191143" y="105.436409" class="st6" width="27.559761" height="12.9253149"/>
		<rect x="30.8928185" y="104.6458511" class="st55" width="30.156414" height="1.4657488"/>
		<rect x="18.2027702" y="62.9037628" class="st54" width="108.7100372" height="2.0020101"/>
		<path class="st54" d="M89.4606476,49.9092369v0.1706581c0,1.4928932-1.2048874,2.7085838-2.7083893,2.7085838H56.9573746
			c-1.4928322,0-2.7086525-1.2156906-2.7086525-2.7085838v-0.1706581c0-1.4928932,1.2158203-2.7085838,2.7086525-2.7085838
			h29.7948837c0.2025528,0,0.3944244,0.021347,0.5863037,0.0639801
			C88.5543823,47.5312271,89.4606476,48.6189575,89.4606476,49.9092369z"/>
		<rect x="70.961647" y="102.5074158" class="st6" width="17.9834385" height="24.2634296"/>
		<rect x="71.9602203" y="103.2662277" class="st55" width="15.9862881" height="22.7458115"/>
		<rect x="18.4090576" y="98.2501526" class="st55" width="1.5918788" height="26.5072632"/>
		<rect x="123.8786545" y="98.2501526" class="st55" width="1.5918788" height="26.5072632"/>
		<rect x="26.6995335" y="111.1140289" class="st55" width="1.5918788" height="13.6433878"/>
		<rect x="34.0653381" y="111.1140289" class="st55" width="1.5918788" height="13.6433878"/>
		<rect x="41.4311409" y="111.1140289" class="st55" width="1.5918788" height="13.6433878"/>
		<rect x="48.7969437" y="111.1140289" class="st55" width="1.5918788" height="13.6433878"/>
		<rect x="56.1627502" y="111.1140289" class="st55" width="1.5918788" height="13.6433878"/>
		<rect x="18.4090576" y="110.5872345" class="st55" width="39.5566711" height="1.3118279"/>
		<rect x="101.9120865" y="111.1140289" class="st55" width="1.5918788" height="13.6433878"/>
		<rect x="109.2778931" y="111.1140289" class="st55" width="1.5918788" height="13.6433878"/>
		<rect x="116.643692" y="111.1140289" class="st55" width="1.5918788" height="13.6433878"/>
		<rect x="100.1048889" y="110.5872345" class="st55" width="24.569706" height="1.3118279"/>
		<g>
			<g>
				<path class="st14" d="M85.4403687,44.1294708c0,0.2665939-0.0106735,0.5438652-0.0320206,0.8104591v0.085331
					c-0.0426941,0.7464142-0.1491776,1.471611-0.3092957,2.1753922c-0.4477921,1.9834518-1.3116226,3.8176613-2.51651,5.3852119
					c-0.0426941,0.0639801-0.0958099,0.1386337-0.149437,0.2026138H60.423111
					c-0.1278305-0.1386337-0.2452469-0.287941-0.3517265-0.4371872c-0.1387672-0.1919403-0.2665977-0.3945541-0.4053612-0.5971718
					c-0.6719551-1.03442-1.2155609-2.1647835-1.5888977-3.3698006c-0.064045-0.1919403-0.1280899-0.3838806-0.1707878-0.5864944
					c-0.053112-0.1919403-0.1064835-0.394558-0.1491776-0.5971718c-0.2025528-0.8957901-0.3199692-1.8235359-0.3413162-2.7725639
					c-0.0104141-0.0960045-0.0104141-0.2026138-0.0104141-0.2986183s0-0.1919403,0.0104141-0.2985535
					c0.021347-1.162384,0.1814613-2.2927437,0.4800797-3.359127c0.053112-0.2026138,0.1064835-0.3945541,0.1705284-0.5971718
					c0.3840103-1.2050133,0.917202-2.3246994,1.5995712-3.3698006c0.1278305-0.2026138,0.2665939-0.4051628,0.4053612-0.5864944
					c0.9596367-1.3223038,2.1327591-2.4633369,3.4761505-3.3697357c0.2986183-0.2132912,0.6185875-0.415905,0.9492226-0.5971718
					c2.0366974-1.162384,4.4040298-1.8342094,6.9314804-1.8342094c0.0744553,0,0.1598511,0,0.2452469,0.0106754
					c0-0.0106754,0-0.0106754,0-0.0106754h1.5888977v0.0106754l0.0426941,0.1172848
					c1.8127975,0.2453136,3.5191116,0.83181,5.0439606,1.7062492c0.3199692,0.1812668,0.639679,0.3838806,0.948967,0.5971718
					c1.258522,0.8637657,2.3780136,1.9194717,3.2952118,3.1458359c1.5248566,1.9834557,2.516777,4.4041595,2.7620239,7.0380898
					c0.021347,0.1599846,0.0426941,0.3305779,0.0531082,0.5011673v0.0960045
					C85.4296951,43.5962791,85.4403687,43.8628769,85.4403687,44.1294708z"/>
			</g>
			<g>
				<g>
					<g>
						<path class="st15" d="M79.2963104,32.5453529H63.5423622c0.3084488-0.2135239,0.6287651-0.4092331,0.9548836-0.5931435
							h13.8499756C78.6733398,32.1361198,78.9878616,32.3318291,79.2963104,32.5453529z"/>
					</g>
				</g>
				<g>
					<g>
						<path class="st15" d="M80.2926102,35.914444v0.5931435H59.6631775
							c0.1303291-0.201683,0.2670288-0.4033699,0.4092331-0.5931435H80.2926102z"/>
					</g>
				</g>
				<g>
					<g>
						<path class="st15" d="M80.2926102,39.8766441v0.5931435H57.8956184
							c0.0532913-0.201683,0.1068687-0.3974304,0.1720352-0.5931435H80.2926102z"/>
					</g>
				</g>
				<g>
					<g>
						<path class="st15" d="M80.2926102,43.8329086v0.5931435H57.4151344
							c-0.0057907-0.0948868-0.0057907-0.1957474-0.0057907-0.2965736c0-0.1008224,0-0.1957474,0.0057907-0.2965698H80.2926102z"/>
					</g>
				</g>
				<g>
					<g>
						<path class="st15" d="M80.2926102,47.7951088v0.5931435H58.0734444
							c-0.0651627-0.1957474-0.1245346-0.3914604-0.1720352-0.5931435H80.2926102z"/>
					</g>
				</g>
				<g>
					<g>
						<path class="st15" d="M80.2926102,51.757309v0.5931435H60.0724106
							c-0.1422043-0.195713-0.2728233-0.3914604-0.4034424-0.5931435H80.2926102z"/>
					</g>
				</g>
			</g>
			<g>
				<path class="st15" d="M87.7012253,44.1294708c0,1.0770569-0.1174164,2.1327629-0.3626633,3.1351624
					c-0.4584732,2.0474358-1.3756714,3.9242744-2.633934,5.5238457H62.6839638
					c-0.1067429-0.1386337-0.2241592-0.287941-0.3306389-0.4371872c-0.1387672-0.1919403-0.2772713-0.3945541-0.4053612-0.5971718
					c-0.6823692-1.03442-1.2155609-2.1647835-1.5995712-3.3698006c-0.0637856-0.1919403-0.117157-0.3838806-0.1705284-0.5864944
					c-0.0533714-0.1919403-0.1064796-0.394558-0.1491776-0.5971718c-0.202549-0.8957901-0.3199654-1.8235359-0.3306427-2.7725639
					c-0.0106735-0.0960045-0.0106735-0.2026138-0.0106735-0.2986183s0-0.2026138,0.0106735-0.2985535
					c0.0213509-1.162384,0.1812019-2.2927437,0.4691467-3.359127c0.0533714-0.2026138,0.1174164-0.3945541,0.1812019-0.5971718
					c0.3840103-1.2050133,0.917202-2.3353767,1.5995712-3.3698006c0.1280899-0.2026138,0.2561798-0.3945541,0.4053612-0.5864944
					c0.938549-1.3116302,2.111412-2.4526634,3.4443893-3.3697357c0.3092957-0.2132912,0.6396713-0.415905,0.970314-0.5971718
					c1.9302139-1.0984039,4.1376953-1.7595539,6.4943542-1.823534c0.1491776-0.0106754,0.287941-0.0106754,0.4371185-0.0106754
					C81.4307709,30.1172066,87.7012253,36.3982086,87.7012253,44.1294708z"/>
			</g>
			<g>
				<path class="st14" d="M82.5932159,35.6944237c-1.3223038-1.4076309-2.9859161-2.4953613-4.8414078-3.1458359
					c-0.810463-0.2879448-1.6529465-0.4905586-2.5378647-0.5971718c-0.4907532-0.0639801-1.002594-0.0960026-1.5144424-0.0960026
					c-0.5118408,0-1.0236816,0.0320225-1.5141754,0.0960026c-0.8851776,0.1066132-1.7380753,0.309227-2.5487976,0.5971718
					c-1.9619751,0.6824989-3.6896362,1.8554916-5.0543747,3.3697357c-0.170784,0.1919403-0.3413162,0.3838806-0.5014267,0.5864944
					c-0.7997856,1.0024033-1.4501343,2.1434364-1.8979301,3.3698006c-0.0747185,0.1919441-0.1494408,0.394558-0.2134857,0.5971718
					c-0.3306389,1.0663834-0.5225143,2.196743-0.5545387,3.359127v0.5971718
					c0.0320244,0.9597015,0.1601143,1.8874512,0.3840141,2.7725639c0.0533714,0.2026138,0.1174164,0.394558,0.1812019,0.5971718
					c0.0533676,0.1919403,0.1280899,0.3945541,0.2028084,0.5864944c0.4477959,1.2263641,1.0981445,2.3674011,1.8979301,3.3698006
					c0.1601105,0.2026176,0.3306427,0.4052315,0.5014267,0.5971718c0.138504,0.1492462,0.2770081,0.2985535,0.4157715,0.4371872
					h0.7677689c-0.1598587-0.1386337-0.3092957-0.287941-0.4584732-0.4371872
					c-0.1918793-0.1919403-0.3733368-0.3945541-0.5438614-0.5971718c-0.8424873-0.9917259-1.5355301-2.1327591-2.0156097-3.3698006
					c-0.0744591-0.1919403-0.1491776-0.3838806-0.202549-0.5864944c-0.0744591-0.1919403-0.138504-0.394558-0.1812019-0.5971718
					c-0.2452469-0.8851128-0.3840103-1.8128624-0.4160347-2.7725639v-0.2986183c0-0.0960045,0-0.2026138,0.0109329-0.2985535
					c0.0210915-1.1730576,0.2238998-2.2927437,0.5756302-3.359127c0.064045-0.2026138,0.1387634-0.4052277,0.2132225-0.5971718
					c0.4904938-1.2370377,1.1731224-2.378006,2.0262833-3.3698006c0.1705246-0.2026138,0.3517227-0.3945541,0.5331879-0.5864944
					c1.7060547-1.7488823,3.9562302-2.9645081,6.4730072-3.3697357c0.6289978-0.106678,1.2689285-0.1599846,1.9192734-0.1599846
					c0.6506119,0,1.2902832,0.0533066,1.9195404,0.1599846c5.1080093,0.8317413,9.1176147,5.0013313,9.7361984,10.1839256
					c0.021347,0.1599846,0.0426941,0.3305779,0.0531082,0.5011673v0.0960045
					c0.021347,0.2559204,0.0320206,0.5331917,0.0320206,0.7997856s-0.0106735,0.5438652-0.0320206,0.8104591v0.085331
					c-0.0531082,0.7464142-0.1811981,1.471611-0.3730774,2.1753922c-0.5972366,2.1860695-1.7914505,4.1055412-3.4123688,5.5878258
					h0.7677612c0.0637894-0.0639801,0.1278305-0.1279602,0.1918793-0.2026138
					c1.4183731-1.4928932,2.4740753-3.3377762,3.0072708-5.3852119c0.2452469-0.9810524,0.3837509-2.0154762,0.3837509-3.0711823
					C85.9735641,40.8663483,84.6939545,37.8911667,82.5932159,35.6944237z"/>
			</g>
			<g>
				<path class="st14" d="M77.9332657,47.0300598c0,0.0533066,0,0.1172867-0.0109329,0.1705933
					c0,0.2026138-0.0317612,0.4052315-0.0637894,0.5971718c-0.0426941,0.2026138-0.1067352,0.3945541-0.1814575,0.5864944
					c-0.4691467,1.2263641-1.5995712,2.2180939-3.326973,2.5060349v1.8981247h-1.4290466v-1.8341446
					c-1.3116302-0.021347-2.6766281-0.4265785-3.4657364-0.9917259l0.5331879-1.5249825h0.6506119
					c0,0,0.0106735,0.1920052,0.021347,0.3839493c0.7357407,0.3518562,1.6420059,0.597168,2.6019058,0.597168
					c0.0960693,0,0.2025528,0,0.2986145-0.0106735h0.0320282c0.8849182-0.0746536,1.5888977-0.4585342,1.9939957-1.0237503
					c0.1280899-0.1705894,0.2238998-0.3732071,0.2772675-0.5864944c0.0640488-0.1919403,0.0960693-0.3838806,0.0960693-0.5971718
					v-0.0106735c0-1.2369728-0.8851776-2.0154762-2.5592117-2.6979103c-0.0533676-0.021347-0.1067429-0.0426979-0.1601105-0.0639801
					c-0.4691467-0.1920052-0.9062729-0.3839455-1.2902832-0.5971718c-1.4503937-0.7785034-2.3032913-1.7488785-2.3032913-3.2631874
					v-0.0959396c0.0104141-0.2026138,0.0317688-0.4052277,0.0637894-0.5971718
					c0.287941-1.5355911,1.546196-2.6659508,3.3699265-2.9645691v-2.2820053h1.3967667v2.196743
					c1.3649979,0.0426292,2.2928772,0.4052277,2.9538956,0.7997856l-0.2452469,0.6504745
					c0.1067429,0.2452469,0.3306427,0.8424187,0.3306427,0.8424187h-0.6503525
					c-0.4373779-0.2452469-1.2585144-0.6931076-2.5274429-0.7570877c0,0-0.0106735,0-0.021347,0
					c-0.0958099-0.0106735-0.2025528-0.0106735-0.3092957-0.0106735c-1.4714813,0-2.1647873,0.746479-2.3459854,1.5249138
					c-0.0427017,0.1386375-0.0533752,0.2879448-0.0533752,0.4265137c0,0.0640488,0,0.1173515,0.0106735,0.1706581
					c0.0747223,1.0770569,0.9278793,1.6422043,2.7940445,2.4100342c0.7143936,0.2878761,1.3223038,0.597168,1.8127975,0.9490929
					c0.2665939,0.1919403,0.5011673,0.3838806,0.7037201,0.5971718
					C77.602623,45.1211967,77.9332657,45.9530067,77.9332657,47.0300598z"/>
			</g>
			<g>
				<path class="st17" d="M77.5812759,44.4280891c-0.2025452-0.2132912-0.4373779-0.4052315-0.6930389-0.5971718
					c-0.5014343-0.3519249-1.1090775-0.6612167-1.8237305-0.9490929c-1.8768463-0.7785034-2.729744-1.3436508-2.8044586-2.4100342
					c-0.0106735-0.0533066-0.0106735-0.1066093-0.0106735-0.1706581c0-0.1385689,0.0106735-0.2772026,0.0531082-0.4265137
					c0.1601105-0.7144547,0.7680206-1.4076309,2.0156097-1.5142403c0.0106735,0,0.021347,0,0.021347,0
					c0.1067429-0.0106735,0.2132187-0.0106735,0.3199615-0.0106735c1.4501343,0,2.3780136,0.4904938,2.8578339,0.7677612
					l0.5652084-1.4928932c-0.6610184-0.394558-1.5888977-0.7571564-2.9538956-0.7997856v-2.196743h-1.3970184v2.2926788
					c-1.8234711,0.2879448-3.0817261,1.4183044-3.3696747,2.9538956c-0.0320206,0.1919441-0.0533676,0.394558-0.0640411,0.5971718
					v0.0959396c0,1.5143089,0.8424835,2.484684,2.2926102,3.2631874c0.3840179,0.2132263,0.8211365,0.4051666,1.2905426,0.5971718
					c0.0533676,0.0212822,0.1064835,0.0426331,0.1598511,0.0639801c1.684967,0.6824341,2.5698853,1.450264,2.5698853,2.6979103
					v0.0106735c0,0.2132912-0.0317612,0.4052315-0.0851288,0.5971718c-0.0640488,0.2132874-0.1601181,0.4052277-0.2879486,0.5864944
					c-0.4480591,0.6398697-1.2691879,1.0344238-2.3246384,1.0344238c-0.1067429,0-0.2134857,0-0.3199615-0.0106735H73.560997
					c-1.141098-0.0746536-2.1754532-0.4798851-2.9218674-0.9704437l-0.543869,1.5249825
					c0.7997894,0.5651474,2.1541138,0.9703789,3.4764099,0.9917259v1.8341446h1.4290466v-1.8981247
					c1.7274017-0.287941,2.8578262-1.2796707,3.326973-2.5060349c0.0747223-0.1919403,0.1387634-0.3838806,0.1812057-0.5864944
					c0.0320206-0.1919403,0.0640411-0.394558,0.0640411-0.5971718c0.0106735-0.0533066,0.0106735-0.1172867,0.0106735-0.1705933
					C78.5836105,45.9530067,78.2529755,45.1211967,77.5812759,44.4280891z"/>
			</g>
		</g>
		<g>
			<rect x="36.6000633" y="69.1787491" class="st55" width="27.5660553" height="12.9245338"/>
			<rect x="35.968235" y="81.5522537" class="st6" width="28.8334618" height="2.4067998"/>
			<rect x="36.6000633" y="71.3008423" class="st6" width="27.5660553" height="0.6398677"/>
			<rect x="41.5420685" y="69.1827393" class="st6" width="0.9632543" height="13.1180182"/>
		</g>
		<g>
			<rect x="80.3405228" y="69.1787491" class="st55" width="27.5660553" height="12.9245338"/>
			<rect x="79.7086945" y="81.5522537" class="st6" width="28.8334618" height="2.4067998"/>
			<rect x="80.3405228" y="71.3008423" class="st6" width="27.5660553" height="0.6398677"/>
			<rect x="85.2825317" y="69.1827393" class="st6" width="0.9632543" height="13.1180182"/>
		</g>
		<rect x="74.9139633" y="105.3787231" class="st54" width="10.0787973" height="5.2085114"/>
		<rect x="74.9139633" y="114.3034973" class="st54" width="10.0787973" height="10.4539194"/>
	</g>
	<g>
		<path class="st15" d="M129.9411621,130.2132263v2.5375366c0,1.1647797-0.9402313,2.1049042-2.1048965,2.1049042h-23.6027908
			c-1.1565475,0-2.1049042-0.9401245-2.1049042-2.1049042v-2.5375366c0-1.1646729,0.9483566-2.1047974,2.1049042-2.1047974
			h23.6027908C129.0009308,128.108429,129.9411621,129.0485535,129.9411621,130.2132263z"/>
		<g>
			<rect x="105.7058716" y="128.108429" class="st14" width="0.8319668" height="6.7472382"/>
		</g>
		<g>
			<rect x="110.6645584" y="128.108429" class="st14" width="0.8319668" height="6.7472382"/>
		</g>
		<g>
			<rect x="115.6147232" y="128.108429" class="st14" width="0.8319668" height="6.7472382"/>
		</g>
		<g>
			<rect x="120.5732117" y="128.108429" class="st14" width="0.8319668" height="6.7472382"/>
		</g>
		<g>
			<rect x="125.5317001" y="128.108429" class="st14" width="0.8319668" height="6.7472382"/>
		</g>
	</g>
	<g>
		<path class="st15" d="M135.7863159,123.5112076v2.5375366c0,1.1647797-0.9402313,2.1048965-2.1049042,2.1048965h-23.6027908
			c-1.1565475,0-2.1049042-0.9401169-2.1049042-2.1048965v-2.5375366c0-1.1646729,0.9483566-2.1047974,2.1049042-2.1047974
			h23.6027908C134.8460846,121.4064102,135.7863159,122.3465347,135.7863159,123.5112076z"/>
		<g>
			<rect x="111.5510101" y="121.4064102" class="st14" width="0.8319668" height="6.7472382"/>
		</g>
		<g>
			<rect x="116.5097046" y="121.4064102" class="st14" width="0.8319668" height="6.7472382"/>
		</g>
		<g>
			<rect x="121.4598694" y="121.4064102" class="st14" width="0.8319668" height="6.7472382"/>
		</g>
		<g>
			<rect x="126.4183578" y="121.4064102" class="st14" width="0.8319668" height="6.7472382"/>
		</g>
		<g>
			<rect x="131.3768463" y="121.4064102" class="st14" width="0.8319668" height="6.7472382"/>
		</g>
	</g>
	<g>
		<path class="st15" d="M133.5184631,116.7639694v2.5375366c0,1.1647797-0.9402313,2.1049042-2.1049042,2.1049042h-23.6027908
			c-1.1565475,0-2.1048965-0.9401245-2.1048965-2.1049042v-2.5375366c0-1.1646729,0.948349-2.1047974,2.1048965-2.1047974
			h23.6027908C132.5782318,114.6591721,133.5184631,115.5992966,133.5184631,116.7639694z"/>
		<g>
			<rect x="109.283165" y="114.6591721" class="st14" width="0.8319668" height="6.7472382"/>
		</g>
		<g>
			<rect x="114.2418518" y="114.6591721" class="st14" width="0.8319668" height="6.7472382"/>
		</g>
		<g>
			<rect x="119.1920166" y="114.6591721" class="st14" width="0.8319668" height="6.7472382"/>
		</g>
		<g>
			<rect x="124.1505051" y="114.6591721" class="st14" width="0.8319668" height="6.7472382"/>
		</g>
		<g>
			<rect x="129.1089935" y="114.6591721" class="st14" width="0.8319668" height="6.7472382"/>
		</g>
	</g>
	<g>
		<path class="st0" d="M117.1878052,50.5772591c-0.1723022,2.3307724-0.2429733,4.7090988-0.9717026,6.9258385
			c-0.1310654,0.401062-0.959938,1.6268539-1.185318,1.9806023c-0.0142136-0.0152206-0.0358353-0.0306854-0.0498047-0.0532341
			c-0.4137573-0.4189453-0.7429047-0.9456863-1.0342407-1.5006561c-0.5558929-1.0279922-1.019577-2.1709099-1.7371063-2.9904785
			c-0.0638657-0.0757828-0.1350555-0.1518059-0.1615906-0.2411194c-0.0334702-0.1042976-0.0148621-0.2216377,0.0032578-0.3241959
			c0.0929413-0.5866241,0.1859207-1.1732025,0.2641144-1.7602615c0.1323242-0.8875008,0.2425308-1.7756844,0.330925-2.6720047
			c0.0002365-0.00737,0.0002365-0.00737,0.0004807-0.0146942c0.0105133-0.0954742,0.0207825-0.1835785,0.0312424-0.2790565
			l1.0937958-0.9886093l3.2811279-2.9584694C117.4877167,47.2777672,117.3150482,48.9451675,117.1878052,50.5772591z"/>
		<g>
			<path class="st0" d="M138.8445435,105.0134125c-0.1546936,0.1254501-3.7311096,1.715004-3.7311096,1.715004
				s-0.8187714-1.3622894-1.5799866-2.6423416c-0.6859741-1.1269455-1.3334351-2.2024384-1.3428192-2.222847
				c0.0023041-0.0702209,3.2245789-3.1071854,3.2245789-3.1071854l0.6752625,0.5342407l1.5950317,1.2672729l1.3418274,1.6404495
				C139.0273285,102.1980057,138.9895782,104.8775864,138.8445435,105.0134125z"/>
			<path class="st1" d="M136.0904694,99.2902832l-2.5570221,4.7957916c-0.6859741-1.1269455-1.3334351-2.2024384-1.3428192-2.222847
				c0.0023041-0.0702209,3.2245789-3.1071854,3.2245789-3.1071854L136.0904694,99.2902832z"/>
			<path class="st21" d="M140.1681976,101.9463272l1.8280487,2.5327988
				c0.1037598,1.1001358-1.9811707,3.4650497-1.9811707,3.4650497l-0.5779877-0.515625l-1.4815674,2.4624557
				c-0.5754395,0.9483337-1.3603821,1.757164-2.2890778,2.3668289l-3.0722961,1.9872818
				c-0.3778229,0.2485199-0.8727112,0.1332474-1.1076813-0.2423019l-0.5535431-0.884552
				c-0.2520142-0.3995514-0.270401-0.8950424-0.0429535-1.3014984l0.9415436-1.7334671l1.6678619-3.093544l0.0287781-2.9645157
				c0.0174103-0.4122772,0.2303925-0.7719879,0.5489044-1.0018768c0.1353455-0.0976791,0.2879486-0.1714478,0.4579773-0.2214813
				c0.3945313-0.0909653,0.809494-0.0028152,1.1351318,0.2467422l0.7532196,0.607193l0.0192413,0.0102844l1.6683502-2.3548889
				l-0.4595642-0.7707214l1.109024,0.4957581C139.3261261,101.1488419,139.82901,101.476387,140.1681976,101.9463272z"/>
			<path class="st12" d="M138.9442139,106.9919968l0.4922943,0.435936l-1.4831085,2.4645233
				c-0.5727386,0.9516373-1.3531647,1.7571487-2.2853088,2.3599396l-3.0764771,1.9944077
				c-0.373764,0.2428589-0.868515,0.1316299-1.1016846-0.2436905l-0.0695648-0.1113052
				c0.2195892,0.072998,0.4670563,0.0504608,0.6764679-0.0845413l3.0800476-1.9969406
				c0.9321289-0.6027985,1.7124786-1.4082489,2.2852173-2.3598785L138.9442139,106.9919968z"/>
			<path class="st12" d="M141.5994415,103.9290771l0.3959045,0.5485458c0.1038361,1.098465-1.9824982,3.4655228-1.9824982,3.4655228
				l-0.5763397-0.515213C139.4365082,107.4279327,140.8873749,105.530304,141.5994415,103.9290771z"/>
		</g>
		<g>
			<path class="st0" d="M121.0625381,107.1609497l0.0606155,2.1305847c0,0-1.6651917,2.0939941-1.8664627,2.1074905
				c-0.2012634,0.0134964-4.0059204-0.9246445-4.0059204-0.9246445s0.9416962-3.3025742,1.4189453-4.9938278
				c0.1691742-0.5667648,0.2723007-0.9549789,0.2726288-0.9649582c0.0016479-0.0501938,4.7452698-1.4106064,4.7452698-1.4106064
				l-0.4968262,3.2066803L121.0625381,107.1609497z"/>
			<path class="st1" d="M121.6876144,103.1049881l-0.4968262,3.2066803
				c-1.8864212-0.3430099-4.5114212-0.8207474-4.5114212-0.8207474l-0.0096512-0.0103683
				c0.1691742-0.5667648,0.2723007-0.9549789,0.2726288-0.9649582
				C116.9439926,104.4654007,121.6876144,103.1049881,121.6876144,103.1049881z"/>
			<path class="st21" d="M122.1772079,109.7847672l-0.1024551,3.1219177
				c-0.5906601,0.9338989-3.6865005,1.5301132-3.6865005,1.5301132l-0.1420135-0.7614288l-2.6781082,1.0423508
				c-1.0352173,0.3984604-2.1509094,0.5584183-3.2585449,0.4728851l-3.6461563-0.3063889
				c-0.4509125-0.0344086-0.7719879-0.4282532-0.7282486-0.8690872l0.1029358-1.0383759
				c0.0449448-0.470253,0.3333893-0.8735428,0.7619171-1.0560532l1.8050308-0.7957916l3.2114258-1.4277725l1.8356323-2.3280029
				c0.265892-0.3155518,0.6543808-0.4699249,1.0469818-0.4570389c0.1668167,0.0054703,0.3326721,0.0404282,0.4977951,0.1048126
				c0.3677902,0.1692886,0.6422272,0.4927979,0.747261,0.8893814l0.2246552,0.94104l0.0089417,0.0199127l2.7601013-0.8430328
				l0.1076965-0.8908463l0.5743179,1.0704498C121.9986267,108.6388321,122.1962128,109.205513,122.1772079,109.7847672z"/>
			<path class="st12" d="M118.1232224,113.0285492l0.1229401,0.6459808l-2.6805878,1.043045
				c-1.0351105,0.4027252-2.1452026,0.5628052-3.251358,0.4697342l-3.6538162-0.303299
				c-0.4442368-0.0364075-0.7676849-0.4269714-0.7226639-0.8665237l0.013031-0.1306
				c0.129097,0.1920319,0.3386917,0.3255463,0.586937,0.3467789l3.6581879,0.3034744
				c1.1061554,0.093071,2.2161407-0.0670242,3.2512436-0.4697418L118.1232224,113.0285492z"/>
			<path class="st12" d="M122.0971527,112.2288055l-0.0221863,0.6761322
				c-0.5895844,0.9326324-3.6878586,1.5296783-3.6878586,1.5296783l-0.1409454-0.7600861
				C118.2461624,113.67453,120.5545654,113.0603027,122.0971527,112.2288055z"/>
		</g>
		<g>
			<g>
				<g>
					<path class="st0" d="M127.6495895,24.7455711l-0.2361908,7.1973267
						c-0.0126953,0.3868484-0.1077499,0.7709541-0.2842255,1.1142998c-0.1283569,0.2370186-0.2879791,0.453949-0.4783478,0.6445274
						c-0.0328369,0.0370102-0.1495819,0.1093521-0.3049469,0.2058067l-0.2501297,7.6222191l-4.331131-0.142128l0.2016373-6.1446915
						c-0.0434418-0.026844-0.1000977-0.0477257-0.1564484-0.0686378c-0.5313721-0.2523155-0.9807434-0.6796646-1.2545242-1.2346153
						c-0.4830856-0.9490051-0.7152405-1.9977207-0.6804962-3.0567017l0.1236115-3.766716
						c0,0-0.0811691-1.786478,1.7601242-2.5640087L127.6495895,24.7455711z"/>
					<path class="st1" d="M127.5374908,28.2422695l-0.1099167,3.3495083
						c-0.2350845-0.1241493-0.38591-0.3805256-0.3766632-0.6621799l0.0675125-2.0573959
						C127.1276627,28.5905476,127.2947693,28.3507404,127.5374908,28.2422695z"/>
					<path class="st3" d="M119.0272293,25.7554779c0.2633362,0.8272285,0.3762894,1.6759548,0.7372055,2.4799538
						c0.0484238,0.1336422,0.1144485,0.2678604,0.1807632,0.3932247c0.0862885-1.1966648,1.0124054-2.0972729,1.4003296-3.1742382
						c-0.1543274,0.4283028,0.2627335,0.8960495,0.7149887,0.9482765c0.4522476,0.052227,0.8863983-0.1876965,1.247551-0.4648857
						c0.3037033-0.2331009,0.5824509-0.4986935,0.8299561-0.790781c-0.096489,0.3568172-0.1038055,0.7668743,0.1136398,1.0657825
						c0.2011642,0.2765179,0.5597153,0.4027443,0.9016418,0.4059467c0.4032593,0.0037766,0.6620941-0.1693859,1.0127487-0.2806358
						c0.3367004-0.106823,0.2379837,0.0678215,0.2529831,0.4489136c0.0081787,0.2076836,0.0312576,2.4858418,0.0097809,2.4857349
						c0.0000839,0,0.9504318,0.0047569,0.9504318,0.0047569c0.0461121,0.2039433-0.0050507,0.4223175-0.0116882,0.6245842
						l-0.0063477,0.1934109c-0.0020218,0.061554,0.0044708,0.1322002,0.002449,0.1937542
						c0.0053482,0.6427097,0.0015411,1.2939301,0.0244293,1.9372177c0.5651016-0.5888023,1.1377411-1.1421146,1.5398254-1.8595257
						c0.8344879-1.4587078,0.9810181-3.2877731,1.1356964-4.9294281c0.0515747-0.5474586,0.0875549-1.1064243-0.0389862-1.6415501
						c-0.0969696-0.4100971-0.3185883-0.8259754-0.7051697-0.9936924c-0.3744812-0.1624603-0.8537292-0.0304203-1.0921631,0.3008995
						c0.0245667-0.3224773-0.0099945-0.697485-0.2733612-0.8851967c-0.3574295-0.2547588-0.8357239,0.0060501-1.2480164,0.1566372
						c-0.5814667,0.2123775-1.2286148,0.1861362-1.8293915,0.0368652c-0.9414673-0.2339211-1.7681427-0.7460117-2.6862869-1.0412693
						c-0.4267883-0.1372471-0.8629608-0.2571812-1.295517-0.218565c-0.344368,0.0326977-0.6490555,0.1987514-0.9121552,0.4365482
						c-0.444397,0.3991432-0.7632217,0.996027-0.9030685,1.5019741
						C118.8410797,23.91852,118.7551422,24.9279613,119.0272293,25.7554779z"/>
					<path class="st1" d="M121.9417801,36.1229134l0.029007-0.8840752c0.0088043,0.2142677,2.3614883-0.498661,2.6454391-0.6927948
						c0.1508636-0.0335808,0.2240372,0.1769943,0.0848694,0.2442093
						C123.9624557,35.4772911,123.0509415,35.9325867,121.9417801,36.1229134z"/>
					<path class="st0" d="M127.1254196,28.6368427l-0.067482,2.0563946
						c-0.0132675,0.404335,0.3034363,0.7425308,0.7077713,0.7557983c0.4043198,0.0132694,0.7425156-0.3034363,0.7557907-0.7077713
						l0.0674896-2.0563927c0.0066223-0.2021675-0.069397-0.3870888-0.1971588-0.5241051
						c-0.1283569-0.1364765-0.3084717-0.2244778-0.5106277-0.2311115
						C127.4768677,27.9163876,127.1386719,28.2330914,127.1254196,28.6368427z"/>
					<path class="st4" d="M122.4768219,30.2093525l-0.4807739,0.5573082
						c-0.1256638,0.1456585-0.1077576,0.365984,0.0397644,0.4894466l0.3957901,0.3312454"/>
				</g>
			</g>
			<g>
				<path class="st5" d="M122.7497177,33.7774124c0.0458603-0.0042076,0.0917206-0.008419,0.1433411-0.0180168
					c0.4252548-0.08321,0.7104492-0.4222183,0.8996506-0.7928162c0.0730057-0.1346359,0.1289291-0.2755508,0.1732025-0.4054146
					c0.0001831-0.0057106,0.0060806-0.0112305,0.0062714-0.0169411c0.0001831-0.0057106,0.0060806-0.0112305,0.0062714-0.0169411
					c0.0438919-0.1184464,0.0762329-0.2372704,0.1029968-0.3562813c0.0068359-0.0340652,0.0134811-0.0624275,0.0203094-0.0963554
					c0.0066452-0.0283585,0.0191879-0.0622406,0.0146027-0.0966854c0.0003815-0.0114193-0.0049591-0.0230255-0.0161896-0.029108
					c-0.0053329-0.0116062-0.0166092-0.0119762-0.0222778-0.0177383c-0.0337448-0.0125389-0.0685577,0.0033264-0.1030045,0.0080509
					c-0.0230179,0.0048199-0.0519409,0.0153027-0.0748291,0.0202656c-0.0633621,0.0150681-0.1265869,0.0301399-0.1899567,0.045208
					c-0.0749664,0.020401-0.1498032,0.0408058-0.2244415,0.0553665c-0.0863876,0.0200272-0.1669312,0.0402451-0.247612,0.0604591
					c-0.086441,0.0257416-0.1671219,0.0459557-0.2533646,0.0658493c-0.0806808,0.0202141-0.1612244,0.040432-0.2417679,0.0606499
					c-0.0749664,0.0204048-0.1496124,0.035099-0.2245789,0.0553627c-0.0632324,0.015213-0.1265945,0.0301399-0.1899567,0.045208
					c-0.0518036,0.0154457-0.0978546,0.0253639-0.1439056,0.0352859c-0.0287857,0.0104866-0.0518112,0.0154457-0.0805435,0.0202179
					c0,0,0,0-0.0057068-0.0001869c-0.0173187,0.005146-0.1035614,0.0250397-0.184288,0.0509682
					c-0.0863953,0.0200272-0.1669388,0.0402451-0.1669388,0.0402451
					C121.6313705,32.7128983,121.851181,33.8393745,122.7497177,33.7774124z"/>
				<path class="st6" d="M121.9139404,32.4538193l0.0809097,0.3167305c0.0352859,0.1439056,0.1864929,0.2344627,0.3303986,0.1993141
					l1.6406631-0.408699c0.0001831-0.0057106,0.0060806-0.0112305,0.0062714-0.0169411
					c0.0001831-0.0057106,0.0060806-0.0112305,0.0062714-0.0169411c0.0438919-0.1184464,0.0762329-0.2372704,0.1029968-0.3562813
					c0.0068359-0.0340652,0.0134811-0.0624275,0.0203094-0.0963554c0.0066452-0.0283585,0.0191879-0.0622406,0.0146027-0.0966854
					c0.0003815-0.0114193-0.0049591-0.0230255-0.0161896-0.029108c-0.0053329-0.0116062-0.0166092-0.0119762-0.0222778-0.0177383
					c-0.0337448-0.0125389-0.0685577,0.0033264-0.1030045,0.0080509c-0.0230179,0.0048199-0.0519409,0.0153027-0.0748291,0.0202656
					c-0.0633621,0.0150681-0.1265869,0.0301399-0.1899567,0.045208c-0.0749664,0.020401-0.1498032,0.0408058-0.2244415,0.0553665
					c-0.0863876,0.0200272-0.1669312,0.0402451-0.247612,0.0604591c-0.086441,0.0257416-0.1671219,0.0459557-0.2533646,0.0658493
					c-0.0806808,0.0202141-0.1612244,0.040432-0.2417679,0.0606499c-0.0749664,0.0204048-0.1496124,0.035099-0.2245789,0.0553627
					c-0.0632324,0.015213-0.1265945,0.0301399-0.1899567,0.045208c-0.0518036,0.0154457-0.0978546,0.0253639-0.1439056,0.0352859
					c-0.0287857,0.0104866-0.0518112,0.0154457-0.0805435,0.0202179c0,0,0,0-0.0057068-0.0001869
					C122.0809097,32.4079971,121.9946671,32.4278908,121.9139404,32.4538193z"/>
				<path class="st3" d="M123.7937164,32.9694557c-0.1907272,0.3653793-0.4778519,0.7040482-0.90242,0.7888832
					c-0.0489197,0.0093803-0.0977554,0.0171967-0.1432877,0.0188408c-0.0549545-0.2840538,0.1027527-0.5987587,0.4028091-0.759819
					C123.3646774,32.9036407,123.6018066,32.8926048,123.7937164,32.9694557z"/>
			</g>
			<path class="st1" d="M128.1253052,28.7089443l-0.0192871,0.5878277l-0.5470352,0.2334766l0.0275345-0.8389854
				c0.0048218-0.1469555,0.131279-0.265377,0.2782364-0.2605553
				C128.0117188,28.4355316,128.130127,28.5619888,128.1253052,28.7089443z"/>
			<path class="st1" d="M127.5401001,30.1058178l0.5460205-0.2026806l-0.0180817,0.5510502
				c-0.0048218,0.1469574-0.131279,0.265379-0.2782364,0.2605553c-0.1469574-0.0048218-0.2653809-0.131279-0.2605591-0.2782364
				L127.5401001,30.1058178z"/>
		</g>
		<path class="st7" d="M109.8872681,47.6190872l6.2636871,3.5558014l0.8067017,0.4532814l3.5592346-5.7194786
			c0.3933563-0.6059456,0.5752258-1.2720985,0.5653152-1.9446106c0.0078735-0.565258-0.122818-1.1349983-0.3728333-1.6447067
			c0,0,0,0-0.0106659-0.000351c-0.2901764-0.5856552-0.7323761-1.0909882-1.3176804-1.462307l-0.1883469-0.1128502
			l-0.3035278-0.180645l-0.2505341-0.168293c-0.136116-0.0791588-0.250885-0.1576195-0.3766785-0.2257652
			c-0.3890991-0.1727715-0.7906113-0.2926826-1.2055969-0.3276596c-0.3190308-0.031765-0.6285019-0.0312386-0.9503326,0.022213
			l-0.0106659-0.000351c-0.0643005,0.0085716-0.1285934,0.0170784-0.1932373,0.0363159
			c-0.0753174,0.0188866-0.1399612,0.0380592-0.215271,0.0569496l-0.0106049-0.0003471
			c-0.0646515,0.0192375-0.1403122,0.0487289-0.2049561,0.0679665c0,0-0.0106659-0.0003471-0.0213394-0.0006981
			c-0.755867,0.2739067-1.4234848,0.7854767-1.8736191,1.4962921l-1.150383,1.8934364l-1.7605896,2.9296875l-0.2705307,0.4392242
			l-0.0897675,0.1357651L109.8872681,47.6190872z"/>
		<path class="st7" d="M116.0083771,39.9138489c-0.0767136,0.0614967,0.4710541-0.0485573,0.4860306,0.1439781
			c0,0-0.0055923,0.1705017-0.0160904,0.4902954l-0.1629791,4.9666328
			c-0.0276337,0.8419647-0.0566635,1.7266045-0.0650558,2.6332779l-0.3759842,11.4574318
			c-0.0143356,1.0877762-0.035675,1.7379036-0.0360184,1.7485733c3.7571335,1.9051552,7.6770248,2.4285583,11.7809372,1.5709686
			c0.7413635-0.1571007,1.4951324-0.3670616,2.2503052-0.6197014c0.4202271-0.1249161,0.8414307-0.2817802,1.2737274-0.4490242
			l1.0329895-7.0933533l0.318924-2.2407951l0.5401917-3.7806282l0.2187653-1.4652252l0.6308899-4.2684784l0.0431976-0.3400154
			l0.2332916-1.5820961l-0.431076-0.1955109l-0.599411-0.265049l-6.6570435-2.9498596l-0.2633057-0.1046944
			c-0.0104904,0.3197289-0.0945511,0.6050682-0.230484,0.8459892c-0.8965225,1.635025-4.0546646,1.3073692-4.0775146-0.9233437
			c0.000351-0.0106697-0.0102539-0.0110168-0.0209198-0.0113678c-0.1705704-0.0055962-1.1980743,0.4194679-2.3556366,0.9043427
			c-0.3140182,0.139019-0.6386414,0.2777557-0.9632721,0.4164925c-0.0973511,0.039463-0.1946335,0.0789871-0.2919846,0.1184502
			c-0.5735855,0.2479134-1.1042175,0.4865608-1.504921,0.6654549c-0.3136063,0.128418-0.540947,0.2276268-0.6599197,0.2771225
			l-0.0106659-0.000351c-0.0326385,0.0202255-0.0543289,0.0301933-0.0653458,0.0405121L116.0083771,39.9138489z"/>
		<path class="st9" d="M109.8872681,47.6190872l6.2636871,3.5558014l-0.0118942,0.3624039l8.8966293,3.4476318l0.7861099-7.5151176
			l-4.7395935-3.5057259l-4.6038895-3.4159584l-0.791481-0.5914917l-0.0106049-0.0003471
			c-0.0646515,0.0192375-0.1403122,0.0487289-0.2049561,0.0679665c0,0-0.0106659-0.0003471-0.0213394-0.0006981
			c-0.755867,0.2739067-1.4234848,0.7854767-1.8736191,1.4962921l-1.150383,1.8934364l-1.7605896,2.9296875l-0.2705307,0.4392242
			l-0.0897675,0.1357651L109.8872681,47.6190872z"/>
		<path class="st8" d="M133.2509613,47.2799454l-0.2114716,1.4637718l-0.5404816,3.7734756l-0.3269501,2.2443924
			l-1.0252838,7.0911713c-0.4303284,0.1656609-0.8603363,0.323101-1.2732544,0.4566193
			c-0.7600403,0.2528839-1.5102386,0.4570656-2.2588501,0.6122322c-1.6976852-0.5541115-3.1033859-1.0414886-3.1033859-1.0414886
			l1.809906-3.2693405l1.6207886-13.4920921c0.0818253-0.6810989,0.9464798-0.9226074,1.3700027-0.3829536
			c0.4969635,0.6332321,0.9788818,1.2296486,1.0324402,1.2314072L133.2509613,47.2799454z"/>
		<path class="st11" d="M136.6806946,98.6309128l-0.5769653,0.6510162l-3.5108185,3.904808l-2.9610748-3.1366959
			l-3.718338-3.9622498l-1.721756-1.8131714l-2.2892456-2.4446411l-2.7953339-2.9596558l-0.7580643-0.8010483l-0.0158081-0.0168762
			l-0.10289-0.1014252l-2.4395065-2.5966415c-0.0316086-0.033699-0.0631638-0.0674515-0.0866089-0.1008835l-0.0078506-0.0084381
			c-0.5681305-0.6150894-1.0190353-1.316246-1.3703461-2.0631027c-0.633255-1.3689651-0.8851547-2.9051514-0.6878967-4.4347687
			l1.315979-10.4724884l0.2107849-1.6926041l0.1983337-1.5622482l0.4635849-3.6697769l0.000267-0.0081673l10.0065002,0.3283691
			l-0.1154861,0.7806129l-1.1222839,8.3054657l-1.0041199,7.4431992l-0.2358322,1.7081375l2.4443283,3.4465332l-0.000267,0.0081711
			l0.5314331,0.736412l1.1644211,1.6151962l5.592453,7.8557663l2.3116913,3.2542725l0.0158081,0.0168762L136.6806946,98.6309128z"/>
		<path class="st12" d="M120.7032471,88.7728653l-2.4691696-0.8279572l-2.440979-2.5862198
			c-0.6075897-0.648941-1.1040955-1.3924942-1.4712448-2.1809311c0.520813-5.6929398,1.5195923-16.6576462,1.5253906-16.8343506
			l4.2318649,9.7014465L120.7032471,88.7728653z"/>
		<path class="st12" d="M127.4872742,85.7064972l-1.5767975,10.3895111l-6.8022995-7.2277374
			c0.3493805-1.8619156,2.4983826-9.1976547,3.825798-10.2589035c0.1884308-0.1510239,0.4112701-0.2878265,0.6552582-0.4064484
			l-0.2305603,1.7042465L127.4872742,85.7064972z"/>
		<path class="st11" d="M115.8462219,61.3436623c-0.0021057,0.0640106,0.0091782,0.7045288,0.0165253,1.7824059
			c0.0027161,0.8856125-0.0038376,2.0698318-0.018959,3.4990234c0.0041046,0.1922379-0.002182,0.3840103-0.0088272,0.5864563
			c0.0064621,0.4697418,0.0000839,0.9816437-0.0066452,1.5042267c-0.0066376,2.1550522-0.0244675,4.6511002-0.0376663,7.3394165
			l-0.0160904,0.4902267c0.0013123,0.928421-0.0188828,1.8772354-0.029541,2.8371735
			c-0.0093536,1.9202652-0.0313873,3.8933792-0.0534134,5.8665009c0.0048065,0.1709061-0.0004349,0.3308029,0.0048904,0.5017242
			c-0.0277023,2.4636917-0.0430908,4.8851929-0.0542755,7.1788101c0.0016632,0.2667923-0.0063782,0.5119095-0.0144272,0.757019
			c-0.0206223,3.8830566-0.0032043,6.9244232,0.0373764,8.9423141c0.0111923,0.3097,0.0227356,0.6088562,0.0252686,0.8649979
			c0.0428543,1.2818298,0.0744247,1.9550552,0.0744247,1.9550552l6.2438202-0.0618439l0.5447159-0.0248413l1.6333847-11.08535
			l1.097435-7.4219971l0.5199509-3.4932556l0.000351-0.0106735l0.5748672-3.8648682l0.5910416-4.0242767l1.4129639-2.0982208
			c0.1801453-0.2821884,0.348999-0.5540619,0.518219-0.8366089c0.3738251-0.6599197,0.715744-1.3315659,0.9848175-2.0375137
			c0.6604767-1.6001205,1.0269775-3.3380432,1.1167755-5.1061478l0.1483917-3.5374947L115.8462219,61.3436623z"/>
		<line class="st85" x1="124.0462265" y1="63.5819626" x2="119.5353546" y2="103.2050247"/>
		<path class="st12" d="M127.1876068,70.5846634l-1.5581665,3.2271652l0.7499466,5.6743546l0.5910416-4.0242767l1.4129791-2.0982132
			c0.1523895-0.2431717,0.305069-0.486824,0.4574585-0.7299957c0.3975067-0.6942291,0.7619934-1.4001312,1.0455627-2.1441345
			c0.6604767-1.6001205,1.0269775-3.3380432,1.1167755-5.1061478l0.1483917-3.5374947l-8.0898361-0.2654762l-1.0881882,2.5997696
			c0.0397949-0.010849,0.7024078,0.0410919,1.6300964,0.1209641
			C126.6679077,64.5650024,128.5248718,67.8150253,127.1876068,70.5846634z"/>
		<path class="st12" d="M125.3521194,61.6544228c-0.051384,0.0718727-0.1027603,0.143692-0.1623154,0.2152977
			c-3.8090973,4.7774124-8.2229233,4.8286591-9.3479309,4.7509003c-0.1795883-0.0058975-0.2769928-0.0254517-0.2769928-0.0254517
			l-0.3999252-0.0131226l0.1983337-1.5622482l0.4635849-3.6697769l0.000267-0.0081673L125.3521194,61.6544228z"/>
		<g>
			<path class="st14" d="M123.3913879,57.3451157c0.5265884-3.6483307-0.8512573-7.1312447-3.3787384-9.4499321
				c-0.2109528-0.1909943-0.4321899-0.3742676-0.6584702-0.5537033c-1.018425-0.7937279-2.1911011-1.4078751-3.4788818-1.7955627
				c0.0457077-0.0622139,0.0798264-0.1077347,0.0798264-0.1077347l-1.5058594-0.2127609l-0.3099899-0.0447426
				c-0.0443268-0.0109901-0.0943375-0.0136185-0.1399612-0.0156097c-1.7953415-0.2086906-3.5471725,0.0429726-5.1317673,0.662796
				c-0.2673492,0.1035957-0.5267792,0.2174911-0.7837753,0.3455353c-1.1197968,0.5447006-2.1391754,1.2827835-3.0058136,2.1713486
				c-0.1291122,0.1327019-0.2494583,0.2666969-0.3704529,0.4051933c-0.6255341,0.712368-1.1576843,1.507-1.5769501,2.3775826
				c-0.0707626,0.1411552-0.1371307,0.2829132-0.1951675,0.4304924c-0.3420258,0.7808113-0.5909576,1.6163521-0.736702,2.498867
				c-0.0147629,0.0712433-0.0257874,0.147644-0.0368118,0.2240181s-0.0214005,0.1482773-0.028038,0.2252846
				c-0.1091156,0.8832359-0.1110153,1.754406-0.0037384,2.6000671c0.0183105,0.1585999,0.0374985,0.3127365,0.0654602,0.4681091
				c0.1559677,0.9536095,0.4414673,1.8662605,0.8402405,2.7264786c0.0766754,0.1670227,0.1581726,0.3347435,0.2451401,0.4940453
				c0.5793457,1.1018639,1.3444443,2.0929222,2.2601089,2.9314423c0.2102966,0.1954651,0.4315414,0.3787422,0.6584625,0.5537071
				c1.4178162,1.1081924,3.1380005,1.8701782,5.0475388,2.1457977c0.0627441,0.0090561,0.1257019,0.0181427,0.1893158,0.0227356
				c-0.0006485,0.0044937-0.0006485,0.0044937-0.0006485,0.0044937l1.1996002,0.1731491l0.0502472-0.0936432
				c1.4014816,0.0142212,2.7552338-0.2444534,4.005188-0.7382584c0.2671356-0.103653,0.5267868-0.217514,0.7837753-0.3455353
				C120.5576324,63.9490356,122.8647995,60.9934425,123.3913879,57.3451157z"/>
			<g>
				<g>
					<path class="st15" d="M117.4745255,65.4487762l-11.9334793-1.7224464
						c0.2102966,0.1954651,0.4315414,0.3787422,0.6584625,0.5537071l10.4912415,1.5142746
						C116.9578857,65.6906586,117.2175369,65.5767975,117.4745255,65.4487762z"/>
				</g>
				<g>
					<path class="st15" d="M118.5975723,63.0056496l0.0648499-0.4493027l-15.6266251-2.2555046
						c0.0766754,0.1670227,0.1581726,0.3347435,0.2451401,0.4940453L118.5975723,63.0056496z"/>
				</g>
				<g>
					<path class="st15" d="M119.030777,60.0043144l0.0648499-0.4492989l-16.9655304-2.448761
						c0.0183105,0.1585999,0.0374985,0.3127365,0.0654602,0.4681091L119.030777,60.0043144z"/>
				</g>
				<g>
					<path class="st15" d="M119.4633331,57.0074806l0.0648499-0.4493027l-17.3294983-2.5012932
						c-0.0147629,0.0712433-0.0257874,0.147644-0.0368118,0.2240181s-0.0214005,0.1482773-0.028038,0.2252846
						L119.4633331,57.0074806z"/>
				</g>
				<g>
					<path class="st15" d="M119.8965378,54.0061455l0.0648499-0.4492989l-16.8308334-2.4293213
						c-0.0707626,0.1411552-0.1371307,0.2829132-0.1951675,0.4304924L119.8965378,54.0061455z"/>
				</g>
				<g>
					<path class="st15" d="M120.3297424,51.0048141l0.0648499-0.4493027l-15.3166351-2.210762
						c-0.1291122,0.1327019-0.2494583,0.2666969-0.3704529,0.4051933L120.3297424,51.0048141z"/>
				</g>
				<g>
					<path class="st15" d="M120.0126495,47.8951836c-0.2109528-0.1909943-0.4321899-0.3742676-0.6584702-0.5537033
						l-10.4866333-1.5136147c-0.2673492,0.1035957-0.5267792,0.2174911-0.7837753,0.3455353L120.0126495,47.8951836z"/>
				</g>
			</g>
			<path class="st15" d="M114.4476166,45.2230644c-0.0443268-0.0109901-0.093689-0.018116-0.1386642-0.0246086
				c-0.0583572-0.0084229-0.1123276-0.0162125-0.1713333-0.0201378L114.4476166,45.2230644z"/>
			<circle class="st15" cx="114.4983673" cy="56.0595207" r="10.7234173"/>
			<circle class="st16" cx="114.4983673" cy="56.0595207" r="9.1916828"/>
			<path class="st15" d="M114.137619,45.178318l-0.1393051-0.0201073l-0.0006485,0.0044975
				C114.0432892,45.1647034,114.0932999,45.1673317,114.137619,45.178318z"/>
			<path class="st14" d="M110.861969,57.9328079c-0.1958389,1.3568382,0.5650406,2.7600632,2.2926102,3.3120766
				l-0.2581024,1.7881889l1.0780106,0.1555977l0.2503204-1.7342758c0.9998703,0.1260109,2.0789719-0.0393181,2.74189-0.3747292
				l-0.1161652-0.5946617c0.2108383-0.0612717,0.4304657-0.1213341,0.4304657-0.1213341l0.0144653-0.4198265l-0.5747681-0.082962
				c-0.6800461,0.323761-1.6173859,0.5278587-2.5786896,0.3891068c-1.2223587-0.1764336-1.9465103-1.0055885-1.8051376-1.9850502
				c0.1361771-0.9434776,0.8944016-1.4302406,2.2354431-1.7595367c1.8522415-0.4389763,3.0536041-1.0727921,3.2688904-2.5643806
				c0.2062225-1.4287415-0.6538467-2.6536331-2.1975021-3.1424332l0.2503128-1.7342186l-1.0692368-0.1543312l-0.2399368,1.6623192
				c-1.0296783-0.1118927-1.7797852,0.0641937-2.3153152,0.2803764l0.2678757,1.1944504l0.5659943,0.0816956l0.0875397-0.2900276
				c0.4085999-0.0970039,0.9400711-0.1578522,1.5960007-0.0631752c1.3210831,0.1906815,1.7009888,1.0527306,1.6011276,1.7445869
				c-0.1284027,0.8895683-0.8219833,1.2481003-2.4120026,1.6515312
				C112.1019363,55.6351585,111.0824509,56.4052925,110.861969,57.9328079z"/>
			<path class="st17" d="M113.4695435,63.1141472l0.2579498-1.7871704
				c-1.7278137-0.5476074-2.4894104-1.9556656-2.2934647-3.3132286c0.2207489-1.5294037,1.2433167-2.2940102,3.1174698-2.7602768
				c1.5843353-0.4028473,2.2846375-0.7578659,2.41362-1.6514511c0.0992126-0.6873741-0.2850418-1.5497818-1.6082306-1.7407684
				c-1.0998001-0.158741-1.8589249,0.1176186-2.2495575,0.2717438l-0.2659073-1.1961746
				c0.5405121-0.2202034,1.2847595-0.3934555,2.3207779-0.279007l0.240593-1.6668777l1.0654297,0.1537819l-0.2505188,1.7356148
				c1.5437546,0.4859581,2.4013672,1.7149086,2.1954956,3.1412086c-0.2157898,1.4950333-1.4124908,2.1292534-3.2645111,2.5636292
				c-1.3460464,0.3319855-2.100563,0.819519-2.2369843,1.7646561c-0.1413803,0.9795074,0.5817719,1.8031197,1.801857,1.9792252
				c0.962326,0.1388969,1.903038-0.0586243,2.5811996-0.3817558l0.2462387,1.2108765
				c-0.6634598,0.3427963-1.7391663,0.5032921-2.7383347,0.3766174l-0.2505112,1.7356186L113.4695435,63.1141472z"/>
		</g>
		<path class="st34" d="M131.1221161,62.6935806c-4.9863663,0.546051-10.1263885,0.3495445-15.4088745-0.5363045l0.120697-1.3820534
			c5.3676758,0.6074371,10.5240097,0.8189926,15.3998108,0.5053558L131.1221161,62.6935806z"/>
		<path class="st32" d="M136.4181213,103.6303177c-0.2921295,0.7379837-0.606369,1.4672165-0.9421844,2.1863785"/>
		<g>
			<path class="st0" d="M113.3114777,63.8106499l0.1538239,0.186348c0.2053223,0.2521172,0.5668335,0.2853432,0.8182373,0.1016121
				l0.4374161-0.3271446l-0.0671616,0.093914c-0.1674576,0.2292023-0.1453323,0.5392609,0.0395279,0.7481155l0.1337128,0.1643295
				c0.2054977,0.2308884,0.5779419,0.2643433,0.8187714,0.0695877l0.5588684-0.4403839l-0.1671143,0.2185364
				c-0.188446,0.2178345-0.1779556,0.548996,0.0171432,0.7794189c0.0922546,0.1098251,0.2285919,0.1782532,0.3670197,0.1827927
				c0.1172638,0.014534,0.2459869-0.0026016,0.3438416-0.0633469l0.3364029-0.1703873l0.5114899,0.336792
				c0.2188797,0.1565704,0.4863739,0.1334457,0.6945877-0.019928l0.7894745-0.6568298l1.1126709-0.7423401l1.7343445-1.1594315
				l0.0329666-0.0202751l0.458046-0.3049774l0.2055893-0.0893745l8.4005203-3.6933708
				c1.4613342-0.6349144,2.5495148-1.9328995,2.92099-3.4892311l0.5044861-2.0532761l0.914856-3.8109894l-5.7983704-1.1612434
				l-0.8170929,3.4514694l-0.7330627,3.1447716l-8.0917435,5.0159683l-3.1515961,0.4512863
				c-0.1504135,0.0271034-0.2689056,0.0659332-0.4096069,0.1147156c-0.2916336,0.1077805-0.5527573,0.2699623-0.7941055,0.4646988
				l-0.1533813,0.1336746l-2.0512466,1.7038689C113.1293259,63.1857567,113.1058044,63.5690727,113.3114777,63.8106499z"/>
			<path class="st1" d="M122.6411362,62.6976776l8.4005203-3.6933708c1.4613342-0.6349144,2.5495148-1.9328995,2.92099-3.4892311
				l0.5044861-2.0532761l0.914856-3.8109894l-5.7983704-1.1612434l-0.8170929,3.4514694l0.103363,0.0888329l4.8769379,1.6004028
				l-1.0716705,3.0803871L122.6411362,62.6976776z"/>
			<path class="st7" d="M134.9389038,53.284893c-2.8098602-0.5931168-6.0698242-1.2539024-7.2477951-1.4887772l0.2516327-1.03302
				l0.5051193-2.0382957l1.242218-4.9830589c0.1424713-0.5803032,0.4208069-1.1068344,0.7896271-1.5280991
				c0.8087769-0.9238167,2.0509186-1.402977,3.3240967-1.2022095c0.077652,0.015789,0.1477203,0.0249443,0.2254181,0.0406914
				c0.0351105,0.0046806,0.0702515,0.0093117,0.0989227,0.021347c0.4600677,0.1156082,0.8693237,0.3041801,1.2277679,0.5657234
				c0.357666,0.2478676,0.6633759,0.554718,0.9025574,0.9077034c0.0240784,0.0471344,0.0545807,0.0869141,0.0776978,0.1202202
				c0.520874,0.8216019,0.7138062,1.8390465,0.4603271,2.8443184l-1.2489166,4.9903412c0,0-0.126709,0.60709-0.3182678,1.4968529
				C135.1432343,52.3801765,135.0406799,52.8256989,134.9389038,53.284893z"/>
			<line class="st4" x1="114.7266998" y1="63.7716522" x2="116.555069" y2="62.1540871"/>
			<line class="st4" x1="116.1061859" y1="64.4905853" x2="117.2200775" y2="63.2182693"/>
			<line class="st4" x1="117.1032791" y1="65.3582611" x2="117.90242" y2="64.6620483"/>
			<line class="st4" x1="128.0345612" y1="55.0833321" x2="129.4902039" y2="55.6143379"/>
		</g>
	</g>
</g>
</svg>
