<?xml version="1.0" encoding="utf-8"?>
<!-- Generator: Adobe Illustrator 22.0.1, SVG Export Plug-In . SVG Version: 6.00 Build 0)  -->
<svg version="1.1" id="Layer_1" xmlns="http://www.w3.org/2000/svg" xmlns:xlink="http://www.w3.org/1999/xlink" x="0px" y="0px"
	 viewBox="0 0 156 156" style="enable-background:new 0 0 156 156;" xml:space="preserve">
<style type="text/css">
	.st0{fill:#FFD9B2;}
	.st1{fill:#F7AC76;}
	.st2{fill:none;stroke:#3643C3;stroke-width:0.5;stroke-linecap:round;stroke-linejoin:round;stroke-miterlimit:10;}
	.st3{fill:#233764;}
	.st4{fill:none;stroke:#F7AC76;stroke-width:0.5;stroke-linecap:round;stroke-linejoin:round;stroke-miterlimit:10;}
	.st5{fill:#161718;}
	.st6{fill:#FFFFFF;}
	.st7{fill:#F06449;}
	.st8{fill:#BE412D;}
	.st9{fill:#FE8E60;}
	.st10{fill:#7D4C47;}
	.st11{fill:#4456D6;}
	.st12{fill:#203881;}
	.st13{fill:#6582FC;}
	.st14{fill:#DDA103;}
	.st15{fill:#FBC32E;}
	.st16{fill:none;stroke:#DDA103;stroke-width:0.5;stroke-miterlimit:10;}
	.st17{fill:#FBE6BB;}
	.st18{fill:none;stroke:#BE412D;stroke-width:0.5;stroke-linecap:round;stroke-linejoin:round;stroke-miterlimit:10;}
	.st19{fill:none;stroke:#F06449;stroke-width:0.5;stroke-linecap:round;stroke-linejoin:round;stroke-miterlimit:10;}
	.st20{fill:#F34B4B;}
	.st21{fill:#FC7070;}
	.st22{fill:none;stroke:#FFFFFF;stroke-miterlimit:10;}
	.st23{fill:#FC9F9F;}
	.st24{fill:#408A6F;}
	.st25{fill:#64B48D;}
	.st26{fill:none;stroke:#FBE6BB;stroke-width:0.5;stroke-linecap:round;stroke-linejoin:round;stroke-miterlimit:10;}
	.st27{fill:none;stroke:#F7AC76;stroke-width:0.25;stroke-linecap:round;stroke-linejoin:round;stroke-miterlimit:10;}
	.st28{fill:#A0665A;}
	.st29{fill:#6C3F44;}
	.st30{fill:none;stroke:#6C3F44;stroke-width:0.5;stroke-linecap:round;stroke-linejoin:round;stroke-miterlimit:10;}
	.st31{fill:none;stroke:#7D4C47;stroke-width:0.5;stroke-linecap:round;stroke-linejoin:round;stroke-miterlimit:10;}
	.st32{fill:none;stroke:#F34B4B;stroke-width:0.5;stroke-linecap:round;stroke-linejoin:round;stroke-miterlimit:10;}
	.st33{fill:none;stroke:#FC7070;stroke-width:0.5;stroke-linecap:round;stroke-linejoin:round;stroke-miterlimit:10;}
	.st34{fill:#EAE8F3;}
	.st35{fill:#40304A;}
	.st36{fill:none;stroke:#43334E;stroke-linecap:round;stroke-linejoin:round;stroke-miterlimit:10;}
	.st37{fill:#32775B;}
	.st38{fill:none;stroke:#233764;stroke-width:0.5;stroke-linecap:round;stroke-linejoin:round;stroke-miterlimit:10;}
	.st39{fill:none;stroke:#408A6F;stroke-width:0.5;stroke-linecap:round;stroke-linejoin:round;stroke-miterlimit:10;}
	.st40{fill:#3643C3;}
	.st41{opacity:0.56;fill:url(#SVGID_1_);}
	.st42{opacity:0.52;fill:#FBC32E;}
	.st43{opacity:0.56;fill:url(#SVGID_2_);}
	.st44{fill:none;stroke:#EAE8F3;stroke-width:0.5;stroke-linecap:round;stroke-linejoin:round;stroke-miterlimit:10;}
	.st45{fill:#FEFFFD;}
	.st46{opacity:0.35;fill:#32775B;}
	.st47{fill:#43334E;}
	.st48{fill:none;stroke:#EAE8F3;stroke-width:0.25;stroke-linecap:round;stroke-linejoin:round;stroke-miterlimit:10;}
	.st49{fill:none;stroke:#FBC32E;stroke-width:0.5;stroke-linecap:round;stroke-linejoin:round;stroke-miterlimit:10;}
	.st50{fill:none;stroke:#161718;stroke-width:0.5;stroke-linecap:round;stroke-linejoin:round;stroke-miterlimit:10;}
	.st51{fill:none;stroke:#40304A;stroke-linecap:round;stroke-linejoin:round;stroke-miterlimit:10;}
	.st52{opacity:0.33;fill:#FBC32E;}
	.st53{fill:#A6A3AE;}
	.st54{fill:#5B4B68;}
	.st55{fill:#776688;}
	.st56{fill:none;stroke:#FBC32E;stroke-width:0.5;stroke-miterlimit:10;}
	.st57{fill:none;stroke:#EAE8F3;stroke-linecap:round;stroke-linejoin:round;stroke-miterlimit:10;}
	.st58{fill:none;stroke:#203881;stroke-width:2;stroke-linecap:round;stroke-linejoin:round;stroke-miterlimit:10;}
	.st59{fill:none;stroke:#40304A;stroke-width:2;stroke-linecap:round;stroke-linejoin:round;stroke-miterlimit:10;}
	.st60{fill:#FFD8B7;}
	.st61{fill:#F4E4D4;}
	.st62{fill:none;stroke:#4456D6;stroke-width:0.5;stroke-linecap:round;stroke-linejoin:round;stroke-miterlimit:10;}
	.st63{fill:none;stroke:#DDA103;stroke-width:0.25;stroke-miterlimit:10;}
	.st64{fill:none;stroke:#FFFFFF;stroke-width:0.5;stroke-linecap:round;stroke-linejoin:round;stroke-miterlimit:10;}
	.st65{fill:none;stroke:#64B48D;stroke-width:0.5;stroke-linecap:round;stroke-linejoin:round;stroke-miterlimit:10;}
	.st66{fill:none;stroke:#64B48D;stroke-linecap:round;stroke-linejoin:round;stroke-miterlimit:10;}
	.st67{opacity:0.48;fill:#64B48D;}
	.st68{fill:none;stroke:#64B48D;stroke-width:0.25;stroke-linecap:round;stroke-linejoin:round;stroke-miterlimit:10;}
	.st69{fill:none;stroke:#F06449;stroke-width:2;stroke-linecap:round;stroke-linejoin:round;stroke-miterlimit:10;}
	.st70{opacity:0.92;fill:#64B48D;}
	.st71{opacity:0.57;fill:#408A6F;}
	.st72{opacity:0.36;fill:#408A6F;}
	.st73{fill:none;stroke:#BE412D;stroke-width:2;stroke-linecap:round;stroke-linejoin:round;stroke-miterlimit:10;}
	.st74{opacity:0.65;fill:none;stroke:#408A6F;stroke-width:0.25;stroke-linecap:round;stroke-linejoin:round;stroke-miterlimit:10;}
	.st75{opacity:0.67;fill:none;stroke:#64B48D;stroke-width:0.25;stroke-linecap:round;stroke-linejoin:round;stroke-miterlimit:10;}
	.st76{opacity:0.98;fill:#64B48D;}
	.st77{fill:none;stroke:#408A6F;stroke-width:0.25;stroke-linecap:round;stroke-linejoin:round;stroke-miterlimit:10;}
	.st78{fill:none;stroke:#FFD9B2;stroke-width:0.5;stroke-linecap:round;stroke-linejoin:round;}
	
		.st79{fill:none;stroke:#FFD9B2;stroke-width:0.5;stroke-linecap:round;stroke-linejoin:round;stroke-dasharray:4.0333505,4.0333505;}
	.st80{fill:#E68B4A;}
	.st81{opacity:0.62;fill:#64B48D;}
	.st82{fill:none;stroke:#FBC32E;stroke-width:0.25;stroke-miterlimit:10;}
	.st83{fill:none;stroke:#4456D6;stroke-linecap:round;stroke-linejoin:round;stroke-miterlimit:10;}
	.st84{fill:none;stroke:#E68B4A;stroke-width:0.5;stroke-linecap:round;stroke-linejoin:round;stroke-miterlimit:10;}
	.st85{fill:none;stroke:#203881;stroke-width:0.5;stroke-linecap:round;stroke-linejoin:round;stroke-miterlimit:10;}
	.st86{opacity:0.29;fill:#EAE8F3;}
	.st87{fill:none;stroke:#A6A3AE;stroke-width:0.5;stroke-linecap:round;stroke-linejoin:round;stroke-miterlimit:10;}
	.st88{opacity:0.74;fill:#FFFFFF;}
	.st89{opacity:0.19;fill:#FFFFFF;}
	.st90{fill:none;stroke:#40304A;stroke-width:0.25;stroke-linecap:round;stroke-linejoin:round;stroke-miterlimit:10;}
	.st91{fill:none;stroke:#F34B4B;stroke-width:2;stroke-linecap:round;stroke-linejoin:round;stroke-miterlimit:10;}
	.st92{fill:none;stroke:#43334E;stroke-width:0.5;stroke-linecap:round;stroke-linejoin:round;stroke-miterlimit:10;}
	.st93{fill:none;stroke:#6582FC;stroke-miterlimit:10;}
	.st94{opacity:0.47;fill:#A6A3AE;}
	.st95{opacity:0.43;fill:#FFFFFF;}
	.st96{fill:none;stroke:#FBE6BB;stroke-linecap:round;stroke-linejoin:round;stroke-miterlimit:10;}
	.st97{fill:none;stroke:#5B4B68;stroke-width:0.5;stroke-linecap:round;stroke-linejoin:round;stroke-miterlimit:10;}
	.st98{fill:none;stroke:#40304A;stroke-width:0.5;stroke-linecap:round;stroke-linejoin:round;stroke-miterlimit:10;}
	.st99{fill:none;stroke:#DDA103;stroke-linecap:round;stroke-linejoin:round;stroke-miterlimit:10;}
	.st100{fill:none;stroke:#FBC32E;stroke-linecap:round;stroke-linejoin:round;stroke-miterlimit:10;}
	.st101{fill:none;stroke:#32775B;stroke-width:0.5;stroke-linecap:round;stroke-linejoin:round;stroke-miterlimit:10;}
	.st102{opacity:0.4;fill:#FBE6BB;}
	.st103{fill:none;stroke:#FBC32E;stroke-width:0.25;stroke-linecap:round;stroke-linejoin:round;stroke-miterlimit:10;}
	.st104{fill:none;stroke:#4456D6;stroke-miterlimit:10;}
	.st105{opacity:0.61;fill:#64B48D;}
	.st106{opacity:0.9;fill:#64B48D;}
	.st107{opacity:0.76;fill:#64B48D;}
	.st108{fill:none;stroke:#5B4B68;stroke-width:0.5;stroke-miterlimit:10;}
	.st109{opacity:0.66;fill:#A6A3AE;}
	.st110{fill:none;stroke:#43334E;stroke-miterlimit:10;}
	.st111{opacity:0.52;fill:#6582FC;}
	.st112{fill:none;stroke:#DDA103;stroke-width:0.5;stroke-linecap:round;stroke-linejoin:round;stroke-miterlimit:10;}
	.st113{fill:#46724E;}
	.st114{fill:#FE8B2E;}
	.st115{fill:none;stroke:#7D4C47;stroke-width:2;stroke-linecap:round;stroke-linejoin:round;stroke-miterlimit:10;}
	.st116{opacity:0.4;fill:#EAE8F3;}
	.st117{fill:none;stroke:#EAE8F3;stroke-width:0.5;stroke-linecap:round;stroke-miterlimit:10;}
	.st118{fill:none;stroke:#4456D6;stroke-width:0.25;stroke-linecap:round;stroke-linejoin:round;stroke-miterlimit:10;}
	.st119{opacity:0.5;fill:#EAE8F3;}
	.st120{opacity:0.46;fill:#A6A3AE;}
	.st121{fill:#E0916E;}
	.st122{fill:none;stroke:#A0665A;stroke-linecap:round;stroke-linejoin:round;stroke-miterlimit:10;}
	.st123{opacity:0.46;fill:#BE412D;}
	.st124{fill:none;stroke:#203881;stroke-linecap:round;stroke-linejoin:round;stroke-miterlimit:10;}
	.st125{fill:#DBDBE1;}
	.st126{fill:none;stroke:#6582FC;stroke-width:0.5;stroke-linecap:round;stroke-linejoin:round;stroke-miterlimit:10;}
	.st127{opacity:0.53;fill:#A6A3AE;}
	.st128{fill:none;stroke:#DDA103;stroke-miterlimit:10;}
	.st129{opacity:0.2;fill:#FFFFFF;}
	.st130{fill:#B4A1BF;}
	.st131{opacity:0.5;fill:#6582FC;}
	.st132{opacity:0.6;fill:none;stroke:#FFFFFF;stroke-linecap:round;stroke-linejoin:round;stroke-miterlimit:10;}
	.st133{opacity:0.6;fill:none;stroke:#FFFFFF;stroke-width:2;stroke-linecap:round;stroke-linejoin:round;stroke-miterlimit:10;}
	.st134{opacity:0.54;fill:#A6A3AE;}
	.st135{fill:#161718;stroke:#000000;stroke-width:0.25;stroke-miterlimit:10;}
</style>
<g id="_x31_4">
	<path class="st0" d="M56.0289917,102.9635925l-0.2897911,0.3726273l-2.5089264,3.1962051l-2.6497231,3.394928l-3.419796-4.1401749
		l2.0535126-2.7573242l1.5484238-2.0866699l1.242054-1.6726456l3.4115067,3.1382828
		c0.0082893,0.0082932,0.0082893,0.0082932,0.0165787,0.0082932l0.3394699,0.3146591L56.0289917,102.9635925z"/>
	<path class="st1" d="M55.7392006,103.3362198l-2.5089264,3.1962051c-1.6560707-1.4241943-4.0160065-3.5025711-4.0160065-3.5025711
		l1.5484238-2.0866699c1.5236092,0.4388809,3.8089981,1.1095886,4.6535606,1.4656372
		c0.0082893,0.0082932,0.0082893,0.0082932,0.0165787,0.0082932c0.1739044,0.0744934,0.2897911,0.1324615,0.3146553,0.173851
		c0.0165787,0.0248642,0.0248146,0.0745468,0.0248146,0.1408081
		C55.7888794,102.8642349,55.7723007,103.0795288,55.7392006,103.3362198z"/>
	<path class="st12" d="M48.584404,102.6523895c0,0,5.7941513,3.4533386,5.8076706,3.437088
		c0.0135193-0.016243,2.0644417-2.9291534,2.1574936-2.9953079c0.0930557-0.0661621-6.424614-2.9433365-6.424614-2.9433365
		L48.584404,102.6523895z"/>
	<path class="st35" d="M51.0293999,109.1538467c0.0137825,0.0302505,0.0261269,0.0611572,0.0368462,0.0927124
		c0.0585976,0.1724167,0.0670166,0.3573761,0.0706978,0.539444c0.0163002,0.8061829-0.0504951,1.6139679-0.1983109,2.4066391
		c-0.0998611,0.5355225-0.2805977,1.3831024-0.8506393,1.657196c-0.0025978,0.0012512-0.0046005,0.0037689-0.0071983,0.0050201
		c-0.9479904,0.7882004-2.1208725,0.0149231-3.0988312-0.3099518c-1.3234367-0.4386749-2.6741333-0.7858963-4.0094604-1.1852875
		c-1.4028473-0.4181213-2.7945709-0.8975372-4.0920982-1.5837479c-1.0404091-0.550705-2.9808083-1.4669266-2.2423515-2.9459839
		c0.0377579-0.0757294,0.0799561-0.1487579,0.1258774-0.2172089c0.6712646-1.0005417,1.6919136-0.987175,2.7398376-0.6361771
		c1.663414,0.5571671,3.2291679,1.4320374,4.9542236,1.7507248c1.2091675,0.2233734,2.4591751,0.1614151,3.6569481-0.1006165
		c0.9520607-0.2082825,1.8929329-0.6871109,2.6918259,0.1968231
		C50.8961334,108.9223175,50.9742737,109.0328293,51.0293999,109.1538467z"/>
	<path class="st7" d="M52.0681114,108.8906403c-0.2466965,0.465065-0.4532738,0.9379578-0.5912933,1.4628754
		c-0.1351662,0.514061-0.1467628,1.113739-0.3537483,1.6021881c-0.1769829,0.4176483-0.4071121,0.8064957-0.7495918,1.0942078
		c-0.0019913,0.0025635-0.0045891,0.0038071-0.0065765,0.0063629c-0.9486046,0.7868958-2.1215134,0.0135956-3.0994415-0.3112564
		c-1.3234558-0.4386749-2.6741486-0.7858887-4.0107613-1.1846619c-1.4015503-0.4187469-2.7932701-0.8981705-4.0907974-1.5843735
		c-0.8954048-0.4748764-2.4583282-1.2190399-2.4029045-2.3603058c0.3011818-0.4613647,0.7798042-0.8081055,1.3214722-0.9005203
		c0.4876976-0.0832062,1.0535278,0.0072479,1.5459862,0.0441132c0.5752106,0.0430527,1.1492615,0.1016693,1.7253265,0.1330109
		c1.0237541,0.055687,2.0726471,0.0219803,3.0378456-0.3237991c1.4722099-0.5273972,2.593689-1.7153931,3.6558304-2.8631744
		c0.0092468-0.0099335,1.1064453,0.6666336,1.1826134,0.7148285c0.4567528,0.2890015,0.9094315,0.5844498,1.3578529,0.8862228
		c0.8840294,0.5949249,1.7515106,1.2144394,2.601078,1.8576202c-0.0916023-0.0693512-0.7848854,1.1274414-0.8385849,1.2192307
		C52.2532387,108.552742,52.1580124,108.7211685,52.0681114,108.8906403z"/>
	<path class="st119" d="M88.9319916,103.5439987c0.9302139-0.3508148,1.8084564-0.830925,2.7454758-1.1631317
		c0.9370193-0.3321991,1.9690781-0.5114288,2.9245605-0.2367935c1.2555008,0.3608627,2.1962967,1.4753113,2.6164322,2.7122421
		c0.6413498,1.8881989,0.2023926,3.7918091-0.2155609,5.6654739c0.9124908-0.9450378,2.1318054-1.6428986,3.4427948-1.7268066
		c1.310997-0.0839005,2.6956863,0.5243912,3.3499222,1.6635666c0.9107056,1.5857468,0.2160263,3.6353073-0.8748474,5.1029434
		c1.5636139-1.4537506,4.4319305-0.6851196,5.3850555,1.2253265c0.9531326,1.9104462,0.1484909,4.3900909-1.5171051,5.7257767
		c-1.3607101,1.0911942-3.2688522,1.5130997-4.9255905,0.9676971s-2.9719238-2.0947876-3.113472-3.8332367
		c-1.6009445,1.8604736-3.9634933,3.0784378-6.4161224,3.1733398c-2.4526291,0.0948944-4.9512863-0.9755173-6.4774094-2.8978424
		c-1.7299957-2.1791382-2.0695038-5.3713226-0.8365402-7.8655853"/>
	<path class="st15" d="M85.1191406,112.156044c0.7216721,1.3199768,2.3094406,2.10746,3.7970123,1.8832016
		c0.9798584-0.1477203,1.954567-0.6870499,2.9083328-0.4182129c1.531044,0.4315491,2.0332794,2.6672134,3.5904617,2.9920349
		c0.6816635,0.142189,1.3800049-0.1386337,2.0761719-0.1234055c1.4911652,0.032608,2.5848923,1.3471222,3.8710022,2.102478
		c0.2437057,0.1431427,0.5450363,0.2690201,0.7995682,0.1461563c0.1819611-0.0878296,0.2883453-0.2837982,0.3382187-0.4795914
		c0.2284546-0.8969421-0.4800949-1.7367096-1.1333542-2.3924179c-0.4773636-0.4791489-0.9673615-0.9674225-1.577179-1.2599487
		c-0.571785-0.2742844-1.2180939-0.3608322-1.7951126-0.6239243c-0.9815445-0.4475327-1.7007751-1.4260101-1.8349762-2.4963837
		c-0.0567932-0.4529419-0.0154953-0.9121475-0.0365829-1.3681488c-0.059494-1.2867813-0.6175232-2.5105515-1.3720169-3.5546188
		c-0.7545013-1.044075-1.7017975-1.9310379-2.6427078-2.8108292"/>
	<path class="st20" d="M87.0947418,111.8170624c1.0240021,0.7004471,2.3192902,0.9926529,3.5448456,0.7996902
		c0.3720016-0.0585785,0.7385635-0.1599731,1.1147156-0.1780243c0.6226578-0.0298767,1.2538147,0.1800919,1.7344818,0.5770111
		c0.3173599,0.2620697,0.5660706,0.597168,0.8665314,0.8784561c0.4168472,0.3902512,0.933548,0.672966,1.4869766,0.8136063
		c0.1559677,0.0396347,0.327919,0.0666351,0.4724274-0.0041733c0.2327118-0.1140213,0.2864761-0.441391,0.184639-0.6796875
		s-0.3129959-0.4087296-0.5128098-0.5737534c-0.7518005-0.6208954-1.4839249-1.3600006-1.709259-2.3086548
		c-0.1627808-0.685318-0.0416107-1.4050446-0.1119995-2.1059036c-0.1447372-1.4411316-1.0762482-2.6732788-2.0551071-3.7408142"/>
	<path class="st119" d="M108.8272629,109.4901352c-0.5137253,0.0689468-0.8608246,0.6357803-0.8043747,1.1510239
		s0.4306259,0.9519806,0.8754578,1.2180328c1.1257935,0.6733322,2.6087494,0.3755646,3.7316971-0.3025131
		c0.3282623-0.1982193,0.6436844-0.4312668,0.8703842-0.7405548c0.2915421-0.3977509,0.4167862-0.8967056,0.448494-1.3888474
		c0.0778351-1.2082214-0.41362-2.4601746-1.3530655-3.2239304c-0.9394379-0.7637482-2.3180161-0.9812393-3.4123993-0.4633789
		c-0.5928497,0.2805328-1.1131744,0.8103561-1.1875687,1.4619904c-0.092514,0.8103561,0.5136566,1.5420303,1.1919785,1.9949112
		c-0.5084686,0.1935272-0.9370193,0.5886612-1.1711044,1.0797806"/>
	<path class="st119" d="M99.2463531,126.6648407c-0.1959-0.257431-0.6104965-0.2708511-0.8726044-0.0812607
		c-0.2621078,0.1895981-0.3835983,0.5273285-0.390686,0.8507385c-0.017952,0.8184891,0.60112,1.5311356,1.3154449,1.9311295
		c0.2088089,0.1169281,0.4325562,0.216156,0.6702881,0.2437134c0.3057327,0.0354462,0.6150589-0.0505524,0.8918304-0.1851807
		c0.6794815-0.3305511,1.2070465-0.983429,1.331543-1.7287216c0.1244965-0.745285-0.1828384-1.5602722-0.8014297-1.9942093
		c-0.3350983-0.2350769-0.7830658-0.3538895-1.1595383-0.1931992c-0.4681625,0.1998291-0.6780777,0.7544174-0.7144928,1.2621384
		c-0.2618637-0.2161407-0.6084442-0.3267212-0.9471054-0.3021927"/>
	<path class="st0" d="M40.5645981,67.8293915l-0.9522095,0.1573334l-0.0745468,0.0082855l-1.2751579,0.2070084l-2.7242699,0.9273987
		l-0.2732162,0.0993576l-0.2566872,0.0910721l-1.2337685,0.4140167l-1.084774,0.5216675
		c-0.2897949,0.1159439-0.6127396,0.0579681-0.8114605-0.1821442l-0.4719868-0.5382385l-0.4471207,0.0910721
		c-0.1242256,0.0414429-0.2732658,0.0248642-0.4057293-0.0248184c-0.1490421-0.0579681-0.2898445-0.1739044-0.3726273-0.3312302
		c-0.1573296-0.3146591-0.0579681-0.7038116,0.2152977-0.894249l0.2649784-0.1987686l-0.7700691,0.3478088
		c-0.3478107,0.1407547-0.7452526-0.0082855-0.919157-0.3395157l-0.0993614-0.2235413
		c-0.1490402-0.2898407-0.0827827-0.6458893,0.1739063-0.8611908l0.1076488-0.0910721l-0.6045017,0.2401123
		c-0.3394718,0.1408081-0.7369137-0.0165253-0.9025307-0.3560486l-0.1159363-0.2483978
		c-0.1656189-0.3560486-0.0165787-0.7783585,0.331234-0.9439774l2.8484459-1.3414078l0.2152977-0.1076508
		c0.3311844-0.1573334,0.6872349-0.2484055,1.0515728-0.2897949c0.1739063-0.0248642,0.3229465-0.0248642,0.496851-0.0165749
		l3.5771217,0.4140205l0.1655693,0.016571l1.66436-0.5050888l1.8630791,2.7490845L40.5645981,67.8293915z"/>
	<path class="st1" d="M39.7448502,66.620491c-0.0331001,0.5050964-0.0827827,0.9770813-0.1324615,1.3662338l-0.0745468,0.0082855
		l-1.2751579,0.2070084l-2.7242699,0.9273987l-0.2732162,0.0993576l-0.2566872,0.0910721l1.0433311-4.9599228l0.1655693,0.016571
		l1.66436-0.5050888L39.7448502,66.620491z"/>
	<path class="st21" d="M59.8413086,52.7591248l-1.2503433,1.8216896l-6.5746117,9.5969658
		c-0.3974419,0.5713425-0.9604988,0.9853592-1.6146812,1.1757965l-7.5102921,2.2770996l-5.6720276,1.714035l-1.4573517-6.1688766
		l0.6707077-0.198719l0.5382423-0.1656189l0.3394737-0.0993614l0.3726234-0.1159363l8.247261-2.5089226l0.198719-0.0662575
		l0.5133781-0.786644l2.7821922-4.2809334l3.8503876-5.9121895c0.2980804-0.5464821,2.5089226-2.4509583,3.9745636-2.4261398
		c0.1821442,0,0.3560486,0.0331001,0.5133781,0.1076469c0.0910721,0.0413933,0.1573296,0.0662575,0.2484016,0.0993614
		c0.0496788,0.0331039,0.074543,0.0413895,0.1076469,0.0662575c0.4885635,0.2732658,0.8942947,0.6044502,1.2337685,1.0184669
		c0.331234,0.3809166,0.5962105,0.8197479,0.7618294,1.3000221c0.0165253,0.0496826,0.0248146,0.1159363,0.0413895,0.1573296
		C60.5120125,50.4572105,60.4374695,51.6826897,59.8413086,52.7591248z"/>
	<path class="st20" d="M58.5909653,54.5808144l-6.5746117,9.5969658c-0.3974419,0.5713425-0.9604988,0.9853592-1.6146812,1.1757965
		l-7.5102921,2.2770996c-0.1490402-0.3146591-0.2484016-0.5299606-0.2484016-0.5299606l9.0007515-2.9643326
		c0,0,3.3281326-6.9185562,4.6918564-9.7852707c0.3104401-0.6525879,1.0874825-0.9301796,1.7446747-0.6296082
		c0.2015076,0.0921593,0.3450851,0.1554985,0.3450851,0.1554985L58.5909653,54.5808144z"/>
	<path class="st23" d="M58.9718781,50.3743782l-0.8503952-0.3697166c-0.0662041,0.1076508-7.7032318,13.866745-7.7032318,13.866745
		l-8.8020287,2.5586014l-4.4548378-1.3082581c0,0-0.3643379-1.1178818-0.7286758-2.1446342l0.5382423-0.1656189l0.3394737-0.0993614
		l0.3726234-0.1159363l8.247261-2.5089226l0.198719-0.0662575l0.5133781-0.786644l2.7821922-4.2809334l3.8503876-5.9121895
		c0.2980804-0.5464821,2.5089226-2.4509583,3.9745636-2.4261398c0.3809128,0.4057274,0.6872826,0.8197479,0.8528519,1.2006607
		C58.5743866,48.859108,58.9387245,50.0514793,58.9718781,50.3743782z"/>
	<path class="st24" d="M104.6618805,98.4264526l-7.6427612,2.3433075c0,0-7.8663406-8.8931046-15.037262-5.6389236
		l-14.805191-13.6460266c0,0,6.7484131-2.484108,12.933815-3.270752c3.4611359-0.4305954,6.7486191-0.3394699,8.5702591,1.0267563
		c3.59375,2.691124,10.0771332,11.1453857,13.5797119,15.8817291
		C103.717804,97.1015625,104.6618805,98.4264526,104.6618805,98.4264526z"/>
	<path class="st37" d="M104.6618805,98.4264526l-7.6427612,2.3433075c0,0-7.8663406-8.8931046-15.037262-5.6389236
		l-14.805191-13.6460266c0,0,6.7484131-2.484108,12.933815-3.270752l-4.1401749,4.355484l9.9447174,9.6797409
		c0,0,9.6218796,3.3204346,11.6007996,6.069519c0,0,2.326828-1.5980988,4.7446289-3.1962585
		C103.717804,97.1015625,104.6618805,98.4264526,104.6618805,98.4264526z"/>
	<path class="st24" d="M87.2399673,127.7637711c0,0-0.3064728-0.0331573-0.8446121-0.0993652
		c-3.7178802-0.4636917-18.6059494-2.4344254-23.6487656-4.7446747c-3.4860001-1.5981064-5.7879639-8.5121918-7.0714607-13.7619629
		c-0.8446159-3.4611816-1.2503433-6.1936951-1.2503433-6.1936951l19.0614052,6.4752502
		c0.5795898,7.8497696,12.1474304,10.4912033,12.1474304,10.4912033L87.2399673,127.7637711z"/>
	<path class="st37" d="M87.2399673,127.7637711c0,0-0.3064728-0.0331573-0.8446121-0.0993652l-2.1115341-6.5249252
		c-5.2249603,0.0744934-10.5657501-6.3924637-10.5657501-6.3924637l-18.042942-5.5892487
		c-0.8446159-3.4611816-1.2503433-6.1936951-1.2503433-6.1936951l19.0614052,6.4752502
		c0.5795898,7.8497696,12.1474304,10.4912033,12.1474304,10.4912033L87.2399673,127.7637711z"/>
	<path class="st34" d="M84.4328079,115.591629c0,0-0.6622696-0.1159363-1.8713684-0.3809204
		c-5.6306839-1.2337646-23.036026-5.6885986-39.4641342-16.4530716c-1.5485229-1.0101776-3.0885582-2.0783768-4.6039276-3.2044983
		c-6.3592644-4.7281036-12.3791027-10.4663849-17.2810116-17.4301529C18.3886318,74.1070328,15.929389,69.6852951,14,64.8247299
		l0.2235861-0.3809128c3.7346525-0.4471245,7.38622-0.5547714,10.9633932-0.3643417
		c1.598053,0.0745468,3.1712418,0.2153015,4.7361412,0.4057312c8.5536785,1.059906,16.5607243,3.7096329,23.7896671,7.1377182
		c0.9936028,0.4719391,1.9789162,0.9605026,2.9395676,1.4655914c4.1567574,2.1363449,8.0319099,4.5128021,11.5840187,6.9720459
		c11.8658218,8.1727676,20.1130295,17.1072617,23.0691757,20.5104752c0.7865982,0.9108734,1.2006149,1.4242477,1.2006149,1.4242477
		C92.8789368,108.0647583,90.3285217,112.6686325,84.4328079,115.591629z"/>
	<path class="st120" d="M91.4794083,108.6692581c-1.2337723,2.864975-3.5521088,5.1917496-7.0466003,6.9223709
		c0,0-0.6622696-0.1159363-1.8713684-0.3809204c-5.6306839-1.2337646-23.036026-5.6885986-39.4641342-16.4530716
		c-1.5485229-1.0101776-3.0885582-2.0783768-4.6039276-3.2044983c-6.3592644-4.7281036-12.3791027-10.4663849-17.2810116-17.4301529
		C18.3886318,74.1070328,15.929389,69.6852951,14,64.8247299l0.2235861-0.3809128
		c0.8114595-0.0993652,1.6229181-0.1821442,2.4345808-0.2401123c1.7636185,3.9994278,3.8917294,7.6841431,6.2763767,11.0791245
		c4.9021111,6.9637604,10.9217491,12.7020493,17.2812119,17.4301529c0.1241264,0.0910721,0.2401619,0.1821442,0.3642883,0.2649765
		l16.0723114-19.8894424c4.1567574,2.1363449,8.0319099,4.5128021,11.5840187,6.9720459l1.995697,10.5243607l-22.9282761,6.9058456
		c15.6663818,9.6300659,31.6309433,13.7039871,36.9800262,14.8797836c1.2089005,0.2649765,1.8713684,0.3809204,1.8713684,0.3809204
		C88.4074249,111.6335907,90.1793289,110.2673569,91.4794083,108.6692581z"/>
	<path class="st6" d="M53.7127876,71.6229248L39.4208717,85.7160645L25.1869793,64.0794754
		c1.598053,0.0745468,3.1712418,0.2153015,4.7361412,0.4057312C38.476799,65.5451126,46.4838448,68.1948395,53.7127876,71.6229248z"
		/>
	<path class="st13" d="M84.4328079,115.591629c0,0-0.6622696-0.1159363-1.8713684-0.3809204
		c2.3636246-1.0446091,9.5040207-7.0444183,8.7441101-14.6396713c0.7865982,0.9108734,1.2006149,1.4242477,1.2006149,1.4242477
		C92.8789368,108.0647583,90.3285217,112.6686325,84.4328079,115.591629z"/>
	
		<ellipse transform="matrix(0.5164723 -0.8563039 0.8563039 0.5164723 -51.6002731 117.81633)" class="st24" cx="78.5233459" cy="104.5989456" rx="1.2397586" ry="14.875596"/>
	<circle class="st55" cx="46.4597473" cy="83.8452072" r="7.0416827"/>
	<circle class="st54" cx="46.4597473" cy="83.8452072" r="6.118484"/>
	<path class="st7" d="M29.9231205,64.4852066c-1.6144276,4.9185333-4.1236038,8.6778564-6.5496941,11.4103622
		c-0.7368641,0.8363266-1.465641,1.573288-2.1610603,2.227417C18.3886318,74.1070328,15.929389,69.6852951,14,64.8247299
		l0.2235861-0.3809128c0.5714989-0.0662079,1.1427946-0.124176,1.7058029-0.1738586
		c0.1491919-0.0248642,0.2898932-0.0331573,0.4388838-0.0414429c0.0992584-0.0082397,0.1987209-0.0165253,0.2898941-0.0165253
		v-0.0082855C21.2040768,63.8310738,25.6339493,63.9552994,29.9231205,64.4852066z"/>
	<path class="st0" d="M67.2507019,29.3360577l0.6812057,7.2538052c0.0366135,0.3898849-0.0097809,0.7875214-0.1431046,1.1546402
		c-0.0985794,0.254261-0.2311096,0.4923515-0.3978653,0.7079201c-0.0282288,0.0413322-0.1361847,0.1288376-0.2798004,0.2454643
		l0.7214203,7.6820335l-4.3651276,0.4099274l-0.5815773-6.1929092c-0.0470276-0.0214005-0.1065559-0.0351295-0.1657791-0.0489311
		c-0.565506-0.1854439-1.0710487-0.5570259-1.4166298-1.0790787c-0.6059341-0.8908424-0.9727402-1.9137802-1.0729675-2.9810715
		l-0.3565102-3.7962723c0,0-0.309391-1.7826614,1.4394455-2.7979565L67.2507019,29.3360577z"/>
	<path class="st1" d="M67.5843124,32.8598595l0.3170242,3.3757935c-0.2517853-0.0946121-0.4358673-0.3326874-0.4625244-0.6165504
		l-0.1947327-2.0735397C67.2174225,33.2616959,67.3545456,32.999691,67.5843124,32.8598595z"/>
	<path class="st3" d="M69.9350739,33.3831062c0,0.5050926-0.1656189,0.9936562-0.4636993,1.4076729l-1.5401382,2.1031952
		c-0.0828323-0.5796356-0.1573257-1.167511-0.2401657-1.7471466c-0.0330963-0.2401619-0.0662537-0.4719849-0.0993576-0.7038612
		c-0.0165787-0.1407509-0.0331039-0.2732124-0.0579681-0.4057274c-0.0082855-0.0744972,0-0.2649765-0.0413895-0.3311844
		c-0.1159363-0.1573296-0.6790009-0.0828362-0.91082-0.132515c-0.1904831-0.6376038-0.3478165-1.2834473-0.4719849-1.9375763
		c-0.0911255-0.4471722-0.1573334-0.8942928-0.2153015-1.3497028c-0.0496826,0.3146572,0.0082855,0.6624184-0.1739044,0.9273968
		c-0.2483978,0.3394718-0.8031693,0.3063698-1.134407,0.0413914c-0.3229446-0.2732658-0.480278-0.6955719-0.6210251-1.0930138
		c-0.0331039,0.2649784-0.223587,0.4802761-0.4471207,0.621027c-0.223587,0.1490402-0.4885674,0.2152977-0.7369652,0.289793
		c-0.3891525,0.1076488-0.7700691,0.2152977-1.1509819,0.3229465c-0.4636993,0.1242256-0.935688,0.2566891-1.2834473,0.5713463
		c-0.2732658,0.2401619-0.45541,0.6044502-0.4223061,0.9687881c0.0413895,0.3892021,0.0413895,0.7783546,0.0828323,1.1675606
		c0,0-1.6312561-1.6809387-1.8713684-3.328722c-0.1490402-1.0101814,0.2235336-2.0121231,1.8051109-2.6165733
		c0,0-0.7700653-2.7573738,4.0739288-1.3993835c0.0331497,0.0082893,0.0662537,0.0165272,0.0993576,0.0248146l2.5172577,0.4471722
		c1.2585831,0.2235355,2.2439499,1.1675091,2.5337906,2.4095631l0.7121048,3.1879711
		C69.9184952,33.0104828,69.9350739,33.2009125,69.9350739,33.3831062z"/>
	<path class="st24" d="M68.6764374,34.0455284c-0.0082855,0.0248642-0.4968033,0.2070084-1.0847244,0.397438
		c-0.0165787-0.1407509-0.0331039-0.2732124-0.0579681-0.4057274c-0.0082855-0.0744972,0-0.2649765-0.0413895-0.3311844
		c-0.1159363-0.1573296-0.6790009-0.0828362-0.91082-0.132515c-0.1904831-0.6376038-0.3478165-1.2834473-0.4719849-1.9375763
		l2.4427109-0.1076488C68.5522614,31.5283146,68.7013016,33.9792709,68.6764374,34.0455284z"/>
	<path class="st1" d="M62.9735565,41.4832611l-0.0836754-0.8910103c0.036171,0.213932,2.3065147-0.8017693,2.5667305-1.0328445
		c0.1471252-0.052948,0.2474365,0.1490593,0.1163406,0.2342758C64.9192581,40.5774765,64.0625,41.1507301,62.9735565,41.4832611z"/>
	<path class="st0" d="M67.221077,33.3084488l0.1946335,2.0725288c0.038269,0.4075089,0.3992844,0.7065392,0.8067856,0.6682701
		s0.7065277-0.3992805,0.6682587-0.8067894l-0.1946259-2.0725327c-0.0191345-0.2037544-0.1190338-0.3796501-0.2647476-0.5008659
		c-0.1462326-0.1206017-0.3382339-0.1859474-0.5419846-0.1668129C67.4818954,32.5405159,67.182869,32.9015274,67.221077,33.3084488z
		"/>
	<path class="st4" d="M62.7560883,35.4797974l-0.4114342,0.6206856c-0.1075325,0.1622238-0.0614548,0.3810692,0.102356,0.4861641
		l0.4395027,0.2819633"/>
	<path class="st5" d="M63.4852066,39.0261002c0.0454941-0.0100746,0.0909843-0.020153,0.1415634-0.0363731
		c0.4162064-0.1377678,0.6591873-0.5144043,0.8018036-0.9104958c0.0560913-0.1444435,0.0942383-0.2930107,0.1221085-0.428997
		c-0.0005417-0.0057564,0.0046692-0.0120506,0.0041275-0.0178032c-0.0005341-0.0057526,0.0046768-0.0120506,0.0041351-0.0178032
		c0.0289459-0.1244812,0.0462418-0.2478676,0.0579224-0.3707237c0.0025101-0.0350647,0.0055618-0.0643768,0.0080872-0.0993042
		c0.0030518-0.0293083,0.011322-0.0649147,0.002327-0.0988998c-0.0010834-0.0115089-0.0079193-0.0224762-0.0199661-0.0271492
		c-0.0068359-0.0109673-0.0182037-0.009903-0.0246277-0.0149612c-0.0354614-0.0082779-0.0683823,0.012085-0.1023483,0.0212212
		c-0.0224915,0.0077744-0.0501862,0.0219841-0.0725174,0.0298882c-0.061676,0.0232086-0.1232071,0.046402-0.1848831,0.0696068
		c-0.0726471,0.0300407-0.1451492,0.06007-0.2182007,0.0842056c-0.0841522,0.0311203-0.1624107,0.0616913-0.2408066,0.0922699
		c-0.0834694,0.0368652-0.161869,0.0674477-0.2458916,0.0984154c-0.0783958,0.0305824-0.1566544,0.0611496-0.2349091,0.0917206
		c-0.0726433,0.0300407-0.1456871,0.0543137-0.2183418,0.0842171c-0.0615234,0.0233345-0.1232109,0.0463982-0.1848869,0.0696068
		c-0.0500259,0.02211-0.0949783,0.0379448-0.1399307,0.0537758c-0.0275497,0.0141945-0.0500259,0.02211-0.0782547,0.0305672
		c0,0,0,0-0.0057564,0.0005417c-0.0167198,0.0073738-0.1007462,0.0383415-0.178463,0.0746651
		c-0.0841484,0.0311241-0.1624069,0.0616913-0.1624069,0.0616913
		C62.2269516,38.1003685,62.5912895,39.2029266,63.4852066,39.0261002z"/>
	<path class="st6" d="M62.4774971,37.8042908l0.121624,0.3075676c0.053772,0.1399307,0.2170868,0.211525,0.3570328,0.1578903
		l1.5945282-0.6195145c-0.0005417-0.0057564,0.0046692-0.0120506,0.0041275-0.0178032
		c-0.0005341-0.0057526,0.0046768-0.0120506,0.0041351-0.0178032c0.0289459-0.1244812,0.0462418-0.2478676,0.0579224-0.3707237
		c0.0025101-0.0350647,0.0055618-0.0643768,0.0080872-0.0993042c0.0030518-0.0293083,0.011322-0.0649147,0.002327-0.0988998
		c-0.0010834-0.0115089-0.0079193-0.0224762-0.0199661-0.0271492c-0.0068359-0.0109673-0.0182037-0.009903-0.0246277-0.0149612
		c-0.0354614-0.0082779-0.0683823,0.012085-0.1023483,0.0212212c-0.0224915,0.0077744-0.0501862,0.0219841-0.0725174,0.0298882
		c-0.061676,0.0232086-0.1232071,0.046402-0.1848831,0.0696068c-0.0726471,0.0300407-0.1451492,0.06007-0.2182007,0.0842056
		c-0.0841522,0.0311203-0.1624107,0.0616913-0.2408066,0.0922699c-0.0834694,0.0368652-0.161869,0.0674477-0.2458916,0.0984154
		c-0.0783958,0.0305824-0.1566544,0.0611496-0.2349091,0.0917206c-0.0726433,0.0300407-0.1456871,0.0543137-0.2183418,0.0842171
		c-0.0615234,0.0233345-0.1232109,0.0463982-0.1848869,0.0696068c-0.0500259,0.02211-0.0949783,0.0379448-0.1399307,0.0537758
		c-0.0275497,0.0141945-0.0500259,0.02211-0.0782547,0.0305672c0,0,0,0-0.0057564,0.0005417
		C62.6392403,37.7369995,62.5552139,37.7679672,62.4774971,37.8042908z"/>
	<path class="st3" d="M64.4299469,38.0819893c-0.1448059,0.3910484-0.3897781,0.7675896-0.8050728,0.9069023
		c-0.0479088,0.0156593-0.0959244,0.0297318-0.1414146,0.0371933c-0.0913963-0.2780838,0.026741-0.6140594,0.3073425-0.8139915
		C63.9909363,38.0706711,64.2275314,38.0293427,64.4299469,38.0819893z"/>
	<path class="st1" d="M68.2338257,33.2532463l0.0556335,0.5924377l-0.5192413,0.3041229l-0.0794144-0.8455658
		c-0.0139084-0.1481094,0.097908-0.2831001,0.2460175-0.2970085S68.2199173,33.1051369,68.2338257,33.2532463z"/>
	<path class="st1" d="M67.8246918,34.7298927l0.5221634-0.2730827l0.0521545,0.5553741
		c0.0139084,0.1481094-0.0979004,0.2830963-0.2460098,0.2970085c-0.1481171,0.0139084-0.2831039-0.0979042-0.2970123-0.2460136
		L67.8246918,34.7298927z"/>
	
		<ellipse transform="matrix(0.5907636 -0.8068447 0.8068447 0.5907636 -55.8040085 69.3963928)" class="st12" cx="40.5084648" cy="89.7093887" rx="0.9103925" ry="4.2027707"/>
	<path class="st0" d="M45.1983147,88.8703995c-0.8197479,1.010231-1.7471962,1.9873123-2.6994057,2.9395676
		c-0.0413933,0.0413971-0.0745468,0.074501-0.1159401,0.1158905c-0.0082855,0.0082855-0.0248146,0.0248642-0.0331001,0.0331573
		c-1.4822197,1.473877-3.0306435,2.91465-4.405159,4.4133911l-1.8961868-5.2662964
		c0.4471207-0.529953,0.8942451-1.0681458,1.3414154-1.5981064c0.2401123-0.2815552,0.4719353-0.5879211,0.7038116-0.9025803
		c0.0579681-0.0827789,0.1159363-0.15728,0.1739044-0.2401123c0.1655655-0.2318192,0.3311844-0.4636993,0.4968033-0.7038116
		l0.0082855-0.016571c0.5464821-0.7866516,1.0764389-1.5981064,1.6394958-2.3433609
		c0.0413933-0.0579681,0.0828362-0.1076508,0.1242256-0.1573257c0.1324654-0.1738586,0.2649803-0.3477631,0.4057312-0.513382
		c0.2732658,0.2401657,0.5796356,0.5216675,0.9025803,0.8115082l0.0248146,0.0248184
		C43.0205765,86.527092,44.3785667,87.8685074,45.1983147,88.8703995z"/>
	<path class="st1" d="M45.1983147,88.8703995c-0.8197479,1.010231-1.7471962,1.9873123-2.6994057,2.9395676
		c-0.0413933,0.0413971-0.0745468,0.074501-0.1159401,0.1158905l-3.6185112-4.2643585l0.0082855-0.016571
		c0.5464821-0.7866516,1.0764389-1.5981064,1.6394958-2.3433609c0.0413933-0.0579681,0.0828362-0.1076508,0.1242256-0.1573257
		c0.1324654-0.1738586,0.2649803-0.3477631,0.4057312-0.513382c0.2732658,0.2401657,0.5796356,0.5216675,0.9025803,0.8115082
		l0.0248146,0.0248184C43.0205765,86.527092,44.3785667,87.8685074,45.1983147,88.8703995z"/>
	<path class="st121" d="M48.5863571,85.0768661c-0.9481277,1.1673203-2.0058212,2.2853928-3.1037636,3.3810806
		c-0.8117218-0.9392242-1.5496635-1.9588089-2.5827637-2.6408997c-0.7491035-0.4941788-1.6100159-0.7803574-2.4709396-1.0419693
		c0.9503632-1.2925568,1.8314056-2.723671,2.801899-3.9759369c0.5143127,0.0358124,1.0196838,0.1632385,1.5049248,0.3488541
		C46.0617485,82.3733978,47.6315308,83.9186096,48.5863571,85.0768661z"/>
	<path class="st34" d="M79.0517578,65.2045364c-0.0579681,0.0910721-0.1573257,0.1324615-0.2484512,0.1656113
		c-1.6891785,0.6955261-2.864975,2.3929901-4.802597,2.608284c-1.5732422,0.207016-3.1631088,0.3312378-4.7198181,0.6210327
		c-1.1095428,0.2070084-2.2025528,0.4968491-3.3038559,0.7038574c-1.0184708,0.1904297-2.0535164,0.2980804-3.088562,0.3726273
		c-0.7120972,0-1.3662796,0.0993576-2.0700912,0.0331039c-0.0827827-0.0165787-0.1739044-0.0248642-0.2483978-0.0745468
		c-0.0745468-0.0579681-0.1076508-0.1655655-0.1408043-0.2649765c-0.2070084-0.7534943-0.3560486-1.5152664-0.4802246-2.2853394
		c-0.0496788-0.3312302-0.0993614-0.6541824-0.1490402-0.9853668c-0.1242256-0.8528976-0.256691-1.714035-0.3809166-2.5669403
		c-0.5547676-3.7758408-1.1012993-7.543396-1.772007-11.3026619c-0.1904335-1.0847282-0.3726273-2.1694527-0.5464821-3.2541771
		c-0.0248642-0.1656189-0.3726273-2.2936783-0.2980804-2.3268318c1.564949-0.5299034,3.1796303-0.9191055,4.7694435-1.3745155
		c0.513382-0.1490402,1.0350456-0.3643379,1.5567131-0.4719887c0.132515,0.331234,0.3892059,0.6210289,0.6955719,0.8032227
		c0.3146591,0.1904335,0.6955261,0.2649765,1.0681534,0.2649765c0.7038574,0.0082397,1.4159546-0.2732658,1.9293365-0.7618294
		c0.5216675-0.4885139,0.7120972-0.7783546,0.7534866-1.4904556c2.1529236-0.1076469,3.3784027-0.074543,5.8128357-0.2897911
		c0.1490402,0.8031693,0.9191055,1.3745193,1.0930099,2.1694489c0.1821442,0.8197479,0.3560486,1.6477852,0.5713501,2.4592438
		c0.3394699,1.2503433,0.5382385,2.5420799,0.8114548,3.8172379c0.0413971,0.2318726,0.0910721,0.4554596,0.1490402,0.6789932
		c0.3229523,1.3910942,0.6790009,2.7656631,1.043335,4.1401825c0.5465317,2.0700912,1.1013031,4.1401787,1.573288,6.2351379
		c0.1573334,0.6789932,0.2980804,1.36623,0.4305496,2.0535088C79.0848618,64.9892349,79.1014404,65.1134644,79.0517578,65.2045364z"
		/>
	<path class="st53" d="M65.1241837,51.8565941c0,0-0.2732697,15.8403358-0.2732697,16.0887413
		c0,0.1821365-2.9891968-0.4223099-4.9019585-0.861145c-0.0496788-0.3312302-0.0993614-0.6541824-0.1490402-0.9853668
		c-0.1242256-0.8528976-0.256691-1.714035-0.3809166-2.5669403l4.5376244-14.1097183L65.1241837,51.8565941z"/>
	<path class="st6" d="M61.5396118,46.6546211l2.5447083,1.7464523l1.3942108-1.8969765l1.2944336,1.4801483
		c0,0,2.0348511-2.0249443,2.0976028-2.054966l0.3144913-0.8707428c-0.0550079-0.0003624-0.2993317-0.2982254-0.5720978-0.6494064
		c-0.2485886-0.322979-0.5182571-0.6940689-0.6817398-0.9151611l-0.1231232-0.0211372
		c0.1610641,0.6835251-0.546608,1.4076424-1.2662888,1.9464111c-0.7714081,0.57658-1.7940598,0.6238861-2.6530952,0.1878662
		c-0.4945374-0.2489777-0.7642136-0.8107033-0.8839645-1.1361275c-0.1496887,0.0318336-0.2381706,0.0435944-0.2434425,0.0315704
		C62.7254486,44.4052353,61.5396118,46.6546211,61.5396118,46.6546211z"/>
	<polygon class="st12" points="59.9385185,67.0447769 78.758667,63.7643585 79.3007965,66.071312 60.2054977,68.7384186 	"/>
	<path class="st11" d="M70.0994568,80.1847916l-3.9165955-0.654129l-10.2592812,0.0827789L45.8547325,90.1129379
		l-2.0454292,2.1363449c0.2981834-0.4057312-0.9770241-1.8465042-2.8566856-3.2210693
		c-1.6809349-1.2337646-3.2707024-1.9872589-3.7922668-1.8299332l1.6973114-2.2439957l2.508976-3.3204269l8.1313705-10.764473
		c1.0350456-1.3662796,2.6413879-2.177742,4.3471909-2.2108459l3.6847191-0.0579681l3.6269073-0.0579681h0.0909691
		l1.4324875-0.0248108l10.938324-0.1821976l1.6975174-0.0331039l0.8280334,0.0331039l3.6351929,0.1242294h0.0580215
		l0.3477097,1.5152664C81.5844116,76.0528946,76.1856003,81.5096283,70.0994568,80.1847916z"/>
	<path class="st13" d="M58.9718781,74.4809113l-4.6405487,1.3672562l-9.8264008,12.608696l-5.6472664-3.5025787l2.508976-3.3204269
		l8.1313705-10.764473c1.0350456-1.3662796,2.6413879-2.177742,4.3471909-2.2108459l3.6847191-0.0579681L58.9718781,74.4809113z"/>
	<line class="st85" x1="43.2265282" y1="86.6350937" x2="42.3769951" y2="87.5917969"/>
	<path class="st85" d="M59.507164,73.2282104l-1.918251,0.0634155c-1.6533699,0.0546646-3.211689,0.7861176-4.3101006,2.0230942
		L43.2265282,86.6350937"/>
	<path class="st85" d="M75.4480286,69.3198471v0.0000076c-0.4593506,2.0079956-2.2138519,3.4545135-4.2725906,3.5225754
		L59.507164,73.2282104"/>
	<path class="st12" d="M70.1006851,80.1836777l-3.9166412-0.654129L55.9247131,79.612381L45.8557625,90.1118774
		l9.7708168-12.7186737l14.8434906,0.9452438c2.5279236,0.1609802,4.9864426-0.8655243,6.6493454-2.7763062l1.3609924-1.5638657
		l-7.4771881-4.2229691l2.6166229-1.4408188l1.697464-0.0331039l0.8280334,0.0331039l3.6350937,0.1242218h0.0579147
		l0.3478165,1.5153198C81.5855484,76.0517883,76.1867371,81.5085678,70.1006851,80.1836777z"/>
	<g>
		<path class="st122" d="M68.2434387,77.5273895h-9.0466156v-1.9042282c0-1.3563309,1.0995216-2.4558487,2.4558487-2.4558487
			H65.78759c1.3563232,0,2.4558487,1.0995178,2.4558487,2.4558487V77.5273895z"/>
		<path class="st10" d="M73.4082336,78.7017517v14.1937027c0,0.2238083-0.0611115,0.4476852-0.183075,0.6511307
			c-0.0916672,0.1730118-0.2238159,0.3357849-0.3867722,0.478241c-0.2339935,0.1933212-0.5290985,0.3560867-0.8545151,0.4680557
			c-0.295105,0.1017227-0.6105804,0.1627731-0.9464188,0.1729584c-0.0608597,0.0101852-0.1321564,0.0101852-0.1932602,0.0101852
			H56.5896912c-0.7939034,0-1.5060844-0.2543716-1.9842644-0.6511993c-0.1627045-0.1424561-0.295105-0.3052292-0.3967018-0.478241
			c-0.1120338-0.2034454-0.1731415-0.4273224-0.1731415-0.6511307V78.7017517c0-0.3459702,0.1324005-0.6613846,0.3663979-0.9259338
			c0.0101852,0,0.0101852,0,0.0101852,0c0.3765831-0.4375076,1.0174713-0.7529144,1.7602005-0.8342667
			c0.1425858-0.0203705,0.2747383-0.0305557,0.4173241-0.0305557h14.2545013c0.8955002,0,1.6993408,0.3255997,2.146965,0.8139648
			C73.2557068,77.9996948,73.4082336,78.3354721,73.4082336,78.7017517z"/>
		<path class="st29" d="M59.4893265,85.3763428c-0.0814781,0.1220932-0.183075,6.4608994-0.2339973,9.2996826h-1.2922058
			l0.3559647-9.2996826H59.4893265z"/>
		<path class="st29" d="M71.9838715,85.1524658v9.340416c-0.295105,0.1017227-0.6105804,0.1627731-0.9464188,0.1729584
			l-0.1525269-10.205246L71.9838715,85.1524658z"/>
		<path class="st29" d="M73.4054947,79.2173691v4.7216949c-0.8783646,1.1120605-2.2400665,1.8210449-3.7709503,1.8210449H58.071682
			c-1.6921959,0-3.1827507-0.8782578-4.0369148-2.2078018v-4.334938c0-0.4835434,0.1369209-0.9427872,0.3706245-1.3296432
			c0.0080643,0,0.0080643,0,0.0080643,0c0.1530495-0.0482941,0.3143616-0.0723877,0.4835396-0.0723877H72.809227
			c0.0645294,0,0.1207886,0,0.1853104,0.0080643C73.252243,78.2182236,73.4054947,78.701561,73.4054947,79.2173691z"/>
		<path class="st10" d="M74.4358826,78.3354721v1.4956512c0,0.6206436-0.1117783,1.2006073-0.3256607,1.7398987
			c-0.691803,1.8008728-2.4316406,3.0727081-4.4767609,3.0727081H58.0751534c-1.6484184,0-3.1135139-0.8342667-3.9784622-2.0959778
			c-0.5291023-0.7732239-0.8341446-1.709343-0.8341446-2.716629v-1.4956512c0-0.9055557,0.742733-1.6381683,1.6379852-1.6381683
			h17.9075508C73.7135239,76.6973038,74.4358826,77.4299164,74.4358826,78.3354721z"/>
		<path class="st28" d="M54.9005318,76.6973038h1.7602005l-0.5596542,5.9929047l-2.0043869-0.1424561
			c-0.5291023-0.7732239-0.8341446-1.709343-0.8341446-2.716629v-1.4956512
			C53.2625465,77.4299164,54.0052795,76.6973038,54.9005318,76.6973038z"/>
		<path class="st28" d="M74.4358826,78.3354721v1.4956512c0,0.6206436-0.1117783,1.2006073-0.3256607,1.7398987
			l-2.8792648-4.6600266l-0.9461746,6.6542206h-9.2081451l-2.2893028-6.5423126l-0.2238159-0.3255997h14.2445641
			C73.7135239,76.6973038,74.4358826,77.4299164,74.4358826,78.3354721z"/>
		<path class="st1" d="M70.8254547,95.4276047h-0.3193588c-0.3854828,0-0.6979828-0.3125-0.6979828-0.6979828V76.8599396
			c0-0.3854828,0.3125-0.6979828,0.6979828-0.6979828h0.3193588c0.3854828,0,0.6979828,0.3125,0.6979828,0.6979828v17.8696823
			C71.5234375,95.1151047,71.2109375,95.4276047,70.8254547,95.4276047z"/>
		<path class="st1" d="M58.0927277,95.4276047h-0.3193588c-0.3854828,0-0.697979-0.3125-0.697979-0.6979828V76.8599396
			c0-0.3854828,0.3124962-0.6979828,0.697979-0.6979828h0.3193588c0.3854828,0,0.697979,0.3125,0.697979,0.6979828v17.8696823
			C58.7907066,95.1151047,58.4782104,95.4276047,58.0927277,95.4276047z"/>
		<circle class="st35" cx="70.6657715" cy="78.4345932" r="0.3843821"/>
		<circle class="st35" cx="70.6657715" cy="82.0973511" r="0.3843821"/>
		<circle class="st35" cx="70.6657715" cy="85.7601089" r="0.3843821"/>
		<circle class="st35" cx="70.6657715" cy="89.4228668" r="0.3843821"/>
		<circle class="st35" cx="70.6657715" cy="93.0856247" r="0.3843821"/>
		<circle class="st35" cx="57.9330482" cy="78.4345932" r="0.3843821"/>
		<circle class="st35" cx="57.9330482" cy="82.0973511" r="0.3843821"/>
		<circle class="st35" cx="57.9330482" cy="85.7601089" r="0.3843821"/>
		<circle class="st35" cx="57.9330482" cy="89.4228668" r="0.3843821"/>
		<circle class="st35" cx="57.9330482" cy="93.0856247" r="0.3843821"/>
		<path class="st28" d="M67.2620316,92.7173386h-5.1190453c-0.3624649,0-0.6563034-0.2938385-0.6563034-0.6563034v-4.0636978
			c0-0.3624649,0.2938385-0.6563034,0.6563034-0.6563034h5.1190453c0.3624649,0,0.6563034,0.2938385,0.6563034,0.6563034v4.0636978
			C67.918335,92.4235001,67.6244965,92.7173386,67.2620316,92.7173386z"/>
		<path class="st29" d="M61.0780411,87.1794815v0.5134811c0,0.9098816,0.7386971,1.6455917,1.6455765,1.6455917h3.9577789
			c0.9099579,0,1.6455765-0.7357101,1.6455765-1.6455917v-0.5134811c0-0.3093033-0.2491913-0.5615387-0.5584946-0.5615387
			h-6.1318665C61.3303108,86.6179428,61.0780411,86.8701782,61.0780411,87.1794815z"/>
	</g>
	<path class="st11" d="M79.8410034,68.4578552h-0.0581436l-7.5894852,0.0335159h-0.0245972l-4.9866028,0.0200882
		c-0.0469666,0.0022964-0.0939178,0.0022964-0.1408844,0.0022964c-1.9320297,0.0066605-3.8618279,0.0156097-5.791626,0.0245667
		h-0.0894394c0.5232544-0.0827637,1.0465164-0.1677094,1.569767-0.250473
		c3.9803581-0.6350327,7.9606972-1.2723541,11.9410362-1.9073868c0.8586884-0.1363754,1.7173615-0.2750397,2.5782852-0.4114151
		c0.0290756-0.0044785,0.0603714-0.0112457,0.0916824-0.0157242l1.6189651-0.2571335l0.2459869-0.040184l0.0134125,0.062561
		L79.8410034,68.4578552z"/>
	<polygon class="st21" points="82.0740585,73.7250061 72.568222,70.3300781 69.8108444,69.3447113 69.3057556,66.4300079 
		68.5853653,62.2153358 68.4528503,61.461792 66.8796158,52.3699722 66.9541092,51.4259987 67.5751343,43.6176224 
		73.8930588,43.3278313 75.8720779,50.6807976 78.6625519,61.0477753 	"/>
	<path class="st23" d="M70.4981308,59.0190773c0,0-1.0764389,2.782238-1.3166046,2.9643822
		c-0.0579681,0.0413933-0.2815018,0.1242256-0.5961609,0.2318764l-0.132515-0.7535439l-1.5732346-9.0918198l0.0744934-0.9439735
		l3.0057755,2.1777382L70.4981308,59.0190773z"/>
	<path class="st20" d="M78.6625519,61.0477753l-6.0943298,9.2823029l-2.7573776-0.9853668l-0.5050888-2.9147034
		l-0.8529053-4.9682159l1.5898666-2.0204086l-0.5841827-8.5563469c-0.0314484-0.4606094,0.5284195-0.7103691,0.8501587-0.379261
		l0.9263992,0.9533768l4.6369858-0.7783546L78.6625519,61.0477753z"/>
	<path class="st21" d="M73.9205017,59.5399284c-0.0163574,0.0514908-0.0331192,0.1027756-0.0501785,0.1538391
		c-0.5258484,1.5739059-1.3483734,3.0496559-2.4223633,4.3146629c-0.3672333,0.4325333-0.801239,0.8619232-1.3585358,0.9685669
		c-1.1047211,0.2113953-1.1661072-0.7733383-1.2965851-1.5347481c-0.1131287-0.660183-0.2266541-1.3203049-0.3399887-1.9804573
		l1.5898666-2.0204086l-0.4223022-6.0860443c0.7087708,0.5122643,1.4175339,1.0245247,2.1263046,1.5367889
		c0.9654922,0.6978149,2.2484665,1.4238892,2.4248276,2.7164803C74.2600708,58.2573814,74.1195297,58.9136925,73.9205017,59.5399284
		z"/>
	<path class="st7" d="M23.1714363,89.522049c0.6243992-0.651619,1.4460335-1.1547546,2.3453274-1.2306137
		c0.9051476-0.076355,1.798748,0.2839508,2.5555515,0.7863159s1.4080753,1.1450882,2.1088314,1.7230682
		c0.7007427,0.5779724,1.4772167,1.1035919,2.362299,1.3078842c1.842968,0.4254074,2.9692993-1.1137085,4.148716-2.2484436
		c1.5050812,1.1568069,2.9169884,2.4347916,4.2175674,3.8175278c-1.9449005,1.7949982-3.6011543,4.0301819-4.6562538,6.4574127
		c-0.1517067,0.348999-0.3472176,0.4003296-0.5640182,0.713089c-0.2200317,0.317421-0.4715538,0.6575623-0.8456726,0.7535172
		c-0.1489296,0.0382004-0.3059845,0.0333405-0.4580193,0.0104218c-0.5493546-0.0828094-1.0424538-0.3925171-1.5888672-0.4929352"/>
	<path class="st35" d="M34.9161301,101.6914978c0.7362213-1.0828629-0.7735558-2.6143875-1.3254242-3.446785
		c-0.2025185-0.3054657-0.4304237-0.5931625-0.6580238-0.8804321c-0.5968475-0.753334-1.193697-1.5066681-1.7905464-2.2600021
		c-0.3749218-0.4732208-0.7501907-0.9468536-1.1558437-1.3940125c-0.7079067-0.7803345-1.5043659-1.4750443-2.3347988-2.1215134
		c-0.7435493-0.5788345-1.3192501-1.2817078-2.2058487-1.6665421c-0.5448265-0.2364883-1.6419353-0.7798538-2.1997013-0.3455353
		c-0.1843128,0.1435165-0.255022,0.3887939-0.2837048,0.6206284c-0.0797806,0.6448593,0.2392254,1.2254486,0.4186058,1.8342285
		c0.2055492,0.6975784,0.4658756,1.3788223,0.8218651,2.0143661c0.5764408,1.0291138,1.3382683,2.0274963,2.4248428,2.4865341
		c0.4972515,0.2100754,1.0415001,0.2973175,1.5292091,0.5286789c1.2660561,0.6006088,2.0239754,2.0496445,2.8233471,3.1313095
		c0.2069874,0.2800827,0.4151764,0.561554,0.6647224,0.8044891c0.3911572,0.3807983,0.8737659,0.6564331,1.3750668,0.872551
		c0.3170128,0.136673,0.6519775,0.2526703,0.9971848,0.2499161
		C34.3622856,102.1166306,34.722023,101.9769897,34.9161301,101.6914978z"/>
	<path class="st0" d="M71.0032196,69.0714493l-0.1573257,0.1573257l-0.5299606,0.5465317l-0.8611374,0.8694305l-1.5567093,2.2191315
		l-0.1573334,0.223587l-0.1987228,0.2897949l-0.654129,0.9273911l-0.5382385,0.9936523
		c-0.1573334,0.256691-0.4305954,0.3891525-0.7121048,0.3146591l-0.6624146-0.1407471l-0.2898483,0.3146057
		c-0.0744934,0.099411-0.1987152,0.1656189-0.3229446,0.2070084c-0.1490402,0.0414429-0.3228912,0.0248642-0.4719353-0.0496826
		c-0.2898407-0.1490402-0.4305954-0.4968033-0.331234-0.7948837l0.0910721-0.306366l-0.3974419,0.6955185
		c-0.1821938,0.2980804-0.5630569,0.4140244-0.8860054,0.256691l-0.198719-0.1158829
		c-0.2732658-0.1408081-0.4223061-0.4471741-0.3477631-0.75354l0.0331039-0.1324692l-0.3229446,0.5216675
		c-0.1821442,0.2980804-0.5796356,0.3974457-0.8860054,0.2318268l-0.231823-0.1324615
		c-0.3229485-0.173912-0.4388847-0.5796356-0.2732658-0.8942947l1.4242477-2.6083374l0.1075974-0.1987228
		c0.1656189-0.306366,0.3892021-0.5713425,0.6376038-0.8114548c0.1242256-0.1159363,0.2401619-0.1904297,0.3726273-0.2815552
		l2.9560928-1.6725998l0.1407547-0.0828323l0.9853668-1.3165512l4.0077133,1.440773L71.0032196,69.0714493z"/>
	<path class="st1" d="M70.8458939,69.228775l-0.5299606,0.5465317l-0.8611374,0.8694305l-1.5567093,2.2191315l-0.1573334,0.223587
		l-0.1987228,0.2897949c-0.8280334-1.8796616-1.9044724-4.4299774-1.9044724-4.4299774l0.1407547-0.0828323l0.9853668-1.3165512
		l4.0077133,1.440773C70.7962112,69.0714493,70.8210754,69.1459961,70.8458939,69.228775z"/>
	<path class="st21" d="M77.7966995,59.9299469c0.0082932,0.654129-0.1904755,1.2834473-0.5796356,1.7968254l-7.8249512,10.3670311
		l-4.5376205-3.8917847l0.480278-0.6210251l0.2401123-0.3229446l0.1987152-0.2649765l0.223587-0.2980804l4.8853836-6.5000687
		l0.1159363-0.1573257l-0.0413895-0.8860054l-0.2649765-4.8026009l-0.0165787-0.29813l-0.3311844-6.3510246
		c-0.0828323-0.6541328,0.7203903-3.9662743,2.1280594-4.2643585c0.0910721-0.0165749,0.1490402-0.0331535,0.2484055-0.0579681
		c0.049675,0,0.0744934-0.0165749,0.1076431-0.0082855c0.5299072-0.0662575,1.0267563-0.0413933,1.515274,0.0827827
		c0.4554596,0.1076469,0.9108658,0.2980804,1.3000183,0.5713463c0.0414429,0.0331535,0.08284,0.0745468,0.1159363,0.0993614
		c0.8777237,0.6376038,1.4987488,1.6063919,1.647789,2.7573738L77.7966995,59.9299469z"/>
	<path class="st23" d="M76.7663727,58.5305634v1.8796577c0,0-7.5848465,9.7625313-7.5848465,9.9032784
		c-0.0827789,0-2.0369339-1.3745117-3.9414063-2.7325058l0.2401123-0.3229446l0.1987228-0.2649765l0.2235794-0.2980804
		l4.8853836-6.5000687l0.1159439-0.1573257l-0.0413971-0.8860054l-0.2649765-4.8026009l-0.0165787-0.29813
		C71.7898636,54.9285774,76.7663727,58.5305634,76.7663727,58.5305634z"/>
	<path class="st92" d="M72.5858917,101.2561722c1.1716003,1.8582611,3.4019165,2.9945068,5.5939178,2.8498383
		s4.2536392-1.5641708,5.1708603-3.5602951c0.5021133-1.0927353,0.6863556-2.3375473,1.3729477-3.3248596
		c1.1690292-1.6810455,3.5247421-2.1562271,5.5292892-1.7386932c2.0045471,0.4175415,3.7739029,1.5457001,5.5673065,2.5337448
		s3.7597275,1.8745193,5.8024826,1.7342682c1.1352768-0.0779495,2.2285995-0.472702,3.2456284-0.9831696
		c2.7809525-1.395813,5.1959534-3.9066772,5.6299667-6.987854c0.2931747-2.0813446-0.3278198-4.1669235-0.6170883-6.2488174
		c-0.541626-3.8981476-0.4873657-9.8633957,3.682724-11.7464905c1.9007416-0.8583221,4.0994568-0.2498779,6.1846466-0.2105713
		c1.8058777,0.0340347,3.6688461-0.4066696,5.091629-1.5193405s2.3279266-2.9623413,2.0372391-4.7449951"/>
	<g>
		<path class="st14" d="M138.4049683,61.173748c1.7342377,4.8411293,0.818985,9.9856148-1.9916077,13.8581581
			c-0.2352753,0.3197556-0.4867859,0.6318207-0.7462311,0.940033c-1.1715851,1.3682404-2.6039734,2.5338669-4.2566681,3.4219131
			c0.0797882,0.0723419,0.1390839,0.1250839,0.1390839,0.1250839l-1.9994659,0.7095337l-0.4113464,0.1473541
			c-0.0575256,0.0273514-0.1251678,0.0448456-0.1869812,0.060257c-2.3963547,0.7844543-4.8612061,0.9274826-7.1997986,0.5206985
			c-0.3942947-0.0672913-0.7806168-0.150856-1.1675568-0.2544556c-1.6822815-0.4333038-3.2810593-1.1588974-4.7128677-2.1326828
			c-0.2134018-0.1455154-0.415184-0.2952347-0.6190948-0.4509277c-1.053215-0.799942-2.0016403-1.7383118-2.8168488-2.8118973
			c-0.1359863-0.1732864-0.2661362-0.3486252-0.3864975-0.5342484c-0.6846771-0.9723282-1.2572861-2.0453644-1.7018967-3.2113113
			c-0.0399857-0.0932846-0.0763016-0.1946716-0.1126099-0.2960129c-0.0363007-0.1013412-0.0704803-0.1967545-0.1009674-0.3001862
			c-0.3947449-1.1771088-0.6395416-2.3675385-0.7280197-3.5534439c-0.0190582-0.2219086-0.0356827-0.4379578-0.040657-0.6581421
			c-0.051918-1.347023,0.0846405-2.674057,0.390625-3.9609146c0.0583801-0.249649,0.1231689-0.5015984,0.1977692-0.7435532
			c0.4856491-1.667408,1.2560501-3.2349777,2.2746964-4.6358833c0.2331467-0.3256874,0.4846497-0.6377449,0.7462158-0.9400291
			c1.6301498-1.9091835,3.7699203-3.4291458,6.3037643-4.3368454c0.083252-0.0298271,0.1668015-0.0597534,0.2524948-0.0837173
			c-0.0021439-0.0059662-0.0021439-0.0059662-0.0021439-0.0059662l1.5918045-0.5702362l0.0947266,0.1140442
			c1.911972-0.4090958,3.8345718-0.4318542,5.6806488-0.1043129c0.3940125,0.0674286,0.780632,0.1508942,1.1675568,0.2544556
			C132.6949158,52.9335709,136.6707306,56.3326187,138.4049683,61.173748z"/>
		<g>
			<g>
				<path class="st15" d="M128.0630951,51.7405128l-15.8350677,5.6726074
					c0.2331467-0.3256874,0.4846497-0.6377449,0.7462158-0.9400291l13.9212952-4.9870338
					C127.2895508,51.5534859,127.6761703,51.6369514,128.0630951,51.7405128z"/>
			</g>
			<g>
				<path class="st15" d="M130.2776489,54.7682114l0.2135773,0.5961952l-20.7356644,7.4281502
					c0.0583801-0.249649,0.1231689-0.5015984,0.1977692-0.7435532L130.2776489,54.7682114z"/>
			</g>
			<g>
				<path class="st15" d="M131.7043304,58.7508125l0.2135773,0.596199l-22.5123138,8.0646019
					c-0.0190582-0.2219086-0.0356827-0.4379578-0.040657-0.6581421L131.7043304,58.7508125z"/>
			</g>
			<g>
				<path class="st15" d="M133.128891,62.7274475l0.2135773,0.596199l-22.9952774,8.2376099
					c-0.0399857-0.0932846-0.0763016-0.1946716-0.1126099-0.2960129c-0.0363007-0.1013412-0.0704803-0.1967545-0.1009674-0.3001862
					L133.128891,62.7274475z"/>
			</g>
			<g>
				<path class="st15" d="M134.5555878,66.7100449l0.213562,0.596199l-22.3335648,8.0005722
					c-0.1359863-0.1732864-0.2661362-0.3486252-0.3864975-0.5342484L134.5555878,66.7100449z"/>
			</g>
			<g>
				<path class="st15" d="M135.9822693,70.6926498l0.2135773,0.596199l-20.3243179,7.2807922
					c-0.2134018-0.1455154-0.415184-0.2952347-0.6190948-0.4509277L135.9822693,70.6926498z"/>
			</g>
			<g>
				<path class="st15" d="M136.4133606,75.0319061c-0.2352753,0.3197556-0.4867859,0.6318207-0.7462311,0.940033
					l-13.9151764,4.9848404c-0.3942947-0.0672913-0.7806168-0.150856-1.1675568-0.2544556L136.4133606,75.0319061z"/>
			</g>
		</g>
		<path class="st15" d="M129.5484772,80.2321548c-0.0575409,0.0273514-0.1230469,0.0508118-0.182724,0.0721893
			c-0.0774384,0.0277405-0.1490479,0.0533981-0.2286224,0.0751648L129.5484772,80.2321548z"/>
		<path class="st15" d="M141.4846191,66.9362106c-0.5714874,5.5229874-4.1981964,10.4994965-9.7708588,12.5281906
			c-0.0248718,0.0082932-0.0414429,0.0165787-0.0663147,0.0248642c-7.7751694,2.782196-16.3371353-1.2586288-19.1277161-9.0421906
			c-1.3413086-3.742691-1.1011505-7.6758614,0.381073-11.0459747c1.598053-3.6350899,4.6203003-6.632576,8.6612244-8.0816383
			c1.4573517-0.5216675,2.9395676-0.8032227,4.4052048-0.8611908h0.0080872
			c6.3677597-0.2732162,12.44561,3.5771217,14.7142258,9.9033318
			C141.4680481,62.539341,141.716507,64.7750473,141.4846191,66.9362106z"/>
		<path class="st17" d="M141.4846191,66.9362106c-0.5714874,5.5229874-4.1981964,10.4994965-9.7708588,12.5281906
			l-18.8129578-20.0633011c1.598053-3.6350899,4.6203003-6.632576,8.6612244-8.0816383
			c1.4573517-0.5216675,2.9395676-0.8032227,4.4052048-0.8611908h0.0080872L141.4846191,66.9362106z"/>
		<circle class="st16" cx="126.6049728" cy="65.403801" r="12.8229589"/>
		<path class="st15" d="M129.1371307,80.379509l-0.184845,0.0662231l-0.0021515-0.0059662
			C129.0119629,80.4243546,129.0795898,80.4068604,129.1371307,80.379509z"/>
		<path class="st14" d="M131.9099274,66.7932434c0.6452789,1.8012695-0.0019836,3.940094-2.2136536,5.1673203l0.8497467,2.3720627
			l-1.4380188,0.5151367l-0.8258362-2.3053284c-1.3276291,0.4504852-2.8449097,0.5340195-3.8425903,0.2473755l-0.0059128-1.7208481
			l0.6524048-0.2337112c0,0,0.0812302,0.1800003,0.1603546,0.3774948c0.8660583,0.0828323,1.8654404,0.0008469,2.8217087-0.341713
			c1.6233215-0.5815277,2.3783722-1.9058762,1.9136658-3.2030945c-0.448761-1.252739-1.6170654-1.7124176-3.5440521-1.7915802
			c-2.6543121-0.0779419-4.4693909-0.615387-5.1810455-2.6019783c-0.6771393-1.8902206,0.1568604-3.8115883,2.1323624-4.9040337
			l-0.8231812-2.2979088l1.4085159-0.5045738l0.7913208,2.2089615c1.3871689-0.4467468,2.4514618-0.4181862,3.2518616-0.2615967
			l-0.0184174,0.7426262c0.2015686,0.2121353,0.6390839,0.7328796,0.6390839,0.7328796l-0.6524124,0.2337151
			c-0.5725861-0.1043472-1.6871567-0.2738113-3.1474304,0.2493019c-1.7568893,0.6293716-2.0396423,1.9183273-1.7130127,2.8301163
			c0.4248657,1.1860085,1.4824371,1.4762573,3.7536697,1.582695
			C129.5715485,64.0009613,131.1823425,64.7621841,131.9099274,66.7932434z"/>
		<path class="st15" d="M129.7603912,74.6145706l-0.8250275-2.3030624c-1.330719,0.4509735-2.8459167,0.5306396-3.8482208,0.2464752
			l-0.0000305-1.7238235c1.0169373,0.2531967,2.3578796,0.2616806,3.6348267-0.1957626
			c1.618988-0.5799713,2.3786011-1.9069748,1.9129944-3.2067261c-0.4492798-1.2541428-1.6163177-1.7108536-3.5487671-1.7904587
			c-2.6526108-0.0789108-4.4649353-0.613205-5.1755981-2.5970345c-0.6779938-1.8926201,0.1527328-3.8111343,2.1280518-4.904686
			l-0.8250351-2.3030663l1.413765-0.5064507l0.7923584,2.211853c1.384491-0.4445114,2.4500961-0.4145813,3.2502441-0.2638245
			l-0.0309448,1.7091866c-0.5768738-0.1020889-1.6914902-0.2688332-3.1508636,0.2539558
			c-1.7557983,0.6289825-2.0413208,1.9147949-1.7145767,2.8269005c0.4247665,1.1857338,1.4808502,1.4763641,3.7587509,1.5865936
			c2.6917572,0.1163445,4.3022614,0.8773117,5.0292664,2.9067459c0.6453094,1.8014069-0.0043488,3.9380798-2.2141571,5.1670914
			l0.8495331,2.3714676L129.7603912,74.6145706z"/>
	</g>
	<path class="st92" d="M112.0921326,75.3675537c-0.5927353,0.7647018-0.0943985,1.9737625,0.754364,2.4382019
		c0.8487701,0.4644394,1.8825226,0.3857727,2.8391037,0.2406845c7.5080109-1.1387939,14.1102219-5.4883881,20.1478958-10.0941925
		c1.5811615-1.2061691,3.1618958-2.4568024,4.3591614-4.0447159c1.1972504-1.5879097,1.9879913-3.571537,1.7717285-5.5484314
		c-0.1301575-1.1896667-0.7324677-2.4406433-1.8528748-2.86129c-0.7604675-0.285511-1.6200562-0.1363029-2.3768921,0.1587219"/>
	<polygon class="st21" points="64.4286118,52.7260208 63.2445221,67.307724 60.172493,68.5580673 59.9820595,67.440239 
		56.4215126,46.7890167 59.1706009,45.7953644 62.8884735,44.4456596 63.2445221,44.4456596 	"/>
	<path class="st23" d="M63.4681091,52.345108L62.4744568,66.60392c0,0-1.20895,0.4140167-2.4923973,0.836319l-3.5605469-20.6512222
		l2.7490883-0.9936523l3.469471,2.5089226L63.4681091,52.345108z"/>
	<path class="st40" d="M90.8677979,46.0603409l-0.1490402,0.3643379c0,0-0.2318192-0.1407509-0.4057312-0.256691
		c-1.0019379,0.1987228-1.9790192,0.4802246-2.9312286,0.8528519c-1.2420502-0.9025307-2.5669403-1.8299255-4.0904999-2.0038338
		c-1.2420502-0.1407509-2.5006866,0.2401123-3.618515,0.8031731c-1.1178741,0.554821-2.1446381,1.2917824-3.2210693,1.9293365
		c-1.7057571,1.010231-3.5854111,1.7803001-5.5561447,1.9955978c-1.9790192,0.2152443-3.9745636-0.1821976-5.622345-1.3000259
		l0.3311844-0.6872826c0.0497284-0.0165787,0.0911179-0.0745468,0.0497284-0.1076508l-0.0497284,0.1076508
		c-0.0248184,0.0082893-0.0496826,0.0082893-0.0662079-0.0082893c-0.0579681-0.0579681-0.0165787-0.1656151,0.0496826-0.198719
		c0.0744934-0.0413933,0.9711151,0.275219,1.0539474,0.2835083c3.0802765,0.4057274,5.4626923-0.5070953,8.1703873-2.0223656
		c2.4012756-1.3414154,4.4879379-3.3866882,7.1707687-3.9911385c1.4324875-0.3146591,2.9229965-0.1904831,4.3720551,0.0331001
		c0.6955261,0.1076508,1.3993378,0.2401123,2.0866165,0.3974419c0.132515,0.024868,0.2649765,0.0579681,0.3726273,0.1408043
		c0.0993576,0.0744934,0.1573334,0.1904297,0.223587,0.2980804C89.6423187,43.8163452,90.2550583,44.9342232,90.8677979,46.0603409z
		"/>
	<path class="st40" d="M65.6044083,47.7578049l0.0497284-0.1076508
		C65.6955261,47.6832581,65.6541367,47.7412262,65.6044083,47.7578049z"/>
	<path class="st11" d="M65.1272354,48.8141174c1.6438217,1.1114616,3.6443634,1.5080643,5.6172485,1.2954826
		c1.9728851-0.2125854,3.8540497-0.9808464,5.5615845-1.9916954c1.0778275-0.6380692,2.0987015-1.3754768,3.2189331-1.9357834
		c1.1202316-0.5603027,2.3733978-0.941452,3.6177673-0.7986183c1.5266876,0.1752434,2.8471069,1.103344,4.0937729,2.0018501
		c1.1252518-0.4367523,2.2946701-0.7596169,3.4846115-0.962059c-0.6113358-1.1210747-1.2226715-2.2421455-1.8339996-3.3632202
		c-0.0604782-0.1109085-0.1236954-0.22509-0.2235031-0.3025208c-0.1049194-0.0813942-0.2388382-0.1133575-0.3684082-0.1424294
		c-0.6916275-0.1551819-1.3884125-0.2873764-2.0888138-0.3962936c-1.4477768-0.2251396-2.93927-0.3490906-4.3691254-0.0293465
		c-2.6840134,0.6002007-4.7684174,2.6495171-7.1694107,3.9909325c-2.7097549,1.5139198-4.9490356,2.0621452-8.026062,1.6538887
		c-0.0792618-0.0105171-1.1291656,0.043251-1.1995239,0.0812302c-0.0703659,0.0379791-0.106781,0.145649-0.0473633,0.1991539
		s0.1735001-0.0505676,0.1110458-0.1004944"/>
	<path class="st11" d="M64.3054428,48.1002121l0.8218002,0.713913c0.8993454,0.011425,1.3978653-0.3206215,1.5145874-0.9798279
		l-1.1632996-1.3302002L64.3054428,48.1002121z"/>
	<line class="st4" x1="61.8203239" y1="74.9256744" x2="62.9335136" y2="72.7269363"/>
	<line class="st4" x1="63.6502533" y1="74.8428879" x2="64.3063507" y2="73.3772507"/>
	<line class="st4" x1="64.9751434" y1="75.4722061" x2="65.8825684" y2="73.489624"/>
	<path class="st5" d="M64.014595,26.7588177c-0.1076508,0.9770775-0.6707115,1.9127617-1.5318489,2.4012756
		c-0.3726273,0.2070084-0.8032227,0.3478107-1.2337685,0.3395233c-0.4223061-0.0082893-0.8611908-0.165617-1.1675568-0.4636993
		c0.074543,0.7038116-0.3146591,1.4490643-0.9687881,1.7140408c-0.3063698,0.1324654-0.6624222,0.1324654-0.9770775,0.0248165
		c-0.1490402-1.0101814,0.2235336-2.0121231,1.8051109-2.6165733C59.9406662,28.1582012,59.1706009,25.4008274,64.014595,26.7588177
		z"/>
	<path class="st92" d="M84.8876648,76.7637405c0.8798447,3.5194397-3.3532562,12.8522568-10.4558487,22.5527344
		c-6.6873856,9.1334076-13.832283,15.7433472-17.6670036,16.6719971"/>
	<path class="st123" d="M23.3734264,75.8955688c-0.7368641,0.8363266-1.465641,1.573288-2.1610603,2.227417
		C18.3886318,74.1070328,15.929389,69.6852951,14,64.8247299l0.2235861-0.3809128
		c0.5714989-0.0662079,1.1427946-0.124176,1.7058029-0.1738586c0.1491919-0.0248642,0.2898932-0.0331573,0.4388838-0.0414429
		c0.0992584-0.0082397,0.1904316-0.0165253,0.2898941-0.0248108v0.0082855
		c1.7636185,3.999382,3.8917294,7.6758575,6.2763767,11.0708389C23.0837345,75.4898376,23.2244358,75.696846,23.3734264,75.8955688z
		"/>
</g>
</svg>
