<?xml version="1.0" encoding="utf-8"?>
<!-- Generator: Adobe Illustrator 22.0.1, SVG Export Plug-In . SVG Version: 6.00 Build 0)  -->
<svg version="1.1" id="Layer_1" xmlns="http://www.w3.org/2000/svg" xmlns:xlink="http://www.w3.org/1999/xlink" x="0px" y="0px"
	 viewBox="0 0 156 156" style="enable-background:new 0 0 156 156;" xml:space="preserve">
<style type="text/css">
	.st0{fill:#FFD9B2;}
	.st1{fill:#F7AC76;}
	.st2{fill:none;stroke:#3643C3;stroke-width:0.5;stroke-linecap:round;stroke-linejoin:round;stroke-miterlimit:10;}
	.st3{fill:#233764;}
	.st4{fill:none;stroke:#F7AC76;stroke-width:0.5;stroke-linecap:round;stroke-linejoin:round;stroke-miterlimit:10;}
	.st5{fill:#161718;}
	.st6{fill:#FFFFFF;}
	.st7{fill:#F06449;}
	.st8{fill:#BE412D;}
	.st9{fill:#FE8E60;}
	.st10{fill:#7D4C47;}
	.st11{fill:#4456D6;}
	.st12{fill:#203881;}
	.st13{fill:#6582FC;}
	.st14{fill:#DDA103;}
	.st15{fill:#FBC32E;}
	.st16{fill:none;stroke:#DDA103;stroke-width:0.5;stroke-miterlimit:10;}
	.st17{fill:#FBE6BB;}
	.st18{fill:none;stroke:#BE412D;stroke-width:0.5;stroke-linecap:round;stroke-linejoin:round;stroke-miterlimit:10;}
	.st19{fill:none;stroke:#F06449;stroke-width:0.5;stroke-linecap:round;stroke-linejoin:round;stroke-miterlimit:10;}
	.st20{fill:#F34B4B;}
	.st21{fill:#FC7070;}
	.st22{fill:none;stroke:#FFFFFF;stroke-miterlimit:10;}
	.st23{fill:#FC9F9F;}
	.st24{fill:#408A6F;}
	.st25{fill:#64B48D;}
	.st26{fill:none;stroke:#FBE6BB;stroke-width:0.5;stroke-linecap:round;stroke-linejoin:round;stroke-miterlimit:10;}
	.st27{fill:none;stroke:#F7AC76;stroke-width:0.25;stroke-linecap:round;stroke-linejoin:round;stroke-miterlimit:10;}
	.st28{fill:#A0665A;}
	.st29{fill:#6C3F44;}
	.st30{fill:none;stroke:#6C3F44;stroke-width:0.5;stroke-linecap:round;stroke-linejoin:round;stroke-miterlimit:10;}
	.st31{fill:none;stroke:#7D4C47;stroke-width:0.5;stroke-linecap:round;stroke-linejoin:round;stroke-miterlimit:10;}
	.st32{fill:none;stroke:#F34B4B;stroke-width:0.5;stroke-linecap:round;stroke-linejoin:round;stroke-miterlimit:10;}
	.st33{fill:none;stroke:#FC7070;stroke-width:0.5;stroke-linecap:round;stroke-linejoin:round;stroke-miterlimit:10;}
	.st34{fill:#EAE8F3;}
	.st35{fill:#40304A;}
	.st36{fill:none;stroke:#43334E;stroke-linecap:round;stroke-linejoin:round;stroke-miterlimit:10;}
	.st37{fill:#32775B;}
	.st38{fill:none;stroke:#233764;stroke-width:0.5;stroke-linecap:round;stroke-linejoin:round;stroke-miterlimit:10;}
	.st39{fill:none;stroke:#408A6F;stroke-width:0.5;stroke-linecap:round;stroke-linejoin:round;stroke-miterlimit:10;}
	.st40{fill:#3643C3;}
	.st41{opacity:0.56;fill:url(#SVGID_1_);}
	.st42{opacity:0.52;fill:#FBC32E;}
	.st43{opacity:0.56;fill:url(#SVGID_2_);}
	.st44{fill:none;stroke:#EAE8F3;stroke-width:0.5;stroke-linecap:round;stroke-linejoin:round;stroke-miterlimit:10;}
	.st45{fill:#FEFFFD;}
	.st46{opacity:0.35;fill:#32775B;}
	.st47{fill:#43334E;}
	.st48{fill:none;stroke:#EAE8F3;stroke-width:0.25;stroke-linecap:round;stroke-linejoin:round;stroke-miterlimit:10;}
	.st49{fill:none;stroke:#FBC32E;stroke-width:0.5;stroke-linecap:round;stroke-linejoin:round;stroke-miterlimit:10;}
	.st50{fill:none;stroke:#161718;stroke-width:0.5;stroke-linecap:round;stroke-linejoin:round;stroke-miterlimit:10;}
	.st51{fill:none;stroke:#40304A;stroke-linecap:round;stroke-linejoin:round;stroke-miterlimit:10;}
	.st52{opacity:0.33;fill:#FBC32E;}
	.st53{fill:#A6A3AE;}
	.st54{fill:#5B4B68;}
	.st55{fill:#776688;}
	.st56{fill:none;stroke:#FBC32E;stroke-width:0.5;stroke-miterlimit:10;}
	.st57{fill:none;stroke:#EAE8F3;stroke-linecap:round;stroke-linejoin:round;stroke-miterlimit:10;}
	.st58{fill:none;stroke:#203881;stroke-width:2;stroke-linecap:round;stroke-linejoin:round;stroke-miterlimit:10;}
	.st59{fill:none;stroke:#40304A;stroke-width:2;stroke-linecap:round;stroke-linejoin:round;stroke-miterlimit:10;}
	.st60{fill:#FFD8B7;}
	.st61{fill:#F4E4D4;}
	.st62{fill:none;stroke:#4456D6;stroke-width:0.5;stroke-linecap:round;stroke-linejoin:round;stroke-miterlimit:10;}
	.st63{fill:none;stroke:#DDA103;stroke-width:0.25;stroke-miterlimit:10;}
	.st64{fill:none;stroke:#FFFFFF;stroke-width:0.5;stroke-linecap:round;stroke-linejoin:round;stroke-miterlimit:10;}
	.st65{fill:none;stroke:#64B48D;stroke-width:0.5;stroke-linecap:round;stroke-linejoin:round;stroke-miterlimit:10;}
	.st66{fill:none;stroke:#64B48D;stroke-linecap:round;stroke-linejoin:round;stroke-miterlimit:10;}
	.st67{opacity:0.48;fill:#64B48D;}
	.st68{fill:none;stroke:#64B48D;stroke-width:0.25;stroke-linecap:round;stroke-linejoin:round;stroke-miterlimit:10;}
	.st69{fill:none;stroke:#F06449;stroke-width:2;stroke-linecap:round;stroke-linejoin:round;stroke-miterlimit:10;}
	.st70{opacity:0.92;fill:#64B48D;}
	.st71{opacity:0.57;fill:#408A6F;}
	.st72{opacity:0.36;fill:#408A6F;}
	.st73{fill:none;stroke:#BE412D;stroke-width:2;stroke-linecap:round;stroke-linejoin:round;stroke-miterlimit:10;}
	.st74{opacity:0.65;fill:none;stroke:#408A6F;stroke-width:0.25;stroke-linecap:round;stroke-linejoin:round;stroke-miterlimit:10;}
	.st75{opacity:0.67;fill:none;stroke:#64B48D;stroke-width:0.25;stroke-linecap:round;stroke-linejoin:round;stroke-miterlimit:10;}
	.st76{opacity:0.98;fill:#64B48D;}
	.st77{fill:none;stroke:#408A6F;stroke-width:0.25;stroke-linecap:round;stroke-linejoin:round;stroke-miterlimit:10;}
	.st78{fill:none;stroke:#FFD9B2;stroke-width:0.5;stroke-linecap:round;stroke-linejoin:round;}
	
		.st79{fill:none;stroke:#FFD9B2;stroke-width:0.5;stroke-linecap:round;stroke-linejoin:round;stroke-dasharray:4.0333505,4.0333505;}
	.st80{fill:#E68B4A;}
	.st81{opacity:0.62;fill:#64B48D;}
	.st82{fill:none;stroke:#FBC32E;stroke-width:0.25;stroke-miterlimit:10;}
	.st83{fill:none;stroke:#4456D6;stroke-linecap:round;stroke-linejoin:round;stroke-miterlimit:10;}
	.st84{fill:none;stroke:#E68B4A;stroke-width:0.5;stroke-linecap:round;stroke-linejoin:round;stroke-miterlimit:10;}
	.st85{fill:none;stroke:#203881;stroke-width:0.5;stroke-linecap:round;stroke-linejoin:round;stroke-miterlimit:10;}
	.st86{opacity:0.29;fill:#EAE8F3;}
	.st87{fill:none;stroke:#A6A3AE;stroke-width:0.5;stroke-linecap:round;stroke-linejoin:round;stroke-miterlimit:10;}
	.st88{opacity:0.74;fill:#FFFFFF;}
	.st89{opacity:0.19;fill:#FFFFFF;}
	.st90{fill:none;stroke:#40304A;stroke-width:0.25;stroke-linecap:round;stroke-linejoin:round;stroke-miterlimit:10;}
	.st91{fill:none;stroke:#F34B4B;stroke-width:2;stroke-linecap:round;stroke-linejoin:round;stroke-miterlimit:10;}
	.st92{fill:none;stroke:#43334E;stroke-width:0.5;stroke-linecap:round;stroke-linejoin:round;stroke-miterlimit:10;}
	.st93{fill:none;stroke:#6582FC;stroke-miterlimit:10;}
	.st94{opacity:0.47;fill:#A6A3AE;}
	.st95{opacity:0.43;fill:#FFFFFF;}
	.st96{fill:none;stroke:#FBE6BB;stroke-linecap:round;stroke-linejoin:round;stroke-miterlimit:10;}
	.st97{fill:none;stroke:#5B4B68;stroke-width:0.5;stroke-linecap:round;stroke-linejoin:round;stroke-miterlimit:10;}
	.st98{fill:none;stroke:#40304A;stroke-width:0.5;stroke-linecap:round;stroke-linejoin:round;stroke-miterlimit:10;}
	.st99{fill:none;stroke:#DDA103;stroke-linecap:round;stroke-linejoin:round;stroke-miterlimit:10;}
	.st100{fill:none;stroke:#FBC32E;stroke-linecap:round;stroke-linejoin:round;stroke-miterlimit:10;}
	.st101{fill:none;stroke:#32775B;stroke-width:0.5;stroke-linecap:round;stroke-linejoin:round;stroke-miterlimit:10;}
	.st102{opacity:0.4;fill:#FBE6BB;}
	.st103{fill:none;stroke:#FBC32E;stroke-width:0.25;stroke-linecap:round;stroke-linejoin:round;stroke-miterlimit:10;}
	.st104{fill:none;stroke:#4456D6;stroke-miterlimit:10;}
	.st105{opacity:0.61;fill:#64B48D;}
	.st106{opacity:0.9;fill:#64B48D;}
	.st107{opacity:0.76;fill:#64B48D;}
	.st108{fill:none;stroke:#5B4B68;stroke-width:0.5;stroke-miterlimit:10;}
	.st109{opacity:0.66;fill:#A6A3AE;}
	.st110{fill:none;stroke:#43334E;stroke-miterlimit:10;}
	.st111{opacity:0.52;fill:#6582FC;}
	.st112{fill:none;stroke:#DDA103;stroke-width:0.5;stroke-linecap:round;stroke-linejoin:round;stroke-miterlimit:10;}
	.st113{fill:#46724E;}
	.st114{fill:#FE8B2E;}
	.st115{fill:none;stroke:#7D4C47;stroke-width:2;stroke-linecap:round;stroke-linejoin:round;stroke-miterlimit:10;}
	.st116{opacity:0.4;fill:#EAE8F3;}
	.st117{fill:none;stroke:#EAE8F3;stroke-width:0.5;stroke-linecap:round;stroke-miterlimit:10;}
	.st118{fill:none;stroke:#4456D6;stroke-width:0.25;stroke-linecap:round;stroke-linejoin:round;stroke-miterlimit:10;}
	.st119{opacity:0.5;fill:#EAE8F3;}
	.st120{opacity:0.46;fill:#A6A3AE;}
	.st121{fill:#E0916E;}
	.st122{fill:none;stroke:#A0665A;stroke-linecap:round;stroke-linejoin:round;stroke-miterlimit:10;}
	.st123{opacity:0.46;fill:#BE412D;}
	.st124{fill:none;stroke:#203881;stroke-linecap:round;stroke-linejoin:round;stroke-miterlimit:10;}
	.st125{fill:#DBDBE1;}
	.st126{fill:none;stroke:#6582FC;stroke-width:0.5;stroke-linecap:round;stroke-linejoin:round;stroke-miterlimit:10;}
	.st127{opacity:0.53;fill:#A6A3AE;}
	.st128{fill:none;stroke:#DDA103;stroke-miterlimit:10;}
	.st129{opacity:0.2;fill:#FFFFFF;}
	.st130{fill:#B4A1BF;}
	.st131{font-family:'Poppins-Regular';}
	.st132{font-size:9.1519203px;}
	.st133{font-family:'MyriadPro-Regular';}
	.st134{font-size:14.7637796px;}
	.st135{opacity:0.5;fill:#6582FC;}
	.st136{opacity:0.6;fill:none;stroke:#FFFFFF;stroke-linecap:round;stroke-linejoin:round;stroke-miterlimit:10;}
	.st137{opacity:0.6;fill:none;stroke:#FFFFFF;stroke-width:2;stroke-linecap:round;stroke-linejoin:round;stroke-miterlimit:10;}
	.st138{opacity:0.54;fill:#A6A3AE;}
	.st139{fill:#161718;stroke:#000000;stroke-width:0.25;stroke-miterlimit:10;}
</style>
<g id="_x35_">
	<g>
		<g>
			<path class="st5" d="M52.1410446,41.1773491c1.1165619,4.9973831-0.0373154,10.2928848-3.0248413,14.4518814
				c-0.3793983,0.5281715-0.7873802,1.0358315-1.2223892,1.5192451c-0.403698,0.4486237-0.8336525,0.8827095-1.1359825,1.4050407
				c-0.6394386,1.1047478-0.6315689,2.4510307-0.8848495,3.7021103c-0.1672363,0.8260689-0.5474739,1.7256393-1.3418045,2.007412
				c-0.6111526,0.2167969-1.3179741-0.0170517-1.7914734-0.4601135s-0.744873-1.0626831-0.9137268-1.6887779
				c-0.5377426-1.9938622-0.1390991-4.1351433,0.6070671-6.06073s1.8264275-3.7013702,2.7174644-5.5643539
				c0.9137077-1.9103813,1.6289253-3.9156265,2.1304207-5.9730339"/>
			<path class="st3" d="M42.0665665,49.3323212c-0.0067863-0.5227966-0.1045265-1.0372238-0.0881348-1.5538864
				c0.0197754-0.6231461-0.0342484-1.2587433-0.1072655-1.877018c-0.0587196-0.4972458-0.1293411-0.8948936-0.486557-1.2480087
				l10.9061928-2.0523186c0,0,3.4768715-2.5503197,0.5435181-4.4481392c0,0-4.2873383-1.6601334-6.2927475-2.4613991
				c-0.2786636-0.1120186-0.5125771-0.2061996-0.6857338-0.2777557c-2.7893105-1.1527061-6.5807152-0.6249657-8.8299255,1.4494286
				c-2.3360023,2.1544418-3.5374413,5.6060753-3.2786179,8.7398338c-0.3062134-0.3474884-0.6209831-0.7019463-1.0268364-0.9250984
				c-0.4058571-0.2231483-0.9278202-0.2927246-1.3263721-0.0567818c-0.4251957,0.2517128-0.6038628,0.7693672-0.7122173,1.2514534
				c-0.3457642,1.5383644-0.3032265,3.1624107,0.1225948,4.6805611c-1.5406818-0.791935-3.4141579-0.1101646-4.9290218,0.7301025
				c-1.0260429,0.5691261-2.0336361,1.229641-2.7429981,2.1642418c-0.6944294,0.9149208-1.061636,2.0432053-1.2344017,3.1787529
				c-0.4897442,3.218956,0.5898228,6.651329,2.873764,8.9719162c2.2839432,2.3205948,5.7279358,3.4556656,8.9350796,2.8937225
				c3.2071381-0.5619431,6.0774155-2.8252945,7.3217621-5.834137c0.6770935-1.6372299,0.585598-3.4469109,1.1946983-5.0641098
				c0.5792122-1.5378342,0.1328926-3.0575409-0.0021935-4.6555481
				C42.1188622,51.7281036,42.0825157,50.5605812,42.0665665,49.3323212z"/>
			<path class="st0" d="M34.8743248,60.4108162l10.5117378-0.0606384c0,0,1.3596535,2.8966103,1.2726936,3.2444572
				c-0.0869637,0.3478432-0.2318993,0.852562-0.2318993,0.852562s-8.9280281,2.5679169-9.6237183,2.4229813
				s-4.4350281-2.6668167-4.7248993-3.1016235"/>
			<path class="st0" d="M51.5247536,45.5294762l-1.6074905,5.282032c-0.2259789,0.7436867-0.5500755,1.4435501-0.9564056,2.1015282
				c-0.4065285,0.6580048-0.8933868,1.2584877-1.4527245,1.8024063c-0.6658859,0.6342201-1.508667,1.0242195-2.3866119,1.1157265
				c-0.087986,0.0051651-0.1761627,0.0103073-0.2484589,0.0173454l-2.640934,8.5986824l-6.2244835-1.8340263l1.3922157-4.5608673
				l0.6752548-2.2074661l1.1913109-3.8937035c-0.1807251-0.2129059-0.3044586-0.3711433-0.343853-0.4395828
				c-0.1879807-0.3489494-0.3005905-0.7284851-0.3653831-1.1101379c-0.0984383-0.5606689-0.0599251-1.1363945,0.1178246-1.679184
				l0.2106705-0.6819344l0.1299248-0.4135284l1.2349358-4.0553169l1.4989929-4.9135971l8.4884796,2.5002213
				c0.6045456,0.5191383,0.9810867,1.0820007,1.2019386,1.6178818
				C52.0411415,44.232933,51.5247536,45.5294762,51.5247536,45.5294762z"/>
			<path class="st1" d="M38.8883667,48.0383568c0.2971458-0.1221657,0.5320473-0.3573227,0.635643-0.6716576l0.8836327-2.8790283
				c0.0941963-0.3263054,0.0265427-0.6618233-0.1593437-0.9167023L38.8883667,48.0383568z"/>
			<path class="st1" d="M44.486145,57.0855141l0.3779678-1.2370529c-0.1141701,0.2923622-3.1289825-1.8021355-3.4415779-2.2045021
				c-0.1990738-0.1175079-0.4032364,0.1394234-0.2367821,0.2979736C41.912571,55.240509,42.9956779,56.2998047,44.486145,57.0855141
				z"/>
			<path class="st4" d="M47.0577736,48.9050217l0.4208565,0.9976158c0.109993,0.2607384-0.0200195,0.5571976-0.2888184,0.658577
				l-0.7211761,0.2719917"/>
			<path class="st3" d="M39.7771111,44.4333572c1.7294807-0.2457314,3.4589615-0.4914589,5.1884384-0.7371902
				c1.2925224-0.1836472,2.5850449-0.3672943,3.8775673-0.5509377c0.4997864-0.0710144,0.9995766-0.142025,1.4993629-0.2130356
				c0.2825127-0.0401421,0.7232819-0.0215683,0.9836311-0.1378975c0.4404755-0.1968117,0.2639427-1.1279755,0.1626549-1.5278053
				c-0.1499557-0.5919304-0.4711952-1.1464806-0.9337273-1.5616989c-0.3763733-0.3378716-0.8292885-0.583374-1.287796-0.804451
				c-1.5485878-0.7466736-3.218441-1.2520218-4.926136-1.4907913c-0.7568321-0.1058235-1.5367775-0.1584625-2.2767029,0.0214462
				c-0.7399292,0.1799088-1.4412498,0.6232719-1.7667274,1.2936783c-0.2779312,0.5724678-0.2570763,1.2405281-0.1577568,1.8685722
				c0.1266098,0.8006439,0.407795,1.5804596,0.139801,2.3653946C40.1119194,43.4501266,39.9446487,43.9417877,39.7771111,44.4333572
				z"/>
			<path class="st0" d="M40.496109,44.2229843l-0.8791771,2.8774376c-0.172863,0.565773-0.784626,0.8846283-1.367157,0.7125778
				c-0.5825272-0.1720467-0.914299-0.7695694-0.7414322-1.3353424l0.8791771-2.8774414
				c0.0864334-0.2828865,0.282486-0.5029793,0.5295601-0.632412c0.2476501-0.128418,0.5460815-0.1653709,0.8373413-0.0793495
				C40.336956,43.0605049,40.6687241,43.6580276,40.496109,44.2229843z"/>
			<path class="st1" d="M38.9612236,43.6732826l-0.2709808,0.9691582l0.7986946,0.6618004l0.3867645-1.3832436
				c0.0677452-0.2422905-0.0836258-0.5004501-0.3330498-0.5680122
				C39.2932243,43.2854195,39.0289688,43.4309959,38.9612236,43.6732826z"/>
			<path class="st1" d="M39.2236061,46.2531891l-0.8128929-0.6110268l-0.2540283,0.9085236
				c-0.0677452,0.2422905,0.083622,0.5004501,0.3330498,0.5680122c0.2494278,0.0675659,0.5136833-0.0780067,0.5814285-0.3202972
				L39.2236061,46.2531891z"/>
			<path class="st5" d="M45.8559761,51.8035431c-0.0104103-0.0267029-0.0238495-0.0544968-0.0372658-0.0822678
				c-0.3449211-0.70961-1.2920799-0.8567734-1.9911118-0.7769775l-0.0009918,0.0010223
				c-0.1343956,0.0157661-0.258625,0.0397949-0.368721,0.0700302c-0.1150818,0.0312653-0.2130051,0.0697746-0.2877808,0.1114998
				c-0.0518532,0.0285072-0.0609512,0.1002579-0.0181961,0.1435509l2.0119438,2.0371132
				c0.0284882,0.0288429,0.0727615,0.0352173,0.1066513,0.0148659
				C45.4887238,53.1910591,46.2170258,52.6671371,45.8559761,51.8035431z"/>
			<path class="st45" d="M44.7952614,52.9343109l0.1119766-0.1154213c0.0911484-0.0939522,0.0891266-0.2458153-0.0035172-0.3396187
				l-1.4458351-1.4639206c-0.1150818,0.0312653-0.2130051,0.0697746-0.2877808,0.1114998
				c-0.0518532,0.0285072-0.0609512,0.1002579-0.0181961,0.1435509L44.7952614,52.9343109z"/>
			<path class="st7" d="M71.8025284,80.9832535l-6.226326,4.4030685l-0.3102036-0.3555984l-13.799305-16.1143188
				l-1.8762093-2.1939392c-1.4450188-1.6871185-1.2483101-4.229084,0.4387627-5.674057
				c0.7565384-0.6506615,1.6871643-0.9683952,2.6176949-0.9683952c1.1348114,0,2.2620506,0.4766235,3.0639343,1.4071541
				l0.3707008,0.4463806l4.1685486,5.061264l0.4009895,0.4841919l8.617012,10.4326935L71.8025284,80.9832535z"/>
			<path class="st9" d="M60.2501259,66.994812l-3.9566956,1.4298706l-1.831646-2.2653427
				c-0.5301552-0.6556854-1.415638-0.9066925-2.2110138-0.6267395l-0.9732132,0.3425446l-0.1209793-1.7779007l4.8942375-2.5295753
				L60.2501259,66.994812z"/>
			<path class="st8" d="M69.2651443,77.912323c-0.2787857,2.648407-0.7043076,4.996048-1.2691727,5.5976334
				c-0.4621964,0.4915237-1.4599762,1.0564423-2.7291489,1.5185852L51.4671516,68.9179535l0.2054405-0.4034958l0.7311058-1.4840393
				c0.3775291-0.7663345,1.4598389-0.7947083,1.8770065-0.0492096l5.7186279,10.2194672l0.6529427-9.720665L69.2651443,77.912323z"
				/>
			<path class="st0" d="M64.7137375,78.2748184c-0.7641144,0.4085617-1.6114388,0.4841995-2.3679771,0.2648163
				c-0.0529175,0-0.0983543-0.0151443-0.1664162-0.0302887c-0.8019791-0.2496262-1.5206566-0.8246078-1.9367905-1.6265335
				c-0.0226288-0.0227203-0.0377731-0.0529633-0.0529175-0.0907822l-2.8597488-6.8769836l-2.9202385-7.0585403l-0.9985924-2.4133682
				l-1.8006668-2.0880165c-0.4538116-0.4085617-0.688385-0.991066-0.6429482-1.5963364l0.2344818-2.655468l-0.08321-0.453907
				l-0.1059265-0.5749779l-0.2799187-1.5130844c-0.0454369-0.1739883,0.007576-0.3479767,0.08321-0.4992943
				c0.1134987-0.1891365,0.3329277-0.3253098,0.5900307-0.3328819c0.3027267,0.0075722,0.5825539,0.1815643,0.6658554,0.4841995
				l0.2873955,0.8624229l0.053009,0.1513138l0.5749779,1.6568298l0.6052704-2.655468l-0.0681534-0.2345276l-0.0453453-0.1361694
				l-0.8473244-2.7538223c-0.0681534-0.1966629-0.0227165-0.4160881,0.0756378-0.5749321
				c0.0529175-0.1059265,0.136219-0.1891365,0.2420502-0.2496719c0.3631287-0.2042809,0.8246994-0.0681076,0.9911156,0.3253059
				l0.5976982,1.5357552l-0.1513634-1.3466187c-0.0150566-0.1815605,0.0151443-0.3253059,0.1134987-0.4690514
				c0.0983543-0.1588898,0.2723427-0.295063,0.4766235-0.3328819c0.3102074-0.0529633,0.6051788,0.0907822,0.74897,0.3480263
				c0.0377693,0.0529175,0.0604897,0.1058807,0.0832062,0.1664162l0.1891365,0.7111511l0.5371132,1.9065018l0.0454369-1.876255
				c-0.0075722-0.1210251,0.0302925-0.2269554,0.0983543-0.3328819c0.0983543-0.1664162,0.295063-0.2799149,0.5220642-0.2723427
				c0.2949677-0.0151443,0.529541,0.1739883,0.6203232,0.4614792l0.5749779,2.1334534l0.1512718-1.7097931
				c0.0075722-0.0832062,0.0378609-0.1739883,0.0832062-0.2345238c0.136219-0.2193794,0.4161339-0.3253098,0.66576-0.2193794
				c0.219429,0.075634,0.378273,0.2723427,0.3707924,0.5144424l0.0377693,4.229084
				c0.0075722,0.6278954-0.1967087,1.2255936-0.5598335,1.7248917l-1.3768616,3.2228699l3.9188309,7.5654106l3.0413094,5.855629
				l1.1877289,2.2999115C67.0363693,75.1124802,66.4765396,77.3669586,64.7137375,78.2748184z"/>
			<path class="st1" d="M64.7137375,78.2748184c-0.7641144,0.4085617-1.6114388,0.4841995-2.3679771,0.2648163
				c-0.0529175,0-0.0983543-0.0151443-0.1664162-0.0302887c-0.8019791-0.2496262-1.5206566-0.8246078-1.9367905-1.6265335
				c-0.0226288-0.0227203-0.0377731-0.0529633-0.0529175-0.0907822l-2.8597488-6.8769836l-3.0704308-7.4215202
				c0.612751-0.4009438,1.2020645-0.6818199,1.2020645-0.6818199l5.4165001,13.9211426l3.8508606-4.546814l1.1877289,2.2999115
				C67.0363693,75.1124802,66.4765396,77.3669586,64.7137375,78.2748184z"/>
			<path class="st12" d="M81.3790741,106.9268646c-0.0183563-1.7546539,0.2501068-3.5119858,0.7914963-5.1811218
				c-0.9023361-0.1476212-1.812561-0.2957306-2.7259369-0.2538986c-0.9133835,0.0418396-1.8421478,0.2884903-2.559082,0.855957
				c0.2274628-0.8281555,0.4999313-1.7227402,1.2013474-2.2183228c0.47789-0.3376541,1.0823593-0.4327011,1.6650009-0.4867401
				c1.8667068-0.173111,3.747467-0.0214844,5.6121674,0.1720276c2.6929245,0.2794571,5.3767929,0.646286,8.0459442,1.0997086
				c1.1951828,0.2030334,2.4172745,0.4343948,3.4555893,1.0601807c1.0383072,0.6257935,1.8698425,1.7349548,1.8263168,2.9464798
				c-0.0447311,1.2449875-0.9795303,2.2914429-2.026886,2.966011c-2.1411972,1.3790894-4.8118973,1.6336594-7.3582458,1.5814133
				c-1.7420959-0.0357437-3.4815826-0.1971207-5.2005997-0.4819717c-0.6152191-0.1019516-1.5179214-0.1113205-2.0516357-0.4621201
				C81.54496,108.1895142,81.3851547,107.4921722,81.3790741,106.9268646z"/>
			<path class="st0" d="M22.8040257,96.9056625c-0.1029892,0.68116-0.2228127,1.3589096-0.3772068,2.0298538
				c-0.161377,0.7237854-0.3888474,1.4789124-0.9170437,1.9667206c-0.1246605-0.2596207-0.4108772-0.4168777-0.6824093-0.377655
				c-0.2640076,0.047287-0.491478,0.275383-0.5502262,0.5664368c0-0.377655-0.3739815-0.6687088-0.7189484-0.5977783
				c-0.3447857,0.0628662-0.5941067,0.4247589-0.6234818,0.7945328c-0.3300991-0.3068161-0.8437862-0.2989349-1.2252922-0.0708389
				c-0.3815041,0.228096-0.6455116,0.629303-0.8362637,1.0462723c-0.2127838,0.4720459-0.3594742,1.006958-0.7556667,1.3059769
				c-0.2127819,0.1652298-0.4767904,0.2438583-0.733634,0.3146973c-0.381505,0.102272-1.1957388,0.1100693-1.3497734,0.5821991
				c-0.0734358,0.2202148-0.0220308,0.4719543,0.0952864,0.6686172c0.3668175,0.6293945,1.115139,0.5978699,1.7020826,0.4248505
				c0.6234827-0.1809006,1.254487-0.3068161,1.8854914-0.0707474c0.4547615,0.1651382,0.8656387,0.4404297,1.3057137,0.6371841
				c0.9904785,0.4405212,2.0982742,0.4641647,3.1766949,0.4720459c1.1298275,0.0078812,2.3622837-0.0315247,3.2132359-0.8181763
				c0.5136871-0.4799271,0.8217564-1.1643982,1.0345402-1.8487778c0.4474163-1.4239197,1.0343609-2.8164139,1.4966431-4.2403412
				c0.0073433-0.0078812,0.0073433-0.0078812,0.0073433-0.0157623c0.2942791-0.9183807,0.5661678-1.8418732,0.8258762-2.76931
				H22.8040257z"/>
			<path class="st1" d="M23.1119156,96.9056625l-0.3696842,0.4328232c0.0734367,0,2.8684483,1.2902222,5.2015362,2.3522491
				c0.0073433-0.0078812,0.0073433-0.0078812,0.0073433-0.0157623c0.2942791-0.9183807,0.5661678-1.8418732,0.8258762-2.76931
				H23.1119156z"/>
			<path class="st4" d="M21.6567364,100.566658c-0.2447777,0.8972626-0.2717228,1.8617859-0.0774689,2.7731476"/>
			<path class="st4" d="M16.2986851,103.331543c0.7103691-0.1451187,1.43363-0.2175751,2.1567745-0.2160645"/>
			<path class="st7" d="M57.314743,84.2741852L40.9281235,95.8114395l-1.1348114-0.9305267
				c-0.9456749,0.7187195-2.2091331,1.4525452-3.3590889,0.8700409c-1.1120949-0.5598373-1.5811462-1.8157196-1.9366989-2.9278183
				c-0.6582794-2.027565-1.3239479-4.0475235-1.9897995-6.0750427c-1.7929077-5.4471054-3.5784264-10.901741-5.0763626-16.42453
				l-2.23176-8.200882l9.6761913-1.7097893c0.6656685,3.9340248,10.7049866,3.3590469,10.5082779-0.0605354
				c0,0,5.4471512-0.2874908,6.6045914-0.2269554c-0.2722511,1.1045685-0.5446892,2.2090874-0.8170319,3.3136559
				c-0.0453453,0.1588898-0.0756378,0.3253059-0.0529175,0.4992981c0.0075722,0.0529633,0.0151443,0.1059265,0.0378647,0.1588898
				c0.0301971,0.1059265,0.0906868,0.211853,0.1436958,0.3177338c1.3542404,2.4890518,2.6857605,5.1293716,2.6933327,7.9588318
				c0,1.0515976-0.1891365,2.0880585-0.1060181,3.1320877c0.0833015,1.0440292,0.4009895,2.1031647,1.3239479,2.6100769
				c1.2181091,0.6657639,1.5433731,1.8610611,1.5282249,2.9429092c-0.0075722,1.2785568-0.4690514,2.4058456-0.4690514,2.4058456
				L57.314743,84.2741852z"/>
			<path class="st9" d="M56.7397614,81.0588837l-10.2737961,8.798584l-1.7434387-1.5065536
				c-0.6273537-0.5421219-1.5151482-0.6638794-2.2652931-0.3106842l-6.4466286,3.0353012
				c0,0-3.3061714-17.5593414-3.5028801-17.8922195c0-0.2420959,10.1452446-5.0688324,18.6488533-9.0860672
				c0.0301971,0.1059265,0.0906868,0.211853,0.1436958,0.3177338c1.3542404,2.4890518,2.6857605,5.1293716,2.6933327,7.9588318
				c0,1.5176468-0.3939209,3.003746,0.2050667,4.5265884c0.2092972,0.5321045,0.6042442,0.9740753,1.097393,1.2634659
				C56.4447708,78.837944,56.7545509,80.0025024,56.7397614,81.0588837z"/>
			<path class="st8" d="M32.5077248,86.7480927c-1.7929077-5.4471054-3.5784264-10.901741-5.0763626-16.42453l1.8081455-1.3163757
				l0.4690514-0.8851395c0.2421455-0.4690475,0.953249-0.3404541,1.006258,0.1891403
				C31.0779419,72.0485001,31.9403191,80.8546524,32.5077248,86.7480927z"/>
			<path class="st0" d="M84.1652679,102.9732666l-2.4136429,4.7026291l-3.6388474,0.1100159l-2.0615158,1.0271072
				l-4.7612762,2.3696289l-2.1055298-4.9887085c0-0.0073471,0-0.0146866,0-0.0146866l-0.9097443-2.1495438l1.4746094-0.1980972
				l4.1523972-0.5502243l2.3329544-0.3081207l0.7629623-0.7116013l1.7900772-1.4379425l3.6534882,0.432869L84.1652679,102.9732666z"
				/>
			<path class="st1" d="M76.0512619,108.8130188l-4.7612762,2.3696289l-2.1055298-4.9887085c0-0.0073471,0-0.0146866,0-0.0146866
				c-0.0880356-0.3594742-0.1247559-0.6309204-0.0880356-0.7776566c0.0806885-0.3374863,0.330101-0.9243851,0.6529007-1.5699844
				l4.1523972-0.5502243C74.0190811,103.574852,75.1708908,106.5020523,76.0512619,108.8130188z"/>
			<path class="st11" d="M80.7763367,107.5295944c-0.0183487-1.7546463,0.2501068-3.5119781,0.7915039-5.1811218
				c-0.9023438-0.1476135-1.812561-0.2957306-2.7259445-0.253891c-0.9133759,0.0418396-1.8421478,0.2884827-2.5590744,0.855957
				c0.2274628-0.8281555,0.4999313-1.7227478,1.2013397-2.2183304c0.47789-0.3376541,1.0823669-0.4327011,1.6650085-0.4867325
				c1.8666992-0.173111,3.7474594-0.0214844,5.6121597,0.17202c2.6929321,0.2794571,5.3767929,0.646286,8.0459442,1.0997162
				c1.1951904,0.2030334,2.4172821,0.4343948,3.4555893,1.0601807s1.8698425,1.7349472,1.8263168,2.9464798
				c-0.0447311,1.2449875-0.9795303,2.2914352-2.0268784,2.9660034c-2.1412048,1.3790894-4.8118973,1.633667-7.3582458,1.5814209
				c-1.7421036-0.0357437-3.4815903-0.1971207-5.2006073-0.4819794c-0.6152191-0.101944-1.5179214-0.1113129-2.0516281-0.4621201
				C80.9422226,108.792244,80.7824249,108.094902,80.7763367,107.5295944z"/>
			<polygon class="st0" points="89.8216095,106.4653778 84.8182144,111.1826477 81.2820892,102.3129807 78.8610992,96.2385101 
				78.7877121,96.0477524 84.9135895,92.5263138 85.4858017,94.1476669 86.3368378,96.5613098 			"/>
			<path class="st1" d="M86.3368378,96.5613098l-5.0547485,5.7516708l-2.42099-6.0744705
				c2.032135-0.6675949,5.1060715-1.6653671,6.6247025-2.0908432L86.3368378,96.5613098z"/>
			<path class="st12" d="M94.3961945,117.3797302c0.2434921,0.2842331,0.5101624,0.5509415,0.7686844,0.8491745
				c0.4772339,0.55056,0.8289719,1.2092743,1.0210037,1.912117c0.2111664,0.7728577,0.212883,1.6525421-0.2330933,2.3181229
				c-0.279953,0.4178085-0.7110291,0.7138901-1.1662216,0.9277573c-1.0657959,0.5007477-2.2887573,0.5915985-3.4572525,0.4457016
				c-1.1309128-0.1412125-2.4651489-0.4319687-3.4953232-0.9299164c-0.923027-0.4461594-1.7384796-1.3768082-2.2738266-2.2287979
				c-0.5301819-0.8437958-0.7297211-1.7828522-1.1309509-2.6724777c-0.7172012-1.5901947-2.2736359-2.6327133-3.3346176-3.9981842
				c-0.3191986-0.4108124-0.6175156-0.8151321-0.6690674-1.3256989c-0.0506821-0.5019226-0.0381241-1.0151901,0.0368576-1.5143585
				c0.1159515-0.7719269,0.397644-1.5201797,0.856308-2.1721497c0.2437134-0.3464127,0.5291061-0.6655502,0.8517914-0.9402618
				c0.1491623-0.126976,0.3088226-0.2544479,0.4698639-0.3645172c-0.0020676,0.0014114,0.2925568-0.2118607,0.25383-0.1584625
				c-0.4057846,0.5595093-0.6962204,1.2022934-0.8479233,1.8766022c-0.0371552,0.1651688-0.0655365,0.3410034-0.0102768,0.5010147
				c0.0478363,0.138504,0.1538315,0.2497101,0.2705841,0.3382568c0.545372,0.4136047,1.3016968,0.3868027,1.9758224,0.2682419
				c1.1880417-0.2089615,2.335556-0.6459656,3.3616333-1.2802124c0.3835297-0.2370682,0.8002625-0.5133438,1.2454605-0.4419632
				c0.4047852,0.0648956,0.7051926,0.4005661,0.9538422,0.7265091c1.1003571,1.4424133,1.8776245,3.0904999,2.7118378,4.6920929
				c0.3965302,0.7612839,0.8724747,1.4991455,1.2348938,2.2679443
				C93.9529037,116.8217087,94.1640091,117.1086884,94.3961945,117.3797302z"/>
			<path class="st13" d="M94.0861435,115.6087189c0.2482681,0.4863129,0.4969025,0.9732742,0.7842789,1.4375458
				c0.2973404,0.4803696,0.6369781,0.9380417,0.8694077,1.4529572s0.3510056,1.1085739,0.1802444,1.6470947
				c-0.278511,0.8783646-1.2254639,1.3596649-2.1228104,1.5690689c-1.5623169,0.3645782-3.2295609,0.1882248-4.7242355-0.3945999
				c-0.4697418-0.1831665-0.9251175-0.4059982-1.3468857-0.682251c-0.776123-0.5083542-1.4268799-1.2023544-1.897644-2.0009308
				c-0.4532089-0.7687836-0.6237793-1.6243744-0.9667511-2.4349136c-0.61306-1.4488449-1.943512-2.3986893-2.8504333-3.6427841
				c-0.2728577-0.3742981-0.5278625-0.7426758-0.5719299-1.2078552c-0.0433197-0.4573059-0.0325851-0.9249496,0.0315094-1.3797455
				c0.0991135-0.7033157,0.3399048-1.3850555,0.7319794-1.9790649c0.3715668-0.5629425,0.5516586-0.682457,0.85466-1.2276077
				c0.245636,0.6164017,0.5324402,1.0938187,0.6586227,1.6527252c0.0811005,0.3592453,0.3836823,0.6412277,0.7519531,0.6381149
				c0.3878937-0.0032806,0.3783875-0.385994,0.4567337-0.7659073c0.1147385-0.5563354,0.1252289-1.1339874,0.0307846-1.6941299
				c-0.0229797-0.136261,5.3264313-0.4870758,5.7664337-0.5667191c0.0224304,0.5590134,0.0923691,1.0587845,0.2523499,1.6007614
				c0.4126816,1.3980713,0.8745956,2.7816086,1.384552,4.1472092
				C92.8551712,113.1064758,93.4571838,114.3398895,94.0861435,115.6087189z"/>
			<path class="st9" d="M30.50453,62.1279564c-0.002039-0.0465965,0.0083714-0.0685234,0.0169163-0.0751648
				C30.5470943,62.0327301,30.5433769,62.0631561,30.50453,62.1279564z"/>
			<path class="st7" d="M29.7009869,66.3592911v32.4858856l-8.3143826-1.2709808l0.2572918-31.2149048
				c0-2.3830719,1.8080521-4.3122902,4.0323315-4.3122902c0.9456768,0,1.8157177,0.3480263,2.4965305,0.9381485
				c0.1286449,0.0983543,0.2345715,0.2042351,0.3479786,0.3253098
				C29.2470798,64.0896683,29.7009869,65.1715164,29.7009869,66.3592911z"/>
			<path class="st9" d="M29.7009869,74.5602188v22.1515045c-3.5102711-0.1664124-7.1719971-0.3253021-7.1719971-0.3253021
				l0.211853-18.3461304L29.7009869,74.5602188z"/>
			<path class="st10" d="M86.6685791,94.2681122l-7.4217148,3.2606888l-0.3328323,0.1513214l-0.4841995-0.8170776
				l-0.0075684-0.007576l-1.3239517-2.2242279l-4.0929108-6.8769379v-0.007576l-0.5598373-0.9456711l-0.1436996-0.2269516
				c0,0-2.776535,11.2421875-11.249855,13.874939l-0.847229,2.9202805h12.051651l0.007576,0.370697l0.0983505,7.7469788
				l-1.664444,0.4085159l-0.9607315,0.2345276l-17.5215225,4.304718c-1.7400818,0.4236603-3.5632782,0.1967087-5.144516-0.6354675
				c-1.066658-0.5749817-1.9744682-1.3996277-2.6251755-2.3755493c-0.6581879-0.9759216-1.0818024-2.1258774-1.1953049-3.3363724
				l-0.0832062-0.8397522l-0.9229584-9.5853653l-0.211853-2.2015152l-0.0075722-0.0151443l-1.0969505-1.6038666L56.27071,83.4949722
				l0.9608231,0.5598297l0.4993439-0.81707v-0.007576l0.4085617-0.6732864l3.8961143-6.3927841l4.3728256-7.1644669
				c0.590126-0.9607773,1.4223022-1.7173157,2.3907013-2.2166595c0.9153824-0.4690552,1.9518433-0.6960068,3.0185928-0.6430435
				h0.0907822c1.1651001,0.0680618,2.2469025,0.4766235,3.1547165,1.1348114
				c0.9003296,0.6506119,1.6191025,1.5660477,2.042717,2.6478958l5.674057,14.4348145l3.2304459,8.2311783L86.6685791,94.2681122z"
				/>
			<path class="st29" d="M52.5712128,97.4077759c0,0-7.7696915,4.682991-9.4037552,11.8398438l-0.9229584-9.5853653
				L52.5712128,97.4077759z"/>
			<path class="st28" d="M68.9125748,103.3693237l-7.0813026,9.9030991l-8.3607254,1.707222
				c-1.5965462,0.3260117-3.2555161,0.1328201-4.7344322-0.5513306l-0.0000038-0.0000076
				c-2.308094-1.0677338-3.9332848-3.2143097-4.3348274-5.7255096l-0.1892586-1.1836014l6.3165627-4.6416397l0.7902145,2.6683578
				c0.2696457,0.9105377,1.2559891,1.4002533,2.1443405,1.0646667l8.5799828-3.2412567H68.9125748z"/>
			<path class="st28" d="M82.7799454,84.3574371l-5.893486,7.8301849c0,0-6.2414627-9.6534729-7.2930679-17.6274033
				c-0.4311905-3.2682571-0.7186737-5.8178024-0.7943115-7.7772598c0.9381027-0.4841537,2.0124207-0.7111511,3.109375-0.6430435
				c1.1651001,0.0680618,2.2469025,0.4766235,3.1547165,1.1348114c0.9003296,0.6506119,1.6191025,1.5660477,2.042717,2.6478958
				L82.7799454,84.3574371z"/>
			<polygon class="st29" points="86.6669388,94.2650299 79.2499008,97.5297089 78.4282379,96.8620758 78.4208908,96.8547821 
				86.0066986,92.585022 			"/>
			<polygon class="st29" points="72.3610611,111.4834137 70.6957397,111.8942947 71.4660492,103.3694153 72.265686,103.743576 			
				"/>
			<path class="st30" d="M60.1646233,103.4356384c-1.4098587-0.0028839-2.8290405-0.0049744-4.2160645,0.2477493
				s-2.755024,0.7778473-3.8083839,1.7149353"/>
			<path class="st30" d="M72.359169,86.5687408c-0.5600739-1.1781082-1.1201477-2.3562241-1.6802216-3.5343323
				c-0.1959381-0.4121628-0.3919296-0.8244247-0.5734253-1.2431488c-1.0609283-2.4475555-1.6173477-5.1124878-1.6244354-7.7800827"
				/>
			<path class="st30" d="M61.0054855,100.3482895c-0.3703537-2.4190369-1.4401588-4.72686-3.0468445-6.5727768"/>
			<path class="st30" d="M66.9354935,75.0313416c-1.4052963,2.5923996-2.5479431,5.3270798-3.4047737,8.1486511
				c-0.8781738,2.8918457-1.4645729,5.8946381-2.7672997,8.6216965c-0.3818741,0.7994003-0.8407555,1.590889-1.5364151,2.1394577"/>
			<path class="st30" d="M58.040287,95.6284332c-1.0094948,1.7968063-1.9435768,3.6359787-2.7989616,5.511055
				c-0.3055611,0.6698151-0.6078568,1.3859863-0.5184708,2.1167679"/>
			<path class="st30" d="M51.673912,87.9444199c2.3398895,0.9186096,4.1138573,2.843277,5.8011131,4.7066269"/>
			<path class="st30" d="M45.9055099,96.3833542c2.744854-2.0664215,6.3239021-2.9895248,9.7257996-2.5084763"/>
			<path class="st30" d="M58.8595428,92.1866913c-0.9871292-2.1458969-1.3409576-4.5785141-1.0060463-6.9167099"/>
			<polygon class="st10" points="79.5865173,98.9706421 89.0312653,95.3735199 86.8498383,93.6470871 77.4050903,97.2442093 			"/>
			<polygon class="st10" points="73.894104,111.2879639 73.8522949,101.1814957 71.4684143,102.6154709 71.5102158,112.7219467 			
				"/>
			<path class="st32" d="M39.7699547,94.8945999c0.6792259-0.4437866,1.2936096-0.9866409,1.8176689-1.6060486"/>
			<path class="st29" d="M72.4417953,86.8039703l-0.1393967-0.2274246c0,0-2.7805023,11.239296-11.2466316,13.8730164
				l-0.8510437,2.9198532c-0.7482758,0.0660477-1.5039406,0.0880814-2.2522163,0.0733948
				c1.1957817-0.8216705,1.9147758-2.2375793,2.0981827-3.6828613c0.1834106-1.4452438-0.1247063-2.9198532-0.6602898-4.2697601
				c0.572258,0.5722504,1.1591568,1.1518097,1.9074783,1.445282c0.7703094,0.3081131,1.6506805,0.2640991,2.4429741,0.0146408
				c2.0615082-0.6382599,3.477417-2.5090179,4.6365738-4.3284225c1.6800537-2.6337662,3.1913376-5.5976334,2.9785614-8.7155838
				c0.2714386,0.6822739,0.4695358,1.3792419,0.7703018,2.0394821C72.2510452,86.2243729,72.353714,86.510498,72.4417953,86.8039703
				z"/>
			<path class="st35" d="M128.535553,97.6423035c0,8.1100998-6.5744019,14.6920166-14.69207,14.6920166
				c-4.4786682,0-8.4959488-2.0123749-11.1817017-5.1822891c-2.1863251-2.564682-3.5027008-5.8783417-3.5027008-9.5097275
				c0-8.1177216,6.5743027-14.6920624,14.6844025-14.6920624c3.6390076,0,6.967804,1.3239441,9.5324936,3.5103607
				C126.538269,89.1614609,128.535553,93.1635437,128.535553,97.6423035z"/>
			<path class="st54" d="M126.8484726,95.9476547c0,8.1176758-6.5819626,14.6920242-14.6920624,14.6920242
				c-3.6238632,0-6.9374237-1.3088531-9.4946289-3.487648c-2.1863251-2.564682-3.5027008-5.8783417-3.5027008-9.5097275
				c0-8.1177216,6.5743027-14.6920624,14.6844025-14.6920624c2.405838,0,4.6754608,0.5749741,6.6727448,1.6038589
				c1.0288849,0.5220184,1.9897079,1.1651077,2.8597488,1.9065018c1.7249374,2.0350952,2.9050903,4.55439,3.3135605,7.3233109
				C126.7955551,94.4874954,126.8484726,95.2137909,126.8484726,95.9476547z"/>
			<path class="st35" d="M126.689537,93.7839127c-11.8549423-2.360405-11.5598831-8.3295212-11.5598831-8.3295212
				l5.3865738-0.9002914c1.0288849,0.5220184,1.9897079,1.1651077,2.8597488,1.9065018
				C125.100914,88.495697,126.2810669,91.0149918,126.689537,93.7839127z"/>
			<path class="st54" d="M125.6223755,87.3527222l-1.9328613,2.602005
				c-0.6296921,1.0976486-3.0262299,0.8964462-5.3482437-0.4416809c-2.3221283-1.3425598-3.6909485-3.3148193-3.0611496-4.4124603
				l0.1354828-0.1836319l1.7973785-2.4183197L125.6223755,87.3527222z"/>
			
				<ellipse transform="matrix(0.5 -0.8660254 0.8660254 0.5 -12.8400288 147.6139832)" class="st47" cx="121.41745" cy="84.9267807" rx="2.2892251" ry="4.854938"/>
			
				<ellipse transform="matrix(0.5 -0.8660254 0.8660254 0.5 -12.8400288 147.6139832)" class="st5" cx="121.41745" cy="84.9267807" rx="1.1299958" ry="2.3964703"/>
			<path class="st47" d="M88.1060638,98.4827347l-7.75457,2.6117859l1.4672699,4.3577423l8.003891-1.327919L88.1060638,98.4827347z
				 M85.7876663,103.7869034c0.0587463,0.183403-0.0512238,0.3741608-0.2346344,0.4329071
				c-0.1834106,0.0513153-0.3743439-0.0587463-0.4255676-0.242157l-0.4255676-1.4672699
				c-0.4402466-0.0220337-0.8289185-0.3154144-0.9611053-0.7630081c-0.161377-0.564827,0.1687241-1.1517715,0.7262955-1.3131485
				c0.5649109-0.1614685,1.1518555,0.1687241,1.3132324,0.7262955c0.1248398,0.4475021-0.0513992,0.9096985-0.4106979,1.159111
				L85.7876663,103.7869034z"/>
			<path class="st110" d="M129.4469147,86.440094l-3.3058777-5.3107071
				c-0.7102966-1.1410522-0.3611069-2.641861,0.7799454-3.3521576h0.0000076
				c1.1410522-0.7102966,2.641861-0.3611069,3.3521576,0.7799454l3.3058777,5.3107071
				c0.7102966,1.1410522,0.3610992,2.641861-0.7799377,3.3521576h-0.0000153
				C131.6580353,87.930336,130.1572113,87.5811462,129.4469147,86.440094z"/>
			<line class="st36" x1="121.41745" y1="84.7545242" x2="129.3093567" y2="80.528038"/>
			<line class="st36" x1="131.4879608" y1="85.1764679" x2="136.331192" y2="92.1820374"/>
			<path class="st110" d="M137.2334442,96.8729401l-3.3058777-5.3107071
				c-0.7102966-1.1410522-0.3610992-2.6418686,0.7799377-3.3521652h0.0000153
				c1.141037-0.7102966,2.641861-0.3610992,3.3521576,0.7799454l3.3058777,5.3107147
				c0.7102966,1.1410446,0.3610992,2.641861-0.779953,3.3521576l0,0
				C139.4445496,98.3631821,137.9437408,98.0139847,137.2334442,96.8729401z"/>
			<line class="st36" x1="140.0252075" y1="95.830986" x2="138.9164124" y2="104.275238"/>
			<path class="st110" d="M135.1138763,107.1209488l2.1691589-5.8674698c0.4660645-1.2606735,1.86586-1.9048386,3.1265259-1.4387741
				h0.0000153c1.2606659,0.4660568,1.9048309,1.86586,1.4387665,3.1265335l-2.1691589,5.8674698
				c-0.4660645,1.2606735-1.86586,1.9048386-3.1265259,1.4387741h-0.0000153
				C135.2919769,109.7814178,134.6478119,108.3816223,135.1138763,107.1209488z"/>
			<line class="st36" x1="137.2754669" y1="107.522728" x2="134.7097015" y2="115.6437912"/>
			<path class="st110" d="M128.8939362,114.1862717l6.003952-1.7564545c1.2899933-0.377388,2.6416779,0.3624268,3.0190582,1.65242
				v0.0000076c0.3773956,1.2899933-0.3624115,2.6416779-1.65242,3.0190659l-6.0039368,1.7564545
				c-1.2899933,0.3773956-2.6416855-0.3624191-3.0190735-1.65242l0,0
				C126.8641281,115.9153442,127.6039429,114.5636597,128.8939362,114.1862717z"/>
			<line class="st36" x1="129.8600311" y1="116.1612549" x2="121.8103256" y2="118.9428101"/>
			<path class="st110" d="M115.3560791,118.3853302l6.0039444-1.7564621
				c1.2900009-0.377388,2.6416779,0.3624268,3.0190735,1.6524277l0,0c0.377388,1.2900009-0.3624268,2.6416855-1.6524277,3.0190735
				l-6.0039444,1.7564545c-1.2899933,0.377388-2.6416779-0.3624268-3.0190659-1.65242v-0.0000076
				C113.3262711,120.1144028,114.0660858,118.7627182,115.3560791,118.3853302z"/>
			<line class="st36" x1="116.3221741" y1="120.3603058" x2="108.2724686" y2="123.141861"/>
			<path class="st110" d="M95.2336884,107.5391922l4.279953,4.5622864c0.9195786,0.9802475,0.8704071,2.5203629-0.1098404,3.439949
				h-0.0000076c-0.9802399,0.9195862-2.5203552,0.8704071-3.4399414-0.1098404l-4.279953-4.562294
				c-0.9195786-0.9802475-0.8704071-2.5203629,0.1098404-3.4399414h0.0000076
				C92.7739944,106.5097656,94.3141098,106.5589447,95.2336884,107.5391922z"/>
			<line class="st36" x1="93.9084091" y1="109.2934723" x2="87.7895508" y2="103.3694153"/>
			<path class="st110" d="M105.2093353,116.8198395l4.9167252,3.8675995
				c1.0563965,0.830986,1.2391281,2.3610153,0.4081421,3.4174118v0.0000076
				c-0.830986,1.0563965-2.3610153,1.2391281-3.4174118,0.4081421l-4.9167252-3.8675995
				c-1.0563965-0.830986-1.2391281-2.3610153-0.4081421-3.4174118l0,0
				C102.6229095,116.1715851,104.1529388,115.9888535,105.2093353,116.8198395z"/>
			<line class="st36" x1="104.1626129" y1="118.7532959" x2="97.2232971" y2="113.8156204"/>
			<text transform="matrix(1 0 0 1 105.5054703 102.873291)" class="st34 st131 st132">TAX</text>
			<path class="st34" d="M17.8643341,111.5692062c0,0,15.0999603,1.3988571,14.8246307-8.7721252
				s10.91045-14.3645859,10.91045-14.3645859l8.9749374,8.9749374c0,0-11.1857796,4.1935959-10.9104538,14.3645782
				c0.2753296,10.17099-14.8246288,8.7721329-14.8246288,8.7721329L17.8643341,111.5692062z"/>
			<path class="st28" d="M71.8176727,66.1399155l-2.2242813,7.2476807c0,0-2.6554642-1.2861328-5.5378418,4.6526947
				c-2.8823738,5.9388809-4.2517586,11.8625641-4.2517586,11.8625641c-1.2202377-1.548912-1.6510544-4.1653214-1.6643524-7.3459854
				l3.8961143-6.3927841l4.3728256-7.1644669c0.590126-0.9607773,1.4223022-1.7173157,2.3907013-2.2166595
				C69.7144623,66.3139038,70.7509232,66.0869522,71.8176727,66.1399155z"/>
		</g>
		<line class="st19" x1="42.4809265" y1="90.9254532" x2="48.7468033" y2="97.2576981"/>
		<line class="st19" x1="41.5876236" y1="93.3684006" x2="45.5846558" y2="97.4077759"/>
		<line class="st62" x1="35.2193413" y1="100.0564728" x2="40.6787872" y2="104.1564789"/>
		<line class="st62" x1="34.8129387" y1="102.2727432" x2="40.2723846" y2="106.3727493"/>
		<line class="st39" x1="28.6048679" y1="112.2446289" x2="34.0850258" y2="117.8844833"/>
		<line class="st39" x1="25.7667217" y1="113.0305634" x2="31.2468815" y2="118.6704254"/>
	</g>
	<g>
		<path class="st34" d="M85.5208817,39.0593987c0,4.4792023-4.4791412,8.1036797-9.9982758,8.1036797
			c-2.2344818,0-4.293869-0.5971756-5.9619675-1.5960121l-4.5820847,2.4712906c0,0,1.0296936-3.1508598,1.719574-5.1896324
			c-0.7414169-1.1326981-1.163559-2.4198151-1.163559-3.7893257c0-4.4688339,4.4688339-8.0933723,9.9880371-8.0933723
			C81.0417404,30.9660263,85.5208817,34.5905647,85.5208817,39.0593987z"/>
	</g>
	<text transform="matrix(-1 0 0 1 77.8199234 43.5671387)" class="st20 st133 st134">!</text>
</g>
</svg>
