<?xml version="1.0" encoding="utf-8"?>
<!-- Generator: Adobe Illustrator 22.0.1, SVG Export Plug-In . SVG Version: 6.00 Build 0)  -->
<svg version="1.1" id="Layer_1" xmlns="http://www.w3.org/2000/svg" xmlns:xlink="http://www.w3.org/1999/xlink" x="0px" y="0px"
	 viewBox="0 0 156 156" style="enable-background:new 0 0 156 156;" xml:space="preserve">
<style type="text/css">
	.st0{fill:#FFD9B2;}
	.st1{fill:#F7AC76;}
	.st2{fill:none;stroke:#3643C3;stroke-width:0.5;stroke-linecap:round;stroke-linejoin:round;stroke-miterlimit:10;}
	.st3{fill:#233764;}
	.st4{fill:none;stroke:#F7AC76;stroke-width:0.5;stroke-linecap:round;stroke-linejoin:round;stroke-miterlimit:10;}
	.st5{fill:#161718;}
	.st6{fill:#FFFFFF;}
	.st7{fill:#F06449;}
	.st8{fill:#BE412D;}
	.st9{fill:#FE8E60;}
	.st10{fill:#7D4C47;}
	.st11{fill:#4456D6;}
	.st12{fill:#203881;}
	.st13{fill:#6582FC;}
	.st14{fill:#DDA103;}
	.st15{fill:#FBC32E;}
	.st16{fill:none;stroke:#DDA103;stroke-width:0.5;stroke-miterlimit:10;}
	.st17{fill:#FBE6BB;}
	.st18{fill:none;stroke:#BE412D;stroke-width:0.5;stroke-linecap:round;stroke-linejoin:round;stroke-miterlimit:10;}
	.st19{fill:none;stroke:#F06449;stroke-width:0.5;stroke-linecap:round;stroke-linejoin:round;stroke-miterlimit:10;}
	.st20{fill:#F34B4B;}
	.st21{fill:#FC7070;}
	.st22{fill:none;stroke:#FFFFFF;stroke-miterlimit:10;}
	.st23{fill:#FC9F9F;}
	.st24{fill:#408A6F;}
	.st25{fill:#64B48D;}
	.st26{fill:none;stroke:#FBE6BB;stroke-width:0.5;stroke-linecap:round;stroke-linejoin:round;stroke-miterlimit:10;}
	.st27{fill:none;stroke:#F7AC76;stroke-width:0.25;stroke-linecap:round;stroke-linejoin:round;stroke-miterlimit:10;}
	.st28{fill:#A0665A;}
	.st29{fill:#6C3F44;}
	.st30{fill:none;stroke:#6C3F44;stroke-width:0.5;stroke-linecap:round;stroke-linejoin:round;stroke-miterlimit:10;}
	.st31{fill:none;stroke:#7D4C47;stroke-width:0.5;stroke-linecap:round;stroke-linejoin:round;stroke-miterlimit:10;}
	.st32{fill:none;stroke:#F34B4B;stroke-width:0.5;stroke-linecap:round;stroke-linejoin:round;stroke-miterlimit:10;}
	.st33{fill:none;stroke:#FC7070;stroke-width:0.5;stroke-linecap:round;stroke-linejoin:round;stroke-miterlimit:10;}
	.st34{fill:#EAE8F3;}
	.st35{fill:#40304A;}
	.st36{fill:none;stroke:#43334E;stroke-linecap:round;stroke-linejoin:round;stroke-miterlimit:10;}
	.st37{fill:#32775B;}
	.st38{fill:none;stroke:#233764;stroke-width:0.5;stroke-linecap:round;stroke-linejoin:round;stroke-miterlimit:10;}
	.st39{fill:none;stroke:#408A6F;stroke-width:0.5;stroke-linecap:round;stroke-linejoin:round;stroke-miterlimit:10;}
	.st40{fill:#3643C3;}
	.st41{opacity:0.56;fill:url(#SVGID_1_);}
	.st42{opacity:0.52;fill:#FBC32E;}
	.st43{opacity:0.56;fill:url(#SVGID_2_);}
	.st44{fill:none;stroke:#EAE8F3;stroke-width:0.5;stroke-linecap:round;stroke-linejoin:round;stroke-miterlimit:10;}
	.st45{fill:#FEFFFD;}
	.st46{opacity:0.35;fill:#32775B;}
	.st47{fill:#43334E;}
	.st48{fill:none;stroke:#EAE8F3;stroke-width:0.25;stroke-linecap:round;stroke-linejoin:round;stroke-miterlimit:10;}
	.st49{fill:none;stroke:#FBC32E;stroke-width:0.5;stroke-linecap:round;stroke-linejoin:round;stroke-miterlimit:10;}
	.st50{fill:none;stroke:#161718;stroke-width:0.5;stroke-linecap:round;stroke-linejoin:round;stroke-miterlimit:10;}
	.st51{fill:none;stroke:#40304A;stroke-linecap:round;stroke-linejoin:round;stroke-miterlimit:10;}
	.st52{opacity:0.33;fill:#FBC32E;}
	.st53{fill:#A6A3AE;}
	.st54{fill:#5B4B68;}
	.st55{fill:#776688;}
	.st56{fill:none;stroke:#FBC32E;stroke-width:0.5;stroke-miterlimit:10;}
	.st57{fill:none;stroke:#EAE8F3;stroke-linecap:round;stroke-linejoin:round;stroke-miterlimit:10;}
	.st58{fill:none;stroke:#203881;stroke-width:2;stroke-linecap:round;stroke-linejoin:round;stroke-miterlimit:10;}
	.st59{fill:none;stroke:#40304A;stroke-width:2;stroke-linecap:round;stroke-linejoin:round;stroke-miterlimit:10;}
	.st60{fill:#FFD8B7;}
	.st61{fill:#F4E4D4;}
	.st62{fill:none;stroke:#4456D6;stroke-width:0.5;stroke-linecap:round;stroke-linejoin:round;stroke-miterlimit:10;}
	.st63{fill:none;stroke:#DDA103;stroke-width:0.25;stroke-miterlimit:10;}
	.st64{fill:none;stroke:#FFFFFF;stroke-width:0.5;stroke-linecap:round;stroke-linejoin:round;stroke-miterlimit:10;}
	.st65{fill:none;stroke:#64B48D;stroke-width:0.5;stroke-linecap:round;stroke-linejoin:round;stroke-miterlimit:10;}
	.st66{fill:none;stroke:#64B48D;stroke-linecap:round;stroke-linejoin:round;stroke-miterlimit:10;}
	.st67{opacity:0.48;fill:#64B48D;}
	.st68{fill:none;stroke:#64B48D;stroke-width:0.25;stroke-linecap:round;stroke-linejoin:round;stroke-miterlimit:10;}
	.st69{fill:none;stroke:#F06449;stroke-width:2;stroke-linecap:round;stroke-linejoin:round;stroke-miterlimit:10;}
	.st70{opacity:0.92;fill:#64B48D;}
	.st71{opacity:0.57;fill:#408A6F;}
	.st72{opacity:0.36;fill:#408A6F;}
	.st73{fill:none;stroke:#BE412D;stroke-width:2;stroke-linecap:round;stroke-linejoin:round;stroke-miterlimit:10;}
	.st74{opacity:0.65;fill:none;stroke:#408A6F;stroke-width:0.25;stroke-linecap:round;stroke-linejoin:round;stroke-miterlimit:10;}
	.st75{opacity:0.67;fill:none;stroke:#64B48D;stroke-width:0.25;stroke-linecap:round;stroke-linejoin:round;stroke-miterlimit:10;}
	.st76{opacity:0.98;fill:#64B48D;}
	.st77{fill:none;stroke:#408A6F;stroke-width:0.25;stroke-linecap:round;stroke-linejoin:round;stroke-miterlimit:10;}
	.st78{fill:none;stroke:#FFD9B2;stroke-width:0.5;stroke-linecap:round;stroke-linejoin:round;}
	
		.st79{fill:none;stroke:#FFD9B2;stroke-width:0.5;stroke-linecap:round;stroke-linejoin:round;stroke-dasharray:4.0333505,4.0333505;}
	.st80{fill:#E68B4A;}
	.st81{opacity:0.62;fill:#64B48D;}
	.st82{fill:none;stroke:#FBC32E;stroke-width:0.25;stroke-miterlimit:10;}
	.st83{fill:none;stroke:#4456D6;stroke-linecap:round;stroke-linejoin:round;stroke-miterlimit:10;}
	.st84{fill:none;stroke:#E68B4A;stroke-width:0.5;stroke-linecap:round;stroke-linejoin:round;stroke-miterlimit:10;}
	.st85{fill:none;stroke:#203881;stroke-width:0.5;stroke-linecap:round;stroke-linejoin:round;stroke-miterlimit:10;}
	.st86{opacity:0.29;fill:#EAE8F3;}
	.st87{fill:none;stroke:#A6A3AE;stroke-width:0.5;stroke-linecap:round;stroke-linejoin:round;stroke-miterlimit:10;}
	.st88{opacity:0.74;fill:#FFFFFF;}
	.st89{opacity:0.19;fill:#FFFFFF;}
	.st90{fill:none;stroke:#40304A;stroke-width:0.25;stroke-linecap:round;stroke-linejoin:round;stroke-miterlimit:10;}
	.st91{fill:none;stroke:#F34B4B;stroke-width:2;stroke-linecap:round;stroke-linejoin:round;stroke-miterlimit:10;}
	.st92{fill:none;stroke:#43334E;stroke-width:0.5;stroke-linecap:round;stroke-linejoin:round;stroke-miterlimit:10;}
	.st93{fill:none;stroke:#6582FC;stroke-miterlimit:10;}
	.st94{opacity:0.47;fill:#A6A3AE;}
	.st95{opacity:0.43;fill:#FFFFFF;}
	.st96{fill:none;stroke:#FBE6BB;stroke-linecap:round;stroke-linejoin:round;stroke-miterlimit:10;}
	.st97{fill:none;stroke:#5B4B68;stroke-width:0.5;stroke-linecap:round;stroke-linejoin:round;stroke-miterlimit:10;}
	.st98{fill:none;stroke:#40304A;stroke-width:0.5;stroke-linecap:round;stroke-linejoin:round;stroke-miterlimit:10;}
	.st99{fill:none;stroke:#DDA103;stroke-linecap:round;stroke-linejoin:round;stroke-miterlimit:10;}
	.st100{fill:none;stroke:#FBC32E;stroke-linecap:round;stroke-linejoin:round;stroke-miterlimit:10;}
	.st101{fill:none;stroke:#32775B;stroke-width:0.5;stroke-linecap:round;stroke-linejoin:round;stroke-miterlimit:10;}
	.st102{opacity:0.4;fill:#FBE6BB;}
	.st103{fill:none;stroke:#FBC32E;stroke-width:0.25;stroke-linecap:round;stroke-linejoin:round;stroke-miterlimit:10;}
	.st104{fill:none;stroke:#4456D6;stroke-miterlimit:10;}
	.st105{opacity:0.61;fill:#64B48D;}
	.st106{opacity:0.9;fill:#64B48D;}
	.st107{opacity:0.76;fill:#64B48D;}
	.st108{fill:none;stroke:#5B4B68;stroke-width:0.5;stroke-miterlimit:10;}
	.st109{opacity:0.66;fill:#A6A3AE;}
	.st110{fill:none;stroke:#43334E;stroke-miterlimit:10;}
	.st111{opacity:0.52;fill:#6582FC;}
	.st112{fill:none;stroke:#DDA103;stroke-width:0.5;stroke-linecap:round;stroke-linejoin:round;stroke-miterlimit:10;}
	.st113{fill:#46724E;}
	.st114{fill:#FE8B2E;}
	.st115{fill:none;stroke:#7D4C47;stroke-width:2;stroke-linecap:round;stroke-linejoin:round;stroke-miterlimit:10;}
	.st116{opacity:0.4;fill:#EAE8F3;}
	.st117{fill:none;stroke:#EAE8F3;stroke-width:0.5;stroke-linecap:round;stroke-miterlimit:10;}
	.st118{fill:none;stroke:#4456D6;stroke-width:0.25;stroke-linecap:round;stroke-linejoin:round;stroke-miterlimit:10;}
	.st119{opacity:0.5;fill:#EAE8F3;}
	.st120{opacity:0.46;fill:#A6A3AE;}
	.st121{fill:#E0916E;}
	.st122{fill:none;stroke:#A0665A;stroke-linecap:round;stroke-linejoin:round;stroke-miterlimit:10;}
	.st123{opacity:0.46;fill:#BE412D;}
	.st124{fill:none;stroke:#203881;stroke-linecap:round;stroke-linejoin:round;stroke-miterlimit:10;}
	.st125{fill:#DBDBE1;}
	.st126{fill:none;stroke:#6582FC;stroke-width:0.5;stroke-linecap:round;stroke-linejoin:round;stroke-miterlimit:10;}
	.st127{opacity:0.53;fill:#A6A3AE;}
	.st128{fill:none;stroke:#DDA103;stroke-miterlimit:10;}
	.st129{opacity:0.2;fill:#FFFFFF;}
	.st130{fill:#B4A1BF;}
	.st131{opacity:0.5;fill:#6582FC;}
	.st132{opacity:0.6;fill:none;stroke:#FFFFFF;stroke-linecap:round;stroke-linejoin:round;stroke-miterlimit:10;}
	.st133{opacity:0.6;fill:none;stroke:#FFFFFF;stroke-width:2;stroke-linecap:round;stroke-linejoin:round;stroke-miterlimit:10;}
	.st134{opacity:0.54;fill:#A6A3AE;}
	.st135{fill:#161718;stroke:#000000;stroke-width:0.25;stroke-miterlimit:10;}
</style>
<g id="_x32_">
	<path class="st34" d="M25.2507801,67.7960434l-5.8719406,27.3938675c-0.2023563,0.7480621-0.5464325,1.3763962-1.0176182,1.9000015
		C17.4038715,98.16716,15.8927841,98.7880096,14,99.0872498c4.1968536-8.4904938,7.8023472-26.0996552,8.700161-30.7077026
		c0.142086-0.7181015,0.2165985-1.1220856,0.2165985-1.1220856L25.2507801,67.7960434z"/>
	<path class="st94" d="M25.2507801,67.7960434l-5.8719406,27.3938675c-0.2023563,0.7480621-0.5464325,1.3763962-1.0176182,1.9000015
		c1.3317413-7.3608398,5.4234009-28.553299,5.4234009-28.553299l-1.0844612-0.1570663
		c0.142086-0.7181015,0.2165985-1.1220856,0.2165985-1.1220856L25.2507801,67.7960434z"/>
	<g>
		<path class="st47" d="M23.5968323,67.3765717l0.6608238,0.1753616c0.5694275,0.1511078,1.14855-0.1881332,1.2987099-0.7539978
			l2.6910095-10.1408272c0.1501598-0.5658646-0.1845684-1.1476059-0.7539978-1.2987099l-0.6608219-0.1753578
			c-0.5659103-0.1501732-1.1485939,0.188118-1.2987537,0.7539864l-2.6910095,10.1408234
			C22.6926327,66.6437149,23.0309219,67.2264023,23.5968323,67.3765717z"/>
		<path class="st47" d="M22.2155266,67.3072815l3.2760086,0.8693314c0.3479824,0.0923462,0.7038479-0.1143341,0.7961674-0.4622345
			l0.0914078-0.3444595c0.0914078-0.3444672-0.1151619-0.7003937-0.4631443-0.7927322l-3.2760086-0.869339
			c-0.3444633-0.0914078-0.7002869,0.1152802-0.7916946,0.4597473l-0.0914078,0.3444595
			C21.6645355,66.8599548,21.8710632,67.2158737,22.2155266,67.3072815z"/>
	</g>
	<path class="st0" d="M33.3522758,60.1509399l-1.0621796,0.3815155l-0.927763,0.3291016l-2.1616173,0.7780037l-0.1946831,0.1047401
		l-0.8751659,0.5012283l-1.3912811,0.8003807c-0.1198063,0.0598106-0.2469177,0.1197128-0.3740273,0.1721306
		c-0.284174,0.1196213-0.5909939,0.1795235-0.8978138,0.1870117l-0.1943188-0.0074883l-2.6408386,0.0746956
		c-0.3214302,0-0.5909939-0.2542191-0.5909939-0.5834122l-0.0149746-0.2318497
		c-0.0073051-0.3142166,0.2246361-0.5835037,0.5537357-0.6134567l0.5310898-0.0374374l-0.1198063-0.0373497
		c-0.2618923-0.0523224-0.4562111-0.2917519-0.4562111-0.568531l-0.0073051-0.2094765
		c0.0073051-0.3142166,0.261528-0.5834122,0.5610409-0.5983887l0.710434-0.0449257l-0.2691975-0.0374413
		c-0.2918434-0.0448341-0.5088081-0.2916603-0.5161133-0.5835037c0.0073051-0.1495743,0.0748768-0.2841721,0.1643658-0.3815155
		c0.0748787-0.0896721,0.1797104-0.1570625,0.2991505-0.1870155l0.3667221-0.0896721l0.1497574-0.590992
		c0.0599022-0.2469177,0.2841721-0.4264412,0.5383949-0.4264412l1.0176182-0.0373497l3.1266365-0.0972481l0.2169666-0.0074883
		l0.5460644-0.0224648l1.8851147-0.9948807l0.4861622,0.733078L33.3522758,60.1509399z"/>
	<path class="st1" d="M32.2900963,60.5324554l-0.927763,0.3291016l-2.1616173,0.7780037l-0.1946831,0.1047401l-0.8751659,0.5012283
		l0.5460644-4.1292763l0.2169666-0.0074883l0.5460644-0.0224648l1.8851147-0.9948807l0.4861622,0.733078
		c0.2618923,0.4862556,0.4715519,1.0173454,0.50881,1.4737396C32.3499985,59.6796608,32.3350258,60.1134987,32.2900963,60.5324554z"
		/>
	<polygon class="st134" points="114.0673676,40.8660545 112.556282,49.7530441 102.0612259,49.7530441 101.0962067,54.8397636 
		100.6473007,57.2186203 98.4181137,57.8992844 89.770546,60.5324554 91.379158,49.9400597 89.8081665,49.8726692 
		80.7938843,49.468689 82.8959656,40.8660545 	"/>
	<path class="st34" d="M113.3642426,40.8660545l-7.8019867,8.8869896h-3.50103l-0.9650192,5.0867195l-2.678093,3.0595207
		l-8.6475677,2.6331711l1.6086121-10.5923958l-1.5709915-0.0673904c3.4933624-3.1343079,6.9567719-6.2238731,10.0761032-9.0066147
		H113.3642426z"/>
	<g>
		<polygon class="st134" points="96.6002045,83.333168 94.6705322,94.77845 91.670639,112.5672226 81.3925476,112.5672226 
			83.359848,101.4062042 85.244957,90.7165604 		"/>
		<polygon class="st134" points="114.8004456,75.1944122 114.8004456,112.5672226 109.2349625,112.5672226 109.2349625,103.5681 
			103.6621704,103.5681 100.7744141,112.5672226 95.5307159,112.5672226 103.0784836,89.8486938 107.9485092,75.1944122 		"/>
		<polygon class="st134" points="133.3747253,96.304512 136.3296814,112.5672226 130.6520538,112.5672226 127.9739609,99.8203354 
			122.4081116,112.5672226 116.7304916,112.5672226 121.9668732,102.0270615 121.9745483,102.0270615 126.5823212,92.7512436 
			123.4856339,77.8274918 122.9395676,75.1944122 128.5123596,75.1944122 130.7565308,86.2207413 136.4341431,75.1944122 
			142,75.1944122 132.7913971,93.0728607 		"/>
		<path class="st34" d="M83.359848,101.4062042c3.3063431-1.937439,7.1737289-4.2040634,11.3106842-6.6277542l-2.9998932,17.7887726
			H81.3925476L83.359848,101.4062042z"/>
		<path class="st34" d="M103.0784836,89.8486938c3.9199829-2.3039703,7.8995056-4.6453934,11.721962-6.8970413v22.6735992
			l-5.5654831,2.7977142V103.5681h-5.5727921l-2.8877563,8.9991226h-5.2436981L103.0784836,89.8486938z"/>
		<path class="st34" d="M132.7913971,93.0728607l0.5833282,3.2316513l-11.400177,5.7225494l4.6077728-9.2758179
			l-3.0966873-14.9237518c1.5483398-0.9200974,3.0294724-1.8028412,4.4284286-2.6330795h0.5982971l2.2441711,11.026329
			l5.6776123-11.026329H142L132.7913971,93.0728607z"/>
		<polygon class="st6" points="104.6326141,99.2628708 108.9326706,99.2628708 109.565033,86.0465088 		"/>
	</g>
	<path class="st0" d="M71.734993,112.9479828l0.0206528-2.5013428l-0.0137558-0.0275421l-0.0895767-0.6546326l-0.4203262-3.0663834
		l-0.144722-1.0611572l0.6201859,0.0964813l3.3695297,0.5443497l0.5857391,2.3842087l1.1989822,4.8510666
		C76.861702,113.513031,71.859024,113.0444641,71.734993,112.9479828z"/>
	<path class="st1" d="M75.6627197,108.6619644l-4.0104065,1.1025009l-0.4203262-3.0663834
		c0.1791229-0.4685669,0.3445358-0.8337936,0.4754639-0.9646759l3.3695297,0.5443497L75.6627197,108.6619644z"/>
	<path class="st24" d="M83.7246475,115.2956848v1.4907608l-12.6815033-0.4571686l-0.0926895-0.8282013l-0.1722717-1.4775009
		c-0.1060333-0.9342346,0.072876-1.881691,0.5168152-2.7098923l0.4637604-0.8613205l0.5830612,0.6228104
		c0.284935,0.3047943,0.6890106,0.4637985,1.1065063,0.4373093l0.7751465-0.053009
		c0.4770203-0.026535,0.9143372-0.3047943,1.1395798-0.7354355l0.5234528-0.9872513l2.3123322,2.2460938l3.8428802,1.0866089
		C83.0355606,113.3543854,83.7246475,114.262085,83.7246475,115.2956848z"/>
	<polygon class="st47" points="83.7249908,115.9340897 83.7249908,117.2194595 71.0434875,116.762291 70.950798,115.9340897 	"/>
	<path class="st0" d="M36.3304138,111.5147018l0.9922676,2.7631836c0,0-5.2300873,0.2963028-5.3058739,0.2343063
		l0.0206909-2.5013428l0.5925941-1.3988342l1.5297241-3.6245346l0.2825432-0.6683807l0.9853668,0.3307419l3.6934242,1.2541199
		l-1.8536072,2.3979645l-0.0137558,0.0137939L36.3304138,111.5147018z"/>
	<path class="st1" d="M39.121151,107.9039612l-1.8536072,2.3979645l-0.0137558,0.0137939
		c0,0-3.6314278,0.2549515-4.6236954,0.2962952l1.5297241-3.6245346c0.3858795-0.1171265,0.8199959-0.2273636,1.26791-0.3376389
		L39.121151,107.9039612z"/>
	<path class="st24" d="M44.0070457,116.859581v1.4907608l-12.6815052-0.4571686l-0.0926876-0.8281937l-0.1722736-1.4775009
		c-0.1060314-0.9342346,0.0728722-1.881691,0.5168171-2.7098923l0.4637604-0.8613205l0.5830574,0.6228104
		c0.284935,0.3047867,0.6889954,0.4637985,1.1064949,0.4373093c0.8887749-0.029953,1.7476959-0.736496,2.6014328-1.5609131
		l2.149086,2.0313034l3.8428879,1.0866165C43.317955,114.9182816,44.0070457,115.8259888,44.0070457,116.859581z"/>
	<polygon class="st47" points="44.0073891,117.4979858 44.0073891,118.7833557 31.325882,118.3261871 31.2331944,117.4979858 	"/>
	<path class="st0" d="M86.4315643,53.3656044l-1.3202438,1.7817993l-0.0476151,3.6236267l-2.111969,2.079998l-0.2482605,0.242527
		l-3.8285599,3.7509575l-2.2871017-2.9711456l-0.3989944-0.5077934l1.5987549-1.4075203l0.8364182-0.9082947l0.0110474-0.0179329
		l0.8050003-0.8733101l0.0416336-0.0435333l0.1793671-0.2108116l0.7025604-4.9354134
		c0.0453873-0.2983017,0.3013687-0.5212288,0.5850677-0.5244179c0.2649841-0.0047951,0.4876862,0.1472511,0.5801926,0.3821983
		c0.0247726,0.0399666,0.0385437,0.0978737,0.0445938,0.1362381l0.226593,1.597847l3.4898529-2.3828506
		c0.4125824-0.2845688,0.9667282-0.1409302,1.202774,0.2862625c0.0068817,0.0289803,0.0324783,0.0595665,0.0401993,0.0791664
		C86.6408234,52.8173447,86.6048126,53.116478,86.4315643,53.3656044z"/>
	<path class="st1" d="M82.9517365,60.8510284l-0.2482605,0.242527l-3.8285599,3.7509575l-2.2871017-2.9711456l2.0361786-2.8236084
		l0.0110474-0.0179329C78.6350403,59.031826,80.9579544,60.0032616,82.9517365,60.8510284z"/>
	<path class="st0" d="M59.3570328,40.5398712l-1.5735817,6.2349472c-0.0845757,0.3351212-0.0977974,0.6882133-0.0310822,1.0264244
		c0.0516586,0.2350845,0.1351051,0.4606438,0.2514458,0.6711845c0.019043,0.0398636,0.1013832,0.1307602,0.210907,0.2518768
		l-1.6664772,6.6030273l3.7520027,0.9469337l1.343441-5.3230629c0.0439072-0.0123177,0.0976868-0.0162544,0.1512032-0.0202942
		c0.5182877-0.085392,1.0094032-0.3412361,1.3813133-0.7499199c0.6487923-0.6951981,1.1068459-1.537899,1.3383751-2.4552803
		l0.8235321-3.2630577c0,0,0.5105591-1.5130997-0.8777313-2.6347923L59.3570328,40.5398712z"/>
	<path class="st1" d="M58.5902634,43.5683594l-0.7323151,2.901638c0.2323837-0.0485268,0.4250908-0.2313232,0.4866714-0.4753189
		l0.4498138-1.7822952C58.8560143,43.9683914,58.7717896,43.7213516,58.5902634,43.5683594z"/>
	<path class="st3" d="M67.5961609,43.2384453c-0.023407,0.0350266-0.0479202,0.0793533-0.0724945,0.1236687
		c-0.5694046,0.9810715-1.408371,1.8428383-2.4849396,2.1814232c0.0867996-0.3874168,0.0160141-0.8041878-0.1073303-1.1801682
		c-0.0988922-0.3444748-0.2970123-0.6539803-0.594429-0.8526917c-0.2881317-0.1975403-0.6265259-0.2970924-0.8036613-0.6229439
		c-0.1304703-0.244072-0.131321-0.5382156-0.1147079-0.8207207c-0.0948486,0.3010712-0.2644081,0.5927277-0.5155411,0.7792168
		c-0.2429657,0.1970139-0.5780945,0.297081-0.8919792,0.2290421c-0.3057823-0.0574646-0.5635185-0.2701645-0.7383652-0.5388184
		c-0.1654396-0.2674713-0.250351-0.5722046-0.2768822-0.8885727c-0.3670311,0.5038986-0.7771988,0.9738731-1.2130585,1.4216843
		c-0.382061,0.3976212-0.8516426,0.7368011-1.1742287,1.1893921c-0.1741943,0.2530937-0.2341423,0.6534462-0.3184586,0.9462929
		c-0.18153,0.6126633-0.3631096,1.2252655-0.5527992,1.8273468c-0.3355255-0.6492805-0.6862106-1.2531166-0.8605995-1.9769783
		c-0.1057587-0.4401703-0.1263504-0.8790398-0.135231-1.3354797c-0.0041847-0.4937134-0.0841942-0.9875412-0.0685043-1.4883003
		c0.0094795-0.1505394,0.0096169-0.3023148,0.0202713-0.462204c0.0697403-0.8543243,0.2433586-1.7051125,0.5359421-2.521862
		c0.2072105-0.5904388,0.5112953-1.1970978,1.0672188-1.4684868c0.1517868-0.0757561,0.3175583-0.1117744,0.478672-0.1104012
		c0.3851395,0.0295448,0.6859512,0.3519936,0.93433,0.6394081c-0.0977821-0.2779312-0.0367317-0.6116867,0.1712608-0.8320961
		c0.1986504-0.2215843,0.5325356-0.3122559,0.8160896-0.2291107c0.3582687,0.0925636,0.6018867,0.4172974,0.9425697,0.5740471
		c0.2951889,0.1415215,0.6278343,0.1360283,0.9652405,0.0932159c0.1634216-0.0173836,0.3280106-0.0440559,0.4821358-0.0625534
		c0.471611-0.0543823,0.9641457-0.049221,1.4203987,0.0936089c1.1038818,0.3478088,1.3605652,1.6226959,2.4117737,2.0871239
		c0.2602081,0.1181831,0.5531158,0.202507,0.7758255,0.3918037c0.2647247,0.2325668,0.381134,0.5886841,0.4134293,0.9342041
		C68.1576538,42.019249,67.9153976,42.6621819,67.5961609,43.2384453z"/>
	<path class="st1" d="M61.4475212,51.7124329l0.1932869-0.7658653c-0.0604362,0.1817131-1.9035301-1.010746-2.0993004-1.2474289
		c-0.1211815-0.0660477-0.2359467,0.0966034-0.1331062,0.1886292
		C59.8727341,50.6596718,60.5426178,51.2753563,61.4475212,51.7124329z"/>
	<path class="st0" d="M58.8465157,44.0086746l-0.4496002,1.7814255c-0.0884018,0.3502731-0.4436569,0.5623474-0.7939262,0.4739456
		c-0.3502655-0.0884018-0.562336-0.4436569-0.473938-0.7939301l0.4496002-1.7814255
		c0.0442009-0.1751328,0.1550827-0.3150673,0.298542-0.4011192c0.1438332-0.0854492,0.3201218-0.1165199,0.4952545-0.072319
		C58.7227135,43.3036537,58.9347878,43.6589127,58.8465157,44.0086746z"/>
	<path class="st4" d="M62.4477959,46.5054398l0.2750549,0.5969276c0.0718918,0.1560173,0.0021515,0.3406792-0.1549187,0.4102249
		l-0.4214134,0.1865921"/>
	<path class="st5" d="M61.3330193,49.5001564c-0.0383224-0.0149307-0.0766411-0.0298615-0.1185684-0.0508385
		c-0.3444176-0.1763611-0.505497-0.5376778-0.5764084-0.9024162c-0.0294228-0.1335602-0.0426407-0.2682915-0.048584-0.390667
		c0.0012512-0.0049438-0.002449-0.0111389-0.0011978-0.0160866c0.0012474-0.0049438-0.0024529-0.0111389-0.0012016-0.0160866
		c-0.0084381-0.1124802-0.0068665-0.222435-0.0004654-0.3311729c0.0025406-0.0309258,0.0038376-0.0569038,0.0063515-0.0877075
		c0.0012932-0.0259781-0.0011063-0.0581474,0.0113297-0.0865746c0.0024948-0.0098953,0.0099373-0.0185356,0.0210762-0.0209885
		c0.0074425-0.0086403,0.0172157-0.006176,0.0234985-0.0097237c0.0320511-0.00243,0.0580139,0.0197754,0.0864105,0.0323334
		c0.0185661,0.0098152,0.0407982,0.0259514,0.0592155,0.0358582c0.0506592,0.0285683,0.1012001,0.057106,0.1518593,0.0856743
		c0.0593071,0.0360146,0.1184883,0.0719948,0.1789513,0.1029091c0.0691948,0.0385056,0.1333275,0.075737,0.1975784,0.1129951
		c0.0678253,0.0434227,0.1320763,0.0806847,0.2011833,0.1190414c0.0642471,0.0372581,0.1283798,0.0744858,0.1925087,0.1117172
		c0.0593033,0.0360107,0.1197357,0.0670433,0.1790695,0.1029358c0.0505104,0.0286598,0.1012001,0.057106,0.1518631,0.0856743
		c0.0406494,0.0260429,0.0777168,0.0459213,0.1147881,0.0657997c0.0221138,0.0161018,0.0406494,0.0260391,0.0641327,0.0372276
		c0,0,0,0,0.0049438,0.0012474c0.0135918,0.0086937,0.082695,0.0470505,0.1455765,0.089222
		c0.0691986,0.0385094,0.1333275,0.075737,0.1333275,0.075737C62.5554886,48.862606,62.0888367,49.7750893,61.3330193,49.5001564z"
		/>
	<path class="st6" d="M62.3769302,48.5705299l-0.1476059,0.2518463c-0.0657997,0.1147919-0.2179108,0.1551857-0.3327332,0.0895081
		l-1.3071327-0.7556496c0.0012512-0.0049438-0.002449-0.0111389-0.0011978-0.0160866
		c0.0012474-0.0049438-0.0024529-0.0111389-0.0012016-0.0160866c-0.0084381-0.1124802-0.0068665-0.222435-0.0004654-0.3311729
		c0.0025406-0.0309258,0.0038376-0.0569038,0.0063515-0.0877075c0.0012932-0.0259781-0.0011063-0.0581474,0.0113297-0.0865746
		c0.0024948-0.0098953,0.0099373-0.0185356,0.0210762-0.0209885c0.0074425-0.0086403,0.0172157-0.006176,0.0234985-0.0097237
		c0.0320511-0.00243,0.0580139,0.0197754,0.0864105,0.0323334c0.0185661,0.0098152,0.0407982,0.0259514,0.0592155,0.0358582
		c0.0506592,0.0285683,0.1012001,0.057106,0.1518593,0.0856743c0.0593071,0.0360146,0.1184883,0.0719948,0.1789513,0.1029091
		c0.0691948,0.0385056,0.1333275,0.075737,0.1975784,0.1129951c0.0678253,0.0434227,0.1320763,0.0806847,0.2011833,0.1190414
		c0.0642471,0.0372581,0.1283798,0.0744858,0.1925087,0.1117172c0.0593033,0.0360107,0.1197357,0.0670433,0.1790695,0.1029358
		c0.0505104,0.0286598,0.1012001,0.057106,0.1518631,0.0856743c0.0406494,0.0260429,0.0777168,0.0459213,0.1147881,0.0657997
		c0.0221138,0.0161018,0.0406494,0.0260391,0.0641327,0.0372276c0,0,0,0,0.0049438,0.0012474
		C62.2449455,48.4900017,62.3140488,48.5283585,62.3769302,48.5705299z"/>
	<path class="st3" d="M60.6364708,48.5491219c0.0735054,0.3606339,0.2363281,0.7221375,0.5797501,0.8997231
		c0.0396729,0.0201263,0.0796547,0.0388832,0.1183243,0.0515327c0.11726-0.2302055,0.0595856-0.5392036-0.1581688-0.7514763
		C61.0209122,48.598526,60.8201294,48.5305328,60.6364708,48.5491219z"/>
	<path class="st1" d="M57.9706268,43.8237839l-0.1285172,0.5092278l0.4118347,0.3353729l0.1834297-0.7268028
		c0.0321312-0.1273079-0.0471649-0.2601433-0.1744728-0.2922745C58.1355934,43.6171799,58.002758,43.696476,57.9706268,43.8237839z"
		/>
	<path class="st1" d="M58.1281052,45.1669884l-0.4185677-0.3086929l-0.1204796,0.4773674
		c-0.0321312,0.1273079,0.0471687,0.2601433,0.1744766,0.2922745c0.1273041,0.0321312,0.2601433-0.0471687,0.2922707-0.1744728
		L58.1281052,45.1669884z"/>
	<path class="st7" d="M81.8487625,62.3951035c-0.6359253,0.7255936-1.6232224,1.7355423-2.767952,2.8276749
		c-1.9446564,1.8401871-4.3535538,3.9197998-6.3584747,5.3784714c-1.1220779,0.8154449-2.6331635,0.8154449-3.755249-0.0074844
		c-2.3263474-1.6756363-6.0439796-4.4359207-6.6649246-5.2662506c-0.3740273-0.4787674-0.7707024-0.9650192-1.1370583-1.4662514
		c-0.4266243-0.5685272-0.8379097-1.1669159-1.1520348-1.7653084c-1.0398979-1.9824562-1.4511833-4.5632095,0.93507-5.707756
		l0.1943169-0.0896721l0.2768707-0.1346893l0.2542191-0.1197128c0.4565773-0.224453,0.9577179-0.3216133,1.436573-0.3141251
		c0.1943207-0.0074883,0.3740311,0.0074883,0.5533714,0.0448341c0.0672112,0.0149765,0.1271133,0.0298615,0.1946869,0.044838
		c0.0971565,0.0224609,0.1870117,0.0449257,0.2765045,0.0823669c0.4638824,0.1570587,0.8828354,0.4113731,1.2418823,0.763031
		c0.2692032,0.2468224,0.4938354,0.5535507,0.6582031,0.905117c0,0,4.3312683,5.7450104,5.4084244,6.6875725
		c2.2817917-1.8177261,4.3462448-2.9472961,6.2313614-4.6004715c0.1497574-0.1272011,0.2918396-0.2618904,0.4339294-0.3964882
		c0.1198044-0.1197166,0.2392502-0.2394295,0.3667221-0.3590546C79.7916107,59.911602,80.5769196,61.3329239,81.8487625,62.3951035z
		"/>
	<path class="st9" d="M80.277771,62.4025917l-9.3608627,6.4460869l-5.3982544-8.5556526l-1.9972496,0.2394295l0.3367729-4.7127838
		c0.0971565,0.0224609,0.1870117,0.0449257,0.2765045,0.0823669c0.4638824,0.1570587,0.8828354,0.4113731,1.2418823,0.763031
		c0.2692032,0.2468224,0.4938354,0.5535507,0.6582031,0.905117c0,0,4.3312683,5.7450104,5.4084244,6.6875725
		c2.2817917-1.8177261,4.3462448-2.9472961,6.2313614-4.6004715c0.1497574-0.1272011,0.2918396-0.2618904,0.4339294-0.3964882
		C79.2678223,60.9439201,80.277771,62.4025917,80.277771,62.4025917z"/>
	<path class="st8" d="M79.0776443,65.2215271c-1.9394379,1.8402023-4.3538666,3.921669-6.3537979,5.3786316
		c-1.1211777,0.8168793-2.6326675,0.8150024-3.7598648-0.0030746c-2.3261261-1.6802902-6.039917-4.4379654-6.6654015-5.2681961
		c-0.3732872-0.4771423-0.7645645-0.9654007-1.1354103-1.4706955l0.2478867-0.0252266L63.2318077,61.743
		c0.6312065-0.7245369,1.8223915-0.357563,1.9364433,0.5965652l0.4843903,4.0522804l4.2097244,3.3657227
		c0.402359,0.3216934,0.9618683,0.3606339,1.4049072,0.0977783L79.0776443,65.2215271z"/>
	<path class="st7" d="M65.5186539,56.7921791v0.0074883c-0.059906-0.0074883-0.3963089-0.1495743-0.4412384,0
		c0,0-0.1570587,0.561039-0.3889999,1.5035973c-0.2246399,0.8228416-0.5237885,1.937439-0.8379097,3.2016983
		c-0.1943207,0.7330818-0.3813324,1.4961128-0.6059685,2.2816048c-0.2469177,0.9724197-0.5011406,1.9897614-0.7553596,2.9847336
		v0.0074921c-0.4416008,1.6681442-0.8605576,3.2913666-1.211937,4.6603622
		c-0.0898552,0.3515701-0.172039,0.6507187-0.2392464,0.9126129c-0.1048317,0.3964844-0.1797104,0.703125-0.2469177,0.9500427
		c-0.0226479,0.0747833-0.0449295,0.1495743-0.0599022,0.2094727c-0.1271133,0.5086288-0.201992,0.755455-0.2841759,1.0846481
		c-3.4937248,0.6508026-9.8445244,0.0374374-12.3356056-0.3067322c-0.620945-0.0822754-1.0022774-0.1496658-1.0398979-0.1720352
		l1.6308899-13.9737129v-0.0523224l0.1946869-1.3689079l0.5310898-3.7552528l0.231575-1.728054l0.4339294-0.0598106
		l0.5836868-0.0747871l6.4333496-0.8602829l0.2465515-0.0224609c-0.0672073,0.2767754-0.0522308,0.5311813-0.0146103,0.7854004
		c0.3586884,1.6233139,3.1565895,2.1395187,3.7402763,0.2244568c0.0295868-0.0598145,0.8601913,0.5984802,1.8025665,1.3615112
		v0.0074883c0.3517456,0.2841721,0.7257729,0.5909004,1.0698471,0.875164
		c0.5084419,0.426445,0.9723244,0.8079605,1.2491951,1.0398102c0.1570663,0.1421776,0.2618942,0.2318459,0.2918472,0.2543106
		C65.5113525,56.7772026,65.5186539,56.7921791,65.5186539,56.7921791z"/>
	<path class="st8" d="M52.3780479,60.4032211l-2.2993584,1.6702728c0,0-1.4734612,9.2533493-1.9672966,12.2157059
		c-0.620945-0.0822754-1.0022774-0.1496658-1.0398979-0.1720352l1.6308899-13.9737129v-0.0523224l0.1946869-1.3689079
		l3.1180763,0.3270111C52.69944,59.1209984,52.9347229,59.9988441,52.3780479,60.4032211z"/>
	<path class="st11" d="M76.5002365,108.6623993h-6.3734436l-2.4910812-19.3822327l-12.3206329-4.869751l-0.403614,0.9724121
		l-0.2545891,0.6134567l-3.8823624,9.5077515c-0.1570625,0.3740311-0.3740273,0.7255936-0.6282501,1.0473022l-6.6725922,8.1538162
		l-3.9572411,4.8324051l-0.8751678,1.0771561l-5.2217751-1.1071014l-1.2192421-0.2618027l11.1163635-16.2029037
		l3.4484329-16.4945602l0.3064537-2.4311829l13.6746521-0.7331696l0.0898552,0.7555389l0.0522346,0.4788589l0.1793404,1.496109
		l0.0748787,0.044838l1.974968,1.1893845l10.0388489,6.0518341c1.40625,0.8377228,2.2890854,2.3263474,2.3639679,3.9646378
		l0.4412384,9.6274643l0.4339294,9.3207397L76.5002365,108.6623993z"/>
	<polygon class="st12" points="60.888237,74.6183929 48.455471,76.1593399 44.7601204,93.64888 33.419487,109.5076141 
		32.2002449,109.2458115 43.3166084,93.0429077 46.7650414,76.5483475 47.0714951,74.1171646 60.7461472,73.3839951 
		60.8360023,74.139534 	"/>
	<path class="st13" d="M54.6568756,85.9962845l-3.8823624,9.5077515c-0.1570625,0.3740311-0.3740273,0.7255936-0.6282501,1.0473022
		l-6.6725922,8.1538162c-2.7529755-0.4339294-5.0121193-0.7780075-5.0121193-0.7780075s6.6503143-8.5278473,6.8745842-8.819603
		c0.2246361-0.2991486,2.5959129-9.6348572,2.5959129-9.6348572L54.6568756,85.9962845z"/>
	<path class="st13" d="M75.9614792,96.9926605c-2.1842651,1.967392-4.0617065,3.6281433-4.0617065,3.6281433l-1.294487-13.0909653
		l-12.6194153-6.3734512l-1.3167686-2.9847336c0,0,1.9227371-0.8677673,4.4733543-2.0123138l1.974968,1.1893845
		l10.0388489,6.0518341c1.40625,0.8377228,2.2890854,2.3263474,2.3639679,3.9646378L75.9614792,96.9926605z"/>
	<path class="st5" d="M62.6045456,37.9143486c-0.0260086,0.2812614-0.0974541,0.5473022-0.21558,0.8075218
		c-0.297142,0.626461-0.9291039,1.1254539-1.620079,1.1142159c-0.3128395-0.0014458-0.6139107-0.0962944-0.9149818-0.191143
		c0.1935463,0.2709541,0.106739,0.6584282-0.0616417,0.9407387c-0.3028374,0.5214195-0.8330917,0.8909302-1.3970604,1.0759201
		c-0.5441589,0.1780434-1.1336288,0.1891518-1.7019806,0.1080322c0.0697403-0.8543243,0.2433586-1.7051125,0.5359421-2.521862
		c0.2072105-0.5904388,0.5112953-1.1970978,1.0672188-1.4684868c0.1517868-0.0757561,0.3175583-0.1117744,0.478672-0.1104012
		c0.3851395,0.0295448,0.6859512,0.3519936,0.93433,0.6394081c-0.0977821-0.2779312-0.0367317-0.6116867,0.1712608-0.8320961
		c0.1986504-0.2215843,0.5325356-0.3122559,0.8160896-0.2291107c0.3582687,0.0925636,0.6018867,0.4172974,0.9425697,0.5740471
		C61.934494,37.9626541,62.2671394,37.9571609,62.6045456,37.9143486z"/>
	<line class="st4" x1="85.1113205" y1="55.1474037" x2="83.5503006" y2="56.2786789"/>
	<path class="st12" d="M70.6049042,108.6619644h-0.4754639l-2.4944382-19.3836288l-12.3206329-4.8648529v-0.8417587
		c0-0.6237411,0.6330338-1.0479126,1.2099152-0.8107224l12.4228821,5.1264954
		C68.9471664,87.8874969,70.1363449,103.7902145,70.6049042,108.6619644z"/>
	<path class="st101" d="M38.4586601,113.6285553c0.0042343,0.1714325-0.1007919,0.3249969-0.2102585,0.4570007
		c-0.18647,0.2248459-0.3994484,0.4276886-0.63311,0.6029892"/>
	<path class="st101" d="M39.2713585,115.1919403c0.5002785-0.173851,0.928978-0.5450439,1.1726112-1.0153046"/>
	<path class="st101" d="M77.2445221,113.0157623c0.2393875-0.0220032,0.4582672-0.1532745,0.6291733-0.3223343
		s0.2999649-0.3749695,0.4257507-0.579834"/>
	<path class="st101" d="M79.214325,113.6979446c0.2307281-0.0651474,0.4262543-0.2250137,0.5718384-0.4154968
		s0.245903-0.4112473,0.3363266-0.6332855"/>
	<line class="st19" x1="71.4442444" y1="64.2605743" x2="71.5392838" y2="65.6422043"/>
	<line class="st85" x1="67.6350021" y1="89.2783356" x2="69.2843399" y2="87.5301132"/>
	<line class="st85" x1="43.3176231" y1="93.0406494" x2="44.093277" y2="93.2740097"/>
	<path class="st7" d="M29.6017742,62.0747185L51.3506508,59.79879c1.9103851-0.2033348,3.2471313-1.9593048,2.9648285-3.84412
		c-0.1652069-1.0645905-0.7919655-1.9289398-1.6388702-2.4191284c-0.6865005-0.3958321-1.5068054-0.5506706-2.3397293-0.3850288
		l-0.6065712,0.1069298l-2.9015274,0.5155869l-16.543211,2.9397964l-1.857296,0.3304977l0.9966888,4.2718773L29.6017742,62.0747185z
		"/>
	<path class="st17" d="M101.5312195,60.2915039c0,0-35.802803,30.7579117-74.7259827,20.7893677l-5.0548401,2.3719788
		C21.7503986,83.4528503,61.3457413,98.7976837,101.5312195,60.2915039z"/>
	<path class="st34" d="M94.8610458,78.1719818l2.8707275-2.9811401c0,0,3.0915451,3.3675766,2.9259262,3.4227829
		s-3.9748459-0.3312302-3.9748459-0.3312302l-1.1593323,2.8707199L94.8610458,78.1719818z"/>
	<path class="st34" d="M85.5473557,83.1476974l-2.9448624-2.9079208c0,0,3.4061279-3.0490341,3.4592514-2.8827362
		c0.0531158,0.1663055-0.3811111,3.9703827-0.3811111,3.9703827l2.8559418,1.1952744L85.5473557,83.1476974z"/>
	<polygon class="st34" points="92.4627914,70.6253586 96.7136688,67.809845 97.7625885,70.6253586 	"/>
	<path class="st9" d="M65.5186539,56.7921791v0.0074883c-0.059906-0.0074883-0.3963089-0.1495743-0.4412384,0
		c0,0-0.1570587,0.561039-0.3889999,1.5035973c-0.2246399,0.8228416-0.5237885,1.937439-0.8379097,3.2016983
		c-0.1943207,0.7330818-0.3813324,1.4961128-0.6059685,2.2816048c-0.2469177,0.9724197-0.5011406,1.9897614-0.7553596,2.9847336
		v0.0074921c-0.4416008,1.6681442-0.8605576,3.2913666-1.211937,4.6603622
		c-0.0898552,0.3515701-0.172039,0.6507187-0.2392464,0.9126129h-9.605278c0,0,3.1120262-13.7941895,3.1120262-13.9139061
		c0-0.0746956,5.3634987-1.7279587,9.4105911-2.9622688c0.5084419,0.426445,0.9723244,0.8079605,1.2491951,1.0398102
		c0.1570663,0.1421776,0.2618942,0.2318459,0.2918472,0.2543106C65.5113525,56.7772026,65.5186539,56.7921791,65.5186539,56.7921791
		z"/>
	<line class="st4" x1="23.1114445" y1="62.0061035" x2="24.8551655" y2="62.0747185"/>
	<line class="st4" x1="23.7272186" y1="60.537365" x2="25.1074562" y2="60.537365"/>
	<line class="st4" x1="23.983305" y1="59.234726" x2="25.2507801" y2="59.3188248"/>
</g>
</svg>
